<svg viewBox="0.00 0.00 256.00 256.00" version="1.1" xmlns="http://www.w3.org/2000/svg">
<g stroke-linecap="butt" fill="none" stroke-width="2.00">
<path d="M 126.76 101.57
  Q 101.09 101.38 75.65 101.49
  C 48.97 101.60 28.88 117.23 22.22 142.96" stroke="#b4b7ff"></path>
<path d="M 22.22 142.96
  Q 20.29 151.96 21.53 161.50" stroke="#b1bdfd"></path>
<path d="M 21.53 161.50
  Q 23.77 178.04 35.27 190.62" stroke="#bfd0ff"></path>
<path d="M 35.27 190.62
  Q 40.04 195.72 46.20 199.57" stroke="#c3dbff"></path>
<path d="M 46.20 199.57
  C 73.00 215.41 106.32 206.23 120.96 178.73" stroke="#c9e4ff"></path>
<path d="M 120.96 178.73
  Q 124.64 171.83 126.02 163.54" stroke="#c3dbff"></path>
<path d="M 126.02 163.54
  L 126.87 154.77
  Q 126.89 154.64 127.01 154.60
  Q 127.14 154.56 127.22 154.46" stroke="#bfd0ff"></path>
<path d="M 127.22 154.46
  L 134.80 154.47" stroke="#af90db"></path>
<path d="M 134.80 154.47
  L 140.89 154.47" stroke="#b196e5"></path>
<path d="M 140.89 154.47
  L 148.69 154.46" stroke="#b4a1f1"></path>
<path d="M 148.69 154.46
  L 157.64 154.46" stroke="#b5aaf8"></path>
<path d="M 157.64 154.46
  L 171.94 154.46" stroke="#b6b0fc"></path>
<path d="M 171.94 154.46
  Q 180.11 154.81 186.75 154.00
  C 213.43 150.72 233.70 126.77 232.58 99.81" stroke="#b4b7ff"></path>
<path d="M 232.58 99.81
  Q 232.28 88.62 227.31 78.44" stroke="#b6b0fc"></path>
<path d="M 227.31 78.44
  Q 221.46 66.35 210.43 58.42" stroke="#b5aaf8"></path>
<path d="M 210.43 58.42
  L 205.60 55.34" stroke="#b4a1f1"></path>
<path d="M 205.60 55.34
  L 199.71 52.51" stroke="#b196e5"></path>
<path d="M 199.71 52.51
  C 166.43 39.21 129.95 61.45 127.13 97.25
  Q 126.95 99.64 126.76 101.57" stroke="#af90db"></path>
<path d="M 199.71 52.51
  Q 199.55 54.09 200.13 55.10
  Q 200.34 55.46 200.14 55.83
  Q 199.94 56.21 199.56 56.14
  Q 199.12 56.06 198.89 56.45
  C 198.15 57.76 197.78 58.94 196.69 60.02
  Q 195.11 61.57 193.48 63.05
  Q 193.16 63.34 192.75 63.41
  Q 191.77 63.59 191.87 64.49
  A 1.24 1.23 79.9 0 1 190.94 65.83
  Q 183.42 67.68 177.78 70.96
  Q 175.19 72.46 172.60 73.99
  Q 170.30 75.35 167.67 77.40
  Q 163.82 80.39 159.76 83.06
  Q 157.71 84.41 156.36 85.86
  Q 154.63 87.73 153.51 89.26
  Q 148.00 96.81 143.11 106.17
  C 142.78 106.79 142.25 107.09 142.06 107.92
  Q 141.82 108.95 141.79 109.02
  Q 139.32 115.59 137.97 122.02
  Q 136.81 127.59 139.09 122.38
  Q 139.33 121.83 139.90 118.39
  Q 139.90 118.38 139.91 118.38
  Q 139.91 118.38 139.93 118.38
  Q 139.96 118.39 139.96 118.42
  Q 138.87 124.28 137.75 130.14
  Q 136.98 134.20 136.72 138.93
  Q 136.37 145.13 135.78 147.76
  Q 134.78 152.25 134.80 154.47" stroke="#6127c0"></path>
<path d="M 127.22 154.46
  L 126.92 144.02" stroke="#6f61db"></path>
<path d="M 126.92 144.02
  L 126.90 125.16" stroke="#6854db"></path>
<path d="M 126.90 125.16
  L 126.81 111.40" stroke="#6e4ddb"></path>
<path d="M 126.81 111.40
  L 126.76 101.57" stroke="#6448da"></path>
<path d="M 126.02 163.54
  L 120.41 165.31
  A 0.69 0.69 0.0 0 0 119.95 165.81
  Q 119.89 166.05 119.75 166.25
  Q 119.57 166.49 119.15 166.63
  Q 115.85 167.66 112.52 168.84
  Q 111.86 169.08 112.39 168.61
  Q 112.56 168.46 112.59 168.40
  Q 112.95 167.65 112.15 167.85
  Q 104.61 169.70 97.00 169.87
  Q 90.55 170.02 87.25 170.50
  Q 86.61 170.59 85.84 171.28
  A 1.69 1.66 22.8 0 1 84.78 171.70
  L 71.51 172.14
  A 0.13 0.13 0.0 0 1 71.47 171.88
  Q 71.67 171.82 71.82 171.68
  Q 72.22 171.29 71.68 171.18
  C 70.24 170.87 68.14 171.78 66.57 171.99
  Q 65.93 172.08 66.49 171.76
  Q 67.60 171.12 68.40 170.12
  Q 68.71 169.72 69.21 169.63
  C 70.73 169.34 71.78 169.53 73.14 168.68
  C 75.70 167.08 78.57 165.24 81.29 163.96
  A 0.07 0.07 0.0 0 0 81.25 163.82
  L 70.76 165.01
  A 0.30 0.30 0.0 0 1 70.51 164.50
  L 70.70 164.30
  Q 71.06 163.94 70.56 164.03
  L 65.23 164.90
  Q 64.60 165.00 64.27 165.54
  Q 63.74 166.40 62.60 166.12
  Q 62.10 165.99 61.62 166.19
  Q 60.69 166.57 60.09 167.35
  C 58.76 169.08 57.21 169.87 55.02 170.16
  Q 54.58 170.22 54.22 170.47
  L 53.39 171.03
  Q 52.86 171.38 52.81 170.75
  Q 52.78 170.48 53.06 170.21
  Q 53.16 170.12 53.02 170.12
  Q 52.86 170.12 52.69 170.12
  Q 52.34 170.13 52.11 170.39
  Q 51.47 171.12 50.50 171.11
  A 0.87 0.86 -79.6 0 0 49.67 171.69
  Q 49.12 173.21 47.73 173.79
  Q 47.19 174.02 47.03 174.59
  C 46.19 177.51 42.67 177.42 41.11 179.46
  Q 39.86 181.09 38.68 181.56
  Q 38.23 181.74 37.98 182.14
  Q 37.16 183.43 37.16 185.02
  Q 37.16 185.12 37.25 185.14
  Q 37.45 185.19 37.39 184.99
  A 0.17 0.17 0.0 0 1 37.63 184.78
  Q 37.98 184.95 37.81 185.49
  Q 36.91 188.43 35.27 190.62" stroke="#83acff"></path>
<path d="M 205.60 55.34
  Q 205.35 57.15 206.35 58.33
  A 1.15 1.13 -67.9 0 1 206.62 58.98
  Q 206.72 60.15 207.67 60.75
  Q 207.89 60.89 207.87 61.15
  Q 207.86 61.42 207.68 61.54
  Q 207.43 61.71 207.40 62.01
  L 206.97 66.78
  Q 206.94 67.07 207.15 66.87
  L 207.40 66.61
  A 0.33 0.32 -34.7 0 1 207.92 66.70
  Q 208.21 67.29 208.08 67.98
  A 1.26 1.25 75.7 0 1 207.62 68.76
  Q 206.81 69.39 206.93 70.21
  Q 207.00 70.72 206.78 71.18
  Q 204.69 75.75 201.90 78.15
  Q 196.60 82.68 188.00 86.40
  Q 186.20 87.19 184.68 88.37
  Q 182.88 89.77 181.53 90.50
  C 179.84 91.41 178.57 92.38 176.64 93.21
  Q 174.52 94.12 172.88 95.83
  Q 172.77 95.95 172.92 96.00
  Q 173.06 96.05 173.20 96.07
  Q 173.38 96.10 173.23 96.21
  Q 169.64 98.65 165.79 100.58
  Q 162.85 102.06 160.88 103.75
  Q 158.63 105.69 156.43 107.68
  Q 156.28 107.81 156.20 107.63
  Q 156.14 107.50 156.18 107.37
  Q 156.24 107.12 156.01 107.25
  Q 155.13 107.77 155.09 108.73
  A 1.26 1.24 -18.6 0 1 154.64 109.62
  Q 153.15 110.85 152.73 112.75
  A 0.83 0.79 -14.4 0 1 152.45 113.20
  Q 150.86 114.48 150.62 116.53
  Q 150.60 116.69 150.46 116.76
  Q 150.34 116.82 150.22 116.86
  Q 149.92 116.97 149.77 117.27
  Q 148.61 119.69 147.93 122.27
  C 147.49 123.94 146.59 125.33 145.89 126.89
  Q 145.58 127.59 145.81 127.97
  Q 146.04 128.35 145.88 128.75
  C 144.41 132.40 142.82 134.56 143.13 139.12
  Q 143.13 139.13 143.14 139.14
  Q 143.14 139.14 143.15 139.14
  Q 143.18 139.14 143.17 139.11
  Q 143.02 138.50 143.45 138.10
  Q 143.90 137.68 143.79 138.29
  L 140.89 154.47" stroke="#6538d6"></path>
<path d="M 126.90 125.16
  Q 119.24 123.82 110.84 123.98
  Q 110.38 123.99 110.00 124.24
  Q 109.56 124.52 108.99 124.44
  Q 105.42 123.97 101.84 123.37
  Q 101.75 123.35 101.75 123.26
  Q 101.75 123.07 101.77 122.88
  Q 101.80 122.55 101.47 122.51
  L 94.76 121.65
  Q 94.42 121.61 94.27 121.91
  Q 94.17 122.11 94.02 122.25
  Q 93.81 122.45 93.39 122.44
  Q 91.18 122.38 89.01 122.01
  A 0.12 0.12 0.0 0 1 88.95 121.81
  Q 89.05 121.72 89.15 121.60
  Q 89.43 121.25 88.99 121.23
  L 85.09 121.05
  Q 84.58 121.03 84.63 120.53
  Q 84.66 120.20 84.81 119.90
  A 0.40 0.40 0.0 0 0 84.35 119.32
  Q 83.05 119.68 82.06 118.80
  Q 81.68 118.45 81.17 118.52
  L 72.00 119.65
  Q 71.86 119.67 71.86 119.63
  L 71.86 119.23
  Q 71.87 118.66 71.35 118.90
  L 70.12 119.45
  A 0.19 0.19 0.0 0 1 69.85 119.28
  Q 69.85 119.13 69.86 119.00
  Q 69.86 118.48 69.37 118.68
  Q 67.64 119.42 67.35 118.80" stroke="#7680ff"></path>
<path d="M 67.35 118.80
  C 68.62 117.40 70.57 118.17 71.06 115.73
  Q 71.18 115.14 71.78 115.14
  L 73.09 115.13
  A 0.55 0.54 87.1 0 0 73.63 114.53
  Q 73.30 110.98 76.80 111.16" stroke="#707afd"></path>
<path d="M 126.81 111.40
  L 125.14 110.33
  A 1.35 1.31 59.3 0 0 124.36 110.12
  Q 116.61 110.58 108.86 109.88
  A 0.47 0.45 24.1 0 0 108.49 110.01
  L 108.26 110.24
  Q 107.90 110.60 107.39 110.56
  L 96.59 109.58
  Q 96.22 109.55 96.16 109.17
  Q 96.13 108.98 96.12 108.78
  Q 96.09 108.04 95.36 107.96
  L 92.22 107.61
  Q 91.68 107.55 91.39 108.00
  Q 91.03 108.55 91.13 109.19
  Q 91.24 109.85 90.58 109.74
  Q 88.37 109.37 86.22 109.91
  C 84.85 110.26 83.70 110.04 82.34 110.18
  Q 81.87 110.22 81.57 110.58
  C 81.15 111.07 78.19 110.88 76.80 111.16" stroke="#7274ff"></path>
<path d="M 76.80 111.16
  Q 78.46 108.07 73.17 109.55
  Q 72.99 109.60 72.93 109.42
  Q 72.89 109.28 72.91 109.16
  Q 72.98 108.85 72.75 108.99
  Q 72.29 109.27 71.82 109.04
  A 0.18 0.18 0.0 0 1 71.74 108.80
  L 71.90 108.50
  A 0.07 0.07 0.0 0 0 71.85 108.40
  Q 70.58 108.25 70.08 109.21
  Q 69.81 109.74 69.23 109.82
  L 66.73 110.17
  Q 66.32 110.22 66.14 110.59
  Q 65.59 111.67 64.26 111.87
  Q 64.08 111.90 63.99 111.73
  Q 63.93 111.61 63.89 111.49
  Q 63.76 111.19 63.47 111.33
  L 60.13 112.89
  Q 59.37 113.25 59.77 112.51
  L 59.91 112.24
  Q 60.12 111.84 59.67 111.91
  Q 57.65 112.21 57.04 113.94
  A 1.04 1.04 0.0 0 1 56.25 114.62
  Q 55.28 114.82 55.09 115.75
  Q 55.00 116.18 54.62 116.39
  L 51.51 118.19
  Q 51.11 118.42 50.89 118.81
  C 50.17 120.07 48.61 120.11 47.70 121.08
  C 46.03 122.87 44.36 123.79 42.24 124.93
  Q 41.79 125.17 41.99 124.70
  Q 42.28 124.06 42.94 123.78
  Q 43.25 123.65 43.09 123.36
  L 42.93 123.05
  Q 42.77 122.76 42.49 122.94
  L 38.64 125.58
  A 1.04 1.02 -13.8 0 0 38.20 126.29
  Q 38.02 127.67 36.74 127.96
  A 0.93 0.91 6.4 0 0 36.14 128.43
  C 35.21 130.27 34.42 131.50 32.56 132.74
  Q 30.05 134.40 28.70 137.03
  Q 27.49 139.38 26.43 140.26
  Q 24.48 141.88 22.22 142.96" stroke="#6674fd"></path>
<path d="M 126.92 144.02
  L 112.35 144.95
  Q 111.93 144.97 112.24 144.69
  Q 112.39 144.56 112.51 144.40
  Q 112.92 143.88 112.25 143.88
  L 108.49 143.88
  A 0.90 0.84 21.2 0 0 107.87 144.13
  L 107.53 144.47
  Q 107.13 144.88 106.55 144.88
  L 103.74 144.88
  Q 103.62 144.88 103.62 144.76
  Q 103.62 144.62 103.62 144.49
  A 0.10 0.09 -85.2 0 1 103.73 144.39
  Q 104.18 144.44 104.23 144.16
  A 0.17 0.16 -84.2 0 0 104.07 143.96
  L 92.94 143.67
  Q 92.40 143.65 92.16 144.13
  Q 91.91 144.62 91.41 144.55
  C 89.57 144.29 87.12 144.67 85.21 144.81
  Q 84.92 144.83 85.13 144.62
  L 85.49 144.25
  Q 86.02 143.72 85.27 143.77
  L 83.01 143.92
  Q 82.54 143.95 82.87 143.62
  L 83.21 143.29
  A 0.24 0.24 0.0 0 0 83.04 142.88
  L 80.65 142.88
  Q 80.45 142.88 80.56 142.71
  Q 80.65 142.59 80.75 142.51
  Q 81.77 141.75 80.50 141.91
  L 74.99 142.59
  A 0.14 0.13 -70.9 0 1 74.88 142.36
  L 75.27 141.97
  A 0.19 0.19 0.0 0 0 75.12 141.65
  L 72.70 141.93
  Q 72.52 141.95 72.65 141.82
  L 72.99 141.49
  A 0.29 0.28 -74.6 0 0 72.72 141.01
  L 68.75 142.03
  Q 67.75 142.28 68.43 141.50
  L 69.13 140.70
  Q 69.65 140.10 68.89 140.35
  Q 67.59 140.77 66.28 141.21
  Q 65.82 141.37 65.40 141.59
  Q 64.12 142.28 64.11 143.23
  A 0.90 0.89 81.5 0 1 63.51 144.05
  L 60.29 145.12
  Q 59.90 145.25 59.67 145.59
  Q 58.71 147.00 57.00 147.29
  Q 56.57 147.36 56.30 147.70
  L 54.02 150.64
  Q 53.65 151.11 53.12 151.40
  L 50.25 152.95
  A 0.12 0.12 0.0 0 1 50.10 152.78
  L 50.27 152.53
  Q 50.62 151.98 50.03 152.26
  C 48.84 152.83 47.38 153.60 46.65 154.73
  Q 46.38 155.14 45.86 155.25
  Q 45.56 155.32 45.58 155.01
  L 45.70 153.20
  Q 45.72 153.03 45.59 153.15
  L 45.35 153.40
  Q 44.93 153.82 44.83 153.23
  Q 44.43 150.74 46.87 150.32
  A 1.00 0.99 88.5 0 0 47.70 149.44
  Q 47.81 148.42 48.49 147.76
  Q 49.16 147.11 48.38 147.47
  Q 46.74 148.21 45.32 149.30
  Q 45.11 149.46 44.99 149.22
  Q 44.93 149.10 44.86 148.97
  Q 44.78 148.83 44.63 148.90
  L 43.01 149.72
  Q 42.62 149.93 42.45 149.51
  L 42.32 149.19
  Q 42.22 148.95 42.46 148.87
  Q 44.88 148.05 45.70 145.80
  C 46.03 144.91 46.53 144.34 47.42 144.27
  Q 47.66 144.26 47.76 144.04
  L 48.71 141.96
  Q 48.81 141.73 48.59 141.85
  L 44.08 144.34
  A 1.14 1.12 87.6 0 0 43.62 144.85
  Q 42.73 146.98 40.52 147.35
  Q 40.17 147.41 40.03 147.74
  Q 39.83 148.18 39.48 148.15
  Q 38.86 148.10 39.22 147.59
  L 40.69 145.48
  Q 41.05 144.96 40.42 145.03
  Q 40.06 145.07 39.86 145.37
  Q 39.66 145.69 39.40 145.81
  A 0.26 0.26 0.0 0 1 39.12 145.38
  Q 40.00 144.62 40.38 143.50
  Q 40.49 143.18 40.18 143.33
  Q 38.04 144.40 36.19 146.05
  Q 35.77 146.43 35.73 146.14
  Q 35.71 145.91 35.95 145.31" stroke="#7794ff"></path>
<path d="M 120.96 178.73
  Q 117.54 181.13 111.01 184.17
  Q 104.63 187.14 99.21 187.92
  C 98.24 188.06 97.49 188.52 96.47 188.68
  Q 95.90 188.77 95.89 189.35
  Q 95.88 189.78 95.43 189.66
  Q 95.03 189.56 94.64 189.67
  Q 91.00 190.68 87.21 190.62
  C 85.97 190.60 85.51 191.27 84.07 191.03
  C 82.42 190.76 81.45 190.67 79.74 191.41
  Q 78.58 191.91 77.25 191.90
  Q 70.29 191.86 63.31 191.90
  Q 62.82 191.91 62.40 192.16
  Q 60.25 193.51 58.20 192.84
  Q 55.55 191.99 55.17 192.01
  Q 52.86 192.13 51.57 194.12
  C 50.64 195.56 50.02 196.24 48.99 197.30
  Q 48.68 197.63 48.23 197.74
  Q 47.61 197.89 47.36 198.63
  Q 47.22 199.05 46.83 199.25
  L 46.20 199.57" stroke="#8dc0ff"></path>
<path d="M 67.35 118.80
  Q 66.03 118.77 64.55 119.71
  Q 64.13 119.97 64.08 120.46
  Q 64.04 120.81 63.90 121.14
  Q 63.72 121.60 63.13 121.88
  Q 59.11 123.86 55.09 125.84
  Q 54.85 125.95 54.74 125.72
  Q 54.68 125.59 54.61 125.45
  Q 54.46 125.10 54.15 125.32
  C 52.99 126.14 51.75 126.06 51.07 127.71
  Q 50.90 128.12 50.45 128.12
  L 49.74 128.12
  Q 49.09 128.12 49.12 128.77
  Q 49.17 129.64 48.47 130.15
  Q 48.13 130.40 48.14 130.82
  Q 48.16 131.51 47.52 131.79
  Q 46.17 132.39 44.89 133.14
  Q 44.13 133.58 44.04 134.45
  Q 43.99 134.94 43.53 135.09
  Q 42.93 135.30 43.13 135.98
  A 0.57 0.57 0.0 0 1 42.74 136.69
  Q 39.18 137.74 38.53 139.63
  Q 37.54 142.54 35.95 145.31" stroke="#6a81fd"></path>
<path d="M 35.95 145.31
  C 34.64 146.16 31.88 147.88 32.13 149.69
  Q 32.19 150.12 31.75 150.12
  L 30.98 150.12
  Q 30.49 150.12 30.23 150.54
  Q 30.00 150.92 30.11 151.42
  Q 30.22 151.93 29.96 152.38
  Q 29.28 153.63 28.85 155.01
  Q 28.77 155.28 28.58 155.45
  Q 28.42 155.60 28.23 155.72
  Q 27.83 155.99 27.70 156.45
  Q 27.30 157.86 26.00 158.66
  Q 25.63 158.88 25.63 158.45
  L 25.63 158.01
  Q 25.63 157.53 25.28 157.86
  Q 24.44 158.63 23.99 159.66
  Q 23.80 160.09 23.39 160.34
  L 21.53 161.50" stroke="#718dfd"></path>
<path d="M 210.43 58.42
  Q 210.11 60.38 210.86 61.14
  C 212.79 63.10 214.94 64.56 216.16 67.23
  Q 216.62 68.22 218.77 70.99
  Q 218.88 71.13 218.89 71.43
  Q 218.90 71.86 219.23 72.14
  Q 219.73 72.57 219.71 73.21
  C 219.68 74.77 220.54 75.56 220.69 76.97
  Q 220.94 79.19 221.65 81.35
  A 1.35 1.30 -44.0 0 1 221.62 82.23
  L 219.77 86.99
  Q 219.60 87.42 219.83 87.82
  Q 220.24 88.53 219.92 89.25
  Q 219.03 91.24 217.98 93.14
  C 216.60 95.65 212.99 99.78 210.54 101.42
  Q 207.92 103.16 205.75 105.46
  C 204.53 106.75 203.03 107.44 201.70 108.66
  Q 201.34 109.00 200.84 109.07
  C 197.78 109.52 196.15 111.44 194.02 113.21
  C 191.33 115.44 188.11 116.08 185.60 119.22
  Q 185.29 119.62 184.80 119.73
  Q 181.86 120.44 179.99 122.81
  Q 179.54 123.37 180.24 123.21
  Q 180.72 123.10 181.12 122.71
  A 0.03 0.03 0.0 0 1 181.16 122.75
  Q 181.10 122.83 181.16 123.07
  A 1.11 1.10 -10.9 0 1 180.22 124.45
  Q 177.74 124.75 175.87 126.23
  Q 173.92 127.77 172.09 129.43
  Q 171.09 130.34 170.09 130.47
  Q 168.97 130.61 167.85 130.36
  Q 167.38 130.26 167.02 130.57
  L 160.43 136.16
  Q 160.12 136.42 160.12 136.02
  L 160.11 135.51
  A 0.15 0.14 66.6 0 0 159.86 135.41
  Q 156.22 139.22 153.46 143.67
  C 152.27 145.58 151.90 148.14 150.40 150.26
  Q 150.11 150.67 150.12 151.17
  Q 150.19 153.21 148.69 154.46" stroke="#6a4bea"></path>
<path d="M 227.31 78.44
  Q 223.61 79.17 221.54 74.33
  Q 221.50 74.25 221.57 74.20
  Q 223.04 73.05 221.40 74.11
  Q 221.34 74.15 221.38 74.21
  L 223.93 78.91
  Q 224.20 79.41 224.14 79.98
  Q 223.87 82.29 225.90 83.16
  Q 226.32 83.35 226.44 83.79
  C 226.97 85.73 228.69 88.64 228.63 90.46
  Q 228.63 90.56 228.66 90.47
  Q 228.83 90.04 228.49 89.65
  Q 228.12 89.23 228.12 89.80
  Q 228.13 91.63 228.13 93.57
  A 0.44 0.44 0.0 0 1 227.38 93.88
  L 227.12 93.62
  A 0.29 0.29 0.0 0 0 226.78 93.57
  Q 225.50 94.24 225.70 95.69
  Q 225.77 96.18 225.72 96.68
  L 225.61 97.62
  Q 225.61 97.65 225.62 97.62
  Q 225.70 97.36 225.58 97.21
  Q 225.38 96.96 225.21 97.23
  L 220.26 104.81
  Q 220.18 104.94 220.31 105.01
  Q 220.43 105.07 220.55 105.14
  Q 220.74 105.26 220.62 105.45
  C 219.90 106.57 219.92 107.52 219.02 108.52
  Q 216.25 111.61 213.19 114.41
  Q 213.12 114.47 213.13 114.58
  Q 213.14 114.63 213.14 114.67
  Q 213.14 114.83 212.95 114.98
  Q 210.80 116.73 208.64 118.50
  C 207.45 119.47 205.89 121.50 203.89 122.36
  C 201.69 123.31 200.49 124.15 198.72 125.24
  Q 198.61 125.31 198.49 125.26
  Q 198.32 125.18 198.37 124.97
  A 0.20 0.20 0.0 0 0 198.05 124.76
  L 194.27 127.81
  A 0.12 0.12 0.0 0 0 194.30 128.01
  Q 194.42 128.07 194.55 128.12
  Q 194.92 128.27 194.65 128.57
  Q 193.53 129.76 192.02 130.10
  Q 191.88 130.13 191.88 130.27
  L 191.88 130.72
  Q 191.88 131.14 191.46 131.22
  Q 188.68 131.73 186.61 133.64
  A 1.10 1.09 27.1 0 1 185.71 133.93
  C 183.48 133.63 182.60 134.97 181.24 136.20
  Q 180.38 136.99 178.97 137.59
  Q 176.68 138.59 174.78 140.30
  Q 174.41 140.63 173.91 140.61
  Q 173.59 140.61 173.29 140.65
  Q 172.82 140.73 172.35 141.12
  C 171.08 142.18 170.46 142.91 168.79 143.76
  Q 167.45 144.44 167.06 145.88
  A 1.31 1.27 80.3 0 1 166.56 146.61
  L 162.74 149.36
  A 1.73 1.72 -5.4 0 0 162.19 150.02
  C 161.15 152.14 159.25 152.96 157.64 154.46" stroke="#6c5bf5"></path>
<path d="M 232.58 99.81
  Q 231.21 99.73 230.71 100.44
  Q 230.46 100.80 230.57 101.23
  Q 230.86 102.35 230.08 102.92
  Q 229.82 103.11 229.52 103.08
  Q 229.22 103.05 229.04 103.21
  Q 228.89 103.35 228.88 103.80
  Q 228.85 104.75 228.09 105.08
  Q 227.64 105.28 227.44 105.73
  L 226.08 108.78
  Q 226.04 108.87 226.13 108.86
  Q 226.36 108.84 226.43 109.01
  Q 226.49 109.16 226.35 109.38
  Q 225.07 111.41 223.72 113.40
  C 221.56 116.62 218.50 119.34 215.81 122.18
  Q 214.86 123.18 212.96 124.75
  C 209.78 127.38 207.37 129.73 202.88 133.40
  Q 202.79 133.47 202.84 133.52
  L 203.05 133.73
  Q 203.27 133.95 203.02 134.14
  L 198.28 137.87
  Q 197.89 138.18 197.89 138.67
  L 197.88 139.06
  Q 197.88 139.66 197.32 139.87
  Q 195.26 140.63 193.63 142.09
  Q 193.58 142.13 193.52 142.13
  Q 193.39 142.14 193.26 142.14
  Q 193.16 142.14 193.09 142.19
  L 189.18 144.98
  Q 188.86 145.22 188.47 145.15
  L 188.08 145.09
  Q 187.59 145.01 187.16 145.27
  L 171.94 154.46" stroke="#6b68fc"></path>
</g>
<path d="M 0.00 0.00
  L 256.00 0.00
  L 256.00 256.00
  L 0.00 256.00
  L 0.00 0.00
  Z
  M 126.76 101.57
  Q 101.09 101.38 75.65 101.49
  C 48.97 101.60 28.88 117.23 22.22 142.96
  Q 20.29 151.96 21.53 161.50
  Q 23.77 178.04 35.27 190.62
  Q 40.04 195.72 46.20 199.57
  C 73.00 215.41 106.32 206.23 120.96 178.73
  Q 124.64 171.83 126.02 163.54
  L 126.87 154.77
  Q 126.89 154.64 127.01 154.60
  Q 127.14 154.56 127.22 154.46
  L 134.80 154.47
  L 140.89 154.47
  L 148.69 154.46
  L 157.64 154.46
  L 171.94 154.46
  Q 180.11 154.81 186.75 154.00
  C 213.43 150.72 233.70 126.77 232.58 99.81
  Q 232.28 88.62 227.31 78.44
  Q 221.46 66.35 210.43 58.42
  L 205.60 55.34
  L 199.71 52.51
  C 166.43 39.21 129.95 61.45 127.13 97.25
  Q 126.95 99.64 126.76 101.57
  Z" fill="#ffffff"></path>
<path d="M 199.71 52.51
  Q 199.55 54.09 200.13 55.10
  Q 200.34 55.46 200.14 55.83
  Q 199.94 56.21 199.56 56.14
  Q 199.12 56.06 198.89 56.45
  C 198.15 57.76 197.78 58.94 196.69 60.02
  Q 195.11 61.57 193.48 63.05
  Q 193.16 63.34 192.75 63.41
  Q 191.77 63.59 191.87 64.49
  A 1.24 1.23 79.9 0 1 190.94 65.83
  Q 183.42 67.68 177.78 70.96
  Q 175.19 72.46 172.60 73.99
  Q 170.30 75.35 167.67 77.40
  Q 163.82 80.39 159.76 83.06
  Q 157.71 84.41 156.36 85.86
  Q 154.63 87.73 153.51 89.26
  Q 148.00 96.81 143.11 106.17
  C 142.78 106.79 142.25 107.09 142.06 107.92
  Q 141.82 108.95 141.79 109.02
  Q 139.32 115.59 137.97 122.02
  Q 136.81 127.59 139.09 122.38
  Q 139.33 121.83 139.90 118.39
  Q 139.90 118.38 139.91 118.38
  Q 139.91 118.38 139.93 118.38
  Q 139.96 118.39 139.96 118.42
  Q 138.87 124.28 137.75 130.14
  Q 136.98 134.20 136.72 138.93
  Q 136.37 145.13 135.78 147.76
  Q 134.78 152.25 134.80 154.47
  L 127.22 154.46
  L 126.92 144.02
  L 126.90 125.16
  L 126.81 111.40
  L 126.76 101.57
  Q 126.95 99.64 127.13 97.25
  C 129.95 61.45 166.43 39.21 199.71 52.51
  Z" fill="#5f21b6"></path>
<path d="M 199.71 52.51
  L 205.60 55.34
  Q 205.35 57.15 206.35 58.33
  A 1.15 1.13 -67.9 0 1 206.62 58.98
  Q 206.72 60.15 207.67 60.75
  Q 207.89 60.89 207.87 61.15
  Q 207.86 61.42 207.68 61.54
  Q 207.43 61.71 207.40 62.01
  L 206.97 66.78
  Q 206.94 67.07 207.15 66.87
  L 207.40 66.61
  A 0.33 0.32 -34.7 0 1 207.92 66.70
  Q 208.21 67.29 208.08 67.98
  A 1.26 1.25 75.7 0 1 207.62 68.76
  Q 206.81 69.39 206.93 70.21
  Q 207.00 70.72 206.78 71.18
  Q 204.69 75.75 201.90 78.15
  Q 196.60 82.68 188.00 86.40
  Q 186.20 87.19 184.68 88.37
  Q 182.88 89.77 181.53 90.50
  C 179.84 91.41 178.57 92.38 176.64 93.21
  Q 174.52 94.12 172.88 95.83
  Q 172.77 95.95 172.92 96.00
  Q 173.06 96.05 173.20 96.07
  Q 173.38 96.10 173.23 96.21
  Q 169.64 98.65 165.79 100.58
  Q 162.85 102.06 160.88 103.75
  Q 158.63 105.69 156.43 107.68
  Q 156.28 107.81 156.20 107.63
  Q 156.14 107.50 156.18 107.37
  Q 156.24 107.12 156.01 107.25
  Q 155.13 107.77 155.09 108.73
  A 1.26 1.24 -18.6 0 1 154.64 109.62
  Q 153.15 110.85 152.73 112.75
  A 0.83 0.79 -14.4 0 1 152.45 113.20
  Q 150.86 114.48 150.62 116.53
  Q 150.60 116.69 150.46 116.76
  Q 150.34 116.82 150.22 116.86
  Q 149.92 116.97 149.77 117.27
  Q 148.61 119.69 147.93 122.27
  C 147.49 123.94 146.59 125.33 145.89 126.89
  Q 145.58 127.59 145.81 127.97
  Q 146.04 128.35 145.88 128.75
  C 144.41 132.40 142.82 134.56 143.13 139.12
  Q 143.13 139.13 143.14 139.14
  Q 143.14 139.14 143.15 139.14
  Q 143.18 139.14 143.17 139.11
  Q 143.02 138.50 143.45 138.10
  Q 143.90 137.68 143.79 138.29
  L 140.89 154.47
  L 134.80 154.47
  Q 134.78 152.25 135.78 147.76
  Q 136.37 145.13 136.72 138.93
  Q 136.98 134.20 137.75 130.14
  Q 138.87 124.28 139.96 118.42
  Q 139.96 118.39 139.93 118.38
  Q 139.91 118.38 139.91 118.38
  Q 139.90 118.38 139.90 118.39
  Q 139.33 121.83 139.09 122.38
  Q 136.81 127.59 137.97 122.02
  Q 139.32 115.59 141.79 109.02
  Q 141.82 108.95 142.06 107.92
  C 142.25 107.09 142.78 106.79 143.11 106.17
  Q 148.00 96.81 153.51 89.26
  Q 154.63 87.73 156.36 85.86
  Q 157.71 84.41 159.76 83.06
  Q 163.82 80.39 167.67 77.40
  Q 170.30 75.35 172.60 73.99
  Q 175.19 72.46 177.78 70.96
  Q 183.42 67.68 190.94 65.83
  A 1.24 1.23 79.9 0 0 191.87 64.49
  Q 191.77 63.59 192.75 63.41
  Q 193.16 63.34 193.48 63.05
  Q 195.11 61.57 196.69 60.02
  C 197.78 58.94 198.15 57.76 198.89 56.45
  Q 199.12 56.06 199.56 56.14
  Q 199.94 56.21 200.14 55.83
  Q 200.34 55.46 200.13 55.10
  Q 199.55 54.09 199.71 52.51
  Z" fill="#622dca"></path>
<path d="M 205.60 55.34
  L 210.43 58.42
  Q 210.11 60.38 210.86 61.14
  C 212.79 63.10 214.94 64.56 216.16 67.23
  Q 216.62 68.22 218.77 70.99
  Q 218.88 71.13 218.89 71.43
  Q 218.90 71.86 219.23 72.14
  Q 219.73 72.57 219.71 73.21
  C 219.68 74.77 220.54 75.56 220.69 76.97
  Q 220.94 79.19 221.65 81.35
  A 1.35 1.30 -44.0 0 1 221.62 82.23
  L 219.77 86.99
  Q 219.60 87.42 219.83 87.82
  Q 220.24 88.53 219.92 89.25
  Q 219.03 91.24 217.98 93.14
  C 216.60 95.65 212.99 99.78 210.54 101.42
  Q 207.92 103.16 205.75 105.46
  C 204.53 106.75 203.03 107.44 201.70 108.66
  Q 201.34 109.00 200.84 109.07
  C 197.78 109.52 196.15 111.44 194.02 113.21
  C 191.33 115.44 188.11 116.08 185.60 119.22
  Q 185.29 119.62 184.80 119.73
  Q 181.86 120.44 179.99 122.81
  Q 179.54 123.37 180.24 123.21
  Q 180.72 123.10 181.12 122.71
  A 0.03 0.03 0.0 0 1 181.16 122.75
  Q 181.10 122.83 181.16 123.07
  A 1.11 1.10 -10.9 0 1 180.22 124.45
  Q 177.74 124.75 175.87 126.23
  Q 173.92 127.77 172.09 129.43
  Q 171.09 130.34 170.09 130.47
  Q 168.97 130.61 167.85 130.36
  Q 167.38 130.26 167.02 130.57
  L 160.43 136.16
  Q 160.12 136.42 160.12 136.02
  L 160.11 135.51
  A 0.15 0.14 66.6 0 0 159.86 135.41
  Q 156.22 139.22 153.46 143.67
  C 152.27 145.58 151.90 148.14 150.40 150.26
  Q 150.11 150.67 150.12 151.17
  Q 150.19 153.21 148.69 154.46
  L 140.89 154.47
  L 143.79 138.29
  Q 143.90 137.68 143.45 138.10
  Q 143.02 138.50 143.17 139.11
  Q 143.18 139.14 143.15 139.14
  Q 143.14 139.14 143.14 139.14
  Q 143.13 139.13 143.13 139.12
  C 142.82 134.56 144.41 132.40 145.88 128.75
  Q 146.04 128.35 145.81 127.97
  Q 145.58 127.59 145.89 126.89
  C 146.59 125.33 147.49 123.94 147.93 122.27
  Q 148.61 119.69 149.77 117.27
  Q 149.92 116.97 150.22 116.86
  Q 150.34 116.82 150.46 116.76
  Q 150.60 116.69 150.62 116.53
  Q 150.86 114.48 152.45 113.20
  A 0.83 0.79 -14.4 0 0 152.73 112.75
  Q 153.15 110.85 154.64 109.62
  A 1.26 1.24 -18.6 0 0 155.09 108.73
  Q 155.13 107.77 156.01 107.25
  Q 156.24 107.12 156.18 107.37
  Q 156.14 107.50 156.20 107.63
  Q 156.28 107.81 156.43 107.68
  Q 158.63 105.69 160.88 103.75
  Q 162.85 102.06 165.79 100.58
  Q 169.64 98.65 173.23 96.21
  Q 173.38 96.10 173.20 96.07
  Q 173.06 96.05 172.92 96.00
  Q 172.77 95.95 172.88 95.83
  Q 174.52 94.12 176.64 93.21
  C 178.57 92.38 179.84 91.41 181.53 90.50
  Q 182.88 89.77 184.68 88.37
  Q 186.20 87.19 188.00 86.40
  Q 196.60 82.68 201.90 78.15
  Q 204.69 75.75 206.78 71.18
  Q 207.00 70.72 206.93 70.21
  Q 206.81 69.39 207.62 68.76
  A 1.26 1.25 75.7 0 0 208.08 67.98
  Q 208.21 67.29 207.92 66.70
  A 0.33 0.32 -34.7 0 0 207.40 66.61
  L 207.15 66.87
  Q 206.94 67.07 206.97 66.78
  L 207.40 62.01
  Q 207.43 61.71 207.68 61.54
  Q 207.86 61.42 207.87 61.15
  Q 207.89 60.89 207.67 60.75
  Q 206.72 60.15 206.62 58.98
  A 1.15 1.13 -67.9 0 0 206.35 58.33
  Q 205.35 57.15 205.60 55.34
  Z" fill="#6842e2"></path>
<path d="M 210.43 58.42
  Q 221.46 66.35 227.31 78.44
  Q 223.61 79.17 221.54 74.33
  Q 221.50 74.25 221.57 74.20
  Q 223.04 73.05 221.40 74.11
  Q 221.34 74.15 221.38 74.21
  L 223.93 78.91
  Q 224.20 79.41 224.14 79.98
  Q 223.87 82.29 225.90 83.16
  Q 226.32 83.35 226.44 83.79
  C 226.97 85.73 228.69 88.64 228.63 90.46
  Q 228.63 90.56 228.66 90.47
  Q 228.83 90.04 228.49 89.65
  Q 228.12 89.23 228.12 89.80
  Q 228.13 91.63 228.13 93.57
  A 0.44 0.44 0.0 0 1 227.38 93.88
  L 227.12 93.62
  A 0.29 0.29 0.0 0 0 226.78 93.57
  Q 225.50 94.24 225.70 95.69
  Q 225.77 96.18 225.72 96.68
  L 225.61 97.62
  Q 225.61 97.65 225.62 97.62
  Q 225.70 97.36 225.58 97.21
  Q 225.38 96.96 225.21 97.23
  L 220.26 104.81
  Q 220.18 104.94 220.31 105.01
  Q 220.43 105.07 220.55 105.14
  Q 220.74 105.26 220.62 105.45
  C 219.90 106.57 219.92 107.52 219.02 108.52
  Q 216.25 111.61 213.19 114.41
  Q 213.12 114.47 213.13 114.58
  Q 213.14 114.63 213.14 114.67
  Q 213.14 114.83 212.95 114.98
  Q 210.80 116.73 208.64 118.50
  C 207.45 119.47 205.89 121.50 203.89 122.36
  C 201.69 123.31 200.49 124.15 198.72 125.24
  Q 198.61 125.31 198.49 125.26
  Q 198.32 125.18 198.37 124.97
  A 0.20 0.20 0.0 0 0 198.05 124.76
  L 194.27 127.81
  A 0.12 0.12 0.0 0 0 194.30 128.01
  Q 194.42 128.07 194.55 128.12
  Q 194.92 128.27 194.65 128.57
  Q 193.53 129.76 192.02 130.10
  Q 191.88 130.13 191.88 130.27
  L 191.88 130.72
  Q 191.88 131.14 191.46 131.22
  Q 188.68 131.73 186.61 133.64
  A 1.10 1.09 27.1 0 1 185.71 133.93
  C 183.48 133.63 182.60 134.97 181.24 136.20
  Q 180.38 136.99 178.97 137.59
  Q 176.68 138.59 174.78 140.30
  Q 174.41 140.63 173.91 140.61
  Q 173.59 140.61 173.29 140.65
  Q 172.82 140.73 172.35 141.12
  C 171.08 142.18 170.46 142.91 168.79 143.76
  Q 167.45 144.44 167.06 145.88
  A 1.31 1.27 80.3 0 1 166.56 146.61
  L 162.74 149.36
  A 1.73 1.72 -5.4 0 0 162.19 150.02
  C 161.15 152.14 159.25 152.96 157.64 154.46
  L 148.69 154.46
  Q 150.19 153.21 150.12 151.17
  Q 150.11 150.67 150.40 150.26
  C 151.90 148.14 152.27 145.58 153.46 143.67
  Q 156.22 139.22 159.86 135.41
  A 0.15 0.14 66.6 0 1 160.11 135.51
  L 160.12 136.02
  Q 160.12 136.42 160.43 136.16
  L 167.02 130.57
  Q 167.38 130.26 167.85 130.36
  Q 168.97 130.61 170.09 130.47
  Q 171.09 130.34 172.09 129.43
  Q 173.92 127.77 175.87 126.23
  Q 177.74 124.75 180.22 124.45
  A 1.11 1.10 -10.9 0 0 181.16 123.07
  Q 181.10 122.83 181.16 122.75
  A 0.03 0.03 0.0 0 0 181.12 122.71
  Q 180.72 123.10 180.24 123.21
  Q 179.54 123.37 179.99 122.81
  Q 181.86 120.44 184.80 119.73
  Q 185.29 119.62 185.60 119.22
  C 188.11 116.08 191.33 115.44 194.02 113.21
  C 196.15 111.44 197.78 109.52 200.84 109.07
  Q 201.34 109.00 201.70 108.66
  C 203.03 107.44 204.53 106.75 205.75 105.46
  Q 207.92 103.16 210.54 101.42
  C 212.99 99.78 216.60 95.65 217.98 93.14
  Q 219.03 91.24 219.92 89.25
  Q 220.24 88.53 219.83 87.82
  Q 219.60 87.42 219.77 86.99
  L 221.62 82.23
  A 1.35 1.30 -44.0 0 0 221.65 81.35
  Q 220.94 79.19 220.69 76.97
  C 220.54 75.56 219.68 74.77 219.71 73.21
  Q 219.73 72.57 219.23 72.14
  Q 218.90 71.86 218.89 71.43
  Q 218.88 71.13 218.77 70.99
  Q 216.62 68.22 216.16 67.23
  C 214.94 64.56 212.79 63.10 210.86 61.14
  Q 210.11 60.38 210.43 58.42
  Z" fill="#6b54f1"></path>
<path d="M 227.31 78.44
  Q 232.28 88.62 232.58 99.81
  Q 231.21 99.73 230.71 100.44
  Q 230.46 100.80 230.57 101.23
  Q 230.86 102.35 230.08 102.92
  Q 229.82 103.11 229.52 103.08
  Q 229.22 103.05 229.04 103.21
  Q 228.89 103.35 228.88 103.80
  Q 228.85 104.75 228.09 105.08
  Q 227.64 105.28 227.44 105.73
  L 226.08 108.78
  Q 226.04 108.87 226.13 108.86
  Q 226.36 108.84 226.43 109.01
  Q 226.49 109.16 226.35 109.38
  Q 225.07 111.41 223.72 113.40
  C 221.56 116.62 218.50 119.34 215.81 122.18
  Q 214.86 123.18 212.96 124.75
  C 209.78 127.38 207.37 129.73 202.88 133.40
  Q 202.79 133.47 202.84 133.52
  L 203.05 133.73
  Q 203.27 133.95 203.02 134.14
  L 198.28 137.87
  Q 197.89 138.18 197.89 138.67
  L 197.88 139.06
  Q 197.88 139.66 197.32 139.87
  Q 195.26 140.63 193.63 142.09
  Q 193.58 142.13 193.52 142.13
  Q 193.39 142.14 193.26 142.14
  Q 193.16 142.14 193.09 142.19
  L 189.18 144.98
  Q 188.86 145.22 188.47 145.15
  L 188.08 145.09
  Q 187.59 145.01 187.16 145.27
  L 171.94 154.46
  L 157.64 154.46
  C 159.25 152.96 161.15 152.14 162.19 150.02
  A 1.73 1.72 -5.4 0 1 162.74 149.36
  L 166.56 146.61
  A 1.31 1.27 80.3 0 0 167.06 145.88
  Q 167.45 144.44 168.79 143.76
  C 170.46 142.91 171.08 142.18 172.35 141.12
  Q 172.82 140.73 173.29 140.65
  Q 173.59 140.61 173.91 140.61
  Q 174.41 140.63 174.78 140.30
  Q 176.68 138.59 178.97 137.59
  Q 180.38 136.99 181.24 136.20
  C 182.60 134.97 183.48 133.63 185.71 133.93
  A 1.10 1.09 27.1 0 0 186.61 133.64
  Q 188.68 131.73 191.46 131.22
  Q 191.88 131.14 191.88 130.72
  L 191.88 130.27
  Q 191.88 130.13 192.02 130.10
  Q 193.53 129.76 194.65 128.57
  Q 194.92 128.27 194.55 128.12
  Q 194.42 128.07 194.30 128.01
  A 0.12 0.12 0.0 0 1 194.27 127.81
  L 198.05 124.76
  A 0.20 0.20 0.0 0 1 198.37 124.97
  Q 198.32 125.18 198.49 125.26
  Q 198.61 125.31 198.72 125.24
  C 200.49 124.15 201.69 123.31 203.89 122.36
  C 205.89 121.50 207.45 119.47 208.64 118.50
  Q 210.80 116.73 212.95 114.98
  Q 213.14 114.83 213.14 114.67
  Q 213.14 114.63 213.13 114.58
  Q 213.12 114.47 213.19 114.41
  Q 216.25 111.61 219.02 108.52
  C 219.92 107.52 219.90 106.57 220.62 105.45
  Q 220.74 105.26 220.55 105.14
  Q 220.43 105.07 220.31 105.01
  Q 220.18 104.94 220.26 104.81
  L 225.21 97.23
  Q 225.38 96.96 225.58 97.21
  Q 225.70 97.36 225.62 97.62
  Q 225.61 97.65 225.61 97.62
  L 225.72 96.68
  Q 225.77 96.18 225.70 95.69
  Q 225.50 94.24 226.78 93.57
  A 0.29 0.29 0.0 0 1 227.12 93.62
  L 227.38 93.88
  A 0.44 0.44 0.0 0 0 228.13 93.57
  Q 228.13 91.63 228.12 89.80
  Q 228.12 89.23 228.49 89.65
  Q 228.83 90.04 228.66 90.47
  Q 228.63 90.56 228.63 90.46
  C 228.69 88.64 226.97 85.73 226.44 83.79
  Q 226.32 83.35 225.90 83.16
  Q 223.87 82.29 224.14 79.98
  Q 224.20 79.41 223.93 78.91
  L 221.38 74.21
  Q 221.34 74.15 221.40 74.11
  Q 223.04 73.05 221.57 74.20
  Q 221.50 74.25 221.54 74.33
  Q 223.61 79.17 227.31 78.44
  Z" fill="#6d61f9"></path>
<path d="M 232.58 99.81
  C 233.70 126.77 213.43 150.72 186.75 154.00
  Q 180.11 154.81 171.94 154.46
  L 187.16 145.27
  Q 187.59 145.01 188.08 145.09
  L 188.47 145.15
  Q 188.86 145.22 189.18 144.98
  L 193.09 142.19
  Q 193.16 142.14 193.26 142.14
  Q 193.39 142.14 193.52 142.13
  Q 193.58 142.13 193.63 142.09
  Q 195.26 140.63 197.32 139.87
  Q 197.88 139.66 197.88 139.06
  L 197.89 138.67
  Q 197.89 138.18 198.28 137.87
  L 203.02 134.14
  Q 203.27 133.95 203.05 133.73
  L 202.84 133.52
  Q 202.79 133.47 202.88 133.40
  C 207.37 129.73 209.78 127.38 212.96 124.75
  Q 214.86 123.18 215.81 122.18
  C 218.50 119.34 221.56 116.62 223.72 113.40
  Q 225.07 111.41 226.35 109.38
  Q 226.49 109.16 226.43 109.01
  Q 226.36 108.84 226.13 108.86
  Q 226.04 108.87 226.08 108.78
  L 227.44 105.73
  Q 227.64 105.28 228.09 105.08
  Q 228.85 104.75 228.88 103.80
  Q 228.89 103.35 229.04 103.21
  Q 229.22 103.05 229.52 103.08
  Q 229.82 103.11 230.08 102.92
  Q 230.86 102.35 230.57 101.23
  Q 230.46 100.80 230.71 100.44
  Q 231.21 99.73 232.58 99.81
  Z" fill="#686efe"></path>
<path d="M 126.76 101.57
  L 126.81 111.40
  L 125.14 110.33
  A 1.35 1.31 59.3 0 0 124.36 110.12
  Q 116.61 110.58 108.86 109.88
  A 0.47 0.45 24.1 0 0 108.49 110.01
  L 108.26 110.24
  Q 107.90 110.60 107.39 110.56
  L 96.59 109.58
  Q 96.22 109.55 96.16 109.17
  Q 96.13 108.98 96.12 108.78
  Q 96.09 108.04 95.36 107.96
  L 92.22 107.61
  Q 91.68 107.55 91.39 108.00
  Q 91.03 108.55 91.13 109.19
  Q 91.24 109.85 90.58 109.74
  Q 88.37 109.37 86.22 109.91
  C 84.85 110.26 83.70 110.04 82.34 110.18
  Q 81.87 110.22 81.57 110.58
  C 81.15 111.07 78.19 110.88 76.80 111.16
  Q 78.46 108.07 73.17 109.55
  Q 72.99 109.60 72.93 109.42
  Q 72.89 109.28 72.91 109.16
  Q 72.98 108.85 72.75 108.99
  Q 72.29 109.27 71.82 109.04
  A 0.18 0.18 0.0 0 1 71.74 108.80
  L 71.90 108.50
  A 0.07 0.07 0.0 0 0 71.85 108.40
  Q 70.58 108.25 70.08 109.21
  Q 69.81 109.74 69.23 109.82
  L 66.73 110.17
  Q 66.32 110.22 66.14 110.59
  Q 65.59 111.67 64.26 111.87
  Q 64.08 111.90 63.99 111.73
  Q 63.93 111.61 63.89 111.49
  Q 63.76 111.19 63.47 111.33
  L 60.13 112.89
  Q 59.37 113.25 59.77 112.51
  L 59.91 112.24
  Q 60.12 111.84 59.67 111.91
  Q 57.65 112.21 57.04 113.94
  A 1.04 1.04 0.0 0 1 56.25 114.62
  Q 55.28 114.82 55.09 115.75
  Q 55.00 116.18 54.62 116.39
  L 51.51 118.19
  Q 51.11 118.42 50.89 118.81
  C 50.17 120.07 48.61 120.11 47.70 121.08
  C 46.03 122.87 44.36 123.79 42.24 124.93
  Q 41.79 125.17 41.99 124.70
  Q 42.28 124.06 42.94 123.78
  Q 43.25 123.65 43.09 123.36
  L 42.93 123.05
  Q 42.77 122.76 42.49 122.94
  L 38.64 125.58
  A 1.04 1.02 -13.8 0 0 38.20 126.29
  Q 38.02 127.67 36.74 127.96
  A 0.93 0.91 6.4 0 0 36.14 128.43
  C 35.21 130.27 34.42 131.50 32.56 132.74
  Q 30.05 134.40 28.70 137.03
  Q 27.49 139.38 26.43 140.26
  Q 24.48 141.88 22.22 142.96
  C 28.88 117.23 48.97 101.60 75.65 101.49
  Q 101.09 101.38 126.76 101.57
  Z" fill="#686efe"></path>
<path d="M 126.81 111.40
  L 126.90 125.16
  Q 119.24 123.82 110.84 123.98
  Q 110.38 123.99 110.00 124.24
  Q 109.56 124.52 108.99 124.44
  Q 105.42 123.97 101.84 123.37
  Q 101.75 123.35 101.75 123.26
  Q 101.75 123.07 101.77 122.88
  Q 101.80 122.55 101.47 122.51
  L 94.76 121.65
  Q 94.42 121.61 94.27 121.91
  Q 94.17 122.11 94.02 122.25
  Q 93.81 122.45 93.39 122.44
  Q 91.18 122.38 89.01 122.01
  A 0.12 0.12 0.0 0 1 88.95 121.81
  Q 89.05 121.72 89.15 121.60
  Q 89.43 121.25 88.99 121.23
  L 85.09 121.05
  Q 84.58 121.03 84.63 120.53
  Q 84.66 120.20 84.81 119.90
  A 0.40 0.40 0.0 0 0 84.35 119.32
  Q 83.05 119.68 82.06 118.80
  Q 81.68 118.45 81.17 118.52
  L 72.00 119.65
  Q 71.86 119.67 71.86 119.63
  L 71.86 119.23
  Q 71.87 118.66 71.35 118.90
  L 70.12 119.45
  A 0.19 0.19 0.0 0 1 69.85 119.28
  Q 69.85 119.13 69.86 119.00
  Q 69.86 118.48 69.37 118.68
  Q 67.64 119.42 67.35 118.80
  C 68.62 117.40 70.57 118.17 71.06 115.73
  Q 71.18 115.14 71.78 115.14
  L 73.09 115.13
  A 0.55 0.54 87.1 0 0 73.63 114.53
  Q 73.30 110.98 76.80 111.16
  C 78.19 110.88 81.15 111.07 81.57 110.58
  Q 81.87 110.22 82.34 110.18
  C 83.70 110.04 84.85 110.26 86.22 109.91
  Q 88.37 109.37 90.58 109.74
  Q 91.24 109.85 91.13 109.19
  Q 91.03 108.55 91.39 108.00
  Q 91.68 107.55 92.22 107.61
  L 95.36 107.96
  Q 96.09 108.04 96.12 108.78
  Q 96.13 108.98 96.16 109.17
  Q 96.22 109.55 96.59 109.58
  L 107.39 110.56
  Q 107.90 110.60 108.26 110.24
  L 108.49 110.01
  A 0.47 0.45 24.1 0 1 108.86 109.88
  Q 116.61 110.58 124.36 110.12
  A 1.35 1.31 59.3 0 1 125.14 110.33
  L 126.81 111.40
  Z" fill="#7c79ff"></path>
<path d="M 76.80 111.16
  Q 73.30 110.98 73.63 114.53
  A 0.55 0.54 87.1 0 1 73.09 115.13
  L 71.78 115.14
  Q 71.18 115.14 71.06 115.73
  C 70.57 118.17 68.62 117.40 67.35 118.80
  Q 66.03 118.77 64.55 119.71
  Q 64.13 119.97 64.08 120.46
  Q 64.04 120.81 63.90 121.14
  Q 63.72 121.60 63.13 121.88
  Q 59.11 123.86 55.09 125.84
  Q 54.85 125.95 54.74 125.72
  Q 54.68 125.59 54.61 125.45
  Q 54.46 125.10 54.15 125.32
  C 52.99 126.14 51.75 126.06 51.07 127.71
  Q 50.90 128.12 50.45 128.12
  L 49.74 128.12
  Q 49.09 128.12 49.12 128.77
  Q 49.17 129.64 48.47 130.15
  Q 48.13 130.40 48.14 130.82
  Q 48.16 131.51 47.52 131.79
  Q 46.17 132.39 44.89 133.14
  Q 44.13 133.58 44.04 134.45
  Q 43.99 134.94 43.53 135.09
  Q 42.93 135.30 43.13 135.98
  A 0.57 0.57 0.0 0 1 42.74 136.69
  Q 39.18 137.74 38.53 139.63
  Q 37.54 142.54 35.95 145.31
  C 34.64 146.16 31.88 147.88 32.13 149.69
  Q 32.19 150.12 31.75 150.12
  L 30.98 150.12
  Q 30.49 150.12 30.23 150.54
  Q 30.00 150.92 30.11 151.42
  Q 30.22 151.93 29.96 152.38
  Q 29.28 153.63 28.85 155.01
  Q 28.77 155.28 28.58 155.45
  Q 28.42 155.60 28.23 155.72
  Q 27.83 155.99 27.70 156.45
  Q 27.30 157.86 26.00 158.66
  Q 25.63 158.88 25.63 158.45
  L 25.63 158.01
  Q 25.63 157.53 25.28 157.86
  Q 24.44 158.63 23.99 159.66
  Q 23.80 160.09 23.39 160.34
  L 21.53 161.50
  Q 20.29 151.96 22.22 142.96
  Q 24.48 141.88 26.43 140.26
  Q 27.49 139.38 28.70 137.03
  Q 30.05 134.40 32.56 132.74
  C 34.42 131.50 35.21 130.27 36.14 128.43
  A 0.93 0.91 6.4 0 1 36.74 127.96
  Q 38.02 127.67 38.20 126.29
  A 1.04 1.02 -13.8 0 1 38.64 125.58
  L 42.49 122.94
  Q 42.77 122.76 42.93 123.05
  L 43.09 123.36
  Q 43.25 123.65 42.94 123.78
  Q 42.28 124.06 41.99 124.70
  Q 41.79 125.17 42.24 124.93
  C 44.36 123.79 46.03 122.87 47.70 121.08
  C 48.61 120.11 50.17 120.07 50.89 118.81
  Q 51.11 118.42 51.51 118.19
  L 54.62 116.39
  Q 55.00 116.18 55.09 115.75
  Q 55.28 114.82 56.25 114.62
  A 1.04 1.04 0.0 0 0 57.04 113.94
  Q 57.65 112.21 59.67 111.91
  Q 60.12 111.84 59.91 112.24
  L 59.77 112.51
  Q 59.37 113.25 60.13 112.89
  L 63.47 111.33
  Q 63.76 111.19 63.89 111.49
  Q 63.93 111.61 63.99 111.73
  Q 64.08 111.90 64.26 111.87
  Q 65.59 111.67 66.14 110.59
  Q 66.32 110.22 66.73 110.17
  L 69.23 109.82
  Q 69.81 109.74 70.08 109.21
  Q 70.58 108.25 71.85 108.40
  A 0.07 0.07 0.0 0 1 71.90 108.50
  L 71.74 108.80
  A 0.18 0.18 0.0 0 0 71.82 109.04
  Q 72.29 109.27 72.75 108.99
  Q 72.98 108.85 72.91 109.16
  Q 72.89 109.28 72.93 109.42
  Q 72.99 109.60 73.17 109.55
  Q 78.46 108.07 76.80 111.16
  Z" fill="#637afb"></path>
<path d="M 126.90 125.16
  L 126.92 144.02
  L 112.35 144.95
  Q 111.93 144.97 112.24 144.69
  Q 112.39 144.56 112.51 144.40
  Q 112.92 143.88 112.25 143.88
  L 108.49 143.88
  A 0.90 0.84 21.2 0 0 107.87 144.13
  L 107.53 144.47
  Q 107.13 144.88 106.55 144.88
  L 103.74 144.88
  Q 103.62 144.88 103.62 144.76
  Q 103.62 144.62 103.62 144.49
  A 0.10 0.09 -85.2 0 1 103.73 144.39
  Q 104.18 144.44 104.23 144.16
  A 0.17 0.16 -84.2 0 0 104.07 143.96
  L 92.94 143.67
  Q 92.40 143.65 92.16 144.13
  Q 91.91 144.62 91.41 144.55
  C 89.57 144.29 87.12 144.67 85.21 144.81
  Q 84.92 144.83 85.13 144.62
  L 85.49 144.25
  Q 86.02 143.72 85.27 143.77
  L 83.01 143.92
  Q 82.54 143.95 82.87 143.62
  L 83.21 143.29
  A 0.24 0.24 0.0 0 0 83.04 142.88
  L 80.65 142.88
  Q 80.45 142.88 80.56 142.71
  Q 80.65 142.59 80.75 142.51
  Q 81.77 141.75 80.50 141.91
  L 74.99 142.59
  A 0.14 0.13 -70.9 0 1 74.88 142.36
  L 75.27 141.97
  A 0.19 0.19 0.0 0 0 75.12 141.65
  L 72.70 141.93
  Q 72.52 141.95 72.65 141.82
  L 72.99 141.49
  A 0.29 0.28 -74.6 0 0 72.72 141.01
  L 68.75 142.03
  Q 67.75 142.28 68.43 141.50
  L 69.13 140.70
  Q 69.65 140.10 68.89 140.35
  Q 67.59 140.77 66.28 141.21
  Q 65.82 141.37 65.40 141.59
  Q 64.12 142.28 64.11 143.23
  A 0.90 0.89 81.5 0 1 63.51 144.05
  L 60.29 145.12
  Q 59.90 145.25 59.67 145.59
  Q 58.71 147.00 57.00 147.29
  Q 56.57 147.36 56.30 147.70
  L 54.02 150.64
  Q 53.65 151.11 53.12 151.40
  L 50.25 152.95
  A 0.12 0.12 0.0 0 1 50.10 152.78
  L 50.27 152.53
  Q 50.62 151.98 50.03 152.26
  C 48.84 152.83 47.38 153.60 46.65 154.73
  Q 46.38 155.14 45.86 155.25
  Q 45.56 155.32 45.58 155.01
  L 45.70 153.20
  Q 45.72 153.03 45.59 153.15
  L 45.35 153.40
  Q 44.93 153.82 44.83 153.23
  Q 44.43 150.74 46.87 150.32
  A 1.00 0.99 88.5 0 0 47.70 149.44
  Q 47.81 148.42 48.49 147.76
  Q 49.16 147.11 48.38 147.47
  Q 46.74 148.21 45.32 149.30
  Q 45.11 149.46 44.99 149.22
  Q 44.93 149.10 44.86 148.97
  Q 44.78 148.83 44.63 148.90
  L 43.01 149.72
  Q 42.62 149.93 42.45 149.51
  L 42.32 149.19
  Q 42.22 148.95 42.46 148.87
  Q 44.88 148.05 45.70 145.80
  C 46.03 144.91 46.53 144.34 47.42 144.27
  Q 47.66 144.26 47.76 144.04
  L 48.71 141.96
  Q 48.81 141.73 48.59 141.85
  L 44.08 144.34
  A 1.14 1.12 87.6 0 0 43.62 144.85
  Q 42.73 146.98 40.52 147.35
  Q 40.17 147.41 40.03 147.74
  Q 39.83 148.18 39.48 148.15
  Q 38.86 148.10 39.22 147.59
  L 40.69 145.48
  Q 41.05 144.96 40.42 145.03
  Q 40.06 145.07 39.86 145.37
  Q 39.66 145.69 39.40 145.81
  A 0.26 0.26 0.0 0 1 39.12 145.38
  Q 40.00 144.62 40.38 143.50
  Q 40.49 143.18 40.18 143.33
  Q 38.04 144.40 36.19 146.05
  Q 35.77 146.43 35.73 146.14
  Q 35.71 145.91 35.95 145.31
  Q 37.54 142.54 38.53 139.63
  Q 39.18 137.74 42.74 136.69
  A 0.57 0.57 0.0 0 0 43.13 135.98
  Q 42.93 135.30 43.53 135.09
  Q 43.99 134.94 44.04 134.45
  Q 44.13 133.58 44.89 133.14
  Q 46.17 132.39 47.52 131.79
  Q 48.16 131.51 48.14 130.82
  Q 48.13 130.40 48.47 130.15
  Q 49.17 129.64 49.12 128.77
  Q 49.09 128.12 49.74 128.12
  L 50.45 128.12
  Q 50.90 128.12 51.07 127.71
  C 51.75 126.06 52.99 126.14 54.15 125.32
  Q 54.46 125.10 54.61 125.45
  Q 54.68 125.59 54.74 125.72
  Q 54.85 125.95 55.09 125.84
  Q 59.11 123.86 63.13 121.88
  Q 63.72 121.60 63.90 121.14
  Q 64.04 120.81 64.08 120.46
  Q 64.13 119.97 64.55 119.71
  Q 66.03 118.77 67.35 118.80
  Q 67.64 119.42 69.37 118.68
  Q 69.86 118.48 69.86 119.00
  Q 69.85 119.13 69.85 119.28
  A 0.19 0.19 0.0 0 0 70.12 119.45
  L 71.35 118.90
  Q 71.87 118.66 71.86 119.23
  L 71.86 119.63
  Q 71.86 119.67 72.00 119.65
  L 81.17 118.52
  Q 81.68 118.45 82.06 118.80
  Q 83.05 119.68 84.35 119.32
  A 0.40 0.40 0.0 0 1 84.81 119.90
  Q 84.66 120.20 84.63 120.53
  Q 84.58 121.03 85.09 121.05
  L 88.99 121.23
  Q 89.43 121.25 89.15 121.60
  Q 89.05 121.72 88.95 121.81
  A 0.12 0.12 0.0 0 0 89.01 122.01
  Q 91.18 122.38 93.39 122.44
  Q 93.81 122.45 94.02 122.25
  Q 94.17 122.11 94.27 121.91
  Q 94.42 121.61 94.76 121.65
  L 101.47 122.51
  Q 101.80 122.55 101.77 122.88
  Q 101.75 123.07 101.75 123.26
  Q 101.75 123.35 101.84 123.37
  Q 105.42 123.97 108.99 124.44
  Q 109.56 124.52 110.00 124.24
  Q 110.38 123.99 110.84 123.98
  Q 119.24 123.82 126.90 125.16
  Z" fill="#7087ff"></path>
<path d="M 126.92 144.02
  L 127.22 154.46
  Q 127.14 154.56 127.01 154.60
  Q 126.89 154.64 126.87 154.77
  L 126.02 163.54
  L 120.41 165.31
  A 0.69 0.69 0.0 0 0 119.95 165.81
  Q 119.89 166.05 119.75 166.25
  Q 119.57 166.49 119.15 166.63
  Q 115.85 167.66 112.52 168.84
  Q 111.86 169.08 112.39 168.61
  Q 112.56 168.46 112.59 168.40
  Q 112.95 167.65 112.15 167.85
  Q 104.61 169.70 97.00 169.87
  Q 90.55 170.02 87.25 170.50
  Q 86.61 170.59 85.84 171.28
  A 1.69 1.66 22.8 0 1 84.78 171.70
  L 71.51 172.14
  A 0.13 0.13 0.0 0 1 71.47 171.88
  Q 71.67 171.82 71.82 171.68
  Q 72.22 171.29 71.68 171.18
  C 70.24 170.87 68.14 171.78 66.57 171.99
  Q 65.93 172.08 66.49 171.76
  Q 67.60 171.12 68.40 170.12
  Q 68.71 169.72 69.21 169.63
  C 70.73 169.34 71.78 169.53 73.14 168.68
  C 75.70 167.08 78.57 165.24 81.29 163.96
  A 0.07 0.07 0.0 0 0 81.25 163.82
  L 70.76 165.01
  A 0.30 0.30 0.0 0 1 70.51 164.50
  L 70.70 164.30
  Q 71.06 163.94 70.56 164.03
  L 65.23 164.90
  Q 64.60 165.00 64.27 165.54
  Q 63.74 166.40 62.60 166.12
  Q 62.10 165.99 61.62 166.19
  Q 60.69 166.57 60.09 167.35
  C 58.76 169.08 57.21 169.87 55.02 170.16
  Q 54.58 170.22 54.22 170.47
  L 53.39 171.03
  Q 52.86 171.38 52.81 170.75
  Q 52.78 170.48 53.06 170.21
  Q 53.16 170.12 53.02 170.12
  Q 52.86 170.12 52.69 170.12
  Q 52.34 170.13 52.11 170.39
  Q 51.47 171.12 50.50 171.11
  A 0.87 0.86 -79.6 0 0 49.67 171.69
  Q 49.12 173.21 47.73 173.79
  Q 47.19 174.02 47.03 174.59
  C 46.19 177.51 42.67 177.42 41.11 179.46
  Q 39.86 181.09 38.68 181.56
  Q 38.23 181.74 37.98 182.14
  Q 37.16 183.43 37.16 185.02
  Q 37.16 185.12 37.25 185.14
  Q 37.45 185.19 37.39 184.99
  A 0.17 0.17 0.0 0 1 37.63 184.78
  Q 37.98 184.95 37.81 185.49
  Q 36.91 188.43 35.27 190.62
  Q 23.77 178.04 21.53 161.50
  L 23.39 160.34
  Q 23.80 160.09 23.99 159.66
  Q 24.44 158.63 25.28 157.86
  Q 25.63 157.53 25.63 158.01
  L 25.63 158.45
  Q 25.63 158.88 26.00 158.66
  Q 27.30 157.86 27.70 156.45
  Q 27.83 155.99 28.23 155.72
  Q 28.42 155.60 28.58 155.45
  Q 28.77 155.28 28.85 155.01
  Q 29.28 153.63 29.96 152.38
  Q 30.22 151.93 30.11 151.42
  Q 30.00 150.92 30.23 150.54
  Q 30.49 150.12 30.98 150.12
  L 31.75 150.12
  Q 32.19 150.12 32.13 149.69
  C 31.88 147.88 34.64 146.16 35.95 145.31
  Q 35.71 145.91 35.73 146.14
  Q 35.77 146.43 36.19 146.05
  Q 38.04 144.40 40.18 143.33
  Q 40.49 143.18 40.38 143.50
  Q 40.00 144.62 39.12 145.38
  A 0.26 0.26 0.0 0 0 39.40 145.81
  Q 39.66 145.69 39.86 145.37
  Q 40.06 145.07 40.42 145.03
  Q 41.05 144.96 40.69 145.48
  L 39.22 147.59
  Q 38.86 148.10 39.48 148.15
  Q 39.83 148.18 40.03 147.74
  Q 40.17 147.41 40.52 147.35
  Q 42.73 146.98 43.62 144.85
  A 1.14 1.12 87.6 0 1 44.08 144.34
  L 48.59 141.85
  Q 48.81 141.73 48.71 141.96
  L 47.76 144.04
  Q 47.66 144.26 47.42 144.27
  C 46.53 144.34 46.03 144.91 45.70 145.80
  Q 44.88 148.05 42.46 148.87
  Q 42.22 148.95 42.32 149.19
  L 42.45 149.51
  Q 42.62 149.93 43.01 149.72
  L 44.63 148.90
  Q 44.78 148.83 44.86 148.97
  Q 44.93 149.10 44.99 149.22
  Q 45.11 149.46 45.32 149.30
  Q 46.74 148.21 48.38 147.47
  Q 49.16 147.11 48.49 147.76
  Q 47.81 148.42 47.70 149.44
  A 1.00 0.99 88.5 0 1 46.87 150.32
  Q 44.43 150.74 44.83 153.23
  Q 44.93 153.82 45.35 153.40
  L 45.59 153.15
  Q 45.72 153.03 45.70 153.20
  L 45.58 155.01
  Q 45.56 155.32 45.86 155.25
  Q 46.38 155.14 46.65 154.73
  C 47.38 153.60 48.84 152.83 50.03 152.26
  Q 50.62 151.98 50.27 152.53
  L 50.10 152.78
  A 0.12 0.12 0.0 0 0 50.25 152.95
  L 53.12 151.40
  Q 53.65 151.11 54.02 150.64
  L 56.30 147.70
  Q 56.57 147.36 57.00 147.29
  Q 58.71 147.00 59.67 145.59
  Q 59.90 145.25 60.29 145.12
  L 63.51 144.05
  A 0.90 0.89 81.5 0 0 64.11 143.23
  Q 64.12 142.28 65.40 141.59
  Q 65.82 141.37 66.28 141.21
  Q 67.59 140.77 68.89 140.35
  Q 69.65 140.10 69.13 140.70
  L 68.43 141.50
  Q 67.75 142.28 68.75 142.03
  L 72.72 141.01
  A 0.29 0.28 -74.6 0 1 72.99 141.49
  L 72.65 141.82
  Q 72.52 141.95 72.70 141.93
  L 75.12 141.65
  A 0.19 0.19 0.0 0 1 75.27 141.97
  L 74.88 142.36
  A 0.14 0.13 -70.9 0 0 74.99 142.59
  L 80.50 141.91
  Q 81.77 141.75 80.75 142.51
  Q 80.65 142.59 80.56 142.71
  Q 80.45 142.88 80.65 142.88
  L 83.04 142.88
  A 0.24 0.24 0.0 0 1 83.21 143.29
  L 82.87 143.62
  Q 82.54 143.95 83.01 143.92
  L 85.27 143.77
  Q 86.02 143.72 85.49 144.25
  L 85.13 144.62
  Q 84.92 144.83 85.21 144.81
  C 87.12 144.67 89.57 144.29 91.41 144.55
  Q 91.91 144.62 92.16 144.13
  Q 92.40 143.65 92.94 143.67
  L 104.07 143.96
  A 0.17 0.16 -84.2 0 1 104.23 144.16
  Q 104.18 144.44 103.73 144.39
  A 0.10 0.09 -85.2 0 0 103.62 144.49
  Q 103.62 144.62 103.62 144.76
  Q 103.62 144.88 103.74 144.88
  L 106.55 144.88
  Q 107.13 144.88 107.53 144.47
  L 107.87 144.13
  A 0.90 0.84 21.2 0 1 108.49 143.88
  L 112.25 143.88
  Q 112.92 143.88 112.51 144.40
  Q 112.39 144.56 112.24 144.69
  Q 111.93 144.97 112.35 144.95
  L 126.92 144.02
  Z" fill="#7ea0ff"></path>
<path d="M 126.02 163.54
  Q 124.64 171.83 120.96 178.73
  Q 117.54 181.13 111.01 184.17
  Q 104.63 187.14 99.21 187.92
  C 98.24 188.06 97.49 188.52 96.47 188.68
  Q 95.90 188.77 95.89 189.35
  Q 95.88 189.78 95.43 189.66
  Q 95.03 189.56 94.64 189.67
  Q 91.00 190.68 87.21 190.62
  C 85.97 190.60 85.51 191.27 84.07 191.03
  C 82.42 190.76 81.45 190.67 79.74 191.41
  Q 78.58 191.91 77.25 191.90
  Q 70.29 191.86 63.31 191.90
  Q 62.82 191.91 62.40 192.16
  Q 60.25 193.51 58.20 192.84
  Q 55.55 191.99 55.17 192.01
  Q 52.86 192.13 51.57 194.12
  C 50.64 195.56 50.02 196.24 48.99 197.30
  Q 48.68 197.63 48.23 197.74
  Q 47.61 197.89 47.36 198.63
  Q 47.22 199.05 46.83 199.25
  L 46.20 199.57
  Q 40.04 195.72 35.27 190.62
  Q 36.91 188.43 37.81 185.49
  Q 37.98 184.95 37.63 184.78
  A 0.17 0.17 0.0 0 0 37.39 184.99
  Q 37.45 185.19 37.25 185.14
  Q 37.16 185.12 37.16 185.02
  Q 37.16 183.43 37.98 182.14
  Q 38.23 181.74 38.68 181.56
  Q 39.86 181.09 41.11 179.46
  C 42.67 177.42 46.19 177.51 47.03 174.59
  Q 47.19 174.02 47.73 173.79
  Q 49.12 173.21 49.67 171.69
  A 0.87 0.86 -79.6 0 1 50.50 171.11
  Q 51.47 171.12 52.11 170.39
  Q 52.34 170.13 52.69 170.12
  Q 52.86 170.12 53.02 170.12
  Q 53.16 170.12 53.06 170.21
  Q 52.78 170.48 52.81 170.75
  Q 52.86 171.38 53.39 171.03
  L 54.22 170.47
  Q 54.58 170.22 55.02 170.16
  C 57.21 169.87 58.76 169.08 60.09 167.35
  Q 60.69 166.57 61.62 166.19
  Q 62.10 165.99 62.60 166.12
  Q 63.74 166.40 64.27 165.54
  Q 64.60 165.00 65.23 164.90
  L 70.56 164.03
  Q 71.06 163.94 70.70 164.30
  L 70.51 164.50
  A 0.30 0.30 0.0 0 0 70.76 165.01
  L 81.25 163.82
  A 0.07 0.07 0.0 0 1 81.29 163.96
  C 78.57 165.24 75.70 167.08 73.14 168.68
  C 71.78 169.53 70.73 169.34 69.21 169.63
  Q 68.71 169.72 68.40 170.12
  Q 67.60 171.12 66.49 171.76
  Q 65.93 172.08 66.57 171.99
  C 68.14 171.78 70.24 170.87 71.68 171.18
  Q 72.22 171.29 71.82 171.68
  Q 71.67 171.82 71.47 171.88
  A 0.13 0.13 0.0 0 0 71.51 172.14
  L 84.78 171.70
  A 1.69 1.66 22.8 0 0 85.84 171.28
  Q 86.61 170.59 87.25 170.50
  Q 90.55 170.02 97.00 169.87
  Q 104.61 169.70 112.15 167.85
  Q 112.95 167.65 112.59 168.40
  Q 112.56 168.46 112.39 168.61
  Q 111.86 169.08 112.52 168.84
  Q 115.85 167.66 119.15 166.63
  Q 119.57 166.49 119.75 166.25
  Q 119.89 166.05 119.95 165.81
  A 0.69 0.69 0.0 0 1 120.41 165.31
  L 126.02 163.54
  Z" fill="#87b7ff"></path>
<path d="M 120.96 178.73
  C 106.32 206.23 73.00 215.41 46.20 199.57
  L 46.83 199.25
  Q 47.22 199.05 47.36 198.63
  Q 47.61 197.89 48.23 197.74
  Q 48.68 197.63 48.99 197.30
  C 50.02 196.24 50.64 195.56 51.57 194.12
  Q 52.86 192.13 55.17 192.01
  Q 55.55 191.99 58.20 192.84
  Q 60.25 193.51 62.40 192.16
  Q 62.82 191.91 63.31 191.90
  Q 70.29 191.86 77.25 191.90
  Q 78.58 191.91 79.74 191.41
  C 81.45 190.67 82.42 190.76 84.07 191.03
  C 85.51 191.27 85.97 190.60 87.21 190.62
  Q 91.00 190.68 94.64 189.67
  Q 95.03 189.56 95.43 189.66
  Q 95.88 189.78 95.89 189.35
  Q 95.90 188.77 96.47 188.68
  C 97.49 188.52 98.24 188.06 99.21 187.92
  Q 104.63 187.14 111.01 184.17
  Q 117.54 181.13 120.96 178.73
  Z" fill="#92c8ff"></path>
</svg>
