<svg viewBox="0.00 0.00 180.00 180.00" version="1.1" xmlns="http://www.w3.org/2000/svg">
<g stroke-linecap="butt" fill="none" stroke-width="2.00">
<path d="M 6.35 0.00
  L 0.00 6.82" stroke="#0e0f12"></path>
<path d="M 9.60 0.00
  Q 5.16 4.86 0.92 9.17
  Q 0.40 9.70 0.00 8.47" stroke="#0e0f12"></path>
<path d="M 28.76 0.00
  Q 27.28 0.23 26.75 0.76
  Q 14.08 13.52 1.27 26.14
  C 0.68 26.71 0.40 27.56 0.00 28.28" stroke="#0e0f12"></path>
<path d="M 29.47 0.00
  L 29.94 0.29
  Q 30.46 0.60 30.01 0.99
  C 21.11 8.90 12.85 17.89 4.43 26.32
  Q 4.35 26.40 2.67 28.29
  Q 1.31 29.83 0.00 30.11" stroke="#0e0f12"></path>
<path d="M 48.64 0.00
  L 0.00 49.18" stroke="#0e0f12"></path>
<path d="M 51.15 0.00
  Q 51.59 0.94 50.03 2.01
  Q 48.81 2.86 48.31 3.36
  Q 25.94 25.72 3.67 48.17
  Q 1.03 50.84 0.00 51.12" stroke="#0e0f12"></path>
<path d="M 69.81 0.00
  L 0.00 69.51" stroke="#0e0f12"></path>
<path d="M 72.06 0.00
  Q 71.92 1.39 70.13 2.81
  Q 68.12 4.39 67.58 4.94
  Q 35.12 37.93 2.30 70.57
  Q 1.89 70.97 1.48 71.64
  Q 0.42 73.34 0.00 71.94" stroke="#0e0f12"></path>
<path d="M 90.66 0.00
  L 37.41 52.88
  Q 36.85 53.44 37.37 54.03
  L 37.54 54.23
  Q 38.37 55.17 39.25 54.28
  L 93.41 0.00" stroke="#0e0f12"></path>
<path d="M 111.60 0.00
  L 58.59 52.51
  A 0.74 0.74 0.0 0 0 58.88 53.74
  C 59.93 54.09 61.00 53.75 61.80 52.89
  C 63.49 51.06 65.69 49.42 67.23 47.86
  Q 88.44 26.46 109.60 5.01
  Q 109.77 4.84 112.17 2.77
  Q 113.69 1.45 114.25 0.00" stroke="#0e0f12"></path>
<path d="M 132.70 0.00
  L 76.57 55.61
  A 0.67 0.66 43.6 0 0 76.60 56.59
  Q 77.08 57.00 77.69 57.11
  Q 78.20 57.21 78.60 56.87
  Q 83.33 52.87 86.08 50.07
  Q 109.23 26.38 132.68 2.98
  Q 133.11 2.56 134.12 1.85
  Q 135.66 0.77 134.81 0.00" stroke="#0e0f12"></path>
<path d="M 153.66 0.00
  Q 127.35 26.31 100.85 52.63
  Q 99.92 53.55 100.70 53.97
  A 1.90 1.89 -52.2 0 0 102.87 53.69
  C 118.13 39.60 132.33 24.21 146.99 9.49
  Q 151.39 5.06 156.11 0.93
  Q 156.52 0.57 156.24 0.37
  Q 156.00 0.20 155.46 0.00" stroke="#0e0f12"></path>
<path d="M 174.34 0.00
  L 121.70 52.45
  A 0.77 0.77 0.0 0 0 122.02 53.74
  C 123.89 54.29 124.38 52.87 125.40 52.01
  Q 130.42 47.78 133.42 44.67
  Q 154.57 22.72 176.47 1.52
  A 1.15 1.13 -73.2 0 1 177.04 1.21
  Q 177.33 1.14 177.46 1.00
  Q 177.83 0.60 177.32 0.41
  Q 176.76 0.21 176.74 0.00" stroke="#0e0f12"></path>
<path d="M 180.00 16.21
  Q 178.91 15.87 177.43 17.68
  Q 176.03 19.39 175.58 19.84
  Q 157.76 37.61 139.91 55.34
  Q 139.60 55.65 139.83 56.03
  Q 140.28 56.77 141.06 56.79
  Q 141.73 56.81 142.51 56.09
  C 155.14 44.51 166.98 31.87 179.13 19.78
  C 179.60 19.32 179.68 18.80 180.00 18.24" stroke="#0e0f12"></path>
<path d="M 180.00 37.01
  Q 178.77 36.99 177.52 38.57
  Q 176.14 40.31 175.70 40.74
  Q 163.07 53.19 150.83 65.66
  Q 150.35 66.14 150.56 66.79
  L 150.83 67.58
  Q 151.13 68.49 151.81 67.81
  L 180.00 39.70" stroke="#0e0f12"></path>
<path d="M 180.00 58.57
  Q 179.71 56.80 178.20 59.03
  Q 177.65 59.83 177.13 60.34
  Q 159.09 77.91 141.59 96.02
  A 0.21 0.21 0.0 0 1 141.28 96.01
  Q 141.10 95.81 140.81 95.84
  Q 140.29 95.90 140.37 96.42
  Q 140.44 96.81 140.26 96.98
  Q 139.77 97.45 140.26 97.93
  Q 140.93 98.59 141.87 98.68
  Q 142.28 98.73 142.57 98.44
  Q 160.93 80.20 179.11 61.77
  C 179.61 61.26 179.69 60.86 180.00 60.23" stroke="#0e0f12"></path>
<path d="M 180.00 79.64
  L 179.79 79.20
  Q 179.53 78.65 179.11 79.08
  L 149.38 108.97
  A 0.85 0.84 51.8 0 0 149.26 110.01
  L 149.71 110.75
  Q 150.13 111.43 150.69 110.87
  L 180.00 81.70" stroke="#0e0f12"></path>
<path d="M 180.00 100.65
  Q 179.57 99.43 179.25 99.77
  Q 169.87 109.72 160.07 119.27
  Q 159.69 119.64 159.16 119.58
  L 156.63 119.29" stroke="#0e0f12"></path>
<path d="M 156.63 119.29
  Q 156.99 118.02 156.63 117.16
  Q 156.36 116.49 155.10 116.13
  Q 149.91 114.65 146.51 109.48
  Q 141.68 102.11 137.33 94.65
  A 0.50 0.49 -30.3 0 1 137.51 93.98
  C 144.93 89.73 150.43 82.96 150.28 73.99
  C 150.03 59.32 136.61 54.91 124.25 55.32
  Q 105.94 55.93 92.55 55.54
  Q 91.72 55.51 91.61 56.34
  L 90.65 63.45
  Q 90.54 64.27 91.37 64.29
  C 94.42 64.38 98.12 63.14 98.15 67.75
  Q 98.31 87.62 98.10 107.50
  Q 98.02 115.04 92.21 115.67
  Q 91.02 115.80 90.88 116.98
  L 90.11 123.55
  Q 89.96 124.81 91.23 124.72
  Q 106.21 123.62 121.23 124.49
  Q 122.31 124.55 122.46 123.48
  L 123.42 116.71
  A 1.04 1.04 0.0 0 0 122.32 115.53
  Q 115.63 116.00 115.50 110.26
  Q 115.38 104.69 115.56 99.00
  Q 115.58 98.35 116.22 98.47
  Q 118.49 98.90 120.77 98.50
  A 1.04 1.04 0.0 0 1 121.91 99.11
  Q 125.92 108.12 129.97 116.78
  C 135.31 128.19 142.65 125.45 152.76 124.75" stroke="#7b7b7d"></path>
<path d="M 152.76 124.75
  C 153.28 125.67 153.20 126.45 152.39 127.20
  Q 146.24 132.89 140.36 138.86
  Q 121.60 157.92 102.62 176.76
  Q 102.07 177.30 101.15 177.98
  Q 98.73 179.78 100.69 180.00" stroke="#0e0f12"></path>
<path d="M 80.64 180.00
  Q 82.17 179.53 82.72 178.97
  Q 109.04 152.53 135.44 126.61
  A 0.97 0.96 42.3 0 0 135.37 125.18
  L 135.09 124.94
  Q 134.05 124.09 133.11 125.05
  Q 107.61 150.97 81.61 176.98
  C 80.87 177.73 79.86 178.38 79.02 179.10
  Q 78.53 179.52 79.15 179.70
  L 80.16 180.00" stroke="#0e0f12"></path>
<path d="M 59.73 180.00
  Q 61.07 179.65 61.61 179.11
  Q 87.42 153.12 113.42 127.60
  Q 113.90 127.13 113.28 126.88
  L 111.96 126.34
  Q 111.34 126.09 110.87 126.56
  Q 83.85 153.71 61.17 176.41
  Q 59.68 177.90 57.88 179.12
  Q 57.32 179.50 57.95 179.73
  L 58.72 180.00" stroke="#0e0f12"></path>
<path d="M 38.65 180.00
  C 39.57 179.71 40.31 179.50 41.01 178.79
  Q 66.42 153.10 92.19 127.74
  Q 93.04 126.91 91.95 126.44
  L 91.71 126.34
  Q 90.51 125.83 89.59 126.76
  Q 65.15 151.44 40.16 176.43
  Q 39.51 177.07 38.55 177.74
  Q 35.37 179.95 38.07 180.00" stroke="#0e0f12"></path>
<path d="M 17.97 180.00
  C 18.78 179.74 19.36 179.56 19.99 178.93
  Q 57.80 140.97 96.04 103.05
  Q 97.01 102.10 96.59 100.80
  L 96.46 100.38
  Q 96.05 99.09 95.09 100.05
  Q 57.04 138.41 18.93 176.47
  Q 18.34 177.06 17.34 177.81
  Q 14.58 179.89 16.81 180.00" stroke="#0e0f12"></path>
<path d="M 0.00 176.70
  L 0.22 177.22
  Q 0.47 177.80 0.88 177.31
  Q 3.36 174.34 6.10 171.60
  Q 28.22 149.52 50.45 127.55
  Q 50.79 127.21 50.60 126.78
  Q 50.25 125.95 49.24 126.10
  C 47.59 126.34 46.39 128.21 45.50 129.04
  C 30.20 143.29 15.82 158.81 0.90 173.50
  Q 0.54 173.85 0.36 174.31
  L 0.00 175.20" stroke="#0e0f12"></path>
<path d="M 0.00 155.65
  Q 0.30 157.30 2.20 154.75
  Q 2.98 153.70 3.64 153.05
  Q 16.28 140.57 29.20 127.73
  Q 29.79 127.14 29.01 126.84
  L 28.01 126.46
  Q 27.24 126.16 26.65 126.75
  Q 13.95 139.51 0.95 152.53
  C 0.45 153.02 0.31 153.55 0.00 154.16" stroke="#0e0f12"></path>
<path d="M 0.00 134.79
  Q 0.96 135.28 2.51 133.44
  Q 3.85 131.84 4.33 131.37
  Q 18.33 117.70 32.13 103.82
  Q 32.47 103.47 32.95 103.41
  L 34.74 103.16" stroke="#0e0f12"></path>
<path d="M 34.74 103.16
  C 35.00 108.16 35.62 115.01 28.74 115.86
  Q 27.76 115.98 27.68 116.97
  L 27.09 124.00
  Q 27.00 125.01 28.01 124.92
  Q 44.10 123.55 60.22 124.47
  A 0.55 0.54 5.0 0 0 60.80 123.99
  Q 61.31 120.17 61.85 116.32
  Q 61.90 115.94 61.80 115.72
  Q 61.67 115.45 61.41 115.23" stroke="#7b7b7d"></path>
<path d="M 61.41 115.23
  Q 64.96 112.77 66.14 111.64
  Q 81.92 96.67 96.87 80.91
  Q 97.78 79.95 96.67 79.23
  L 96.29 78.98
  A 0.97 0.97 0.0 0 0 95.07 79.12
  L 86.13 88.43
  Q 85.82 88.75 85.42 88.95
  Q 83.35 89.95 82.85 89.08" stroke="#0e0f12"></path>
<path d="M 82.85 89.08
  C 88.88 80.34 88.06 67.59 79.94 60.64
  C 74.85 56.28 67.22 55.21 60.50 55.39
  Q 50.51 55.66 40.50 55.57
  Q 34.66 55.51 28.76 55.82
  Q 28.26 55.85 28.20 56.34
  L 27.25 63.34" stroke="#7b7b7d"></path>
<path d="M 27.25 63.34
  L 0.00 90.56" stroke="#0e0f12"></path>
<path d="M 82.85 89.08
  Q 79.64 93.62 74.73 96.94" stroke="#838488"></path>
<path d="M 74.73 96.94
  C 67.72 101.59 60.83 100.93 52.87 101.04
  Q 52.39 101.05 52.36 101.53
  Q 52.12 106.15 52.29 110.75
  C 52.49 116.14 57.01 116.03 61.05 115.20" stroke="#7b7b7d"></path>
<path d="M 61.05 115.20
  Q 61.27 115.30 61.41 115.23" stroke="#838488"></path>
<path d="M 34.74 103.16
  L 34.75 96.53" stroke="#838488"></path>
<path d="M 34.75 96.53
  Q 34.93 81.90 34.69 67.25
  C 34.63 63.65 31.07 63.81 28.71 64.49" stroke="#7b7b7d"></path>
<path d="M 28.71 64.49
  Q 27.66 64.73 27.25 63.34" stroke="#838488"></path>
<path d="M 53.45 68.08
  L 52.48 88.66
  A 1.54 1.54 0.0 0 0 53.95 90.27
  L 57.68 90.44
  A 10.15 10.08 -87.3 0 0 68.23 80.78
  L 68.39 77.40
  A 10.15 10.08 -87.3 0 0 58.80 66.79
  L 55.06 66.61
  A 1.54 1.54 0.0 0 0 53.45 68.08" stroke="#7b7b7d"></path>
<path d="M 156.63 119.29
  L 156.02 124.01
  Q 155.95 124.53 155.42 124.57
  L 152.76 124.75" stroke="#838488"></path>
<path d="M 116.74 68.00
  L 115.78 85.80
  A 1.71 1.71 0.0 0 0 117.39 87.60
  L 121.13 87.80
  A 10.05 9.75 3.1 0 0 131.69 78.61
  L 131.79 76.87
  A 10.05 9.75 3.1 0 0 122.28 66.59
  L 118.54 66.39
  A 1.71 1.71 0.0 0 0 116.74 68.00" stroke="#7b7b7d"></path>
<path d="M 28.71 64.49
  Q 27.89 64.84 27.74 65.88
  Q 27.67 66.35 27.33 66.69
  Q 14.72 79.34 1.93 91.82
  C 1.49 92.25 1.34 92.79 1.04 93.31
  Q 0.63 93.99 0.32 93.26
  L 0.00 92.48" stroke="#0e0f12"></path>
<path d="M 34.75 96.53
  L 34.43 98.32
  Q 34.36 98.71 33.97 98.80
  Q 33.26 98.95 32.61 99.61
  Q 16.10 116.10 0.00 132.69" stroke="#0e0f12"></path>
<path d="M 0.00 114.16
  Q 0.47 115.27 1.48 113.70
  Q 1.93 113.00 2.35 112.59
  Q 18.10 97.06 33.58 81.40
  Q 34.36 80.61 33.74 79.70
  L 33.27 78.99
  Q 32.84 78.36 32.30 78.90
  L 0.00 111.29" stroke="#0e0f12"></path>
<path d="M 61.05 115.20
  C 61.21 113.91 61.45 112.86 62.43 111.87
  Q 68.54 105.75 74.75 99.75
  Q 76.11 98.43 74.73 96.94" stroke="#0e0f12"></path>
<path d="M 180.00 102.91
  Q 169.87 112.88 159.78 123.25
  C 158.88 124.18 157.80 124.58 156.67 125.16
  Q 156.22 125.39 156.20 125.89
  Q 156.16 126.98 155.31 127.80
  Q 133.09 149.50 103.85 179.10
  Q 103.37 179.59 102.11 180.00" stroke="#0e0f12"></path>
<path d="M 180.00 121.64
  L 179.76 121.15
  Q 179.53 120.68 179.16 121.05
  Q 151.55 149.12 123.58 176.83
  Q 122.39 178.01 120.97 179.02
  Q 120.51 179.35 121.00 179.64
  Q 121.43 179.89 122.16 180.00" stroke="#0e0f12"></path>
<path d="M 180.00 123.86
  Q 152.54 151.08 125.01 178.84
  C 124.35 179.51 123.57 179.74 122.71 180.00" stroke="#0e0f12"></path>
<path d="M 180.00 162.53
  L 162.95 179.06
  Q 162.61 179.40 163.00 179.69
  Q 163.25 179.87 163.70 180.00" stroke="#0e0f12"></path>
<path d="M 143.91 180.00
  C 144.64 179.71 145.18 179.57 145.75 178.99
  Q 162.52 162.02 179.33 145.39
  A 1.68 1.67 67.2 0 0 179.82 144.18
  L 179.79 142.45
  Q 179.77 141.71 179.25 142.24
  Q 162.00 159.77 144.26 177.29
  Q 143.70 177.84 141.98 179.04
  Q 141.50 179.38 142.01 179.67
  Q 142.41 179.90 143.16 180.00" stroke="#0e0f12"></path>
<path d="M 180.00 165.61
  Q 173.73 172.32 166.96 178.79
  C 166.32 179.41 165.50 179.69 164.70 180.00" stroke="#0e0f12"></path>
</g>
<path d="M 0.00 0.00
  L 6.35 0.00
  L 0.00 6.82
  L 0.00 0.00
  Z" fill="#060607"></path>
<path d="M 6.35 0.00
  L 9.60 0.00
  Q 5.16 4.86 0.92 9.17
  Q 0.40 9.70 0.00 8.47
  L 0.00 6.82
  L 6.35 0.00
  Z" fill="#16171c"></path>
<path d="M 9.60 0.00
  L 28.76 0.00
  Q 27.28 0.23 26.75 0.76
  Q 14.08 13.52 1.27 26.14
  C 0.68 26.71 0.40 27.56 0.00 28.28
  L 0.00 8.47
  Q 0.40 9.70 0.92 9.17
  Q 5.16 4.86 9.60 0.00
  Z" fill="#060607"></path>
<path d="M 28.76 0.00
  L 29.47 0.00
  L 29.94 0.29
  Q 30.46 0.60 30.01 0.99
  C 21.11 8.90 12.85 17.89 4.43 26.32
  Q 4.35 26.40 2.67 28.29
  Q 1.31 29.83 0.00 30.11
  L 0.00 28.28
  C 0.40 27.56 0.68 26.71 1.27 26.14
  Q 14.08 13.52 26.75 0.76
  Q 27.28 0.23 28.76 0.00
  Z" fill="#16171c"></path>
<path d="M 29.47 0.00
  L 48.64 0.00
  L 0.00 49.18
  L 0.00 30.11
  Q 1.31 29.83 2.67 28.29
  Q 4.35 26.40 4.43 26.32
  C 12.85 17.89 21.11 8.90 30.01 0.99
  Q 30.46 0.60 29.94 0.29
  L 29.47 0.00
  Z" fill="#060607"></path>
<path d="M 48.64 0.00
  L 51.15 0.00
  Q 51.59 0.94 50.03 2.01
  Q 48.81 2.86 48.31 3.36
  Q 25.94 25.72 3.67 48.17
  Q 1.03 50.84 0.00 51.12
  L 0.00 49.18
  L 48.64 0.00
  Z" fill="#16171c"></path>
<path d="M 51.15 0.00
  L 69.81 0.00
  L 0.00 69.51
  L 0.00 51.12
  Q 1.03 50.84 3.67 48.17
  Q 25.94 25.72 48.31 3.36
  Q 48.81 2.86 50.03 2.01
  Q 51.59 0.94 51.15 0.00
  Z" fill="#060607"></path>
<path d="M 69.81 0.00
  L 72.06 0.00
  Q 71.92 1.39 70.13 2.81
  Q 68.12 4.39 67.58 4.94
  Q 35.12 37.93 2.30 70.57
  Q 1.89 70.97 1.48 71.64
  Q 0.42 73.34 0.00 71.94
  L 0.00 69.51
  L 69.81 0.00
  Z" fill="#16171c"></path>
<path d="M 72.06 0.00
  L 90.66 0.00
  L 37.41 52.88
  Q 36.85 53.44 37.37 54.03
  L 37.54 54.23
  Q 38.37 55.17 39.25 54.28
  L 93.41 0.00
  L 111.60 0.00
  L 58.59 52.51
  A 0.74 0.74 0.0 0 0 58.88 53.74
  C 59.93 54.09 61.00 53.75 61.80 52.89
  C 63.49 51.06 65.69 49.42 67.23 47.86
  Q 88.44 26.46 109.60 5.01
  Q 109.77 4.84 112.17 2.77
  Q 113.69 1.45 114.25 0.00
  L 132.70 0.00
  L 76.57 55.61
  A 0.67 0.66 43.6 0 0 76.60 56.59
  Q 77.08 57.00 77.69 57.11
  Q 78.20 57.21 78.60 56.87
  Q 83.33 52.87 86.08 50.07
  Q 109.23 26.38 132.68 2.98
  Q 133.11 2.56 134.12 1.85
  Q 135.66 0.77 134.81 0.00
  L 153.66 0.00
  Q 127.35 26.31 100.85 52.63
  Q 99.92 53.55 100.70 53.97
  A 1.90 1.89 -52.2 0 0 102.87 53.69
  C 118.13 39.60 132.33 24.21 146.99 9.49
  Q 151.39 5.06 156.11 0.93
  Q 156.52 0.57 156.24 0.37
  Q 156.00 0.20 155.46 0.00
  L 174.34 0.00
  L 121.70 52.45
  A 0.77 0.77 0.0 0 0 122.02 53.74
  C 123.89 54.29 124.38 52.87 125.40 52.01
  Q 130.42 47.78 133.42 44.67
  Q 154.57 22.72 176.47 1.52
  A 1.15 1.13 -73.2 0 1 177.04 1.21
  Q 177.33 1.14 177.46 1.00
  Q 177.83 0.60 177.32 0.41
  Q 176.76 0.21 176.74 0.00
  L 180.00 0.00
  L 180.00 16.21
  Q 178.91 15.87 177.43 17.68
  Q 176.03 19.39 175.58 19.84
  Q 157.76 37.61 139.91 55.34
  Q 139.60 55.65 139.83 56.03
  Q 140.28 56.77 141.06 56.79
  Q 141.73 56.81 142.51 56.09
  C 155.14 44.51 166.98 31.87 179.13 19.78
  C 179.60 19.32 179.68 18.80 180.00 18.24
  L 180.00 37.01
  Q 178.77 36.99 177.52 38.57
  Q 176.14 40.31 175.70 40.74
  Q 163.07 53.19 150.83 65.66
  Q 150.35 66.14 150.56 66.79
  L 150.83 67.58
  Q 151.13 68.49 151.81 67.81
  L 180.00 39.70
  L 180.00 58.57
  Q 179.71 56.80 178.20 59.03
  Q 177.65 59.83 177.13 60.34
  Q 159.09 77.91 141.59 96.02
  A 0.21 0.21 0.0 0 1 141.28 96.01
  Q 141.10 95.81 140.81 95.84
  Q 140.29 95.90 140.37 96.42
  Q 140.44 96.81 140.26 96.98
  Q 139.77 97.45 140.26 97.93
  Q 140.93 98.59 141.87 98.68
  Q 142.28 98.73 142.57 98.44
  Q 160.93 80.20 179.11 61.77
  C 179.61 61.26 179.69 60.86 180.00 60.23
  L 180.00 79.64
  L 179.79 79.20
  Q 179.53 78.65 179.11 79.08
  L 149.38 108.97
  A 0.85 0.84 51.8 0 0 149.26 110.01
  L 149.71 110.75
  Q 150.13 111.43 150.69 110.87
  L 180.00 81.70
  L 180.00 100.65
  Q 179.57 99.43 179.25 99.77
  Q 169.87 109.72 160.07 119.27
  Q 159.69 119.64 159.16 119.58
  L 156.63 119.29
  Q 156.99 118.02 156.63 117.16
  Q 156.36 116.49 155.10 116.13
  Q 149.91 114.65 146.51 109.48
  Q 141.68 102.11 137.33 94.65
  A 0.50 0.49 -30.3 0 1 137.51 93.98
  C 144.93 89.73 150.43 82.96 150.28 73.99
  C 150.03 59.32 136.61 54.91 124.25 55.32
  Q 105.94 55.93 92.55 55.54
  Q 91.72 55.51 91.61 56.34
  L 90.65 63.45
  Q 90.54 64.27 91.37 64.29
  C 94.42 64.38 98.12 63.14 98.15 67.75
  Q 98.31 87.62 98.10 107.50
  Q 98.02 115.04 92.21 115.67
  Q 91.02 115.80 90.88 116.98
  L 90.11 123.55
  Q 89.96 124.81 91.23 124.72
  Q 106.21 123.62 121.23 124.49
  Q 122.31 124.55 122.46 123.48
  L 123.42 116.71
  A 1.04 1.04 0.0 0 0 122.32 115.53
  Q 115.63 116.00 115.50 110.26
  Q 115.38 104.69 115.56 99.00
  Q 115.58 98.35 116.22 98.47
  Q 118.49 98.90 120.77 98.50
  A 1.04 1.04 0.0 0 1 121.91 99.11
  Q 125.92 108.12 129.97 116.78
  C 135.31 128.19 142.65 125.45 152.76 124.75
  C 153.28 125.67 153.20 126.45 152.39 127.20
  Q 146.24 132.89 140.36 138.86
  Q 121.60 157.92 102.62 176.76
  Q 102.07 177.30 101.15 177.98
  Q 98.73 179.78 100.69 180.00
  L 80.64 180.00
  Q 82.17 179.53 82.72 178.97
  Q 109.04 152.53 135.44 126.61
  A 0.97 0.96 42.3 0 0 135.37 125.18
  L 135.09 124.94
  Q 134.05 124.09 133.11 125.05
  Q 107.61 150.97 81.61 176.98
  C 80.87 177.73 79.86 178.38 79.02 179.10
  Q 78.53 179.52 79.15 179.70
  L 80.16 180.00
  L 59.73 180.00
  Q 61.07 179.65 61.61 179.11
  Q 87.42 153.12 113.42 127.60
  Q 113.90 127.13 113.28 126.88
  L 111.96 126.34
  Q 111.34 126.09 110.87 126.56
  Q 83.85 153.71 61.17 176.41
  Q 59.68 177.90 57.88 179.12
  Q 57.32 179.50 57.95 179.73
  L 58.72 180.00
  L 38.65 180.00
  C 39.57 179.71 40.31 179.50 41.01 178.79
  Q 66.42 153.10 92.19 127.74
  Q 93.04 126.91 91.95 126.44
  L 91.71 126.34
  Q 90.51 125.83 89.59 126.76
  Q 65.15 151.44 40.16 176.43
  Q 39.51 177.07 38.55 177.74
  Q 35.37 179.95 38.07 180.00
  L 17.97 180.00
  C 18.78 179.74 19.36 179.56 19.99 178.93
  Q 57.80 140.97 96.04 103.05
  Q 97.01 102.10 96.59 100.80
  L 96.46 100.38
  Q 96.05 99.09 95.09 100.05
  Q 57.04 138.41 18.93 176.47
  Q 18.34 177.06 17.34 177.81
  Q 14.58 179.89 16.81 180.00
  L 0.00 180.00
  L 0.00 176.70
  L 0.22 177.22
  Q 0.47 177.80 0.88 177.31
  Q 3.36 174.34 6.10 171.60
  Q 28.22 149.52 50.45 127.55
  Q 50.79 127.21 50.60 126.78
  Q 50.25 125.95 49.24 126.10
  C 47.59 126.34 46.39 128.21 45.50 129.04
  C 30.20 143.29 15.82 158.81 0.90 173.50
  Q 0.54 173.85 0.36 174.31
  L 0.00 175.20
  L 0.00 155.65
  Q 0.30 157.30 2.20 154.75
  Q 2.98 153.70 3.64 153.05
  Q 16.28 140.57 29.20 127.73
  Q 29.79 127.14 29.01 126.84
  L 28.01 126.46
  Q 27.24 126.16 26.65 126.75
  Q 13.95 139.51 0.95 152.53
  C 0.45 153.02 0.31 153.55 0.00 154.16
  L 0.00 134.79
  Q 0.96 135.28 2.51 133.44
  Q 3.85 131.84 4.33 131.37
  Q 18.33 117.70 32.13 103.82
  Q 32.47 103.47 32.95 103.41
  L 34.74 103.16
  C 35.00 108.16 35.62 115.01 28.74 115.86
  Q 27.76 115.98 27.68 116.97
  L 27.09 124.00
  Q 27.00 125.01 28.01 124.92
  Q 44.10 123.55 60.22 124.47
  A 0.55 0.54 5.0 0 0 60.80 123.99
  Q 61.31 120.17 61.85 116.32
  Q 61.90 115.94 61.80 115.72
  Q 61.67 115.45 61.41 115.23
  Q 64.96 112.77 66.14 111.64
  Q 81.92 96.67 96.87 80.91
  Q 97.78 79.95 96.67 79.23
  L 96.29 78.98
  A 0.97 0.97 0.0 0 0 95.07 79.12
  L 86.13 88.43
  Q 85.82 88.75 85.42 88.95
  Q 83.35 89.95 82.85 89.08
  C 88.88 80.34 88.06 67.59 79.94 60.64
  C 74.85 56.28 67.22 55.21 60.50 55.39
  Q 50.51 55.66 40.50 55.57
  Q 34.66 55.51 28.76 55.82
  Q 28.26 55.85 28.20 56.34
  L 27.25 63.34
  L 0.00 90.56
  L 0.00 71.94
  Q 0.42 73.34 1.48 71.64
  Q 1.89 70.97 2.30 70.57
  Q 35.12 37.93 67.58 4.94
  Q 68.12 4.39 70.13 2.81
  Q 71.92 1.39 72.06 0.00
  Z" fill="#060607"></path>
<path d="M 90.66 0.00
  L 93.41 0.00
  L 39.25 54.28
  Q 38.37 55.17 37.54 54.23
  L 37.37 54.03
  Q 36.85 53.44 37.41 52.88
  L 90.66 0.00
  Z" fill="#16171c"></path>
<path d="M 111.60 0.00
  L 114.25 0.00
  Q 113.69 1.45 112.17 2.77
  Q 109.77 4.84 109.60 5.01
  Q 88.44 26.46 67.23 47.86
  C 65.69 49.42 63.49 51.06 61.80 52.89
  C 61.00 53.75 59.93 54.09 58.88 53.74
  A 0.74 0.74 0.0 0 1 58.59 52.51
  L 111.60 0.00
  Z" fill="#16171c"></path>
<path d="M 132.70 0.00
  L 134.81 0.00
  Q 135.66 0.77 134.12 1.85
  Q 133.11 2.56 132.68 2.98
  Q 109.23 26.38 86.08 50.07
  Q 83.33 52.87 78.60 56.87
  Q 78.20 57.21 77.69 57.11
  Q 77.08 57.00 76.60 56.59
  A 0.67 0.66 43.6 0 1 76.57 55.61
  L 132.70 0.00
  Z" fill="#16171c"></path>
<path d="M 153.66 0.00
  L 155.46 0.00
  Q 156.00 0.20 156.24 0.37
  Q 156.52 0.57 156.11 0.93
  Q 151.39 5.06 146.99 9.49
  C 132.33 24.21 118.13 39.60 102.87 53.69
  A 1.90 1.89 -52.2 0 1 100.70 53.97
  Q 99.92 53.55 100.85 52.63
  Q 127.35 26.31 153.66 0.00
  Z" fill="#16171c"></path>
<path d="M 174.34 0.00
  L 176.74 0.00
  Q 176.76 0.21 177.32 0.41
  Q 177.83 0.60 177.46 1.00
  Q 177.33 1.14 177.04 1.21
  A 1.15 1.13 -73.2 0 0 176.47 1.52
  Q 154.57 22.72 133.42 44.67
  Q 130.42 47.78 125.40 52.01
  C 124.38 52.87 123.89 54.29 122.02 53.74
  A 0.77 0.77 0.0 0 1 121.70 52.45
  L 174.34 0.00
  Z" fill="#16171c"></path>
<path d="M 180.00 16.21
  L 180.00 18.24
  C 179.68 18.80 179.60 19.32 179.13 19.78
  C 166.98 31.87 155.14 44.51 142.51 56.09
  Q 141.73 56.81 141.06 56.79
  Q 140.28 56.77 139.83 56.03
  Q 139.60 55.65 139.91 55.34
  Q 157.76 37.61 175.58 19.84
  Q 176.03 19.39 177.43 17.68
  Q 178.91 15.87 180.00 16.21
  Z" fill="#16171c"></path>
<path d="M 180.00 37.01
  L 180.00 39.70
  L 151.81 67.81
  Q 151.13 68.49 150.83 67.58
  L 150.56 66.79
  Q 150.35 66.14 150.83 65.66
  Q 163.07 53.19 175.70 40.74
  Q 176.14 40.31 177.52 38.57
  Q 178.77 36.99 180.00 37.01
  Z" fill="#16171c"></path>
<path d="M 82.85 89.08
  Q 79.64 93.62 74.73 96.94
  C 67.72 101.59 60.83 100.93 52.87 101.04
  Q 52.39 101.05 52.36 101.53
  Q 52.12 106.15 52.29 110.75
  C 52.49 116.14 57.01 116.03 61.05 115.20
  Q 61.27 115.30 61.41 115.23
  Q 61.67 115.45 61.80 115.72
  Q 61.90 115.94 61.85 116.32
  Q 61.31 120.17 60.80 123.99
  A 0.55 0.54 5.0 0 1 60.22 124.47
  Q 44.10 123.55 28.01 124.92
  Q 27.00 125.01 27.09 124.00
  L 27.68 116.97
  Q 27.76 115.98 28.74 115.86
  C 35.62 115.01 35.00 108.16 34.74 103.16
  L 34.75 96.53
  Q 34.93 81.90 34.69 67.25
  C 34.63 63.65 31.07 63.81 28.71 64.49
  Q 27.66 64.73 27.25 63.34
  L 28.20 56.34
  Q 28.26 55.85 28.76 55.82
  Q 34.66 55.51 40.50 55.57
  Q 50.51 55.66 60.50 55.39
  C 67.22 55.21 74.85 56.28 79.94 60.64
  C 88.06 67.59 88.88 80.34 82.85 89.08
  Z
  M 53.45 68.08
  L 52.48 88.66
  A 1.54 1.54 0.0 0 0 53.95 90.27
  L 57.68 90.44
  A 10.15 10.08 -87.3 0 0 68.23 80.78
  L 68.39 77.40
  A 10.15 10.08 -87.3 0 0 58.80 66.79
  L 55.06 66.61
  A 1.54 1.54 0.0 0 0 53.45 68.08
  Z" fill="#f0f0f3"></path>
<path d="M 156.63 119.29
  L 156.02 124.01
  Q 155.95 124.53 155.42 124.57
  L 152.76 124.75
  C 142.65 125.45 135.31 128.19 129.97 116.78
  Q 125.92 108.12 121.91 99.11
  A 1.04 1.04 0.0 0 0 120.77 98.50
  Q 118.49 98.90 116.22 98.47
  Q 115.58 98.35 115.56 99.00
  Q 115.38 104.69 115.50 110.26
  Q 115.63 116.00 122.32 115.53
  A 1.04 1.04 0.0 0 1 123.42 116.71
  L 122.46 123.48
  Q 122.31 124.55 121.23 124.49
  Q 106.21 123.62 91.23 124.72
  Q 89.96 124.81 90.11 123.55
  L 90.88 116.98
  Q 91.02 115.80 92.21 115.67
  Q 98.02 115.04 98.10 107.50
  Q 98.31 87.62 98.15 67.75
  C 98.12 63.14 94.42 64.38 91.37 64.29
  Q 90.54 64.27 90.65 63.45
  L 91.61 56.34
  Q 91.72 55.51 92.55 55.54
  Q 105.94 55.93 124.25 55.32
  C 136.61 54.91 150.03 59.32 150.28 73.99
  C 150.43 82.96 144.93 89.73 137.51 93.98
  A 0.50 0.49 -30.3 0 0 137.33 94.65
  Q 141.68 102.11 146.51 109.48
  Q 149.91 114.65 155.10 116.13
  Q 156.36 116.49 156.63 117.16
  Q 156.99 118.02 156.63 119.29
  Z
  M 116.74 68.00
  L 115.78 85.80
  A 1.71 1.71 0.0 0 0 117.39 87.60
  L 121.13 87.80
  A 10.05 9.75 3.1 0 0 131.69 78.61
  L 131.79 76.87
  A 10.05 9.75 3.1 0 0 122.28 66.59
  L 118.54 66.39
  A 1.71 1.71 0.0 0 0 116.74 68.00
  Z" fill="#f0f0f3"></path>
<path d="M 180.00 58.57
  L 180.00 60.23
  C 179.69 60.86 179.61 61.26 179.11 61.77
  Q 160.93 80.20 142.57 98.44
  Q 142.28 98.73 141.87 98.68
  Q 140.93 98.59 140.26 97.93
  Q 139.77 97.45 140.26 96.98
  Q 140.44 96.81 140.37 96.42
  Q 140.29 95.90 140.81 95.84
  Q 141.10 95.81 141.28 96.01
  A 0.21 0.21 0.0 0 0 141.59 96.02
  Q 159.09 77.91 177.13 60.34
  Q 177.65 59.83 178.20 59.03
  Q 179.71 56.80 180.00 58.57
  Z" fill="#16171c"></path>
<path d="M 27.25 63.34
  Q 27.66 64.73 28.71 64.49
  Q 27.89 64.84 27.74 65.88
  Q 27.67 66.35 27.33 66.69
  Q 14.72 79.34 1.93 91.82
  C 1.49 92.25 1.34 92.79 1.04 93.31
  Q 0.63 93.99 0.32 93.26
  L 0.00 92.48
  L 0.00 90.56
  L 27.25 63.34
  Z" fill="#16171c"></path>
<path d="M 34.75 96.53
  L 34.43 98.32
  Q 34.36 98.71 33.97 98.80
  Q 33.26 98.95 32.61 99.61
  Q 16.10 116.10 0.00 132.69
  L 0.00 114.16
  Q 0.47 115.27 1.48 113.70
  Q 1.93 113.00 2.35 112.59
  Q 18.10 97.06 33.58 81.40
  Q 34.36 80.61 33.74 79.70
  L 33.27 78.99
  Q 32.84 78.36 32.30 78.90
  L 0.00 111.29
  L 0.00 92.48
  L 0.32 93.26
  Q 0.63 93.99 1.04 93.31
  C 1.34 92.79 1.49 92.25 1.93 91.82
  Q 14.72 79.34 27.33 66.69
  Q 27.67 66.35 27.74 65.88
  Q 27.89 64.84 28.71 64.49
  C 31.07 63.81 34.63 63.65 34.69 67.25
  Q 34.93 81.90 34.75 96.53
  Z" fill="#060607"></path>
<path d="M 53.45 68.08
  A 1.54 1.54 0.0 0 1 55.06 66.61
  L 58.80 66.79
  A 10.15 10.08 -87.3 0 1 68.39 77.40
  L 68.23 80.78
  A 10.15 10.08 -87.3 0 1 57.68 90.44
  L 53.95 90.27
  A 1.54 1.54 0.0 0 1 52.48 88.66
  L 53.45 68.08
  Z" fill="#060607"></path>
<path d="M 116.74 68.00
  A 1.71 1.71 0.0 0 1 118.54 66.39
  L 122.28 66.59
  A 10.05 9.75 3.1 0 1 131.79 76.87
  L 131.69 78.61
  A 10.05 9.75 3.1 0 1 121.13 87.80
  L 117.39 87.60
  A 1.71 1.71 0.0 0 1 115.78 85.80
  L 116.74 68.00
  Z" fill="#060607"></path>
<path d="M 0.00 114.16
  L 0.00 111.29
  L 32.30 78.90
  Q 32.84 78.36 33.27 78.99
  L 33.74 79.70
  Q 34.36 80.61 33.58 81.40
  Q 18.10 97.06 2.35 112.59
  Q 1.93 113.00 1.48 113.70
  Q 0.47 115.27 0.00 114.16
  Z" fill="#16171c"></path>
<path d="M 180.00 79.64
  L 180.00 81.70
  L 150.69 110.87
  Q 150.13 111.43 149.71 110.75
  L 149.26 110.01
  A 0.85 0.84 51.8 0 1 149.38 108.97
  L 179.11 79.08
  Q 179.53 78.65 179.79 79.20
  L 180.00 79.64
  Z" fill="#16171c"></path>
<path d="M 61.41 115.23
  Q 61.27 115.30 61.05 115.20
  C 61.21 113.91 61.45 112.86 62.43 111.87
  Q 68.54 105.75 74.75 99.75
  Q 76.11 98.43 74.73 96.94
  Q 79.64 93.62 82.85 89.08
  Q 83.35 89.95 85.42 88.95
  Q 85.82 88.75 86.13 88.43
  L 95.07 79.12
  A 0.97 0.97 0.0 0 1 96.29 78.98
  L 96.67 79.23
  Q 97.78 79.95 96.87 80.91
  Q 81.92 96.67 66.14 111.64
  Q 64.96 112.77 61.41 115.23
  Z" fill="#16171c"></path>
<path d="M 34.75 96.53
  L 34.74 103.16
  L 32.95 103.41
  Q 32.47 103.47 32.13 103.82
  Q 18.33 117.70 4.33 131.37
  Q 3.85 131.84 2.51 133.44
  Q 0.96 135.28 0.00 134.79
  L 0.00 132.69
  Q 16.10 116.10 32.61 99.61
  Q 33.26 98.95 33.97 98.80
  Q 34.36 98.71 34.43 98.32
  L 34.75 96.53
  Z" fill="#16171c"></path>
<path d="M 74.73 96.94
  Q 76.11 98.43 74.75 99.75
  Q 68.54 105.75 62.43 111.87
  C 61.45 112.86 61.21 113.91 61.05 115.20
  C 57.01 116.03 52.49 116.14 52.29 110.75
  Q 52.12 106.15 52.36 101.53
  Q 52.39 101.05 52.87 101.04
  C 60.83 100.93 67.72 101.59 74.73 96.94
  Z" fill="#060607"></path>
<path d="M 17.97 180.00
  L 16.81 180.00
  Q 14.58 179.89 17.34 177.81
  Q 18.34 177.06 18.93 176.47
  Q 57.04 138.41 95.09 100.05
  Q 96.05 99.09 96.46 100.38
  L 96.59 100.80
  Q 97.01 102.10 96.04 103.05
  Q 57.80 140.97 19.99 178.93
  C 19.36 179.56 18.78 179.74 17.97 180.00
  Z" fill="#16171c"></path>
<path d="M 180.00 100.65
  L 180.00 102.91
  Q 169.87 112.88 159.78 123.25
  C 158.88 124.18 157.80 124.58 156.67 125.16
  Q 156.22 125.39 156.20 125.89
  Q 156.16 126.98 155.31 127.80
  Q 133.09 149.50 103.85 179.10
  Q 103.37 179.59 102.11 180.00
  L 100.69 180.00
  Q 98.73 179.78 101.15 177.98
  Q 102.07 177.30 102.62 176.76
  Q 121.60 157.92 140.36 138.86
  Q 146.24 132.89 152.39 127.20
  C 153.20 126.45 153.28 125.67 152.76 124.75
  L 155.42 124.57
  Q 155.95 124.53 156.02 124.01
  L 156.63 119.29
  L 159.16 119.58
  Q 159.69 119.64 160.07 119.27
  Q 169.87 109.72 179.25 99.77
  Q 179.57 99.43 180.00 100.65
  Z" fill="#16171c"></path>
<path d="M 180.00 102.91
  L 180.00 121.64
  L 179.76 121.15
  Q 179.53 120.68 179.16 121.05
  Q 151.55 149.12 123.58 176.83
  Q 122.39 178.01 120.97 179.02
  Q 120.51 179.35 121.00 179.64
  Q 121.43 179.89 122.16 180.00
  L 102.11 180.00
  Q 103.37 179.59 103.85 179.10
  Q 133.09 149.50 155.31 127.80
  Q 156.16 126.98 156.20 125.89
  Q 156.22 125.39 156.67 125.16
  C 157.80 124.58 158.88 124.18 159.78 123.25
  Q 169.87 112.88 180.00 102.91
  Z" fill="#060607"></path>
<path d="M 180.00 121.64
  L 180.00 123.86
  Q 152.54 151.08 125.01 178.84
  C 124.35 179.51 123.57 179.74 122.71 180.00
  L 122.16 180.00
  Q 121.43 179.89 121.00 179.64
  Q 120.51 179.35 120.97 179.02
  Q 122.39 178.01 123.58 176.83
  Q 151.55 149.12 179.16 121.05
  Q 179.53 120.68 179.76 121.15
  L 180.00 121.64
  Z" fill="#16171c"></path>
<path d="M 180.00 123.86
  L 180.00 162.53
  L 162.95 179.06
  Q 162.61 179.40 163.00 179.69
  Q 163.25 179.87 163.70 180.00
  L 143.91 180.00
  C 144.64 179.71 145.18 179.57 145.75 178.99
  Q 162.52 162.02 179.33 145.39
  A 1.68 1.67 67.2 0 0 179.82 144.18
  L 179.79 142.45
  Q 179.77 141.71 179.25 142.24
  Q 162.00 159.77 144.26 177.29
  Q 143.70 177.84 141.98 179.04
  Q 141.50 179.38 142.01 179.67
  Q 142.41 179.90 143.16 180.00
  L 122.71 180.00
  C 123.57 179.74 124.35 179.51 125.01 178.84
  Q 152.54 151.08 180.00 123.86
  Z" fill="#060607"></path>
<path d="M 80.64 180.00
  L 80.16 180.00
  L 79.15 179.70
  Q 78.53 179.52 79.02 179.10
  C 79.86 178.38 80.87 177.73 81.61 176.98
  Q 107.61 150.97 133.11 125.05
  Q 134.05 124.09 135.09 124.94
  L 135.37 125.18
  A 0.97 0.96 42.3 0 1 135.44 126.61
  Q 109.04 152.53 82.72 178.97
  Q 82.17 179.53 80.64 180.00
  Z" fill="#16171c"></path>
<path d="M 0.00 176.70
  L 0.00 175.20
  L 0.36 174.31
  Q 0.54 173.85 0.90 173.50
  C 15.82 158.81 30.20 143.29 45.50 129.04
  C 46.39 128.21 47.59 126.34 49.24 126.10
  Q 50.25 125.95 50.60 126.78
  Q 50.79 127.21 50.45 127.55
  Q 28.22 149.52 6.10 171.60
  Q 3.36 174.34 0.88 177.31
  Q 0.47 177.80 0.22 177.22
  L 0.00 176.70
  Z" fill="#16171c"></path>
<path d="M 38.65 180.00
  L 38.07 180.00
  Q 35.37 179.95 38.55 177.74
  Q 39.51 177.07 40.16 176.43
  Q 65.15 151.44 89.59 126.76
  Q 90.51 125.83 91.71 126.34
  L 91.95 126.44
  Q 93.04 126.91 92.19 127.74
  Q 66.42 153.10 41.01 178.79
  C 40.31 179.50 39.57 179.71 38.65 180.00
  Z" fill="#16171c"></path>
<path d="M 59.73 180.00
  L 58.72 180.00
  L 57.95 179.73
  Q 57.32 179.50 57.88 179.12
  Q 59.68 177.90 61.17 176.41
  Q 83.85 153.71 110.87 126.56
  Q 111.34 126.09 111.96 126.34
  L 113.28 126.88
  Q 113.90 127.13 113.42 127.60
  Q 87.42 153.12 61.61 179.11
  Q 61.07 179.65 59.73 180.00
  Z" fill="#16171c"></path>
<path d="M 0.00 155.65
  L 0.00 154.16
  C 0.31 153.55 0.45 153.02 0.95 152.53
  Q 13.95 139.51 26.65 126.75
  Q 27.24 126.16 28.01 126.46
  L 29.01 126.84
  Q 29.79 127.14 29.20 127.73
  Q 16.28 140.57 3.64 153.05
  Q 2.98 153.70 2.20 154.75
  Q 0.30 157.30 0.00 155.65
  Z" fill="#16171c"></path>
<path d="M 143.91 180.00
  L 143.16 180.00
  Q 142.41 179.90 142.01 179.67
  Q 141.50 179.38 141.98 179.04
  Q 143.70 177.84 144.26 177.29
  Q 162.00 159.77 179.25 142.24
  Q 179.77 141.71 179.79 142.45
  L 179.82 144.18
  A 1.68 1.67 67.2 0 1 179.33 145.39
  Q 162.52 162.02 145.75 178.99
  C 145.18 179.57 144.64 179.71 143.91 180.00
  Z" fill="#16171c"></path>
<path d="M 180.00 162.53
  L 180.00 165.61
  Q 173.73 172.32 166.96 178.79
  C 166.32 179.41 165.50 179.69 164.70 180.00
  L 163.70 180.00
  Q 163.25 179.87 163.00 179.69
  Q 162.61 179.40 162.95 179.06
  L 180.00 162.53
  Z" fill="#16171c"></path>
<path d="M 180.00 165.61
  L 180.00 180.00
  L 164.70 180.00
  C 165.50 179.69 166.32 179.41 166.96 178.79
  Q 173.73 172.32 180.00 165.61
  Z" fill="#060607"></path>
</svg>
