<svg viewBox="0.00 0.00 192.00 192.00" version="1.1" xmlns="http://www.w3.org/2000/svg">
<g stroke-linecap="butt" fill="none" stroke-width="2.00">
<path d="M 136.96 67.62
  A 40.97 40.97 0.0 0 0 95.99 26.65
  A 40.97 40.97 0.0 0 0 55.02 67.62
  A 40.97 40.97 0.0 0 0 95.99 108.59
  A 40.97 40.97 0.0 0 0 136.96 67.62" stroke="#7f8f9f"></path>
<path d="M 153.2291 117.1324
  A 0.83 0.83 0.0 0 0 153.2291 115.9586
  L 133.1614 95.8909
  A 0.83 0.83 0.0 0 0 131.9876 95.8909
  L 124.3509 103.5276
  A 0.83 0.83 0.0 0 0 124.3509 104.7014
  L 144.4186 124.7691
  A 0.83 0.83 0.0 0 0 145.5924 124.7691
  L 153.2291 117.1324" stroke="#7f8f9f"></path>
<path d="M 156.13 119.23
  L 147.76 127.66
  A 0.14 0.14 0.0 0 0 147.76 127.86
  L 147.82 127.92
  A 5.97 5.71 -45.2 0 0 156.08 127.71
  L 156.23 127.55
  A 5.97 5.71 -45.2 0 0 156.39 119.30
  L 156.33 119.23
  A 0.14 0.14 0.0 0 0 156.13 119.23" stroke="#7f8f9f"></path>
<path d="M 126.90 67.61
  A 30.91 30.91 0.0 0 0 95.99 36.70
  A 30.91 30.91 0.0 0 0 65.08 67.61
  A 30.91 30.91 0.0 0 0 95.99 98.52
  A 30.91 30.91 0.0 0 0 126.90 67.61" stroke="#7f8f9f"></path>
</g>
<path d="M 92.83 0.00
  L 99.31 0.00
  C 153.25 3.45 181.89 63.33 150.64 107.44
  Q 150.32 107.89 150.70 108.29
  C 155.19 113.07 163.09 118.12 161.47 125.49
  C 159.93 132.49 150.75 135.80 145.56 130.93
  Q 142.46 128.02 139.51 124.99
  A 0.33 0.33 0.0 0 0 139.00 125.04
  L 96.26 191.28
  Q 95.88 191.88 95.49 191.28
  Q 69.99 151.80 44.49 112.19
  Q 44.46 112.14 40.27 105.97
  C 10.03 61.44 40.13 3.64 92.83 0.00
  Z
  M 136.96 67.62
  A 40.97 40.97 0.0 0 0 95.99 26.65
  A 40.97 40.97 0.0 0 0 55.02 67.62
  A 40.97 40.97 0.0 0 0 95.99 108.59
  A 40.97 40.97 0.0 0 0 136.96 67.62
  Z
  M 153.2291 117.1324
  A 0.83 0.83 0.0 0 0 153.2291 115.9586
  L 133.1614 95.8909
  A 0.83 0.83 0.0 0 0 131.9876 95.8909
  L 124.3509 103.5276
  A 0.83 0.83 0.0 0 0 124.3509 104.7014
  L 144.4186 124.7691
  A 0.83 0.83 0.0 0 0 145.5924 124.7691
  L 153.2291 117.1324
  Z
  M 156.13 119.23
  L 147.76 127.66
  A 0.14 0.14 0.0 0 0 147.76 127.86
  L 147.82 127.92
  A 5.97 5.71 -45.2 0 0 156.08 127.71
  L 156.23 127.55
  A 5.97 5.71 -45.2 0 0 156.39 119.30
  L 156.33 119.23
  A 0.14 0.14 0.0 0 0 156.13 119.23
  Z" fill="#001f3f"></path>
<path d="M 136.96 67.62
  A 40.97 40.97 0.0 0 1 95.99 108.59
  A 40.97 40.97 0.0 0 1 55.02 67.62
  A 40.97 40.97 0.0 0 1 95.99 26.65
  A 40.97 40.97 0.0 0 1 136.96 67.62
  Z
  M 126.90 67.61
  A 30.91 30.91 0.0 0 0 95.99 36.70
  A 30.91 30.91 0.0 0 0 65.08 67.61
  A 30.91 30.91 0.0 0 0 95.99 98.52
  A 30.91 30.91 0.0 0 0 126.90 67.61
  Z" fill="#fefefe"></path>
<circle r="30.91" cy="67.61" cx="95.99" fill="#001f3f"></circle>
<rect rx="0.83" height="12.46" width="30.04" transform="translate(138.79,110.33) rotate(45.0)" y="-6.23" x="-15.02" fill="#fefefe"></rect>
<path d="M 156.13 119.23
  A 0.14 0.14 0.0 0 1 156.33 119.23
  L 156.39 119.30
  A 5.97 5.71 -45.2 0 1 156.23 127.55
  L 156.08 127.71
  A 5.97 5.71 -45.2 0 1 147.82 127.92
  L 147.76 127.86
  A 0.14 0.14 0.0 0 1 147.76 127.66
  L 156.13 119.23
  Z" fill="#fefefe"></path>
</svg>
