<svg viewBox="0.00 0.00 192.00 192.00" version="1.1" xmlns="http://www.w3.org/2000/svg">
<g stroke-linecap="butt" fill="none" stroke-width="2.00">
<path d="M 145.46 6.84
  A 0.36 0.36 0.0 0 0 145.10 6.48
  L 46.84 6.48
  A 0.36 0.36 0.0 0 0 46.48 6.84
  L 46.48 26.64
  A 0.36 0.36 0.0 0 0 46.84 27.00
  L 145.10 27.00
  A 0.36 0.36 0.0 0 0 145.46 26.64
  L 145.46 6.84" stroke="#8d3d5e"></path>
<path d="M 145.43 33.40
  A 0.36 0.36 0.0 0 0 145.07 33.04
  L 46.85 33.04
  A 0.36 0.36 0.0 0 0 46.49 33.40
  L 46.49 39.28
  A 0.36 0.36 0.0 0 0 46.85 39.64
  L 145.07 39.64
  A 0.36 0.36 0.0 0 0 145.43 39.28
  L 145.43 33.40" stroke="#95989d"></path>
<path d="M 46.51 123.66
  L 46.51 143.72
  A 0.17 0.17 0.0 0 0 46.77 143.87
  L 71.72 129.69
  A 0.60 0.59 -14.5 0 0 72.03 129.17
  L 72.02 108.92" stroke="#91632e"></path>
<path d="M 72.02 108.92
  L 71.99 46.19
  Q 71.99 45.67 71.47 45.67
  L 47.02 45.63
  Q 46.50 45.63 46.50 46.15
  L 46.51 123.66" stroke="#928632"></path>
<path d="M 72.02 108.92
  L 46.51 123.66" stroke="#f8b826"></path>
<path d="M 78.06 105.55
  L 78.07 129.28
  A 0.83 0.82 15.4 0 0 78.48 129.99
  L 95.73 139.96
  Q 96.22 140.24 96.70 139.96
  L 113.36 130.09
  A 1.17 1.17 0.0 0 0 113.94 129.08
  L 113.94 84.72" stroke="#407b82"></path>
<path d="M 113.94 84.72
  L 113.95 46.12
  A 0.46 0.46 0.0 0 0 113.49 45.66
  L 78.28 45.66
  Q 78.05 45.66 78.05 45.90
  L 78.06 105.55" stroke="#487a69"></path>
<path d="M 113.94 84.72
  L 78.06 105.55" stroke="#5dc4b0"></path>
<path d="M 119.95 80.85
  L 119.98 129.01
  A 0.90 0.89 15.3 0 0 120.42 129.78
  L 145.00 143.98
  A 0.27 0.27 0.0 0 0 145.40 143.75
  L 145.41 66.65" stroke="#4c4b74"></path>
<path d="M 145.41 66.65
  L 145.42 46.11
  Q 145.42 45.67 144.98 45.67
  L 120.51 45.67
  A 0.52 0.51 -90.0 0 0 120.00 46.19
  L 119.95 80.85" stroke="#465d80"></path>
<path d="M 145.41 66.65
  L 119.95 80.85" stroke="#6677ba"></path>
<path d="M 46.75 150.80
  A 0.53 0.52 75.5 0 0 46.48 151.26
  L 46.49 156.04
  Q 46.49 156.54 46.93 156.79
  L 66.30 167.95
  A 3.00 2.87 59.0 0 0 67.77 168.35
  L 124.48 168.34
  A 2.10 2.10 0.0 0 0 125.51 168.07
  L 144.91 156.87
  Q 145.41 156.59 145.42 156.01
  L 145.44 151.76
  Q 145.44 151.18 144.94 150.89
  L 117.59 135.09
  Q 117.15 134.83 116.71 135.09
  L 97.94 146.19
  A 3.38 3.35 44.6 0 1 94.54 146.20
  L 75.28 135.08
  Q 74.83 134.82 74.38 135.07
  L 46.75 150.80" stroke="#95989d"></path>
</g>
<path d="M 98.68 190.33
  C 96.91 191.34 96.40 192.30 94.14 191.00
  Q 68.90 176.42 43.71 161.74
  Q 42.39 160.97 41.50 160.47
  A 1.96 1.94 14.7 0 1 40.50 158.77
  L 40.51 3.33
  A 2.92 2.92 0.0 0 1 43.43 0.41
  L 148.53 0.40
  A 2.89 2.88 0.0 0 1 151.42 3.28
  L 151.40 159.06
  A 1.75 1.74 75.3 0 1 150.52 160.58
  Q 124.85 175.40 98.68 190.33
  Z
  M 145.46 6.84
  A 0.36 0.36 0.0 0 0 145.10 6.48
  L 46.84 6.48
  A 0.36 0.36 0.0 0 0 46.48 6.84
  L 46.48 26.64
  A 0.36 0.36 0.0 0 0 46.84 27.00
  L 145.10 27.00
  A 0.36 0.36 0.0 0 0 145.46 26.64
  L 145.46 6.84
  Z
  M 145.43 33.40
  A 0.36 0.36 0.0 0 0 145.07 33.04
  L 46.85 33.04
  A 0.36 0.36 0.0 0 0 46.49 33.40
  L 46.49 39.28
  A 0.36 0.36 0.0 0 0 46.85 39.64
  L 145.07 39.64
  A 0.36 0.36 0.0 0 0 145.43 39.28
  L 145.43 33.40
  Z
  M 46.51 123.66
  L 46.51 143.72
  A 0.17 0.17 0.0 0 0 46.77 143.87
  L 71.72 129.69
  A 0.60 0.59 -14.5 0 0 72.03 129.17
  L 72.02 108.92
  L 71.99 46.19
  Q 71.99 45.67 71.47 45.67
  L 47.02 45.63
  Q 46.50 45.63 46.50 46.15
  L 46.51 123.66
  Z
  M 78.06 105.55
  L 78.07 129.28
  A 0.83 0.82 15.4 0 0 78.48 129.99
  L 95.73 139.96
  Q 96.22 140.24 96.70 139.96
  L 113.36 130.09
  A 1.17 1.17 0.0 0 0 113.94 129.08
  L 113.94 84.72
  L 113.95 46.12
  A 0.46 0.46 0.0 0 0 113.49 45.66
  L 78.28 45.66
  Q 78.05 45.66 78.05 45.90
  L 78.06 105.55
  Z
  M 119.95 80.85
  L 119.98 129.01
  A 0.90 0.89 15.3 0 0 120.42 129.78
  L 145.00 143.98
  A 0.27 0.27 0.0 0 0 145.40 143.75
  L 145.41 66.65
  L 145.42 46.11
  Q 145.42 45.67 144.98 45.67
  L 120.51 45.67
  A 0.52 0.51 -90.0 0 0 120.00 46.19
  L 119.95 80.85
  Z
  M 46.75 150.80
  A 0.53 0.52 75.5 0 0 46.48 151.26
  L 46.49 156.04
  Q 46.49 156.54 46.93 156.79
  L 66.30 167.95
  A 3.00 2.87 59.0 0 0 67.77 168.35
  L 124.48 168.34
  A 2.10 2.10 0.0 0 0 125.51 168.07
  L 144.91 156.87
  Q 145.41 156.59 145.42 156.01
  L 145.44 151.76
  Q 145.44 151.18 144.94 150.89
  L 117.59 135.09
  Q 117.15 134.83 116.71 135.09
  L 97.94 146.19
  A 3.38 3.35 44.6 0 1 94.54 146.20
  L 75.28 135.08
  Q 74.83 134.82 74.38 135.07
  L 46.75 150.80
  Z" fill="#2b313a"></path>
<rect rx="0.36" height="20.52" width="98.98" y="6.48" x="46.48" fill="#ef4882"></rect>
<rect rx="0.36" height="6.60" width="98.94" y="33.04" x="46.49" fill="#ffffff"></rect>
<path d="M 72.02 108.92
  L 46.51 123.66
  L 46.50 46.15
  Q 46.50 45.63 47.02 45.63
  L 71.47 45.67
  Q 71.99 45.67 71.99 46.19
  L 72.02 108.92
  Z" fill="#f8db29"></path>
<path d="M 113.94 84.72
  L 78.06 105.55
  L 78.05 45.90
  Q 78.05 45.66 78.28 45.66
  L 113.49 45.66
  A 0.46 0.46 0.0 0 1 113.95 46.12
  L 113.94 84.72
  Z" fill="#64c297"></path>
<path d="M 145.41 66.65
  L 119.95 80.85
  L 120.00 46.19
  A 0.52 0.51 -90.0 0 1 120.51 45.67
  L 144.98 45.67
  Q 145.42 45.67 145.42 46.11
  L 145.41 66.65
  Z" fill="#6088c6"></path>
<path d="M 145.41 66.65
  L 145.40 143.75
  A 0.27 0.27 0.0 0 1 145.00 143.98
  L 120.42 129.78
  A 0.90 0.89 15.3 0 1 119.98 129.01
  L 119.95 80.85
  L 145.41 66.65
  Z" fill="#6c65ad"></path>
<path d="M 113.94 84.72
  L 113.94 129.08
  A 1.17 1.17 0.0 0 1 113.36 130.09
  L 96.70 139.96
  Q 96.22 140.24 95.73 139.96
  L 78.48 129.99
  A 0.83 0.82 15.4 0 1 78.07 129.28
  L 78.06 105.55
  L 113.94 84.72
  Z" fill="#55c5c9"></path>
<path d="M 72.02 108.92
  L 72.03 129.17
  A 0.60 0.59 -14.5 0 1 71.72 129.69
  L 46.77 143.87
  A 0.17 0.17 0.0 0 1 46.51 143.72
  L 46.51 123.66
  L 72.02 108.92
  Z" fill="#f79522"></path>
<path d="M 46.75 150.80
  L 74.38 135.07
  Q 74.83 134.82 75.28 135.08
  L 94.54 146.20
  A 3.38 3.35 44.6 0 0 97.94 146.19
  L 116.71 135.09
  Q 117.15 134.83 117.59 135.09
  L 144.94 150.89
  Q 145.44 151.18 145.44 151.76
  L 145.42 156.01
  Q 145.41 156.59 144.91 156.87
  L 125.51 168.07
  A 2.10 2.10 0.0 0 1 124.48 168.34
  L 67.77 168.35
  A 3.00 2.87 59.0 0 1 66.30 167.95
  L 46.93 156.79
  Q 46.49 156.54 46.49 156.04
  L 46.48 151.26
  A 0.53 0.52 75.5 0 1 46.75 150.80
  Z" fill="#ffffff"></path>
</svg>
