<svg viewBox="0.00 0.00 32.00 32.00" version="1.1" xmlns="http://www.w3.org/2000/svg">
<g stroke-linecap="butt" fill="none" stroke-width="2.00">
<path d="M 19.54 30.62
  L 22.00 28.81
  A 1.15 1.14 64.6 0 0 22.43 27.59
  Q 20.98 22.16 18.96 16.91
  Q 18.94 16.87 18.91 16.87
  L 18.54 16.87
  Q 18.30 16.87 18.35 17.10
  Q 18.42 17.38 18.34 17.59
  Q 18.17 18.04 17.68 18.03
  Q 17.14 18.01 16.74 17.71
  Q 15.90 17.08 16.16 18.10
  L 16.81 20.65" stroke-opacity="0.996" stroke="#6876c7"></path>
<path d="M 9.59 23.03
  L 14.51 18.14
  Q 15.73 16.93 14.01 17.02
  L 11.77 17.13" stroke-opacity="0.996" stroke="#6876c7"></path>
<path d="M 1.28 15.53
  C 2.05 12.45 4.14 11.46 2.29 8.20" stroke-opacity="0.996" stroke="#6876c7"></path>
<path d="M 13.80 10.25
  Q 15.55 11.12 17.04 10.88" stroke-opacity="0.996" stroke="#6876c7"></path>
<path d="M 17.04 10.88
  L 18.15 10.38" stroke="#5b219e"></path>
<path d="M 18.15 10.38
  Q 18.58 12.07 21.11 9.83
  Q 24.20 7.09 27.23 4.11
  Q 27.60 3.74 27.58 3.22
  Q 27.52 1.74 25.67 0.67" stroke-opacity="0.996" stroke="#6876c7"></path>
<path d="M 18.15 10.38
  Q 19.31 9.13 19.59 7.80" stroke="#615da4"></path>
<path d="M 17.04 10.88
  L 14.40 1.70" stroke="#615da4"></path>
</g>
<path d="M 32.00 4.40
  L 32.00 5.10
  Q 29.42 8.80 25.55 11.81
  A 0.53 0.53 0.0 0 0 25.80 12.75
  C 28.04 13.07 31.64 13.49 30.69 16.89
  A 2.41 2.40 10.2 0 1 28.15 18.65
  L 23.74 18.24
  A 0.36 0.36 0.0 0 0 23.37 18.73
  L 26.68 27.77
  A 2.03 2.02 62.5 0 1 25.94 30.13
  Q 21.92 32.94 19.54 30.62
  L 22.00 28.81
  A 1.15 1.14 64.6 0 0 22.43 27.59
  Q 20.98 22.16 18.96 16.91
  Q 18.94 16.87 18.91 16.87
  L 18.54 16.87
  Q 18.30 16.87 18.35 17.10
  Q 18.42 17.38 18.34 17.59
  Q 18.17 18.04 17.68 18.03
  Q 17.14 18.01 16.74 17.71
  Q 15.90 17.08 16.16 18.10
  L 16.81 20.65
  C 15.02 21.93 12.32 26.04 9.59 23.03
  L 14.51 18.14
  Q 15.73 16.93 14.01 17.02
  L 11.77 17.13
  L 1.28 15.53
  C 2.05 12.45 4.14 11.46 2.29 8.20
  L 13.80 10.25
  Q 15.55 11.12 17.04 10.88
  L 18.15 10.38
  Q 18.58 12.07 21.11 9.83
  Q 24.20 7.09 27.23 4.11
  Q 27.60 3.74 27.58 3.22
  Q 27.52 1.74 25.67 0.67
  C 28.49 -0.90 31.23 1.91 32.00 4.40
  Z" fill-opacity="0.996" fill="#6239c1"></path>
<path d="M 25.67 0.67
  Q 27.52 1.74 27.58 3.22
  Q 27.60 3.74 27.23 4.11
  Q 24.20 7.09 21.11 9.83
  Q 18.58 12.07 18.15 10.38
  Q 19.31 9.13 19.59 7.80
  L 25.67 0.67
  Z" fill-opacity="0.996" fill="#6eb2cc"></path>
<path d="M 19.59 7.80
  Q 19.31 9.13 18.15 10.38
  L 17.04 10.88
  L 14.40 1.70
  C 17.63 0.98 18.53 5.59 19.59 7.80
  Z" fill="#55097c"></path>
<path d="M 14.40 1.70
  L 17.04 10.88
  Q 15.55 11.12 13.80 10.25
  C 12.85 7.41 10.90 2.83 14.40 1.70
  Z" fill-opacity="0.996" fill="#6eb2cc"></path>
<path d="M 2.29 8.20
  C 4.14 11.46 2.05 12.45 1.28 15.53
  Q -1.39 11.81 2.29 8.20
  Z" fill-opacity="0.996" fill="#6eb2cc"></path>
<path d="M 19.54 30.62
  L 16.81 20.65
  L 16.16 18.10
  Q 15.90 17.08 16.74 17.71
  Q 17.14 18.01 17.68 18.03
  Q 18.17 18.04 18.34 17.59
  Q 18.42 17.38 18.35 17.10
  Q 18.30 16.87 18.54 16.87
  L 18.91 16.87
  Q 18.94 16.87 18.96 16.91
  Q 20.98 22.16 22.43 27.59
  A 1.15 1.14 64.6 0 1 22.00 28.81
  L 19.54 30.62
  Z" fill-opacity="0.996" fill="#6eb2cc"></path>
<path d="M 9.59 23.03
  C 8.14 20.89 10.43 18.79 11.77 17.13
  L 14.01 17.02
  Q 15.73 16.93 14.51 18.14
  L 9.59 23.03
  Z" fill-opacity="0.996" fill="#6eb2cc"></path>
</svg>
