<svg viewBox="0.00 0.00 128.00 128.00" version="1.1" xmlns="http://www.w3.org/2000/svg">
<g stroke-linecap="butt" fill="none" stroke-width="2.00">
<path d="M 62.66 8.50
  Q 65.04 10.10 67.65 11.21
  Q 71.07 12.67 72.61 13.86
  C 81.46 20.72 85.67 29.35 87.44 40.75
  Q 88.63 48.47 88.51 56.00
  C 88.35 66.05 88.14 98.56 101.42 101.25" stroke="#e0e0e0"></path>
<path d="M 79.24 101.89
  C 73.79 99.55 67.35 103.54 69.23 110.00
  C 70.31 113.72 73.26 114.05 75.92 115.82" stroke="#e0e0e0"></path>
<path d="M 22.65 73.59
  Q 27.64 77.12 31.92 77.15
  C 32.83 77.16 34.07 76.55 35.07 76.33
  C 39.13 75.44 42.97 71.19 44.71 67.73
  Q 47.98 61.27 51.91 57.87" stroke="#e0e0e0"></path>
<path d="M 51.91 57.87
  C 60.53 61.05 65.85 54.96 67.01 47.36
  A 2.24 2.24 0.0 0 0 65.30 44.84
  Q 64.33 44.62 63.87 44.31" stroke="#6b6b6b"></path>
<path d="M 63.87 44.31
  Q 62.73 42.83 60.50 41.89
  Q 59.79 41.59 59.24 41.59
  Q 58.85 41.59 58.57 41.30
  Q 55.86 38.42 57.54 34.50
  Q 57.60 34.35 57.49 34.24
  L 57.23 33.99
  A 0.38 0.38 0.0 0 1 57.22 33.46
  Q 57.90 32.74 57.42 32.08
  Q 57.16 31.71 57.17 31.26
  Q 57.34 23.52 54.63 14.25
  Q 53.57 10.63 51.37 8.97" stroke="#e0e0e0"></path>
<path d="M 63.87 44.31
  C 58.14 43.47 50.98 42.90 45.68 44.90
  Q 44.46 45.36 44.79 46.62
  Q 46.77 54.37 51.91 57.87" stroke="#757575"></path>
<path d="M 67.3033 39.5904
  A 7.42 5.35 100.3 0 0 73.8938 33.2466
  A 7.42 5.35 100.3 0 0 69.9567 24.9896
  A 7.42 5.35 100.3 0 0 63.3662 31.3334
  A 7.42 5.35 100.3 0 0 67.3033 39.5904" stroke="#6b6b6b"></path>
<path d="M 44.4228 39.6070
  A 7.51 5.21 100.8 0 0 50.9477 33.2063
  A 7.51 5.21 100.8 0 0 47.2372 24.8530
  A 7.51 5.21 100.8 0 0 40.7123 31.2537
  A 7.51 5.21 100.8 0 0 44.4228 39.6070" stroke="#757575"></path>
</g>
<path d="M 62.66 8.50
  Q 65.04 10.10 67.65 11.21
  Q 71.07 12.67 72.61 13.86
  C 81.46 20.72 85.67 29.35 87.44 40.75
  Q 88.63 48.47 88.51 56.00
  C 88.35 66.05 88.14 98.56 101.42 101.25
  C 97.71 105.69 90.42 105.49 86.25 103.42
  Q 82.31 101.46 79.24 101.89
  C 73.79 99.55 67.35 103.54 69.23 110.00
  C 70.31 113.72 73.26 114.05 75.92 115.82
  Q 72.89 116.44 68.50 114.79
  C 63.98 113.09 56.15 112.30 51.37 110.73
  C 34.67 105.23 24.58 90.84 22.65 73.59
  Q 27.64 77.12 31.92 77.15
  C 32.83 77.16 34.07 76.55 35.07 76.33
  C 39.13 75.44 42.97 71.19 44.71 67.73
  Q 47.98 61.27 51.91 57.87
  C 60.53 61.05 65.85 54.96 67.01 47.36
  A 2.24 2.24 0.0 0 0 65.30 44.84
  Q 64.33 44.62 63.87 44.31
  Q 62.73 42.83 60.50 41.89
  Q 59.79 41.59 59.24 41.59
  Q 58.85 41.59 58.57 41.30
  Q 55.86 38.42 57.54 34.50
  Q 57.60 34.35 57.49 34.24
  L 57.23 33.99
  A 0.38 0.38 0.0 0 1 57.22 33.46
  Q 57.90 32.74 57.42 32.08
  Q 57.16 31.71 57.17 31.26
  Q 57.34 23.52 54.63 14.25
  Q 53.57 10.63 51.37 8.97
  Q 57.66 7.36 62.66 8.50
  Z
  M 67.3033 39.5904
  A 7.42 5.35 100.3 0 0 73.8938 33.2466
  A 7.42 5.35 100.3 0 0 69.9567 24.9896
  A 7.42 5.35 100.3 0 0 63.3662 31.3334
  A 7.42 5.35 100.3 0 0 67.3033 39.5904
  Z" fill="#d6d6d6"></path>
<path d="M 62.66 8.50
  Q 73.98 9.59 82.10 16.92
  C 93.24 26.99 96.03 40.55 96.05 54.97
  Q 96.06 65.62 96.64 76.25
  Q 97.14 85.27 99.38 89.61
  C 101.32 93.35 104.04 97.14 101.42 101.25
  C 88.14 98.56 88.35 66.05 88.51 56.00
  Q 88.63 48.47 87.44 40.75
  C 85.67 29.35 81.46 20.72 72.61 13.86
  Q 71.07 12.67 67.65 11.21
  Q 65.04 10.10 62.66 8.50
  Z" fill="#eaeaea"></path>
<path d="M 51.37 8.97
  Q 53.57 10.63 54.63 14.25
  Q 57.34 23.52 57.17 31.26
  Q 57.16 31.71 57.42 32.08
  Q 57.90 32.74 57.22 33.46
  A 0.38 0.38 0.0 0 0 57.23 33.99
  L 57.49 34.24
  Q 57.60 34.35 57.54 34.50
  Q 55.86 38.42 58.57 41.30
  Q 58.85 41.59 59.24 41.59
  Q 59.79 41.59 60.50 41.89
  Q 62.73 42.83 63.87 44.31
  C 58.14 43.47 50.98 42.90 45.68 44.90
  Q 44.46 45.36 44.79 46.62
  Q 46.77 54.37 51.91 57.87
  Q 47.98 61.27 44.71 67.73
  C 42.97 71.19 39.13 75.44 35.07 76.33
  C 34.07 76.55 32.83 77.16 31.92 77.15
  Q 27.64 77.12 22.65 73.59
  L 22.05 60.78
  Q 22.02 60.29 21.60 60.05
  Q 16.34 56.99 14.56 52.25
  Q 13.08 48.31 14.32 45.77
  C 16.21 41.90 19.98 42.26 22.58 45.09
  Q 22.97 45.52 23.08 44.95
  Q 24.21 39.28 24.72 37.51
  C 28.54 24.10 37.53 12.41 51.37 8.97
  Z
  M 44.4228 39.6070
  A 7.51 5.21 100.8 0 0 50.9477 33.2063
  A 7.51 5.21 100.8 0 0 47.2372 24.8530
  A 7.51 5.21 100.8 0 0 40.7123 31.2537
  A 7.51 5.21 100.8 0 0 44.4228 39.6070
  Z" fill="#eaeaea"></path>
<ellipse ry="5.21" rx="7.51" transform="translate(45.83,32.23) rotate(100.8)" cy="0.00" cx="0.00" fill="#000000"></ellipse>
<ellipse ry="5.35" rx="7.42" transform="translate(68.63,32.29) rotate(100.3)" cy="0.00" cx="0.00" fill="#000000"></ellipse>
<path d="M 63.87 44.31
  Q 64.33 44.62 65.30 44.84
  A 2.24 2.24 0.0 0 1 67.01 47.36
  C 65.85 54.96 60.53 61.05 51.91 57.87
  Q 46.77 54.37 44.79 46.62
  Q 44.46 45.36 45.68 44.90
  C 50.98 42.90 58.14 43.47 63.87 44.31
  Z" fill="#000000"></path>
<path d="M 79.24 101.89
  Q 74.43 101.53 73.06 104.79
  Q 72.13 107.02 73.75 109.09
  C 74.79 110.42 76.77 110.90 78.09 112.36
  A 1.05 1.04 29.8 0 1 78.34 113.26
  Q 77.97 115.16 75.92 115.82
  C 73.26 114.05 70.31 113.72 69.23 110.00
  C 67.35 103.54 73.79 99.55 79.24 101.89
  Z" fill="#eaeaea"></path>
</svg>
