<svg viewBox="0.00 0.00 512.00 512.00" version="1.1" xmlns="http://www.w3.org/2000/svg">
<g stroke-linecap="butt" fill="none" stroke-width="2.00">
<path d="M 344.80 304.97
  Q 344.83 304.45 345.18 304.83
  C 362.80 324.05 385.03 334.70 411.48 328.64
  C 434.86 323.28 453.41 309.29 462.72 286.75
  C 470.19 268.68 472.33 250.17 469.68 230.81
  C 464.79 195.11 447.31 162.80 417.12 142.38
  C 400.46 131.11 381.72 127.04 362.15 131.34
  C 329.38 138.54 309.40 161.80 307.68 195.53
  Q 307.60 197.17 306.58 195.88
  C 289.18 174.11 261.77 159.99 233.51 164.06
  C 200.36 168.84 173.22 188.74 163.81 221.79
  C 153.58 257.67 160.46 294.65 176.87 327.41
  C 187.59 348.78 203.54 366.92 224.52 378.67
  C 249.88 392.87 280.96 389.59 306.05 376.04
  Q 327.31 364.57 337.07 342.15
  Q 341.89 331.06 343.07 323.00
  Q 344.40 313.86 344.80 304.97" stroke="#fdb28f"></path>
<path d="M 368.63 191.75
  C 381.97 200.44 384.35 218.54 375.68 231.39
  C 367.00 244.25 347.63 243.93 339.54 230.48
  Q 338.53 228.80 338.71 230.75
  C 341.01 256.08 357.71 281.61 386.48 279.47
  C 399.79 278.48 413.86 271.83 420.93 260.18
  C 430.72 244.06 429.37 225.30 421.03 208.72
  C 414.68 196.07 402.68 185.78 388.60 183.77
  C 380.72 182.65 371.73 183.88 364.44 187.31
  C 363.63 187.69 362.52 187.73 361.65 188.15
  Q 360.96 188.50 361.67 188.81
  C 364.02 189.82 366.63 190.45 368.63 191.75" stroke="#fdb28f"></path>
<path d="M 276.29 221.70
  C 256.96 211.97 230.20 219.96 215.93 234.96
  Q 215.60 235.31 216.07 235.42
  Q 217.53 235.74 218.98 235.91
  Q 228.25 237.00 234.00 244.24
  C 242.62 255.11 241.22 272.24 231.09 281.84
  C 224.48 288.11 215.03 289.96 206.70 285.44
  A 0.37 0.37 0.0 0 0 206.16 285.86
  C 211.57 307.28 226.41 327.38 249.61 330.88
  C 263.68 333.00 278.91 328.45 290.65 320.90
  C 309.07 309.04 314.06 285.81 309.03 265.25
  C 304.42 246.40 293.92 230.58 276.29 221.70" stroke="#fdb28f"></path>
</g>
<path d="M 0.00 270.12
  L 0.00 247.00
  Q 0.67 228.40 1.47 209.81
  C 2.01 197.48 3.17 185.38 4.31 173.16
  Q 4.76 168.34 5.59 162.87
  C 6.44 157.21 7.04 151.54 8.32 145.90
  C 9.81 139.33 10.96 132.41 13.84 126.26
  Q 28.56 94.89 63.25 88.46
  C 78.92 85.56 95.36 84.72 112.05 83.44
  Q 119.36 82.89 125.46 82.59
  Q 257.86 76.21 390.25 82.82
  Q 395.15 83.06 401.73 83.62
  C 410.74 84.39 420.63 84.91 428.76 85.84
  C 440.21 87.16 451.95 88.21 462.38 92.51
  Q 489.12 103.53 499.41 131.37
  Q 501.65 137.42 504.24 153.00
  C 505.72 161.92 507.06 173.58 507.92 183.70
  Q 514.39 259.71 507.71 335.71
  C 506.48 349.76 504.77 364.49 501.32 378.25
  Q 499.23 386.60 496.53 392.19
  C 487.91 410.09 471.97 423.21 452.08 427.33
  C 440.23 429.78 426.23 431.34 417.50 432.08
  Q 399.04 433.62 366.24 434.89
  Q 291.94 437.76 250.50 437.41
  Q 172.05 436.73 139.00 434.90
  C 110.41 433.32 93.65 432.30 70.49 429.46
  C 58.77 428.02 46.42 424.63 36.94 418.08
  Q 15.98 403.61 10.21 378.69
  Q 9.42 375.29 8.57 371.89
  Q 7.70 368.42 7.23 365.04
  C 6.23 358.00 5.00 350.90 4.35 343.96
  C 3.21 331.69 1.99 319.51 1.47 307.15
  Q 0.70 288.64 0.00 270.12
  Z
  M 344.80 304.97
  Q 344.83 304.45 345.18 304.83
  C 362.80 324.05 385.03 334.70 411.48 328.64
  C 434.86 323.28 453.41 309.29 462.72 286.75
  C 470.19 268.68 472.33 250.17 469.68 230.81
  C 464.79 195.11 447.31 162.80 417.12 142.38
  C 400.46 131.11 381.72 127.04 362.15 131.34
  C 329.38 138.54 309.40 161.80 307.68 195.53
  Q 307.60 197.17 306.58 195.88
  C 289.18 174.11 261.77 159.99 233.51 164.06
  C 200.36 168.84 173.22 188.74 163.81 221.79
  C 153.58 257.67 160.46 294.65 176.87 327.41
  C 187.59 348.78 203.54 366.92 224.52 378.67
  C 249.88 392.87 280.96 389.59 306.05 376.04
  Q 327.31 364.57 337.07 342.15
  Q 341.89 331.06 343.07 323.00
  Q 344.40 313.86 344.80 304.97
  Z" fill="#fb651e"></path>
<path d="M 344.80 304.97
  Q 344.40 313.86 343.07 323.00
  Q 341.89 331.06 337.07 342.15
  Q 327.31 364.57 306.05 376.04
  C 280.96 389.59 249.88 392.87 224.52 378.67
  C 203.54 366.92 187.59 348.78 176.87 327.41
  C 160.46 294.65 153.58 257.67 163.81 221.79
  C 173.22 188.74 200.36 168.84 233.51 164.06
  C 261.77 159.99 289.18 174.11 306.58 195.88
  Q 307.60 197.17 307.68 195.53
  C 309.40 161.80 329.38 138.54 362.15 131.34
  C 381.72 127.04 400.46 131.11 417.12 142.38
  C 447.31 162.80 464.79 195.11 469.68 230.81
  C 472.33 250.17 470.19 268.68 462.72 286.75
  C 453.41 309.29 434.86 323.28 411.48 328.64
  C 385.03 334.70 362.80 324.05 345.18 304.83
  Q 344.83 304.45 344.80 304.97
  Z
  M 368.63 191.75
  C 381.97 200.44 384.35 218.54 375.68 231.39
  C 367.00 244.25 347.63 243.93 339.54 230.48
  Q 338.53 228.80 338.71 230.75
  C 341.01 256.08 357.71 281.61 386.48 279.47
  C 399.79 278.48 413.86 271.83 420.93 260.18
  C 430.72 244.06 429.37 225.30 421.03 208.72
  C 414.68 196.07 402.68 185.78 388.60 183.77
  C 380.72 182.65 371.73 183.88 364.44 187.31
  C 363.63 187.69 362.52 187.73 361.65 188.15
  Q 360.96 188.50 361.67 188.81
  C 364.02 189.82 366.63 190.45 368.63 191.75
  Z
  M 276.29 221.70
  C 256.96 211.97 230.20 219.96 215.93 234.96
  Q 215.60 235.31 216.07 235.42
  Q 217.53 235.74 218.98 235.91
  Q 228.25 237.00 234.00 244.24
  C 242.62 255.11 241.22 272.24 231.09 281.84
  C 224.48 288.11 215.03 289.96 206.70 285.44
  A 0.37 0.37 0.0 0 0 206.16 285.86
  C 211.57 307.28 226.41 327.38 249.61 330.88
  C 263.68 333.00 278.91 328.45 290.65 320.90
  C 309.07 309.04 314.06 285.81 309.03 265.25
  C 304.42 246.40 293.92 230.58 276.29 221.70
  Z" fill="#ffffff"></path>
<path d="M 375.68 231.39
  C 384.35 218.54 381.97 200.44 368.63 191.75
  C 366.63 190.45 364.02 189.82 361.67 188.81
  Q 360.96 188.50 361.65 188.15
  C 362.52 187.73 363.63 187.69 364.44 187.31
  C 371.73 183.88 380.72 182.65 388.60 183.77
  C 402.68 185.78 414.68 196.07 421.03 208.72
  C 429.37 225.30 430.72 244.06 420.93 260.18
  C 413.86 271.83 399.79 278.48 386.48 279.47
  C 357.71 281.61 341.01 256.08 338.71 230.75
  Q 338.53 228.80 339.54 230.48
  C 347.63 243.93 367.00 244.25 375.68 231.39
  Z" fill="#fb651e"></path>
<path d="M 215.93 234.96
  C 230.20 219.96 256.96 211.97 276.29 221.70
  C 293.92 230.58 304.42 246.40 309.03 265.25
  C 314.06 285.81 309.07 309.04 290.65 320.90
  C 278.91 328.45 263.68 333.00 249.61 330.88
  C 226.41 327.38 211.57 307.28 206.16 285.86
  A 0.37 0.37 0.0 0 1 206.70 285.44
  C 215.03 289.96 224.48 288.11 231.09 281.84
  C 241.22 272.24 242.62 255.11 234.00 244.24
  Q 228.25 237.00 218.98 235.91
  Q 217.53 235.74 216.07 235.42
  Q 215.60 235.31 215.93 234.96
  Z" fill="#fb651e"></path>
</svg>
