<svg viewBox="0.00 0.00 48.00 48.00" version="1.1" xmlns="http://www.w3.org/2000/svg">
<g stroke-linecap="butt" fill="none" stroke-width="2.00">
<path d="M 40.12 6.29
  L 35.08 10.20" stroke="#a96f81"></path>
<path d="M 35.08 10.20
  C 26.07 3.44 13.58 6.02 8.12 15.89" stroke="#2e4b60"></path>
<path d="M 8.12 15.89
  Q 3.10 18.10 0.58 23.11
  Q 0.39 23.47 0.00 23.38" stroke="#a96f81"></path>
<path d="M 43.83 10.59
  L 39.33 15.16" stroke="#f58c44"></path>
<path d="M 39.33 15.16
  L 35.08 10.20" stroke="#7b2521"></path>
<path d="M 39.33 15.16
  Q 43.31 22.67 40.16 31.36" stroke="#7a6723"></path>
<path d="M 40.16 31.36
  C 33.60 44.93 16.26 45.01 8.32 32.64" stroke="#784852"></path>
<path d="M 8.32 32.64
  Q 4.47 24.56 8.12 15.89" stroke="#7b2521"></path>
<path d="M 39.54 24.03
  A 15.56 15.56 0.0 0 0 23.98 8.47
  A 15.56 15.56 0.0 0 0 8.42 24.03
  A 15.56 15.56 0.0 0 0 23.98 39.59
  A 15.56 15.56 0.0 0 0 39.54 24.03" stroke="#808080"></path>
<path d="M 35.75 24.23
  L 36.77 23.90
  A 0.67 0.66 -47.4 0 0 36.72 22.62
  C 33.37 21.82 30.89 22.21 28.02 22.17
  Q 20.33 22.03 11.81 22.12
  A 0.94 0.93 -30.6 0 0 11.36 23.87
  L 12.28 24.40
  Q 12.79 24.68 12.89 25.26
  C 13.36 27.95 12.43 32.12 14.94 33.84
  Q 22.32 38.91 30.72 35.09
  C 35.80 32.78 34.59 29.35 35.14 24.96
  A 0.91 0.88 -6.0 0 1 35.75 24.23" stroke="#808080"></path>
<path d="M 47.38 29.47
  L 40.16 31.36" stroke="#f2af75"></path>
<path d="M 8.32 32.64
  Q 5.09 32.99 2.36 34.47" stroke="#f36d73"></path>
<path d="M 17.1784 31.8720
  A 1.42 1.01 61.0 0 0 17.3734 30.1403
  A 1.42 1.01 61.0 0 0 15.8016 29.3880
  A 1.42 1.01 61.0 0 0 15.6066 31.1197
  A 1.42 1.01 61.0 0 0 17.1784 31.8720" stroke="#808080"></path>
<path d="M 30.7792 31.6683
  A 1.25 1.05 123.0 0 0 32.3406 31.1919
  A 1.25 1.05 123.0 0 0 32.1408 29.5717
  A 1.25 1.05 123.0 0 0 30.5794 30.0481
  A 1.25 1.05 123.0 0 0 30.7792 31.6683" stroke="#808080"></path>
</g>
<path d="M 23.36 0.00
  L 24.69 0.00
  Q 33.58 0.60 40.12 6.29
  L 35.08 10.20
  C 26.07 3.44 13.58 6.02 8.12 15.89
  Q 3.10 18.10 0.58 23.11
  Q 0.39 23.47 0.00 23.38
  L 0.00 21.76
  Q 3.50 2.14 23.36 0.00
  Z" fill="#5b95bf"></path>
<path d="M 40.12 6.29
  L 43.83 10.59
  L 39.33 15.16
  L 35.08 10.20
  L 40.12 6.29
  Z" fill="#f64942"></path>
<path d="M 35.08 10.20
  L 39.33 15.16
  Q 43.31 22.67 40.16 31.36
  C 33.60 44.93 16.26 45.01 8.32 32.64
  Q 4.47 24.56 8.12 15.89
  C 13.58 6.02 26.07 3.44 35.08 10.20
  Z
  M 39.54 24.03
  A 15.56 15.56 0.0 0 0 23.98 8.47
  A 15.56 15.56 0.0 0 0 8.42 24.03
  A 15.56 15.56 0.0 0 0 23.98 39.59
  A 15.56 15.56 0.0 0 0 39.54 24.03
  Z" fill="#000000"></path>
<path d="M 39.54 24.03
  A 15.56 15.56 0.0 0 1 23.98 39.59
  A 15.56 15.56 0.0 0 1 8.42 24.03
  A 15.56 15.56 0.0 0 1 23.98 8.47
  A 15.56 15.56 0.0 0 1 39.54 24.03
  Z
  M 35.75 24.23
  L 36.77 23.90
  A 0.67 0.66 -47.4 0 0 36.72 22.62
  C 33.37 21.82 30.89 22.21 28.02 22.17
  Q 20.33 22.03 11.81 22.12
  A 0.94 0.93 -30.6 0 0 11.36 23.87
  L 12.28 24.40
  Q 12.79 24.68 12.89 25.26
  C 13.36 27.95 12.43 32.12 14.94 33.84
  Q 22.32 38.91 30.72 35.09
  C 35.80 32.78 34.59 29.35 35.14 24.96
  A 0.91 0.88 -6.0 0 1 35.75 24.23
  Z" fill="#ffffff"></path>
<path d="M 43.83 10.59
  Q 47.08 15.38 48.00 21.93
  L 48.00 26.23
  L 47.38 29.47
  L 40.16 31.36
  Q 43.31 22.67 39.33 15.16
  L 43.83 10.59
  Z" fill="#f4ce45"></path>
<path d="M 8.12 15.89
  Q 4.47 24.56 8.32 32.64
  Q 5.09 32.99 2.36 34.47
  L 0.00 26.09
  L 0.00 23.38
  Q 0.39 23.47 0.58 23.11
  Q 3.10 18.10 8.12 15.89
  Z" fill="#f64942"></path>
<path d="M 35.14 24.96
  C 34.59 29.35 35.80 32.78 30.72 35.09
  Q 22.32 38.91 14.94 33.84
  C 12.43 32.12 13.36 27.95 12.89 25.26
  Q 12.79 24.68 12.28 24.40
  L 11.36 23.87
  A 0.94 0.93 -30.6 0 1 11.81 22.12
  Q 20.33 22.03 28.02 22.17
  C 30.89 22.21 33.37 21.82 36.72 22.62
  A 0.67 0.66 -47.4 0 1 36.77 23.90
  L 35.75 24.23
  A 0.91 0.88 -6.0 0 0 35.14 24.96
  Z
  M 17.1784 31.8720
  A 1.42 1.01 61.0 0 0 17.3734 30.1403
  A 1.42 1.01 61.0 0 0 15.8016 29.3880
  A 1.42 1.01 61.0 0 0 15.6066 31.1197
  A 1.42 1.01 61.0 0 0 17.1784 31.8720
  Z
  M 30.7792 31.6683
  A 1.25 1.05 123.0 0 0 32.3406 31.1919
  A 1.25 1.05 123.0 0 0 32.1408 29.5717
  A 1.25 1.05 123.0 0 0 30.5794 30.0481
  A 1.25 1.05 123.0 0 0 30.7792 31.6683
  Z" fill="#000000"></path>
<ellipse ry="1.01" rx="1.42" transform="translate(16.49,30.63) rotate(61.0)" cy="0.00" cx="0.00" fill="#ffffff"></ellipse>
<ellipse ry="1.05" rx="1.25" transform="translate(31.46,30.62) rotate(123.0)" cy="0.00" cx="0.00" fill="#ffffff"></ellipse>
<path d="M 47.38 29.47
  Q 42.79 45.52 26.06 48.00
  L 21.81 48.00
  Q 8.48 46.18 2.36 34.47
  Q 5.09 32.99 8.32 32.64
  C 16.26 45.01 33.60 44.93 40.16 31.36
  L 47.38 29.47
  Z" fill="#ef90a4"></path>
</svg>
