<svg viewBox="0.00 0.00 180.00 180.00" version="1.1" xmlns="http://www.w3.org/2000/svg">
<g stroke-linecap="butt" fill="none" stroke-width="2.00">
<path d="M 72.13 146.58
  C 90.54 165.47 120.50 158.90 129.57 134.28
  A 0.95 0.93 -85.7 0 1 130.24 133.69
  C 154.24 128.01 163.65 101.98 150.95 81.34
  C 150.31 80.30 149.07 79.14 148.31 77.99
  Q 148.03 77.57 148.16 77.09
  Q 153.46 57.46 140.26 43.48
  C 133.29 36.09 120.20 30.62 109.57 33.54
  Q 108.62 33.80 108.03 33.21
  C 89.62 14.42 59.81 20.89 50.64 45.41
  Q 50.45 45.90 49.95 46.04
  C 47.41 46.73 44.78 47.49 42.55 48.63
  C 22.47 58.87 16.96 84.28 31.85 101.69
  Q 32.20 102.10 32.04 102.62
  C 25.85 123.83 39.23 143.55 60.99 146.80
  Q 64.38 147.31 71.26 146.29
  Q 71.77 146.21 72.13 146.58" stroke="#bad4ce"></path>
<path d="M 69.15 58.76
  C 69.12 56.24 69.57 54.12 71.68 52.90
  Q 85.31 45.05 98.76 37.31
  A 0.43 0.43 0.0 0 0 98.79 36.59
  C 84.46 26.62 65.28 31.18 59.25 47.83
  Q 57.73 52.02 57.70 61.33
  Q 57.66 74.45 57.70 87.60
  Q 57.70 88.12 58.15 88.38
  L 68.72 94.46
  Q 69.26 94.77 69.26 94.15
  Q 69.30 76.38 69.15 58.76" stroke="#bad4ce"></path>
<path d="M 113.19 55.58
  Q 122.48 61.07 139.95 71.00
  Q 140.43 71.28 140.51 70.73
  C 142.89 53.43 127.48 38.44 110.11 42.34
  Q 106.28 43.20 98.31 47.76
  Q 87.11 54.16 75.96 60.65
  Q 75.48 60.93 75.48 61.49
  L 75.48 73.72
  Q 75.48 74.26 75.95 73.99
  Q 92.20 64.70 108.42 55.48
  Q 110.77 54.15 113.19 55.58" stroke="#bad4ce"></path>
<path d="M 72.83 116.79
  L 83.27 110.78
  Q 83.94 110.39 83.26 110.00
  L 51.07 91.42
  A 4.54 4.54 0.0 0 1 48.80 87.49
  L 48.79 56.23
  A 0.54 0.54 0.0 0 0 48.01 55.74
  C 32.34 63.33 26.76 82.03 38.29 95.65
  Q 41.13 99.00 49.11 103.65
  Q 60.46 110.26 71.85 116.79
  Q 72.34 117.07 72.83 116.79" stroke="#bad4ce"></path>
<path d="M 131.19 90.92
  A 2.72 2.50 38.2 0 1 131.32 91.73
  L 131.32 123.73
  A 0.37 0.37 0.0 0 0 131.84 124.07
  C 151.74 115.33 153.67 89.38 134.71 78.32
  Q 121.48 70.59 108.30 62.96
  A 0.84 0.84 0.0 0 0 107.48 62.96
  L 96.73 69.19
  A 0.27 0.27 0.0 0 0 96.73 69.66
  Q 113.07 79.12 129.45 88.84
  Q 130.79 89.63 131.19 90.92" stroke="#bad4ce"></path>
<path d="M 75.48 97.91
  A 0.80 0.80 0.0 0 0 75.88 98.60
  L 89.70 106.58
  A 0.80 0.80 0.0 0 0 90.50 106.58
  L 104.34 98.58
  A 0.80 0.80 0.0 0 0 104.74 97.89
  L 104.75 81.92
  A 0.80 0.80 0.0 0 0 104.35 81.23
  L 90.52 73.23
  A 0.80 0.80 0.0 0 0 89.72 73.23
  L 75.88 81.21
  A 0.80 0.80 0.0 0 0 75.48 81.90
  L 75.48 97.91" stroke="#bad4ce"></path>
<path d="M 110.76 123.25
  C 110.75 124.75 110.23 125.68 108.95 126.44
  Q 95.19 134.60 81.52 142.51
  A 0.46 0.46 0.0 0 0 81.48 143.28
  C 98.87 155.70 122.53 144.66 122.51 123.00
  Q 122.50 107.68 122.50 92.28
  Q 122.50 91.73 122.02 91.45
  L 111.29 85.25
  A 0.25 0.24 15.0 0 0 110.92 85.46
  Q 110.92 104.34 110.76 123.25" stroke="#bad4ce"></path>
<path d="M 39.70 109.03
  C 36.78 129.03 58.23 145.51 76.74 134.97
  Q 90.55 127.09 104.36 119.10
  Q 104.74 118.89 104.74 118.45
  L 104.74 106.00
  A 0.29 0.29 0.0 0 0 104.30 105.75
  Q 88.01 115.16 71.89 124.35
  Q 69.56 125.68 67.21 124.31
  Q 53.80 116.52 40.22 108.78
  Q 39.78 108.53 39.70 109.03" stroke="#bad4ce"></path>
</g>
<path d="M 0.00 0.00
  L 180.00 0.00
  L 180.00 180.00
  L 0.00 180.00
  L 0.00 0.00
  Z
  M 72.13 146.58
  C 90.54 165.47 120.50 158.90 129.57 134.28
  A 0.95 0.93 -85.7 0 1 130.24 133.69
  C 154.24 128.01 163.65 101.98 150.95 81.34
  C 150.31 80.30 149.07 79.14 148.31 77.99
  Q 148.03 77.57 148.16 77.09
  Q 153.46 57.46 140.26 43.48
  C 133.29 36.09 120.20 30.62 109.57 33.54
  Q 108.62 33.80 108.03 33.21
  C 89.62 14.42 59.81 20.89 50.64 45.41
  Q 50.45 45.90 49.95 46.04
  C 47.41 46.73 44.78 47.49 42.55 48.63
  C 22.47 58.87 16.96 84.28 31.85 101.69
  Q 32.20 102.10 32.04 102.62
  C 25.85 123.83 39.23 143.55 60.99 146.80
  Q 64.38 147.31 71.26 146.29
  Q 71.77 146.21 72.13 146.58
  Z" fill="#75a99c"></path>
<path d="M 71.26 146.29
  Q 64.38 147.31 60.99 146.80
  C 39.23 143.55 25.85 123.83 32.04 102.62
  Q 32.20 102.10 31.85 101.69
  C 16.96 84.28 22.47 58.87 42.55 48.63
  C 44.78 47.49 47.41 46.73 49.95 46.04
  Q 50.45 45.90 50.64 45.41
  C 59.81 20.89 89.62 14.42 108.03 33.21
  Q 108.62 33.80 109.57 33.54
  C 120.20 30.62 133.29 36.09 140.26 43.48
  Q 153.46 57.46 148.16 77.09
  Q 148.03 77.57 148.31 77.99
  C 149.07 79.14 150.31 80.30 150.95 81.34
  C 163.65 101.98 154.24 128.01 130.24 133.69
  A 0.95 0.93 -85.7 0 0 129.57 134.28
  C 120.50 158.90 90.54 165.47 72.13 146.58
  Q 71.77 146.21 71.26 146.29
  Z
  M 69.15 58.76
  C 69.12 56.24 69.57 54.12 71.68 52.90
  Q 85.31 45.05 98.76 37.31
  A 0.43 0.43 0.0 0 0 98.79 36.59
  C 84.46 26.62 65.28 31.18 59.25 47.83
  Q 57.73 52.02 57.70 61.33
  Q 57.66 74.45 57.70 87.60
  Q 57.70 88.12 58.15 88.38
  L 68.72 94.46
  Q 69.26 94.77 69.26 94.15
  Q 69.30 76.38 69.15 58.76
  Z
  M 113.19 55.58
  Q 122.48 61.07 139.95 71.00
  Q 140.43 71.28 140.51 70.73
  C 142.89 53.43 127.48 38.44 110.11 42.34
  Q 106.28 43.20 98.31 47.76
  Q 87.11 54.16 75.96 60.65
  Q 75.48 60.93 75.48 61.49
  L 75.48 73.72
  Q 75.48 74.26 75.95 73.99
  Q 92.20 64.70 108.42 55.48
  Q 110.77 54.15 113.19 55.58
  Z
  M 72.83 116.79
  L 83.27 110.78
  Q 83.94 110.39 83.26 110.00
  L 51.07 91.42
  A 4.54 4.54 0.0 0 1 48.80 87.49
  L 48.79 56.23
  A 0.54 0.54 0.0 0 0 48.01 55.74
  C 32.34 63.33 26.76 82.03 38.29 95.65
  Q 41.13 99.00 49.11 103.65
  Q 60.46 110.26 71.85 116.79
  Q 72.34 117.07 72.83 116.79
  Z
  M 131.19 90.92
  A 2.72 2.50 38.2 0 1 131.32 91.73
  L 131.32 123.73
  A 0.37 0.37 0.0 0 0 131.84 124.07
  C 151.74 115.33 153.67 89.38 134.71 78.32
  Q 121.48 70.59 108.30 62.96
  A 0.84 0.84 0.0 0 0 107.48 62.96
  L 96.73 69.19
  A 0.27 0.27 0.0 0 0 96.73 69.66
  Q 113.07 79.12 129.45 88.84
  Q 130.79 89.63 131.19 90.92
  Z
  M 75.48 97.91
  A 0.80 0.80 0.0 0 0 75.88 98.60
  L 89.70 106.58
  A 0.80 0.80 0.0 0 0 90.50 106.58
  L 104.34 98.58
  A 0.80 0.80 0.0 0 0 104.74 97.89
  L 104.75 81.92
  A 0.80 0.80 0.0 0 0 104.35 81.23
  L 90.52 73.23
  A 0.80 0.80 0.0 0 0 89.72 73.23
  L 75.88 81.21
  A 0.80 0.80 0.0 0 0 75.48 81.90
  L 75.48 97.91
  Z
  M 110.76 123.25
  C 110.75 124.75 110.23 125.68 108.95 126.44
  Q 95.19 134.60 81.52 142.51
  A 0.46 0.46 0.0 0 0 81.48 143.28
  C 98.87 155.70 122.53 144.66 122.51 123.00
  Q 122.50 107.68 122.50 92.28
  Q 122.50 91.73 122.02 91.45
  L 111.29 85.25
  A 0.25 0.24 15.0 0 0 110.92 85.46
  Q 110.92 104.34 110.76 123.25
  Z
  M 39.70 109.03
  C 36.78 129.03 58.23 145.51 76.74 134.97
  Q 90.55 127.09 104.36 119.10
  Q 104.74 118.89 104.74 118.45
  L 104.74 106.00
  A 0.29 0.29 0.0 0 0 104.30 105.75
  Q 88.01 115.16 71.89 124.35
  Q 69.56 125.68 67.21 124.31
  Q 53.80 116.52 40.22 108.78
  Q 39.78 108.53 39.70 109.03
  Z" fill="#ffffff"></path>
<path d="M 71.68 52.90
  C 69.57 54.12 69.12 56.24 69.15 58.76
  Q 69.30 76.38 69.26 94.15
  Q 69.26 94.77 68.72 94.46
  L 58.15 88.38
  Q 57.70 88.12 57.70 87.60
  Q 57.66 74.45 57.70 61.33
  Q 57.73 52.02 59.25 47.83
  C 65.28 31.18 84.46 26.62 98.79 36.59
  A 0.43 0.43 0.0 0 1 98.76 37.31
  Q 85.31 45.05 71.68 52.90
  Z" fill="#75a99c"></path>
<path d="M 113.19 55.58
  Q 110.77 54.15 108.42 55.48
  Q 92.20 64.70 75.95 73.99
  Q 75.48 74.26 75.48 73.72
  L 75.48 61.49
  Q 75.48 60.93 75.96 60.65
  Q 87.11 54.16 98.31 47.76
  Q 106.28 43.20 110.11 42.34
  C 127.48 38.44 142.89 53.43 140.51 70.73
  Q 140.43 71.28 139.95 71.00
  Q 122.48 61.07 113.19 55.58
  Z" fill="#75a99c"></path>
<path d="M 83.27 110.78
  L 72.83 116.79
  Q 72.34 117.07 71.85 116.79
  Q 60.46 110.26 49.11 103.65
  Q 41.13 99.00 38.29 95.65
  C 26.76 82.03 32.34 63.33 48.01 55.74
  A 0.54 0.54 0.0 0 1 48.79 56.23
  L 48.80 87.49
  A 4.54 4.54 0.0 0 0 51.07 91.42
  L 83.26 110.00
  Q 83.94 110.39 83.27 110.78
  Z" fill="#75a99c"></path>
<path d="M 131.19 90.92
  Q 130.79 89.63 129.45 88.84
  Q 113.07 79.12 96.73 69.66
  A 0.27 0.27 0.0 0 1 96.73 69.19
  L 107.48 62.96
  A 0.84 0.84 0.0 0 1 108.30 62.96
  Q 121.48 70.59 134.71 78.32
  C 153.67 89.38 151.74 115.33 131.84 124.07
  A 0.37 0.37 0.0 0 1 131.32 123.73
  L 131.32 91.73
  A 2.72 2.50 38.2 0 0 131.19 90.92
  Z" fill="#75a99c"></path>
<path d="M 75.48 97.91
  L 75.48 81.90
  A 0.80 0.80 0.0 0 1 75.88 81.21
  L 89.72 73.23
  A 0.80 0.80 0.0 0 1 90.52 73.23
  L 104.35 81.23
  A 0.80 0.80 0.0 0 1 104.75 81.92
  L 104.74 97.89
  A 0.80 0.80 0.0 0 1 104.34 98.58
  L 90.50 106.58
  A 0.80 0.80 0.0 0 1 89.70 106.58
  L 75.88 98.60
  A 0.80 0.80 0.0 0 1 75.48 97.91
  Z" fill="#75a99c"></path>
<path d="M 108.95 126.44
  C 110.23 125.68 110.75 124.75 110.76 123.25
  Q 110.92 104.34 110.92 85.46
  A 0.25 0.24 15.0 0 1 111.29 85.25
  L 122.02 91.45
  Q 122.50 91.73 122.50 92.28
  Q 122.50 107.68 122.51 123.00
  C 122.53 144.66 98.87 155.70 81.48 143.28
  A 0.46 0.46 0.0 0 1 81.52 142.51
  Q 95.19 134.60 108.95 126.44
  Z" fill="#75a99c"></path>
<path d="M 76.74 134.97
  C 58.23 145.51 36.78 129.03 39.70 109.03
  Q 39.78 108.53 40.22 108.78
  Q 53.80 116.52 67.21 124.31
  Q 69.56 125.68 71.89 124.35
  Q 88.01 115.16 104.30 105.75
  A 0.29 0.29 0.0 0 1 104.74 106.00
  L 104.74 118.45
  Q 104.74 118.89 104.36 119.10
  Q 90.55 127.09 76.74 134.97
  Z" fill="#75a99c"></path>
</svg>
