<svg viewBox="0.00 0.00 180.00 180.00" version="1.1" xmlns="http://www.w3.org/2000/svg">
<g stroke-linecap="butt" fill="none" stroke-width="2.00">
<path d="M 97.81 126.21
  Q 118.33 121.31 128.17 103.66
  C 137.08 87.69 136.86 67.94 127.95 52.15
  C 119.03 36.37 100.75 26.84 82.73 29.59
  C 50.34 34.52 35.12 70.93 47.51 98.89
  C 53.68 112.82 64.71 122.37 79.50 126.11
  Q 80.00 126.24 80.00 126.76
  L 80.00 141.70
  A 0.07 0.06 -7.2 0 0 80.09 141.76
  C 86.85 140.20 89.81 141.24 96.47 144.43
  C 101.93 147.05 108.06 150.08 113.91 150.05
  C 125.43 150.00 135.58 142.25 137.04 130.40
  A 0.65 0.64 -73.7 0 0 136.69 129.75
  L 123.72 123.32
  Q 123.16 123.04 123.06 123.66
  C 121.99 130.36 115.19 133.15 109.08 131.66
  Q 104.61 130.56 97.76 126.58
  Q 97.33 126.32 97.81 126.21" stroke="#eacbbe"></path>
<path d="M 89.0630 107.6198
  A 29.52 24.55 89.8 0 0 113.5099 78.0143
  A 29.52 24.55 89.8 0 0 88.8570 48.5802
  A 29.52 24.55 89.8 0 0 64.4101 78.1857
  A 29.52 24.55 89.8 0 0 89.0630 107.6198" stroke="#eacbbe"></path>
</g>
<path d="M 0.00 0.00
  L 180.00 0.00
  L 180.00 180.00
  L 0.00 180.00
  L 0.00 0.00
  Z
  M 97.81 126.21
  Q 118.33 121.31 128.17 103.66
  C 137.08 87.69 136.86 67.94 127.95 52.15
  C 119.03 36.37 100.75 26.84 82.73 29.59
  C 50.34 34.52 35.12 70.93 47.51 98.89
  C 53.68 112.82 64.71 122.37 79.50 126.11
  Q 80.00 126.24 80.00 126.76
  L 80.00 141.70
  A 0.07 0.06 -7.2 0 0 80.09 141.76
  C 86.85 140.20 89.81 141.24 96.47 144.43
  C 101.93 147.05 108.06 150.08 113.91 150.05
  C 125.43 150.00 135.58 142.25 137.04 130.40
  A 0.65 0.64 -73.7 0 0 136.69 129.75
  L 123.72 123.32
  Q 123.16 123.04 123.06 123.66
  C 121.99 130.36 115.19 133.15 109.08 131.66
  Q 104.61 130.56 97.76 126.58
  Q 97.33 126.32 97.81 126.21
  Z" fill="#ffffff"></path>
<path d="M 97.76 126.58
  Q 104.61 130.56 109.08 131.66
  C 115.19 133.15 121.99 130.36 123.06 123.66
  Q 123.16 123.04 123.72 123.32
  L 136.69 129.75
  A 0.65 0.64 -73.7 0 1 137.04 130.40
  C 135.58 142.25 125.43 150.00 113.91 150.05
  C 108.06 150.08 101.93 147.05 96.47 144.43
  C 89.81 141.24 86.85 140.20 80.09 141.76
  A 0.07 0.06 -7.2 0 1 80.00 141.70
  L 80.00 126.76
  Q 80.00 126.24 79.50 126.11
  C 64.71 122.37 53.68 112.82 47.51 98.89
  C 35.12 70.93 50.34 34.52 82.73 29.59
  C 100.75 26.84 119.03 36.37 127.95 52.15
  C 136.86 67.94 137.08 87.69 128.17 103.66
  Q 118.33 121.31 97.81 126.21
  Q 97.33 126.32 97.76 126.58
  Z
  M 89.0630 107.6198
  A 29.52 24.55 89.8 0 0 113.5099 78.0143
  A 29.52 24.55 89.8 0 0 88.8570 48.5802
  A 29.52 24.55 89.8 0 0 64.4101 78.1857
  A 29.52 24.55 89.8 0 0 89.0630 107.6198
  Z" fill="#d4967d"></path>
<ellipse ry="24.55" rx="29.52" transform="translate(88.96,78.10) rotate(89.8)" cy="0.00" cx="0.00" fill="#ffffff"></ellipse>
</svg>
