<svg viewBox="0.00 0.00 256.00 256.00" version="1.1" xmlns="http://www.w3.org/2000/svg">
<path d="M 161.52 111.44
  Q 175.62 90.58 180.50 82.24
  Q 182.23 79.28 182.36 75.31
  C 182.61 67.91 175.02 56.19 170.66 50.61
  C 167.41 46.46 162.33 47.86 159.77 51.79
  C 148.88 68.50 138.25 85.35 126.89 101.74
  A 0.40 0.39 -44.7 0 1 126.24 101.74
  Q 117.79 89.10 108.18 77.33
  Q 103.56 71.67 101.24 69.79
  Q 88.46 59.39 71.99 62.26
  A 1.83 1.83 0.0 0 0 70.75 65.02
  L 100.38 113.03
  Q 100.67 113.50 100.12 113.53
  Q 79.33 114.67 58.61 115.88
  C 53.55 116.18 45.33 116.63 48.83 124.18
  Q 56.98 141.79 75.06 146.32
  C 80.76 147.75 87.87 147.51 94.01 147.36
  Q 95.32 147.33 94.62 148.44
  Q 89.74 156.10 85.11 162.86
  Q 79.60 170.90 78.41 174.74
  Q 75.19 185.16 81.25 195.56
  C 83.36 199.17 85.76 203.35 89.54 206.45
  C 95.18 211.07 100.57 204.06 103.30 199.79
  Q 116.01 179.91 128.85 160.11
  Q 129.16 159.64 129.43 159.53
  A 0.64 0.54 -27.5 0 1 130.18 159.70
  Q 137.53 171.40 144.91 183.02
  Q 151.19 192.90 154.95 195.83
  Q 164.03 202.88 176.98 199.51
  C 181.86 198.24 184.47 194.15 181.54 189.47
  Q 167.96 167.73 154.92 145.84
  A 0.34 0.34 0.0 0 1 155.22 145.32
  Q 176.71 145.66 197.92 144.68
  C 200.87 144.54 203.45 143.89 205.99 142.75
  C 210.60 140.69 206.61 131.87 204.42 129.34
  Q 195.32 118.84 182.29 115.16
  C 176.57 113.54 168.63 112.92 161.84 112.14
  Q 161.10 112.06 161.52 111.44" stroke-linecap="butt" fill="none" stroke-width="2.00" stroke="#c5b6f8"></path>
<path d="M 44.64 0.00
  L 211.48 0.00
  C 235.71 2.39 253.72 20.38 256.00 44.64
  L 256.00 211.48
  C 253.58 235.71 235.63 253.73 211.36 256.00
  L 44.51 256.00
  C 19.96 253.23 2.43 235.88 0.00 211.37
  L 0.00 44.52
  C 2.42 20.29 20.37 2.27 44.64 0.00
  Z
  M 161.52 111.44
  Q 175.62 90.58 180.50 82.24
  Q 182.23 79.28 182.36 75.31
  C 182.61 67.91 175.02 56.19 170.66 50.61
  C 167.41 46.46 162.33 47.86 159.77 51.79
  C 148.88 68.50 138.25 85.35 126.89 101.74
  A 0.40 0.39 -44.7 0 1 126.24 101.74
  Q 117.79 89.10 108.18 77.33
  Q 103.56 71.67 101.24 69.79
  Q 88.46 59.39 71.99 62.26
  A 1.83 1.83 0.0 0 0 70.75 65.02
  L 100.38 113.03
  Q 100.67 113.50 100.12 113.53
  Q 79.33 114.67 58.61 115.88
  C 53.55 116.18 45.33 116.63 48.83 124.18
  Q 56.98 141.79 75.06 146.32
  C 80.76 147.75 87.87 147.51 94.01 147.36
  Q 95.32 147.33 94.62 148.44
  Q 89.74 156.10 85.11 162.86
  Q 79.60 170.90 78.41 174.74
  Q 75.19 185.16 81.25 195.56
  C 83.36 199.17 85.76 203.35 89.54 206.45
  C 95.18 211.07 100.57 204.06 103.30 199.79
  Q 116.01 179.91 128.85 160.11
  Q 129.16 159.64 129.43 159.53
  A 0.64 0.54 -27.5 0 1 130.18 159.70
  Q 137.53 171.40 144.91 183.02
  Q 151.19 192.90 154.95 195.83
  Q 164.03 202.88 176.98 199.51
  C 181.86 198.24 184.47 194.15 181.54 189.47
  Q 167.96 167.73 154.92 145.84
  A 0.34 0.34 0.0 0 1 155.22 145.32
  Q 176.71 145.66 197.92 144.68
  C 200.87 144.54 203.45 143.89 205.99 142.75
  C 210.60 140.69 206.61 131.87 204.42 129.34
  Q 195.32 118.84 182.29 115.16
  C 176.57 113.54 168.63 112.92 161.84 112.14
  Q 161.10 112.06 161.52 111.44
  Z" fill="#8a6cf1"></path>
<path d="M 161.84 112.14
  C 168.63 112.92 176.57 113.54 182.29 115.16
  Q 195.32 118.84 204.42 129.34
  C 206.61 131.87 210.60 140.69 205.99 142.75
  C 203.45 143.89 200.87 144.54 197.92 144.68
  Q 176.71 145.66 155.22 145.32
  A 0.34 0.34 0.0 0 0 154.92 145.84
  Q 167.96 167.73 181.54 189.47
  C 184.47 194.15 181.86 198.24 176.98 199.51
  Q 164.03 202.88 154.95 195.83
  Q 151.19 192.90 144.91 183.02
  Q 137.53 171.40 130.18 159.70
  A 0.64 0.54 -27.5 0 0 129.43 159.53
  Q 129.16 159.64 128.85 160.11
  Q 116.01 179.91 103.30 199.79
  C 100.57 204.06 95.18 211.07 89.54 206.45
  C 85.76 203.35 83.36 199.17 81.25 195.56
  Q 75.19 185.16 78.41 174.74
  Q 79.60 170.90 85.11 162.86
  Q 89.74 156.10 94.62 148.44
  Q 95.32 147.33 94.01 147.36
  C 87.87 147.51 80.76 147.75 75.06 146.32
  Q 56.98 141.79 48.83 124.18
  C 45.33 116.63 53.55 116.18 58.61 115.88
  Q 79.33 114.67 100.12 113.53
  Q 100.67 113.50 100.38 113.03
  L 70.75 65.02
  A 1.83 1.83 0.0 0 1 71.99 62.26
  Q 88.46 59.39 101.24 69.79
  Q 103.56 71.67 108.18 77.33
  Q 117.79 89.10 126.24 101.74
  A 0.40 0.39 -44.7 0 0 126.89 101.74
  C 138.25 85.35 148.88 68.50 159.77 51.79
  C 162.33 47.86 167.41 46.46 170.66 50.61
  C 175.02 56.19 182.61 67.91 182.36 75.31
  Q 182.23 79.28 180.50 82.24
  Q 175.62 90.58 161.52 111.44
  Q 161.10 112.06 161.84 112.14
  Z" fill="#ffffff"></path>
</svg>
