<svg viewBox="0 0 128 128" xmlns="http://www.w3.org/2000/svg"><g fill="none" stroke-width="2"><path d="M8.45 0q.22 27.36.66 45.37c.25 9.96 10.94 10.49 18.25 9.84a2.44 2.43 78 0 1 2.52 1.64l11.01 32.37" stroke="#606963"/><path d="M40.89 89.22q-2.96-1.76-3.61-2.42c-3.09-3.17-8.22-3.22-12.4-3.32" stroke="#4d4c6b"/><path d="M24.88 83.48 4.12 65.31" stroke="#472d3b"/><path d="m4.12 65.31-.49-.45a.31.31 0 0 0-.52.22q-.02 8.43.37 16.84c.28 6.16-.04 12.86.28 19.33q.04.65-.77 1.53-.35.38-.05.8l8.07 11.18" stroke="#4d4c6b"/><path d="M11.01 114.76q.02 3.51-.12 6.55-.01.19.08.38.07.16.14.34a1.18 1.18 0 0 1 .02.91q-.55 1.37.2 2.94" stroke="#512a38"/><path d="M11.33 125.88q-2.95.89-3.26 2.12" stroke="#4d4c6b"/><path d="M16.45 0q1.87-.75 1.36 5.83" stroke="#636d67"/><path d="m17.81 5.83.06 6.4" stroke="#beba8c"/><path d="M17.87 12.23q-.26 5.99 1.13 12.36" stroke="#75778f"/><path d="m19 24.59.94 5.04" stroke="#c9c491"/><path d="M19.94 29.63q-.07 2.37 1.96 6.04a.8.8 0 0 0 .65.42l1.92.15q1.38.11 1.28 1.49l-.51 7.18a.74.74 0 0 1-.63.68q-4.06.6-7.87 1.2-1.68.26-1.65 1.52a1.41 1.4-88.2 0 0 1.28 1.37c2.66.23 12.5.49 13.39-2.92q1.64-6.27 6.23-10.16" stroke="#646e6a"/><path d="M35.99 36.6q1.19-.01.84.87" stroke="#606963"/><path d="M36.83 37.47q-4.2 5.67-4.5 7.65-.4 2.75-1.34 5.36c-.93 2.57.65 4.75 1.12 7.25q.28 1.5.98 2.85c1.48 2.86 1.98 6.09 2.97 9.14q.13.39.05.8-.1.53.38.73c.51 1.49.83 2.79 1.54 4.25q1.52 3.12 2.27 6.58.1.47.43.83 1.49 1.64 2 3.7 1.02 4.1 1.05 4.17 2.87 7.42 4.62 9.21c2.15 2.19 4.4 5.64 7.61 6.3q7.36 1.52 14.64-.07c2.2-.48 3.67-2.1 6.12-2.58q.51-.09.85.29l.42.49" stroke="#cdbd82"/><path d="M78.04 104.42q-5.26 3.42-11.84 4.62" stroke="#636d67"/><path d="m66.2 109.04-2.78-.01" stroke="#a5b1b3"/><path d="M63.42 109.03c-7.6-.83-12.34-2.07-16.74-8.13" stroke="#747c9f"/><path d="m46.68 100.9-5.79-11.68" stroke="#959eb6"/><path d="M14.51 7.58q-.62.2-1.01.55-.32.28-.43.86c-1.72 9.46-1.28 19.72.35 29.17q.11.59.69.47.86-.17 1.01-1.05.18-1.08 1.27-1.21l1.94-.22q2.13-.25 1.22-2.19-1.3-2.8-1.75-5.97-1.45-10.3-1.89-20.72a.57.57 0 0 0-1.09-.19q-.09.21-.17.38-.04.09-.14.12" stroke="#cdbd82"/><path d="M14.89 46.6a.5.5 0 0 0 .8.43q.63-.46.9-1.17a.98.97 4.6 0 1 .75-.63l5.06-.93q1.65-.3 1.96-1.95l.55-2.98a1.51 1.51 0 0 0-1.56-1.78l-6.36.33a1.81 1.81 0 0 0-1.71 1.71l-.39 6.97" stroke="#7b88a4"/><path d="M28.33 0 17.81 5.83M34.47 0q1.86.49 4.06.34" stroke="#796c45"/><path d="M38.53.34q-1.88.97-3.87 1.04-.33.01-.29.35.09.68-.76 1.13-6.12 3.17-11.71 7.22-.35.26-.78.35c-1.4.28-1.59 1.61-3.25 1.8" stroke="#8b766d"/><path d="M40.81 0q-.08.2-.22.3" stroke="#551d21"/><path d="M40.59.3q-1.18-.22-2.06.04" stroke="#302948"/><path d="M52.94 0q-1.79.83-3.51 2.86" stroke="#7c4a63"/><path d="M49.43 2.86 26.46 18.95" stroke="#ae736c"/><path d="M26.46 18.95q1.42-2.72 3.71-4.95 1.76-1.7 2.65-3.46C35 6.18 37.8 3.73 40.59.3" stroke="#672849"/><path d="m61.55 0 7.09 7.18" stroke="#949fba"/><path d="M68.64 7.18q.56.9.49 1.36" stroke="#8996b1"/><path d="m69.13 8.54-2.42 1.85" stroke="#9da1ad"/><path d="M66.71 10.39q-3.76-5.81-10.19-7.96-3.58-1.19-6 1.21" stroke="#454c65"/><path d="M50.52 3.64q-.37-.74-1.09-.78" stroke="#9da1ad"/><path d="m64.17 0 4.06 4.22q.35.35.64-.04l1.6-2.09a.71.71 0 0 1 1.02-.11l.24.2a.92.92 0 0 1 .03 1.39c-1.05.94-1.96 3.01-2.67 3.57q-.4.31-.45.04" stroke="#b2bdc7"/><path d="M78.71 0q1.2.2 2.01.79" stroke="#8996b1"/><path d="m80.72.79-3.12.33a2.11 2.1-24.3 0 0-1.33 3.51q.88.96 1.16 2.38.1.49-.18.9-2.37 3.4-4.69 6.83-1.59 2.34-2.72 5.36-1.05 2.82-2.25 5.61a.35.34 36.7 0 1-.58.08c-3.11-3.65 6.17-15.45 8.8-18.08q.35-.34.17-.8-.71-1.88-2.75-1.8" stroke="#7f90aa"/><path d="M73.23 5.11q.9-.97-.57-.69-.49.09-.69.54-.99 2.14-2.84 3.58" stroke="#bbbeba"/><path d="m88.83 0 3.26 5.11q.22.35.64.39l9.55.7q.17.01.22-.15.05-.17.03-.27" stroke="#555b9a"/><path d="M102.53 5.78q.29.55.29 1.28" stroke="#8f93b5"/><path d="M102.82 7.06q-5.41-.09-10.75.32c-1.46.11-2.68.76-4.09 1.19q-.5.15-.84.55-.22.26-.5.26-.59.02-.73-.54-.19-.71.2-1.2a.48.47 32.8 0 1 .59-.12q.2.11.43.1-.21-.2-.5-.29-.48-.14-.49-.64-.04-1.31-.72-2.38-.16-.24-.02-.49.18-.3-.02-.45.12.62-.23.99-.38.4-.77.02l-.25-.25q-.7-.69-.69.29.01.63.37 1.23.3.51-.18.85l-2.68 1.88q-.56.39-.74-.27-.35-1.27-1.31-1.97a1.57 1.57 0 0 1 .37-2.73Q83 1.98 80.72.79" stroke="#61739d"/><path d="m91.85 0 9.33.16" stroke="#2b2a54"/><path d="m101.18.16 1.35 5.62" stroke="#7976ab"/><path d="M101.25 0q-.04.08-.07.16" stroke="#65636f"/><path d="m102.79 0 1.46 6.04" stroke="#6664a4"/><path d="m104.25 6.04.07 1.23" stroke="#8f93b5"/><path d="M104.32 7.27q-.44.89-1.5-.21" stroke="#858eae"/><path d="m119.39 0-1.81 8.71" stroke="#817692"/><path d="m117.58 8.71-13.33-2.67" stroke="#424994"/><path d="m128 5.54-14.11 54.31" stroke="#80755d"/><path d="M113.89 59.85q-1.01-.48-1.31-1.51" stroke="#e0cc9b"/><path d="M112.58 58.34q.59-1.07.71-2.68" stroke="#9c939d"/><path d="m113.29 55.66 1.56-6.2a.98.97 33.8 0 0-.17-.84q-1.54-2.08-.49-4.47.18-.4.21-.84l1.3-16.78" stroke="#c5bcac"/><path d="M115.7 26.53c.28-2.67 1.15-8.3-.37-10.35q-2.78-3.79-8.62-4.43" stroke="#80755d"/><path d="M106.71 11.75q-1.53-.7-2.78-.57" stroke="#c5bcac"/><path d="M103.93 11.18q-6.94-1.56-14.99 1.53" stroke="#847861"/><path d="M88.94 12.71q-.92-.18-2.1 1.12c-.71.79-.76 1.58-1.07 2.58q-.15.49-.64.65-2.22.75-2.89 2.92-.18.57-.73.36-.91-.34-1.36-1.2-.32-.62.33-.86 3.53-1.33 5.66-4.44.28-.41.1-.87-.27-.66-.81-1.14a.97.96-64.2 0 1-.31-.9q.12-.64.72-.8.16-.04.27.08.22.24.06.52-.36.65.65.19c2.55-1.15 4.92-2.54 7.75-2.71q4.96-.32 9.93.27.09.44.75.43 5.45-.04 11.88 2.32a.23.23 0 0 0 .29-.1q.38-.68.13-1.27" stroke="#a0a09c"/><path d="M117.55 9.86q-.13-.55.03-1.15" stroke="#aaa5a3"/><path d="m26.46 18.95-3.25 2.45" stroke="#897e93"/><path d="M23.21 21.4 19 24.59" stroke="#968072"/><path d="M104.32 7.27q1.15.53 2.3.5c2.08-.05 4.42.18 6.35.87q2.24.8 4.58 1.22" stroke="#61739d"/><path d="m88.94 12.71 3.45 3.86a2.81 2.8-55.1 0 1 .51 2.9q-1.77 4.46-5.09 8.34" stroke="#3b465b"/><path d="M87.81 27.81q0-1.37.94-2.26.37-.35.37-.87v-.43q.01-2.84-1.71-.57-2.95 3.89-4.94 8.4a1.11 1.1-60.9 0 1-1.63.47q-.88-.6-.99-1.56a.46.4 26.7 0 0-.1-.24l-1.9-2.4a.54.54 0 0 0-.94.18l-.19.65q-.14.48.25.78.93.72.73 1.88" stroke="#8a9ab3"/><path d="m77.7 31.84-1.01-.24q-.52-.12-.58.41l-.8 7.46q-.05.49.19.92 2.65 4.78 6.74 6.31" stroke="#3b465b"/><path d="M82.24 46.7q.43 1.22-1.51.68-.68-.19-1.26-.76c-7.37-7.27-13.8-15.67-19.87-24.31" stroke="#a49676"/><path d="M59.6 22.31q3.23-2.59 5.38-5.99 1.84-2.92 3.43-4.72 2.65-3 4.82-6.49" stroke="#939ba6"/><path d="M81.29 13.02a.34.34 0 0 1-.58.21q-.58-.56-1.35-.73a.59.59 0 0 0-.63.89q2.34 3.83 3.81 1.17a2.59 2.53-7.5 0 1 .44-.56q.97-.92.31-2.04a.77.76 66.6 0 0-.85-.34q-1.03.29-1.15 1.4" stroke="#858eae"/><path d="M71.13 35c.62.49 1 1.38 1.75 1.78a.82.82 0 0 0 1.21-.67q.49-8.75 2.59-17.1.25-.98-.29-1.47a.47.47 0 0 0-.73.14q-3.46 6.77-3.79 14.37a.38.38 0 0 1-.55.32l-2.1-1.11q-1.08-.58-.63.56.69 1.72 2.54 3.18M81.09 25.16q-.81-1.41-2.52-1.31a.56.56 0 0 0-.26 1.04q1.99 1.18 2.97 3.34a.62.62 0 0 0 1.06.12q2.1-2.81 2.87-6.24a.32.32 0 0 0-.58-.25l-2.22 3.35q-.69 1.06-1.32-.05" stroke="#8a9ab3"/><path d="M66.71 10.39q-.58 1.06-1.32 1.37-.5.21-.86-.18l-.69-.75q-.42-.47-.82.03l-7.15 8.9q-.37.45-.95.45l-3.63-.06q-.95-.02-.94-.97l.17-15.54" stroke="#77756e"/><path d="M59.6 22.31q-2.75-1.57-7.36-.5c-1.7.4-3.6-.35-5.71.64q-5.02 2.37-10.21 3.78a1.45 1.44-19.2 0 0-.95 1.96q1.69 4 3.63 8.31c.42.95 1.39 2.09 1.54 3.53a1.3 1.29-71.4 0 0 .4.81c1.54 1.47 3.87 7.43 4.39 9.52q.53 2.13 1.02 4.28c.36 1.59 1.34 2.45 2.27 3.72q.32.43.82.63.71.28 1.07.95.22.39.62.59 2.32 1.16 4.65 2.31 2.36 1.16 4.68 1.27 3.26.17 6.54-.04.59-.03.93-.51.3-.42.82-.43a3.24 2.58 49 0 1 1.13.21q.85.34 1.75.3.37-.02.65-.26 2.73-2.45 4.75-5.49.26-.4.7-.6.42-.19.78-.6" stroke="#e0c486"/><path d="M78.51 56.69q.59.74.51 1.53" stroke="#d7d2b8"/><path d="M79.02 58.22q-.36-.56-.81-.52-.32.03-.61.5-2.13 3.43-4.88 6.38c-1.34 1.45-2.93 1.7-4.79 2.14" stroke="#98a1a7"/><path d="m67.93 66.72-.81.27q-.48.16-.98.13-.93-.06-1.46.63" stroke="#bbbeba"/><path d="M64.68 67.75c-8.58.31-15.54-.14-18.84-9.56q-4.11-11.71-9.11-23.07" stroke="#737067"/><path d="m36.73 35.12-3.95-8.02a.44.44 0 0 1 .14-.56l14.63-10.26q.38-.27.46-.73.4-2.32-.22-5.12" stroke="#77756e"/><path d="M47.79 10.43q1.54-1.25.81-4.34a1.13 1.13 0 0 0-1.99-.43q-.53.67-1.39 1-.46.18-.76.56c-2.49 3.09-6.23 4.82-9.23 7.31-3.58 2.97-7.16 4.91-10.76 7.56q-.23.17-.7.11-.34-.04-.4-.38-.03-.2-.16-.42" stroke="#dccb95"/><path d="m58.08 20.65.95.66a.27.27 0 0 0 .38-.06l.08-.12a9.1.8-54.8 0 0 4.59-7.9l-.08-.06a9.1.8-54.8 0 0-5.9 6.98l-.08.12a.27.27 0 0 0 .06.38" stroke="#98a1a7"/><path d="m47.79 10.43-27.85 19.2" stroke="#84764d"/><path d="m128 86.97-14.11-27.12" stroke="#776e56"/><path d="M36.73 35.12q.55 1.1-.74 1.48" stroke="#1b1c1f"/><path d="m103.93 11.18 2.81 15.17q.18.95-.79.87-3.86-.31-5.32 2.19-3.71 6.37-4.45 13.77a.63.62 89.5 0 1-.54.56l-1.63.19" stroke="#60626c"/><path d="M94.01 43.93q-5.83-.1-11.77 2.77" stroke="#886e3b"/><path d="m77.7 31.84 3.66 4.59a.63.63 0 0 0 1.02-.06l5.43-8.56" stroke="#6e7278"/><path d="M106.71 11.75q-.73-.4-.95.67v.06l2.67 14.37a.75.75 0 0 0 .66.61l5.88.61a.54.53-83.3 0 0 .58-.46l.15-1.08" stroke="#5c5f68"/><path d="M113.29 55.66v-7.87a.67.67 0 0 0-.29-.55q-.93-.65-.91.8" stroke="#787da8"/><path d="m112.09 48.04-.23-3.33" stroke="#cda064"/><path d="M111.86 44.71q1.46-3.7.32-6.14" stroke="#c5bcac"/><path d="m112.18 38.57 1.19-7.04q.09-.57-.4-.88l-2.08-1.32a.12.11-32.1 0 1 .05-.21q.32-.04.4-.4a.34.34 0 0 0-.24-.39q-.27-.08-.4-.34-.39-.77-.54.53c-.34 2.84-1.55 5.59-2.15 8.22q-.74 3.27-2.26 6.3a.42.42 0 0 1-.62.16q-.35-.24-.36-.74" stroke="#62a1a5"/><path d="m104.77 42.46 3.86-12.5q.52-1.67-1.23-1.56l-1.39.1q-1.46.09-1.76 1.52-1.45 6.88-3.64 13.07-.43 1.23-.24 2.45" stroke="#5d609d"/><path d="M100.37 45.54q.12.69-.22 1.07-.35.41-.74.03-.99-.94-2.34-1.11-.56-.06-.84-.55-.65-1.12-2.22-1.05" stroke="#c9b286"/><path d="m100.37 45.54-.01.48a1.64 1.64 0 0 0 2.57 1.39l3.13-2.16" stroke="#856c6c"/><path d="M106.06 45.25q1.6.64.65 1.36" stroke="#8aad74"/><path d="m106.71 46.61 1.6 4.11" stroke="#f5ac33"/><path d="M108.31 50.72q-.59-.12-.87-.57-.19-.3-.55-.27-.73.07-1.24-.48-.32-.35-.76-.19-2.26.8-4.58.73" stroke="#e4c275"/><path d="m100.31 49.94-9.46.33" stroke="#846b37"/><path d="M90.85 50.27q-4.64-.46-9.44 2.89-1.71 1.19-2.9 3.53" stroke="#e8cd87"/><path d="M51.31 54.83q.72 1.54 2.25 2.19c2.86 1.21 5.17 2.52 8.38 1.92 3.21-.6 11.34-3.62 11.37-7.94q.03-6.25-3.92-10.96-.32-.38-.38-.87-.07-.45-.38-.75-.56-.53-.61-.6-4.38-5.85-8.43-11.91c-3.27-4.89-14.43.11-18.49 2.34a1.53 1.52-24.4 0 0-.7 1.86c2.02 5.6 3.93 11.43 6.57 16.85q1.34 2.73 2.5 5.53.36.85 1.25 1.58.38.31.59.76" stroke="#e39146"/><path d="m46.93 27.38-2.71 1.06a2.43 2.43 0 0 0-1.4 3.07q2.51 7.07 5.38 14.5c.85 2.21 2.36 3.89 3.42 6.12q.82 1.73 3.87 3.13c2.29 1.05 4.8.62 7.36.98 1.29.18 2.2-.29 3.46-.45a1.06 1.06 0 0 0 .78-.5c2.08-3.44 3.85-5.69 2.71-10.32q-1.15-4.65-5.74-9.99" stroke="#767f56"/><path d="M64.06 34.98q-2.14-3.43-4.53-6.67c-1.27-1.73-2.06-3.36-4.52-3.26q-3.85.16-8.08 2.33" stroke="#a06e6e"/><path d="m64.06 34.98-6.17-7.53a1.73 1.7 78.5 0 0-.79-.53q-.41-.14-.67-.35a2.56.51 40 0 0-1.95-1.07l-7.55 1.88" stroke="#418a8c"/><path d="M112.18 38.57c.03 2.75-.96 4.05-2.78 6.55" stroke="#86b79a"/><path d="M109.4 45.12q-.3.43-.55.98-.32.69-.73.73-.51.04-1.41-.22" stroke="#8e9b52"/><path d="M106.06 45.25q.52-.86.06-1.36-.38-.43-1.01-.3-.49.09-.6-.39-.08-.38.26-.74" stroke="#1e5b8b"/><path d="M64.68 67.75q1.49-.29 1.41.75-.38 4.42-.36 7.27 0 .51-.5.49l-5.77-.24q-.54-.02-.78.46l-1.49 2.93" stroke="#5f656b"/><path d="M57.19 79.41c-7.09-2.13-11.22-6.77-15-12.84q-1.56-2.5-2.98-6.63c-1.35-3.94-5.2-9.18-3.02-12.43q2.48-3.72 2.45-5.6" stroke="#65636f"/><path d="m38.64 41.91-1.81-4.44" stroke="#846b37"/><path d="M38.64 41.91q-3.84 3.47-4.27 8.12c-.2 2.14 2.01 5.87 2.61 7.8.54 1.75 1.94 3.42 1.8 5.62-.15 2.19 1.35 3.12 2.14 4.9q.37.84.89 1.62a1.75 1.72-63.7 0 1 .3.91c.06 1.83 1.18 3.29 1.66 4.62q3.06 8.51 8.34 14.66" stroke="#d2b68d"/><path d="m52.11 90.16 6.71 7.14" stroke="#886e3b"/><path d="M58.82 97.3q2.83 4.37 9.9 3.6 1.81-.19.78-.8" stroke="#edc87b"/><path d="M69.5 100.1q3.36-.3 6.28-1.59" stroke="#886e3b"/><path d="M75.78 98.51q.53.21.7-.02" stroke="#ccb989"/><path d="M76.48 98.49q-.26.21-.39.4-.35.55.3.53 3.26-.09 6.18-1.5c4.22-2.03 10.02-11.29 12.46-15.41q.13-.23.09-.71-.04-.53.22-.99.92-1.66.38-3.64-.11-.41-.5-.55-.25-.1-.08-.44a.62.59 40.1 0 0-.07-.67c-1.99-2.42-2.64-5.34-4.26-7.71q-2.72-3.97-5.7-9.35-.37-.66-1.07-.17" stroke="#e8cd87"/><path d="m84.04 58.28-1.4-2.47" stroke="#846b37"/><path d="M82.64 55.81q.65-2.23 2.38-2.9.54-.2.86.28l11.26 16.99a1.54 1.54 0 0 0 2.68-.22q1.25-2.76 3.31-5.88.9-1.35 1.44-3.36.15-.53 1.05-.27" stroke="#e8cd87"/><path d="m105.62 60.45 2.86 7.95" stroke="#e4c275"/><path d="M108.48 68.4q-.27-.07-.51 0-.2.06-.37.31c-5.17 7.63-10.13 15.8-16 22.89q-2.72 3.28-5.46 6.54-1.33 1.58-6.54 5.55" stroke="#af9477"/><path d="m79.6 103.69-1.56.73" stroke="#886e3b"/><path d="M111.86 44.71q-2.09 1.39-2.46.41" stroke="#f1b659"/><path d="M57.19 79.41q-.05.34-.44.79" stroke="#acb1c1"/><path d="M56.75 80.2c-6.38-1.37-8.77-4.71-12.85-8.93a.28.28 0 0 0-.46.31l8.67 18.58" stroke="#686673"/><path d="m112.09 48.04-1.29 7.28" stroke="#a37755"/><path d="M110.8 55.32q-1.71-2.12-2.49-4.6" stroke="#e7af53"/><path d="m112.58 58.34-1.78-3.02" stroke="#928d97"/><path d="M128 109.62q-.4-.03-.17.33" stroke="#776e56"/><path d="M127.83 109.95q-.92-.45-.69 1.65" stroke="#c9c5a1"/><path d="M127.14 111.6q-.14-3.28-2.16-5.59" stroke="#d6765c"/><path d="m124.98 106.01-2.77-6.58" stroke="#78708c"/><path d="m122.21 99.43-9.75-21.94" stroke="#7e755e"/><path d="m112.46 77.49-1.18-2.31q-.21-.42-.22-.89-.09-3.1-1.89-5.16" stroke="#cfc7a1"/><path d="M109.17 69.13q-.3-.18-.69-.73" stroke="#a29797"/><path d="M105.62 60.45q-.97-.87-1.04-1.67" stroke="#dbd0a7"/><path d="m104.58 58.78-4.27-8.84" stroke="#776e56"/><path d="m90.85 50.27-3.79 1.5q-.55.22-.22.71l10.39 15.29q1.24 1.82 2.42-.04 2.17-3.42 4.72-7.71.17-.27.18-.59.01-.35.03-.65M82.64 55.81q-1.18-1.42-2.56.37-.29.39-.16.85c2.91 10.33 5.13 20.68 7.16 30.74q.57 2.82 2.21.45l4.16-6.03q1.6-2.31.32-4.82l-9.73-19.09" stroke="#7b7969"/><path d="m76.48 98.49 4.05-2.59" stroke="#c3c7bb"/><path d="m80.53 95.9 4.75-3.47a1.31 1.29-12.5 0 0 .52-.8q.37-1.78-.15-4.63-1.53-8.42-3.51-16.69a43.5 37.38 78.4 0 1-1.05-6.06q-.06-.56-2.07-6.03" stroke="#a0aaa9"/><path d="M80.53 95.9q-3.24 1.31-3.66-1.16-.33-1.92-1.5-3.13-1.3-1.34-1.47-1.73-.45-1.05-.41-2.31a2.51 2.22-89.1 0 0-2.23-2.6q-.66 0-1.06-.4-.18-.18-.4-.32-.55-.33-.92.13-.27.34-.71.32l-7.83-.28a.93.91 77 0 1-.78-.5L58.06 81a1.09 1.09 0 0 1 .07-1.12l1.61-2.33q.35-.5.96-.48l12.25.41q1.37.05 1.55-1.32.17-1.28-.1-2.58-.2-.96.79-.95l.95.01a1.03 1.02 87.8 0 1 1.01.94c.28 3.4.34 6.73 1.63 9.86q.97 2.36 2.12 4.48.54.99.79-.1.69-2.9-.23-6.09-.27-.92-.37-2.01c-.16-1.74-.86-3.39-1.03-4.98q-.3-2.9-1.15-5.71-.14-.48-.63-.6-2.03-.5-3.47.85-.36.34-.86.34h-1.2q-.59 0-.64.59l-.44 4.64a.96.96 0 0 1-.51.76q-1.33.69-2.83.48-.48-.06-.48-.55l.08-8.82" stroke="#8396ab"/><path d="m4.12 65.31.73 33.62a.5.5 0 0 0 1 .07q.13-.83.98-1.18.55-.22.95-.64c2.62-2.66 4.95-5.37 7.9-7.69q2.75-2.16 5.42-4.39.88-.73 1.96-.75.47-.01.86-.26l.96-.61" stroke="#7c628e"/><path d="M46.68 100.9q-.61-.12-.5 1.35" stroke="#615fa7"/><path d="m46.18 102.25-2.99-6.51a.74.73 67 0 0-.93-.38q-.93.37-2.05.43" stroke="#9c9eb5"/><path d="M40.21 95.79q-2.23-3.77-5.95-6.54-.39-.29-.88-.33-.57-.05-1.08-.48-.31-.25-.7-.33l-1.22-.23" stroke="#875e8b"/><path d="M30.38 87.88q2.22-1.06 5.02.42 1.95 1.03.73-.81-.12-.19-1.17-.6c-2.77-1.1-5.05-2.62-8.19-.55q-.39.26-.86.27-1.78.04-2.87 1.2c-3.2 3.43-6.12 5.01-8.21 8.22-1.21 1.85-3.14 3.21-3.72 5.9a.54.53-8.5 0 1-.28.37c-2.2 1.13-.41 4.79.94 5.77q1.35.99 1.73 1.9.13.33.34.61 1.07 1.39 1.63 3.03.1.3.38.45.13.08.28.07.33-.02.51.27 1.05 1.74 2.21 3.39.63.91 2.43 2.55 2.76 2.53 3.55 6.34.09.43-.35.44h-.43q-.15 0-.06.12.29.35 0 .76" stroke="#686aab"/><path d="M21.33 128q-1.15-2.09-3.05-3.81a1.29 1.29 0 0 0-1.6-.11L10.97 128M11.33 125.88l4.34-3.32q1.15-.88.21-1.99l-4.87-5.81" stroke="#875e8b"/><path d="M75.78 98.51q.86-.62.29-1.56-2.95-4.83-5.36-9.58a1.43 1.42 78.9 0 0-1.14-.77l-10.23-.87a1.04 1.04 0 0 1-.91-.71l-1.68-4.82" stroke="#62696f"/><path d="M109.17 69.13q-.15 1.86-1.33 2.82-.38.31-.49.79-.31 1.36-1.08 2.52-2.18 3.27-4.66 6.29-.31.38-.43.86-.37 1.47-1.72 2.21-.42.23-.58.68c-.6 1.73-2.18 2.8-3.19 4.33-2.02 3.04-4.84 5.24-6.96 8.26-1.19 1.7-2.92 2.54-4.18 4.31-.69.97-1.39 1.35-2.3 2.01a.92.91-19.7 0 0-.37.77q.08 1.59-1.31 2.1" stroke="#9b99a4"/><path d="M80.57 107.08q1.23-3.59-.97-3.39" stroke="#46445d"/><path d="M112.46 77.49q-.85-.41-1.59.64-11.4 16.18-22.95 32.03a1.45 1.44 45.8 0 0-.02 1.68l3.31 4.85q.44.63 1.08.21l3.57-2.33a.78.77 52.1 0 1 1 .13l11.38 12.56q.31.34-.15.34-.53.01-.72.4" stroke="#77776b"/><path d="M105.25 128q.05-.8-.49-.13" stroke="#737367"/><path d="m104.76 127.87.13-.51q.1-.4-.16-.72c-2.61-3.31-4.92-7.83-8.14-10.47q-.4-.33-.85-.08-3.18 1.75-6.79 5.12-2.83 2.63-.7 6.79" stroke="#77789e"/><path d="M86.62 128c-1.58-5.02-1.76-6.15 3.41-9.99q.21-.16.06-.38l-3.82-5.66a.28.28 0 0 0-.45-.01L73.74 128" stroke="#707063"/><path d="m61.08 128 9.97-9.71q.59-.58-.14-.98-.1-.06-.64.14" stroke="#9aa0a9"/><path d="M70.27 117.45q.17-.46.57-.85" stroke="#e0b160"/><path d="m70.84 116.6.3.28q.37.36.77.03l.58-.48" stroke="#84839f"/><path d="M72.49 116.43q2.26-.99 3.09-4.22" stroke="#b5b7b3"/><path d="m75.58 112.21 4.99-5.13" stroke="#737367"/><path d="M69.5 100.1q-5.13.08-10.68-2.8" stroke="#847861"/><path d="M122.21 99.43q-1.15-.02-1.88 1.4" stroke="#1f2055"/><path d="M120.33 100.83q.13-5.64-1.91-4.81" stroke="#8b723e"/><path d="M118.42 96.02q.39-2.88-1.06-5.72a1.24 1.23 86.9 0 0-.69-.62q-.46-.17-.95-.62" stroke="#26265b"/><path d="M115.72 89.06q.18-.54.02-.95-.14-.36-.66-.47-1.07-.25-2-.04" stroke="#8b723e"/><path d="M113.08 87.6q-1.24-.38-1.71.54-4.6 9-9.87 17.84a1.32 1.32 0 0 0 .27 1.67l19.51 16.85q.34.3.35.74 0 .17-.02.35" stroke="#71756b"/><path d="M121.61 125.59q-.22.46-1.39.32" stroke="#64725b"/><path d="M120.22 125.91q-2.58-.76-2.49 2.09" stroke="#87794e"/><path d="m30.38 87.88-2.81.24" stroke="#6d4879"/><path d="M27.57 88.12q-3.09 1.32-1.65 2.29" stroke="#8288a3"/><path d="m25.92 90.41-.42-.03q-.47-.04-.83.27-1.68 1.42-3.35 2.87c-2.76 2.4-4.67 5.82-6.88 8.74a1.93 1.93 0 0 0 .04 2.39l3.79 4.59" stroke="#5f4576"/><path d="M18.27 109.24q.35.93 1.02 1.67" stroke="#8288a3"/><path d="M19.29 110.91q3.58 3.22 4.78 5.66" stroke="#6d4879"/><path d="M24.07 116.57q.3 1.77 2.4.64" stroke="#999dc1"/><path d="M26.47 117.21q.38 4.04 4.74 7.64.06.05 1.14 1.2.71.76 2.19 1.54" stroke="#5d527a"/><path d="m34.54 127.59-1.05.41" stroke="#333659"/><path d="M113.08 87.6c-2.46 4.9-5.04 9.69-7.58 14.58q-.5.96-.13 1.51.4.6 1.49.97" stroke="#d7c282"/><path d="m106.86 104.66 15.58 12.49q1.55 1.24 2.67-.4 1.33-1.96 2.03-5.15" stroke="#c97669"/><path d="M127.83 109.95q-.31 2.33.17 4.44" stroke="#6a6e63"/><path d="M128 126.07q-1.92-.61-2.14.2" stroke="#7e819f"/><path d="M125.86 126.27q-.63 0-1.48-.31-.6-.22-.45.41l.33 1.38" stroke="#daaf60"/><path d="M124.26 127.75q-.19-.19-.48.01" stroke="#7e819f"/><path d="M123.78 127.76q.23-.62.06-1.04-.23-.57-.75-.25-.44.27-.94.15a.36.36 0 0 1-.16-.61q.26-.25.01-.51-.18-.18-.3-.02-.05.05-.09.11" stroke="#afc29f"/><path d="M115.72 89.06 108.67 104" stroke="#8c7372"/><path d="M108.67 104q-1.23.29-1.81.66" stroke="#e3733c"/><path d="M40.21 95.79q-2.36 2.63-5.47-.33-2.84-2.72-5.89-5.19a.63.62-27 0 0-.41-.13q-.39.01-.7-.27-.27-.23-.07-.53.49-.72-.1-1.22" stroke="#a07c83"/><path d="M46.18 102.25q-2.16 1.4-1.75 2.1" stroke="#7a7d9f"/><path d="M44.43 104.35q-.75-.6-1.48-.13-.64.41-.31.8" stroke="#cdd1cb"/><path d="m42.64 105.02-7.73 4.91" stroke="#d7ab5f"/><path d="M34.91 109.93q-.54-1.8-2.28.11" stroke="#cdd1cb"/><path d="m32.63 110.04-4.33-3.7a1.76 1.76 0 0 0-1.78-.3q-4.31 1.69-7.23 4.87" stroke="#a07c83"/><path d="m18.27 109.24 13.14-7.98q.43-.26.41-.76-.06-1.08-1.05-1.46a1.5 1.49 88.3 0 1-.8-.76c-1.06-2.3-1.12-6.64-4.05-7.87" stroke="#937980"/><path d="m118.42 96.02-4.72 11.69" stroke="#8c7372"/><path d="M113.7 107.71q-3.01-.96-5.03-3.71" stroke="#7e2759"/><path d="m120.33 100.83-3.65 9.51" stroke="#856c6c"/><path d="m116.68 110.34-2.98-2.63" stroke="#e3733c"/><path d="M124.98 106.01c2.31 3.7-.13 6.53-1.33 10.16a.27.26 34.8 0 1-.46.08q-2.63-3.42-6.51-5.91" stroke="#772153"/><path d="m63.42 109.03 9.07 7.4" stroke="#7072a4"/><path d="m70.84 116.6-7.33-4.22" stroke="#9c6b51"/><path d="M63.51 112.38q-1.54-.59-2.86-.27-.81.2-.03.5 2.83 1.08 2.09 4.1-.12.48.08.94l.67 1.52q.39.9-.37.28l-18.66-15.1" stroke="#9291bc"/><path d="M75.58 112.21q-.94 1.25-1.94 1.91-.42.29-.88.06-4.04-1.96-6.56-5.14" stroke="#60626c"/><path d="M63.51 112.38q.12 2.15 1.48 3.7.33.37.41.87.46 2.71-1.82 4.13-.4.25-.77-.04l-20.17-16.02" stroke="#eebf7d"/><path d="M70.27 117.45 59.13 128" stroke="#b2895b"/><path d="m54.67 128-19.76-18.07" stroke="#eebf7d"/><path d="m32.63 110.04-8.56 6.53M51.96 128l-5.86-5.01q-.41-.35-.64.14-.45.89-1.4 1.02-.52.07-.94.37L38.18 128" stroke="#b891a0"/><path d="M36.69 128q.01-.16-.2-.29" stroke="#7e7e80"/><path d="m36.49 127.71 7.46-4.8q1.43-.92.19-2.07l-9.49-8.79a.94.93 47.6 0 0-1.2-.06l-6.98 5.22" stroke="#a89aa2"/><path d="M36.49 127.71q-.96-.33-1.95-.12" stroke="#42333a"/><path d="M104.76 127.87q-1.38-.32-2.7-.19" stroke="#222357"/><path d="m102.06 127.68-5.12-7.84q-.33-.51-.87-.23l-5.95 3.04q-.53.27-.61.86-.51 3.87 1.6 4.49" stroke="#64738f"/><path d="M102.06 127.68q-.43.14-.61.32" stroke="#606f58"/><path d="m99.44 128-3.61-5.44q-.26-.39-.7-.2l-2.62 1.19a1.01 1 67.4 0 0-.52 1.28l1.22 3.17" stroke="#976e58"/><path d="M123.78 127.76q-.08.12-.15.24" stroke="#717e90"/><path d="m120.14 128 .08-2.09" stroke="#c6c682"/><path d="m125.86 126.27.11.98q.04.39-.34.48-.78.19-1.37.02" stroke="#9c6b51"/></g><path d="M0 0h8.45q.22 27.36.66 45.37c.25 9.96 10.94 10.49 18.25 9.84a2.44 2.43 78 0 1 2.52 1.64l11.01 32.37q-2.96-1.76-3.61-2.42c-3.09-3.17-8.22-3.22-12.4-3.32L4.12 65.31l-.49-.45a.31.31 0 0 0-.52.22q-.02 8.43.37 16.84c.28 6.16-.04 12.86.28 19.33q.04.65-.77 1.53-.35.38-.05.8l8.07 11.18q.02 3.51-.12 6.55-.01.19.08.38.07.16.14.34a1.18 1.18 0 0 1 .02.91q-.55 1.37.2 2.94-2.95.89-3.26 2.12H0V0Z" fill="#171718"/><path d="M8.45 0h8q1.87-.75 1.36 5.83l.06 6.4q-.26 5.99 1.13 12.36l.94 5.04q-.07 2.37 1.96 6.04a.8.8 0 0 0 .65.42l1.92.15q1.38.11 1.28 1.49l-.51 7.18a.74.74 0 0 1-.63.68q-4.06.6-7.87 1.2-1.68.26-1.65 1.52a1.41 1.4-88.2 0 0 1.28 1.37c2.66.23 12.5.49 13.39-2.92q1.64-6.27 6.23-10.16 1.19-.01.84.87-4.2 5.67-4.5 7.65-.4 2.75-1.34 5.36c-.93 2.57.65 4.75 1.12 7.25q.28 1.5.98 2.85c1.48 2.86 1.98 6.09 2.97 9.14q.13.39.05.8-.1.53.38.73c.51 1.49.83 2.79 1.54 4.25q1.52 3.12 2.27 6.58.1.47.43.83 1.49 1.64 2 3.7 1.02 4.1 1.05 4.17 2.87 7.42 4.62 9.21c2.15 2.19 4.4 5.64 7.61 6.3q7.36 1.52 14.64-.07c2.2-.48 3.67-2.1 6.12-2.58q.51-.09.85.29l.42.49q-5.26 3.42-11.84 4.62l-2.78-.01c-7.6-.83-12.34-2.07-16.74-8.13l-5.79-11.68-11.01-32.37a2.44 2.43 78 0 0-2.52-1.64c-7.31.65-18 .12-18.25-9.84Q8.67 27.36 8.45 0Zm6.06 7.58q-.62.2-1.01.55-.32.28-.43.86c-1.72 9.46-1.28 19.72.35 29.17q.11.59.69.47.86-.17 1.01-1.05.18-1.08 1.27-1.21l1.94-.22q2.13-.25 1.22-2.19-1.3-2.8-1.75-5.97-1.45-10.3-1.89-20.72a.57.57 0 0 0-1.09-.19q-.09.21-.17.38-.04.09-.14.12Zm.38 39.02a.5.5 0 0 0 .8.43q.63-.46.9-1.17a.98.97 4.6 0 1 .75-.63l5.06-.93q1.65-.3 1.96-1.95l.55-2.98a1.51 1.51 0 0 0-1.56-1.78l-6.36.33a1.81 1.81 0 0 0-1.71 1.71l-.39 6.97Z" fill="#a8bbae"/><path d="M16.45 0h11.88L17.81 5.83Q18.32-.75 16.45 0Z" fill="#1e1e20"/><path d="M28.33 0h6.14q1.86.49 4.06.34-1.88.97-3.87 1.04-.33.01-.29.35.09.68-.76 1.13-6.12 3.17-11.71 7.22-.35.26-.78.35c-1.4.28-1.59 1.61-3.25 1.8l-.06-6.4L28.33 0Z" fill="#d3b96a"/><path d="M34.47 0h6.34q-.08.2-.22.3-1.18-.22-2.06.04-2.2.15-4.06-.34Z" fill="#1e1e20"/><path d="M40.81 0h12.13q-1.79.83-3.51 2.86L26.46 18.95q1.42-2.72 3.71-4.95 1.76-1.7 2.65-3.46C35 6.18 37.8 3.73 40.59.3q.14-.1.22-.3Z" fill="#8c1c21"/><path d="M52.94 0h8.61l7.09 7.18q.56.9.49 1.36l-2.42 1.85q-3.76-5.81-10.19-7.96-3.58-1.19-6 1.21-.37-.74-1.09-.78Q51.15.83 52.94 0Z" fill="#6b78a4"/><path d="M61.55 0h2.62l4.06 4.22q.35.35.64-.04l1.6-2.09a.71.71 0 0 1 1.02-.11l.24.2a.92.92 0 0 1 .03 1.39c-1.05.94-1.96 3.01-2.67 3.57q-.4.31-.45.04L61.55 0Z" fill="#bdc6d0"/><path d="M64.17 0h14.54q1.2.2 2.01.79l-3.12.33a2.11 2.1-24.3 0 0-1.33 3.51q.88.96 1.16 2.38.1.49-.18.9-2.37 3.4-4.69 6.83-1.59 2.34-2.72 5.36-1.05 2.82-2.25 5.61a.35.34 36.7 0 1-.58.08c-3.11-3.65 6.17-15.45 8.8-18.08q.35-.34.17-.8-.71-1.88-2.75-1.8.9-.97-.57-.69-.49.09-.69.54-.99 2.14-2.84 3.58.07-.46-.49-1.36.05.27.45-.04c.71-.56 1.62-2.63 2.67-3.57a.92.92 0 0 0-.03-1.39l-.24-.2a.71.71 0 0 0-1.02.11l-1.6 2.09q-.29.39-.64.04L64.17 0Z" fill="#a6b3bd"/><path d="M78.71 0h10.12l3.26 5.11q.22.35.64.39l9.55.7q.17.01.22-.15.05-.17.03-.27.29.55.29 1.28-5.41-.09-10.75.32c-1.46.11-2.68.76-4.09 1.19q-.5.15-.84.55-.22.26-.5.26-.59.02-.73-.54-.19-.71.2-1.2a.48.47 32.8 0 1 .59-.12q.2.11.43.1-.21-.2-.5-.29-.48-.14-.49-.64-.04-1.31-.72-2.38-.16-.24-.02-.49.18-.3-.02-.45.12.62-.23.99-.38.4-.77.02l-.25-.25q-.7-.69-.69.29.01.63.37 1.23.3.51-.18.85l-2.68 1.88q-.56.39-.74-.27-.35-1.27-1.31-1.97a1.57 1.57 0 0 1 .37-2.73Q83 1.98 80.72.79 79.91.2 78.71 0Z" fill="#6b78a4"/><path d="M88.83 0h3.02l9.33.16 1.35 5.62q.02.1-.03.27-.05.16-.22.15l-9.55-.7q-.42-.04-.64-.39L88.83 0Z" fill="#3f3d90"/><path d="M91.85 0h9.4q-.04.08-.07.16L91.85 0Z" fill="#171718"/><path d="M101.25 0h1.54l1.46 6.04.07 1.23q-.44.89-1.5-.21 0-.73-.29-1.28L101.18.16q.03-.08.07-.16Z" fill="#b2aec5"/><path d="M102.79 0h16.6l-1.81 8.71-13.33-2.67L102.79 0Z" fill="#191a83"/><path d="M119.39 0H128v5.54l-14.11 54.31q-1.01-.48-1.31-1.51.59-1.07.71-2.68l1.56-6.2a.98.97 33.8 0 0-.17-.84q-1.54-2.08-.49-4.47.18-.4.21-.84l1.3-16.78c.28-2.67 1.15-8.3-.37-10.35q-2.78-3.79-8.62-4.43-1.53-.7-2.78-.57-6.94-1.56-14.99 1.53-.92-.18-2.1 1.12c-.71.79-.76 1.58-1.07 2.58q-.15.49-.64.65-2.22.75-2.89 2.92-.18.57-.73.36-.91-.34-1.36-1.2-.32-.62.33-.86 3.53-1.33 5.66-4.44.28-.41.1-.87-.27-.66-.81-1.14a.97.96-64.2 0 1-.31-.9q.12-.64.72-.8.16-.04.27.08.22.24.06.52-.36.65.65.19c2.55-1.15 4.92-2.54 7.75-2.71q4.96-.32 9.93.27.09.44.75.43 5.45-.04 11.88 2.32a.23.23 0 0 0 .29-.1q.38-.68.13-1.27-.13-.55.03-1.15L119.39 0Z" fill="#e9d2a1"/><path d="M38.53.34q.88-.26 2.06-.04C37.8 3.73 35 6.18 32.82 10.54q-.89 1.76-2.65 3.46-2.29 2.23-3.71 4.95l-3.25 2.45L19 24.59q-1.39-6.37-1.13-12.36c1.66-.19 1.85-1.52 3.25-1.8q.43-.09.78-.35 5.59-4.05 11.71-7.22.85-.45.76-1.13-.04-.34.29-.35 1.99-.07 3.87-1.04Z" fill="#423370"/><path d="M80.72.79Q83 1.98 79.27 3.41a1.57 1.57 0 0 0-.37 2.73q.96.7 1.31 1.97.18.66.74.27l2.68-1.88q.48-.34.18-.85-.36-.6-.37-1.23-.01-.98.69-.29l.25.25q.39.38.77-.02.35-.37.23-.99.2.15.02.45-.14.25.02.49.68 1.07.72 2.38.01.5.49.64.29.09.5.29-.23.01-.43-.1a.48.47 32.8 0 0-.59.12q-.39.49-.2 1.2.14.56.73.54.28 0 .5-.26.34-.4.84-.55c1.41-.43 2.63-1.08 4.09-1.19q5.34-.41 10.75-.32 1.06 1.1 1.5.21 1.15.53 2.3.5c2.08-.05 4.42.18 6.35.87q2.24.8 4.58 1.22.25.59-.13 1.27a.23.23 0 0 1-.29.1q-6.43-2.36-11.88-2.32-.66.01-.75-.43-4.97-.59-9.93-.27c-2.83.17-5.2 1.56-7.75 2.71q-1.01.46-.65-.19.16-.28-.06-.52-.11-.12-.27-.08-.6.16-.72.8a.97.96-64.2 0 0 .31.9q.54.48.81 1.14.18.46-.1.87-2.13 3.11-5.66 4.44-.65.24-.33.86.45.86 1.36 1.2.55.21.73-.36.67-2.17 2.89-2.92.49-.16.64-.65c.31-1 .36-1.79 1.07-2.58q1.18-1.3 2.1-1.12l3.45 3.86a2.81 2.8-55.1 0 1 .51 2.9q-1.77 4.46-5.09 8.34 0-1.37.94-2.26.37-.35.37-.87v-.43q.01-2.84-1.71-.57-2.95 3.89-4.94 8.4a1.11 1.1-60.9 0 1-1.63.47q-.88-.6-.99-1.56a.46.4 26.7 0 0-.1-.24l-1.9-2.4a.54.54 0 0 0-.94.18l-.19.65q-.14.48.25.78.93.72.73 1.88l-1.01-.24q-.52-.12-.58.41l-.8 7.46q-.05.49.19.92 2.65 4.78 6.74 6.31.43 1.22-1.51.68-.68-.19-1.26-.76c-7.37-7.27-13.8-15.67-19.87-24.31q3.23-2.59 5.38-5.99 1.84-2.92 3.43-4.72 2.65-3 4.82-6.49 2.04-.08 2.75 1.8.18.46-.17.8c-2.63 2.63-11.91 14.43-8.8 18.08a.35.34 36.7 0 0 .58-.08q1.2-2.79 2.25-5.61 1.13-3.02 2.72-5.36 2.32-3.43 4.69-6.83.28-.41.18-.9-.28-1.42-1.16-2.38a2.11 2.1-24.3 0 1 1.33-3.51l3.12-.33Zm.57 12.23a.34.34 0 0 1-.58.21q-.58-.56-1.35-.73a.59.59 0 0 0-.63.89q2.34 3.83 3.81 1.17a2.59 2.53-7.5 0 1 .44-.56q.97-.92.31-2.04a.77.76 66.6 0 0-.85-.34q-1.03.29-1.15 1.4ZM71.13 35c.62.49 1 1.38 1.75 1.78a.82.82 0 0 0 1.21-.67q.49-8.75 2.59-17.1.25-.98-.29-1.47a.47.47 0 0 0-.73.14q-3.46 6.77-3.79 14.37a.38.38 0 0 1-.55.32l-2.1-1.11q-1.08-.58-.63.56.69 1.72 2.54 3.18Zm9.96-9.84q-.81-1.41-2.52-1.31a.56.56 0 0 0-.26 1.04q1.99 1.18 2.97 3.34a.62.62 0 0 0 1.06.12q2.1-2.81 2.87-6.24a.32.32 0 0 0-.58-.25l-2.22 3.35q-.69 1.06-1.32-.05Z" fill="#576d96"/><path d="M66.71 10.39q-.58 1.06-1.32 1.37-.5.21-.86-.18l-.69-.75q-.42-.47-.82.03l-7.15 8.9q-.37.45-.95.45l-3.63-.06q-.95-.02-.94-.97l.17-15.54q2.42-2.4 6-1.21 6.43 2.15 10.19 7.96Z" fill="#1f2026"/><path d="M49.43 2.86q.72.04 1.09.78l-.17 15.54q-.01.95.94.97l3.63.06q.58 0 .95-.45l7.15-8.9q.4-.5.82-.03l.69.75q.36.39.86.18.74-.31 1.32-1.37l2.42-1.85q1.85-1.44 2.84-3.58.2-.45.69-.54 1.47-.28.57.69-2.17 3.49-4.82 6.49-1.59 1.8-3.43 4.72-2.15 3.4-5.38 5.99-2.75-1.57-7.36-.5c-1.7.4-3.6-.35-5.71.64q-5.02 2.37-10.21 3.78a1.45 1.44-19.2 0 0-.95 1.96q1.69 4 3.63 8.31c.42.95 1.39 2.09 1.54 3.53a1.3 1.29-71.4 0 0 .4.81c1.54 1.47 3.87 7.43 4.39 9.52q.53 2.13 1.02 4.28c.36 1.59 1.34 2.45 2.27 3.72q.32.43.82.63.71.28 1.07.95.22.39.62.59 2.32 1.16 4.65 2.31 2.36 1.16 4.68 1.27 3.26.17 6.54-.04.59-.03.93-.51.3-.42.82-.43a3.24 2.58 49 0 1 1.13.21q.85.34 1.75.3.37-.02.65-.26 2.73-2.45 4.75-5.49.26-.4.7-.6.42-.19.78-.6.59.74.51 1.53-.36-.56-.81-.52-.32.03-.61.5-2.13 3.43-4.88 6.38c-1.34 1.45-2.93 1.7-4.79 2.14l-.81.27q-.48.16-.98.13-.93-.06-1.46.63c-8.58.31-15.54-.14-18.84-9.56q-4.11-11.71-9.11-23.07l-3.95-8.02a.44.44 0 0 1 .14-.56l14.63-10.26q.38-.27.46-.73.4-2.32-.22-5.12 1.54-1.25.81-4.34a1.13 1.13 0 0 0-1.99-.43q-.53.67-1.39 1-.46.18-.76.56c-2.49 3.09-6.23 4.82-9.23 7.31-3.58 2.97-7.16 4.91-10.76 7.56q-.23.17-.7.11-.34-.04-.4-.38-.03-.2-.16-.42l3.25-2.45L49.43 2.86Zm8.65 17.79.95.66a.27.27 0 0 0 .38-.06l.08-.12a9.1.8-54.8 0 0 4.59-7.9l-.08-.06a9.1.8-54.8 0 0-5.9 6.98l-.08.12a.27.27 0 0 0 .06.38Z" fill="#cfc9b6"/><path d="m47.79 10.43-27.85 19.2-.94-5.04 4.21-3.19q.13.22.16.42.06.34.4.38.47.06.7-.11c3.6-2.65 7.18-4.59 10.76-7.56 3-2.49 6.74-4.22 9.23-7.31q.3-.38.76-.56.86-.33 1.39-1a1.13 1.13 0 0 1 1.99.43q.73 3.09-.81 4.34Z" fill="#e9cc74"/><path d="M128 5.54v81.43l-14.11-27.12L128 5.54Z" fill="#171718"/><path d="m104.25 6.04 13.33 2.67q-.16.6-.03 1.15-2.34-.42-4.58-1.22c-1.93-.69-4.27-.92-6.35-.87q-1.15.03-2.3-.5l-.07-1.23Z" fill="#6b78a4"/><path d="M14.65 7.46q.08-.17.17-.38a.57.57 0 0 1 1.09.19q.44 10.42 1.89 20.72.45 3.17 1.75 5.97.91 1.94-1.22 2.19l-1.94.22q-1.09.13-1.27 1.21-.15.88-1.01 1.05-.58.12-.69-.47c-1.63-9.45-2.07-19.71-.35-29.17q.11-.58.43-.86.39-.35 1.01-.55.1-.03.14-.12Z" fill="#f1be55"/><path d="M47.79 10.43q.62 2.8.22 5.12-.08.46-.46.73L32.92 26.54a.44.44 0 0 0-.14.56l3.95 8.02q.55 1.1-.74 1.48-4.59 3.89-6.23 10.16c-.89 3.41-10.73 3.15-13.39 2.92a1.41 1.4-88.2 0 1-1.28-1.37q-.03-1.26 1.65-1.52 3.81-.6 7.87-1.2a.74.74 0 0 0 .63-.68l.51-7.18q.1-1.38-1.28-1.49l-1.92-.15a.8.8 0 0 1-.65-.42q-2.03-3.67-1.96-6.04l27.85-19.2Z" fill="#1f2026"/><path d="m103.93 11.18 2.81 15.17q.18.95-.79.87-3.86-.31-5.32 2.19-3.71 6.37-4.45 13.77a.63.62 89.5 0 1-.54.56l-1.63.19q-5.83-.1-11.77 2.77-4.09-1.53-6.74-6.31-.24-.43-.19-.92l.8-7.46q.06-.53.58-.41l1.01.24 3.66 4.59a.63.63 0 0 0 1.02-.06l5.43-8.56q3.32-3.88 5.09-8.34a2.81 2.8-55.1 0 0-.51-2.9l-3.45-3.86q8.05-3.09 14.99-1.53Z" fill="#1e1e20"/><path d="M103.93 11.18q1.25-.13 2.78.57-.73-.4-.95.67v.06l2.67 14.37a.75.75 0 0 0 .66.61l5.88.61a.54.53-83.3 0 0 .58-.46l.15-1.08-1.3 16.78q-.03.44-.21.84-1.05 2.39.49 4.47a.98.97 33.8 0 1 .17.84l-1.56 6.2v-7.87a.67.67 0 0 0-.29-.55q-.93-.65-.91.8l-.23-3.33q1.46-3.7.32-6.14l1.19-7.04q.09-.57-.4-.88l-2.08-1.32a.12.11-32.1 0 1 .05-.21q.32-.04.4-.4a.34.34 0 0 0-.24-.39q-.27-.08-.4-.34-.39-.77-.54.53c-.34 2.84-1.55 5.59-2.15 8.22q-.74 3.27-2.26 6.3a.42.42 0 0 1-.62.16q-.35-.24-.36-.74l3.86-12.5q.52-1.67-1.23-1.56l-1.39.1q-1.46.09-1.76 1.52-1.45 6.88-3.64 13.07-.43 1.23-.24 2.45.12.69-.22 1.07-.35.41-.74.03-.99-.94-2.34-1.11-.56-.06-.84-.55-.65-1.12-2.22-1.05l1.63-.19a.63.62 89.5 0 0 .54-.56q.74-7.4 4.45-13.77 1.46-2.5 5.32-2.19.97.08.79-.87l-2.81-15.17Z" fill="#a1a6b7"/><path d="M81.29 13.02q.12-1.11 1.15-1.4a.77.76 66.6 0 1 .85.34q.66 1.12-.31 2.04a2.59 2.53-7.5 0 0-.44.56q-1.47 2.66-3.81-1.17a.59.59 0 0 1 .63-.89q.77.17 1.35.73a.34.34 0 0 0 .58-.21Z" fill="#b2aec5"/><path d="M106.71 11.75q5.84.64 8.62 4.43c1.52 2.05.65 7.68.37 10.35l-.15 1.08a.54.53-83.3 0 1-.58.46l-5.88-.61a.75.75 0 0 1-.66-.61l-2.67-14.37v-.06q.22-1.07.95-.67Z" fill="#171718"/><path d="M58.08 20.65a.27.27 0 0 1-.06-.38l.08-.12a9.1.8-54.8 0 1 5.9-6.98l.08.06a9.1.8-54.8 0 1-4.59 7.9l-.08.12a.27.27 0 0 1-.38.06l-.95-.66Z" fill="#607898"/><path d="M71.13 35q-1.85-1.46-2.54-3.18-.45-1.14.63-.56l2.1 1.11a.38.38 0 0 0 .55-.32q.33-7.6 3.79-14.37a.47.47 0 0 1 .73-.14q.54.49.29 1.47-2.1 8.35-2.59 17.1a.82.82 0 0 1-1.21.67c-.75-.4-1.13-1.29-1.75-1.78Z" fill="#bdc6d0"/><path d="M59.6 22.31c6.07 8.64 12.5 17.04 19.87 24.31q.58.57 1.26.76 1.94.54 1.51-.68 5.94-2.87 11.77-2.77 1.57-.07 2.22 1.05.28.49.84.55 1.35.17 2.34 1.11.39.38.74-.03.34-.38.22-1.07l-.01.48a1.64 1.64 0 0 0 2.57 1.39l3.13-2.16q1.6.64.65 1.36l1.6 4.11q-.59-.12-.87-.57-.19-.3-.55-.27-.73.07-1.24-.48-.32-.35-.76-.19-2.26.8-4.58.73l-9.46.33q-4.64-.46-9.44 2.89-1.71 1.19-2.9 3.53-.36.41-.78.6-.44.2-.7.6-2.02 3.04-4.75 5.49-.28.24-.65.26-.9.04-1.75-.3a3.24 2.58 49 0 0-1.13-.21q-.52.01-.82.43-.34.48-.93.51-3.28.21-6.54.04-2.32-.11-4.68-1.27-2.33-1.15-4.65-2.31-.4-.2-.62-.59-.36-.67-1.07-.95-.5-.2-.82-.63c-.93-1.27-1.91-2.13-2.27-3.72q-.49-2.15-1.02-4.28c-.52-2.09-2.85-8.05-4.39-9.52a1.3 1.29-71.4 0 1-.4-.81c-.15-1.44-1.12-2.58-1.54-3.53q-1.94-4.31-3.63-8.31a1.45 1.44-19.2 0 1 .95-1.96q5.19-1.41 10.21-3.78c2.11-.99 4.01-.24 5.71-.64q4.61-1.07 7.36.5Zm-8.29 32.52q.72 1.54 2.25 2.19c2.86 1.21 5.17 2.52 8.38 1.92 3.21-.6 11.34-3.62 11.37-7.94q.03-6.25-3.92-10.96-.32-.38-.38-.87-.07-.45-.38-.75-.56-.53-.61-.6-4.38-5.85-8.43-11.91c-3.27-4.89-14.43.11-18.49 2.34a1.53 1.52-24.4 0 0-.7 1.86c2.02 5.6 3.93 11.43 6.57 16.85q1.34 2.73 2.5 5.53.36.85 1.25 1.58.38.31.59.76Z" fill="#f1be55"/><path d="M81.09 25.16q.63 1.11 1.32.05l2.22-3.35a.32.32 0 0 1 .58.25q-.77 3.43-2.87 6.24a.62.62 0 0 1-1.06-.12q-.98-2.16-2.97-3.34a.56.56 0 0 1 .26-1.04q1.71-.1 2.52 1.31Z" fill="#bdc6d0"/><path d="m87.81 27.81-5.43 8.56a.63.63 0 0 1-1.02.06l-3.66-4.59q.2-1.16-.73-1.88-.39-.3-.25-.78l.19-.65a.54.54 0 0 1 .94-.18l1.9 2.4a.46.4 26.7 0 1 .1.24q.11.96.99 1.56a1.11 1.1-60.9 0 0 1.63-.47q1.99-4.51 4.94-8.4 1.72-2.27 1.71.57v.43q0 .52-.37.87-.94.89-.94 2.26Z" fill="#bdc6d0"/><path d="M50.72 54.07q-.89-.73-1.25-1.58-1.16-2.8-2.5-5.53c-2.64-5.42-4.55-11.25-6.57-16.85a1.53 1.52-24.4 0 1 .7-1.86c4.06-2.23 15.22-7.23 18.49-2.34q4.05 6.06 8.43 11.91.05.07.61.6.31.3.38.75.06.49.38.87 3.95 4.71 3.92 10.96c-.03 4.32-8.16 7.34-11.37 7.94-3.21.6-5.52-.71-8.38-1.92q-1.53-.65-2.25-2.19-.21-.45-.59-.76Zm-3.79-26.69-2.71 1.06a2.43 2.43 0 0 0-1.4 3.07q2.51 7.07 5.38 14.5c.85 2.21 2.36 3.89 3.42 6.12q.82 1.73 3.87 3.13c2.29 1.05 4.8.62 7.36.98 1.29.18 2.2-.29 3.46-.45a1.06 1.06 0 0 0 .78-.5c2.08-3.44 3.85-5.69 2.71-10.32q-1.15-4.65-5.74-9.99-2.14-3.43-4.53-6.67c-1.27-1.73-2.06-3.36-4.52-3.26q-3.85.16-8.08 2.33Z" fill="#d46337"/><path d="m64.06 34.98-6.17-7.53a1.73 1.7 78.5 0 0-.79-.53q-.41-.14-.67-.35a2.56.51 40 0 0-1.95-1.07l-7.55 1.88q4.23-2.17 8.08-2.33c2.46-.1 3.25 1.53 4.52 3.26q2.39 3.24 4.53 6.67Z" fill="#6b78a4"/><path d="M64.06 34.98q4.59 5.34 5.74 9.99c1.14 4.63-.63 6.88-2.71 10.32a1.06 1.06 0 0 1-.78.5c-1.26.16-2.17.63-3.46.45-2.56-.36-5.07.07-7.36-.98q-3.05-1.4-3.87-3.13c-1.06-2.23-2.57-3.91-3.42-6.12q-2.87-7.43-5.38-14.5a2.43 2.43 0 0 1 1.4-3.07l2.71-1.06 7.55-1.88a2.56.51 40 0 1 1.95 1.07q.26.21.67.35a1.73 1.7 78.5 0 1 .79.53l6.17 7.53Z" fill="#179b74"/><path d="M112.18 38.57c.03 2.75-.96 4.05-2.78 6.55q-.3.43-.55.98-.32.69-.73.73-.51.04-1.41-.22.95-.72-.65-1.36.52-.86.06-1.36-.38-.43-1.01-.3-.49.09-.6-.39-.08-.38.26-.74.01.5.36.74a.42.42 0 0 0 .62-.16q1.52-3.03 2.26-6.3c.6-2.63 1.81-5.38 2.15-8.22q.15-1.3.54-.53.13.26.4.34a.34.34 0 0 1 .24.39q-.08.36-.4.4a.12.11-32.1 0 0-.05.21l2.08 1.32q.49.31.4.88l-1.19 7.04Z" fill="#239c93"/><path d="M104.77 42.46q-.34.36-.26.74.11.48.6.39.63-.13 1.01.3.46.5-.06 1.36l-3.13 2.16a1.64 1.64 0 0 1-2.57-1.39l.01-.48q-.19-1.22.24-2.45 2.19-6.19 3.64-13.07.3-1.43 1.76-1.52l1.39-.1q1.75-.11 1.23 1.56l-3.86 12.5Z" fill="#191a83"/><path d="M36.73 35.12q5 11.36 9.11 23.07c3.3 9.42 10.26 9.87 18.84 9.56q1.49-.29 1.41.75-.38 4.42-.36 7.27 0 .51-.5.49l-5.77-.24q-.54-.02-.78.46l-1.49 2.93c-7.09-2.13-11.22-6.77-15-12.84q-1.56-2.5-2.98-6.63c-1.35-3.94-5.2-9.18-3.02-12.43q2.48-3.72 2.45-5.6l-1.81-4.44q.35-.88-.84-.87 1.29-.38.74-1.48Z" fill="#171718"/><path d="m14.89 46.6.39-6.97a1.81 1.81 0 0 1 1.71-1.71l6.36-.33a1.51 1.51 0 0 1 1.56 1.78l-.55 2.98Q24.05 44 22.4 44.3l-5.06.93a.98.97 4.6 0 0-.75.63q-.27.71-.9 1.17a.5.5 0 0 1-.8-.43Z" fill="#4e5499"/><path d="m36.83 37.47 1.81 4.44q-3.84 3.47-4.27 8.12c-.2 2.14 2.01 5.87 2.61 7.8.54 1.75 1.94 3.42 1.8 5.62-.15 2.19 1.35 3.12 2.14 4.9q.37.84.89 1.62a1.75 1.72-63.7 0 1 .3.91c.06 1.83 1.18 3.29 1.66 4.62q3.06 8.51 8.34 14.66l6.71 7.14q2.83 4.37 9.9 3.6 1.81-.19.78-.8 3.36-.3 6.28-1.59.53.21.7-.02-.26.21-.39.4-.35.55.3.53 3.26-.09 6.18-1.5c4.22-2.03 10.02-11.29 12.46-15.41q.13-.23.09-.71-.04-.53.22-.99.92-1.66.38-3.64-.11-.41-.5-.55-.25-.1-.08-.44a.62.59 40.1 0 0-.07-.67c-1.99-2.42-2.64-5.34-4.26-7.71q-2.72-3.97-5.7-9.35-.37-.66-1.07-.17l-1.4-2.47q.65-2.23 2.38-2.9.54-.2.86.28l11.26 16.99a1.54 1.54 0 0 0 2.68-.22q1.25-2.76 3.31-5.88.9-1.35 1.44-3.36.15-.53 1.05-.27l2.86 7.95q-.27-.07-.51 0-.2.06-.37.31c-5.17 7.63-10.13 15.8-16 22.89q-2.72 3.28-5.46 6.54-1.33 1.58-6.54 5.55l-1.56.73-.42-.49q-.34-.38-.85-.29c-2.45.48-3.92 2.1-6.12 2.58q-7.28 1.59-14.64.07c-3.21-.66-5.46-4.11-7.61-6.3q-1.75-1.79-4.62-9.21-.03-.07-1.05-4.17-.51-2.06-2-3.7-.33-.36-.43-.83-.75-3.46-2.27-6.58c-.71-1.46-1.03-2.76-1.54-4.25q-.48-.2-.38-.73.08-.41-.05-.8c-.99-3.05-1.49-6.28-2.97-9.14q-.7-1.35-.98-2.85c-.47-2.5-2.05-4.68-1.12-7.25q.94-2.61 1.34-5.36.3-1.98 4.5-7.65Z" fill="#f1be55"/><path d="M112.18 38.57q1.14 2.44-.32 6.14-2.09 1.39-2.46.41c1.82-2.5 2.81-3.8 2.78-6.55Z" fill="#e9d2a1"/><path d="M38.64 41.91q.03 1.88-2.45 5.6c-2.18 3.25 1.67 8.49 3.02 12.43q1.42 4.13 2.98 6.63c3.78 6.07 7.91 10.71 15 12.84q-.05.34-.44.79c-6.38-1.37-8.77-4.71-12.85-8.93a.28.28 0 0 0-.46.31l8.67 18.58q-5.28-6.15-8.34-14.66c-.48-1.33-1.6-2.79-1.66-4.62a1.75 1.72-63.7 0 0-.3-.91q-.52-.78-.89-1.62c-.79-1.78-2.29-2.71-2.14-4.9.14-2.2-1.26-3.87-1.8-5.62-.6-1.93-2.81-5.66-2.61-7.8q.43-4.65 4.27-8.12Z" fill="#b2aec5"/><path d="m111.86 44.71.23 3.33-1.29 7.28q-1.71-2.12-2.49-4.6l-1.6-4.11q.9.26 1.41.22.41-.04.73-.73.25-.55.55-.98.37.98 2.46-.41Z" fill="#f89911"/><path d="M113.29 55.66q-.12 1.61-.71 2.68l-1.78-3.02 1.29-7.28q-.02-1.45.91-.8a.67.67 0 0 1 .29.55v7.87Z" fill="#4e5499"/><path d="M108.31 50.72q.78 2.48 2.49 4.6l1.78 3.02q.3 1.03 1.31 1.51L128 86.97v22.65q-.4-.03-.17.33-.92-.45-.69 1.65-.14-3.28-2.16-5.59l-2.77-6.58-9.75-21.94-1.18-2.31q-.21-.42-.22-.89-.09-3.1-1.89-5.16-.3-.18-.69-.73l-2.86-7.95q-.97-.87-1.04-1.67l-4.27-8.84q2.32.07 4.58-.73.44-.16.76.19.51.55 1.24.48.36-.03.55.27.28.45.87.57Z" fill="#d6c594"/><path d="m90.85 50.27-3.79 1.5q-.55.22-.22.71l10.39 15.29q1.24 1.82 2.42-.04 2.17-3.42 4.72-7.71.17-.27.18-.59.01-.35.03-.65.07.8 1.04 1.67-.9-.26-1.05.27-.54 2.01-1.44 3.36-2.06 3.12-3.31 5.88a1.54 1.54 0 0 1-2.68.22L85.88 53.19q-.32-.48-.86-.28-1.73.67-2.38 2.9-1.18-1.42-2.56.37-.29.39-.16.85c2.91 10.33 5.13 20.68 7.16 30.74q.57 2.82 2.21.45l4.16-6.03q1.6-2.31.32-4.82l-9.73-19.09q.7-.49 1.07.17 2.98 5.38 5.7 9.35c1.62 2.37 2.27 5.29 4.26 7.71a.62.59 40.1 0 1 .07.67q-.17.34.08.44.39.14.5.55.54 1.98-.38 3.64-.26.46-.22.99.04.48-.09.71c-2.44 4.12-8.24 13.38-12.46 15.41q-2.92 1.41-6.18 1.5-.65.02-.3-.53.13-.19.39-.4l4.05-2.59 4.75-3.47a1.31 1.29-12.5 0 0 .52-.8q.37-1.78-.15-4.63-1.53-8.42-3.51-16.69a43.5 37.38 78.4 0 1-1.05-6.06q-.06-.56-2.07-6.03.08-.79-.51-1.53 1.19-2.34 2.9-3.53 4.8-3.35 9.44-2.89Z" fill="#dfdbb9"/><path d="m100.31 49.94 4.27 8.84q-.02.3-.03.65-.01.32-.18.59-2.55 4.29-4.72 7.71-1.18 1.86-2.42.04L86.84 52.48q-.33-.49.22-.71l3.79-1.5 9.46-.33ZM82.64 55.81l1.4 2.47 9.73 19.09q1.28 2.51-.32 4.82l-4.16 6.03q-1.64 2.37-2.21-.45c-2.03-10.06-4.25-20.41-7.16-30.74q-.13-.46.16-.85 1.38-1.79 2.56-.37Z" fill="#171718"/><path d="M79.02 58.22q2.01 5.47 2.07 6.03a43.5 37.38 78.4 0 0 1.05 6.06q1.98 8.27 3.51 16.69.52 2.85.15 4.63a1.31 1.29-12.5 0 1-.52.8l-4.75 3.47q-3.24 1.31-3.66-1.16-.33-1.92-1.5-3.13-1.3-1.34-1.47-1.73-.45-1.05-.41-2.31a2.51 2.22-89.1 0 0-2.23-2.6q-.66 0-1.06-.4-.18-.18-.4-.32-.55-.33-.92.13-.27.34-.71.32l-7.83-.28a.93.91 77 0 1-.78-.5L58.06 81a1.09 1.09 0 0 1 .07-1.12l1.61-2.33q.35-.5.96-.48l12.25.41q1.37.05 1.55-1.32.17-1.28-.1-2.58-.2-.96.79-.95l.95.01a1.03 1.02 87.8 0 1 1.01.94c.28 3.4.34 6.73 1.63 9.86q.97 2.36 2.12 4.48.54.99.79-.1.69-2.9-.23-6.09-.27-.92-.37-2.01c-.16-1.74-.86-3.39-1.03-4.98q-.3-2.9-1.15-5.71-.14-.48-.63-.6-2.03-.5-3.47.85-.36.34-.86.34h-1.2q-.59 0-.64.59l-.44 4.64a.96.96 0 0 1-.51.76q-1.33.69-2.83.48-.48-.06-.48-.55l.08-8.82c1.86-.44 3.45-.69 4.79-2.14q2.75-2.95 4.88-6.38.29-.47.61-.5.45-.04.81.52Z" fill="#607898"/><path d="m4.12 65.31.73 33.62a.5.5 0 0 0 1 .07q.13-.83.98-1.18.55-.22.95-.64c2.62-2.66 4.95-5.37 7.9-7.69q2.75-2.16 5.42-4.39.88-.73 1.96-.75.47-.01.86-.26l.96-.61c4.18.1 9.31.15 12.4 3.32q.65.66 3.61 2.42l5.79 11.68q-.61-.12-.5 1.35l-2.99-6.51a.74.73 67 0 0-.93-.38q-.93.37-2.05.43-2.23-3.77-5.95-6.54-.39-.29-.88-.33-.57-.05-1.08-.48-.31-.25-.7-.33l-1.22-.23q2.22-1.06 5.02.42 1.95 1.03.73-.81-.12-.19-1.17-.6c-2.77-1.1-5.05-2.62-8.19-.55q-.39.26-.86.27-1.78.04-2.87 1.2c-3.2 3.43-6.12 5.01-8.21 8.22-1.21 1.85-3.14 3.21-3.72 5.9a.54.53-8.5 0 1-.28.37c-2.2 1.13-.41 4.79.94 5.77q1.35.99 1.73 1.9.13.33.34.61 1.07 1.39 1.63 3.03.1.3.38.45.13.08.28.07.33-.02.51.27 1.05 1.74 2.21 3.39.63.91 2.43 2.55 2.76 2.53 3.55 6.34.09.43-.35.44h-.43q-.15 0-.06.12.29.35 0 .76h-2.66q-1.15-2.09-3.05-3.81a1.29 1.29 0 0 0-1.6-.11L10.97 128h-2.9q.31-1.23 3.26-2.12l4.34-3.32q1.15-.88.21-1.99l-4.87-5.81-8.07-11.18q-.3-.42.05-.8.81-.88.77-1.53c-.32-6.47 0-13.17-.28-19.33q-.39-8.41-.37-16.84a.31.31 0 0 1 .52-.22l.49.45Z" fill="#8280bd"/><path d="m4.12 65.31 20.76 18.17-.96.61q-.39.25-.86.26-1.08.02-1.96.75-2.67 2.23-5.42 4.39c-2.95 2.32-5.28 5.03-7.9 7.69q-.4.42-.95.64-.85.35-.98 1.18a.5.5 0 0 1-1-.07l-.73-33.62Z" fill="#76435e"/><path d="m67.93 66.72-.08 8.82q0 .49.48.55 1.5.21 2.83-.48a.96.96 0 0 0 .51-.76l.44-4.64q.05-.59.64-.59h1.2q.5 0 .86-.34 1.44-1.35 3.47-.85.49.12.63.6.85 2.81 1.15 5.71c.17 1.59.87 3.24 1.03 4.98q.1 1.09.37 2.01.92 3.19.23 6.09-.25 1.09-.79.1-1.15-2.12-2.12-4.48c-1.29-3.13-1.35-6.46-1.63-9.86a1.03 1.02 87.8 0 0-1.01-.94l-.95-.01q-.99-.01-.79.95.27 1.3.1 2.58-.18 1.37-1.55 1.32l-12.25-.41q-.61-.02-.96.48l-1.61 2.33a1.09 1.09 0 0 0-.07 1.12l1.5 2.92a.93.91 77 0 0 .78.5l7.83.28q.44.02.71-.32.37-.46.92-.13.22.14.4.32.4.4 1.06.4a2.51 2.22-89.1 0 1 2.23 2.6q-.04 1.26.41 2.31.17.39 1.47 1.73 1.17 1.21 1.5 3.13.42 2.47 3.66 1.16l-4.05 2.59q-.17.23-.7.02.86-.62.29-1.56-2.95-4.83-5.36-9.58a1.43 1.42 78.9 0 0-1.14-.77l-10.23-.87a1.04 1.04 0 0 1-.91-.71l-1.68-4.82q.39-.45.44-.79l1.49-2.93q.24-.48.78-.46l5.77.24q.5.02.5-.49-.02-2.85.36-7.27.08-1.04-1.41-.75.53-.69 1.46-.63.5.03.98-.13l.81-.27Z" fill="#a6b3bd"/><path d="M108.48 68.4q.39.55.69.73-.15 1.86-1.33 2.82-.38.31-.49.79-.31 1.36-1.08 2.52-2.18 3.27-4.66 6.29-.31.38-.43.86-.37 1.47-1.72 2.21-.42.23-.58.68c-.6 1.73-2.18 2.8-3.19 4.33-2.02 3.04-4.84 5.24-6.96 8.26-1.19 1.7-2.92 2.54-4.18 4.31-.69.97-1.39 1.35-2.3 2.01a.92.91-19.7 0 0-.37.77q.08 1.59-1.31 2.1 1.23-3.59-.97-3.39 5.21-3.97 6.54-5.55 2.74-3.26 5.46-6.54c5.87-7.09 10.83-15.26 16-22.89q.17-.25.37-.31.24-.07.51 0Z" fill="#6d6999"/><path d="M109.17 69.13q1.8 2.06 1.89 5.16.01.47.22.89l1.18 2.31q-.85-.41-1.59.64-11.4 16.18-22.95 32.03a1.45 1.44 45.8 0 0-.02 1.68l3.31 4.85q.44.63 1.08.21l3.57-2.33a.78.77 52.1 0 1 1 .13l11.38 12.56q.31.34-.15.34-.53.01-.72.4h-2.12q.05-.8-.49-.13l.13-.51q.1-.4-.16-.72c-2.61-3.31-4.92-7.83-8.14-10.47q-.4-.33-.85-.08-3.18 1.75-6.79 5.12-2.83 2.63-.7 6.79h-1.63c-1.58-5.02-1.76-6.15 3.41-9.99q.21-.16.06-.38l-3.82-5.66a.28.28 0 0 0-.45-.01L73.74 128H61.08l9.97-9.71q.59-.58-.14-.98-.1-.06-.64.14.17-.46.57-.85l.3.28q.37.36.77.03l.58-.48q2.26-.99 3.09-4.22l4.99-5.13q1.39-.51 1.31-2.1a.92.91-19.7 0 1 .37-.77c.91-.66 1.61-1.04 2.3-2.01 1.26-1.77 2.99-2.61 4.18-4.31 2.12-3.02 4.94-5.22 6.96-8.26 1.01-1.53 2.59-2.6 3.19-4.33q.16-.45.58-.68 1.35-.74 1.72-2.21.12-.48.43-.86 2.48-3.02 4.66-6.29.77-1.16 1.08-2.52.11-.48.49-.79 1.18-.96 1.33-2.82Z" fill="#c8c8ae"/><path d="m56.75 80.2 1.68 4.82a1.04 1.04 0 0 0 .91.71l10.23.87a1.43 1.42 78.9 0 1 1.14.77q2.41 4.75 5.36 9.58.57.94-.29 1.56-2.92 1.29-6.28 1.59-5.13.08-10.68-2.8l-6.71-7.14-8.67-18.58a.28.28 0 0 1 .46-.31c4.08 4.22 6.47 7.56 12.85 8.93Z" fill="#1e1e20"/><path d="m112.46 77.49 9.75 21.94q-1.15-.02-1.88 1.4.13-5.64-1.91-4.81.39-2.88-1.06-5.72a1.24 1.23 86.9 0 0-.69-.62q-.46-.17-.95-.62.18-.54.02-.95-.14-.36-.66-.47-1.07-.25-2-.04-1.24-.38-1.71.54-4.6 9-9.87 17.84a1.32 1.32 0 0 0 .27 1.67l19.51 16.85q.34.3.35.74 0 .17-.02.35-.22.46-1.39.32-2.58-.76-2.49 2.09h-10.36q.19-.39.72-.4.46 0 .15-.34L96.86 114.7a.78.77 52.1 0 0-1-.13l-3.57 2.33q-.64.42-1.08-.21l-3.31-4.85a1.45 1.44 45.8 0 1 .02-1.68q11.55-15.85 22.95-32.03.74-1.05 1.59-.64Z" fill="#252527"/><path d="m30.38 87.88-2.81.24q-3.09 1.32-1.65 2.29l-.42-.03q-.47-.04-.83.27-1.68 1.42-3.35 2.87c-2.76 2.4-4.67 5.82-6.88 8.74a1.93 1.93 0 0 0 .04 2.39l3.79 4.59q.35.93 1.02 1.67 3.58 3.22 4.78 5.66.3 1.77 2.4.64.38 4.04 4.74 7.64.06.05 1.14 1.2.71.76 2.19 1.54l-1.05.41h-9.5q.29-.41 0-.76-.09-.12.06-.12h.43q.44-.01.35-.44-.79-3.81-3.55-6.34-1.8-1.64-2.43-2.55-1.16-1.65-2.21-3.39-.18-.29-.51-.27-.15.01-.28-.07-.28-.15-.38-.45-.56-1.64-1.63-3.03-.21-.28-.34-.61-.38-.91-1.73-1.9c-1.35-.98-3.14-4.64-.94-5.77a.54.53-8.5 0 0 .28-.37c.58-2.69 2.51-4.05 3.72-5.9 2.09-3.21 5.01-4.79 8.21-8.22q1.09-1.16 2.87-1.2.47-.01.86-.27c3.14-2.07 5.42-.55 8.19.55q1.05.41 1.17.6 1.22 1.84-.73.81-2.8-1.48-5.02-.42Z" fill="#4e5499"/><path d="M113.08 87.6c-2.46 4.9-5.04 9.69-7.58 14.58q-.5.96-.13 1.51.4.6 1.49.97l15.58 12.49q1.55 1.24 2.67-.4 1.33-1.96 2.03-5.15-.23-2.1.69-1.65-.31 2.33.17 4.44v11.68q-1.92-.61-2.14.2-.63 0-1.48-.31-.6-.22-.45.41l.33 1.38q-.19-.19-.48.01.23-.62.06-1.04-.23-.57-.75-.25-.44.27-.94.15a.36.36 0 0 1-.16-.61q.26-.25.01-.51-.18-.18-.3-.02-.05.05-.09.11.02-.18.02-.35-.01-.44-.35-.74l-19.51-16.85a1.32 1.32 0 0 1-.27-1.67q5.27-8.84 9.87-17.84.47-.92 1.71-.54Z" fill="#bcc5ae"/><path d="M113.08 87.6q.93-.21 2 .04.52.11.66.47.16.41-.02.95L108.67 104q-1.23.29-1.81.66-1.09-.37-1.49-.97-.37-.55.13-1.51c2.54-4.89 5.12-9.68 7.58-14.58Z" fill="#f1be55"/><path d="m30.38 87.88 1.22.23q.39.08.7.33.51.43 1.08.48.49.04.88.33 3.72 2.77 5.95 6.54-2.36 2.63-5.47-.33-2.84-2.72-5.89-5.19a.63.62-27 0 0-.41-.13q-.39.01-.7-.27-.27-.23-.07-.53.49-.72-.1-1.22l2.81-.24Z" fill="#8b3c58"/><path d="M27.57 88.12q.59.5.1 1.22-.2.3.07.53.31.28.7.27a.63.62-27 0 1 .41.13q3.05 2.47 5.89 5.19 3.11 2.96 5.47.33 1.12-.06 2.05-.43a.74.73 67 0 1 .93.38l2.99 6.51q-2.16 1.4-1.75 2.1-.75-.6-1.48-.13-.64.41-.31.8l-7.73 4.91q-.54-1.8-2.28.11l-4.33-3.7a1.76 1.76 0 0 0-1.78-.3q-4.31 1.69-7.23 4.87-.67-.74-1.02-1.67l13.14-7.98q.43-.26.41-.76-.06-1.08-1.05-1.46a1.5 1.49 88.3 0 1-.8-.76c-1.06-2.3-1.12-6.64-4.05-7.87q-1.44-.97 1.65-2.29Z" fill="#b5bcad"/><path d="M115.72 89.06q.49.45.95.62a1.24 1.23 86.9 0 1 .69.62q1.45 2.84 1.06 5.72l-4.72 11.69q-3.01-.96-5.03-3.71l7.05-14.94Z" fill="#26278e"/><path d="M25.92 90.41c2.93 1.23 2.99 5.57 4.05 7.87a1.5 1.49 88.3 0 0 .8.76q.99.38 1.05 1.46.02.5-.41.76l-13.14 7.98-3.79-4.59a1.93 1.93 0 0 1-.04-2.39c2.21-2.92 4.12-6.34 6.88-8.74q1.67-1.45 3.35-2.87.36-.31.83-.27l.42.03Z" fill="#703652"/><path d="m120.33 100.83-3.65 9.51-2.98-2.63 4.72-11.69q2.04-.83 1.91 4.81Z" fill="#f1be55"/><path d="M58.82 97.3q5.55 2.88 10.68 2.8 1.03.61-.78.8-7.07.77-9.9-3.6Z" fill="#e9d2a1"/><path d="m122.21 99.43 2.77 6.58c2.31 3.7-.13 6.53-1.33 10.16a.27.26 34.8 0 1-.46.08q-2.63-3.42-6.51-5.91l3.65-9.51q.73-1.42 1.88-1.4Z" fill="#191a83"/><path d="M46.68 100.9c4.4 6.06 9.14 7.3 16.74 8.13l9.07 7.4-.58.48q-.4.33-.77-.03l-.3-.28-7.33-4.22q-1.54-.59-2.86-.27-.81.2-.03.5 2.83 1.08 2.09 4.1-.12.48.08.94l.67 1.52q.39.9-.37.28l-18.66-15.1q-.41-.7 1.75-2.1-.11-1.47.5-1.35Z" fill="#3f3d90"/><path d="M79.6 103.69q2.2-.2.97 3.39l-4.99 5.13q-.94 1.25-1.94 1.91-.42.29-.88.06-4.04-1.96-6.56-5.14 6.58-1.2 11.84-4.62l1.56-.73Z" fill="#1e1e20"/><path d="M108.67 104q2.02 2.75 5.03 3.71l2.98 2.63q3.88 2.49 6.51 5.91a.27.26 34.8 0 0 .46-.08c1.2-3.63 3.64-6.46 1.33-10.16q2.02 2.31 2.16 5.59-.7 3.19-2.03 5.15-1.12 1.64-2.67.4l-15.58-12.49q.58-.37 1.81-.66Z" fill="#d52723"/><path d="m44.43 104.35 18.66 15.1q.76.62.37-.28l-.67-1.52q-.2-.46-.08-.94.74-3.02-2.09-4.1-.78-.3.03-.5 1.32-.32 2.86.27.12 2.15 1.48 3.7.33.37.41.87.46 2.71-1.82 4.13-.4.25-.77-.04l-20.17-16.02q-.33-.39.31-.8.73-.47 1.48.13Z" fill="#e4e5e8"/><path d="m42.64 105.02 20.17 16.02q.37.29.77.04 2.28-1.42 1.82-4.13-.08-.5-.41-.87-1.36-1.55-1.48-3.7l7.33 4.22q-.4.39-.57.85L59.13 128h-4.46l-19.76-18.07 7.73-4.91Z" fill="#f89911"/><path d="m32.63 110.04-8.56 6.53q-1.2-2.44-4.78-5.66 2.92-3.18 7.23-4.87a1.76 1.76 0 0 1 1.78.3l4.33 3.7Z" fill="#8b3c58"/><path d="M66.2 109.04q2.52 3.18 6.56 5.14.46.23.88-.06 1-.66 1.94-1.91-.83 3.23-3.09 4.22l-9.07-7.4 2.78.01Z" fill="#a1a6b7"/><path d="M34.91 109.93 54.67 128h-2.71l-5.86-5.01q-.41-.35-.64.14-.45.89-1.4 1.02-.52.07-.94.37L38.18 128h-1.49q.01-.16-.2-.29l7.46-4.8q1.43-.92.19-2.07l-9.49-8.79a.94.93 47.6 0 0-1.2-.06l-6.98 5.22q-2.1 1.13-2.4-.64l8.56-6.53q1.74-1.91 2.28-.11Z" fill="#e4e5e8"/><path d="M128 109.62v4.77q-.48-2.11-.17-4.44-.23-.36.17-.33Z" fill="#171718"/><path d="M36.49 127.71q-.96-.33-1.95-.12-1.48-.78-2.19-1.54-1.08-1.15-1.14-1.2-4.36-3.6-4.74-7.64l6.98-5.22a.94.93 47.6 0 1 1.2.06l9.49 8.79q1.24 1.15-.19 2.07l-7.46 4.8Z" fill="#6c4f5b"/><path d="M86.62 128H73.74l12.08-16.04a.28.28 0 0 1 .45.01l3.82 5.66q.15.22-.06.38c-5.17 3.84-4.99 4.97-3.41 9.99Z" fill="#171718"/><path d="M11.33 125.88q-.75-1.57-.2-2.94a1.18 1.18 0 0 0-.02-.91q-.07-.18-.14-.34-.09-.19-.08-.38.14-3.04.12-6.55l4.87 5.81q.94 1.11-.21 1.99l-4.34 3.32Z" fill="#8b3c58"/><path d="M104.76 127.87q-1.38-.32-2.7-.19l-5.12-7.84q-.33-.51-.87-.23l-5.95 3.04q-.53.27-.61.86-.51 3.87 1.6 4.49h-2.86q-2.13-4.16.7-6.79 3.61-3.37 6.79-5.12.45-.25.85.08c3.22 2.64 5.53 7.16 8.14 10.47q.26.32.16.72l-.13.51Z" fill="#26278e"/><path d="M70.27 117.45q.54-.2.64-.14.73.4.14.98L61.08 128h-1.95l11.14-10.55Z" fill="#6b78a4"/><path d="M102.06 127.68q-.43.14-.61.32h-2.01l-3.61-5.44q-.26-.39-.7-.2l-2.62 1.19a1.01 1 67.4 0 0-.52 1.28l1.22 3.17h-2.1q-2.11-.62-1.6-4.49.08-.59.61-.86l5.95-3.04q.54-.28.87.23l5.12 7.84Z" fill="#a2bf8f"/><path d="M99.44 128h-6.23l-1.22-3.17a1.01 1 67.4 0 1 .52-1.28l2.62-1.19q.44-.19.7.2l3.61 5.44Z" fill="#8c1c21"/><path d="M51.96 128H38.18l4.94-3.48q.42-.3.94-.37.95-.13 1.4-1.02.23-.49.64-.14l5.86 5.01ZM21.33 128H10.97l5.71-3.92a1.29 1.29 0 0 1 1.6.11q1.9 1.72 3.05 3.81Z" fill="#8b3c58"/><path d="M121.61 125.59q.04-.06.09-.11.12-.16.3.02.25.26-.01.51a.36.36 0 0 0 .16.61q.5.12.94-.15.52-.32.75.25.17.42-.06 1.04-.08.12-.15.24h-3.49l.08-2.09q1.17.14 1.39-.32Z" fill="#a2bf8f"/><path d="m120.22 125.91-.08 2.09h-2.41q-.09-2.85 2.49-2.09Z" fill="#e9cc74"/><path d="m125.86 126.27.11.98q.04.39-.34.48-.78.19-1.37.02l-.33-1.38q-.15-.63.45-.41.85.31 1.48.31Z" fill="#f89911"/><path d="M128 126.07V128h-4.37q.07-.12.15-.24.29-.2.48-.01.59.17 1.37-.02.38-.09.34-.48l-.11-.98q.22-.81 2.14-.2Z" fill="#3f3d90"/><path d="M36.49 127.71q.21.13.2.29h-3.2l1.05-.41q.99-.21 1.95.12Z" fill="#171718"/><path d="M104.76 127.87q.54-.67.49.13h-3.8q.18-.18.61-.32 1.32-.13 2.7.19Z" fill="#1e1e20"/></svg>