<svg viewBox="0.00 0.00 192.00 192.00" version="1.1" xmlns="http://www.w3.org/2000/svg">
<path d="M 57.50 119.19
  C 47.70 122.75 36.65 131.26 31.08 140.58
  Q 30.32 141.86 30.31 140.36
  Q 30.26 103.19 30.33 66.00
  Q 30.34 59.07 35.01 50.74
  C 41.56 39.05 52.12 31.81 64.47 27.28
  Q 98.98 14.62 133.43 1.83
  C 142.15 -1.40 158.09 0.09 160.88 11.27
  Q 161.26 12.80 161.26 19.74
  Q 161.27 40.50 161.26 61.25
  C 161.25 72.49 152.72 82.27 143.16 87.36
  C 138.69 89.74 134.25 91.19 129.52 92.92
  Q 93.53 106.10 57.50 119.19
  Z" fill="#ff521d"></path>
<path d="M 69.68 176.84
  Q 64.28 174.69 61.08 172.15
  C 50.71 163.92 52.21 149.72 63.38 143.12
  Q 67.43 140.73 71.94 139.33
  Q 95.01 132.16 118.05 124.76
  A 0.43 0.43 0.0 0 1 118.61 125.17
  Q 118.62 151.64 118.65 178.24
  Q 118.66 184.31 117.62 186.62
  C 114.81 192.88 108.52 192.20 103.02 190.03
  Q 86.35 183.44 69.68 176.84
  Z" fill="#ff521d"></path>
</svg>
