<svg viewBox="0.00 0.00 256.00 256.00" version="1.1" xmlns="http://www.w3.org/2000/svg">
<g stroke-linecap="butt" fill="none" stroke-width="2.00">
<path d="M 118.75 51.57
  L 106.65 52.54" stroke="#2d5993"></path>
<path d="M 106.65 52.54
  L 97.27 54.30" stroke="#345093"></path>
<path d="M 97.27 54.30
  L 90.28 56.91" stroke="#3c4793"></path>
<path d="M 90.28 56.91
  C 87.26 58.51 88.00 61.25 88.00 63.96
  Q 88.00 64.45 87.58 64.72
  L 78.12 70.70" stroke="#493793"></path>
<path d="M 78.12 70.70
  Q 64.14 80.93 55.23 95.79" stroke="#681d90"></path>
<path d="M 55.23 95.79
  Q 48.09 107.88 45.28 121.56" stroke="#752a88"></path>
<path d="M 45.28 121.56
  C 38.88 125.19 31.09 127.29 33.78 136.70" stroke="#823780"></path>
<path d="M 33.78 136.70
  Q 36.60 152.95 39.47 169.00
  C 40.55 175.01 41.68 178.76 48.02 179.58
  Q 53.18 180.25 58.37 180.96
  A 1.54 1.47 70.5 0 1 59.22 181.39
  C 72.25 194.48 89.95 201.33 108.25 203.50" stroke="#883c7d"></path>
<path d="M 108.25 203.50
  Q 120.54 205.19 133.02 204.64" stroke="#823780"></path>
<path d="M 133.02 204.64
  Q 149.20 204.37 164.98 199.50" stroke="#752a88"></path>
<path d="M 164.98 199.50
  Q 182.45 194.52 195.54 181.38" stroke="#681d90"></path>
<path d="M 195.54 181.38
  Q 198.64 180.36 208.00 179.37
  Q 211.95 178.94 214.17 174.44" stroke="#493793"></path>
<path d="M 214.17 174.44
  L 217.21 158.24" stroke="#3c4793"></path>
<path d="M 217.21 158.24
  L 219.49 145.66" stroke="#2d5993"></path>
<path d="M 219.49 145.66
  L 221.33 135.34" stroke="#216793"></path>
<path d="M 221.33 135.34
  C 222.24 129.89 220.02 127.51 215.30 124.84
  Q 211.91 122.92 209.29 121.02" stroke="#1b6e93"></path>
<path d="M 209.29 121.02
  Q 207.50 111.88 204.14 104.87" stroke="#157693"></path>
<path d="M 204.14 104.87
  Q 192.37 78.47 167.26 64.74
  A 0.95 0.93 -77.3 0 1 166.78 63.97
  C 166.66 61.75 167.41 58.44 165.04 57.13
  Q 158.40 53.45 148.36 52.72" stroke="#0c8193"></path>
<path d="M 148.36 52.72
  L 133.87 51.40" stroke="#157693"></path>
<path d="M 133.87 51.40
  Q 132.88 51.09 131.14 51.34" stroke="#1b6e93"></path>
<path d="M 131.14 51.34
  L 118.75 51.57" stroke="#216793"></path>
<path d="M 131.14 51.34
  Q 129.88 51.96 130.93 53.24
  Q 131.26 53.65 132.28 54.22
  C 134.30 55.37 134.43 56.93 135.89 58.34
  C 137.68 60.07 139.16 61.99 141.18 63.46
  C 144.38 65.77 146.13 67.59 148.63 69.98
  C 149.91 71.21 151.77 72.42 153.19 73.89
  C 155.61 76.41 158.31 78.29 160.44 80.99
  Q 160.80 81.44 161.38 81.45
  Q 162.05 81.45 162.38 82.19
  A 0.89 0.88 -82.8 0 0 162.65 82.54
  Q 167.54 86.38 171.63 91.06
  C 172.45 92.00 173.65 92.42 174.52 93.34
  C 176.43 95.34 178.47 97.07 180.54 98.90
  C 181.30 99.56 181.49 100.59 182.66 100.99
  Q 183.13 101.15 183.44 101.54
  Q 184.66 103.09 186.16 104.35
  Q 188.26 106.11 189.08 106.94
  Q 191.55 109.43 194.27 111.65
  C 195.14 112.37 196.12 113.69 197.48 114.32
  Q 197.64 114.40 197.72 114.51
  Q 197.81 114.62 197.87 114.75
  Q 197.96 114.92 198.10 115.05
  L 204.17 120.76
  Q 204.23 120.81 204.16 120.85
  Q 203.98 120.96 203.99 121.09
  Q 204.00 121.19 204.14 121.28
  Q 206.32 122.76 208.88 125.76
  C 210.31 127.44 212.50 128.64 214.22 130.51
  C 214.88 131.22 216.55 132.09 216.91 132.72
  Q 217.15 133.14 217.63 133.25
  Q 219.56 133.70 221.33 135.34" stroke="#2abdff"></path>
<path d="M 219.49 145.66
  L 193.46 122.13
  A 0.57 0.50 14.9 0 1 193.34 121.95
  Q 192.78 120.41 191.31 119.82
  Q 190.82 119.62 190.57 119.16
  Q 189.43 117.14 186.91 116.71" stroke="#3ca8ff"></path>
<path d="M 186.91 116.71
  Q 175.55 87.99 146.18 77.97" stroke="#98dbff"></path>
<path d="M 146.18 77.97
  Q 144.63 74.85 141.57 73.03
  Q 141.17 72.80 140.92 72.41
  Q 140.40 71.58 139.55 71.14
  Q 139.14 70.93 138.80 70.60
  L 118.75 51.57" stroke="#3ca8ff"></path>
<path d="M 133.87 51.40
  Q 136.72 54.78 140.21 57.33
  Q 142.20 58.79 143.30 59.91
  Q 144.73 61.36 146.11 62.86
  Q 146.31 63.08 147.90 64.36
  Q 148.60 64.93 149.64 65.99
  Q 151.50 67.89 153.32 69.81
  Q 153.89 70.40 154.96 70.70
  Q 155.46 70.84 155.74 71.28
  Q 156.03 71.73 156.13 72.26
  Q 156.23 72.79 156.72 73.01
  C 157.65 73.44 158.12 74.60 158.61 74.83
  Q 158.77 74.91 158.96 74.90
  Q 159.33 74.89 159.60 75.16
  Q 161.27 76.83 162.86 78.56
  C 163.72 79.49 165.68 81.28 166.72 81.85
  C 169.38 83.29 171.96 86.24 174.31 88.24
  Q 174.84 88.69 175.28 89.36
  Q 175.89 90.31 176.25 90.51
  C 178.64 91.79 179.83 94.09 181.56 95.51
  Q 184.92 98.24 188.13 101.11
  Q 188.63 101.56 189.15 101.99
  Q 189.82 102.55 190.46 103.14
  Q 190.84 103.49 191.02 103.97
  C 191.54 105.31 192.77 105.85 193.57 106.61
  Q 200.85 113.50 206.39 118.23
  Q 207.15 118.88 207.68 119.52
  Q 207.94 119.82 208.34 119.87
  Q 209.07 119.95 209.29 121.02" stroke="#1eccff"></path>
<path d="M 186.91 116.71
  Q 190.16 126.36 190.67 135.27" stroke="#a3cdff"></path>
<path d="M 190.67 135.27
  Q 191.02 144.68 188.99 152.36" stroke="#b2bbff"></path>
<path d="M 188.99 152.36
  Q 186.60 160.59 180.96 166.96" stroke="#c0aaff"></path>
<path d="M 180.96 166.96
  C 172.53 175.56 161.36 180.02 149.71 182.35" stroke="#de91fc"></path>
<path d="M 149.71 182.35
  Q 130.27 185.76 110.42 183.23" stroke="#ec9ef4"></path>
<path d="M 110.42 183.23
  C 91.25 180.64 70.65 172.01 65.55 151.50
  Q 63.96 145.14 63.97 137.96" stroke="#f9aaed"></path>
<path d="M 63.97 137.96
  Q 64.43 122.98 70.39 110.87" stroke="#ec9ef4"></path>
<path d="M 146.18 77.97
  Q 138.50 75.74 130.43 75.23" stroke="#a3cdff"></path>
<path d="M 130.43 75.23
  Q 129.94 72.95 127.94 72.04
  Q 127.50 71.83 127.22 71.43
  C 126.12 69.82 123.99 69.77 123.33 67.88
  A 1.83 1.82 11.1 0 0 122.80 67.10
  C 120.28 64.81 117.95 62.57 115.19 60.56
  Q 114.79 60.26 114.50 59.86
  Q 113.18 57.97 111.13 57.11
  A 1.40 1.40 0.0 0 1 110.33 56.15
  Q 110.11 55.19 109.32 55.12
  A 0.80 0.80 0.0 0 1 108.84 54.89
  L 106.65 52.54" stroke="#4f91ff"></path>
<path d="M 217.21 158.24
  L 190.67 135.27" stroke="#5688ff"></path>
<path d="M 148.36 52.72
  L 158.42 62.77
  Q 158.50 62.86 158.63 62.87
  Q 158.76 62.87 158.91 62.87
  Q 159.01 62.87 159.08 62.94
  C 161.99 65.74 165.06 69.09 168.37 71.40
  Q 170.43 72.85 170.91 73.43
  A 34.33 26.08 50.6 0 0 174.14 77.05
  Q 177.80 80.73 182.21 84.68
  Q 182.27 84.73 182.32 84.73
  Q 182.35 84.73 182.39 84.73
  Q 182.52 84.73 182.60 84.80
  Q 188.02 89.87 193.48 94.89
  Q 194.66 95.99 195.60 97.26
  Q 195.78 97.51 195.98 97.61
  Q 196.25 97.76 196.53 97.82
  Q 197.01 97.93 197.36 98.27
  L 204.14 104.87" stroke="#0fdfff"></path>
<path d="M 63.97 137.96
  L 57.81 132.50
  Q 57.45 132.17 56.96 132.15
  Q 55.83 132.10 55.87 131.21
  Q 55.90 130.64 55.50 130.24
  L 52.73 127.47
  Q 52.37 127.11 51.85 127.14
  Q 51.53 127.16 51.28 126.99
  Q 50.89 126.74 50.89 126.27
  L 50.89 125.75
  Q 50.89 125.36 50.50 125.36
  L 49.96 125.36
  A 0.78 0.76 -19.2 0 1 49.36 125.08
  Q 47.65 122.94 45.28 121.56" stroke="#e549e2"></path>
<path d="M 120.28 75.51
  L 111.45 77.16" stroke="#b2bbff"></path>
<path d="M 111.45 77.16
  L 99.02 65.48
  Q 98.68 65.16 98.61 64.69
  Q 98.56 64.30 98.27 64.09
  Q 96.16 62.58 94.11 60.94
  Q 93.31 60.31 92.21 58.93
  Q 91.39 57.89 90.28 56.91" stroke="#7366ff"></path>
<path d="M 93.12 85.26
  Q 78.13 95.18 70.39 110.87" stroke="#de91fc"></path>
<path d="M 70.39 110.87
  L 65.88 105.63
  Q 65.60 105.31 65.17 105.24
  Q 63.68 105.01 63.65 103.50
  Q 63.65 103.35 63.50 103.35
  Q 63.37 103.35 63.23 103.35
  A 0.96 0.94 65.1 0 1 62.49 103.07
  L 55.23 95.79" stroke="#cb2ff1"></path>
<path d="M 214.17 174.44
  Q 212.02 172.83 210.25 171.12
  C 208.27 169.19 205.84 167.38 203.89 165.33
  C 201.97 163.30 199.39 161.59 197.91 159.87
  A 27.09 20.51 6.2 0 0 194.07 156.25
  L 188.99 152.36" stroke="#7366ff"></path>
<path d="M 130.43 75.23
  L 120.28 75.51" stroke="#abc4ff"></path>
<path d="M 120.28 75.51
  Q 114.16 68.95 111.51 67.13
  Q 109.34 65.64 108.00 64.34
  Q 105.32 61.73 105.25 61.68
  Q 101.11 58.20 97.27 54.30" stroke="#5e7fff"></path>
<path d="M 195.54 181.38
  Q 193.53 178.29 190.78 176.17
  Q 190.44 175.91 190.30 175.50
  Q 190.03 174.69 189.39 174.48
  Q 189.01 174.35 188.71 174.07
  L 180.96 166.96" stroke="#9f3cfc"></path>
<path d="M 164.98 199.50
  Q 163.87 196.56 160.48 193.94
  A 1.08 1.07 16.0 0 1 160.07 193.21
  L 160.02 192.77
  Q 159.97 192.23 159.44 192.11
  Q 157.53 191.64 156.49 189.88
  A 0.50 0.49 73.5 0 0 156.05 189.64
  Q 155.90 189.65 155.75 189.65
  Q 155.11 189.66 155.10 189.02
  Q 155.08 187.95 154.05 187.88
  Q 153.52 187.85 153.14 187.48
  L 149.40 183.84
  Q 149.08 183.53 149.43 183.24
  Q 149.99 182.78 149.71 182.35" stroke="#cb2ff1"></path>
<path d="M 111.45 77.16
  Q 101.03 80.18 93.12 85.26" stroke="#c0aaff"></path>
<path d="M 93.12 85.26
  Q 91.52 82.55 88.90 80.36
  Q 85.63 77.64 84.19 76.15
  Q 81.44 73.30 78.12 70.70" stroke="#9f3cfc"></path>
<path d="M 110.42 183.23
  L 113.22 186.62
  Q 113.54 187.00 114.03 186.96
  Q 115.17 186.86 115.68 187.69
  C 117.07 189.97 119.43 191.98 121.51 193.65
  Q 122.07 194.10 122.47 194.70
  Q 122.72 195.08 123.16 195.14
  Q 124.23 195.29 124.07 196.35
  Q 123.99 196.92 124.56 196.91
  Q 124.72 196.91 124.87 196.90
  Q 125.39 196.89 125.75 197.26
  Q 128.96 200.61 131.26 202.48
  Q 131.93 203.03 131.98 203.59
  Q 132.02 204.04 132.47 204.12
  Q 132.82 204.18 133.09 204.07
  Q 133.39 203.94 133.33 204.26
  Q 133.30 204.44 133.02 204.64" stroke="#e549e2"></path>
<path d="M 108.25 203.50
  Q 107.71 201.80 106.10 200.89
  Q 105.61 200.62 105.24 200.19
  L 103.81 198.56
  Q 103.44 198.13 102.87 198.14
  Q 102.11 198.15 101.89 197.52
  Q 101.77 197.18 101.45 197.00
  Q 100.71 196.59 100.02 195.73
  Q 99.27 194.82 96.70 192.51
  Q 96.34 192.19 95.87 192.15
  Q 95.10 192.09 94.64 191.35
  Q 94.45 191.03 94.14 190.83
  L 92.62 189.81
  Q 92.13 189.48 91.75 189.03
  Q 90.59 187.67 89.01 186.78
  Q 88.53 186.51 88.25 186.04
  Q 87.30 184.36 85.59 183.50
  Q 85.15 183.28 84.94 182.83
  Q 84.74 182.39 84.49 182.25
  Q 81.60 180.57 79.51 178.00
  Q 79.37 177.83 78.92 177.68
  Q 78.44 177.52 78.18 177.08
  Q 77.08 175.23 75.27 174.06
  Q 74.85 173.79 74.58 173.38
  Q 73.82 172.25 72.69 171.48
  Q 72.32 171.23 71.89 171.14
  Q 71.12 170.99 70.89 170.01
  Q 70.52 168.49 68.91 168.09
  A 2.01 1.93 -16.0 0 1 68.10 167.66
  Q 66.24 165.96 64.45 164.16
  C 63.31 163.01 60.99 162.72 60.79 160.66
  Q 60.74 160.12 60.20 160.12
  L 59.55 160.12
  Q 59.32 160.12 59.21 159.92
  Q 59.08 159.71 59.13 159.44
  Q 59.23 158.93 58.87 158.56
  L 55.90 155.55
  Q 55.50 155.14 54.93 155.13
  Q 54.40 155.11 53.86 155.12
  Q 53.42 155.12 53.19 154.92
  Q 52.89 154.66 52.87 154.29
  Q 52.85 153.78 52.49 153.41
  L 48.62 149.38
  Q 48.37 149.12 48.01 149.12
  Q 47.85 149.12 47.71 149.12
  Q 47.18 149.11 47.05 148.61
  C 46.54 146.56 44.84 146.49 43.66 145.34
  Q 41.68 143.41 40.88 142.50
  Q 40.67 142.26 40.63 141.82
  Q 40.60 141.51 40.29 141.48
  Q 39.20 141.37 39.14 140.23
  Q 39.12 139.75 38.77 139.42
  L 37.57 138.29
  Q 37.43 138.16 37.26 138.24
  Q 37.14 138.30 37.01 138.36
  Q 36.83 138.45 36.70 138.30
  Q 34.98 136.11 33.78 136.70" stroke="#f85ad7"></path>
<path d="M 98.25 151.88
  C 111.46 175.69 143.86 175.42 156.58 151.66
  A 0.64 0.64 0.0 0 0 156.29 150.78
  L 147.15 146.52
  A 0.53 0.53 0.0 0 0 146.46 146.76
  C 138.68 161.38 117.60 162.95 109.10 148.21
  Q 108.70 147.52 108.24 146.84
  Q 107.91 146.36 107.37 146.61
  L 98.63 150.69
  Q 97.80 151.08 98.25 151.88" stroke="#898c93"></path>
</g>
<path d="M 52.59 0.00
  L 203.51 0.00
  C 232.13 2.57 253.45 23.95 256.00 52.58
  L 256.00 203.52
  C 253.47 232.18 232.05 253.36 203.40 256.00
  L 52.48 256.00
  C 23.81 253.46 2.64 232.07 0.00 203.41
  L 0.00 52.48
  C 2.56 23.73 23.74 2.86 52.59 0.00
  Z
  M 118.75 51.57
  L 106.65 52.54
  L 97.27 54.30
  L 90.28 56.91
  C 87.26 58.51 88.00 61.25 88.00 63.96
  Q 88.00 64.45 87.58 64.72
  L 78.12 70.70
  Q 64.14 80.93 55.23 95.79
  Q 48.09 107.88 45.28 121.56
  C 38.88 125.19 31.09 127.29 33.78 136.70
  Q 36.60 152.95 39.47 169.00
  C 40.55 175.01 41.68 178.76 48.02 179.58
  Q 53.18 180.25 58.37 180.96
  A 1.54 1.47 70.5 0 1 59.22 181.39
  C 72.25 194.48 89.95 201.33 108.25 203.50
  Q 120.54 205.19 133.02 204.64
  Q 149.20 204.37 164.98 199.50
  Q 182.45 194.52 195.54 181.38
  Q 198.64 180.36 208.00 179.37
  Q 211.95 178.94 214.17 174.44
  L 217.21 158.24
  L 219.49 145.66
  L 221.33 135.34
  C 222.24 129.89 220.02 127.51 215.30 124.84
  Q 211.91 122.92 209.29 121.02
  Q 207.50 111.88 204.14 104.87
  Q 192.37 78.47 167.26 64.74
  A 0.95 0.93 -77.3 0 1 166.78 63.97
  C 166.66 61.75 167.41 58.44 165.04 57.13
  Q 158.40 53.45 148.36 52.72
  L 133.87 51.40
  Q 132.88 51.09 131.14 51.34
  L 118.75 51.57
  Z" fill="#121826"></path>
<path d="M 131.14 51.34
  Q 129.88 51.96 130.93 53.24
  Q 131.26 53.65 132.28 54.22
  C 134.30 55.37 134.43 56.93 135.89 58.34
  C 137.68 60.07 139.16 61.99 141.18 63.46
  C 144.38 65.77 146.13 67.59 148.63 69.98
  C 149.91 71.21 151.77 72.42 153.19 73.89
  C 155.61 76.41 158.31 78.29 160.44 80.99
  Q 160.80 81.44 161.38 81.45
  Q 162.05 81.45 162.38 82.19
  A 0.89 0.88 -82.8 0 0 162.65 82.54
  Q 167.54 86.38 171.63 91.06
  C 172.45 92.00 173.65 92.42 174.52 93.34
  C 176.43 95.34 178.47 97.07 180.54 98.90
  C 181.30 99.56 181.49 100.59 182.66 100.99
  Q 183.13 101.15 183.44 101.54
  Q 184.66 103.09 186.16 104.35
  Q 188.26 106.11 189.08 106.94
  Q 191.55 109.43 194.27 111.65
  C 195.14 112.37 196.12 113.69 197.48 114.32
  Q 197.64 114.40 197.72 114.51
  Q 197.81 114.62 197.87 114.75
  Q 197.96 114.92 198.10 115.05
  L 204.17 120.76
  Q 204.23 120.81 204.16 120.85
  Q 203.98 120.96 203.99 121.09
  Q 204.00 121.19 204.14 121.28
  Q 206.32 122.76 208.88 125.76
  C 210.31 127.44 212.50 128.64 214.22 130.51
  C 214.88 131.22 216.55 132.09 216.91 132.72
  Q 217.15 133.14 217.63 133.25
  Q 219.56 133.70 221.33 135.34
  L 219.49 145.66
  L 193.46 122.13
  A 0.57 0.50 14.9 0 1 193.34 121.95
  Q 192.78 120.41 191.31 119.82
  Q 190.82 119.62 190.57 119.16
  Q 189.43 117.14 186.91 116.71
  Q 175.55 87.99 146.18 77.97
  Q 144.63 74.85 141.57 73.03
  Q 141.17 72.80 140.92 72.41
  Q 140.40 71.58 139.55 71.14
  Q 139.14 70.93 138.80 70.60
  L 118.75 51.57
  L 131.14 51.34
  Z" fill="#30b6ff"></path>
<path d="M 131.14 51.34
  Q 132.88 51.09 133.87 51.40
  Q 136.72 54.78 140.21 57.33
  Q 142.20 58.79 143.30 59.91
  Q 144.73 61.36 146.11 62.86
  Q 146.31 63.08 147.90 64.36
  Q 148.60 64.93 149.64 65.99
  Q 151.50 67.89 153.32 69.81
  Q 153.89 70.40 154.96 70.70
  Q 155.46 70.84 155.74 71.28
  Q 156.03 71.73 156.13 72.26
  Q 156.23 72.79 156.72 73.01
  C 157.65 73.44 158.12 74.60 158.61 74.83
  Q 158.77 74.91 158.96 74.90
  Q 159.33 74.89 159.60 75.16
  Q 161.27 76.83 162.86 78.56
  C 163.72 79.49 165.68 81.28 166.72 81.85
  C 169.38 83.29 171.96 86.24 174.31 88.24
  Q 174.84 88.69 175.28 89.36
  Q 175.89 90.31 176.25 90.51
  C 178.64 91.79 179.83 94.09 181.56 95.51
  Q 184.92 98.24 188.13 101.11
  Q 188.63 101.56 189.15 101.99
  Q 189.82 102.55 190.46 103.14
  Q 190.84 103.49 191.02 103.97
  C 191.54 105.31 192.77 105.85 193.57 106.61
  Q 200.85 113.50 206.39 118.23
  Q 207.15 118.88 207.68 119.52
  Q 207.94 119.82 208.34 119.87
  Q 209.07 119.95 209.29 121.02
  Q 211.91 122.92 215.30 124.84
  C 220.02 127.51 222.24 129.89 221.33 135.34
  Q 219.56 133.70 217.63 133.25
  Q 217.15 133.14 216.91 132.72
  C 216.55 132.09 214.88 131.22 214.22 130.51
  C 212.50 128.64 210.31 127.44 208.88 125.76
  Q 206.32 122.76 204.14 121.28
  Q 204.00 121.19 203.99 121.09
  Q 203.98 120.96 204.16 120.85
  Q 204.23 120.81 204.17 120.76
  L 198.10 115.05
  Q 197.96 114.92 197.87 114.75
  Q 197.81 114.62 197.72 114.51
  Q 197.64 114.40 197.48 114.32
  C 196.12 113.69 195.14 112.37 194.27 111.65
  Q 191.55 109.43 189.08 106.94
  Q 188.26 106.11 186.16 104.35
  Q 184.66 103.09 183.44 101.54
  Q 183.13 101.15 182.66 100.99
  C 181.49 100.59 181.30 99.56 180.54 98.90
  C 178.47 97.07 176.43 95.34 174.52 93.34
  C 173.65 92.42 172.45 92.00 171.63 91.06
  Q 167.54 86.38 162.65 82.54
  A 0.89 0.88 -82.8 0 1 162.38 82.19
  Q 162.05 81.45 161.38 81.45
  Q 160.80 81.44 160.44 80.99
  C 158.31 78.29 155.61 76.41 153.19 73.89
  C 151.77 72.42 149.91 71.21 148.63 69.98
  C 146.13 67.59 144.38 65.77 141.18 63.46
  C 139.16 61.99 137.68 60.07 135.89 58.34
  C 134.43 56.93 134.30 55.37 132.28 54.22
  Q 131.26 53.65 130.93 53.24
  Q 129.88 51.96 131.14 51.34
  Z" fill="#24c4ff"></path>
<path d="M 133.87 51.40
  L 148.36 52.72
  L 158.42 62.77
  Q 158.50 62.86 158.63 62.87
  Q 158.76 62.87 158.91 62.87
  Q 159.01 62.87 159.08 62.94
  C 161.99 65.74 165.06 69.09 168.37 71.40
  Q 170.43 72.85 170.91 73.43
  A 34.33 26.08 50.6 0 0 174.14 77.05
  Q 177.80 80.73 182.21 84.68
  Q 182.27 84.73 182.32 84.73
  Q 182.35 84.73 182.39 84.73
  Q 182.52 84.73 182.60 84.80
  Q 188.02 89.87 193.48 94.89
  Q 194.66 95.99 195.60 97.26
  Q 195.78 97.51 195.98 97.61
  Q 196.25 97.76 196.53 97.82
  Q 197.01 97.93 197.36 98.27
  L 204.14 104.87
  Q 207.50 111.88 209.29 121.02
  Q 209.07 119.95 208.34 119.87
  Q 207.94 119.82 207.68 119.52
  Q 207.15 118.88 206.39 118.23
  Q 200.85 113.50 193.57 106.61
  C 192.77 105.85 191.54 105.31 191.02 103.97
  Q 190.84 103.49 190.46 103.14
  Q 189.82 102.55 189.15 101.99
  Q 188.63 101.56 188.13 101.11
  Q 184.92 98.24 181.56 95.51
  C 179.83 94.09 178.64 91.79 176.25 90.51
  Q 175.89 90.31 175.28 89.36
  Q 174.84 88.69 174.31 88.24
  C 171.96 86.24 169.38 83.29 166.72 81.85
  C 165.68 81.28 163.72 79.49 162.86 78.56
  Q 161.27 76.83 159.60 75.16
  Q 159.33 74.89 158.96 74.90
  Q 158.77 74.91 158.61 74.83
  C 158.12 74.60 157.65 73.44 156.72 73.01
  Q 156.23 72.79 156.13 72.26
  Q 156.03 71.73 155.74 71.28
  Q 155.46 70.84 154.96 70.70
  Q 153.89 70.40 153.32 69.81
  Q 151.50 67.89 149.64 65.99
  Q 148.60 64.93 147.90 64.36
  Q 146.31 63.08 146.11 62.86
  Q 144.73 61.36 143.30 59.91
  Q 142.20 58.79 140.21 57.33
  Q 136.72 54.78 133.87 51.40
  Z" fill="#17d4ff"></path>
<path d="M 118.75 51.57
  L 138.80 70.60
  Q 139.14 70.93 139.55 71.14
  Q 140.40 71.58 140.92 72.41
  Q 141.17 72.80 141.57 73.03
  Q 144.63 74.85 146.18 77.97
  Q 138.50 75.74 130.43 75.23
  Q 129.94 72.95 127.94 72.04
  Q 127.50 71.83 127.22 71.43
  C 126.12 69.82 123.99 69.77 123.33 67.88
  A 1.83 1.82 11.1 0 0 122.80 67.10
  C 120.28 64.81 117.95 62.57 115.19 60.56
  Q 114.79 60.26 114.50 59.86
  Q 113.18 57.97 111.13 57.11
  A 1.40 1.40 0.0 0 1 110.33 56.15
  Q 110.11 55.19 109.32 55.12
  A 0.80 0.80 0.0 0 1 108.84 54.89
  L 106.65 52.54
  L 118.75 51.57
  Z" fill="#479aff"></path>
<path d="M 106.65 52.54
  L 108.84 54.89
  A 0.80 0.80 0.0 0 0 109.32 55.12
  Q 110.11 55.19 110.33 56.15
  A 1.40 1.40 0.0 0 0 111.13 57.11
  Q 113.18 57.97 114.50 59.86
  Q 114.79 60.26 115.19 60.56
  C 117.95 62.57 120.28 64.81 122.80 67.10
  A 1.83 1.82 11.1 0 1 123.33 67.88
  C 123.99 69.77 126.12 69.82 127.22 71.43
  Q 127.50 71.83 127.94 72.04
  Q 129.94 72.95 130.43 75.23
  L 120.28 75.51
  Q 114.16 68.95 111.51 67.13
  Q 109.34 65.64 108.00 64.34
  Q 105.32 61.73 105.25 61.68
  Q 101.11 58.20 97.27 54.30
  L 106.65 52.54
  Z" fill="#5688ff"></path>
<path d="M 148.36 52.72
  Q 158.40 53.45 165.04 57.13
  C 167.41 58.44 166.66 61.75 166.78 63.97
  A 0.95 0.93 -77.3 0 0 167.26 64.74
  Q 192.37 78.47 204.14 104.87
  L 197.36 98.27
  Q 197.01 97.93 196.53 97.82
  Q 196.25 97.76 195.98 97.61
  Q 195.78 97.51 195.60 97.26
  Q 194.66 95.99 193.48 94.89
  Q 188.02 89.87 182.60 84.80
  Q 182.52 84.73 182.39 84.73
  Q 182.35 84.73 182.32 84.73
  Q 182.27 84.73 182.21 84.68
  Q 177.80 80.73 174.14 77.05
  A 34.33 26.08 50.6 0 1 170.91 73.43
  Q 170.43 72.85 168.37 71.40
  C 165.06 69.09 161.99 65.74 159.08 62.94
  Q 159.01 62.87 158.91 62.87
  Q 158.76 62.87 158.63 62.87
  Q 158.50 62.86 158.42 62.77
  L 148.36 52.72
  Z" fill="#06e9ff"></path>
<path d="M 97.27 54.30
  Q 101.11 58.20 105.25 61.68
  Q 105.32 61.73 108.00 64.34
  Q 109.34 65.64 111.51 67.13
  Q 114.16 68.95 120.28 75.51
  L 111.45 77.16
  L 99.02 65.48
  Q 98.68 65.16 98.61 64.69
  Q 98.56 64.30 98.27 64.09
  Q 96.16 62.58 94.11 60.94
  Q 93.31 60.31 92.21 58.93
  Q 91.39 57.89 90.28 56.91
  L 97.27 54.30
  Z" fill="#6576ff"></path>
<path d="M 90.28 56.91
  Q 91.39 57.89 92.21 58.93
  Q 93.31 60.31 94.11 60.94
  Q 96.16 62.58 98.27 64.09
  Q 98.56 64.30 98.61 64.69
  Q 98.68 65.16 99.02 65.48
  L 111.45 77.16
  Q 101.03 80.18 93.12 85.26
  Q 91.52 82.55 88.90 80.36
  Q 85.63 77.64 84.19 76.15
  Q 81.44 73.30 78.12 70.70
  L 87.58 64.72
  Q 88.00 64.45 88.00 63.96
  C 88.00 61.25 87.26 58.51 90.28 56.91
  Z" fill="#8055ff"></path>
<path d="M 78.12 70.70
  Q 81.44 73.30 84.19 76.15
  Q 85.63 77.64 88.90 80.36
  Q 91.52 82.55 93.12 85.26
  Q 78.13 95.18 70.39 110.87
  L 65.88 105.63
  Q 65.60 105.31 65.17 105.24
  Q 63.68 105.01 63.65 103.50
  Q 63.65 103.35 63.50 103.35
  Q 63.37 103.35 63.23 103.35
  A 0.96 0.94 65.1 0 1 62.49 103.07
  L 55.23 95.79
  Q 64.14 80.93 78.12 70.70
  Z" fill="#bd22f9"></path>
<path d="M 130.43 75.23
  Q 138.50 75.74 146.18 77.97
  Q 175.55 87.99 186.91 116.71
  Q 190.16 126.36 190.67 135.27
  Q 191.02 144.68 188.99 152.36
  Q 186.60 160.59 180.96 166.96
  C 172.53 175.56 161.36 180.02 149.71 182.35
  Q 130.27 185.76 110.42 183.23
  C 91.25 180.64 70.65 172.01 65.55 151.50
  Q 63.96 145.14 63.97 137.96
  Q 64.43 122.98 70.39 110.87
  Q 78.13 95.18 93.12 85.26
  Q 101.03 80.18 111.45 77.16
  L 120.28 75.51
  L 130.43 75.23
  Z
  M 98.25 151.88
  C 111.46 175.69 143.86 175.42 156.58 151.66
  A 0.64 0.64 0.0 0 0 156.29 150.78
  L 147.15 146.52
  A 0.53 0.53 0.0 0 0 146.46 146.76
  C 138.68 161.38 117.60 162.95 109.10 148.21
  Q 108.70 147.52 108.24 146.84
  Q 107.91 146.36 107.37 146.61
  L 98.63 150.69
  Q 97.80 151.08 98.25 151.88
  Z" fill="#ffffff"></path>
<path d="M 55.23 95.79
  L 62.49 103.07
  A 0.96 0.94 65.1 0 0 63.23 103.35
  Q 63.37 103.35 63.50 103.35
  Q 63.65 103.35 63.65 103.50
  Q 63.68 105.01 65.17 105.24
  Q 65.60 105.31 65.88 105.63
  L 70.39 110.87
  Q 64.43 122.98 63.97 137.96
  L 57.81 132.50
  Q 57.45 132.17 56.96 132.15
  Q 55.83 132.10 55.87 131.21
  Q 55.90 130.64 55.50 130.24
  L 52.73 127.47
  Q 52.37 127.11 51.85 127.14
  Q 51.53 127.16 51.28 126.99
  Q 50.89 126.74 50.89 126.27
  L 50.89 125.75
  Q 50.89 125.36 50.50 125.36
  L 49.96 125.36
  A 0.78 0.76 -19.2 0 1 49.36 125.08
  Q 47.65 122.94 45.28 121.56
  Q 48.09 107.88 55.23 95.79
  Z" fill="#d83ce9"></path>
<path d="M 219.49 145.66
  L 217.21 158.24
  L 190.67 135.27
  Q 190.16 126.36 186.91 116.71
  Q 189.43 117.14 190.57 119.16
  Q 190.82 119.62 191.31 119.82
  Q 192.78 120.41 193.34 121.95
  A 0.57 0.50 14.9 0 0 193.46 122.13
  L 219.49 145.66
  Z" fill="#479aff"></path>
<path d="M 45.28 121.56
  Q 47.65 122.94 49.36 125.08
  A 0.78 0.76 -19.2 0 0 49.96 125.36
  L 50.50 125.36
  Q 50.89 125.36 50.89 125.75
  L 50.89 126.27
  Q 50.89 126.74 51.28 126.99
  Q 51.53 127.16 51.85 127.14
  Q 52.37 127.11 52.73 127.47
  L 55.50 130.24
  Q 55.90 130.64 55.87 131.21
  Q 55.83 132.10 56.96 132.15
  Q 57.45 132.17 57.81 132.50
  L 63.97 137.96
  Q 63.96 145.14 65.55 151.50
  C 70.65 172.01 91.25 180.64 110.42 183.23
  L 113.22 186.62
  Q 113.54 187.00 114.03 186.96
  Q 115.17 186.86 115.68 187.69
  C 117.07 189.97 119.43 191.98 121.51 193.65
  Q 122.07 194.10 122.47 194.70
  Q 122.72 195.08 123.16 195.14
  Q 124.23 195.29 124.07 196.35
  Q 123.99 196.92 124.56 196.91
  Q 124.72 196.91 124.87 196.90
  Q 125.39 196.89 125.75 197.26
  Q 128.96 200.61 131.26 202.48
  Q 131.93 203.03 131.98 203.59
  Q 132.02 204.04 132.47 204.12
  Q 132.82 204.18 133.09 204.07
  Q 133.39 203.94 133.33 204.26
  Q 133.30 204.44 133.02 204.64
  Q 120.54 205.19 108.25 203.50
  Q 107.71 201.80 106.10 200.89
  Q 105.61 200.62 105.24 200.19
  L 103.81 198.56
  Q 103.44 198.13 102.87 198.14
  Q 102.11 198.15 101.89 197.52
  Q 101.77 197.18 101.45 197.00
  Q 100.71 196.59 100.02 195.73
  Q 99.27 194.82 96.70 192.51
  Q 96.34 192.19 95.87 192.15
  Q 95.10 192.09 94.64 191.35
  Q 94.45 191.03 94.14 190.83
  L 92.62 189.81
  Q 92.13 189.48 91.75 189.03
  Q 90.59 187.67 89.01 186.78
  Q 88.53 186.51 88.25 186.04
  Q 87.30 184.36 85.59 183.50
  Q 85.15 183.28 84.94 182.83
  Q 84.74 182.39 84.49 182.25
  Q 81.60 180.57 79.51 178.00
  Q 79.37 177.83 78.92 177.68
  Q 78.44 177.52 78.18 177.08
  Q 77.08 175.23 75.27 174.06
  Q 74.85 173.79 74.58 173.38
  Q 73.82 172.25 72.69 171.48
  Q 72.32 171.23 71.89 171.14
  Q 71.12 170.99 70.89 170.01
  Q 70.52 168.49 68.91 168.09
  A 2.01 1.93 -16.0 0 1 68.10 167.66
  Q 66.24 165.96 64.45 164.16
  C 63.31 163.01 60.99 162.72 60.79 160.66
  Q 60.74 160.12 60.20 160.12
  L 59.55 160.12
  Q 59.32 160.12 59.21 159.92
  Q 59.08 159.71 59.13 159.44
  Q 59.23 158.93 58.87 158.56
  L 55.90 155.55
  Q 55.50 155.14 54.93 155.13
  Q 54.40 155.11 53.86 155.12
  Q 53.42 155.12 53.19 154.92
  Q 52.89 154.66 52.87 154.29
  Q 52.85 153.78 52.49 153.41
  L 48.62 149.38
  Q 48.37 149.12 48.01 149.12
  Q 47.85 149.12 47.71 149.12
  Q 47.18 149.11 47.05 148.61
  C 46.54 146.56 44.84 146.49 43.66 145.34
  Q 41.68 143.41 40.88 142.50
  Q 40.67 142.26 40.63 141.82
  Q 40.60 141.51 40.29 141.48
  Q 39.20 141.37 39.14 140.23
  Q 39.12 139.75 38.77 139.42
  L 37.57 138.29
  Q 37.43 138.16 37.26 138.24
  Q 37.14 138.30 37.01 138.36
  Q 36.83 138.45 36.70 138.30
  Q 34.98 136.11 33.78 136.70
  C 31.09 127.29 38.88 125.19 45.28 121.56
  Z" fill="#f255da"></path>
<path d="M 217.21 158.24
  L 214.17 174.44
  Q 212.02 172.83 210.25 171.12
  C 208.27 169.19 205.84 167.38 203.89 165.33
  C 201.97 163.30 199.39 161.59 197.91 159.87
  A 27.09 20.51 6.2 0 0 194.07 156.25
  L 188.99 152.36
  Q 191.02 144.68 190.67 135.27
  L 217.21 158.24
  Z" fill="#6576ff"></path>
<path d="M 108.25 203.50
  C 89.95 201.33 72.25 194.48 59.22 181.39
  A 1.54 1.47 70.5 0 0 58.37 180.96
  Q 53.18 180.25 48.02 179.58
  C 41.68 178.76 40.55 175.01 39.47 169.00
  Q 36.60 152.95 33.78 136.70
  Q 34.98 136.11 36.70 138.30
  Q 36.83 138.45 37.01 138.36
  Q 37.14 138.30 37.26 138.24
  Q 37.43 138.16 37.57 138.29
  L 38.77 139.42
  Q 39.12 139.75 39.14 140.23
  Q 39.20 141.37 40.29 141.48
  Q 40.60 141.51 40.63 141.82
  Q 40.67 142.26 40.88 142.50
  Q 41.68 143.41 43.66 145.34
  C 44.84 146.49 46.54 146.56 47.05 148.61
  Q 47.18 149.11 47.71 149.12
  Q 47.85 149.12 48.01 149.12
  Q 48.37 149.12 48.62 149.38
  L 52.49 153.41
  Q 52.85 153.78 52.87 154.29
  Q 52.89 154.66 53.19 154.92
  Q 53.42 155.12 53.86 155.12
  Q 54.40 155.11 54.93 155.13
  Q 55.50 155.14 55.90 155.55
  L 58.87 158.56
  Q 59.23 158.93 59.13 159.44
  Q 59.08 159.71 59.21 159.92
  Q 59.32 160.12 59.55 160.12
  L 60.20 160.12
  Q 60.74 160.12 60.79 160.66
  C 60.99 162.72 63.31 163.01 64.45 164.16
  Q 66.24 165.96 68.10 167.66
  A 2.01 1.93 -16.0 0 0 68.91 168.09
  Q 70.52 168.49 70.89 170.01
  Q 71.12 170.99 71.89 171.14
  Q 72.32 171.23 72.69 171.48
  Q 73.82 172.25 74.58 173.38
  Q 74.85 173.79 75.27 174.06
  Q 77.08 175.23 78.18 177.08
  Q 78.44 177.52 78.92 177.68
  Q 79.37 177.83 79.51 178.00
  Q 81.60 180.57 84.49 182.25
  Q 84.74 182.39 84.94 182.83
  Q 85.15 183.28 85.59 183.50
  Q 87.30 184.36 88.25 186.04
  Q 88.53 186.51 89.01 186.78
  Q 90.59 187.67 91.75 189.03
  Q 92.13 189.48 92.62 189.81
  L 94.14 190.83
  Q 94.45 191.03 94.64 191.35
  Q 95.10 192.09 95.87 192.15
  Q 96.34 192.19 96.70 192.51
  Q 99.27 194.82 100.02 195.73
  Q 100.71 196.59 101.45 197.00
  Q 101.77 197.18 101.89 197.52
  Q 102.11 198.15 102.87 198.14
  Q 103.44 198.13 103.81 198.56
  L 105.24 200.19
  Q 105.61 200.62 106.10 200.89
  Q 107.71 201.80 108.25 203.50
  Z" fill="#fd5fd4"></path>
<path d="M 156.58 151.66
  C 143.86 175.42 111.46 175.69 98.25 151.88
  Q 97.80 151.08 98.63 150.69
  L 107.37 146.61
  Q 107.91 146.36 108.24 146.84
  Q 108.70 147.52 109.10 148.21
  C 117.60 162.95 138.68 161.38 146.46 146.76
  A 0.53 0.53 0.0 0 1 147.15 146.52
  L 156.29 150.78
  A 0.64 0.64 0.0 0 1 156.58 151.66
  Z" fill="#121826"></path>
<path d="M 188.99 152.36
  L 194.07 156.25
  A 27.09 20.51 6.2 0 1 197.91 159.87
  C 199.39 161.59 201.97 163.30 203.89 165.33
  C 205.84 167.38 208.27 169.19 210.25 171.12
  Q 212.02 172.83 214.17 174.44
  Q 211.95 178.94 208.00 179.37
  Q 198.64 180.36 195.54 181.38
  Q 193.53 178.29 190.78 176.17
  Q 190.44 175.91 190.30 175.50
  Q 190.03 174.69 189.39 174.48
  Q 189.01 174.35 188.71 174.07
  L 180.96 166.96
  Q 186.60 160.59 188.99 152.36
  Z" fill="#8055ff"></path>
<path d="M 180.96 166.96
  L 188.71 174.07
  Q 189.01 174.35 189.39 174.48
  Q 190.03 174.69 190.30 175.50
  Q 190.44 175.91 190.78 176.17
  Q 193.53 178.29 195.54 181.38
  Q 182.45 194.52 164.98 199.50
  Q 163.87 196.56 160.48 193.94
  A 1.08 1.07 16.0 0 1 160.07 193.21
  L 160.02 192.77
  Q 159.97 192.23 159.44 192.11
  Q 157.53 191.64 156.49 189.88
  A 0.50 0.49 73.5 0 0 156.05 189.64
  Q 155.90 189.65 155.75 189.65
  Q 155.11 189.66 155.10 189.02
  Q 155.08 187.95 154.05 187.88
  Q 153.52 187.85 153.14 187.48
  L 149.40 183.84
  Q 149.08 183.53 149.43 183.24
  Q 149.99 182.78 149.71 182.35
  C 161.36 180.02 172.53 175.56 180.96 166.96
  Z" fill="#bd22f9"></path>
<path d="M 149.71 182.35
  Q 149.99 182.78 149.43 183.24
  Q 149.08 183.53 149.40 183.84
  L 153.14 187.48
  Q 153.52 187.85 154.05 187.88
  Q 155.08 187.95 155.10 189.02
  Q 155.11 189.66 155.75 189.65
  Q 155.90 189.65 156.05 189.64
  A 0.50 0.49 73.5 0 1 156.49 189.88
  Q 157.53 191.64 159.44 192.11
  Q 159.97 192.23 160.02 192.77
  L 160.07 193.21
  A 1.08 1.07 16.0 0 0 160.48 193.94
  Q 163.87 196.56 164.98 199.50
  Q 149.20 204.37 133.02 204.64
  Q 133.30 204.44 133.33 204.26
  Q 133.39 203.94 133.09 204.07
  Q 132.82 204.18 132.47 204.12
  Q 132.02 204.04 131.98 203.59
  Q 131.93 203.03 131.26 202.48
  Q 128.96 200.61 125.75 197.26
  Q 125.39 196.89 124.87 196.90
  Q 124.72 196.91 124.56 196.91
  Q 123.99 196.92 124.07 196.35
  Q 124.23 195.29 123.16 195.14
  Q 122.72 195.08 122.47 194.70
  Q 122.07 194.10 121.51 193.65
  C 119.43 191.98 117.07 189.97 115.68 187.69
  Q 115.17 186.86 114.03 186.96
  Q 113.54 187.00 113.22 186.62
  L 110.42 183.23
  Q 130.27 185.76 149.71 182.35
  Z" fill="#d83ce9"></path>
</svg>
