<svg viewBox="0.00 0.00 198.00 198.00" version="1.1" xmlns="http://www.w3.org/2000/svg">
<g stroke-linecap="butt" fill="none" stroke-width="2.00">
<path d="M 169.77 71.82
  L 141.34 99.79" stroke="#bbfc59"></path>
<path d="M 98.99 57.48
  L 70.72 29.32" stroke="#ffa369"></path>
<path d="M 127.21 170.78
  L 99.02 142.56" stroke="#69caaa"></path>
<path d="M 56.47 100.02
  L 28.26 128.25" stroke="#ae71ba"></path>
</g>
<path d="M 169.77 71.82
  L 141.34 99.79
  L 98.99 57.48
  L 70.72 29.32
  Q 76.63 23.40 82.96 17.13
  Q 87.53 12.59 90.98 11.06
  Q 99.11 7.43 107.17 11.11
  Q 110.71 12.73 115.71 17.74
  Q 142.91 44.98 169.77 71.82
  Z" fill="#fff85e"></path>
<path d="M 70.72 29.32
  L 98.99 57.48
  L 56.47 100.02
  L 28.26 128.25
  Q 21.92 121.95 15.78 115.76
  C 6.36 106.30 5.29 94.73 15.28 84.74
  Q 42.68 57.35 70.72 29.32
  Z" fill="#ff4e74"></path>
<path d="M 169.77 71.82
  Q 175.78 77.77 181.52 83.52
  Q 186.25 88.27 187.86 91.82
  Q 191.61 100.07 187.90 108.10
  Q 186.17 111.86 180.24 117.79
  Q 153.60 144.39 127.21 170.78
  L 99.02 142.56
  L 141.34 99.79
  L 169.77 71.82
  Z" fill="#76ff54"></path>
<path d="M 56.47 100.02
  L 99.02 142.56
  L 127.21 170.78
  Q 120.84 177.21 114.56 183.40
  C 105.14 192.71 93.62 193.58 83.77 183.73
  Q 55.89 155.87 28.26 128.25
  L 56.47 100.02
  Z" fill="#5c94ff"></path>
</svg>
