<svg viewBox="0.00 0.00 152.00 152.00" version="1.1" xmlns="http://www.w3.org/2000/svg">
<g stroke-linecap="butt" fill="none" stroke-width="2.00">
<path d="M 73.11 34.37
  Q 73.75 39.65 76.97 44.26
  Q 78.87 47.00 80.92 49.77" stroke="#a680b7"></path>
<path d="M 80.92 49.77
  Q 79.94 52.58 77.93 54.68
  Q 76.78 55.88 75.99 54.98" stroke="#a64a51"></path>
<path d="M 75.99 54.98
  L 69.26 42.12
  Q 68.61 40.87 68.84 42.27
  L 69.60 46.93" stroke-opacity="0.996" stroke="#9e6393"></path>
<path d="M 69.60 46.93
  L 69.85 53.25" stroke="#a64a51"></path>
<path d="M 69.85 53.25
  Q 70.07 54.40 69.19 55.31
  Q 68.71 55.80 68.39 55.20
  L 66.91 52.36
  Q 66.72 51.99 66.35 51.79
  C 65.52 51.33 65.13 50.99 64.67 50.06
  Q 63.46 47.57 61.21 45.98
  Q 60.81 45.70 60.65 45.25
  Q 60.42 44.61 59.79 44.61
  Q 59.24 44.61 58.88 44.19
  Q 57.88 43.01 56.33 43.15
  Q 56.24 43.15 56.22 43.24
  Q 56.18 43.40 56.14 43.55
  Q 56.06 43.85 55.91 43.58
  L 55.39 42.61
  A 0.36 0.36 0.0 0 0 54.75 42.62
  Q 54.23 43.64 54.40 44.55" stroke="#652188"></path>
<path d="M 54.40 44.55
  C 52.43 52.60 54.38 61.49 62.44 65.27" stroke="#9f3d54"></path>
<path d="M 62.44 65.27
  Q 62.54 69.09 58.53 69.64
  A 1.04 1.03 60.4 0 1 57.71 69.41
  L 52.46 65.00" stroke="#983158"></path>
<path d="M 52.46 65.00
  Q 52.25 64.26 51.59 64.25
  Q 51.17 64.24 50.73 64.68
  C 42.12 73.24 35.99 86.21 39.39 98.66" stroke-opacity="0.996" stroke="#9e6393"></path>
<path d="M 39.39 98.66
  Q 40.98 104.14 45.46 108.52
  Q 47.12 110.12 46.20 108.01
  Q 45.00 105.27 44.45 102.26
  Q 43.83 98.86 46.31 101.26
  Q 57.84 112.41 70.12 123.12
  Q 72.79 125.44 74.99 128.38" stroke="#a64a51"></path>
<path d="M 55.83 50.51
  Q 56.36 55.15 59.17 58.72" stroke="#bb5b60"></path>
<path d="M 59.17 58.72
  Q 58.08 58.43 57.62 57.65
  Q 57.26 57.04 56.67 57.42
  L 56.33 57.64
  Q 56.03 57.83 56.18 58.16
  Q 59.12 64.56 66.03 64.65
  C 68.72 64.68 70.41 63.31 73.32 65.34
  A 1.50 1.46 60.6 0 0 74.27 65.62
  Q 75.32 65.56 76.33 65.84
  Q 76.71 65.95 76.96 66.25
  Q 77.59 67.01 78.53 67.38
  Q 79.03 67.58 79.46 67.89
  C 80.86 68.91 82.78 69.70 82.32 72.02
  Q 82.23 72.47 81.82 72.67
  C 79.19 73.95 77.27 74.40 75.11 75.33
  C 72.69 76.38 70.18 77.01 68.01 78.73
  C 65.42 80.79 61.63 80.06 58.79 81.71
  C 56.92 82.80 55.61 83.20 54.10 85.25
  Q 53.07 86.65 50.93 87.81
  Q 50.47 88.06 49.98 87.89
  Q 46.80 86.76 44.20 84.62
  Q 44.16 84.59 44.20 84.56
  Q 44.29 84.47 44.38 84.36
  A 0.15 0.14 35.8 0 0 44.34 84.14
  Q 43.11 83.40 40.44 86.10" stroke="#ec7424"></path>
<path d="M 40.44 86.10
  Q 41.95 79.86 44.72 75.03" stroke="#e48c65"></path>
<path d="M 44.72 75.03
  Q 45.99 75.52 45.13 77.10
  Q 45.00 77.33 45.25 77.25
  Q 45.44 77.19 45.63 77.16
  Q 45.94 77.11 46.35 77.27
  C 48.66 78.13 51.13 79.39 53.55 79.76
  C 56.49 80.21 57.85 77.74 60.63 77.37
  Q 62.22 77.16 63.75 76.68
  C 66.50 75.83 69.23 76.25 71.89 75.14
  Q 73.10 74.63 74.04 74.58
  Q 74.51 74.56 74.93 74.35
  Q 77.05 73.31 79.36 72.82
  Q 79.83 72.72 80.12 72.34
  Q 81.04 71.13 80.13 70.14
  C 79.59 69.55 78.92 69.54 78.24 69.07
  Q 77.35 68.46 76.83 68.28
  Q 69.61 65.78 62.44 65.27" stroke="#de5b2b"></path>
<path d="M 125.20 98.09
  Q 124.07 97.22 123.74 95.36
  Q 123.70 95.09 123.43 95.15
  Q 123.32 95.17 123.23 95.30" stroke-opacity="0.925" stroke="#ded8db"></path>
<path d="M 123.23 95.30
  Q 122.81 94.99 122.01 95.24
  C 113.07 98.05 107.15 92.93 99.05 90.70" stroke="#a680b7"></path>
<path d="M 99.05 90.70
  Q 97.33 89.98 95.34 89.97
  Q 94.86 89.97 94.49 89.66
  Q 93.96 89.24 93.25 89.32
  Q 90.12 89.64 87.11 89.11
  Q 81.82 88.19 81.10 88.22
  Q 76.40 88.40 73.14 91.49
  Q 72.10 92.48 73.22 93.18
  Q 73.62 93.43 73.64 93.90
  L 73.70 95.88" stroke="#cebad0"></path>
<path d="M 73.70 95.88
  Q 70.15 99.53 71.62 105.16" stroke="#a680b7"></path>
<path d="M 81.93 125.72
  Q 82.65 128.48 84.50 130.90
  Q 84.88 131.39 84.88 132.01
  L 84.88 132.63
  Q 84.88 132.63 84.87 132.63
  Q 84.76 132.56 84.65 132.50" stroke-opacity="0.925" stroke="#ded8db"></path>
<path d="M 84.65 132.50
  C 76.40 119.67 71.14 111.25 67.25 99.00
  Q 67.09 98.50 66.57 98.60
  Q 66.35 98.65 66.17 98.79
  Q 65.89 99.01 65.82 99.58
  Q 65.38 103.14 65.56 104.78
  Q 66.09 109.72 64.07 105.18
  C 59.01 93.75 68.51 80.67 80.12 78.89
  Q 86.43 77.93 91.51 78.81
  Q 94.46 79.32 91.52 79.88
  L 80.66 81.95
  Q 80.37 82.00 80.37 82.30
  L 80.37 82.56
  A 0.68 0.67 -1.2 0 0 81.08 83.23
  Q 91.95 82.66 98.45 84.12
  C 106.61 85.96 112.93 89.60 119.98 93.07
  Q 121.59 93.87 123.16 91.36" stroke="#f3b686"></path>
<path d="M 123.16 91.36
  Q 124.14 93.02 124.40 94.47
  Q 124.61 95.61 125.73 95.33
  Q 129.54 94.36 129.97 90.44
  A 1.61 1.60 5.8 0 0 128.52 88.67
  L 124.28 88.30" stroke="#a680b7"></path>
<path d="M 124.28 88.30
  Q 124.18 87.32 124.49 87.10
  A 1.32 1.31 46.0 0 0 124.52 84.98
  C 121.05 82.33 114.14 77.80 113.38 73.62
  C 112.82 70.51 112.61 66.91 111.51 64.22
  C 109.47 59.24 105.35 55.92 101.44 52.41
  Q 99.01 50.23 96.37 49.12
  Q 89.88 46.40 83.12 45.07
  A 0.95 0.94 84.1 0 0 82.07 46.37
  L 84.62 52.38" stroke="#f7ce8a"></path>
<path d="M 84.62 52.38
  Q 82.45 51.51 80.92 49.77" stroke="#f3b686"></path>
<path d="M 75.99 54.98
  Q 75.82 55.16 75.59 55.23
  Q 75.11 55.37 74.83 54.95
  L 69.60 46.93" stroke="#eb9961"></path>
<path d="M 52.46 65.00
  Q 47.96 69.44 44.72 75.03" stroke="#dd8069"></path>
<path d="M 124.28 88.30
  Q 122.43 89.02 123.16 91.36" stroke="#a64a51"></path>
<path d="M 84.65 132.50
  Q 84.76 133.40 84.17 133.68" stroke-opacity="0.925" stroke="#de9e6d"></path>
<path d="M 39.39 98.66
  L 40.44 86.10" stroke="#eb9961"></path>
<path d="M 59.17 58.72
  Q 62.33 62.47 68.75 61.85" stroke="#c2685d"></path>
<path d="M 69.85 53.25
  Q 70.24 58.42 68.75 61.85" stroke="#b25757"></path>
<path d="M 68.75 61.85
  Q 67.01 61.86 66.05 61.42
  Q 65.67 61.24 65.81 60.84
  Q 66.11 60.03 65.50 59.49
  C 63.67 57.86 62.09 55.63 60.40 53.81
  Q 60.20 53.59 59.88 53.45
  Q 59.64 53.35 59.42 53.23
  Q 58.96 52.98 58.70 52.53
  Q 58.02 51.35 56.88 51.56
  Q 56.46 51.64 56.30 51.24
  Q 56.12 50.79 55.83 50.51" stroke="#813f93"></path>
<path d="M 55.83 50.51
  L 55.19 44.75
  Q 55.14 44.33 54.72 44.38
  Q 54.55 44.40 54.40 44.55" stroke="#ab4b5a"></path>
<path d="M 99.05 90.70
  C 89.64 89.63 80.92 89.42 73.70 95.88" stroke="#814d9b"></path>
<path d="M 124.28 88.30
  Q 116.43 84.20 111.84 79.01
  C 110.32 77.29 108.86 74.39 108.59 71.66
  C 108.09 66.72 104.22 61.38 100.62 58.24
  Q 99.86 57.59 97.59 56.60
  Q 96.10 55.96 94.96 54.77
  Q 94.61 54.41 94.16 54.20
  L 86.15 50.52
  Q 86.03 50.47 85.92 50.53
  Q 85.73 50.62 85.51 50.55
  Q 85.18 50.43 85.08 50.77
  L 84.62 52.38" stroke="#f79825"></path>
<path d="M 123.23 95.30
  Q 123.13 95.71 122.89 96.05
  Q 122.68 96.34 122.23 96.47
  Q 116.62 98.15 110.06 99.25" stroke-opacity="0.925" stroke="#8b63a2"></path>
<path d="M 98.84 37.73
  L 98.41 47.51
  A 0.81 0.81 0.0 0 1 97.27 48.22
  Q 90.21 45.08 82.26 43.12" stroke="#a680b7"></path>
<path d="M 99.78 74.22
  C 102.74 74.21 104.55 74.39 106.36 76.99
  Q 108.11 79.51 107.67 76.48
  C 106.40 67.63 99.73 64.08 91.71 68.24
  A 0.61 0.61 0.0 0 0 91.48 69.11
  C 93.28 71.89 96.32 74.23 99.78 74.22" stroke="#a64a51"></path>
<path d="M 99.1720 72.0116
  A 1.60 1.20 81.3 0 0 100.1162 70.2485
  A 1.60 1.20 81.3 0 0 98.6880 68.8484
  A 1.60 1.20 81.3 0 0 97.7438 70.6115
  A 1.60 1.20 81.3 0 0 99.1720 72.0116" stroke-opacity="0.996" stroke="#9e6393"></path>
</g>
<path d="M 73.11 34.37
  Q 73.75 39.65 76.97 44.26
  Q 78.87 47.00 80.92 49.77
  Q 79.94 52.58 77.93 54.68
  Q 76.78 55.88 75.99 54.98
  L 69.26 42.12
  Q 68.61 40.87 68.84 42.27
  L 69.60 46.93
  L 69.85 53.25
  Q 70.07 54.40 69.19 55.31
  Q 68.71 55.80 68.39 55.20
  L 66.91 52.36
  Q 66.72 51.99 66.35 51.79
  C 65.52 51.33 65.13 50.99 64.67 50.06
  Q 63.46 47.57 61.21 45.98
  Q 60.81 45.70 60.65 45.25
  Q 60.42 44.61 59.79 44.61
  Q 59.24 44.61 58.88 44.19
  Q 57.88 43.01 56.33 43.15
  Q 56.24 43.15 56.22 43.24
  Q 56.18 43.40 56.14 43.55
  Q 56.06 43.85 55.91 43.58
  L 55.39 42.61
  A 0.36 0.36 0.0 0 0 54.75 42.62
  Q 54.23 43.64 54.40 44.55
  C 52.43 52.60 54.38 61.49 62.44 65.27
  Q 62.54 69.09 58.53 69.64
  A 1.04 1.03 60.4 0 1 57.71 69.41
  L 52.46 65.00
  Q 52.25 64.26 51.59 64.25
  Q 51.17 64.24 50.73 64.68
  C 42.12 73.24 35.99 86.21 39.39 98.66
  Q 40.98 104.14 45.46 108.52
  Q 47.12 110.12 46.20 108.01
  Q 45.00 105.27 44.45 102.26
  Q 43.83 98.86 46.31 101.26
  Q 57.84 112.41 70.12 123.12
  Q 72.79 125.44 74.99 128.38
  Q 67.39 125.96 60.04 120.81
  A 0.82 0.82 0.0 0 0 58.80 121.19
  L 58.64 121.62
  Q 58.21 122.76 59.18 123.50
  L 71.34 132.80
  A 0.46 0.46 0.0 0 1 71.07 133.63
  C 69.67 133.67 68.40 132.91 67.45 132.61
  C 45.49 125.51 27.39 106.10 36.91 81.40
  Q 40.04 73.28 46.15 66.71
  Q 48.60 64.09 50.80 61.39
  A 1.88 1.87 -33.5 0 0 51.15 59.69
  C 47.53 46.76 51.38 31.85 63.85 25.02
  Q 70.73 21.25 77.25 17.57
  Q 78.43 16.90 77.65 18.01
  C 74.59 22.31 71.81 28.85 73.11 34.37
  Z" fill-opacity="0.996" fill="#591382"></path>
<path d="M 98.84 37.73
  L 98.41 47.51
  A 0.81 0.81 0.0 0 1 97.27 48.22
  Q 90.21 45.08 82.26 43.12
  Q 93.33 33.94 101.09 23.23
  Q 102.13 21.78 101.55 23.47
  C 100.04 27.87 98.48 32.77 98.84 37.73
  Z" fill-opacity="0.996" fill="#591382"></path>
<path d="M 73.11 34.37
  Q 75.76 39.76 79.75 42.71
  Q 80.85 43.53 82.26 43.12
  Q 90.21 45.08 97.27 48.22
  A 0.81 0.81 0.0 0 0 98.41 47.51
  L 98.84 37.73
  C 98.95 41.60 99.06 48.41 101.58 50.65
  C 105.86 54.46 112.55 60.13 113.39 65.62
  C 113.98 69.46 113.93 74.28 116.81 77.31
  C 120.13 80.81 125.30 84.38 129.31 87.35
  C 134.90 91.48 128.97 96.15 125.20 98.09
  Q 124.07 97.22 123.74 95.36
  Q 123.70 95.09 123.43 95.15
  Q 123.32 95.17 123.23 95.30
  Q 122.81 94.99 122.01 95.24
  C 113.07 98.05 107.15 92.93 99.05 90.70
  Q 97.33 89.98 95.34 89.97
  Q 94.86 89.97 94.49 89.66
  Q 93.96 89.24 93.25 89.32
  Q 90.12 89.64 87.11 89.11
  Q 81.82 88.19 81.10 88.22
  Q 76.40 88.40 73.14 91.49
  Q 72.10 92.48 73.22 93.18
  Q 73.62 93.43 73.64 93.90
  L 73.70 95.88
  Q 70.15 99.53 71.62 105.16
  C 72.77 111.80 77.90 119.51 81.93 125.72
  Q 82.65 128.48 84.50 130.90
  Q 84.88 131.39 84.88 132.01
  L 84.88 132.63
  Q 84.88 132.63 84.87 132.63
  Q 84.76 132.56 84.65 132.50
  C 76.40 119.67 71.14 111.25 67.25 99.00
  Q 67.09 98.50 66.57 98.60
  Q 66.35 98.65 66.17 98.79
  Q 65.89 99.01 65.82 99.58
  Q 65.38 103.14 65.56 104.78
  Q 66.09 109.72 64.07 105.18
  C 59.01 93.75 68.51 80.67 80.12 78.89
  Q 86.43 77.93 91.51 78.81
  Q 94.46 79.32 91.52 79.88
  L 80.66 81.95
  Q 80.37 82.00 80.37 82.30
  L 80.37 82.56
  A 0.68 0.67 -1.2 0 0 81.08 83.23
  Q 91.95 82.66 98.45 84.12
  C 106.61 85.96 112.93 89.60 119.98 93.07
  Q 121.59 93.87 123.16 91.36
  Q 124.14 93.02 124.40 94.47
  Q 124.61 95.61 125.73 95.33
  Q 129.54 94.36 129.97 90.44
  A 1.61 1.60 5.8 0 0 128.52 88.67
  L 124.28 88.30
  Q 124.18 87.32 124.49 87.10
  A 1.32 1.31 46.0 0 0 124.52 84.98
  C 121.05 82.33 114.14 77.80 113.38 73.62
  C 112.82 70.51 112.61 66.91 111.51 64.22
  C 109.47 59.24 105.35 55.92 101.44 52.41
  Q 99.01 50.23 96.37 49.12
  Q 89.88 46.40 83.12 45.07
  A 0.95 0.94 84.1 0 0 82.07 46.37
  L 84.62 52.38
  Q 82.45 51.51 80.92 49.77
  Q 78.87 47.00 76.97 44.26
  Q 73.75 39.65 73.11 34.37
  Z" fill="#f3eceb"></path>
<path d="M 75.99 54.98
  Q 75.82 55.16 75.59 55.23
  Q 75.11 55.37 74.83 54.95
  L 69.60 46.93
  L 68.84 42.27
  Q 68.61 40.87 69.26 42.12
  L 75.99 54.98
  Z" fill-opacity="0.996" fill="#e3b2a3"></path>
<path d="M 69.85 53.25
  Q 70.24 58.42 68.75 61.85
  Q 67.01 61.86 66.05 61.42
  Q 65.67 61.24 65.81 60.84
  Q 66.11 60.03 65.50 59.49
  C 63.67 57.86 62.09 55.63 60.40 53.81
  Q 60.20 53.59 59.88 53.45
  Q 59.64 53.35 59.42 53.23
  Q 58.96 52.98 58.70 52.53
  Q 58.02 51.35 56.88 51.56
  Q 56.46 51.64 56.30 51.24
  Q 56.12 50.79 55.83 50.51
  L 55.19 44.75
  Q 55.14 44.33 54.72 44.38
  Q 54.55 44.40 54.40 44.55
  Q 54.23 43.64 54.75 42.62
  A 0.36 0.36 0.0 0 1 55.39 42.61
  L 55.91 43.58
  Q 56.06 43.85 56.14 43.55
  Q 56.18 43.40 56.22 43.24
  Q 56.24 43.15 56.33 43.15
  Q 57.88 43.01 58.88 44.19
  Q 59.24 44.61 59.79 44.61
  Q 60.42 44.61 60.65 45.25
  Q 60.81 45.70 61.21 45.98
  Q 63.46 47.57 64.67 50.06
  C 65.13 50.99 65.52 51.33 66.35 51.79
  Q 66.72 51.99 66.91 52.36
  L 68.39 55.20
  Q 68.71 55.80 69.19 55.31
  Q 70.07 54.40 69.85 53.25
  Z" fill="#712e8d"></path>
<path d="M 54.40 44.55
  Q 54.55 44.40 54.72 44.38
  Q 55.14 44.33 55.19 44.75
  L 55.83 50.51
  Q 56.36 55.15 59.17 58.72
  Q 58.08 58.43 57.62 57.65
  Q 57.26 57.04 56.67 57.42
  L 56.33 57.64
  Q 56.03 57.83 56.18 58.16
  Q 59.12 64.56 66.03 64.65
  C 68.72 64.68 70.41 63.31 73.32 65.34
  A 1.50 1.46 60.6 0 0 74.27 65.62
  Q 75.32 65.56 76.33 65.84
  Q 76.71 65.95 76.96 66.25
  Q 77.59 67.01 78.53 67.38
  Q 79.03 67.58 79.46 67.89
  C 80.86 68.91 82.78 69.70 82.32 72.02
  Q 82.23 72.47 81.82 72.67
  C 79.19 73.95 77.27 74.40 75.11 75.33
  C 72.69 76.38 70.18 77.01 68.01 78.73
  C 65.42 80.79 61.63 80.06 58.79 81.71
  C 56.92 82.80 55.61 83.20 54.10 85.25
  Q 53.07 86.65 50.93 87.81
  Q 50.47 88.06 49.98 87.89
  Q 46.80 86.76 44.20 84.62
  Q 44.16 84.59 44.20 84.56
  Q 44.29 84.47 44.38 84.36
  A 0.15 0.14 35.8 0 0 44.34 84.14
  Q 43.11 83.40 40.44 86.10
  Q 41.95 79.86 44.72 75.03
  Q 45.99 75.52 45.13 77.10
  Q 45.00 77.33 45.25 77.25
  Q 45.44 77.19 45.63 77.16
  Q 45.94 77.11 46.35 77.27
  C 48.66 78.13 51.13 79.39 53.55 79.76
  C 56.49 80.21 57.85 77.74 60.63 77.37
  Q 62.22 77.16 63.75 76.68
  C 66.50 75.83 69.23 76.25 71.89 75.14
  Q 73.10 74.63 74.04 74.58
  Q 74.51 74.56 74.93 74.35
  Q 77.05 73.31 79.36 72.82
  Q 79.83 72.72 80.12 72.34
  Q 81.04 71.13 80.13 70.14
  C 79.59 69.55 78.92 69.54 78.24 69.07
  Q 77.35 68.46 76.83 68.28
  Q 69.61 65.78 62.44 65.27
  C 54.38 61.49 52.43 52.60 54.40 44.55
  Z" fill="#e56727"></path>
<path d="M 124.28 88.30
  Q 116.43 84.20 111.84 79.01
  C 110.32 77.29 108.86 74.39 108.59 71.66
  C 108.09 66.72 104.22 61.38 100.62 58.24
  Q 99.86 57.59 97.59 56.60
  Q 96.10 55.96 94.96 54.77
  Q 94.61 54.41 94.16 54.20
  L 86.15 50.52
  Q 86.03 50.47 85.92 50.53
  Q 85.73 50.62 85.51 50.55
  Q 85.18 50.43 85.08 50.77
  L 84.62 52.38
  L 82.07 46.37
  A 0.95 0.94 84.1 0 1 83.12 45.07
  Q 89.88 46.40 96.37 49.12
  Q 99.01 50.23 101.44 52.41
  C 105.35 55.92 109.47 59.24 111.51 64.22
  C 112.61 66.91 112.82 70.51 113.38 73.62
  C 114.14 77.80 121.05 82.33 124.52 84.98
  A 1.32 1.31 46.0 0 1 124.49 87.10
  Q 124.18 87.32 124.28 88.30
  Z" fill="#faaf29"></path>
<path d="M 69.60 46.93
  L 74.83 54.95
  Q 75.11 55.37 75.59 55.23
  Q 75.82 55.16 75.99 54.98
  Q 76.78 55.88 77.93 54.68
  Q 79.94 52.58 80.92 49.77
  Q 82.45 51.51 84.62 52.38
  L 85.08 50.77
  Q 85.18 50.43 85.51 50.55
  Q 85.73 50.62 85.92 50.53
  Q 86.03 50.47 86.15 50.52
  L 94.16 54.20
  Q 94.61 54.41 94.96 54.77
  Q 96.10 55.96 97.59 56.60
  Q 99.86 57.59 100.62 58.24
  C 104.22 61.38 108.09 66.72 108.59 71.66
  C 108.86 74.39 110.32 77.29 111.84 79.01
  Q 116.43 84.20 124.28 88.30
  Q 122.43 89.02 123.16 91.36
  Q 121.59 93.87 119.98 93.07
  C 112.93 89.60 106.61 85.96 98.45 84.12
  Q 91.95 82.66 81.08 83.23
  A 0.68 0.67 -1.2 0 1 80.37 82.56
  L 80.37 82.30
  Q 80.37 82.00 80.66 81.95
  L 91.52 79.88
  Q 94.46 79.32 91.51 78.81
  Q 86.43 77.93 80.12 78.89
  C 68.51 80.67 59.01 93.75 64.07 105.18
  Q 66.09 109.72 65.56 104.78
  Q 65.38 103.14 65.82 99.58
  Q 65.89 99.01 66.17 98.79
  Q 66.35 98.65 66.57 98.60
  Q 67.09 98.50 67.25 99.00
  C 71.14 111.25 76.40 119.67 84.65 132.50
  Q 84.76 133.40 84.17 133.68
  L 74.99 128.38
  Q 72.79 125.44 70.12 123.12
  Q 57.84 112.41 46.31 101.26
  Q 43.83 98.86 44.45 102.26
  Q 45.00 105.27 46.20 108.01
  Q 47.12 110.12 45.46 108.52
  Q 40.98 104.14 39.39 98.66
  L 40.44 86.10
  Q 43.11 83.40 44.34 84.14
  A 0.15 0.14 35.8 0 1 44.38 84.36
  Q 44.29 84.47 44.20 84.56
  Q 44.16 84.59 44.20 84.62
  Q 46.80 86.76 49.98 87.89
  Q 50.47 88.06 50.93 87.81
  Q 53.07 86.65 54.10 85.25
  C 55.61 83.20 56.92 82.80 58.79 81.71
  C 61.63 80.06 65.42 80.79 68.01 78.73
  C 70.18 77.01 72.69 76.38 75.11 75.33
  C 77.27 74.40 79.19 73.95 81.82 72.67
  Q 82.23 72.47 82.32 72.02
  C 82.78 69.70 80.86 68.91 79.46 67.89
  Q 79.03 67.58 78.53 67.38
  Q 77.59 67.01 76.96 66.25
  Q 76.71 65.95 76.33 65.84
  Q 75.32 65.56 74.27 65.62
  A 1.50 1.46 60.6 0 1 73.32 65.34
  C 70.41 63.31 68.72 64.68 66.03 64.65
  Q 59.12 64.56 56.18 58.16
  Q 56.03 57.83 56.33 57.64
  L 56.67 57.42
  Q 57.26 57.04 57.62 57.65
  Q 58.08 58.43 59.17 58.72
  Q 62.33 62.47 68.75 61.85
  Q 70.24 58.42 69.85 53.25
  L 69.60 46.93
  Z
  M 99.78 74.22
  C 102.74 74.21 104.55 74.39 106.36 76.99
  Q 108.11 79.51 107.67 76.48
  C 106.40 67.63 99.73 64.08 91.71 68.24
  A 0.61 0.61 0.0 0 0 91.48 69.11
  C 93.28 71.89 96.32 74.23 99.78 74.22
  Z" fill="#f38020"></path>
<path d="M 55.83 50.51
  Q 56.12 50.79 56.30 51.24
  Q 56.46 51.64 56.88 51.56
  Q 58.02 51.35 58.70 52.53
  Q 58.96 52.98 59.42 53.23
  Q 59.64 53.35 59.88 53.45
  Q 60.20 53.59 60.40 53.81
  C 62.09 55.63 63.67 57.86 65.50 59.49
  Q 66.11 60.03 65.81 60.84
  Q 65.67 61.24 66.05 61.42
  Q 67.01 61.86 68.75 61.85
  Q 62.33 62.47 59.17 58.72
  Q 56.36 55.15 55.83 50.51
  Z" fill="#914f99"></path>
<path d="M 52.46 65.00
  Q 47.96 69.44 44.72 75.03
  Q 41.95 79.86 40.44 86.10
  L 39.39 98.66
  C 35.99 86.21 42.12 73.24 50.73 64.68
  Q 51.17 64.24 51.59 64.25
  Q 52.25 64.26 52.46 65.00
  Z" fill-opacity="0.996" fill="#e3b2a3"></path>
<path d="M 52.46 65.00
  L 57.71 69.41
  A 1.04 1.03 60.4 0 0 58.53 69.64
  Q 62.54 69.09 62.44 65.27
  Q 69.61 65.78 76.83 68.28
  Q 77.35 68.46 78.24 69.07
  C 78.92 69.54 79.59 69.55 80.13 70.14
  Q 81.04 71.13 80.12 72.34
  Q 79.83 72.72 79.36 72.82
  Q 77.05 73.31 74.93 74.35
  Q 74.51 74.56 74.04 74.58
  Q 73.10 74.63 71.89 75.14
  C 69.23 76.25 66.50 75.83 63.75 76.68
  Q 62.22 77.16 60.63 77.37
  C 57.85 77.74 56.49 80.21 53.55 79.76
  C 51.13 79.39 48.66 78.13 46.35 77.27
  Q 45.94 77.11 45.63 77.16
  Q 45.44 77.19 45.25 77.25
  Q 45.00 77.33 45.13 77.10
  Q 45.99 75.52 44.72 75.03
  Q 47.96 69.44 52.46 65.00
  Z" fill="#d74f2f"></path>
<path d="M 106.36 76.99
  C 104.55 74.39 102.74 74.21 99.78 74.22
  C 96.32 74.23 93.28 71.89 91.48 69.11
  A 0.61 0.61 0.0 0 1 91.71 68.24
  C 99.73 64.08 106.40 67.63 107.67 76.48
  Q 108.11 79.51 106.36 76.99
  Z
  M 99.1720 72.0116
  A 1.60 1.20 81.3 0 0 100.1162 70.2485
  A 1.60 1.20 81.3 0 0 98.6880 68.8484
  A 1.60 1.20 81.3 0 0 97.7438 70.6115
  A 1.60 1.20 81.3 0 0 99.1720 72.0116
  Z" fill-opacity="0.996" fill="#591382"></path>
<ellipse ry="1.20" rx="1.60" transform="translate(98.93,70.43) rotate(81.3)" cy="0.00" cx="0.00" fill-opacity="0.996" fill="#e3b2a3"></ellipse>
<path d="M 99.05 90.70
  C 89.64 89.63 80.92 89.42 73.70 95.88
  L 73.64 93.90
  Q 73.62 93.43 73.22 93.18
  Q 72.10 92.48 73.14 91.49
  Q 76.40 88.40 81.10 88.22
  Q 81.82 88.19 87.11 89.11
  Q 90.12 89.64 93.25 89.32
  Q 93.96 89.24 94.49 89.66
  Q 94.86 89.97 95.34 89.97
  Q 97.33 89.98 99.05 90.70
  Z" fill="#a887b4"></path>
<path d="M 124.28 88.30
  L 128.52 88.67
  A 1.61 1.60 5.8 0 1 129.97 90.44
  Q 129.54 94.36 125.73 95.33
  Q 124.61 95.61 124.40 94.47
  Q 124.14 93.02 123.16 91.36
  Q 122.43 89.02 124.28 88.30
  Z" fill-opacity="0.996" fill="#591382"></path>
<path d="M 99.05 90.70
  C 107.15 92.93 113.07 98.05 122.01 95.24
  Q 122.81 94.99 123.23 95.30
  Q 123.13 95.71 122.89 96.05
  Q 122.68 96.34 122.23 96.47
  Q 116.62 98.15 110.06 99.25
  Q 104.39 97.43 97.75 95.95
  C 88.58 93.91 75.92 95.39 71.62 105.16
  Q 70.15 99.53 73.70 95.88
  C 80.92 89.42 89.64 89.63 99.05 90.70
  Z" fill-opacity="0.996" fill="#591382"></path>
<path d="M 123.23 95.30
  Q 123.32 95.17 123.43 95.15
  Q 123.70 95.09 123.74 95.36
  Q 124.07 97.22 125.20 98.09
  Q 118.27 102.19 110.06 99.25
  Q 116.62 98.15 122.23 96.47
  Q 122.68 96.34 122.89 96.05
  Q 123.13 95.71 123.23 95.30
  Z" fill-opacity="0.851" fill="#c6c1c8"></path>
<path d="M 81.93 125.72
  Q 85.68 130.90 87.49 134.22
  Q 87.66 134.53 87.54 134.77
  Q 87.30 135.25 86.88 134.92
  Q 85.68 133.96 84.17 133.68
  Q 84.76 133.40 84.65 132.50
  Q 84.76 132.56 84.87 132.63
  Q 84.88 132.63 84.88 132.63
  L 84.88 132.01
  Q 84.88 131.39 84.50 130.90
  Q 82.65 128.48 81.93 125.72
  Z" fill-opacity="0.851" fill="#c6c1c8"></path>
</svg>
