<svg viewBox="0.00 0.00 256.00 256.00" version="1.1" xmlns="http://www.w3.org/2000/svg">
<g stroke-linecap="butt" fill="none" stroke-width="2.00">
<path d="M 78.80 75.72
  Q 77.94 77.61 75.35 82.07
  Q 72.49 86.97 70.10 94.98
  Q 70.03 95.20 70.20 95.37
  L 70.54 95.71
  Q 70.59 95.76 70.61 95.69
  C 73.55 87.32 83.78 77.42 90.65 71.84" stroke="#d7fc92"></path>
<path d="M 90.65 71.84
  Q 90.64 80.22 87.88 92.98
  Q 87.47 94.89 90.16 95.57" stroke="#6f8937"></path>
<path d="M 90.16 95.57
  Q 94.72 97.75 99.24 94.68
  C 103.50 91.78 103.75 72.25 103.54 68.04
  C 103.44 65.94 102.47 65.08 100.64 64.40" stroke="#e29c72"></path>
<path d="M 100.64 64.40
  Q 109.03 58.48 118.34 54.52" stroke="#d7fc92"></path>
<path d="M 118.34 54.52
  C 118.25 63.27 118.14 70.97 115.88 79.52
  Q 115.28 81.78 117.51 82.61" stroke="#6f8937"></path>
<path d="M 117.51 82.61
  C 121.46 85.13 127.86 83.48 129.09 78.51
  Q 131.92 67.12 131.37 55.38
  Q 131.22 52.28 127.30 51.13" stroke="#e29c72"></path>
<path d="M 127.30 51.13
  Q 127.91 50.61 128.63 50.38
  Q 139.13 46.93 149.49 46.08" stroke="#d7fc92"></path>
<path d="M 149.49 46.08
  Q 144.01 62.74 133.80 76.53
  C 121.41 93.26 100.65 108.90 78.36 103.45
  A 0.52 0.51 -15.5 0 0 77.87 104.31
  L 81.01 107.50" stroke="#96d92b"></path>
<path d="M 81.01 107.50
  L 73.02 104.64" stroke="#6f8937"></path>
<path d="M 73.02 104.64
  Q 68.68 100.70 67.85 95.59
  Q 67.66 94.41 67.19 95.51
  Q 59.98 112.30 61.56 130.40" stroke="#e29c72"></path>
<path d="M 61.56 130.40
  C 63.72 162.06 91.20 168.27 117.24 165.01
  Q 117.85 164.93 117.73 165.54
  C 116.10 173.72 112.68 182.31 106.12 187.76
  A 0.33 0.33 0.0 0 0 106.32 188.35
  Q 113.18 188.71 120.25 188.34
  Q 120.99 188.31 121.39 187.71" stroke="#6f8937"></path>
<path d="M 121.39 187.71
  Q 121.35 188.24 121.61 188.22
  Q 135.59 187.09 148.75 183.01" stroke="#e2fcaa"></path>
<path d="M 148.75 183.01
  C 162.99 182.00 195.84 172.81 191.43 152.01
  Q 190.74 148.77 188.60 142.55
  Q 188.40 141.97 189.00 142.01
  Q 196.49 142.41 200.01 141.77
  C 223.03 137.57 233.22 116.73 230.32 95.00
  C 225.87 61.74 195.92 37.75 163.95 33.76
  C 130.33 29.56 97.34 47.32 78.40 74.80
  Q 78.36 74.85 78.07 75.17
  Q 77.87 75.38 77.86 75.74
  Q 77.84 76.09 78.10 75.86
  Q 78.41 75.57 78.80 75.72" stroke="#6f8937"></path>
<path d="M 148.75 183.01
  L 153.35 180.08" stroke="#8c8c8c"></path>
<path d="M 153.35 180.08
  C 160.49 176.37 169.73 170.58 174.37 164.63
  Q 177.46 160.66 177.28 155.62
  C 176.99 147.96 176.16 141.53 170.23 136.31
  Q 162.35 129.38 151.75 131.36" stroke="#8c586d"></path>
<path d="M 151.75 131.36
  C 136.02 133.87 130.07 150.15 128.35 163.87
  C 127.35 171.86 125.94 180.80 121.39 187.71" stroke="#8c8c8c"></path>
<path d="M 61.56 130.40
  L 65.64 139.13" stroke="#8c2b54"></path>
<path d="M 65.64 139.13
  Q 68.23 143.93 71.56 146.01" stroke="#6f8937"></path>
<path d="M 71.56 146.01
  C 79.62 155.73 99.66 156.20 110.80 154.74" stroke="#40680c"></path>
<path d="M 110.80 154.74
  L 117.29 153.78" stroke="#8c2b54"></path>
<path d="M 117.29 153.78
  Q 118.60 153.75 119.78 153.30
  Q 120.28 153.12 120.36 152.59
  C 122.09 141.58 125.89 132.16 134.58 124.83
  C 139.41 120.76 148.13 115.43 152.75 109.75
  C 157.89 103.43 160.19 97.09 163.47 88.50
  Q 167.95 76.81 177.41 67.68
  Q 180.71 64.49 180.58 61.52
  Q 180.02 48.01 167.29 44.54
  Q 166.81 44.41 166.73 44.90
  Q 164.49 58.54 158.32 70.87" stroke="#711a3f"></path>
<path d="M 158.32 70.87
  Q 151.31 84.60 140.91 95.41
  C 127.48 109.38 107.19 115.09 88.29 112.19
  Q 79.10 110.77 73.02 104.64" stroke="#8c2b54"></path>
<path d="M 81.01 107.50
  Q 94.79 110.12 108.79 104.86
  C 134.53 95.19 151.15 69.36 157.11 43.41
  A 0.88 0.87 8.8 0 0 156.32 42.34
  L 150.63 41.89" stroke="#40680c"></path>
<path d="M 150.63 41.89
  Q 134.73 41.39 120.26 46.75" stroke="#6f8937"></path>
<path d="M 120.26 46.75
  Q 96.19 54.89 79.66 74.16
  Q 79.02 74.90 78.80 75.72" stroke="#818c73"></path>
<path d="M 110.80 154.74
  Q 107.95 149.67 103.19 147.08" stroke="#b37b48"></path>
<path d="M 103.19 147.08
  C 92.72 140.12 77.77 138.11 65.64 139.13" stroke="#e29c72"></path>
<path d="M 117.29 153.78
  C 116.40 145.37 113.01 140.62 106.58 135.86
  C 102.00 132.46 99.33 127.23 104.24 122.53
  Q 106.32 120.53 109.11 119.85
  C 128.24 115.18 142.66 103.11 152.04 85.53
  Q 156.37 77.43 158.32 70.87" stroke="#e42d7a"></path>
<path d="M 127.30 51.13
  Q 126.72 51.45 125.73 51.37" stroke="#f49faf"></path>
<path d="M 125.73 51.37
  Q 120.90 51.19 118.34 54.52" stroke="#818c73"></path>
<path d="M 100.64 64.40
  Q 99.67 64.15 98.52 64.35" stroke="#f49faf"></path>
<path d="M 98.52 64.35
  Q 96.15 63.82 93.31 65.11
  C 89.75 66.72 90.37 68.54 90.65 71.84" stroke="#818c73"></path>
<path d="M 153.35 180.08
  Q 166.65 164.55 163.32 144.50
  Q 161.60 134.16 151.75 131.36" stroke="#ffcbe1"></path>
<path d="M 103.19 147.08
  Q 87.44 151.63 71.56 146.01" stroke="#96d92b"></path>
<path d="M 150.63 41.89
  L 149.98 45.16" stroke="#96d92b"></path>
<path d="M 149.98 45.16
  Q 143.25 44.72 136.45 44.78
  C 131.25 44.82 125.78 46.31 120.26 46.75" stroke="#d7fc92"></path>
<path d="M 149.49 46.08
  Q 150.68 45.16 149.98 45.16" stroke="#a8dc67"></path>
<path d="M 117.51 82.61
  Q 123.37 82.78 125.00 77.00
  Q 128.17 65.78 127.65 53.12
  Q 127.59 51.66 125.73 51.37" stroke="#8c2b54"></path>
<path d="M 98.52 64.35
  Q 99.77 64.96 99.84 66.25
  C 100.20 73.20 99.57 85.99 95.96 92.47
  Q 94.38 95.31 90.16 95.57" stroke="#8c2b54"></path>
<path d="M 171.35 196.73
  C 151.77 213.53 128.77 219.54 103.07 220.26
  Q 102.89 220.27 102.87 220.45
  L 102.87 220.46
  Q 102.86 220.65 103.05 220.68
  C 136.50 225.55 173.27 222.68 203.05 205.83
  C 217.01 197.94 234.31 180.96 224.09 163.17
  C 219.52 155.22 211.50 149.74 203.40 145.85
  Q 202.44 145.38 203.15 146.19
  C 210.59 154.59 214.13 165.48 210.22 176.14
  C 204.28 192.36 183.67 203.46 168.48 209.15
  Q 167.72 209.44 168.38 208.96
  Q 189.41 193.76 197.44 169.00
  Q 197.58 168.56 197.21 168.84
  Q 194.16 171.20 191.07 173.53
  C 164.20 193.76 127.63 201.76 94.51 200.05
  C 84.74 199.54 67.64 197.08 62.74 186.93
  C 62.14 185.68 62.06 184.15 61.76 182.72
  Q 61.65 182.25 61.43 182.68
  Q 57.92 189.70 60.78 195.72
  C 64.35 203.25 74.61 207.73 82.50 209.70
  C 111.32 216.91 145.11 211.08 171.26 196.60
  Q 171.93 196.23 171.35 196.73" stroke="#6f8937"></path>
<path d="M 199.96 65.78
  C 183.78 72.52 173.44 91.93 175.83 108.98
  Q 177.28 119.36 186.44 123.92
  Q 186.81 124.11 187.12 123.83
  L 194.40 117.20
  Q 194.81 116.83 194.46 116.39
  C 182.13 101.24 186.93 78.42 200.05 65.92
  Q 200.37 65.61 199.96 65.78" stroke="#32500c"></path>
</g>
<path d="M 99.65 176.07
  C 75.36 176.71 55.53 162.15 51.27 137.73
  C 46.73 111.74 55.22 87.93 70.17 67.07
  C 89.16 40.57 119.59 23.29 152.50 22.00
  C 170.89 21.28 189.45 27.46 204.91 37.43
  C 226.61 51.44 241.55 75.14 242.02 101.24
  C 242.32 117.65 235.88 133.89 222.66 144.20
  A 0.39 0.38 -45.4 0 0 222.66 144.81
  C 234.78 153.95 241.26 168.55 237.10 183.51
  C 230.38 207.66 199.90 222.44 177.23 228.22
  Q 142.17 237.18 106.26 232.17
  Q 89.04 229.77 75.06 222.71
  C 71.34 220.83 69.09 217.04 65.45 215.11
  C 55.59 209.88 47.79 200.58 48.61 188.82
  C 49.22 180.00 53.83 170.39 61.92 166.04
  A 0.58 0.58 0.0 0 1 62.77 166.45
  C 65.35 180.80 75.93 185.70 89.41 186.44
  A 1.31 1.30 -63.3 0 0 90.33 186.13
  Q 95.62 181.77 99.77 176.29
  A 0.14 0.14 0.0 0 0 99.65 176.07
  Z
  M 78.80 75.72
  Q 77.94 77.61 75.35 82.07
  Q 72.49 86.97 70.10 94.98
  Q 70.03 95.20 70.20 95.37
  L 70.54 95.71
  Q 70.59 95.76 70.61 95.69
  C 73.55 87.32 83.78 77.42 90.65 71.84
  Q 90.64 80.22 87.88 92.98
  Q 87.47 94.89 90.16 95.57
  Q 94.72 97.75 99.24 94.68
  C 103.50 91.78 103.75 72.25 103.54 68.04
  C 103.44 65.94 102.47 65.08 100.64 64.40
  Q 109.03 58.48 118.34 54.52
  C 118.25 63.27 118.14 70.97 115.88 79.52
  Q 115.28 81.78 117.51 82.61
  C 121.46 85.13 127.86 83.48 129.09 78.51
  Q 131.92 67.12 131.37 55.38
  Q 131.22 52.28 127.30 51.13
  Q 127.91 50.61 128.63 50.38
  Q 139.13 46.93 149.49 46.08
  Q 144.01 62.74 133.80 76.53
  C 121.41 93.26 100.65 108.90 78.36 103.45
  A 0.52 0.51 -15.5 0 0 77.87 104.31
  L 81.01 107.50
  L 73.02 104.64
  Q 68.68 100.70 67.85 95.59
  Q 67.66 94.41 67.19 95.51
  Q 59.98 112.30 61.56 130.40
  C 63.72 162.06 91.20 168.27 117.24 165.01
  Q 117.85 164.93 117.73 165.54
  C 116.10 173.72 112.68 182.31 106.12 187.76
  A 0.33 0.33 0.0 0 0 106.32 188.35
  Q 113.18 188.71 120.25 188.34
  Q 120.99 188.31 121.39 187.71
  Q 121.35 188.24 121.61 188.22
  Q 135.59 187.09 148.75 183.01
  C 162.99 182.00 195.84 172.81 191.43 152.01
  Q 190.74 148.77 188.60 142.55
  Q 188.40 141.97 189.00 142.01
  Q 196.49 142.41 200.01 141.77
  C 223.03 137.57 233.22 116.73 230.32 95.00
  C 225.87 61.74 195.92 37.75 163.95 33.76
  C 130.33 29.56 97.34 47.32 78.40 74.80
  Q 78.36 74.85 78.07 75.17
  Q 77.87 75.38 77.86 75.74
  Q 77.84 76.09 78.10 75.86
  Q 78.41 75.57 78.80 75.72
  Z
  M 171.35 196.73
  C 151.77 213.53 128.77 219.54 103.07 220.26
  Q 102.89 220.27 102.87 220.45
  L 102.87 220.46
  Q 102.86 220.65 103.05 220.68
  C 136.50 225.55 173.27 222.68 203.05 205.83
  C 217.01 197.94 234.31 180.96 224.09 163.17
  C 219.52 155.22 211.50 149.74 203.40 145.85
  Q 202.44 145.38 203.15 146.19
  C 210.59 154.59 214.13 165.48 210.22 176.14
  C 204.28 192.36 183.67 203.46 168.48 209.15
  Q 167.72 209.44 168.38 208.96
  Q 189.41 193.76 197.44 169.00
  Q 197.58 168.56 197.21 168.84
  Q 194.16 171.20 191.07 173.53
  C 164.20 193.76 127.63 201.76 94.51 200.05
  C 84.74 199.54 67.64 197.08 62.74 186.93
  C 62.14 185.68 62.06 184.15 61.76 182.72
  Q 61.65 182.25 61.43 182.68
  Q 57.92 189.70 60.78 195.72
  C 64.35 203.25 74.61 207.73 82.50 209.70
  C 111.32 216.91 145.11 211.08 171.26 196.60
  Q 171.93 196.23 171.35 196.73
  Z" fill="#c5f955"></path>
<path d="M 53.30 36.57
  L 66.72 41.55
  A 0.34 0.34 0.0 0 1 66.72 42.19
  L 53.30 47.17
  A 0.34 0.34 0.0 0 0 53.10 47.37
  L 48.12 60.79
  A 0.34 0.34 0.0 0 1 47.48 60.79
  L 42.50 47.37
  A 0.34 0.34 0.0 0 0 42.30 47.17
  L 28.88 42.19
  A 0.34 0.34 0.0 0 1 28.88 41.55
  L 42.30 36.57
  A 0.34 0.34 0.0 0 0 42.50 36.37
  L 47.48 22.95
  A 0.34 0.34 0.0 0 1 48.12 22.95
  L 53.10 36.37
  A 0.34 0.34 0.0 0 0 53.30 36.57
  Z" fill="#c5f955"></path>
<path d="M 148.75 183.01
  L 153.35 180.08
  C 160.49 176.37 169.73 170.58 174.37 164.63
  Q 177.46 160.66 177.28 155.62
  C 176.99 147.96 176.16 141.53 170.23 136.31
  Q 162.35 129.38 151.75 131.36
  C 136.02 133.87 130.07 150.15 128.35 163.87
  C 127.35 171.86 125.94 180.80 121.39 187.71
  Q 120.99 188.31 120.25 188.34
  Q 113.18 188.71 106.32 188.35
  A 0.33 0.33 0.0 0 1 106.12 187.76
  C 112.68 182.31 116.10 173.72 117.73 165.54
  Q 117.85 164.93 117.24 165.01
  C 91.20 168.27 63.72 162.06 61.56 130.40
  L 65.64 139.13
  Q 68.23 143.93 71.56 146.01
  C 79.62 155.73 99.66 156.20 110.80 154.74
  L 117.29 153.78
  Q 118.60 153.75 119.78 153.30
  Q 120.28 153.12 120.36 152.59
  C 122.09 141.58 125.89 132.16 134.58 124.83
  C 139.41 120.76 148.13 115.43 152.75 109.75
  C 157.89 103.43 160.19 97.09 163.47 88.50
  Q 167.95 76.81 177.41 67.68
  Q 180.71 64.49 180.58 61.52
  Q 180.02 48.01 167.29 44.54
  Q 166.81 44.41 166.73 44.90
  Q 164.49 58.54 158.32 70.87
  Q 151.31 84.60 140.91 95.41
  C 127.48 109.38 107.19 115.09 88.29 112.19
  Q 79.10 110.77 73.02 104.64
  L 81.01 107.50
  Q 94.79 110.12 108.79 104.86
  C 134.53 95.19 151.15 69.36 157.11 43.41
  A 0.88 0.87 8.8 0 0 156.32 42.34
  L 150.63 41.89
  Q 134.73 41.39 120.26 46.75
  Q 96.19 54.89 79.66 74.16
  Q 79.02 74.90 78.80 75.72
  Q 78.41 75.57 78.10 75.86
  Q 77.84 76.09 77.86 75.74
  Q 77.87 75.38 78.07 75.17
  Q 78.36 74.85 78.40 74.80
  C 97.34 47.32 130.33 29.56 163.95 33.76
  C 195.92 37.75 225.87 61.74 230.32 95.00
  C 233.22 116.73 223.03 137.57 200.01 141.77
  Q 196.49 142.41 189.00 142.01
  Q 188.40 141.97 188.60 142.55
  Q 190.74 148.77 191.43 152.01
  C 195.84 172.81 162.99 182.00 148.75 183.01
  Z
  M 199.96 65.78
  C 183.78 72.52 173.44 91.93 175.83 108.98
  Q 177.28 119.36 186.44 123.92
  Q 186.81 124.11 187.12 123.83
  L 194.40 117.20
  Q 194.81 116.83 194.46 116.39
  C 182.13 101.24 186.93 78.42 200.05 65.92
  Q 200.37 65.61 199.96 65.78
  Z" fill="#181818"></path>
<path d="M 150.63 41.89
  L 149.98 45.16
  Q 143.25 44.72 136.45 44.78
  C 131.25 44.82 125.78 46.31 120.26 46.75
  Q 134.73 41.39 150.63 41.89
  Z" fill="#c5f955"></path>
<path d="M 150.63 41.89
  L 156.32 42.34
  A 0.88 0.87 8.8 0 1 157.11 43.41
  C 151.15 69.36 134.53 95.19 108.79 104.86
  Q 94.79 110.12 81.01 107.50
  L 77.87 104.31
  A 0.52 0.51 -15.5 0 1 78.36 103.45
  C 100.65 108.90 121.41 93.26 133.80 76.53
  Q 144.01 62.74 149.49 46.08
  Q 150.68 45.16 149.98 45.16
  L 150.63 41.89
  Z" fill="#67b800"></path>
<path d="M 117.29 153.78
  C 116.40 145.37 113.01 140.62 106.58 135.86
  C 102.00 132.46 99.33 127.23 104.24 122.53
  Q 106.32 120.53 109.11 119.85
  C 128.24 115.18 142.66 103.11 152.04 85.53
  Q 156.37 77.43 158.32 70.87
  Q 164.49 58.54 166.73 44.90
  Q 166.81 44.41 167.29 44.54
  Q 180.02 48.01 180.58 61.52
  Q 180.71 64.49 177.41 67.68
  Q 167.95 76.81 163.47 88.50
  C 160.19 97.09 157.89 103.43 152.75 109.75
  C 148.13 115.43 139.41 120.76 134.58 124.83
  C 125.89 132.16 122.09 141.58 120.36 152.59
  Q 120.28 153.12 119.78 153.30
  Q 118.60 153.75 117.29 153.78
  Z" fill="#c91c65"></path>
<path d="M 149.98 45.16
  Q 150.68 45.16 149.49 46.08
  Q 139.13 46.93 128.63 50.38
  Q 127.91 50.61 127.30 51.13
  Q 126.72 51.45 125.73 51.37
  Q 120.90 51.19 118.34 54.52
  Q 109.03 58.48 100.64 64.40
  Q 99.67 64.15 98.52 64.35
  Q 96.15 63.82 93.31 65.11
  C 89.75 66.72 90.37 68.54 90.65 71.84
  C 83.78 77.42 73.55 87.32 70.61 95.69
  Q 70.59 95.76 70.54 95.71
  L 70.20 95.37
  Q 70.03 95.20 70.10 94.98
  Q 72.49 86.97 75.35 82.07
  Q 77.94 77.61 78.80 75.72
  Q 79.02 74.90 79.66 74.16
  Q 96.19 54.89 120.26 46.75
  C 125.78 46.31 131.25 44.82 136.45 44.78
  Q 143.25 44.72 149.98 45.16
  Z" fill="#e9ffce"></path>
<path d="M 127.30 51.13
  Q 131.22 52.28 131.37 55.38
  Q 131.92 67.12 129.09 78.51
  C 127.86 83.48 121.46 85.13 117.51 82.61
  Q 123.37 82.78 125.00 77.00
  Q 128.17 65.78 127.65 53.12
  Q 127.59 51.66 125.73 51.37
  Q 126.72 51.45 127.30 51.13
  Z" fill="#ff3e8f"></path>
<path d="M 125.73 51.37
  Q 127.59 51.66 127.65 53.12
  Q 128.17 65.78 125.00 77.00
  Q 123.37 82.78 117.51 82.61
  Q 115.28 81.78 115.88 79.52
  C 118.14 70.97 118.25 63.27 118.34 54.52
  Q 120.90 51.19 125.73 51.37
  Z" fill="#181818"></path>
<path d="M 28.44 67.98
  L 35.84 70.66
  A 0.32 0.32 0.0 0 1 35.84 71.26
  L 28.44 73.94
  A 0.32 0.32 0.0 0 0 28.25 74.13
  L 25.57 81.53
  A 0.32 0.32 0.0 0 1 24.97 81.53
  L 22.29 74.13
  A 0.32 0.32 0.0 0 0 22.10 73.94
  L 14.70 71.26
  A 0.32 0.32 0.0 0 1 14.70 70.66
  L 22.10 67.98
  A 0.32 0.32 0.0 0 0 22.29 67.79
  L 24.97 60.39
  A 0.32 0.32 0.0 0 1 25.57 60.39
  L 28.25 67.79
  A 0.32 0.32 0.0 0 0 28.44 67.98
  Z" fill="#c5f955"></path>
<path d="M 98.52 64.35
  Q 99.77 64.96 99.84 66.25
  C 100.20 73.20 99.57 85.99 95.96 92.47
  Q 94.38 95.31 90.16 95.57
  Q 87.47 94.89 87.88 92.98
  Q 90.64 80.22 90.65 71.84
  C 90.37 68.54 89.75 66.72 93.31 65.11
  Q 96.15 63.82 98.52 64.35
  Z" fill="#181818"></path>
<path d="M 98.52 64.35
  Q 99.67 64.15 100.64 64.40
  C 102.47 65.08 103.44 65.94 103.54 68.04
  C 103.75 72.25 103.50 91.78 99.24 94.68
  Q 94.72 97.75 90.16 95.57
  Q 94.38 95.31 95.96 92.47
  C 99.57 85.99 100.20 73.20 99.84 66.25
  Q 99.77 64.96 98.52 64.35
  Z" fill="#ff3e8f"></path>
<path d="M 175.83 108.98
  C 173.44 91.93 183.78 72.52 199.96 65.78
  Q 200.37 65.61 200.05 65.92
  C 186.93 78.42 182.13 101.24 194.46 116.39
  Q 194.81 116.83 194.40 117.20
  L 187.12 123.83
  Q 186.81 124.11 186.44 123.92
  Q 177.28 119.36 175.83 108.98
  Z" fill="#4c8700"></path>
<path d="M 158.32 70.87
  Q 156.37 77.43 152.04 85.53
  C 142.66 103.11 128.24 115.18 109.11 119.85
  Q 106.32 120.53 104.24 122.53
  C 99.33 127.23 102.00 132.46 106.58 135.86
  C 113.01 140.62 116.40 145.37 117.29 153.78
  L 110.80 154.74
  Q 107.95 149.67 103.19 147.08
  C 92.72 140.12 77.77 138.11 65.64 139.13
  L 61.56 130.40
  Q 59.98 112.30 67.19 95.51
  Q 67.66 94.41 67.85 95.59
  Q 68.68 100.70 73.02 104.64
  Q 79.10 110.77 88.29 112.19
  C 107.19 115.09 127.48 109.38 140.91 95.41
  Q 151.31 84.60 158.32 70.87
  Z" fill="#ff3e8f"></path>
<path d="M 153.35 180.08
  Q 166.65 164.55 163.32 144.50
  Q 161.60 134.16 151.75 131.36
  Q 162.35 129.38 170.23 136.31
  C 176.16 141.53 176.99 147.96 177.28 155.62
  Q 177.46 160.66 174.37 164.63
  C 169.73 170.58 160.49 176.37 153.35 180.08
  Z" fill="#ff97c2"></path>
<path d="M 151.75 131.36
  Q 161.60 134.16 163.32 144.50
  Q 166.65 164.55 153.35 180.08
  L 148.75 183.01
  Q 135.59 187.09 121.61 188.22
  Q 121.35 188.24 121.39 187.71
  C 125.94 180.80 127.35 171.86 128.35 163.87
  C 130.07 150.15 136.02 133.87 151.75 131.36
  Z" fill="#ffffff"></path>
<path d="M 103.19 147.08
  Q 87.44 151.63 71.56 146.01
  Q 68.23 143.93 65.64 139.13
  C 77.77 138.11 92.72 140.12 103.19 147.08
  Z" fill="#c5f955"></path>
<path d="M 171.26 196.60
  C 145.11 211.08 111.32 216.91 82.50 209.70
  C 74.61 207.73 64.35 203.25 60.78 195.72
  Q 57.92 189.70 61.43 182.68
  Q 61.65 182.25 61.76 182.72
  C 62.06 184.15 62.14 185.68 62.74 186.93
  C 67.64 197.08 84.74 199.54 94.51 200.05
  C 127.63 201.76 164.20 193.76 191.07 173.53
  Q 194.16 171.20 197.21 168.84
  Q 197.58 168.56 197.44 169.00
  Q 189.41 193.76 168.38 208.96
  Q 167.72 209.44 168.48 209.15
  C 183.67 203.46 204.28 192.36 210.22 176.14
  C 214.13 165.48 210.59 154.59 203.15 146.19
  Q 202.44 145.38 203.40 145.85
  C 211.50 149.74 219.52 155.22 224.09 163.17
  C 234.31 180.96 217.01 197.94 203.05 205.83
  C 173.27 222.68 136.50 225.55 103.05 220.68
  Q 102.86 220.65 102.87 220.46
  L 102.87 220.45
  Q 102.89 220.27 103.07 220.26
  C 128.77 219.54 151.77 213.53 171.35 196.73
  Q 171.93 196.23 171.26 196.60
  Z" fill="#181818"></path>
<path d="M 71.56 146.01
  Q 87.44 151.63 103.19 147.08
  Q 107.95 149.67 110.80 154.74
  C 99.66 156.20 79.62 155.73 71.56 146.01
  Z" fill="#67b800"></path>
</svg>
