<svg viewBox="0.00 0.00 256.00 256.00" version="1.1" xmlns="http://www.w3.org/2000/svg">
<g stroke-linecap="butt" fill="none" stroke-width="2.00">
<path d="M 127.6880 78.0600
  A 21.77 15.21 89.9 0 0 142.8600 56.2635
  A 21.77 15.21 89.9 0 0 127.6120 34.5200
  A 21.77 15.21 89.9 0 0 112.4400 56.3165
  A 21.77 15.21 89.9 0 0 127.6880 78.0600" stroke="#9fa3f1"></path>
<path d="M 91.5779 93.0379
  A 21.79 15.21 45.0 0 0 86.9251 66.8749
  A 21.79 15.21 45.0 0 0 60.7621 62.2221
  A 21.79 15.21 45.0 0 0 65.4149 88.3851
  A 21.79 15.21 45.0 0 0 91.5779 93.0379" stroke="#9fa3f1"></path>
<path d="M 163.7901 93.0674
  A 21.77 15.20 134.8 0 0 189.9155 88.3304
  A 21.77 15.20 134.8 0 0 194.4699 62.1726
  A 21.77 15.20 134.8 0 0 168.3445 66.9096
  A 21.77 15.20 134.8 0 0 163.7901 93.0674" stroke="#9fa3f1"></path>
<path d="M 163.35 129.09
  A 36.82 36.82 0.0 0 0 126.53 92.27
  A 36.82 36.82 0.0 0 0 89.71 129.09
  A 36.82 36.82 0.0 0 0 126.53 165.91
  A 36.82 36.82 0.0 0 0 163.35 129.09" stroke="#9fa3f1"></path>
<path d="M 76.59 129.10
  A 21.77 15.24 0.0 0 0 54.82 113.86
  A 21.77 15.24 0.0 0 0 33.05 129.10
  A 21.77 15.24 0.0 0 0 54.82 144.34
  A 21.77 15.24 0.0 0 0 76.59 129.10" stroke="#9fa3f1"></path>
<path d="M 222.28 129.10
  A 21.79 15.22 0.0 0 0 200.49 113.88
  A 21.79 15.22 0.0 0 0 178.70 129.10
  A 21.79 15.22 0.0 0 0 200.49 144.32
  A 21.79 15.22 0.0 0 0 222.28 129.10" stroke="#9fa3f1"></path>
<path d="M 91.5496 165.2004
  A 21.75 15.20 -45.0 0 0 65.4220 169.8320
  A 21.75 15.20 -45.0 0 0 60.7904 195.9596
  A 21.75 15.20 -45.0 0 0 86.9180 191.3280
  A 21.75 15.20 -45.0 0 0 91.5496 165.2004" stroke="#9fa3f1"></path>
<path d="M 194.5027 195.9864
  A 21.75 15.21 45.1 0 0 189.9238 169.8437
  A 21.75 15.21 45.1 0 0 163.7973 165.1736
  A 21.75 15.21 45.1 0 0 168.3762 191.3163
  A 21.75 15.21 45.1 0 0 194.5027 195.9864" stroke="#9fa3f1"></path>
<path d="M 127.6500 223.7100
  A 21.78 15.23 90.0 0 0 142.8800 201.9300
  A 21.78 15.23 90.0 0 0 127.6500 180.1500
  A 21.78 15.23 90.0 0 0 112.4200 201.9300
  A 21.78 15.23 90.0 0 0 127.6500 223.7100" stroke="#9fa3f1"></path>
</g>
<path d="M 0.00 0.00
  L 256.00 0.00
  L 256.00 256.00
  L 0.00 256.00
  L 0.00 0.00
  Z
  M 127.6880 78.0600
  A 21.77 15.21 89.9 0 0 142.8600 56.2635
  A 21.77 15.21 89.9 0 0 127.6120 34.5200
  A 21.77 15.21 89.9 0 0 112.4400 56.3165
  A 21.77 15.21 89.9 0 0 127.6880 78.0600
  Z
  M 91.5779 93.0379
  A 21.79 15.21 45.0 0 0 86.9251 66.8749
  A 21.79 15.21 45.0 0 0 60.7621 62.2221
  A 21.79 15.21 45.0 0 0 65.4149 88.3851
  A 21.79 15.21 45.0 0 0 91.5779 93.0379
  Z
  M 163.7901 93.0674
  A 21.77 15.20 134.8 0 0 189.9155 88.3304
  A 21.77 15.20 134.8 0 0 194.4699 62.1726
  A 21.77 15.20 134.8 0 0 168.3445 66.9096
  A 21.77 15.20 134.8 0 0 163.7901 93.0674
  Z
  M 163.35 129.09
  A 36.82 36.82 0.0 0 0 126.53 92.27
  A 36.82 36.82 0.0 0 0 89.71 129.09
  A 36.82 36.82 0.0 0 0 126.53 165.91
  A 36.82 36.82 0.0 0 0 163.35 129.09
  Z
  M 76.59 129.10
  A 21.77 15.24 0.0 0 0 54.82 113.86
  A 21.77 15.24 0.0 0 0 33.05 129.10
  A 21.77 15.24 0.0 0 0 54.82 144.34
  A 21.77 15.24 0.0 0 0 76.59 129.10
  Z
  M 222.28 129.10
  A 21.79 15.22 0.0 0 0 200.49 113.88
  A 21.79 15.22 0.0 0 0 178.70 129.10
  A 21.79 15.22 0.0 0 0 200.49 144.32
  A 21.79 15.22 0.0 0 0 222.28 129.10
  Z
  M 91.5496 165.2004
  A 21.75 15.20 -45.0 0 0 65.4220 169.8320
  A 21.75 15.20 -45.0 0 0 60.7904 195.9596
  A 21.75 15.20 -45.0 0 0 86.9180 191.3280
  A 21.75 15.20 -45.0 0 0 91.5496 165.2004
  Z
  M 194.5027 195.9864
  A 21.75 15.21 45.1 0 0 189.9238 169.8437
  A 21.75 15.21 45.1 0 0 163.7973 165.1736
  A 21.75 15.21 45.1 0 0 168.3762 191.3163
  A 21.75 15.21 45.1 0 0 194.5027 195.9864
  Z
  M 127.6500 223.7100
  A 21.78 15.23 90.0 0 0 142.8800 201.9300
  A 21.78 15.23 90.0 0 0 127.6500 180.1500
  A 21.78 15.23 90.0 0 0 112.4200 201.9300
  A 21.78 15.23 90.0 0 0 127.6500 223.7100
  Z" fill="#ffffff"></path>
<ellipse ry="15.21" rx="21.77" transform="translate(127.65,56.29) rotate(89.9)" cy="0.00" cx="0.00" fill="#3e46e3"></ellipse>
<ellipse ry="15.21" rx="21.79" transform="translate(76.17,77.63) rotate(45.0)" cy="0.00" cx="0.00" fill="#3e46e3"></ellipse>
<ellipse ry="15.20" rx="21.77" transform="translate(179.13,77.62) rotate(134.8)" cy="0.00" cx="0.00" fill="#3e46e3"></ellipse>
<circle r="36.82" cy="129.09" cx="126.53" fill="#3e46e3"></circle>
<ellipse ry="15.24" rx="21.77" cy="129.10" cx="54.82" fill="#3e46e3"></ellipse>
<ellipse ry="15.22" rx="21.79" cy="129.10" cx="200.49" fill="#3e46e3"></ellipse>
<ellipse ry="15.20" rx="21.75" transform="translate(76.17,180.58) rotate(-45.0)" cy="0.00" cx="0.00" fill="#3e46e3"></ellipse>
<ellipse ry="15.21" rx="21.75" transform="translate(179.15,180.58) rotate(45.1)" cy="0.00" cx="0.00" fill="#3e46e3"></ellipse>
<ellipse ry="15.23" rx="21.78" transform="translate(127.65,201.93) rotate(90.0)" cy="0.00" cx="0.00" fill="#3e46e3"></ellipse>
</svg>
