<svg viewBox="0.00 0.00 62.00 62.00" version="1.1" xmlns="http://www.w3.org/2000/svg">
<g stroke-linecap="butt" fill="none" stroke-width="2.00">
<path d="M 30.86 18.59
  A 0.33 0.33 0.0 0 1 31.38 18.59
  L 39.09 28.21
  A 0.33 0.33 0.0 0 1 39.16 28.42
  L 39.11 38.03
  A 0.33 0.33 0.0 0 0 39.48 38.36
  L 40.85 38.19
  A 0.33 0.33 0.0 0 0 41.14 37.87
  L 41.11 28.58
  A 0.33 0.33 0.0 0 1 41.44 28.25
  L 50.82 28.26
  A 0.33 0.33 0.0 0 1 51.15 28.59
  L 51.11 37.93
  A 0.33 0.33 0.0 0 0 51.44 38.26
  L 56.77 38.25
  A 0.33 0.33 0.0 0 0 57.09 37.97
  L 57.29 36.62
  A 0.33 0.33 0.0 0 0 56.97 36.24
  L 53.46 36.26
  A 0.33 0.33 0.0 0 1 53.13 35.93
  L 53.12 28.59
  A 0.33 0.33 0.0 0 1 53.45 28.26
  L 56.54 28.25
  A 0.33 0.33 0.0 0 0 56.83 27.76
  L 49.19 14.42
  A 0.33 0.33 0.0 0 0 48.90 14.25
  L 13.31 14.25
  A 0.33 0.33 0.0 0 0 13.03 14.42
  L 5.42 27.78
  A 0.33 0.33 0.0 0 0 5.71 28.27
  L 8.81 28.23
  A 0.33 0.33 0.0 0 1 9.15 28.57
  L 9.12 35.92
  A 0.33 0.33 0.0 0 1 8.79 36.25
  L 5.43 36.25
  A 0.33 0.33 0.0 0 0 5.10 36.58
  L 5.12 37.93
  A 0.33 0.33 0.0 0 0 5.45 38.26
  L 10.81 38.25
  A 0.33 0.33 0.0 0 0 11.14 37.92
  L 11.11 28.58
  A 0.33 0.33 0.0 0 1 11.44 28.25
  L 20.81 28.25
  A 0.33 0.33 0.0 0 1 21.14 28.58
  L 21.12 38.06
  A 0.33 0.33 0.0 0 0 21.50 38.39
  L 22.84 38.18
  A 0.33 0.33 0.0 0 0 23.12 37.86
  L 23.13 28.32
  A 0.33 0.33 0.0 0 1 23.20 28.11
  L 30.86 18.59" stroke="#808080"></path>
<path d="M 19.1546 30.6053
  A 0.35 0.35 0.0 0 0 18.8052 30.2546
  L 13.4852 30.2454
  A 0.35 0.35 0.0 0 0 13.1346 30.5948
  L 13.1254 35.8947
  A 0.35 0.35 0.0 0 0 13.4748 36.2454
  L 18.7948 36.2546
  A 0.35 0.35 0.0 0 0 19.1454 35.9052
  L 19.1546 30.6053" stroke="#808080"></path>
<path d="M 35.1363 30.6270
  A 0.37 0.37 0.0 0 0 34.7670 30.2563
  L 27.5070 30.2437
  A 0.37 0.37 0.0 0 0 27.1363 30.6130
  L 27.1237 37.8730
  A 0.37 0.37 0.0 0 0 27.4930 38.2437
  L 34.7530 38.2563
  A 0.37 0.37 0.0 0 0 35.1237 37.8870
  L 35.1363 30.6270" stroke="#808080"></path>
<path d="M 49.1546 30.6253
  A 0.37 0.37 0.0 0 0 48.7852 30.2546
  L 43.5052 30.2454
  A 0.37 0.37 0.0 0 0 43.1346 30.6148
  L 43.1254 35.8747
  A 0.37 0.37 0.0 0 0 43.4948 36.2454
  L 48.7748 36.2546
  A 0.37 0.37 0.0 0 0 49.1454 35.8852
  L 49.1546 30.6253" stroke="#808080"></path>
<path d="M 61.15 40.78
  A 0.53 0.53 0.0 0 0 60.62 40.25
  L 1.66 40.25
  A 0.53 0.53 0.0 0 0 1.13 40.78
  L 1.13 41.72
  A 0.53 0.53 0.0 0 0 1.66 42.25
  L 60.62 42.25
  A 0.53 0.53 0.0 0 0 61.15 41.72
  L 61.15 40.78" stroke="#808080"></path>
<path d="M 29.63 16.87
  A 0.38 0.38 0.0 0 0 29.33 16.25
  L 14.59 16.25
  A 0.38 0.38 0.0 0 0 14.26 16.44
  L 8.96 25.68
  A 0.38 0.38 0.0 0 0 9.29 26.25
  L 21.94 26.25
  A 0.38 0.38 0.0 0 0 22.23 26.11
  L 29.63 16.87" stroke="#808080"></path>
<path d="M 48.02 16.42
  A 0.33 0.33 0.0 0 0 47.74 16.25
  L 32.83 16.25
  A 0.33 0.33 0.0 0 0 32.57 16.78
  L 39.96 26.12
  A 0.33 0.33 0.0 0 0 40.22 26.25
  L 52.96 26.25
  A 0.33 0.33 0.0 0 0 53.25 25.76
  L 48.02 16.42" stroke="#808080"></path>
<path d="M 15.07 32.86
  Q 15.01 33.29 15.15 33.71
  Q 15.29 34.13 15.71 34.24
  Q 17.00 34.57 17.25 33.22
  A 0.82 0.81 -84.7 0 0 16.45 32.25
  L 15.77 32.25
  Q 15.16 32.25 15.07 32.86" stroke="#808080"></path>
<path d="M 33.1456 32.6070
  A 0.34 0.34 0.0 0 0 32.8068 32.2658
  L 29.4668 32.2542
  A 0.34 0.34 0.0 0 0 29.1256 32.5930
  L 29.1144 35.7930
  A 0.34 0.34 0.0 0 0 29.4532 36.1342
  L 32.7932 36.1458
  A 0.34 0.34 0.0 0 0 33.1344 35.8070
  L 33.1456 32.6070" stroke="#808080"></path>
<path d="M 45.17 32.75
  Q 45.05 33.68 45.11 33.80
  A 1.08 0.86 37.2 0 0 47.00 33.75
  L 47.00 33.16
  Q 47.00 32.60 46.49 32.35
  Q 45.97 32.10 45.51 32.31
  A 0.58 0.56 83.7 0 0 45.17 32.75" stroke="#808080"></path>
</g>
<path d="M 15.12 0.00
  L 47.23 0.00
  Q 59.69 2.69 62.00 15.12
  L 62.00 47.23
  Q 59.32 59.70 46.88 62.00
  L 14.76 62.00
  Q 2.51 59.39 0.00 47.12
  L 0.00 14.78
  Q 2.67 2.32 15.12 0.00
  Z
  M 30.86 18.59
  A 0.33 0.33 0.0 0 1 31.38 18.59
  L 39.09 28.21
  A 0.33 0.33 0.0 0 1 39.16 28.42
  L 39.11 38.03
  A 0.33 0.33 0.0 0 0 39.48 38.36
  L 40.85 38.19
  A 0.33 0.33 0.0 0 0 41.14 37.87
  L 41.11 28.58
  A 0.33 0.33 0.0 0 1 41.44 28.25
  L 50.82 28.26
  A 0.33 0.33 0.0 0 1 51.15 28.59
  L 51.11 37.93
  A 0.33 0.33 0.0 0 0 51.44 38.26
  L 56.77 38.25
  A 0.33 0.33 0.0 0 0 57.09 37.97
  L 57.29 36.62
  A 0.33 0.33 0.0 0 0 56.97 36.24
  L 53.46 36.26
  A 0.33 0.33 0.0 0 1 53.13 35.93
  L 53.12 28.59
  A 0.33 0.33 0.0 0 1 53.45 28.26
  L 56.54 28.25
  A 0.33 0.33 0.0 0 0 56.83 27.76
  L 49.19 14.42
  A 0.33 0.33 0.0 0 0 48.90 14.25
  L 13.31 14.25
  A 0.33 0.33 0.0 0 0 13.03 14.42
  L 5.42 27.78
  A 0.33 0.33 0.0 0 0 5.71 28.27
  L 8.81 28.23
  A 0.33 0.33 0.0 0 1 9.15 28.57
  L 9.12 35.92
  A 0.33 0.33 0.0 0 1 8.79 36.25
  L 5.43 36.25
  A 0.33 0.33 0.0 0 0 5.10 36.58
  L 5.12 37.93
  A 0.33 0.33 0.0 0 0 5.45 38.26
  L 10.81 38.25
  A 0.33 0.33 0.0 0 0 11.14 37.92
  L 11.11 28.58
  A 0.33 0.33 0.0 0 1 11.44 28.25
  L 20.81 28.25
  A 0.33 0.33 0.0 0 1 21.14 28.58
  L 21.12 38.06
  A 0.33 0.33 0.0 0 0 21.50 38.39
  L 22.84 38.18
  A 0.33 0.33 0.0 0 0 23.12 37.86
  L 23.13 28.32
  A 0.33 0.33 0.0 0 1 23.20 28.11
  L 30.86 18.59
  Z
  M 19.1546 30.6053
  A 0.35 0.35 0.0 0 0 18.8052 30.2546
  L 13.4852 30.2454
  A 0.35 0.35 0.0 0 0 13.1346 30.5948
  L 13.1254 35.8947
  A 0.35 0.35 0.0 0 0 13.4748 36.2454
  L 18.7948 36.2546
  A 0.35 0.35 0.0 0 0 19.1454 35.9052
  L 19.1546 30.6053
  Z
  M 35.1363 30.6270
  A 0.37 0.37 0.0 0 0 34.7670 30.2563
  L 27.5070 30.2437
  A 0.37 0.37 0.0 0 0 27.1363 30.6130
  L 27.1237 37.8730
  A 0.37 0.37 0.0 0 0 27.4930 38.2437
  L 34.7530 38.2563
  A 0.37 0.37 0.0 0 0 35.1237 37.8870
  L 35.1363 30.6270
  Z
  M 49.1546 30.6253
  A 0.37 0.37 0.0 0 0 48.7852 30.2546
  L 43.5052 30.2454
  A 0.37 0.37 0.0 0 0 43.1346 30.6148
  L 43.1254 35.8747
  A 0.37 0.37 0.0 0 0 43.4948 36.2454
  L 48.7748 36.2546
  A 0.37 0.37 0.0 0 0 49.1454 35.8852
  L 49.1546 30.6253
  Z
  M 61.15 40.78
  A 0.53 0.53 0.0 0 0 60.62 40.25
  L 1.66 40.25
  A 0.53 0.53 0.0 0 0 1.13 40.78
  L 1.13 41.72
  A 0.53 0.53 0.0 0 0 1.66 42.25
  L 60.62 42.25
  A 0.53 0.53 0.0 0 0 61.15 41.72
  L 61.15 40.78
  Z" fill="#ffffff"></path>
<path d="M 30.86 18.59
  L 23.20 28.11
  A 0.33 0.33 0.0 0 0 23.13 28.32
  L 23.12 37.86
  A 0.33 0.33 0.0 0 1 22.84 38.18
  L 21.50 38.39
  A 0.33 0.33 0.0 0 1 21.12 38.06
  L 21.14 28.58
  A 0.33 0.33 0.0 0 0 20.81 28.25
  L 11.44 28.25
  A 0.33 0.33 0.0 0 0 11.11 28.58
  L 11.14 37.92
  A 0.33 0.33 0.0 0 1 10.81 38.25
  L 5.45 38.26
  A 0.33 0.33 0.0 0 1 5.12 37.93
  L 5.10 36.58
  A 0.33 0.33 0.0 0 1 5.43 36.25
  L 8.79 36.25
  A 0.33 0.33 0.0 0 0 9.12 35.92
  L 9.15 28.57
  A 0.33 0.33 0.0 0 0 8.81 28.23
  L 5.71 28.27
  A 0.33 0.33 0.0 0 1 5.42 27.78
  L 13.03 14.42
  A 0.33 0.33 0.0 0 1 13.31 14.25
  L 48.90 14.25
  A 0.33 0.33 0.0 0 1 49.19 14.42
  L 56.83 27.76
  A 0.33 0.33 0.0 0 1 56.54 28.25
  L 53.45 28.26
  A 0.33 0.33 0.0 0 0 53.12 28.59
  L 53.13 35.93
  A 0.33 0.33 0.0 0 0 53.46 36.26
  L 56.97 36.24
  A 0.33 0.33 0.0 0 1 57.29 36.62
  L 57.09 37.97
  A 0.33 0.33 0.0 0 1 56.77 38.25
  L 51.44 38.26
  A 0.33 0.33 0.0 0 1 51.11 37.93
  L 51.15 28.59
  A 0.33 0.33 0.0 0 0 50.82 28.26
  L 41.44 28.25
  A 0.33 0.33 0.0 0 0 41.11 28.58
  L 41.14 37.87
  A 0.33 0.33 0.0 0 1 40.85 38.19
  L 39.48 38.36
  A 0.33 0.33 0.0 0 1 39.11 38.03
  L 39.16 28.42
  A 0.33 0.33 0.0 0 0 39.09 28.21
  L 31.38 18.59
  A 0.33 0.33 0.0 0 0 30.86 18.59
  Z
  M 29.63 16.87
  A 0.38 0.38 0.0 0 0 29.33 16.25
  L 14.59 16.25
  A 0.38 0.38 0.0 0 0 14.26 16.44
  L 8.96 25.68
  A 0.38 0.38 0.0 0 0 9.29 26.25
  L 21.94 26.25
  A 0.38 0.38 0.0 0 0 22.23 26.11
  L 29.63 16.87
  Z
  M 48.02 16.42
  A 0.33 0.33 0.0 0 0 47.74 16.25
  L 32.83 16.25
  A 0.33 0.33 0.0 0 0 32.57 16.78
  L 39.96 26.12
  A 0.33 0.33 0.0 0 0 40.22 26.25
  L 52.96 26.25
  A 0.33 0.33 0.0 0 0 53.25 25.76
  L 48.02 16.42
  Z" fill="#010101"></path>
<path d="M 29.63 16.87
  L 22.23 26.11
  A 0.38 0.38 0.0 0 1 21.94 26.25
  L 9.29 26.25
  A 0.38 0.38 0.0 0 1 8.96 25.68
  L 14.26 16.44
  A 0.38 0.38 0.0 0 1 14.59 16.25
  L 29.33 16.25
  A 0.38 0.38 0.0 0 1 29.63 16.87
  Z" fill="#ffffff"></path>
<path d="M 48.02 16.42
  L 53.25 25.76
  A 0.33 0.33 0.0 0 1 52.96 26.25
  L 40.22 26.25
  A 0.33 0.33 0.0 0 1 39.96 26.12
  L 32.57 16.78
  A 0.33 0.33 0.0 0 1 32.83 16.25
  L 47.74 16.25
  A 0.33 0.33 0.0 0 1 48.02 16.42
  Z" fill="#ffffff"></path>
<path d="M 19.1454 35.9052
  A 0.35 0.35 0.0 0 1 18.7948 36.2546
  L 13.4748 36.2454
  A 0.35 0.35 0.0 0 1 13.1254 35.8947
  L 13.1346 30.5948
  A 0.35 0.35 0.0 0 1 13.4852 30.2454
  L 18.8052 30.2546
  A 0.35 0.35 0.0 0 1 19.1546 30.6053
  L 19.1454 35.9052
  Z
  M 15.07 32.86
  Q 15.01 33.29 15.15 33.71
  Q 15.29 34.13 15.71 34.24
  Q 17.00 34.57 17.25 33.22
  A 0.82 0.81 -84.7 0 0 16.45 32.25
  L 15.77 32.25
  Q 15.16 32.25 15.07 32.86
  Z" fill="#010101"></path>
<path d="M 35.1237 37.8870
  A 0.37 0.37 0.0 0 1 34.7530 38.2563
  L 27.4930 38.2437
  A 0.37 0.37 0.0 0 1 27.1237 37.8730
  L 27.1363 30.6130
  A 0.37 0.37 0.0 0 1 27.5070 30.2437
  L 34.7670 30.2563
  A 0.37 0.37 0.0 0 1 35.1363 30.6270
  L 35.1237 37.8870
  Z
  M 33.1456 32.6070
  A 0.34 0.34 0.0 0 0 32.8068 32.2658
  L 29.4668 32.2542
  A 0.34 0.34 0.0 0 0 29.1256 32.5930
  L 29.1144 35.7930
  A 0.34 0.34 0.0 0 0 29.4532 36.1342
  L 32.7932 36.1458
  A 0.34 0.34 0.0 0 0 33.1344 35.8070
  L 33.1456 32.6070
  Z" fill="#010101"></path>
<path d="M 49.1454 35.8852
  A 0.37 0.37 0.0 0 1 48.7748 36.2546
  L 43.4948 36.2454
  A 0.37 0.37 0.0 0 1 43.1254 35.8747
  L 43.1346 30.6148
  A 0.37 0.37 0.0 0 1 43.5052 30.2454
  L 48.7852 30.2546
  A 0.37 0.37 0.0 0 1 49.1546 30.6253
  L 49.1454 35.8852
  Z
  M 45.17 32.75
  Q 45.05 33.68 45.11 33.80
  A 1.08 0.86 37.2 0 0 47.00 33.75
  L 47.00 33.16
  Q 47.00 32.60 46.49 32.35
  Q 45.97 32.10 45.51 32.31
  A 0.58 0.56 83.7 0 0 45.17 32.75
  Z" fill="#010101"></path>
<path d="M 15.77 32.25
  L 16.45 32.25
  A 0.82 0.81 -84.7 0 1 17.25 33.22
  Q 17.00 34.57 15.71 34.24
  Q 15.29 34.13 15.15 33.71
  Q 15.01 33.29 15.07 32.86
  Q 15.16 32.25 15.77 32.25
  Z" fill="#ffffff"></path>
<rect rx="0.34" height="3.88" width="4.02" transform="translate(31.13,34.20) rotate(0.2)" y="-1.94" x="-2.01" fill="#ffffff"></rect>
<path d="M 45.17 32.75
  A 0.58 0.56 83.7 0 1 45.51 32.31
  Q 45.97 32.10 46.49 32.35
  Q 47.00 32.60 47.00 33.16
  L 47.00 33.75
  A 1.08 0.86 37.2 0 1 45.11 33.80
  Q 45.05 33.68 45.17 32.75
  Z" fill="#ffffff"></path>
<rect rx="0.53" height="2.00" width="60.02" y="40.25" x="1.13" fill="#010101"></rect>
</svg>
