<svg viewBox="0.00 0.00 16.00 16.00" version="1.1" xmlns="http://www.w3.org/2000/svg">
<path d="M 5.18 6.57
  L 7.41 8.81
  Q 7.84 9.24 8.29 8.83
  L 12.79 4.70
  Q 13.23 4.30 13.42 4.87
  C 14.43 7.91 10.60 13.12 8.32 15.22
  Q 7.92 15.58 7.55 15.20
  C 5.02 12.67 1.35 7.79 2.89 3.95
  C 4.43 0.13 9.01 -0.49 12.07 2.17
  A 0.60 0.60 0.0 0 1 12.08 3.06
  L 8.38 6.43
  Q 7.95 6.82 7.51 6.46
  L 6.17 5.37
  Q 5.94 5.19 5.66 5.28
  Q 5.38 5.37 5.15 5.62
  A 0.70 0.69 -46.9 0 0 5.18 6.57
  Z" fill="#7cd543"></path>
</svg>
