<svg viewBox="0.00 0.00 48.00 48.00" version="1.1" xmlns="http://www.w3.org/2000/svg">
<g stroke-linecap="butt" fill="none" stroke-width="2.00">
<path d="M 25.80 0.00
  L 25.23 2.72
  A 0.36 0.35 -84.9 0 0 25.59 3.16
  L 26.11 3.14
  A 0.35 0.34 -78.5 0 0 26.43 2.92
  Q 26.94 1.77 28.20 1.87
  Q 28.71 1.92 28.84 2.41
  Q 29.02 3.05 28.54 3.51
  Q 28.21 3.83 28.42 4.23
  Q 28.76 4.89 29.63 5.08
  Q 30.07 5.17 30.37 4.85
  L 31.47 3.71" stroke="#b6c480"></path>
<path d="M 31.47 3.71
  Q 31.80 3.77 32.02 4.01
  Q 32.20 4.20 32.22 4.58
  Q 32.38 8.37 31.06 8.90" stroke="#cfdb98"></path>
<path d="M 31.06 8.90
  L 28.22 7.09" stroke="#aaa677"></path>
<path d="M 28.22 7.09
  Q 23.89 6.17 22.77 6.15
  Q 21.20 6.12 20.15 7.71
  A 1.82 1.78 2.3 0 1 19.46 8.33
  C 16.87 9.72 16.13 11.73 15.45 14.73
  C 14.82 17.54 13.53 19.76 13.32 22.92" stroke="#c0ba83"></path>
<path d="M 13.32 22.92
  Q 9.69 27.30 12.57 19.54
  Q 12.81 18.90 12.12 18.28" stroke="#d2d297"></path>
<path d="M 12.12 18.28
  C 11.90 16.31 9.16 16.15 7.61 15.09
  A 0.50 0.49 53.0 0 1 7.73 14.21
  L 9.51 13.63
  A 0.73 0.73 0.0 0 0 9.97 12.71
  L 8.61 8.66
  A 0.43 0.42 0.1 0 1 9.15 8.13
  L 10.98 8.74
  A 0.26 0.26 0.0 0 0 11.27 8.34
  Q 9.92 6.47 10.20 4.49" stroke="#b6c480"></path>
<path d="M 11.69 3.50
  Q 13.19 4.59 14.25 6.29
  Q 14.55 6.76 14.82 6.28
  Q 15.27 5.50 14.87 4.86
  Q 13.73 3.05 15.01 1.72" stroke="#c3d38a"></path>
<path d="M 40.01 6.11
  Q 38.83 7.39 37.80 7.17
  Q 37.60 7.12 37.25 7.11
  Q 36.95 7.09 36.70 7.24
  A 0.53 0.53 0.0 0 1 35.91 6.72
  L 36.14 4.78
  Q 36.19 4.39 35.80 4.36
  Q 34.79 4.27 34.36 5.19
  A 0.95 0.94 13.1 0 1 33.49 5.73
  Q 32.90 5.73 32.95 5.25
  Q 33.07 4.17 32.98 3.00
  Q 32.93 2.47 32.45 2.69
  Q 31.77 2.99 31.47 3.71" stroke="#a5b76d"></path>
<path d="M 40.70 6.92
  Q 40.95 8.96 39.48 9.44
  Q 39.01 9.59 38.76 10.02
  L 37.32 12.48
  Q 37.05 12.94 37.06 13.47
  C 37.08 15.05 37.38 18.36 35.69 19.50
  Q 35.21 19.82 34.94 19.30
  L 33.78 17.03" stroke="#b1c677"></path>
<path d="M 33.78 17.03
  L 31.97 11.03" stroke="#828450"></path>
<path d="M 31.97 11.03
  Q 31.10 9.49 31.06 8.90" stroke="#999964"></path>
<path d="M 12.12 18.28
  Q 12.47 20.02 10.85 20.66
  Q 10.40 20.84 10.41 21.33
  L 10.58 31.10" stroke="#a8ae6c"></path>
<path d="M 10.58 31.10
  Q 10.52 29.36 8.90 27.99
  A 0.27 0.27 0.0 0 1 8.90 27.58
  Q 9.56 26.99 9.87 26.24
  Q 10.10 25.70 9.58 25.43
  C 7.24 24.22 8.88 21.09 10.19 19.83
  A 0.63 0.60 -65.7 0 1 10.61 19.66
  Q 11.34 19.64 11.11 18.66
  Q 11.01 18.25 10.79 17.89
  C 9.34 15.60 7.46 16.70 6.10 15.92
  Q 2.50 13.87 6.61 13.28
  L 8.02 13.07
  Q 8.56 12.99 8.62 12.45
  Q 8.82 10.76 7.87 9.34
  A 0.86 0.83 -47.1 0 1 7.85 8.43
  Q 8.57 7.21 8.79 5.47" stroke="#7d8f45"></path>
<path d="M 10.58 31.10
  Q 9.46 33.03 8.02 34.02" stroke="#999e5c"></path>
<path d="M 8.02 34.02
  L 9.69 30.81
  Q 9.95 30.32 9.49 30.01
  Q 6.35 27.95 2.56 28.11
  A 1.03 1.03 0.0 0 1 1.65 26.53
  Q 2.91 24.50 4.84 23.15
  A 0.56 0.56 0.0 0 0 4.55 22.14
  Q 4.23 22.12 4.00 21.92
  Q 3.39 21.38 3.37 21.29
  Q 3.30 20.76 3.65 20.34
  Q 3.93 20.01 4.46 19.96
  Q 5.41 19.88 5.89 20.11
  Q 7.65 20.97 6.81 19.15
  L 6.13 17.67
  A 0.83 0.83 0.0 0 0 5.32 17.19
  Q 2.02 17.43 1.49 15.77" stroke="#556826"></path>
<path d="M 28.22 7.09
  Q 26.68 7.29 26.00 7.75
  Q 25.55 8.06 25.89 8.48
  Q 29.16 12.54 25.72 15.13" stroke="#8a784e"></path>
<path d="M 25.72 15.13
  Q 27.52 11.38 24.56 8.82
  Q 24.16 8.47 23.64 8.62
  C 20.21 9.62 21.42 12.16 20.49 14.60" stroke="#af9e76"></path>
<path d="M 20.49 14.60
  Q 19.88 12.58 20.84 10.31
  Q 21.07 9.77 20.51 9.97
  L 17.87 10.93
  A 1.16 1.15 87.1 0 0 17.15 11.73
  L 16.21 15.51" stroke="#8a784e"></path>
<path d="M 16.21 15.51
  C 15.54 18.47 13.93 21.32 13.71 24.18
  C 13.51 26.94 13.61 28.93 12.93 31.66
  C 12.48 33.50 11.50 34.38 10.37 35.81
  A 1.13 1.10 -26.3 0 0 10.12 36.51
  L 10.12 37.95
  A 2.16 2.15 19.8 0 1 6.59 39.61
  Q 5.79 38.95 4.75 37.74
  Q 4.35 37.27 4.90 36.47" stroke="#817141"></path>
<path d="M 4.90 36.47
  Q 4.83 36.31 5.42 36.23" stroke="#6e6f38"></path>
<path d="M 5.42 36.23
  Q 5.27 36.79 5.31 36.87
  A 1.05 1.05 0.0 0 0 7.03 37.14
  C 8.61 35.47 10.56 34.74 11.70 32.71
  C 13.66 29.19 12.94 26.36 13.32 22.92" stroke="#b2a46e"></path>
<path d="M 43.55 10.15
  C 43.02 12.58 44.54 15.98 42.16 16.96
  Q 41.48 17.25 42.15 17.57
  Q 42.63 17.81 43.01 18.27
  A 0.59 0.58 54.4 0 1 42.87 19.14
  Q 42.24 19.53 42.36 20.22
  Q 42.45 20.70 42.84 20.40
  Q 43.67 19.75 44.65 20.13
  A 0.58 0.58 0.0 0 1 44.98 20.87
  Q 44.46 22.24 43.03 22.09" stroke="#899f4f"></path>
<path d="M 43.03 22.09
  L 37.67 22.16
  A 0.31 0.31 0.0 0 0 37.37 22.47
  L 37.37 22.81
  Q 37.37 23.12 37.69 23.11
  L 41.12 23.02
  A 0.42 0.42 0.0 0 1 41.28 23.84
  L 37.85 25.12
  A 0.37 0.37 0.0 0 0 37.84 25.81
  Q 38.57 26.10 40.31 25.48" stroke="#718840"></path>
<path d="M 40.31 25.48
  Q 41.30 29.02 37.68 29.28
  Q 36.89 29.33 37.47 29.88
  Q 38.21 30.57 39.24 30.35
  Q 39.81 30.23 39.52 30.74
  L 39.14 31.42
  Q 38.92 31.82 38.47 31.86
  Q 36.39 32.06 35.68 30.00" stroke="#99af5f"></path>
<path d="M 35.68 30.00
  L 34.37 19.49" stroke="#848a49"></path>
<path d="M 34.37 19.49
  L 33.78 17.03" stroke="#767c42"></path>
<path d="M 31.97 11.03
  Q 30.54 9.69 30.13 10.88
  C 27.03 13.06 28.69 15.99 30.62 18.10
  Q 31.19 18.74 30.91 20.49
  Q 30.13 25.31 26.92 27.60
  Q 23.89 29.77 21.23 27.43
  C 19.17 25.63 15.16 19.45 18.32 16.95
  Q 18.70 16.65 18.80 16.19
  Q 19.14 14.58 18.90 14.04
  Q 17.77 11.55 17.07 14.19
  L 16.31 17.04" stroke="#5e4f2f"></path>
<path d="M 16.31 17.04
  Q 16.52 16.19 16.21 15.51" stroke="#6b5c35"></path>
<path d="M 20.49 14.60
  Q 23.30 14.78 23.65 16.51
  Q 23.75 16.99 23.38 17.30
  Q 21.44 18.97 19.03 18.08
  A 0.70 0.69 -80.5 0 0 18.10 18.75
  L 18.12 19.83
  A 1.08 1.08 0.0 0 0 18.41 20.54
  Q 19.73 22.01 19.86 24.04
  A 0.63 0.62 -12.8 0 0 20.72 24.58
  L 23.30 23.52
  A 0.63 0.63 0.0 0 0 23.48 22.46
  L 22.81 21.88
  Q 22.63 21.72 22.59 21.50
  Q 22.55 21.30 22.60 21.11
  A 0.55 0.54 14.4 0 1 23.25 20.73
  Q 24.40 21.00 25.51 20.60
  A 0.46 0.46 0.0 0 1 26.12 21.02
  Q 26.16 22.05 25.27 22.48
  Q 24.59 22.82 25.23 23.23
  Q 26.19 23.84 27.28 23.79
  Q 27.91 23.75 28.07 23.15
  Q 28.54 21.45 29.70 20.14
  A 0.97 0.97 0.0 0 0 28.81 18.55
  Q 27.42 18.79 26.10 18.42
  Q 25.65 18.29 25.41 17.90
  Q 23.98 15.54 25.72 15.13" stroke="#9a896a"></path>
<path d="M 22.40 10.62
  A 1.07 1.04 69.8 0 0 22.11 11.27
  L 22.02 12.34
  A 1.81 1.81 0.0 0 0 23.63 14.27
  Q 26.49 14.58 25.71 11.74
  Q 24.75 8.23 22.40 10.62" stroke="#ccc2a7"></path>
<path d="M 48.00 24.24
  Q 45.91 22.52 43.03 22.09" stroke="#556826"></path>
<path d="M 34.37 19.49
  L 34.14 28.05
  A 1.46 1.43 64.7 0 1 33.85 28.89
  Q 33.44 29.43 32.77 29.62
  A 1.01 1.00 2.4 0 0 32.13 30.20
  Q 31.11 32.82 31.13 35.51
  A 1.59 1.59 0.0 0 1 28.26 36.46
  Q 27.00 34.74 27.38 32.72
  A 1.38 1.38 0.0 0 0 25.95 31.08
  L 21.96 31.30
  Q 21.46 31.33 21.33 31.82
  L 18.82 41.22
  Q 18.76 41.46 18.69 41.23
  C 18.10 39.24 17.12 37.59 17.12 35.50
  Q 17.13 31.48 17.12 27.45
  A 1.99 1.89 -61.9 0 0 16.86 26.51
  C 14.79 22.99 14.94 21.01 16.31 17.04" stroke="#554822"></path>
<path d="M 35.68 30.00
  Q 36.41 33.16 37.75 35.90
  C 38.71 37.87 38.04 40.71 41.32 40.57" stroke="#777a3f"></path>
<path d="M 4.15 37.54
  Q 3.97 36.55 4.90 36.47" stroke="#50531f"></path>
<path d="M 26.49 45.04
  Q 26.74 45.09 26.99 45.14" stroke="#80744e"></path>
<path d="M 26.99 45.14
  Q 29.64 43.93 28.05 38.80
  Q 27.39 36.69 26.67 34.51
  A 1.24 1.21 3.1 0 0 26.00 33.78
  C 22.24 32.16 20.48 37.01 20.43 39.74
  Q 20.39 41.79 20.06 44.25
  A 0.90 0.89 -87.5 0 0 20.98 45.26
  L 26.49 45.04" stroke="#6b5c35"></path>
<path d="M 26.99 45.14
  Q 27.65 42.29 27.32 39.68
  Q 27.00 37.12 24.44 37.45
  L 23.63 37.56
  Q 21.14 37.88 21.37 40.38
  L 21.74 44.51
  Q 21.79 45.07 22.36 45.07
  L 26.49 45.04" stroke="#897b5b"></path>
<path d="M 8.02 34.02
  L 5.42 36.23" stroke="#81874c"></path>
<path d="M 47.71 26.55
  Q 46.94 26.22 46.03 25.22" stroke="#556826"></path>
<path d="M 46.03 25.22
  L 40.31 25.48" stroke="#657836"></path>
<path d="M 46.03 25.22
  L 46.71 27.41
  Q 46.86 27.92 46.34 28.05
  Q 44.69 28.49 42.96 28.37
  Q 42.35 28.33 42.21 28.92
  Q 41.87 30.38 40.55 31.16
  A 0.58 0.58 0.0 0 0 40.41 32.04
  Q 40.64 32.30 40.61 32.59
  Q 40.56 33.13 40.02 33.13
  L 39.25 33.13
  A 0.42 0.42 0.0 0 0 39.02 33.90
  L 40.93 35.11
  Q 41.38 35.39 41.85 35.13
  L 43.28 34.31
  A 0.55 0.55 0.0 0 1 43.96 35.16
  Q 43.34 35.85 42.45 36.19
  A 0.52 0.51 -43.2 0 0 42.42 37.14
  Q 43.10 37.45 43.27 38.22" stroke="#7d8f45"></path>
</g>
<path d="M 21.90 0.00
  L 25.80 0.00
  L 25.23 2.72
  A 0.36 0.35 -84.9 0 0 25.59 3.16
  L 26.11 3.14
  A 0.35 0.34 -78.5 0 0 26.43 2.92
  Q 26.94 1.77 28.20 1.87
  Q 28.71 1.92 28.84 2.41
  Q 29.02 3.05 28.54 3.51
  Q 28.21 3.83 28.42 4.23
  Q 28.76 4.89 29.63 5.08
  Q 30.07 5.17 30.37 4.85
  L 31.47 3.71
  Q 31.80 3.77 32.02 4.01
  Q 32.20 4.20 32.22 4.58
  Q 32.38 8.37 31.06 8.90
  L 28.22 7.09
  Q 23.89 6.17 22.77 6.15
  Q 21.20 6.12 20.15 7.71
  A 1.82 1.78 2.3 0 1 19.46 8.33
  C 16.87 9.72 16.13 11.73 15.45 14.73
  C 14.82 17.54 13.53 19.76 13.32 22.92
  Q 9.69 27.30 12.57 19.54
  Q 12.81 18.90 12.12 18.28
  C 11.90 16.31 9.16 16.15 7.61 15.09
  A 0.50 0.49 53.0 0 1 7.73 14.21
  L 9.51 13.63
  A 0.73 0.73 0.0 0 0 9.97 12.71
  L 8.61 8.66
  A 0.43 0.42 0.1 0 1 9.15 8.13
  L 10.98 8.74
  A 0.26 0.26 0.0 0 0 11.27 8.34
  Q 9.92 6.47 10.20 4.49
  Q 10.87 3.85 11.69 3.50
  Q 13.19 4.59 14.25 6.29
  Q 14.55 6.76 14.82 6.28
  Q 15.27 5.50 14.87 4.86
  Q 13.73 3.05 15.01 1.72
  L 21.90 0.00
  Z" fill="#e0e8ab"></path>
<path d="M 25.80 0.00
  L 26.42 0.00
  Q 34.42 1.22 40.01 6.11
  Q 38.83 7.39 37.80 7.17
  Q 37.60 7.12 37.25 7.11
  Q 36.95 7.09 36.70 7.24
  A 0.53 0.53 0.0 0 1 35.91 6.72
  L 36.14 4.78
  Q 36.19 4.39 35.80 4.36
  Q 34.79 4.27 34.36 5.19
  A 0.95 0.94 13.1 0 1 33.49 5.73
  Q 32.90 5.73 32.95 5.25
  Q 33.07 4.17 32.98 3.00
  Q 32.93 2.47 32.45 2.69
  Q 31.77 2.99 31.47 3.71
  L 30.37 4.85
  Q 30.07 5.17 29.63 5.08
  Q 28.76 4.89 28.42 4.23
  Q 28.21 3.83 28.54 3.51
  Q 29.02 3.05 28.84 2.41
  Q 28.71 1.92 28.20 1.87
  Q 26.94 1.77 26.43 2.92
  A 0.35 0.34 -78.5 0 1 26.11 3.14
  L 25.59 3.16
  A 0.36 0.35 -84.9 0 1 25.23 2.72
  L 25.80 0.00
  Z" fill="#8c9f55"></path>
<path d="M 15.01 1.72
  Q 13.73 3.05 14.87 4.86
  Q 15.27 5.50 14.82 6.28
  Q 14.55 6.76 14.25 6.29
  Q 13.19 4.59 11.69 3.50
  L 15.01 1.72
  Z" fill="#a5be69"></path>
<path d="M 40.01 6.11
  L 40.70 6.92
  Q 40.95 8.96 39.48 9.44
  Q 39.01 9.59 38.76 10.02
  L 37.32 12.48
  Q 37.05 12.94 37.06 13.47
  C 37.08 15.05 37.38 18.36 35.69 19.50
  Q 35.21 19.82 34.94 19.30
  L 33.78 17.03
  L 31.97 11.03
  Q 31.10 9.49 31.06 8.90
  Q 32.38 8.37 32.22 4.58
  Q 32.20 4.20 32.02 4.01
  Q 31.80 3.77 31.47 3.71
  Q 31.77 2.99 32.45 2.69
  Q 32.93 2.47 32.98 3.00
  Q 33.07 4.17 32.95 5.25
  Q 32.90 5.73 33.49 5.73
  A 0.95 0.94 13.1 0 0 34.36 5.19
  Q 34.79 4.27 35.80 4.36
  Q 36.19 4.39 36.14 4.78
  L 35.91 6.72
  A 0.53 0.53 0.0 0 0 36.70 7.24
  Q 36.95 7.09 37.25 7.11
  Q 37.60 7.12 37.80 7.17
  Q 38.83 7.39 40.01 6.11
  Z" fill="#bdce85"></path>
<path d="M 10.20 4.49
  Q 9.92 6.47 11.27 8.34
  A 0.26 0.26 0.0 0 1 10.98 8.74
  L 9.15 8.13
  A 0.43 0.42 0.1 0 0 8.61 8.66
  L 9.97 12.71
  A 0.73 0.73 0.0 0 1 9.51 13.63
  L 7.73 14.21
  A 0.50 0.49 53.0 0 0 7.61 15.09
  C 9.16 16.15 11.90 16.31 12.12 18.28
  Q 12.47 20.02 10.85 20.66
  Q 10.40 20.84 10.41 21.33
  L 10.58 31.10
  Q 10.52 29.36 8.90 27.99
  A 0.27 0.27 0.0 0 1 8.90 27.58
  Q 9.56 26.99 9.87 26.24
  Q 10.10 25.70 9.58 25.43
  C 7.24 24.22 8.88 21.09 10.19 19.83
  A 0.63 0.60 -65.7 0 1 10.61 19.66
  Q 11.34 19.64 11.11 18.66
  Q 11.01 18.25 10.79 17.89
  C 9.34 15.60 7.46 16.70 6.10 15.92
  Q 2.50 13.87 6.61 13.28
  L 8.02 13.07
  Q 8.56 12.99 8.62 12.45
  Q 8.82 10.76 7.87 9.34
  A 0.86 0.83 -47.1 0 1 7.85 8.43
  Q 8.57 7.21 8.79 5.47
  Q 9.43 4.75 10.20 4.49
  Z" fill="#8c9f55"></path>
<path d="M 8.79 5.47
  Q 8.57 7.21 7.85 8.43
  A 0.86 0.83 -47.1 0 0 7.87 9.34
  Q 8.82 10.76 8.62 12.45
  Q 8.56 12.99 8.02 13.07
  L 6.61 13.28
  Q 2.50 13.87 6.10 15.92
  C 7.46 16.70 9.34 15.60 10.79 17.89
  Q 11.01 18.25 11.11 18.66
  Q 11.34 19.64 10.61 19.66
  A 0.63 0.60 -65.7 0 0 10.19 19.83
  C 8.88 21.09 7.24 24.22 9.58 25.43
  Q 10.10 25.70 9.87 26.24
  Q 9.56 26.99 8.90 27.58
  A 0.27 0.27 0.0 0 0 8.90 27.99
  Q 10.52 29.36 10.58 31.10
  Q 9.46 33.03 8.02 34.02
  L 9.69 30.81
  Q 9.95 30.32 9.49 30.01
  Q 6.35 27.95 2.56 28.11
  A 1.03 1.03 0.0 0 1 1.65 26.53
  Q 2.91 24.50 4.84 23.15
  A 0.56 0.56 0.0 0 0 4.55 22.14
  Q 4.23 22.12 4.00 21.92
  Q 3.39 21.38 3.37 21.29
  Q 3.30 20.76 3.65 20.34
  Q 3.93 20.01 4.46 19.96
  Q 5.41 19.88 5.89 20.11
  Q 7.65 20.97 6.81 19.15
  L 6.13 17.67
  A 0.83 0.83 0.0 0 0 5.32 17.19
  Q 2.02 17.43 1.49 15.77
  Q 3.74 9.57 8.79 5.47
  Z" fill="#6d7f35"></path>
<path d="M 28.22 7.09
  Q 26.68 7.29 26.00 7.75
  Q 25.55 8.06 25.89 8.48
  Q 29.16 12.54 25.72 15.13
  Q 27.52 11.38 24.56 8.82
  Q 24.16 8.47 23.64 8.62
  C 20.21 9.62 21.42 12.16 20.49 14.60
  Q 19.88 12.58 20.84 10.31
  Q 21.07 9.77 20.51 9.97
  L 17.87 10.93
  A 1.16 1.15 87.1 0 0 17.15 11.73
  L 16.21 15.51
  C 15.54 18.47 13.93 21.32 13.71 24.18
  C 13.51 26.94 13.61 28.93 12.93 31.66
  C 12.48 33.50 11.50 34.38 10.37 35.81
  A 1.13 1.10 -26.3 0 0 10.12 36.51
  L 10.12 37.95
  A 2.16 2.15 19.8 0 1 6.59 39.61
  Q 5.79 38.95 4.75 37.74
  Q 4.35 37.27 4.90 36.47
  Q 4.83 36.31 5.42 36.23
  Q 5.27 36.79 5.31 36.87
  A 1.05 1.05 0.0 0 0 7.03 37.14
  C 8.61 35.47 10.56 34.74 11.70 32.71
  C 13.66 29.19 12.94 26.36 13.32 22.92
  C 13.53 19.76 14.82 17.54 15.45 14.73
  C 16.13 11.73 16.87 9.72 19.46 8.33
  A 1.82 1.78 2.3 0 0 20.15 7.71
  Q 21.20 6.12 22.77 6.15
  Q 23.89 6.17 28.22 7.09
  Z" fill="#9f8c5a"></path>
<path d="M 40.70 6.92
  Q 42.48 8.38 43.55 10.15
  C 43.02 12.58 44.54 15.98 42.16 16.96
  Q 41.48 17.25 42.15 17.57
  Q 42.63 17.81 43.01 18.27
  A 0.59 0.58 54.4 0 1 42.87 19.14
  Q 42.24 19.53 42.36 20.22
  Q 42.45 20.70 42.84 20.40
  Q 43.67 19.75 44.65 20.13
  A 0.58 0.58 0.0 0 1 44.98 20.87
  Q 44.46 22.24 43.03 22.09
  L 37.67 22.16
  A 0.31 0.31 0.0 0 0 37.37 22.47
  L 37.37 22.81
  Q 37.37 23.12 37.69 23.11
  L 41.12 23.02
  A 0.42 0.42 0.0 0 1 41.28 23.84
  L 37.85 25.12
  A 0.37 0.37 0.0 0 0 37.84 25.81
  Q 38.57 26.10 40.31 25.48
  Q 41.30 29.02 37.68 29.28
  Q 36.89 29.33 37.47 29.88
  Q 38.21 30.57 39.24 30.35
  Q 39.81 30.23 39.52 30.74
  L 39.14 31.42
  Q 38.92 31.82 38.47 31.86
  Q 36.39 32.06 35.68 30.00
  L 34.37 19.49
  L 33.78 17.03
  L 34.94 19.30
  Q 35.21 19.82 35.69 19.50
  C 37.38 18.36 37.08 15.05 37.06 13.47
  Q 37.05 12.94 37.32 12.48
  L 38.76 10.02
  Q 39.01 9.59 39.48 9.44
  Q 40.95 8.96 40.70 6.92
  Z" fill="#a5be69"></path>
<path d="M 28.22 7.09
  L 31.06 8.90
  Q 31.10 9.49 31.97 11.03
  Q 30.54 9.69 30.13 10.88
  C 27.03 13.06 28.69 15.99 30.62 18.10
  Q 31.19 18.74 30.91 20.49
  Q 30.13 25.31 26.92 27.60
  Q 23.89 29.77 21.23 27.43
  C 19.17 25.63 15.16 19.45 18.32 16.95
  Q 18.70 16.65 18.80 16.19
  Q 19.14 14.58 18.90 14.04
  Q 17.77 11.55 17.07 14.19
  L 16.31 17.04
  Q 16.52 16.19 16.21 15.51
  L 17.15 11.73
  A 1.16 1.15 87.1 0 1 17.87 10.93
  L 20.51 9.97
  Q 21.07 9.77 20.84 10.31
  Q 19.88 12.58 20.49 14.60
  Q 23.30 14.78 23.65 16.51
  Q 23.75 16.99 23.38 17.30
  Q 21.44 18.97 19.03 18.08
  A 0.70 0.69 -80.5 0 0 18.10 18.75
  L 18.12 19.83
  A 1.08 1.08 0.0 0 0 18.41 20.54
  Q 19.73 22.01 19.86 24.04
  A 0.63 0.62 -12.8 0 0 20.72 24.58
  L 23.30 23.52
  A 0.63 0.63 0.0 0 0 23.48 22.46
  L 22.81 21.88
  Q 22.63 21.72 22.59 21.50
  Q 22.55 21.30 22.60 21.11
  A 0.55 0.54 14.4 0 1 23.25 20.73
  Q 24.40 21.00 25.51 20.60
  A 0.46 0.46 0.0 0 1 26.12 21.02
  Q 26.16 22.05 25.27 22.48
  Q 24.59 22.82 25.23 23.23
  Q 26.19 23.84 27.28 23.79
  Q 27.91 23.75 28.07 23.15
  Q 28.54 21.45 29.70 20.14
  A 0.97 0.97 0.0 0 0 28.81 18.55
  Q 27.42 18.79 26.10 18.42
  Q 25.65 18.29 25.41 17.90
  Q 23.98 15.54 25.72 15.13
  Q 29.16 12.54 25.89 8.48
  Q 25.55 8.06 26.00 7.75
  Q 26.68 7.29 28.22 7.09
  Z" fill="#746342"></path>
<path d="M 25.72 15.13
  Q 23.98 15.54 25.41 17.90
  Q 25.65 18.29 26.10 18.42
  Q 27.42 18.79 28.81 18.55
  A 0.97 0.97 0.0 0 1 29.70 20.14
  Q 28.54 21.45 28.07 23.15
  Q 27.91 23.75 27.28 23.79
  Q 26.19 23.84 25.23 23.23
  Q 24.59 22.82 25.27 22.48
  Q 26.16 22.05 26.12 21.02
  A 0.46 0.46 0.0 0 0 25.51 20.60
  Q 24.40 21.00 23.25 20.73
  A 0.55 0.54 14.4 0 0 22.60 21.11
  Q 22.55 21.30 22.59 21.50
  Q 22.63 21.72 22.81 21.88
  L 23.48 22.46
  A 0.63 0.63 0.0 0 1 23.30 23.52
  L 20.72 24.58
  A 0.63 0.62 -12.8 0 1 19.86 24.04
  Q 19.73 22.01 18.41 20.54
  A 1.08 1.08 0.0 0 1 18.12 19.83
  L 18.10 18.75
  A 0.70 0.69 -80.5 0 1 19.03 18.08
  Q 21.44 18.97 23.38 17.30
  Q 23.75 16.99 23.65 16.51
  Q 23.30 14.78 20.49 14.60
  C 21.42 12.16 20.21 9.62 23.64 8.62
  Q 24.16 8.47 24.56 8.82
  Q 27.52 11.38 25.72 15.13
  Z
  M 22.40 10.62
  A 1.07 1.04 69.8 0 0 22.11 11.27
  L 22.02 12.34
  A 1.81 1.81 0.0 0 0 23.63 14.27
  Q 26.49 14.58 25.71 11.74
  Q 24.75 8.23 22.40 10.62
  Z" fill="#bfaf91"></path>
<path d="M 22.40 10.62
  Q 24.75 8.23 25.71 11.74
  Q 26.49 14.58 23.63 14.27
  A 1.81 1.81 0.0 0 1 22.02 12.34
  L 22.11 11.27
  A 1.07 1.04 69.8 0 1 22.40 10.62
  Z" fill="#d9d4bc"></path>
<path d="M 43.55 10.15
  Q 47.22 15.23 48.00 21.95
  L 48.00 24.24
  Q 45.91 22.52 43.03 22.09
  Q 44.46 22.24 44.98 20.87
  A 0.58 0.58 0.0 0 0 44.65 20.13
  Q 43.67 19.75 42.84 20.40
  Q 42.45 20.70 42.36 20.22
  Q 42.24 19.53 42.87 19.14
  A 0.59 0.58 54.4 0 0 43.01 18.27
  Q 42.63 17.81 42.15 17.57
  Q 41.48 17.25 42.16 16.96
  C 44.54 15.98 43.02 12.58 43.55 10.15
  Z" fill="#6d7f35"></path>
<path d="M 31.97 11.03
  L 33.78 17.03
  L 34.37 19.49
  L 34.14 28.05
  A 1.46 1.43 64.7 0 1 33.85 28.89
  Q 33.44 29.43 32.77 29.62
  A 1.01 1.00 2.4 0 0 32.13 30.20
  Q 31.11 32.82 31.13 35.51
  A 1.59 1.59 0.0 0 1 28.26 36.46
  Q 27.00 34.74 27.38 32.72
  A 1.38 1.38 0.0 0 0 25.95 31.08
  L 21.96 31.30
  Q 21.46 31.33 21.33 31.82
  L 18.82 41.22
  Q 18.76 41.46 18.69 41.23
  C 18.10 39.24 17.12 37.59 17.12 35.50
  Q 17.13 31.48 17.12 27.45
  A 1.99 1.89 -61.9 0 0 16.86 26.51
  C 14.79 22.99 14.94 21.01 16.31 17.04
  L 17.07 14.19
  Q 17.77 11.55 18.90 14.04
  Q 19.14 14.58 18.80 16.19
  Q 18.70 16.65 18.32 16.95
  C 15.16 19.45 19.17 25.63 21.23 27.43
  Q 23.89 29.77 26.92 27.60
  Q 30.13 25.31 30.91 20.49
  Q 31.19 18.74 30.62 18.10
  C 28.69 15.99 27.03 13.06 30.13 10.88
  Q 30.54 9.69 31.97 11.03
  Z" fill="#473a1b"></path>
<path d="M 16.21 15.51
  Q 16.52 16.19 16.31 17.04
  C 14.94 21.01 14.79 22.99 16.86 26.51
  A 1.99 1.89 -61.9 0 1 17.12 27.45
  Q 17.13 31.48 17.12 35.50
  C 17.12 37.59 18.10 39.24 18.69 41.23
  Q 18.76 41.46 18.82 41.22
  L 21.33 31.82
  Q 21.46 31.33 21.96 31.30
  L 25.95 31.08
  A 1.38 1.38 0.0 0 1 27.38 32.72
  Q 27.00 34.74 28.26 36.46
  A 1.59 1.59 0.0 0 0 31.13 35.51
  Q 31.11 32.82 32.13 30.20
  A 1.01 1.00 2.4 0 1 32.77 29.62
  Q 33.44 29.43 33.85 28.89
  A 1.46 1.43 64.7 0 0 34.14 28.05
  L 34.37 19.49
  L 35.68 30.00
  Q 36.41 33.16 37.75 35.90
  C 38.71 37.87 38.04 40.71 41.32 40.57
  Q 35.34 46.79 26.30 48.00
  L 21.79 48.00
  Q 10.48 46.46 4.15 37.54
  Q 3.97 36.55 4.90 36.47
  Q 4.35 37.27 4.75 37.74
  Q 5.79 38.95 6.59 39.61
  A 2.16 2.15 19.8 0 0 10.12 37.95
  L 10.12 36.51
  A 1.13 1.10 -26.3 0 1 10.37 35.81
  C 11.50 34.38 12.48 33.50 12.93 31.66
  C 13.61 28.93 13.51 26.94 13.71 24.18
  C 13.93 21.32 15.54 18.47 16.21 15.51
  Z
  M 26.49 45.04
  Q 26.74 45.09 26.99 45.14
  Q 29.64 43.93 28.05 38.80
  Q 27.39 36.69 26.67 34.51
  A 1.24 1.21 3.1 0 0 26.00 33.78
  C 22.24 32.16 20.48 37.01 20.43 39.74
  Q 20.39 41.79 20.06 44.25
  A 0.90 0.89 -87.5 0 0 20.98 45.26
  L 26.49 45.04
  Z" fill="#625528"></path>
<path d="M 1.49 15.77
  Q 2.02 17.43 5.32 17.19
  A 0.83 0.83 0.0 0 1 6.13 17.67
  L 6.81 19.15
  Q 7.65 20.97 5.89 20.11
  Q 5.41 19.88 4.46 19.96
  Q 3.93 20.01 3.65 20.34
  Q 3.30 20.76 3.37 21.29
  Q 3.39 21.38 4.00 21.92
  Q 4.23 22.12 4.55 22.14
  A 0.56 0.56 0.0 0 1 4.84 23.15
  Q 2.91 24.50 1.65 26.53
  A 1.03 1.03 0.0 0 0 2.56 28.11
  Q 6.35 27.95 9.49 30.01
  Q 9.95 30.32 9.69 30.81
  L 8.02 34.02
  L 5.42 36.23
  Q 4.83 36.31 4.90 36.47
  Q 3.97 36.55 4.15 37.54
  Q 0.93 32.57 0.00 26.30
  L 0.00 21.75
  L 1.49 15.77
  Z" fill="#3d5116"></path>
<path d="M 12.12 18.28
  Q 12.81 18.90 12.57 19.54
  Q 9.69 27.30 13.32 22.92
  C 12.94 26.36 13.66 29.19 11.70 32.71
  C 10.56 34.74 8.61 35.47 7.03 37.14
  A 1.05 1.05 0.0 0 1 5.31 36.87
  Q 5.27 36.79 5.42 36.23
  L 8.02 34.02
  Q 9.46 33.03 10.58 31.10
  L 10.41 21.33
  Q 10.40 20.84 10.85 20.66
  Q 12.47 20.02 12.12 18.28
  Z" fill="#c4bc82"></path>
<path d="M 43.03 22.09
  Q 45.91 22.52 48.00 24.24
  L 48.00 26.26
  Q 47.86 26.41 47.71 26.55
  Q 46.94 26.22 46.03 25.22
  L 40.31 25.48
  Q 38.57 26.10 37.84 25.81
  A 0.37 0.37 0.0 0 1 37.85 25.12
  L 41.28 23.84
  A 0.42 0.42 0.0 0 0 41.12 23.02
  L 37.69 23.11
  Q 37.37 23.12 37.37 22.81
  L 37.37 22.47
  A 0.31 0.31 0.0 0 1 37.67 22.16
  L 43.03 22.09
  Z" fill="#3d5116"></path>
<path d="M 46.03 25.22
  L 46.71 27.41
  Q 46.86 27.92 46.34 28.05
  Q 44.69 28.49 42.96 28.37
  Q 42.35 28.33 42.21 28.92
  Q 41.87 30.38 40.55 31.16
  A 0.58 0.58 0.0 0 0 40.41 32.04
  Q 40.64 32.30 40.61 32.59
  Q 40.56 33.13 40.02 33.13
  L 39.25 33.13
  A 0.42 0.42 0.0 0 0 39.02 33.90
  L 40.93 35.11
  Q 41.38 35.39 41.85 35.13
  L 43.28 34.31
  A 0.55 0.55 0.0 0 1 43.96 35.16
  Q 43.34 35.85 42.45 36.19
  A 0.52 0.51 -43.2 0 0 42.42 37.14
  Q 43.10 37.45 43.27 38.22
  L 41.32 40.57
  C 38.04 40.71 38.71 37.87 37.75 35.90
  Q 36.41 33.16 35.68 30.00
  Q 36.39 32.06 38.47 31.86
  Q 38.92 31.82 39.14 31.42
  L 39.52 30.74
  Q 39.81 30.23 39.24 30.35
  Q 38.21 30.57 37.47 29.88
  Q 36.89 29.33 37.68 29.28
  Q 41.30 29.02 40.31 25.48
  L 46.03 25.22
  Z" fill="#8c9f55"></path>
<path d="M 46.03 25.22
  Q 46.94 26.22 47.71 26.55
  Q 47.29 32.83 43.27 38.22
  Q 43.10 37.45 42.42 37.14
  A 0.52 0.51 -43.2 0 1 42.45 36.19
  Q 43.34 35.85 43.96 35.16
  A 0.55 0.55 0.0 0 0 43.28 34.31
  L 41.85 35.13
  Q 41.38 35.39 40.93 35.11
  L 39.02 33.90
  A 0.42 0.42 0.0 0 1 39.25 33.13
  L 40.02 33.13
  Q 40.56 33.13 40.61 32.59
  Q 40.64 32.30 40.41 32.04
  A 0.58 0.58 0.0 0 1 40.55 31.16
  Q 41.87 30.38 42.21 28.92
  Q 42.35 28.33 42.96 28.37
  Q 44.69 28.49 46.34 28.05
  Q 46.86 27.92 46.71 27.41
  L 46.03 25.22
  Z" fill="#6d7f35"></path>
<path d="M 26.99 45.14
  Q 27.65 42.29 27.32 39.68
  Q 27.00 37.12 24.44 37.45
  L 23.63 37.56
  Q 21.14 37.88 21.37 40.38
  L 21.74 44.51
  Q 21.79 45.07 22.36 45.07
  L 26.49 45.04
  L 20.98 45.26
  A 0.90 0.89 -87.5 0 1 20.06 44.25
  Q 20.39 41.79 20.43 39.74
  C 20.48 37.01 22.24 32.16 26.00 33.78
  A 1.24 1.21 3.1 0 1 26.67 34.51
  Q 27.39 36.69 28.05 38.80
  Q 29.64 43.93 26.99 45.14
  Z" fill="#746342"></path>
<path d="M 26.99 45.14
  Q 26.74 45.09 26.49 45.04
  L 22.36 45.07
  Q 21.79 45.07 21.74 44.51
  L 21.37 40.38
  Q 21.14 37.88 23.63 37.56
  L 24.44 37.45
  Q 27.00 37.12 27.32 39.68
  Q 27.65 42.29 26.99 45.14
  Z" fill="#9e9374"></path>
</svg>
