<svg viewBox="0.00 0.00 500.00 500.00" version="1.1" xmlns="http://www.w3.org/2000/svg">
<g stroke-linecap="butt" fill="none" stroke-width="2.00">
<path d="M 408.63 170.33
  L 399.20 170.83
  A 0.40 0.40 0.0 0 1 398.78 170.48
  Q 398.72 170.00 398.43 169.78
  Q 398.37 169.73 398.38 169.81
  Q 398.64 170.88 397.80 171.53" stroke="#d662a5"></path>
<path d="M 271.56 149.79
  L 271.74 148.91
  Q 271.82 148.53 271.44 148.62
  C 270.31 148.88 269.33 149.37 268.17 149.26
  Q 264.72 148.91 262.25 149.14
  Q 261.55 149.21 261.25 148.86
  Q 261.00 148.57 260.69 148.79
  Q 260.54 148.89 260.37 148.87
  Q 259.66 148.77 259.66 148.77
  L 259.38 148.20" stroke="#dc5e98"></path>
<path d="M 285.59 294.64
  Q 284.04 294.51 282.26 295.67
  A 1.18 1.16 35.2 0 1 281.35 295.82
  Q 279.94 295.47 278.79 296.38
  Q 278.45 296.65 278.02 296.64
  C 275.75 296.62 271.46 296.03 269.08 296.72
  Q 268.46 296.90 268.15 296.67
  Q 267.81 296.42 267.47 295.89" stroke="#9484e2"></path>
<path d="M 175.78 286.92
  L 173.94 288.42
  Q 173.53 288.75 173.02 288.60
  C 171.46 288.12 170.29 288.89 169.01 288.97
  Q 167.85 289.05 166.68 289.10
  Q 166.40 289.12 166.30 289.37
  Q 166.23 289.57 166.09 289.68
  Q 165.63 290.03 165.55 289.46
  L 165.18 286.53" stroke="#9a80d5"></path>
<path d="M 148.18 380.72
  L 136.34 380.79" stroke="#46a7e6"></path>
<path d="M 112.96 374.08
  Q 112.14 374.05 111.48 373.92
  C 109.57 373.53 107.06 373.91 105.12 374.10
  Q 104.09 374.20 102.01 373.34" stroke="#46a7e6"></path>
<path d="M 214.21 277.48
  L 212.07 278.67
  Q 211.87 278.77 211.87 278.99
  Q 211.87 279.15 211.87 279.32
  Q 211.88 279.51 211.70 279.45
  Q 210.74 279.17 209.93 279.61
  Q 209.51 279.83 209.05 279.84
  Q 203.92 279.95 198.73 279.76
  Q 198.02 279.73 198.06 279.30
  Q 198.10 278.92 198.46 278.25" stroke="#9484e2"></path>
<path d="M 208.77 314.81
  Q 205.31 311.69 200.73 312.90
  Q 197.83 313.66 196.07 312.46" stroke="#878ae8"></path>
<path d="M 290.03 233.57
  Q 290.32 232.15 289.95 231.60
  Q 289.79 231.37 289.93 231.13
  Q 290.01 230.99 290.18 230.83
  A 0.33 0.32 -61.7 0 0 290.01 230.26
  Q 284.69 229.66 279.49 230.74
  Q 279.09 230.83 279.28 230.47
  Q 279.60 229.84 279.01 229.47" stroke="#ba72d5"></path>
<path d="M 268.23 223.49
  L 268.03 222.60
  Q 267.91 222.09 267.39 222.09
  L 254.58 222.15" stroke="#c76ccf"></path>
</g>
<path d="M 408.63 170.33
  L 399.20 170.83
  A 0.40 0.40 0.0 0 1 398.78 170.48
  Q 398.72 170.00 398.43 169.78
  Q 398.37 169.73 398.38 169.81
  Q 398.64 170.88 397.80 171.53
  C 398.12 168.85 398.48 166.21 398.48 163.48
  Q 398.51 132.74 398.49 101.92
  A 0.40 0.40 0.0 0 0 398.09 101.52
  Q 373.60 101.55 349.00 101.51
  Q 334.39 101.48 329.04 102.37
  Q 307.61 105.90 293.23 123.47
  Q 282.72 136.30 271.56 149.79
  L 271.74 148.91
  Q 271.82 148.53 271.44 148.62
  C 270.31 148.88 269.33 149.37 268.17 149.26
  Q 264.72 148.91 262.25 149.14
  Q 261.55 149.21 261.25 148.86
  Q 261.00 148.57 260.69 148.79
  Q 260.54 148.89 260.37 148.87
  Q 259.66 148.77 259.66 148.77
  L 259.38 148.20
  Q 270.21 134.78 281.09 121.40
  Q 289.53 111.04 294.66 106.78
  Q 308.40 95.40 326.08 92.12
  Q 332.45 90.94 345.99 90.90
  Q 374.11 90.84 402.22 90.94
  C 405.86 90.95 409.06 91.91 409.06 96.00
  Q 409.10 130.61 409.03 165.21
  C 409.03 166.72 408.65 168.55 408.63 170.33
  Z" fill="#eb536d"></path>
<path d="M 259.38 148.20
  L 259.66 148.77
  Q 259.66 148.77 260.37 148.87
  Q 260.54 148.89 260.69 148.79
  Q 261.00 148.57 261.25 148.86
  Q 261.55 149.21 262.25 149.14
  Q 264.72 148.91 268.17 149.26
  C 269.33 149.37 270.31 148.88 271.44 148.62
  Q 271.82 148.53 271.74 148.91
  L 271.56 149.79
  Q 271.33 164.61 271.45 180.26
  C 271.51 187.86 260.86 188.99 260.84 180.41
  Q 260.82 172.56 260.84 164.68
  Q 260.84 163.18 259.89 164.34
  L 239.55 189.29
  Q 239.22 189.70 239.22 190.21
  Q 239.28 207.01 239.20 223.72
  C 239.17 229.21 232.42 230.23 229.91 226.71
  Q 228.72 225.05 228.72 221.05
  Q 228.71 212.47 228.72 204.23
  Q 228.72 202.73 227.77 203.89
  Q 210.91 224.58 193.87 245.56
  Q 185.15 256.29 182.32 261.82
  Q 176.38 273.44 175.78 286.92
  L 173.94 288.42
  Q 173.53 288.75 173.02 288.60
  C 171.46 288.12 170.29 288.89 169.01 288.97
  Q 167.85 289.05 166.68 289.10
  Q 166.40 289.12 166.30 289.37
  Q 166.23 289.57 166.09 289.68
  Q 165.63 290.03 165.55 289.46
  L 165.18 286.53
  Q 166.10 266.80 176.43 250.91
  Q 178.37 247.93 188.71 235.16
  Q 223.98 191.63 259.38 148.20
  Z" fill="#cd68c2"></path>
<path d="M 290.03 233.57
  Q 290.32 232.15 289.95 231.60
  Q 289.79 231.37 289.93 231.13
  Q 290.01 230.99 290.18 230.83
  A 0.33 0.32 -61.7 0 0 290.01 230.26
  Q 284.69 229.66 279.49 230.74
  Q 279.09 230.83 279.28 230.47
  Q 279.60 229.84 279.01 229.47
  L 342.65 165.90
  A 0.49 0.49 0.0 0 0 342.51 165.11
  Q 335.72 161.91 329.46 164.29
  Q 326.21 165.52 321.37 170.35
  Q 294.78 196.90 268.23 223.49
  L 268.03 222.60
  Q 267.91 222.09 267.39 222.09
  L 254.58 222.15
  Q 283.94 192.56 313.37 163.39
  Q 319.54 157.28 323.21 155.38
  C 333.25 150.18 348.66 152.69 355.32 162.42
  C 357.01 164.87 356.32 167.23 354.40 169.16
  Q 322.29 201.41 290.03 233.57
  Z" fill="#cd68c2"></path>
<path d="M 408.63 170.33
  Q 404.66 197.97 383.87 214.87
  Q 334.71 254.82 285.59 294.64
  Q 284.04 294.51 282.26 295.67
  A 1.18 1.16 35.2 0 1 281.35 295.82
  Q 279.94 295.47 278.79 296.38
  Q 278.45 296.65 278.02 296.64
  C 275.75 296.62 271.46 296.03 269.08 296.72
  Q 268.46 296.90 268.15 296.67
  Q 267.81 296.42 267.47 295.89
  L 296.24 272.51
  Q 297.71 271.31 295.81 271.35
  Q 286.78 271.54 277.80 271.38
  C 274.07 271.31 271.16 269.69 271.41 265.68
  C 271.65 261.82 274.26 260.78 277.76 260.79
  Q 293.94 260.87 310.13 260.79
  A 1.23 1.23 0.0 0 0 310.91 260.51
  L 335.91 240.15
  Q 337.07 239.20 335.58 239.21
  Q 324.26 239.28 312.50 239.22
  Q 309.78 239.21 309.01 235.71
  Q 308.10 231.55 310.73 229.74
  Q 312.24 228.69 315.97 228.69
  Q 332.51 228.69 349.31 228.70
  A 1.98 1.97 -64.2 0 0 350.54 228.27
  Q 360.80 219.97 371.18 211.51
  Q 381.97 202.72 385.82 197.94
  Q 394.99 186.54 397.80 171.53
  Q 398.64 170.88 398.38 169.81
  Q 398.37 169.73 398.43 169.78
  Q 398.72 170.00 398.78 170.48
  A 0.40 0.40 0.0 0 0 399.20 170.83
  L 408.63 170.33
  Z" fill="#c070dc"></path>
<path d="M 268.23 223.49
  L 214.21 277.48
  L 212.07 278.67
  Q 211.87 278.77 211.87 278.99
  Q 211.87 279.15 211.87 279.32
  Q 211.88 279.51 211.70 279.45
  Q 210.74 279.17 209.93 279.61
  Q 209.51 279.83 209.05 279.84
  Q 203.92 279.95 198.73 279.76
  Q 198.02 279.73 198.06 279.30
  Q 198.10 278.92 198.46 278.25
  L 254.58 222.15
  L 267.39 222.09
  Q 267.91 222.09 268.03 222.60
  L 268.23 223.49
  Z" fill="#c070dc"></path>
<path d="M 279.01 229.47
  Q 279.60 229.84 279.28 230.47
  Q 279.09 230.83 279.49 230.74
  Q 284.69 229.66 290.01 230.26
  A 0.33 0.32 -61.7 0 1 290.18 230.83
  Q 290.01 230.99 289.93 231.13
  Q 289.79 231.37 289.95 231.60
  Q 290.32 232.15 290.03 233.57
  L 208.77 314.81
  Q 205.31 311.69 200.73 312.90
  Q 197.83 313.66 196.07 312.46
  L 279.01 229.47
  Z" fill="#a77ce8"></path>
<path d="M 214.21 277.48
  L 156.98 334.66
  Q 156.64 334.99 156.98 335.33
  L 164.85 343.17
  Q 165.16 343.48 165.47 343.17
  L 196.07 312.46
  Q 197.83 313.66 200.73 312.90
  Q 205.31 311.69 208.77 314.81
  L 199.84 323.65
  Q 199.48 324.01 199.99 324.04
  C 210.54 324.80 221.71 324.39 231.44 320.80
  C 245.21 315.70 256.18 304.97 267.47 295.89
  Q 267.81 296.42 268.15 296.67
  Q 268.46 296.90 269.08 296.72
  C 271.46 296.03 275.75 296.62 278.02 296.64
  Q 278.45 296.65 278.79 296.38
  Q 279.94 295.47 281.35 295.82
  A 1.18 1.16 35.2 0 0 282.26 295.67
  Q 284.04 294.51 285.59 294.64
  Q 273.40 304.70 261.13 314.57
  Q 250.25 323.31 244.95 326.27
  Q 229.03 335.15 210.01 335.00
  Q 199.56 334.92 189.51 334.94
  Q 188.67 334.94 188.07 335.53
  L 172.95 350.71
  Q 172.59 351.08 173.00 351.38
  C 177.65 354.87 175.87 358.46 172.35 361.92
  Q 165.78 368.38 159.27 374.87
  C 156.64 377.49 154.13 378.67 151.05 376.06
  A 0.63 0.62 -57.9 0 0 150.08 376.29
  L 148.18 380.72
  L 136.34 380.79
  L 142.61 368.30
  Q 142.83 367.87 142.48 367.52
  L 132.75 357.76
  Q 132.32 357.33 131.78 357.60
  L 117.49 364.67
  A 3.73 3.71 86.9 0 0 115.65 366.73
  L 112.96 374.08
  Q 112.14 374.05 111.48 373.92
  C 109.57 373.53 107.06 373.91 105.12 374.10
  Q 104.09 374.20 102.01 373.34
  C 104.24 367.20 106.46 358.68 109.54 357.03
  Q 115.96 353.60 123.60 349.92
  A 0.68 0.68 0.0 0 0 123.86 348.90
  C 121.96 346.32 122.52 343.74 124.78 341.46
  Q 132.43 333.76 140.16 326.16
  Q 144.03 322.35 148.80 326.92
  Q 149.25 327.35 149.70 326.91
  L 164.53 312.22
  Q 165.07 311.68 165.08 310.91
  L 165.18 286.53
  L 165.55 289.46
  Q 165.63 290.03 166.09 289.68
  Q 166.23 289.57 166.30 289.37
  Q 166.40 289.12 166.68 289.10
  Q 167.85 289.05 169.01 288.97
  C 170.29 288.89 171.46 288.12 173.02 288.60
  Q 173.53 288.75 173.94 288.42
  L 175.78 286.92
  L 175.78 300.16
  Q 175.78 301.13 176.47 300.44
  L 198.46 278.25
  Q 198.10 278.92 198.06 279.30
  Q 198.02 279.73 198.73 279.76
  Q 203.92 279.95 209.05 279.84
  Q 209.51 279.83 209.93 279.61
  Q 210.74 279.17 211.70 279.45
  Q 211.88 279.51 211.87 279.32
  Q 211.87 279.15 211.87 278.99
  Q 211.87 278.77 212.07 278.67
  L 214.21 277.48
  Z
  M 144.3380 337.6335
  A 0.61 0.61 0.0 0 0 143.4754 337.6335
  L 135.9235 345.1854
  A 0.61 0.61 0.0 0 0 135.9235 346.0480
  L 154.0820 364.2065
  A 0.61 0.61 0.0 0 0 154.9446 364.2065
  L 162.4965 356.6546
  A 0.61 0.61 0.0 0 0 162.4965 355.7920
  L 144.3380 337.6335
  Z" fill="#6798e7"></path>
<path d="M 102.01 373.34
  Q 104.09 374.20 105.12 374.10
  C 107.06 373.91 109.57 373.53 111.48 373.92
  Q 112.14 374.05 112.96 374.08
  L 105.57 393.83
  A 0.55 0.55 0.0 0 0 106.28 394.54
  Q 119.84 389.43 133.46 384.46
  Q 135.34 383.77 136.34 380.79
  L 148.18 380.72
  C 146.50 384.32 143.86 391.74 140.18 393.12
  Q 119.99 400.74 99.75 408.23
  C 93.24 410.64 89.38 407.00 91.73 400.73
  Q 96.90 386.86 102.01 373.34
  Z" fill="#24b6e5"></path>
</svg>
