<svg viewBox="0.00 0.00 256.00 256.00" version="1.1" xmlns="http://www.w3.org/2000/svg">
<g stroke-linecap="butt" fill="none" stroke-width="2.00">
<path d="M 18.31 0.00
  Q 2.91 2.71 0.00 18.22" stroke="#8f9092"></path>
<path d="M 237.79 0.00
  Q 253.27 2.90 256.00 18.29" stroke="#8f9092"></path>
<path d="M 256.00 237.75
  Q 253.12 253.25 237.72 256.00" stroke="#8f9092"></path>
<path d="M 18.22 256.00
  Q 2.73 253.11 0.00 237.69" stroke="#8f9092"></path>
<path d="M 64.62 119.11
  C 68.70 124.49 68.62 131.67 64.74 136.75
  Q 56.30 147.80 47.85 158.85
  C 41.10 167.68 45.05 180.79 56.27 182.79
  Q 59.52 183.37 68.58 182.04
  Q 77.47 180.74 86.38 179.48
  C 96.97 177.99 101.42 182.33 105.32 192.03
  Q 109.02 201.21 112.68 210.41
  Q 114.95 216.12 116.65 218.16
  C 121.81 224.36 132.63 224.53 137.96 219.07
  Q 140.44 216.53 143.89 207.79
  Q 147.07 199.71 150.30 191.65
  C 152.76 185.54 155.02 181.50 161.09 179.72
  Q 164.22 178.79 170.43 179.70
  Q 182.20 181.42 194.01 182.95
  C 205.16 184.40 214.31 173.59 210.33 163.48
  Q 209.47 161.29 202.84 152.60
  Q 198.24 146.56 193.62 140.54
  Q 189.07 134.62 188.23 131.17
  Q 186.61 124.43 191.33 118.32
  Q 198.76 108.73 206.08 99.05
  C 210.15 93.69 212.59 89.18 210.37 82.98
  Q 206.24 71.42 193.25 73.07
  Q 182.46 74.43 171.70 76.05
  C 165.03 77.05 159.98 77.31 155.33 72.90
  Q 152.82 70.52 149.64 62.59
  Q 145.47 52.17 141.15 41.81
  C 137.18 32.26 124.68 29.95 117.70 36.74
  Q 115.20 39.16 112.64 45.61
  Q 108.86 55.09 105.06 64.57
  C 102.68 70.49 100.38 74.35 94.52 76.13
  Q 91.34 77.10 84.94 76.20
  Q 74.60 74.74 64.24 73.33
  Q 58.01 72.47 55.99 72.99
  C 48.10 75.04 42.87 82.85 44.74 90.78
  Q 45.47 93.87 49.43 99.10
  Q 57.02 109.11 64.62 119.11" stroke="#8f8747"></path>
</g>
<path d="M 0.00 0.00
  L 18.31 0.00
  Q 2.91 2.71 0.00 18.22
  L 0.00 0.00
  Z" fill="#ffffff"></path>
<path d="M 18.31 0.00
  L 237.79 0.00
  Q 253.27 2.90 256.00 18.29
  L 256.00 237.75
  Q 253.12 253.25 237.72 256.00
  L 18.22 256.00
  Q 2.73 253.11 0.00 237.69
  L 0.00 18.22
  Q 2.91 2.71 18.31 0.00
  Z
  M 64.62 119.11
  C 68.70 124.49 68.62 131.67 64.74 136.75
  Q 56.30 147.80 47.85 158.85
  C 41.10 167.68 45.05 180.79 56.27 182.79
  Q 59.52 183.37 68.58 182.04
  Q 77.47 180.74 86.38 179.48
  C 96.97 177.99 101.42 182.33 105.32 192.03
  Q 109.02 201.21 112.68 210.41
  Q 114.95 216.12 116.65 218.16
  C 121.81 224.36 132.63 224.53 137.96 219.07
  Q 140.44 216.53 143.89 207.79
  Q 147.07 199.71 150.30 191.65
  C 152.76 185.54 155.02 181.50 161.09 179.72
  Q 164.22 178.79 170.43 179.70
  Q 182.20 181.42 194.01 182.95
  C 205.16 184.40 214.31 173.59 210.33 163.48
  Q 209.47 161.29 202.84 152.60
  Q 198.24 146.56 193.62 140.54
  Q 189.07 134.62 188.23 131.17
  Q 186.61 124.43 191.33 118.32
  Q 198.76 108.73 206.08 99.05
  C 210.15 93.69 212.59 89.18 210.37 82.98
  Q 206.24 71.42 193.25 73.07
  Q 182.46 74.43 171.70 76.05
  C 165.03 77.05 159.98 77.31 155.33 72.90
  Q 152.82 70.52 149.64 62.59
  Q 145.47 52.17 141.15 41.81
  C 137.18 32.26 124.68 29.95 117.70 36.74
  Q 115.20 39.16 112.64 45.61
  Q 108.86 55.09 105.06 64.57
  C 102.68 70.49 100.38 74.35 94.52 76.13
  Q 91.34 77.10 84.94 76.20
  Q 74.60 74.74 64.24 73.33
  Q 58.01 72.47 55.99 72.99
  C 48.10 75.04 42.87 82.85 44.74 90.78
  Q 45.47 93.87 49.43 99.10
  Q 57.02 109.11 64.62 119.11
  Z" fill="#1e2024"></path>
<path d="M 237.79 0.00
  L 256.00 0.00
  L 256.00 18.29
  Q 253.27 2.90 237.79 0.00
  Z" fill="#ffffff"></path>
<path d="M 64.74 136.75
  C 68.62 131.67 68.70 124.49 64.62 119.11
  Q 57.02 109.11 49.43 99.10
  Q 45.47 93.87 44.74 90.78
  C 42.87 82.85 48.10 75.04 55.99 72.99
  Q 58.01 72.47 64.24 73.33
  Q 74.60 74.74 84.94 76.20
  Q 91.34 77.10 94.52 76.13
  C 100.38 74.35 102.68 70.49 105.06 64.57
  Q 108.86 55.09 112.64 45.61
  Q 115.20 39.16 117.70 36.74
  C 124.68 29.95 137.18 32.26 141.15 41.81
  Q 145.47 52.17 149.64 62.59
  Q 152.82 70.52 155.33 72.90
  C 159.98 77.31 165.03 77.05 171.70 76.05
  Q 182.46 74.43 193.25 73.07
  Q 206.24 71.42 210.37 82.98
  C 212.59 89.18 210.15 93.69 206.08 99.05
  Q 198.76 108.73 191.33 118.32
  Q 186.61 124.43 188.23 131.17
  Q 189.07 134.62 193.62 140.54
  Q 198.24 146.56 202.84 152.60
  Q 209.47 161.29 210.33 163.48
  C 214.31 173.59 205.16 184.40 194.01 182.95
  Q 182.20 181.42 170.43 179.70
  Q 164.22 178.79 161.09 179.72
  C 155.02 181.50 152.76 185.54 150.30 191.65
  Q 147.07 199.71 143.89 207.79
  Q 140.44 216.53 137.96 219.07
  C 132.63 224.53 121.81 224.36 116.65 218.16
  Q 114.95 216.12 112.68 210.41
  Q 109.02 201.21 105.32 192.03
  C 101.42 182.33 96.97 177.99 86.38 179.48
  Q 77.47 180.74 68.58 182.04
  Q 59.52 183.37 56.27 182.79
  C 45.05 180.79 41.10 167.68 47.85 158.85
  Q 56.30 147.80 64.74 136.75
  Z" fill="#ffee69"></path>
<path d="M 0.00 237.69
  Q 2.73 253.11 18.22 256.00
  L 0.00 256.00
  L 0.00 237.69
  Z" fill="#ffffff"></path>
<path d="M 256.00 237.75
  L 256.00 256.00
  L 237.72 256.00
  Q 253.12 253.25 256.00 237.75
  Z" fill="#ffffff"></path>
</svg>
