<svg viewBox="0.00 0.00 180.00 180.00" version="1.1" xmlns="http://www.w3.org/2000/svg">
<g stroke-linecap="butt" fill="none" stroke-width="2.00">
<path d="M 60.19 123.32
  A 0.38 0.38 0.0 0 0 60.36 123.82
  L 75.14 131.54
  A 0.38 0.38 0.0 0 0 75.65 131.37
  L 121.45 38.95
  A 0.38 0.38 0.0 0 0 121.28 38.44
  L 106.22 31.01
  A 0.38 0.38 0.0 0 0 105.71 31.18
  L 60.19 123.32" stroke="#8a6b10"></path>
<path d="M 69.66 137.90
  A 0.33 0.33 0.0 0 0 69.62 137.34
  L 58.44 131.49
  A 0.33 0.33 0.0 0 0 57.95 131.79
  L 58.02 145.69
  A 0.33 0.33 0.0 0 0 58.54 145.95
  L 69.66 137.90" stroke="#8d8d8d"></path>
</g>
<path d="M 52.97 36.85
  C 49.96 25.71 47.88 24.10 36.97 21.30
  Q 36.12 21.08 36.96 20.85
  C 39.83 20.05 43.26 19.39 45.55 18.07
  C 50.94 14.97 51.41 10.46 53.09 4.80
  Q 53.30 4.09 53.52 4.80
  Q 54.42 7.79 55.34 10.70
  C 57.81 18.54 63.09 18.76 69.73 20.93
  Q 70.28 21.11 69.72 21.26
  C 65.72 22.36 60.79 23.12 57.90 26.53
  C 55.63 29.20 54.32 33.33 53.78 36.80
  Q 53.48 38.75 52.97 36.85
  Z" fill="#ee4037"></path>
<path d="M 133.00 34.98
  L 81.18 139.51
  A 3.02 2.97 84.6 0 1 80.31 140.58
  L 50.40 163.63
  A 0.24 0.23 71.1 0 1 50.02 163.44
  Q 49.96 145.16 50.03 126.79
  Q 50.03 124.49 51.06 122.42
  Q 76.48 71.00 101.84 19.66
  A 0.31 0.31 0.0 0 1 102.26 19.52
  L 132.87 34.60
  A 0.28 0.28 0.0 0 1 133.00 34.98
  Z
  M 60.19 123.32
  A 0.38 0.38 0.0 0 0 60.36 123.82
  L 75.14 131.54
  A 0.38 0.38 0.0 0 0 75.65 131.37
  L 121.45 38.95
  A 0.38 0.38 0.0 0 0 121.28 38.44
  L 106.22 31.01
  A 0.38 0.38 0.0 0 0 105.71 31.18
  L 60.19 123.32
  Z
  M 69.66 137.90
  A 0.33 0.33 0.0 0 0 69.62 137.34
  L 58.44 131.49
  A 0.33 0.33 0.0 0 0 57.95 131.79
  L 58.02 145.69
  A 0.33 0.33 0.0 0 0 58.54 145.95
  L 69.66 137.90
  Z" fill="#1a1a1a"></path>
<path d="M 60.19 123.32
  L 105.71 31.18
  A 0.38 0.38 0.0 0 1 106.22 31.01
  L 121.28 38.44
  A 0.38 0.38 0.0 0 1 121.45 38.95
  L 75.65 131.37
  A 0.38 0.38 0.0 0 1 75.14 131.54
  L 60.36 123.82
  A 0.38 0.38 0.0 0 1 60.19 123.32
  Z" fill="#fabb05"></path>
<path d="M 28.75 91.81
  C 23.46 94.70 22.27 100.38 21.02 105.58
  Q 20.77 106.61 20.51 105.58
  C 17.57 94.01 15.30 91.76 3.93 89.02
  Q 2.78 88.75 3.93 88.46
  Q 6.89 87.72 10.21 86.60
  C 18.09 83.95 18.30 78.66 20.58 71.92
  Q 20.80 71.27 20.99 71.93
  C 21.84 74.87 22.50 78.33 23.85 80.72
  C 26.98 86.21 32.20 87.04 37.63 88.48
  Q 38.53 88.72 37.64 88.97
  C 34.66 89.81 31.17 90.50 28.75 91.81
  Z" fill="#2cd253"></path>
<path d="M 155.91 123.00
  C 153.36 126.79 152.21 132.41 150.97 137.22
  Q 150.73 138.18 150.48 137.22
  C 148.28 128.67 147.03 121.14 138.61 116.83
  C 135.42 115.19 130.36 114.18 126.28 113.03
  Q 125.43 112.79 126.28 112.57
  C 133.54 110.66 140.47 109.66 145.22 103.15
  C 147.99 99.35 149.34 93.30 150.46 88.41
  A 0.27 0.27 0.0 0 1 150.98 88.41
  C 152.10 92.77 153.23 98.08 155.24 101.67
  C 159.43 109.16 167.71 110.76 175.17 112.53
  Q 176.23 112.78 175.18 113.06
  C 167.68 115.05 160.55 116.09 155.91 123.00
  Z" fill="#4285f4"></path>
<path d="M 69.66 137.90
  L 58.54 145.95
  A 0.33 0.33 0.0 0 1 58.02 145.69
  L 57.95 131.79
  A 0.33 0.33 0.0 0 1 58.44 131.49
  L 69.62 137.34
  A 0.33 0.33 0.0 0 1 69.66 137.90
  Z" fill="#ffffff"></path>
<rect rx="0.67" height="7.98" width="73.00" y="167.01" x="49.99" fill="#1a1a1a"></rect>
</svg>
