<svg viewBox="0.00 0.00 512.00 512.00" version="1.1" xmlns="http://www.w3.org/2000/svg">
<g stroke-linecap="butt" fill="none" stroke-width="2.00">
<path d="M 378.29 45.24
  L 392.25 88.51
  Q 392.46 89.15 391.83 89.39
  L 389.69 90.19" stroke-opacity="0.655" stroke="#4040b1"></path>
<path d="M 389.69 90.19
  C 364.63 97.28 338.58 98.70 312.58 98.55
  Q 310.82 98.54 312.38 99.36
  L 322.26 104.53" stroke-opacity="0.757" stroke="#403fa4"></path>
<path d="M 322.26 104.53
  L 328.47 108.30" stroke-opacity="0.655" stroke="#4040b1"></path>
<path d="M 336.84 114.69
  L 338.48 117.27
  A 0.58 0.54 86.7 0 0 338.69 117.47
  L 339.59 117.95
  Q 340.26 118.31 339.71 118.83
  Q 339.33 119.20 338.87 119.13
  Q 338.46 119.08 338.25 119.43
  Q 337.71 120.31 336.81 120.12
  Q 336.35 120.03 336.14 120.46
  Q 335.73 121.33 334.83 121.12
  Q 334.37 121.02 334.16 121.44
  Q 333.74 122.34 332.82 122.11
  Q 332.35 121.99 332.15 122.44
  Q 331.74 123.34 330.82 123.12
  Q 330.35 123.01 330.15 123.45
  Q 329.73 124.34 328.82 124.12
  Q 328.35 124.01 328.15 124.45
  Q 327.73 125.34 326.82 125.12
  Q 326.35 125.01 326.15 125.45
  Q 325.73 126.33 324.83 126.12
  Q 324.37 126.02 324.16 126.44
  Q 323.74 127.33 322.83 127.11
  Q 322.37 127.00 322.17 127.43
  Q 321.75 128.33 320.80 128.13
  Q 320.35 128.04 320.15 128.45
  Q 319.71 129.36 318.79 129.11
  Q 318.31 128.99 318.13 129.46
  Q 317.87 130.19 317.10 130.13
  Q 316.52 130.08 316.14 130.53
  Q 315.32 131.49 313.97 131.08
  A 0.71 0.71 0.0 0 0 313.10 131.50
  Q 312.82 132.24 312.02 132.13
  Q 311.50 132.06 311.20 132.50
  Q 310.68 133.30 309.81 133.12
  Q 309.34 133.03 309.14 133.45
  Q 308.73 134.32 307.85 134.12
  Q 307.39 134.01 307.17 134.43
  Q 306.65 135.43 305.50 135.09
  Q 305.40 135.06 305.34 135.15
  L 305.05 135.53
  Q 304.89 135.76 304.63 135.89
  L 299.18 138.67
  Q 298.79 138.86 298.41 138.63
  Q 297.91 138.32 297.87 137.79
  Q 297.84 137.41 297.66 137.07
  Q 297.03 135.95 296.41 135.80" stroke="#4545db"></path>
<path d="M 296.41 135.80
  C 286.33 113.69 263.70 108.25 241.24 109.55
  C 215.30 111.05 195.74 125.83 191.04 152.12" stroke-opacity="0.757" stroke="#403fa4"></path>
<path d="M 191.04 152.12
  Q 187.31 171.50 192.83 190.47" stroke-opacity="0.655" stroke="#4040b1"></path>
<path d="M 192.83 190.47
  Q 192.96 191.34 192.86 191.67
  A 0.57 0.42 -41.2 0 1 191.87 191.75
  Q 191.88 191.61 191.88 191.48
  Q 191.87 191.29 191.70 191.22
  Q 190.45 190.73 189.95 191.70
  Q 189.73 192.12 189.26 192.12
  L 188.75 192.12
  Q 188.44 192.12 188.28 192.39
  Q 187.74 193.31 186.81 193.12
  Q 186.35 193.03 186.14 193.46
  Q 185.73 194.34 184.82 194.12
  Q 184.35 194.01 184.15 194.45
  Q 183.73 195.34 182.82 195.12
  Q 182.35 195.01 182.15 195.45
  Q 181.73 196.34 180.82 196.12
  Q 180.35 196.01 180.15 196.45
  Q 179.73 197.34 178.82 197.12
  Q 178.35 197.01 178.15 197.45
  Q 177.73 198.34 176.82 198.12
  Q 176.35 198.01 176.15 198.45
  Q 175.73 199.35 174.79 199.11
  Q 174.30 198.99 174.13 199.46
  Q 173.86 200.21 173.07 200.14
  Q 172.51 200.09 172.15 200.52
  Q 171.32 201.49 169.97 201.08
  A 0.71 0.71 0.0 0 0 169.10 201.50
  Q 168.82 202.24 168.02 202.13
  Q 167.50 202.06 167.21 202.50
  Q 166.68 203.30 165.81 203.12
  Q 165.35 203.03 165.14 203.46
  Q 164.73 204.34 163.82 204.12
  Q 163.35 204.01 163.15 204.45
  Q 162.73 205.34 161.82 205.12
  Q 161.35 205.01 161.15 205.45
  Q 160.73 206.34 159.82 206.12
  Q 159.35 206.01 159.15 206.45
  Q 158.73 207.34 157.82 207.12
  Q 157.35 207.01 157.15 207.45
  Q 156.73 208.34 155.82 208.12
  Q 155.35 208.01 155.15 208.45
  Q 154.73 209.34 153.82 209.12
  Q 153.35 209.01 153.15 209.45
  Q 152.73 210.34 151.82 210.12
  Q 151.35 210.01 151.15 210.45
  Q 150.73 211.36 149.78 211.11
  Q 149.29 210.98 149.12 211.46
  Q 148.87 212.20 148.12 212.13
  Q 147.66 212.09 147.34 212.43
  Q 146.66 213.15 145.66 213.35
  Q 145.22 213.44 144.95 213.81
  Q 144.57 214.33 143.90 214.41
  Q 143.36 214.47 142.94 214.81
  Q 142.57 215.10 142.35 215.50
  Q 142.05 216.06 141.55 215.66
  Q 141.24 215.41 140.87 215.33" stroke="#4545db"></path>
<path d="M 140.87 215.33
  Q 132.68 202.15 130.08 186.45" stroke-opacity="0.757" stroke="#403fa4"></path>
<path d="M 130.08 186.45
  C 124.14 148.41 136.57 113.21 168.26 90.56
  Q 170.86 88.70 178.14 84.22" stroke-opacity="0.655" stroke="#4040b1"></path>
<path d="M 296.41 135.80
  Q 300.18 144.17 301.17 153.28" stroke-opacity="0.757" stroke="#37379f"></path>
<path d="M 301.17 153.28
  C 304.66 177.53 300.25 207.09 276.50 220.10" stroke-opacity="0.655" stroke="#3636ab"></path>
<path d="M 206.82 212.84
  Q 196.99 203.69 192.83 190.47" stroke-opacity="0.655" stroke="#3636ab"></path>
<path d="M 173.07 249.79
  C 155.54 262.39 143.67 281.91 146.06 304.04" stroke-opacity="0.655" stroke="#3636ab"></path>
<path d="M 325.81 383.22
  C 327.89 401.70 318.60 415.19 301.32 421.09" stroke-opacity="0.655" stroke="#2323a0"></path>
<path d="M 345.86 123.72
  C 361.90 143.32 364.45 169.17 358.90 193.27" stroke-opacity="0.655" stroke="#3636ab"></path>
<path d="M 358.90 193.27
  C 344.51 249.70 290.45 268.37 237.76 265.20
  Q 224.91 264.42 212.44 261.24
  A 1.75 1.73 -55.4 0 0 211.00 261.51
  Q 200.59 269.08 199.36 282.13" stroke-opacity="0.757" stroke="#37379f"></path>
<path d="M 199.36 282.13
  Q 198.03 295.44 209.71 301.07" stroke-opacity="0.655" stroke="#3636ab"></path>
<path d="M 230.48 305.34
  L 246.32 305.88
  Q 246.69 305.89 246.68 306.27
  Q 246.66 306.97 247.44 307.48
  Q 247.75 307.69 248.11 307.65
  A 0.61 0.61 0.0 0 1 248.72 307.96
  Q 248.80 308.11 248.87 308.26
  A 0.42 0.42 0.0 0 1 248.49 308.87
  L 247.49 308.87
  Q 247.00 308.87 246.90 309.35
  Q 246.72 310.16 246.16 309.95
  Q 245.83 309.82 245.54 310.02
  L 242.78 311.94
  Q 242.34 312.25 241.82 312.13
  Q 241.24 312.01 241.12 312.45
  Q 240.94 313.12 240.25 313.12
  L 238.75 313.12
  Q 238.32 313.12 238.12 313.51
  Q 237.70 314.33 236.82 314.12
  Q 236.35 314.01 236.15 314.45
  Q 235.73 315.33 234.83 315.12
  Q 234.37 315.02 234.16 315.44
  Q 233.74 316.33 232.83 316.11
  Q 232.37 316.00 232.17 316.43
  Q 231.74 317.34 230.82 317.12
  Q 230.35 317.01 230.15 317.45
  Q 229.73 318.33 228.83 318.12
  Q 228.37 318.02 228.16 318.44
  Q 227.74 319.33 226.83 319.11
  Q 226.37 319.00 226.17 319.43
  Q 225.75 320.33 224.80 320.13
  Q 224.35 320.04 224.15 320.45
  Q 223.72 321.34 222.82 321.12
  Q 222.35 321.01 222.15 321.44
  Q 221.73 322.34 220.82 322.12
  Q 220.35 322.01 220.15 322.45
  Q 219.73 323.34 218.82 323.12
  Q 218.35 323.01 218.15 323.44
  Q 217.73 324.34 216.82 324.12
  Q 216.35 324.01 216.15 324.45
  Q 215.73 325.34 214.82 325.12
  Q 214.35 325.01 214.15 325.45
  Q 213.73 326.34 212.82 326.12
  Q 212.35 326.01 212.15 326.45
  Q 211.73 327.34 210.82 327.12
  Q 210.35 327.01 210.15 327.45
  Q 209.73 328.35 208.79 328.11
  Q 208.30 327.99 208.13 328.46
  Q 207.86 329.21 207.07 329.14
  Q 206.51 329.09 206.15 329.52
  Q 205.32 330.49 203.97 330.08
  A 0.71 0.71 0.0 0 0 203.10 330.50
  Q 202.82 331.24 202.02 331.13
  Q 201.50 331.06 201.21 331.50
  Q 200.68 332.30 199.81 332.12
  Q 199.35 332.03 199.14 332.46
  Q 198.73 333.34 197.82 333.12
  Q 197.35 333.01 197.15 333.45
  Q 196.73 334.34 195.82 334.12
  Q 195.35 334.01 195.15 334.45
  Q 194.73 335.34 193.82 335.12
  Q 193.35 335.01 193.15 335.45
  Q 192.73 336.34 191.82 336.12
  Q 191.35 336.01 191.15 336.45
  Q 190.73 337.34 189.82 337.12
  Q 189.35 337.01 189.15 337.45
  Q 188.73 338.34 187.82 338.12
  Q 187.35 338.01 187.15 338.45
  Q 186.73 339.34 185.82 339.12
  Q 185.35 339.01 185.15 339.45
  Q 184.73 340.36 183.78 340.11
  Q 183.29 339.98 183.12 340.46
  Q 182.86 341.21 182.09 341.13
  Q 181.66 341.08 181.36 341.39
  L 180.76 341.98
  A 0.66 0.65 31.5 0 1 180.07 342.14
  Q 179.60 341.98 179.49 342.41
  Q 179.36 342.90 178.86 342.87
  Q 177.27 342.78 176.01 342.02
  Q 174.24 340.96 172.48 339.90
  Q 172.39 339.85 172.38 339.95
  Q 172.36 340.10 172.29 340.19
  Q 172.26 340.24 172.20 340.21
  Q 171.09 339.52 169.88 339.61" stroke="#3232d0"></path>
<path d="M 169.88 339.61
  Q 149.53 327.06 146.06 304.04" stroke-opacity="0.757" stroke="#37379f"></path>
<path d="M 173.07 249.79
  L 176.55 247.12
  Q 177.04 246.74 176.49 246.44
  C 162.35 238.71 149.58 229.19 140.87 215.33" stroke-opacity="0.757" stroke="#37379f"></path>
<path d="M 370.69 340.31
  Q 392.48 368.05 384.00 403.54" stroke-opacity="0.655" stroke="#2323a0"></path>
<path d="M 384.00 403.54
  L 383.46 406.38" stroke-opacity="0.757" stroke="#272796"></path>
<path d="M 383.46 406.38
  Q 383.12 406.59 382.98 407.53" stroke-opacity="0.655" stroke="#2323a0"></path>
<path d="M 382.98 407.53
  C 367.69 455.77 312.12 468.70 268.50 471.66
  Q 236.16 473.85 205.24 470.42
  Q 185.38 468.21 166.65 461.29
  C 146.89 453.99 131.97 440.95 124.77 420.80" stroke-opacity="0.757" stroke="#272796"></path>
<path d="M 124.77 420.80
  L 123.36 416.51" stroke-opacity="0.655" stroke="#2323a0"></path>
<path d="M 123.36 416.51
  L 121.40 407.99" stroke-opacity="0.757" stroke="#272796"></path>
<path d="M 121.40 407.99
  Q 119.12 396.28 119.96 385.35" stroke-opacity="0.655" stroke="#2323a0"></path>
<path d="M 173.43 387.84
  C 173.32 399.16 176.38 409.99 185.59 417.09" stroke-opacity="0.655" stroke="#2323a0"></path>
<path d="M 169.88 339.61
  C 184.80 348.43 202.94 352.00 220.00 352.01
  Q 246.88 352.03 273.74 352.03
  C 293.93 352.03 323.10 359.36 325.81 383.22" stroke-opacity="0.757" stroke="#272796"></path>
</g>
<path d="M 378.29 45.24
  L 392.25 88.51
  Q 392.46 89.15 391.83 89.39
  L 389.69 90.19
  C 364.63 97.28 338.58 98.70 312.58 98.55
  Q 310.82 98.54 312.38 99.36
  L 322.26 104.53
  L 328.47 108.30
  L 336.84 114.69
  L 338.48 117.27
  A 0.58 0.54 86.7 0 0 338.69 117.47
  L 339.59 117.95
  Q 340.26 118.31 339.71 118.83
  Q 339.33 119.20 338.87 119.13
  Q 338.46 119.08 338.25 119.43
  Q 337.71 120.31 336.81 120.12
  Q 336.35 120.03 336.14 120.46
  Q 335.73 121.33 334.83 121.12
  Q 334.37 121.02 334.16 121.44
  Q 333.74 122.34 332.82 122.11
  Q 332.35 121.99 332.15 122.44
  Q 331.74 123.34 330.82 123.12
  Q 330.35 123.01 330.15 123.45
  Q 329.73 124.34 328.82 124.12
  Q 328.35 124.01 328.15 124.45
  Q 327.73 125.34 326.82 125.12
  Q 326.35 125.01 326.15 125.45
  Q 325.73 126.33 324.83 126.12
  Q 324.37 126.02 324.16 126.44
  Q 323.74 127.33 322.83 127.11
  Q 322.37 127.00 322.17 127.43
  Q 321.75 128.33 320.80 128.13
  Q 320.35 128.04 320.15 128.45
  Q 319.71 129.36 318.79 129.11
  Q 318.31 128.99 318.13 129.46
  Q 317.87 130.19 317.10 130.13
  Q 316.52 130.08 316.14 130.53
  Q 315.32 131.49 313.97 131.08
  A 0.71 0.71 0.0 0 0 313.10 131.50
  Q 312.82 132.24 312.02 132.13
  Q 311.50 132.06 311.20 132.50
  Q 310.68 133.30 309.81 133.12
  Q 309.34 133.03 309.14 133.45
  Q 308.73 134.32 307.85 134.12
  Q 307.39 134.01 307.17 134.43
  Q 306.65 135.43 305.50 135.09
  Q 305.40 135.06 305.34 135.15
  L 305.05 135.53
  Q 304.89 135.76 304.63 135.89
  L 299.18 138.67
  Q 298.79 138.86 298.41 138.63
  Q 297.91 138.32 297.87 137.79
  Q 297.84 137.41 297.66 137.07
  Q 297.03 135.95 296.41 135.80
  C 286.33 113.69 263.70 108.25 241.24 109.55
  C 215.30 111.05 195.74 125.83 191.04 152.12
  Q 187.31 171.50 192.83 190.47
  Q 192.96 191.34 192.86 191.67
  A 0.57 0.42 -41.2 0 1 191.87 191.75
  Q 191.88 191.61 191.88 191.48
  Q 191.87 191.29 191.70 191.22
  Q 190.45 190.73 189.95 191.70
  Q 189.73 192.12 189.26 192.12
  L 188.75 192.12
  Q 188.44 192.12 188.28 192.39
  Q 187.74 193.31 186.81 193.12
  Q 186.35 193.03 186.14 193.46
  Q 185.73 194.34 184.82 194.12
  Q 184.35 194.01 184.15 194.45
  Q 183.73 195.34 182.82 195.12
  Q 182.35 195.01 182.15 195.45
  Q 181.73 196.34 180.82 196.12
  Q 180.35 196.01 180.15 196.45
  Q 179.73 197.34 178.82 197.12
  Q 178.35 197.01 178.15 197.45
  Q 177.73 198.34 176.82 198.12
  Q 176.35 198.01 176.15 198.45
  Q 175.73 199.35 174.79 199.11
  Q 174.30 198.99 174.13 199.46
  Q 173.86 200.21 173.07 200.14
  Q 172.51 200.09 172.15 200.52
  Q 171.32 201.49 169.97 201.08
  A 0.71 0.71 0.0 0 0 169.10 201.50
  Q 168.82 202.24 168.02 202.13
  Q 167.50 202.06 167.21 202.50
  Q 166.68 203.30 165.81 203.12
  Q 165.35 203.03 165.14 203.46
  Q 164.73 204.34 163.82 204.12
  Q 163.35 204.01 163.15 204.45
  Q 162.73 205.34 161.82 205.12
  Q 161.35 205.01 161.15 205.45
  Q 160.73 206.34 159.82 206.12
  Q 159.35 206.01 159.15 206.45
  Q 158.73 207.34 157.82 207.12
  Q 157.35 207.01 157.15 207.45
  Q 156.73 208.34 155.82 208.12
  Q 155.35 208.01 155.15 208.45
  Q 154.73 209.34 153.82 209.12
  Q 153.35 209.01 153.15 209.45
  Q 152.73 210.34 151.82 210.12
  Q 151.35 210.01 151.15 210.45
  Q 150.73 211.36 149.78 211.11
  Q 149.29 210.98 149.12 211.46
  Q 148.87 212.20 148.12 212.13
  Q 147.66 212.09 147.34 212.43
  Q 146.66 213.15 145.66 213.35
  Q 145.22 213.44 144.95 213.81
  Q 144.57 214.33 143.90 214.41
  Q 143.36 214.47 142.94 214.81
  Q 142.57 215.10 142.35 215.50
  Q 142.05 216.06 141.55 215.66
  Q 141.24 215.41 140.87 215.33
  Q 132.68 202.15 130.08 186.45
  C 124.14 148.41 136.57 113.21 168.26 90.56
  Q 170.86 88.70 178.14 84.22
  Q 206.18 69.50 238.27 68.55
  Q 253.49 68.10 268.75 67.58
  C 297.43 66.60 325.32 61.93 351.92 50.85
  Q 364.15 45.75 376.00 39.78
  A 0.41 0.41 0.0 0 1 376.58 40.02
  L 378.29 45.24
  Z" fill="#4b4bdf"></path>
<path d="M 328.47 108.30
  L 322.26 104.53
  Q 322.14 103.86 322.41 103.32
  Q 322.62 102.91 323.28 102.66
  C 324.43 102.23 325.75 101.54 326.96 101.46
  C 341.14 100.59 355.89 100.26 369.84 97.41
  C 375.45 96.26 380.29 95.46 386.23 93.43
  Q 389.00 92.48 389.69 90.19
  L 391.83 89.39
  Q 392.46 89.15 392.25 88.51
  L 378.29 45.24
  Q 378.50 44.56 378.92 44.60
  A 1.89 1.87 83.0 0 1 380.50 45.85
  C 381.11 47.52 382.07 49.17 382.60 50.83
  Q 387.10 64.79 391.72 78.71
  C 392.35 80.61 392.73 82.83 393.37 84.87
  A 0.69 0.66 43.4 0 1 393.39 85.23
  Q 393.25 85.78 393.52 86.23
  Q 393.74 86.60 393.79 87.02
  C 394.59 93.23 389.91 97.05 384.37 98.09
  Q 379.36 99.02 379.19 99.06
  Q 375.71 99.90 372.13 100.29
  C 371.02 100.41 370.15 101.16 369.24 101.24
  Q 366.21 101.53 358.75 102.65
  Q 348.40 104.21 333.26 104.50
  Q 332.71 104.51 332.40 104.97
  Q 332.13 105.38 331.55 105.44
  Q 330.99 105.51 330.68 105.98
  Q 329.84 107.24 330.96 108.24
  A 0.30 0.30 0.0 0 1 330.76 108.76
  Q 329.68 108.74 328.47 108.30
  Z" fill-opacity="0.306" fill="#1b1b1c"></path>
<path d="M 178.14 84.22
  Q 170.86 88.70 168.26 90.56
  C 136.57 113.21 124.14 148.41 130.08 186.45
  L 130.12 189.22
  Q 130.13 189.68 130.34 190.10
  Q 130.89 191.23 131.09 193.26
  Q 131.45 196.79 135.15 207.19
  C 135.53 208.25 136.24 209.07 136.61 210.18
  C 137.34 212.38 138.77 213.96 139.78 215.99
  Q 139.90 216.23 140.11 216.32
  Q 140.41 216.44 140.54 216.74
  Q 142.00 219.87 144.27 222.48
  A 2.31 2.25 -74.2 0 1 144.74 223.35
  C 145.14 224.80 147.20 226.51 148.18 227.79
  Q 149.54 229.57 150.99 230.80
  Q 152.70 232.24 154.33 233.78
  C 157.98 237.24 162.43 240.41 166.26 242.97
  Q 166.72 243.28 166.96 243.69
  A 0.50 0.49 84.0 0 0 167.21 243.90
  Q 171.15 245.61 173.07 249.79
  C 155.54 262.39 143.67 281.91 146.06 304.04
  Q 145.91 306.12 146.32 308.08
  Q 146.72 310.01 146.87 312.00
  C 147.21 316.59 150.03 319.73 151.38 323.85
  C 151.88 325.36 153.56 326.75 154.14 327.57
  Q 162.20 338.92 174.77 344.92
  A 1.29 1.27 0.9 0 1 175.37 345.53
  Q 175.68 346.19 176.28 346.34
  Q 177.12 346.56 177.17 346.59
  C 181.85 348.60 186.75 349.79 191.58 351.36
  C 193.82 352.09 196.11 352.19 198.46 352.72
  C 202.89 353.72 207.71 354.37 212.13 354.34
  Q 240.19 354.19 268.25 354.39
  C 275.79 354.44 281.99 355.53 287.53 356.05
  C 289.82 356.26 291.81 357.21 294.25 357.62
  C 300.43 358.66 305.05 360.84 310.51 364.03
  Q 312.98 365.48 314.29 366.56
  Q 322.38 373.24 325.81 383.22
  C 327.89 401.70 318.60 415.19 301.32 421.09
  Q 301.89 419.41 303.88 418.72
  C 306.20 417.92 307.56 417.08 309.54 416.30
  Q 310.01 416.11 310.32 415.70
  Q 311.21 414.53 312.61 414.07
  Q 313.09 413.92 313.30 413.46
  Q 313.60 412.80 314.16 412.32
  Q 318.52 408.60 320.44 403.27
  Q 323.00 396.16 322.69 388.64
  C 322.60 386.40 321.97 384.43 321.41 382.22
  C 321.07 380.90 320.07 379.71 319.74 378.19
  Q 319.63 377.70 319.31 377.32
  C 318.45 376.31 318.05 375.18 317.19 374.27
  Q 313.60 370.49 312.23 369.39
  C 308.48 366.37 303.01 363.85 297.08 361.86
  Q 292.71 360.39 287.74 359.62
  Q 279.63 358.35 277.00 358.34
  Q 248.54 358.25 220.08 358.22
  Q 212.13 358.21 205.47 357.48
  Q 194.37 356.27 191.01 355.14
  Q 185.94 353.45 180.87 351.79
  Q 177.32 350.64 173.94 348.74
  C 170.99 347.09 167.80 345.54 165.21 343.62
  Q 159.28 339.23 154.45 333.65
  Q 152.68 331.60 150.82 328.60
  C 148.54 324.93 145.86 321.05 144.73 316.79
  Q 138.46 293.22 150.79 272.31
  Q 156.12 263.29 161.37 258.36
  Q 163.29 256.55 163.97 255.60
  Q 164.23 255.23 164.61 254.99
  C 167.29 253.24 169.13 249.80 165.54 247.56
  C 164.54 246.93 163.92 245.91 163.04 245.33
  Q 154.43 239.63 147.29 232.19
  C 145.27 230.08 143.42 227.53 141.47 225.14
  Q 139.50 222.72 138.14 220.34
  Q 136.69 217.80 135.29 215.22
  C 129.90 205.30 126.59 193.39 125.70 182.15
  Q 124.21 163.30 127.63 148.01
  Q 129.96 137.57 132.62 132.54
  Q 134.00 129.93 134.61 128.26
  C 135.26 126.51 136.56 125.54 137.05 123.94
  C 138.36 119.72 142.05 115.42 144.62 111.84
  Q 150.76 103.29 154.15 100.87
  Q 155.66 99.79 156.28 99.07
  Q 159.80 94.97 164.47 92.35
  Q 165.46 91.80 166.14 90.93
  Q 166.46 90.52 166.91 90.24
  L 175.47 84.86
  Q 175.83 84.64 176.25 84.69
  Q 176.73 84.74 176.95 84.29
  A 0.70 0.68 -85.3 0 1 177.35 83.94
  Q 177.91 83.76 178.14 84.22
  Z" fill-opacity="0.306" fill="#1b1b1c"></path>
<path d="M 389.69 90.19
  Q 389.00 92.48 386.23 93.43
  C 380.29 95.46 375.45 96.26 369.84 97.41
  C 355.89 100.26 341.14 100.59 326.96 101.46
  C 325.75 101.54 324.43 102.23 323.28 102.66
  Q 322.62 102.91 322.41 103.32
  Q 322.14 103.86 322.26 104.53
  L 312.38 99.36
  Q 310.82 98.54 312.58 98.55
  C 338.58 98.70 364.63 97.28 389.69 90.19
  Z" fill-opacity="0.514" fill="#2a2932"></path>
<path d="M 296.41 135.80
  Q 300.18 144.17 301.17 153.28
  Q 298.27 142.35 295.74 137.00
  Q 293.90 133.12 289.51 127.80
  Q 288.34 126.39 286.25 125.01
  C 284.01 123.51 282.29 121.56 279.89 120.34
  C 277.12 118.94 274.72 117.14 271.98 116.19
  Q 262.25 112.80 254.25 112.46
  Q 240.44 111.88 236.76 112.79
  Q 231.03 114.20 225.24 115.33
  Q 223.87 115.59 220.93 117.40
  Q 220.50 117.66 220.00 117.63
  Q 219.53 117.60 219.24 117.74
  C 213.96 120.24 208.33 123.60 204.49 128.06
  Q 202.71 130.14 200.98 132.26
  Q 200.24 133.17 199.45 134.04
  C 198.17 135.42 197.51 137.14 196.53 138.73
  C 195.38 140.59 195.13 142.64 194.38 144.26
  Q 192.74 147.77 192.36 150.54
  Q 192.31 150.93 192.04 151.21
  Q 191.82 151.44 191.88 151.75
  Q 191.90 151.88 191.54 151.88
  Q 191.32 151.88 191.04 152.12
  C 195.74 125.83 215.30 111.05 241.24 109.55
  C 263.70 108.25 286.33 113.69 296.41 135.80
  Z" fill-opacity="0.514" fill="#2a2932"></path>
<path d="M 301.17 153.28
  C 304.66 177.53 300.25 207.09 276.50 220.10
  Q 276.19 219.96 276.04 219.81
  A 0.36 0.36 0.0 0 1 276.20 219.21
  Q 278.71 218.43 280.58 216.56
  C 281.04 216.10 281.10 215.58 281.68 215.18
  C 287.70 210.97 292.40 202.38 294.63 195.90
  C 298.64 184.30 299.65 169.62 298.11 158.00
  Q 297.64 154.38 295.58 146.71
  C 295.02 144.64 293.77 142.71 293.00 140.61
  Q 291.84 137.47 290.99 136.11
  Q 288.31 131.82 284.71 128.25
  C 282.52 126.08 279.65 124.52 276.97 122.79
  C 276.10 122.23 275.10 122.14 274.28 121.55
  Q 272.96 120.58 272.49 120.39
  C 261.50 115.84 248.86 115.47 239.00 116.25
  Q 230.95 116.89 221.33 121.08
  Q 220.10 121.61 218.91 122.22
  C 216.99 123.21 213.39 124.14 212.26 126.18
  Q 211.99 126.67 211.43 126.76
  A 0.95 0.89 -68.7 0 0 210.95 126.99
  C 208.96 128.81 206.93 130.40 205.25 132.50
  C 203.18 135.10 200.70 137.73 199.37 140.79
  C 197.84 144.30 196.26 147.77 194.99 152.93
  Q 193.81 157.73 193.56 162.69
  C 192.93 175.36 193.25 188.08 199.38 199.78
  C 199.89 200.75 200.89 201.02 200.97 202.47
  A 1.28 1.24 -68.8 0 0 201.29 203.23
  Q 202.50 204.57 203.05 206.30
  Q 203.24 206.86 203.72 207.20
  Q 204.25 207.59 204.00 208.24
  Q 203.79 208.75 204.02 208.51
  Q 204.22 208.30 204.44 208.47
  Q 204.50 208.51 204.49 208.57
  Q 204.47 208.74 204.41 208.88
  Q 204.37 208.98 204.43 209.06
  Q 205.14 210.06 206.18 210.48
  Q 206.71 210.68 206.60 211.24
  Q 206.50 211.71 206.79 211.65
  A 0.33 0.32 71.1 0 1 207.13 211.82
  Q 207.54 212.66 206.82 212.84
  Q 196.99 203.69 192.83 190.47
  Q 187.31 171.50 191.04 152.12
  Q 191.32 151.88 191.54 151.88
  Q 191.90 151.88 191.88 151.75
  Q 191.82 151.44 192.04 151.21
  Q 192.31 150.93 192.36 150.54
  Q 192.74 147.77 194.38 144.26
  C 195.13 142.64 195.38 140.59 196.53 138.73
  C 197.51 137.14 198.17 135.42 199.45 134.04
  Q 200.24 133.17 200.98 132.26
  Q 202.71 130.14 204.49 128.06
  C 208.33 123.60 213.96 120.24 219.24 117.74
  Q 219.53 117.60 220.00 117.63
  Q 220.50 117.66 220.93 117.40
  Q 223.87 115.59 225.24 115.33
  Q 231.03 114.20 236.76 112.79
  Q 240.44 111.88 254.25 112.46
  Q 262.25 112.80 271.98 116.19
  C 274.72 117.14 277.12 118.94 279.89 120.34
  C 282.29 121.56 284.01 123.51 286.25 125.01
  Q 288.34 126.39 289.51 127.80
  Q 293.90 133.12 295.74 137.00
  Q 298.27 142.35 301.17 153.28
  Z" fill-opacity="0.306" fill="#1b1b1c"></path>
<path d="M 336.84 114.69
  L 345.86 123.72
  C 361.90 143.32 364.45 169.17 358.90 193.27
  C 344.51 249.70 290.45 268.37 237.76 265.20
  Q 224.91 264.42 212.44 261.24
  A 1.75 1.73 -55.4 0 0 211.00 261.51
  Q 200.59 269.08 199.36 282.13
  Q 198.03 295.44 209.71 301.07
  C 216.38 304.07 222.85 304.68 230.48 305.34
  L 246.32 305.88
  Q 246.69 305.89 246.68 306.27
  Q 246.66 306.97 247.44 307.48
  Q 247.75 307.69 248.11 307.65
  A 0.61 0.61 0.0 0 1 248.72 307.96
  Q 248.80 308.11 248.87 308.26
  A 0.42 0.42 0.0 0 1 248.49 308.87
  L 247.49 308.87
  Q 247.00 308.87 246.90 309.35
  Q 246.72 310.16 246.16 309.95
  Q 245.83 309.82 245.54 310.02
  L 242.78 311.94
  Q 242.34 312.25 241.82 312.13
  Q 241.24 312.01 241.12 312.45
  Q 240.94 313.12 240.25 313.12
  L 238.75 313.12
  Q 238.32 313.12 238.12 313.51
  Q 237.70 314.33 236.82 314.12
  Q 236.35 314.01 236.15 314.45
  Q 235.73 315.33 234.83 315.12
  Q 234.37 315.02 234.16 315.44
  Q 233.74 316.33 232.83 316.11
  Q 232.37 316.00 232.17 316.43
  Q 231.74 317.34 230.82 317.12
  Q 230.35 317.01 230.15 317.45
  Q 229.73 318.33 228.83 318.12
  Q 228.37 318.02 228.16 318.44
  Q 227.74 319.33 226.83 319.11
  Q 226.37 319.00 226.17 319.43
  Q 225.75 320.33 224.80 320.13
  Q 224.35 320.04 224.15 320.45
  Q 223.72 321.34 222.82 321.12
  Q 222.35 321.01 222.15 321.44
  Q 221.73 322.34 220.82 322.12
  Q 220.35 322.01 220.15 322.45
  Q 219.73 323.34 218.82 323.12
  Q 218.35 323.01 218.15 323.44
  Q 217.73 324.34 216.82 324.12
  Q 216.35 324.01 216.15 324.45
  Q 215.73 325.34 214.82 325.12
  Q 214.35 325.01 214.15 325.45
  Q 213.73 326.34 212.82 326.12
  Q 212.35 326.01 212.15 326.45
  Q 211.73 327.34 210.82 327.12
  Q 210.35 327.01 210.15 327.45
  Q 209.73 328.35 208.79 328.11
  Q 208.30 327.99 208.13 328.46
  Q 207.86 329.21 207.07 329.14
  Q 206.51 329.09 206.15 329.52
  Q 205.32 330.49 203.97 330.08
  A 0.71 0.71 0.0 0 0 203.10 330.50
  Q 202.82 331.24 202.02 331.13
  Q 201.50 331.06 201.21 331.50
  Q 200.68 332.30 199.81 332.12
  Q 199.35 332.03 199.14 332.46
  Q 198.73 333.34 197.82 333.12
  Q 197.35 333.01 197.15 333.45
  Q 196.73 334.34 195.82 334.12
  Q 195.35 334.01 195.15 334.45
  Q 194.73 335.34 193.82 335.12
  Q 193.35 335.01 193.15 335.45
  Q 192.73 336.34 191.82 336.12
  Q 191.35 336.01 191.15 336.45
  Q 190.73 337.34 189.82 337.12
  Q 189.35 337.01 189.15 337.45
  Q 188.73 338.34 187.82 338.12
  Q 187.35 338.01 187.15 338.45
  Q 186.73 339.34 185.82 339.12
  Q 185.35 339.01 185.15 339.45
  Q 184.73 340.36 183.78 340.11
  Q 183.29 339.98 183.12 340.46
  Q 182.86 341.21 182.09 341.13
  Q 181.66 341.08 181.36 341.39
  L 180.76 341.98
  A 0.66 0.65 31.5 0 1 180.07 342.14
  Q 179.60 341.98 179.49 342.41
  Q 179.36 342.90 178.86 342.87
  Q 177.27 342.78 176.01 342.02
  Q 174.24 340.96 172.48 339.90
  Q 172.39 339.85 172.38 339.95
  Q 172.36 340.10 172.29 340.19
  Q 172.26 340.24 172.20 340.21
  Q 171.09 339.52 169.88 339.61
  Q 149.53 327.06 146.06 304.04
  C 143.67 281.91 155.54 262.39 173.07 249.79
  L 176.55 247.12
  Q 177.04 246.74 176.49 246.44
  C 162.35 238.71 149.58 229.19 140.87 215.33
  Q 141.24 215.41 141.55 215.66
  Q 142.05 216.06 142.35 215.50
  Q 142.57 215.10 142.94 214.81
  Q 143.36 214.47 143.90 214.41
  Q 144.57 214.33 144.95 213.81
  Q 145.22 213.44 145.66 213.35
  Q 146.66 213.15 147.34 212.43
  Q 147.66 212.09 148.12 212.13
  Q 148.87 212.20 149.12 211.46
  Q 149.29 210.98 149.78 211.11
  Q 150.73 211.36 151.15 210.45
  Q 151.35 210.01 151.82 210.12
  Q 152.73 210.34 153.15 209.45
  Q 153.35 209.01 153.82 209.12
  Q 154.73 209.34 155.15 208.45
  Q 155.35 208.01 155.82 208.12
  Q 156.73 208.34 157.15 207.45
  Q 157.35 207.01 157.82 207.12
  Q 158.73 207.34 159.15 206.45
  Q 159.35 206.01 159.82 206.12
  Q 160.73 206.34 161.15 205.45
  Q 161.35 205.01 161.82 205.12
  Q 162.73 205.34 163.15 204.45
  Q 163.35 204.01 163.82 204.12
  Q 164.73 204.34 165.14 203.46
  Q 165.35 203.03 165.81 203.12
  Q 166.68 203.30 167.21 202.50
  Q 167.50 202.06 168.02 202.13
  Q 168.82 202.24 169.10 201.50
  A 0.71 0.71 0.0 0 1 169.97 201.08
  Q 171.32 201.49 172.15 200.52
  Q 172.51 200.09 173.07 200.14
  Q 173.86 200.21 174.13 199.46
  Q 174.30 198.99 174.79 199.11
  Q 175.73 199.35 176.15 198.45
  Q 176.35 198.01 176.82 198.12
  Q 177.73 198.34 178.15 197.45
  Q 178.35 197.01 178.82 197.12
  Q 179.73 197.34 180.15 196.45
  Q 180.35 196.01 180.82 196.12
  Q 181.73 196.34 182.15 195.45
  Q 182.35 195.01 182.82 195.12
  Q 183.73 195.34 184.15 194.45
  Q 184.35 194.01 184.82 194.12
  Q 185.73 194.34 186.14 193.46
  Q 186.35 193.03 186.81 193.12
  Q 187.74 193.31 188.28 192.39
  Q 188.44 192.12 188.75 192.12
  L 189.26 192.12
  Q 189.73 192.12 189.95 191.70
  Q 190.45 190.73 191.70 191.22
  Q 191.87 191.29 191.88 191.48
  Q 191.88 191.61 191.87 191.75
  A 0.57 0.42 -41.2 0 0 192.86 191.67
  Q 192.96 191.34 192.83 190.47
  Q 196.99 203.69 206.82 212.84
  C 224.84 228.53 255.59 230.55 276.50 220.10
  C 300.25 207.09 304.66 177.53 301.17 153.28
  Q 300.18 144.17 296.41 135.80
  Q 297.03 135.95 297.66 137.07
  Q 297.84 137.41 297.87 137.79
  Q 297.91 138.32 298.41 138.63
  Q 298.79 138.86 299.18 138.67
  L 304.63 135.89
  Q 304.89 135.76 305.05 135.53
  L 305.34 135.15
  Q 305.40 135.06 305.50 135.09
  Q 306.65 135.43 307.17 134.43
  Q 307.39 134.01 307.85 134.12
  Q 308.73 134.32 309.14 133.45
  Q 309.34 133.03 309.81 133.12
  Q 310.68 133.30 311.20 132.50
  Q 311.50 132.06 312.02 132.13
  Q 312.82 132.24 313.10 131.50
  A 0.71 0.71 0.0 0 1 313.97 131.08
  Q 315.32 131.49 316.14 130.53
  Q 316.52 130.08 317.10 130.13
  Q 317.87 130.19 318.13 129.46
  Q 318.31 128.99 318.79 129.11
  Q 319.71 129.36 320.15 128.45
  Q 320.35 128.04 320.80 128.13
  Q 321.75 128.33 322.17 127.43
  Q 322.37 127.00 322.83 127.11
  Q 323.74 127.33 324.16 126.44
  Q 324.37 126.02 324.83 126.12
  Q 325.73 126.33 326.15 125.45
  Q 326.35 125.01 326.82 125.12
  Q 327.73 125.34 328.15 124.45
  Q 328.35 124.01 328.82 124.12
  Q 329.73 124.34 330.15 123.45
  Q 330.35 123.01 330.82 123.12
  Q 331.74 123.34 332.15 122.44
  Q 332.35 121.99 332.82 122.11
  Q 333.74 122.34 334.16 121.44
  Q 334.37 121.02 334.83 121.12
  Q 335.73 121.33 336.14 120.46
  Q 336.35 120.03 336.81 120.12
  Q 337.71 120.31 338.25 119.43
  Q 338.46 119.08 338.87 119.13
  Q 339.33 119.20 339.71 118.83
  Q 340.26 118.31 339.59 117.95
  L 338.69 117.47
  A 0.58 0.54 86.7 0 1 338.48 117.27
  L 336.84 114.69
  Z" fill="#3e3ed7"></path>
<path d="M 209.71 301.07
  Q 198.03 295.44 199.36 282.13
  Q 201.01 277.90 202.95 273.97
  C 204.34 271.12 208.96 266.07 212.27 265.68
  Q 217.42 265.08 224.12 266.76
  Q 230.32 268.31 241.95 268.14
  Q 242.22 268.14 242.47 268.27
  Q 242.65 268.38 242.75 268.38
  Q 248.87 268.38 254.99 268.38
  C 257.92 268.38 261.53 267.65 264.93 267.89
  Q 265.43 267.92 265.90 267.77
  Q 266.74 267.49 268.50 267.40
  Q 274.13 267.08 282.97 264.76
  Q 287.24 263.64 291.57 262.74
  C 294.10 262.22 296.53 261.17 299.05 260.40
  Q 301.88 259.55 304.44 258.17
  C 308.32 256.10 312.71 254.60 316.20 252.48
  Q 330.78 243.61 339.73 233.24
  Q 348.14 223.51 353.43 211.77
  Q 354.74 208.86 356.05 205.97
  Q 356.80 204.30 357.20 202.53
  C 357.94 199.25 359.24 196.85 358.90 193.27
  C 364.45 169.17 361.90 143.32 345.86 123.72
  Q 346.84 122.86 348.06 124.25
  Q 349.03 125.36 350.10 126.43
  C 351.86 128.20 352.94 130.63 354.49 132.62
  Q 354.76 132.96 354.84 133.39
  Q 355.14 134.97 356.45 135.90
  Q 356.77 136.12 356.84 136.51
  Q 356.96 137.10 357.25 137.75
  Q 366.26 157.46 364.86 176.99
  Q 364.66 179.86 363.59 188.71
  C 363.32 191.02 362.45 193.66 362.04 196.22
  C 361.09 202.23 358.93 208.54 356.48 213.49
  Q 355.86 214.73 355.59 215.71
  C 354.84 218.43 352.93 220.86 351.42 223.23
  Q 351.19 223.60 351.12 224.14
  Q 351.07 224.57 350.81 224.91
  C 349.40 226.79 348.40 228.57 346.80 230.51
  Q 346.08 231.38 345.16 232.78
  Q 342.72 236.47 334.23 244.22
  Q 334.19 244.25 333.56 245.02
  Q 333.25 245.40 332.78 245.53
  Q 332.41 245.63 332.11 245.88
  Q 322.57 253.68 311.53 259.12
  C 309.52 260.12 305.59 260.41 304.30 261.65
  Q 303.97 261.97 303.56 262.10
  C 301.50 262.76 299.62 263.89 297.74 264.51
  C 278.25 270.96 258.07 272.78 237.00 271.38
  Q 227.49 270.75 220.40 269.37
  C 216.92 268.70 213.35 268.34 210.76 270.05
  Q 208.36 271.63 206.09 275.71
  Q 200.66 285.49 205.16 295.66
  A 2.13 2.12 -82.3 0 0 205.73 296.41
  Q 206.53 297.07 206.65 298.03
  Q 206.68 298.27 206.88 298.14
  Q 206.99 298.06 207.09 297.98
  Q 207.13 297.95 207.16 297.98
  Q 208.02 298.85 208.98 299.55
  Q 209.35 299.83 209.48 300.26
  L 209.71 301.07
  Z" fill-opacity="0.306" fill="#1b1b1c"></path>
<path d="M 130.08 186.45
  Q 132.68 202.15 140.87 215.33
  C 149.58 229.19 162.35 238.71 176.49 246.44
  Q 177.04 246.74 176.55 247.12
  L 173.07 249.79
  Q 171.15 245.61 167.21 243.90
  A 0.50 0.49 84.0 0 1 166.96 243.69
  Q 166.72 243.28 166.26 242.97
  C 162.43 240.41 157.98 237.24 154.33 233.78
  Q 152.70 232.24 150.99 230.80
  Q 149.54 229.57 148.18 227.79
  C 147.20 226.51 145.14 224.80 144.74 223.35
  A 2.31 2.25 -74.2 0 0 144.27 222.48
  Q 142.00 219.87 140.54 216.74
  Q 140.41 216.44 140.11 216.32
  Q 139.90 216.23 139.78 215.99
  C 138.77 213.96 137.34 212.38 136.61 210.18
  C 136.24 209.07 135.53 208.25 135.15 207.19
  Q 131.45 196.79 131.09 193.26
  Q 130.89 191.23 130.34 190.10
  Q 130.13 189.68 130.12 189.22
  L 130.08 186.45
  Z" fill-opacity="0.514" fill="#2a2932"></path>
<path d="M 358.90 193.27
  C 359.24 196.85 357.94 199.25 357.20 202.53
  Q 356.80 204.30 356.05 205.97
  Q 354.74 208.86 353.43 211.77
  Q 348.14 223.51 339.73 233.24
  Q 330.78 243.61 316.20 252.48
  C 312.71 254.60 308.32 256.10 304.44 258.17
  Q 301.88 259.55 299.05 260.40
  C 296.53 261.17 294.10 262.22 291.57 262.74
  Q 287.24 263.64 282.97 264.76
  Q 274.13 267.08 268.50 267.40
  Q 266.74 267.49 265.90 267.77
  Q 265.43 267.92 264.93 267.89
  C 261.53 267.65 257.92 268.38 254.99 268.38
  Q 248.87 268.38 242.75 268.38
  Q 242.65 268.38 242.47 268.27
  Q 242.22 268.14 241.95 268.14
  Q 230.32 268.31 224.12 266.76
  Q 217.42 265.08 212.27 265.68
  C 208.96 266.07 204.34 271.12 202.95 273.97
  Q 201.01 277.90 199.36 282.13
  Q 200.59 269.08 211.00 261.51
  A 1.75 1.73 -55.4 0 1 212.44 261.24
  Q 224.91 264.42 237.76 265.20
  C 290.45 268.37 344.51 249.70 358.90 193.27
  Z" fill-opacity="0.514" fill="#2a2932"></path>
<path d="M 146.06 304.04
  Q 149.53 327.06 169.88 339.61
  C 184.80 348.43 202.94 352.00 220.00 352.01
  Q 246.88 352.03 273.74 352.03
  C 293.93 352.03 323.10 359.36 325.81 383.22
  Q 322.38 373.24 314.29 366.56
  Q 312.98 365.48 310.51 364.03
  C 305.05 360.84 300.43 358.66 294.25 357.62
  C 291.81 357.21 289.82 356.26 287.53 356.05
  C 281.99 355.53 275.79 354.44 268.25 354.39
  Q 240.19 354.19 212.13 354.34
  C 207.71 354.37 202.89 353.72 198.46 352.72
  C 196.11 352.19 193.82 352.09 191.58 351.36
  C 186.75 349.79 181.85 348.60 177.17 346.59
  Q 177.12 346.56 176.28 346.34
  Q 175.68 346.19 175.37 345.53
  A 1.29 1.27 0.9 0 0 174.77 344.92
  Q 162.20 338.92 154.14 327.57
  C 153.56 326.75 151.88 325.36 151.38 323.85
  C 150.03 319.73 147.21 316.59 146.87 312.00
  Q 146.72 310.01 146.32 308.08
  Q 145.91 306.12 146.06 304.04
  Z" fill-opacity="0.514" fill="#2a2932"></path>
<path d="M 370.69 340.31
  Q 392.48 368.05 384.00 403.54
  L 383.46 406.38
  Q 383.12 406.59 382.98 407.53
  C 367.69 455.77 312.12 468.70 268.50 471.66
  Q 236.16 473.85 205.24 470.42
  Q 185.38 468.21 166.65 461.29
  C 146.89 453.99 131.97 440.95 124.77 420.80
  L 123.36 416.51
  L 121.40 407.99
  Q 119.12 396.28 119.96 385.35
  L 172.62 385.35
  Q 173.19 385.35 173.24 385.91
  L 173.43 387.84
  C 173.32 399.16 176.38 409.99 185.59 417.09
  C 194.74 423.60 206.75 426.28 217.51 427.37
  C 241.27 429.79 267.37 429.98 290.74 424.49
  Q 296.75 423.08 301.32 421.09
  C 318.60 415.19 327.89 401.70 325.81 383.22
  C 323.10 359.36 293.93 352.03 273.74 352.03
  Q 246.88 352.03 220.00 352.01
  C 202.94 352.00 184.80 348.43 169.88 339.61
  Q 171.09 339.52 172.20 340.21
  Q 172.26 340.24 172.29 340.19
  Q 172.36 340.10 172.38 339.95
  Q 172.39 339.85 172.48 339.90
  Q 174.24 340.96 176.01 342.02
  Q 177.27 342.78 178.86 342.87
  Q 179.36 342.90 179.49 342.41
  Q 179.60 341.98 180.07 342.14
  A 0.66 0.65 31.5 0 0 180.76 341.98
  L 181.36 341.39
  Q 181.66 341.08 182.09 341.13
  Q 182.86 341.21 183.12 340.46
  Q 183.29 339.98 183.78 340.11
  Q 184.73 340.36 185.15 339.45
  Q 185.35 339.01 185.82 339.12
  Q 186.73 339.34 187.15 338.45
  Q 187.35 338.01 187.82 338.12
  Q 188.73 338.34 189.15 337.45
  Q 189.35 337.01 189.82 337.12
  Q 190.73 337.34 191.15 336.45
  Q 191.35 336.01 191.82 336.12
  Q 192.73 336.34 193.15 335.45
  Q 193.35 335.01 193.82 335.12
  Q 194.73 335.34 195.15 334.45
  Q 195.35 334.01 195.82 334.12
  Q 196.73 334.34 197.15 333.45
  Q 197.35 333.01 197.82 333.12
  Q 198.73 333.34 199.14 332.46
  Q 199.35 332.03 199.81 332.12
  Q 200.68 332.30 201.21 331.50
  Q 201.50 331.06 202.02 331.13
  Q 202.82 331.24 203.10 330.50
  A 0.71 0.71 0.0 0 1 203.97 330.08
  Q 205.32 330.49 206.15 329.52
  Q 206.51 329.09 207.07 329.14
  Q 207.86 329.21 208.13 328.46
  Q 208.30 327.99 208.79 328.11
  Q 209.73 328.35 210.15 327.45
  Q 210.35 327.01 210.82 327.12
  Q 211.73 327.34 212.15 326.45
  Q 212.35 326.01 212.82 326.12
  Q 213.73 326.34 214.15 325.45
  Q 214.35 325.01 214.82 325.12
  Q 215.73 325.34 216.15 324.45
  Q 216.35 324.01 216.82 324.12
  Q 217.73 324.34 218.15 323.44
  Q 218.35 323.01 218.82 323.12
  Q 219.73 323.34 220.15 322.45
  Q 220.35 322.01 220.82 322.12
  Q 221.73 322.34 222.15 321.44
  Q 222.35 321.01 222.82 321.12
  Q 223.72 321.34 224.15 320.45
  Q 224.35 320.04 224.80 320.13
  Q 225.75 320.33 226.17 319.43
  Q 226.37 319.00 226.83 319.11
  Q 227.74 319.33 228.16 318.44
  Q 228.37 318.02 228.83 318.12
  Q 229.73 318.33 230.15 317.45
  Q 230.35 317.01 230.82 317.12
  Q 231.74 317.34 232.17 316.43
  Q 232.37 316.00 232.83 316.11
  Q 233.74 316.33 234.16 315.44
  Q 234.37 315.02 234.83 315.12
  Q 235.73 315.33 236.15 314.45
  Q 236.35 314.01 236.82 314.12
  Q 237.70 314.33 238.12 313.51
  Q 238.32 313.12 238.75 313.12
  L 240.25 313.12
  Q 240.94 313.12 241.12 312.45
  Q 241.24 312.01 241.82 312.13
  Q 242.34 312.25 242.78 311.94
  L 245.54 310.02
  Q 245.83 309.82 246.16 309.95
  Q 246.72 310.16 246.90 309.35
  Q 247.00 308.87 247.49 308.87
  L 248.49 308.87
  A 0.42 0.42 0.0 0 0 248.87 308.26
  Q 248.80 308.11 248.72 307.96
  A 0.61 0.61 0.0 0 0 248.11 307.65
  Q 247.75 307.69 247.44 307.48
  Q 246.66 306.97 246.68 306.27
  Q 246.69 305.89 246.32 305.88
  L 230.48 305.34
  Q 257.82 305.09 284.99 305.16
  C 316.83 305.25 349.39 315.68 370.69 340.31
  Z" fill="#2626c9"></path>
<path d="M 119.96 385.35
  Q 119.12 396.28 121.40 407.99
  L 122.03 413.88
  Q 122.08 414.35 122.36 414.74
  Q 123.15 415.84 122.89 417.24
  Q 122.79 417.76 123.08 418.12
  Q 123.45 418.57 123.32 418.00
  Q 123.15 417.22 123.36 416.51
  L 124.77 420.80
  Q 123.64 420.36 124.36 422.64
  C 124.73 423.84 125.62 424.97 125.96 426.37
  C 126.60 429.05 128.53 431.80 129.85 434.22
  Q 131.34 436.97 133.48 439.64
  C 136.13 442.96 138.68 447.25 142.17 449.70
  Q 142.58 449.98 142.83 450.42
  C 143.77 452.06 145.53 452.65 146.65 453.49
  Q 156.05 460.56 167.33 464.06
  Q 167.36 464.06 167.38 464.09
  L 167.61 464.49
  A 0.52 0.51 -6.1 0 0 167.90 464.72
  C 176.21 467.64 182.89 469.16 190.58 470.90
  Q 195.36 471.98 200.52 472.56
  Q 204.10 472.97 207.67 473.40
  C 217.28 474.54 227.32 474.36 236.99 474.63
  Q 265.39 475.43 293.51 471.49
  C 296.35 471.09 298.96 470.32 301.77 469.84
  C 307.04 468.94 312.60 467.54 317.69 465.94
  Q 323.17 464.23 328.55 462.20
  C 330.03 461.65 331.80 461.46 333.51 460.89
  Q 334.15 460.69 334.49 460.13
  Q 334.75 459.71 335.20 459.54
  Q 340.62 457.44 345.50 454.20
  A 8.99 8.92 16.2 0 1 346.69 453.55
  Q 348.39 452.80 349.73 451.55
  C 350.58 450.76 351.41 450.60 352.32 449.92
  A 0.12 0.12 0.0 0 1 352.50 450.06
  L 352.40 450.36
  Q 352.30 450.68 352.57 450.49
  Q 356.52 447.76 360.25 444.76
  Q 360.39 444.64 360.55 444.61
  Q 360.78 444.57 360.96 444.41
  Q 367.34 438.77 372.38 431.95
  Q 373.34 430.66 374.76 428.27
  C 375.75 426.60 377.38 424.69 377.72 422.78
  Q 377.82 422.26 378.31 422.09
  Q 378.85 421.89 378.88 421.32
  Q 378.90 420.95 379.11 420.64
  Q 380.52 418.49 381.36 416.06
  A 1.82 1.81 46.7 0 0 381.39 414.99
  Q 381.16 414.17 381.71 413.65
  Q 382.02 413.35 382.07 412.93
  Q 382.19 411.73 382.99 410.25
  Q 383.72 408.91 382.98 407.53
  Q 383.12 406.59 383.46 406.38
  Q 384.98 404.71 384.00 403.54
  Q 392.48 368.05 370.69 340.31
  Q 371.64 339.71 372.14 340.81
  Q 372.34 341.27 372.79 341.51
  Q 374.33 342.36 375.09 343.98
  Q 375.11 344.02 375.09 344.06
  Q 375.03 344.21 374.92 344.32
  Q 374.87 344.36 374.92 344.39
  Q 376.14 345.23 376.82 346.56
  Q 377.02 346.94 377.36 347.21
  C 378.77 348.35 378.87 349.96 379.61 351.20
  Q 380.89 353.32 382.13 355.49
  Q 383.41 357.72 384.23 359.97
  Q 386.88 367.29 388.40 374.93
  C 388.56 375.77 388.47 377.45 388.82 378.55
  Q 389.10 379.46 389.14 379.99
  Q 390.23 393.69 387.21 407.04
  C 386.84 408.67 385.78 411.24 385.35 413.43
  C 384.86 415.88 383.70 418.20 382.82 420.52
  Q 382.55 421.24 381.93 421.70
  Q 381.55 421.99 381.33 422.41
  C 377.69 429.41 375.56 433.09 371.04 438.78
  A 0.76 0.71 -28.1 0 0 370.89 439.22
  Q 370.89 439.36 370.88 439.50
  Q 370.88 439.59 370.82 439.65
  Q 361.39 449.86 349.23 456.51
  Q 349.20 456.53 346.87 457.49
  Q 345.80 457.93 344.37 458.86
  C 338.89 462.37 333.07 464.56 326.98 466.71
  Q 308.90 473.06 298.36 474.41
  Q 294.37 474.92 292.72 475.14
  Q 282.13 476.54 271.49 477.53
  Q 253.59 479.18 237.50 478.53
  Q 229.48 478.20 224.11 478.12
  C 218.99 478.05 213.91 477.25 208.75 476.93
  C 203.44 476.61 198.85 475.80 193.85 475.02
  C 191.74 474.69 189.08 473.69 186.48 473.58
  Q 186.01 473.57 185.61 473.32
  Q 184.98 472.94 184.50 472.86
  Q 171.89 470.64 165.64 467.32
  Q 163.47 466.16 161.88 465.52
  Q 158.62 464.20 158.03 463.90
  C 154.08 461.86 150.14 460.27 146.59 457.36
  C 144.80 455.89 142.84 454.92 141.21 453.34
  C 139.29 451.46 137.17 450.01 135.67 447.75
  C 135.06 446.83 134.00 446.26 133.38 445.51
  Q 126.57 437.25 122.58 427.41
  Q 121.59 424.96 120.59 421.12
  C 119.40 416.49 117.99 412.07 117.42 407.39
  C 116.91 403.11 114.90 392.48 118.14 388.77
  C 118.94 387.85 119.04 387.17 118.92 386.03
  Q 118.85 385.44 119.39 385.19
  Q 121.18 384.34 119.96 385.35
  Z" fill-opacity="0.306" fill="#1b1b1c"></path>
<path d="M 173.43 387.84
  Q 177.12 390.72 177.44 396.23
  Q 178.10 407.53 186.32 416.21
  A 0.40 0.23 66.5 0 1 186.25 416.84
  Q 186.06 416.76 185.59 417.09
  C 176.38 409.99 173.32 399.16 173.43 387.84
  Z" fill-opacity="0.306" fill="#1b1b1c"></path>
<path d="M 384.00 403.54
  Q 384.98 404.71 383.46 406.38
  L 384.00 403.54
  Z" fill-opacity="0.514" fill="#2a2932"></path>
<path d="M 382.98 407.53
  Q 383.72 408.91 382.99 410.25
  Q 382.19 411.73 382.07 412.93
  Q 382.02 413.35 381.71 413.65
  Q 381.16 414.17 381.39 414.99
  A 1.82 1.81 46.7 0 1 381.36 416.06
  Q 380.52 418.49 379.11 420.64
  Q 378.90 420.95 378.88 421.32
  Q 378.85 421.89 378.31 422.09
  Q 377.82 422.26 377.72 422.78
  C 377.38 424.69 375.75 426.60 374.76 428.27
  Q 373.34 430.66 372.38 431.95
  Q 367.34 438.77 360.96 444.41
  Q 360.78 444.57 360.55 444.61
  Q 360.39 444.64 360.25 444.76
  Q 356.52 447.76 352.57 450.49
  Q 352.30 450.68 352.40 450.36
  L 352.50 450.06
  A 0.12 0.12 0.0 0 0 352.32 449.92
  C 351.41 450.60 350.58 450.76 349.73 451.55
  Q 348.39 452.80 346.69 453.55
  A 8.99 8.92 16.2 0 0 345.50 454.20
  Q 340.62 457.44 335.20 459.54
  Q 334.75 459.71 334.49 460.13
  Q 334.15 460.69 333.51 460.89
  C 331.80 461.46 330.03 461.65 328.55 462.20
  Q 323.17 464.23 317.69 465.94
  C 312.60 467.54 307.04 468.94 301.77 469.84
  C 298.96 470.32 296.35 471.09 293.51 471.49
  Q 265.39 475.43 236.99 474.63
  C 227.32 474.36 217.28 474.54 207.67 473.40
  Q 204.10 472.97 200.52 472.56
  Q 195.36 471.98 190.58 470.90
  C 182.89 469.16 176.21 467.64 167.90 464.72
  A 0.52 0.51 -6.1 0 1 167.61 464.49
  L 167.38 464.09
  Q 167.36 464.06 167.33 464.06
  Q 156.05 460.56 146.65 453.49
  C 145.53 452.65 143.77 452.06 142.83 450.42
  Q 142.58 449.98 142.17 449.70
  C 138.68 447.25 136.13 442.96 133.48 439.64
  Q 131.34 436.97 129.85 434.22
  C 128.53 431.80 126.60 429.05 125.96 426.37
  C 125.62 424.97 124.73 423.84 124.36 422.64
  Q 123.64 420.36 124.77 420.80
  C 131.97 440.95 146.89 453.99 166.65 461.29
  Q 185.38 468.21 205.24 470.42
  Q 236.16 473.85 268.50 471.66
  C 312.12 468.70 367.69 455.77 382.98 407.53
  Z" fill-opacity="0.514" fill="#2a2932"></path>
<path d="M 121.40 407.99
  L 123.36 416.51
  Q 123.15 417.22 123.32 418.00
  Q 123.45 418.57 123.08 418.12
  Q 122.79 417.76 122.89 417.24
  Q 123.15 415.84 122.36 414.74
  Q 122.08 414.35 122.03 413.88
  L 121.40 407.99
  Z" fill-opacity="0.514" fill="#2a2932"></path>
</svg>
