<svg viewBox="0.00 0.00 48.00 48.00" version="1.1" xmlns="http://www.w3.org/2000/svg">
<path d="M 45.52 24.08
  A 21.52 21.52 0.0 0 1 24.00 45.60
  A 21.52 21.52 0.0 0 1 2.48 24.08
  A 21.52 21.52 0.0 0 1 24.00 2.56
  A 21.52 21.52 0.0 0 1 45.52 24.08
  Z
  M 24.30 4.87
  A 1.05 1.05 0.0 0 0 23.86 4.86
  L 15.72 6.55
  A 1.05 1.05 0.0 0 0 15.21 8.34
  L 23.22 15.86
  A 1.05 1.05 0.0 0 0 24.68 15.84
  L 32.28 8.22
  A 1.05 1.05 0.0 0 0 31.75 6.45
  L 24.30 4.87
  Z
  M 23.55 19.83
  L 12.67 9.59
  A 0.66 0.65 46.0 0 0 11.78 9.57
  C 5.18 15.34 2.88 25.14 7.19 32.99
  C 13.73 44.91 30.01 46.59 38.82 36.04
  C 45.72 27.77 43.65 15.80 35.75 9.18
  A 0.55 0.54 -47.9 0 0 35.02 9.22
  L 24.44 19.82
  Q 24.00 20.26 23.55 19.83
  Z" fill="#30a0fb"></path>
</svg>
