<svg viewBox="0.00 0.00 32.00 32.00" version="1.1" xmlns="http://www.w3.org/2000/svg">
<g stroke-linecap="butt" fill="none" stroke-width="2.00">
<path d="M 18.45 10.58
  Q 18.40 10.64 18.40 11.01" stroke="#08a883"></path>
<path d="M 18.40 11.01
  Q 17.31 11.74 17.31 12.24" stroke="#16887a"></path>
<path d="M 9.76 25.69
  L 10.70 27.49" stroke="#16887a"></path>
<path d="M 27.07 27.48
  Q 26.69 26.48 27.17 25.81" stroke="#1d686e"></path>
<path d="M 19.55 12.24
  Q 19.20 11.52 18.40 11.01" stroke="#1d686e"></path>
</g>
<path d="M 18.45 10.58
  Q 18.40 10.64 18.40 11.01
  Q 17.31 11.74 17.31 12.24
  L 13.97 6.36
  A 0.34 0.33 -45.5 0 0 13.39 6.37
  L 2.75 25.27
  Q 2.50 25.72 3.02 25.72
  L 9.76 25.69
  L 10.70 27.49
  L 2.11 27.50
  A 1.48 1.48 0.0 0 1 1.02 27.02
  Q 0.17 26.10 0.86 24.88
  Q 6.61 14.65 12.26 4.69
  A 1.66 1.65 -44.9 0 1 15.14 4.69
  L 18.45 10.58
  Z" fill="#00c78f"></path>
<path d="M 32.00 25.61
  L 32.00 26.62
  Q 30.50 28.02 27.07 27.48
  Q 26.69 26.48 27.17 25.81
  L 29.35 25.71
  Q 30.04 25.68 29.70 25.07
  L 21.48 10.42
  Q 21.10 9.75 20.70 10.40
  L 19.55 12.24
  Q 19.20 11.52 18.40 11.01
  Q 18.40 10.64 18.45 10.58
  L 19.79 8.33
  A 1.50 1.50 0.0 0 1 22.39 8.36
  L 32.00 25.61
  Z" fill="#0f8877"></path>
<path d="M 18.40 11.01
  Q 19.20 11.52 19.55 12.24
  L 27.17 25.81
  Q 26.69 26.48 27.07 27.48
  L 10.70 27.49
  L 9.76 25.69
  L 17.31 12.24
  Q 17.31 11.74 18.40 11.01
  Z
  M 12.16 25.22
  A 0.34 0.34 0.0 0 0 12.45 25.73
  L 24.31 25.73
  A 0.34 0.34 0.0 0 0 24.60 25.22
  L 18.68 14.84
  A 0.34 0.34 0.0 0 0 18.08 14.84
  L 12.16 25.22
  Z" fill="#2b4865"></path>
</svg>
