<svg viewBox="0.00 0.00 128.00 128.00" version="1.1" xmlns="http://www.w3.org/2000/svg">
<g stroke-linecap="butt" fill="none" stroke-width="2.00">
<path d="M 45.17 36.92
  Q 45.58 37.06 46.47 37.74
  C 51.66 41.71 59.67 39.36 65.02 36.77
  C 77.26 30.81 91.12 24.56 104.64 31.50
  Q 110.58 34.55 114.57 39.89
  Q 115.79 41.51 115.16 39.59
  Q 114.87 38.68 114.00 37.04
  Q 102.72 15.78 81.00 8.99
  C 58.66 2.01 34.03 9.84 20.09 28.67
  Q 7.75 45.35 9.31 67.50
  Q 9.40 68.74 9.62 69.09
  Q 10.33 70.23 10.53 69.02
  C 12.18 58.94 23.79 51.87 32.87 50.55
  C 55.69 47.25 71.77 70.51 94.13 66.64
  Q 101.60 65.34 105.50 61.03
  C 109.98 56.08 110.35 48.62 106.36 43.15
  C 102.83 38.31 97.00 35.66 91.18 34.70
  C 81.76 33.13 72.52 37.07 64.09 39.97
  C 56.19 42.68 50.53 43.77 44.61 37.84
  Q 43.01 36.23 45.17 36.92" stroke="#c3c7ff"></path>
<path d="M 118.99 64.47
  C 112.63 78.36 96.02 83.10 82.04 79.65
  C 70.55 76.81 60.42 70.13 50.13 64.44
  Q 43.86 60.98 38.01 59.56
  C 20.61 55.32 5.50 72.03 16.99 88.20
  Q 18.48 90.30 19.50 92.58
  Q 21.64 97.39 25.72 101.25
  Q 44.51 119.03 70.36 116.52
  C 98.02 113.83 117.48 91.85 119.87 64.69
  A 0.44 0.44 0.0 0 0 119.46 64.21
  Q 119.12 64.18 118.99 64.47" stroke="#c3c7ff"></path>
</g>
<path d="M 0.00 0.00
  L 128.00 0.00
  L 128.00 128.00
  L 0.00 128.00
  L 0.00 0.00
  Z
  M 45.17 36.92
  Q 45.58 37.06 46.47 37.74
  C 51.66 41.71 59.67 39.36 65.02 36.77
  C 77.26 30.81 91.12 24.56 104.64 31.50
  Q 110.58 34.55 114.57 39.89
  Q 115.79 41.51 115.16 39.59
  Q 114.87 38.68 114.00 37.04
  Q 102.72 15.78 81.00 8.99
  C 58.66 2.01 34.03 9.84 20.09 28.67
  Q 7.75 45.35 9.31 67.50
  Q 9.40 68.74 9.62 69.09
  Q 10.33 70.23 10.53 69.02
  C 12.18 58.94 23.79 51.87 32.87 50.55
  C 55.69 47.25 71.77 70.51 94.13 66.64
  Q 101.60 65.34 105.50 61.03
  C 109.98 56.08 110.35 48.62 106.36 43.15
  C 102.83 38.31 97.00 35.66 91.18 34.70
  C 81.76 33.13 72.52 37.07 64.09 39.97
  C 56.19 42.68 50.53 43.77 44.61 37.84
  Q 43.01 36.23 45.17 36.92
  Z
  M 118.99 64.47
  C 112.63 78.36 96.02 83.10 82.04 79.65
  C 70.55 76.81 60.42 70.13 50.13 64.44
  Q 43.86 60.98 38.01 59.56
  C 20.61 55.32 5.50 72.03 16.99 88.20
  Q 18.48 90.30 19.50 92.58
  Q 21.64 97.39 25.72 101.25
  Q 44.51 119.03 70.36 116.52
  C 98.02 113.83 117.48 91.85 119.87 64.69
  A 0.44 0.44 0.0 0 0 119.46 64.21
  Q 119.12 64.18 118.99 64.47
  Z" fill="#ffffff"></path>
<path d="M 45.17 36.92
  Q 43.01 36.23 44.61 37.84
  C 50.53 43.77 56.19 42.68 64.09 39.97
  C 72.52 37.07 81.76 33.13 91.18 34.70
  C 97.00 35.66 102.83 38.31 106.36 43.15
  C 110.35 48.62 109.98 56.08 105.50 61.03
  Q 101.60 65.34 94.13 66.64
  C 71.77 70.51 55.69 47.25 32.87 50.55
  C 23.79 51.87 12.18 58.94 10.53 69.02
  Q 10.33 70.23 9.62 69.09
  Q 9.40 68.74 9.31 67.50
  Q 7.75 45.35 20.09 28.67
  C 34.03 9.84 58.66 2.01 81.00 8.99
  Q 102.72 15.78 114.00 37.04
  Q 114.87 38.68 115.16 39.59
  Q 115.79 41.51 114.57 39.89
  Q 110.58 34.55 104.64 31.50
  C 91.12 24.56 77.26 30.81 65.02 36.77
  C 59.67 39.36 51.66 41.71 46.47 37.74
  Q 45.58 37.06 45.17 36.92
  Z" fill="#868fff"></path>
<path d="M 82.04 79.65
  C 96.02 83.10 112.63 78.36 118.99 64.47
  Q 119.12 64.18 119.46 64.21
  A 0.44 0.44 0.0 0 1 119.87 64.69
  C 117.48 91.85 98.02 113.83 70.36 116.52
  Q 44.51 119.03 25.72 101.25
  Q 21.64 97.39 19.50 92.58
  Q 18.48 90.30 16.99 88.20
  C 5.50 72.03 20.61 55.32 38.01 59.56
  Q 43.86 60.98 50.13 64.44
  C 60.42 70.13 70.55 76.81 82.04 79.65
  Z" fill="#868fff"></path>
</svg>
