<svg xmlns="http://www.w3.org/2000/svg" fill="none" viewBox="0 0 210 40" height="40" width="210">
<path fill="#ED6D50" d="M0.203977 14.5675C0.347704 12.6082 0.419568 11.6285 1.04646 10.4846C1.51281 9.63374 2.58666 8.56283 3.43885 8.09882C4.58441 7.47507 5.57311 7.40527 7.5505 7.26567C9.69428 7.11433 12.3132 7 15.3333 7C18.3535 7 20.9724 7.11433 23.1162 7.26567C25.0936 7.40527 26.0823 7.47507 27.2278 8.09882C28.08 8.56283 29.1539 9.63374 29.6202 10.4846C30.2471 11.6285 30.319 12.6082 30.4627 14.5675C30.492 14.9665 30.5191 15.3786 30.5435 15.8022L35.2542 12.4374C36.7673 11.3567 37.5238 10.8163 38.3092 11.1688C39.0947 11.5213 39.1879 12.3898 39.3742 14.1268C39.5385 15.6583 39.6664 17.6161 39.6664 20.0001C39.6664 22.3842 39.5385 24.342 39.3742 25.8735C39.1879 27.6105 39.0947 28.479 38.3092 28.8315C37.5238 29.184 36.7673 28.6436 35.2542 27.5628L30.5435 24.198C30.5191 24.6216 30.492 25.0335 30.4627 25.4325C30.319 27.3918 30.2471 28.3715 29.6202 29.5154C29.1539 30.3663 28.08 31.4372 27.2278 31.9012C26.0823 32.5249 25.0936 32.5947 23.1162 32.7343C20.9724 32.8857 18.3535 33 15.3333 33C12.3132 33 9.69428 32.8857 7.55051 32.7343C5.57311 32.5947 4.58441 32.5249 3.43885 31.9012C2.58666 31.4372 1.51281 30.3663 1.04646 29.5154C0.419568 28.3715 0.347704 27.3918 0.203976 25.4325C0.0845669 23.8047 0 21.96 0 20C0 18.04 0.084567 16.1953 0.203977 14.5675ZM19.5281 17.79L19.5281 17.79L19.5281 17.79C20.6574 18.4004 21.2221 18.7057 21.4079 19.1107C21.5698 19.4637 21.5698 19.8697 21.4079 20.2226C21.2221 20.6277 20.6574 20.9329 19.5281 21.5434L13.8144 24.6318L13.8144 24.6318C12.777 25.1926 12.2584 25.473 11.8346 25.42C11.4648 25.3738 11.1313 25.1749 10.9148 24.8716C10.6667 24.524 10.6667 23.9344 10.6667 22.7551V16.5782C10.6667 15.399 10.6667 14.8093 10.9148 14.4618C11.1313 14.1584 11.4648 13.9596 11.8346 13.9133C12.2584 13.8604 12.7771 14.1407 13.8144 14.7015L19.5281 17.79Z" clip-rule="evenodd" fill-rule="evenodd"></path>
<path fill="#49494A" d="M117.639 29.3941C119.161 30.2627 120.915 30.6971 122.903 30.6971C124.891 30.6971 126.645 30.2627 128.167 29.3941C129.688 28.5052 130.864 27.2728 131.696 25.6971C132.528 24.1011 132.943 22.2627 132.943 20.1819C132.943 18.1415 132.528 16.3436 131.696 14.788C130.864 13.2324 129.688 12.0304 128.167 11.1819C126.645 10.3132 124.891 9.87891 122.903 9.87891C120.895 9.87891 119.13 10.3132 117.609 11.1819C116.088 12.0506 114.911 13.2728 114.079 14.8486C113.248 16.4244 112.832 18.2425 112.832 20.3031C112.832 22.3436 113.248 24.1516 114.079 25.7274C114.931 27.3032 116.118 28.5254 117.639 29.3941ZM126.889 25.0607C125.895 26.2526 124.566 26.8486 122.903 26.8486C121.808 26.8486 120.844 26.5759 120.012 26.0304C119.181 25.485 118.532 24.7173 118.065 23.7274C117.619 22.7375 117.396 21.5961 117.396 20.3031C117.396 19.0102 117.619 17.8688 118.065 16.8789C118.532 15.8688 119.181 15.1011 120.012 14.5759C120.864 14.0304 121.828 13.7577 122.903 13.7577C123.978 13.7577 124.931 14.0304 125.763 14.5759C126.615 15.1011 127.264 15.8688 127.71 16.8789C128.177 17.8688 128.41 19.0102 128.41 20.3031C128.41 22.2829 127.903 23.8688 126.889 25.0607Z" clip-rule="evenodd" fill-rule="evenodd"></path>
<path fill="#49494A" d="M79.1364 30.3032C79.8464 30.3234 80.9214 30.3335 82.3615 30.3335C83.7814 30.3335 84.8463 30.3234 85.5562 30.3032C87.7672 30.2829 89.7043 29.8284 91.3675 28.9395C93.0511 28.0506 94.3492 26.8082 95.262 25.2122C96.195 23.6163 96.6616 21.7678 96.6616 19.6668C96.6616 17.7476 96.2559 16.0708 95.4445 14.6365C94.6535 13.2021 93.5176 12.1011 92.0369 11.3335C90.5765 10.5456 88.8523 10.1415 86.8645 10.1213C86.0126 10.1011 84.7246 10.091 83.0005 10.091C81.2966 10.091 80.0086 10.1011 79.1364 10.1213V30.3032ZM90.3635 24.6971C89.187 25.889 87.5745 26.485 85.5258 26.485H83.5481V13.9395H86.2864C88.1728 13.9395 89.613 14.4446 90.6069 15.4547C91.6211 16.4648 92.1282 17.9092 92.1282 19.788C92.1282 21.8688 91.5399 23.5052 90.3635 24.6971Z" clip-rule="evenodd" fill-rule="evenodd"></path>
<path fill="#49494A" d="M50.1016 10.1213H54.9697L59.7769 25.5153L64.5537 10.1213H69.0871L62.2718 30.3032H56.9473L50.1016 10.1213Z"></path>
<path fill="#49494A" d="M71.4758 10.1213H75.8876V30.3032H71.4758V10.1213Z"></path>
<path fill="#49494A" d="M99.0825 10.1213H111.405V13.9395H103.433V17.9698H110.036V21.6668H103.433V26.485H111.405V30.3032H99.0825V10.1213Z"></path>
<path fill="#49494A" d="M195.47 28.9579C195.394 29.0798 195.303 29.2018 195.196 29.3237C195.105 29.4304 194.998 29.5372 194.877 29.6439C194.664 29.8725 194.413 30.0783 194.124 30.2613C193.972 30.3375 193.813 30.4137 193.645 30.4899C193.493 30.5661 193.334 30.6271 193.166 30.6728C193.075 30.7033 192.984 30.7186 192.893 30.7186L192.619 30.7643H192.3C192.224 30.7643 192.11 30.7491 191.958 30.7186C191.836 30.6881 191.714 30.65 191.593 30.6042C191.486 30.5585 191.38 30.5052 191.274 30.4442C191.03 30.2917 190.855 30.1469 190.749 30.0097C190.627 29.8725 190.513 29.7201 190.407 29.5524C190.346 29.4762 190.293 29.4 190.247 29.3237C190.217 29.2475 190.179 29.1713 190.133 29.0951C189.981 28.7597 189.867 28.4548 189.791 28.1804C189.7 27.9213 189.632 27.6392 189.586 27.3344C189.51 27.0447 189.457 26.7627 189.426 26.4883C189.396 26.1987 189.366 25.9166 189.335 25.6422L189.29 25.0934C189.29 24.9105 189.282 24.7352 189.267 24.5675C189.236 24.6285 189.191 24.7352 189.13 24.8876C189.054 25.0096 188.985 25.1392 188.925 25.2764C188.879 25.3983 188.818 25.5203 188.742 25.6422C188.666 25.7794 188.598 25.9166 188.537 26.0538C188.476 26.1758 188.408 26.2977 188.332 26.4197C188.256 26.5417 188.18 26.6712 188.104 26.8084C188.043 26.9304 187.974 27.0523 187.898 27.1743C187.777 27.4182 187.625 27.6621 187.442 27.906C187.366 28.028 187.283 28.1499 187.191 28.2719C187.115 28.3938 187.032 28.5158 186.941 28.6377C186.849 28.7597 186.751 28.8816 186.644 29.0036C186.553 29.1103 186.454 29.2246 186.348 29.3466C186.226 29.4686 186.104 29.5829 185.983 29.6896C185.876 29.7963 185.755 29.903 185.618 30.0097C185.542 30.0707 185.466 30.1241 185.39 30.1698L185.162 30.307C185.01 30.3985 184.82 30.4671 184.592 30.5128C184.561 30.528 184.531 30.5356 184.5 30.5356C184.485 30.5356 184.462 30.5433 184.432 30.5585H184.341L184.295 30.5814H183.93C183.702 30.5814 183.474 30.5357 183.246 30.4442C183.033 30.3527 182.828 30.2231 182.63 30.0555L182.402 29.8268C182.326 29.7506 182.258 29.6667 182.197 29.5753C182.06 29.3923 181.961 29.217 181.901 29.0493C181.855 28.9731 181.809 28.8893 181.764 28.7978C181.733 28.7063 181.703 28.6225 181.673 28.5463C181.627 28.3786 181.589 28.2109 181.559 28.0432C181.513 27.8603 181.475 27.685 181.445 27.5173C181.414 27.3496 181.399 27.1895 181.399 27.0371L181.353 26.534V26.0538C181.353 25.9776 181.361 25.9014 181.376 25.8252V25.5736L181.377 25.5666C181.35 25.6148 181.332 25.6553 181.321 25.688C181.245 25.8557 181.161 26.0157 181.07 26.1682C180.979 26.3206 180.888 26.4807 180.796 26.6484C180.69 26.816 180.591 26.9761 180.5 27.1286C180.409 27.281 180.31 27.4334 180.203 27.5859C180.143 27.6621 180.089 27.7383 180.044 27.8146C179.998 27.8908 179.945 27.967 179.884 28.0432L179.702 28.2719C179.656 28.3481 179.603 28.4243 179.542 28.5005L179.177 28.9579C179.071 29.0951 178.949 29.2399 178.812 29.3923C178.523 29.7125 178.219 29.9869 177.9 30.2155C177.809 30.2917 177.718 30.3603 177.626 30.4213C177.535 30.4823 177.436 30.5433 177.33 30.6042C177.224 30.65 177.109 30.6957 176.988 30.7414C176.866 30.8024 176.737 30.8482 176.6 30.8786L176.372 30.9244C176.296 30.9396 176.22 30.9472 176.144 30.9472H175.893C175.848 30.9472 175.802 30.9396 175.756 30.9244C175.711 30.9244 175.658 30.9168 175.597 30.9015C175.551 30.8863 175.498 30.871 175.437 30.8558C175.391 30.8558 175.346 30.8405 175.3 30.81L175.118 30.7186C175.072 30.7033 175.019 30.6805 174.958 30.65C174.897 30.6043 174.806 30.5204 174.685 30.3985C174.639 30.368 174.593 30.3222 174.548 30.2613L174.456 30.1241C174.335 29.9259 174.251 29.7506 174.206 29.5981C174.175 29.5067 174.152 29.4304 174.137 29.3695L174.092 29.1408C174.061 28.9884 174.046 28.8512 174.046 28.7292V28.3633C174.061 28.2414 174.069 28.1271 174.069 28.0203C174.069 27.9136 174.076 27.8069 174.092 27.7002C174.107 27.5935 174.122 27.4944 174.137 27.403C174.152 27.2962 174.168 27.1972 174.183 27.1057C174.213 26.8923 174.244 26.6941 174.274 26.5112L174.685 24.8648L174.958 23.8129C175.065 23.4623 175.163 23.1117 175.255 22.7611C175.3 22.5934 175.338 22.4257 175.369 22.258L175.506 21.755C175.551 21.5873 175.589 21.4272 175.62 21.2748C175.665 21.1071 175.703 20.947 175.734 20.7946C175.749 20.7183 175.772 20.6193 175.802 20.4973C175.772 20.4973 175.749 20.5049 175.734 20.5202H175.711C175.62 20.5507 175.551 20.5811 175.506 20.6116C175.429 20.6421 175.361 20.6802 175.3 20.726C175.239 20.7565 175.171 20.7869 175.095 20.8174C174.958 20.8937 174.821 20.9775 174.685 21.069C174.548 21.1604 174.418 21.2671 174.297 21.3891C174.236 21.4348 174.175 21.4882 174.114 21.5492L173.749 21.915C173.704 21.976 173.651 22.037 173.59 22.0979C173.377 22.3571 173.164 22.6315 172.951 22.9211C172.754 23.1955 172.556 23.4776 172.358 23.7672C172.282 23.9044 172.184 24.0568 172.062 24.2245L171.788 24.6819C171.712 24.8343 171.629 24.9867 171.537 25.1392C171.446 25.2764 171.363 25.4288 171.287 25.5965L170.785 26.5569C170.633 26.877 170.488 27.1972 170.352 27.5173C170.275 27.685 170.207 27.8527 170.146 28.0203C170.085 28.1728 170.017 28.3329 169.941 28.5005C169.911 28.5768 169.88 28.6606 169.85 28.7521C169.819 28.8435 169.789 28.9274 169.759 29.0036C169.728 29.0798 169.698 29.1637 169.667 29.2551C169.652 29.3466 169.629 29.4304 169.599 29.5067C169.584 29.5067 169.576 29.5143 169.576 29.5295L169.531 29.7582C169.454 30.2003 169.234 30.5433 168.869 30.7872C168.519 31.0463 168.124 31.1378 167.683 31.0616C167.242 30.9854 166.9 30.7643 166.657 30.3985C166.414 30.0326 166.33 29.6286 166.406 29.1865C166.406 29.1256 166.414 29.0798 166.429 29.0493L166.575 28.5163C166.467 28.6968 166.353 28.8744 166.234 29.0493C166.067 29.3237 165.839 29.6058 165.55 29.8954C165.398 30.0783 165.246 30.2155 165.094 30.307C165.018 30.3832 164.927 30.4518 164.82 30.5128C164.714 30.5738 164.6 30.6271 164.478 30.6728C164.341 30.7338 164.212 30.7719 164.09 30.7872C164.075 30.8024 164.06 30.81 164.045 30.81H163.931V30.8329H163.794C163.779 30.8482 163.756 30.8558 163.725 30.8558C163.513 30.8863 163.285 30.8863 163.041 30.8558C162.92 30.8405 162.798 30.8177 162.676 30.7872C162.555 30.7719 162.426 30.7338 162.289 30.6728C162.046 30.5814 161.81 30.4366 161.582 30.2384C161.354 30.0402 161.179 29.8344 161.057 29.621C160.905 29.4076 160.799 29.1865 160.738 28.9579C160.647 28.7597 160.578 28.5539 160.533 28.3405C160.502 28.2338 160.48 28.1347 160.464 28.0432C160.464 27.9365 160.457 27.8298 160.442 27.7231L160.396 27.4487V27.1743C160.366 27.2505 160.335 27.3191 160.305 27.3801L160.213 27.563C160.153 27.685 160.092 27.8146 160.031 27.9517C159.97 28.0737 159.902 28.1957 159.826 28.3176C159.704 28.5615 159.552 28.8054 159.37 29.0493C159.278 29.1713 159.187 29.2856 159.096 29.3923C159.005 29.5143 158.898 29.6362 158.777 29.7582C158.716 29.8192 158.655 29.8725 158.594 29.9183C158.533 29.964 158.465 30.0173 158.389 30.0783C158.252 30.1698 158.093 30.2613 157.91 30.3527C157.834 30.3832 157.75 30.4137 157.659 30.4442C157.568 30.4747 157.469 30.4975 157.363 30.5128H157.317C157.317 30.528 157.302 30.5356 157.272 30.5356H157.066C157.006 30.5509 156.952 30.5509 156.907 30.5356H156.747C156.656 30.5204 156.557 30.4975 156.451 30.4671C156.344 30.4518 156.238 30.4213 156.131 30.3756C155.918 30.2841 155.736 30.1622 155.584 30.0097C155.417 29.8725 155.288 29.7201 155.196 29.5524C155.135 29.4762 155.082 29.3923 155.037 29.3009C154.991 29.2094 154.953 29.1256 154.923 29.0493C154.847 28.8816 154.793 28.7216 154.763 28.5691C154.717 28.4167 154.679 28.2566 154.649 28.0889C154.619 27.9365 154.603 27.7841 154.603 27.6316L154.558 27.1743V26.7398C154.558 26.5874 154.565 26.4349 154.581 26.2825C154.586 26.1697 154.595 26.058 154.605 25.9476C154.498 26.0808 154.384 26.2077 154.264 26.3282C153.868 26.7856 153.405 27.2353 152.872 27.6774C151.884 28.4853 150.767 29.1256 149.52 29.5981C149.216 29.7201 148.904 29.8268 148.585 29.9183C148.281 30.025 147.969 30.1164 147.65 30.1927C147.346 30.2689 147.027 30.3375 146.692 30.3985C146.373 30.4594 146.054 30.5052 145.734 30.5356C145.658 30.5509 145.575 30.5585 145.484 30.5585C145.392 30.5738 145.309 30.589 145.233 30.6042H144.982C144.936 30.6195 144.853 30.6271 144.731 30.6271C144.564 30.6424 144.389 30.65 144.206 30.65C144.039 30.65 143.864 30.6347 143.682 30.6042C143.332 30.5738 142.975 30.528 142.61 30.4671C142.428 30.4213 142.245 30.368 142.063 30.307C141.896 30.2613 141.721 30.2003 141.538 30.1241C141.371 30.0478 141.196 29.9716 141.014 29.8954C140.846 29.8192 140.679 29.7277 140.512 29.621C140.345 29.5143 140.185 29.4076 140.033 29.3009C139.881 29.1789 139.737 29.0493 139.6 28.9121C139.448 28.7902 139.303 28.6606 139.167 28.5234C139.045 28.3862 138.923 28.2338 138.802 28.0661C138.68 27.9136 138.566 27.7612 138.46 27.6088C138.353 27.4563 138.254 27.2962 138.163 27.1286C137.981 26.7932 137.821 26.4502 137.684 26.0996C137.563 25.7489 137.456 25.3983 137.365 25.0477C137.274 24.6971 137.205 24.3465 137.16 23.9959C137.114 23.6452 137.076 23.2946 137.046 22.944C137.014 22.5784 136.999 22.217 137 21.8597C137.001 21.5317 137.017 21.2071 137.046 20.886C137.106 20.2 137.205 19.514 137.342 18.8281C137.418 18.4927 137.494 18.1649 137.57 17.8448C137.646 17.5247 137.745 17.2045 137.867 16.8844C137.958 16.5643 138.072 16.2441 138.209 15.924C138.315 15.6344 138.444 15.3295 138.596 15.0094C138.733 14.7045 138.878 14.4072 139.03 14.1176C139.182 13.8127 139.341 13.5154 139.509 13.2258C139.676 12.9361 139.851 12.6541 140.033 12.3797C140.216 12.0901 140.413 11.8157 140.626 11.5565C141.037 10.9773 141.47 10.4589 141.926 10.0016C142.154 9.77296 142.397 9.55191 142.656 9.33849C142.914 9.10983 143.18 8.89641 143.454 8.69824C143.728 8.50006 144.009 8.31713 144.298 8.14944C144.587 7.98175 144.883 7.82931 145.187 7.69211C145.339 7.61589 145.484 7.54729 145.62 7.48632C145.772 7.42534 145.932 7.35674 146.099 7.28052C146.251 7.21954 146.403 7.16619 146.555 7.12045C146.707 7.07472 146.867 7.02899 147.034 6.98325C147.354 6.89179 147.673 6.81557 147.992 6.75459C148.311 6.67837 148.631 6.62501 148.95 6.59453C149.269 6.54879 149.596 6.52593 149.931 6.52593C150.25 6.51068 150.569 6.51068 150.888 6.52593L151.39 6.57166C151.557 6.57166 151.725 6.5869 151.892 6.61739C152.059 6.64788 152.219 6.67837 152.371 6.70886C152.538 6.7241 152.705 6.75459 152.872 6.80032C153.222 6.89179 153.557 7.01374 153.876 7.16619C154.043 7.24241 154.203 7.32625 154.355 7.41772C154.507 7.50918 154.659 7.61589 154.811 7.73785C155.1 7.96651 155.366 8.24853 155.609 8.5839C155.731 8.75159 155.837 8.9269 155.928 9.10983C156.02 9.27752 156.103 9.45283 156.179 9.63576C156.301 10.0016 156.377 10.4056 156.407 10.8477C156.407 11.0611 156.4 11.2669 156.384 11.4651C156.369 11.6632 156.339 11.8614 156.293 12.0596C156.217 12.4864 156.096 12.8675 155.928 13.2029C155.761 13.5993 155.571 13.9423 155.358 14.2319C155.145 14.5368 154.902 14.8264 154.628 15.1008C154.37 15.3752 154.096 15.6268 153.808 15.8554C153.245 16.2975 152.629 16.671 151.96 16.9759C151.793 17.0521 151.626 17.1207 151.459 17.1817C151.307 17.2426 151.147 17.3112 150.98 17.3875C150.904 17.418 150.82 17.4484 150.729 17.4789C150.638 17.4942 150.554 17.517 150.478 17.5475L150.341 17.5933C150.311 17.5933 150.273 17.6009 150.227 17.6161L150.09 17.639L149.976 17.6847C149.581 17.7762 149.208 17.7228 148.859 17.5247C148.524 17.3112 148.311 17.0064 148.22 16.61C148.114 16.2289 148.159 15.8707 148.357 15.5353C148.555 15.1999 148.836 14.9713 149.201 14.8493H149.224L149.429 14.7807L149.634 14.735C149.695 14.7045 149.756 14.6816 149.817 14.6664C149.877 14.6511 149.946 14.6283 150.022 14.5978L150.774 14.3234C150.896 14.2624 151.01 14.209 151.116 14.1633L151.481 13.9804C151.603 13.9194 151.717 13.8584 151.823 13.7974C151.93 13.7365 152.044 13.6679 152.166 13.5916C152.378 13.4544 152.576 13.3096 152.758 13.1572C152.941 12.9895 153.108 12.8142 153.26 12.6313C153.564 12.2806 153.8 11.8919 153.967 11.4651C154.043 11.2516 154.089 11.0382 154.104 10.8248C154.134 10.6114 154.134 10.398 154.104 10.1846C154.074 9.94064 154.028 9.7196 153.967 9.52143C153.906 9.29276 153.8 9.07172 153.648 8.8583C153.496 8.62964 153.336 8.43146 153.169 8.26377C153.063 8.15706 152.956 8.0656 152.85 7.98938C152.743 7.91315 152.629 7.83693 152.508 7.76071C152.249 7.60827 151.983 7.49394 151.709 7.41772C151.436 7.32625 151.147 7.26527 150.843 7.23478C150.539 7.21954 150.242 7.21954 149.953 7.23478L149.497 7.28052C149.36 7.29576 149.216 7.31863 149.064 7.34912C148.471 7.47107 147.916 7.654 147.399 7.89791L146.989 8.12657L146.624 8.35524C146.365 8.52293 146.13 8.69061 145.917 8.8583C145.689 9.05648 145.468 9.25465 145.256 9.45283C145.058 9.651 144.86 9.8568 144.663 10.0702C144.267 10.5123 143.902 10.9696 143.568 11.4422C143.401 11.6709 143.241 11.9072 143.089 12.1511C142.937 12.3797 142.785 12.6236 142.633 12.8828C142.329 13.3858 142.063 13.9042 141.835 14.4377C141.607 14.9713 141.401 15.5048 141.219 16.0384L141.082 16.4499C141.037 16.5871 140.999 16.732 140.968 16.8844L140.831 17.296L140.74 17.7076C140.664 17.9972 140.603 18.2793 140.558 18.5537C140.512 18.8281 140.466 19.1101 140.421 19.3997C140.375 19.6741 140.337 19.9561 140.307 20.2458L140.261 21.069C140.216 21.633 140.216 22.1894 140.261 22.7382C140.292 23.287 140.36 23.8129 140.466 24.316C140.527 24.5751 140.588 24.8267 140.649 25.0706C140.725 25.3145 140.808 25.5508 140.9 25.7794C141.082 26.252 141.31 26.6789 141.584 27.06C141.842 27.4411 142.177 27.7841 142.587 28.0889C142.694 28.1652 142.8 28.2338 142.907 28.2947C143.013 28.3557 143.127 28.4091 143.249 28.4548C143.37 28.5158 143.492 28.5691 143.614 28.6149C143.735 28.6606 143.864 28.7063 144.001 28.7521C144.123 28.7826 144.252 28.813 144.389 28.8435C144.526 28.8588 144.663 28.8816 144.799 28.9121C144.83 28.9121 144.86 28.9198 144.891 28.935H145.005L145.119 28.9579H145.233C145.309 28.9731 145.377 28.9807 145.438 28.9807H145.666C145.97 29.0112 146.267 29.0265 146.555 29.0265C146.844 29.0112 147.141 28.9884 147.445 28.9579C148.023 28.8969 148.6 28.7826 149.178 28.6149C149.756 28.4472 150.311 28.2338 150.843 27.9746C151.375 27.7002 151.884 27.3877 152.371 27.0371C152.872 26.656 153.313 26.252 153.693 25.8252C153.8 25.7032 153.899 25.5889 153.99 25.4822C154.096 25.3602 154.188 25.2383 154.264 25.1163C154.279 25.0858 154.317 25.0325 154.378 24.9562L154.56 24.7276C154.636 24.6361 154.705 24.5523 154.765 24.4761C154.801 24.4226 154.829 24.3796 154.849 24.347C154.888 24.1461 154.935 23.9452 154.991 23.7443L155.219 22.9211C155.417 22.3419 155.622 21.8007 155.835 21.2976C155.956 21.0385 156.086 20.7793 156.223 20.5202C156.359 20.261 156.511 20.0019 156.679 19.7427C156.831 19.4988 157.013 19.2473 157.226 18.9881C157.332 18.8662 157.439 18.7518 157.545 18.6451C157.652 18.5232 157.766 18.4012 157.887 18.2793C158.1 18.0658 158.374 17.8524 158.708 17.639C158.997 17.4408 159.347 17.2808 159.757 17.1588C159.955 17.0826 160.16 17.0369 160.373 17.0216C160.586 16.9911 160.799 16.9759 161.012 16.9759C161.422 17.0064 161.833 17.0902 162.243 17.2274C162.578 17.3494 162.92 17.5247 163.269 17.7533C163.345 17.8143 163.414 17.8753 163.475 17.9363C163.551 17.982 163.619 18.0354 163.68 18.0963C163.771 18.1573 163.84 18.2107 163.885 18.2564C163.931 18.2716 163.961 18.3021 163.976 18.3479L164.068 18.4165C164.387 18.7213 164.554 19.0872 164.569 19.514C164.584 19.9409 164.448 20.3144 164.159 20.6345C163.855 20.9394 163.49 21.1071 163.064 21.1376C162.638 21.1528 162.274 21.008 161.969 20.7031C161.939 20.6879 161.916 20.6726 161.901 20.6574C161.901 20.6421 161.886 20.6269 161.855 20.6116L161.833 20.5659L161.764 20.4973C161.749 20.4668 161.734 20.4516 161.719 20.4516L161.491 20.2229C161.415 20.1619 161.346 20.1162 161.285 20.0857C161.24 20.04 161.187 20.0019 161.126 19.9714C161.065 19.9409 161.012 19.918 160.966 19.9028C160.92 19.8875 160.875 19.8799 160.829 19.8799C160.723 19.8647 160.616 19.8647 160.51 19.8799C160.373 19.8799 160.236 19.9256 160.099 20.0171C160.023 20.0476 159.947 20.0857 159.871 20.1314C159.795 20.1772 159.719 20.2305 159.643 20.2915C159.476 20.4135 159.316 20.5583 159.164 20.726C159.028 20.8784 158.883 21.0385 158.731 21.2062C158.594 21.3891 158.457 21.5796 158.321 21.7778C158.199 21.9607 158.077 22.1589 157.956 22.3723C157.834 22.5858 157.72 22.8068 157.614 23.0355C157.522 23.2489 157.424 23.4623 157.317 23.6757C157.12 24.1483 156.96 24.6133 156.838 25.0706C156.762 25.2992 156.694 25.5355 156.633 25.7794C156.587 26.0081 156.549 26.2444 156.519 26.4883C156.489 26.6103 156.466 26.7246 156.451 26.8313C156.451 26.938 156.443 27.0523 156.428 27.1743V27.5173C156.428 27.624 156.435 27.7383 156.451 27.8603C156.451 27.967 156.458 28.0737 156.473 28.1804C156.489 28.2719 156.511 28.3557 156.542 28.4319L156.587 28.5691L156.679 28.7521C156.694 28.7673 156.709 28.7902 156.724 28.8207C156.755 28.8359 156.793 28.8664 156.838 28.9121L156.975 28.9579C156.99 28.9579 156.998 28.9655 156.998 28.9807H157.158C157.203 28.9807 157.272 28.9655 157.363 28.935C157.515 28.9045 157.674 28.8207 157.842 28.6835C157.918 28.6073 157.994 28.5387 158.07 28.4777C158.161 28.4015 158.245 28.3176 158.321 28.2261L158.549 27.9517C158.625 27.8603 158.701 27.7612 158.777 27.6545L159.187 27.0371C159.309 26.8237 159.43 26.6026 159.552 26.374C159.674 26.1453 159.795 25.909 159.917 25.6651C160.13 25.2383 160.335 24.7657 160.533 24.2474L160.624 24.0187C160.654 23.9273 160.685 23.8434 160.715 23.7672C160.746 23.6148 160.776 23.5004 160.806 23.4242L160.852 23.1955C160.867 23.1041 160.89 23.0126 160.92 22.9211C160.936 22.8754 160.958 22.7916 160.989 22.6696L161.034 22.5324C161.05 22.5019 161.057 22.4791 161.057 22.4638C161.057 22.4486 161.065 22.4257 161.08 22.3952V22.3495C161.232 21.9379 161.498 21.633 161.878 21.4348C162.274 21.2366 162.684 21.2062 163.11 21.3434C163.535 21.4806 163.847 21.7473 164.045 22.1437C164.242 22.5248 164.273 22.9288 164.136 23.3556C164.106 23.4166 164.09 23.4623 164.09 23.4928L163.999 23.6757L163.931 23.8815C163.9 23.9578 163.87 24.0264 163.84 24.0873C163.824 24.1483 163.802 24.2169 163.771 24.2931L163.634 24.7047C163.589 24.8419 163.543 24.9867 163.497 25.1392C163.467 25.2764 163.429 25.4136 163.383 25.5508C163.338 25.688 163.3 25.8328 163.269 25.9852C163.254 26.0615 163.239 26.1301 163.224 26.191C163.209 26.252 163.193 26.3206 163.178 26.3968L163.11 26.8084C163.079 26.9456 163.057 27.0828 163.041 27.22C163.026 27.342 163.019 27.4639 163.019 27.5859C162.988 27.7078 162.988 27.8222 163.019 27.9289C163.019 28.0813 163.026 28.188 163.041 28.249C163.041 28.31 163.057 28.3862 163.087 28.4777C163.117 28.5387 163.133 28.5844 163.133 28.6149C163.148 28.6454 163.178 28.6835 163.224 28.7292C163.239 28.7444 163.292 28.7749 163.383 28.8207C163.475 28.8512 163.566 28.8664 163.657 28.8664C163.687 28.8664 163.71 28.874 163.725 28.8893H163.84C163.87 28.874 163.908 28.8664 163.954 28.8664C163.999 28.8512 164.045 28.8283 164.09 28.7978L164.227 28.7063C164.273 28.6759 164.326 28.6454 164.387 28.6149C164.493 28.5387 164.592 28.4548 164.683 28.3633C164.79 28.2719 164.889 28.1652 164.98 28.0432C165.193 27.8298 165.39 27.6088 165.573 27.3801L165.846 27.0142C165.953 26.877 166.044 26.7475 166.12 26.6255L166.257 26.4426C166.302 26.3816 166.348 26.313 166.394 26.2368C166.5 26.1148 166.584 25.9852 166.645 25.848C166.69 25.7718 166.736 25.7032 166.781 25.6422C166.827 25.5813 166.865 25.5127 166.895 25.4364C167.002 25.3145 167.085 25.1849 167.146 25.0477C167.192 24.9715 167.23 24.9029 167.26 24.8419C167.306 24.7809 167.352 24.7123 167.397 24.6361L167.625 24.2245V24.2017C167.674 24.141 167.732 24.0948 167.799 24.0631L169.439 18.0963C169.515 17.8067 169.683 17.5933 169.941 17.4561C170.199 17.3036 170.473 17.2655 170.762 17.3417C171.036 17.418 171.249 17.578 171.401 17.8219C171.553 18.0506 171.606 18.3021 171.56 18.5765L170.374 25.0934L170.557 24.6361C170.618 24.4837 170.678 24.3236 170.739 24.1559C170.77 24.0797 170.8 23.9959 170.83 23.9044C170.876 23.8129 170.914 23.7291 170.944 23.6529C170.975 23.5614 171.013 23.4776 171.058 23.4013C171.104 23.3099 171.142 23.2184 171.172 23.1269L171.629 22.1208C171.796 21.7854 171.971 21.4501 172.153 21.1147C172.184 21.0385 172.222 20.9623 172.267 20.886C172.328 20.7946 172.381 20.7031 172.427 20.6116L172.7 20.1086C172.807 19.9409 172.906 19.7732 172.997 19.6055C173.103 19.4226 173.217 19.2396 173.339 19.0567C173.4 18.9805 173.461 18.8967 173.521 18.8052L173.704 18.5308C173.78 18.4546 173.856 18.3707 173.932 18.2793C174.008 18.1878 174.084 18.104 174.16 18.0277C174.312 17.8753 174.494 17.7152 174.707 17.5475C174.875 17.3951 175.095 17.2579 175.369 17.1359C175.49 17.075 175.612 17.0216 175.734 16.9759C175.87 16.9149 176.007 16.8692 176.144 16.8387C176.22 16.8234 176.288 16.8082 176.349 16.7929L176.577 16.7472C176.684 16.7472 176.76 16.7396 176.805 16.7243H177.216C177.292 16.7243 177.353 16.732 177.398 16.7472C177.474 16.7472 177.543 16.7548 177.604 16.7701L177.832 16.8158C177.984 16.8615 178.136 16.9301 178.288 17.0216C178.409 17.0826 178.554 17.1817 178.721 17.3189C178.797 17.3798 178.858 17.4408 178.903 17.5018L179.086 17.6847C179.132 17.761 179.17 17.8296 179.2 17.8905C179.246 17.9515 179.284 18.0201 179.314 18.0963C179.39 18.2183 179.443 18.3402 179.474 18.4622L179.565 18.7823C179.61 18.9957 179.633 19.1787 179.633 19.3311C179.664 19.4988 179.664 19.6512 179.633 19.7884C179.633 20.0628 179.61 20.3144 179.565 20.543C179.534 20.6497 179.512 20.7565 179.496 20.8632C179.481 20.9699 179.458 21.0766 179.428 21.1833C179.398 21.29 179.367 21.3891 179.337 21.4806C179.306 21.572 179.276 21.6711 179.246 21.7778L179.063 22.3266C179.002 22.5095 178.934 22.6849 178.858 22.8525C178.782 23.0355 178.706 23.2108 178.63 23.3785C178.569 23.5462 178.501 23.7138 178.425 23.8815C178.273 24.2321 178.121 24.5675 177.968 24.8876L177.147 26.8084C177.026 27.0981 176.904 27.4106 176.783 27.7459C176.691 28.0203 176.646 28.2109 176.646 28.3176C176.661 28.4243 176.707 28.4777 176.783 28.4777C176.874 28.4624 176.995 28.4167 177.147 28.3405C177.3 28.2643 177.467 28.188 177.649 28.1118C177.725 28.0661 177.794 28.0203 177.854 27.9746C177.915 27.9136 177.976 27.8603 178.037 27.8146L178.447 27.4716C178.706 27.2429 178.957 27.0066 179.2 26.7627C179.443 26.5188 179.686 26.2673 179.93 26.0081C180.051 25.8861 180.165 25.7566 180.272 25.6194L180.637 25.2078C180.698 25.1468 180.796 25.0172 180.933 24.819C181.07 24.6056 181.169 24.4608 181.23 24.3846L181.412 24.1788L181.572 23.973H181.595C181.603 23.9589 181.613 23.9458 181.622 23.9339C181.638 23.8631 181.655 23.7923 181.673 23.7215C181.749 23.4166 181.832 23.1117 181.923 22.8068C181.954 22.7306 181.977 22.6544 181.992 22.5781L182.083 22.3495C182.113 22.258 182.144 22.1894 182.174 22.1437L182.266 21.915C182.342 21.7626 182.41 21.6178 182.471 21.4806L182.699 21.0232C183.048 20.4287 183.444 19.9028 183.885 19.4454L184.227 19.1024C184.348 18.9805 184.478 18.8662 184.614 18.7595C184.675 18.6985 184.736 18.6451 184.797 18.5994C184.858 18.5537 184.926 18.5003 185.002 18.4393C185.078 18.3936 185.147 18.3479 185.207 18.3021L185.435 18.1649C185.527 18.1039 185.603 18.0582 185.663 18.0277C185.74 17.9972 185.816 17.9591 185.892 17.9134L186.12 17.8219C186.211 17.7762 186.302 17.7381 186.393 17.7076C186.469 17.6771 186.553 17.6542 186.644 17.639C186.735 17.6085 186.834 17.578 186.941 17.5475C187.032 17.517 187.123 17.5018 187.214 17.5018C187.305 17.4866 187.412 17.4713 187.534 17.4561C187.64 17.4408 187.739 17.4408 187.83 17.4561C187.936 17.4561 188.05 17.4637 188.172 17.4789C188.415 17.5247 188.636 17.5933 188.833 17.6847C188.94 17.7457 189.039 17.8143 189.13 17.8905C189.236 17.9515 189.328 18.0201 189.404 18.0963C189.495 18.1573 189.563 18.2411 189.609 18.3479C189.654 18.3936 189.708 18.4622 189.768 18.5537C189.92 17.5933 190.103 16.6405 190.316 15.6954C190.529 14.7502 190.787 13.8127 191.091 12.8828C191.258 12.3645 191.433 11.8538 191.616 11.3507C191.813 10.8324 192.034 10.3217 192.277 9.81869L192.642 9.08696C192.779 8.84306 192.931 8.59915 193.098 8.35524C193.174 8.23328 193.25 8.11895 193.326 8.01224C193.417 7.90553 193.508 7.7912 193.6 7.66925C193.797 7.42534 194.003 7.19667 194.215 6.98325L194.398 6.84606C194.459 6.78508 194.52 6.73172 194.58 6.68599C194.656 6.62501 194.725 6.57166 194.786 6.52593C194.846 6.48019 194.915 6.43446 194.991 6.38873L195.219 6.25153C195.31 6.2058 195.394 6.16768 195.47 6.1372C195.652 6.07622 195.85 6.03049 196.063 6H196.542C196.572 6.01524 196.595 6.02286 196.61 6.02286C196.64 6.02286 196.671 6.03049 196.701 6.04573C196.823 6.06098 196.945 6.10671 197.066 6.18293C197.173 6.24391 197.271 6.33537 197.363 6.45733C197.439 6.53355 197.499 6.63264 197.545 6.75459C197.606 6.87654 197.644 6.96801 197.659 7.02899C197.674 7.07472 197.682 7.12045 197.682 7.16619C197.682 7.21192 197.689 7.25765 197.705 7.30338V7.76071C197.705 7.83693 197.697 7.91315 197.682 7.98938C197.682 8.0656 197.674 8.14182 197.659 8.21804C197.659 8.27902 197.651 8.34762 197.636 8.42384L197.545 8.83543C197.515 8.97263 197.484 9.10221 197.454 9.22416C197.423 9.36136 197.385 9.49856 197.34 9.63576C197.309 9.75771 197.271 9.87967 197.226 10.0016C197.226 10.0474 197.211 10.116 197.18 10.2074L197.112 10.3903C197.081 10.4666 197.059 10.5352 197.043 10.5961C197.043 10.6419 197.028 10.7029 196.998 10.7791C196.922 11.023 196.838 11.2669 196.747 11.5108C196.656 11.7547 196.564 12.0062 196.473 12.2654C196.397 12.5245 196.314 12.7761 196.222 13.02C196.131 13.2486 196.04 13.4926 195.949 13.7517C195.751 14.2395 195.561 14.735 195.379 15.238C195.196 15.7258 194.998 16.2137 194.786 16.7015L194.466 17.4332C194.375 17.6619 194.269 17.9058 194.147 18.1649L193.828 18.8967C193.721 19.1253 193.607 19.3692 193.486 19.6284L193.121 20.3601C193.014 20.5888 192.9 20.8327 192.779 21.0918L192.414 21.8235L192.209 22.1894L192.117 22.3723C192.117 22.4638 192.11 22.5324 192.095 22.5781C192.064 22.8373 192.041 23.0888 192.026 23.3327C192.026 23.5766 192.011 23.8206 191.981 24.0645C191.965 24.3236 191.95 24.5751 191.935 24.819C191.935 25.063 191.927 25.3069 191.912 25.5508V26.2825C191.912 26.5112 191.927 26.7398 191.958 26.9685C191.958 27.2124 191.981 27.4334 192.026 27.6316C192.057 27.8755 192.102 28.0737 192.163 28.2261C192.209 28.4243 192.269 28.5615 192.345 28.6377L192.391 28.7292L192.459 28.7978H192.756C192.908 28.7826 193.075 28.7368 193.258 28.6606C193.425 28.5844 193.585 28.4853 193.737 28.3633C193.904 28.2414 194.071 28.0966 194.238 27.9289C194.406 27.7612 194.558 27.5859 194.694 27.403C194.846 27.22 194.983 27.0218 195.105 26.8084C195.379 26.3968 195.629 25.9624 195.857 25.505C195.918 25.3831 195.971 25.2688 196.017 25.162C196.063 25.0553 196.116 24.941 196.177 24.819C196.207 24.7581 196.23 24.7047 196.245 24.659L196.336 24.4761L196.388 24.3547L196.437 24.0645C196.452 24.0035 196.459 23.9425 196.459 23.8815L196.505 23.6986C196.551 23.409 196.604 23.1574 196.665 22.944C196.741 22.6696 196.817 22.4257 196.893 22.2123C196.923 22.0903 196.953 21.976 196.984 21.8693C197.029 21.7626 197.075 21.6482 197.121 21.5263C197.166 21.4043 197.212 21.29 197.257 21.1833C197.303 21.0766 197.341 20.9622 197.372 20.8403C197.417 20.7183 197.463 20.6116 197.508 20.5202C197.569 20.4135 197.622 20.2991 197.668 20.1772C197.866 19.7046 198.071 19.2778 198.284 18.8967C198.314 18.8357 198.345 18.7823 198.375 18.7366C198.405 18.6756 198.436 18.6223 198.466 18.5765C198.497 18.5155 198.519 18.4622 198.535 18.4165C198.565 18.3707 198.595 18.3174 198.626 18.2564L198.717 18.1192C198.747 18.0582 198.778 18.0049 198.808 17.9591L198.899 17.7991L198.945 17.7076L199.013 17.6161C199.135 17.418 199.287 17.2579 199.47 17.1359C199.652 17.014 199.85 16.9301 200.063 16.8844C200.275 16.8234 200.488 16.8158 200.701 16.8615C200.929 16.892 201.142 16.9683 201.34 17.0902C201.735 17.3494 201.978 17.7 202.069 18.1421C202.176 18.5689 202.115 18.9805 201.887 19.3768L201.864 19.4226L201.727 19.6741L201.568 19.9485L201.385 20.2229L201.226 20.4973C201.119 20.6955 201.013 20.886 200.906 21.069C200.815 21.2519 200.716 21.4348 200.61 21.6178C200.549 21.7245 200.496 21.8236 200.45 21.915L200.313 22.1894C200.268 22.2809 200.215 22.38 200.154 22.4867L199.88 23.0355C199.834 23.1269 199.796 23.2184 199.766 23.3099C199.72 23.4166 199.675 23.5157 199.629 23.6071C199.584 23.6986 199.546 23.7901 199.515 23.8815L199.378 24.1559L199.287 24.4303C199.257 24.5523 199.226 24.6437 199.196 24.7047L199.128 24.9791C199.097 25.0706 199.074 25.162 199.059 25.2535L199.013 25.4822C198.983 25.5584 198.968 25.6346 198.968 25.7108C198.968 25.7718 198.96 25.8404 198.945 25.9166V26.0767C198.96 26.1072 198.968 26.1377 198.968 26.1682V26.3054C198.968 26.3511 198.991 26.3816 199.036 26.3968C199.051 26.4273 199.09 26.4578 199.15 26.4883C199.211 26.534 199.28 26.5645 199.356 26.5798C199.371 26.595 199.386 26.6026 199.401 26.6026C199.416 26.6026 199.439 26.6103 199.47 26.6255H199.515V26.6484H199.584C199.751 26.6789 199.918 26.6941 200.085 26.6941C200.253 26.6789 200.42 26.6407 200.587 26.5798C200.77 26.5188 200.937 26.4502 201.089 26.374L201.317 26.2368C201.408 26.1758 201.492 26.1148 201.568 26.0538C201.872 25.8099 202.161 25.505 202.434 25.1392C202.678 24.8038 202.906 24.4379 203.118 24.0416C203.149 24.0111 203.164 23.9806 203.164 23.9501C203.179 23.9044 203.202 23.8663 203.232 23.8358L203.255 23.7215C203.377 23.2641 203.483 22.8144 203.575 22.3723L203.894 21.0004C203.955 20.7717 204.008 20.543 204.053 20.3144C204.099 20.0857 204.152 19.857 204.213 19.6284L204.35 18.9653L204.487 18.2793H204.51C204.601 17.8372 204.829 17.4942 205.194 17.2503C205.559 17.0064 205.954 16.9301 206.38 17.0216C206.821 17.1131 207.163 17.3417 207.406 17.7076C207.649 18.0735 207.725 18.4774 207.634 18.9195L207.611 18.9424L207.543 19.3082L207.474 19.6512L207.292 20.3372C207.246 20.5811 207.193 20.8174 207.132 21.0461L206.95 21.7321C206.828 22.1894 206.706 22.6544 206.585 23.1269L206.038 25.1849L205.422 27.2429C205.346 27.4868 205.285 27.7002 205.239 27.8831C205.604 27.624 205.962 27.3496 206.311 27.06C206.676 26.7703 207.033 26.4731 207.383 26.1682C207.718 25.8785 208.037 25.5584 208.341 25.2078C208.417 25.1163 208.493 25.0325 208.569 24.9562L208.797 24.6819C208.873 24.5904 208.972 24.4608 209.093 24.2931C209.215 24.1102 209.314 23.973 209.39 23.8815C209.436 23.8053 209.496 23.7672 209.572 23.7672C209.648 23.752 209.717 23.7672 209.778 23.8129C209.854 23.8587 209.892 23.9196 209.892 23.9959C209.907 24.0568 209.899 24.1178 209.869 24.1788C209.808 24.2855 209.717 24.4379 209.595 24.6361C209.489 24.819 209.398 24.9639 209.321 25.0706C209.215 25.2688 209.086 25.4669 208.934 25.6651L208.478 26.2596C208.341 26.4426 208.189 26.6255 208.022 26.8084C207.368 27.5249 206.676 28.1957 205.946 28.8207C205.718 29.0188 205.483 29.2094 205.239 29.3923C205.011 29.5905 204.783 29.7811 204.555 29.964H204.532C204.38 30.4213 204.221 30.8786 204.053 31.336C203.886 31.7933 203.719 32.243 203.552 32.6851C203.369 33.1272 203.179 33.5693 202.982 34.0113C202.784 34.4687 202.579 34.9184 202.366 35.3605C202.244 35.5891 202.123 35.8102 202.001 36.0236C201.895 36.2523 201.781 36.4733 201.659 36.6867C201.537 36.9154 201.4 37.1364 201.248 37.3498C201.112 37.5785 200.96 37.7995 200.792 38.013C200.716 38.1197 200.633 38.2188 200.541 38.3102C200.45 38.4169 200.351 38.5313 200.245 38.6532C200.017 38.8819 199.781 39.0877 199.538 39.2706L199.31 39.4078C199.249 39.4535 199.181 39.4993 199.105 39.545C198.983 39.606 198.892 39.6441 198.831 39.6593C198.816 39.6746 198.778 39.6975 198.717 39.7279H198.649C198.633 39.7432 198.618 39.7508 198.603 39.7508C198.253 39.8728 197.919 39.9414 197.6 39.9566C197.25 39.9871 196.908 39.9642 196.573 39.888C196.406 39.8575 196.239 39.8118 196.072 39.7508C195.904 39.6898 195.737 39.606 195.57 39.4993C195.403 39.4078 195.243 39.2935 195.091 39.1563C195.015 39.0801 194.947 39.0038 194.886 38.9276C194.825 38.8666 194.757 38.7904 194.68 38.699C194.62 38.6227 194.566 38.5389 194.521 38.4474C194.46 38.356 194.414 38.2569 194.384 38.1502C194.354 38.0435 194.323 37.9444 194.293 37.8529C194.262 37.7614 194.24 37.6623 194.224 37.5556C194.209 37.4489 194.202 37.3498 194.202 37.2584V36.984L194.247 36.7096C194.247 36.6181 194.255 36.5343 194.27 36.4581C194.361 36.1379 194.475 35.833 194.612 35.5434C194.673 35.4062 194.741 35.2766 194.817 35.1547L195.045 34.7888C195.076 34.7278 195.114 34.6745 195.159 34.6287L195.228 34.5373L195.251 34.4915L195.296 34.4458L195.433 34.2629L195.57 34.1257C195.676 34.019 195.783 33.9199 195.889 33.8284C195.98 33.7369 196.079 33.6455 196.186 33.554L196.801 33.0738C196.999 32.9214 197.197 32.7766 197.394 32.6394C197.592 32.5174 197.797 32.3878 198.01 32.2506C198.831 31.7476 199.652 31.2674 200.473 30.81L201.431 30.2613C201.507 30.0631 201.568 29.8649 201.613 29.6667C201.674 29.4838 201.735 29.2856 201.796 29.0722C201.872 28.8588 201.94 28.6454 202.001 28.4319L202.183 27.7459C202.229 27.5935 202.275 27.4487 202.32 27.3115C202.366 27.159 202.404 27.0066 202.434 26.8542L202.411 26.877C202.335 26.9837 202.252 27.0828 202.161 27.1743L201.887 27.4487C201.674 27.6316 201.454 27.7993 201.226 27.9517C201.104 28.028 200.975 28.0966 200.838 28.1575C200.716 28.2185 200.587 28.2719 200.45 28.3176C200.146 28.4243 199.865 28.4853 199.606 28.5005H199.492V28.5234H199.401C199.356 28.5234 199.31 28.531 199.264 28.5463H198.922C198.846 28.5463 198.77 28.5387 198.694 28.5234C198.618 28.5082 198.535 28.4929 198.443 28.4777C198.352 28.4624 198.261 28.4396 198.17 28.4091C197.987 28.3633 197.812 28.2795 197.645 28.1575C197.493 28.0813 197.326 27.9517 197.143 27.7688C197.067 27.6926 196.999 27.6164 196.938 27.5402C196.893 27.4487 196.839 27.3648 196.779 27.2886L196.642 27.0142C196.635 26.9954 196.629 26.9769 196.623 26.9588C196.617 26.9403 196.61 26.9221 196.604 26.9043L196.336 27.4944C196.23 27.7231 196.101 27.967 195.949 28.2261C195.797 28.5005 195.637 28.7445 195.47 28.9579ZM193.782 13.6831L193.417 15.1466C193.311 15.6344 193.197 16.1222 193.075 16.61L193.03 16.8844C193.014 16.9606 192.992 17.0445 192.961 17.1359C193.083 16.9683 193.189 16.8006 193.28 16.6329C193.387 16.4499 193.501 16.2746 193.623 16.1069C193.881 15.6649 194.124 15.2152 194.352 14.7578C194.596 14.3005 194.824 13.8356 195.036 13.363C195.249 12.8904 195.455 12.4178 195.652 11.9453C195.85 11.4727 196.032 10.9925 196.2 10.5047C196.23 10.4437 196.253 10.3827 196.268 10.3217C196.283 10.2608 196.306 10.1998 196.336 10.1388C196.367 10.0474 196.382 9.98638 196.382 9.95589C196.397 9.9254 196.405 9.89491 196.405 9.86442L196.45 9.77296C196.481 9.651 196.504 9.52905 196.519 9.40709L196.61 9.04123C196.64 8.91928 196.663 8.79732 196.678 8.67537C196.694 8.55341 196.701 8.43146 196.701 8.30951V7.96651C196.701 7.87504 196.686 7.76833 196.656 7.64638C196.656 7.61589 196.648 7.59302 196.633 7.57778V7.48632C196.602 7.42534 196.587 7.38723 196.587 7.37198L196.519 7.30338C196.519 7.28814 196.511 7.28052 196.496 7.28052C196.481 7.28052 196.473 7.28814 196.473 7.30338V7.32625H196.45L196.428 7.34912H196.405L196.382 7.37198C196.367 7.37198 196.352 7.37961 196.336 7.39485C196.306 7.41009 196.26 7.44821 196.2 7.50918L196.017 7.69211C195.971 7.76833 195.918 7.85218 195.857 7.94364C195.812 8.01987 195.759 8.10371 195.698 8.19517L195.424 8.81257L195.15 9.45283C195.074 9.68149 194.991 9.91015 194.9 10.1388C194.808 10.3675 194.725 10.5961 194.649 10.8248C194.482 11.2821 194.322 11.7547 194.17 12.2425C194.033 12.7151 193.904 13.1953 193.782 13.6831ZM189.221 23.0126C189.236 22.9821 189.244 22.9592 189.244 22.944C189.259 22.9135 189.282 22.883 189.312 22.8525V22.601C189.312 22.5095 189.32 22.4257 189.335 22.3495C189.335 22.2428 189.343 22.1589 189.358 22.0979C189.328 21.8845 189.343 21.7016 189.404 21.5492C189.419 21.412 189.426 21.2824 189.426 21.1604L189.472 20.7488C189.442 20.7183 189.426 20.6955 189.426 20.6802L189.335 20.4973C189.305 20.4668 189.282 20.4363 189.267 20.4058C189.267 20.3753 189.259 20.3449 189.244 20.3144C189.214 20.2381 189.176 20.1772 189.13 20.1314C189.099 20.0857 189.069 20.0323 189.039 19.9714C188.887 19.7427 188.742 19.5826 188.605 19.4912C188.545 19.4607 188.507 19.4454 188.491 19.4454C188.476 19.4302 188.461 19.4226 188.446 19.4226C188.431 19.4226 188.415 19.415 188.4 19.3997H188.218C188.187 19.415 188.157 19.4226 188.126 19.4226C188.111 19.4226 188.088 19.4302 188.058 19.4454C187.967 19.4759 187.898 19.5064 187.853 19.5369C187.822 19.5522 187.784 19.5674 187.739 19.5826C187.708 19.5979 187.67 19.6208 187.625 19.6512C187.594 19.6817 187.556 19.7122 187.511 19.7427C187.465 19.758 187.427 19.7808 187.397 19.8113C187.305 19.857 187.222 19.918 187.146 19.9942L187.077 20.0628C187.062 20.0628 187.039 20.0781 187.009 20.1086C186.979 20.1238 186.956 20.1391 186.941 20.1543C186.941 20.1695 186.925 20.1924 186.895 20.2229C186.728 20.3753 186.568 20.5354 186.416 20.7031C186.264 20.8708 186.112 21.0537 185.96 21.2519C185.884 21.3434 185.816 21.4348 185.755 21.5263C185.694 21.6178 185.625 21.7168 185.549 21.8235C185.473 21.915 185.413 22.0141 185.367 22.1208C185.337 22.1818 185.306 22.2351 185.276 22.2809C185.245 22.3266 185.215 22.38 185.185 22.4409L185.002 22.7611C184.957 22.8525 184.911 22.9516 184.865 23.0583L184.82 23.1498L184.797 23.2413L184.728 23.4013C184.668 23.4928 184.614 23.6148 184.569 23.7672C184.386 24.2093 184.227 24.6819 184.09 25.1849C183.953 25.7032 183.839 26.191 183.748 26.6484L183.702 27.0142C183.687 27.1362 183.679 27.2581 183.679 27.3801C183.664 27.502 183.657 27.6164 183.657 27.7231C183.672 27.8298 183.679 27.9365 183.679 28.0432C183.71 28.2566 183.755 28.4319 183.816 28.5691C183.847 28.6606 183.869 28.7216 183.885 28.7521L183.976 28.8435C184.022 28.8893 184.067 28.9121 184.113 28.9121C184.113 28.9274 184.128 28.935 184.158 28.935H184.25C184.25 28.9502 184.265 28.9579 184.295 28.9579C184.432 28.9579 184.607 28.8969 184.82 28.7749C185.017 28.6682 185.215 28.531 185.413 28.3633C185.504 28.2871 185.595 28.2033 185.686 28.1118C185.793 28.0203 185.892 27.9289 185.983 27.8374C186.074 27.7307 186.165 27.6316 186.256 27.5402C186.348 27.4487 186.431 27.342 186.507 27.22C186.675 27.0218 186.842 26.8084 187.009 26.5798C187.1 26.4578 187.184 26.3435 187.26 26.2368C187.351 26.1301 187.435 26.0157 187.511 25.8938C187.587 25.7718 187.663 25.6575 187.739 25.5508C187.815 25.4441 187.891 25.3297 187.967 25.2078C188.043 25.0858 188.111 24.9639 188.172 24.8419L188.4 24.4761C188.476 24.3541 188.545 24.2398 188.605 24.1331C188.666 24.0111 188.735 23.8891 188.811 23.7672L189.221 23.0126ZM200.245 33.5311C200.154 33.7751 200.063 34.0114 199.971 34.24C199.88 34.4534 199.781 34.6516 199.675 34.8345L199.401 35.4291C199.295 35.6272 199.188 35.8102 199.082 35.9779C198.991 36.1608 198.884 36.3361 198.763 36.5038L198.58 36.7324C198.535 36.8087 198.481 36.8849 198.421 36.9611L198.078 37.3041C198.048 37.3346 198.018 37.3498 197.987 37.3498L197.942 37.3956C197.926 37.4108 197.904 37.4184 197.873 37.4184C197.858 37.4337 197.843 37.4413 197.828 37.4413C197.828 37.4566 197.812 37.4642 197.782 37.4642C197.63 37.5251 197.508 37.5556 197.417 37.5556C197.28 37.5861 197.151 37.5861 197.029 37.5556C196.893 37.5404 196.786 37.5099 196.71 37.4642C196.619 37.4032 196.566 37.3651 196.551 37.3498C196.505 37.3041 196.482 37.2508 196.482 37.1898C196.467 37.1288 196.467 37.0297 196.482 36.8925C196.497 36.7858 196.535 36.6486 196.596 36.4809C196.657 36.3285 196.748 36.1684 196.87 36.0007L196.938 35.8635L196.984 35.8178L197.007 35.7492C197.037 35.7187 197.06 35.6806 197.075 35.6349L197.166 35.5434L197.349 35.3147C197.425 35.2538 197.501 35.1852 197.577 35.1089C197.653 35.0327 197.729 34.9641 197.805 34.9031C197.881 34.8422 197.957 34.7736 198.033 34.6973C198.2 34.5449 198.375 34.4001 198.557 34.2629L199.652 33.4397C199.834 33.3025 200.025 33.1729 200.222 33.051C200.283 33.0205 200.336 32.9824 200.382 32.9366C200.427 32.8909 200.481 32.8528 200.541 32.8223C200.45 33.0662 200.351 33.3025 200.245 33.5311Z" clip-rule="evenodd" fill-rule="evenodd"></path>
</svg>
