<svg viewBox="0.00 0.00 1024.00 1024.00" version="1.1" xmlns="http://www.w3.org/2000/svg">
<g stroke-linecap="butt" fill="none" stroke-width="2.00">
<path d="M 155.37 0.00
  Q 86.17 4.81 41.11 55.13
  Q 10.83 88.93 2.26 135.50
  Q 1.37 140.36 0.00 153.38" stroke="#fdfcf8"></path>
<path d="M 868.82 0.00
  Q 872.45 0.46 876.11 0.77
  C 904.19 3.13 932.03 13.76 954.50 29.75
  C 996.23 59.47 1021.51 105.51 1024.00 156.78" stroke="#fdfcf8"></path>
<path d="M 1024.00 192.01
  L 448.51 192.01
  A 0.51 0.50 -0.0 0 0 448.00 192.51
  L 447.99 447.50
  A 0.51 0.51 0.0 0 0 448.50 448.01
  L 1023.11 448.01
  Q 1023.60 448.01 1023.69 447.53
  L 1024.00 446.01" stroke="#fda794"></path>
<path d="M 1024.00 864.38
  C 1021.53 943.15 965.99 1006.91 888.99 1021.56
  C 881.70 1022.94 873.57 1023.42 865.88 1024.00" stroke="#fdfcf8"></path>
<path d="M 446.88 1024.00
  L 447.54 1023.72
  A 0.77 0.76 -11.8 0 0 448.00 1023.02
  L 448.00 448.50
  A 0.50 0.50 0.0 0 0 447.50 448.00
  L 192.53 448.00
  A 0.54 0.53 -90.0 0 0 192.00 448.54
  L 192.00 1024.00" stroke="#fda794"></path>
<path d="M 155.01 1024.00
  C 148.69 1023.24 141.84 1022.79 136.02 1021.73
  C 67.25 1009.20 14.53 957.05 2.24 888.01
  Q 1.47 883.71 0.00 870.38" stroke="#fdfcf8"></path>
</g>
<path d="M 0.00 0.00
  L 155.37 0.00
  Q 86.17 4.81 41.11 55.13
  Q 10.83 88.93 2.26 135.50
  Q 1.37 140.36 0.00 153.38
  L 0.00 0.00
  Z" fill="#ffffff"></path>
<path d="M 155.37 0.00
  L 868.82 0.00
  Q 872.45 0.46 876.11 0.77
  C 904.19 3.13 932.03 13.76 954.50 29.75
  C 996.23 59.47 1021.51 105.51 1024.00 156.78
  L 1024.00 192.01
  L 448.51 192.01
  A 0.51 0.50 -0.0 0 0 448.00 192.51
  L 447.99 447.50
  A 0.51 0.51 0.0 0 0 448.50 448.01
  L 1023.11 448.01
  Q 1023.60 448.01 1023.69 447.53
  L 1024.00 446.01
  L 1024.00 864.38
  C 1021.53 943.15 965.99 1006.91 888.99 1021.56
  C 881.70 1022.94 873.57 1023.42 865.88 1024.00
  L 446.88 1024.00
  L 447.54 1023.72
  A 0.77 0.76 -11.8 0 0 448.00 1023.02
  L 448.00 448.50
  A 0.50 0.50 0.0 0 0 447.50 448.00
  L 192.53 448.00
  A 0.54 0.53 -90.0 0 0 192.00 448.54
  L 192.00 1024.00
  L 155.01 1024.00
  C 148.69 1023.24 141.84 1022.79 136.02 1021.73
  C 67.25 1009.20 14.53 957.05 2.24 888.01
  Q 1.47 883.71 0.00 870.38
  L 0.00 153.38
  Q 1.37 140.36 2.26 135.50
  Q 10.83 88.93 41.11 55.13
  Q 86.17 4.81 155.37 0.00
  Z" fill="#fbf9f0"></path>
<path d="M 868.82 0.00
  L 1024.00 0.00
  L 1024.00 156.78
  C 1021.51 105.51 996.23 59.47 954.50 29.75
  C 932.03 13.76 904.19 3.13 876.11 0.77
  Q 872.45 0.46 868.82 0.00
  Z" fill="#ffffff"></path>
<path d="M 1024.00 192.01
  L 1024.00 446.01
  L 1023.69 447.53
  Q 1023.60 448.01 1023.11 448.01
  L 448.50 448.01
  A 0.51 0.51 0.0 0 1 447.99 447.50
  L 448.00 192.51
  A 0.51 0.50 -0.0 0 1 448.51 192.01
  L 1024.00 192.01
  Z" fill="#fe5537"></path>
<path d="M 446.88 1024.00
  L 192.00 1024.00
  L 192.00 448.54
  A 0.54 0.53 90.0 0 1 192.53 448.00
  L 447.50 448.00
  A 0.50 0.50 0.0 0 1 448.00 448.50
  L 448.00 1023.02
  A 0.77 0.76 -11.8 0 1 447.54 1023.72
  L 446.88 1024.00
  Z" fill="#fe5537"></path>
<path d="M 1024.00 864.38
  L 1024.00 1024.00
  L 865.88 1024.00
  C 873.57 1023.42 881.70 1022.94 888.99 1021.56
  C 965.99 1006.91 1021.53 943.15 1024.00 864.38
  Z" fill="#ffffff"></path>
<path d="M 0.00 870.38
  Q 1.47 883.71 2.24 888.01
  C 14.53 957.05 67.25 1009.20 136.02 1021.73
  C 141.84 1022.79 148.69 1023.24 155.01 1024.00
  L 0.00 1024.00
  L 0.00 870.38
  Z" fill="#ffffff"></path>
</svg>
