<svg viewBox="0.00 0.00 48.00 48.00" version="1.1" xmlns="http://www.w3.org/2000/svg">
<g stroke-linecap="butt" fill="none" stroke-width="2.00">
<path d="M 42.51 0.00
  Q 41.88 7.43 40.90 11.01
  Q 40.32 13.13 37.32 20.42" stroke="#eee6f5"></path>
<path d="M 37.32 20.42
  L 33.66 16.85
  A 0.46 0.45 -45.4 0 1 33.66 16.20
  L 37.26 12.58
  A 1.13 1.13 0.0 0 0 37.30 11.02
  L 37.01 10.70
  Q 36.11 9.70 35.16 10.65
  L 30.25 15.53
  A 1.32 1.31 44.7 0 0 30.27 17.41
  L 36.08 22.97" stroke="#8c929a"></path>
<path d="M 36.08 22.97
  Q 36.32 23.17 35.98 23.88
  C 35.49 24.92 34.69 24.94 34.46 26.35
  Q 34.38 26.84 34.01 27.18
  L 24.25 36.25
  Q 24.15 36.33 24.11 36.25
  Q 24.05 36.13 23.99 36.01
  Q 23.92 35.86 23.77 35.94
  C 21.51 37.12 19.72 38.91 17.48 39.78
  Q 9.25 42.99 0.24 43.40" stroke="#eee6f5"></path>
<path d="M 14.39 16.91
  L 10.86 20.46
  Q 10.17 21.15 10.75 21.93
  L 10.94 22.20
  A 1.36 1.35 49.3 0 0 12.99 22.36
  L 17.82 17.55
  A 1.49 1.48 44.7 0 0 17.81 15.44
  L 12.74 10.46
  A 1.02 1.02 0.0 0 0 11.37 10.41
  L 11.03 10.69
  Q 9.90 11.66 10.95 12.71
  L 14.39 16.13
  A 0.55 0.55 0.0 0 1 14.39 16.91" stroke="#8c929a"></path>
<path d="M 23.52 20.89
  Q 22.92 19.84 21.87 19.98
  A 1.50 1.50 0.0 0 0 20.94 22.46
  Q 24.04 25.96 27.71 22.82
  A 1.68 1.67 64.9 0 0 28.26 21.29
  Q 27.83 18.69 24.95 21.14
  Q 24.09 21.87 23.52 20.89" stroke="#8c929a"></path>
<path d="M 48.00 20.00
  C 45.65 21.12 45.22 24.28 44.33 25.88
  Q 40.77 32.26 35.31 37.17
  Q 35.23 37.24 35.20 37.33
  Q 35.14 37.48 35.12 37.62
  Q 35.08 37.87 34.88 38.01
  Q 31.50 40.36 28.15 42.76
  Q 27.47 43.24 24.07 45.03
  Q 21.94 46.14 20.37 48.00" stroke="#d8beee"></path>
<path d="M 36.08 22.97
  Q 38.02 22.08 37.32 20.42" stroke="#807d96"></path>
<path d="M 48.00 26.64
  L 42.56 33.91
  Q 42.37 34.16 42.08 34.26
  Q 41.94 34.32 41.81 34.38
  Q 41.56 34.50 41.36 34.78
  Q 37.65 39.98 35.14 41.54
  Q 30.76 44.25 27.20 48.00" stroke="#c49be7"></path>
<path d="M 48.00 34.59
  L 34.61 48.00" stroke="#ae76df"></path>
</g>
<path d="M 4.89 0.00
  L 42.51 0.00
  Q 41.88 7.43 40.90 11.01
  Q 40.32 13.13 37.32 20.42
  L 33.66 16.85
  A 0.46 0.45 -45.4 0 1 33.66 16.20
  L 37.26 12.58
  A 1.13 1.13 0.0 0 0 37.30 11.02
  L 37.01 10.70
  Q 36.11 9.70 35.16 10.65
  L 30.25 15.53
  A 1.32 1.31 44.7 0 0 30.27 17.41
  L 36.08 22.97
  Q 36.32 23.17 35.98 23.88
  C 35.49 24.92 34.69 24.94 34.46 26.35
  Q 34.38 26.84 34.01 27.18
  L 24.25 36.25
  Q 24.15 36.33 24.11 36.25
  Q 24.05 36.13 23.99 36.01
  Q 23.92 35.86 23.77 35.94
  C 21.51 37.12 19.72 38.91 17.48 39.78
  Q 9.25 42.99 0.24 43.40
  Q 0.24 43.28 0.00 43.13
  L 0.00 4.78
  Q 1.09 0.96 4.89 0.00
  Z
  M 14.39 16.91
  L 10.86 20.46
  Q 10.17 21.15 10.75 21.93
  L 10.94 22.20
  A 1.36 1.35 49.3 0 0 12.99 22.36
  L 17.82 17.55
  A 1.49 1.48 44.7 0 0 17.81 15.44
  L 12.74 10.46
  A 1.02 1.02 0.0 0 0 11.37 10.41
  L 11.03 10.69
  Q 9.90 11.66 10.95 12.71
  L 14.39 16.13
  A 0.55 0.55 0.0 0 1 14.39 16.91
  Z
  M 23.52 20.89
  Q 22.92 19.84 21.87 19.98
  A 1.50 1.50 0.0 0 0 20.94 22.46
  Q 24.04 25.96 27.71 22.82
  A 1.68 1.67 64.9 0 0 28.26 21.29
  Q 27.83 18.69 24.95 21.14
  Q 24.09 21.87 23.52 20.89
  Z" fill="#fafaf9"></path>
<path d="M 42.51 0.00
  L 43.22 0.00
  Q 47.01 1.04 48.00 4.89
  L 48.00 20.00
  C 45.65 21.12 45.22 24.28 44.33 25.88
  Q 40.77 32.26 35.31 37.17
  Q 35.23 37.24 35.20 37.33
  Q 35.14 37.48 35.12 37.62
  Q 35.08 37.87 34.88 38.01
  Q 31.50 40.36 28.15 42.76
  Q 27.47 43.24 24.07 45.03
  Q 21.94 46.14 20.37 48.00
  L 4.82 48.00
  Q 0.89 46.90 0.24 43.40
  Q 9.25 42.99 17.48 39.78
  C 19.72 38.91 21.51 37.12 23.77 35.94
  Q 23.92 35.86 23.99 36.01
  Q 24.05 36.13 24.11 36.25
  Q 24.15 36.33 24.25 36.25
  L 34.01 27.18
  Q 34.38 26.84 34.46 26.35
  C 34.69 24.94 35.49 24.92 35.98 23.88
  Q 36.32 23.17 36.08 22.97
  Q 38.02 22.08 37.32 20.42
  Q 40.32 13.13 40.90 11.01
  Q 41.88 7.43 42.51 0.00
  Z" fill="#e2d1f1"></path>
<path d="M 14.39 16.13
  L 10.95 12.71
  Q 9.90 11.66 11.03 10.69
  L 11.37 10.41
  A 1.02 1.02 0.0 0 1 12.74 10.46
  L 17.81 15.44
  A 1.49 1.48 44.7 0 1 17.82 17.55
  L 12.99 22.36
  A 1.36 1.35 49.3 0 1 10.94 22.20
  L 10.75 21.93
  Q 10.17 21.15 10.86 20.46
  L 14.39 16.91
  A 0.55 0.55 0.0 0 0 14.39 16.13
  Z" fill="#1e293b"></path>
<path d="M 37.32 20.42
  Q 38.02 22.08 36.08 22.97
  L 30.27 17.41
  A 1.32 1.31 44.7 0 1 30.25 15.53
  L 35.16 10.65
  Q 36.11 9.70 37.01 10.70
  L 37.30 11.02
  A 1.13 1.13 0.0 0 1 37.26 12.58
  L 33.66 16.20
  A 0.46 0.45 -45.4 0 0 33.66 16.85
  L 37.32 20.42
  Z" fill="#1e293b"></path>
<path d="M 23.52 20.89
  Q 24.09 21.87 24.95 21.14
  Q 27.83 18.69 28.26 21.29
  A 1.68 1.67 64.9 0 1 27.71 22.82
  Q 24.04 25.96 20.94 22.46
  A 1.50 1.50 0.0 0 1 21.87 19.98
  Q 22.92 19.84 23.52 20.89
  Z" fill="#1e293b"></path>
<path d="M 48.00 20.00
  L 48.00 26.64
  L 42.56 33.91
  Q 42.37 34.16 42.08 34.26
  Q 41.94 34.32 41.81 34.38
  Q 41.56 34.50 41.36 34.78
  Q 37.65 39.98 35.14 41.54
  Q 30.76 44.25 27.20 48.00
  L 20.37 48.00
  Q 21.94 46.14 24.07 45.03
  Q 27.47 43.24 28.15 42.76
  Q 31.50 40.36 34.88 38.01
  Q 35.08 37.87 35.12 37.62
  Q 35.14 37.48 35.20 37.33
  Q 35.23 37.24 35.31 37.17
  Q 40.77 32.26 44.33 25.88
  C 45.22 24.28 45.65 21.12 48.00 20.00
  Z" fill="#cdabea"></path>
<path d="M 48.00 26.64
  L 48.00 34.59
  L 34.61 48.00
  L 27.20 48.00
  Q 30.76 44.25 35.14 41.54
  Q 37.65 39.98 41.36 34.78
  Q 41.56 34.50 41.81 34.38
  Q 41.94 34.32 42.08 34.26
  Q 42.37 34.16 42.56 33.91
  L 48.00 26.64
  Z" fill="#ba8be3"></path>
<path d="M 48.00 34.59
  L 48.00 43.21
  Q 46.89 47.01 43.11 48.00
  L 34.61 48.00
  L 48.00 34.59
  Z" fill="#a260da"></path>
</svg>
