<svg viewBox="0.00 0.00 240.00 240.00" version="1.1" xmlns="http://www.w3.org/2000/svg">
<path d="M 195.31 75.91
  Q 208.71 89.49 222.28 102.91
  Q 229.69 110.24 231.48 114.11
  C 241.31 135.39 213.86 155.47 196.67 138.33
  Q 173.48 115.22 150.30 92.12
  C 143.24 85.09 140.23 76.03 144.62 66.72
  Q 146.55 62.61 154.00 55.16
  Q 174.93 34.26 195.86 13.35
  Q 201.32 7.90 208.28 6.79
  C 229.29 3.45 241.32 29.04 226.68 43.68
  Q 204.59 65.78 195.31 75.08
  Q 194.90 75.49 195.31 75.91
  Z" fill="#000000"></path>
<rect rx="21.38" height="300.52" width="43.18" transform="translate(120.43,119.34) rotate(-45.0)" y="-150.26" x="-21.59" fill="#000000"></rect>
<rect rx="21.26" height="177.62" width="43.22" transform="translate(76.76,163.08) rotate(-45.0)" y="-88.81" x="-21.61" fill="#000000"></rect>
<path d="M 36.06 181.91
  C 41.58 183.78 45.56 188.93 49.67 192.90
  Q 54.39 197.46 56.11 200.21
  C 62.02 209.66 59.95 221.78 51.35 228.76
  C 43.22 235.34 30.25 234.54 23.09 227.40
  C 18.31 222.63 11.42 217.06 8.73 211.32
  C 3.81 200.82 7.86 188.83 17.63 183.11
  Q 25.68 178.40 36.06 181.91
  Z" fill="#000000"></path>
</svg>
