<svg viewBox="0.00 0.00 256.00 256.00" version="1.1" xmlns="http://www.w3.org/2000/svg">
<g stroke-linecap="butt" fill="none" stroke-width="2.00">
<path d="M 119.8126 87.4633
  A 11.38 11.38 0.0 0 0 108.3534 76.1630
  L 106.2535 76.1777
  A 11.38 11.38 0.0 0 0 94.9532 87.6368
  L 94.9874 92.5367
  A 11.38 11.38 0.0 0 0 106.4466 103.8370
  L 108.5465 103.8223
  A 11.38 11.38 0.0 0 0 119.8468 92.3632
  L 119.8126 87.4633" stroke="#808080"></path>
<path d="M 155.3783 87.6035
  A 11.41 11.41 0.0 0 0 144.0082 76.1537
  L 141.9282 76.1465
  A 11.41 11.41 0.0 0 0 130.4785 87.5166
  L 130.4617 92.3165
  A 11.41 11.41 0.0 0 0 141.8318 103.7663
  L 143.9118 103.7735
  A 11.41 11.41 0.0 0 0 155.3615 92.4034
  L 155.3783 87.6035" stroke="#808080"></path>
<path d="M 100.25 118.74
  C 100.34 113.12 98.02 110.86 92.54 110.66
  Q 85.57 110.40 85.33 117.98
  Q 84.93 130.63 85.62 148.74
  C 86.59 174.10 106.50 186.15 130.59 183.75
  C 145.04 182.31 157.59 175.30 162.30 161.04
  Q 164.25 155.15 164.66 141.26
  Q 165.04 128.29 164.61 116.98
  C 164.47 113.30 162.15 111.11 158.60 110.78
  C 153.17 110.27 149.27 112.47 149.82 118.65
  A 0.55 0.55 0.0 0 1 149.27 119.25
  L 100.75 119.25
  Q 100.24 119.25 100.25 118.74" stroke="#808080"></path>
<path d="M 149.75 136.50
  L 100.49 136.50
  A 0.25 0.25 0.0 0 0 100.24 136.75
  L 100.24 143.52
  A 21.24 21.20 -0.0 0 0 121.48 164.72
  L 128.76 164.72
  A 21.24 21.20 0.0 0 0 150.00 143.52
  L 150.00 136.75
  A 0.25 0.25 0.0 0 0 149.75 136.50" stroke="#808080"></path>
</g>
<path d="M 0.00 0.00
  L 256.00 0.00
  L 256.00 256.00
  L 0.00 256.00
  L 0.00 0.00
  Z
  M 119.8126 87.4633
  A 11.38 11.38 0.0 0 0 108.3534 76.1630
  L 106.2535 76.1777
  A 11.38 11.38 0.0 0 0 94.9532 87.6368
  L 94.9874 92.5367
  A 11.38 11.38 0.0 0 0 106.4466 103.8370
  L 108.5465 103.8223
  A 11.38 11.38 0.0 0 0 119.8468 92.3632
  L 119.8126 87.4633
  Z
  M 155.3783 87.6035
  A 11.41 11.41 0.0 0 0 144.0082 76.1537
  L 141.9282 76.1465
  A 11.41 11.41 0.0 0 0 130.4785 87.5166
  L 130.4617 92.3165
  A 11.41 11.41 0.0 0 0 141.8318 103.7663
  L 143.9118 103.7735
  A 11.41 11.41 0.0 0 0 155.3615 92.4034
  L 155.3783 87.6035
  Z
  M 100.25 118.74
  C 100.34 113.12 98.02 110.86 92.54 110.66
  Q 85.57 110.40 85.33 117.98
  Q 84.93 130.63 85.62 148.74
  C 86.59 174.10 106.50 186.15 130.59 183.75
  C 145.04 182.31 157.59 175.30 162.30 161.04
  Q 164.25 155.15 164.66 141.26
  Q 165.04 128.29 164.61 116.98
  C 164.47 113.30 162.15 111.11 158.60 110.78
  C 153.17 110.27 149.27 112.47 149.82 118.65
  A 0.55 0.55 0.0 0 1 149.27 119.25
  L 100.75 119.25
  Q 100.24 119.25 100.25 118.74
  Z" fill="#ffffff"></path>
<rect rx="11.38" height="27.66" width="24.86" transform="translate(107.40,90.00) rotate(-0.4)" y="-13.83" x="-12.43" fill="#000000"></rect>
<rect rx="11.41" height="27.62" width="24.90" transform="translate(142.92,89.96) rotate(0.2)" y="-13.81" x="-12.45" fill="#000000"></rect>
<path d="M 100.75 119.25
  L 149.27 119.25
  A 0.55 0.55 0.0 0 0 149.82 118.65
  C 149.27 112.47 153.17 110.27 158.60 110.78
  C 162.15 111.11 164.47 113.30 164.61 116.98
  Q 165.04 128.29 164.66 141.26
  Q 164.25 155.15 162.30 161.04
  C 157.59 175.30 145.04 182.31 130.59 183.75
  C 106.50 186.15 86.59 174.10 85.62 148.74
  Q 84.93 130.63 85.33 117.98
  Q 85.57 110.40 92.54 110.66
  C 98.02 110.86 100.34 113.12 100.25 118.74
  Q 100.24 119.25 100.75 119.25
  Z
  M 149.75 136.50
  L 100.49 136.50
  A 0.25 0.25 0.0 0 0 100.24 136.75
  L 100.24 143.52
  A 21.24 21.20 -0.0 0 0 121.48 164.72
  L 128.76 164.72
  A 21.24 21.20 0.0 0 0 150.00 143.52
  L 150.00 136.75
  A 0.25 0.25 0.0 0 0 149.75 136.50
  Z" fill="#000000"></path>
<path d="M 149.75 136.50
  A 0.25 0.25 0.0 0 1 150.00 136.75
  L 150.00 143.52
  A 21.24 21.20 -0.0 0 1 128.76 164.72
  L 121.48 164.72
  A 21.24 21.20 -0.0 0 1 100.24 143.52
  L 100.24 136.75
  A 0.25 0.25 0.0 0 1 100.49 136.50
  L 149.75 136.50
  Z" fill="#ffffff"></path>
</svg>
