<svg viewBox="0.00 0.00 1448.00 1448.00" version="1.1" xmlns="http://www.w3.org/2000/svg">
<path d="M 150.63 0.00
  L 651.49 0.00
  C 692.01 3.56 724.25 36.15 724.25 77.25
  Q 724.24 322.38 724.25 567.50
  Q 724.25 580.85 725.39 587.44
  C 730.93 619.50 756.12 645.02 788.08 650.80
  Q 794.87 652.03 808.00 652.03
  Q 1046.99 652.03 1285.99 652.03
  Q 1299.58 652.03 1305.95 653.08
  C 1338.60 658.45 1364.23 684.62 1369.65 717.07
  Q 1370.76 723.66 1370.76 737.00
  Q 1370.75 977.88 1370.75 1218.76
  Q 1370.75 1232.35 1369.73 1238.69
  C 1364.53 1270.96 1339.28 1296.89 1307.17 1302.79
  Q 1300.37 1304.04 1287.24 1304.04
  Q 938.87 1304.04 590.50 1304.04
  Q 567.50 1304.04 549.99 1316.42
  Q 545.08 1319.89 535.21 1329.85
  Q 485.97 1379.51 436.73 1429.18
  Q 427.05 1438.94 422.04 1441.90
  Q 413.51 1446.92 403.12 1448.00
  L 396.01 1448.00
  Q 385.82 1446.86 377.41 1441.95
  Q 372.35 1438.99 362.96 1429.51
  Q 313.34 1379.46 263.70 1329.43
  Q 253.94 1319.59 248.89 1316.07
  Q 231.75 1304.09 209.75 1304.07
  Q 185.62 1304.04 161.49 1304.04
  Q 148.22 1304.05 141.57 1302.86
  C 109.79 1297.18 84.80 1271.81 78.99 1240.17
  Q 77.74 1233.35 77.74 1220.25
  Q 77.74 652.50 77.74 84.75
  Q 77.74 71.25 78.82 64.81
  C 84.88 28.83 114.35 3.14 150.63 0.00
  Z" fill="#f08776"></path>
<path d="M 871.87 0.00
  L 1327.25 0.00
  C 1347.66 2.06 1364.59 16.13 1369.32 35.87
  Q 1370.76 41.85 1370.76 55.75
  Q 1370.75 274.52 1370.75 493.28
  C 1370.75 506.92 1369.54 516.57 1362.33 526.77
  Q 1348.14 546.86 1322.75 546.88
  Q 1099.62 547.05 876.50 547.08
  C 848.21 547.09 828.28 525.85 828.28 497.50
  Q 828.29 272.88 828.22 48.25
  C 828.21 22.68 846.28 2.94 871.87 0.00
  Z" fill="#f7b6a7"></path>
</svg>
