<svg viewBox="0 0 48 48" xmlns="http://www.w3.org/2000/svg"><g fill="none" stroke-width="2"><path d="m17.46 0-.26 3.4q-.04.42.36.57.45.15.34.68-.07.31.23.43.22.09.35.06.05-.01-.01-.02-.52-.03-.99.1" stroke="#849df2"/><path d="M17.48 5.22c-2.34.24-4.67 1.78-5.59 4.12-.46 1.17-1.21 2.03-1.54 3.09q-.78 2.57-.7 4.86a2.26 2.25 73.6 0 1-1.09 2L.25 24.27" stroke="#798ff4"/><path d="m24.89 0 .58 4.1q.07.44.41.72 1.39 1.12.52 2.39" stroke="#c491dc"/><path d="m26.4 7.21-10.46.04" stroke="#ccccf4"/><path d="M15.94 7.25q.53-1.27 1.54-2.03" stroke="#918eee"/><path d="M47.79 21.05q-1.14-.01-.94 2.13a.85.85 0 0 1-.85.93h-1.38q-.13 0-.12-.13.02-.13.06-.28.06-.18-.13-.22l-4.01-.68a1.49 1.48 5 0 1-1.24-1.47q.02-1.8-.55-3.57-.12-.37-.15.02-.16 2.02-.09 4.1h-.03q-.01-.01-.01-.02.24-4.6-.65-9.32a.66.66 0 0 0-1.16-.3l.15.55" stroke="#e66cc9"/><path d="M36.69 12.79c-1.27-6.02-5.3-5.57-10.29-5.58" stroke="#f4c1e4"/><path d="M15.94 7.25q-4.08 1.36-4.27 6.25-.22 6.01-.35 11.65" stroke="#c1bef6"/><path d="M11.32 25.15q-.65-.46-1.22 1.1c-.41 1.14-.09 2.3-.84 3.53a.14.13-55.2 0 1-.19.04q-.1-.08-.27-.06-.09.01-.08.1.08 1.04-.73 1.47c-1.39.74-2.87 1.21-4.14 2.19Q2.31 34.71.4 35.73" stroke="#9176ec"/><path d="M36.69 12.79q.32 11.52-.01 18.71c-.13 2.99-2.11 5.89-5.32 6.16q-1.81.15-3.32.01" stroke="#eea7e2"/><path d="M28.04 37.67q-7.32.46-13.66-.47" stroke="#daaaed"/><path d="M14.38 37.2c-3.72-4.03-2.67-7.36-3.06-12.05" stroke="#cdb4f3"/><path d="M16.135 10.124a.83.69-26.2 0 0-1.05-.253.83.69-26.2 0 0-.44.985.83.69-26.2 0 0 1.05.253.83.69-26.2 0 0 .44-.985M19 11.11q.49-.12.49-.65a.65.64-79.3 0 0-.4-.6q-.25-.09-.5-.08a.67.67 0 0 0-.62.84q.2.7 1.03.49M32.62 30.67c4.16-2.5 3.34-8.33 2.93-12.46-.34-3.38-2.19-4.64-5.58-4.65q-6.11 0-12.22-.06c-3.98-.04-4.85 2.54-4.87 6.1-.02 3.98-1.48 11.65 4.87 11.5 3.3-.07 7.06-.51 10.16.71q2.04.81 3.99 1.88.44.24.81-.1.35-.31.14-.85-.28-.72-.5-1.28a.65.64 63.9 0 1 .27-.79" stroke="#96b9fd"/><path d="M19.1 48q.88-.58 1.16-2.64.16-1.21 2.63-4.29c.91-1.14 2.53-.7 3.57-1.55q.95-.78 1.58-1.85" stroke="#cc55d2"/><path d="M29.96 19.73a.61.61 0 0 0-.611-.61l-10.4.02a.61.61 0 0 0-.61.61l.001.5a.61.61 0 0 0 .611.61l10.4-.02a.61.61 0 0 0 .61-.61l-.001-.5M30 23.17a.72.72 0 0 0-.723-.718l-10.34.036a.72.72 0 0 0-.717.723v.08a.72.72 0 0 0 .723.717l10.34-.036a.72.72 0 0 0 .717-.723v-.08M24.48 26.267a.78.78 0 0 0-.789-.771l-4.64.048a.78.78 0 0 0-.771.788v.06a.78.78 0 0 0 .789.772l4.64-.048a.78.78 0 0 0 .771-.788v-.06" stroke="#8bb1fb"/><path d="M14.38 37.2q-.43.64-.97.72-.39.06-.98-.42-.51-.41-1.06-.72-.31-.16-.46.15-.11.23-.05.39.2.51-.27.79l-3.75 2.22a.31.23-53 0 1-.14.04q-.75-.01-.9.59-.1.41-.52.41h-.72q-.45 0-.45.46.01.2.03.38.04.38-.34.42-.17.01-.38-.01" stroke="#ab62e3"/></g><path d="M0 0h13.58Q1.09 2.2 0 15.3V0Z" fill-opacity=".004"/><path d="M13.58 0h3.88l-.26 3.4q-.04.42.36.57.45.15.34.68-.07.31.23.43.22.09.35.06.05-.01-.01-.02-.52-.03-.99.1c-2.34.24-4.67 1.78-5.59 4.12-.46 1.17-1.21 2.03-1.54 3.09q-.78 2.57-.7 4.86a2.26 2.25 73.6 0 1-1.09 2L.25 24.27 0 17.87V15.3Q1.09 2.2 13.58 0Z" fill="#6c9df8"/><path d="M17.46 0h7.43l.58 4.1q.07.44.41.72 1.39 1.12.52 2.39l-10.46.04q.53-1.27 1.54-2.03.47-.13.99-.1.06.01.01.02-.13.03-.35-.06-.3-.12-.23-.43.11-.53-.34-.68-.4-.15-.36-.57l.26-3.4Z" fill="#9c9cec"/><path d="M24.89 0h9.28q9.66 1.3 12.73 9.43c1.3 3.45.92 7.75.89 11.62q-1.14-.01-.94 2.13a.85.85 0 0 1-.85.93h-1.38q-.13 0-.12-.13.02-.13.06-.28.06-.18-.13-.22l-4.01-.68a1.49 1.48 5 0 1-1.24-1.47q.02-1.8-.55-3.57-.12-.37-.15.02-.16 2.02-.09 4.1h-.03q-.01-.01-.01-.02.24-4.6-.65-9.32a.66.66 0 0 0-1.16-.3l.15.55c-1.27-6.02-5.3-5.57-10.29-5.58q.87-1.27-.52-2.39-.34-.28-.41-.72L24.89 0Z" fill="#ec85cb"/><path d="M34.17 0H48v29.64l-.21-8.59c.03-3.87.41-8.17-.89-11.62Q43.83 1.3 34.17 0Z" fill-opacity=".004"/><path d="M17.48 5.22q-1.01.76-1.54 2.03-4.08 1.36-4.27 6.25-.22 6.01-.35 11.65-.65-.46-1.22 1.1c-.41 1.14-.09 2.3-.84 3.53a.14.13-55.2 0 1-.19.04q-.1-.08-.27-.06-.09.01-.08.1.08 1.04-.73 1.47c-1.39.74-2.87 1.21-4.14 2.19Q2.31 34.71.4 35.73L.25 24.27l8.31-4.98a2.26 2.25 73.6 0 0 1.09-2q-.08-2.29.7-4.86c.33-1.06 1.08-1.92 1.54-3.09.92-2.34 3.25-3.88 5.59-4.12Z" fill="#8580ef"/><path d="m15.94 7.25 10.46-.04c4.99.01 9.02-.44 10.29 5.58q.32 11.52-.01 18.71c-.13 2.99-2.11 5.89-5.32 6.16q-1.81.15-3.32.01-7.32.46-13.66-.47c-3.72-4.03-2.67-7.36-3.06-12.05q.13-5.64.35-11.65.19-4.89 4.27-6.25Zm.195 2.874a.83.69-26.2 0 0-1.05-.253.83.69-26.2 0 0-.44.985.83.69-26.2 0 0 1.05.253.83.69-26.2 0 0 .44-.985ZM19 11.11q.49-.12.49-.65a.65.64-79.3 0 0-.4-.6q-.25-.09-.5-.08a.67.67 0 0 0-.62.84q.2.7 1.03.49Zm13.62 19.56c4.16-2.5 3.34-8.33 2.93-12.46-.34-3.38-2.19-4.64-5.58-4.65q-6.11 0-12.22-.06c-3.98-.04-4.85 2.54-4.87 6.1-.02 3.98-1.48 11.65 4.87 11.5 3.3-.07 7.06-.51 10.16.71q2.04.81 3.99 1.88.44.24.81-.1.35-.31.14-.85-.28-.72-.5-1.28a.65.64 63.9 0 1 .27-.79Z" fill="#fcfcfc"/><ellipse ry=".69" rx=".83" transform="rotate(-26.2 30.234 -27.822)" fill="#2f75fd"/><path d="M19 11.11q-.83.21-1.03-.49a.67.67 0 0 1 .62-.84q.25-.01.5.08a.65.64-79.3 0 1 .4.6q0 .53-.49.65Z" fill="#2f75fd"/><path d="m47.79 21.05.21 8.59v2.1Q48.06 45.37 35.18 48H19.1q.88-.58 1.16-2.64.16-1.21 2.63-4.29c.91-1.14 2.53-.7 3.57-1.55q.95-.78 1.58-1.85 1.51.14 3.32-.01c3.21-.27 5.19-3.17 5.32-6.16q.33-7.19.01-18.71l-.15-.55a.66.66 0 0 1 1.16.3q.89 4.72.65 9.32 0 .01.01.02h.03q-.07-2.08.09-4.1.03-.39.15-.02.57 1.77.55 3.57a1.49 1.48 5 0 0 1.24 1.47l4.01.68q.19.04.13.22-.04.15-.06.28-.01.13.12.13H46a.85.85 0 0 0 .85-.93q-.2-2.14.94-2.13Z" fill="#e052c7"/><path d="M32.35 31.46q.22.56.5 1.28.21.54-.14.85-.37.34-.81.1-1.95-1.07-3.99-1.88c-3.1-1.22-6.86-.78-10.16-.71-6.35.15-4.89-7.52-4.87-11.5.02-3.56.89-6.14 4.87-6.1q6.11.06 12.22.06c3.39.01 5.24 1.27 5.58 4.65.41 4.13 1.23 9.96-2.93 12.46a.65.64 63.9 0 0-.27.79Zm-2.39-11.73a.61.61 0 0 0-.611-.61l-10.4.02a.61.61 0 0 0-.61.61l.001.5a.61.61 0 0 0 .611.61l10.4-.02a.61.61 0 0 0 .61-.61l-.001-.5Zm.04 3.44a.72.72 0 0 0-.723-.718l-10.34.036a.72.72 0 0 0-.717.723v.08a.72.72 0 0 0 .723.717l10.34-.036a.72.72 0 0 0 .717-.723v-.08Zm-5.52 3.097a.78.78 0 0 0-.789-.771l-4.64.048a.78.78 0 0 0-.771.788v.06a.78.78 0 0 0 .789.772l4.64-.048a.78.78 0 0 0 .771-.788v-.06Z" fill="#2f75fd"/><path d="m0 17.87.25 6.4.15 11.46q.87 4.28 3.02 6.89 3.61 4.44 9.63 5.38H0V17.87Z" fill-opacity=".004"/><rect rx=".61" height="1.72" width="11.62" transform="rotate(-.1 11465.498 -13826.932)" y="-.86" x="-5.81" fill="#e7edf9"/><rect rx=".72" height="1.52" width="11.78" transform="rotate(-.2 6666.953 -6895.384)" y="-.76" x="-5.89" fill="#e7edf9"/><path d="M11.32 25.15c.39 4.69-.66 8.02 3.06 12.05q-.43.64-.97.72-.39.06-.98-.42-.51-.41-1.06-.72-.31-.16-.46.15-.11.23-.05.39.2.51-.27.79l-3.75 2.22a.31.23-53 0 1-.14.04q-.75-.01-.9.59-.1.41-.52.41h-.72q-.45 0-.45.46.01.2.03.38.04.38-.34.42-.17.01-.38-.01Q1.27 40.01.4 35.73q1.91-1.02 3.45-2.21c1.27-.98 2.75-1.45 4.14-2.19q.81-.43.73-1.47-.01-.09.08-.1.17-.02.27.06a.14.13-55.2 0 0 .19-.04c.75-1.23.43-2.39.84-3.53q.57-1.56 1.22-1.1Z" fill="#9d6be9"/><rect rx=".78" height="1.62" width="6.2" transform="rotate(-.6 2524.997 -2028.456)" y="-.81" x="-3.1" fill="#e7edf9"/><path d="M48 31.74V48H35.18Q48.06 45.37 48 31.74Z" fill-opacity=".004"/><path d="M14.38 37.2q6.34.93 13.66.47-.63 1.07-1.58 1.85c-1.04.85-2.66.41-3.57 1.55q-2.47 3.08-2.63 4.29-.28 2.06-1.16 2.64h-6.05q-6.02-.94-9.63-5.38.21.02.38.01.38-.04.34-.42-.02-.18-.03-.38 0-.46.45-.46h.72q.42 0 .52-.41.15-.6.9-.59a.31.23-53 0 0 .14-.04l3.75-2.22q.47-.28.27-.79-.06-.16.05-.39.15-.31.46-.15.55.31 1.06.72.59.48.98.42.54-.08.97-.72Z" fill="#b858dd"/></svg>