<svg viewBox="0.00 0.00 48.00 48.00" version="1.1" xmlns="http://www.w3.org/2000/svg">
<g stroke-linecap="butt" fill="none" stroke-width="2.00">
<path d="M 30.02 13.36
  L 26.00 17.42" stroke="#a885f4"></path>
<path d="M 26.00 17.42
  Q 25.07 18.26 23.79 18.02
  A 0.26 0.25 -17.1 0 0 23.56 18.45
  L 32.59 27.49
  Q 33.05 27.94 33.48 27.47
  L 35.28 25.56" stroke="#a8a4ff"></path>
<path d="M 35.28 25.56
  L 38.66 22.15" stroke="#a885f4"></path>
<path d="M 38.66 22.15
  L 41.35 19.60
  Q 41.82 19.16 41.37 18.70
  L 33.54 10.68
  Q 33.12 10.26 32.71 10.68
  L 30.02 13.36" stroke="#a861e6"></path>
<path d="M 38.66 22.15
  Q 36.30 19.32 33.64 16.80
  C 32.62 15.84 31.80 14.30 30.02 13.36" stroke="#ff9ddb"></path>
<path d="M 35.28 25.56
  L 28.38 19.10
  Q 28.07 18.81 27.85 18.44
  Q 27.32 17.53 26.00 17.42" stroke="#ffe0f4"></path>
<path d="M 16.99 16.23
  L 17.68 17.39
  Q 18.03 17.99 17.36 18.17
  Q 16.89 18.30 16.41 17.83
  Q 15.08 16.54 13.25 14.99
  A 0.56 0.56 0.0 0 0 12.62 14.92
  L 12.33 15.07
  A 0.80 0.80 0.0 0 0 12.13 16.34
  L 17.20 21.52
  Q 17.35 21.67 17.34 21.88
  Q 17.33 22.05 17.29 22.17" stroke="#8ca2d7"></path>
<path d="M 17.29 22.17
  Q 17.08 22.72 16.42 22.67" stroke="#a8a4ff"></path>
<path d="M 16.42 22.67
  L 11.37 17.79" stroke="#8ca2d7"></path>
<path d="M 11.37 17.79
  Q 10.40 16.48 9.14 15.67
  Q 8.69 15.38 8.21 15.63
  Q 7.75 15.86 7.62 16.32
  Q 7.47 16.84 7.94 17.45
  Q 8.49 18.18 9.28 18.89" stroke="#609d94"></path>
<path d="M 9.28 18.89
  Q 10.65 19.94 10.69 20.05
  Q 12.15 23.53 9.41 21.08
  L 7.45 19.33
  A 0.55 0.54 -49.1 0 0 6.68 19.39
  L 6.44 19.67
  Q 5.94 20.26 6.49 20.82
  L 12.17 26.54" stroke="#8ca2d7"></path>
<path d="M 12.17 26.54
  L 22.85 37.43
  Q 23.26 37.84 23.67 37.43
  L 30.27 30.81
  Q 32.06 29.01 30.27 27.21
  L 21.75 18.65" stroke="#a8a4ff"></path>
<path d="M 21.75 18.65
  L 18.26 15.23" stroke="#8ca2d7"></path>
<path d="M 18.26 15.23
  Q 16.15 12.52 14.76 11.80
  Q 14.00 11.40 13.64 12.31
  A 0.70 0.69 -57.0 0 0 13.79 13.06
  L 16.99 16.23" stroke="#609d94"></path>
<path d="M 18.26 15.23
  Q 18.05 16.32 16.99 16.23" stroke="#9cf66c"></path>
<path d="M 21.75 18.65
  L 17.29 22.17" stroke="#e4fdd7"></path>
<path d="M 16.42 22.67
  Q 15.59 23.29 15.13 24.34
  Q 14.93 24.79 14.46 24.92
  Q 13.05 25.30 12.17 26.54" stroke="#e4fdd7"></path>
<path d="M 11.37 17.79
  L 9.28 18.89" stroke="#9cf66c"></path>
<path d="M 11.3108 14.2612
  A 1.41 1.06 47.6 0 0 11.1428 12.5052
  A 1.41 1.06 47.6 0 0 9.4092 12.1788
  A 1.41 1.06 47.6 0 0 9.5772 13.9348
  A 1.41 1.06 47.6 0 0 11.3108 14.2612" stroke="#609d94"></path>
</g>
<path d="M 9.64 0.00
  L 38.47 0.00
  Q 46.60 1.85 48.00 9.87
  L 48.00 38.47
  Q 46.24 46.39 38.37 48.00
  L 9.52 48.00
  Q 1.44 46.21 0.00 38.12
  L 0.00 9.76
  Q 1.52 1.71 9.64 0.00
  Z
  M 30.02 13.36
  L 26.00 17.42
  Q 25.07 18.26 23.79 18.02
  A 0.26 0.25 -17.1 0 0 23.56 18.45
  L 32.59 27.49
  Q 33.05 27.94 33.48 27.47
  L 35.28 25.56
  L 38.66 22.15
  L 41.35 19.60
  Q 41.82 19.16 41.37 18.70
  L 33.54 10.68
  Q 33.12 10.26 32.71 10.68
  L 30.02 13.36
  Z
  M 16.99 16.23
  L 17.68 17.39
  Q 18.03 17.99 17.36 18.17
  Q 16.89 18.30 16.41 17.83
  Q 15.08 16.54 13.25 14.99
  A 0.56 0.56 0.0 0 0 12.62 14.92
  L 12.33 15.07
  A 0.80 0.80 0.0 0 0 12.13 16.34
  L 17.20 21.52
  Q 17.35 21.67 17.34 21.88
  Q 17.33 22.05 17.29 22.17
  Q 17.08 22.72 16.42 22.67
  L 11.37 17.79
  Q 10.40 16.48 9.14 15.67
  Q 8.69 15.38 8.21 15.63
  Q 7.75 15.86 7.62 16.32
  Q 7.47 16.84 7.94 17.45
  Q 8.49 18.18 9.28 18.89
  Q 10.65 19.94 10.69 20.05
  Q 12.15 23.53 9.41 21.08
  L 7.45 19.33
  A 0.55 0.54 -49.1 0 0 6.68 19.39
  L 6.44 19.67
  Q 5.94 20.26 6.49 20.82
  L 12.17 26.54
  L 22.85 37.43
  Q 23.26 37.84 23.67 37.43
  L 30.27 30.81
  Q 32.06 29.01 30.27 27.21
  L 21.75 18.65
  L 18.26 15.23
  Q 16.15 12.52 14.76 11.80
  Q 14.00 11.40 13.64 12.31
  A 0.70 0.69 -57.0 0 0 13.79 13.06
  L 16.99 16.23
  Z
  M 11.3108 14.2612
  A 1.41 1.06 47.6 0 0 11.1428 12.5052
  A 1.41 1.06 47.6 0 0 9.4092 12.1788
  A 1.41 1.06 47.6 0 0 9.5772 13.9348
  A 1.41 1.06 47.6 0 0 11.3108 14.2612
  Z" fill="#5049ff"></path>
<path d="M 38.66 22.15
  Q 36.30 19.32 33.64 16.80
  C 32.62 15.84 31.80 14.30 30.02 13.36
  L 32.71 10.68
  Q 33.12 10.26 33.54 10.68
  L 41.37 18.70
  Q 41.82 19.16 41.35 19.60
  L 38.66 22.15
  Z" fill="#ff79cd"></path>
<path d="M 18.26 15.23
  Q 18.05 16.32 16.99 16.23
  L 13.79 13.06
  A 0.70 0.69 -57.0 0 1 13.64 12.31
  Q 14.00 11.40 14.76 11.80
  Q 16.15 12.52 18.26 15.23
  Z" fill="#70f128"></path>
<ellipse ry="1.06" rx="1.41" transform="translate(10.36,13.22) rotate(47.6)" cy="0.00" cx="0.00" fill="#70f128"></ellipse>
<path d="M 30.02 13.36
  C 31.80 14.30 32.62 15.84 33.64 16.80
  Q 36.30 19.32 38.66 22.15
  L 35.28 25.56
  L 28.38 19.10
  Q 28.07 18.81 27.85 18.44
  Q 27.32 17.53 26.00 17.42
  L 30.02 13.36
  Z" fill="#ffc1e8"></path>
<path d="M 16.99 16.23
  Q 18.05 16.32 18.26 15.23
  L 21.75 18.65
  L 17.29 22.17
  Q 17.33 22.05 17.34 21.88
  Q 17.35 21.67 17.20 21.52
  L 12.13 16.34
  A 0.80 0.80 0.0 0 1 12.33 15.07
  L 12.62 14.92
  A 0.56 0.56 0.0 0 1 13.25 14.99
  Q 15.08 16.54 16.41 17.83
  Q 16.89 18.30 17.36 18.17
  Q 18.03 17.99 17.68 17.39
  L 16.99 16.23
  Z" fill="#c8faaf"></path>
<path d="M 11.37 17.79
  L 9.28 18.89
  Q 8.49 18.18 7.94 17.45
  Q 7.47 16.84 7.62 16.32
  Q 7.75 15.86 8.21 15.63
  Q 8.69 15.38 9.14 15.67
  Q 10.40 16.48 11.37 17.79
  Z" fill="#70f128"></path>
<path d="M 26.00 17.42
  Q 27.32 17.53 27.85 18.44
  Q 28.07 18.81 28.38 19.10
  L 35.28 25.56
  L 33.48 27.47
  Q 33.05 27.94 32.59 27.49
  L 23.56 18.45
  A 0.26 0.25 -17.1 0 1 23.79 18.02
  Q 25.07 18.26 26.00 17.42
  Z" fill="#ffffff"></path>
<path d="M 11.37 17.79
  L 16.42 22.67
  Q 15.59 23.29 15.13 24.34
  Q 14.93 24.79 14.46 24.92
  Q 13.05 25.30 12.17 26.54
  L 6.49 20.82
  Q 5.94 20.26 6.44 19.67
  L 6.68 19.39
  A 0.55 0.54 -49.1 0 1 7.45 19.33
  L 9.41 21.08
  Q 12.15 23.53 10.69 20.05
  Q 10.65 19.94 9.28 18.89
  L 11.37 17.79
  Z" fill="#c8faaf"></path>
<path d="M 21.75 18.65
  L 30.27 27.21
  Q 32.06 29.01 30.27 30.81
  L 23.67 37.43
  Q 23.26 37.84 22.85 37.43
  L 12.17 26.54
  Q 13.05 25.30 14.46 24.92
  Q 14.93 24.79 15.13 24.34
  Q 15.59 23.29 16.42 22.67
  Q 17.08 22.72 17.29 22.17
  L 21.75 18.65
  Z" fill="#ffffff"></path>
</svg>
