<svg viewBox="0.00 0.00 250.00 250.00" version="1.1" xmlns="http://www.w3.org/2000/svg">
<g stroke-linecap="butt" fill="none" stroke-width="2.00">
<path d="M 191.71 100.83
  L 181.01 109.01
  A 0.72 0.72 0.0 0 1 180.04 108.92
  C 175.90 104.29 169.27 99.54 164.40 95.44
  Q 160.78 92.39 157.13 89.37
  Q 156.28 88.66 155.26 88.26
  Q 154.80 88.08 154.34 88.24
  Q 152.19 88.97 150.87 90.12
  Q 139.95 99.71 128.89 108.79
  A 0.78 0.77 43.6 0 1 127.95 108.81
  Q 114.97 99.01 102.90 88.10
  A 1.50 1.50 0.0 0 0 100.95 88.05
  L 75.94 108.21
  A 1.89 1.88 -46.1 0 1 73.63 108.26
  Q 68.15 104.17 62.53 100.10
  Q 61.73 99.53 60.55 98.32
  Q 59.65 97.40 58.53 96.56" stroke="#8ca3fc"></path>
<path d="M 186.69 136.69
  C 184.37 137.10 182.25 138.99 180.02 137.22
  Q 168.14 127.80 156.30 117.63
  Q 155.23 116.71 154.13 117.60
  L 129.71 137.43
  Q 128.74 138.21 127.74 137.48
  C 118.88 130.98 111.03 123.77 102.78 116.77
  A 0.97 0.97 0.0 0 0 101.54 116.76
  L 75.84 137.61
  A 1.66 1.66 0.0 0 1 73.77 137.62
  L 59.46 126.32" stroke="#7389fc"></path>
<path d="M 166.32 162.68
  Q 162.63 156.30 155.67 152.29
  A 2.52 2.51 -52.8 0 0 152.63 152.71
  Q 143.48 162.03 133.25 170.81
  Q 131.61 172.22 129.74 172.53
  A 1.38 1.36 55.0 0 1 128.80 172.36
  C 119.74 167.09 111.44 159.17 103.60 152.30
  Q 102.25 151.11 100.84 152.23
  L 88.61 161.91
  Q 88.25 162.19 87.83 162.34
  Q 87.09 162.60 86.71 163.30
  Q 86.47 163.75 85.99 163.91
  L 85.02 164.24" stroke="#5d72fb"></path>
</g>
<path d="M 191.71 100.83
  L 181.01 109.01
  A 0.72 0.72 0.0 0 1 180.04 108.92
  C 175.90 104.29 169.27 99.54 164.40 95.44
  Q 160.78 92.39 157.13 89.37
  Q 156.28 88.66 155.26 88.26
  Q 154.80 88.08 154.34 88.24
  Q 152.19 88.97 150.87 90.12
  Q 139.95 99.71 128.89 108.79
  A 0.78 0.77 43.6 0 1 127.95 108.81
  Q 114.97 99.01 102.90 88.10
  A 1.50 1.50 0.0 0 0 100.95 88.05
  L 75.94 108.21
  A 1.89 1.88 -46.1 0 1 73.63 108.26
  Q 68.15 104.17 62.53 100.10
  Q 61.73 99.53 60.55 98.32
  Q 59.65 97.40 58.53 96.56
  C 64.99 63.53 94.87 39.87 128.23 41.68
  C 161.24 43.49 187.50 68.41 191.71 100.83
  Z" fill="#95abfb"></path>
<path d="M 215.96 73.56
  L 221.09 74.16
  Q 222.64 74.34 221.46 75.37
  L 216.94 79.31
  A 0.92 0.92 0.0 0 0 216.65 80.23
  L 218.03 85.73
  Q 218.36 87.06 217.20 86.32
  L 211.73 82.86
  Q 211.13 82.48 210.53 82.85
  L 204.27 86.78
  Q 202.63 87.81 203.25 85.97
  C 203.80 84.34 205.06 80.21 203.20 78.80
  Q 200.89 77.05 198.92 75.34
  A 0.57 0.57 0.0 0 1 199.22 74.35
  L 204.09 73.68
  A 2.74 2.73 7.4 0 0 206.25 72.02
  L 209.27 64.84
  A 0.59 0.59 0.0 0 1 210.31 64.77
  L 215.43 73.22
  A 0.71 0.71 0.0 0 0 215.96 73.56
  Z" fill="#437bf1"></path>
<path d="M 191.71 100.83
  Q 194.23 119.14 186.69 136.69
  C 184.37 137.10 182.25 138.99 180.02 137.22
  Q 168.14 127.80 156.30 117.63
  Q 155.23 116.71 154.13 117.60
  L 129.71 137.43
  Q 128.74 138.21 127.74 137.48
  C 118.88 130.98 111.03 123.77 102.78 116.77
  A 0.97 0.97 0.0 0 0 101.54 116.76
  L 75.84 137.61
  A 1.66 1.66 0.0 0 1 73.77 137.62
  L 59.46 126.32
  Q 55.26 111.99 58.53 96.56
  Q 59.65 97.40 60.55 98.32
  Q 61.73 99.53 62.53 100.10
  Q 68.15 104.17 73.63 108.26
  A 1.89 1.88 -46.1 0 0 75.94 108.21
  L 100.95 88.05
  A 1.50 1.50 0.0 0 1 102.90 88.10
  Q 114.97 99.01 127.95 108.81
  A 0.78 0.77 43.6 0 0 128.89 108.79
  Q 139.95 99.71 150.87 90.12
  Q 152.19 88.97 154.34 88.24
  Q 154.80 88.08 155.26 88.26
  Q 156.28 88.66 157.13 89.37
  Q 160.78 92.39 164.40 95.44
  C 169.27 99.54 175.90 104.29 180.04 108.92
  A 0.72 0.72 0.0 0 0 181.01 109.01
  L 191.71 100.83
  Z" fill="#839afc"></path>
<path d="M 230.83 108.18
  A 0.49 0.49 0.0 0 0 231.20 107.93
  L 235.47 99.91
  A 0.73 0.73 0.0 0 1 236.77 99.93
  L 240.38 107.20
  A 1.50 1.47 82.4 0 0 241.38 107.98
  L 249.14 109.62
  A 0.61 0.61 0.0 0 1 249.43 110.66
  Q 246.30 113.54 244.20 117.29
  Q 243.93 117.78 244.00 118.34
  L 244.69 124.01
  Q 244.95 126.13 242.96 125.34
  L 237.35 123.12
  A 3.50 3.49 43.6 0 0 234.64 123.18
  L 229.54 125.45
  A 1.63 1.63 0.0 0 1 227.26 123.78
  L 227.91 117.62
  A 3.35 3.32 29.7 0 0 227.24 115.22
  L 223.33 110.13
  A 0.64 0.64 0.0 0 1 223.76 109.11
  L 230.83 108.18
  Z" fill="#f0b459"></path>
<path d="M 25.11 114.85
  L 21.66 111.71
  A 0.71 0.70 -31.5 0 1 21.95 110.51
  L 27.77 108.90
  Q 28.46 108.71 28.79 108.08
  L 32.79 100.47
  Q 33.31 99.48 33.82 100.47
  L 37.64 107.99
  A 2.50 2.48 -5.4 0 0 39.17 109.25
  L 43.90 110.60
  A 0.56 0.56 0.0 0 1 44.18 111.49
  L 40.98 115.49
  A 2.58 2.56 60.4 0 0 40.44 117.47
  L 41.17 122.46
  Q 41.25 123.01 40.76 122.75
  C 38.20 121.41 35.30 119.50 32.44 119.04
  Q 31.90 118.96 31.42 119.24
  L 25.70 122.69
  Q 25.37 122.88 25.38 122.50
  L 25.56 115.89
  Q 25.58 115.27 25.11 114.85
  Z" fill="#566cfa"></path>
<path d="M 186.69 136.69
  Q 185.33 140.36 183.31 143.57
  Q 176.18 154.91 166.32 162.68
  Q 162.63 156.30 155.67 152.29
  A 2.52 2.51 -52.8 0 0 152.63 152.71
  Q 143.48 162.03 133.25 170.81
  Q 131.61 172.22 129.74 172.53
  A 1.38 1.36 55.0 0 1 128.80 172.36
  C 119.74 167.09 111.44 159.17 103.60 152.30
  Q 102.25 151.11 100.84 152.23
  L 88.61 161.91
  Q 88.25 162.19 87.83 162.34
  Q 87.09 162.60 86.71 163.30
  Q 86.47 163.75 85.99 163.91
  L 85.02 164.24
  C 72.25 155.17 62.97 141.58 59.46 126.32
  L 73.77 137.62
  A 1.66 1.66 0.0 0 0 75.84 137.61
  L 101.54 116.76
  A 0.97 0.97 0.0 0 1 102.78 116.77
  C 111.03 123.77 118.88 130.98 127.74 137.48
  Q 128.74 138.21 129.71 137.43
  L 154.13 117.60
  Q 155.23 116.71 156.30 117.63
  Q 168.14 127.80 180.02 137.22
  C 182.25 138.99 184.37 137.10 186.69 136.69
  Z" fill="#6377fb"></path>
<path d="M 166.32 162.68
  C 141.53 181.44 110.23 182.50 85.02 164.24
  L 85.99 163.91
  Q 86.47 163.75 86.71 163.30
  Q 87.09 162.60 87.83 162.34
  Q 88.25 162.19 88.61 161.91
  L 100.84 152.23
  Q 102.25 151.11 103.60 152.30
  C 111.44 159.17 119.74 167.09 128.80 172.36
  A 1.38 1.36 55.0 0 0 129.74 172.53
  Q 131.61 172.22 133.25 170.81
  Q 143.48 162.03 152.63 152.71
  A 2.52 2.51 -52.8 0 1 155.67 152.29
  Q 162.63 156.30 166.32 162.68
  Z" fill="#566cfa"></path>
<path d="M 22.80 162.58
  L 30.23 163.47
  A 0.46 0.46 0.0 0 1 30.51 164.25
  L 24.63 170.47
  A 0.74 0.72 -28.5 0 0 24.44 171.07
  L 25.75 179.97
  A 0.51 0.51 0.0 0 1 25.08 180.53
  Q 21.59 179.34 18.17 177.59
  C 15.04 176.00 9.89 179.44 7.00 180.81
  Q 6.48 181.05 6.50 180.47
  C 6.63 176.83 8.16 171.84 5.50 168.86
  Q 3.25 166.34 0.72 164.34
  Q 0.00 163.76 0.92 163.67
  C 3.58 163.42 9.82 162.77 11.35 160.10
  Q 13.34 156.62 15.38 153.21
  Q 15.84 152.44 16.33 153.19
  L 22.29 162.26
  A 0.71 0.71 0.0 0 0 22.80 162.58
  Z" fill="#f0b459"></path>
<path d="M 221.78 173.29
  L 223.04 182.03
  A 0.57 0.57 0.0 0 1 222.22 182.62
  C 220.23 181.64 214.72 178.76 212.50 179.33
  Q 207.96 180.49 204.62 182.84
  Q 203.49 183.64 203.64 182.26
  Q 204.07 178.52 204.18 174.75
  C 204.28 171.47 200.68 168.91 198.45 166.88
  A 0.59 0.59 0.0 0 1 198.73 165.86
  L 206.41 164.30
  A 2.55 2.49 8.9 0 0 208.07 163.12
  L 212.71 155.30
  Q 213.05 154.74 213.41 155.28
  L 219.48 164.33
  A 0.85 0.81 75.3 0 0 220.08 164.70
  L 227.20 165.56
  A 0.71 0.70 26.2 0 1 227.61 166.76
  L 222.15 172.19
  A 1.31 1.30 -26.6 0 0 221.78 173.29
  Z" fill="#f0b459"></path>
<path d="M 58.41 178.67
  L 62.57 170.79
  A 0.56 0.55 46.0 0 1 63.56 170.81
  L 67.26 178.31
  A 2.54 2.52 83.0 0 0 68.99 179.67
  L 73.53 180.66
  A 0.60 0.59 24.7 0 1 73.88 181.60
  Q 72.51 183.42 71.04 185.20
  C 69.33 187.28 70.71 190.19 70.84 192.57
  Q 70.87 193.10 70.39 192.87
  L 62.71 189.19
  Q 62.19 188.94 61.69 189.24
  L 55.41 192.96
  Q 55.03 193.19 55.05 192.75
  C 55.17 189.96 56.13 186.15 53.89 184.10
  Q 52.43 182.77 51.14 181.40
  A 0.42 0.42 0.0 0 1 51.35 180.70
  L 57.70 179.22
  A 1.08 1.07 -82.5 0 0 58.41 178.67
  Z" fill="#566cfa"></path>
<path d="M 162.64 193.06
  L 167.71 193.52
  A 0.59 0.59 0.0 0 1 168.05 194.55
  L 163.31 198.71
  A 1.91 1.91 0.0 0 0 162.72 200.59
  L 164.24 206.71
  Q 164.43 207.51 163.75 207.06
  L 157.88 203.17
  Q 156.81 202.46 155.74 203.15
  L 148.79 207.65
  Q 148.46 207.86 148.51 207.47
  L 149.46 199.90
  A 0.92 0.91 -67.8 0 0 149.11 199.05
  L 143.98 195.01
  A 0.64 0.64 0.0 0 1 144.25 193.88
  C 147.22 193.30 150.48 193.67 151.96 190.44
  Q 153.43 187.25 154.77 184.50
  Q 155.18 183.65 155.81 184.36
  Q 158.65 187.58 160.43 191.48
  A 2.72 2.71 80.5 0 0 162.64 193.06
  Z" fill="#437bf1"></path>
</svg>
