<svg viewBox="0.00 0.00 32.00 32.00" version="1.1" xmlns="http://www.w3.org/2000/svg">
<g stroke-linecap="butt" fill="none" stroke-width="2.00">
<path d="M 32.00 14.02
  L 27.21 13.62
  Q 26.64 13.57 26.63 14.15
  Q 26.63 14.32 26.61 14.51
  Q 26.58 14.96 26.19 15.21
  Q 25.55 15.63 25.58 16.70" stroke="#5b3add"></path>
<path d="M 25.58 16.70
  C 25.52 9.46 19.19 4.65 12.26 7.23" stroke="#ae9cf5"></path>
<path d="M 12.26 7.23
  Q 11.84 6.24 13.85 6.13
  Q 13.88 6.12 13.86 6.11
  L 13.64 5.88
  A 0.65 0.64 -28.7 0 0 13.04 5.71
  Q 12.24 5.89 11.65 5.37
  Q 11.34 5.10 10.96 4.94
  L 8.90 4.08
  Q 8.50 3.92 8.08 3.90
  Q 4.95 3.77 2.27 2.10" stroke="#5b3add"></path>
<path d="M 12.26 7.23
  Q 8.55 9.01 7.04 12.99" stroke="#a595e6"></path>
<path d="M 7.04 12.99
  L 6.53 14.57" stroke="#917fdd"></path>
<path d="M 6.53 14.57
  Q 3.06 14.52 0.00 12.65" stroke="#4126b1"></path>
<path d="M 25.58 16.70
  L 24.79 19.50" stroke="#a595e6"></path>
<path d="M 24.79 19.50
  L 20.13 19.01
  A 0.95 0.93 -12.5 0 1 19.43 18.57
  C 18.16 16.55 14.64 17.02 12.65 17.56
  Q 12.09 17.70 12.05 17.13
  L 12.02 16.71" stroke="#e4e1f4"></path>
<path d="M 12.02 16.71
  Q 15.79 12.56 20.24 16.92
  Q 21.23 17.90 21.25 16.51
  L 21.27 15.35
  A 3.27 3.26 23.6 0 0 20.36 13.04
  Q 15.52 7.90 11.17 13.90" stroke="#a595e6"></path>
<path d="M 11.17 13.90
  Q 8.13 15.37 7.04 12.99" stroke="#e4e1f4"></path>
<path d="M 12.02 16.71
  L 11.79 16.97
  A 0.31 0.31 0.0 0 1 11.27 16.88
  Q 10.81 15.68 11.17 13.90" stroke="#917fdd"></path>
<path d="M 6.53 14.57
  Q 6.36 17.39 7.12 19.12" stroke="#8071c0"></path>
<path d="M 7.12 19.12
  C 10.04 26.44 19.02 27.54 23.80 21.52" stroke="#6c5bb5"></path>
<path d="M 23.80 21.52
  Q 24.52 20.54 24.79 19.50" stroke="#8071c0"></path>
<path d="M 24.79 19.50
  Q 24.88 19.41 25.03 19.38
  Q 25.51 19.28 25.28 19.71
  Q 25.21 19.85 25.13 20.00
  A 0.06 0.06 0.0 0 0 25.20 20.09
  Q 28.15 19.68 32.00 20.79" stroke="#4126b1"></path>
<path d="M 23.80 21.52
  C 21.07 21.88 18.61 20.67 16.55 20.40
  Q 11.95 19.79 7.12 19.12" stroke="#bcb4e0"></path>
</g>
<path d="M 5.91 0.00
  L 26.23 0.00
  Q 30.72 1.41 32.00 5.88
  L 32.00 14.02
  L 27.21 13.62
  Q 26.64 13.57 26.63 14.15
  Q 26.63 14.32 26.61 14.51
  Q 26.58 14.96 26.19 15.21
  Q 25.55 15.63 25.58 16.70
  C 25.52 9.46 19.19 4.65 12.26 7.23
  Q 11.84 6.24 13.85 6.13
  Q 13.88 6.12 13.86 6.11
  L 13.64 5.88
  A 0.65 0.64 -28.7 0 0 13.04 5.71
  Q 12.24 5.89 11.65 5.37
  Q 11.34 5.10 10.96 4.94
  L 8.90 4.08
  Q 8.50 3.92 8.08 3.90
  Q 4.95 3.77 2.27 2.10
  Q 3.83 0.48 5.91 0.00
  Z" fill="#6341ec"></path>
<path d="M 2.27 2.10
  Q 4.95 3.77 8.08 3.90
  Q 8.50 3.92 8.90 4.08
  L 10.96 4.94
  Q 11.34 5.10 11.65 5.37
  Q 12.24 5.89 13.04 5.71
  A 0.65 0.64 -28.7 0 1 13.64 5.88
  L 13.86 6.11
  Q 13.88 6.12 13.85 6.13
  Q 11.84 6.24 12.26 7.23
  Q 8.55 9.01 7.04 12.99
  L 6.53 14.57
  Q 3.06 14.52 0.00 12.65
  L 0.00 5.79
  Q 0.77 3.28 2.27 2.10
  Z" fill="#5233ce"></path>
<path d="M 25.58 16.70
  L 24.79 19.50
  L 20.13 19.01
  A 0.95 0.93 -12.5 0 1 19.43 18.57
  C 18.16 16.55 14.64 17.02 12.65 17.56
  Q 12.09 17.70 12.05 17.13
  L 12.02 16.71
  Q 15.79 12.56 20.24 16.92
  Q 21.23 17.90 21.25 16.51
  L 21.27 15.35
  A 3.27 3.26 23.6 0 0 20.36 13.04
  Q 15.52 7.90 11.17 13.90
  Q 8.13 15.37 7.04 12.99
  Q 8.55 9.01 12.26 7.23
  C 19.19 4.65 25.52 9.46 25.58 16.70
  Z" fill="#f8f7fd"></path>
<path d="M 12.02 16.71
  L 11.79 16.97
  A 0.31 0.31 0.0 0 1 11.27 16.88
  Q 10.81 15.68 11.17 13.90
  Q 15.52 7.90 20.36 13.04
  A 3.27 3.26 23.6 0 1 21.27 15.35
  L 21.25 16.51
  Q 21.23 17.90 20.24 16.92
  Q 15.79 12.56 12.02 16.71
  Z" fill="#5233ce"></path>
<path d="M 0.00 12.65
  Q 3.06 14.52 6.53 14.57
  Q 6.36 17.39 7.12 19.12
  C 10.04 26.44 19.02 27.54 23.80 21.52
  Q 24.52 20.54 24.79 19.50
  Q 24.88 19.41 25.03 19.38
  Q 25.51 19.28 25.28 19.71
  Q 25.21 19.85 25.13 20.00
  A 0.06 0.06 0.0 0 0 25.20 20.09
  Q 28.15 19.68 32.00 20.79
  L 32.00 26.22
  Q 30.61 30.71 26.15 32.00
  L 5.74 32.00
  Q 1.29 30.60 0.00 26.14
  L 0.00 12.65
  Z" fill="#301894"></path>
<path d="M 7.04 12.99
  Q 8.13 15.37 11.17 13.90
  Q 10.81 15.68 11.27 16.88
  A 0.31 0.31 0.0 0 0 11.79 16.97
  L 12.02 16.71
  L 12.05 17.13
  Q 12.09 17.70 12.65 17.56
  C 14.64 17.02 18.16 16.55 19.43 18.57
  A 0.95 0.93 -12.5 0 0 20.13 19.01
  L 24.79 19.50
  Q 24.52 20.54 23.80 21.52
  C 21.07 21.88 18.61 20.67 16.55 20.40
  Q 11.95 19.79 7.12 19.12
  Q 6.36 17.39 6.53 14.57
  L 7.04 12.99
  Z" fill="#d0caeb"></path>
<path d="M 32.00 14.02
  L 32.00 20.79
  Q 28.15 19.68 25.20 20.09
  A 0.06 0.06 0.0 0 1 25.13 20.00
  Q 25.21 19.85 25.28 19.71
  Q 25.51 19.28 25.03 19.38
  Q 24.88 19.41 24.79 19.50
  L 25.58 16.70
  Q 25.55 15.63 26.19 15.21
  Q 26.58 14.96 26.61 14.51
  Q 26.63 14.32 26.63 14.15
  Q 26.64 13.57 27.21 13.62
  L 32.00 14.02
  Z" fill="#5233ce"></path>
<path d="M 7.12 19.12
  Q 11.95 19.79 16.55 20.40
  C 18.61 20.67 21.07 21.88 23.80 21.52
  C 19.02 27.54 10.04 26.44 7.12 19.12
  Z" fill="#a89dd5"></path>
</svg>
