<svg viewBox="0.00 0.00 32.00 32.00" version="1.1" xmlns="http://www.w3.org/2000/svg">
<g stroke-linecap="butt" fill="none" stroke-width="2.00">
<path d="M 18.75 32.00
  Q 24.65 30.18 26.74 28.01
  C 36.96 17.43 30.88 -0.54 15.04 0.48
  C 4.84 1.14 -1.84 10.10 0.90 20.50
  C 2.79 27.64 7.22 29.66 13.57 32.00" stroke="#7c8bcf"></path>
<path d="M 12.68 11.61
  C 14.63 9.16 19.77 9.84 19.94 13.30
  Q 20.16 17.56 20.31 21.97
  A 0.75 0.75 0.0 0 0 21.19 22.68
  L 21.44 22.63
  A 1.46 1.46 0.0 0 0 22.63 21.37
  C 23.30 15.69 23.53 6.71 15.15 7.40
  C 8.12 7.98 8.40 15.97 9.20 21.94
  A 0.87 0.87 0.0 0 0 10.19 22.68
  L 10.44 22.64
  A 1.30 1.30 0.0 0 0 11.54 21.37
  C 11.56 18.51 11.04 13.65 12.68 11.61" stroke="#a5b2de"></path>
</g>
<path d="M 13.88 0.00
  L 19.82 0.00
  Q 28.56 2.14 32.00 11.25
  L 32.00 20.48
  Q 29.40 29.49 20.37 32.00
  L 18.75 32.00
  Q 24.65 30.18 26.74 28.01
  C 36.96 17.43 30.88 -0.54 15.04 0.48
  C 4.84 1.14 -1.84 10.10 0.90 20.50
  C 2.79 27.64 7.22 29.66 13.57 32.00
  L 11.40 32.00
  Q 1.90 29.15 0.00 18.83
  L 0.00 13.00
  Q 2.26 1.55 13.88 0.00
  Z" fill="#aeb0e2"></path>
<path d="M 18.75 32.00
  L 13.57 32.00
  C 7.22 29.66 2.79 27.64 0.90 20.50
  C -1.84 10.10 4.84 1.14 15.04 0.48
  C 30.88 -0.54 36.96 17.43 26.74 28.01
  Q 24.65 30.18 18.75 32.00
  Z
  M 12.68 11.61
  C 14.63 9.16 19.77 9.84 19.94 13.30
  Q 20.16 17.56 20.31 21.97
  A 0.75 0.75 0.0 0 0 21.19 22.68
  L 21.44 22.63
  A 1.46 1.46 0.0 0 0 22.63 21.37
  C 23.30 15.69 23.53 6.71 15.15 7.40
  C 8.12 7.98 8.40 15.97 9.20 21.94
  A 0.87 0.87 0.0 0 0 10.19 22.68
  L 10.44 22.64
  A 1.30 1.30 0.0 0 0 11.54 21.37
  C 11.56 18.51 11.04 13.65 12.68 11.61
  Z" fill="#4a65bc"></path>
<path d="M 19.94 13.30
  C 19.77 9.84 14.63 9.16 12.68 11.61
  C 11.04 13.65 11.56 18.51 11.54 21.37
  A 1.30 1.30 0.0 0 1 10.44 22.64
  L 10.19 22.68
  A 0.87 0.87 0.0 0 1 9.20 21.94
  C 8.40 15.97 8.12 7.98 15.15 7.40
  C 23.53 6.71 23.30 15.69 22.63 21.37
  A 1.46 1.46 0.0 0 1 21.44 22.63
  L 21.19 22.68
  A 0.75 0.75 0.0 0 1 20.31 21.97
  Q 20.16 17.56 19.94 13.30
  Z" fill="#fffeff"></path>
</svg>
