<svg xmlns="http://www.w3.org/2000/svg" viewBox="0 0 512 512"><g fill="none" stroke-width="2"><path stroke="#1a1a1a" d="M512 306.75q-1.06.46-.55-.92.16-.42-.11-.78-.39-.53 0-1.08.29-.41.06-.86-.41-.77-.3-1.64.08-.61-.5-.81-.42-.15-.76.23-.25.29-.63.24-.45-.06-.86.08a.32.32 0 0 0 .09.63q.32.01.5.21.24.28-.02.53l-.27.28q-.34.34-.45-.13-.13-.52-.53-.78a.29.29 0 0 0-.44.18q-.24 1.05-1.26 1.02c-1.3-.03-2.39.08-3.66-.31q-.59-.19-.93.34-.28.46-.75.68-.48.24-.63.15-.17-.1-.12-.25.22-.62-.53-.32l-1.73.7q-1.07.43.06.65.95.18 1.56.95.25.32.51.01.17-.21.12-.47a.38.37 82.7 0 1 .33-.43q.59-.05.65.63a.37.34 12 0 0 .19.27l1.23.62q.42.2-.04.22l-4.71.14q-.31 0-.44-.27-.21-.44-.18-.95a.37.37 0 0 0-.64-.28q-.6.62-.34 1.48a.14.13 85.3 0 1-.14.17q-.13-.01-.25 0a.38.37-2.1 0 1-.41-.37v-1.14q0-.74-.74-.68l-5.11.4q-.12.01-.11.14l.04.35q.04.35.38.28.53-.1.81.27.27.36-.17.49-.98.29-1.22-.61-.15-.59-.63.12-.23.34-.59.48-.46.2-.63-.28-.11-.33-.35-.53-.43-.38-.93-.09-.61.37-1.01-.21-.02-.02-.73-.12-.21-.03-.39.11-.73.55-.62.02.06-.3-.14-.53a.57.56-38 0 0-.74-.09q-.74.51-1.58.06-.33-.18-.66.01-.75.42-1.42.93-.12.09-.15.2-.05.16-.01.28.05.2-.15.25l-3.68.91q-.3.07-.38-.23-.04-.15 0-.33.07-.3-.24-.29-.16 0-.3.11-.18.15-.23.5-.12.85-.06 1.73.02.32-.21.56-.16.16-.3.44-.2.37-.23.79l-.38 4.91"/><path stroke="#8b8c8d" d="M472.26 315.72V138.97q0-.53-.53-.53h-30.98a.56.56 0 0 0-.56.56v128.73q0 .46-.46.47-8.99.12-17.98.1c-13.99-.03-21.53-7.85-21.54-21.8q-.02-53.93 0-107.82 0-.24-.25-.24h-31.41q-.49 0-.49.48-.02 49.17.04 98.33c.02 14.59 1.72 31.42 11.51 43.13 14.53 17.37 39.67 15.89 60.02 15.44a.5.5 0 0 1 .51.5q.1 21.3.26 42.67.07 11.3-4.54 19.54-4.53 8.08-13.85 8.48c-23.15 1.01-19.53-29.09-19.43-44.25q0-.58-.57-.58h-30.53a.65.65 0 0 0-.65.66l.09 7.64"/><path stroke="#1a1a1a" d="m370.92 330.48-.93-7.22q-.05-.38-.43-.38h-.29q-.39-.02-.39.38v3.33a.29.29 0 0 1-.38.28l-.26-.09q-.05-.01-.06-.07-.11-1.69-.04-3.38a.43.43 0 0 0-.43-.45h-.46q-.37 0-.37.37V326a.63.63 0 0 1-.63.63h-.5q-.63 0-.63-.63v-2.81q0-.18-.17-.22l-.45-.11q-.4-.1-.4-.51 0-.29.26-.46a.26.25 63.5 0 1 .38.13q.49 1.34 2.01.8.37-.13.37-.52v-1.02q0-.33-.33-.31l-5.08.22a.25.25 0 0 0-.13.46q.41.29.93.22.21-.03.25.17l.06.38q.04.22-.18.25l-4.85.57q-.48.05-.15.41.26.28.6.23.3-.05.48.19.12.15.13.3.02.23-.3.38-1.11.55-1.77-.22-.46-.53-.65-.02-.08.2-.32.26-.5.12-.66-.36-.2-.6-.9-.76-.54-.12-.75.11-.22.25-.28-.07-.04-.19-.04-.4 0-.33-.31-.21-.61.24-1.08.26-.16.01-.17.18-.01.15.01.3.01.06-.06.06h-.07a.13.1 4.8 0 1-.14-.12q.18-.67-.35-.82a1.41.29 17 0 0-1.26-.12q-.11.1-.21.16-.16.09-.16.27v3.01q0 .12-.12.12h-.3a.35.35 0 0 0-.35.4q.2 1.37-.36 2.44"/><path stroke="#8b8c8d" d="M348.25 329.22q-.01-64.37-.01-128.72c0-25.8-7.77-55.83-36.51-62.46q-14.99-3.46-29.98-.08c-26.76 6.03-34.05 30.57-34.65 54.55q-.39 15.47-.23 31.08 0 .61.62.61H278q.54 0 .54-.53.08-16.34.03-32.67c-.04-12.58 4.39-28.83 20.7-26.98 17.43 1.97 16.85 22.62 16.88 35.26q.07 24.66.02 49.38 0 .53-.53.53c-17.83-.06-40.28-1.9-55.83 8.86-15.36 10.63-18.3 29.82-18.75 47.17"/><path stroke="#1a1a1a" d="M241.06 305.22q-.81-.31-1.16.49-.06.13.04.23.09.09.19.18a.19.19 0 0 1 0 .26l-.49.49a.33.33 0 0 1-.54-.34q.55-1.58-1.11-1.77-2.25-.25-4.51.19-.46.08-.58.54-.07.23-.38.21-.67-.05-.18-.51l.78-.73q.42-.39.99-.36l4.35.18q.66.03.64-.63l-.01-.39q-.01-.38-.39-.38h-.95q-.63 0-.63-.63v-.97q0-.54-.52-.38l-.32.11a.63.62 75.5 0 0-.42.72q.13.6-.11 1.07a.29.29 0 0 1-.55-.12q-.03-.73-.32-1.36a.63.63 0 0 0-.77-.33l-.96.33a.48.48 0 0 0-.3.6q.15.5-.09.85-.39.57-.56-.09l-.29-1.11q-.19-.74-.75-.22-.36.33-.29.81.11.72-.62.72h-.75a.62.62 0 0 0-.62.62v1.25q0 .13-.13.13-.14 0-.28-.01-.4-.02-.35-.41.1-.72-.32-1.29-.41-.55-.74.05-.51.9.15 1.81.11.15.28.09.23-.08.12.21-.19.49-.44.03-.4-.74-1.37-.47-.69.2-.67-.52.01-.54-.38-.98-.51-.56-.77.16-.19.54-.08 1.17a.14.13 86.6 0 1-.14.16q-.14-.01-.28.01a.34.34 0 0 1-.37-.39q.09-.61-.08-1.18-.17-.55-.74-.49-1.52.18-3.04.26-.44.02-.72.32-.25.28.08.46.28.15.33.52a.67.67 0 0 1-.78.77q-4.12-.68-8.26-.02-.64.11-.18.57.24.25.64.14.27-.07.3.21.02.19-.01.33-.06.21-.39.28-.93.18-1.44-.36-.36-.38-.83-.15-.29.14-.47.49a.07.07 0 0 1-.13-.02l-.09-.51q-.03-.13.09-.19.17-.09.35-.18a.28.28 0 0 0 .02-.49q-.4-.25-.62.11a.55.54-73.9 0 1-.46.26h-5.18q-.32 0-.3-.31l.01-.28q.01-.15.15-.15l5.1-.03a.31.31 0 0 0 .09-.6q-.63-.21-1.3-.13a.34.34 0 0 1-.38-.38q.08-.65-.11-1.25a.27.27 0 0 0-.52 0q-.16.51-.13 1.03a.58.57 89 0 1-.57.6h-.52q-.22 0-.17-.21.07-.32.02-.59-.08-.44-.53-.47-.82-.06-1.3.55-.3.38-.79.3-.55-.11-.41-.65.16-.56-.32-.9-.53-.36-.84.15-.37.61-.53-.08-.18-.74.51-.96.35-.11.44-.47.08-.29-.08-.52-.16-.22-.41-.09-.16.08-.21.21-.06.15-.18.04-.19-.19-.47-.23"/><path stroke="#8b8c8d" d="M197.75 300.21V139.22q0-.53-.52-.53h-30.98q-.57 0-.57.56l.02 203.71"/><path stroke="#1a1a1a" d="M165.7 342.96q-.53-.76-.99-.24a.35.34 60.9 0 0-.08.31q.09.38-.26.59-.18.11-.24-.09-.07-.24-.25-.42-.6-.57-.86.21-.36 1.04-1.61.17-.29-.2-.29-.55v-.68a.42.42 0 0 0-.51-.41l-.39.09q-.48.1-.35.58.19.7-.28 1.15a.28.27-22.3 0 1-.47-.19v-.99q0-.84-.8-.6-1.2.35-1.4-.71a.51.5-27.9 0 0-.85-.26q-.25.25-.2.56.07.43-.36.39-.54-.05-.62.35-.08.4-.45.56-1.26.52-1.34-.54-.02-.29-.3-.35-.46-.1-.82.12a.23.23 0 0 0-.1.25q.07.3-.11.49-.39.39-.61-.12-.47-1.11-1.71-.71-.57.19-.57.8v.78a.36.36 0 0 1-.67.18q-.27-.46-.15-1.2.07-.45-.37-.56l-.27-.06q-.09-.03-.3.26-.4.54-.2 1.21a.43.43 0 0 1-.5.54q-.37-.08-.67.19-.6.52-.6-.71 0-.52-.45-.95-.39-.38-.46.17-.05.43-.52.3-.53-.16-.39.38.29 1.19-.51 1.65"/><path stroke="#8b8c8d" d="M142.82 344.9q1.18-18 .67-36.15a.25.25 0 0 0-.25-.25h-31.23q-.5 0-.5.5-.02 15.5.06 31c.06 12.01-1.93 25.06-16.54 26.82-18.29 2.21-23.06-12.48-23.07-27.32q-.03-74.75-.22-149.5-.03-10.71 4.33-17.65c8.13-12.95 29.57-10.94 34.03 4.14q1.65 5.57 1.69 10.01.15 18.68.06 37.32a.38.38 0 0 0 .38.38l30.77.01q.53 0 .54-.53.21-16.59-.2-33.18c-.44-17.57-4.64-38.04-21.45-47.54-13.06-7.38-30.96-8.09-45.38-4.93-30.82 6.74-36.59 36.64-36.59 63.22q0 57.47-.1 114.97"/><path stroke="#1a1a1a" d="m39.82 316.22-.71-11.62q-.06-1.14-1.17-.88-.76.18-.96.78a.46.45-56.6 0 1-.77.16q-.4-.46-.34-.94.02-.19-.15-.29-.13-.08-.28-.03-.24.08-.23.33.06 1.23-1.44.86-.38-.1-.57-.45l-.35-.63q-.31-.56-.68-.04-.38.52-.29 1.15a.35.34-57.4 0 1-.67.15q-.18-.61-.08-1.25a.52.52 0 0 0-.6-.6l-3.03.49q-.47.07-.38.53.12.66-.6.98-.62.27-1.21.16c-2.32-.45-4.91-.19-7.16.14a.29.29 0 0 0-.01.57q.17.03.31.08.21.09.23.31.03.35-.17.43-.76.3-1.52-.12-.46-.25-.91 0-.75.41-1.16-.34a1.01.99-13.9 0 0-.88-.52H9.72q-.28 0-.4-.25-.06-.14-.17-.23a.13.12 63.2 0 1 .07-.22l1.13-.09q.16-.01.15-.18 0-.17-.11-.31-.18-.22-.46-.22H6.78q-.46 0-.75.36-.69.85-1.79.38-.15-.06-.32-.24-.31-.34-.71-.11l-1.26.73q-.38.22-.14.59.13.19.2.45.06.24-.17.31-.54.15-1-.08-.42-.22-.44.25l-.4 7.11"/><path stroke="#858586" d="M142.82 344.9q-1.38 15.28-7.21 26.66c-10.98 21.42-36.34 26-58.11 21.9-39.58-7.46-37.61-46.34-37.68-77.24M348.25 329.22v62.32q0 .55-.55.55-24.7.04-49.45.07c-41.6.05-57.22-22.55-57.27-61.91q-.01-12.52.08-25.03"/><path stroke="#8b8c8d" d="M272.99 338.37c.07 13.3 3.47 24.97 19.27 25.87q9.83.56 23.52.14.41-.01.41-.42l-.01-86.47q0-.53-.53-.55-17.27-.57-23.65.1c-11.77 1.25-18.47 7.51-18.8 19.71q-.36 13.46-.21 41.62"/><path stroke="#858586" d="M472.26 315.72c-.04 19.39.41 38.58-9.09 56.23-11.47 21.29-35.48 26.19-57.4 20.79-28.67-7.06-34.65-37.2-34.85-62.26M197.75 300.21q-.07 21.77.32 43.54c.41 23.33 16.16 21.13 33.31 20.7a.54.54 0 0 1 .55.54v26.5q0 .41-.41.43-15.72.67-23.07-.27c-27.3-3.52-40.9-22.01-42.75-48.69"/></g><path fill="#202020" d="M129.56 0H382.6c17.11.93 27.76 1.6 41.16 4.42 42.6 8.99 75.85 42.86 84.12 85.59 2.74 14.18 3.21 26.23 4.12 39.56v177.18q-1.06.46-.55-.92.16-.42-.11-.78-.39-.53 0-1.08.29-.41.06-.86-.41-.77-.3-1.64.08-.61-.5-.81-.42-.15-.76.23-.25.29-.63.24-.45-.06-.86.08a.32.32 0 0 0 .09.63q.32.01.5.21.24.28-.02.53l-.27.28q-.34.34-.45-.13-.13-.52-.53-.78a.29.29 0 0 0-.44.18q-.24 1.05-1.26 1.02c-1.3-.03-2.39.08-3.66-.31q-.59-.19-.93.34-.28.46-.75.68-.48.24-.63.15-.17-.1-.12-.25.22-.62-.53-.32l-1.73.7q-1.07.43.06.65.95.18 1.56.95.25.32.51.01.17-.21.12-.47a.38.37 82.7 0 1 .33-.43q.59-.05.65.63a.37.34 12 0 0 .19.27l1.23.62q.42.2-.04.22l-4.71.14q-.31 0-.44-.27-.21-.44-.18-.95a.37.37 0 0 0-.64-.28q-.6.62-.34 1.48a.14.13 85.3 0 1-.14.17q-.13-.01-.25 0a.38.37-2.1 0 1-.41-.37v-1.14q0-.74-.74-.68l-5.11.4q-.12.01-.11.14l.04.35q.04.35.38.28.53-.1.81.27.27.36-.17.49-.98.29-1.22-.61-.15-.59-.63.12-.23.34-.59.48-.46.2-.63-.28-.11-.33-.35-.53-.43-.38-.93-.09-.61.37-1.01-.21-.02-.02-.73-.12-.21-.03-.39.11-.73.55-.62.02.06-.3-.14-.53a.57.56-38 0 0-.74-.09q-.74.51-1.58.06-.33-.18-.66.01-.75.42-1.42.93-.12.09-.15.2-.05.16-.01.28.05.2-.15.25l-3.68.91q-.3.07-.38-.23-.04-.15 0-.33.07-.3-.24-.29-.16 0-.3.11-.18.15-.23.5-.12.85-.06 1.73.02.32-.21.56-.16.16-.3.44-.2.37-.23.79l-.38 4.91V138.97q0-.53-.53-.53h-30.98a.56.56 0 0 0-.56.56v128.73q0 .46-.46.47-8.99.12-17.98.1c-13.99-.03-21.53-7.85-21.54-21.8q-.02-53.93 0-107.82 0-.24-.25-.24h-31.41q-.49 0-.49.48-.02 49.17.04 98.33c.02 14.59 1.72 31.42 11.51 43.13 14.53 17.37 39.67 15.89 60.02 15.44a.5.5 0 0 1 .51.5q.1 21.3.26 42.67.07 11.3-4.54 19.54-4.53 8.08-13.85 8.48c-23.15 1.01-19.53-29.09-19.43-44.25q0-.58-.57-.58h-30.53a.65.65 0 0 0-.65.66l.09 7.64-.93-7.22q-.05-.38-.43-.38h-.29q-.39-.02-.39.38v3.33a.29.29 0 0 1-.38.28l-.26-.09q-.05-.01-.06-.07-.11-1.69-.04-3.38a.43.43 0 0 0-.43-.45h-.46q-.37 0-.37.37V326a.63.63 0 0 1-.63.63h-.5q-.63 0-.63-.63v-2.81q0-.18-.17-.22l-.45-.11q-.4-.1-.4-.51 0-.29.26-.46a.26.25 63.5 0 1 .38.13q.49 1.34 2.01.8.37-.13.37-.52v-1.02q0-.33-.33-.31l-5.08.22a.25.25 0 0 0-.13.46q.41.29.93.22.21-.03.25.17l.06.38q.04.22-.18.25l-4.85.57q-.48.05-.15.41.26.28.6.23.3-.05.48.19.12.15.13.3.02.23-.3.38-1.11.55-1.77-.22-.46-.53-.65-.02-.08.2-.32.26-.5.12-.66-.36-.2-.6-.9-.76-.54-.12-.75.11-.22.25-.28-.07-.04-.19-.04-.4 0-.33-.31-.21-.61.24-1.08.26-.16.01-.17.18-.01.15.01.3.01.06-.06.06h-.07a.13.1 4.8 0 1-.14-.12q.18-.67-.35-.82a1.41.29 17 0 0-1.26-.12q-.11.1-.21.16-.16.09-.16.27v3.01q0 .12-.12.12h-.3a.35.35 0 0 0-.35.4q.2 1.37-.36 2.44-.01-64.37-.01-128.72c0-25.8-7.77-55.83-36.51-62.46q-14.99-3.46-29.98-.08c-26.76 6.03-34.05 30.57-34.65 54.55q-.39 15.47-.23 31.08 0 .61.62.61H278q.54 0 .54-.53.08-16.34.03-32.67c-.04-12.58 4.39-28.83 20.7-26.98 17.43 1.97 16.85 22.62 16.88 35.26q.07 24.66.02 49.38 0 .53-.53.53c-17.83-.06-40.28-1.9-55.83 8.86-15.36 10.63-18.3 29.82-18.75 47.17q-.81-.31-1.16.49-.06.13.04.23.09.09.19.18a.19.19 0 0 1 0 .26l-.49.49a.33.33 0 0 1-.54-.34q.55-1.58-1.11-1.77-2.25-.25-4.51.19-.46.08-.58.54-.07.23-.38.21-.67-.05-.18-.51l.78-.73q.42-.39.99-.36l4.35.18q.66.03.64-.63l-.01-.39q-.01-.38-.39-.38h-.95q-.63 0-.63-.63v-.97q0-.54-.52-.38l-.32.11a.63.62 75.5 0 0-.42.72q.13.6-.11 1.07a.29.29 0 0 1-.55-.12q-.03-.73-.32-1.36a.63.63 0 0 0-.77-.33l-.96.33a.48.48 0 0 0-.3.6q.15.5-.09.85-.39.57-.56-.09l-.29-1.11q-.19-.74-.75-.22-.36.33-.29.81.11.72-.62.72h-.75a.62.62 0 0 0-.62.62v1.25q0 .13-.13.13-.14 0-.28-.01-.4-.02-.35-.41.1-.72-.32-1.29-.41-.55-.74.05-.51.9.15 1.81.11.15.28.09.23-.08.12.21-.19.49-.44.03-.4-.74-1.37-.47-.69.2-.67-.52.01-.54-.38-.98-.51-.56-.77.16-.19.54-.08 1.17a.14.13 86.6 0 1-.14.16q-.14-.01-.28.01a.34.34 0 0 1-.37-.39q.09-.61-.08-1.18-.17-.55-.74-.49-1.52.18-3.04.26-.44.02-.72.32-.25.28.08.46.28.15.33.52a.67.67 0 0 1-.78.77q-4.12-.68-8.26-.02-.64.11-.18.57.24.25.64.14.27-.07.3.21.02.19-.01.33-.06.21-.39.28-.93.18-1.44-.36-.36-.38-.83-.15-.29.14-.47.49a.07.07 0 0 1-.13-.02l-.09-.51q-.03-.13.09-.19.17-.09.35-.18a.28.28 0 0 0 .02-.49q-.4-.25-.62.11a.55.54-73.9 0 1-.46.26h-5.18q-.32 0-.3-.31l.01-.28q.01-.15.15-.15l5.1-.03a.31.31 0 0 0 .09-.6q-.63-.21-1.3-.13a.34.34 0 0 1-.38-.38q.08-.65-.11-1.25a.27.27 0 0 0-.52 0q-.16.51-.13 1.03a.58.57 89 0 1-.57.6h-.52q-.22 0-.17-.21.07-.32.02-.59-.08-.44-.53-.47-.82-.06-1.3.55-.3.38-.79.3-.55-.11-.41-.65.16-.56-.32-.9-.53-.36-.84.15-.37.61-.53-.08-.18-.74.51-.96.35-.11.44-.47.08-.29-.08-.52-.16-.22-.41-.09-.16.08-.21.21-.06.15-.18.04-.19-.19-.47-.23V139.22q0-.53-.52-.53h-30.98q-.57 0-.57.56l.02 203.71q-.53-.76-.99-.24a.35.34 60.9 0 0-.08.31q.09.38-.26.59-.18.11-.24-.09-.07-.24-.25-.42-.6-.57-.86.21-.36 1.04-1.61.17-.29-.2-.29-.55v-.68a.42.42 0 0 0-.51-.41l-.39.09q-.48.1-.35.58.19.7-.28 1.15a.28.27-22.3 0 1-.47-.19v-.99q0-.84-.8-.6-1.2.35-1.4-.71a.51.5-27.9 0 0-.85-.26q-.25.25-.2.56.07.43-.36.39-.54-.05-.62.35-.08.4-.45.56-1.26.52-1.34-.54-.02-.29-.3-.35-.46-.1-.82.12a.23.23 0 0 0-.1.25q.07.3-.11.49-.39.39-.61-.12-.47-1.11-1.71-.71-.57.19-.57.8v.78a.36.36 0 0 1-.67.18q-.27-.46-.15-1.2.07-.45-.37-.56l-.27-.06q-.09-.03-.3.26-.4.54-.2 1.21a.43.43 0 0 1-.5.54q-.37-.08-.67.19-.6.52-.6-.71 0-.52-.45-.95-.39-.38-.46.17-.05.43-.52.3-.53-.16-.39.38.29 1.19-.51 1.65 1.18-18 .67-36.15a.25.25 0 0 0-.25-.25h-31.23q-.5 0-.5.5-.02 15.5.06 31c.06 12.01-1.93 25.06-16.54 26.82-18.29 2.21-23.06-12.48-23.07-27.32q-.03-74.75-.22-149.5-.03-10.71 4.33-17.65c8.13-12.95 29.57-10.94 34.03 4.14q1.65 5.57 1.69 10.01.15 18.68.06 37.32a.38.38 0 0 0 .38.38l30.77.01q.53 0 .54-.53.21-16.59-.2-33.18c-.44-17.57-4.64-38.04-21.45-47.54-13.06-7.38-30.96-8.09-45.38-4.93-30.82 6.74-36.59 36.64-36.59 63.22q0 57.47-.1 114.97l-.71-11.62q-.06-1.14-1.17-.88-.76.18-.96.78a.46.45-56.6 0 1-.77.16q-.4-.46-.34-.94.02-.19-.15-.29-.13-.08-.28-.03-.24.08-.23.33.06 1.23-1.44.86-.38-.1-.57-.45l-.35-.63q-.31-.56-.68-.04-.38.52-.29 1.15a.35.34-57.4 0 1-.67.15q-.18-.61-.08-1.25a.52.52 0 0 0-.6-.6l-3.03.49q-.47.07-.38.53.12.66-.6.98-.62.27-1.21.16c-2.32-.45-4.91-.19-7.16.14a.29.29 0 0 0-.01.57q.17.03.31.08.21.09.23.31.03.35-.17.43-.76.3-1.52-.12-.46-.25-.91 0-.75.41-1.16-.34a1.01.99-13.9 0 0-.88-.52H9.72q-.28 0-.4-.25-.06-.14-.17-.23a.13.12 63.2 0 1 .07-.22l1.13-.09q.16-.01.15-.18 0-.17-.11-.31-.18-.22-.46-.22H6.78q-.46 0-.75.36-.69.85-1.79.38-.15-.06-.32-.24-.31-.34-.71-.11l-1.26.73q-.38.22-.14.59.13.19.2.45.06.24-.17.31-.54.15-1-.08-.42-.22-.44.25l-.4 7.11V129.43c1.31-18.38 1.91-36.58 8.07-54.11C21.65 36.73 54.61 9.36 94.75 3.15Q109.77.83 129.56 0Z"/><path fill="#f6f7f9" d="M142.82 344.9q-1.38 15.28-7.21 26.66c-10.98 21.42-36.34 26-58.11 21.9-39.58-7.46-37.61-46.34-37.68-77.24q.1-57.5.1-114.97c0-26.58 5.77-56.48 36.59-63.22 14.42-3.16 32.32-2.45 45.38 4.93 16.81 9.5 21.01 29.97 21.45 47.54q.41 16.59.2 33.18-.01.53-.54.53l-30.77-.01a.38.38 0 0 1-.38-.38q.09-18.64-.06-37.32-.04-4.44-1.69-10.01c-4.46-15.08-25.9-17.09-34.03-4.14q-4.36 6.94-4.33 17.65.19 74.75.22 149.5c.01 14.84 4.78 29.53 23.07 27.32 14.61-1.76 16.6-14.81 16.54-26.82q-.08-15.5-.06-31 0-.5.5-.5h31.23a.25.25 0 0 1 .25.25q.51 18.15-.67 36.15ZM348.25 329.22v62.32q0 .55-.55.55-24.7.04-49.45.07c-41.6.05-57.22-22.55-57.27-61.91q-.01-12.52.08-25.03c.45-17.35 3.39-36.54 18.75-47.17 15.55-10.76 38-8.92 55.83-8.86q.53 0 .53-.53.05-24.72-.02-49.38c-.03-12.64.55-33.29-16.88-35.26-16.31-1.85-20.74 14.4-20.7 26.98q.05 16.33-.03 32.67 0 .53-.54.53h-30.51q-.62 0-.62-.61-.16-15.61.23-31.08c.6-23.98 7.89-48.52 34.65-54.55q14.99-3.38 29.98.08c28.74 6.63 36.51 36.66 36.51 62.46q0 64.35.01 128.72Zm-75.26 9.15c.07 13.3 3.47 24.97 19.27 25.87q9.83.56 23.52.14.41-.01.41-.42l-.01-86.47q0-.53-.53-.55-17.27-.57-23.65.1c-11.77 1.25-18.47 7.51-18.8 19.71q-.36 13.46-.21 41.62ZM472.26 315.72c-.04 19.39.41 38.58-9.09 56.23-11.47 21.29-35.48 26.19-57.4 20.79-28.67-7.06-34.65-37.2-34.85-62.26l-.09-7.64a.65.65 0 0 1 .65-.66h30.53q.57 0 .57.58c-.1 15.16-3.72 45.26 19.43 44.25q9.32-.4 13.85-8.48 4.61-8.24 4.54-19.54-.16-21.37-.26-42.67a.5.5 0 0 0-.51-.5c-20.35.45-45.49 1.93-60.02-15.44-9.79-11.71-11.49-28.54-11.51-43.13q-.06-49.16-.04-98.33 0-.48.49-.48h31.41q.25 0 .25.24-.02 53.89 0 107.82c.01 13.95 7.55 21.77 21.54 21.8q8.99.02 17.98-.1.46-.01.46-.47V139a.56.56 0 0 1 .56-.56h30.98q.53 0 .53.53v176.75ZM197.75 300.21q-.07 21.77.32 43.54c.41 23.33 16.16 21.13 33.31 20.7a.54.54 0 0 1 .55.54v26.5q0 .41-.41.43-15.72.67-23.07-.27c-27.3-3.52-40.9-22.01-42.75-48.69l-.02-203.71q0-.56.57-.56h30.98q.52 0 .52.53v160.99Z"/><path fill="#202020" d="M292.26 364.24c-15.8-.9-19.2-12.57-19.27-25.87q-.15-28.16.21-41.62c.33-12.2 7.03-18.46 18.8-19.71q6.38-.67 23.65-.1.53.02.53.55l.01 86.47q0 .41-.41.42-13.69.42-23.52-.14Z"/><path fill="#131313" d="M197.75 300.21q.28.04.47.23.12.11.18-.04.05-.13.21-.21.25-.13.41.09.16.23.08.52-.09.36-.44.47-.69.22-.51.96.16.69.53.08.31-.51.84-.15.48.34.32.9-.14.54.41.65.49.08.79-.3.48-.61 1.3-.55.45.03.53.47.05.27-.02.59-.05.21.17.21h.52a.58.57 89 0 0 .57-.6q-.03-.52.13-1.03a.27.27 0 0 1 .52 0q.19.6.11 1.25a.34.34 0 0 0 .38.38q.67-.08 1.3.13a.31.31 0 0 1-.09.6l-5.1.03q-.14 0-.15.15l-.01.28q-.02.31.3.31h5.18a.55.54-73.9 0 0 .46-.26q.22-.36.62-.11a.28.28 0 0 1-.02.49q-.18.09-.35.18-.12.06-.09.19l.09.51a.07.07 0 0 0 .13.02q.18-.35.47-.49.47-.23.83.15.51.54 1.44.36.33-.07.39-.28.03-.14.01-.33-.03-.28-.3-.21-.4.11-.64-.14-.46-.46.18-.57 4.14-.66 8.26.02a.67.67 0 0 0 .78-.77q-.05-.37-.33-.52-.33-.18-.08-.46.28-.3.72-.32 1.52-.08 3.04-.26.57-.06.74.49.17.57.08 1.18a.34.34 0 0 0 .37.39q.14-.02.28-.01a.14.13 86.6 0 0 .14-.16q-.11-.63.08-1.17.26-.72.77-.16.39.44.38.98-.02.72.67.52.97-.27 1.37.47.25.46.44-.03.11-.29-.12-.21-.17.06-.28-.09-.66-.91-.15-1.81.33-.6.74-.05.42.57.32 1.29-.05.39.35.41.14.01.28.01.13 0 .13-.13v-1.25a.62.62 0 0 1 .62-.62h.75q.73 0 .62-.72-.07-.48.29-.81.56-.52.75.22l.29 1.11q.17.66.56.09.24-.35.09-.85a.48.48 0 0 1 .3-.6l.96-.33a.63.63 0 0 1 .77.33q.29.63.32 1.36a.29.29 0 0 0 .55.12q.24-.47.11-1.07a.63.62 75.5 0 1 .42-.72l.32-.11q.52-.16.52.38v.97q0 .63.63.63h.95q.38 0 .39.38l.01.39q.02.66-.64.63l-4.35-.18q-.57-.03-.99.36l-.78.73q-.49.46.18.51.31.02.38-.21.12-.46.58-.54 2.26-.44 4.51-.19 1.66.19 1.11 1.77a.33.33 0 0 0 .54.34l.49-.49a.19.19 0 0 0 0-.26q-.1-.09-.19-.18-.1-.1-.04-.23.35-.8 1.16-.49-.09 12.51-.08 25.03c.05 39.36 15.67 61.96 57.27 61.91q24.75-.03 49.45-.07.55 0 .55-.55v-62.32q.56-1.07.36-2.44a.35.35 0 0 1 .35-.4h.3q.12 0 .12-.12v-3.01q0-.18.16-.27.1-.06.21-.16a1.41.29 17 0 1 1.26.12q.53.15.35.82a.13.1 4.8 0 0 .14.12h.07q.07 0 .06-.06-.02-.15-.01-.3.01-.17.17-.18.47-.02 1.08-.26.31-.12.31.21 0 .21.04.4.06.32.28.07.21-.23.75-.11.7.16.9.76.16.48.66.36.24-.06.32-.26.19-.51.65.02.66.77 1.77.22.32-.15.3-.38-.01-.15-.13-.3-.18-.24-.48-.19-.34.05-.6-.23-.33-.36.15-.41l4.85-.57q.22-.03.18-.25l-.06-.38q-.04-.2-.25-.17-.52.07-.93-.22a.25.25 0 0 1 .13-.46l5.08-.22q.33-.02.33.31v1.02q0 .39-.37.52-1.52.54-2.01-.8a.26.25 63.5 0 0-.38-.13q-.26.17-.26.46 0 .41.4.51l.45.11q.17.04.17.22V326q0 .63.63.63h.5a.63.63 0 0 0 .63-.63v-2.75q0-.37.37-.37h.46a.43.43 0 0 1 .43.45q-.07 1.69.04 3.38.01.06.06.07l.26.09a.29.29 0 0 0 .38-.28v-3.33q0-.4.39-.38h.29q.38 0 .43.38l.93 7.22c.2 25.06 6.18 55.2 34.85 62.26 21.92 5.4 45.93.5 57.4-20.79 9.5-17.65 9.05-36.84 9.09-56.23l.38-4.91q.03-.42.23-.79.14-.28.3-.44.23-.24.21-.56-.06-.88.06-1.73.05-.35.23-.5.14-.11.3-.11.31-.01.24.29-.04.18 0 .33.08.3.38.23l3.68-.91q.2-.05.15-.25-.04-.12.01-.28.03-.11.15-.2.67-.51 1.42-.93.33-.19.66-.01.84.45 1.58-.06a.57.56-38 0 1 .74.09q.2.23.14.53-.11.53.62-.02.18-.14.39-.11.71.1.73.12.4.58 1.01.21.5-.29.93.09.24.2.35.53.17.48.63.28.36-.14.59-.48.48-.71.63-.12.24.9 1.22.61.44-.13.17-.49-.28-.37-.81-.27-.34.07-.38-.28l-.04-.35q-.01-.13.11-.14l5.11-.4q.74-.06.74.68v1.14a.38.37-2.1 0 0 .41.37q.12-.01.25 0a.14.13 85.3 0 0 .14-.17q-.26-.86.34-1.48a.37.37 0 0 1 .64.28q-.03.51.18.95.13.27.44.27l4.71-.14q.46-.02.04-.22l-1.23-.62a.37.34 12 0 1-.19-.27q-.06-.68-.65-.63a.38.37 82.7 0 0-.33.43q.05.26-.12.47-.26.31-.51-.01-.61-.77-1.56-.95-1.13-.22-.06-.65l1.73-.7q.75-.3.53.32-.05.15.12.25.15.09.63-.15.47-.22.75-.68.34-.53.93-.34c1.27.39 2.36.28 3.66.31q1.02.03 1.26-1.02a.29.29 0 0 1 .44-.18q.4.26.53.78.11.47.45.13l.27-.28q.26-.25.02-.53-.18-.2-.5-.21a.32.32 0 0 1-.09-.63q.41-.14.86-.08.38.05.63-.24.34-.38.76-.23.58.2.5.81-.11.87.3 1.64.23.45-.06.86-.39.55 0 1.08.27.36.11.78-.51 1.38.55.92v75.81c-.88 12.1-1.24 22.8-3.48 35.96-7.96 46.67-42.92 81.72-89.53 89.94-12.1 2.13-24.12 2.71-36.35 3.54H129.41q-9.33-.46-25.66-2c-49.8-4.69-89.7-38.43-99.53-88.03C1.36 407.56.9 395.79 0 382.41v-68.53l.4-7.11q.02-.47.44-.25.46.23 1 .08.23-.07.17-.31-.07-.26-.2-.45-.24-.37.14-.59l1.26-.73q.4-.23.71.11.17.18.32.24 1.1.47 1.79-.38.29-.36.75-.36h3.15q.28 0 .46.22.11.14.11.31.01.17-.15.18l-1.13.09a.13.12 63.2 0 0-.07.22q.11.09.17.23.12.25.4.25h4.32a1.01.99-13.9 0 1 .88.52q.41.75 1.16.34.45-.25.91 0 .76.42 1.52.12.2-.08.17-.43-.02-.22-.23-.31-.14-.05-.31-.08a.29.29 0 0 1 .01-.57c2.25-.33 4.84-.59 7.16-.14q.59.11 1.21-.16.72-.32.6-.98-.09-.46.38-.53l3.03-.49a.52.52 0 0 1 .6.6q-.1.64.08 1.25a.35.34-57.4 0 0 .67-.15q-.09-.63.29-1.15.37-.52.68.04l.35.63q.19.35.57.45 1.5.37 1.44-.86-.01-.25.23-.33.15-.05.28.03.17.1.15.29-.06.48.34.94a.46.45-56.6 0 0 .77-.16q.2-.6.96-.78 1.11-.26 1.17.88l.71 11.62c.07 30.9-1.9 69.78 37.68 77.24 21.77 4.1 47.13-.48 58.11-21.9q5.83-11.38 7.21-26.66.8-.46.51-1.65-.14-.54.39-.38.47.13.52-.3.07-.55.46-.17.45.43.45.95 0 1.23.6.71.3-.27.67-.19a.43.43 0 0 0 .5-.54q-.2-.67.2-1.21.21-.29.3-.26l.27.06q.44.11.37.56-.12.74.15 1.2a.36.36 0 0 0 .67-.18v-.78q0-.61.57-.8 1.24-.4 1.71.71.22.51.61.12.18-.19.11-.49a.23.23 0 0 1 .1-.25q.36-.22.82-.12.28.06.3.35.08 1.06 1.34.54.37-.16.45-.56.08-.4.62-.35.43.04.36-.39-.05-.31.2-.56a.51.5-27.9 0 1 .85.26q.2 1.06 1.4.71.8-.24.8.6v.99a.28.27-22.3 0 0 .47.19q.47-.45.28-1.15-.13-.48.35-.58l.39-.09a.42.42 0 0 1 .51.41v.68q0 .35.29.55 1.25.87 1.61-.17.26-.78.86-.21.18.18.25.42.06.2.24.09.35-.21.26-.59a.35.34 60.9 0 1 .08-.31q.46-.52.99.24c1.85 26.68 15.45 45.17 42.75 48.69q7.35.94 23.07.27.41-.02.41-.43v-26.5a.54.54 0 0 0-.55-.54c-17.15.43-32.9 2.63-33.31-20.7q-.39-21.77-.32-43.54Z"/></svg>