<svg viewBox="0.00 0.00 180.00 180.00" version="1.1" xmlns="http://www.w3.org/2000/svg">
<path d="M 121.24 81.75
  L 58.78 81.75
  A 0.52 0.52 0.0 0 1 58.26 81.23
  L 58.25 65.98
  A 0.52 0.52 0.0 0 1 58.77 65.46
  L 121.22 65.47
  A 0.52 0.52 0.0 0 1 121.74 65.99
  L 121.75 81.25
  A 0.52 0.52 0.0 0 0 122.27 81.77
  L 167.08 81.76
  A 0.52 0.52 0.0 0 1 167.60 82.28
  L 167.73 97.71
  A 0.52 0.52 0.0 0 1 167.21 98.23
  L 122.27 98.26
  A 0.52 0.52 0.0 0 1 121.75 97.74
  L 121.76 82.27
  A 0.52 0.52 0.0 0 0 121.24 81.75
  Z" fill="#aa60f4"></path>
<rect rx="0.50" height="16.30" width="45.94" transform="translate(35.28,106.40) rotate(0.1)" y="-8.15" x="-22.97" fill="#aa60f4"></rect>
</svg>
