<svg viewBox="0.00 0.00 256.00 256.00" version="1.1" xmlns="http://www.w3.org/2000/svg">
<path d="M 67.30 91.38
  C 53.11 70.22 30.62 58.48 5.11 57.66
  C 1.14 57.53 0.55 54.64 0.54 51.13
  Q 0.49 28.31 0.53 5.50
  C 0.54 -1.12 6.72 -0.01 10.99 0.26
  C 49.59 2.77 83.68 19.51 108.76 49.04
  A 0.64 0.63 -49.5 0 1 108.81 49.79
  L 75.37 102.35
  A 0.42 0.42 0.0 0 1 74.66 102.36
  Q 71.02 96.92 67.30 91.38
  Z" fill="#1d84ff"></path>
<path d="M 132.95 61.50
  C 158.90 21.94 204.98 -2.09 252.00 0.24
  C 254.91 0.39 255.64 3.27 255.63 5.90
  Q 255.62 29.89 255.64 53.88
  C 255.64 59.22 246.46 57.45 243.21 57.69
  Q 208.75 60.25 187.75 85.51
  Q 184.08 89.92 176.45 102.00
  Q 149.77 144.21 122.82 186.25
  Q 115.30 197.98 111.58 202.79
  C 86.29 235.50 46.59 255.10 5.24 255.43
  C 0.97 255.46 0.53 252.17 0.53 248.53
  Q 0.52 225.65 0.59 202.75
  C 0.61 198.50 3.13 198.04 6.88 197.81
  Q 40.82 195.71 61.99 171.21
  Q 66.11 166.45 73.44 154.84
  Q 117.12 85.64 132.95 61.50
  Z" fill="#1d84ff"></path>
<path d="M 184.51 165.55
  C 199.62 186.98 223.77 198.62 249.90 197.83
  C 252.68 197.75 255.63 198.67 255.63 201.74
  Q 255.62 225.54 255.63 249.32
  C 255.64 252.78 254.82 255.34 251.00 255.43
  C 209.07 256.45 168.95 238.54 141.95 206.31
  A 0.51 0.51 0.0 0 1 141.91 205.72
  L 175.69 152.77
  A 0.19 0.19 0.0 0 1 176.01 152.77
  Q 180.06 159.25 184.51 165.55
  Z" fill="#1d84ff"></path>
</svg>
