<svg viewBox="0.00 0.00 180.00 180.00" version="1.1" xmlns="http://www.w3.org/2000/svg">
<g stroke-linecap="butt" fill="none" stroke-width="2.00">
<path d="M 68.50 60.06
  Q 74.80 65.01 77.70 72.66" stroke="#b7b2ff"></path>
<path d="M 77.70 72.66
  C 78.30 74.76 79.04 76.87 79.23 79.15
  C 79.57 83.24 82.09 94.45 86.25 95.96
  C 91.51 97.87 97.68 81.32 99.40 78.25
  Q 104.09 69.83 110.29 62.56
  A 0.38 0.37 -55.4 0 0 110.19 61.99
  L 99.00 55.61" stroke="#c1bcff"></path>
<path d="M 99.00 55.61
  L 82.95 48.10" stroke="#b7b2ff"></path>
<path d="M 82.95 48.10
  C 74.32 43.30 62.40 45.29 57.10 54.08
  A 0.66 0.66 0.0 0 0 57.51 55.06
  Q 63.44 56.52 68.50 60.06" stroke="#aba5ff"></path>
<path d="M 82.95 48.10
  Q 82.47 49.70 80.86 50.34
  Q 80.43 50.51 80.10 50.83
  C 78.47 52.46 76.65 53.48 74.63 54.99
  C 72.72 56.40 71.25 57.11 69.57 59.55
  Q 69.56 59.56 69.57 59.57
  Q 69.66 59.66 69.75 59.76
  Q 69.93 59.93 69.69 60.03
  Q 69.16 60.24 68.50 60.06" stroke="#6358fe"></path>
<path d="M 99.00 55.61
  Q 96.65 58.49 93.69 60.57
  Q 88.11 64.50 88.05 64.55
  Q 85.97 66.22 83.89 67.89
  C 82.32 69.15 79.58 70.56 77.70 72.66" stroke="#796fff"></path>
<path d="M 52.97 102.03
  L 53.91 114.03" stroke="#c1bcff"></path>
<path d="M 53.91 114.03
  C 53.94 128.10 65.45 137.51 79.23 133.45
  Q 84.98 131.76 101.07 123.26" stroke="#c7c3ff"></path>
<path d="M 101.07 123.26
  L 112.31 116.88" stroke="#c1bcff"></path>
<path d="M 112.31 116.88
  Q 123.19 110.47 130.34 104.84
  Q 134.44 101.61 136.41 95.86" stroke="#b7b2ff"></path>
<path d="M 136.41 95.86
  C 139.25 84.93 134.77 77.87 125.95 72.16
  Q 125.52 71.89 125.07 72.12
  Q 119.96 74.80 116.36 78.54" stroke="#aba5ff"></path>
<path d="M 116.36 78.54
  Q 113.21 81.48 111.89 83.89
  Q 108.97 89.19 99.68 107.05" stroke="#b7b2ff"></path>
<path d="M 99.68 107.05
  C 97.58 110.48 95.10 115.35 90.86 116.45" stroke="#c1bcff"></path>
<path d="M 90.86 116.45
  Q 88.37 117.61 84.73 116.17" stroke="#aba5ff"></path>
<path d="M 84.73 116.17
  Q 80.39 114.05 77.01 110.14" stroke="#b7b2ff"></path>
<path d="M 77.01 110.14
  Q 73.08 105.27 70.31 99.25" stroke="#c1bcff"></path>
<path d="M 70.31 99.25
  Q 67.32 92.13 63.65 77.63
  Q 61.88 70.64 53.89 70.63
  Q 53.47 70.63 53.43 71.06
  Q 52.11 86.54 52.97 102.03" stroke="#c7c3ff"></path>
<path d="M 70.31 99.25
  L 60.58 100.59
  Q 60.18 100.64 59.83 100.46
  Q 59.33 100.21 58.81 100.59
  Q 58.37 100.92 57.97 100.55
  Q 57.32 99.94 56.99 100.58
  Q 56.73 101.06 56.19 101.02
  Q 54.35 100.90 52.97 102.03" stroke="#8880ff"></path>
<path d="M 77.01 110.14
  L 56.59 112.46
  Q 56.19 112.50 55.85 112.29
  Q 55.36 111.97 54.86 112.55
  Q 54.51 112.96 54.69 113.47
  L 54.89 114.03" stroke="#796fff"></path>
<path d="M 54.89 114.03
  Q 54.52 114.21 53.91 114.03" stroke="#8880ff"></path>
<path d="M 84.73 116.17
  Q 83.61 118.04 80.32 118.15
  Q 76.19 118.28 75.70 118.35
  Q 71.56 118.89 67.40 119.32
  C 66.36 119.42 65.87 119.96 65.39 120.80" stroke="#6358fe"></path>
<path d="M 65.39 120.80
  Q 59.34 118.37 54.89 114.03" stroke="#7f76ff"></path>
<path d="M 65.39 120.80
  Q 78.83 125.12 90.53 117.74" stroke="#7369ff"></path>
<path d="M 101.07 123.26
  Q 100.46 121.62 99.00 120.84
  Q 98.78 120.72 98.89 120.49
  Q 98.96 120.36 99.03 120.22
  Q 99.08 120.11 98.96 120.11
  Q 98.82 120.11 98.68 120.11
  A 0.52 0.48 65.8 0 1 98.33 119.96
  L 94.86 116.52
  Q 94.51 116.17 94.14 116.50
  Q 92.51 117.98 90.53 117.74" stroke="#8880ff"></path>
<path d="M 90.53 117.74
  Q 91.07 117.24 90.86 116.45" stroke="#6d62ff"></path>
<path d="M 112.31 116.88
  L 102.72 108.14
  Q 102.40 107.85 102.10 108.15
  L 101.74 108.51
  A 0.18 0.18 0.0 0 1 101.44 108.41
  Q 101.21 106.86 99.68 107.05" stroke="#796fff"></path>
<path d="M 136.41 95.86
  Q 134.75 94.30 133.01 92.97
  Q 132.92 92.19 132.16 92.37
  A 0.81 0.81 0.0 0 1 131.26 91.96
  Q 130.70 90.89 129.49 90.86
  A 0.56 0.45 -53.0 0 1 129.46 89.89
  Q 129.53 89.85 129.81 89.84
  Q 130.17 89.83 129.88 89.62
  L 128.57 88.67
  Q 128.25 88.44 127.89 88.30
  C 127.11 88.01 126.60 87.29 125.99 86.92
  C 124.66 86.11 123.50 85.46 122.43 84.25
  Q 119.64 81.11 116.36 78.54" stroke="#6358fe"></path>
</g>
<path d="M 0.00 0.00
  L 180.00 0.00
  L 180.00 180.00
  L 0.00 180.00
  L 0.00 0.00
  Z
  M 68.50 60.06
  Q 74.80 65.01 77.70 72.66
  C 78.30 74.76 79.04 76.87 79.23 79.15
  C 79.57 83.24 82.09 94.45 86.25 95.96
  C 91.51 97.87 97.68 81.32 99.40 78.25
  Q 104.09 69.83 110.29 62.56
  A 0.38 0.37 -55.4 0 0 110.19 61.99
  L 99.00 55.61
  L 82.95 48.10
  C 74.32 43.30 62.40 45.29 57.10 54.08
  A 0.66 0.66 0.0 0 0 57.51 55.06
  Q 63.44 56.52 68.50 60.06
  Z
  M 52.97 102.03
  L 53.91 114.03
  C 53.94 128.10 65.45 137.51 79.23 133.45
  Q 84.98 131.76 101.07 123.26
  L 112.31 116.88
  Q 123.19 110.47 130.34 104.84
  Q 134.44 101.61 136.41 95.86
  C 139.25 84.93 134.77 77.87 125.95 72.16
  Q 125.52 71.89 125.07 72.12
  Q 119.96 74.80 116.36 78.54
  Q 113.21 81.48 111.89 83.89
  Q 108.97 89.19 99.68 107.05
  C 97.58 110.48 95.10 115.35 90.86 116.45
  Q 88.37 117.61 84.73 116.17
  Q 80.39 114.05 77.01 110.14
  Q 73.08 105.27 70.31 99.25
  Q 67.32 92.13 63.65 77.63
  Q 61.88 70.64 53.89 70.63
  Q 53.47 70.63 53.43 71.06
  Q 52.11 86.54 52.97 102.03
  Z" fill="#ffffff"></path>
<path d="M 82.95 48.10
  Q 82.47 49.70 80.86 50.34
  Q 80.43 50.51 80.10 50.83
  C 78.47 52.46 76.65 53.48 74.63 54.99
  C 72.72 56.40 71.25 57.11 69.57 59.55
  Q 69.56 59.56 69.57 59.57
  Q 69.66 59.66 69.75 59.76
  Q 69.93 59.93 69.69 60.03
  Q 69.16 60.24 68.50 60.06
  Q 63.44 56.52 57.51 55.06
  A 0.66 0.66 0.0 0 1 57.10 54.08
  C 62.40 45.29 74.32 43.30 82.95 48.10
  Z" fill="#574bfe"></path>
<path d="M 82.95 48.10
  L 99.00 55.61
  Q 96.65 58.49 93.69 60.57
  Q 88.11 64.50 88.05 64.55
  Q 85.97 66.22 83.89 67.89
  C 82.32 69.15 79.58 70.56 77.70 72.66
  Q 74.80 65.01 68.50 60.06
  Q 69.16 60.24 69.69 60.03
  Q 69.93 59.93 69.75 59.76
  Q 69.66 59.66 69.57 59.57
  Q 69.56 59.56 69.57 59.55
  C 71.25 57.11 72.72 56.40 74.63 54.99
  C 76.65 53.48 78.47 52.46 80.10 50.83
  Q 80.43 50.51 80.86 50.34
  Q 82.47 49.70 82.95 48.10
  Z" fill="#6f65fe"></path>
<path d="M 99.00 55.61
  L 110.19 61.99
  A 0.38 0.37 -55.4 0 1 110.29 62.56
  Q 104.09 69.83 99.40 78.25
  C 97.68 81.32 91.51 97.87 86.25 95.96
  C 82.09 94.45 79.57 83.24 79.23 79.15
  C 79.04 76.87 78.30 74.76 77.70 72.66
  C 79.58 70.56 82.32 69.15 83.89 67.89
  Q 85.97 66.22 88.05 64.55
  Q 88.11 64.50 93.69 60.57
  Q 96.65 58.49 99.00 55.61
  Z" fill="#8279ff"></path>
<path d="M 70.31 99.25
  L 60.58 100.59
  Q 60.18 100.64 59.83 100.46
  Q 59.33 100.21 58.81 100.59
  Q 58.37 100.92 57.97 100.55
  Q 57.32 99.94 56.99 100.58
  Q 56.73 101.06 56.19 101.02
  Q 54.35 100.90 52.97 102.03
  Q 52.11 86.54 53.43 71.06
  Q 53.47 70.63 53.89 70.63
  Q 61.88 70.64 63.65 77.63
  Q 67.32 92.13 70.31 99.25
  Z" fill="#8e86ff"></path>
<path d="M 136.41 95.86
  Q 134.75 94.30 133.01 92.97
  Q 132.92 92.19 132.16 92.37
  A 0.81 0.81 0.0 0 1 131.26 91.96
  Q 130.70 90.89 129.49 90.86
  A 0.56 0.45 -53.0 0 1 129.46 89.89
  Q 129.53 89.85 129.81 89.84
  Q 130.17 89.83 129.88 89.62
  L 128.57 88.67
  Q 128.25 88.44 127.89 88.30
  C 127.11 88.01 126.60 87.29 125.99 86.92
  C 124.66 86.11 123.50 85.46 122.43 84.25
  Q 119.64 81.11 116.36 78.54
  Q 119.96 74.80 125.07 72.12
  Q 125.52 71.89 125.95 72.16
  C 134.77 77.87 139.25 84.93 136.41 95.86
  Z" fill="#574bfe"></path>
<path d="M 116.36 78.54
  Q 119.64 81.11 122.43 84.25
  C 123.50 85.46 124.66 86.11 125.99 86.92
  C 126.60 87.29 127.11 88.01 127.89 88.30
  Q 128.25 88.44 128.57 88.67
  L 129.88 89.62
  Q 130.17 89.83 129.81 89.84
  Q 129.53 89.85 129.46 89.89
  A 0.56 0.45 -53.0 0 0 129.49 90.86
  Q 130.70 90.89 131.26 91.96
  A 0.81 0.81 0.0 0 0 132.16 92.37
  Q 132.92 92.19 133.01 92.97
  Q 134.75 94.30 136.41 95.86
  Q 134.44 101.61 130.34 104.84
  Q 123.19 110.47 112.31 116.88
  L 102.72 108.14
  Q 102.40 107.85 102.10 108.15
  L 101.74 108.51
  A 0.18 0.18 0.0 0 1 101.44 108.41
  Q 101.21 106.86 99.68 107.05
  Q 108.97 89.19 111.89 83.89
  Q 113.21 81.48 116.36 78.54
  Z" fill="#6f65fe"></path>
<path d="M 70.31 99.25
  Q 73.08 105.27 77.01 110.14
  L 56.59 112.46
  Q 56.19 112.50 55.85 112.29
  Q 55.36 111.97 54.86 112.55
  Q 54.51 112.96 54.69 113.47
  L 54.89 114.03
  Q 54.52 114.21 53.91 114.03
  L 52.97 102.03
  Q 54.35 100.90 56.19 101.02
  Q 56.73 101.06 56.99 100.58
  Q 57.32 99.94 57.97 100.55
  Q 58.37 100.92 58.81 100.59
  Q 59.33 100.21 59.83 100.46
  Q 60.18 100.64 60.58 100.59
  L 70.31 99.25
  Z" fill="#8279ff"></path>
<path d="M 99.68 107.05
  Q 101.21 106.86 101.44 108.41
  A 0.18 0.18 0.0 0 0 101.74 108.51
  L 102.10 108.15
  Q 102.40 107.85 102.72 108.14
  L 112.31 116.88
  L 101.07 123.26
  Q 100.46 121.62 99.00 120.84
  Q 98.78 120.72 98.89 120.49
  Q 98.96 120.36 99.03 120.22
  Q 99.08 120.11 98.96 120.11
  Q 98.82 120.11 98.68 120.11
  A 0.52 0.48 65.8 0 1 98.33 119.96
  L 94.86 116.52
  Q 94.51 116.17 94.14 116.50
  Q 92.51 117.98 90.53 117.74
  Q 91.07 117.24 90.86 116.45
  C 95.10 115.35 97.58 110.48 99.68 107.05
  Z" fill="#8279ff"></path>
<path d="M 77.01 110.14
  Q 80.39 114.05 84.73 116.17
  Q 83.61 118.04 80.32 118.15
  Q 76.19 118.28 75.70 118.35
  Q 71.56 118.89 67.40 119.32
  C 66.36 119.42 65.87 119.96 65.39 120.80
  Q 59.34 118.37 54.89 114.03
  L 54.69 113.47
  Q 54.51 112.96 54.86 112.55
  Q 55.36 111.97 55.85 112.29
  Q 56.19 112.50 56.59 112.46
  L 77.01 110.14
  Z" fill="#6f65fe"></path>
<path d="M 53.91 114.03
  Q 54.52 114.21 54.89 114.03
  Q 59.34 118.37 65.39 120.80
  Q 78.83 125.12 90.53 117.74
  Q 92.51 117.98 94.14 116.50
  Q 94.51 116.17 94.86 116.52
  L 98.33 119.96
  A 0.52 0.48 65.8 0 0 98.68 120.11
  Q 98.82 120.11 98.96 120.11
  Q 99.08 120.11 99.03 120.22
  Q 98.96 120.36 98.89 120.49
  Q 98.78 120.72 99.00 120.84
  Q 100.46 121.62 101.07 123.26
  Q 84.98 131.76 79.23 133.45
  C 65.45 137.51 53.94 128.10 53.91 114.03
  Z" fill="#8e86ff"></path>
<path d="M 84.73 116.17
  Q 88.37 117.61 90.86 116.45
  Q 91.07 117.24 90.53 117.74
  Q 78.83 125.12 65.39 120.80
  C 65.87 119.96 66.36 119.42 67.40 119.32
  Q 71.56 118.89 75.70 118.35
  Q 76.19 118.28 80.32 118.15
  Q 83.61 118.04 84.73 116.17
  Z" fill="#574bfe"></path>
</svg>
