<svg viewBox="0.00 0.00 192.00 192.00" version="1.1" xmlns="http://www.w3.org/2000/svg">
<g stroke-linecap="butt" fill="none" stroke-width="2.00">
<path d="M 144.30 80.96
  A 0.27 0.27 0.0 0 0 144.03 80.69
  L 140.75 80.69
  A 0.27 0.27 0.0 0 0 140.48 80.96
  L 140.48 110.84
  A 0.27 0.27 0.0 0 0 140.75 111.11
  L 144.03 111.11
  A 0.27 0.27 0.0 0 0 144.30 110.84
  L 144.30 80.96" stroke="#829be8"></path>
<path d="M 50.25 90.96
  L 50.40 89.47
  Q 50.45 88.99 49.97 89.00
  L 47.74 89.02
  A 0.74 0.73 89.6 0 0 47.02 89.76
  L 47.02 110.29
  Q 47.02 111.06 47.79 111.07
  L 49.94 111.12
  A 0.81 0.81 0.0 0 0 50.77 110.31
  L 50.86 96.53
  A 4.52 4.50 82.4 0 1 54.13 92.23
  L 55.30 91.89
  A 3.54 3.54 0.0 0 1 59.81 95.30
  L 59.80 110.42
  Q 59.80 111.04 60.42 111.06
  L 63.21 111.12
  A 0.58 0.58 0.0 0 0 63.80 110.54
  L 63.76 96.51
  A 4.46 4.45 82.0 0 1 67.00 92.21
  L 68.05 91.91
  A 3.74 3.74 0.0 0 1 72.81 95.52
  L 72.80 110.44
  Q 72.80 111.08 73.44 111.09
  L 76.00 111.14
  Q 76.70 111.16 76.71 110.46
  Q 76.84 98.64 76.63 94.75
  C 76.22 87.18 67.56 86.85 63.53 91.67
  Q 63.16 92.12 62.86 91.62
  C 60.23 87.17 54.10 87.74 50.97 91.27
  A 0.41 0.41 0.0 0 1 50.25 90.96" stroke="#829be8"></path>
<path d="M 85.40 90.95
  L 85.47 89.76
  Q 85.52 89.00 84.76 89.00
  L 82.75 89.01
  Q 82.00 89.01 82.00 89.75
  L 82.01 110.29
  Q 82.01 111.06 82.79 111.08
  L 85.26 111.14
  A 0.70 0.70 0.0 0 0 85.98 110.44
  C 85.96 106.87 85.11 97.97 86.57 94.89
  C 88.75 90.29 96.20 90.76 96.12 96.75
  Q 96.03 103.81 96.00 110.34
  A 0.74 0.73 -89.2 0 0 96.71 111.08
  L 99.27 111.18
  Q 99.97 111.21 99.98 110.50
  Q 100.05 103.34 100.07 95.75
  C 100.09 87.78 90.88 86.57 86.03 91.25
  A 0.38 0.37 69.9 0 1 85.40 90.95" stroke="#829be8"></path>
<path d="M 108.77 91.23
  L 109.00 89.52
  A 0.48 0.48 0.0 0 0 108.52 88.98
  L 106.24 88.99
  Q 105.46 88.99 105.47 89.76
  L 105.50 110.55
  Q 105.50 111.09 106.04 111.11
  L 108.67 111.18
  A 0.60 0.60 0.0 0 0 109.28 110.58
  L 109.46 96.21
  A 4.22 4.22 0.0 0 1 112.76 92.14
  L 113.88 91.90
  A 3.76 3.76 0.0 0 1 118.45 95.59
  L 118.36 110.53
  Q 118.36 111.20 119.03 111.20
  L 121.54 111.19
  Q 122.38 111.19 122.38 110.34
  L 122.41 96.26
  A 4.20 4.19 83.2 0 1 125.61 92.18
  L 126.75 91.91
  A 3.72 3.72 0.0 0 1 131.35 95.50
  L 131.43 110.53
  A 0.62 0.61 90.0 0 0 132.03 111.14
  L 134.75 111.20
  Q 135.26 111.21 135.26 110.70
  Q 135.32 103.28 135.35 95.50
  C 135.39 87.74 126.51 86.20 122.22 91.60
  Q 121.87 92.04 121.52 91.59
  C 117.90 86.88 113.15 87.79 109.17 91.43
  Q 108.69 91.87 108.77 91.23" stroke="#829be8"></path>
</g>
<path d="M 0.00 0.00
  L 192.00 0.00
  L 192.00 192.00
  L 0.00 192.00
  L 0.00 0.00
  Z
  M 144.30 80.96
  A 0.27 0.27 0.0 0 0 144.03 80.69
  L 140.75 80.69
  A 0.27 0.27 0.0 0 0 140.48 80.96
  L 140.48 110.84
  A 0.27 0.27 0.0 0 0 140.75 111.11
  L 144.03 111.11
  A 0.27 0.27 0.0 0 0 144.30 110.84
  L 144.30 80.96
  Z
  M 50.25 90.96
  L 50.40 89.47
  Q 50.45 88.99 49.97 89.00
  L 47.74 89.02
  A 0.74 0.73 89.6 0 0 47.02 89.76
  L 47.02 110.29
  Q 47.02 111.06 47.79 111.07
  L 49.94 111.12
  A 0.81 0.81 0.0 0 0 50.77 110.31
  L 50.86 96.53
  A 4.52 4.50 82.4 0 1 54.13 92.23
  L 55.30 91.89
  A 3.54 3.54 0.0 0 1 59.81 95.30
  L 59.80 110.42
  Q 59.80 111.04 60.42 111.06
  L 63.21 111.12
  A 0.58 0.58 0.0 0 0 63.80 110.54
  L 63.76 96.51
  A 4.46 4.45 82.0 0 1 67.00 92.21
  L 68.05 91.91
  A 3.74 3.74 0.0 0 1 72.81 95.52
  L 72.80 110.44
  Q 72.80 111.08 73.44 111.09
  L 76.00 111.14
  Q 76.70 111.16 76.71 110.46
  Q 76.84 98.64 76.63 94.75
  C 76.22 87.18 67.56 86.85 63.53 91.67
  Q 63.16 92.12 62.86 91.62
  C 60.23 87.17 54.10 87.74 50.97 91.27
  A 0.41 0.41 0.0 0 1 50.25 90.96
  Z
  M 85.40 90.95
  L 85.47 89.76
  Q 85.52 89.00 84.76 89.00
  L 82.75 89.01
  Q 82.00 89.01 82.00 89.75
  L 82.01 110.29
  Q 82.01 111.06 82.79 111.08
  L 85.26 111.14
  A 0.70 0.70 0.0 0 0 85.98 110.44
  C 85.96 106.87 85.11 97.97 86.57 94.89
  C 88.75 90.29 96.20 90.76 96.12 96.75
  Q 96.03 103.81 96.00 110.34
  A 0.74 0.73 -89.2 0 0 96.71 111.08
  L 99.27 111.18
  Q 99.97 111.21 99.98 110.50
  Q 100.05 103.34 100.07 95.75
  C 100.09 87.78 90.88 86.57 86.03 91.25
  A 0.38 0.37 69.9 0 1 85.40 90.95
  Z
  M 108.77 91.23
  L 109.00 89.52
  A 0.48 0.48 0.0 0 0 108.52 88.98
  L 106.24 88.99
  Q 105.46 88.99 105.47 89.76
  L 105.50 110.55
  Q 105.50 111.09 106.04 111.11
  L 108.67 111.18
  A 0.60 0.60 0.0 0 0 109.28 110.58
  L 109.46 96.21
  A 4.22 4.22 0.0 0 1 112.76 92.14
  L 113.88 91.90
  A 3.76 3.76 0.0 0 1 118.45 95.59
  L 118.36 110.53
  Q 118.36 111.20 119.03 111.20
  L 121.54 111.19
  Q 122.38 111.19 122.38 110.34
  L 122.41 96.26
  A 4.20 4.19 83.2 0 1 125.61 92.18
  L 126.75 91.91
  A 3.72 3.72 0.0 0 1 131.35 95.50
  L 131.43 110.53
  A 0.62 0.61 90.0 0 0 132.03 111.14
  L 134.75 111.20
  Q 135.26 111.21 135.26 110.70
  Q 135.32 103.28 135.35 95.50
  C 135.39 87.74 126.51 86.20 122.22 91.60
  Q 121.87 92.04 121.52 91.59
  C 117.90 86.88 113.15 87.79 109.17 91.43
  Q 108.69 91.87 108.77 91.23
  Z" fill="#0536d0"></path>
<rect rx="0.27" height="30.42" width="3.82" y="80.69" x="140.48" fill="#ffffff"></rect>
<path d="M 50.25 90.96
  A 0.41 0.41 0.0 0 0 50.97 91.27
  C 54.10 87.74 60.23 87.17 62.86 91.62
  Q 63.16 92.12 63.53 91.67
  C 67.56 86.85 76.22 87.18 76.63 94.75
  Q 76.84 98.64 76.71 110.46
  Q 76.70 111.16 76.00 111.14
  L 73.44 111.09
  Q 72.80 111.08 72.80 110.44
  L 72.81 95.52
  A 3.74 3.74 0.0 0 0 68.05 91.91
  L 67.00 92.21
  A 4.46 4.45 82.0 0 0 63.76 96.51
  L 63.80 110.54
  A 0.58 0.58 0.0 0 1 63.21 111.12
  L 60.42 111.06
  Q 59.80 111.04 59.80 110.42
  L 59.81 95.30
  A 3.54 3.54 0.0 0 0 55.30 91.89
  L 54.13 92.23
  A 4.52 4.50 82.4 0 0 50.86 96.53
  L 50.77 110.31
  A 0.81 0.81 0.0 0 1 49.94 111.12
  L 47.79 111.07
  Q 47.02 111.06 47.02 110.29
  L 47.02 89.76
  A 0.74 0.73 89.6 0 1 47.74 89.02
  L 49.97 89.00
  Q 50.45 88.99 50.40 89.47
  L 50.25 90.96
  Z" fill="#ffffff"></path>
<path d="M 86.03 91.25
  C 90.88 86.57 100.09 87.78 100.07 95.75
  Q 100.05 103.34 99.98 110.50
  Q 99.97 111.21 99.27 111.18
  L 96.71 111.08
  A 0.74 0.73 -89.2 0 1 96.00 110.34
  Q 96.03 103.81 96.12 96.75
  C 96.20 90.76 88.75 90.29 86.57 94.89
  C 85.11 97.97 85.96 106.87 85.98 110.44
  A 0.70 0.70 0.0 0 1 85.26 111.14
  L 82.79 111.08
  Q 82.01 111.06 82.01 110.29
  L 82.00 89.75
  Q 82.00 89.01 82.75 89.01
  L 84.76 89.00
  Q 85.52 89.00 85.47 89.76
  L 85.40 90.95
  A 0.38 0.37 69.9 0 0 86.03 91.25
  Z" fill="#ffffff"></path>
<path d="M 109.17 91.43
  C 113.15 87.79 117.90 86.88 121.52 91.59
  Q 121.87 92.04 122.22 91.60
  C 126.51 86.20 135.39 87.74 135.35 95.50
  Q 135.32 103.28 135.26 110.70
  Q 135.26 111.21 134.75 111.20
  L 132.03 111.14
  A 0.62 0.61 90.0 0 1 131.43 110.53
  L 131.35 95.50
  A 3.72 3.72 0.0 0 0 126.75 91.91
  L 125.61 92.18
  A 4.20 4.19 83.2 0 0 122.41 96.26
  L 122.38 110.34
  Q 122.38 111.19 121.54 111.19
  L 119.03 111.20
  Q 118.36 111.20 118.36 110.53
  L 118.45 95.59
  A 3.76 3.76 0.0 0 0 113.88 91.90
  L 112.76 92.14
  A 4.22 4.22 0.0 0 0 109.46 96.21
  L 109.28 110.58
  A 0.60 0.60 0.0 0 1 108.67 111.18
  L 106.04 111.11
  Q 105.50 111.09 105.50 110.55
  L 105.47 89.76
  Q 105.46 88.99 106.24 88.99
  L 108.52 88.98
  A 0.48 0.48 0.0 0 1 109.00 89.52
  L 108.77 91.23
  Q 108.69 91.87 109.17 91.43
  Z" fill="#ffffff"></path>
</svg>
