<svg viewBox="0.00 0.00 256.00 256.00" version="1.1" xmlns="http://www.w3.org/2000/svg">
<g stroke-linecap="butt" fill="none" stroke-width="2.00">
<path d="M 162.28 23.79
  Q 162.18 23.99 161.85 23.97
  Q 161.71 23.96 161.65 23.83
  Q 161.57 23.68 161.50 23.52
  A 0.13 0.13 0.0 0 0 161.29 23.49
  C 158.70 26.40 156.90 26.37 154.09 27.91
  Q 153.98 27.97 154.07 28.06
  Q 154.17 28.16 154.28 28.26
  Q 154.51 28.48 154.22 28.61
  Q 151.01 30.04 148.57 32.56
  Q 148.14 33.01 146.85 33.81
  Q 146.69 33.91 146.74 34.09
  L 146.91 34.64
  A 0.04 0.04 0.0 0 1 146.88 34.70
  L 145.23 35.08
  A 1.18 1.18 0.0 0 0 144.62 35.43
  Q 142.10 38.03 138.99 39.87
  Q 138.36 40.24 137.70 41.43
  A 0.91 0.89 11.5 0 1 136.98 41.89
  Q 135.69 42.00 135.61 43.21
  Q 135.58 43.78 135.02 43.85
  Q 133.21 44.09 132.62 45.85
  Q 132.53 46.13 132.22 46.13
  L 131.52 46.13
  Q 131.29 46.13 131.22 46.36
  Q 131.01 47.07 130.29 47.15
  A 0.93 0.93 0.0 0 0 129.73 47.43
  L 124.93 52.20
  Q 124.60 52.54 124.16 52.73
  Q 123.17 53.16 122.58 53.88
  Q 122.28 54.24 121.88 54.46
  Q 119.36 55.82 117.16 57.65
  C 116.43 58.26 115.43 58.52 114.74 59.17
  C 112.84 60.96 110.74 62.41 108.62 63.93
  Q 108.48 64.02 108.45 64.15
  Q 108.40 64.35 108.50 64.53
  Q 108.68 64.84 108.53 65.16
  Q 108.13 66.00 107.21 66.18
  Q 106.77 66.26 106.38 66.49
  Q 105.21 67.19 103.82 67.38
  A 1.43 1.40 20.2 0 0 103.13 67.69
  C 101.99 68.63 101.23 69.45 99.80 70.14
  Q 97.40 71.29 96.36 73.93
  Q 96.26 74.19 96.03 74.03
  Q 95.90 73.93 95.67 74.07
  Q 95.56 74.13 95.49 74.02
  Q 95.22 73.63 94.93 73.47
  Q 94.79 73.39 94.67 73.49
  Q 93.46 74.46 94.11 75.43
  Q 94.19 75.55 94.06 75.61
  Q 93.91 75.68 93.75 75.76
  Q 93.75 75.76 93.61 75.50
  Q 93.55 75.38 93.49 75.25
  A 0.18 0.17 54.4 0 0 93.21 75.20
  L 90.07 78.44
  Q 89.90 78.61 89.89 78.85
  Q 89.89 79.06 89.89 79.26
  Q 89.89 79.92 89.23 79.89
  Q 87.86 79.83 86.57 80.23
  Q 86.19 80.35 85.92 80.64
  Q 85.57 81.00 85.02 80.90
  Q 84.51 80.80 84.17 81.19
  C 82.88 82.66 81.99 84.26 79.92 84.70
  Q 79.46 84.80 79.10 85.10
  Q 78.45 85.66 77.24 85.97" stroke="#637cff"></path>
<path d="M 172.36 46.76
  Q 171.99 47.18 171.88 47.52
  Q 171.82 47.73 171.64 47.86
  Q 171.28 48.13 171.41 48.69
  Q 171.45 48.87 171.25 48.89
  Q 170.95 48.92 170.72 48.77
  A 0.60 0.59 -47.3 0 0 170.02 48.80
  L 166.39 51.61
  Q 166.36 51.63 166.34 51.60
  Q 166.17 51.42 166.00 51.28
  Q 165.76 51.08 165.49 51.26
  L 154.40 58.64
  Q 154.09 58.85 154.08 59.22
  L 154.07 59.49
  Q 154.05 59.92 153.63 60.06
  C 152.19 60.52 150.71 61.23 149.70 62.40
  Q 149.39 62.77 148.95 62.93
  A 1.48 0.21 -17.5 0 0 148.08 63.35
  Q 146.57 64.71 144.69 65.50
  Q 144.56 65.55 144.67 65.64
  Q 144.82 65.78 144.94 66.05
  A 0.19 0.19 0.0 0 1 144.78 66.32
  Q 142.94 66.46 141.86 67.89
  A 1.96 1.89 6.0 0 1 141.10 68.48
  C 139.27 69.27 138.24 70.67 136.52 71.60
  C 134.21 72.85 132.97 74.84 131.81 77.39
  Q 131.60 77.86 131.24 77.50
  L 130.99 77.25
  A 0.50 0.50 0.0 0 0 130.15 77.51
  Q 130.05 78.02 130.39 78.37
  Q 130.78 78.76 130.39 79.15
  Q 129.98 79.56 129.90 80.12
  Q 129.82 80.63 129.35 80.84
  Q 128.45 81.25 128.65 82.17
  Q 128.68 82.33 128.56 82.45
  Q 128.47 82.55 128.37 82.64
  A 0.17 0.16 67.8 0 1 128.09 82.52
  L 128.09 81.82
  A 0.22 0.22 0.0 0 0 127.69 81.70
  Q 127.02 82.74 125.84 83.11
  Q 125.34 83.27 125.70 83.66
  Q 126.02 84.00 125.45 84.47
  A 0.74 0.73 25.1 0 1 124.99 84.63
  Q 124.08 84.62 123.37 85.23
  Q 123.03 85.51 122.60 85.59
  L 120.28 85.98" stroke="#5a84ff"></path>
<path d="M 48.43 107.48
  Q 47.86 107.87 47.44 108.44
  Q 47.17 108.80 46.71 108.75
  Q 45.65 108.64 44.93 109.37
  Q 44.55 109.74 44.04 109.85
  Q 42.60 110.14 41.66 111.35
  Q 41.40 111.69 41.04 111.91
  Q 39.91 112.59 39.63 113.98
  Q 39.55 114.39 39.21 114.64
  L 34.72 117.97
  Q 34.40 118.21 34.24 118.58
  Q 34.04 119.04 33.54 119.15
  Q 33.07 119.25 33.04 119.73
  Q 32.99 120.71 32.09 120.82
  Q 31.57 120.88 31.19 121.24
  Q 30.12 122.27 28.25 122.99
  Q 27.40 123.31 26.92 124.31
  Q 26.72 124.71 26.29 124.86
  Q 24.94 125.31 23.68 127.09" stroke="#637cff"></path>
<path d="M 59.57 129.94
  Q 59.22 131.53 58.46 132.02
  Q 58.25 132.16 58.13 132.37
  Q 57.60 133.26 56.56 133.36
  Q 56.16 133.40 55.91 133.71
  Q 55.49 134.22 54.72 134.20
  A 1.06 0.11 -40.3 0 0 53.95 134.73
  Q 53.65 134.98 53.53 135.25
  Q 53.34 135.69 52.88 135.84
  Q 51.14 136.41 50.79 138.43
  Q 50.69 138.97 50.15 138.92
  Q 49.24 138.85 48.91 139.61
  Q 48.71 140.09 48.20 140.00
  Q 47.62 139.90 47.26 140.26
  A 0.46 0.45 -34.3 0 0 47.16 140.76
  Q 47.24 140.94 47.39 141.04
  Q 47.86 141.34 47.47 141.73
  Q 46.45 142.77 44.27 142.96
  Q 42.35 143.12 41.78 145.19
  Q 41.67 145.57 41.30 145.70
  L 40.20 146.09" stroke="#5a84ff"></path>
<path d="M 72.09 155.33
  Q 71.16 155.38 69.96 154.92
  Q 69.41 154.71 69.30 155.29
  Q 69.10 156.35 68.32 157.11
  Q 67.95 157.48 67.85 157.99
  Q 67.82 158.12 67.80 158.25
  Q 67.68 158.89 67.04 158.89
  L 64.48 158.89
  Q 63.78 158.89 63.90 159.59
  Q 63.98 160.04 63.88 160.51
  Q 63.80 160.85 63.46 160.86
  L 60.59 160.98
  A 0.50 0.50 0.0 0 0 60.43 161.95
  Q 61.09 162.20 60.89 162.95
  Q 60.73 163.57 60.09 163.65
  Q 58.88 163.80 58.78 164.75
  A 0.45 0.45 0.0 0 1 58.14 165.11
  Q 57.88 164.99 57.62 164.98
  Q 57.49 164.98 57.49 165.10
  Q 57.47 165.25 57.59 165.34
  Q 57.62 165.37 57.58 165.38
  L 57.16 165.56" stroke="#508cff"></path>
<path d="M 136.57 100.02
  Q 133.86 101.49 134.04 103.74
  Q 134.08 104.18 133.75 104.48
  Q 132.79 105.38 131.54 105.67
  Q 131.08 105.77 130.94 106.23
  Q 130.42 107.85 128.79 107.93
  Q 128.28 107.95 127.99 108.38
  C 126.69 110.28 124.54 111.26 123.22 112.43
  C 120.42 114.88 117.02 117.40 114.67 120.26
  Q 114.39 120.60 113.95 120.63
  Q 112.74 120.72 112.17 121.68
  Q 111.92 122.10 111.53 122.42
  L 108.43 124.88
  Q 107.99 125.23 107.75 125.73
  Q 107.38 126.48 106.59 126.69
  Q 106.18 126.81 106.03 126.94
  Q 105.84 127.11 105.71 127.36
  Q 105.54 127.68 105.17 127.72
  C 103.95 127.86 103.10 130.89 100.96 131.60
  A 0.55 0.43 7.0 0 0 100.76 131.72
  Q 99.54 132.95 99.17 133.67
  Q 98.99 134.01 98.60 134.10
  Q 96.91 134.48 96.69 136.28
  Q 96.67 136.42 96.53 136.42
  Q 96.37 136.44 96.23 136.38
  Q 95.91 136.26 95.62 136.44
  Q 93.26 137.88 91.34 139.83
  Q 91.26 139.91 91.16 139.90
  Q 91.05 139.88 90.97 139.73
  Q 90.96 139.71 90.94 139.73
  L 88.62 142.23
  Q 88.55 142.30 87.89 142.58
  Q 87.29 142.83 86.90 142.42
  Q 86.39 141.86 86.01 142.52
  Q 85.85 142.80 85.95 143.11
  Q 86.01 143.30 85.82 143.37
  Q 85.66 143.43 85.56 143.35
  Q 85.29 143.12 85.18 143.45
  L 85.06 143.77" stroke="#508cff"></path>
<path d="M 175.05 100.03
  L 174.35 100.42
  Q 174.15 100.53 174.24 100.75
  Q 174.33 100.95 174.54 100.89
  A 0.33 0.33 0.0 0 1 174.88 101.41
  Q 174.22 102.30 173.31 102.22
  Q 172.87 102.18 172.45 102.34
  Q 171.15 102.83 169.77 102.88
  Q 169.36 102.89 169.16 103.25
  Q 168.37 104.61 166.79 104.83
  Q 166.30 104.90 165.96 105.24
  C 164.51 106.68 161.73 107.92 161.48 110.00
  Q 161.43 110.43 161.16 110.79
  L 159.04 113.54
  A 1.06 1.06 0.0 0 1 158.64 113.86
  Q 156.16 114.94 154.62 117.12
  Q 154.33 117.52 153.84 117.49
  Q 153.09 117.44 152.32 117.99
  Q 149.44 120.05 148.03 121.24
  A 0.73 0.73 0.0 0 0 147.77 121.80
  Q 147.77 122.59 146.89 122.53
  Q 146.35 122.49 145.96 122.86
  L 143.77 124.95
  A 0.81 0.73 9.1 0 1 143.51 125.12
  C 141.91 125.73 140.99 127.38 139.20 128.11
  Q 138.76 128.28 138.46 128.64
  C 137.15 130.19 136.06 131.47 134.26 132.59
  Q 133.15 133.29 132.08 134.06
  C 130.92 134.89 129.25 135.02 128.64 137.03
  Q 128.50 137.49 128.02 137.51
  Q 127.40 137.53 127.10 138.08
  Q 126.82 138.57 126.33 138.83
  L 123.51 140.35
  Q 123.14 140.54 123.08 140.95
  Q 123.04 141.18 122.94 141.39
  Q 122.79 141.67 122.35 141.89
  C 121.03 142.55 119.85 143.09 118.76 144.16
  Q 116.08 146.79 113.20 149.20
  Q 112.20 150.04 111.02 150.55
  Q 110.64 150.70 110.47 151.07
  Q 109.53 153.10 107.38 153.33
  A 0.25 0.25 0.0 0 0 107.23 153.75
  Q 107.37 153.89 107.46 153.97
  Q 107.54 154.04 107.45 154.09
  L 105.68 155.11
  Q 105.21 155.38 104.89 155.82
  Q 104.10 156.94 102.95 157.69
  Q 102.70 157.86 102.78 158.14
  Q 102.82 158.29 102.78 158.44
  Q 102.72 158.68 102.42 158.81
  Q 102.09 158.97 101.72 159.02
  Q 101.24 159.09 101.07 159.55
  Q 100.40 161.46 98.57 162.42
  Q 98.20 162.61 97.93 162.29
  Q 97.73 162.05 97.44 161.98
  A 0.40 0.40 0.0 0 0 96.97 162.45
  Q 97.18 163.43 96.51 163.99
  Q 95.95 164.47 95.93 164.54
  Q 95.75 165.12 94.98 164.76
  Q 94.73 164.64 94.58 164.42
  Q 94.41 164.19 94.03 164.27" stroke="#4794ff"></path>
<path d="M 175.21 134.04
  Q 173.97 133.10 172.43 135.10
  Q 172.09 135.54 172.13 136.10
  Q 172.19 136.71 171.70 137.03
  Q 171.44 137.19 171.23 136.98
  L 170.99 136.73
  Q 170.66 136.40 170.24 136.62
  Q 169.86 136.82 169.94 137.16
  Q 170.08 137.71 169.56 137.92
  C 167.21 138.85 166.74 140.90 163.69 140.32
  Q 163.62 140.30 163.62 140.37
  L 163.62 140.64
  Q 163.62 140.65 163.64 140.65
  L 164.37 140.55
  Q 165.16 140.43 164.60 141.00
  L 163.86 141.74
  Q 163.59 142.01 163.22 141.87
  Q 162.42 141.57 161.75 142.14
  A 0.41 0.41 0.0 0 0 161.82 142.81
  Q 162.14 142.99 162.25 142.77
  Q 162.37 142.53 162.59 142.68
  Q 163.15 143.06 162.83 143.58
  Q 161.86 145.18 160.15 145.16
  Q 159.61 145.16 159.18 145.49
  Q 157.99 146.43 157.04 147.81
  A 1.08 1.02 1.7 0 1 156.68 148.13
  Q 154.93 149.10 153.76 150.51
  Q 153.38 150.96 153.13 150.43
  Q 152.99 150.13 153.09 149.80
  Q 153.12 149.70 153.15 149.81
  Q 153.23 150.13 153.09 150.49
  Q 152.90 150.99 152.38 151.12
  Q 151.96 151.22 151.77 151.74
  Q 151.57 152.30 151.14 151.88
  L 150.88 151.62
  Q 150.50 151.24 150.10 151.60
  L 148.15 153.34
  Q 147.79 153.67 147.88 154.14
  Q 147.99 154.72 147.24 154.83
  Q 146.08 155.00 145.84 156.10
  Q 145.73 156.60 145.26 156.39
  Q 144.38 155.98 143.63 156.40
  Q 143.14 156.67 143.07 157.50
  A 0.64 0.64 0.0 0 1 142.47 158.09
  Q 141.98 158.11 141.79 158.42
  Q 141.39 159.06 141.12 158.62
  Q 140.96 158.35 140.65 158.35
  Q 140.23 158.36 140.15 158.77
  Q 140.05 159.37 139.58 159.83
  Q 139.54 159.87 139.59 159.88
  Q 139.71 159.93 139.82 160.10
  Q 140.03 160.45 139.65 160.59
  Q 138.72 160.94 137.98 161.59
  Q 137.66 161.87 137.23 161.87
  Q 136.59 161.87 136.18 162.39
  Q 136.12 162.48 135.86 163.19
  Q 135.70 163.64 135.29 163.86
  Q 134.61 164.23 134.55 164.27
  Q 132.53 165.87 130.72 167.71
  A 1.10 0.94 -72.8 0 1 130.39 167.92
  Q 128.90 168.43 127.94 169.65
  A 1.07 0.98 -79.2 0 1 127.50 169.98
  Q 125.20 170.89 124.42 172.43
  Q 123.68 173.88 122.54 174.23
  Q 122.22 174.32 122.07 174.62
  Q 121.88 174.96 121.49 175.14
  Q 120.40 175.65 120.25 175.75
  Q 118.22 177.07 116.70 178.94
  A 0.48 0.46 -64.6 0 1 116.25 179.11
  Q 116.00 179.06 115.92 179.28
  Q 115.62 180.19 114.73 180.14
  Q 114.13 180.10 113.96 180.68
  Q 113.48 182.33 111.83 181.83
  A 0.10 0.09 74.8 0 0 111.74 181.99
  L 112.01 182.27
  A 0.44 0.44 0.0 0 1 111.69 183.02
  Q 111.01 183.01 110.41 182.65
  Q 110.37 182.63 110.34 182.66
  Q 110.22 182.76 110.12 182.88
  Q 109.91 183.13 110.24 183.13
  Q 110.41 183.14 110.60 183.13
  A 0.33 0.32 -63.1 0 1 110.79 183.72
  Q 110.26 184.10 110.01 184.68
  Q 109.84 185.08 109.40 185.08
  Q 107.62 185.06 106.45 186.37
  Q 106.17 186.69 106.13 187.11
  Q 106.11 187.40 105.90 187.61
  Q 105.54 187.97 105.25 187.54
  Q 104.80 186.85 104.14 187.36" stroke="#3c9dff"></path>
<path d="M 220.08 23.56
  Q 219.21 24.01 218.59 23.26
  Q 218.34 22.95 218.19 23.32
  Q 217.32 25.55 214.86 25.96
  Q 214.33 26.04 214.02 26.48
  Q 213.59 27.10 212.84 27.13
  Q 212.23 27.15 212.14 27.75
  L 211.81 29.99
  Q 211.71 30.63 211.07 30.69
  Q 210.80 30.72 210.87 31.25
  Q 210.97 31.94 210.27 31.87
  Q 209.74 31.82 209.41 32.21
  Q 209.23 32.42 208.95 32.39
  Q 208.35 32.32 208.07 32.91
  Q 207.83 33.44 207.30 33.19
  Q 205.84 32.52 205.24 33.62
  Q 205.01 34.05 204.59 34.31
  L 200.89 36.68
  Q 200.45 36.96 199.95 37.12
  Q 198.84 37.49 198.12 38.53
  Q 197.97 38.74 198.16 38.90
  Q 198.35 39.07 198.03 39.45
  Q 197.47 40.11 196.85 40.85
  Q 196.33 41.48 196.04 40.71
  Q 195.88 40.30 195.49 40.13
  Q 195.20 40.00 195.07 40.30
  Q 194.68 41.27 193.69 41.97
  Q 193.39 42.19 193.31 42.56
  Q 193.14 43.42 192.35 43.31" stroke="#508cff"></path>
<path d="M 233.26 46.49
  Q 232.69 46.96 231.88 46.88
  Q 231.40 46.84 231.14 47.24
  L 230.82 47.74
  Q 230.51 48.21 230.09 47.84
  Q 229.93 47.70 229.88 47.47
  Q 229.74 46.86 229.36 47.37
  Q 229.07 47.76 229.17 48.29
  A 0.63 0.62 -14.2 0 1 228.74 49.00
  L 227.49 49.40
  Q 227.10 49.52 227.15 49.93
  Q 227.22 50.49 226.87 50.88
  Q 226.66 51.12 226.34 51.12
  L 225.90 51.12
  Q 225.42 51.12 225.13 51.51
  Q 224.33 52.57 223.05 52.38
  Q 222.47 52.29 222.29 52.85
  C 221.68 54.77 219.63 55.93 217.82 57.03
  Q 217.53 57.21 217.20 57.14
  Q 217.02 57.09 216.84 57.09
  Q 216.55 57.09 216.24 57.30
  Q 214.47 58.49 213.94 60.60
  Q 213.81 61.12 213.27 61.12
  L 212.53 61.12
  Q 212.24 61.12 212.16 61.40
  Q 212.00 61.93 211.50 62.13
  Q 211.23 62.23 211.13 62.49
  Q 210.94 62.98 210.42 63.16
  Q 210.07 63.28 209.84 63.56
  Q 209.42 64.06 208.78 64.12
  Q 208.19 64.18 208.12 64.77
  Q 208.05 65.43 207.55 65.85
  A 0.18 0.18 0.0 0 1 207.26 65.77
  Q 207.19 65.57 206.99 65.64
  Q 206.28 65.89 206.24 65.99
  Q 205.97 66.80 205.48 67.45
  Q 205.25 67.75 204.88 67.84
  Q 204.04 68.04 203.73 69.24" stroke="#4794ff"></path>
</g>
<path d="M 0.37 85.42
  L 40.14 16.20
  A 0.39 0.39 0.0 0 1 40.48 16.00
  L 75.06 16.00
  A 0.39 0.39 0.0 0 1 75.42 16.55
  L 45.01 85.77
  A 0.39 0.39 0.0 0 1 44.66 86.00
  L 0.70 86.00
  A 0.39 0.39 0.0 0 1 0.37 85.42
  Z" fill="#6878fe"></path>
<path d="M 162.28 23.79
  Q 162.18 23.99 161.85 23.97
  Q 161.71 23.96 161.65 23.83
  Q 161.57 23.68 161.50 23.52
  A 0.13 0.13 0.0 0 0 161.29 23.49
  C 158.70 26.40 156.90 26.37 154.09 27.91
  Q 153.98 27.97 154.07 28.06
  Q 154.17 28.16 154.28 28.26
  Q 154.51 28.48 154.22 28.61
  Q 151.01 30.04 148.57 32.56
  Q 148.14 33.01 146.85 33.81
  Q 146.69 33.91 146.74 34.09
  L 146.91 34.64
  A 0.04 0.04 0.0 0 1 146.88 34.70
  L 145.23 35.08
  A 1.18 1.18 0.0 0 0 144.62 35.43
  Q 142.10 38.03 138.99 39.87
  Q 138.36 40.24 137.70 41.43
  A 0.91 0.89 11.5 0 1 136.98 41.89
  Q 135.69 42.00 135.61 43.21
  Q 135.58 43.78 135.02 43.85
  Q 133.21 44.09 132.62 45.85
  Q 132.53 46.13 132.22 46.13
  L 131.52 46.13
  Q 131.29 46.13 131.22 46.36
  Q 131.01 47.07 130.29 47.15
  A 0.93 0.93 0.0 0 0 129.73 47.43
  L 124.93 52.20
  Q 124.60 52.54 124.16 52.73
  Q 123.17 53.16 122.58 53.88
  Q 122.28 54.24 121.88 54.46
  Q 119.36 55.82 117.16 57.65
  C 116.43 58.26 115.43 58.52 114.74 59.17
  C 112.84 60.96 110.74 62.41 108.62 63.93
  Q 108.48 64.02 108.45 64.15
  Q 108.40 64.35 108.50 64.53
  Q 108.68 64.84 108.53 65.16
  Q 108.13 66.00 107.21 66.18
  Q 106.77 66.26 106.38 66.49
  Q 105.21 67.19 103.82 67.38
  A 1.43 1.40 20.2 0 0 103.13 67.69
  C 101.99 68.63 101.23 69.45 99.80 70.14
  Q 97.40 71.29 96.36 73.93
  Q 96.26 74.19 96.03 74.03
  Q 95.90 73.93 95.67 74.07
  Q 95.56 74.13 95.49 74.02
  Q 95.22 73.63 94.93 73.47
  Q 94.79 73.39 94.67 73.49
  Q 93.46 74.46 94.11 75.43
  Q 94.19 75.55 94.06 75.61
  Q 93.91 75.68 93.75 75.76
  Q 93.75 75.76 93.61 75.50
  Q 93.55 75.38 93.49 75.25
  A 0.18 0.17 54.4 0 0 93.21 75.20
  L 90.07 78.44
  Q 89.90 78.61 89.89 78.85
  Q 89.89 79.06 89.89 79.26
  Q 89.89 79.92 89.23 79.89
  Q 87.86 79.83 86.57 80.23
  Q 86.19 80.35 85.92 80.64
  Q 85.57 81.00 85.02 80.90
  Q 84.51 80.80 84.17 81.19
  C 82.88 82.66 81.99 84.26 79.92 84.70
  Q 79.46 84.80 79.10 85.10
  Q 78.45 85.66 77.24 85.97
  L 66.84 85.97
  A 0.29 0.29 0.0 0 1 66.57 85.57
  L 96.96 16.40
  Q 97.13 16.00 97.57 16.00
  L 158.26 16.00
  Q 158.78 16.00 159.00 16.48
  L 162.28 23.79
  Z" fill="#6878fe"></path>
<path d="M 220.08 23.56
  Q 219.21 24.01 218.59 23.26
  Q 218.34 22.95 218.19 23.32
  Q 217.32 25.55 214.86 25.96
  Q 214.33 26.04 214.02 26.48
  Q 213.59 27.10 212.84 27.13
  Q 212.23 27.15 212.14 27.75
  L 211.81 29.99
  Q 211.71 30.63 211.07 30.69
  Q 210.80 30.72 210.87 31.25
  Q 210.97 31.94 210.27 31.87
  Q 209.74 31.82 209.41 32.21
  Q 209.23 32.42 208.95 32.39
  Q 208.35 32.32 208.07 32.91
  Q 207.83 33.44 207.30 33.19
  Q 205.84 32.52 205.24 33.62
  Q 205.01 34.05 204.59 34.31
  L 200.89 36.68
  Q 200.45 36.96 199.95 37.12
  Q 198.84 37.49 198.12 38.53
  Q 197.97 38.74 198.16 38.90
  Q 198.35 39.07 198.03 39.45
  Q 197.47 40.11 196.85 40.85
  Q 196.33 41.48 196.04 40.71
  Q 195.88 40.30 195.49 40.13
  Q 195.20 40.00 195.07 40.30
  Q 194.68 41.27 193.69 41.97
  Q 193.39 42.19 193.31 42.56
  Q 193.14 43.42 192.35 43.31
  L 180.62 16.58
  Q 180.36 16.00 180.99 16.00
  L 215.25 16.00
  A 0.85 0.83 -14.7 0 1 215.98 16.42
  L 220.08 23.56
  Z" fill="#5588ff"></path>
<path d="M 220.08 23.56
  L 233.26 46.49
  Q 232.69 46.96 231.88 46.88
  Q 231.40 46.84 231.14 47.24
  L 230.82 47.74
  Q 230.51 48.21 230.09 47.84
  Q 229.93 47.70 229.88 47.47
  Q 229.74 46.86 229.36 47.37
  Q 229.07 47.76 229.17 48.29
  A 0.63 0.62 -14.2 0 1 228.74 49.00
  L 227.49 49.40
  Q 227.10 49.52 227.15 49.93
  Q 227.22 50.49 226.87 50.88
  Q 226.66 51.12 226.34 51.12
  L 225.90 51.12
  Q 225.42 51.12 225.13 51.51
  Q 224.33 52.57 223.05 52.38
  Q 222.47 52.29 222.29 52.85
  C 221.68 54.77 219.63 55.93 217.82 57.03
  Q 217.53 57.21 217.20 57.14
  Q 217.02 57.09 216.84 57.09
  Q 216.55 57.09 216.24 57.30
  Q 214.47 58.49 213.94 60.60
  Q 213.81 61.12 213.27 61.12
  L 212.53 61.12
  Q 212.24 61.12 212.16 61.40
  Q 212.00 61.93 211.50 62.13
  Q 211.23 62.23 211.13 62.49
  Q 210.94 62.98 210.42 63.16
  Q 210.07 63.28 209.84 63.56
  Q 209.42 64.06 208.78 64.12
  Q 208.19 64.18 208.12 64.77
  Q 208.05 65.43 207.55 65.85
  A 0.18 0.18 0.0 0 1 207.26 65.77
  Q 207.19 65.57 206.99 65.64
  Q 206.28 65.89 206.24 65.99
  Q 205.97 66.80 205.48 67.45
  Q 205.25 67.75 204.88 67.84
  Q 204.04 68.04 203.73 69.24
  L 192.35 43.31
  Q 193.14 43.42 193.31 42.56
  Q 193.39 42.19 193.69 41.97
  Q 194.68 41.27 195.07 40.30
  Q 195.20 40.00 195.49 40.13
  Q 195.88 40.30 196.04 40.71
  Q 196.33 41.48 196.85 40.85
  Q 197.47 40.11 198.03 39.45
  Q 198.35 39.07 198.16 38.90
  Q 197.97 38.74 198.12 38.53
  Q 198.84 37.49 199.95 37.12
  Q 200.45 36.96 200.89 36.68
  L 204.59 34.31
  Q 205.01 34.05 205.24 33.62
  Q 205.84 32.52 207.30 33.19
  Q 207.83 33.44 208.07 32.91
  Q 208.35 32.32 208.95 32.39
  Q 209.23 32.42 209.41 32.21
  Q 209.74 31.82 210.27 31.87
  Q 210.97 31.94 210.87 31.25
  Q 210.80 30.72 211.07 30.69
  Q 211.71 30.63 211.81 29.99
  L 212.14 27.75
  Q 212.23 27.15 212.84 27.13
  Q 213.59 27.10 214.02 26.48
  Q 214.33 26.04 214.86 25.96
  Q 217.32 25.55 218.19 23.32
  Q 218.34 22.95 218.59 23.26
  Q 219.21 24.01 220.08 23.56
  Z" fill="#4b90ff"></path>
<path d="M 162.28 23.79
  L 172.36 46.76
  Q 171.99 47.18 171.88 47.52
  Q 171.82 47.73 171.64 47.86
  Q 171.28 48.13 171.41 48.69
  Q 171.45 48.87 171.25 48.89
  Q 170.95 48.92 170.72 48.77
  A 0.60 0.59 -47.3 0 0 170.02 48.80
  L 166.39 51.61
  Q 166.36 51.63 166.34 51.60
  Q 166.17 51.42 166.00 51.28
  Q 165.76 51.08 165.49 51.26
  L 154.40 58.64
  Q 154.09 58.85 154.08 59.22
  L 154.07 59.49
  Q 154.05 59.92 153.63 60.06
  C 152.19 60.52 150.71 61.23 149.70 62.40
  Q 149.39 62.77 148.95 62.93
  A 1.48 0.21 -17.5 0 0 148.08 63.35
  Q 146.57 64.71 144.69 65.50
  Q 144.56 65.55 144.67 65.64
  Q 144.82 65.78 144.94 66.05
  A 0.19 0.19 0.0 0 1 144.78 66.32
  Q 142.94 66.46 141.86 67.89
  A 1.96 1.89 6.0 0 1 141.10 68.48
  C 139.27 69.27 138.24 70.67 136.52 71.60
  C 134.21 72.85 132.97 74.84 131.81 77.39
  Q 131.60 77.86 131.24 77.50
  L 130.99 77.25
  A 0.50 0.50 0.0 0 0 130.15 77.51
  Q 130.05 78.02 130.39 78.37
  Q 130.78 78.76 130.39 79.15
  Q 129.98 79.56 129.90 80.12
  Q 129.82 80.63 129.35 80.84
  Q 128.45 81.25 128.65 82.17
  Q 128.68 82.33 128.56 82.45
  Q 128.47 82.55 128.37 82.64
  A 0.17 0.16 67.8 0 1 128.09 82.52
  L 128.09 81.82
  A 0.22 0.22 0.0 0 0 127.69 81.70
  Q 127.02 82.74 125.84 83.11
  Q 125.34 83.27 125.70 83.66
  Q 126.02 84.00 125.45 84.47
  A 0.74 0.73 25.1 0 1 124.99 84.63
  Q 124.08 84.62 123.37 85.23
  Q 123.03 85.51 122.60 85.59
  L 120.28 85.98
  L 77.24 85.97
  Q 78.45 85.66 79.10 85.10
  Q 79.46 84.80 79.92 84.70
  C 81.99 84.26 82.88 82.66 84.17 81.19
  Q 84.51 80.80 85.02 80.90
  Q 85.57 81.00 85.92 80.64
  Q 86.19 80.35 86.57 80.23
  Q 87.86 79.83 89.23 79.89
  Q 89.89 79.92 89.89 79.26
  Q 89.89 79.06 89.89 78.85
  Q 89.90 78.61 90.07 78.44
  L 93.21 75.20
  A 0.18 0.17 54.4 0 1 93.49 75.25
  Q 93.55 75.38 93.61 75.50
  Q 93.75 75.76 93.75 75.76
  Q 93.91 75.68 94.06 75.61
  Q 94.19 75.55 94.11 75.43
  Q 93.46 74.46 94.67 73.49
  Q 94.79 73.39 94.93 73.47
  Q 95.22 73.63 95.49 74.02
  Q 95.56 74.13 95.67 74.07
  Q 95.90 73.93 96.03 74.03
  Q 96.26 74.19 96.36 73.93
  Q 97.40 71.29 99.80 70.14
  C 101.23 69.45 101.99 68.63 103.13 67.69
  A 1.43 1.40 20.2 0 1 103.82 67.38
  Q 105.21 67.19 106.38 66.49
  Q 106.77 66.26 107.21 66.18
  Q 108.13 66.00 108.53 65.16
  Q 108.68 64.84 108.50 64.53
  Q 108.40 64.35 108.45 64.15
  Q 108.48 64.02 108.62 63.93
  C 110.74 62.41 112.84 60.96 114.74 59.17
  C 115.43 58.52 116.43 58.26 117.16 57.65
  Q 119.36 55.82 121.88 54.46
  Q 122.28 54.24 122.58 53.88
  Q 123.17 53.16 124.16 52.73
  Q 124.60 52.54 124.93 52.20
  L 129.73 47.43
  A 0.93 0.93 0.0 0 1 130.29 47.15
  Q 131.01 47.07 131.22 46.36
  Q 131.29 46.13 131.52 46.13
  L 132.22 46.13
  Q 132.53 46.13 132.62 45.85
  Q 133.21 44.09 135.02 43.85
  Q 135.58 43.78 135.61 43.21
  Q 135.69 42.00 136.98 41.89
  A 0.91 0.89 11.5 0 0 137.70 41.43
  Q 138.36 40.24 138.99 39.87
  Q 142.10 38.03 144.62 35.43
  A 1.18 1.18 0.0 0 1 145.23 35.08
  L 146.88 34.70
  A 0.04 0.04 0.0 0 0 146.91 34.64
  L 146.74 34.09
  Q 146.69 33.91 146.85 33.81
  Q 148.14 33.01 148.57 32.56
  Q 151.01 30.04 154.22 28.61
  Q 154.51 28.48 154.28 28.26
  Q 154.17 28.16 154.07 28.06
  Q 153.98 27.97 154.09 27.91
  C 156.90 26.37 158.70 26.40 161.29 23.49
  A 0.13 0.13 0.0 0 1 161.50 23.52
  Q 161.57 23.68 161.65 23.83
  Q 161.71 23.96 161.85 23.97
  Q 162.18 23.99 162.28 23.79
  Z" fill="#5e80ff"></path>
<path d="M 233.26 46.49
  L 256.00 85.63
  L 256.00 85.98
  L 211.59 85.97
  Q 211.08 85.97 210.87 85.50
  L 203.73 69.24
  Q 204.04 68.04 204.88 67.84
  Q 205.25 67.75 205.48 67.45
  Q 205.97 66.80 206.24 65.99
  Q 206.28 65.89 206.99 65.64
  Q 207.19 65.57 207.26 65.77
  A 0.18 0.18 0.0 0 0 207.55 65.85
  Q 208.05 65.43 208.12 64.77
  Q 208.19 64.18 208.78 64.12
  Q 209.42 64.06 209.84 63.56
  Q 210.07 63.28 210.42 63.16
  Q 210.94 62.98 211.13 62.49
  Q 211.23 62.23 211.50 62.13
  Q 212.00 61.93 212.16 61.40
  Q 212.24 61.12 212.53 61.12
  L 213.27 61.12
  Q 213.81 61.12 213.94 60.60
  Q 214.47 58.49 216.24 57.30
  Q 216.55 57.09 216.84 57.09
  Q 217.02 57.09 217.20 57.14
  Q 217.53 57.21 217.82 57.03
  C 219.63 55.93 221.68 54.77 222.29 52.85
  Q 222.47 52.29 223.05 52.38
  Q 224.33 52.57 225.13 51.51
  Q 225.42 51.12 225.90 51.12
  L 226.34 51.12
  Q 226.66 51.12 226.87 50.88
  Q 227.22 50.49 227.15 49.93
  Q 227.10 49.52 227.49 49.40
  L 228.74 49.00
  A 0.63 0.62 -14.2 0 0 229.17 48.29
  Q 229.07 47.76 229.36 47.37
  Q 229.74 46.86 229.88 47.47
  Q 229.93 47.70 230.09 47.84
  Q 230.51 48.21 230.82 47.74
  L 231.14 47.24
  Q 231.40 46.84 231.88 46.88
  Q 232.69 46.96 233.26 46.49
  Z" fill="#4397ff"></path>
<path d="M 172.36 46.76
  L 189.44 85.64
  Q 189.60 85.98 189.22 85.98
  L 120.28 85.98
  L 122.60 85.59
  Q 123.03 85.51 123.37 85.23
  Q 124.08 84.62 124.99 84.63
  A 0.74 0.73 25.1 0 0 125.45 84.47
  Q 126.02 84.00 125.70 83.66
  Q 125.34 83.27 125.84 83.11
  Q 127.02 82.74 127.69 81.70
  A 0.22 0.22 0.0 0 1 128.09 81.82
  L 128.09 82.52
  A 0.17 0.16 67.8 0 0 128.37 82.64
  Q 128.47 82.55 128.56 82.45
  Q 128.68 82.33 128.65 82.17
  Q 128.45 81.25 129.35 80.84
  Q 129.82 80.63 129.90 80.12
  Q 129.98 79.56 130.39 79.15
  Q 130.78 78.76 130.39 78.37
  Q 130.05 78.02 130.15 77.51
  A 0.50 0.50 0.0 0 1 130.99 77.25
  L 131.24 77.50
  Q 131.60 77.86 131.81 77.39
  C 132.97 74.84 134.21 72.85 136.52 71.60
  C 138.24 70.67 139.27 69.27 141.10 68.48
  A 1.96 1.89 6.0 0 0 141.86 67.89
  Q 142.94 66.46 144.78 66.32
  A 0.19 0.19 0.0 0 0 144.94 66.05
  Q 144.82 65.78 144.67 65.64
  Q 144.56 65.55 144.69 65.50
  Q 146.57 64.71 148.08 63.35
  A 1.48 0.21 -17.5 0 1 148.95 62.93
  Q 149.39 62.77 149.70 62.40
  C 150.71 61.23 152.19 60.52 153.63 60.06
  Q 154.05 59.92 154.07 59.49
  L 154.08 59.22
  Q 154.09 58.85 154.40 58.64
  L 165.49 51.26
  Q 165.76 51.08 166.00 51.28
  Q 166.17 51.42 166.34 51.60
  Q 166.36 51.63 166.39 51.61
  L 170.02 48.80
  A 0.60 0.59 -47.3 0 1 170.72 48.77
  Q 170.95 48.92 171.25 48.89
  Q 171.45 48.87 171.41 48.69
  Q 171.28 48.13 171.64 47.86
  Q 171.82 47.73 171.88 47.52
  Q 171.99 47.18 172.36 46.76
  Z" fill="#5588ff"></path>
<path d="M 48.43 107.48
  Q 47.86 107.87 47.44 108.44
  Q 47.17 108.80 46.71 108.75
  Q 45.65 108.64 44.93 109.37
  Q 44.55 109.74 44.04 109.85
  Q 42.60 110.14 41.66 111.35
  Q 41.40 111.69 41.04 111.91
  Q 39.91 112.59 39.63 113.98
  Q 39.55 114.39 39.21 114.64
  L 34.72 117.97
  Q 34.40 118.21 34.24 118.58
  Q 34.04 119.04 33.54 119.15
  Q 33.07 119.25 33.04 119.73
  Q 32.99 120.71 32.09 120.82
  Q 31.57 120.88 31.19 121.24
  Q 30.12 122.27 28.25 122.99
  Q 27.40 123.31 26.92 124.31
  Q 26.72 124.71 26.29 124.86
  Q 24.94 125.31 23.68 127.09
  L 0.54 100.50
  Q 0.10 100.00 0.76 100.00
  L 44.24 100.00
  Q 44.70 100.00 44.91 100.42
  L 48.43 107.48
  Z" fill="#6878fe"></path>
<path d="M 136.57 100.02
  Q 133.86 101.49 134.04 103.74
  Q 134.08 104.18 133.75 104.48
  Q 132.79 105.38 131.54 105.67
  Q 131.08 105.77 130.94 106.23
  Q 130.42 107.85 128.79 107.93
  Q 128.28 107.95 127.99 108.38
  C 126.69 110.28 124.54 111.26 123.22 112.43
  C 120.42 114.88 117.02 117.40 114.67 120.26
  Q 114.39 120.60 113.95 120.63
  Q 112.74 120.72 112.17 121.68
  Q 111.92 122.10 111.53 122.42
  L 108.43 124.88
  Q 107.99 125.23 107.75 125.73
  Q 107.38 126.48 106.59 126.69
  Q 106.18 126.81 106.03 126.94
  Q 105.84 127.11 105.71 127.36
  Q 105.54 127.68 105.17 127.72
  C 103.95 127.86 103.10 130.89 100.96 131.60
  A 0.55 0.43 7.0 0 0 100.76 131.72
  Q 99.54 132.95 99.17 133.67
  Q 98.99 134.01 98.60 134.10
  Q 96.91 134.48 96.69 136.28
  Q 96.67 136.42 96.53 136.42
  Q 96.37 136.44 96.23 136.38
  Q 95.91 136.26 95.62 136.44
  Q 93.26 137.88 91.34 139.83
  Q 91.26 139.91 91.16 139.90
  Q 91.05 139.88 90.97 139.73
  Q 90.96 139.71 90.94 139.73
  L 88.62 142.23
  Q 88.55 142.30 87.89 142.58
  Q 87.29 142.83 86.90 142.42
  Q 86.39 141.86 86.01 142.52
  Q 85.85 142.80 85.95 143.11
  Q 86.01 143.30 85.82 143.37
  Q 85.66 143.43 85.56 143.35
  Q 85.29 143.12 85.18 143.45
  L 85.06 143.77
  L 66.07 100.40
  Q 65.90 100.02 66.32 100.02
  L 136.57 100.02
  Z" fill="#5588ff"></path>
<path d="M 136.57 100.02
  L 175.05 100.03
  L 174.35 100.42
  Q 174.15 100.53 174.24 100.75
  Q 174.33 100.95 174.54 100.89
  A 0.33 0.33 0.0 0 1 174.88 101.41
  Q 174.22 102.30 173.31 102.22
  Q 172.87 102.18 172.45 102.34
  Q 171.15 102.83 169.77 102.88
  Q 169.36 102.89 169.16 103.25
  Q 168.37 104.61 166.79 104.83
  Q 166.30 104.90 165.96 105.24
  C 164.51 106.68 161.73 107.92 161.48 110.00
  Q 161.43 110.43 161.16 110.79
  L 159.04 113.54
  A 1.06 1.06 0.0 0 1 158.64 113.86
  Q 156.16 114.94 154.62 117.12
  Q 154.33 117.52 153.84 117.49
  Q 153.09 117.44 152.32 117.99
  Q 149.44 120.05 148.03 121.24
  A 0.73 0.73 0.0 0 0 147.77 121.80
  Q 147.77 122.59 146.89 122.53
  Q 146.35 122.49 145.96 122.86
  L 143.77 124.95
  A 0.81 0.73 9.1 0 1 143.51 125.12
  C 141.91 125.73 140.99 127.38 139.20 128.11
  Q 138.76 128.28 138.46 128.64
  C 137.15 130.19 136.06 131.47 134.26 132.59
  Q 133.15 133.29 132.08 134.06
  C 130.92 134.89 129.25 135.02 128.64 137.03
  Q 128.50 137.49 128.02 137.51
  Q 127.40 137.53 127.10 138.08
  Q 126.82 138.57 126.33 138.83
  L 123.51 140.35
  Q 123.14 140.54 123.08 140.95
  Q 123.04 141.18 122.94 141.39
  Q 122.79 141.67 122.35 141.89
  C 121.03 142.55 119.85 143.09 118.76 144.16
  Q 116.08 146.79 113.20 149.20
  Q 112.20 150.04 111.02 150.55
  Q 110.64 150.70 110.47 151.07
  Q 109.53 153.10 107.38 153.33
  A 0.25 0.25 0.0 0 0 107.23 153.75
  Q 107.37 153.89 107.46 153.97
  Q 107.54 154.04 107.45 154.09
  L 105.68 155.11
  Q 105.21 155.38 104.89 155.82
  Q 104.10 156.94 102.95 157.69
  Q 102.70 157.86 102.78 158.14
  Q 102.82 158.29 102.78 158.44
  Q 102.72 158.68 102.42 158.81
  Q 102.09 158.97 101.72 159.02
  Q 101.24 159.09 101.07 159.55
  Q 100.40 161.46 98.57 162.42
  Q 98.20 162.61 97.93 162.29
  Q 97.73 162.05 97.44 161.98
  A 0.40 0.40 0.0 0 0 96.97 162.45
  Q 97.18 163.43 96.51 163.99
  Q 95.95 164.47 95.93 164.54
  Q 95.75 165.12 94.98 164.76
  Q 94.73 164.64 94.58 164.42
  Q 94.41 164.19 94.03 164.27
  L 85.06 143.77
  L 85.18 143.45
  Q 85.29 143.12 85.56 143.35
  Q 85.66 143.43 85.82 143.37
  Q 86.01 143.30 85.95 143.11
  Q 85.85 142.80 86.01 142.52
  Q 86.39 141.86 86.90 142.42
  Q 87.29 142.83 87.89 142.58
  Q 88.55 142.30 88.62 142.23
  L 90.94 139.73
  Q 90.96 139.71 90.97 139.73
  Q 91.05 139.88 91.16 139.90
  Q 91.26 139.91 91.34 139.83
  Q 93.26 137.88 95.62 136.44
  Q 95.91 136.26 96.23 136.38
  Q 96.37 136.44 96.53 136.42
  Q 96.67 136.42 96.69 136.28
  Q 96.91 134.48 98.60 134.10
  Q 98.99 134.01 99.17 133.67
  Q 99.54 132.95 100.76 131.72
  A 0.55 0.43 7.0 0 1 100.96 131.60
  C 103.10 130.89 103.95 127.86 105.17 127.72
  Q 105.54 127.68 105.71 127.36
  Q 105.84 127.11 106.03 126.94
  Q 106.18 126.81 106.59 126.69
  Q 107.38 126.48 107.75 125.73
  Q 107.99 125.23 108.43 124.88
  L 111.53 122.42
  Q 111.92 122.10 112.17 121.68
  Q 112.74 120.72 113.95 120.63
  Q 114.39 120.60 114.67 120.26
  C 117.02 117.40 120.42 114.88 123.22 112.43
  C 124.54 111.26 126.69 110.28 127.99 108.38
  Q 128.28 107.95 128.79 107.93
  Q 130.42 107.85 130.94 106.23
  Q 131.08 105.77 131.54 105.67
  Q 132.79 105.38 133.75 104.48
  Q 134.08 104.18 134.04 103.74
  Q 133.86 101.49 136.57 100.02
  Z" fill="#4b90ff"></path>
<path d="M 175.05 100.03
  L 189.60 100.02
  Q 190.08 100.02 189.89 100.46
  L 175.21 134.04
  Q 173.97 133.10 172.43 135.10
  Q 172.09 135.54 172.13 136.10
  Q 172.19 136.71 171.70 137.03
  Q 171.44 137.19 171.23 136.98
  L 170.99 136.73
  Q 170.66 136.40 170.24 136.62
  Q 169.86 136.82 169.94 137.16
  Q 170.08 137.71 169.56 137.92
  C 167.21 138.85 166.74 140.90 163.69 140.32
  Q 163.62 140.30 163.62 140.37
  L 163.62 140.64
  Q 163.62 140.65 163.64 140.65
  L 164.37 140.55
  Q 165.16 140.43 164.60 141.00
  L 163.86 141.74
  Q 163.59 142.01 163.22 141.87
  Q 162.42 141.57 161.75 142.14
  A 0.41 0.41 0.0 0 0 161.82 142.81
  Q 162.14 142.99 162.25 142.77
  Q 162.37 142.53 162.59 142.68
  Q 163.15 143.06 162.83 143.58
  Q 161.86 145.18 160.15 145.16
  Q 159.61 145.16 159.18 145.49
  Q 157.99 146.43 157.04 147.81
  A 1.08 1.02 1.7 0 1 156.68 148.13
  Q 154.93 149.10 153.76 150.51
  Q 153.38 150.96 153.13 150.43
  Q 152.99 150.13 153.09 149.80
  Q 153.12 149.70 153.15 149.81
  Q 153.23 150.13 153.09 150.49
  Q 152.90 150.99 152.38 151.12
  Q 151.96 151.22 151.77 151.74
  Q 151.57 152.30 151.14 151.88
  L 150.88 151.62
  Q 150.50 151.24 150.10 151.60
  L 148.15 153.34
  Q 147.79 153.67 147.88 154.14
  Q 147.99 154.72 147.24 154.83
  Q 146.08 155.00 145.84 156.10
  Q 145.73 156.60 145.26 156.39
  Q 144.38 155.98 143.63 156.40
  Q 143.14 156.67 143.07 157.50
  A 0.64 0.64 0.0 0 1 142.47 158.09
  Q 141.98 158.11 141.79 158.42
  Q 141.39 159.06 141.12 158.62
  Q 140.96 158.35 140.65 158.35
  Q 140.23 158.36 140.15 158.77
  Q 140.05 159.37 139.58 159.83
  Q 139.54 159.87 139.59 159.88
  Q 139.71 159.93 139.82 160.10
  Q 140.03 160.45 139.65 160.59
  Q 138.72 160.94 137.98 161.59
  Q 137.66 161.87 137.23 161.87
  Q 136.59 161.87 136.18 162.39
  Q 136.12 162.48 135.86 163.19
  Q 135.70 163.64 135.29 163.86
  Q 134.61 164.23 134.55 164.27
  Q 132.53 165.87 130.72 167.71
  A 1.10 0.94 -72.8 0 1 130.39 167.92
  Q 128.90 168.43 127.94 169.65
  A 1.07 0.98 -79.2 0 1 127.50 169.98
  Q 125.20 170.89 124.42 172.43
  Q 123.68 173.88 122.54 174.23
  Q 122.22 174.32 122.07 174.62
  Q 121.88 174.96 121.49 175.14
  Q 120.40 175.65 120.25 175.75
  Q 118.22 177.07 116.70 178.94
  A 0.48 0.46 -64.6 0 1 116.25 179.11
  Q 116.00 179.06 115.92 179.28
  Q 115.62 180.19 114.73 180.14
  Q 114.13 180.10 113.96 180.68
  Q 113.48 182.33 111.83 181.83
  A 0.10 0.09 74.8 0 0 111.74 181.99
  L 112.01 182.27
  A 0.44 0.44 0.0 0 1 111.69 183.02
  Q 111.01 183.01 110.41 182.65
  Q 110.37 182.63 110.34 182.66
  Q 110.22 182.76 110.12 182.88
  Q 109.91 183.13 110.24 183.13
  Q 110.41 183.14 110.60 183.13
  A 0.33 0.32 -63.1 0 1 110.79 183.72
  Q 110.26 184.10 110.01 184.68
  Q 109.84 185.08 109.40 185.08
  Q 107.62 185.06 106.45 186.37
  Q 106.17 186.69 106.13 187.11
  Q 106.11 187.40 105.90 187.61
  Q 105.54 187.97 105.25 187.54
  Q 104.80 186.85 104.14 187.36
  L 94.03 164.27
  Q 94.41 164.19 94.58 164.42
  Q 94.73 164.64 94.98 164.76
  Q 95.75 165.12 95.93 164.54
  Q 95.95 164.47 96.51 163.99
  Q 97.18 163.43 96.97 162.45
  A 0.40 0.40 0.0 0 1 97.44 161.98
  Q 97.73 162.05 97.93 162.29
  Q 98.20 162.61 98.57 162.42
  Q 100.40 161.46 101.07 159.55
  Q 101.24 159.09 101.72 159.02
  Q 102.09 158.97 102.42 158.81
  Q 102.72 158.68 102.78 158.44
  Q 102.82 158.29 102.78 158.14
  Q 102.70 157.86 102.95 157.69
  Q 104.10 156.94 104.89 155.82
  Q 105.21 155.38 105.68 155.11
  L 107.45 154.09
  Q 107.54 154.04 107.46 153.97
  Q 107.37 153.89 107.23 153.75
  A 0.25 0.25 0.0 0 1 107.38 153.33
  Q 109.53 153.10 110.47 151.07
  Q 110.64 150.70 111.02 150.55
  Q 112.20 150.04 113.20 149.20
  Q 116.08 146.79 118.76 144.16
  C 119.85 143.09 121.03 142.55 122.35 141.89
  Q 122.79 141.67 122.94 141.39
  Q 123.04 141.18 123.08 140.95
  Q 123.14 140.54 123.51 140.35
  L 126.33 138.83
  Q 126.82 138.57 127.10 138.08
  Q 127.40 137.53 128.02 137.51
  Q 128.50 137.49 128.64 137.03
  C 129.25 135.02 130.92 134.89 132.08 134.06
  Q 133.15 133.29 134.26 132.59
  C 136.06 131.47 137.15 130.19 138.46 128.64
  Q 138.76 128.28 139.20 128.11
  C 140.99 127.38 141.91 125.73 143.51 125.12
  A 0.81 0.73 9.1 0 0 143.77 124.95
  L 145.96 122.86
  Q 146.35 122.49 146.89 122.53
  Q 147.77 122.59 147.77 121.80
  A 0.73 0.73 0.0 0 1 148.03 121.24
  Q 149.44 120.05 152.32 117.99
  Q 153.09 117.44 153.84 117.49
  Q 154.33 117.52 154.62 117.12
  Q 156.16 114.94 158.64 113.86
  A 1.06 1.06 0.0 0 0 159.04 113.54
  L 161.16 110.79
  Q 161.43 110.43 161.48 110.00
  C 161.73 107.92 164.51 106.68 165.96 105.24
  Q 166.30 104.90 166.79 104.83
  Q 168.37 104.61 169.16 103.25
  Q 169.36 102.89 169.77 102.88
  Q 171.15 102.83 172.45 102.34
  Q 172.87 102.18 173.31 102.22
  Q 174.22 102.30 174.88 101.41
  A 0.33 0.33 0.0 0 0 174.54 100.89
  Q 174.33 100.95 174.24 100.75
  Q 174.15 100.53 174.35 100.42
  L 175.05 100.03
  Z" fill="#4397ff"></path>
<path d="M 156.54 210.27
  L 211.04 100.48
  Q 211.28 100.00 211.81 100.00
  L 255.18 100.00
  Q 255.96 100.00 255.45 100.59
  L 158.73 211.56
  Q 158.32 212.03 157.72 211.91
  Q 157.03 211.78 156.61 211.19
  Q 156.30 210.75 156.54 210.27
  Z" fill="#35a3ff"></path>
<path d="M 48.43 107.48
  L 59.57 129.94
  Q 59.22 131.53 58.46 132.02
  Q 58.25 132.16 58.13 132.37
  Q 57.60 133.26 56.56 133.36
  Q 56.16 133.40 55.91 133.71
  Q 55.49 134.22 54.72 134.20
  A 1.06 0.11 -40.3 0 0 53.95 134.73
  Q 53.65 134.98 53.53 135.25
  Q 53.34 135.69 52.88 135.84
  Q 51.14 136.41 50.79 138.43
  Q 50.69 138.97 50.15 138.92
  Q 49.24 138.85 48.91 139.61
  Q 48.71 140.09 48.20 140.00
  Q 47.62 139.90 47.26 140.26
  A 0.46 0.45 -34.3 0 0 47.16 140.76
  Q 47.24 140.94 47.39 141.04
  Q 47.86 141.34 47.47 141.73
  Q 46.45 142.77 44.27 142.96
  Q 42.35 143.12 41.78 145.19
  Q 41.67 145.57 41.30 145.70
  L 40.20 146.09
  L 23.68 127.09
  Q 24.94 125.31 26.29 124.86
  Q 26.72 124.71 26.92 124.31
  Q 27.40 123.31 28.25 122.99
  Q 30.12 122.27 31.19 121.24
  Q 31.57 120.88 32.09 120.82
  Q 32.99 120.71 33.04 119.73
  Q 33.07 119.25 33.54 119.15
  Q 34.04 119.04 34.24 118.58
  Q 34.40 118.21 34.72 117.97
  L 39.21 114.64
  Q 39.55 114.39 39.63 113.98
  Q 39.91 112.59 41.04 111.91
  Q 41.40 111.69 41.66 111.35
  Q 42.60 110.14 44.04 109.85
  Q 44.55 109.74 44.93 109.37
  Q 45.65 108.64 46.71 108.75
  Q 47.17 108.80 47.44 108.44
  Q 47.86 107.87 48.43 107.48
  Z" fill="#5e80ff"></path>
<path d="M 59.57 129.94
  L 72.09 155.33
  Q 71.16 155.38 69.96 154.92
  Q 69.41 154.71 69.30 155.29
  Q 69.10 156.35 68.32 157.11
  Q 67.95 157.48 67.85 157.99
  Q 67.82 158.12 67.80 158.25
  Q 67.68 158.89 67.04 158.89
  L 64.48 158.89
  Q 63.78 158.89 63.90 159.59
  Q 63.98 160.04 63.88 160.51
  Q 63.80 160.85 63.46 160.86
  L 60.59 160.98
  A 0.50 0.50 0.0 0 0 60.43 161.95
  Q 61.09 162.20 60.89 162.95
  Q 60.73 163.57 60.09 163.65
  Q 58.88 163.80 58.78 164.75
  A 0.45 0.45 0.0 0 1 58.14 165.11
  Q 57.88 164.99 57.62 164.98
  Q 57.49 164.98 57.49 165.10
  Q 57.47 165.25 57.59 165.34
  Q 57.62 165.37 57.58 165.38
  L 57.16 165.56
  L 40.20 146.09
  L 41.30 145.70
  Q 41.67 145.57 41.78 145.19
  Q 42.35 143.12 44.27 142.96
  Q 46.45 142.77 47.47 141.73
  Q 47.86 141.34 47.39 141.04
  Q 47.24 140.94 47.16 140.76
  A 0.46 0.45 -34.3 0 1 47.26 140.26
  Q 47.62 139.90 48.20 140.00
  Q 48.71 140.09 48.91 139.61
  Q 49.24 138.85 50.15 138.92
  Q 50.69 138.97 50.79 138.43
  Q 51.14 136.41 52.88 135.84
  Q 53.34 135.69 53.53 135.25
  Q 53.65 134.98 53.95 134.73
  A 1.06 0.11 -40.3 0 1 54.72 134.20
  Q 55.49 134.22 55.91 133.71
  Q 56.16 133.40 56.56 133.36
  Q 57.60 133.26 58.13 132.37
  Q 58.25 132.16 58.46 132.02
  Q 59.22 131.53 59.57 129.94
  Z" fill="#5588ff"></path>
<path d="M 175.21 134.04
  L 129.20 239.25
  A 1.24 1.24 0.0 0 1 127.92 239.98
  Q 126.97 239.86 126.53 238.85
  Q 115.35 213.09 104.14 187.36
  Q 104.80 186.85 105.25 187.54
  Q 105.54 187.97 105.90 187.61
  Q 106.11 187.40 106.13 187.11
  Q 106.17 186.69 106.45 186.37
  Q 107.62 185.06 109.40 185.08
  Q 109.84 185.08 110.01 184.68
  Q 110.26 184.10 110.79 183.72
  A 0.33 0.32 -63.1 0 0 110.60 183.13
  Q 110.41 183.14 110.24 183.13
  Q 109.91 183.13 110.12 182.88
  Q 110.22 182.76 110.34 182.66
  Q 110.37 182.63 110.41 182.65
  Q 111.01 183.01 111.69 183.02
  A 0.44 0.44 0.0 0 0 112.01 182.27
  L 111.74 181.99
  A 0.10 0.09 74.8 0 1 111.83 181.83
  Q 113.48 182.33 113.96 180.68
  Q 114.13 180.10 114.73 180.14
  Q 115.62 180.19 115.92 179.28
  Q 116.00 179.06 116.25 179.11
  A 0.48 0.46 -64.6 0 0 116.70 178.94
  Q 118.22 177.07 120.25 175.75
  Q 120.40 175.65 121.49 175.14
  Q 121.88 174.96 122.07 174.62
  Q 122.22 174.32 122.54 174.23
  Q 123.68 173.88 124.42 172.43
  Q 125.20 170.89 127.50 169.98
  A 1.07 0.98 -79.2 0 0 127.94 169.65
  Q 128.90 168.43 130.39 167.92
  A 1.10 0.94 -72.8 0 0 130.72 167.71
  Q 132.53 165.87 134.55 164.27
  Q 134.61 164.23 135.29 163.86
  Q 135.70 163.64 135.86 163.19
  Q 136.12 162.48 136.18 162.39
  Q 136.59 161.87 137.23 161.87
  Q 137.66 161.87 137.98 161.59
  Q 138.72 160.94 139.65 160.59
  Q 140.03 160.45 139.82 160.10
  Q 139.71 159.93 139.59 159.88
  Q 139.54 159.87 139.58 159.83
  Q 140.05 159.37 140.15 158.77
  Q 140.23 158.36 140.65 158.35
  Q 140.96 158.35 141.12 158.62
  Q 141.39 159.06 141.79 158.42
  Q 141.98 158.11 142.47 158.09
  A 0.64 0.64 0.0 0 0 143.07 157.50
  Q 143.14 156.67 143.63 156.40
  Q 144.38 155.98 145.26 156.39
  Q 145.73 156.60 145.84 156.10
  Q 146.08 155.00 147.24 154.83
  Q 147.99 154.72 147.88 154.14
  Q 147.79 153.67 148.15 153.34
  L 150.10 151.60
  Q 150.50 151.24 150.88 151.62
  L 151.14 151.88
  Q 151.57 152.30 151.77 151.74
  Q 151.96 151.22 152.38 151.12
  Q 152.90 150.99 153.09 150.49
  Q 153.23 150.13 153.15 149.81
  Q 153.12 149.70 153.09 149.80
  Q 152.99 150.13 153.13 150.43
  Q 153.38 150.96 153.76 150.51
  Q 154.93 149.10 156.68 148.13
  A 1.08 1.02 1.7 0 0 157.04 147.81
  Q 157.99 146.43 159.18 145.49
  Q 159.61 145.16 160.15 145.16
  Q 161.86 145.18 162.83 143.58
  Q 163.15 143.06 162.59 142.68
  Q 162.37 142.53 162.25 142.77
  Q 162.14 142.99 161.82 142.81
  A 0.41 0.41 0.0 0 1 161.75 142.14
  Q 162.42 141.57 163.22 141.87
  Q 163.59 142.01 163.86 141.74
  L 164.60 141.00
  Q 165.16 140.43 164.37 140.55
  L 163.64 140.65
  Q 163.62 140.65 163.62 140.64
  L 163.62 140.37
  Q 163.62 140.30 163.69 140.32
  C 166.74 140.90 167.21 138.85 169.56 137.92
  Q 170.08 137.71 169.94 137.16
  Q 169.86 136.82 170.24 136.62
  Q 170.66 136.40 170.99 136.73
  L 171.23 136.98
  Q 171.44 137.19 171.70 137.03
  Q 172.19 136.71 172.13 136.10
  Q 172.09 135.54 172.43 135.10
  Q 173.97 133.10 175.21 134.04
  Z" fill="#35a3ff"></path>
<path d="M 72.09 155.33
  L 99.39 210.18
  A 1.26 1.26 0.0 0 1 99.03 211.74
  Q 98.58 212.09 97.97 211.97
  Q 97.55 211.89 97.15 211.44
  Q 77.12 188.53 57.16 165.56
  L 57.58 165.38
  Q 57.62 165.37 57.59 165.34
  Q 57.47 165.25 57.49 165.10
  Q 57.49 164.98 57.62 164.98
  Q 57.88 164.99 58.14 165.11
  A 0.45 0.45 0.0 0 0 58.78 164.75
  Q 58.88 163.80 60.09 163.65
  Q 60.73 163.57 60.89 162.95
  Q 61.09 162.20 60.43 161.95
  A 0.50 0.50 0.0 0 1 60.59 160.98
  L 63.46 160.86
  Q 63.80 160.85 63.88 160.51
  Q 63.98 160.04 63.90 159.59
  Q 63.78 158.89 64.48 158.89
  L 67.04 158.89
  Q 67.68 158.89 67.80 158.25
  Q 67.82 158.12 67.85 157.99
  Q 67.95 157.48 68.32 157.11
  Q 69.10 156.35 69.30 155.29
  Q 69.41 154.71 69.96 154.92
  Q 71.16 155.38 72.09 155.33
  Z" fill="#4b90ff"></path>
</svg>
