<svg viewBox="0.00 0.00 256.00 256.00" version="1.1" xmlns="http://www.w3.org/2000/svg">
<g stroke-linecap="butt" fill="none" stroke-width="2.00">
<path d="M 248.00 40.04
  A 32.04 32.04 0.0 0 0 215.96 8.00
  L 40.02 8.00
  A 32.04 32.04 0.0 0 0 7.98 40.04
  L 7.98 215.96
  A 32.04 32.04 0.0 0 0 40.02 248.00
  L 215.96 248.00
  A 32.04 32.04 0.0 0 0 248.00 215.96
  L 248.00 40.04" stroke="#4e71fc"></path>
<path d="M 117.25 37.67
  C 114.10 32.42 106.25 31.90 101.86 34.64
  Q 99.30 36.24 96.44 41.08
  Q 84.26 61.72 72.20 82.43
  Q 68.57 88.67 72.00 94.50
  Q 87.23 120.41 102.49 146.31
  C 106.44 153.02 107.46 156.36 103.54 163.06
  Q 91.75 183.20 79.98 203.36
  Q 77.82 207.07 77.43 209.21
  C 76.50 214.37 79.48 220.00 84.25 222.00
  Q 86.64 223.01 92.38 223.01
  Q 115.69 223.01 139.00 223.00
  C 144.41 223.00 148.74 221.95 151.40 217.41
  Q 167.19 190.37 182.96 163.33
  C 185.48 159.02 186.81 154.52 184.39 150.33
  Q 170.38 126.12 117.25 37.67" stroke="#9baefd"></path>
</g>
<path d="M 36.65 0.00
  L 218.99 0.00
  C 239.04 2.05 253.88 16.80 256.00 36.90
  L 256.00 218.98
  C 253.31 239.90 239.92 253.06 219.12 256.00
  L 37.01 256.00
  C 16.77 253.92 1.84 238.93 0.00 218.62
  L 0.00 37.01
  C 2.03 17.05 16.69 2.27 36.65 0.00
  Z
  M 248.00 40.04
  A 32.04 32.04 0.0 0 0 215.96 8.00
  L 40.02 8.00
  A 32.04 32.04 0.0 0 0 7.98 40.04
  L 7.98 215.96
  A 32.04 32.04 0.0 0 0 40.02 248.00
  L 215.96 248.00
  A 32.04 32.04 0.0 0 0 248.00 215.96
  L 248.00 40.04
  Z" fill="#5778fc"></path>
<path d="M 248.00 215.96
  A 32.04 32.04 0.0 0 1 215.96 248.00
  L 40.02 248.00
  A 32.04 32.04 0.0 0 1 7.98 215.96
  L 7.98 40.04
  A 32.04 32.04 0.0 0 1 40.02 8.00
  L 215.96 8.00
  A 32.04 32.04 0.0 0 1 248.00 40.04
  L 248.00 215.96
  Z
  M 117.25 37.67
  C 114.10 32.42 106.25 31.90 101.86 34.64
  Q 99.30 36.24 96.44 41.08
  Q 84.26 61.72 72.20 82.43
  Q 68.57 88.67 72.00 94.50
  Q 87.23 120.41 102.49 146.31
  C 106.44 153.02 107.46 156.36 103.54 163.06
  Q 91.75 183.20 79.98 203.36
  Q 77.82 207.07 77.43 209.21
  C 76.50 214.37 79.48 220.00 84.25 222.00
  Q 86.64 223.01 92.38 223.01
  Q 115.69 223.01 139.00 223.00
  C 144.41 223.00 148.74 221.95 151.40 217.41
  Q 167.19 190.37 182.96 163.33
  C 185.48 159.02 186.81 154.52 184.39 150.33
  Q 170.38 126.12 117.25 37.67
  Z" fill="#4469fc"></path>
<path d="M 101.86 34.64
  C 106.25 31.90 114.10 32.42 117.25 37.67
  Q 170.38 126.12 184.39 150.33
  C 186.81 154.52 185.48 159.02 182.96 163.33
  Q 167.19 190.37 151.40 217.41
  C 148.74 221.95 144.41 223.00 139.00 223.00
  Q 115.69 223.01 92.38 223.01
  Q 86.64 223.01 84.25 222.00
  C 79.48 220.00 76.50 214.37 77.43 209.21
  Q 77.82 207.07 79.98 203.36
  Q 91.75 183.20 103.54 163.06
  C 107.46 156.36 106.44 153.02 102.49 146.31
  Q 87.23 120.41 72.00 94.50
  Q 68.57 88.67 72.20 82.43
  Q 84.26 61.72 96.44 41.08
  Q 99.30 36.24 101.86 34.64
  Z" fill="#f1f3fd"></path>
</svg>
