<svg viewBox="0 0 152 152" xmlns="http://www.w3.org/2000/svg"><g fill="none" stroke-width="2"><path d="M77.26 9.26q.01 1.29-1 1.46c-4.14.72-8.9-.91-12.92-1.56q-1.68-.27-.33.76.87.67 2.28.98c2.95.65 13.02 4.44 13.09-.88" stroke="#74b34c"/><path d="M81.74 12.3c.28 1.3 1.89 2.44 1.99 3.01q.54 3.04-1.97 1.18l-1.26-.94a.4.4 0 0 0-.62.44q.18.61.55 1.13a.89.88-49.8 0 1 .07.91q-.52 1.04-1.63 1.01" stroke="#7eba4f"/><path d="M78.87 19.04q-2.99-1.01-5.76-2.24-.39-.17-.72-.12-.81.12-.75.69a.48.48 0 0 1-.71.47l-5.38-3a.55.54-56.6 0 0-.7.15l-.22.28a.27.26-56 0 0 .07.39c3.21 1.97 6.37 4.04 9.8 5.64 2.57 1.19 4.03 2.32 7.58 3.34a1.12 1.11-6 0 1 .66.53q1.13 2.05.11 3.59c-1.45 2.2-4.19.85-6.28.73" stroke="#74b34c"/><path d="m76.57 29.49-3.1-2.32a.82.82 0 0 0-.91-.05l-.92.53a2.02 2-50.6 0 1-1.65.17q-4.66-1.58-7.11-5.87-.27-.47-.24-1.02.03-.43-.09-.83-.19-.62-.51-.06l-.78 1.41" stroke="#7eba4f"/><path d="M61.26 21.45c-3 2.1-5.25.25-7.89-1.37q-.42-.26-.8.05-6.99 5.61-16.04 6.1a2.33 2.31-14.8 0 1-2.2-1.27c-1.08-2.17 1.37-3.76 2.48-5.27a.29.29 0 0 0-.36-.44L34 20.4a.9.89-6.8 0 0-.5.63q-.53 2.47-.22 5.02" stroke="#6ea345"/><path d="m33.28 26.05-2.56 1.79q-.38.26-.53.69-.32.85-1.15 1.45" stroke="#7eba4f"/><path d="M29.04 29.98c-2.82 2.36-6.86 5.42-10.6 3.67a.72.71 17.3 0 1-.4-.75l.53-3.21q.02-.14-.1-.2-.13-.07-.25-.14a.41.4 31.3 0 0-.56.13q-1.67 2.6-4.56 3.76-.48.19-.47.69v.39a.4.4 0 0 0 .44.4q.59-.07 1.13.35.36.28.06.62c-.69.8-.48 1.51-.93 2.29q-2.78 4.9-6.76 3.31" stroke="#74b34c"/><path d="M23.77 21.83q4.9-1.12 8.3-4.67c1.63-1.69 2.68-2.23 4.83-2.54a1.02.99 23.2 0 0 .47-.18q1.72-1.18.62-1.21c-2.65-.08-3.64.67-5.8 2.5q-3.45 2.93-8.38 4.1" stroke="#70ac4a"/><path d="M61.26 21.45q.18-.27.47-.09.27.17.07.42c-2.07 2.68-5.77 1.95-7.87-.13q-.38-.38-.82-.06-5.92 4.26-9.02 4.97c-3.28.76-8.24 2.4-10.81-.51" stroke="#669c3d"/><path d="m78.53 34.5-17.98.07" stroke="#987c3f"/><path d="M60.55 34.57q-.46.03-.91.31a.94.93-16.1 0 0-.46.82q.06 4.78.27 9.54.24 5.51-.63 10.81" stroke="#929854"/><path d="M58.82 56.05c-5.01 2.5-6.97-.67-9.82-3.87q-.35-.4-.22-.92.13-.49.08-1.02a.43.43 0 0 0-.77-.22q-2.13 2.94-4.96 1.64-2.18-1-4.43-4.42-.33-.49-.68-.02l-3.97 5.29" stroke="#669c3d"/><path d="m34.05 52.51-3.58 1.91q-1.06.57-.89-.62c.18-1.28 1.44-1.56 1.72-2.76q.13-.6-.2-.95-.29-.31-.68-.13-.63.28-1.2-.21-.95-.78-2.14-.63-.56.07-.97-.33-1.21-1.2-.58-3a.92.92 0 0 1 .79-.61q.61-.04.99-.55a.9.9 0 0 1 1.53.16c1.82 3.86 5.72 2.56 9.18 1.18q.71-.28.88-1.03l.21-.91a.4.4 0 0 0-.64-.4c-3.03 2.42-6.84 3.15-8.78-1-.65-1.39-.07-2.29.43-3.64q.19-.53-.27-.87-.39-.29-.75.03-.84.76-2.01.79a1.05 1.04 1.9 0 1-1.07-1.14c.22-2.51.68-4.08 2.69-5.52q2.04-1.44.33-2.3" stroke="#6cac45"/><path d="M34.05 52.51q-.37-.22-.1.45" stroke="#5c943b"/><path d="M33.95 52.96c-2.55 1.96-4.5 3.84-8.03 3.01a4.46 1.84 78.6 0 1-2.14-3.2q-.14-.49-.58-.94-.41-.41-.93-.15-.7.34-1.32 1.23" stroke="#5e9d40"/><path d="M20.95 52.91c-2.25 1.89-5.59 4.22-8.22 2.19" stroke="#538635"/><path d="m12.73 55.1-1.48-1.78q-.35-.42-.36-.97l-.05-3.09a.75.75 0 0 0-.42-.66q-.5-.25-.65-.81a.54.53 50.7 0 0-.99-.1q-.63 1.21-.37 2.61a1.22 1.19-37.4 0 1-.11.75l-2.43 4.76q-.42.81.22 1.45l.2.2q.33.33.58-.06l2.37-3.69q.4-.62.81 0c.86 1.31 1 2.53 2.23 3.57q2.25 1.9 4.77 3.49.4.26.57.71.64 1.68.83 3.45.01.08.08.11.14.06.29.08.26.05.39.29.61 1.16.38 2.5-.1.53-.55.82-.87.56-1.4 1.51" stroke="#5e9d40"/><path d="M17.64 70.24c-2.65 1.71-5.48-.14-7.74-1.04q-.45-.18-.77-.56-.61-.72-1.37-1.18-.4-.24-.57-.67-.69-1.74-1.22-3.53-.44-1.5-1.77-1.31" stroke="#538635"/><path d="M101.25 27.82q-4.73 1.24-9.3-1.75-3.89-2.55-7.82-5.04-.38-.24-.62.13l-.16.25q-.12.19.07.31 4.57 3.01 9.09 6.13 1.87 1.3 7.3 2.65.46.11.36.57l-.31 1.4q-.1.45-.56.42c-2.51-.17-3.77.81-6.51.04" stroke="#669c3d"/><path d="m92.79 32.93-8.34-8.22q-.35-.34-.35-.84 0-.4-.2-.61-.21-.22-.8-.09c-2.21.47-4.87-.9-6.31-2.15q-1.68-1.45.53-1.24 4.39.43 1.55-.74" stroke="#6cac45"/><path d="M92.79 32.93q-.9-.48-1.47-.52a.39.39 0 0 0-.36.61l1.86 2.86" stroke="#5c943b"/><path d="m92.82 35.88-3.11 1.78a.79.78 48.2 0 1-.85-.05q-.47-.36-1.15-.41-.62-.04-.83.54-.23.64-.96.62a1.02.98 60.3 0 1-.47-.14q-1.1-.67-1.66-1.74-.32-.6-.68-.03c-.6.96-.61 2.58-1.25 3.27q-.43.46-1.05.5" stroke="#4b7d31"/><path d="M80.81 40.22q.18-2.96-.72-4.5" stroke="#6c6632"/><path d="m80.09 35.72-1.56-1.22" stroke="#8e743d"/><path d="m78.53 34.5 2.52.17q.56.04.85-.45.36-.61.2-1.33a.51.51 0 0 1 .48-.62l1.21-.03a.96.96 0 0 0 .82-1.4l-.21-.4q-.27-.53-.82-.28c-3.1 1.43-5.45 3.57-8.26-.16q-.37-.49.24-.61.39-.08 1.01.1" stroke="#6cac45"/><path d="M80.09 35.72q-.64-.26-1.11.34-.27.35-.29.99-.1 3.69-.05 7.42 0 .38-.37.5l-2.84.91a.5.49 74.3 0 0-.33.59l.09.34q.18.73-.5 1.05c-1.49.69-3.09.69-3.94 2.38q-.39.77-1.39.87-.45.05-.8.33-.54.44-.89 1.03-.26.43-.74.58-.48.16-.74.52-.29.4-.77.31-.8-.15-1.33.26-.46.37-.46.95v.88q0 .39-.35.56-.75.36-1.59.45-.55.06-.74.59-.69 2.02.03 4.06" stroke="#98362d"/><path d="m60.98 61.63-1.41 1.2" stroke="#774d2b"/><path d="M59.57 62.83q-.1-.97-.44-1.3" stroke="#886435"/><path d="M59.13 61.53q.38-.09.6-.27.19-.16.21-.58.59-12.86.61-26.11" stroke="#b4604c"/><path d="m59.13 61.53-.31-5.48" stroke="#82804a"/><path d="M36.09 69q-.14-1.46-1.37-2.56-.4-.36-.65.12-.62 1.18-.62 2.57-.01.53-.24 1l-1.69 3.31a2.47 2.46-56.7 0 1-3.77.78l-3.12-2.57a1.75 1.74-78.5 0 1-.54-.82q-.45-1.52-1.64-2.62-.75-.71-1.7.18" stroke="#4d762d"/><path d="M20.75 68.39q.15-.86.76-.97.42-.08.94.37c2.43 2.09 5.38 6.15 9.06 3.43q.39-.3.54-.76 1.62-5.18-.69-10.01-.22-.48-.68-.74l-3.05-1.73a.54.54 0 0 1 .13-.99q4-1.01 6.19-4.03" stroke="#588d38"/><path d="M12.73 55.1q-2.3.46 1.05 2.55c4.91 3.07 5.77-1.08 9.39-2.44q.4-.15.41-.57.02-1.04-.6-1.93-.29-.42-.76-.25l-1.27.45M20.75 68.39q-1.17 1.61-3.11 1.85" stroke="#4f7f32"/><path d="M107.06 35.75q.14.8-2.12.66" stroke="#415930"/><path d="M104.94 36.41q-2.24-.16-3.8-1.72-.35-.35-.85-.34l-2.35.03q-.54 0-1.04.21c-1.23.52-2.18-.19-3.08.22q-.65.29-1 1.07" stroke="#456d29"/><path d="M104.94 36.41q.33.38 1.05.21.17-.04.25.12.1.19.2.37a.34.34 0 0 1-.44.47q-.69-.31-1.43-.21-.46.06-.83-.21c-3.75-2.74-8.29-2.7-11.65.6-1.72 1.7-3.31 1.36-4.9 3.64q-.46.67-1.58 1.46-3.18 2.29-6.3 4.69-.38.29-.86.32-1.21.08-1.38 1.31-.07.47-.41.8c-1.32 1.28-1.9 2.75-3.37 3.76q-2.19 1.51-4.53 2.76-1.27.68-2.1 1.78-.83 1.12-1.65 2.27a1.58 1.57-82.3 0 1-.77.59c-3.24 1.17-4.23 2.8-6.49 4.62-1.3 1.05-2.02 2.15-3.17 3.16q-.38.34-.86.52-.86.33-1.46 1.03-.32.37-.77.54c-1.63.61-1.64 1.84-2.14 3.14q-.66 1.74.01 2.25" stroke="#304226"/><path d="M49.36 76.4q-.41 1.17-.14 1.85" stroke="#824b2d"/><path d="m49.22 78.25 1.2 1.99a.75.75 0 0 1-.69 1.14l-5.15-.33q-.42-.03-.6.35-.63 1.34-2.94 1.68" stroke="#343d15"/><path d="M21.06 78.74q2.96-.43 4.31.12 2 .81 3.98.46a.97.96 58.9 0 0 .42-1.71q-1.37-1.07-3.08-1.38-.19-.03-.18-.23l.03-.43q.03-.44.48-.44l4.22.01a1.53 1.52 6.1 0 0 1.49-1.2l1.16-5.41q.29-1.37 1.35-.7.1.06.85 1.17" stroke="#3c5f23"/><path d="M36.09 69c1.39 3.24 5.46 10.74 9.91 9.74a2.07 2.06-19.1 0 0 1.41-2.9c-1.28-2.67.68-4.48 3.05-5.76q1.96-1.05 3.68-2.47c1.66-1.36 2.46-3.74 5.43-4.78" stroke="#456d29"/><path d="M60.98 61.63q1.26-.62 2.32-1.51.15-.12 1.86-1.21 1.09-.7 1.28-2.16.07-.48.4-.83c.69-.72 1.68-.84 2.3-1.21 1.62-.95 2.92-1.51 4.47-2.86 1.04-.9 2.88-1.24 3.03-2.86q.04-.46.33-.82 1.28-1.62 3.04-2.7.45-.28.48-.8l.32-4.45" stroke="#553f21"/><path d="m147.38 76.84-27.5-22.38" stroke="#7e3734"/><path d="m119.88 54.46-20.29-16.7a2.39 2.39 0 0 0-3.04 0L59.24 68.38" stroke="#8c423a"/><path d="m59.24 68.38-9.88 8.02" stroke="#7e3734"/><path d="m55.86 86-.41 7.75a.4.39-15.3 0 1-.18.31q-.12.07-.26.08-.48.03-.57-.43-.26-1.31-1.28-2-.39-.26-.8-.02-1.04.64-2.93.54" stroke="#5a451e"/><path d="M97.45 46.53q-2.36.1-3.54 1.9-.25.37-.67.5-.24.07-.45.24-11.4 9.34-22.93 18.53-.31.24-.48.59-.17.36-.51.58-6.94 4.49-12.87 10.3" stroke="#bf5e4e"/><path d="M56 79.17q-.33-.57-1.35-.11c-1.15.51-1.44 1.78-2.99 1.42-1.04-.25-1.69-1.45-2.44-2.23" stroke="#823223"/><path d="M119.88 54.46q.65 1.02.18 1.8a1.11 1.09 12.3 0 1-.82.52q-1.46.16-1.65 1.47-.08.58-.65.42-.8-.23-1.6-.2" stroke="#de4b41"/><path d="M115.34 58.47q-3.98-3.34-15.21-12.35-2.01-1.61-3.78-1.06" stroke="#b13f34"/><path d="M96.35 45.06 74.87 61.82a1.02 1.01-68.5 0 1-.5.22q-2.07.34-2.88 2.19a1.08 1.08 0 0 1-.75.62q-.82.19-.99-.61-.09-.44-.12-.72-.13-1.32-1.19-.52-4.76 3.58-8.07 6.36-.46.39-.86.22-.41-.17-.26-.59.13-.34-.01-.61" stroke="#de4b41"/><path d="m111.05 89.71-5.87.39" stroke="#dfc6a2"/><path d="m105.18 90.1-3.47-.08" stroke="#d4ba97"/><path d="M101.71 90.02c-2.2 3.27-3.89 2.86-6.96 1.15" stroke="#fce9c4"/><path d="M94.75 91.17q-1-1.78-3.96-.73" stroke="#bfa98e"/><path d="m90.79 90.44-24.25-.88a1.31 1.31 0 0 0-1.35 1.32l.13 15.15" stroke="#dfc6a2"/><path d="m65.32 106.03-.38 32.7a.92.92 0 0 1-.94.91q-1.91-.06-3 1.34" stroke="#e0d0ae"/><path d="m61 140.98-.98.58a.73.73 0 0 0-.36.63q.01.76-.76 2.08" stroke="#e9d9bd"/><path d="M58.9 144.27q-.39.07-1.35 1.58" stroke="#c1b69f"/><path d="m55.89 144.3-.05-10.57" stroke="#c0aa7c"/><path d="m55.84 133.73.32-43.7" stroke="#cfb883"/><path d="m56.16 90.03-.3-4.03" stroke="#c0aa7c"/><path d="M55.86 86q.12.16.27-.54" stroke="#9a8969"/><path d="m56.22 84.3 18.22-15.26" stroke="#e0d0ae"/><path d="m56.16 90.03-.1 7.08q-.01 1.13-1.04.66-1.05-.48-1.36-1.53-.18-.59-.69-.24-.18.13-.41.13-1.84 0-1.76 1.84.38 9.74-.68 18.8c-.6 5.1-.31 10.21-.78 14.97q-.19 1.93.83 3.11.39.45.65-.08.57-1.11 1.86-1.33.44-.07.61-.48l1.28-2.97q.07-.15.21-.08l.69.34q.26.13.22.42-.28 1.86.15 3.06" stroke="#8f7337"/><path d="M101.77 48.61q-2.81-.51-4.96 1.37c-3 2.62-5.98 4.83-8.8 7.33q-2.95 2.62-6.08 4.83" stroke="#d3b090"/><path d="M81.93 62.14q-17.8 13.75-25.16 20.11-.76.66-.55 2.05" stroke="#b7977a"/><path d="m56.22 84.3-.09 1.16" stroke="#d6b594"/><path d="M56.13 85.46 56 79.17" stroke="#715036"/><path d="M115.34 58.47q14.01 11.28 28.02 22.43.54.43 1.59.12" stroke="#a3342f"/><path d="M138.63 83.49q-.07-1.47-.06-3.5.01-1.37-.65-1.91-15.67-12.59-31.27-25.37" stroke="#b78671"/><path d="m106.65 52.71-4.25-3.4" stroke="#ba8b75"/><path d="M102.4 49.31q-.32-.16-.63-.7" stroke="#b78671"/><path d="m101.77 48.61-4.32-2.08" stroke="#915241"/><path d="M97.45 46.53q-.26-.14-.64-.18-.49-.06-.48-.55l.02-.74" stroke="#a3342f"/><path d="M101.71 117.53q-.85 2.85 5.04 2.78 5.26-.07 10.55.01" stroke="#c2ad90"/><path d="m117.3 120.32 3.85.09q.44.01.56.44c1.48 5.13-10.18 6.8-6.1 13.33" stroke="#c0d38b"/><path d="M115.61 134.18q.03 1.2 1.73 3.26a.19.19 0 0 1 0 .22q-1.89 2.69-.86 6.34" stroke="#a8b47a"/><path d="m116.48 144-.01.63q-.01.54-.55.62-.32.05-.59-.01" stroke="#9fa674"/><path d="m108.47 145.31-7.62-.03q-.5 0-.86-.35l-1.01-.97" stroke="#beb19b"/><path d="m98.98 143.96-1.43-2.21" stroke="#e6d4b9"/><path d="M97.55 141.75q-.56-.7-.99-.96" stroke="#b3a288"/><path d="M96.56 140.79q-1.36-1.28-1.36-2.54.02-8.86-.12-17.71" stroke="#ddcbaa"/><path d="m94.75 91.17.33 29.37" stroke="#bca48a"/><path d="m95.08 120.54-.14 17.7q0 .54-.52.68-.96.26-1.9-.04-.54-.18-.38-.71.55-1.8.51-3.17c-.28-9.15.5-19.11.29-27.34q-.18-7.37-.42-14.81a1.46 1.46 0 0 0-1.33-1.4q-.12-.01-.67.62" stroke="#a08b74"/><path d="M90.52 92.07q-.93-.78-3.79-.28" stroke="#855541"/><path d="M96.56 140.79q-13.34.36-26.58.27c-2-.01-5.03-.47-7.81-.38a.51.49-82.7 0 0-.46.37l-.1.37a.61.6 7.5 0 0 .58.75l12.78.16" stroke="#978972"/><path d="M74.97 142.33q-8.43.61-13.22.26-1.41-.1-.75-1.61" stroke="#cabba3"/><path d="m68.71 139.14 21.11.16a.45.45 0 0 0 .45-.45l-.05-15.03" stroke="#9b775e"/><path d="m105.18 90.1 6.03.31a.06.06 0 0 1 .01.12q-.44.15-.48.29-.11.34.26.38l4.83.47" stroke="#b39271"/><path d="m115.83 91.67-9.73.03a2.21 2.21 0 0 0-2.21 2.24l.23 20.08q.01.54.55.53.49-.01.72-.57" stroke="#857566"/><path d="M105.39 113.98q-.05.43.14.77" stroke="#8a98a1"/><path d="M105.53 114.75q-2.21 1.22-1.59 1.85" stroke="#bea58c"/><path d="M103.94 116.6q10.56-.27 20.9-.21c1.24 0 2.44-.38 3.64-.69q.46-.12.6-.56.48-1.56.49-2.64.11-9.82.1-20.49a.81.81 0 0 0-.84-.81q-1.33.06-2.58-.44-.41-.16 0-.31 1.86-.65 4.84-.58" stroke="#b39271"/><path d="M138.7 116.11q-.95.63-2.36.61c-1.69-.02-2.78.37-4.33.43" stroke="#97a45e"/><path d="m132.01 117.15.34-.62q.12-.21-.09-.3l-.36-.16a.35.34-75.3 0 1-.2-.36q1.4-10.28.81-20.66-.07-1.21-1.21-1.63l-.27-.09q-.76-.28-.77.53l-.23 22.1q-.01.48-.47.63-.87.29-1.54.91-.41.38-.96.38h-1.56v.01q.37.08.54-.2.25-.44-.25-.39-4.88.53-9.76.19c-4.37-.3-7.96-.2-11.98-.31q-.42-.01-.7-.31-.19-.2-.29-.44-.37-.87-.9-.09-.32.46-.45 1.19" stroke="#997e63"/><path d="M101.71 117.53V90.02" stroke="#d1b593"/><path d="M102.4 49.31q-4.1-.08-7.52 3.9a.7.7 0 0 0 .49 1.15q4.64.25 9.39.09 1.84-.06 1.89-1.74" stroke="#fce9c4"/><path d="m138.71 88.62-.2 26.5" stroke="#b3a288"/><path d="M138.51 115.12q-.84 1.66-4.02.62a1.72 1.72 0 0 1-1.17-1.57q-.26-8.87.03-17.92.18-5.42-2.26-6.38" stroke="#d1b593"/><path d="m131.09 89.87-20.04-.16" stroke="#dcc19e"/><path d="m111.05 89.71 15.46-.29q4.54-.08.42-1.99c-1.83-.85-6.38-.26-8.58-.51q-5.23-.6-10.45-1.01-.11-.01-.01-.02 1.84-.19 3.43-1.18.6-.37-.09-.52l-3.24-.68a.63.63 0 0 1-.12-1.19q1.17-.51 1.14-1.69-.01-.19-.15-.08-.25.19-.36-.05-.05-.1 0-.13.12-.08.24-.14a.04.04 0 0 0-.02-.07c-11.8-.56-23.57.17-35.4.02q-.25 0-.25-.25l-.01-.27q0-.25.25-.26 19.48-.53 38.89-.52c6.27 0 14.12.58 21.22.5q.52-.01.41-.52c-.41-1.91-2.8-1.79-3.71-3.86q-.04-.08-.1-.02-.09.09-.26.02-.13-.05-.13-.19v-.32a.55.53-82.8 0 0-.38-.51q-1.84-.58-3.78-.3a.19.19 0 0 1-.12-.35q.21-.12.45-.22.43-.18.27-.62c-.51-1.43-2.3-2.63-3.35-3.78q-.34-.37-.83-.44-5.06-.78-8.14-.76-15.88.09-31.73.07-.06 0-.07-.06l-.05-.31q-.06-.43.37-.43l32.26-.19q.43 0 .64-.37l.48-.85a.46.46 0 0 0-.37-.69q-.82-.06-1.41-.68-.39-.42-.3-.98l.07-.49q.11-.72-.62-.75l-5.54-.24a.25.25 0 0 1-.06-.49q1.77-.5 3.64-.33a.58.58 0 0 0 .62-.5q.15-1.09-1-1.72-1.34-.74-1.5-1.44a2.46 2.46 0 0 0-2.44-1.92q-5.17.1-10.45.19c-1.55.02-3.47-.55-5.02.71q-3.54 2.87-5.24 4-.35.24-.37.65-.02.27-.14.49c-.32.58-2.03.84-2.77 1.7q-1.47 1.68-3.59 2.58-.47.2-.56.7-.18.92-1.08 1.19-.5.14-.81.54-.91 1.18-2.27 1.15" stroke="#fce9c4"/><path d="m74.44 69.04 7.49-6.9" stroke="#ddcbaa"/><path d="m103.94 116.6 23.23-.98a1.14 1.14 0 0 0 1.1-1.14l.12-22.49q0-.13-.13-.1-.77.18-1.21.92" stroke="#c9b197"/><path d="M127.05 92.81q-.04-.8-.55-.82-5.38-.22-10.67-.32" stroke="#908171"/><path d="M98.98 143.96q-.53-.19-.96.23-.35.35-.85.35l-38.27-.27" stroke="#aba194"/><path d="m90.79 90.44-4.06 1.35" stroke="#9f8168"/><path d="m86.73 91.79-17.39.09a2.01 2-.3 0 0-2 2.01l.2 42.09" stroke="#a47255"/><path d="M67.54 135.98q.11.72-.15 2.27-.16 1.02 1.32.89" stroke="#9a6e52"/><path d="m68.71 139.14-2.94-.12q-.44-.02-.44-.46v-5.57q0-.06.04-.1.08-.11.15-.21.1-.16.1-.39.16-13.13-.3-26.26" stroke="#c0a888"/><path d="m97.55 141.75.07.53a.3.29 87.5 0 1-.3.33l-22.35-.28" stroke="#a09281"/><path d="M132.01 117.15c-2.15-.18-3.14 1.34-5.08 1.71-3.35.63-6.16 1.69-9.63 1.46" stroke="#889b5b"/><path d="M148.57 128.82q-1.56-.63-2.04.36-.18.37-.59.45-.48.1-.96.04a.83.82-62.1 0 1-.44-1.44c1.38-1.22-.14-3.27-1.52-2.44q-.41.25-.45.72-.1.94.38 1.74a1.05 1.05 0 0 1 0 1.06q-.71 1.21-2.18 1.09a.7.69-72.9 0 0-.67.36q-2.5 4.71-7.66 5.13c-2.05.16-4.42-.95-6.78-1-1.3-.03-2.27-.55-3.6-.65q-.49-.04-.79-.43-1.71-2.14-3.95-.14" stroke="#74b34c"/><path d="M117.32 133.67q-1.36-.08-1.71.51" stroke="#6ea345"/><path d="M143.72 148.82q-1.34-.11-3.05-1.77c-2.09-2.03-4.71-1.38-7.68-1.58q-.48-.04-.92.13l-7.5 2.76M123.35 147.29q-.28-2.66-2.73-4.33a1.1 1.09 13.8 0 1-.47-.77q-.04-.34-.23-.65-.24-.38-.69-.39-.91-.02-1.09-.92-.02-.1-.38-.48-.14-.14-.32-.16-.52-.04-.65.46-.46 1.84-.31 3.95" stroke="#4d762d"/><path d="m90.52 92.07-.3 31.75" stroke="#a67c61"/><path d="M90.22 123.82q-.5-1.72-.23-3.41a.83.83 0 0 0-1.1-.91q-1.28.46-1.68 1.28" stroke="#80422b"/><path d="M87.21 120.78q-1.78-.82-3.25.57a1.83 1.82-31.2 0 0-.48 1.92q.45 1.37 2.33 1.65" stroke="#c4984b"/><path d="M85.81 124.92q-.16 0-.3.02a.97.97 0 0 0-.4 1.8l1.12.66q.4.25-.06.35-2.78.64-5.45 1.63c-2.08.77-3.62.43-5.71.27-.97-.07-1.74.48-2.87-.03q-.4-.18-.82-.07-1.36.38-2.45-.37-.76-.51-.83.4l-.5 6.4" stroke="#80422b"/><path d="M85.81 124.92c2.1.03 2.48-2.86 1.4-4.14" stroke="#b99348"/><path d="m127.05 92.81.08.2" stroke="#9a948c"/><path d="m127.13 93.01-20.69-.04a1.13 1.12 88.1 0 0-1.12 1.2l.2 2.72" stroke="#7d9daf"/><path d="m105.52 96.89-.03 10.25" stroke="#7090a7"/><path d="m105.49 107.14-.1 6.84" stroke="#6687a1"/><path d="m105.53 114.75 21.57-.44" stroke="#9fb7c7"/><path d="m127.1 114.31-.02-13.49" stroke="#a9c0cd"/><path d="M127.08 100.82q.7-4.1.05-7.81" stroke="#b6ced5"/><path d="M139.06 116.81q-.16.67-.36-.7" stroke="#7a9153"/><path d="m138.7 116.11-.19-.99" stroke="#8b735b"/><path d="M150.88 135.83q-2.97 2.66-7.16 1.49a2.3 2.3 0 0 0-2.53.93q-1.84 2.69-5.17 2.52a1.95 1.92-24.9 0 1-1.06-.38q-1.56-1.18-3.59-.75-.48.1-.78.48-1.01 1.31-2.59.7c-3.26-1.26-7.26-1.29-8.3-4.8q-.14-.46-.6-.6-.64-.18-.73-.77-.09-.61-.21-.75-.31-.39-.84-.23" stroke="#5c943b"/><path d="m127.1 114.31-.16-6.1a1.2 1.19 87.4 0 0-1.26-1.16c-3.53.2-6.66.91-10.26 1.08q-1.9.09-4.16.49-4.65.82-5.77-1.48" stroke="#75b3e2"/><path d="M127.08 100.82q.26-1.54-.07-2.72-.16-.54-.72-.46l-18.38 2.73q-1.69.25-2.01-1.42l-.38-2.06" stroke="#8ccaf0"/><path d="m36.93 51.35-2.4 3.36a1 .99-35.2 0 0-.15.85q.07.27.21.5a.61.61 0 0 0 .85.21l.48-.3q1.17-.74 1.16.65-.02 1.94-.1 4.01c-.15 3.73.85 8.93 4.42 10.91q1.25.69 2.36 1.6.41.33.87.1 1.51-.78 1.91-2.39c.96-3.78 5.06-4.68 7.17-7.63q1.2-1.67 2.22-3.5.19-.34-.2-.37l-1.16-.09" stroke="#588d38"/><path d="m54.57 59.26-2.88-1.2q-.48-.19-.75-.64l-2.72-4.44q-.45-.73-1.25-.44-5.64 2.05-7.76-3.33a.6.6 0 0 0-1.09-.07l-1.19 2.21" stroke="#5c943b"/><path d="M54.57 59.26q-1.6 3.87-5.41 4.98-.89.25-1.21-.23-.34-.51-.06-1.55.23-.86-.53-.41-.95.56-2.07 1.23c-2.48 1.47-5.42.35-7.15-1.71q-.26-.32-.25-.74l.21-5.57a1.36 1.34-60.3 0 0-.21-.79q-.99-1.59-.96-3.12" stroke="#5e9d40"/><path d="M71.57 99.91v10.63a.88.88 0 0 0 .89.88l13.55-.14a1.02 1.02 0 0 0 1.01-.99l.15-5.67" stroke="#85818a"/><path d="m87.17 104.62.02-8.38q0-.43-.42-.42l-14.59.17q-.56 0-.65.55-.31 1.73.04 3.37" stroke="#918f93"/><path d="M87.17 104.62q-3.04.41-10.41 1.02-2.43.2-4.19-.87a1.03 1.03 0 0 1-.48-.75l-.52-4.11" stroke="#8ccaf0"/></g><path d="M77.26 9.26q.01 1.29-1 1.46c-4.14.72-8.9-.91-12.92-1.56q-1.68-.27-.33.76.87.67 2.28.98c2.95.65 13.02 4.44 13.09-.88l3.36 2.28c.28 1.3 1.89 2.44 1.99 3.01q.54 3.04-1.97 1.18l-1.26-.94a.4.4 0 0 0-.62.44q.18.61.55 1.13a.89.88-49.8 0 1 .07.91q-.52 1.04-1.63 1.01-2.99-1.01-5.76-2.24-.39-.17-.72-.12-.81.12-.75.69a.48.48 0 0 1-.71.47l-5.38-3a.55.54-56.6 0 0-.7.15l-.22.28a.27.26-56 0 0 .07.39c3.21 1.97 6.37 4.04 9.8 5.64 2.57 1.19 4.03 2.32 7.58 3.34a1.12 1.11-6 0 1 .66.53q1.13 2.05.11 3.59c-1.45 2.2-4.19.85-6.28.73l-3.1-2.32a.82.82 0 0 0-.91-.05l-.92.53a2.02 2-50.6 0 1-1.65.17q-4.66-1.58-7.11-5.87-.27-.47-.24-1.02.03-.43-.09-.83-.19-.62-.51-.06l-.78 1.41c-3 2.1-5.25.25-7.89-1.37q-.42-.26-.8.05-6.99 5.61-16.04 6.1a2.33 2.31-14.8 0 1-2.2-1.27c-1.08-2.17 1.37-3.76 2.48-5.27a.29.29 0 0 0-.36-.44L34 20.4a.9.89-6.8 0 0-.5.63q-.53 2.47-.22 5.02l-2.56 1.79q-.38.26-.53.69-.32.85-1.15 1.45c-2.82 2.36-6.86 5.42-10.6 3.67a.72.71 17.3 0 1-.4-.75l.53-3.21q.02-.14-.1-.2-.13-.07-.25-.14a.41.4 31.3 0 0-.56.13q-1.67 2.6-4.56 3.76-.48.19-.47.69v.39a.4.4 0 0 0 .44.4q.59-.07 1.13.35.36.28.06.62c-.69.8-.48 1.51-.93 2.29q-2.78 4.9-6.76 3.31 1.91-7.07 5.33-10.86 3.06-3.39 11.87-8.6 4.9-1.12 8.3-4.67c1.63-1.69 2.68-2.23 4.83-2.54a1.02.99 23.2 0 0 .47-.18q1.72-1.18.62-1.21c-2.65-.08-3.64.67-5.8 2.5q-3.45 2.93-8.38 4.1 1.5-3.12 4.45-4.78c5.1-2.88 11.4-6.9 16.98-7.22 3.4-.19 6.09-.42 9.92-1.05 1.99-.32 3.92-.01 5.77-.13 5.8-.39 11.27-.1 16.33 2.61Z" fill="#86c156"/><path d="m77.26 9.26 1.12.76c-.07 5.32-10.14 1.53-13.09.88q-1.41-.31-2.28-.98-1.35-1.03.33-.76c4.02.65 8.78 2.28 12.92 1.56q1.01-.17 1-1.46Z" fill="#62a442"/><path d="M81.74 12.3c8.23 2.41 15.01 5.57 19.32 13.4q.53.95.19 2.12-4.73 1.24-9.3-1.75-3.89-2.55-7.82-5.04-.38-.24-.62.13l-.16.25q-.12.19.07.31 4.57 3.01 9.09 6.13 1.87 1.3 7.3 2.65.46.11.36.57l-.31 1.4q-.1.45-.56.42c-2.51-.17-3.77.81-6.51.04l-8.34-8.22q-.35-.34-.35-.84 0-.4-.2-.61-.21-.22-.8-.09c-2.21.47-4.87-.9-6.31-2.15q-1.68-1.45.53-1.24 4.39.43 1.55-.74 1.11.03 1.63-1.01a.89.88-49.8 0 0-.07-.91q-.37-.52-.55-1.13a.4.4 0 0 1 .62-.44l1.26.94q2.51 1.86 1.97-1.18c-.1-.57-1.71-1.71-1.99-3.01Z" fill="#76b347"/><path d="M23.77 21.83q.5-.88.04-2 4.93-1.17 8.38-4.1c2.16-1.83 3.15-2.58 5.8-2.5q1.1.03-.62 1.21a1.02.99 23.2 0 1-.47.18c-2.15.31-3.2.85-4.83 2.54q-3.4 3.55-8.3 4.67Z" fill="#59963d"/><path d="M78.87 19.04q2.84 1.17-1.55.74-2.21-.21-.53 1.24c1.44 1.25 4.1 2.62 6.31 2.15q.59-.13.8.09.2.21.2.61 0 .5.35.84l8.34 8.22q-.9-.48-1.47-.52a.39.39 0 0 0-.36.61l1.86 2.86-3.11 1.78a.79.78 48.2 0 1-.85-.05q-.47-.36-1.15-.41-.62-.04-.83.54-.23.64-.96.62a1.02.98 60.3 0 1-.47-.14q-1.1-.67-1.66-1.74-.32-.6-.68-.03c-.6.96-.61 2.58-1.25 3.27q-.43.46-1.05.5.18-2.96-.72-4.5l-1.56-1.22 2.52.17q.56.04.85-.45.36-.61.2-1.33a.51.51 0 0 1 .48-.62l1.21-.03a.96.96 0 0 0 .82-1.4l-.21-.4q-.27-.53-.82-.28c-3.1 1.43-5.45 3.57-8.26-.16q-.37-.49.24-.61.39-.08 1.01.1c2.09.12 4.83 1.47 6.28-.73q1.02-1.54-.11-3.59a1.12 1.11-6 0 0-.66-.53c-3.55-1.02-5.01-2.15-7.58-3.34-3.43-1.6-6.59-3.67-9.8-5.64a.27.26-56 0 1-.07-.39l.22-.28a.55.54-56.6 0 1 .7-.15l5.38 3a.48.48 0 0 0 .71-.47q-.06-.57.75-.69.33-.05.72.12 2.77 1.23 5.76 2.24Z" fill="#62a442"/><path d="M61.26 21.45q.18-.27.47-.09.27.17.07.42c-2.07 2.68-5.77 1.95-7.87-.13q-.38-.38-.82-.06-5.92 4.26-9.02 4.97c-3.28.76-8.24 2.4-10.81-.51q-.31-2.55.22-5.02a.9.89-6.8 0 1 .5-.63l2.45-1.15a.29.29 0 0 1 .36.44c-1.11 1.51-3.56 3.1-2.48 5.27a2.33 2.31-14.8 0 0 2.2 1.27q9.05-.49 16.04-6.1.38-.31.8-.05c2.64 1.62 4.89 3.47 7.89 1.37Z" fill="#568433"/><path d="M76.57 29.49q-.62-.18-1.01-.1-.61.12-.24.61c2.81 3.73 5.16 1.59 8.26.16q.55-.25.82.28l.21.4a.96.96 0 0 1-.82 1.4l-1.21.03a.51.51 0 0 0-.48.62q.16.72-.2 1.33-.29.49-.85.45l-2.52-.17-17.98.07q-.46.03-.91.31a.94.93-16.1 0 0-.46.82q.06 4.78.27 9.54.24 5.51-.63 10.81c-5.01 2.5-6.97-.67-9.82-3.87q-.35-.4-.22-.92.13-.49.08-1.02a.43.43 0 0 0-.77-.22q-2.13 2.94-4.96 1.64-2.18-1-4.43-4.42-.33-.49-.68-.02l-3.97 5.29-3.58 1.91q-1.06.57-.89-.62c.18-1.28 1.44-1.56 1.72-2.76q.13-.6-.2-.95-.29-.31-.68-.13-.63.28-1.2-.21-.95-.78-2.14-.63-.56.07-.97-.33-1.21-1.2-.58-3a.92.92 0 0 1 .79-.61q.61-.04.99-.55a.9.9 0 0 1 1.53.16c1.82 3.86 5.72 2.56 9.18 1.18q.71-.28.88-1.03l.21-.91a.4.4 0 0 0-.64-.4c-3.03 2.42-6.84 3.15-8.78-1-.65-1.39-.07-2.29.43-3.64q.19-.53-.27-.87-.39-.29-.75.03-.84.76-2.01.79a1.05 1.04 1.9 0 1-1.07-1.14c.22-2.51.68-4.08 2.69-5.52q2.04-1.44.33-2.3.83-.6 1.15-1.45.15-.43.53-.69l2.56-1.79c2.57 2.91 7.53 1.27 10.81.51q3.1-.71 9.02-4.97.44-.32.82.06c2.1 2.08 5.8 2.81 7.87.13q.2-.25-.07-.42-.29-.18-.47.09l.78-1.41q.32-.56.51.06.12.4.09.83-.03.55.24 1.02 2.45 4.29 7.11 5.87a2.02 2-50.6 0 0 1.65-.17l.92-.53a.82.82 0 0 1 .91.05l3.1 2.32Z" fill="#76b347"/><path d="m101.25 27.82-.5 1.77q-.16.55.38.75 4.1 1.52 5.93 5.41.14.8-2.12.66-2.24-.16-3.8-1.72-.35-.35-.85-.34l-2.35.03q-.54 0-1.04.21c-1.23.52-2.18-.19-3.08.22q-.65.29-1 1.07l-1.86-2.86a.39.39 0 0 1 .36-.61q.57.04 1.47.52c2.74.77 4-.21 6.51-.04q.46.03.56-.42l.31-1.4q.1-.46-.36-.57-5.43-1.35-7.3-2.65-4.52-3.12-9.09-6.13-.19-.12-.07-.31l.16-.25q.24-.37.62-.13 3.93 2.49 7.82 5.04 4.57 2.99 9.3 1.75Z" fill="#568433"/><path d="M29.04 29.98q1.71.86-.33 2.3c-2.01 1.44-2.47 3.01-2.69 5.52a1.05 1.04 1.9 0 0 1.07 1.14q1.17-.03 2.01-.79.36-.32.75-.03.46.34.27.87c-.5 1.35-1.08 2.25-.43 3.64 1.94 4.15 5.75 3.42 8.78 1a.4.4 0 0 1 .64.4l-.21.91q-.17.75-.88 1.03c-3.46 1.38-7.36 2.68-9.18-1.18a.9.9 0 0 0-1.53-.16q-.38.51-.99.55a.92.92 0 0 0-.79.61q-.63 1.8.58 3 .41.4.97.33 1.19-.15 2.14.63.57.49 1.2.21.39-.18.68.13.33.35.2.95c-.28 1.2-1.54 1.48-1.72 2.76q-.17 1.19.89.62l3.58-1.91q-.37-.22-.1.45c-2.55 1.96-4.5 3.84-8.03 3.01a4.46 1.84 78.6 0 1-2.14-3.2q-.14-.49-.58-.94-.41-.41-.93-.15-.7.34-1.32 1.23c-2.25 1.89-5.59 4.22-8.22 2.19l-1.48-1.78q-.35-.42-.36-.97l-.05-3.09a.75.75 0 0 0-.42-.66q-.5-.25-.65-.81a.54.53 50.7 0 0-.99-.1q-.63 1.21-.37 2.61a1.22 1.19-37.4 0 1-.11.75l-2.43 4.76q-.42.81.22 1.45l.2.2q.33.33.58-.06l2.37-3.69q.4-.62.81 0c.86 1.31 1 2.53 2.23 3.57q2.25 1.9 4.77 3.49.4.26.57.71.64 1.68.83 3.45.01.08.08.11.14.06.29.08.26.05.39.29.61 1.16.38 2.5-.1.53-.55.82-.87.56-1.4 1.51c-2.65 1.71-5.48-.14-7.74-1.04q-.45-.18-.77-.56-.61-.72-1.37-1.18-.4-.24-.57-.67-.69-1.74-1.22-3.53-.44-1.5-1.77-1.31c.54-4.15-2.82-7.29-1.23-11.21q2-4.92 3.6-9.45 3.98 1.59 6.76-3.31c.45-.78.24-1.49.93-2.29q.3-.34-.06-.62-.54-.42-1.13-.35a.4.4 0 0 1-.44-.4v-.39q-.01-.5.47-.69 2.89-1.16 4.56-3.76a.41.4 31.3 0 1 .56-.13q.12.07.25.14.12.06.1.2l-.53 3.21a.72.71 17.3 0 0 .4.75c3.74 1.75 7.78-1.31 10.6-3.67Z" fill="#62a442"/><path d="m78.53 34.5 1.56 1.22q-.64-.26-1.11.34-.27.35-.29.99-.1 3.69-.05 7.42 0 .38-.37.5l-2.84.91a.5.49 74.3 0 0-.33.59l.09.34q.18.73-.5 1.05c-1.49.69-3.09.69-3.94 2.38q-.39.77-1.39.87-.45.05-.8.33-.54.44-.89 1.03-.26.43-.74.58-.48.16-.74.52-.29.4-.77.31-.8-.15-1.33.26-.46.37-.46.95v.88q0 .39-.35.56-.75.36-1.59.45-.55.06-.74.59-.69 2.02.03 4.06l-1.41 1.2q-.1-.97-.44-1.3.38-.09.6-.27.19-.16.21-.58.59-12.86.61-26.11l17.98-.07Z" fill="#ba4437"/><path d="M104.94 36.41q.33.38 1.05.21.17-.04.25.12.1.19.2.37a.34.34 0 0 1-.44.47q-.69-.31-1.43-.21-.46.06-.83-.21c-3.75-2.74-8.29-2.7-11.65.6-1.72 1.7-3.31 1.36-4.9 3.64q-.46.67-1.58 1.46-3.18 2.29-6.3 4.69-.38.29-.86.32-1.21.08-1.38 1.31-.07.47-.41.8c-1.32 1.28-1.9 2.75-3.37 3.76q-2.19 1.51-4.53 2.76-1.27.68-2.1 1.78-.83 1.12-1.65 2.27a1.58 1.57-82.3 0 1-.77.59c-3.24 1.17-4.23 2.8-6.49 4.62-1.3 1.05-2.02 2.15-3.17 3.16q-.38.34-.86.52-.86.33-1.46 1.03-.32.37-.77.54c-1.63.61-1.64 1.84-2.14 3.14q-.66 1.74.01 2.25-.41 1.17-.14 1.85l1.2 1.99a.75.75 0 0 1-.69 1.14l-5.15-.33q-.42-.03-.6.35-.63 1.34-2.94 1.68-3.77-.77-6.87-3.68-.39-.37-.89-.18-5.77 2.25-12.22-.48 2.96-.43 4.31.12 2 .81 3.98.46a.97.96 58.9 0 0 .42-1.71q-1.37-1.07-3.08-1.38-.19-.03-.18-.23l.03-.43q.03-.44.48-.44l4.22.01a1.53 1.52 6.1 0 0 1.49-1.2l1.16-5.41q.29-1.37 1.35-.7.1.06.85 1.17c1.39 3.24 5.46 10.74 9.91 9.74a2.07 2.06-19.1 0 0 1.41-2.9c-1.28-2.67.68-4.48 3.05-5.76q1.96-1.05 3.68-2.47c1.66-1.36 2.46-3.74 5.43-4.78l1.41-1.2q1.26-.62 2.32-1.51.15-.12 1.86-1.21 1.09-.7 1.28-2.16.07-.48.4-.83c.69-.72 1.68-.84 2.3-1.21 1.62-.95 2.92-1.51 4.47-2.86 1.04-.9 2.88-1.24 3.03-2.86q.04-.46.33-.82 1.28-1.62 3.04-2.7.45-.28.48-.8l.32-4.45q.62-.04 1.05-.5c.64-.69.65-2.31 1.25-3.27q.36-.57.68.03.56 1.07 1.66 1.74a1.02.98 60.3 0 0 .47.14q.73.02.96-.62.21-.58.83-.54.68.05 1.15.41a.79.78 48.2 0 0 .85.05l3.11-1.78q.35-.78 1-1.07c.9-.41 1.85.3 3.08-.22q.5-.21 1.04-.21l2.35-.03q.5-.01.85.34 1.56 1.56 3.8 1.72Z" fill="#34561f"/><path d="M60.55 34.57q-.02 13.25-.61 26.11-.02.42-.21.58-.22.18-.6.27l-.31-5.48q.87-5.3.63-10.81-.21-4.76-.27-9.54a.94.93-16.1 0 1 .46-.82q.45-.28.91-.31Z" fill="#ad7c60"/><path d="M104.94 36.41q2.26.14 2.12-.66 2.8 2.93 3.81 6.98.13.55.62.81l7.34 4.04q.44.25.42.76l-.07 1.27q-.03.56.44.85 4.32 2.75 8.8 5.14 1.34.72.72 1.69a.99.98-58.9 0 0 .34 1.38l9.23 5.42a1.14 1.14 0 0 1 .53 1.25c-.29 1.2.3 2.06 1.38 2.63q4.12 2.16 8.51 4.63a.72.71-52.2 0 1 .14 1.14q-1.03.98-1.89 3.1l-27.5-22.38-20.29-16.7a2.39 2.39 0 0 0-3.04 0L59.24 68.38l-9.88 8.02q-.67-.51-.01-2.25c.5-1.3.51-2.53 2.14-3.14q.45-.17.77-.54.6-.7 1.46-1.03.48-.18.86-.52c1.15-1.01 1.87-2.11 3.17-3.16 2.26-1.82 3.25-3.45 6.49-4.62a1.58 1.57-82.3 0 0 .77-.59q.82-1.15 1.65-2.27.83-1.1 2.1-1.78 2.34-1.25 4.53-2.76c1.47-1.01 2.05-2.48 3.37-3.76q.34-.33.41-.8.17-1.23 1.38-1.31.48-.03.86-.32 3.12-2.4 6.3-4.69 1.12-.79 1.58-1.46c1.59-2.28 3.18-1.94 4.9-3.64 3.36-3.3 7.9-3.34 11.65-.6q.37.27.83.21.74-.1 1.43.21a.34.34 0 0 0 .44-.47q-.1-.18-.2-.37-.08-.16-.25-.12-.72.17-1.05-.21Z" fill="#2b2e2d"/><path d="M80.09 35.72q.9 1.54.72 4.5l-.32 4.45q-.03.52-.48.8-1.76 1.08-3.04 2.7-.29.36-.33.82c-.15 1.62-1.99 1.96-3.03 2.86-1.55 1.35-2.85 1.91-4.47 2.86-.62.37-1.61.49-2.3 1.21q-.33.35-.4.83-.19 1.46-1.28 2.16-1.71 1.09-1.86 1.21-1.06.89-2.32 1.51-.72-2.04-.03-4.06.19-.53.74-.59.84-.09 1.59-.45.35-.17.35-.56v-.88q0-.58.46-.95.53-.41 1.33-.26.48.09.77-.31.26-.36.74-.52.48-.15.74-.58.35-.59.89-1.03.35-.28.8-.33 1-.1 1.39-.87c.85-1.69 2.45-1.69 3.94-2.38q.68-.32.5-1.05l-.09-.34a.5.49 74.3 0 1 .33-.59l2.84-.91q.37-.12.37-.5-.05-3.73.05-7.42.02-.64.29-.99.47-.6 1.11-.34Z" fill="#752722"/><path d="M119.88 54.46q.65 1.02.18 1.8a1.11 1.09 12.3 0 1-.82.52q-1.46.16-1.65 1.47-.08.58-.65.42-.8-.23-1.6-.2-3.98-3.34-15.21-12.35-2.01-1.61-3.78-1.06L74.87 61.82a1.02 1.01-68.5 0 1-.5.22q-2.07.34-2.88 2.19a1.08 1.08 0 0 1-.75.62q-.82.19-.99-.61-.09-.44-.12-.72-.13-1.32-1.19-.52-4.76 3.58-8.07 6.36-.46.39-.86.22-.41-.17-.26-.59.13-.34-.01-.61l37.31-30.62a2.39 2.39 0 0 1 3.04 0l20.29 16.7Z" fill="#ec5646"/><path d="M115.34 58.47q14.01 11.28 28.02 22.43.54.43 1.59.12-.46.86-1.45.82-4.43-.2-4.87 1.65-.07-1.47-.06-3.5.01-1.37-.65-1.91-15.67-12.59-31.27-25.37l-4.25-3.4q-.32-.16-.63-.7l-4.32-2.08q-.26-.14-.64-.18-.49-.06-.48-.55l.02-.74q1.77-.55 3.78 1.06 11.23 9.01 15.21 12.35Z" fill="#752722"/><path d="m96.35 45.06-.02.74q-.01.49.48.55.38.04.64.18-2.36.1-3.54 1.9-.25.37-.67.5-.24.07-.45.24-11.4 9.34-22.93 18.53-.31.24-.48.59-.17.36-.51.58-6.94 4.49-12.87 10.3-.33-.57-1.35-.11c-1.15.51-1.44 1.78-2.99 1.42-1.04-.25-1.69-1.45-2.44-2.23q-.27-.68.14-1.85l9.88-8.02q.14.27.01.61-.15.42.26.59.4.17.86-.22 3.31-2.78 8.07-6.36 1.06-.8 1.19.52.03.28.12.72.17.8.99.61a1.08 1.08 0 0 0 .75-.62q.81-1.85 2.88-2.19a1.02 1.01-68.5 0 0 .5-.22l21.48-16.76Z" fill="#d0403b"/><path d="m97.45 46.53 4.32 2.08q-2.81-.51-4.96 1.37c-3 2.62-5.98 4.83-8.8 7.33q-2.95 2.62-6.08 4.83-17.8 13.75-25.16 20.11-.76.66-.55 2.05l-.09 1.16-.13-6.29q5.93-5.81 12.87-10.3.34-.22.51-.58.17-.35.48-.59 11.53-9.19 22.93-18.53.21-.17.45-.24.42-.13.67-.5 1.18-1.8 3.54-1.9Z" fill="#ad7c60"/><path d="m58.82 56.05.31 5.48q.34.33.44 1.3c-2.97 1.04-3.77 3.42-5.43 4.78q-1.72 1.42-3.68 2.47c-2.37 1.28-4.33 3.09-3.05 5.76a2.07 2.06-19.1 0 1-1.41 2.9c-4.45 1-8.52-6.5-9.91-9.74q-.14-1.46-1.37-2.56-.4-.36-.65.12-.62 1.18-.62 2.57-.01.53-.24 1l-1.69 3.31a2.47 2.46-56.7 0 1-3.77.78l-3.12-2.57a1.75 1.74-78.5 0 1-.54-.82q-.45-1.52-1.64-2.62-.75-.71-1.7.18.15-.86.76-.97.42-.08.94.37c2.43 2.09 5.38 6.15 9.06 3.43q.39-.3.54-.76 1.62-5.18-.69-10.01-.22-.48-.68-.74l-3.05-1.73a.54.54 0 0 1 .13-.99q4-1.01 6.19-4.03-.27-.67.1-.45l3.97-5.29q.35-.47.68.02 2.25 3.42 4.43 4.42 2.83 1.3 4.96-1.64a.43.43 0 0 1 .77.22q.05.53-.08 1.02-.13.52.22.92c2.85 3.2 4.81 6.37 9.82 3.87Zm-21.89-4.7-2.4 3.36a1 .99-35.2 0 0-.15.85q.07.27.21.5a.61.61 0 0 0 .85.21l.48-.3q1.17-.74 1.16.65-.02 1.94-.1 4.01c-.15 3.73.85 8.93 4.42 10.91q1.25.69 2.36 1.6.41.33.87.1 1.51-.78 1.91-2.39c.96-3.78 5.06-4.68 7.17-7.63q1.2-1.67 2.22-3.5.19-.34-.2-.37l-1.16-.09-2.88-1.2q-.48-.19-.75-.64l-2.72-4.44q-.45-.73-1.25-.44-5.64 2.05-7.76-3.33a.6.6 0 0 0-1.09-.07l-1.19 2.21Z" fill="#568433"/><path d="M12.73 55.1q-2.3.46 1.05 2.55c4.91 3.07 5.77-1.08 9.39-2.44q.4-.15.41-.57.02-1.04-.6-1.93-.29-.42-.76-.25l-1.27.45q.62-.89 1.32-1.23.52-.26.93.15.44.45.58.94a4.46 1.84 78.6 0 0 2.14 3.2c3.53.83 5.48-1.05 8.03-3.01q-2.19 3.02-6.19 4.03a.54.54 0 0 0-.13.99l3.05 1.73q.46.26.68.74 2.31 4.83.69 10.01-.15.46-.54.76c-3.68 2.72-6.63-1.34-9.06-3.43q-.52-.45-.94-.37-.61.11-.76.97-1.17 1.61-3.11 1.85.53-.95 1.4-1.51.45-.29.55-.82.23-1.34-.38-2.5-.13-.24-.39-.29-.15-.02-.29-.08-.07-.03-.08-.11-.19-1.77-.83-3.45-.17-.45-.57-.71-2.52-1.59-4.77-3.49c-1.23-1.04-1.37-2.26-2.23-3.57q-.41-.62-.81 0L6.87 57.4q-.25.39-.58.06l-.2-.2q-.64-.64-.22-1.45l2.43-4.76a1.22 1.19-37.4 0 0 .11-.75q-.26-1.4.37-2.61a.54.53 50.7 0 1 .99.1q.15.56.65.81a.75.75 0 0 1 .42.66l.05 3.09q.01.55.36.97l1.48 1.78Z" fill="#59963d"/><path d="M101.77 48.61q.31.54.63.7-4.1-.08-7.52 3.9a.7.7 0 0 0 .49 1.15q4.64.25 9.39.09 1.84-.06 1.89-1.74 15.6 12.78 31.27 25.37.66.54.65 1.91-.01 2.03.06 3.5l.08 5.13-.2 26.5q-.84 1.66-4.02.62a1.72 1.72 0 0 1-1.17-1.57q-.26-8.87.03-17.92.18-5.42-2.26-6.38l-20.04-.16 15.46-.29q4.54-.08.42-1.99c-1.83-.85-6.38-.26-8.58-.51q-5.23-.6-10.45-1.01-.11-.01-.01-.02 1.84-.19 3.43-1.18.6-.37-.09-.52l-3.24-.68a.63.63 0 0 1-.12-1.19q1.17-.51 1.14-1.69-.01-.19-.15-.08-.25.19-.36-.05-.05-.1 0-.13.12-.08.24-.14a.04.04 0 0 0-.02-.07c-11.8-.56-23.57.17-35.4.02q-.25 0-.25-.25l-.01-.27q0-.25.25-.26 19.48-.53 38.89-.52c6.27 0 14.12.58 21.22.5q.52-.01.41-.52c-.41-1.91-2.8-1.79-3.71-3.86q-.04-.08-.1-.02-.09.09-.26.02-.13-.05-.13-.19v-.32a.55.53-82.8 0 0-.38-.51q-1.84-.58-3.78-.3a.19.19 0 0 1-.12-.35q.21-.12.45-.22.43-.18.27-.62c-.51-1.43-2.3-2.63-3.35-3.78q-.34-.37-.83-.44-5.06-.78-8.14-.76-15.88.09-31.73.07-.06 0-.07-.06l-.05-.31q-.06-.43.37-.43l32.26-.19q.43 0 .64-.37l.48-.85a.46.46 0 0 0-.37-.69q-.82-.06-1.41-.68-.39-.42-.3-.98l.07-.49q.11-.72-.62-.75l-5.54-.24a.25.25 0 0 1-.06-.49q1.77-.5 3.64-.33a.58.58 0 0 0 .62-.5q.15-1.09-1-1.72-1.34-.74-1.5-1.44a2.46 2.46 0 0 0-2.44-1.92q-5.17.1-10.45.19c-1.55.02-3.47-.55-5.02.71q-3.54 2.87-5.24 4-.35.24-.37.65-.02.27-.14.49c-.32.58-2.03.84-2.77 1.7q-1.47 1.68-3.59 2.58-.47.2-.56.7-.18.92-1.08 1.19-.5.14-.81.54-.91 1.18-2.27 1.15l7.49-6.9q3.13-2.21 6.08-4.83c2.82-2.5 5.8-4.71 8.8-7.33q2.15-1.88 4.96-1.37Z" fill="#f9e4c0"/><path d="M54.57 59.26q-1.6 3.87-5.41 4.98-.89.25-1.21-.23-.34-.51-.06-1.55.23-.86-.53-.41-.95.56-2.07 1.23c-2.48 1.47-5.42.35-7.15-1.71q-.26-.32-.25-.74l.21-5.57a1.36 1.34-60.3 0 0-.21-.79q-.99-1.59-.96-3.12l1.19-2.21a.6.6 0 0 1 1.09.07q2.12 5.38 7.76 3.33.8-.29 1.25.44l2.72 4.44q.27.45.75.64l2.88 1.2Z" fill="#62a442"/><path d="m102.4 49.31 4.25 3.4q-.05 1.68-1.89 1.74-4.75.16-9.39-.09a.7.7 0 0 1-.49-1.15q3.42-3.98 7.52-3.9Z" fill="#ffeec7"/><path d="M36.93 51.35q-.03 1.53.96 3.12a1.36 1.34-60.3 0 1 .21.79l-.21 5.57q-.01.42.25.74c1.73 2.06 4.67 3.18 7.15 1.71q1.12-.67 2.07-1.23.76-.45.53.41-.28 1.04.06 1.55.32.48 1.21.23 3.81-1.11 5.41-4.98l1.16.09q.39.03.2.37-1.02 1.83-2.22 3.5c-2.11 2.95-6.21 3.85-7.17 7.63q-.4 1.61-1.91 2.39-.46.23-.87-.1-1.11-.91-2.36-1.6c-3.57-1.98-4.57-7.18-4.42-10.91q.08-2.07.1-4.01.01-1.39-1.16-.65l-.48.3a.61.61 0 0 1-.85-.21q-.14-.23-.21-.5a1 .99-35.2 0 1 .15-.85l2.4-3.36Z" fill="#59963d"/><path d="M12.73 55.1c2.63 2.03 5.97-.3 8.22-2.19l1.27-.45q.47-.17.76.25.62.89.6 1.93-.01.42-.41.57c-3.62 1.36-4.48 5.51-9.39 2.44q-3.35-2.09-1.05-2.55Z" fill="#446827"/><path d="m119.88 54.46 27.5 22.38q.53 1.66-2.43 4.18-1.05.31-1.59-.12-14.01-11.15-28.02-22.43.8-.03 1.6.2.57.16.65-.42.19-1.31 1.65-1.47a1.11 1.09 12.3 0 0 .82-.52q.47-.78-.18-1.8Z" fill="#d0403b"/><path d="m111.05 89.71-5.87.39-3.47-.08c-2.2 3.27-3.89 2.86-6.96 1.15q-1-1.78-3.96-.73l-24.25-.88a1.31 1.31 0 0 0-1.35 1.32l.13 15.15-.38 32.7a.92.92 0 0 1-.94.91q-1.91-.06-3 1.34l-.98.58a.73.73 0 0 0-.36.63q.01.76-.76 2.08-.39.07-1.35 1.58-1.36-.75-1.66-1.55l-.05-10.57.32-43.7-.3-4.03q.12.16.27-.54l.09-1.16 18.22-15.26q1.36.03 2.27-1.15.31-.4.81-.54.9-.27 1.08-1.19.09-.5.56-.7 2.12-.9 3.59-2.58c.74-.86 2.45-1.12 2.77-1.7q.12-.22.14-.49.02-.41.37-.65 1.7-1.13 5.24-4c1.55-1.26 3.47-.69 5.02-.71q5.28-.09 10.45-.19a2.46 2.46 0 0 1 2.44 1.92q.16.7 1.5 1.44 1.15.63 1 1.72a.58.58 0 0 1-.62.5q-1.87-.17-3.64.33a.25.25 0 0 0 .06.49l5.54.24q.73.03.62.75l-.07.49q-.09.56.3.98.59.62 1.41.68a.46.46 0 0 1 .37.69l-.48.85q-.21.37-.64.37l-32.26.19q-.43 0-.37.43l.05.31q.01.06.07.06 15.85.02 31.73-.07 3.08-.02 8.14.76.49.07.83.44c1.05 1.15 2.84 2.35 3.35 3.78q.16.44-.27.62-.24.1-.45.22a.19.19 0 0 0 .12.35q1.94-.28 3.78.3a.55.53-82.8 0 1 .38.51v.32q0 .14.13.19.17.07.26-.02.06-.06.1.02c.91 2.07 3.3 1.95 3.71 3.86q.11.51-.41.52c-7.1.08-14.95-.5-21.22-.5q-19.41-.01-38.89.52-.25.01-.25.26l.01.27q0 .25.25.25c11.83.15 23.6-.58 35.4-.02a.04.04 0 0 1 .02.07q-.12.06-.24.14-.05.03 0 .13.11.24.36.05.14-.11.15.08.03 1.18-1.14 1.69a.63.63 0 0 0 .12 1.19l3.24.68q.69.15.09.52-1.59.99-3.43 1.18-.1.01.01.02 5.22.41 10.45 1.01c2.2.25 6.75-.34 8.58.51q4.12 1.91-.42 1.99l-15.46.29Z" fill="#ffeec7"/><path d="M4.2 61.95q1.33-.19 1.77 1.31.53 1.79 1.22 3.53.17.43.57.67.76.46 1.37 1.18.32.38.77.56c2.26.9 5.09 2.75 7.74 1.04q1.94-.24 3.11-1.85.95-.89 1.7-.18 1.19 1.1 1.64 2.62a1.75 1.74-78.5 0 0 .54.82l3.12 2.57a2.47 2.46-56.7 0 0 3.77-.78l1.69-3.31q.23-.47.24-1 0-1.39.62-2.57.25-.48.65-.12 1.23 1.1 1.37 2.56-.75-1.11-.85-1.17-1.06-.67-1.35.7l-1.16 5.41a1.53 1.52 6.1 0 1-1.49 1.2l-4.22-.01q-.45 0-.48.44l-.03.43q-.01.2.18.23 1.71.31 3.08 1.38a.97.96 58.9 0 1-.42 1.71q-1.98.35-3.98-.46-1.35-.55-4.31-.12l-6.84-5.45a1.29 1.15-17.2 0 0-.48-.22q-3.11-.71-3.91-1.38-3.87-3.2-5.63-9.74Z" fill="#446827"/><path d="m81.93 62.14-7.49 6.9L56.22 84.3q-.21-1.39.55-2.05 7.36-6.36 25.16-20.11Z" fill="#c1b194"/><path d="M49.22 78.25c.75.78 1.4 1.98 2.44 2.23 1.55.36 1.84-.91 2.99-1.42q1.02-.46 1.35.11l.13 6.29q-.15.7-.27.54l-.41 7.75a.4.39-15.3 0 1-.18.31q-.12.07-.26.08-.48.03-.57-.43-.26-1.31-1.28-2-.39-.26-.8-.02-1.04.64-2.93.54l-.37-8.87a.95.95 0 0 0-1.33-.83q-3.1 1.38-6.69.55 2.31-.34 2.94-1.68.18-.38.6-.35l5.15.33a.75.75 0 0 0 .69-1.14l-1.2-1.99Z" fill="#34240b"/><path d="m55.86 86 .3 4.03-.1 7.08q-.01 1.13-1.04.66-1.05-.48-1.36-1.53-.18-.59-.69-.24-.18.13-.41.13-1.84 0-1.76 1.84.38 9.74-.68 18.8c-.6 5.1-.31 10.21-.78 14.97q-.19 1.93.83 3.11.39.45.65-.08.57-1.11 1.86-1.33.44-.07.61-.48l1.28-2.97q.07-.15.21-.08l.69.34q.26.13.22.42-.28 1.86.15 3.06l.05 10.57-.53-.29q-.42-.23-.91-.24-4.43-.09-8.72-1.33a1.72 1.72 0 0 1-1.2-1.97q4.52-23.78 4.9-48.24 1.89.1 2.93-.54.41-.24.8.02 1.02.69 1.28 2 .09.46.57.43.14-.01.26-.08a.4.39-15.3 0 0 .18-.31l.41-7.75Z" fill="#806530"/><path d="m138.71 88.62 2.27 2.15a1.27 1.25-69.2 0 1 .39.89c.09 6.34.07 12.72.42 19.04q.28 5.1-2.73 6.11-.16.67-.36-.7l-.19-.99.2-26.5Z" fill="#6d6050"/><path d="m90.79 90.44-4.06 1.35-17.39.09a2.01 2-.3 0 0-2 2.01l.2 42.09q.11.72-.15 2.27-.16 1.02 1.32.89l-2.94-.12q-.44-.02-.44-.46v-5.57q0-.06.04-.1.08-.11.15-.21.1-.16.1-.39.16-13.13-.3-26.26l-.13-15.15a1.31 1.31 0 0 1 1.35-1.32l24.25.88Z" fill="#be9e7c"/><path d="m105.18 90.1 6.03.31a.06.06 0 0 1 .01.12q-.44.15-.48.29-.11.34.26.38l4.83.47-9.73.03a2.21 2.21 0 0 0-2.21 2.24l.23 20.08q.01.54.55.53.49-.01.72-.57-.05.43.14.77-2.21 1.22-1.59 1.85 10.56-.27 20.9-.21c1.24 0 2.44-.38 3.64-.69q.46-.12.6-.56.48-1.56.49-2.64.11-9.82.1-20.49a.81.81 0 0 0-.84-.81q-1.33.06-2.58-.44-.41-.16 0-.31 1.86-.65 4.84-.58 2.44.96 2.26 6.38-.29 9.05-.03 17.92a1.72 1.72 0 0 0 1.17 1.57q3.18 1.04 4.02-.62l.19.99q-.95.63-2.36.61c-1.69-.02-2.78.37-4.33.43l.34-.62q.12-.21-.09-.3l-.36-.16a.35.34-75.3 0 1-.2-.36q1.4-10.28.81-20.66-.07-1.21-1.21-1.63l-.27-.09q-.76-.28-.77.53l-.23 22.1q-.01.48-.47.63-.87.29-1.54.91-.41.38-.96.38h-1.56v.01q.37.08.54-.2.25-.44-.25-.39-4.88.53-9.76.19c-4.37-.3-7.96-.2-11.98-.31q-.42-.01-.7-.31-.19-.2-.29-.44-.37-.87-.9-.09-.32.46-.45 1.19V90.02l3.47.08Z" fill="#a88666"/><path d="m111.05 89.71 20.04.16q-2.98-.07-4.84.58-.41.15 0 .31 1.25.5 2.58.44a.81.81 0 0 1 .84.81q.01 10.67-.1 20.49-.01 1.08-.49 2.64-.14.44-.6.56c-1.2.31-2.4.69-3.64.69q-10.34-.06-20.9.21l23.23-.98a1.14 1.14 0 0 0 1.1-1.14l.12-22.49q0-.13-.13-.1-.77.18-1.21.92-.04-.8-.55-.82-5.38-.22-10.67-.32L111 91.2q-.37-.04-.26-.38.04-.14.48-.29a.06.06 0 0 0-.01-.12l-6.03-.31 5.87-.39Z" fill="#be9e7c"/><path d="m56.16 90.03-.32 43.7q-.43-1.2-.15-3.06.04-.29-.22-.42l-.69-.34q-.14-.07-.21.08l-1.28 2.97q-.17.41-.61.48-1.29.22-1.86 1.33-.26.53-.65.08-1.02-1.18-.83-3.11c.47-4.76.18-9.87.78-14.97q1.06-9.06.68-18.8-.08-1.84 1.76-1.84.23 0 .41-.13.51-.35.69.24.31 1.05 1.36 1.53 1.03.47 1.04-.66l.1-7.08Z" fill-opacity=".996" fill="#9f813e"/><path d="m94.75 91.17.33 29.37-.14 17.7q0 .54-.52.68-.96.26-1.9-.04-.54-.18-.38-.71.55-1.8.51-3.17c-.28-9.15.5-19.11.29-27.34q-.18-7.37-.42-14.81a1.46 1.46 0 0 0-1.33-1.4q-.12-.01-.67.62-.93-.78-3.79-.28l4.06-1.35q2.96-1.05 3.96.73Z" fill="#7f6454"/><path d="M101.71 90.02v27.51q-.85 2.85 5.04 2.78 5.26-.07 10.55.01l3.85.09q.44.01.56.44c1.48 5.13-10.18 6.8-6.1 13.33q.03 1.2 1.73 3.26a.19.19 0 0 1 0 .22q-1.89 2.69-.86 6.34l-.01.63q-.01.54-.55.62-.32.05-.59-.01l-6.86.07-7.62-.03q-.5 0-.86-.35l-1.01-.97-1.43-2.21q-.56-.7-.99-.96-1.36-1.28-1.36-2.54.02-8.86-.12-17.71l-.33-29.37c3.07 1.71 4.76 2.12 6.96-1.15Z" fill="#f9e4c0"/><path d="m90.52 92.07-.3 31.75q-.5-1.72-.23-3.41a.83.83 0 0 0-1.1-.91q-1.28.46-1.68 1.28-1.78-.82-3.25.57a1.83 1.82-31.2 0 0-.48 1.92q.45 1.37 2.33 1.65-.16 0-.3.02a.97.97 0 0 0-.4 1.8l1.12.66q.4.25-.06.35-2.78.64-5.45 1.63c-2.08.77-3.62.43-5.71.27-.97-.07-1.74.48-2.87-.03q-.4-.18-.82-.07-1.36.38-2.45-.37-.76-.51-.83.4l-.5 6.4-.2-42.09a2.01 2-.3 0 1 2-2.01l17.39-.09q2.86-.5 3.79.28Zm-18.95 7.84v10.63a.88.88 0 0 0 .89.88l13.55-.14a1.02 1.02 0 0 0 1.01-.99l.15-5.67.02-8.38q0-.43-.42-.42l-14.59.17q-.56 0-.65.55-.31 1.73.04 3.37Z" fill="#8a462d"/><path d="M95.08 120.54q.14 8.85.12 17.71 0 1.26 1.36 2.54-13.34.36-26.58.27c-2-.01-5.03-.47-7.81-.38a.51.49-82.7 0 0-.46.37l-.1.37a.61.6 7.5 0 0 .58.75l12.78.16q-8.43.61-13.22.26-1.41-.1-.75-1.61 1.09-1.4 3-1.34a.92.92 0 0 0 .94-.91l.38-32.7q.46 13.13.3 26.26 0 .23-.1.39-.07.1-.15.21-.04.04-.04.1v5.57q0 .44.44.46l2.94.12 21.11.16a.45.45 0 0 0 .45-.45l-.05-15.03.3-31.75q.55-.63.67-.62a1.46 1.46 0 0 1 1.33 1.4q.24 7.44.42 14.81c.21 8.23-.57 18.19-.29 27.34q.04 1.37-.51 3.17-.16.53.38.71.94.3 1.9.04.52-.14.52-.68l.14-17.7Z" fill="#c1b194"/><path d="M115.83 91.67q5.29.1 10.67.32.51.02.55.82l.08.2-20.69-.04a1.13 1.12 88.1 0 0-1.12 1.2l.2 2.72-.03 10.25-.1 6.84q-.23.56-.72.57-.54.01-.55-.53l-.23-20.08a2.21 2.21 0 0 1 2.21-2.24l9.73-.03Z" fill="#616366"/><path d="M103.94 116.6q-.62-.63 1.59-1.85l21.57-.44-.02-13.49q.7-4.1.05-7.81l-.08-.2q.44-.74 1.21-.92.13-.03.13.1l-.12 22.49a1.14 1.14 0 0 1-1.1 1.14l-23.23.98Z" fill="#d3c4b2"/><path d="M127.13 93.01q.65 3.71-.05 7.81.26-1.54-.07-2.72-.16-.54-.72-.46l-18.38 2.73q-1.69.25-2.01-1.42l-.38-2.06-.2-2.72a1.13 1.12 88.1 0 1 1.12-1.2l20.69.04Z" fill="#98d7f8"/><path d="M132.01 117.15c-2.15-.18-3.14 1.34-5.08 1.71-3.35.63-6.16 1.69-9.63 1.46q-5.29-.08-10.55-.01-5.89.07-5.04-2.78.13-.73.45-1.19.53-.78.9.09.1.24.29.44.28.3.7.31c4.02.11 7.61.01 11.98.31q4.88.34 9.76-.19.5-.05.25.39-.17.28-.54.2v-.01h1.56q.55 0 .96-.38.67-.62 1.54-.91.46-.15.47-.63l.23-22.1q.01-.81.77-.53l.27.09q1.14.42 1.21 1.63.59 10.38-.81 20.66a.35.34-75.3 0 0 .2.36l.36.16q.21.09.09.3l-.34.62Z" fill="#8a7560"/><path d="M87.17 104.62q-3.04.41-10.41 1.02-2.43.2-4.19-.87a1.03 1.03 0 0 1-.48-.75l-.52-4.11q-.35-1.64-.04-3.37.09-.55.65-.55l14.59-.17q.42-.01.42.42l-.02 8.38Z" fill="#98d7f8"/><path d="m105.52 96.89.38 2.06q.32 1.67 2.01 1.42l18.38-2.73q.56-.08.72.46.33 1.18.07 2.72l.02 13.49-.16-6.1a1.2 1.19 87.4 0 0-1.26-1.16c-3.53.2-6.66.91-10.26 1.08q-1.9.09-4.16.49-4.65.82-5.77-1.48l.03-10.25ZM71.57 99.91l.52 4.11a1.03 1.03 0 0 0 .48.75q1.76 1.07 4.19.87 7.37-.61 10.41-1.02l-.15 5.67a1.02 1.02 0 0 1-1.01.99l-13.55.14a.88.88 0 0 1-.89-.88V99.91Z" fill="#7fbce7"/><path d="M105.49 107.14q1.12 2.3 5.77 1.48 2.26-.4 4.16-.49c3.6-.17 6.73-.88 10.26-1.08a1.2 1.19 87.4 0 1 1.26 1.16l.16 6.1-21.57.44q-.19-.34-.14-.77l.1-6.84Z" fill="#6baadc"/><path d="M138.7 116.11q.2 1.37.36.7-.13 1.9 1.15 2.52c3.81 1.84 7.99 3.68 9.2 8.02q.28 1-.84 1.47-1.56-.63-2.04.36-.18.37-.59.45-.48.1-.96.04a.83.82-62.1 0 1-.44-1.44c1.38-1.22-.14-3.27-1.52-2.44q-.41.25-.45.72-.1.94.38 1.74a1.05 1.05 0 0 1 0 1.06q-.71 1.21-2.18 1.09a.7.69-72.9 0 0-.67.36q-2.5 4.71-7.66 5.13c-2.05.16-4.42-.95-6.78-1-1.3-.03-2.27-.55-3.6-.65q-.49-.04-.79-.43-1.71-2.14-3.95-.14-1.36-.08-1.71.51c-4.08-6.53 7.58-8.2 6.1-13.33q-.12-.43-.56-.44l-3.85-.09c3.47.23 6.28-.83 9.63-1.46 1.94-.37 2.93-1.89 5.08-1.71 1.55-.06 2.64-.45 4.33-.43q1.41.02 2.36-.61Z" fill="#86c156"/><path d="m90.22 123.82.05 15.03a.45.45 0 0 1-.45.45l-21.11-.16q-1.48.13-1.32-.89.26-1.55.15-2.27l.5-6.4q.07-.91.83-.4 1.09.75 2.45.37.42-.11.82.07c1.13.51 1.9-.04 2.87.03 2.09.16 3.63.5 5.71-.27q2.67-.99 5.45-1.63.46-.1.06-.35l-1.12-.66a.97.97 0 0 1 .4-1.8q.14-.02.3-.02c2.1.03 2.48-2.86 1.4-4.14q.4-.82 1.68-1.28a.83.83 0 0 1 1.1.91q-.27 1.69.23 3.41Z" fill="#753d28"/><path d="M87.21 120.78c1.08 1.28.7 4.17-1.4 4.14q-1.88-.28-2.33-1.65a1.83 1.82-31.2 0 1 .48-1.92q1.47-1.39 3.25-.57Z" fill="#fde968"/><path d="M148.57 128.82q-1.33.25-.91.8 2.13 2.77 3.22 6.21-2.97 2.66-7.16 1.49a2.3 2.3 0 0 0-2.53.93q-1.84 2.69-5.17 2.52a1.95 1.92-24.9 0 1-1.06-.38q-1.56-1.18-3.59-.75-.48.1-.78.48-1.01 1.31-2.59.7c-3.26-1.26-7.26-1.29-8.3-4.8q-.14-.46-.6-.6-.64-.18-.73-.77-.09-.61-.21-.75-.31-.39-.84-.23 2.24-2 3.95.14.3.39.79.43c1.33.1 2.3.62 3.6.65 2.36.05 4.73 1.16 6.78 1q5.16-.42 7.66-5.13a.7.69-72.9 0 1 .67-.36q1.47.12 2.18-1.09a1.05 1.05 0 0 0 0-1.06q-.48-.8-.38-1.74.04-.47.45-.72c1.38-.83 2.9 1.22 1.52 2.44a.83.82-62.1 0 0 .44 1.44q.48.06.96-.04.41-.08.59-.45.48-.99 2.04-.36Z" fill="#62a442"/><path d="M117.32 133.67q.53-.16.84.23.12.14.21.75.09.59.73.77.46.14.6.6c1.04 3.51 5.04 3.54 8.3 4.8q1.58.61 2.59-.7.3-.38.78-.48 2.03-.43 3.59.75a1.95 1.92-24.9 0 0 1.06.38q3.33.17 5.17-2.52a2.3 2.3 0 0 1 2.53-.93q4.19 1.17 7.16-1.49c.41 3.25.02 5.17-2.42 7.62-1.68 1.68-2.36 4.53-4.74 5.37q-1.34-.11-3.05-1.77c-2.09-2.03-4.71-1.38-7.68-1.58q-.48-.04-.92.13l-7.5 2.76q-1.08-.61-1.22-1.07-.28-2.66-2.73-4.33a1.1 1.09 13.8 0 1-.47-.77q-.04-.34-.23-.65-.24-.38-.69-.39-.91-.02-1.09-.92-.02-.1-.38-.48-.14-.14-.32-.16-.52-.04-.65.46-.46 1.84-.31 3.95-1.03-3.65.86-6.34a.19.19 0 0 0 0-.22q-1.7-2.06-1.73-3.26.35-.59 1.71-.51Z" fill="#568433"/><path d="m123.35 147.29-8.02-2.05q.27.06.59.01.54-.08.55-.62l.01-.63q-.15-2.11.31-3.95.13-.5.65-.46.18.02.32.16.36.38.38.48.18.9 1.09.92.45.01.69.39.19.31.23.65a1.1 1.09 13.8 0 0 .47.77q2.45 1.67 2.73 4.33Z" fill="#446827"/><path d="M96.56 140.79q.43.26.99.96l.07.53a.3.29 87.5 0 1-.3.33l-22.35-.28-12.78-.16a.61.6 7.5 0 1-.58-.75l.1-.37a.51.49-82.7 0 1 .46-.37c2.78-.09 5.81.37 7.81.38q13.24.09 26.58-.27Z" fill="#6d6050"/><path d="M61 140.98q-.66 1.51.75 1.61 4.79.35 13.22-.26l22.35.28a.3.29 87.5 0 0 .3-.33l-.07-.53 1.43 2.21q-.53-.19-.96.23-.35.35-.85.35l-38.27-.27q.77-1.32.76-2.08a.73.73 0 0 1 .36-.63l.98-.58Z" fill="#d3c4b2"/><path d="m58.9 144.27 38.27.27q.5 0 .85-.35.43-.42.96-.23l1.01.97q.36.35.86.35l7.62.03-7.77.08q-.51 0-.93.27-1.88 1.17-5.27 1.19-28.33.14-35.75-.02-.75-.02-1.2-.98.96-1.51 1.35-1.58Z" fill-opacity=".996" fill="#827d76"/><path d="M143.72 148.82c-6.91 2.09-12.61 3.14-19.15-.46l7.5-2.76q.44-.17.92-.13c2.97.2 5.59-.45 7.68 1.58q1.71 1.66 3.05 1.77Z" fill="#446827"/></svg>