<svg viewBox="0.00 0.00 256.00 256.00" version="1.1" xmlns="http://www.w3.org/2000/svg">
<g stroke-linecap="butt" fill="none" stroke-width="2.00">
<path d="M 206.99 81.76
  Q 206.89 82.29 206.52 82.20" stroke="#33aaeb"></path>
<path d="M 88.24 104.88
  Q 88.05 104.66 87.72 104.62" stroke="#1bc8e5"></path>
<path d="M 87.72 104.62
  Q 88.49 104.53 88.64 103.98
  Q 88.88 103.09 88.90 103.05
  Q 105.25 74.96 121.57 46.85
  Q 122.97 44.43 127.07 37.97
  Q 127.47 37.33 126.53 36.89" stroke="#1bd5f2"></path>
<path d="M 87.96 104.99
  Q 87.66 105.57 87.30 106.19
  Q 67.98 139.48 48.91 172.90
  Q 48.76 173.18 48.31 173.04" stroke="#2b8ee9"></path>
<path d="M 127.23 219.55
  Q 127.50 218.66 127.40 218.37
  Q 124.08 208.58 112.38 175.55
  Q 112.13 174.85 112.15 173.96" stroke="#436ff0"></path>
<path d="M 87.72 104.62
  L 48.29 82.09" stroke="#00e0e0"></path>
</g>
<path d="M 206.99 81.76
  Q 206.89 82.29 206.52 82.20
  L 88.24 104.88
  Q 88.05 104.66 87.72 104.62
  Q 88.49 104.53 88.64 103.98
  Q 88.88 103.09 88.90 103.05
  Q 105.25 74.96 121.57 46.85
  Q 122.97 44.43 127.07 37.97
  Q 127.47 37.33 126.53 36.89
  C 127.22 36.25 127.91 35.98 128.82 36.51
  Q 167.55 58.84 206.23 81.25
  Q 206.64 81.48 206.99 81.76
  Z" fill="#35bdf6"></path>
<path d="M 126.53 36.89
  Q 127.47 37.33 127.07 37.97
  Q 122.97 44.43 121.57 46.85
  Q 105.25 74.96 88.90 103.05
  Q 88.88 103.09 88.64 103.98
  Q 88.49 104.53 87.72 104.62
  L 48.29 82.09
  L 126.53 36.89
  Z" fill="#00eded"></path>
<path d="M 206.99 81.76
  C 207.34 82.27 207.69 82.97 207.69 83.63
  Q 207.65 128.35 207.69 173.23
  A 1.29 1.28 75.0 0 1 207.06 174.34
  L 128.52 219.68
  Q 128.12 219.90 127.69 219.73
  L 127.23 219.55
  Q 127.50 218.66 127.40 218.37
  Q 124.08 208.58 112.38 175.55
  Q 112.13 174.85 112.15 173.96
  Q 112.81 173.17 114.78 171.28
  Q 160.85 127.00 206.92 82.71
  Q 207.05 82.58 206.52 82.20
  Q 206.89 82.29 206.99 81.76
  Z" fill="#3196e0"></path>
<path d="M 48.29 82.09
  L 87.72 104.62
  Q 88.05 104.66 88.24 104.88
  Q 88.36 104.61 87.96 104.99
  Q 87.66 105.57 87.30 106.19
  Q 67.98 139.48 48.91 172.90
  Q 48.76 173.18 48.31 173.04
  L 48.29 82.09
  Z" fill="#00d3d3"></path>
<path d="M 87.96 104.99
  Q 87.91 105.10 87.85 105.22
  Q 87.83 105.27 87.85 105.32
  Q 99.80 139.57 111.80 173.81
  Q 111.83 173.89 111.90 173.94
  Q 112.10 174.07 112.15 173.96
  Q 112.13 174.85 112.38 175.55
  Q 124.08 208.58 127.40 218.37
  Q 127.50 218.66 127.23 219.55
  Q 88.06 196.98 48.95 174.31
  Q 48.57 174.09 48.45 173.78
  Q 48.31 173.44 48.31 173.04
  Q 48.76 173.18 48.91 172.90
  Q 67.98 139.48 87.30 106.19
  Q 87.66 105.57 87.96 104.99
  Z" fill="#5548ff"></path>
</svg>
