<svg viewBox="0.00 0.00 128.00 128.00" version="1.1" xmlns="http://www.w3.org/2000/svg">
<path d="M 62.57 0.00
  L 66.22 0.00
  Q 87.61 5.96 108.92 11.94
  C 111.60 12.70 114.82 14.76 115.60 17.18
  Q 119.00 27.72 128.00 61.82
  L 128.00 66.33
  Q 122.53 86.88 116.67 107.42
  C 115.25 112.39 113.90 114.89 109.00 116.27
  Q 87.59 122.31 66.25 128.00
  L 61.49 128.00
  Q 40.34 122.30 19.27 116.22
  C 16.66 115.46 13.19 113.36 12.53 111.01
  Q 6.25 88.59 0.00 66.10
  L 0.00 62.46
  Q 7.04 36.19 12.20 18.47
  C 13.32 14.62 15.78 12.97 19.76 11.83
  Q 41.14 5.70 62.57 0.00
  Z
  M 111.8197 71.3166
  A 10.22 10.22 0.0 0 0 111.8197 56.8634
  L 71.3166 16.3603
  A 10.22 10.22 0.0 0 0 56.8634 16.3603
  L 16.3603 56.8634
  A 10.22 10.22 0.0 0 0 16.3603 71.3166
  L 56.8634 111.8197
  A 10.22 10.22 0.0 0 0 71.3166 111.8197
  L 111.8197 71.3166
  Z" fill="#ee01ec"></path>
</svg>
