<svg viewBox="0.00 0.00 192.00 227.00" version="1.1" xmlns="http://www.w3.org/2000/svg">
<path d="M 11.74 177.82
  L 12.41 121.02
  A 0.58 0.58 0.0 0 1 12.98 120.44
  L 16.76 120.38
  Q 17.31 120.37 17.34 120.93
  C 18.48 145.78 27.52 176.70 58.99 173.69
  C 70.99 172.54 79.84 164.58 79.80 152.12
  Q 79.75 139.17 69.86 129.62
  C 54.94 115.19 34.56 106.99 21.29 91.24
  C 12.83 81.20 10.87 68.63 13.53 55.99
  C 16.43 42.21 30.33 32.85 43.58 29.80
  C 56.01 26.94 70.57 26.52 82.64 30.86
  Q 89.29 33.26 95.60 37.18
  C 102.74 41.60 103.86 35.54 104.47 30.44
  Q 104.59 29.50 105.54 29.49
  L 108.68 29.47
  A 0.91 0.91 0.0 0 1 109.60 30.43
  Q 108.20 54.30 108.58 78.21
  Q 108.58 78.50 108.28 78.50
  L 103.83 78.47
  A 0.31 0.30 -1.0 0 1 103.53 78.19
  C 102.02 56.59 88.64 28.88 62.43 33.63
  C 50.89 35.72 45.04 45.48 46.56 56.68
  C 47.90 66.57 55.18 73.25 62.83 78.67
  Q 77.54 89.09 92.32 99.41
  C 103.37 107.12 113.50 117.37 115.91 131.00
  C 123.20 172.20 79.44 183.55 48.74 178.96
  Q 38.73 177.46 28.68 172.59
  C 25.85 171.22 19.58 166.53 17.81 171.77
  Q 16.74 174.94 16.50 177.78
  Q 16.44 178.43 15.78 178.43
  L 12.32 178.41
  Q 11.74 178.41 11.74 177.82
  Z" fill="#000000"></path>
<rect rx="15.34" height="33.48" width="37.98" y="146.12" x="134.13" fill="#407454"></rect>
</svg>
