<svg viewBox="0.00 0.00 180.00 180.00" version="1.1" xmlns="http://www.w3.org/2000/svg">
<g stroke-linecap="butt" fill="none" stroke-width="2.00">
<path d="M 62.14 31.57
  Q 58.35 36.17 57.24 44.35" stroke="#c549a9"></path>
<path d="M 57.24 44.35
  C 56.25 44.81 55.59 45.55 54.63 45.91
  Q 44.56 49.70 34.59 53.04" stroke="#a45f87"></path>
<path d="M 34.59 53.04
  Q 33.36 53.79 33.40 54.45" stroke="#c6988f"></path>
<path d="M 33.40 54.45
  Q 33.36 54.64 33.30 54.82
  Q 33.23 55.01 33.24 55.20
  Q 33.90 63.59 34.48 72.01
  Q 34.62 74.02 37.42 75.12" stroke="#bb728c"></path>
<path d="M 37.42 75.12
  Q 37.25 76.08 37.51 76.77" stroke="#a45f87"></path>
<path d="M 37.51 76.77
  Q 38.78 95.71 40.20 114.67
  C 40.31 116.07 40.85 117.93 41.92 118.61
  Q 48.20 122.61 53.83 127.35" stroke="#bb728c"></path>
<path d="M 53.83 127.35
  C 58.71 132.26 65.33 137.43 72.08 139.67" stroke="#b43494"></path>
<path d="M 72.08 139.67
  L 86.29 149.36" stroke="#bb728c"></path>
<path d="M 86.29 149.36
  Q 87.24 149.82 88.25 149.33
  Q 97.25 145.00 107.15 140.73" stroke="#a45f87"></path>
<path d="M 107.15 140.73
  Q 118.27 137.45 127.50 131.00" stroke="#9b3090"></path>
<path d="M 127.50 131.00
  L 143.48 123.30
  A 4.33 4.32 78.2 0 0 145.93 119.55
  L 147.24 80.09
  Q 147.26 79.55 147.63 79.15
  L 149.89 76.70
  A 0.68 0.64 -24.5 0 0 150.06 76.29
  L 150.69 58.78
  A 1.74 1.72 -70.6 0 0 150.01 57.34
  L 147.53 55.46
  Q 147.21 55.21 146.82 55.34
  Q 146.56 55.43 146.23 55.27
  Q 141.59 52.94 136.82 50.70" stroke="#a45f87"></path>
<path d="M 136.82 50.70
  L 131.82 47.74" stroke="#894d84"></path>
<path d="M 131.82 47.74
  Q 131.50 47.09 131.10 46.87
  Q 128.30 45.30 122.03 42.34
  Q 121.55 42.11 121.45 41.58
  C 120.95 39.09 121.00 33.91 118.17 33.06" stroke="#9b3090"></path>
<path d="M 118.17 33.06
  Q 115.58 31.17 110.61 32.64" stroke="#b63a9e"></path>
<path d="M 110.61 32.64
  L 104.67 34.73" stroke="#c549a9"></path>
<path d="M 104.67 34.73
  C 102.18 33.43 98.07 30.65 95.39 31.61
  Q 87.12 34.56 78.63 37.67" stroke="#a45f87"></path>
<path d="M 78.63 37.67
  Q 78.10 37.18 77.13 36.12
  Q 71.78 30.36 62.14 31.57" stroke="#b63a9e"></path>
<path d="M 78.63 37.67
  Q 81.20 39.93 84.11 41.33
  C 87.37 42.91 91.61 42.40 95.42 43.60
  Q 95.94 43.76 96.34 43.40
  L 98.95 41.05" stroke="#cc5b26"></path>
<path d="M 98.95 41.05
  L 97.39 43.53
  Q 97.15 43.91 97.19 44.36
  C 97.42 47.09 96.72 49.91 100.00 50.88
  Q 101.61 51.35 103.03 52.52
  Q 104.98 54.12 105.84 54.35
  C 109.71 55.39 113.73 51.67 114.48 48.20
  Q 114.95 46.03 113.59 41.96
  Q 112.08 37.42 110.61 32.64" stroke="#ed4547"></path>
<path d="M 118.17 33.06
  Q 118.77 36.90 119.58 40.35
  C 120.56 44.52 120.40 49.14 119.28 53.26
  C 118.68 55.50 118.49 57.89 117.54 60.01
  Q 116.98 61.28 116.46 62.59
  Q 116.27 63.06 115.77 63.11
  L 114.42 63.22" stroke="#c32c2e"></path>
<path d="M 114.42 63.22
  C 109.07 60.38 102.95 59.09 97.30 56.91" stroke="#7f2022"></path>
<path d="M 97.30 56.91
  L 95.41 56.37
  Q 94.89 56.22 94.55 56.65
  Q 94.06 57.29 93.98 58.13
  Q 93.93 58.64 93.46 58.85
  C 90.97 59.95 82.24 61.26 82.00 56.81
  A 1.71 1.70 81.1 0 0 79.86 55.25
  L 64.29 59.39" stroke="#942023"></path>
<path d="M 64.29 59.39
  Q 60.83 54.22 60.86 50.50
  C 60.88 48.34 60.74 46.31 61.18 44.20
  C 61.85 40.97 62.60 38.15 63.78 34.96
  Q 65.18 31.20 62.14 31.57" stroke="#ed4547"></path>
<path d="M 64.29 59.39
  L 58.95 60.60" stroke="#a32f2e"></path>
<path d="M 58.95 60.60
  Q 57.56 60.64 57.29 58.56" stroke="#ea3f3e"></path>
<path d="M 57.29 58.56
  C 56.84 55.39 56.18 47.92 57.70 45.15
  Q 57.89 44.79 57.63 44.47
  Q 57.45 44.24 57.24 44.35" stroke="#db6a31"></path>
<path d="M 104.67 34.73
  Q 105.27 34.94 104.33 35.84
  Q 101.64 38.45 98.95 41.05" stroke="#db6a31"></path>
<path d="M 131.82 47.74
  Q 130.58 48.56 129.30 48.45" stroke="#963f14"></path>
<path d="M 129.30 48.45
  Q 126.90 48.29 124.68 49.28
  Q 124.22 49.49 123.74 49.40
  Q 121.57 49.02 121.15 51.13
  Q 120.13 56.25 118.73 59.48" stroke="#843610"></path>
<path d="M 118.73 59.48
  Q 118.45 63.92 115.23 65.67
  C 113.89 66.40 112.50 66.06 110.94 66.16
  Q 110.11 66.21 110.74 66.75
  Q 111.88 67.73 114.07 67.72" stroke="#8a1f1e"></path>
<path d="M 114.07 67.72
  Q 111.77 68.25 109.26 67.00
  Q 106.84 65.80 103.25 66.20
  Q 102.74 66.26 102.28 66.03
  Q 97.23 63.44 91.88 65.46" stroke="#c02625"></path>
<path d="M 91.88 65.46
  L 86.56 64.93" stroke="#c4511d"></path>
<path d="M 86.56 64.93
  Q 92.84 62.61 100.15 63.98
  Q 100.88 64.11 100.46 63.51
  Q 99.64 62.33 98.38 61.60
  Q 97.76 61.25 97.59 60.58
  Q 97.47 60.08 97.98 60.12
  Q 98.88 60.19 99.65 59.90" stroke="#791615"></path>
<path d="M 99.65 59.90
  Q 102.03 60.81 104.52 61.69
  C 107.04 62.58 110.26 64.43 113.74 64.43
  Q 114.70 64.44 114.42 63.22" stroke="#641614"></path>
<path d="M 97.30 56.91
  L 95.55 56.83
  Q 94.75 56.79 95.04 57.54
  L 95.43 58.54
  A 0.87 0.85 -12.8 0 0 96.30 59.08
  Q 98.75 58.91 99.65 59.90" stroke="#350909"></path>
<path d="M 86.56 64.93
  L 76.20 69.05" stroke="#954511"></path>
<path d="M 76.20 69.05
  Q 74.73 69.18 73.37 70.23
  Q 73.20 70.36 73.04 70.20
  L 72.68 69.84
  Q 72.49 69.65 72.73 69.54
  L 84.57 64.07" stroke="#921919"></path>
<path d="M 84.57 64.07
  Q 86.41 63.86 87.40 62.72
  A 0.49 0.49 0.0 0 0 87.07 61.91
  Q 82.72 61.52 78.54 62.37
  C 76.48 62.79 73.36 64.25 70.37 64.38
  C 68.27 64.47 66.68 64.79 64.78 65.04
  Q 64.29 65.10 63.84 64.90
  L 60.72 63.53" stroke="#5c1213"></path>
<path d="M 60.72 63.53
  L 58.40 62.35
  A 0.66 0.65 -70.4 0 1 58.06 61.62
  Q 58.19 61.04 58.95 60.60" stroke="#921919"></path>
<path d="M 57.29 58.56
  L 49.89 62.21" stroke="#ca541c"></path>
<path d="M 49.89 62.21
  Q 42.58 56.95 34.59 53.04" stroke="#dcb917"></path>
<path d="M 60.72 63.53
  Q 61.73 64.23 61.90 64.76
  A 1.81 1.62 -7.1 0 0 63.50 65.87
  Q 71.39 66.20 78.28 64.04
  C 79.88 63.54 81.65 63.57 83.35 62.68
  A 0.77 0.76 -36.3 0 1 84.23 62.81
  Q 84.68 63.25 84.57 64.07" stroke="#a32223"></path>
<path d="M 76.20 69.05
  L 67.63 72.78" stroke="#dd5521"></path>
<path d="M 67.63 72.78
  Q 66.18 73.29 66.06 74.79" stroke="#eb8e24"></path>
<path d="M 66.06 74.79
  L 67.25 93.89" stroke="#e06721"></path>
<path d="M 67.25 93.89
  Q 66.32 93.73 66.35 94.38
  Q 67.18 111.98 69.19 132.83" stroke="#a32223"></path>
<path d="M 69.19 132.83
  Q 69.68 133.66 69.77 136.00
  Q 69.84 137.99 72.08 139.67" stroke="#e06721"></path>
<path d="M 126.28 63.10
  Q 126.11 63.09 125.97 63.10
  Q 125.71 63.11 125.49 62.99
  L 118.73 59.48" stroke="#67320e"></path>
<path d="M 128.16 64.58
  Q 129.38 65.07 129.45 65.99
  Q 129.48 66.40 129.10 66.56
  L 108.12 75.45" stroke="#c02625"></path>
<path d="M 108.12 75.45
  Q 107.85 74.80 107.94 74.39" stroke="#ca541c"></path>
<path d="M 107.94 74.39
  L 91.88 65.46" stroke="#dd5521"></path>
<path d="M 136.82 50.70
  Q 134.85 52.52 133.36 55.50
  Q 133.16 55.89 133.09 56.24
  Q 133.00 56.66 132.76 57.02
  L 130.34 60.63
  Q 130.08 61.01 129.68 61.25
  Q 127.98 62.26 127.27 63.98" stroke="#9f6e0c"></path>
<path d="M 127.27 63.98
  Q 126.86 63.98 126.66 63.79" stroke="#af4319"></path>
<path d="M 126.66 63.79
  Q 126.67 63.34 126.28 63.10" stroke="#793c12"></path>
<path d="M 126.28 63.10
  Q 130.50 57.98 131.76 51.78
  A 0.99 0.98 -85.9 0 0 130.75 50.60
  Q 129.38 50.68 128.12 50.13
  A 0.43 0.42 28.3 0 1 127.93 49.50
  Q 128.30 48.93 129.30 48.45" stroke="#725304"></path>
<path d="M 107.94 74.39
  C 107.79 76.88 103.93 77.51 102.02 77.92" stroke="#cd8014"></path>
<path d="M 102.02 77.92
  L 106.85 75.92
  Q 107.33 75.72 107.18 75.23
  L 107.10 74.98
  Q 106.94 74.47 106.45 74.67
  Q 93.84 79.71 89.49 80.83
  Q 84.33 82.17 79.74 79.51
  Q 73.65 75.98 67.63 72.78" stroke="#efb91c"></path>
<path d="M 126.66 63.79
  C 124.19 64.38 122.09 65.93 120.23 67.53
  Q 119.85 67.86 119.36 67.85
  L 114.07 67.72" stroke="#a32223"></path>
<path d="M 49.89 62.21
  Q 49.12 63.82 48.49 64.05" stroke="#eb8e24"></path>
<path d="M 48.49 64.05
  L 33.89 55.30
  Q 33.59 55.12 33.48 54.77
  Q 33.43 54.62 33.40 54.45" stroke="#f2cc1c"></path>
<path d="M 87.48 83.89
  L 86.01 85.52
  Q 85.68 85.90 85.70 86.40
  L 86.30 102.76
  A 1.31 1.30 14.3 0 1 84.33 103.93
  L 68.29 94.40" stroke="#d19214"></path>
<path d="M 68.29 94.40
  Q 67.89 94.44 67.25 93.89" stroke="#aa601b"></path>
<path d="M 68.96 106.58
  L 69.19 132.83" stroke="#aa601b"></path>
<path d="M 102.02 77.92
  L 87.48 83.89" stroke="#dcb917"></path>
<path d="M 87.48 83.89
  Q 85.00 84.28 85.09 86.71
  A 0.26 0.25 25.6 0 1 84.63 86.87
  L 83.76 85.73
  Q 83.47 85.35 83.06 85.10
  L 66.06 74.79" stroke="#f2cc1c"></path>
<path d="M 48.49 64.05
  Q 48.82 71.88 49.39 79.78
  Q 49.44 80.35 49.32 81.71
  C 49.19 83.09 49.72 84.96 49.82 85.86
  Q 51.78 104.31 53.77 122.75
  Q 54.05 125.40 53.83 127.35" stroke="#e06721"></path>
<path d="M 37.51 76.77
  L 37.88 76.56
  A 0.76 0.75 45.7 0 1 38.68 76.58
  L 48.31 82.76
  Q 48.42 82.84 48.50 82.73
  L 48.70 82.44
  A 0.26 0.25 -56.6 0 0 48.63 82.08
  L 37.42 75.12" stroke="#d19214"></path>
<path d="M 107.15 140.73
  L 107.77 126.89" stroke="#b15118"></path>
<path d="M 107.77 126.89
  Q 108.93 110.79 108.17 94.50" stroke="#8a1f1e"></path>
<path d="M 108.17 94.50
  L 108.12 75.45" stroke="#b15118"></path>
<path d="M 108.17 94.50
  Q 107.78 95.36 107.04 95.93
  Q 106.64 96.25 106.66 96.76
  L 107.77 126.89" stroke="#944d16"></path>
<path d="M 86.29 149.36
  L 86.61 106.21
  A 0.69 0.69 0.0 0 0 86.00 105.51
  L 84.92 105.40
  Q 84.39 105.34 83.94 105.06
  L 70.73 96.81
  A 1.05 1.04 -73.4 0 0 69.13 97.68
  L 68.96 106.58" stroke="#d19214"></path>
<path d="M 68.96 106.58
  Q 69.03 99.92 68.88 96.87
  Q 68.83 95.92 68.29 94.40" stroke="#944d16"></path>
<path d="M 127.50 131.00
  Q 128.65 109.66 129.88 89.46
  C 129.97 88.10 130.35 86.30 130.27 84.58
  C 129.99 78.52 130.33 72.43 130.25 66.53" stroke="#b15118"></path>
<path d="M 130.25 66.53
  L 148.74 59.02
  Q 149.68 58.63 148.83 58.08
  L 148.60 57.93
  A 1.65 1.63 52.4 0 0 147.22 57.74
  L 142.11 59.29
  Q 141.98 59.33 141.93 59.45
  Q 141.88 59.58 141.80 59.69
  Q 141.67 59.87 141.39 59.96
  Q 138.22 60.98 135.24 62.41
  C 133.21 63.38 131.15 63.88 129.06 64.64" stroke="#d19214"></path>
<path d="M 129.06 64.64
  Q 129.09 64.84 128.16 64.58" stroke="#b15118"></path>
<path d="M 128.16 64.58
  Q 127.87 64.19 127.27 63.98" stroke="#ca541c"></path>
<path d="M 130.25 66.53
  L 129.06 64.64" stroke="#c7641d"></path>
<path d="M 88.72 51.30
  L 87.12 44.96
  A 1.03 1.00 2.9 0 0 86.45 44.24
  C 81.77 42.69 81.13 49.94 81.47 52.74
  Q 82.19 58.78 87.96 57.15
  Q 90.95 56.31 90.05 53.34
  Q 89.92 52.90 89.03 51.89
  Q 88.80 51.64 88.72 51.30" stroke="#ed4547"></path>
<path d="M 65.5450 73.0415
  A 0.74 0.74 0.0 0 0 65.2954 72.0252
  L 51.4556 63.6435
  A 0.74 0.74 0.0 0 0 50.4393 63.8932
  L 50.3150 64.0985
  A 0.74 0.74 0.0 0 0 50.5646 65.1148
  L 64.4044 73.4965
  A 0.74 0.74 0.0 0 0 65.4207 73.2468
  L 65.5450 73.0415" stroke="#ea3f3e"></path>
</g>
<path d="M 0.00 0.00
  L 180.00 0.00
  L 180.00 180.00
  L 0.00 180.00
  L 0.00 0.00
  Z
  M 62.14 31.57
  Q 58.35 36.17 57.24 44.35
  C 56.25 44.81 55.59 45.55 54.63 45.91
  Q 44.56 49.70 34.59 53.04
  Q 33.36 53.79 33.40 54.45
  Q 33.36 54.64 33.30 54.82
  Q 33.23 55.01 33.24 55.20
  Q 33.90 63.59 34.48 72.01
  Q 34.62 74.02 37.42 75.12
  Q 37.25 76.08 37.51 76.77
  Q 38.78 95.71 40.20 114.67
  C 40.31 116.07 40.85 117.93 41.92 118.61
  Q 48.20 122.61 53.83 127.35
  C 58.71 132.26 65.33 137.43 72.08 139.67
  L 86.29 149.36
  Q 87.24 149.82 88.25 149.33
  Q 97.25 145.00 107.15 140.73
  Q 118.27 137.45 127.50 131.00
  L 143.48 123.30
  A 4.33 4.32 78.2 0 0 145.93 119.55
  L 147.24 80.09
  Q 147.26 79.55 147.63 79.15
  L 149.89 76.70
  A 0.68 0.64 -24.5 0 0 150.06 76.29
  L 150.69 58.78
  A 1.74 1.72 -70.6 0 0 150.01 57.34
  L 147.53 55.46
  Q 147.21 55.21 146.82 55.34
  Q 146.56 55.43 146.23 55.27
  Q 141.59 52.94 136.82 50.70
  L 131.82 47.74
  Q 131.50 47.09 131.10 46.87
  Q 128.30 45.30 122.03 42.34
  Q 121.55 42.11 121.45 41.58
  C 120.95 39.09 121.00 33.91 118.17 33.06
  Q 115.58 31.17 110.61 32.64
  L 104.67 34.73
  C 102.18 33.43 98.07 30.65 95.39 31.61
  Q 87.12 34.56 78.63 37.67
  Q 78.10 37.18 77.13 36.12
  Q 71.78 30.36 62.14 31.57
  Z" fill="#8e3eff"></path>
<path d="M 78.63 37.67
  Q 81.20 39.93 84.11 41.33
  C 87.37 42.91 91.61 42.40 95.42 43.60
  Q 95.94 43.76 96.34 43.40
  L 98.95 41.05
  L 97.39 43.53
  Q 97.15 43.91 97.19 44.36
  C 97.42 47.09 96.72 49.91 100.00 50.88
  Q 101.61 51.35 103.03 52.52
  Q 104.98 54.12 105.84 54.35
  C 109.71 55.39 113.73 51.67 114.48 48.20
  Q 114.95 46.03 113.59 41.96
  Q 112.08 37.42 110.61 32.64
  Q 115.58 31.17 118.17 33.06
  Q 118.77 36.90 119.58 40.35
  C 120.56 44.52 120.40 49.14 119.28 53.26
  C 118.68 55.50 118.49 57.89 117.54 60.01
  Q 116.98 61.28 116.46 62.59
  Q 116.27 63.06 115.77 63.11
  L 114.42 63.22
  C 109.07 60.38 102.95 59.09 97.30 56.91
  L 95.41 56.37
  Q 94.89 56.22 94.55 56.65
  Q 94.06 57.29 93.98 58.13
  Q 93.93 58.64 93.46 58.85
  C 90.97 59.95 82.24 61.26 82.00 56.81
  A 1.71 1.70 81.1 0 0 79.86 55.25
  L 64.29 59.39
  Q 60.83 54.22 60.86 50.50
  C 60.88 48.34 60.74 46.31 61.18 44.20
  C 61.85 40.97 62.60 38.15 63.78 34.96
  Q 65.18 31.20 62.14 31.57
  Q 71.78 30.36 77.13 36.12
  Q 78.10 37.18 78.63 37.67
  Z
  M 88.72 51.30
  L 87.12 44.96
  A 1.03 1.00 2.9 0 0 86.45 44.24
  C 81.77 42.69 81.13 49.94 81.47 52.74
  Q 82.19 58.78 87.96 57.15
  Q 90.95 56.31 90.05 53.34
  Q 89.92 52.90 89.03 51.89
  Q 88.80 51.64 88.72 51.30
  Z" fill="#de363c"></path>
<path d="M 104.67 34.73
  Q 105.27 34.94 104.33 35.84
  Q 101.64 38.45 98.95 41.05
  L 96.34 43.40
  Q 95.94 43.76 95.42 43.60
  C 91.61 42.40 87.37 42.91 84.11 41.33
  Q 81.20 39.93 78.63 37.67
  Q 87.12 34.56 95.39 31.61
  C 98.07 30.65 102.18 33.43 104.67 34.73
  Z" fill="#ba7f0f"></path>
<path d="M 62.14 31.57
  Q 65.18 31.20 63.78 34.96
  C 62.60 38.15 61.85 40.97 61.18 44.20
  C 60.74 46.31 60.88 48.34 60.86 50.50
  Q 60.83 54.22 64.29 59.39
  L 58.95 60.60
  Q 57.56 60.64 57.29 58.56
  C 56.84 55.39 56.18 47.92 57.70 45.15
  Q 57.89 44.79 57.63 44.47
  Q 57.45 44.24 57.24 44.35
  Q 58.35 36.17 62.14 31.57
  Z" fill="#fb5452"></path>
<path d="M 110.61 32.64
  Q 112.08 37.42 113.59 41.96
  Q 114.95 46.03 114.48 48.20
  C 113.73 51.67 109.71 55.39 105.84 54.35
  Q 104.98 54.12 103.03 52.52
  Q 101.61 51.35 100.00 50.88
  C 96.72 49.91 97.42 47.09 97.19 44.36
  Q 97.15 43.91 97.39 43.53
  L 98.95 41.05
  Q 101.64 38.45 104.33 35.84
  Q 105.27 34.94 104.67 34.73
  L 110.61 32.64
  Z" fill="#fb5452"></path>
<path d="M 118.17 33.06
  C 121.00 33.91 120.95 39.09 121.45 41.58
  Q 121.55 42.11 122.03 42.34
  Q 128.30 45.30 131.10 46.87
  Q 131.50 47.09 131.82 47.74
  Q 130.58 48.56 129.30 48.45
  Q 126.90 48.29 124.68 49.28
  Q 124.22 49.49 123.74 49.40
  Q 121.57 49.02 121.15 51.13
  Q 120.13 56.25 118.73 59.48
  Q 118.45 63.92 115.23 65.67
  C 113.89 66.40 112.50 66.06 110.94 66.16
  Q 110.11 66.21 110.74 66.75
  Q 111.88 67.73 114.07 67.72
  Q 111.77 68.25 109.26 67.00
  Q 106.84 65.80 103.25 66.20
  Q 102.74 66.26 102.28 66.03
  Q 97.23 63.44 91.88 65.46
  L 86.56 64.93
  Q 92.84 62.61 100.15 63.98
  Q 100.88 64.11 100.46 63.51
  Q 99.64 62.33 98.38 61.60
  Q 97.76 61.25 97.59 60.58
  Q 97.47 60.08 97.98 60.12
  Q 98.88 60.19 99.65 59.90
  Q 102.03 60.81 104.52 61.69
  C 107.04 62.58 110.26 64.43 113.74 64.43
  Q 114.70 64.44 114.42 63.22
  L 115.77 63.11
  Q 116.27 63.06 116.46 62.59
  Q 116.98 61.28 117.54 60.01
  C 118.49 57.89 118.68 55.50 119.28 53.26
  C 120.40 49.14 120.56 44.52 119.58 40.35
  Q 118.77 36.90 118.17 33.06
  Z" fill="#a72220"></path>
<path d="M 89.03 51.89
  Q 89.92 52.90 90.05 53.34
  Q 90.95 56.31 87.96 57.15
  Q 82.19 58.78 81.47 52.74
  C 81.13 49.94 81.77 42.69 86.45 44.24
  A 1.03 1.00 2.9 0 1 87.12 44.96
  L 88.72 51.30
  Q 88.80 51.64 89.03 51.89
  Z" fill="#fb5452"></path>
<path d="M 57.24 44.35
  Q 57.45 44.24 57.63 44.47
  Q 57.89 44.79 57.70 45.15
  C 56.18 47.92 56.84 55.39 57.29 58.56
  L 49.89 62.21
  Q 42.58 56.95 34.59 53.04
  Q 44.56 49.70 54.63 45.91
  C 55.59 45.55 56.25 44.81 57.24 44.35
  Z" fill="#ba7f0f"></path>
<path d="M 131.82 47.74
  L 136.82 50.70
  Q 134.85 52.52 133.36 55.50
  Q 133.16 55.89 133.09 56.24
  Q 133.00 56.66 132.76 57.02
  L 130.34 60.63
  Q 130.08 61.01 129.68 61.25
  Q 127.98 62.26 127.27 63.98
  Q 126.86 63.98 126.66 63.79
  Q 126.67 63.34 126.28 63.10
  Q 130.50 57.98 131.76 51.78
  A 0.99 0.98 -85.9 0 0 130.75 50.60
  Q 129.38 50.68 128.12 50.13
  A 0.43 0.42 28.3 0 1 127.93 49.50
  Q 128.30 48.93 129.30 48.45
  Q 130.58 48.56 131.82 47.74
  Z" fill="#845c08"></path>
<path d="M 129.30 48.45
  Q 128.30 48.93 127.93 49.50
  A 0.43 0.42 28.3 0 0 128.12 50.13
  Q 129.38 50.68 130.75 50.60
  A 0.99 0.98 -85.9 0 1 131.76 51.78
  Q 130.50 57.98 126.28 63.10
  Q 126.11 63.09 125.97 63.10
  Q 125.71 63.11 125.49 62.99
  L 118.73 59.48
  Q 120.13 56.25 121.15 51.13
  Q 121.57 49.02 123.74 49.40
  Q 124.22 49.49 124.68 49.28
  Q 126.90 48.29 129.30 48.45
  Z" fill="#604900"></path>
<path d="M 136.82 50.70
  Q 141.59 52.94 146.23 55.27
  Q 146.56 55.43 146.82 55.34
  Q 147.21 55.21 147.53 55.46
  L 150.01 57.34
  A 1.74 1.72 -70.6 0 1 150.69 58.78
  L 150.06 76.29
  A 0.68 0.64 -24.5 0 1 149.89 76.70
  L 147.63 79.15
  Q 147.26 79.55 147.24 80.09
  L 145.93 119.55
  A 4.33 4.32 78.2 0 1 143.48 123.30
  L 127.50 131.00
  Q 128.65 109.66 129.88 89.46
  C 129.97 88.10 130.35 86.30 130.27 84.58
  C 129.99 78.52 130.33 72.43 130.25 66.53
  L 148.74 59.02
  Q 149.68 58.63 148.83 58.08
  L 148.60 57.93
  A 1.65 1.63 52.4 0 0 147.22 57.74
  L 142.11 59.29
  Q 141.98 59.33 141.93 59.45
  Q 141.88 59.58 141.80 59.69
  Q 141.67 59.87 141.39 59.96
  Q 138.22 60.98 135.24 62.41
  C 133.21 63.38 131.15 63.88 129.06 64.64
  Q 129.09 64.84 128.16 64.58
  Q 127.87 64.19 127.27 63.98
  Q 127.98 62.26 129.68 61.25
  Q 130.08 61.01 130.34 60.63
  L 132.76 57.02
  Q 133.00 56.66 133.09 56.24
  Q 133.16 55.89 133.36 55.50
  Q 134.85 52.52 136.82 50.70
  Z" fill="#ba7f0f"></path>
<path d="M 34.59 53.04
  Q 42.58 56.95 49.89 62.21
  Q 49.12 63.82 48.49 64.05
  L 33.89 55.30
  Q 33.59 55.12 33.48 54.77
  Q 33.43 54.62 33.40 54.45
  Q 33.36 53.79 34.59 53.04
  Z" fill="#fdf21e"></path>
<path d="M 33.40 54.45
  Q 33.43 54.62 33.48 54.77
  Q 33.59 55.12 33.89 55.30
  L 48.49 64.05
  Q 48.82 71.88 49.39 79.78
  Q 49.44 80.35 49.32 81.71
  C 49.19 83.09 49.72 84.96 49.82 85.86
  Q 51.78 104.31 53.77 122.75
  Q 54.05 125.40 53.83 127.35
  Q 48.20 122.61 41.92 118.61
  C 40.85 117.93 40.31 116.07 40.20 114.67
  Q 38.78 95.71 37.51 76.77
  L 37.88 76.56
  A 0.76 0.75 45.7 0 1 38.68 76.58
  L 48.31 82.76
  Q 48.42 82.84 48.50 82.73
  L 48.70 82.44
  A 0.26 0.25 -56.6 0 0 48.63 82.08
  L 37.42 75.12
  Q 34.62 74.02 34.48 72.01
  Q 33.90 63.59 33.24 55.20
  Q 33.23 55.01 33.30 54.82
  Q 33.36 54.64 33.40 54.45
  Z" fill="#e7a519"></path>
<path d="M 97.30 56.91
  L 95.55 56.83
  Q 94.75 56.79 95.04 57.54
  L 95.43 58.54
  A 0.87 0.85 -12.8 0 0 96.30 59.08
  Q 98.75 58.91 99.65 59.90
  Q 98.88 60.19 97.98 60.12
  Q 97.47 60.08 97.59 60.58
  Q 97.76 61.25 98.38 61.60
  Q 99.64 62.33 100.46 63.51
  Q 100.88 64.11 100.15 63.98
  Q 92.84 62.61 86.56 64.93
  L 76.20 69.05
  Q 74.73 69.18 73.37 70.23
  Q 73.20 70.36 73.04 70.20
  L 72.68 69.84
  Q 72.49 69.65 72.73 69.54
  L 84.57 64.07
  Q 86.41 63.86 87.40 62.72
  A 0.49 0.49 0.0 0 0 87.07 61.91
  Q 82.72 61.52 78.54 62.37
  C 76.48 62.79 73.36 64.25 70.37 64.38
  C 68.27 64.47 66.68 64.79 64.78 65.04
  Q 64.29 65.10 63.84 64.90
  L 60.72 63.53
  L 58.40 62.35
  A 0.66 0.65 -70.4 0 1 58.06 61.62
  Q 58.19 61.04 58.95 60.60
  L 64.29 59.39
  L 79.86 55.25
  A 1.71 1.70 81.1 0 1 82.00 56.81
  C 82.24 61.26 90.97 59.95 93.46 58.85
  Q 93.93 58.64 93.98 58.13
  Q 94.06 57.29 94.55 56.65
  Q 94.89 56.22 95.41 56.37
  L 97.30 56.91
  Z" fill="#4a0909"></path>
<path d="M 97.30 56.91
  C 102.95 59.09 109.07 60.38 114.42 63.22
  Q 114.70 64.44 113.74 64.43
  C 110.26 64.43 107.04 62.58 104.52 61.69
  Q 102.03 60.81 99.65 59.90
  Q 98.75 58.91 96.30 59.08
  A 0.87 0.85 -12.8 0 1 95.43 58.54
  L 95.04 57.54
  Q 94.75 56.79 95.55 56.83
  L 97.30 56.91
  Z" fill="#200908"></path>
<path d="M 130.25 66.53
  L 129.06 64.64
  C 131.15 63.88 133.21 63.38 135.24 62.41
  Q 138.22 60.98 141.39 59.96
  Q 141.67 59.87 141.80 59.69
  Q 141.88 59.58 141.93 59.45
  Q 141.98 59.33 142.11 59.29
  L 147.22 57.74
  A 1.65 1.63 52.4 0 1 148.60 57.93
  L 148.83 58.08
  Q 149.68 58.63 148.74 59.02
  L 130.25 66.53
  Z" fill="#e7a519"></path>
<path d="M 57.29 58.56
  Q 57.56 60.64 58.95 60.60
  Q 58.19 61.04 58.06 61.62
  A 0.66 0.65 -70.4 0 0 58.40 62.35
  L 60.72 63.53
  Q 61.73 64.23 61.90 64.76
  A 1.81 1.62 -7.1 0 0 63.50 65.87
  Q 71.39 66.20 78.28 64.04
  C 79.88 63.54 81.65 63.57 83.35 62.68
  A 0.77 0.76 -36.3 0 1 84.23 62.81
  Q 84.68 63.25 84.57 64.07
  L 72.73 69.54
  Q 72.49 69.65 72.68 69.84
  L 73.04 70.20
  Q 73.20 70.36 73.37 70.23
  Q 74.73 69.18 76.20 69.05
  L 67.63 72.78
  Q 66.18 73.29 66.06 74.79
  L 67.25 93.89
  Q 66.32 93.73 66.35 94.38
  Q 67.18 111.98 69.19 132.83
  Q 69.68 133.66 69.77 136.00
  Q 69.84 137.99 72.08 139.67
  C 65.33 137.43 58.71 132.26 53.83 127.35
  Q 54.05 125.40 53.77 122.75
  Q 51.78 104.31 49.82 85.86
  C 49.72 84.96 49.19 83.09 49.32 81.71
  Q 49.44 80.35 49.39 79.78
  Q 48.82 71.88 48.49 64.05
  Q 49.12 63.82 49.89 62.21
  L 57.29 58.56
  Z
  M 65.5450 73.0415
  A 0.74 0.74 0.0 0 0 65.2954 72.0252
  L 51.4556 63.6435
  A 0.74 0.74 0.0 0 0 50.4393 63.8932
  L 50.3150 64.0985
  A 0.74 0.74 0.0 0 0 50.5646 65.1148
  L 64.4044 73.4965
  A 0.74 0.74 0.0 0 0 65.4207 73.2468
  L 65.5450 73.0415
  Z" fill="#d92929"></path>
<path d="M 118.73 59.48
  L 125.49 62.99
  Q 125.71 63.11 125.97 63.10
  Q 126.11 63.09 126.28 63.10
  Q 126.67 63.34 126.66 63.79
  C 124.19 64.38 122.09 65.93 120.23 67.53
  Q 119.85 67.86 119.36 67.85
  L 114.07 67.72
  Q 111.88 67.73 110.74 66.75
  Q 110.11 66.21 110.94 66.16
  C 112.50 66.06 113.89 66.40 115.23 65.67
  Q 118.45 63.92 118.73 59.48
  Z" fill="#6d1b1c"></path>
<path d="M 84.57 64.07
  Q 84.68 63.25 84.23 62.81
  A 0.77 0.76 -36.3 0 0 83.35 62.68
  C 81.65 63.57 79.88 63.54 78.28 64.04
  Q 71.39 66.20 63.50 65.87
  A 1.81 1.62 -7.1 0 1 61.90 64.76
  Q 61.73 64.23 60.72 63.53
  L 63.84 64.90
  Q 64.29 65.10 64.78 65.04
  C 66.68 64.79 68.27 64.47 70.37 64.38
  C 73.36 64.25 76.48 62.79 78.54 62.37
  Q 82.72 61.52 87.07 61.91
  A 0.49 0.49 0.0 0 1 87.40 62.72
  Q 86.41 63.86 84.57 64.07
  Z" fill="#6d1b1c"></path>
<rect rx="0.74" height="1.72" width="17.66" transform="translate(57.93,68.57) rotate(31.2)" y="-0.86" x="-8.83" fill="#fb5452"></rect>
<path d="M 126.66 63.79
  Q 126.86 63.98 127.27 63.98
  Q 127.87 64.19 128.16 64.58
  Q 129.38 65.07 129.45 65.99
  Q 129.48 66.40 129.10 66.56
  L 108.12 75.45
  Q 107.85 74.80 107.94 74.39
  L 91.88 65.46
  Q 97.23 63.44 102.28 66.03
  Q 102.74 66.26 103.25 66.20
  Q 106.84 65.80 109.26 67.00
  Q 111.77 68.25 114.07 67.72
  L 119.36 67.85
  Q 119.85 67.86 120.23 67.53
  C 122.09 65.93 124.19 64.38 126.66 63.79
  Z" fill="#d92929"></path>
<path d="M 128.16 64.58
  Q 129.09 64.84 129.06 64.64
  L 130.25 66.53
  C 130.33 72.43 129.99 78.52 130.27 84.58
  C 130.35 86.30 129.97 88.10 129.88 89.46
  Q 128.65 109.66 127.50 131.00
  Q 118.27 137.45 107.15 140.73
  L 107.77 126.89
  Q 108.93 110.79 108.17 94.50
  L 108.12 75.45
  L 129.10 66.56
  Q 129.48 66.40 129.45 65.99
  Q 129.38 65.07 128.16 64.58
  Z" fill="#a72220"></path>
<path d="M 86.56 64.93
  L 91.88 65.46
  L 107.94 74.39
  C 107.79 76.88 103.93 77.51 102.02 77.92
  L 106.85 75.92
  Q 107.33 75.72 107.18 75.23
  L 107.10 74.98
  Q 106.94 74.47 106.45 74.67
  Q 93.84 79.71 89.49 80.83
  Q 84.33 82.17 79.74 79.51
  Q 73.65 75.98 67.63 72.78
  L 76.20 69.05
  L 86.56 64.93
  Z" fill="#e08019"></path>
<path d="M 67.63 72.78
  Q 73.65 75.98 79.74 79.51
  Q 84.33 82.17 89.49 80.83
  Q 93.84 79.71 106.45 74.67
  Q 106.94 74.47 107.10 74.98
  L 107.18 75.23
  Q 107.33 75.72 106.85 75.92
  L 102.02 77.92
  L 87.48 83.89
  Q 85.00 84.28 85.09 86.71
  A 0.26 0.25 25.6 0 1 84.63 86.87
  L 83.76 85.73
  Q 83.47 85.35 83.06 85.10
  L 66.06 74.79
  Q 66.18 73.29 67.63 72.78
  Z" fill="#fdf21e"></path>
<path d="M 66.06 74.79
  L 83.06 85.10
  Q 83.47 85.35 83.76 85.73
  L 84.63 86.87
  A 0.26 0.25 25.6 0 0 85.09 86.71
  Q 85.00 84.28 87.48 83.89
  L 86.01 85.52
  Q 85.68 85.90 85.70 86.40
  L 86.30 102.76
  A 1.31 1.30 14.3 0 1 84.33 103.93
  L 68.29 94.40
  Q 67.89 94.44 67.25 93.89
  L 66.06 74.79
  Z" fill="#e7a519"></path>
<path d="M 107.94 74.39
  Q 107.85 74.80 108.12 75.45
  L 108.17 94.50
  Q 107.78 95.36 107.04 95.93
  Q 106.64 96.25 106.66 96.76
  L 107.77 126.89
  L 107.15 140.73
  Q 97.25 145.00 88.25 149.33
  Q 87.24 149.82 86.29 149.36
  L 86.61 106.21
  A 0.69 0.69 0.0 0 0 86.00 105.51
  L 84.92 105.40
  Q 84.39 105.34 83.94 105.06
  L 70.73 96.81
  A 1.05 1.04 -73.4 0 0 69.13 97.68
  L 68.96 106.58
  Q 69.03 99.92 68.88 96.87
  Q 68.83 95.92 68.29 94.40
  L 84.33 103.93
  A 1.31 1.30 14.3 0 0 86.30 102.76
  L 85.70 86.40
  Q 85.68 85.90 86.01 85.52
  L 87.48 83.89
  L 102.02 77.92
  C 103.93 77.51 107.79 76.88 107.94 74.39
  Z" fill="#ba7f0f"></path>
<path d="M 37.42 75.12
  L 48.63 82.08
  A 0.26 0.25 -56.6 0 1 48.70 82.44
  L 48.50 82.73
  Q 48.42 82.84 48.31 82.76
  L 38.68 76.58
  A 0.76 0.75 45.7 0 0 37.88 76.56
  L 37.51 76.77
  Q 37.25 76.08 37.42 75.12
  Z" fill="#ba7f0f"></path>
<path d="M 67.25 93.89
  Q 67.89 94.44 68.29 94.40
  Q 68.83 95.92 68.88 96.87
  Q 69.03 99.92 68.96 106.58
  L 69.19 132.83
  Q 67.18 111.98 66.35 94.38
  Q 66.32 93.73 67.25 93.89
  Z" fill="#6d1b1c"></path>
<path d="M 108.17 94.50
  Q 108.93 110.79 107.77 126.89
  L 106.66 96.76
  Q 106.64 96.25 107.04 95.93
  Q 107.78 95.36 108.17 94.50
  Z" fill="#6d1b1c"></path>
<path d="M 86.29 149.36
  L 72.08 139.67
  Q 69.84 137.99 69.77 136.00
  Q 69.68 133.66 69.19 132.83
  L 68.96 106.58
  L 69.13 97.68
  A 1.05 1.04 -73.4 0 1 70.73 96.81
  L 83.94 105.06
  Q 84.39 105.34 84.92 105.40
  L 86.00 105.51
  A 0.69 0.69 0.0 0 1 86.61 106.21
  L 86.29 149.36
  Z" fill="#e7a519"></path>
</svg>
