<svg viewBox="0.00 0.00 192.00 192.00" version="1.1" xmlns="http://www.w3.org/2000/svg">
<path d="M 24.30 117.31
  Q 23.28 116.75 23.10 114.79
  C 21.86 101.65 29.90 84.58 36.73 73.71
  Q 39.25 69.69 39.58 67.92
  C 40.49 63.02 34.70 57.40 30.08 60.14
  Q 28.23 61.24 25.95 64.90
  C 18.64 76.66 12.50 90.26 10.22 103.99
  C 8.64 113.49 9.18 127.30 20.25 131.45
  C 30.82 135.40 38.66 125.24 42.45 116.95
  Q 45.01 111.38 52.73 93.64
  C 54.52 89.51 57.63 83.03 62.52 82.00
  A 1.43 1.38 53.3 0 1 63.51 82.16
  Q 65.84 83.47 66.89 86.35
  C 70.34 95.70 71.71 104.68 75.55 113.50
  C 80.58 125.03 92.42 130.11 103.48 122.71
  Q 110.96 117.70 118.19 107.12
  C 125.81 95.97 141.32 68.78 157.76 72.46
  C 166.74 74.47 168.59 83.98 168.30 91.74
  Q 167.75 107.07 160.54 120.36
  Q 158.58 123.97 158.46 125.69
  C 158.13 130.45 163.87 135.14 168.18 132.44
  C 170.93 130.71 173.16 126.23 174.59 123.04
  C 181.85 106.81 186.92 78.70 172.67 64.55
  C 166.80 58.72 157.81 56.46 149.79 57.80
  C 135.41 60.19 124.09 74.15 116.45 85.24
  Q 109.04 96.01 103.00 103.73
  C 98.50 109.49 90.81 117.10 86.55 104.73
  C 82.56 93.13 80.36 69.07 64.23 67.48
  C 52.90 66.36 45.60 76.69 41.29 85.49
  Q 38.79 90.59 31.08 108.70
  Q 29.27 112.94 26.17 116.92
  Q 25.40 117.92 24.30 117.31" stroke-linecap="butt" fill="none" stroke-width="2.00" stroke="#808080"></path>
<path d="M 0.00 0.00
  L 192.00 0.00
  L 192.00 192.00
  L 0.00 192.00
  L 0.00 0.00
  Z
  M 24.30 117.31
  Q 23.28 116.75 23.10 114.79
  C 21.86 101.65 29.90 84.58 36.73 73.71
  Q 39.25 69.69 39.58 67.92
  C 40.49 63.02 34.70 57.40 30.08 60.14
  Q 28.23 61.24 25.95 64.90
  C 18.64 76.66 12.50 90.26 10.22 103.99
  C 8.64 113.49 9.18 127.30 20.25 131.45
  C 30.82 135.40 38.66 125.24 42.45 116.95
  Q 45.01 111.38 52.73 93.64
  C 54.52 89.51 57.63 83.03 62.52 82.00
  A 1.43 1.38 53.3 0 1 63.51 82.16
  Q 65.84 83.47 66.89 86.35
  C 70.34 95.70 71.71 104.68 75.55 113.50
  C 80.58 125.03 92.42 130.11 103.48 122.71
  Q 110.96 117.70 118.19 107.12
  C 125.81 95.97 141.32 68.78 157.76 72.46
  C 166.74 74.47 168.59 83.98 168.30 91.74
  Q 167.75 107.07 160.54 120.36
  Q 158.58 123.97 158.46 125.69
  C 158.13 130.45 163.87 135.14 168.18 132.44
  C 170.93 130.71 173.16 126.23 174.59 123.04
  C 181.85 106.81 186.92 78.70 172.67 64.55
  C 166.80 58.72 157.81 56.46 149.79 57.80
  C 135.41 60.19 124.09 74.15 116.45 85.24
  Q 109.04 96.01 103.00 103.73
  C 98.50 109.49 90.81 117.10 86.55 104.73
  C 82.56 93.13 80.36 69.07 64.23 67.48
  C 52.90 66.36 45.60 76.69 41.29 85.49
  Q 38.79 90.59 31.08 108.70
  Q 29.27 112.94 26.17 116.92
  Q 25.40 117.92 24.30 117.31
  Z" fill="#ffffff"></path>
<path d="M 24.30 117.31
  Q 25.40 117.92 26.17 116.92
  Q 29.27 112.94 31.08 108.70
  Q 38.79 90.59 41.29 85.49
  C 45.60 76.69 52.90 66.36 64.23 67.48
  C 80.36 69.07 82.56 93.13 86.55 104.73
  C 90.81 117.10 98.50 109.49 103.00 103.73
  Q 109.04 96.01 116.45 85.24
  C 124.09 74.15 135.41 60.19 149.79 57.80
  C 157.81 56.46 166.80 58.72 172.67 64.55
  C 186.92 78.70 181.85 106.81 174.59 123.04
  C 173.16 126.23 170.93 130.71 168.18 132.44
  C 163.87 135.14 158.13 130.45 158.46 125.69
  Q 158.58 123.97 160.54 120.36
  Q 167.75 107.07 168.30 91.74
  C 168.59 83.98 166.74 74.47 157.76 72.46
  C 141.32 68.78 125.81 95.97 118.19 107.12
  Q 110.96 117.70 103.48 122.71
  C 92.42 130.11 80.58 125.03 75.55 113.50
  C 71.71 104.68 70.34 95.70 66.89 86.35
  Q 65.84 83.47 63.51 82.16
  A 1.43 1.38 53.3 0 0 62.52 82.00
  C 57.63 83.03 54.52 89.51 52.73 93.64
  Q 45.01 111.38 42.45 116.95
  C 38.66 125.24 30.82 135.40 20.25 131.45
  C 9.18 127.30 8.64 113.49 10.22 103.99
  C 12.50 90.26 18.64 76.66 25.95 64.90
  Q 28.23 61.24 30.08 60.14
  C 34.70 57.40 40.49 63.02 39.58 67.92
  Q 39.25 69.69 36.73 73.71
  C 29.90 84.58 21.86 101.65 23.10 114.79
  Q 23.28 116.75 24.30 117.31
  Z" fill="#000000"></path>
</svg>
