<svg viewBox="0.00 0.00 512.00 512.00" version="1.1" xmlns="http://www.w3.org/2000/svg">
<path d="M 374.15 161.37
  C 353.56 148.43 329.29 142.69 304.99 143.54
  C 287.15 144.17 277.91 156.10 267.05 168.05
  C 259.06 176.83 250.20 185.12 240.43 191.63
  C 209.30 212.35 170.87 218.02 134.97 225.07
  Q 121.72 227.68 108.74 231.43
  C 90.70 236.63 74.48 245.35 71.15 265.49
  C 59.88 333.69 132.71 358.31 184.24 365.15
  C 247.92 373.60 313.89 366.40 374.99 347.46
  C 397.12 340.60 418.64 330.37 431.43 309.97
  C 449.32 281.43 441.95 244.87 426.58 216.93
  Q 407.55 182.36 374.15 161.37" stroke-linecap="butt" fill="none" stroke-width="2.00" stroke="#808080"></path>
<path d="M 463.08 209.96
  C 482.31 250.54 484.83 300.96 455.37 337.89
  C 439.88 357.31 418.54 370.48 395.20 378.41
  C 329.53 400.71 258.22 408.66 190.14 401.95
  C 181.87 401.14 173.18 399.53 164.75 398.08
  C 95.67 386.21 24.57 345.45 35.50 263.25
  C 41.86 215.44 79.62 200.26 121.02 191.68
  C 146.56 186.38 172.18 181.96 196.96 173.62
  Q 220.47 165.71 237.26 147.51
  Q 243.86 140.35 250.41 133.18
  Q 273.25 108.21 307.50 107.71
  C 337.92 107.28 368.14 115.18 393.78 131.42
  Q 439.62 160.47 463.08 209.96
  Z
  M 374.15 161.37
  C 353.56 148.43 329.29 142.69 304.99 143.54
  C 287.15 144.17 277.91 156.10 267.05 168.05
  C 259.06 176.83 250.20 185.12 240.43 191.63
  C 209.30 212.35 170.87 218.02 134.97 225.07
  Q 121.72 227.68 108.74 231.43
  C 90.70 236.63 74.48 245.35 71.15 265.49
  C 59.88 333.69 132.71 358.31 184.24 365.15
  C 247.92 373.60 313.89 366.40 374.99 347.46
  C 397.12 340.60 418.64 330.37 431.43 309.97
  C 449.32 281.43 441.95 244.87 426.58 216.93
  Q 407.55 182.36 374.15 161.37
  Z" fill="#000000"></path>
<path d="M 304.99 143.54
  C 329.29 142.69 353.56 148.43 374.15 161.37
  Q 407.55 182.36 426.58 216.93
  C 441.95 244.87 449.32 281.43 431.43 309.97
  C 418.64 330.37 397.12 340.60 374.99 347.46
  C 313.89 366.40 247.92 373.60 184.24 365.15
  C 132.71 358.31 59.88 333.69 71.15 265.49
  C 74.48 245.35 90.70 236.63 108.74 231.43
  Q 121.72 227.68 134.97 225.07
  C 170.87 218.02 209.30 212.35 240.43 191.63
  C 250.20 185.12 259.06 176.83 267.05 168.05
  C 277.91 156.10 287.15 144.17 304.99 143.54
  Z" fill="#ffffff"></path>
</svg>
