<svg viewBox="0.00 0.00 256.00 256.00" version="1.1" xmlns="http://www.w3.org/2000/svg">
<path d="M 163.84 0.00
  L 167.73 0.00
  C 176.46 1.94 182.15 10.69 178.41 19.15
  Q 177.34 21.56 173.73 25.18
  Q 145.29 53.64 116.83 82.08
  C 111.52 87.39 118.02 97.18 125.25 94.15
  Q 127.31 93.29 130.82 89.78
  Q 164.73 55.82 198.69 21.89
  Q 202.46 18.12 205.45 16.97
  C 216.22 12.84 227.23 23.23 223.30 34.28
  Q 222.16 37.46 217.40 42.22
  Q 183.22 76.41 149.03 110.60
  Q 146.49 113.14 145.81 114.68
  C 143.40 120.16 149.06 126.26 154.56 124.84
  Q 156.97 124.22 159.68 121.51
  Q 186.97 94.19 214.29 66.90
  Q 218.18 63.01 220.38 61.91
  C 231.72 56.23 244.12 68.80 239.15 79.69
  Q 237.92 82.37 231.82 88.46
  Q 200.44 119.82 169.07 151.20
  Q 165.88 154.40 165.16 156.34
  C 163.28 161.49 168.82 167.50 174.02 166.10
  Q 176.47 165.44 179.89 162.01
  Q 201.98 139.92 223.94 117.69
  Q 229.12 112.44 235.76 113.26
  C 244.51 114.33 250.60 123.24 247.61 131.28
  Q 246.39 134.57 240.41 140.55
  Q 196.79 184.16 153.23 227.85
  Q 143.62 237.50 138.42 241.23
  Q 120.30 254.25 97.10 256.00
  L 88.26 256.00
  Q 60.94 253.99 41.20 236.58
  C 19.63 217.56 6.52 190.73 11.58 161.80
  Q 22.36 100.24 33.24 38.70
  C 33.96 34.63 35.68 31.59 40.25 32.74
  C 51.79 35.65 60.29 45.12 61.21 57.02
  Q 61.48 60.47 60.20 67.67
  Q 56.47 88.75 52.83 109.41
  Q 52.64 110.50 53.34 109.65
  C 62.91 97.97 72.50 87.40 83.77 76.12
  Q 119.29 40.59 154.82 5.07
  Q 159.08 0.82 163.84 0.00
  Z" fill="#028030"></path>
</svg>
