<svg viewBox="0.00 0.00 48.00 48.00" version="1.1" xmlns="http://www.w3.org/2000/svg">
<path d="M 21.11 0.00
  L 26.98 0.00
  Q 44.73 3.64 48.00 21.36
  L 48.00 26.75
  Q 44.56 44.67 26.63 48.00
  L 21.02 48.00
  Q 3.27 44.38 0.00 26.64
  L 0.00 21.02
  Q 3.60 3.45 21.11 0.00
  Z
  M 16.2847 15.6140
  A 1.63 1.63 0.0 0 0 14.6490 13.9897
  L 14.4490 13.9904
  A 1.63 1.63 0.0 0 0 12.8247 15.6261
  L 12.8553 24.3860
  A 1.63 1.63 0.0 0 0 14.4910 26.0103
  L 14.6910 26.0096
  A 1.63 1.63 0.0 0 0 16.3153 24.3739
  L 16.2847 15.6140
  Z
  M 35.1652 15.6561
  A 1.66 1.66 0.0 0 0 33.5110 13.9903
  L 33.3710 13.9898
  A 1.66 1.66 0.0 0 0 31.7052 15.6440
  L 31.6748 24.3439
  A 1.66 1.66 0.0 0 0 33.3290 26.0097
  L 33.4690 26.0102
  A 1.66 1.66 0.0 0 0 35.1348 24.3560
  L 35.1652 15.6561
  Z
  M 11.1140 17.6930
  A 1.54 1.54 0.0 0 0 9.5767 16.1503
  L 9.2367 16.1497
  A 1.54 1.54 0.0 0 0 7.6940 17.6870
  L 7.6860 22.3070
  A 1.54 1.54 0.0 0 0 9.2233 23.8497
  L 9.5633 23.8503
  A 1.54 1.54 0.0 0 0 11.1060 22.3130
  L 11.1140 17.6930
  Z
  M 21.47 17.71
  A 1.56 1.56 0.0 0 0 19.91 16.15
  L 19.59 16.15
  A 1.56 1.56 0.0 0 0 18.03 17.71
  L 18.03 22.29
  A 1.56 1.56 0.0 0 0 19.59 23.85
  L 19.91 23.85
  A 1.56 1.56 0.0 0 0 21.47 22.29
  L 21.47 17.71
  Z
  M 29.95 17.68
  A 1.50 1.50 0.0 0 0 28.45 16.18
  L 28.03 16.18
  A 1.50 1.50 0.0 0 0 26.53 17.68
  L 26.53 22.32
  A 1.50 1.50 0.0 0 0 28.03 23.82
  L 28.45 23.82
  A 1.50 1.50 0.0 0 0 29.95 22.32
  L 29.95 17.68
  Z
  M 40.3180 17.7060
  A 1.55 1.55 0.0 0 0 38.7734 16.1506
  L 38.4534 16.1495
  A 1.55 1.55 0.0 0 0 36.8980 17.6940
  L 36.8820 22.2940
  A 1.55 1.55 0.0 0 0 38.4266 23.8494
  L 38.7466 23.8505
  A 1.55 1.55 0.0 0 0 40.3020 22.3060
  L 40.3180 17.7060
  Z
  M 15.86 35.53
  Q 23.96 42.09 32.07 35.60
  A 1.56 1.56 0.0 0 0 32.54 33.78
  L 32.42 33.47
  Q 31.76 31.85 30.42 32.99
  Q 23.82 38.62 17.46 32.86
  A 1.00 1.00 0.0 0 0 16.01 32.97
  L 15.64 33.43
  A 1.50 1.50 0.0 0 0 15.86 35.53
  Z" fill="#f81b55"></path>
</svg>
