<svg viewBox="0.00 0.00 48.00 48.00" version="1.1" xmlns="http://www.w3.org/2000/svg">
<g stroke-linecap="butt" fill="none" stroke-width="2.00">
<path d="M 11.71 12.49
  Q 10.74 12.92 9.88 12.75
  A 1.93 1.93 0.0 0 0 7.79 15.51
  Q 8.76 17.42 10.90 16.67
  Q 11.34 16.52 11.52 16.10
  Q 12.03 14.91 12.14 13.54" stroke="#18647a"></path>
<path d="M 12.14 13.54
  C 14.68 15.89 18.20 15.33 19.17 11.95
  C 20.93 5.78 9.47 5.47 11.71 12.49" stroke="#219099"></path>
<path d="M 12.14 13.54
  Q 12.19 13.13 11.71 12.49" stroke="#2ed1c7"></path>
<path d="M 21.21 13.42
  Q 19.13 17.41 15.32 17.24
  Q 14.37 17.20 14.36 18.15
  L 14.25 30.72" stroke="#227aa6"></path>
<path d="M 14.25 30.72
  C 14.11 34.01 13.17 41.67 19.01 40.82
  Q 23.81 40.13 22.59 33.12" stroke="#0f6ba6"></path>
<path d="M 22.59 33.12
  C 22.63 28.65 21.67 19.06 24.50 16.42" stroke="#227aa6"></path>
<path d="M 24.50 16.42
  L 26.09 16.02" stroke="#1a5ea5"></path>
<path d="M 26.09 16.02
  C 30.24 17.70 37.74 21.55 30.10 25.67" stroke="#094ba5"></path>
<path d="M 30.10 25.67
  C 26.45 27.27 26.64 32.04 30.77 32.28
  Q 34.61 32.51 37.74 28.72" stroke="#2771a5"></path>
<path d="M 37.74 28.72
  Q 42.35 22.45 38.90 15.24" stroke="#3785a5"></path>
<path d="M 38.90 15.24
  L 38.15 13.72" stroke="#1a5ea5"></path>
<path d="M 38.15 13.72
  Q 31.73 5.57 22.01 9.01
  Q 21.52 9.18 21.49 9.69
  L 21.21 13.42" stroke="#3a8da6"></path>
<path d="M 38.15 13.72
  C 36.34 13.30 34.74 12.30 33.18 12.05
  Q 28.52 11.31 24.95 15.08" stroke="#4ac8fe"></path>
<path d="M 24.95 15.08
  Q 24.56 14.74 23.89 15.18
  Q 23.39 15.50 22.86 15.26
  L 21.90 14.83
  Q 21.60 14.70 21.59 14.37
  Q 21.58 13.87 21.21 13.42" stroke="#51e3ff"></path>
<path d="M 22.59 33.12
  Q 18.64 32.88 14.25 30.72" stroke="#26c2ff"></path>
<path d="M 38.90 15.24
  Q 37.90 14.60 37.14 15.37
  Q 36.77 15.75 36.25 15.82
  Q 34.85 16.01 35.04 17.57" stroke="#47c0fe"></path>
<path d="M 35.04 17.57
  Q 31.36 14.71 26.96 15.19
  Q 26.55 15.24 26.42 15.64
  Q 26.30 16.02 26.09 16.02" stroke="#1986fd"></path>
<path d="M 24.50 16.42
  Q 24.55 15.60 24.95 15.08" stroke="#32b5fe"></path>
<path d="M 37.49 25.42
  L 33.20 24.70
  Q 32.71 24.62 32.24 24.81
  L 30.10 25.67" stroke="#2599fe"></path>
<path d="M 37.74 28.72
  Q 36.59 28.71 37.49 25.42" stroke="#54d3fe"></path>
<path d="M 37.49 25.42
  Q 37.70 20.44 35.04 17.57" stroke="#36adfe"></path>
</g>
<path d="M 9.37 0.00
  L 38.73 0.00
  Q 46.50 1.95 48.00 9.60
  L 48.00 38.53
  Q 46.32 46.24 38.62 48.00
  L 9.24 48.00
  Q 1.53 46.12 0.00 38.43
  L 0.00 9.48
  Q 1.62 1.80 9.37 0.00
  Z
  M 11.71 12.49
  Q 10.74 12.92 9.88 12.75
  A 1.93 1.93 0.0 0 0 7.79 15.51
  Q 8.76 17.42 10.90 16.67
  Q 11.34 16.52 11.52 16.10
  Q 12.03 14.91 12.14 13.54
  C 14.68 15.89 18.20 15.33 19.17 11.95
  C 20.93 5.78 9.47 5.47 11.71 12.49
  Z
  M 21.21 13.42
  Q 19.13 17.41 15.32 17.24
  Q 14.37 17.20 14.36 18.15
  L 14.25 30.72
  C 14.11 34.01 13.17 41.67 19.01 40.82
  Q 23.81 40.13 22.59 33.12
  C 22.63 28.65 21.67 19.06 24.50 16.42
  L 26.09 16.02
  C 30.24 17.70 37.74 21.55 30.10 25.67
  C 26.45 27.27 26.64 32.04 30.77 32.28
  Q 34.61 32.51 37.74 28.72
  Q 42.35 22.45 38.90 15.24
  L 38.15 13.72
  Q 31.73 5.57 22.01 9.01
  Q 21.52 9.18 21.49 9.69
  L 21.21 13.42
  Z" fill="#0a234c"></path>
<path d="M 12.14 13.54
  Q 12.19 13.13 11.71 12.49
  C 9.47 5.47 20.93 5.78 19.17 11.95
  C 18.20 15.33 14.68 15.89 12.14 13.54
  Z" fill="#37fce5"></path>
<path d="M 38.15 13.72
  C 36.34 13.30 34.74 12.30 33.18 12.05
  Q 28.52 11.31 24.95 15.08
  Q 24.56 14.74 23.89 15.18
  Q 23.39 15.50 22.86 15.26
  L 21.90 14.83
  Q 21.60 14.70 21.59 14.37
  Q 21.58 13.87 21.21 13.42
  L 21.49 9.69
  Q 21.52 9.18 22.01 9.01
  Q 31.73 5.57 38.15 13.72
  Z" fill="#69f6ff"></path>
<path d="M 38.15 13.72
  L 38.90 15.24
  Q 37.90 14.60 37.14 15.37
  Q 36.77 15.75 36.25 15.82
  Q 34.85 16.01 35.04 17.57
  Q 31.36 14.71 26.96 15.19
  Q 26.55 15.24 26.42 15.64
  Q 26.30 16.02 26.09 16.02
  L 24.50 16.42
  Q 24.55 15.60 24.95 15.08
  Q 28.52 11.31 33.18 12.05
  C 34.74 12.30 36.34 13.30 38.15 13.72
  Z" fill="#2a99fd"></path>
<path d="M 11.71 12.49
  Q 12.19 13.13 12.14 13.54
  Q 12.03 14.91 11.52 16.10
  Q 11.34 16.52 10.90 16.67
  Q 8.76 17.42 7.79 15.51
  A 1.93 1.93 0.0 0 1 9.88 12.75
  Q 10.74 12.92 11.71 12.49
  Z" fill="#25a5a8"></path>
<path d="M 21.21 13.42
  Q 21.58 13.87 21.59 14.37
  Q 21.60 14.70 21.90 14.83
  L 22.86 15.26
  Q 23.39 15.50 23.89 15.18
  Q 24.56 14.74 24.95 15.08
  Q 24.55 15.60 24.50 16.42
  C 21.67 19.06 22.63 28.65 22.59 33.12
  Q 18.64 32.88 14.25 30.72
  L 14.36 18.15
  Q 14.37 17.20 15.32 17.24
  Q 19.13 17.41 21.21 13.42
  Z" fill="#39d0ff"></path>
<path d="M 38.90 15.24
  Q 42.35 22.45 37.74 28.72
  Q 36.59 28.71 37.49 25.42
  Q 37.70 20.44 35.04 17.57
  Q 34.85 16.01 36.25 15.82
  Q 36.77 15.75 37.14 15.37
  Q 37.90 14.60 38.90 15.24
  Z" fill="#64e7fe"></path>
<path d="M 35.04 17.57
  Q 37.70 20.44 37.49 25.42
  L 33.20 24.70
  Q 32.71 24.62 32.24 24.81
  L 30.10 25.67
  C 37.74 21.55 30.24 17.70 26.09 16.02
  Q 26.30 16.02 26.42 15.64
  Q 26.55 15.24 26.96 15.19
  Q 31.36 14.71 35.04 17.57
  Z" fill="#0772fd"></path>
<path d="M 37.49 25.42
  Q 36.59 28.71 37.74 28.72
  Q 34.61 32.51 30.77 32.28
  C 26.64 32.04 26.45 27.27 30.10 25.67
  L 32.24 24.81
  Q 32.71 24.62 33.20 24.70
  L 37.49 25.42
  Z" fill="#43bffe"></path>
<path d="M 14.25 30.72
  Q 18.64 32.88 22.59 33.12
  Q 23.81 40.13 19.01 40.82
  C 13.17 41.67 14.11 34.01 14.25 30.72
  Z" fill="#13b3ff"></path>
</svg>
