<svg viewBox="0.00 0.00 260.00 260.00" version="1.1" xmlns="http://www.w3.org/2000/svg">
<g stroke-linecap="butt" fill="none" stroke-width="2.00">
<path d="M 237.79 38.10
  C 237.70 35.07 235.79 33.20 232.75 33.19
  Q 130.00 32.99 27.25 33.01
  C 22.96 33.01 22.03 36.62 22.01 40.40
  Q 21.98 52.80 22.01 65.16
  A 0.23 0.22 0.0 0 0 22.24 65.38
  L 237.29 65.38
  Q 237.93 65.38 237.94 64.74
  Q 238.19 51.38 237.79 38.10" stroke="#808080"></path>
<path d="M 231.26 226.99
  C 235.58 226.99 237.98 225.35 237.98 220.74
  Q 238.05 148.90 237.98 76.99
  Q 237.98 76.50 237.49 76.50
  L 22.51 76.50
  Q 22.02 76.50 22.02 76.99
  Q 21.95 149.37 22.02 221.75
  C 22.03 225.98 25.66 227.00 29.41 227.00
  Q 130.34 227.01 231.26 226.99" stroke="#808080"></path>
<path d="M 146.6424 111.6269
  A 7.05 7.05 0.0 0 0 142.0232 102.7912
  L 141.7942 102.7195
  A 7.05 7.05 0.0 0 0 132.9586 107.3386
  L 113.3176 170.0131
  A 7.05 7.05 0.0 0 0 117.9368 178.8488
  L 118.1658 178.9205
  A 7.05 7.05 0.0 0 0 127.0014 174.3014
  L 146.6424 111.6269" stroke="#808080"></path>
<path d="M 187.00 141.69
  A 0.23 0.22 45.7 0 1 187.00 142.04
  Q 173.20 153.07 159.37 164.09
  Q 155.45 167.21 154.55 168.78
  C 151.92 173.39 156.86 180.04 162.06 179.23
  Q 164.30 178.88 167.76 176.11
  Q 185.49 161.90 203.27 147.76
  Q 207.95 144.04 205.94 139.53
  Q 204.95 137.29 200.87 134.04
  Q 183.22 119.98 165.60 105.89
  C 159.80 101.25 151.68 107.37 154.56 114.07
  Q 155.46 116.16 158.70 118.77
  Q 172.92 130.20 187.00 141.69" stroke="#808080"></path>
<path d="M 73.69 141.36
  Q 88.72 129.49 103.95 117.20
  C 109.69 112.58 104.64 102.81 97.57 104.94
  Q 95.58 105.54 92.02 108.40
  Q 74.66 122.35 57.21 136.19
  C 50.56 141.47 55.12 146.14 60.06 150.10
  Q 76.74 163.44 93.46 176.76
  Q 96.19 178.93 98.11 179.23
  C 103.08 180.00 107.72 174.36 106.09 169.83
  Q 105.25 167.49 101.42 164.45
  Q 87.67 153.49 73.69 142.30
  Q 73.10 141.83 73.69 141.36" stroke="#808080"></path>
</g>
<path d="M 0.00 0.00
  L 260.00 0.00
  L 260.00 260.00
  L 0.00 260.00
  L 0.00 0.00
  Z
  M 237.79 38.10
  C 237.70 35.07 235.79 33.20 232.75 33.19
  Q 130.00 32.99 27.25 33.01
  C 22.96 33.01 22.03 36.62 22.01 40.40
  Q 21.98 52.80 22.01 65.16
  A 0.23 0.22 0.0 0 0 22.24 65.38
  L 237.29 65.38
  Q 237.93 65.38 237.94 64.74
  Q 238.19 51.38 237.79 38.10
  Z
  M 231.26 226.99
  C 235.58 226.99 237.98 225.35 237.98 220.74
  Q 238.05 148.90 237.98 76.99
  Q 237.98 76.50 237.49 76.50
  L 22.51 76.50
  Q 22.02 76.50 22.02 76.99
  Q 21.95 149.37 22.02 221.75
  C 22.03 225.98 25.66 227.00 29.41 227.00
  Q 130.34 227.01 231.26 226.99
  Z" fill="#000000"></path>
<path d="M 232.75 33.19
  C 235.79 33.20 237.70 35.07 237.79 38.10
  Q 238.19 51.38 237.94 64.74
  Q 237.93 65.38 237.29 65.38
  L 22.24 65.38
  A 0.23 0.22 0.0 0 1 22.01 65.16
  Q 21.98 52.80 22.01 40.40
  C 22.03 36.62 22.96 33.01 27.25 33.01
  Q 130.00 32.99 232.75 33.19
  Z" fill="#ffffff"></path>
<path d="M 237.98 220.74
  C 237.98 225.35 235.58 226.99 231.26 226.99
  Q 130.34 227.01 29.41 227.00
  C 25.66 227.00 22.03 225.98 22.02 221.75
  Q 21.95 149.37 22.02 76.99
  Q 22.02 76.50 22.51 76.50
  L 237.49 76.50
  Q 237.98 76.50 237.98 76.99
  Q 238.05 148.90 237.98 220.74
  Z
  M 146.6424 111.6269
  A 7.05 7.05 0.0 0 0 142.0232 102.7912
  L 141.7942 102.7195
  A 7.05 7.05 0.0 0 0 132.9586 107.3386
  L 113.3176 170.0131
  A 7.05 7.05 0.0 0 0 117.9368 178.8488
  L 118.1658 178.9205
  A 7.05 7.05 0.0 0 0 127.0014 174.3014
  L 146.6424 111.6269
  Z
  M 187.00 141.69
  A 0.23 0.22 45.7 0 1 187.00 142.04
  Q 173.20 153.07 159.37 164.09
  Q 155.45 167.21 154.55 168.78
  C 151.92 173.39 156.86 180.04 162.06 179.23
  Q 164.30 178.88 167.76 176.11
  Q 185.49 161.90 203.27 147.76
  Q 207.95 144.04 205.94 139.53
  Q 204.95 137.29 200.87 134.04
  Q 183.22 119.98 165.60 105.89
  C 159.80 101.25 151.68 107.37 154.56 114.07
  Q 155.46 116.16 158.70 118.77
  Q 172.92 130.20 187.00 141.69
  Z
  M 73.69 141.36
  Q 88.72 129.49 103.95 117.20
  C 109.69 112.58 104.64 102.81 97.57 104.94
  Q 95.58 105.54 92.02 108.40
  Q 74.66 122.35 57.21 136.19
  C 50.56 141.47 55.12 146.14 60.06 150.10
  Q 76.74 163.44 93.46 176.76
  Q 96.19 178.93 98.11 179.23
  C 103.08 180.00 107.72 174.36 106.09 169.83
  Q 105.25 167.49 101.42 164.45
  Q 87.67 153.49 73.69 142.30
  Q 73.10 141.83 73.69 141.36
  Z" fill="#ffffff"></path>
<rect rx="7.05" height="79.78" width="14.34" transform="translate(129.98,140.82) rotate(17.4)" y="-39.89" x="-7.17" fill="#000000"></rect>
<path d="M 187.00 141.69
  Q 172.92 130.20 158.70 118.77
  Q 155.46 116.16 154.56 114.07
  C 151.68 107.37 159.80 101.25 165.60 105.89
  Q 183.22 119.98 200.87 134.04
  Q 204.95 137.29 205.94 139.53
  Q 207.95 144.04 203.27 147.76
  Q 185.49 161.90 167.76 176.11
  Q 164.30 178.88 162.06 179.23
  C 156.86 180.04 151.92 173.39 154.55 168.78
  Q 155.45 167.21 159.37 164.09
  Q 173.20 153.07 187.00 142.04
  A 0.23 0.22 45.7 0 0 187.00 141.69
  Z" fill="#000000"></path>
<path d="M 73.69 141.36
  Q 73.10 141.83 73.69 142.30
  Q 87.67 153.49 101.42 164.45
  Q 105.25 167.49 106.09 169.83
  C 107.72 174.36 103.08 180.00 98.11 179.23
  Q 96.19 178.93 93.46 176.76
  Q 76.74 163.44 60.06 150.10
  C 55.12 146.14 50.56 141.47 57.21 136.19
  Q 74.66 122.35 92.02 108.40
  Q 95.58 105.54 97.57 104.94
  C 104.64 102.81 109.69 112.58 103.95 117.20
  Q 88.72 129.49 73.69 141.36
  Z" fill="#000000"></path>
</svg>
