<svg viewBox="0.00 0.00 256.00 256.00" version="1.1" xmlns="http://www.w3.org/2000/svg">
<g stroke-linecap="butt" fill="none" stroke-width="2.00">
<path d="M 240.30 29.75
  A 11.95 11.95 0.0 0 0 228.35 17.80
  L 21.45 17.80
  A 11.95 11.95 0.0 0 0 9.50 29.75
  L 9.50 230.51
  A 11.95 11.95 0.0 0 0 21.45 242.46
  L 228.35 242.46
  A 11.95 11.95 0.0 0 0 240.30 230.51
  L 240.30 29.75" stroke="#93a3a9"></path>
<path d="M 114.47 60.28
  A 1.95 1.95 0.0 0 0 112.52 58.33
  L 112.42 58.33
  A 1.95 1.95 0.0 0 0 110.47 60.28
  L 110.47 75.20
  A 1.95 1.95 0.0 0 0 112.42 77.15
  L 112.52 77.15
  A 1.95 1.95 0.0 0 0 114.47 75.20
  L 114.47 60.28" stroke="#8f8856"></path>
<path d="M 149.94 107.86
  Q 149.32 107.54 149.75 107.00
  Q 161.11 92.50 172.23 78.02
  Q 174.73 74.76 175.18 72.95
  C 177.48 63.64 168.72 58.02 161.09 63.12
  Q 160.38 63.60 155.29 68.79
  Q 135.90 88.59 117.65 109.45
  C 113.51 114.18 109.97 117.52 105.25 120.81
  Q 104.27 121.49 103.69 121.19
  A 2.68 2.66 -80.1 0 1 102.27 119.16
  C 100.06 102.44 94.09 82.70 72.92 83.88
  C 66.34 84.25 69.30 89.09 71.21 92.12
  C 75.74 99.30 79.78 107.74 80.74 116.00
  Q 82.40 130.12 82.70 146.43
  Q 82.88 156.45 83.70 159.99
  C 86.68 172.86 98.71 182.81 110.93 186.37
  C 129.78 191.87 149.46 185.48 162.55 170.81
  Q 173.39 158.66 179.80 143.69
  C 182.92 136.38 179.24 132.95 172.92 130.35
  A 1.53 1.53 0.0 0 1 171.98 129.05
  C 171.77 126.34 171.04 123.16 168.89 121.40
  C 166.42 119.36 163.90 119.70 160.90 119.15
  Q 160.36 119.05 160.23 118.52
  C 158.87 113.09 158.89 109.06 151.99 108.39
  Q 150.72 108.26 149.94 107.86" stroke="#8f8856"></path>
<path d="M 105.5972 82.9715
  A 2.74 2.74 0.0 0 0 105.4282 79.1003
  L 95.7994 70.2771
  A 2.74 2.74 0.0 0 0 91.9281 70.4461
  L 91.5228 70.8885
  A 2.74 2.74 0.0 0 0 91.6918 74.7597
  L 101.3206 83.5829
  A 2.74 2.74 0.0 0 0 105.1919 83.4139
  L 105.5972 82.9715" stroke="#8f8856"></path>
<path d="M 133.2886 70.5465
  A 2.90 2.90 0.0 0 0 129.1926 70.3390
  L 119.5914 79.0143
  A 2.90 2.90 0.0 0 0 119.3839 83.1103
  L 119.5314 83.2735
  A 2.90 2.90 0.0 0 0 123.6274 83.4810
  L 133.2286 74.8057
  A 2.90 2.90 0.0 0 0 133.4361 70.7097
  L 133.2886 70.5465" stroke="#8f8856"></path>
<path d="M 117.37 125.31
  A 3.87 3.87 0.0 0 0 111.55 128.65
  L 111.55 166.63
  A 3.87 3.87 0.0 0 0 117.37 169.97
  L 150.01 150.99
  A 3.87 3.87 0.0 0 0 150.01 144.29
  L 117.37 125.31" stroke="#8f8856"></path>
</g>
<path d="M 0.00 0.00
  L 256.00 0.00
  L 256.00 256.00
  L 0.00 256.00
  L 0.00 0.00
  Z
  M 240.30 29.75
  A 11.95 11.95 0.0 0 0 228.35 17.80
  L 21.45 17.80
  A 11.95 11.95 0.0 0 0 9.50 29.75
  L 9.50 230.51
  A 11.95 11.95 0.0 0 0 21.45 242.46
  L 228.35 242.46
  A 11.95 11.95 0.0 0 0 240.30 230.51
  L 240.30 29.75
  Z" fill="#ffffff"></path>
<path d="M 240.30 230.51
  A 11.95 11.95 0.0 0 1 228.35 242.46
  L 21.45 242.46
  A 11.95 11.95 0.0 0 1 9.50 230.51
  L 9.50 29.75
  A 11.95 11.95 0.0 0 1 21.45 17.80
  L 228.35 17.80
  A 11.95 11.95 0.0 0 1 240.30 29.75
  L 240.30 230.51
  Z
  M 114.47 60.28
  A 1.95 1.95 0.0 0 0 112.52 58.33
  L 112.42 58.33
  A 1.95 1.95 0.0 0 0 110.47 60.28
  L 110.47 75.20
  A 1.95 1.95 0.0 0 0 112.42 77.15
  L 112.52 77.15
  A 1.95 1.95 0.0 0 0 114.47 75.20
  L 114.47 60.28
  Z
  M 149.94 107.86
  Q 149.32 107.54 149.75 107.00
  Q 161.11 92.50 172.23 78.02
  Q 174.73 74.76 175.18 72.95
  C 177.48 63.64 168.72 58.02 161.09 63.12
  Q 160.38 63.60 155.29 68.79
  Q 135.90 88.59 117.65 109.45
  C 113.51 114.18 109.97 117.52 105.25 120.81
  Q 104.27 121.49 103.69 121.19
  A 2.68 2.66 -80.1 0 1 102.27 119.16
  C 100.06 102.44 94.09 82.70 72.92 83.88
  C 66.34 84.25 69.30 89.09 71.21 92.12
  C 75.74 99.30 79.78 107.74 80.74 116.00
  Q 82.40 130.12 82.70 146.43
  Q 82.88 156.45 83.70 159.99
  C 86.68 172.86 98.71 182.81 110.93 186.37
  C 129.78 191.87 149.46 185.48 162.55 170.81
  Q 173.39 158.66 179.80 143.69
  C 182.92 136.38 179.24 132.95 172.92 130.35
  A 1.53 1.53 0.0 0 1 171.98 129.05
  C 171.77 126.34 171.04 123.16 168.89 121.40
  C 166.42 119.36 163.90 119.70 160.90 119.15
  Q 160.36 119.05 160.23 118.52
  C 158.87 113.09 158.89 109.06 151.99 108.39
  Q 150.72 108.26 149.94 107.86
  Z
  M 105.5972 82.9715
  A 2.74 2.74 0.0 0 0 105.4282 79.1003
  L 95.7994 70.2771
  A 2.74 2.74 0.0 0 0 91.9281 70.4461
  L 91.5228 70.8885
  A 2.74 2.74 0.0 0 0 91.6918 74.7597
  L 101.3206 83.5829
  A 2.74 2.74 0.0 0 0 105.1919 83.4139
  L 105.5972 82.9715
  Z
  M 133.2886 70.5465
  A 2.90 2.90 0.0 0 0 129.1926 70.3390
  L 119.5914 79.0143
  A 2.90 2.90 0.0 0 0 119.3839 83.1103
  L 119.5314 83.2735
  A 2.90 2.90 0.0 0 0 123.6274 83.4810
  L 133.2286 74.8057
  A 2.90 2.90 0.0 0 0 133.4361 70.7097
  L 133.2886 70.5465
  Z" fill="#264653"></path>
<rect rx="1.95" height="18.82" width="4.00" y="58.33" x="110.47" fill="#f7ca59"></rect>
<path d="M 149.94 107.86
  Q 150.72 108.26 151.99 108.39
  C 158.89 109.06 158.87 113.09 160.23 118.52
  Q 160.36 119.05 160.90 119.15
  C 163.90 119.70 166.42 119.36 168.89 121.40
  C 171.04 123.16 171.77 126.34 171.98 129.05
  A 1.53 1.53 0.0 0 0 172.92 130.35
  C 179.24 132.95 182.92 136.38 179.80 143.69
  Q 173.39 158.66 162.55 170.81
  C 149.46 185.48 129.78 191.87 110.93 186.37
  C 98.71 182.81 86.68 172.86 83.70 159.99
  Q 82.88 156.45 82.70 146.43
  Q 82.40 130.12 80.74 116.00
  C 79.78 107.74 75.74 99.30 71.21 92.12
  C 69.30 89.09 66.34 84.25 72.92 83.88
  C 94.09 82.70 100.06 102.44 102.27 119.16
  A 2.68 2.66 -80.1 0 0 103.69 121.19
  Q 104.27 121.49 105.25 120.81
  C 109.97 117.52 113.51 114.18 117.65 109.45
  Q 135.90 88.59 155.29 68.79
  Q 160.38 63.60 161.09 63.12
  C 168.72 58.02 177.48 63.64 175.18 72.95
  Q 174.73 74.76 172.23 78.02
  Q 161.11 92.50 149.75 107.00
  Q 149.32 107.54 149.94 107.86
  Z
  M 117.37 125.31
  A 3.87 3.87 0.0 0 0 111.55 128.65
  L 111.55 166.63
  A 3.87 3.87 0.0 0 0 117.37 169.97
  L 150.01 150.99
  A 3.87 3.87 0.0 0 0 150.01 144.29
  L 117.37 125.31
  Z" fill="#f7ca59"></path>
<rect rx="2.74" height="6.08" width="18.54" transform="translate(98.56,76.93) rotate(42.5)" y="-3.04" x="-9.27" fill="#f7ca59"></rect>
<rect rx="2.90" height="6.02" width="18.74" transform="translate(126.41,76.91) rotate(-42.1)" y="-3.01" x="-9.37" fill="#f7ca59"></rect>
<path d="M 117.37 125.31
  L 150.01 144.29
  A 3.87 3.87 0.0 0 1 150.01 150.99
  L 117.37 169.97
  A 3.87 3.87 0.0 0 1 111.55 166.63
  L 111.55 128.65
  A 3.87 3.87 0.0 0 1 117.37 125.31
  Z" fill="#264653"></path>
</svg>
