<svg viewBox="0.00 0.00 48.00 48.00" version="1.1" xmlns="http://www.w3.org/2000/svg">
<g stroke-linecap="butt" fill="none" stroke-width="2.00">
<path d="M 19.27 0.00
  Q 10.92 3.82 2.80 8.51
  Q 0.77 9.68 0.78 11.53
  Q 0.85 23.77 0.90 36.26
  A 1.84 1.82 15.2 0 0 1.82 37.84
  Q 8.17 41.48 14.78 45.24
  C 18.86 47.56 23.66 48.98 27.57 46.85
  Q 35.32 42.62 42.97 38.14
  C 45.13 36.88 45.33 35.74 45.33 33.38
  Q 45.31 18.78 45.20 13.49
  Q 45.13 10.22 43.38 9.34
  Q 37.51 6.40 30.62 1.88
  Q 28.25 0.33 25.11 0.00" stroke="#f4eefe"></path>
<path d="M 13.48 13.95
  L 21.53 9.74
  Q 23.16 8.89 22.62 7.14
  L 22.45 6.56
  A 1.44 1.43 -23.1 0 0 20.38 5.73
  L 8.06 12.64
  A 2.14 2.13 -44.3 0 0 8.01 16.34
  L 22.94 25.22
  A 1.92 1.92 0.0 0 0 24.87 25.24
  L 37.04 18.24
  A 1.74 1.73 64.9 0 0 37.80 16.13
  L 37.62 15.66
  A 1.90 1.90 0.0 0 0 34.91 14.66
  L 24.31 20.58
  A 1.24 1.23 -43.7 0 1 23.07 20.56
  L 13.46 14.79
  Q 12.73 14.35 13.48 13.95" stroke="#a279fc"></path>
<path d="M 23.21 28.84
  L 9.68 20.97
  A 1.57 1.56 28.6 0 0 7.50 21.61
  L 7.28 22.06
  A 2.14 2.14 0.0 0 0 8.10 24.87
  L 22.67 33.44
  A 2.15 2.15 0.0 0 0 24.82 33.46
  L 36.68 26.83
  A 2.32 2.32 0.0 0 0 37.61 23.73
  L 37.41 23.35
  A 1.60 1.59 -28.4 0 0 35.21 22.70
  L 24.26 28.85
  A 1.06 1.03 44.8 0 1 23.21 28.84" stroke="#9683c5"></path>
</g>
<path d="M 0.00 0.00
  L 19.27 0.00
  Q 10.92 3.82 2.80 8.51
  Q 0.77 9.68 0.78 11.53
  Q 0.85 23.77 0.90 36.26
  A 1.84 1.82 15.2 0 0 1.82 37.84
  Q 8.17 41.48 14.78 45.24
  C 18.86 47.56 23.66 48.98 27.57 46.85
  Q 35.32 42.62 42.97 38.14
  C 45.13 36.88 45.33 35.74 45.33 33.38
  Q 45.31 18.78 45.20 13.49
  Q 45.13 10.22 43.38 9.34
  Q 37.51 6.40 30.62 1.88
  Q 28.25 0.33 25.11 0.00
  L 48.00 0.00
  L 48.00 48.00
  L 0.00 48.00
  L 0.00 0.00
  Z" fill="#ffffff"></path>
<path d="M 19.27 0.00
  L 25.11 0.00
  Q 28.25 0.33 30.62 1.88
  Q 37.51 6.40 43.38 9.34
  Q 45.13 10.22 45.20 13.49
  Q 45.31 18.78 45.33 33.38
  C 45.33 35.74 45.13 36.88 42.97 38.14
  Q 35.32 42.62 27.57 46.85
  C 23.66 48.98 18.86 47.56 14.78 45.24
  Q 8.17 41.48 1.82 37.84
  A 1.84 1.82 15.2 0 1 0.90 36.26
  Q 0.85 23.77 0.78 11.53
  Q 0.77 9.68 2.80 8.51
  Q 10.92 3.82 19.27 0.00
  Z
  M 13.48 13.95
  L 21.53 9.74
  Q 23.16 8.89 22.62 7.14
  L 22.45 6.56
  A 1.44 1.43 -23.1 0 0 20.38 5.73
  L 8.06 12.64
  A 2.14 2.13 -44.3 0 0 8.01 16.34
  L 22.94 25.22
  A 1.92 1.92 0.0 0 0 24.87 25.24
  L 37.04 18.24
  A 1.74 1.73 64.9 0 0 37.80 16.13
  L 37.62 15.66
  A 1.90 1.90 0.0 0 0 34.91 14.66
  L 24.31 20.58
  A 1.24 1.23 -43.7 0 1 23.07 20.56
  L 13.46 14.79
  Q 12.73 14.35 13.48 13.95
  Z
  M 23.21 28.84
  L 9.68 20.97
  A 1.57 1.56 28.6 0 0 7.50 21.61
  L 7.28 22.06
  A 2.14 2.14 0.0 0 0 8.10 24.87
  L 22.67 33.44
  A 2.15 2.15 0.0 0 0 24.82 33.46
  L 36.68 26.83
  A 2.32 2.32 0.0 0 0 37.61 23.73
  L 37.41 23.35
  A 1.60 1.59 -28.4 0 0 35.21 22.70
  L 24.26 28.85
  A 1.06 1.03 44.8 0 1 23.21 28.84
  Z" fill="#e9ddfc"></path>
<path d="M 13.46 14.79
  L 23.07 20.56
  A 1.24 1.23 -43.7 0 0 24.31 20.58
  L 34.91 14.66
  A 1.90 1.90 0.0 0 1 37.62 15.66
  L 37.80 16.13
  A 1.74 1.73 64.9 0 1 37.04 18.24
  L 24.87 25.24
  A 1.92 1.92 0.0 0 1 22.94 25.22
  L 8.01 16.34
  A 2.14 2.13 -44.3 0 1 8.06 12.64
  L 20.38 5.73
  A 1.44 1.43 -23.1 0 1 22.45 6.56
  L 22.62 7.14
  Q 23.16 8.89 21.53 9.74
  L 13.48 13.95
  Q 12.73 14.35 13.46 14.79
  Z" fill="#5b14fb"></path>
<path d="M 24.26 28.85
  L 35.21 22.70
  A 1.60 1.59 -28.4 0 1 37.41 23.35
  L 37.61 23.73
  A 2.32 2.32 0.0 0 1 36.68 26.83
  L 24.82 33.46
  A 2.15 2.15 0.0 0 1 22.67 33.44
  L 8.10 24.87
  A 2.14 2.14 0.0 0 1 7.28 22.06
  L 7.50 21.61
  A 1.57 1.56 28.6 0 1 9.68 20.97
  L 23.21 28.84
  A 1.06 1.03 44.8 0 0 24.26 28.85
  Z" fill="#42298e"></path>
</svg>
