<svg viewBox="0.00 0.00 180.00 180.00" version="1.1" xmlns="http://www.w3.org/2000/svg">
<g stroke-linecap="butt" fill="none" stroke-width="2.00">
<path d="M 20.24 131.20
  L 157.46 145.77
  Q 157.93 145.82 158.10 145.38
  Q 161.04 137.67 164.09 129.98
  Q 165.19 127.19 165.29 124.21
  Q 166.56 82.86 167.94 41.52
  A 0.63 0.62 2.3 0 0 167.34 40.88
  Q 101.72 37.89 35.80 34.79
  Q 33.49 34.68 31.38 35.59
  Q 22.28 39.53 13.27 43.52
  A 0.48 0.48 0.0 0 0 12.99 44.00
  L 19.65 130.60
  A 0.66 0.65 1.1 0 0 20.24 131.20" stroke="#bae7ae"></path>
<path d="M 39.86 70.53
  A 0.40 0.40 0.0 0 1 40.26 70.93
  L 40.26 107.44
  A 0.40 0.40 0.0 0 0 40.66 107.84
  L 45.10 107.85
  A 0.40 0.40 0.0 0 0 45.50 107.45
  L 45.51 70.94
  A 0.40 0.40 0.0 0 1 45.91 70.54
  L 53.20 70.51
  A 0.40 0.40 0.0 0 0 53.60 70.11
  L 53.64 65.66
  A 0.40 0.40 0.0 0 0 53.24 65.26
  L 32.52 65.25
  A 0.40 0.40 0.0 0 0 32.12 65.65
  L 32.13 70.09
  A 0.40 0.40 0.0 0 0 32.53 70.49
  L 39.86 70.53" stroke="#bae7ae"></path>
<path d="M 75.97 85.87
  C 80.05 82.88 80.14 77.19 79.39 72.81
  Q 78.09 65.25 70.24 65.21
  Q 64.67 65.18 58.93 65.31
  Q 58.48 65.32 58.48 65.78
  L 58.49 107.54
  Q 58.49 107.85 58.80 107.85
  L 63.40 107.87
  Q 63.71 107.87 63.71 107.55
  L 63.72 89.54
  Q 63.72 89.12 64.14 89.08
  C 68.79 88.63 74.43 88.07 74.44 94.01
  Q 74.46 100.91 74.46 107.56
  Q 74.46 107.85 74.75 107.85
  L 79.41 107.86
  Q 79.67 107.86 79.67 107.60
  Q 79.81 97.16 79.61 92.26
  Q 79.46 88.25 76.01 86.39
  Q 75.58 86.16 75.97 85.87" stroke="#bae7ae"></path>
<path d="M 91.75 65.58
  A 0.31 0.31 0.0 0 0 91.44 65.27
  L 86.82 65.27
  A 0.31 0.31 0.0 0 0 86.51 65.58
  L 86.51 107.56
  A 0.31 0.31 0.0 0 0 86.82 107.87
  L 91.44 107.87
  A 0.31 0.31 0.0 0 0 91.75 107.56
  L 91.75 65.58" stroke="#bae7ae"></path>
<path d="M 114.96 97.66
  A 0.40 0.40 0.0 0 1 115.35 97.97
  L 117.64 107.56
  A 0.40 0.40 0.0 0 0 118.02 107.86
  L 122.63 107.90
  A 0.40 0.40 0.0 0 0 123.02 107.40
  L 113.01 65.58
  A 0.40 0.40 0.0 0 0 112.62 65.27
  L 106.67 65.26
  A 0.40 0.40 0.0 0 0 106.28 65.57
  L 96.15 107.38
  A 0.40 0.40 0.0 0 0 96.54 107.87
  L 101.26 107.87
  A 0.40 0.40 0.0 0 0 101.65 107.56
  L 103.90 97.96
  A 0.40 0.40 0.0 0 1 104.29 97.65
  L 114.96 97.66" stroke="#bae7ae"></path>
<path d="M 126.85 65.61
  L 126.93 107.51
  A 0.36 0.36 0.0 0 0 127.29 107.87
  L 136.93 107.85
  A 11.74 11.73 -0.1 0 0 148.65 96.10
  L 148.61 76.94
  A 11.74 11.73 -0.1 0 0 136.85 65.23
  L 127.21 65.25
  A 0.36 0.36 0.0 0 0 126.85 65.61" stroke="#bae7ae"></path>
<path d="M 63.74 70.74
  L 63.68 83.16
  A 0.30 0.30 0.0 0 0 63.98 83.46
  L 69.75 83.49
  A 4.77 4.63 -89.7 0 0 74.40 78.75
  L 74.42 75.27
  A 4.77 4.63 -89.7 0 0 69.81 70.47
  L 64.04 70.44
  A 0.30 0.30 0.0 0 0 63.74 70.74" stroke="#bae7ae"></path>
<path d="M 105.38 92.05
  A 0.31 0.31 0.0 0 0 105.69 92.43
  L 113.70 92.41
  A 0.31 0.31 0.0 0 0 114.00 92.02
  L 109.93 75.60
  A 0.31 0.31 0.0 0 0 109.33 75.60
  L 105.38 92.05" stroke="#bae7ae"></path>
<path d="M 132.27 70.89
  L 132.17 102.23
  A 0.36 0.36 0.0 0 0 132.52 102.59
  L 136.95 102.61
  A 6.55 6.33 -89.8 0 0 143.31 96.08
  L 143.37 77.12
  A 6.55 6.33 -89.8 0 0 137.07 70.55
  L 132.64 70.53
  A 0.36 0.36 0.0 0 0 132.27 70.89" stroke="#bae7ae"></path>
</g>
<path d="M 0.00 0.00
  L 180.00 0.00
  L 180.00 180.00
  L 0.00 180.00
  L 0.00 0.00
  Z
  M 20.24 131.20
  L 157.46 145.77
  Q 157.93 145.82 158.10 145.38
  Q 161.04 137.67 164.09 129.98
  Q 165.19 127.19 165.29 124.21
  Q 166.56 82.86 167.94 41.52
  A 0.63 0.62 2.3 0 0 167.34 40.88
  Q 101.72 37.89 35.80 34.79
  Q 33.49 34.68 31.38 35.59
  Q 22.28 39.53 13.27 43.52
  A 0.48 0.48 0.0 0 0 12.99 44.00
  L 19.65 130.60
  A 0.66 0.65 1.1 0 0 20.24 131.20
  Z" fill="#f2f0e4"></path>
<path d="M 157.46 145.77
  L 20.24 131.20
  A 0.66 0.65 1.1 0 1 19.65 130.60
  L 12.99 44.00
  A 0.48 0.48 0.0 0 1 13.27 43.52
  Q 22.28 39.53 31.38 35.59
  Q 33.49 34.68 35.80 34.79
  Q 101.72 37.89 167.34 40.88
  A 0.63 0.62 2.3 0 1 167.94 41.52
  Q 166.56 82.86 165.29 124.21
  Q 165.19 127.19 164.09 129.98
  Q 161.04 137.67 158.10 145.38
  Q 157.93 145.82 157.46 145.77
  Z
  M 39.86 70.53
  A 0.40 0.40 0.0 0 1 40.26 70.93
  L 40.26 107.44
  A 0.40 0.40 0.0 0 0 40.66 107.84
  L 45.10 107.85
  A 0.40 0.40 0.0 0 0 45.50 107.45
  L 45.51 70.94
  A 0.40 0.40 0.0 0 1 45.91 70.54
  L 53.20 70.51
  A 0.40 0.40 0.0 0 0 53.60 70.11
  L 53.64 65.66
  A 0.40 0.40 0.0 0 0 53.24 65.26
  L 32.52 65.25
  A 0.40 0.40 0.0 0 0 32.12 65.65
  L 32.13 70.09
  A 0.40 0.40 0.0 0 0 32.53 70.49
  L 39.86 70.53
  Z
  M 75.97 85.87
  C 80.05 82.88 80.14 77.19 79.39 72.81
  Q 78.09 65.25 70.24 65.21
  Q 64.67 65.18 58.93 65.31
  Q 58.48 65.32 58.48 65.78
  L 58.49 107.54
  Q 58.49 107.85 58.80 107.85
  L 63.40 107.87
  Q 63.71 107.87 63.71 107.55
  L 63.72 89.54
  Q 63.72 89.12 64.14 89.08
  C 68.79 88.63 74.43 88.07 74.44 94.01
  Q 74.46 100.91 74.46 107.56
  Q 74.46 107.85 74.75 107.85
  L 79.41 107.86
  Q 79.67 107.86 79.67 107.60
  Q 79.81 97.16 79.61 92.26
  Q 79.46 88.25 76.01 86.39
  Q 75.58 86.16 75.97 85.87
  Z
  M 91.75 65.58
  A 0.31 0.31 0.0 0 0 91.44 65.27
  L 86.82 65.27
  A 0.31 0.31 0.0 0 0 86.51 65.58
  L 86.51 107.56
  A 0.31 0.31 0.0 0 0 86.82 107.87
  L 91.44 107.87
  A 0.31 0.31 0.0 0 0 91.75 107.56
  L 91.75 65.58
  Z
  M 114.96 97.66
  A 0.40 0.40 0.0 0 1 115.35 97.97
  L 117.64 107.56
  A 0.40 0.40 0.0 0 0 118.02 107.86
  L 122.63 107.90
  A 0.40 0.40 0.0 0 0 123.02 107.40
  L 113.01 65.58
  A 0.40 0.40 0.0 0 0 112.62 65.27
  L 106.67 65.26
  A 0.40 0.40 0.0 0 0 106.28 65.57
  L 96.15 107.38
  A 0.40 0.40 0.0 0 0 96.54 107.87
  L 101.26 107.87
  A 0.40 0.40 0.0 0 0 101.65 107.56
  L 103.90 97.96
  A 0.40 0.40 0.0 0 1 104.29 97.65
  L 114.96 97.66
  Z
  M 126.85 65.61
  L 126.93 107.51
  A 0.36 0.36 0.0 0 0 127.29 107.87
  L 136.93 107.85
  A 11.74 11.73 -0.1 0 0 148.65 96.10
  L 148.61 76.94
  A 11.74 11.73 -0.1 0 0 136.85 65.23
  L 127.21 65.25
  A 0.36 0.36 0.0 0 0 126.85 65.61
  Z" fill="#81dd77"></path>
<path d="M 39.86 70.53
  L 32.53 70.49
  A 0.40 0.40 0.0 0 1 32.13 70.09
  L 32.12 65.65
  A 0.40 0.40 0.0 0 1 32.52 65.25
  L 53.24 65.26
  A 0.40 0.40 0.0 0 1 53.64 65.66
  L 53.60 70.11
  A 0.40 0.40 0.0 0 1 53.20 70.51
  L 45.91 70.54
  A 0.40 0.40 0.0 0 0 45.51 70.94
  L 45.50 107.45
  A 0.40 0.40 0.0 0 1 45.10 107.85
  L 40.66 107.84
  A 0.40 0.40 0.0 0 1 40.26 107.44
  L 40.26 70.93
  A 0.40 0.40 0.0 0 0 39.86 70.53
  Z" fill="#f2f0e4"></path>
<path d="M 76.01 86.39
  Q 79.46 88.25 79.61 92.26
  Q 79.81 97.16 79.67 107.60
  Q 79.67 107.86 79.41 107.86
  L 74.75 107.85
  Q 74.46 107.85 74.46 107.56
  Q 74.46 100.91 74.44 94.01
  C 74.43 88.07 68.79 88.63 64.14 89.08
  Q 63.72 89.12 63.72 89.54
  L 63.71 107.55
  Q 63.71 107.87 63.40 107.87
  L 58.80 107.85
  Q 58.49 107.85 58.49 107.54
  L 58.48 65.78
  Q 58.48 65.32 58.93 65.31
  Q 64.67 65.18 70.24 65.21
  Q 78.09 65.25 79.39 72.81
  C 80.14 77.19 80.05 82.88 75.97 85.87
  Q 75.58 86.16 76.01 86.39
  Z
  M 63.74 70.74
  L 63.68 83.16
  A 0.30 0.30 0.0 0 0 63.98 83.46
  L 69.75 83.49
  A 4.77 4.63 -89.7 0 0 74.40 78.75
  L 74.42 75.27
  A 4.77 4.63 -89.7 0 0 69.81 70.47
  L 64.04 70.44
  A 0.30 0.30 0.0 0 0 63.74 70.74
  Z" fill="#f2f0e4"></path>
<rect rx="0.31" height="42.60" width="5.24" y="65.27" x="86.51" fill="#f2f0e4"></rect>
<path d="M 114.96 97.66
  L 104.29 97.65
  A 0.40 0.40 0.0 0 0 103.90 97.96
  L 101.65 107.56
  A 0.40 0.40 0.0 0 1 101.26 107.87
  L 96.54 107.87
  A 0.40 0.40 0.0 0 1 96.15 107.38
  L 106.28 65.57
  A 0.40 0.40 0.0 0 1 106.67 65.26
  L 112.62 65.27
  A 0.40 0.40 0.0 0 1 113.01 65.58
  L 123.02 107.40
  A 0.40 0.40 0.0 0 1 122.63 107.90
  L 118.02 107.86
  A 0.40 0.40 0.0 0 1 117.64 107.56
  L 115.35 97.97
  A 0.40 0.40 0.0 0 0 114.96 97.66
  Z
  M 105.38 92.05
  A 0.31 0.31 0.0 0 0 105.69 92.43
  L 113.70 92.41
  A 0.31 0.31 0.0 0 0 114.00 92.02
  L 109.93 75.60
  A 0.31 0.31 0.0 0 0 109.33 75.60
  L 105.38 92.05
  Z" fill="#f2f0e4"></path>
<path d="M 126.85 65.61
  A 0.36 0.36 0.0 0 1 127.21 65.25
  L 136.85 65.23
  A 11.74 11.73 -0.1 0 1 148.61 76.94
  L 148.65 96.10
  A 11.74 11.73 -0.1 0 1 136.93 107.85
  L 127.29 107.87
  A 0.36 0.36 0.0 0 1 126.93 107.51
  L 126.85 65.61
  Z
  M 132.27 70.89
  L 132.17 102.23
  A 0.36 0.36 0.0 0 0 132.52 102.59
  L 136.95 102.61
  A 6.55 6.33 -89.8 0 0 143.31 96.08
  L 143.37 77.12
  A 6.55 6.33 -89.8 0 0 137.07 70.55
  L 132.64 70.53
  A 0.36 0.36 0.0 0 0 132.27 70.89
  Z" fill="#f2f0e4"></path>
<path d="M 63.74 70.74
  A 0.30 0.30 0.0 0 1 64.04 70.44
  L 69.81 70.47
  A 4.77 4.63 -89.7 0 1 74.42 75.27
  L 74.40 78.75
  A 4.77 4.63 -89.7 0 1 69.75 83.49
  L 63.98 83.46
  A 0.30 0.30 0.0 0 1 63.68 83.16
  L 63.74 70.74
  Z" fill="#81dd77"></path>
<path d="M 132.27 70.89
  A 0.36 0.36 0.0 0 1 132.64 70.53
  L 137.07 70.55
  A 6.55 6.33 -89.8 0 1 143.37 77.12
  L 143.31 96.08
  A 6.55 6.33 -89.8 0 1 136.95 102.61
  L 132.52 102.59
  A 0.36 0.36 0.0 0 1 132.17 102.23
  L 132.27 70.89
  Z" fill="#81dd77"></path>
<path d="M 105.38 92.05
  L 109.33 75.60
  A 0.31 0.31 0.0 0 1 109.93 75.60
  L 114.00 92.02
  A 0.31 0.31 0.0 0 1 113.70 92.41
  L 105.69 92.43
  A 0.31 0.31 0.0 0 1 105.38 92.05
  Z" fill="#81dd77"></path>
</svg>
