<svg viewBox="0.00 0.00 28.00 28.00" version="1.1" xmlns="http://www.w3.org/2000/svg">
<g stroke-linecap="butt" fill="none" stroke-width="2.00">
<path d="M 24.22 13.02
  Q 15.82 17.26 6.79 15.02" stroke="#7cc8ab"></path>
<path d="M 6.79 15.02
  Q 5.62 14.03 3.89 13.33" stroke="#cbedc8"></path>
<path d="M 3.89 13.33
  C 5.52 11.32 9.44 10.06 11.76 8.85
  Q 12.22 8.61 12.74 8.62
  Q 13.53 8.63 13.96 8.00
  A 1.11 1.09 -77.3 0 1 14.66 7.55
  L 17.08 7.07" stroke="#a09a8b"></path>
<path d="M 3.89 13.33
  Q 3.65 13.99 2.87 14.03" stroke="#76a0b0"></path>
<path d="M 6.79 15.02
  L 12.22 17.94
  Q 12.66 18.18 12.66 18.68
  Q 12.66 19.47 11.96 19.77
  Q 11.47 19.98 10.52 19.70
  Q 8.66 19.15 6.75 19.10" stroke="#52ced0"></path>
</g>
<path d="M 24.22 13.02
  Q 15.82 17.26 6.79 15.02
  Q 5.62 14.03 3.89 13.33
  C 5.52 11.32 9.44 10.06 11.76 8.85
  Q 12.22 8.61 12.74 8.62
  Q 13.53 8.63 13.96 8.00
  A 1.11 1.09 -77.3 0 1 14.66 7.55
  L 17.08 7.07
  Q 19.20 7.03 21.55 8.07
  A 0.96 0.96 0.0 0 0 22.85 7.51
  Q 23.67 5.10 25.97 4.05
  A 0.64 0.64 0.0 0 1 26.82 4.35
  L 26.98 4.67
  A 0.94 0.93 -30.2 0 1 26.66 5.86
  Q 25.10 6.92 23.98 8.45
  A 0.74 0.73 -43.8 0 0 23.96 9.30
  L 24.63 10.27
  Q 24.88 10.63 24.93 11.07
  Q 25.07 12.48 24.22 13.02
  Z" fill="#f5e7a3"></path>
<path d="M 17.08 7.07
  L 14.66 7.55
  A 1.11 1.09 -77.3 0 0 13.96 8.00
  Q 13.53 8.63 12.74 8.62
  Q 12.22 8.61 11.76 8.85
  C 9.44 10.06 5.52 11.32 3.89 13.33
  Q 3.65 13.99 2.87 14.03
  C -1.53 6.23 14.02 6.92 17.08 7.07
  Z" fill="#4a4d73"></path>
<path d="M 3.89 13.33
  Q 5.62 14.03 6.79 15.02
  L 12.22 17.94
  Q 12.66 18.18 12.66 18.68
  Q 12.66 19.47 11.96 19.77
  Q 11.47 19.98 10.52 19.70
  Q 8.66 19.15 6.75 19.10
  Q 3.62 17.34 2.87 14.03
  Q 3.65 13.99 3.89 13.33
  Z" fill="#a1f3ec"></path>
<path d="M 24.22 13.02
  C 23.88 17.64 18.97 20.01 14.98 20.65
  Q 9.73 21.49 6.75 19.10
  Q 8.66 19.15 10.52 19.70
  Q 11.47 19.98 11.96 19.77
  Q 12.66 19.47 12.66 18.68
  Q 12.66 18.18 12.22 17.94
  L 6.79 15.02
  Q 15.82 17.26 24.22 13.02
  Z" fill="#03a8b3"></path>
</svg>
