<svg viewBox="0.00 0.00 180.00 180.00" version="1.1" xmlns="http://www.w3.org/2000/svg">
<path d="M 108.17 86.69
  Q 103.50 96.35 96.37 103.35
  C 87.81 111.75 85.26 93.39 84.60 89.24
  Q 83.19 80.35 81.81 71.46
  C 80.44 62.52 77.38 45.43 68.06 42.94
  C 58.07 40.26 37.36 59.85 30.03 67.26
  Q 29.43 67.87 29.94 68.56
  L 34.34 74.39
  A 0.90 0.90 0.0 0 0 35.62 74.55
  Q 38.61 72.12 42.50 70.02
  C 47.73 67.20 51.90 78.80 52.93 82.06
  C 58.01 98.09 60.43 115.17 67.87 130.38
  Q 70.00 134.71 73.41 138.08
  C 82.30 146.84 95.53 136.69 102.37 130.62
  C 118.75 116.06 134.59 96.24 142.29 75.51
  C 146.23 64.91 146.11 42.02 129.99 41.08
  C 111.51 40.00 101.81 50.80 96.14 66.95
  A 0.47 0.46 -2.1 0 0 96.77 67.53
  Q 99.53 66.32 102.74 66.15
  C 116.34 65.41 111.35 80.12 108.17 86.69" stroke-linecap="butt" fill="none" stroke-width="2.00" stroke="#80d6f7"></path>
<path d="M 0.00 0.00
  L 180.00 0.00
  L 180.00 180.00
  L 0.00 180.00
  L 0.00 0.00
  Z
  M 108.17 86.69
  Q 103.50 96.35 96.37 103.35
  C 87.81 111.75 85.26 93.39 84.60 89.24
  Q 83.19 80.35 81.81 71.46
  C 80.44 62.52 77.38 45.43 68.06 42.94
  C 58.07 40.26 37.36 59.85 30.03 67.26
  Q 29.43 67.87 29.94 68.56
  L 34.34 74.39
  A 0.90 0.90 0.0 0 0 35.62 74.55
  Q 38.61 72.12 42.50 70.02
  C 47.73 67.20 51.90 78.80 52.93 82.06
  C 58.01 98.09 60.43 115.17 67.87 130.38
  Q 70.00 134.71 73.41 138.08
  C 82.30 146.84 95.53 136.69 102.37 130.62
  C 118.75 116.06 134.59 96.24 142.29 75.51
  C 146.23 64.91 146.11 42.02 129.99 41.08
  C 111.51 40.00 101.81 50.80 96.14 66.95
  A 0.47 0.46 -2.1 0 0 96.77 67.53
  Q 99.53 66.32 102.74 66.15
  C 116.34 65.41 111.35 80.12 108.17 86.69
  Z" fill="#00adef"></path>
<path d="M 108.17 86.69
  C 111.35 80.12 116.34 65.41 102.74 66.15
  Q 99.53 66.32 96.77 67.53
  A 0.47 0.46 -2.1 0 1 96.14 66.95
  C 101.81 50.80 111.51 40.00 129.99 41.08
  C 146.11 42.02 146.23 64.91 142.29 75.51
  C 134.59 96.24 118.75 116.06 102.37 130.62
  C 95.53 136.69 82.30 146.84 73.41 138.08
  Q 70.00 134.71 67.87 130.38
  C 60.43 115.17 58.01 98.09 52.93 82.06
  C 51.90 78.80 47.73 67.20 42.50 70.02
  Q 38.61 72.12 35.62 74.55
  A 0.90 0.90 0.0 0 1 34.34 74.39
  L 29.94 68.56
  Q 29.43 67.87 30.03 67.26
  C 37.36 59.85 58.07 40.26 68.06 42.94
  C 77.38 45.43 80.44 62.52 81.81 71.46
  Q 83.19 80.35 84.60 89.24
  C 85.26 93.39 87.81 111.75 96.37 103.35
  Q 103.50 96.35 108.17 86.69
  Z" fill="#ffffff"></path>
</svg>
