<svg viewBox="0.00 0.00 32.00 32.00" version="1.1" xmlns="http://www.w3.org/2000/svg">
<g stroke-linecap="butt" fill="none" stroke-width="2.00">
<path d="M 28.14 6.58
  L 10.83 6.58
  Q 8.23 6.58 7.68 9.12
  L 4.04 26.03" stroke="#1d68fd"></path>
<path d="M 4.04 26.03
  Q 4.05 26.24 3.82 26.46" stroke="#80bbf9"></path>
<path d="M 28.46 6.70
  L 24.19 24.48
  A 2.64 2.63 6.6 0 1 21.64 26.50
  L 13.60 26.53" stroke="#8d2bea"></path>
<path d="M 13.60 26.53
  Q 8.78 26.54 4.70 26.43
  Q 4.47 26.43 4.32 26.32
  Q 4.18 26.20 4.04 26.03" stroke="#9c53fb"></path>
<path d="M 21.22 18.26
  Q 20.50 18.52 19.61 17.76
  A 0.50 0.50 0.0 0 0 18.85 17.88
  L 18.66 18.21
  Q 18.26 18.89 18.93 19.29
  Q 21.89 21.08 23.92 18.39
  A 1.36 1.36 0.0 0 0 23.45 16.36
  L 21.37 15.31
  A 0.40 0.40 0.0 0 1 21.53 14.56
  Q 22.59 14.51 23.63 14.79
  A 0.48 0.48 0.0 0 0 24.24 14.32
  L 24.23 13.97
  Q 24.22 13.40 23.68 13.21
  Q 20.09 11.91 19.13 15.27
  A 0.77 0.76 24.4 0 0 19.46 16.13
  L 21.32 17.28
  Q 22.28 17.87 21.22 18.26" stroke="#9c80ff"></path>
<path d="M 14.96 16.25
  L 14.63 14.36
  Q 14.18 11.71 12.67 13.90
  Q 12.28 14.47 11.76 15.86
  Q 11.05 17.78 10.77 15.76
  L 10.49 13.76
  Q 10.38 12.98 9.59 13.02
  L 9.29 13.03
  Q 8.38 13.07 8.56 13.96
  L 9.58 19.23
  Q 9.68 19.71 10.16 19.75
  Q 10.75 19.80 11.30 19.58
  Q 11.78 19.39 11.90 18.88
  Q 12.19 17.66 13.06 16.77
  Q 13.65 16.16 13.72 17.01
  L 13.87 18.77
  A 1.11 1.09 -72.6 0 0 14.25 19.51
  Q 15.39 20.47 16.03 19.26
  Q 17.47 16.48 18.68 13.81
  A 0.55 0.54 -78.2 0 0 18.18 13.04
  L 17.85 13.04
  Q 17.03 13.05 16.70 13.80
  L 15.58 16.33
  Q 15.14 17.33 14.96 16.25" stroke="#9c80ff"></path>
<path d="M 11.36 30.48
  L 13.60 26.53" stroke="#f07ee5"></path>
</g>
<path d="M 28.14 6.58
  L 10.83 6.58
  Q 8.23 6.58 7.68 9.12
  L 4.04 26.03
  Q 4.05 26.24 3.82 26.46
  Q 1.38 26.74 0.00 24.58
  L 0.00 22.84
  L 3.88 5.92
  A 4.76 4.75 6.4 0 1 8.52 2.22
  Q 16.33 2.22 24.69 2.22
  C 27.78 2.22 28.85 3.53 28.14 6.58
  Z" fill="#00d0fb"></path>
<path d="M 28.14 6.58
  Q 28.15 6.28 28.46 6.70
  L 24.19 24.48
  A 2.64 2.63 6.6 0 1 21.64 26.50
  L 13.60 26.53
  Q 8.78 26.54 4.70 26.43
  Q 4.47 26.43 4.32 26.32
  Q 4.18 26.20 4.04 26.03
  L 7.68 9.12
  Q 8.23 6.58 10.83 6.58
  L 28.14 6.58
  Z
  M 21.22 18.26
  Q 20.50 18.52 19.61 17.76
  A 0.50 0.50 0.0 0 0 18.85 17.88
  L 18.66 18.21
  Q 18.26 18.89 18.93 19.29
  Q 21.89 21.08 23.92 18.39
  A 1.36 1.36 0.0 0 0 23.45 16.36
  L 21.37 15.31
  A 0.40 0.40 0.0 0 1 21.53 14.56
  Q 22.59 14.51 23.63 14.79
  A 0.48 0.48 0.0 0 0 24.24 14.32
  L 24.23 13.97
  Q 24.22 13.40 23.68 13.21
  Q 20.09 11.91 19.13 15.27
  A 0.77 0.76 24.4 0 0 19.46 16.13
  L 21.32 17.28
  Q 22.28 17.87 21.22 18.26
  Z
  M 14.96 16.25
  L 14.63 14.36
  Q 14.18 11.71 12.67 13.90
  Q 12.28 14.47 11.76 15.86
  Q 11.05 17.78 10.77 15.76
  L 10.49 13.76
  Q 10.38 12.98 9.59 13.02
  L 9.29 13.03
  Q 8.38 13.07 8.56 13.96
  L 9.58 19.23
  Q 9.68 19.71 10.16 19.75
  Q 10.75 19.80 11.30 19.58
  Q 11.78 19.39 11.90 18.88
  Q 12.19 17.66 13.06 16.77
  Q 13.65 16.16 13.72 17.01
  L 13.87 18.77
  A 1.11 1.09 -72.6 0 0 14.25 19.51
  Q 15.39 20.47 16.03 19.26
  Q 17.47 16.48 18.68 13.81
  A 0.55 0.54 -78.2 0 0 18.18 13.04
  L 17.85 13.04
  Q 17.03 13.05 16.70 13.80
  L 15.58 16.33
  Q 15.14 17.33 14.96 16.25
  Z" fill="#3900ff"></path>
<path d="M 28.46 6.70
  Q 31.24 6.46 32.00 9.15
  L 32.00 9.71
  L 28.04 27.67
  A 3.62 3.60 6.2 0 1 24.51 30.50
  L 11.36 30.48
  L 13.60 26.53
  L 21.64 26.50
  A 2.64 2.63 6.6 0 0 24.19 24.48
  L 28.46 6.70
  Z" fill="#e156d4"></path>
<path d="M 21.22 18.26
  Q 22.28 17.87 21.32 17.28
  L 19.46 16.13
  A 0.77 0.76 24.4 0 1 19.13 15.27
  Q 20.09 11.91 23.68 13.21
  Q 24.22 13.40 24.23 13.97
  L 24.24 14.32
  A 0.48 0.48 0.0 0 1 23.63 14.79
  Q 22.59 14.51 21.53 14.56
  A 0.40 0.40 0.0 0 0 21.37 15.31
  L 23.45 16.36
  A 1.36 1.36 0.0 0 1 23.92 18.39
  Q 21.89 21.08 18.93 19.29
  Q 18.26 18.89 18.66 18.21
  L 18.85 17.88
  A 0.50 0.50 0.0 0 1 19.61 17.76
  Q 20.50 18.52 21.22 18.26
  Z" fill="#fffffe"></path>
<path d="M 15.58 16.33
  L 16.70 13.80
  Q 17.03 13.05 17.85 13.04
  L 18.18 13.04
  A 0.55 0.54 -78.2 0 1 18.68 13.81
  Q 17.47 16.48 16.03 19.26
  Q 15.39 20.47 14.25 19.51
  A 1.11 1.09 -72.6 0 1 13.87 18.77
  L 13.72 17.01
  Q 13.65 16.16 13.06 16.77
  Q 12.19 17.66 11.90 18.88
  Q 11.78 19.39 11.30 19.58
  Q 10.75 19.80 10.16 19.75
  Q 9.68 19.71 9.58 19.23
  L 8.56 13.96
  Q 8.38 13.07 9.29 13.03
  L 9.59 13.02
  Q 10.38 12.98 10.49 13.76
  L 10.77 15.76
  Q 11.05 17.78 11.76 15.86
  Q 12.28 14.47 12.67 13.90
  Q 14.18 11.71 14.63 14.36
  L 14.96 16.25
  Q 15.14 17.33 15.58 16.33
  Z" fill="#fffffe"></path>
<path d="M 4.04 26.03
  Q 4.18 26.20 4.32 26.32
  Q 4.47 26.43 4.70 26.43
  Q 8.78 26.54 13.60 26.53
  L 11.36 30.48
  L 5.75 30.52
  A 2.10 2.10 0.0 0 1 3.83 27.54
  Q 4.14 26.87 3.82 26.46
  Q 4.05 26.24 4.04 26.03
  Z" fill="#ffa5f6"></path>
</svg>
