<svg viewBox="0.00 0.00 256.00 256.00" version="1.1" xmlns="http://www.w3.org/2000/svg">
<path d="M 59.36 0.00
  L 196.47 0.00
  Q 220.07 1.65 234.44 18.79
  C 253.40 41.41 253.40 79.36 233.73 101.43
  Q 220.93 115.78 200.75 118.76
  A 0.35 0.35 0.0 0 0 200.55 119.35
  Q 212.23 131.55 223.84 143.76
  Q 235.97 156.52 237.44 158.42
  C 264.36 193.16 243.06 251.65 196.95 255.00
  Q 190.09 255.50 186.24 255.06
  C 167.80 252.97 152.27 238.15 140.34 225.16
  Q 130.58 214.54 120.52 203.76
  A 0.51 0.50 -63.9 0 0 119.65 204.06
  C 116.27 237.11 86.21 258.46 54.43 253.35
  C 30.93 249.57 13.12 233.21 8.10 209.83
  Q 6.70 203.30 6.69 190.54
  Q 6.65 127.93 6.70 65.30
  Q 6.71 52.22 8.14 45.80
  C 13.73 20.72 33.68 2.91 59.36 0.00
  Z
  M 85.9308 58.1292
  A 21.82 21.82 0.0 0 0 64.1489 36.2711
  L 63.0089 36.2691
  A 21.82 21.82 0.0 0 0 41.1508 58.0510
  L 40.9092 196.4908
  A 21.82 21.82 0.0 0 0 62.6911 218.3489
  L 63.8311 218.3509
  A 21.82 21.82 0.0 0 0 85.6892 196.5690
  L 85.9308 58.1292
  Z
  M 206.30 78.82
  C 218.75 68.27 217.32 42.72 200.29 37.12
  Q 196.91 36.01 187.58 36.01
  Q 151.93 36.04 116.36 35.99
  A 0.48 0.48 0.0 0 0 115.92 36.66
  C 121.77 50.01 120.33 68.46 120.23 82.75
  A 0.38 0.38 0.0 0 0 120.61 83.13
  Q 155.42 83.27 190.31 83.18
  C 196.77 83.16 201.80 82.64 206.30 78.82
  Z
  M 215.12 197.87
  C 216.56 187.97 212.04 182.21 205.69 175.56
  Q 179.16 147.82 152.92 120.25
  A 3.49 3.45 68.0 0 0 150.41 119.17
  L 120.53 119.18
  A 0.29 0.29 0.0 0 0 120.24 119.47
  L 120.25 152.24
  Q 120.25 152.74 120.60 153.11
  Q 146.89 180.58 173.10 208.15
  Q 179.89 215.29 183.83 217.25
  C 197.42 223.99 213.10 211.84 215.12 197.87
  Z" fill="#473ff4"></path>
</svg>
