<svg viewBox="0.00 0.00 152.00 152.00" version="1.1" xmlns="http://www.w3.org/2000/svg">
<g stroke-linecap="butt" fill="none" stroke-width="2.00">
<path d="M 80.01 20.79
  A 0.79 0.79 0.0 0 1 80.80 20.00
  L 135.21 19.99
  A 0.79 0.79 0.0 0 0 136.00 19.20
  L 136.00 12.81
  A 0.79 0.79 0.0 0 0 135.21 12.02
  L 72.79 12.00
  A 0.79 0.79 0.0 0 0 72.00 12.79
  L 72.00 71.22
  A 0.79 0.79 0.0 0 1 71.21 72.01
  L 12.79 72.01
  A 0.79 0.79 0.0 0 0 12.00 72.80
  L 11.99 139.21
  A 0.79 0.79 0.0 0 0 12.78 140.00
  L 79.21 140.00
  A 0.79 0.79 0.0 0 0 80.00 139.21
  L 79.99 80.79
  A 0.79 0.79 0.0 0 1 80.78 80.00
  L 135.21 79.99
  A 0.79 0.79 0.0 0 0 136.00 79.20
  L 135.99 72.81
  A 0.79 0.79 0.0 0 0 135.20 72.02
  L 80.76 72.05
  A 0.79 0.79 0.0 0 1 79.97 71.26
  L 80.01 20.79" stroke="#808080"></path>
<path d="M 72.00 80.64
  A 0.64 0.64 0.0 0 0 71.36 80.00
  L 20.64 80.00
  A 0.64 0.64 0.0 0 0 20.00 80.64
  L 20.00 131.36
  A 0.64 0.64 0.0 0 0 20.64 132.00
  L 71.36 132.00
  A 0.64 0.64 0.0 0 0 72.00 131.36
  L 72.00 80.64" stroke="#808080"></path>
</g>
<path d="M 0.00 0.00
  L 152.00 0.00
  L 152.00 152.00
  L 0.00 152.00
  L 0.00 0.00
  Z
  M 80.01 20.79
  A 0.79 0.79 0.0 0 1 80.80 20.00
  L 135.21 19.99
  A 0.79 0.79 0.0 0 0 136.00 19.20
  L 136.00 12.81
  A 0.79 0.79 0.0 0 0 135.21 12.02
  L 72.79 12.00
  A 0.79 0.79 0.0 0 0 72.00 12.79
  L 72.00 71.22
  A 0.79 0.79 0.0 0 1 71.21 72.01
  L 12.79 72.01
  A 0.79 0.79 0.0 0 0 12.00 72.80
  L 11.99 139.21
  A 0.79 0.79 0.0 0 0 12.78 140.00
  L 79.21 140.00
  A 0.79 0.79 0.0 0 0 80.00 139.21
  L 79.99 80.79
  A 0.79 0.79 0.0 0 1 80.78 80.00
  L 135.21 79.99
  A 0.79 0.79 0.0 0 0 136.00 79.20
  L 135.99 72.81
  A 0.79 0.79 0.0 0 0 135.20 72.02
  L 80.76 72.05
  A 0.79 0.79 0.0 0 1 79.97 71.26
  L 80.01 20.79
  Z" fill="#000000"></path>
<path d="M 80.01 20.79
  L 79.97 71.26
  A 0.79 0.79 0.0 0 0 80.76 72.05
  L 135.20 72.02
  A 0.79 0.79 0.0 0 1 135.99 72.81
  L 136.00 79.20
  A 0.79 0.79 0.0 0 1 135.21 79.99
  L 80.78 80.00
  A 0.79 0.79 0.0 0 0 79.99 80.79
  L 80.00 139.21
  A 0.79 0.79 0.0 0 1 79.21 140.00
  L 12.78 140.00
  A 0.79 0.79 0.0 0 1 11.99 139.21
  L 12.00 72.80
  A 0.79 0.79 0.0 0 1 12.79 72.01
  L 71.21 72.01
  A 0.79 0.79 0.0 0 0 72.00 71.22
  L 72.00 12.79
  A 0.79 0.79 0.0 0 1 72.79 12.00
  L 135.21 12.02
  A 0.79 0.79 0.0 0 1 136.00 12.81
  L 136.00 19.20
  A 0.79 0.79 0.0 0 1 135.21 19.99
  L 80.80 20.00
  A 0.79 0.79 0.0 0 0 80.01 20.79
  Z
  M 72.00 80.64
  A 0.64 0.64 0.0 0 0 71.36 80.00
  L 20.64 80.00
  A 0.64 0.64 0.0 0 0 20.00 80.64
  L 20.00 131.36
  A 0.64 0.64 0.0 0 0 20.64 132.00
  L 71.36 132.00
  A 0.64 0.64 0.0 0 0 72.00 131.36
  L 72.00 80.64
  Z" fill="#ffffff"></path>
<rect rx="0.64" height="52.00" width="52.00" y="80.00" x="20.00" fill="#000000"></rect>
</svg>
