<svg viewBox="0.00 0.00 512.00 512.00" version="1.1" xmlns="http://www.w3.org/2000/svg">
<g stroke-linecap="butt" fill="none" stroke-width="2.00">
<path d="M 286.43 75.89
  A 10.64 10.64 0.0 0 0 275.79 65.25
  A 10.64 10.64 0.0 0 0 265.15 75.89
  A 10.64 10.64 0.0 0 0 275.79 86.53
  A 10.64 10.64 0.0 0 0 286.43 75.89" stroke="#bbc5fd"></path>
<path d="M 164.96 96.58
  A 17.04 17.04 0.0 0 0 147.92 79.54
  A 17.04 17.04 0.0 0 0 130.88 96.58
  A 17.04 17.04 0.0 0 0 147.92 113.62
  A 17.04 17.04 0.0 0 0 164.96 96.58" stroke="#fff2b0"></path>
<path d="M 346.43 128.74
  A 20.63 20.63 0.0 0 0 325.80 108.11
  A 20.63 20.63 0.0 0 0 305.17 128.74
  A 20.63 20.63 0.0 0 0 325.80 149.37
  A 20.63 20.63 0.0 0 0 346.43 128.74" stroke="#fcb6d7"></path>
<path d="M 216.41 136.73
  A 8.32 8.32 0.0 0 0 208.09 128.41
  A 8.32 8.32 0.0 0 0 199.77 136.73
  A 8.32 8.32 0.0 0 0 208.09 145.05
  A 8.32 8.32 0.0 0 0 216.41 136.73" stroke="#f6bbfd"></path>
<path d="M 89.25 163.89
  A 8.33 8.33 0.0 0 0 80.92 155.56
  A 8.33 8.33 0.0 0 0 72.59 163.89
  A 8.33 8.33 0.0 0 0 80.92 172.22
  A 8.33 8.33 0.0 0 0 89.25 163.89" stroke="#bdfec9"></path>
<path d="M 285.02 187.34
  A 10.64 10.64 0.0 0 0 274.38 176.70
  A 10.64 10.64 0.0 0 0 263.74 187.34
  A 10.64 10.64 0.0 0 0 274.38 197.98
  A 10.64 10.64 0.0 0 0 285.02 187.34" stroke="#9fe2fe"></path>
<path d="M 322.47 210.71
  Q 288.67 234.55 260.58 265.05" stroke="#fe9dcd"></path>
<path d="M 260.58 265.05
  Q 256.18 268.32 256.18 273.50
  Q 256.18 316.14 256.13 358.78" stroke="#f29cc8"></path>
<path d="M 256.13 358.78
  Q 255.93 398.77 256.16 438.75
  C 256.20 447.04 255.38 458.38 256.06 465.74
  C 256.38 469.19 259.86 468.57 261.64 466.68
  C 282.95 444.03 306.19 423.97 332.50 406.82" stroke="#e49ac1"></path>
<path d="M 332.50 406.82
  Q 357.56 390.60 386.66 379.95
  Q 391.23 378.27 391.24 374.25
  Q 391.29 305.11 391.23 235.95" stroke="#fe9dcd"></path>
<path d="M 391.23 235.95
  Q 391.32 209.69 391.22 183.42
  C 391.20 177.51 388.97 175.94 383.22 178.17
  Q 350.89 190.73 322.47 210.71" stroke="#fcb6d7"></path>
<path d="M 391.23 235.95
  Q 390.77 236.11 390.38 236.49
  Q 390.02 236.83 389.57 236.63
  C 384.95 234.65 380.30 231.99 376.03 230.18
  C 362.48 224.44 354.60 221.03 343.00 217.99
  Q 336.77 216.36 328.76 213.69
  C 327.42 213.24 325.64 213.38 324.15 211.98
  Q 323.77 211.62 323.24 211.62
  L 322.79 211.62
  Q 322.44 211.62 322.52 211.28
  Q 322.63 210.80 322.47 210.71" stroke="#fb54a5"></path>
<path d="M 332.50 406.82
  Q 328.03 401.82 323.33 397.10
  C 312.97 386.67 304.98 376.22 298.76 362.80" stroke="#e3388f"></path>
<path d="M 298.76 362.80
  C 296.42 356.84 294.45 351.79 291.45 345.18
  Q 280.68 321.49 281.69 295.37
  Q 281.76 293.60 282.58 287.19
  Q 283.00 283.93 283.41 279.00
  Q 283.48 278.14 283.89 276.00
  C 284.28 273.91 283.51 272.40 283.56 270.25
  A 0.89 0.88 -72.3 0 0 283.18 269.50
  Q 279.88 267.23 277.25 267.15
  Q 270.37 266.95 263.51 266.79
  Q 262.56 266.76 261.92 265.66
  Q 261.77 265.41 261.50 265.51
  Q 261.31 265.59 261.11 265.54
  Q 260.98 265.51 260.98 265.38
  Q 260.97 265.24 261.09 265.15
  Q 261.13 265.12 261.09 265.12
  L 260.58 265.05" stroke="#f13a96"></path>
<path d="M 298.76 362.80
  Q 295.01 364.01 292.01 364.02
  Q 281.38 364.05 270.75 364.32
  Q 261.69 364.54 257.50 365.31
  Q 257.42 365.32 257.37 365.26
  Q 257.28 365.17 257.19 365.08
  A 0.10 0.10 0.0 0 0 257.03 365.11
  Q 256.22 366.90 256.41 368.86
  Q 256.41 368.88 256.39 368.88
  Q 256.38 368.88 256.38 368.88
  Q 256.34 368.88 256.34 368.84
  L 256.13 358.78" stroke="#d63689"></path>
<path d="M 179.10 409.40
  Q 215.36 433.61 247.47 468.03
  C 249.28 469.97 252.48 469.18 252.48 466.00
  Q 252.60 377.02 252.49 288.04" stroke="#9ddaf3"></path>
<path d="M 252.49 288.04
  C 252.55 283.51 252.40 278.97 252.56 274.45
  Q 252.69 270.69 250.12 267.89
  C 214.51 229.15 173.13 197.40 123.65 178.44
  C 119.03 176.67 117.29 180.02 117.30 184.00
  Q 117.42 275.82 117.39 367.64
  C 117.39 371.91 116.18 378.43 121.25 380.31
  Q 152.00 391.65 179.10 409.40" stroke="#9fe2fe"></path>
<path d="M 252.49 288.04
  L 251.35 292.79
  Q 251.33 292.90 251.22 292.89
  Q 251.04 292.88 250.90 292.83
  Q 250.62 292.72 250.42 292.95
  C 248.43 295.22 244.57 295.58 241.74 295.36
  Q 241.11 295.31 241.12 295.95
  Q 241.12 296.11 241.12 296.26
  A 0.35 0.35 0.0 0 1 240.82 296.61
  L 225.54 298.95
  A 1.21 1.20 -2.2 0 0 224.53 300.03
  C 224.24 303.35 224.47 306.90 224.12 310.04
  Q 223.49 315.77 222.77 321.48
  Q 219.13 350.64 205.11 376.40
  C 198.14 389.21 189.32 399.17 179.10 409.40" stroke="#3dbcf2"></path>
<path d="M 350.58 426.34
  Q 388.12 410.95 429.48 408.31
  Q 435.10 407.95 435.11 402.50
  Q 435.15 310.63 435.08 218.75
  C 435.08 214.08 436.75 205.11 429.25 205.41
  Q 417.84 205.85 406.45 207.22
  Q 405.76 207.30 405.76 208.00
  L 405.75 387.74
  A 1.08 1.07 -9.0 0 1 405.00 388.76
  Q 354.31 404.76 313.29 438.53
  Q 296.37 452.46 283.42 464.97
  Q 283.38 465.00 283.42 465.04
  L 283.58 465.23
  Q 283.77 465.45 284.00 465.27
  Q 315.00 440.92 350.58 426.34" stroke="#f6bbfd"></path>
<path d="M 103.71 389.46
  A 1.02 1.01 8.5 0 1 102.99 388.49
  L 103.00 209.02
  A 0.99 0.98 4.1 0 0 102.15 208.05
  Q 91.55 206.50 80.89 206.16
  C 77.29 206.05 73.65 206.82 73.65 211.00
  Q 73.61 307.00 73.56 403.00
  C 73.55 407.67 76.49 408.75 80.75 409.04
  C 133.90 412.64 182.65 433.17 224.68 465.50
  Q 224.83 465.62 224.96 465.47
  L 224.97 465.46
  Q 225.10 465.31 224.95 465.17
  Q 212.12 453.11 206.40 448.10
  C 176.35 421.80 141.95 401.27 103.71 389.46" stroke="#bdfec9"></path>
<path d="M 448.76 421.74
  Q 430.89 422.50 422.50 423.29
  Q 377.15 427.56 336.72 448.31
  Q 336.58 448.38 336.64 448.52
  L 336.65 448.52
  Q 336.71 448.66 336.85 448.61
  C 380.89 431.97 427.69 429.61 472.97 443.11
  C 477.91 444.58 480.23 441.55 480.23 437.00
  Q 480.24 342.00 480.30 247.00
  Q 480.30 242.34 475.49 241.07
  Q 462.82 237.73 450.26 236.33
  Q 449.25 236.22 449.25 237.23
  L 449.26 421.22
  Q 449.26 421.72 448.76 421.74" stroke="#bbc5fd"></path>
<path d="M 171.07 448.86
  L 171.07 448.85
  Q 171.15 448.66 170.96 448.56
  Q 135.75 430.75 96.86 425.20
  C 85.40 423.56 72.49 423.06 60.27 422.60
  A 1.11 1.10 -88.9 0 1 59.21 421.49
  L 59.21 238.22
  A 1.09 1.09 0.0 0 0 58.00 237.14
  Q 44.41 238.70 32.02 242.11
  Q 28.03 243.21 28.03 247.50
  Q 28.05 343.00 28.03 438.49
  C 28.03 444.28 32.39 444.54 36.91 443.31
  Q 47.33 440.48 52.00 439.50
  C 91.77 431.14 132.76 434.54 170.78 448.98
  Q 170.98 449.06 171.07 448.86" stroke="#fff2b0"></path>
</g>
<path d="M 0.00 0.00
  L 512.00 0.00
  L 512.00 512.00
  L 0.00 512.00
  L 0.00 0.00
  Z
  M 286.43 75.89
  A 10.64 10.64 0.0 0 0 275.79 65.25
  A 10.64 10.64 0.0 0 0 265.15 75.89
  A 10.64 10.64 0.0 0 0 275.79 86.53
  A 10.64 10.64 0.0 0 0 286.43 75.89
  Z
  M 164.96 96.58
  A 17.04 17.04 0.0 0 0 147.92 79.54
  A 17.04 17.04 0.0 0 0 130.88 96.58
  A 17.04 17.04 0.0 0 0 147.92 113.62
  A 17.04 17.04 0.0 0 0 164.96 96.58
  Z
  M 346.43 128.74
  A 20.63 20.63 0.0 0 0 325.80 108.11
  A 20.63 20.63 0.0 0 0 305.17 128.74
  A 20.63 20.63 0.0 0 0 325.80 149.37
  A 20.63 20.63 0.0 0 0 346.43 128.74
  Z
  M 216.41 136.73
  A 8.32 8.32 0.0 0 0 208.09 128.41
  A 8.32 8.32 0.0 0 0 199.77 136.73
  A 8.32 8.32 0.0 0 0 208.09 145.05
  A 8.32 8.32 0.0 0 0 216.41 136.73
  Z
  M 89.25 163.89
  A 8.33 8.33 0.0 0 0 80.92 155.56
  A 8.33 8.33 0.0 0 0 72.59 163.89
  A 8.33 8.33 0.0 0 0 80.92 172.22
  A 8.33 8.33 0.0 0 0 89.25 163.89
  Z
  M 285.02 187.34
  A 10.64 10.64 0.0 0 0 274.38 176.70
  A 10.64 10.64 0.0 0 0 263.74 187.34
  A 10.64 10.64 0.0 0 0 274.38 197.98
  A 10.64 10.64 0.0 0 0 285.02 187.34
  Z
  M 322.47 210.71
  Q 288.67 234.55 260.58 265.05
  Q 256.18 268.32 256.18 273.50
  Q 256.18 316.14 256.13 358.78
  Q 255.93 398.77 256.16 438.75
  C 256.20 447.04 255.38 458.38 256.06 465.74
  C 256.38 469.19 259.86 468.57 261.64 466.68
  C 282.95 444.03 306.19 423.97 332.50 406.82
  Q 357.56 390.60 386.66 379.95
  Q 391.23 378.27 391.24 374.25
  Q 391.29 305.11 391.23 235.95
  Q 391.32 209.69 391.22 183.42
  C 391.20 177.51 388.97 175.94 383.22 178.17
  Q 350.89 190.73 322.47 210.71
  Z
  M 179.10 409.40
  Q 215.36 433.61 247.47 468.03
  C 249.28 469.97 252.48 469.18 252.48 466.00
  Q 252.60 377.02 252.49 288.04
  C 252.55 283.51 252.40 278.97 252.56 274.45
  Q 252.69 270.69 250.12 267.89
  C 214.51 229.15 173.13 197.40 123.65 178.44
  C 119.03 176.67 117.29 180.02 117.30 184.00
  Q 117.42 275.82 117.39 367.64
  C 117.39 371.91 116.18 378.43 121.25 380.31
  Q 152.00 391.65 179.10 409.40
  Z
  M 350.58 426.34
  Q 388.12 410.95 429.48 408.31
  Q 435.10 407.95 435.11 402.50
  Q 435.15 310.63 435.08 218.75
  C 435.08 214.08 436.75 205.11 429.25 205.41
  Q 417.84 205.85 406.45 207.22
  Q 405.76 207.30 405.76 208.00
  L 405.75 387.74
  A 1.08 1.07 -9.0 0 1 405.00 388.76
  Q 354.31 404.76 313.29 438.53
  Q 296.37 452.46 283.42 464.97
  Q 283.38 465.00 283.42 465.04
  L 283.58 465.23
  Q 283.77 465.45 284.00 465.27
  Q 315.00 440.92 350.58 426.34
  Z
  M 103.71 389.46
  A 1.02 1.01 8.5 0 1 102.99 388.49
  L 103.00 209.02
  A 0.99 0.98 4.1 0 0 102.15 208.05
  Q 91.55 206.50 80.89 206.16
  C 77.29 206.05 73.65 206.82 73.65 211.00
  Q 73.61 307.00 73.56 403.00
  C 73.55 407.67 76.49 408.75 80.75 409.04
  C 133.90 412.64 182.65 433.17 224.68 465.50
  Q 224.83 465.62 224.96 465.47
  L 224.97 465.46
  Q 225.10 465.31 224.95 465.17
  Q 212.12 453.11 206.40 448.10
  C 176.35 421.80 141.95 401.27 103.71 389.46
  Z
  M 448.76 421.74
  Q 430.89 422.50 422.50 423.29
  Q 377.15 427.56 336.72 448.31
  Q 336.58 448.38 336.64 448.52
  L 336.65 448.52
  Q 336.71 448.66 336.85 448.61
  C 380.89 431.97 427.69 429.61 472.97 443.11
  C 477.91 444.58 480.23 441.55 480.23 437.00
  Q 480.24 342.00 480.30 247.00
  Q 480.30 242.34 475.49 241.07
  Q 462.82 237.73 450.26 236.33
  Q 449.25 236.22 449.25 237.23
  L 449.26 421.22
  Q 449.26 421.72 448.76 421.74
  Z
  M 171.07 448.86
  L 171.07 448.85
  Q 171.15 448.66 170.96 448.56
  Q 135.75 430.75 96.86 425.20
  C 85.40 423.56 72.49 423.06 60.27 422.60
  A 1.11 1.10 -88.9 0 1 59.21 421.49
  L 59.21 238.22
  A 1.09 1.09 0.0 0 0 58.00 237.14
  Q 44.41 238.70 32.02 242.11
  Q 28.03 243.21 28.03 247.50
  Q 28.05 343.00 28.03 438.49
  C 28.03 444.28 32.39 444.54 36.91 443.31
  Q 47.33 440.48 52.00 439.50
  C 91.77 431.14 132.76 434.54 170.78 448.98
  Q 170.98 449.06 171.07 448.86
  Z" fill="#ffffff"></path>
<circle r="10.64" cy="75.89" cx="275.79" fill="#768bfa"></circle>
<circle r="17.04" cy="96.58" cx="147.92" fill="#ffe460"></circle>
<circle r="20.63" cy="128.74" cx="325.80" fill="#f96dae"></circle>
<circle r="8.32" cy="136.73" cx="208.09" fill="#ec77fb"></circle>
<circle r="8.33" cy="163.89" cx="80.92" fill="#7bfc92"></circle>
<circle r="10.64" cy="187.34" cx="274.38" fill="#3ec4fc"></circle>
<path d="M 391.23 235.95
  Q 390.77 236.11 390.38 236.49
  Q 390.02 236.83 389.57 236.63
  C 384.95 234.65 380.30 231.99 376.03 230.18
  C 362.48 224.44 354.60 221.03 343.00 217.99
  Q 336.77 216.36 328.76 213.69
  C 327.42 213.24 325.64 213.38 324.15 211.98
  Q 323.77 211.62 323.24 211.62
  L 322.79 211.62
  Q 322.44 211.62 322.52 211.28
  Q 322.63 210.80 322.47 210.71
  Q 350.89 190.73 383.22 178.17
  C 388.97 175.94 391.20 177.51 391.22 183.42
  Q 391.32 209.69 391.23 235.95
  Z" fill="#f96dae"></path>
<path d="M 252.49 288.04
  L 251.35 292.79
  Q 251.33 292.90 251.22 292.89
  Q 251.04 292.88 250.90 292.83
  Q 250.62 292.72 250.42 292.95
  C 248.43 295.22 244.57 295.58 241.74 295.36
  Q 241.11 295.31 241.12 295.95
  Q 241.12 296.11 241.12 296.26
  A 0.35 0.35 0.0 0 1 240.82 296.61
  L 225.54 298.95
  A 1.21 1.20 -2.2 0 0 224.53 300.03
  C 224.24 303.35 224.47 306.90 224.12 310.04
  Q 223.49 315.77 222.77 321.48
  Q 219.13 350.64 205.11 376.40
  C 198.14 389.21 189.32 399.17 179.10 409.40
  Q 152.00 391.65 121.25 380.31
  C 116.18 378.43 117.39 371.91 117.39 367.64
  Q 117.42 275.82 117.30 184.00
  C 117.29 180.02 119.03 176.67 123.65 178.44
  C 173.13 197.40 214.51 229.15 250.12 267.89
  Q 252.69 270.69 252.56 274.45
  C 252.40 278.97 252.55 283.51 252.49 288.04
  Z" fill="#3ec4fc"></path>
<path d="M 350.58 426.34
  Q 315.00 440.92 284.00 465.27
  Q 283.77 465.45 283.58 465.23
  L 283.42 465.04
  Q 283.38 465.00 283.42 464.97
  Q 296.37 452.46 313.29 438.53
  Q 354.31 404.76 405.00 388.76
  A 1.08 1.07 -9.0 0 0 405.75 387.74
  L 405.76 208.00
  Q 405.76 207.30 406.45 207.22
  Q 417.84 205.85 429.25 205.41
  C 436.75 205.11 435.08 214.08 435.08 218.75
  Q 435.15 310.63 435.11 402.50
  Q 435.10 407.95 429.48 408.31
  Q 388.12 410.95 350.58 426.34
  Z" fill="#ec77fb"></path>
<path d="M 103.71 389.46
  C 141.95 401.27 176.35 421.80 206.40 448.10
  Q 212.12 453.11 224.95 465.17
  Q 225.10 465.31 224.97 465.46
  L 224.96 465.47
  Q 224.83 465.62 224.68 465.50
  C 182.65 433.17 133.90 412.64 80.75 409.04
  C 76.49 408.75 73.55 407.67 73.56 403.00
  Q 73.61 307.00 73.65 211.00
  C 73.65 206.82 77.29 206.05 80.89 206.16
  Q 91.55 206.50 102.15 208.05
  A 0.99 0.98 4.1 0 1 103.00 209.02
  L 102.99 388.49
  A 1.02 1.01 8.5 0 0 103.71 389.46
  Z" fill="#7bfc92"></path>
<path d="M 322.47 210.71
  Q 322.63 210.80 322.52 211.28
  Q 322.44 211.62 322.79 211.62
  L 323.24 211.62
  Q 323.77 211.62 324.15 211.98
  C 325.64 213.38 327.42 213.24 328.76 213.69
  Q 336.77 216.36 343.00 217.99
  C 354.60 221.03 362.48 224.44 376.03 230.18
  C 380.30 231.99 384.95 234.65 389.57 236.63
  Q 390.02 236.83 390.38 236.49
  Q 390.77 236.11 391.23 235.95
  Q 391.29 305.11 391.24 374.25
  Q 391.23 378.27 386.66 379.95
  Q 357.56 390.60 332.50 406.82
  Q 328.03 401.82 323.33 397.10
  C 312.97 386.67 304.98 376.22 298.76 362.80
  C 296.42 356.84 294.45 351.79 291.45 345.18
  Q 280.68 321.49 281.69 295.37
  Q 281.76 293.60 282.58 287.19
  Q 283.00 283.93 283.41 279.00
  Q 283.48 278.14 283.89 276.00
  C 284.28 273.91 283.51 272.40 283.56 270.25
  A 0.89 0.88 -72.3 0 0 283.18 269.50
  Q 279.88 267.23 277.25 267.15
  Q 270.37 266.95 263.51 266.79
  Q 262.56 266.76 261.92 265.66
  Q 261.77 265.41 261.50 265.51
  Q 261.31 265.59 261.11 265.54
  Q 260.98 265.51 260.98 265.38
  Q 260.97 265.24 261.09 265.15
  Q 261.13 265.12 261.09 265.12
  L 260.58 265.05
  Q 288.67 234.55 322.47 210.71
  Z" fill="#fd3b9b"></path>
<path d="M 449.26 421.22
  L 449.25 237.23
  Q 449.25 236.22 450.26 236.33
  Q 462.82 237.73 475.49 241.07
  Q 480.30 242.34 480.30 247.00
  Q 480.24 342.00 480.23 437.00
  C 480.23 441.55 477.91 444.58 472.97 443.11
  C 427.69 429.61 380.89 431.97 336.85 448.61
  Q 336.71 448.66 336.65 448.52
  L 336.64 448.52
  Q 336.58 448.38 336.72 448.31
  Q 377.15 427.56 422.50 423.29
  Q 430.89 422.50 448.76 421.74
  Q 449.26 421.72 449.26 421.22
  Z" fill="#768bfa"></path>
<path d="M 170.78 448.98
  C 132.76 434.54 91.77 431.14 52.00 439.50
  Q 47.33 440.48 36.91 443.31
  C 32.39 444.54 28.03 444.28 28.03 438.49
  Q 28.05 343.00 28.03 247.50
  Q 28.03 243.21 32.02 242.11
  Q 44.41 238.70 58.00 237.14
  A 1.09 1.09 0.0 0 1 59.21 238.22
  L 59.21 421.49
  A 1.11 1.10 -88.9 0 0 60.27 422.60
  C 72.49 423.06 85.40 423.56 96.86 425.20
  Q 135.75 430.75 170.96 448.56
  Q 171.15 448.66 171.07 448.85
  L 171.07 448.86
  Q 170.98 449.06 170.78 448.98
  Z" fill="#ffe460"></path>
<path d="M 260.58 265.05
  L 261.09 265.12
  Q 261.13 265.12 261.09 265.15
  Q 260.97 265.24 260.98 265.38
  Q 260.98 265.51 261.11 265.54
  Q 261.31 265.59 261.50 265.51
  Q 261.77 265.41 261.92 265.66
  Q 262.56 266.76 263.51 266.79
  Q 270.37 266.95 277.25 267.15
  Q 279.88 267.23 283.18 269.50
  A 0.89 0.88 -72.3 0 1 283.56 270.25
  C 283.51 272.40 284.28 273.91 283.89 276.00
  Q 283.48 278.14 283.41 279.00
  Q 283.00 283.93 282.58 287.19
  Q 281.76 293.60 281.69 295.37
  Q 280.68 321.49 291.45 345.18
  C 294.45 351.79 296.42 356.84 298.76 362.80
  Q 295.01 364.01 292.01 364.02
  Q 281.38 364.05 270.75 364.32
  Q 261.69 364.54 257.50 365.31
  Q 257.42 365.32 257.37 365.26
  Q 257.28 365.17 257.19 365.08
  A 0.10 0.10 0.0 0 0 257.03 365.11
  Q 256.22 366.90 256.41 368.86
  Q 256.41 368.88 256.39 368.88
  Q 256.38 368.88 256.38 368.88
  Q 256.34 368.88 256.34 368.84
  L 256.13 358.78
  Q 256.18 316.14 256.18 273.50
  Q 256.18 268.32 260.58 265.05
  Z" fill="#e43890"></path>
<path d="M 252.49 288.04
  Q 252.60 377.02 252.48 466.00
  C 252.48 469.18 249.28 469.97 247.47 468.03
  Q 215.36 433.61 179.10 409.40
  C 189.32 399.17 198.14 389.21 205.11 376.40
  Q 219.13 350.64 222.77 321.48
  Q 223.49 315.77 224.12 310.04
  C 224.47 306.90 224.24 303.35 224.53 300.03
  A 1.21 1.20 -2.2 0 1 225.54 298.95
  L 240.82 296.61
  A 0.35 0.35 0.0 0 0 241.12 296.26
  Q 241.12 296.11 241.12 295.95
  Q 241.11 295.31 241.74 295.36
  C 244.57 295.58 248.43 295.22 250.42 292.95
  Q 250.62 292.72 250.90 292.83
  Q 251.04 292.88 251.22 292.89
  Q 251.33 292.90 251.35 292.79
  L 252.49 288.04
  Z" fill="#3bb4e7"></path>
<path d="M 256.13 358.78
  L 256.34 368.84
  Q 256.34 368.88 256.38 368.88
  Q 256.38 368.88 256.39 368.88
  Q 256.41 368.88 256.41 368.86
  Q 256.22 366.90 257.03 365.11
  A 0.10 0.10 0.0 0 1 257.19 365.08
  Q 257.28 365.17 257.37 365.26
  Q 257.42 365.32 257.50 365.31
  Q 261.69 364.54 270.75 364.32
  Q 281.38 364.05 292.01 364.02
  Q 295.01 364.01 298.76 362.80
  C 304.98 376.22 312.97 386.67 323.33 397.10
  Q 328.03 401.82 332.50 406.82
  C 306.19 423.97 282.95 444.03 261.64 466.68
  C 259.86 468.57 256.38 469.19 256.06 465.74
  C 255.38 458.38 256.20 447.04 256.16 438.75
  Q 255.93 398.77 256.13 358.78
  Z" fill="#c83482"></path>
</svg>
