<svg viewBox="0.00 0.00 32.00 32.00" version="1.1" xmlns="http://www.w3.org/2000/svg">
<g stroke-linecap="butt" fill="none" stroke-width="2.00">
<path d="M 3.48 26.14
  A 0.61 0.61 0.0 0 0 4.02 27.06
  L 7.01 26.97
  A 0.61 0.61 0.0 0 0 7.52 26.67
  L 18.01 8.87
  A 0.61 0.61 0.0 0 0 18.03 8.28
  L 16.68 5.58
  A 0.61 0.61 0.0 0 0 15.61 5.55
  L 3.48 26.14" stroke="#9baed9"></path>
<path d="M 20.06 20.25
  A 0.46 0.46 0.0 0 1 20.86 20.26
  L 24.47 26.76
  A 0.46 0.46 0.0 0 0 24.87 27.00
  L 28.29 27.00
  A 0.46 0.46 0.0 0 0 28.68 26.31
  L 20.81 12.88
  A 0.46 0.46 0.0 0 0 20.01 12.88
  L 12.07 26.31
  A 0.46 0.46 0.0 0 0 12.47 27.01
  L 15.79 26.99
  A 0.46 0.46 0.0 0 0 16.18 26.77
  L 20.06 20.25" stroke="#9baed9"></path>
</g>
<path d="M 4.66 0.00
  L 28.24 0.00
  Q 30.97 1.09 32.00 4.15
  L 32.00 28.07
  Q 31.08 30.92 27.84 32.00
  L 3.96 32.00
  Q 0.97 31.10 0.00 27.66
  L 0.00 4.25
  Q 0.79 0.83 4.66 0.00
  Z
  M 3.48 26.14
  A 0.61 0.61 0.0 0 0 4.02 27.06
  L 7.01 26.97
  A 0.61 0.61 0.0 0 0 7.52 26.67
  L 18.01 8.87
  A 0.61 0.61 0.0 0 0 18.03 8.28
  L 16.68 5.58
  A 0.61 0.61 0.0 0 0 15.61 5.55
  L 3.48 26.14
  Z
  M 20.06 20.25
  A 0.46 0.46 0.0 0 1 20.86 20.26
  L 24.47 26.76
  A 0.46 0.46 0.0 0 0 24.87 27.00
  L 28.29 27.00
  A 0.46 0.46 0.0 0 0 28.68 26.31
  L 20.81 12.88
  A 0.46 0.46 0.0 0 0 20.01 12.88
  L 12.07 26.31
  A 0.46 0.46 0.0 0 0 12.47 27.01
  L 15.79 26.99
  A 0.46 0.46 0.0 0 0 16.18 26.77
  L 20.06 20.25
  Z" fill="#375cb3"></path>
<path d="M 3.48 26.14
  L 15.61 5.55
  A 0.61 0.61 0.0 0 1 16.68 5.58
  L 18.03 8.28
  A 0.61 0.61 0.0 0 1 18.01 8.87
  L 7.52 26.67
  A 0.61 0.61 0.0 0 1 7.01 26.97
  L 4.02 27.06
  A 0.61 0.61 0.0 0 1 3.48 26.14
  Z" fill="#ffffff"></path>
<path d="M 20.06 20.25
  L 16.18 26.77
  A 0.46 0.46 0.0 0 1 15.79 26.99
  L 12.47 27.01
  A 0.46 0.46 0.0 0 1 12.07 26.31
  L 20.01 12.88
  A 0.46 0.46 0.0 0 1 20.81 12.88
  L 28.68 26.31
  A 0.46 0.46 0.0 0 1 28.29 27.00
  L 24.87 27.00
  A 0.46 0.46 0.0 0 1 24.47 26.76
  L 20.86 20.26
  A 0.46 0.46 0.0 0 0 20.06 20.25
  Z" fill="#ffffff"></path>
</svg>
