<svg viewBox="0.00 0.00 256.00 256.00" version="1.1" xmlns="http://www.w3.org/2000/svg">
<path d="M 57.02 97.32
  C 78.22 53.29 116.01 22.54 163.15 9.36
  A 0.78 0.78 0.0 0 1 164.11 9.90
  L 173.09 43.44
  Q 173.23 43.95 172.72 44.09
  C 131.60 55.03 90.58 78.76 65.79 114.20
  A 0.75 0.75 0.0 0 1 64.51 114.10
  L 57.03 99.15
  A 2.10 2.09 -45.5 0 1 57.02 97.32
  Z" fill="#e33e2a"></path>
<path d="M 204.72 162.33
  C 193.98 122.77 171.79 85.13 139.06 59.86
  A 0.46 0.46 0.0 0 1 139.13 59.09
  Q 147.60 54.75 155.82 51.09
  Q 156.85 50.63 157.86 51.16
  C 198.67 72.56 227.66 109.96 239.85 154.27
  Q 240.06 155.06 239.27 155.27
  L 207.28 163.80
  A 2.10 2.10 0.0 0 1 204.72 162.33
  Z" fill="#2ca14c"></path>
<path d="M 103.15 188.42
  C 94.54 185.08 86.42 180.14 79.91 175.78
  Q 33.59 144.81 15.07 92.44
  C 13.56 88.16 13.83 84.18 13.94 79.78
  A 0.74 0.73 83.3 0 1 14.49 79.08
  L 45.24 70.83
  A 0.74 0.73 -14.4 0 1 46.14 71.36
  C 57.60 114.69 82.70 155.62 120.08 180.68
  A 0.36 0.36 0.0 0 1 120.03 181.31
  L 104.20 188.39
  Q 103.68 188.62 103.15 188.42
  Z" fill="#3b7cec"></path>
<circle r="20.71" cy="120.13" cx="130.18" fill="#7121af"></circle>
<path d="M 92.31 193.76
  C 130.71 183.37 165.17 163.73 191.60 133.85
  Q 192.00 133.39 192.26 133.94
  Q 196.32 142.84 199.67 151.76
  C 200.56 154.13 200.66 154.87 199.21 157.11
  Q 164.69 210.18 102.78 228.21
  A 1.52 1.52 0.0 0 1 100.88 227.14
  L 92.04 194.23
  A 0.38 0.38 0.0 0 1 92.31 193.76
  Z" fill="#f0b400"></path>
</svg>
