<svg viewBox="0.00 0.00 48.00 48.00" version="1.1" xmlns="http://www.w3.org/2000/svg">
<path d="M 25.79 12.49
  L 27.60 11.29
  A 1.09 1.09 0.0 0 0 27.64 9.49
  Q 24.68 7.37 22.70 4.35
  Q 22.40 3.90 21.86 3.91
  C 12.75 4.23 5.14 12.33 3.91 20.87
  C 2.30 32.01 9.78 43.14 21.41 44.16
  Q 22.65 44.27 21.71 43.45
  L 17.22 39.48
  A 1.11 1.10 47.5 0 1 17.29 37.76
  L 18.96 36.52
  A 0.58 0.58 0.0 0 0 18.94 35.57
  Q 17.80 34.80 18.72 33.91
  Q 19.14 33.50 18.80 33.01
  Q 18.59 32.73 18.67 32.41
  Q 18.78 31.95 19.23 31.81
  Q 20.66 31.37 20.25 29.81
  Q 19.98 28.74 19.70 28.17
  A 1.25 1.24 65.9 0 1 20.35 26.46
  C 22.61 25.55 25.75 24.11 27.03 22.07
  A 0.84 0.83 -51.5 0 0 26.92 21.03
  L 25.32 19.39
  A 0.81 0.81 0.0 0 1 25.18 18.45
  Q 27.26 14.47 25.74 13.10
  Q 25.37 12.77 25.79 12.49" stroke-linecap="butt" fill="none" stroke-width="2.00" stroke="#18597d"></path>
<path d="M 21.87 0.00
  L 26.24 0.00
  Q 44.95 3.18 48.00 21.87
  L 48.00 26.24
  Q 44.82 44.95 26.14 48.00
  L 21.76 48.00
  Q 3.05 44.83 0.00 26.14
  L 0.00 21.76
  Q 3.17 3.05 21.87 0.00
  Z
  M 25.79 12.49
  L 27.60 11.29
  A 1.09 1.09 0.0 0 0 27.64 9.49
  Q 24.68 7.37 22.70 4.35
  Q 22.40 3.90 21.86 3.91
  C 12.75 4.23 5.14 12.33 3.91 20.87
  C 2.30 32.01 9.78 43.14 21.41 44.16
  Q 22.65 44.27 21.71 43.45
  L 17.22 39.48
  A 1.11 1.10 47.5 0 1 17.29 37.76
  L 18.96 36.52
  A 0.58 0.58 0.0 0 0 18.94 35.57
  Q 17.80 34.80 18.72 33.91
  Q 19.14 33.50 18.80 33.01
  Q 18.59 32.73 18.67 32.41
  Q 18.78 31.95 19.23 31.81
  Q 20.66 31.37 20.25 29.81
  Q 19.98 28.74 19.70 28.17
  A 1.25 1.24 65.9 0 1 20.35 26.46
  C 22.61 25.55 25.75 24.11 27.03 22.07
  A 0.84 0.83 -51.5 0 0 26.92 21.03
  L 25.32 19.39
  A 0.81 0.81 0.0 0 1 25.18 18.45
  Q 27.26 14.47 25.74 13.10
  Q 25.37 12.77 25.79 12.49
  Z" fill="#29abe2"></path>
<path d="M 25.74 13.10
  Q 27.26 14.47 25.18 18.45
  A 0.81 0.81 0.0 0 0 25.32 19.39
  L 26.92 21.03
  A 0.84 0.83 -51.5 0 1 27.03 22.07
  C 25.75 24.11 22.61 25.55 20.35 26.46
  A 1.25 1.24 65.9 0 0 19.70 28.17
  Q 19.98 28.74 20.25 29.81
  Q 20.66 31.37 19.23 31.81
  Q 18.78 31.95 18.67 32.41
  Q 18.59 32.73 18.80 33.01
  Q 19.14 33.50 18.72 33.91
  Q 17.80 34.80 18.94 35.57
  A 0.58 0.58 0.0 0 1 18.96 36.52
  L 17.29 37.76
  A 1.11 1.10 47.5 0 0 17.22 39.48
  L 21.71 43.45
  Q 22.65 44.27 21.41 44.16
  C 9.78 43.14 2.30 32.01 3.91 20.87
  C 5.14 12.33 12.75 4.23 21.86 3.91
  Q 22.40 3.90 22.70 4.35
  Q 24.68 7.37 27.64 9.49
  A 1.09 1.09 0.0 0 1 27.60 11.29
  L 25.79 12.49
  Q 25.37 12.77 25.74 13.10
  Z" fill="#070717"></path>
</svg>
