<svg viewBox="0.00 0.00 256.00 256.00" version="1.1" xmlns="http://www.w3.org/2000/svg">
<g stroke-linecap="butt" fill="none" stroke-width="2.00">
<path d="M 105.24 103.85
  C 104.55 130.20 123.93 151.03 150.33 152.12" stroke="#6873f2"></path>
<path d="M 150.33 152.12
  Q 174.51 152.07 188.47 133.50
  C 210.50 104.17 190.31 61.39 153.72 59.79
  C 128.03 58.66 106.67 77.94 105.24 103.85" stroke="#8d8ff2"></path>
<path d="M 150.33 152.12
  C 150.56 137.55 151.79 126.81 143.31 115.98
  Q 133.70 103.73 116.74 103.85
  Q 111.10 103.88 105.24 103.85" stroke="#a6bcff"></path>
<path d="M 150.07 161.86
  C 118.69 161.24 95.05 135.20 95.38 104.43
  Q 95.38 104.02 94.97 103.99
  C 78.21 102.90 63.88 111.22 59.32 127.46
  Q 57.94 132.38 57.98 142.64
  C 58.02 152.40 56.90 165.01 59.45 173.39
  C 63.16 185.55 75.36 196.21 88.50 196.24
  Q 100.91 196.26 113.32 196.25
  Q 122.50 196.24 126.58 195.17
  C 141.50 191.28 150.73 177.31 150.41 162.20
  Q 150.40 161.86 150.07 161.86" stroke="#a7a3f2"></path>
</g>
<path d="M 31.63 0.00
  L 224.74 0.00
  C 241.81 2.03 254.26 14.46 256.00 31.63
  L 256.00 224.48
  C 254.15 241.62 241.54 254.36 224.37 256.00
  L 31.51 256.00
  C 14.32 254.12 1.73 241.61 0.00 224.37
  L 0.00 31.51
  C 1.87 14.33 14.40 1.74 31.63 0.00
  Z
  M 105.24 103.85
  C 104.55 130.20 123.93 151.03 150.33 152.12
  Q 174.51 152.07 188.47 133.50
  C 210.50 104.17 190.31 61.39 153.72 59.79
  C 128.03 58.66 106.67 77.94 105.24 103.85
  Z
  M 150.07 161.86
  C 118.69 161.24 95.05 135.20 95.38 104.43
  Q 95.38 104.02 94.97 103.99
  C 78.21 102.90 63.88 111.22 59.32 127.46
  Q 57.94 132.38 57.98 142.64
  C 58.02 152.40 56.90 165.01 59.45 173.39
  C 63.16 185.55 75.36 196.21 88.50 196.24
  Q 100.91 196.26 113.32 196.25
  Q 122.50 196.24 126.58 195.17
  C 141.50 191.28 150.73 177.31 150.41 162.20
  Q 150.40 161.86 150.07 161.86
  Z" fill="#4f46e5"></path>
<path d="M 150.33 152.12
  C 150.56 137.55 151.79 126.81 143.31 115.98
  Q 133.70 103.73 116.74 103.85
  Q 111.10 103.88 105.24 103.85
  C 106.67 77.94 128.03 58.66 153.72 59.79
  C 190.31 61.39 210.50 104.17 188.47 133.50
  Q 174.51 152.07 150.33 152.12
  Z" fill="#cbd8ff"></path>
<path d="M 95.38 104.43
  C 95.05 135.20 118.69 161.24 150.07 161.86
  Q 150.40 161.86 150.41 162.20
  C 150.73 177.31 141.50 191.28 126.58 195.17
  Q 122.50 196.24 113.32 196.25
  Q 100.91 196.26 88.50 196.24
  C 75.36 196.21 63.16 185.55 59.45 173.39
  C 56.90 165.01 58.02 152.40 57.98 142.64
  Q 57.94 132.38 59.32 127.46
  C 63.88 111.22 78.21 102.90 94.97 103.99
  Q 95.38 104.02 95.38 104.43
  Z" fill="#ffffff"></path>
<path d="M 105.24 103.85
  Q 111.10 103.88 116.74 103.85
  Q 133.70 103.73 143.31 115.98
  C 151.79 126.81 150.56 137.55 150.33 152.12
  C 123.93 151.03 104.55 130.20 105.24 103.85
  Z" fill="#80a0ff"></path>
</svg>
