<svg viewBox="0.00 0.00 256.00 256.00" version="1.1" xmlns="http://www.w3.org/2000/svg">
<g stroke-linecap="butt" fill="none" stroke-width="2.00">
<path d="M 129.48 31.30
  L 129.50 95.13
  A 0.62 0.62 0.0 0 1 128.88 95.75
  L 66.74 95.51" stroke="#9a6438"></path>
<path d="M 129.49 224.72
  L 129.50 173.94
  Q 129.50 173.50 129.19 173.19
  L 117.10 160.88
  Q 116.74 160.51 116.23 160.51
  L 66.75 160.49" stroke="#4f479f"></path>
<path d="M 66.52 160.24
  L 66.56 95.80" stroke="#31838d"></path>
</g>
<path d="M 129.48 31.30
  L 129.50 95.13
  A 0.62 0.62 0.0 0 1 128.88 95.75
  L 66.74 95.51
  Q 66.72 76.26 66.74 57.01
  Q 66.74 49.47 67.54 46.57
  C 69.39 39.88 74.77 34.13 81.48 32.15
  Q 84.31 31.32 91.10 31.29
  Q 110.03 31.23 129.48 31.30
  Z" fill="#ff941f"></path>
<path d="M 129.48 31.30
  Q 144.90 31.22 161.00 31.25
  C 199.34 31.32 231.83 54.80 244.71 91.07
  C 259.06 131.48 249.45 180.85 213.68 207.49
  Q 191.14 224.28 162.51 224.68
  Q 155.03 224.79 129.49 224.72
  L 129.50 173.94
  Q 129.50 173.50 129.19 173.19
  L 117.10 160.88
  Q 116.74 160.51 116.23 160.51
  L 66.75 160.49
  Q 66.62 160.43 66.52 160.24
  L 66.56 95.80
  Q 66.57 95.62 66.74 95.51
  L 128.88 95.75
  A 0.62 0.62 0.0 0 0 129.50 95.13
  L 129.48 31.30
  Z
  M 141.71 160.97
  Q 142.41 160.24 143.43 160.24
  Q 156.92 160.23 170.73 160.26
  C 180.01 160.28 187.45 157.24 190.91 148.38
  Q 192.47 144.39 192.48 135.41
  Q 192.49 125.33 192.35 115.25
  C 192.24 106.90 187.40 99.44 179.48 96.78
  Q 176.58 95.80 170.41 95.80
  Q 150.11 95.80 130.01 95.79
  A 0.47 0.47 0.0 0 0 129.54 96.26
  L 129.55 172.73
  Q 129.55 173.66 130.19 172.99
  L 141.71 160.97
  Z" fill="#343451"></path>
<path d="M 66.56 95.80
  L 66.52 160.24
  Q 43.76 160.29 21.00 160.23
  Q 16.43 160.22 11.12 156.14
  Q 3.84 150.53 3.86 140.25
  Q 3.88 131.26 3.86 122.26
  Q 3.83 111.93 5.33 107.93
  C 8.67 98.99 16.33 95.80 25.61 95.80
  Q 46.08 95.81 66.56 95.80
  Z" fill="#2dd2c8"></path>
<path d="M 129.49 224.72
  Q 111.05 224.77 93.05 224.72
  Q 85.14 224.69 81.61 223.39
  C 72.51 220.04 66.80 211.16 66.78 201.50
  Q 66.73 181.06 66.75 160.49
  L 116.23 160.51
  Q 116.74 160.51 117.10 160.88
  L 129.19 173.19
  Q 129.50 173.50 129.50 173.94
  L 129.49 224.72
  Z" fill="#6a5aed"></path>
</svg>
