<svg viewBox="0.00 0.00 192.00 192.00" version="1.1" xmlns="http://www.w3.org/2000/svg">
<g stroke-linecap="butt" fill="none" stroke-width="2.00">
<path d="M 112.26 96.43
  A 1.54 1.54 0.0 0 1 112.99 94.43
  Q 118.65 91.65 123.96 88.94
  C 129.98 85.86 134.36 79.89 138.08 74.02
  Q 148.99 56.82 160.53 40.03
  C 162.85 36.65 164.18 32.97 166.66 29.71
  A 0.59 0.59 0.0 0 0 166.33 28.78
  Q 163.39 28.07 160.25 27.99
  C 148.06 27.69 135.92 28.22 123.75 27.96
  C 118.41 27.84 112.84 28.22 110.15 32.19
  C 107.28 36.42 103.92 42.10 100.98 47.51
  C 92.36 63.38 82.87 78.60 74.58 94.67
  Q 74.34 95.13 74.44 95.63
  Q 74.98 98.43 76.19 100.56
  Q 89.83 124.66 109.63 158.57
  C 111.25 161.35 112.70 163.01 115.73 163.47
  Q 120.48 164.20 121.75 164.18
  Q 141.37 163.91 161.00 163.75
  Q 163.94 163.73 166.73 163.20
  A 0.64 0.64 0.0 0 0 167.08 162.14
  C 166.12 161.13 165.27 160.33 164.67 159.00
  Q 162.13 153.31 158.32 148.41
  C 155.65 144.98 153.84 141.26 151.29 137.78
  Q 148.56 134.07 146.47 130.59
  C 144.14 126.72 141.30 123.30 138.98 119.42
  C 136.44 115.20 131.34 107.22 126.95 104.90
  Q 120.53 101.52 114.12 98.13
  Q 112.66 97.35 112.26 96.43" stroke="#9f9db5"></path>
<path d="M 68.83 63.06
  C 74.43 52.95 71.48 48.53 67.10 39.26
  C 63.93 32.52 56.63 31.64 50.85 29.34
  C 47.45 27.98 43.54 30.41 40.32 31.46
  C 33.80 33.59 29.71 37.81 27.41 44.22
  C 26.13 47.76 23.65 51.40 25.22 55.28
  Q 27.08 59.90 28.87 64.55
  C 31.27 70.77 39.46 74.56 45.50 75.92
  C 49.15 76.75 52.01 75.71 55.71 74.48
  C 62.15 72.33 65.40 69.26 68.83 63.06" stroke="#9f9db5"></path>
<path d="M 24.87 97.43
  L 24.31 161.53
  A 1.66 1.66 0.0 0 0 25.96 163.21
  L 69.89 163.59
  A 1.98 0.22 0.5 0 0 71.88 163.39
  L 72.46 96.41
  A 1.98 0.22 0.5 0 0 70.48 96.17
  L 26.55 95.79
  A 1.66 1.66 0.0 0 0 24.87 97.43" stroke="#9f9db5"></path>
</g>
<path d="M 0.00 0.00
  L 192.00 0.00
  L 192.00 192.00
  L 0.00 192.00
  L 0.00 0.00
  Z
  M 112.26 96.43
  A 1.54 1.54 0.0 0 1 112.99 94.43
  Q 118.65 91.65 123.96 88.94
  C 129.98 85.86 134.36 79.89 138.08 74.02
  Q 148.99 56.82 160.53 40.03
  C 162.85 36.65 164.18 32.97 166.66 29.71
  A 0.59 0.59 0.0 0 0 166.33 28.78
  Q 163.39 28.07 160.25 27.99
  C 148.06 27.69 135.92 28.22 123.75 27.96
  C 118.41 27.84 112.84 28.22 110.15 32.19
  C 107.28 36.42 103.92 42.10 100.98 47.51
  C 92.36 63.38 82.87 78.60 74.58 94.67
  Q 74.34 95.13 74.44 95.63
  Q 74.98 98.43 76.19 100.56
  Q 89.83 124.66 109.63 158.57
  C 111.25 161.35 112.70 163.01 115.73 163.47
  Q 120.48 164.20 121.75 164.18
  Q 141.37 163.91 161.00 163.75
  Q 163.94 163.73 166.73 163.20
  A 0.64 0.64 0.0 0 0 167.08 162.14
  C 166.12 161.13 165.27 160.33 164.67 159.00
  Q 162.13 153.31 158.32 148.41
  C 155.65 144.98 153.84 141.26 151.29 137.78
  Q 148.56 134.07 146.47 130.59
  C 144.14 126.72 141.30 123.30 138.98 119.42
  C 136.44 115.20 131.34 107.22 126.95 104.90
  Q 120.53 101.52 114.12 98.13
  Q 112.66 97.35 112.26 96.43
  Z
  M 68.83 63.06
  C 74.43 52.95 71.48 48.53 67.10 39.26
  C 63.93 32.52 56.63 31.64 50.85 29.34
  C 47.45 27.98 43.54 30.41 40.32 31.46
  C 33.80 33.59 29.71 37.81 27.41 44.22
  C 26.13 47.76 23.65 51.40 25.22 55.28
  Q 27.08 59.90 28.87 64.55
  C 31.27 70.77 39.46 74.56 45.50 75.92
  C 49.15 76.75 52.01 75.71 55.71 74.48
  C 62.15 72.33 65.40 69.26 68.83 63.06
  Z
  M 24.87 97.43
  L 24.31 161.53
  A 1.66 1.66 0.0 0 0 25.96 163.21
  L 69.89 163.59
  A 1.98 0.22 0.5 0 0 71.88 163.39
  L 72.46 96.41
  A 1.98 0.22 0.5 0 0 70.48 96.17
  L 26.55 95.79
  A 1.66 1.66 0.0 0 0 24.87 97.43
  Z" fill="#ffffff"></path>
<path d="M 112.26 96.43
  Q 112.66 97.35 114.12 98.13
  Q 120.53 101.52 126.95 104.90
  C 131.34 107.22 136.44 115.20 138.98 119.42
  C 141.30 123.30 144.14 126.72 146.47 130.59
  Q 148.56 134.07 151.29 137.78
  C 153.84 141.26 155.65 144.98 158.32 148.41
  Q 162.13 153.31 164.67 159.00
  C 165.27 160.33 166.12 161.13 167.08 162.14
  A 0.64 0.64 0.0 0 1 166.73 163.20
  Q 163.94 163.73 161.00 163.75
  Q 141.37 163.91 121.75 164.18
  Q 120.48 164.20 115.73 163.47
  C 112.70 163.01 111.25 161.35 109.63 158.57
  Q 89.83 124.66 76.19 100.56
  Q 74.98 98.43 74.44 95.63
  Q 74.34 95.13 74.58 94.67
  C 82.87 78.60 92.36 63.38 100.98 47.51
  C 103.92 42.10 107.28 36.42 110.15 32.19
  C 112.84 28.22 118.41 27.84 123.75 27.96
  C 135.92 28.22 148.06 27.69 160.25 27.99
  Q 163.39 28.07 166.33 28.78
  A 0.59 0.59 0.0 0 1 166.66 29.71
  C 164.18 32.97 162.85 36.65 160.53 40.03
  Q 148.99 56.82 138.08 74.02
  C 134.36 79.89 129.98 85.86 123.96 88.94
  Q 118.65 91.65 112.99 94.43
  A 1.54 1.54 0.0 0 0 112.26 96.43
  Z" fill="#3f3b6b"></path>
<path d="M 68.83 63.06
  C 65.40 69.26 62.15 72.33 55.71 74.48
  C 52.01 75.71 49.15 76.75 45.50 75.92
  C 39.46 74.56 31.27 70.77 28.87 64.55
  Q 27.08 59.90 25.22 55.28
  C 23.65 51.40 26.13 47.76 27.41 44.22
  C 29.71 37.81 33.80 33.59 40.32 31.46
  C 43.54 30.41 47.45 27.98 50.85 29.34
  C 56.63 31.64 63.93 32.52 67.10 39.26
  C 71.48 48.53 74.43 52.95 68.83 63.06
  Z" fill="#3f3b6b"></path>
<path d="M 24.87 97.43
  A 1.66 1.66 0.0 0 1 26.55 95.79
  L 70.48 96.17
  A 1.98 0.22 0.5 0 1 72.46 96.41
  L 71.88 163.39
  A 1.98 0.22 0.5 0 1 69.89 163.59
  L 25.96 163.21
  A 1.66 1.66 0.0 0 1 24.31 161.53
  L 24.87 97.43
  Z" fill="#3f3b6b"></path>
</svg>
