<svg xmlns="http://www.w3.org/2000/svg" viewBox="0 0 200 200"><g fill="none" stroke-width="2"><path stroke="#eecbb1" d="M117.76 1.47q.11.3.1.5a.36.35-78.3 0 1-.48.32l-.33-.13q-.41-.16-.44.28-.19 2.41-.54 4.8-2.03 13.81-4.68 27.51-.05.23.04.44.15.36-.05.7-.32.53-.3 1.18.02.38-.06.74l-.68 3.01"/><path stroke="#786151" d="M110.34 40.82q-1.17 2.3-.65 7.42"/><path stroke="#e1bdaa" d="M109.69 48.24q.03 1.48-.41 2.48-.19.44-.64.57-1.09.32-1.93-.01-.25-.1-.5 0-.24.1-.49.1a.98.98 0 0 1-.86-.48l-1.24-2.12q-.04-.05-.08 0-.54.68-1.58.91-.44.1-.32.54.08.32-.2.5-1.6 1.03-1.29 2.96a.93.92 67.1 0 1-.35.87q-.63.49-1.03 1.15-.29.48-.84.41-1.06-.12-1.68.63-.07.08-.11.19-.11.26.19.35a.17.17 0 0 1-.07.33q-1.08-.16-1.59.71-.1.17-.28.24-.32.12-.55-.01-.28-.16-.56 0-1.99 1.1-2.85-1.11"/><path stroke="#786151" d="m90.43 57.45-.04-16.06q0-.61-.6-.49l-2.75.55"/><path stroke="#ebb696" d="M87.04 41.45q-.17-4.07.99-7.73 1.22-3.87 1.42-5.66.93-8.2 1.22-16.45c.08-2.08.76-3.92.54-6.21q-.03-.31-.2-.57-.29-.44.25-.82a.86.85-25 0 0 .33-.9L90.93.32"/><path stroke="#745545" d="M87.04 41.45q-18.32 4.17-30.97 17.91"/><path stroke="#dca894" d="M56.07 59.36q-1.06.55-2.08.56-.51 0-.63-.5-.14-.56-.57-.99-.28-.28-.6-.03-.75.58-1.64 1.11-.32.2-.42-.16-.09-.3.38-.34a.3.3 0 0 0 .13-.56q-1.03-.61-2.23-.8a1.09 1.08-11.1 0 1-.75-.5q-.67-1.07-1.68-1.85-.5-.39-.88.13-.65.91-1.32-.25-.11-.17-.27-.06l-.32.2q-.31.2-.1.5.26.37.65.3a.12.12 0 0 1 .14.12q0 .13.01.28a.24.24 0 0 1-.44.14q-.53-.79-1.45-.53-.63.18-.63-.48 0-.15-.05-.27-.12-.28-.4-.37-.67-.21-1.43-.09-.49.07.11-.75.21-.28.17-.59-.09-.53-.62-.49-1.2.09-2.14-.75-.25-.22-.58-.21l-.41.01q-.49.01-.29.45.19.44.49.52.55.14.15.55-.26.26-.62.35-.25.06-.36-.16-.31-.58-.37-1.33a.45.45 0 0 0-.76-.28l-.25.26a.37.37 0 0 1-.63-.25l-.06-1.91a.17.17 0 0 0-.29-.11l-.28.27q-.25.26-.51 0l-.61-.61q-.34-.34.06-.61.29-.2.42-.5a.51.51 0 0 0-.61-.69q-.96.26-1.61 1.05-.23.27.01.54.19.23.21.48.03.45-.39.3-.99-.35-.82-1.49.13-.81.85-.94.53-.09.35-.59-.07-.18-.23-.31-.42-.32-.8.05l-.84.85q-.4.4-.86.06l-.22-.17q-.56-.42-.12-.96.07-.1.09-.25a.53.53 0 0 0-.64-.6q-1.2.27-1.96 1.2-.46.57-.45-.16.02-.95.8-1.5a.34.34 0 0 0 .02-.54l-2.39-1.97q-.01-.01-.02 0-.15.03-.24.13-.16.18-.02.36l1.12 1.46q.22.28 0 .57-.57.76-.45 1.66.03.22-.19.24l-.3.03q-.01 0-.02-.02-.01-.9-.16-1.79-.13-.8-.88-.58-.24.07-.21.33.03.15-.14.24-.53.28-.91-.19-.32-.39-.76-.65-.4-.25-.37-.72.04-.75-1.28-1.13"/><path stroke="#e5d5c9" d="M174.09 32.63q-.77.23-1.43-.69a.23.23 0 0 0-.39.03q-.08.16-.16.33-.16.29-.48.35-.45.08-.72-.22-.36-.41-.78-.06-1.37 1.15-1.31 2.96a.38.38 0 0 1-.61.31l-.66-.49a.76.76 0 0 0-1.19.8q.3 1.13-.5 1.68-.26.18-.49-.04-.24-.22-.49-.22-.57.01-.82.21l-.7.55q-.44.35 0 .7.15.13.24.3.18.36-.21.45l-2.89.66a.36.36 0 0 0-.12.65q.55.36 1.21.23a.34.34 0 0 1 .2.64q-.52.22-1.07.12-.55-.11-.82.38l-.28.52a.33.33 0 0 1-.52.07l-.36-.35q-.31-.32-.48.1-.24.62-.02 1.14.23.53-.23.88l-2.42 1.88q-.27.21-.57.03-.14-.08-.27-.15-.44-.22-.56.26-.11.49-.38.9-.3.48-.69.08l-.27-.27q-.52-.51-.68.2l-.39 1.8q-.19.82-.58.08l-.32-.59q-.43-.78-.62.09-.22 1.04-1.19.95-.59-.05-.93.43-1.24 1.79-3.09 2.89-.35.21-.22.6l.16.43q.16.46-.3.6-.52.17-.96-.2-.53-.45-.65.24-.07.41.06.81.14.48-.36.49-.9.03-1.69.32"/><path stroke="#776a60" d="M141.09 56.49q-12.54-12.08-30.75-15.67"/><path stroke="#d2d3d6" d="M191.86 60.23q-1.46 1.69-3.06.47-.29-.23-.57.02-.7.63-1.4.16-.45-.29-.81.1c-1.18 1.24-3.05 2.91-4.53 1.8q-.38-.29-.67.1l-.92 1.24a.76.76 0 0 1-.84.28q-.46-.15-.83.09-.43.28-.36.79.05.4-.13.72-.17.31-.42.06-.13-.13-.25-.24a.65.64-38.6 0 0-.74-.08q-1.55.84-3.18 1.49c-.95.38-1.8 1.39-3.17 1.1q-.38-.08-.63.22-.85 1.09-2.28.8-.45-.09-.73.27-.62.82-1.59.51-1.28-.41-2.15-.03a.54.54 0 0 1-.6-.11l-.27-.27q-.22-.22-.34.07l-.35.91a.72.71 6.2 0 1-.57.45q-1.04.15-1.83-.53-.29-.24-.61-.05-.31.18-.17.61a.44.44 0 0 1-.54.56q-.67-.19-1.39-.14-.47.02-.77.39-.66.79-1.68 1.1"/><path stroke="#6e6b69" d="M153.48 73.09q-4.69-9.43-12.39-16.6"/><path stroke="#6a5c59" d="m90.43 57.45-.12 2.51q-.03.53-.54.68-22.32 6.54-29.12 28.88"/><path stroke="#58545e" d="M60.65 89.52q-2.29 8.66-.89 17.22"/><path stroke="#626166" d="m59.76 106.74 2.32 8.55"/><path stroke="#4e5c6c" d="M62.08 115.29c3 8.92 10.37 16.63 18.47 21.18"/><path stroke="#315b76" d="m80.55 136.47 9.33 3.64a.74.74 0 0 1 .48.69v18.46q0 .79-.75.58l-11.85-3.34"/><path stroke="#40576e" d="M77.76 156.5q-20.23-8.5-30.78-27.82"/><path stroke="#58545e" d="M46.98 128.68q-11.88-23.49-3.5-48.62"/><path stroke="#68534f" d="M43.48 80.06q4.23-11.62 12.59-20.7"/><path stroke="#64686d" d="M153.48 73.09q6.73 13.4 6.49 28.75"/><path stroke="#516572" d="M159.97 101.84q-.78 22.9-16.22 39.9"/><path stroke="#3c6076" d="M143.75 141.74q-10.42 11.12-26.07 16.4"/><path stroke="#315b76" d="m117.68 158.14-7.7 1.84a.3.3 0 0 1-.36-.29l.01-18.93a.7.69-7 0 1 .53-.67q9.27-2.33 16.42-8.66"/><path stroke="#4e5c6c" d="M126.58 131.43q9.31-7.94 12.83-20.62"/><path stroke="#626166" d="M139.41 110.81q3.74-14.11-2.31-27.4-8.08-17.75-27.41-22.94"/><path stroke="#6a5c59" d="M109.69 60.47V48.24"/><path stroke="#c0a7ad" d="M43.48 80.06q-.45.27-.65.73-.17.4-.6.32-.89-.16-1.47.32-.48.39-.61-.21l-.11-.51q-.09-.45-.54-.57-1.14-.3-1.69.57a.99.99 0 0 1-.89.46l-4.37-.18a.6.59 86.4 0 1-.56-.5q-.05-.29-.24-.41-.81-.51-.25-1.08l.29-.28q.37-.37-.15-.3-.45.05-.75.44-.37.47-.74 0-.61-.77-1.52-1.19-.31-.14-.59.05l-1.36.86q-.4.25-.68-.12-.54-.72-1.28.03-.29.3-.52-.06-.08-.13-.08-.28 0-.61-.59-.78-.52-.14-.7.17-.2.33-.59.33h-.77a.32.32 0 0 1-.2-.56q.3-.25.32-.53.03-.44-.31-.16l-1.73 1.46q-.43.36-.66-.15-.28-.63-.99-1.15-.24-.18-.53-.09-1.82.59-2.54-1.18-.17-.41-.33.01-.17.45.38.96.27.24-.09.3l-.72.11a.74.73-23 0 1-.68-.27c-.72-.87-2.05-.84-2.26-2.16q-.05-.34-.4-.34h-.48q-.38 0-.38.38v.72a.39.39 0 0 1-.72.21q-.25-.38-.63-.56-.51-.24-.13-.65.27-.29.37-.62.13-.48-.3-.23-.37.22-.65.56a.51.51 0 0 1-.88-.16l-.36-1.15q-.12-.37-.37-.08-.19.22-.08.64.07.27.01.54-.11.49.12.4a.18.18 0 0 1 .23.23q-.1.32-.47.33c-.42 0-1.83-.98-2.5-1.19"/><path stroke="#cbbdbf" d="M109.69 60.47q-.09-.32-1.19.13-.49.21-.89.69-.95 1.16-2.01 2.22-.33.34-.81.36-1.23.04-1.79.91-1.28 1.99-2.12 2.85a.86.84 69.2 0 0-.26.59q0 .15.01.31.02.49.49.36 1.53-.46 1.51 1.04-.01.54-.46.82-1.26.81-1.93 2.23-.12.25-.12.52 0 .12.02.25.02.28-.19.45l-2.08 1.66q-.41.32.07.51.71.28 1.28.8.04.03.08 0 .11-.08.2-.17.65-.76.62.25 0 .13.01.27.01.27.24.12l.91-.61q.52-.35 1.02.04.24.2.48-.11a.67.66-55.9 0 1 .86-.17q.59.35 1.27.33.74-.02.22.5l-1.15 1.15q-.12.11.05.11h.44q.44 0 .4.44-.02.26.03.46.07.23-.17.28-1.19.24-1.84 1.37-.13.22.13.2.68-.04.57.61-.16 1.01.72.25 1.24-1.07 2.99-.27.39.18.07.45l-3.03 2.64q-.33.28-.2.7.23.79 1.01.93.35.07.09.32l-1.01 1.01a.15.15 0 0 0 .04.24q.13.06.27.12.41.17.1.49l-.64.64q-.26.25-.5-.02-.25-.28-.56-.39a.42.41 24.9 0 0-.48.17q-.52.83-1.47.6a1.09 1.08 30.8 0 0-.97.24q-1.11.98-2.77.53-.71-.2-.76.61a.12.11 85.9 0 0 .13.12q.15-.01.27.01a.2.2 0 0 1 .07.36c-1.69 1.17-3.07 2.52-5.14.84q-.32-.26-.73-.2-.51.07-1.09-.13-1.44-.49-2.09.75-.19.37-.62.39-1.03.03-1.04.8"/><path stroke="#c1b0b7" d="M86.25 94.44q-.82-.46-2.01-.31-.12.02-.04-.08.09-.11.17-.19.09-.11.01-.23-.91-1.5-2.54-.77-.11.06-.11.05l-.14-.14q-.11-.11.12-.56.24-.45.73-.6.46-.13.64-.58.35-.86.02-1.63-.08-.16.05-.29l.29-.29q.28-.27.01-.56-.12-.12-.3-.15-.13-.03-.31.05-1.33.59-2.74.46-.38-.03-.68.22-.51.45-1.01.29c-1.38-.43-1.97-.41-3.15.48a.92.9 34.8 0 1-.82.14l-1.32-.4q-.55-.17-1.02.16-1.08.76-2.37.93a.33.32-26.3 0 0-.19.55q.09.1.12.23.06.25-.15.4-2.3 1.62-4.34.29-.43-.29-.95-.32l-2.91-.14a.5.49-2 0 1-.47-.43l-.19-1.5"/><path stroke="#afbdd2" d="M139.41 110.81q-2.36 1.03-3.03.41-.14-.12-.32-.09-.19.03-.33.13-.13.1-.3.08l-6.67-.7q-.46-.05-.6-.49-.15-.49-.66-.53-1.46-.11-2.39-.26-.5-.08-.68-.56-.63-1.68-2.46-1.1-.39.12-.62-.21-.85-1.18-2.27-1.26a.24.23-55.3 0 1-.08-.45q.13-.06.27-.12.18-.09.15-.29-.06-.4-.42-.63-.67-.44-.99-.46l-9.31-.53q-.4-.02-.71.22-1.09.86-2.5.88-.21 0-.25.21-.03.2-.25.24-1.66.34-3.3.26-.12-.01-.21.04-.15.08-.24.22-.09.15-.27.15l-9.76-.06a.44.44 0 0 0-.4.63l.16.37q.1.21-.13.19l-3.65-.31q-.46-.03-.85.21-1.16.74-2.31.17-.1-.05-.05-.14.06-.12.11-.24.15-.3-.17-.37-1.13-.23-2.04.44-.36.27-.81.25-.83-.03-1.51.71-.31.34-.76.26l-1.43-.24a.61.6 83.7 0 0-.66.83l.55 1.33q.04.08-.03.14-.21.18-.52.24-.16.03.33.61.19.22.55.11.04-.01.04.02v.27a.23.23 0 0 1-.29.22q-.79-.23-1.32.23-.6.53.2.53h.52q.79 0 .05.3-3.02 1.21-6.27.48-.31-.07-.51-.33-.36-.48-1.01-.16-3.65 1.78-6.92 2.63"/><path stroke="#b9b5c4" d="M59.76 106.74q1.56.66 2.22-.19.29-.38.76-.49 1.57-.39 3.05.53a.55.55 0 0 0 .84-.51q-.01-.15-.01-.29 0-.1.09-.05.68.33 1.24-.1.34-.26.75-.16 2.55.58 4.86-.42.44-.19.53-.67.2-1.03 1.25-1.04.5 0 .85-.36l.66-.66a.25.25 0 0 0-.21-.43q-.25.04-.39-.17-.09-.13.03-.23 1.48-1.27 3.25-.56.35.15.62.41.18.18.4.21.19.03.75-.32.58-.34 1.09-.03.39.23.84.18l.92-.09a.33.32 74.4 0 0 .26-.47q-.08-.16-.17-.35-.11-.25.03-.49.15-.24.09-.5-.12-.61-.74-.61h-.83q-.41 0-.06-.22l1.18-.76q.27-.17.59-.12 1.36.21 2.72-.01a.13.13 0 0 0 .03-.25l-.26-.12q-.12-.06.01-.07l.84-.1q.33-.04.61-.23.73-.5.22-.85-.43-.31-.94-.14-.91.31-1.5-.35-.2-.23.01-.44.51-.51.01-.78"/><path stroke="#b4cddf" d="M199.76 108.76q-.9.29-1.27-.08-.25-.25.05-.45.2-.12-.03-.24-.7-.38-.76-.37-.29.04-.54-.04a.55.54 16.8 0 1-.37-.67l.32-1.11q.08-.29-.13-.08l-.44.43q-.28.28-.49-.05l-.25-.39a.38.38 0 0 1 .21-.58q.74-.22.97-.88.19-.51-.21-.14-.85.79-1.72 1.56-.44.39-.84.43-.53.06-.99-.2-.23-.13-.77-.28-.36-.1-.65.05-.54.27-.87-.24-1.09-1.7-2.9-.84-.76.37-1.2.29-.7-.11-1.14-.63-.31-.36-.74-.19-.72.27-1.28-.01-.29-.15-.59 0-.33.16-.89.08-1.53-.24-2.58-.62-.46-.17-.83.16-.33.29-.78.2-.46-.1-.85-.37-1.14-.79-2.35-.16-.39.2-.69-.12-.98-1.08-2.37-.39-.3.15-.54-.08l-.35-.36a.39.38 40.4 0 0-.58.04q-.43.59-1.28.42-.47-.09-.83.22-.85.74-1.97 1.19a.81.81 0 0 1-1.12-.78q.03-.69.43-1.26.5-.72-.36-.53-.22.05-.43.12-.45.14-.85-.08-.51-.28-.98.04-.41.27-.9.23l-2.06-.16"/><path stroke="#97abcc" d="M46.98 128.68q-.56.21-.9-.68a.16.16 0 0 0-.3-.01q-.06.14-.14.29-.14.28-.41.13l-.41-.23q-.43-.25-.7.18-.93 1.48-2.5 1.3-.39-.04-.65-.34-.21-.25-.59-.24-.47.01-.67.4-.11.23-.04.53.12.53-.42.43-1.02-.2-1.54.6a2.02 1.33 37.9 0 1-2.55-.21q-.33-.28-.89-.16a.59.58 10.4 0 0-.36.24q-.88 1.19-2.12 1.93a.23.23 0 0 0-.06.34l.18.23a.2.2 0 0 1-.19.32q-1.65-.35-2.1 1.01-.15.48-.56.09-.13-.12-.31-.15-.55-.11-.04-.36.32-.15.33-.25.29-2.05-1.12-.65l-.77.78q-.33.32-.06.7.12.16.27.31.33.35-.14.44-1 .2-1.61-.48h-.02l-.27.27q-.09.09-.01.2.41.62.36 1.39-.04.48-.5.62-.78.23-.95-.45a.56.56 0 0 0-1-.2q-.93 1.26-1.33.16a.4.4 0 0 0-.74-.03q-.39.84-1.29 1.33-.36.2-.62-.12-.21-.25-.62-.36-.53-.13-.66.41l-.09.36a.3.29 18.8 0 0 .17.34q.83.32 1.22 1.18a.38.38 0 0 1-.58.46l-1.89-1.46q-.52-.4-.79.2-.53 1.18-2.04 1.16a1 1 0 0 0-.86.49q-.57.99-.44 2.17a.26.26 0 0 1-.46.19q-.28-.37-.69-.59a.4.4 0 0 0-.59.36q.02.83-.67 1.06"/><path stroke="#8dc5e8" d="M174.81 166.55q-.84-.23-1.73-.17-.47.04-.79-.3c-6.64-6.73-13.05-13.95-20.97-19.2-1.78-1.18-3.1-2.77-4.85-4.08q-.33-.25-.44-.65-.07-.27-.27-.51-.18-.21-.38-.02l-.23.24q-.21.2-.38-.03-.29-.4-1.02-.09"/><path stroke="#7fb7e2" d="M126.58 131.43q-1.62-.54-2.87.47a.47.47 0 0 1-.74-.24q-.26-.92-1.15-.67-.48.13-.94-.06-.3-.13-.48-.37-.23-.31-.61-.42-.35-.11-.57.12-.29.3-.71.23l-8.69-1.43q-.44-.08-.64-.48l-.46-.94q-.25-.52-.83-.56l-3.96-.27q-.55-.04-.74.49-.27.77.37.84.5.06.25.49-.18.32-.56.28c-2.1-.22-3.48-.34-5.71.2q-1.28.31-2.67.2a.03.02-22.5 0 0-.02.04q.14.14.15.22a.27.25 86.9 0 1-.25.3h-1.96q-.45 0-.71.36-.73 1.01-.05 1.67.6.6-.24.68-1.46.13-2.93.03-.06 0-.36.13-.15.07-.14.21.02.43-.4.42c-2.93-.02-6.45-.95-7.41 3.1"/><path stroke="#6dbbeb" d="m117.68 158.14 8.17 6.44q.36.29.55.72l1.45 3.4q.17.4.56.6.66.35 1.47 1.32 5.28 6.25 7.68 12.75.14.39.46.65.49.41.33 1.07-.04.19.13.28.31.16.54.42.34.38.5.86c.34.99.72 1.95 1.3 2.83q.59.91-.28 2.05"/><path stroke="#71b1e3" d="M51.41 187.51q.16-.96-.29-1.41-.33-.33-.19-.77.36-1.06 1.27-1.73.32-.24.41-.63.26-1.25-.42-2.06-.29-.35-.7-.32-.52.03-.92.48a.18.18 0 0 1-.3-.04q-.09-.18-.17-.36a.65.64 64.3 0 1 .29-.84q.67-.36.49-1.08a.51.51 0 0 1 .63-.61q.22.06.36.24.24.32.24.52.01.19 0 .4-.01.61.52.28.97-.61 1.64-1.51a.68.67 26.5 0 1 .74-.24q.82.26 1.47-.08.6-.31-.05-.5-.91-.26-1.88-.09-.2.03-.29-.15-.08-.17-.18-.34a.52.52 0 0 1 .48-.77q.52.02.58-.39.13-.97.72-.26.22.26.56.37.22.08.3-.14l1.47-3.92q.2-.54.69-.24.22.14.42.29.31.25.7.26 1.03.02 1.32.99a.08.07 76.7 0 0 .08.06q.21-.04.36-.16a.37.37 0 0 0-.26-.65q-.13.01-.26.01-.21 0-.29-.21-.21-.58.33-.88.21-.11.43-.15.33-.06.4-.38.21-.88-.42-1.44a.55.54-22.8 0 1 .39-.95l1.52.07a.3.3 0 0 1 .2.51l-.43.44q-.36.36.14.38.62.04.85-.95.1-.44-.19-.8-.98-1.23-2.69-.85-.67.14-.37-.47.1-.21.29-.37.26-.2.79-.18 1.89.1 3.72-.3.47-.11.47-.6v-.75q0-.7.69-.59 1.1.18 1.17-1.22.02-.3-.08-.59-.11-.31.1-.59a1.62.01-52.5 0 1 .98-1.26q.69-.29.99.28.45.88.43-.02l-.02-.35q-.02-.55.47-.82 1.24-.66 2.12-1.68.31-.36.64-.02l.26.26a.3.3 0 0 0 .51-.22q-.01-.18.06-.32.17-.35.56-.39l2.5-.21"/></g><path fill="#efc2a2" d="M92.38 0h14.85l10.53 1.47q.11.3.1.5a.36.35-78.3 0 1-.48.32l-.33-.13q-.41-.16-.44.28-.19 2.41-.54 4.8-2.03 13.81-4.68 27.51-.05.23.04.44.15.36-.05.7-.32.53-.3 1.18.02.38-.06.74l-.68 3.01q-1.17 2.3-.65 7.42.03 1.48-.41 2.48-.19.44-.64.57-1.09.32-1.93-.01-.25-.1-.5 0-.24.1-.49.1a.98.98 0 0 1-.86-.48l-1.24-2.12q-.04-.05-.08 0-.54.68-1.58.91-.44.1-.32.54.08.32-.2.5-1.6 1.03-1.29 2.96a.93.92 67.1 0 1-.35.87q-.63.49-1.03 1.15-.29.48-.84.41-1.06-.12-1.68.63-.07.08-.11.19-.11.26.19.35a.17.17 0 0 1-.07.33q-1.08-.16-1.59.71-.1.17-.28.24-.32.12-.55-.01-.28-.16-.56 0-1.99 1.1-2.85-1.11l-.04-16.06q0-.61-.6-.49l-2.75.55q-.17-4.07.99-7.73 1.22-3.87 1.42-5.66.93-8.2 1.22-16.45c.08-2.08.76-3.92.54-6.21q-.03-.31-.2-.57-.29-.44.25-.82a.86.85-25 0 0 .33-.9L90.93.32Q92 .26 92.38 0Z"/><path fill="#e7aa8a" d="m90.93.32.66 2.79a.86.85-25 0 1-.33.9q-.54.38-.25.82.17.26.2.57c.22 2.29-.46 4.13-.54 6.21q-.29 8.25-1.22 16.45-.2 1.79-1.42 5.66-1.16 3.66-.99 7.73-18.32 4.17-30.97 17.91-1.06.55-2.08.56-.51 0-.63-.5-.14-.56-.57-.99-.28-.28-.6-.03-.75.58-1.64 1.11-.32.2-.42-.16-.09-.3.38-.34a.3.3 0 0 0 .13-.56q-1.03-.61-2.23-.8a1.09 1.08-11.1 0 1-.75-.5q-.67-1.07-1.68-1.85-.5-.39-.88.13-.65.91-1.32-.25-.11-.17-.27-.06l-.32.2q-.31.2-.1.5.26.37.65.3a.12.12 0 0 1 .14.12q0 .13.01.28a.24.24 0 0 1-.44.14q-.53-.79-1.45-.53-.63.18-.63-.48 0-.15-.05-.27-.12-.28-.4-.37-.67-.21-1.43-.09-.49.07.11-.75.21-.28.17-.59-.09-.53-.62-.49-1.2.09-2.14-.75-.25-.22-.58-.21l-.41.01q-.49.01-.29.45.19.44.49.52.55.14.15.55-.26.26-.62.35-.25.06-.36-.16-.31-.58-.37-1.33a.45.45 0 0 0-.76-.28l-.25.26a.37.37 0 0 1-.63-.25l-.06-1.91a.17.17 0 0 0-.29-.11l-.28.27q-.25.26-.51 0l-.61-.61q-.34-.34.06-.61.29-.2.42-.5a.51.51 0 0 0-.61-.69q-.96.26-1.61 1.05-.23.27.01.54.19.23.21.48.03.45-.39.3-.99-.35-.82-1.49.13-.81.85-.94.53-.09.35-.59-.07-.18-.23-.31-.42-.32-.8.05l-.84.85q-.4.4-.86.06l-.22-.17q-.56-.42-.12-.96.07-.1.09-.25a.53.53 0 0 0-.64-.6q-1.2.27-1.96 1.2-.46.57-.45-.16.02-.95.8-1.5a.34.34 0 0 0 .02-.54l-2.39-1.97q-.01-.01-.02 0-.15.03-.24.13-.16.18-.02.36l1.12 1.46q.22.28 0 .57-.57.76-.45 1.66.03.22-.19.24l-.3.03q-.01 0-.02-.02-.01-.9-.16-1.79-.13-.8-.88-.58-.24.07-.21.33.03.15-.14.24-.53.28-.91-.19-.32-.39-.76-.65-.4-.25-.37-.72.04-.75-1.28-1.13C34.67 18.82 61.19 2.93 90.93.32Z"/><path fill="#edd4c0" d="M117.76 1.47q33.41 6.4 56.33 31.16-.77.23-1.43-.69a.23.23 0 0 0-.39.03q-.08.16-.16.33-.16.29-.48.35-.45.08-.72-.22-.36-.41-.78-.06-1.37 1.15-1.31 2.96a.38.38 0 0 1-.61.31l-.66-.49a.76.76 0 0 0-1.19.8q.3 1.13-.5 1.68-.26.18-.49-.04-.24-.22-.49-.22-.57.01-.82.21l-.7.55q-.44.35 0 .7.15.13.24.3.18.36-.21.45l-2.89.66a.36.36 0 0 0-.12.65q.55.36 1.21.23a.34.34 0 0 1 .2.64q-.52.22-1.07.12-.55-.11-.82.38l-.28.52a.33.33 0 0 1-.52.07l-.36-.35q-.31-.32-.48.1-.24.62-.02 1.14.23.53-.23.88l-2.42 1.88q-.27.21-.57.03-.14-.08-.27-.15-.44-.22-.56.26-.11.49-.38.9-.3.48-.69.08l-.27-.27q-.52-.51-.68.2l-.39 1.8q-.19.82-.58.08l-.32-.59q-.43-.78-.62.09-.22 1.04-1.19.95-.59-.05-.93.43-1.24 1.79-3.09 2.89-.35.21-.22.6l.16.43q.16.46-.3.6-.52.17-.96-.2-.53-.45-.65.24-.07.41.06.81.14.48-.36.49-.9.03-1.69.32-12.54-12.08-30.75-15.67l.68-3.01q.08-.36.06-.74-.02-.65.3-1.18.2-.34.05-.7-.09-.21-.04-.44 2.65-13.7 4.68-27.51.35-2.39.54-4.8.03-.44.44-.28l.33.13a.36.35-78.3 0 0 .48-.32q.01-.2-.1-.5Z"/><path fill="#dcd5d1" d="M174.09 32.63q11.07 12.35 17.77 27.6-1.46 1.69-3.06.47-.29-.23-.57.02-.7.63-1.4.16-.45-.29-.81.1c-1.18 1.24-3.05 2.91-4.53 1.8q-.38-.29-.67.1l-.92 1.24a.76.76 0 0 1-.84.28q-.46-.15-.83.09-.43.28-.36.79.05.4-.13.72-.17.31-.42.06-.13-.13-.25-.24a.65.64-38.6 0 0-.74-.08q-1.55.84-3.18 1.49c-.95.38-1.8 1.39-3.17 1.1q-.38-.08-.63.22-.85 1.09-2.28.8-.45-.09-.73.27-.62.82-1.59.51-1.28-.41-2.15-.03a.54.54 0 0 1-.6-.11l-.27-.27q-.22-.22-.34.07l-.35.91a.72.71 6.2 0 1-.57.45q-1.04.15-1.83-.53-.29-.24-.61-.05-.31.18-.17.61a.44.44 0 0 1-.54.56q-.67-.19-1.39-.14-.47.02-.77.39-.66.79-1.68 1.1-4.69-9.43-12.39-16.6.79-.29 1.69-.32.5-.01.36-.49-.13-.4-.06-.81.12-.69.65-.24.44.37.96.2.46-.14.3-.6l-.16-.43q-.13-.39.22-.6 1.85-1.1 3.09-2.89.34-.48.93-.43.97.09 1.19-.95.19-.87.62-.09l.32.59q.39.74.58-.08l.39-1.8q.16-.71.68-.2l.27.27q.39.4.69-.08.27-.41.38-.9.12-.48.56-.26.13.07.27.15.3.18.57-.03l2.42-1.88q.46-.35.23-.88-.22-.52.02-1.14.17-.42.48-.1l.36.35a.33.33 0 0 0 .52-.07l.28-.52q.27-.49.82-.38.55.1 1.07-.12a.34.34 0 0 0-.2-.64q-.66.13-1.21-.23a.36.36 0 0 1 .12-.65l2.89-.66q.39-.09.21-.45-.09-.17-.24-.3-.44-.35 0-.7l.7-.55q.25-.2.82-.21.25 0 .49.22.23.22.49.04.8-.55.5-1.68a.76.76 0 0 1 1.19-.8l.66.49a.38.38 0 0 0 .61-.31q-.06-1.81 1.31-2.96.42-.35.78.06.27.3.72.22.32-.06.48-.35.08-.17.16-.33a.23.23 0 0 1 .39-.03q.66.92 1.43.69Z"/><path d="m90.43 57.45-.12 2.51q-.03.53-.54.68-22.32 6.54-29.12 28.88-2.29 8.66-.89 17.22l2.32 8.55c3 8.92 10.37 16.63 18.47 21.18l9.33 3.64a.74.74 0 0 1 .48.69v18.46q0 .79-.75.58l-11.85-3.34q-20.23-8.5-30.78-27.82-11.88-23.49-3.5-48.62 4.23-11.62 12.59-20.7 12.65-13.74 30.97-17.91l2.75-.55q.6-.12.6.49l.04 16.06ZM110.34 40.82q18.21 3.59 30.75 15.67 7.7 7.17 12.39 16.6 6.73 13.4 6.49 28.75-.78 22.9-16.22 39.9-10.42 11.12-26.07 16.4l-7.7 1.84a.3.3 0 0 1-.36-.29l.01-18.93a.7.69-7 0 1 .53-.67q9.27-2.33 16.42-8.66 9.31-7.94 12.83-20.62 3.74-14.11-2.31-27.4-8.08-17.75-27.41-22.94V48.24q-.52-5.12.65-7.42Z"/><path fill="#d0a59d" d="M17.67 43.08q1.32.38 1.28 1.13-.03.47.37.72.44.26.76.65.38.47.91.19.17-.09.14-.24-.03-.26.21-.33.75-.22.88.58.15.89.16 1.79.01.02.02.02l.3-.03q.22-.02.19-.24-.12-.9.45-1.66.22-.29 0-.57l-1.12-1.46q-.14-.18.02-.36.09-.1.24-.13.01-.01.02 0l2.39 1.97a.34.34 0 0 1-.02.54q-.78.55-.8 1.5-.01.73.45.16.76-.93 1.96-1.2a.53.53 0 0 1 .64.6q-.02.15-.09.25-.44.54.12.96l.22.17q.46.34.86-.06l.84-.85q.38-.37.8-.05.16.13.23.31.18.5-.35.59-.72.13-.85.94-.17 1.14.82 1.49.42.15.39-.3-.02-.25-.21-.48-.24-.27-.01-.54.65-.79 1.61-1.05a.51.51 0 0 1 .61.69q-.13.3-.42.5-.4.27-.06.61l.61.61q.26.26.51 0l.28-.27a.17.17 0 0 1 .29.11l.06 1.91a.37.37 0 0 0 .63.25l.25-.26a.45.45 0 0 1 .76.28q.06.75.37 1.33.11.22.36.16.36-.09.62-.35.4-.41-.15-.55-.3-.08-.49-.52-.2-.44.29-.45l.41-.01q.33-.01.58.21.94.84 2.14.75.53-.04.62.49.04.31-.17.59-.6.82-.11.75.76-.12 1.43.09.28.09.4.37.05.12.05.27 0 .66.63.48.92-.26 1.45.53a.24.24 0 0 0 .44-.14q-.01-.15-.01-.28a.12.12 0 0 0-.14-.12q-.39.07-.65-.3-.21-.3.1-.5l.32-.2q.16-.11.27.06.67 1.16 1.32.25.38-.52.88-.13 1.01.78 1.68 1.85a1.09 1.08-11.1 0 0 .75.5q1.2.19 2.23.8a.3.3 0 0 1-.13.56q-.47.04-.38.34.1.36.42.16.89-.53 1.64-1.11.32-.25.6.03.43.43.57.99.12.5.63.5 1.02-.01 2.08-.56-8.36 9.08-12.59 20.7-.45.27-.65.73-.17.4-.6.32-.89-.16-1.47.32-.48.39-.61-.21l-.11-.51q-.09-.45-.54-.57-1.14-.3-1.69.57a.99.99 0 0 1-.89.46l-4.37-.18a.6.59 86.4 0 1-.56-.5q-.05-.29-.24-.41-.81-.51-.25-1.08l.29-.28q.37-.37-.15-.3-.45.05-.75.44-.37.47-.74 0-.61-.77-1.52-1.19-.31-.14-.59.05l-1.36.86q-.4.25-.68-.12-.54-.72-1.28.03-.29.3-.52-.06-.08-.13-.08-.28 0-.61-.59-.78-.52-.14-.7.17-.2.33-.59.33h-.77a.32.32 0 0 1-.2-.56q.3-.25.32-.53.03-.44-.31-.16l-1.73 1.46q-.43.36-.66-.15-.28-.63-.99-1.15-.24-.18-.53-.09-1.82.59-2.54-1.18-.17-.41-.33.01-.17.45.38.96.27.24-.09.3l-.72.11a.74.73-23 0 1-.68-.27c-.72-.87-2.05-.84-2.26-2.16q-.05-.34-.4-.34h-.48q-.38 0-.38.38v.72a.39.39 0 0 1-.72.21q-.25-.38-.63-.56-.51-.24-.13-.65.27-.29.37-.62.13-.48-.3-.23-.37.22-.65.56a.51.51 0 0 1-.88-.16l-.36-1.15q-.12-.37-.37-.08-.19.22-.08.64.07.27.01.54-.11.49.12.4a.18.18 0 0 1 .23.23q-.1.32-.47.33c-.42 0-1.83-.98-2.5-1.19q4.46-16.36 14.16-30.41Z"/><path fill="#d3b7b2" d="M109.69 48.24v12.23q-.09-.32-1.19.13-.49.21-.89.69-.95 1.16-2.01 2.22-.33.34-.81.36-1.23.04-1.79.91-1.28 1.99-2.12 2.85a.86.84 69.2 0 0-.26.59q0 .15.01.31.02.49.49.36 1.53-.46 1.51 1.04-.01.54-.46.82-1.26.81-1.93 2.23-.12.25-.12.52 0 .12.02.25.02.28-.19.45l-2.08 1.66q-.41.32.07.51.71.28 1.28.8.04.03.08 0 .11-.08.2-.17.65-.76.62.25 0 .13.01.27.01.27.24.12l.91-.61q.52-.35 1.02.04.24.2.48-.11a.67.66-55.9 0 1 .86-.17q.59.35 1.27.33.74-.02.22.5l-1.15 1.15q-.12.11.05.11h.44q.44 0 .4.44-.02.26.03.46.07.23-.17.28-1.19.24-1.84 1.37-.13.22.13.2.68-.04.57.61-.16 1.01.72.25 1.24-1.07 2.99-.27.39.18.07.45l-3.03 2.64q-.33.28-.2.7.23.79 1.01.93.35.07.09.32l-1.01 1.01a.15.15 0 0 0 .04.24q.13.06.27.12.41.17.1.49l-.64.64q-.26.25-.5-.02-.25-.28-.56-.39a.42.41 24.9 0 0-.48.17q-.52.83-1.47.6a1.09 1.08 30.8 0 0-.97.24q-1.11.98-2.77.53-.71-.2-.76.61a.12.11 85.9 0 0 .13.12q.15-.01.27.01a.2.2 0 0 1 .07.36c-1.69 1.17-3.07 2.52-5.14.84q-.32-.26-.73-.2-.51.07-1.09-.13-1.44-.49-2.09.75-.19.37-.62.39-1.03.03-1.04.8-.82-.46-2.01-.31-.12.02-.04-.08.09-.11.17-.19.09-.11.01-.23-.91-1.5-2.54-.77-.11.06-.11.05l-.14-.14q-.11-.11.12-.56.24-.45.73-.6.46-.13.64-.58.35-.86.02-1.63-.08-.16.05-.29l.29-.29q.28-.27.01-.56-.12-.12-.3-.15-.13-.03-.31.05-1.33.59-2.74.46-.38-.03-.68.22-.51.45-1.01.29c-1.38-.43-1.97-.41-3.15.48a.92.9 34.8 0 1-.82.14l-1.32-.4q-.55-.17-1.02.16-1.08.76-2.37.93a.33.32-26.3 0 0-.19.55q.09.1.12.23.06.25-.15.4-2.3 1.62-4.34.29-.43-.29-.95-.32l-2.91-.14a.5.49-2 0 1-.47-.43l-.19-1.5q6.8-22.34 29.12-28.88.51-.15.54-.68l.12-2.51q.86 2.21 2.85 1.11.28-.16.56 0 .23.13.55.01.18-.07.28-.24.51-.87 1.59-.71a.17.17 0 0 0 .07-.33q-.3-.09-.19-.35.04-.11.11-.19.62-.75 1.68-.63.55.07.84-.41.4-.66 1.03-1.15a.93.92 67.1 0 0 .35-.87q-.31-1.93 1.29-2.96.28-.18.2-.5-.12-.44.32-.54 1.04-.23 1.58-.91.04-.05.08 0l1.24 2.12a.98.98 0 0 0 .86.48q.25 0 .49-.1.25-.1.5 0 .84.33 1.93.01.45-.13.64-.57.44-1 .41-2.48Z"/><path fill="#c3c2cc" d="M109.69 60.47q19.33 5.19 27.41 22.94 6.05 13.29 2.31 27.4-2.36 1.03-3.03.41-.14-.12-.32-.09-.19.03-.33.13-.13.1-.3.08l-6.67-.7q-.46-.05-.6-.49-.15-.49-.66-.53-1.46-.11-2.39-.26-.5-.08-.68-.56-.63-1.68-2.46-1.1-.39.12-.62-.21-.85-1.18-2.27-1.26a.24.23-55.3 0 1-.08-.45q.13-.06.27-.12.18-.09.15-.29-.06-.4-.42-.63-.67-.44-.99-.46l-9.31-.53q-.4-.02-.71.22-1.09.86-2.5.88-.21 0-.25.21-.03.2-.25.24-1.66.34-3.3.26-.12-.01-.21.04-.15.08-.24.22-.09.15-.27.15l-9.76-.06a.44.44 0 0 0-.4.63l.16.37q.1.21-.13.19l-3.65-.31q-.46-.03-.85.21-1.16.74-2.31.17-.1-.05-.05-.14.06-.12.11-.24.15-.3-.17-.37-1.13-.23-2.04.44-.36.27-.81.25-.83-.03-1.51.71-.31.34-.76.26l-1.43-.24a.61.6 83.7 0 0-.66.83l.55 1.33q.04.08-.03.14-.21.18-.52.24-.16.03.33.61.19.22.55.11.04-.01.04.02v.27a.23.23 0 0 1-.29.22q-.79-.23-1.32.23-.6.53.2.53h.52q.79 0 .05.3-3.02 1.21-6.27.48-.31-.07-.51-.33-.36-.48-1.01-.16-3.65 1.78-6.92 2.63l-2.32-8.55q1.56.66 2.22-.19.29-.38.76-.49 1.57-.39 3.05.53a.55.55 0 0 0 .84-.51q-.01-.15-.01-.29 0-.1.09-.05.68.33 1.24-.1.34-.26.75-.16 2.55.58 4.86-.42.44-.19.53-.67.2-1.03 1.25-1.04.5 0 .85-.36l.66-.66a.25.25 0 0 0-.21-.43q-.25.04-.39-.17-.09-.13.03-.23 1.48-1.27 3.25-.56.35.15.62.41.18.18.4.21.19.03.75-.32.58-.34 1.09-.03.39.23.84.18l.92-.09a.33.32 74.4 0 0 .26-.47q-.08-.16-.17-.35-.11-.25.03-.49.15-.24.09-.5-.12-.61-.74-.61h-.83q-.41 0-.06-.22l1.18-.76q.27-.17.59-.12 1.36.21 2.72-.01a.13.13 0 0 0 .03-.25l-.26-.12q-.12-.06.01-.07l.84-.1q.33-.04.61-.23.73-.5.22-.85-.43-.31-.94-.14-.91.31-1.5-.35-.2-.23.01-.44.51-.51.01-.78.01-.77 1.04-.8.43-.02.62-.39.65-1.24 2.09-.75.58.2 1.09.13.41-.06.73.2c2.07 1.68 3.45.33 5.14-.84a.2.2 0 0 0-.07-.36q-.12-.02-.27-.01a.12.11 85.9 0 1-.13-.12q.05-.81.76-.61 1.66.45 2.77-.53a1.09 1.08 30.8 0 1 .97-.24q.95.23 1.47-.6a.42.41 24.9 0 1 .48-.17q.31.11.56.39.24.27.5.02l.64-.64q.31-.32-.1-.49-.14-.06-.27-.12a.15.15 0 0 1-.04-.24l1.01-1.01q.26-.25-.09-.32-.78-.14-1.01-.93-.13-.42.2-.7l3.03-2.64q.32-.27-.07-.45-1.75-.8-2.99.27-.88.76-.72-.25.11-.65-.57-.61-.26.02-.13-.2.65-1.13 1.84-1.37.24-.05.17-.28-.05-.2-.03-.46.04-.44-.4-.44h-.44q-.17 0-.05-.11l1.15-1.15q.52-.52-.22-.5-.68.02-1.27-.33a.67.66-55.9 0 0-.86.17q-.24.31-.48.11-.5-.39-1.02-.04l-.91.61q-.23.15-.24-.12-.01-.14-.01-.27.03-1.01-.62-.25-.09.09-.2.17-.04.03-.08 0-.57-.52-1.28-.8-.48-.19-.07-.51l2.08-1.66q.21-.17.19-.45-.02-.13-.02-.25 0-.27.12-.52.67-1.42 1.93-2.23.45-.28.46-.82.02-1.5-1.51-1.04-.47.13-.49-.36-.01-.16-.01-.31a.86.84 69.2 0 1 .26-.59q.84-.86 2.12-2.85.56-.87 1.79-.91.48-.02.81-.36 1.06-1.06 2.01-2.22.4-.48.89-.69 1.1-.45 1.19-.13Z"/><path fill="#c7d0da" d="M191.86 60.23q6.65 15.59 8.14 32.67v14.34q-.4.4-.24 1.52-.9.29-1.27-.08-.25-.25.05-.45.2-.12-.03-.24-.7-.38-.76-.37-.29.04-.54-.04a.55.54 16.8 0 1-.37-.67l.32-1.11q.08-.29-.13-.08l-.44.43q-.28.28-.49-.05l-.25-.39a.38.38 0 0 1 .21-.58q.74-.22.97-.88.19-.51-.21-.14-.85.79-1.72 1.56-.44.39-.84.43-.53.06-.99-.2-.23-.13-.77-.28-.36-.1-.65.05-.54.27-.87-.24-1.09-1.7-2.9-.84-.76.37-1.2.29-.7-.11-1.14-.63-.31-.36-.74-.19-.72.27-1.28-.01-.29-.15-.59 0-.33.16-.89.08-1.53-.24-2.58-.62-.46-.17-.83.16-.33.29-.78.2-.46-.1-.85-.37-1.14-.79-2.35-.16-.39.2-.69-.12-.98-1.08-2.37-.39-.3.15-.54-.08l-.35-.36a.39.38 40.4 0 0-.58.04q-.43.59-1.28.42-.47-.09-.83.22-.85.74-1.97 1.19a.81.81 0 0 1-1.12-.78q.03-.69.43-1.26.5-.72-.36-.53-.22.05-.43.12-.45.14-.85-.08-.51-.28-.98.04-.41.27-.9.23l-2.06-.16q.24-15.35-6.49-28.75 1.02-.31 1.68-1.1.3-.37.77-.39.72-.05 1.39.14a.44.44 0 0 0 .54-.56q-.14-.43.17-.61.32-.19.61.05.79.68 1.83.53a.72.71 6.2 0 0 .57-.45l.35-.91q.12-.29.34-.07l.27.27a.54.54 0 0 0 .6.11q.87-.38 2.15.03.97.31 1.59-.51.28-.36.73-.27 1.43.29 2.28-.8.25-.3.63-.22c1.37.29 2.22-.72 3.17-1.1q1.63-.65 3.18-1.49a.65.64-38.6 0 1 .74.08q.12.11.25.24.25.25.42-.06.18-.32.13-.72-.07-.51.36-.79.37-.24.83-.09a.76.76 0 0 0 .84-.28l.92-1.24q.29-.39.67-.1c1.48 1.11 3.35-.56 4.53-1.8q.36-.39.81-.1.7.47 1.4-.16.28-.25.57-.02 1.6 1.22 3.06-.47Z"/><path fill="#afa8bc" d="M43.48 80.06q-8.38 25.13 3.5 48.62-.56.21-.9-.68a.16.16 0 0 0-.3-.01q-.06.14-.14.29-.14.28-.41.13l-.41-.23q-.43-.25-.7.18-.93 1.48-2.5 1.3-.39-.04-.65-.34-.21-.25-.59-.24-.47.01-.67.4-.11.23-.04.53.12.53-.42.43-1.02-.2-1.54.6a2.02 1.33 37.9 0 1-2.55-.21q-.33-.28-.89-.16a.59.58 10.4 0 0-.36.24q-.88 1.19-2.12 1.93a.23.23 0 0 0-.06.34l.18.23a.2.2 0 0 1-.19.32q-1.65-.35-2.1 1.01-.15.48-.56.09-.13-.12-.31-.15-.55-.11-.04-.36.32-.15.33-.25.29-2.05-1.12-.65l-.77.78q-.33.32-.06.7.12.16.27.31.33.35-.14.44-1 .2-1.61-.48h-.02l-.27.27q-.09.09-.01.2.41.62.36 1.39-.04.48-.5.62-.78.23-.95-.45a.56.56 0 0 0-1-.2q-.93 1.26-1.33.16a.4.4 0 0 0-.74-.03q-.39.84-1.29 1.33-.36.2-.62-.12-.21-.25-.62-.36-.53-.13-.66.41l-.09.36a.3.29 18.8 0 0 .17.34q.83.32 1.22 1.18a.38.38 0 0 1-.58.46l-1.89-1.46q-.52-.4-.79.2-.53 1.18-2.04 1.16a1 1 0 0 0-.86.49q-.57.99-.44 2.17a.26.26 0 0 1-.46.19q-.28-.37-.69-.59a.4.4 0 0 0-.59.36q.02.83-.67 1.06-6.83-13.96-9.07-29.34-.58-3.93-1.18-7.86V92.76q.48-2.73.77-5.5c.51-4.85 1.55-9.23 2.74-13.77.67.21 2.08 1.19 2.5 1.19q.37-.01.47-.33a.18.18 0 0 0-.23-.23q-.23.09-.12-.4.06-.27-.01-.54-.11-.42.08-.64.25-.29.37.08l.36 1.15a.51.51 0 0 0 .88.16q.28-.34.65-.56.43-.25.3.23-.1.33-.37.62-.38.41.13.65.38.18.63.56a.39.39 0 0 0 .72-.21v-.72q0-.38.38-.38h.48q.35 0 .4.34c.21 1.32 1.54 1.29 2.26 2.16a.74.73-23 0 0 .68.27l.72-.11q.36-.06.09-.3-.55-.51-.38-.96.16-.42.33-.01.72 1.77 2.54 1.18.29-.09.53.09.71.52.99 1.15.23.51.66.15l1.73-1.46q.34-.28.31.16-.02.28-.32.53a.32.32 0 0 0 .2.56h.77q.39 0 .59-.33.18-.31.7-.17.59.17.59.78 0 .15.08.28.23.36.52.06.74-.75 1.28-.03.28.37.68.12l1.36-.86q.28-.19.59-.05.91.42 1.52 1.19.37.47.74 0 .3-.39.75-.44.52-.07.15.3l-.29.28q-.56.57.25 1.08.19.12.24.41a.6.59 86.4 0 0 .56.5l4.37.18a.99.99 0 0 0 .89-.46q.55-.87 1.69-.57.45.12.54.57l.11.51q.13.6.61.21.58-.48 1.47-.32.43.08.6-.32.2-.46.65-.73ZM86.25 94.44q.5.27-.01.78-.21.21-.01.44.59.66 1.5.35.51-.17.94.14.51.35-.22.85-.28.19-.61.23l-.84.1q-.13.01-.01.07l.26.12a.13.13 0 0 1-.03.25q-1.36.22-2.72.01-.32-.05-.59.12l-1.18.76q-.35.22.06.22h.83q.62 0 .74.61.06.26-.09.5-.14.24-.03.49.09.19.17.35a.33.32 74.4 0 1-.26.47l-.92.09q-.45.05-.84-.18-.51-.31-1.09.03-.56.35-.75.32-.22-.03-.4-.21-.27-.26-.62-.41-1.77-.71-3.25.56-.12.1-.03.23.14.21.39.17a.25.25 0 0 1 .21.43l-.66.66q-.35.36-.85.36-1.05.01-1.25 1.04-.09.48-.53.67-2.31 1-4.86.42-.41-.1-.75.16-.56.43-1.24.1-.09-.05-.09.05 0 .14.01.29a.55.55 0 0 1-.84.51q-1.48-.92-3.05-.53-.47.11-.76.49-.66.85-2.22.19-1.4-8.56.89-17.22l.19 1.5a.5.49-2 0 0 .47.43l2.91.14q.52.03.95.32 2.04 1.33 4.34-.29.21-.15.15-.4-.03-.13-.12-.23a.33.32-26.3 0 1 .19-.55q1.29-.17 2.37-.93.47-.33 1.02-.16l1.32.4a.92.9 34.8 0 0 .82-.14c1.18-.89 1.77-.91 3.15-.48q.5.16 1.01-.29.3-.25.68-.22 1.41.13 2.74-.46.18-.08.31-.05.18.03.3.15.27.29-.01.56l-.29.29q-.13.13-.05.29.33.77-.02 1.63-.18.45-.64.58-.49.15-.73.6-.23.45-.12.56l.14.14q0 .01.11-.05 1.63-.73 2.54.77.08.12-.01.23-.08.08-.17.19-.08.1.04.08 1.19-.15 2.01.31Z"/><path fill="#a1c9e4" d="M199.76 108.76q-3.25 32.92-24.95 57.79-.84-.23-1.73-.17-.47.04-.79-.3c-6.64-6.73-13.05-13.95-20.97-19.2-1.78-1.18-3.1-2.77-4.85-4.08q-.33-.25-.44-.65-.07-.27-.27-.51-.18-.21-.38-.02l-.23.24q-.21.2-.38-.03-.29-.4-1.02-.09 15.44-17 16.22-39.9l2.06.16q.49.04.9-.23.47-.32.98-.04.4.22.85.08.21-.07.43-.12.86-.19.36.53-.4.57-.43 1.26a.81.81 0 0 0 1.12.78q1.12-.45 1.97-1.19.36-.31.83-.22.85.17 1.28-.42a.39.38 40.4 0 1 .58-.04l.35.36q.24.23.54.08 1.39-.69 2.37.39.3.32.69.12 1.21-.63 2.35.16.39.27.85.37.45.09.78-.2.37-.33.83-.16 1.05.38 2.58.62.56.08.89-.08.3-.15.59 0 .56.28 1.28.01.43-.17.74.19.44.52 1.14.63.44.08 1.2-.29 1.81-.86 2.9.84.33.51.87.24.29-.15.65-.05.54.15.77.28.46.26.99.2.4-.04.84-.43.87-.77 1.72-1.56.4-.37.21.14-.23.66-.97.88a.38.38 0 0 0-.21.58l.25.39q.21.33.49.05l.44-.43q.21-.21.13.08l-.32 1.11a.55.54 16.8 0 0 .37.67q.25.08.54.04.06-.01.76.37.23.12.03.24-.3.2-.05.45.37.37 1.27.08Z"/><path fill="#9bb8d8" d="M139.41 110.81q-3.52 12.68-12.83 20.62-1.62-.54-2.87.47a.47.47 0 0 1-.74-.24q-.26-.92-1.15-.67-.48.13-.94-.06-.3-.13-.48-.37-.23-.31-.61-.42-.35-.11-.57.12-.29.3-.71.23l-8.69-1.43q-.44-.08-.64-.48l-.46-.94q-.25-.52-.83-.56l-3.96-.27q-.55-.04-.74.49-.27.77.37.84.5.06.25.49-.18.32-.56.28c-2.1-.22-3.48-.34-5.71.2q-1.28.31-2.67.2a.03.02-22.5 0 0-.02.04q.14.14.15.22a.27.25 86.9 0 1-.25.3h-1.96q-.45 0-.71.36-.73 1.01-.05 1.67.6.6-.24.68-1.46.13-2.93.03-.06 0-.36.13-.15.07-.14.21.02.43-.4.42c-2.93-.02-6.45-.95-7.41 3.1-8.1-4.55-15.47-12.26-18.47-21.18q3.27-.85 6.92-2.63.65-.32 1.01.16.2.26.51.33 3.25.73 6.27-.48.74-.3-.05-.3h-.52q-.8 0-.2-.53.53-.46 1.32-.23a.23.23 0 0 0 .29-.22v-.27q0-.03-.04-.02-.36.11-.55-.11-.49-.58-.33-.61.31-.06.52-.24.07-.06.03-.14l-.55-1.33a.61.6 83.7 0 1 .66-.83l1.43.24q.45.08.76-.26.68-.74 1.51-.71.45.02.81-.25.91-.67 2.04-.44.32.07.17.37-.05.12-.11.24-.05.09.05.14 1.15.57 2.31-.17.39-.24.85-.21l3.65.31q.23.02.13-.19l-.16-.37a.44.44 0 0 1 .4-.63l9.76.06q.18 0 .27-.15.09-.14.24-.22.09-.05.21-.04 1.64.08 3.3-.26.22-.04.25-.24.04-.21.25-.21 1.41-.02 2.5-.88.31-.24.71-.22l9.31.53q.32.02.99.46.36.23.42.63.03.2-.15.29-.14.06-.27.12a.24.23-55.3 0 0 .08.45q1.42.08 2.27 1.26.23.33.62.21 1.83-.58 2.46 1.1.18.48.68.56.93.15 2.39.26.51.04.66.53.14.44.6.49l6.67.7q.17.02.3-.08.14-.1.33-.13.18-.03.32.09.67.62 3.03-.41Z"/><path fill="#62b5eb" d="M126.58 131.43q-7.15 6.33-16.42 8.66a.7.69-7 0 0-.53.67l-.01 18.93a.3.3 0 0 0 .36.29l7.7-1.84 8.17 6.44q.36.29.55.72l1.45 3.4q.17.4.56.6.66.35 1.47 1.32 5.28 6.25 7.68 12.75.14.39.46.65.49.41.33 1.07-.04.19.13.28.31.16.54.42.34.38.5.86c.34.99.72 1.95 1.3 2.83q.59.91-.28 2.05-15.08 6.61-27.54 7.75-4.22.39-5.88.72H92.76q-3.74-.59-7.49-1.13-18-2.59-33.86-11.36.16-.96-.29-1.41-.33-.33-.19-.77.36-1.06 1.27-1.73.32-.24.41-.63.26-1.25-.42-2.06-.29-.35-.7-.32-.52.03-.92.48a.18.18 0 0 1-.3-.04q-.09-.18-.17-.36a.65.64 64.3 0 1 .29-.84q.67-.36.49-1.08a.51.51 0 0 1 .63-.61q.22.06.36.24.24.32.24.52.01.19 0 .4-.01.61.52.28.97-.61 1.64-1.51a.68.67 26.5 0 1 .74-.24q.82.26 1.47-.08.6-.31-.05-.5-.91-.26-1.88-.09-.2.03-.29-.15-.08-.17-.18-.34a.52.52 0 0 1 .48-.77q.52.02.58-.39.13-.97.72-.26.22.26.56.37.22.08.3-.14l1.47-3.92q.2-.54.69-.24.22.14.42.29.31.25.7.26 1.03.02 1.32.99a.08.07 76.7 0 0 .08.06q.21-.04.36-.16a.37.37 0 0 0-.26-.65q-.13.01-.26.01-.21 0-.29-.21-.21-.58.33-.88.21-.11.43-.15.33-.06.4-.38.21-.88-.42-1.44a.55.54-22.8 0 1 .39-.95l1.52.07a.3.3 0 0 1 .2.51l-.43.44q-.36.36.14.38.62.04.85-.95.1-.44-.19-.8-.98-1.23-2.69-.85-.67.14-.37-.47.1-.21.29-.37.26-.2.79-.18 1.89.1 3.72-.3.47-.11.47-.6v-.75q0-.7.69-.59 1.1.18 1.17-1.22.02-.3-.08-.59-.11-.31.1-.59a1.62.01-52.5 0 1 .98-1.26q.69-.29.99.28.45.88.43-.02l-.02-.35q-.02-.55.47-.82 1.24-.66 2.12-1.68.31-.36.64-.02l.26.26a.3.3 0 0 0 .51-.22q-.01-.18.06-.32.17-.35.56-.39l2.5-.21 11.85 3.34q.75.21.75-.58V140.8a.74.74 0 0 0-.48-.69l-9.33-3.64c.96-4.05 4.48-3.12 7.41-3.1q.42.01.4-.42-.01-.14.14-.21.3-.13.36-.13 1.47.1 2.93-.03.84-.08.24-.68-.68-.66.05-1.67.26-.36.71-.36h1.96a.27.25 86.9 0 0 .25-.3q-.01-.08-.15-.22a.03.02-22.5 0 1 .02-.04q1.39.11 2.67-.2c2.23-.54 3.61-.42 5.71-.2q.38.04.56-.28.25-.43-.25-.49-.64-.07-.37-.84.19-.53.74-.49l3.96.27q.58.04.83.56l.46.94q.2.4.64.48l8.69 1.43q.42.07.71-.23.22-.23.57-.12.38.11.61.42.18.24.48.37.46.19.94.06.89-.25 1.15.67a.47.47 0 0 0 .74.24q1.25-1.01 2.87-.47Z"/><path fill="#7faddb" d="M46.98 128.68Q57.53 148 77.76 156.5l-2.5.21q-.39.04-.56.39-.07.14-.06.32a.3.3 0 0 1-.51.22l-.26-.26q-.33-.34-.64.02-.88 1.02-2.12 1.68-.49.27-.47.82l.02.35q.02.9-.43.02-.3-.57-.99-.28a1.62.01-52.5 0 0-.98 1.26q-.21.28-.1.59.1.29.08.59-.07 1.4-1.17 1.22-.69-.11-.69.59v.75q0 .49-.47.6-1.83.4-3.72.3-.53-.02-.79.18-.19.16-.29.37-.3.61.37.47 1.71-.38 2.69.85.29.36.19.8-.23.99-.85.95-.5-.02-.14-.38l.43-.44a.3.3 0 0 0-.2-.51l-1.52-.07a.55.54-22.8 0 0-.39.95q.63.56.42 1.44-.07.32-.4.38-.22.04-.43.15-.54.3-.33.88.08.21.29.21.13 0 .26-.01a.37.37 0 0 1 .26.65q-.15.12-.36.16a.08.07 76.7 0 1-.08-.06q-.29-.97-1.32-.99-.39-.01-.7-.26-.2-.15-.42-.29-.49-.3-.69.24l-1.47 3.92q-.08.22-.3.14-.34-.11-.56-.37-.59-.71-.72.26-.06.41-.58.39a.52.52 0 0 0-.48.77q.1.17.18.34.09.18.29.15.97-.17 1.88.09.65.19.05.5-.65.34-1.47.08a.68.67 26.5 0 0-.74.24q-.67.9-1.64 1.51-.53.33-.52-.28.01-.21 0-.4 0-.2-.24-.52-.14-.18-.36-.24a.51.51 0 0 0-.63.61q.18.72-.49 1.08a.65.64 64.3 0 0-.29.84q.08.18.17.36a.18.18 0 0 0 .3.04q.4-.45.92-.48.41-.03.7.32.68.81.42 2.06-.09.39-.41.63-.91.67-1.27 1.73-.14.44.19.77.45.45.29 1.41-27.21-15.33-41.16-43.2.69-.23.67-1.06a.4.4 0 0 1 .59-.36q.41.22.69.59a.26.26 0 0 0 .46-.19q-.13-1.18.44-2.17a1 1 0 0 1 .86-.49q1.51.02 2.04-1.16.27-.6.79-.2l1.89 1.46a.38.38 0 0 0 .58-.46q-.39-.86-1.22-1.18a.3.29 18.8 0 1-.17-.34l.09-.36q.13-.54.66-.41.41.11.62.36.26.32.62.12.9-.49 1.29-1.33a.4.4 0 0 1 .74.03q.4 1.1 1.33-.16a.56.56 0 0 1 1 .2q.17.68.95.45.46-.14.5-.62.05-.77-.36-1.39-.08-.11.01-.2l.27-.27h.02q.61.68 1.61.48.47-.09.14-.44-.15-.15-.27-.31-.27-.38.06-.7l.77-.78q1.41-1.4 1.12.65-.01.1-.33.25-.51.25.04.36.18.03.31.15.41.39.56-.09.45-1.36 2.1-1.01a.2.2 0 0 0 .19-.32l-.18-.23a.23.23 0 0 1 .06-.34q1.24-.74 2.12-1.93a.59.58 10.4 0 1 .36-.24q.56-.12.89.16a2.02 1.33 37.9 0 0 2.55.21q.52-.8 1.54-.6.54.1.42-.43-.07-.3.04-.53.2-.39.67-.4.38-.01.59.24.26.3.65.34 1.57.18 2.5-1.3.27-.43.7-.18l.41.23q.27.15.41-.13.08-.15.14-.29a.16.16 0 0 1 .3.01q.34.89.9.68Z"/><path fill="#78c0eb" d="M174.81 166.55q-14.41 16.09-34.27 24.98.87-1.14.28-2.05c-.58-.88-.96-1.84-1.3-2.83q-.16-.48-.5-.86-.23-.26-.54-.42-.17-.09-.13-.28.16-.66-.33-1.07-.32-.26-.46-.65-2.4-6.5-7.68-12.75-.81-.97-1.47-1.32-.39-.2-.56-.6l-1.45-3.4q-.19-.43-.55-.72l-8.17-6.44q15.65-5.28 26.07-16.4.73-.31 1.02.09.17.23.38.03l.23-.24q.2-.19.38.02.2.24.27.51.11.4.44.65c1.75 1.31 3.07 2.9 4.85 4.08 7.92 5.25 14.33 12.47 20.97 19.2q.32.34.79.3.89-.06 1.73.17Z"/></svg>