<svg viewBox="0.00 0.00 16.00 16.00" version="1.1" xmlns="http://www.w3.org/2000/svg">
<g stroke-linecap="butt" fill="none" stroke-width="2.00">
<path d="M 7.82 3.36
  Q 7.59 3.25 7.32 3.37
  Q 7.10 3.47 7.04 3.68
  Q 6.89 4.24 7.38 3.93
  Q 8.47 3.21 8.99 4.37
  A 0.47 0.47 0.0 0 1 8.73 4.99
  Q 7.96 5.29 7.11 4.72
  A 0.69 0.69 0.0 0 1 6.94 4.55
  Q 6.44 3.79 5.80 4.09
  Q 4.20 4.86 5.97 4.98
  Q 6.01 4.98 6.48 4.99
  Q 6.89 5.01 7.07 5.37
  Q 7.40 6.03 8.17 5.81
  Q 8.58 5.70 8.82 5.35
  Q 9.25 4.75 9.99 4.89
  Q 10.47 4.99 10.73 4.57
  Q 11.07 4.01 11.68 3.79
  Q 12.28 3.58 11.80 3.16
  C 8.76 0.53 2.69 1.63 2.80 6.36
  A 0.04 0.04 0.0 0 0 2.87 6.38
  Q 5.13 0.79 10.72 2.97
  A 0.62 0.62 0.0 0 1 10.67 4.14
  Q 9.61 4.45 9.07 3.54
  Q 8.93 3.30 8.66 3.30
  Q 8.46 3.30 8.27 3.38
  Q 8.04 3.47 7.82 3.36" stroke="#89888a"></path>
<path d="M 4.87 6.86
  L 4.71 6.34
  A 0.33 0.32 -57.1 0 0 4.08 6.48
  L 4.32 8.63
  Q 4.39 9.29 4.74 8.73
  Q 4.88 8.51 4.95 8.25
  Q 5.07 7.81 5.52 7.77
  Q 5.84 7.74 6.12 7.63
  Q 6.47 7.50 6.12 7.34
  Q 5.82 7.20 5.50 7.25
  Q 5.02 7.33 4.87 6.86" stroke="#89888a"></path>
<path d="M 2.75 8.97
  C 2.89 13.81 9.29 14.15 12.28 11.62
  Q 12.49 11.44 12.27 11.28
  L 12.01 11.10
  Q 11.98 11.07 11.96 11.08
  Q 5.96 15.05 3.06 8.93
  A 0.90 0.87 52.2 0 1 3.16 8.01
  Q 3.57 7.49 3.01 7.03
  Q 2.48 6.59 2.33 7.26
  Q 2.21 7.77 2.51 8.20
  Q 2.74 8.55 2.75 8.97" stroke="#89888a"></path>
<path d="M 9.00 10.98
  Q 9.70 10.74 10.57 10.78
  A 0.27 0.26 84.7 0 0 10.83 10.46
  Q 10.76 10.18 10.50 10.13
  Q 9.14 9.87 9.00 10.98" stroke="#89888a"></path>
<path d="M 9.00 10.98
  Q 8.07 11.25 7.15 10.85
  A 0.31 0.31 0.0 0 1 6.99 10.46
  L 7.09 10.17
  A 0.58 0.58 0.0 0 1 7.76 9.81
  Q 8.74 10.04 8.83 9.49
  Q 8.92 8.97 8.42 9.13
  L 7.70 9.37
  Q 7.31 9.50 7.03 9.80
  Q 6.46 10.39 5.51 9.88
  A 0.15 0.14 18.2 0 0 5.30 9.98
  Q 5.27 10.13 5.24 10.27
  Q 5.20 10.48 5.39 10.56
  L 8.13 11.70
  A 0.62 0.62 0.0 0 0 8.67 11.66
  Q 9.12 11.41 9.00 10.98" stroke="#89888a"></path>
</g>
<path d="M 0.00 0.00
  L 16.00 0.00
  L 16.00 16.00
  L 0.00 16.00
  L 0.00 0.00
  Z
  M 7.82 3.36
  Q 7.59 3.25 7.32 3.37
  Q 7.10 3.47 7.04 3.68
  Q 6.89 4.24 7.38 3.93
  Q 8.47 3.21 8.99 4.37
  A 0.47 0.47 0.0 0 1 8.73 4.99
  Q 7.96 5.29 7.11 4.72
  A 0.69 0.69 0.0 0 1 6.94 4.55
  Q 6.44 3.79 5.80 4.09
  Q 4.20 4.86 5.97 4.98
  Q 6.01 4.98 6.48 4.99
  Q 6.89 5.01 7.07 5.37
  Q 7.40 6.03 8.17 5.81
  Q 8.58 5.70 8.82 5.35
  Q 9.25 4.75 9.99 4.89
  Q 10.47 4.99 10.73 4.57
  Q 11.07 4.01 11.68 3.79
  Q 12.28 3.58 11.80 3.16
  C 8.76 0.53 2.69 1.63 2.80 6.36
  A 0.04 0.04 0.0 0 0 2.87 6.38
  Q 5.13 0.79 10.72 2.97
  A 0.62 0.62 0.0 0 1 10.67 4.14
  Q 9.61 4.45 9.07 3.54
  Q 8.93 3.30 8.66 3.30
  Q 8.46 3.30 8.27 3.38
  Q 8.04 3.47 7.82 3.36
  Z
  M 4.87 6.86
  L 4.71 6.34
  A 0.33 0.32 -57.1 0 0 4.08 6.48
  L 4.32 8.63
  Q 4.39 9.29 4.74 8.73
  Q 4.88 8.51 4.95 8.25
  Q 5.07 7.81 5.52 7.77
  Q 5.84 7.74 6.12 7.63
  Q 6.47 7.50 6.12 7.34
  Q 5.82 7.20 5.50 7.25
  Q 5.02 7.33 4.87 6.86
  Z
  M 2.75 8.97
  C 2.89 13.81 9.29 14.15 12.28 11.62
  Q 12.49 11.44 12.27 11.28
  L 12.01 11.10
  Q 11.98 11.07 11.96 11.08
  Q 5.96 15.05 3.06 8.93
  A 0.90 0.87 52.2 0 1 3.16 8.01
  Q 3.57 7.49 3.01 7.03
  Q 2.48 6.59 2.33 7.26
  Q 2.21 7.77 2.51 8.20
  Q 2.74 8.55 2.75 8.97
  Z
  M 9.00 10.98
  Q 9.70 10.74 10.57 10.78
  A 0.27 0.26 84.7 0 0 10.83 10.46
  Q 10.76 10.18 10.50 10.13
  Q 9.14 9.87 9.00 10.98
  Q 8.07 11.25 7.15 10.85
  A 0.31 0.31 0.0 0 1 6.99 10.46
  L 7.09 10.17
  A 0.58 0.58 0.0 0 1 7.76 9.81
  Q 8.74 10.04 8.83 9.49
  Q 8.92 8.97 8.42 9.13
  L 7.70 9.37
  Q 7.31 9.50 7.03 9.80
  Q 6.46 10.39 5.51 9.88
  A 0.15 0.14 18.2 0 0 5.30 9.98
  Q 5.27 10.13 5.24 10.27
  Q 5.20 10.48 5.39 10.56
  L 8.13 11.70
  A 0.62 0.62 0.0 0 0 8.67 11.66
  Q 9.12 11.41 9.00 10.98
  Z" fill="#ffffff"></path>
<path d="M 8.27 3.38
  Q 8.46 3.30 8.66 3.30
  Q 8.93 3.30 9.07 3.54
  Q 9.61 4.45 10.67 4.14
  A 0.62 0.62 0.0 0 0 10.72 2.97
  Q 5.13 0.79 2.87 6.38
  A 0.04 0.04 0.0 0 1 2.80 6.36
  C 2.69 1.63 8.76 0.53 11.80 3.16
  Q 12.28 3.58 11.68 3.79
  Q 11.07 4.01 10.73 4.57
  Q 10.47 4.99 9.99 4.89
  Q 9.25 4.75 8.82 5.35
  Q 8.58 5.70 8.17 5.81
  Q 7.40 6.03 7.07 5.37
  Q 6.89 5.01 6.48 4.99
  Q 6.01 4.98 5.97 4.98
  Q 4.20 4.86 5.80 4.09
  Q 6.44 3.79 6.94 4.55
  A 0.69 0.69 0.0 0 0 7.11 4.72
  Q 7.96 5.29 8.73 4.99
  A 0.47 0.47 0.0 0 0 8.99 4.37
  Q 8.47 3.21 7.38 3.93
  Q 6.89 4.24 7.04 3.68
  Q 7.10 3.47 7.32 3.37
  Q 7.59 3.25 7.82 3.36
  Q 8.04 3.47 8.27 3.38
  Z" fill="#121114"></path>
<path d="M 5.50 7.25
  Q 5.82 7.20 6.12 7.34
  Q 6.47 7.50 6.12 7.63
  Q 5.84 7.74 5.52 7.77
  Q 5.07 7.81 4.95 8.25
  Q 4.88 8.51 4.74 8.73
  Q 4.39 9.29 4.32 8.63
  L 4.08 6.48
  A 0.33 0.32 -57.1 0 1 4.71 6.34
  L 4.87 6.86
  Q 5.02 7.33 5.50 7.25
  Z" fill="#121114"></path>
<path d="M 2.51 8.20
  Q 2.21 7.77 2.33 7.26
  Q 2.48 6.59 3.01 7.03
  Q 3.57 7.49 3.16 8.01
  A 0.90 0.87 52.2 0 0 3.06 8.93
  Q 5.96 15.05 11.96 11.08
  Q 11.98 11.07 12.01 11.10
  L 12.27 11.28
  Q 12.49 11.44 12.28 11.62
  C 9.29 14.15 2.89 13.81 2.75 8.97
  Q 2.74 8.55 2.51 8.20
  Z" fill="#121114"></path>
<path d="M 9.00 10.98
  Q 9.12 11.41 8.67 11.66
  A 0.62 0.62 0.0 0 1 8.13 11.70
  L 5.39 10.56
  Q 5.20 10.48 5.24 10.27
  Q 5.27 10.13 5.30 9.98
  A 0.15 0.14 18.2 0 1 5.51 9.88
  Q 6.46 10.39 7.03 9.80
  Q 7.31 9.50 7.70 9.37
  L 8.42 9.13
  Q 8.92 8.97 8.83 9.49
  Q 8.74 10.04 7.76 9.81
  A 0.58 0.58 0.0 0 0 7.09 10.17
  L 6.99 10.46
  A 0.31 0.31 0.0 0 0 7.15 10.85
  Q 8.07 11.25 9.00 10.98
  Z" fill="#121114"></path>
<path d="M 9.00 10.98
  Q 9.14 9.87 10.50 10.13
  Q 10.76 10.18 10.83 10.46
  A 0.27 0.26 84.7 0 1 10.57 10.78
  Q 9.70 10.74 9.00 10.98
  Z" fill="#121114"></path>
</svg>
