<svg viewBox="0.00 0.00 256.00 256.00" version="1.1" xmlns="http://www.w3.org/2000/svg">
<path d="M 187.66 128.42
  A 59.66 59.66 0.0 0 0 128.00 68.76
  A 59.66 59.66 0.0 0 0 68.34 128.42
  A 59.66 59.66 0.0 0 0 128.00 188.08
  A 59.66 59.66 0.0 0 0 187.66 128.42" stroke-linecap="butt" fill="none" stroke-width="2.00" stroke="#3b71be"></path>
<path d="M 256.00 123.40
  L 256.00 133.46
  C 252.43 199.51 202.86 250.17 137.11 256.00
  L 118.53 256.00
  C 52.72 250.28 3.76 199.26 0.00 133.37
  L 0.00 123.27
  Q 2.57 76.21 33.48 42.24
  C 87.15 -16.75 181.75 -12.12 229.93 51.08
  Q 253.93 82.58 256.00 123.40
  Z
  M 247.38 128.43
  A 119.39 119.39 0.0 0 0 127.99 9.04
  A 119.39 119.39 0.0 0 0 8.60 128.43
  A 119.39 119.39 0.0 0 0 127.99 247.82
  A 119.39 119.39 0.0 0 0 247.38 128.43
  Z" fill="#3d41a6"></path>
<path d="M 230.31 128.42
  A 102.31 102.31 0.0 0 1 128.00 230.73
  A 102.31 102.31 0.0 0 1 25.69 128.42
  A 102.31 102.31 0.0 0 1 128.00 26.11
  A 102.31 102.31 0.0 0 1 230.31 128.42
  Z
  M 187.66 128.42
  A 59.66 59.66 0.0 0 0 128.00 68.76
  A 59.66 59.66 0.0 0 0 68.34 128.42
  A 59.66 59.66 0.0 0 0 128.00 188.08
  A 59.66 59.66 0.0 0 0 187.66 128.42
  Z" fill="#38a1d6"></path>
<circle r="59.66" cy="128.42" cx="128.00" fill="#3d41a6"></circle>
</svg>
