<svg viewBox="0.00 0.00 180.00 180.00" version="1.1" xmlns="http://www.w3.org/2000/svg">
<g stroke-linecap="butt" fill="none" stroke-width="2.00">
<path d="M 131.30 25.66
  Q 130.59 26.68 129.75 27.01
  Q 129.27 27.20 128.98 27.64
  L 126.94 30.73
  A 1.34 1.33 5.0 0 1 126.31 31.25
  L 122.53 32.79" stroke="#a063f5"></path>
<path d="M 98.28 46.82
  Q 97.01 46.78 96.12 47.33
  Q 95.64 47.63 95.63 48.19
  Q 95.63 48.96 94.92 49.13
  Q 94.43 49.25 94.11 49.63
  Q 91.92 52.25 88.41 53.32" stroke="#a063f5"></path>
<path d="M 62.72 93.06
  L 62.18 92.18
  Q 62.00 91.89 62.00 92.23
  Q 62.00 92.39 62.00 92.55
  A 0.22 0.22 0.0 0 1 61.68 92.75
  Q 60.82 92.34 60.25 92.98
  Q 59.91 93.36 59.44 93.16
  Q 57.83 92.50 56.94 94.01
  Q 56.87 94.13 57.01 94.13
  L 57.50 94.13
  A 0.36 0.36 0.0 0 1 57.75 94.75
  L 57.51 94.99
  Q 57.30 95.19 57.04 95.08
  Q 56.79 94.97 56.60 94.95
  Q 56.56 94.94 56.39 95.50
  Q 56.31 95.74 56.40 95.89
  Q 56.77 96.53 56.07 96.78
  Q 54.69 97.26 52.25 96.65" stroke="#a063f5"></path>
<path d="M 50.06 138.66
  L 49.56 139.42
  Q 49.47 139.56 49.31 139.52
  Q 49.06 139.47 49.13 139.23
  A 0.74 0.53 -26.2 0 0 47.88 139.02
  Q 46.46 140.83 45.11 142.16
  C 44.30 142.97 43.24 143.10 42.40 144.11
  Q 42.08 144.50 41.60 144.65
  L 40.14 145.09" stroke="#a063f5"></path>
</g>
<path d="M 131.30 25.66
  Q 130.59 26.68 129.75 27.01
  Q 129.27 27.20 128.98 27.64
  L 126.94 30.73
  A 1.34 1.33 5.0 0 1 126.31 31.25
  L 122.53 32.79
  L 92.91 15.67
  A 1.21 1.19 -44.6 0 0 91.72 15.67
  L 68.51 29.09
  A 0.39 0.39 0.0 0 0 68.51 29.76
  L 98.28 46.82
  Q 97.01 46.78 96.12 47.33
  Q 95.64 47.63 95.63 48.19
  Q 95.63 48.96 94.92 49.13
  Q 94.43 49.25 94.11 49.63
  Q 91.92 52.25 88.41 53.32
  L 63.30 38.91
  A 0.49 0.49 0.0 0 0 62.57 39.34
  L 62.72 93.06
  L 62.18 92.18
  Q 62.00 91.89 62.00 92.23
  Q 62.00 92.39 62.00 92.55
  A 0.22 0.22 0.0 0 1 61.68 92.75
  Q 60.82 92.34 60.25 92.98
  Q 59.91 93.36 59.44 93.16
  Q 57.83 92.50 56.94 94.01
  Q 56.87 94.13 57.01 94.13
  L 57.50 94.13
  A 0.36 0.36 0.0 0 1 57.75 94.75
  L 57.51 94.99
  Q 57.30 95.19 57.04 95.08
  Q 56.79 94.97 56.60 94.95
  Q 56.56 94.94 56.39 95.50
  Q 56.31 95.74 56.40 95.89
  Q 56.77 96.53 56.07 96.78
  Q 54.69 97.26 52.25 96.65
  L 52.04 39.50
  Q 52.04 38.58 51.24 39.04
  L 28.80 52.01
  A 0.76 0.76 0.0 0 0 28.42 52.67
  L 28.42 125.28
  A 1.55 1.55 0.0 0 0 29.19 126.62
  L 50.06 138.66
  L 49.56 139.42
  Q 49.47 139.56 49.31 139.52
  Q 49.06 139.47 49.13 139.23
  A 0.74 0.53 -26.2 0 0 47.88 139.02
  Q 46.46 140.83 45.11 142.16
  C 44.30 142.97 43.24 143.10 42.40 144.11
  Q 42.08 144.50 41.60 144.65
  L 40.14 145.09
  Q 31.51 140.20 22.94 135.10
  C 20.30 133.53 17.75 132.61 17.75 129.00
  Q 17.77 89.25 17.77 49.50
  C 17.77 46.65 19.11 45.40 21.61 43.95
  Q 55.29 24.49 88.99 5.05
  C 92.62 2.95 94.14 4.24 97.76 6.31
  Q 114.58 15.93 131.30 25.66
  Z" fill="#bf4cf2"></path>
<path d="M 131.30 25.66
  Q 148.22 35.35 165.05 45.17
  Q 167.06 46.35 167.04 50.00
  Q 166.80 88.94 166.88 127.88
  C 166.89 131.40 166.05 132.64 162.95 134.43
  Q 128.94 154.06 94.91 173.63
  Q 92.27 175.15 89.62 173.63
  Q 64.88 159.40 40.14 145.09
  L 41.60 144.65
  Q 42.08 144.50 42.40 144.11
  C 43.24 143.10 44.30 142.97 45.11 142.16
  Q 46.46 140.83 47.88 139.02
  A 0.74 0.53 -26.2 0 1 49.13 139.23
  Q 49.06 139.47 49.31 139.52
  Q 49.47 139.56 49.56 139.42
  L 50.06 138.66
  L 51.82 139.66
  A 0.40 0.40 0.0 0 0 52.41 139.31
  L 52.25 96.65
  Q 54.69 97.26 56.07 96.78
  Q 56.77 96.53 56.40 95.89
  Q 56.31 95.74 56.39 95.50
  Q 56.56 94.94 56.60 94.95
  Q 56.79 94.97 57.04 95.08
  Q 57.30 95.19 57.51 94.99
  L 57.75 94.75
  A 0.36 0.36 0.0 0 0 57.50 94.13
  L 57.01 94.13
  Q 56.87 94.13 56.94 94.01
  Q 57.83 92.50 59.44 93.16
  Q 59.91 93.36 60.25 92.98
  Q 60.82 92.34 61.68 92.75
  A 0.22 0.22 0.0 0 0 62.00 92.55
  Q 62.00 92.39 62.00 92.23
  Q 62.00 91.89 62.18 92.18
  L 62.72 93.06
  L 62.95 139.29
  A 0.41 0.40 74.8 0 0 63.56 139.64
  L 150.46 89.45
  A 0.33 0.33 0.0 0 0 150.46 88.87
  L 88.41 53.32
  Q 91.92 52.25 94.11 49.63
  Q 94.43 49.25 94.92 49.13
  Q 95.63 48.96 95.63 48.19
  Q 95.64 47.63 96.12 47.33
  Q 97.01 46.78 98.28 46.82
  L 155.61 79.66
  Q 156.26 80.04 156.26 79.28
  L 156.24 52.75
  A 0.87 0.86 -75.0 0 0 155.81 52.00
  L 122.53 32.79
  L 126.31 31.25
  A 1.34 1.33 5.0 0 0 126.94 30.73
  L 128.98 27.64
  Q 129.27 27.20 129.75 27.01
  Q 130.59 26.68 131.30 25.66
  Z
  M 156.06 126.20
  A 0.37 0.37 0.0 0 0 156.25 125.88
  L 156.24 98.98
  A 0.37 0.37 0.0 0 0 155.69 98.66
  L 68.82 148.81
  A 0.37 0.37 0.0 0 0 68.82 149.45
  L 92.13 162.90
  A 0.37 0.37 0.0 0 0 92.49 162.90
  L 156.06 126.20
  Z" fill="#807af7"></path>
</svg>
