<svg viewBox="0.00 0.00 512.00 512.00" version="1.1" xmlns="http://www.w3.org/2000/svg">
<path d="M 475.68 333.66
  Q 475.06 334.48 475.02 335.49
  C 474.06 365.36 463.56 392.20 444.52 414.84
  C 424.40 438.75 397.75 457.58 367.01 464.50
  Q 363.94 465.19 355.45 466.32
  A 1.65 1.64 -70.1 0 0 354.56 466.74
  C 334.40 485.32 311.67 497.18 284.39 500.89
  C 247.05 505.96 208.22 498.67 178.01 475.36
  A 1.58 1.48 63.1 0 0 177.10 475.03
  C 150.77 474.23 126.11 466.27 104.97 450.51
  C 74.18 427.55 49.90 394.43 45.50 355.70
  A 1.83 1.82 22.9 0 0 45.13 354.80
  Q 43.27 352.42 41.31 350.20
  C 12.05 317.07 4.44 274.06 12.50 231.38
  Q 18.01 202.21 36.50 178.12
  Q 36.94 177.55 36.96 176.82
  Q 38.12 133.33 65.58 99.57
  C 88.11 71.85 119.69 49.83 156.00 45.73
  Q 156.99 45.61 157.71 44.93
  Q 186.03 17.71 224.75 11.52
  C 261.91 5.58 303.19 12.60 333.36 36.32
  A 3.47 3.46 65.1 0 0 335.38 37.06
  C 379.02 38.43 413.19 59.71 439.63 93.37
  C 453.76 111.34 463.50 132.68 466.17 155.50
  C 466.26 156.28 466.71 157.53 467.33 158.19
  C 496.43 188.95 506.13 228.30 501.30 269.75
  Q 497.16 305.29 475.68 333.66
  Z
  M 262.63 35.61
  C 250.75 33.78 238.27 34.49 226.38 35.87
  Q 207.44 38.07 190.18 46.27
  Q 188.85 46.90 190.29 47.20
  C 232.21 56.14 268.24 89.24 287.35 126.09
  C 300.13 150.73 303.52 176.76 296.34 203.98
  Q 290.96 224.41 279.10 241.16
  Q 278.28 242.32 279.63 241.87
  C 307.05 232.83 324.29 209.85 330.99 182.50
  Q 336.70 159.19 336.00 134.49
  C 334.73 90.04 311.01 43.07 262.63 35.61
  Z
  M 282.61 262.98
  C 317.89 280.71 354.35 265.65 382.11 241.98
  C 394.59 231.33 406.41 218.99 414.93 205.20
  C 435.02 172.70 438.99 131.75 413.32 100.66
  C 399.02 83.33 378.39 68.61 357.34 61.21
  Q 355.87 60.69 356.73 62.00
  C 377.88 93.96 382.47 135.62 374.56 172.75
  C 364.51 219.94 329.64 253.12 282.75 261.93
  Q 281.13 262.24 282.61 262.98
  Z
  M 111.14 136.20
  C 176.18 125.62 241.34 151.21 259.49 219.76
  Q 260.86 224.93 261.86 229.63
  Q 262.11 230.81 262.64 229.72
  C 276.85 200.56 270.36 170.46 252.91 144.58
  C 239.79 125.12 222.28 106.98 201.88 95.15
  C 168.67 75.88 128.84 74.29 98.79 100.16
  C 82.06 114.56 68.17 134.13 60.79 155.01
  Q 60.41 156.08 61.37 155.46
  Q 83.96 140.62 111.14 136.20
  Z
  M 164.37 177.67
  C 127.56 173.17 87.22 177.75 59.35 204.40
  C 40.66 222.26 33.55 244.54 34.68 270.30
  C 35.47 288.43 38.38 305.54 46.36 321.89
  Q 46.91 323.01 47.17 321.79
  C 57.08 274.95 97.95 233.03 142.51 217.60
  C 175.97 206.02 212.45 212.90 240.78 232.85
  Q 242.19 233.84 241.63 232.22
  C 229.78 197.42 199.08 181.90 164.37 177.67
  Z
  M 361.75 296.93
  C 330.43 305.43 296.71 297.39 270.54 278.92
  Q 269.67 278.31 270.00 279.32
  C 286.21 328.50 341.52 338.88 386.24 335.37
  C 424.16 332.39 462.47 311.59 474.09 272.94
  C 479.10 256.27 478.06 237.00 475.08 219.49
  Q 472.45 204.05 465.54 189.81
  Q 465.08 188.88 464.86 189.89
  C 453.91 239.12 410.27 283.75 361.75 296.93
  Z
  M 229.25 250.19
  Q 230.55 249.92 229.35 249.33
  C 197.24 233.67 164.52 243.29 137.49 263.98
  C 109.65 285.28 85.54 314.50 81.27 350.49
  Q 77.49 382.36 95.26 407.17
  Q 100.20 414.08 108.62 422.00
  C 122.20 434.78 137.38 444.81 154.71 450.87
  Q 155.83 451.26 155.18 450.27
  C 137.86 424.17 132.18 392.49 134.26 361.50
  C 137.33 315.66 159.89 277.17 202.49 258.42
  C 210.99 254.68 220.01 252.14 229.25 250.19
  Z
  M 217.51 369.75
  C 205.68 336.09 212.66 299.96 232.81 271.13
  Q 233.65 269.93 232.25 270.39
  C 187.99 284.96 176.13 330.72 176.06 372.12
  Q 176.03 387.93 179.38 403.47
  C 188.38 445.22 219.08 477.83 263.75 477.53
  C 283.88 477.40 303.92 474.39 322.11 465.57
  Q 323.04 465.12 322.03 464.89
  C 274.90 454.19 233.41 415.01 217.51 369.75
  Z
  M 354.63 377.05
  Q 337.01 375.11 321.50 369.42
  C 283.97 355.65 257.12 322.42 250.20 283.28
  Q 249.82 281.14 248.86 283.10
  C 234.73 311.99 241.65 342.46 259.23 367.99
  C 283.07 402.62 321.78 434.07 366.49 431.12
  Q 394.77 429.26 415.20 409.95
  C 430.62 395.39 444.00 377.51 450.84 357.35
  Q 451.24 356.18 450.21 356.86
  C 422.23 375.36 387.81 380.70 354.63 377.05
  Z" fill="#ffffff"></path>
</svg>
