<svg viewBox="0.00 0.00 48.00 48.00" version="1.1" xmlns="http://www.w3.org/2000/svg">
<path d="M 0.00 35.24
  L 0.00 19.76
  Q 0.98 14.26 5.51 12.82
  C 8.71 11.80 14.12 12.02 16.62 14.34
  C 18.89 16.45 19.07 20.90 17.89 23.70
  Q 17.46 24.74 16.34 24.73
  L 10.80 24.72
  Q 9.85 24.71 10.17 23.81
  Q 10.95 21.60 10.55 19.29
  A 0.97 0.97 0.0 0 0 9.55 18.48
  Q 8.34 18.54 8.20 19.82
  Q 7.90 22.82 7.87 25.88
  Q 7.87 26.50 8.48 26.50
  L 16.51 26.50
  Q 17.01 26.50 17.02 27.01
  L 17.05 31.98
  Q 17.05 32.52 16.52 32.52
  L 8.25 32.52
  Q 7.78 32.52 7.82 33.00
  L 7.97 34.75
  Q 8.01 35.25 7.52 35.25
  L 0.00 35.24
  Z" fill="#000000"></path>
<path d="M 28.53 18.75
  L 29.77 12.94
  A 0.30 0.28 -83.7 0 1 30.05 12.70
  L 37.54 12.69
  A 0.26 0.25 7.7 0 1 37.79 13.01
  C 36.43 18.02 34.45 22.54 34.21 27.76
  C 33.83 35.96 26.43 36.54 20.20 35.21
  Q 19.26 35.00 19.27 34.04
  L 19.27 27.47
  A 0.63 0.63 0.0 0 1 20.14 26.89
  Q 23.24 28.21 26.58 27.80
  A 1.75 1.75 0.0 0 0 27.97 26.74
  L 28.17 26.26
  A 0.73 0.72 -77.4 0 0 27.54 25.26
  L 22.71 25.04
  A 0.63 0.63 0.0 0 1 22.14 24.60
  L 18.69 13.49
  Q 18.44 12.70 19.27 12.70
  L 25.79 12.68
  A 1.15 1.15 0.0 0 1 26.92 13.61
  L 27.92 18.75
  A 0.31 0.31 0.0 0 0 28.53 18.75
  Z" fill="#000000"></path>
<path d="M 48.00 30.31
  L 48.00 32.53
  C 46.20 37.13 38.41 36.61 38.41 31.52
  C 38.41 28.77 40.35 27.94 42.26 26.42
  A 0.51 0.50 35.6 0 0 42.11 25.55
  Q 40.83 25.10 39.46 25.27
  Q 38.86 25.34 38.86 24.74
  L 38.89 13.03
  Q 38.89 12.70 39.22 12.70
  L 47.24 12.69
  A 0.31 0.30 0.0 0 1 47.55 12.99
  L 47.54 24.76
  Q 47.54 25.39 46.91 25.30
  Q 45.81 25.15 44.65 25.39
  A 0.86 0.85 50.0 0 0 44.51 27.02
  Q 47.09 28.06 48.00 30.31
  Z" fill="#000000"></path>
</svg>
