<svg viewBox="0.00 0.00 256.00 256.00" version="1.1" xmlns="http://www.w3.org/2000/svg">
<path d="M 149.72 145.73
  L 142.43 89.25
  Q 142.36 88.70 141.81 88.72
  C 126.30 89.26 117.21 98.82 111.75 112.77
  Q 105.25 129.38 98.95 145.78
  Q 98.58 146.75 98.53 145.71
  Q 97.78 131.60 96.92 117.15
  Q 96.54 110.74 95.60 107.74
  C 92.12 96.62 81.39 89.41 70.10 88.80
  Q 69.62 88.78 69.70 89.25
  L 83.47 173.26
  Q 83.56 173.77 84.08 173.77
  C 99.21 173.74 110.37 163.76 115.60 150.08
  Q 120.95 136.04 126.52 121.91
  Q 126.93 120.88 127.08 121.97
  L 134.34 172.79
  Q 134.50 173.87 135.59 173.83
  C 149.64 173.35 161.16 165.10 166.43 152.18
  Q 179.21 120.86 191.98 89.44
  Q 192.21 88.89 191.61 88.88
  C 180.50 88.79 172.19 93.89 165.88 102.61
  Q 162.26 107.61 160.96 111.73
  Q 155.55 128.75 150.07 145.76
  Q 149.82 146.53 149.72 145.73" stroke-linecap="butt" fill="none" stroke-width="2.00" stroke="#95999c"></path>
<path d="M 7.86 0.00
  L 248.30 0.00
  Q 254.33 1.82 256.00 7.82
  L 256.00 248.30
  Q 254.19 254.28 248.19 256.00
  L 7.71 256.00
  Q 1.65 254.15 0.00 248.18
  L 0.00 7.74
  Q 1.80 1.65 7.86 0.00
  Z
  M 149.72 145.73
  L 142.43 89.25
  Q 142.36 88.70 141.81 88.72
  C 126.30 89.26 117.21 98.82 111.75 112.77
  Q 105.25 129.38 98.95 145.78
  Q 98.58 146.75 98.53 145.71
  Q 97.78 131.60 96.92 117.15
  Q 96.54 110.74 95.60 107.74
  C 92.12 96.62 81.39 89.41 70.10 88.80
  Q 69.62 88.78 69.70 89.25
  L 83.47 173.26
  Q 83.56 173.77 84.08 173.77
  C 99.21 173.74 110.37 163.76 115.60 150.08
  Q 120.95 136.04 126.52 121.91
  Q 126.93 120.88 127.08 121.97
  L 134.34 172.79
  Q 134.50 173.87 135.59 173.83
  C 149.64 173.35 161.16 165.10 166.43 152.18
  Q 179.21 120.86 191.98 89.44
  Q 192.21 88.89 191.61 88.88
  C 180.50 88.79 172.19 93.89 165.88 102.61
  Q 162.26 107.61 160.96 111.73
  Q 155.55 128.75 150.07 145.76
  Q 149.82 146.53 149.72 145.73
  Z" fill="#2b3239"></path>
<path d="M 150.07 145.76
  Q 155.55 128.75 160.96 111.73
  Q 162.26 107.61 165.88 102.61
  C 172.19 93.89 180.50 88.79 191.61 88.88
  Q 192.21 88.89 191.98 89.44
  Q 179.21 120.86 166.43 152.18
  C 161.16 165.10 149.64 173.35 135.59 173.83
  Q 134.50 173.87 134.34 172.79
  L 127.08 121.97
  Q 126.93 120.88 126.52 121.91
  Q 120.95 136.04 115.60 150.08
  C 110.37 163.76 99.21 173.74 84.08 173.77
  Q 83.56 173.77 83.47 173.26
  L 69.70 89.25
  Q 69.62 88.78 70.10 88.80
  C 81.39 89.41 92.12 96.62 95.60 107.74
  Q 96.54 110.74 96.92 117.15
  Q 97.78 131.60 98.53 145.71
  Q 98.58 146.75 98.95 145.78
  Q 105.25 129.38 111.75 112.77
  C 117.21 98.82 126.30 89.26 141.81 88.72
  Q 142.36 88.70 142.43 89.25
  L 149.72 145.73
  Q 149.82 146.53 150.07 145.76
  Z" fill="#ffffff"></path>
</svg>
