<svg viewBox="0.00 0.00 144.00 144.00" version="1.1" xmlns="http://www.w3.org/2000/svg">
<g stroke-linecap="butt" fill="none" stroke-width="2.00">
<path d="M 78.34 129.75
  C 81.73 129.37 87.39 130.72 88.95 126.72
  Q 110.80 70.84 132.73 15.01
  A 0.35 0.35 0.0 0 0 132.41 14.53
  C 123.43 14.52 111.05 13.39 103.63 16.06
  Q 95.39 19.02 90.62 27.17
  Q 90.35 27.64 90.80 27.95
  C 115.65 44.68 111.64 82.84 82.18 91.48
  C 58.57 98.40 35.75 79.96 37.03 56.23
  C 37.68 44.33 43.43 34.45 53.37 28.00
  Q 53.77 27.74 53.67 27.27
  C 52.50 22.27 50.57 14.16 45.25 14.23
  Q 28.40 14.46 11.85 14.55
  Q 11.24 14.56 11.46 15.12
  C 25.25 52.03 39.97 88.57 54.34 125.26
  C 55.63 128.56 57.53 129.10 60.76 129.50
  Q 70.17 130.67 78.34 129.75" stroke="#808080"></path>
<path d="M 101.44 57.80
  A 29.35 29.35 0.0 0 0 72.09 28.45
  A 29.35 29.35 0.0 0 0 42.74 57.80
  A 29.35 29.35 0.0 0 0 72.09 87.15
  A 29.35 29.35 0.0 0 0 101.44 57.80" stroke="#f68e92"></path>
</g>
<path d="M 144.00 8.15
  L 144.00 136.23
  Q 142.02 142.08 136.37 144.00
  L 7.74 144.00
  Q 1.62 141.79 0.00 135.36
  L 0.00 9.04
  Q 1.32 3.90 5.28 1.59
  Q 7.62 0.23 12.49 0.23
  Q 72.14 0.23 131.79 0.24
  C 138.15 0.24 141.98 2.18 144.00 8.15
  Z
  M 78.34 129.75
  C 81.73 129.37 87.39 130.72 88.95 126.72
  Q 110.80 70.84 132.73 15.01
  A 0.35 0.35 0.0 0 0 132.41 14.53
  C 123.43 14.52 111.05 13.39 103.63 16.06
  Q 95.39 19.02 90.62 27.17
  Q 90.35 27.64 90.80 27.95
  C 115.65 44.68 111.64 82.84 82.18 91.48
  C 58.57 98.40 35.75 79.96 37.03 56.23
  C 37.68 44.33 43.43 34.45 53.37 28.00
  Q 53.77 27.74 53.67 27.27
  C 52.50 22.27 50.57 14.16 45.25 14.23
  Q 28.40 14.46 11.85 14.55
  Q 11.24 14.56 11.46 15.12
  C 25.25 52.03 39.97 88.57 54.34 125.26
  C 55.63 128.56 57.53 129.10 60.76 129.50
  Q 70.17 130.67 78.34 129.75
  Z
  M 101.44 57.80
  A 29.35 29.35 0.0 0 0 72.09 28.45
  A 29.35 29.35 0.0 0 0 42.74 57.80
  A 29.35 29.35 0.0 0 0 72.09 87.15
  A 29.35 29.35 0.0 0 0 101.44 57.80
  Z" fill="#ffffff"></path>
<path d="M 78.34 129.75
  Q 70.17 130.67 60.76 129.50
  C 57.53 129.10 55.63 128.56 54.34 125.26
  C 39.97 88.57 25.25 52.03 11.46 15.12
  Q 11.24 14.56 11.85 14.55
  Q 28.40 14.46 45.25 14.23
  C 50.57 14.16 52.50 22.27 53.67 27.27
  Q 53.77 27.74 53.37 28.00
  C 43.43 34.45 37.68 44.33 37.03 56.23
  C 35.75 79.96 58.57 98.40 82.18 91.48
  C 111.64 82.84 115.65 44.68 90.80 27.95
  Q 90.35 27.64 90.62 27.17
  Q 95.39 19.02 103.63 16.06
  C 111.05 13.39 123.43 14.52 132.41 14.53
  A 0.35 0.35 0.0 0 1 132.73 15.01
  Q 110.80 70.84 88.95 126.72
  C 87.39 130.72 81.73 129.37 78.34 129.75
  Z" fill="#000000"></path>
<circle r="29.35" cy="57.80" cx="72.09" fill="#ed1c24"></circle>
</svg>
