<svg viewBox="0.00 0.00 48.00 48.00" version="1.1" xmlns="http://www.w3.org/2000/svg">
<path d="M 17.55 36.21
  C 13.69 36.20 9.57 36.23 9.44 31.00
  Q 9.24 22.85 9.40 14.27
  A 4.59 4.59 0.0 0 1 13.99 9.77
  L 35.74 9.77
  A 4.63 4.63 0.0 0 1 40.36 14.39
  Q 40.37 22.08 40.37 30.25
  C 40.36 38.11 32.41 36.23 27.47 36.26
  A 1.10 1.10 0.0 0 0 26.67 36.63
  L 20.83 43.31
  Q 20.46 43.72 19.91 43.70
  C 17.18 43.56 18.24 38.61 18.12 36.74
  Q 18.09 36.21 17.55 36.21
  Z
  M 19.11 35.75
  L 19.12 41.10
  Q 19.13 43.84 20.92 41.76
  L 26.22 35.60
  A 1.51 1.50 20.0 0 1 27.37 35.07
  C 31.78 35.09 39.51 36.96 39.55 30.00
  Q 39.59 22.38 39.55 14.94
  A 4.21 4.20 89.9 0 0 35.37 10.76
  Q 25.76 10.70 15.24 10.77
  C 11.14 10.79 10.38 12.67 10.34 16.48
  Q 10.26 23.74 10.41 31.00
  C 10.51 35.86 15.21 35.21 18.33 35.02
  A 0.73 0.73 0.0 0 1 19.11 35.75
  Z" fill-opacity="0.996" fill="#080908"></path>
<path d="M 22.36 22.44
  L 22.88 21.32
  Q 23.09 20.86 22.81 20.44
  C 20.31 16.68 24.79 12.00 27.74 15.80
  Q 29.42 17.96 27.50 20.48
  Q 27.16 20.92 27.55 21.32
  Q 27.95 21.71 28.14 22.23
  Q 28.34 22.79 28.94 22.75
  Q 32.77 22.48 32.82 26.51
  C 32.89 32.20 24.23 30.19 27.50 23.93
  Q 27.75 23.45 27.51 22.97
  Q 26.48 20.89 23.86 21.76
  Q 23.25 21.96 23.07 22.59
  Q 22.58 24.37 23.86 25.90
  A 0.73 0.73 0.0 0 0 24.61 26.14
  Q 25.46 25.92 26.30 26.13
  A 0.37 0.37 0.0 0 1 26.35 26.83
  Q 25.34 27.26 24.23 26.92
  A 0.59 0.59 0.0 0 0 23.49 27.31
  C 23.14 28.43 22.85 29.30 21.65 29.68
  C 16.41 31.38 15.80 21.89 21.60 22.85
  Q 22.14 22.94 22.36 22.44
  Z
  M 27.51 18.02
  A 2.32 2.32 0.0 0 0 25.19 15.70
  A 2.32 2.32 0.0 0 0 22.87 18.02
  A 2.32 2.32 0.0 0 0 25.19 20.34
  A 2.32 2.32 0.0 0 0 27.51 18.02
  Z
  M 20.5296 28.8590
  A 2.52 2.11 91.6 0 0 22.7092 26.3989
  A 2.52 2.11 91.6 0 0 20.6704 23.8210
  A 2.52 2.11 91.6 0 0 18.4908 26.2811
  A 2.52 2.11 91.6 0 0 20.5296 28.8590
  Z
  M 29.8377 28.8899
  A 2.54 2.05 89.6 0 0 31.8700 26.3357
  A 2.54 2.05 89.6 0 0 29.8023 23.8101
  A 2.54 2.05 89.6 0 0 27.7700 26.3643
  A 2.54 2.05 89.6 0 0 29.8377 28.8899
  Z" fill-opacity="0.996" fill="#080908"></path>
</svg>
