<svg viewBox="0.00 0.00 128.00 128.00" version="1.1" xmlns="http://www.w3.org/2000/svg">
<path d="M 69.12 122.19
  C 45.88 124.37 12.53 106.64 6.90 82.76
  Q 5.21 75.61 4.37 64.25
  C 3.45 51.74 4.82 43.08 10.97 32.32
  C 18.29 19.51 21.55 8.91 37.77 6.39
  C 48.69 4.68 58.65 4.94 69.19 6.04
  C 87.22 7.93 107.67 17.58 115.94 34.54
  C 127.69 58.67 129.53 85.67 106.03 103.79
  C 93.81 113.21 83.73 120.81 69.12 122.19
  Z
  M 14.14 44.10
  C 10.62 54.87 12.33 67.59 14.32 78.39
  Q 15.31 83.80 17.25 87.62
  C 24.77 102.44 46.44 113.10 62.38 114.31
  C 77.02 115.42 91.79 105.96 102.54 96.42
  Q 109.12 90.58 111.91 85.68
  C 119.99 71.50 115.76 53.53 109.36 39.72
  C 104.97 30.22 99.63 25.72 90.68 20.86
  Q 81.50 15.87 72.00 14.48
  C 61.54 12.95 48.91 12.35 38.02 14.55
  C 26.15 16.94 24.37 25.42 19.09 34.29
  Q 15.21 40.82 14.14 44.10
  Z" fill="#dd6c65"></path>
<path d="M 30.75 82.02
  C 19.82 67.80 28.51 50.29 36.98 37.49
  Q 39.35 33.89 42.19 31.94
  C 50.92 25.92 63.90 20.50 73.80 25.85
  Q 78.58 28.43 86.53 31.91
  C 103.79 39.47 112.05 82.33 93.87 92.26
  C 78.70 100.56 61.48 111.66 45.34 97.17
  Q 35.83 88.63 30.75 82.02
  Z
  M 94.00 81.25
  C 98.89 69.15 95.73 53.86 88.54 43.22
  Q 86.44 40.11 83.36 38.87
  Q 76.16 35.97 70.69 32.90
  C 69.09 32.01 66.13 30.86 64.75 31.08
  C 59.00 31.96 47.78 35.58 44.19 40.49
  C 39.17 47.36 29.76 64.84 34.31 73.20
  C 38.18 80.33 44.96 86.16 50.68 91.82
  C 55.97 97.04 64.00 97.54 70.46 95.22
  Q 79.62 91.94 90.28 85.49
  Q 92.94 83.88 94.00 81.25
  Z" fill="#dd6c65"></path>
<path d="M 55.62 80.50
  C 48.65 77.78 46.19 72.43 46.78 65.36
  C 46.98 63.01 46.73 60.30 47.26 58.23
  C 49.37 50.07 61.53 44.09 69.42 46.01
  C 73.36 46.96 78.47 49.10 79.99 53.27
  C 81.32 56.94 83.42 61.64 82.93 64.24
  Q 80.74 75.85 71.02 81.80
  C 66.81 84.38 60.48 82.40 55.62 80.50
  Z
  M 54.38 61.63
  C 54.07 64.91 53.17 68.80 55.21 71.30
  C 57.24 73.79 62.21 74.74 65.25 75.52
  C 69.34 76.58 74.02 68.64 74.97 65.61
  C 75.92 62.61 74.52 60.03 73.53 57.20
  C 72.64 54.67 68.56 52.73 66.01 53.05
  Q 62.54 53.49 58.05 55.76
  Q 54.77 57.42 54.38 61.63
  Z" fill="#dd6c65"></path>
</svg>
