<svg viewBox="0.00 0.00 128.00 128.00" version="1.1" xmlns="http://www.w3.org/2000/svg">
<g stroke-linecap="butt" fill="none" stroke-width="2.00">
<path d="M 13.27 60.75
  C 14.15 63.05 15.51 64.98 16.61 67.32
  Q 17.21 68.61 18.03 69.77
  C 19.53 71.89 20.57 74.16 21.99 76.30
  C 22.84 77.59 24.04 77.98 25.24 78.89
  C 26.49 79.84 26.92 81.33 28.10 82.41
  Q 30.91 84.99 36.22 89.43
  Q 36.65 89.80 37.22 89.86
  Q 40.88 90.24 43.71 92.49
  A 1.41 1.41 0.0 0 0 44.71 92.79
  C 47.05 92.56 48.52 94.08 50.50 94.39
  Q 52.25 94.66 57.24 94.44
  Q 65.07 94.10 72.88 93.40
  C 76.93 93.04 80.53 90.91 84.36 89.85
  C 85.41 89.56 86.61 88.57 87.88 88.19
  Q 90.63 87.37 93.18 86.07
  C 94.98 85.14 97.08 84.97 98.94 83.92
  Q 99.42 83.65 99.97 83.56
  Q 103.68 82.96 105.23 79.50
  Q 105.32 79.30 105.53 79.20
  L 105.98 78.99
  A 1.63 1.60 -83.2 0 0 106.54 78.54
  Q 108.38 76.20 110.03 73.74
  Q 111.60 71.39 112.31 68.40
  C 114.24 60.31 115.74 54.34 113.58 47.37
  Q 112.58 44.12 111.76 40.48
  Q 110.08 33.05 105.07 27.17
  Q 104.78 26.83 104.68 26.39
  C 104.08 23.82 98.27 18.94 95.98 17.39
  C 92.67 15.14 90.08 12.98 86.08 11.93
  C 83.73 11.32 81.49 10.16 79.23 9.85
  Q 74.26 9.16 69.74 9.70
  C 68.13 9.89 66.61 9.65 65.43 9.71
  Q 60.92 9.94 56.43 10.22
  C 55.01 10.30 53.40 10.79 51.77 10.80
  Q 49.37 10.82 48.28 11.04
  Q 44.62 11.79 40.99 12.64
  C 39.42 13.00 37.96 13.97 36.33 14.51
  C 30.37 16.51 25.58 22.42 21.20 26.70
  Q 20.92 26.98 20.88 27.33
  Q 20.84 27.70 20.59 27.98
  Q 17.88 30.99 15.30 34.11
  C 14.29 35.33 14.01 36.70 13.25 38.07
  Q 12.31 39.76 11.97 41.11
  Q 11.22 44.02 10.34 46.90
  C 9.78 48.74 10.36 50.42 9.72 52.39
  Q 9.56 52.88 9.72 53.37
  Q 10.88 56.81 12.53 59.98
  Q 12.65 60.20 12.86 60.30
  Q 13.15 60.44 13.27 60.75" stroke="#1e284a"></path>
<path d="M 48.48 34.40
  L 40.52 28.17
  A 0.45 0.45 0.0 0 0 39.79 28.52
  Q 39.68 34.55 39.83 40.75
  C 39.90 43.43 44.55 46.38 46.59 47.83
  C 48.81 49.41 50.38 49.15 53.00 49.15
  Q 64.12 49.13 75.25 49.11
  C 78.37 49.10 82.12 45.30 84.45 43.45
  A 3.14 3.14 0.0 0 0 85.64 40.97
  L 85.54 28.23
  A 0.36 0.35 -19.7 0 0 84.96 27.96
  L 76.77 34.56
  A 0.81 0.81 0.0 0 1 75.75 34.56
  L 63.04 24.41
  A 0.67 0.66 -44.6 0 0 62.21 24.41
  L 49.82 34.39
  A 1.09 1.08 44.2 0 1 48.48 34.40" stroke="#4f4b8a"></path>
<path d="M 52.89 60.07
  L 60.01 74.38
  Q 60.37 75.10 61.17 75.02
  L 61.84 74.95
  A 0.50 0.49 73.9 0 0 62.23 74.23
  L 53.44 56.57
  A 0.28 0.10 70.7 0 0 53.40 56.52
  Q 52.01 55.08 51.13 56.86
  Q 46.84 65.52 42.49 74.03
  A 0.62 0.62 0.0 0 0 42.89 74.91
  L 43.20 74.98
  A 1.32 1.32 0.0 0 0 44.69 74.29
  L 51.80 60.07
  Q 52.35 58.98 52.89 60.07" stroke="#8f94a4"></path>
<path d="M 89.99 59.75
  L 97.22 74.27
  Q 97.63 75.08 98.53 74.98
  L 98.99 74.93
  A 0.51 0.50 -16.5 0 0 99.39 74.20
  L 90.51 56.32
  A 1.04 1.04 0.0 0 0 88.65 56.32
  L 79.77 74.09
  Q 79.32 74.98 80.32 75.02
  L 80.58 75.03
  Q 81.57 75.06 82.02 74.17
  L 89.23 59.75
  Q 89.61 58.98 89.99 59.75" stroke="#8f94a4"></path>
<path d="M 42.8700 57.1251
  A 0.83 0.83 0.0 0 0 42.0385 56.2966
  L 26.6385 56.3234
  A 0.83 0.83 0.0 0 0 25.8100 57.1549
  L 25.8100 57.1949
  A 0.83 0.83 0.0 0 0 26.6415 58.0234
  L 42.0415 57.9966
  A 0.83 0.83 0.0 0 0 42.8700 57.1651
  L 42.8700 57.1251" stroke="#8f94a4"></path>
<path d="M 69.58 70.01
  L 64.98 70.06
  A 0.78 0.77 -0.0 0 0 64.21 70.82
  L 64.21 71.26
  A 0.63 0.63 0.0 0 0 64.83 71.90
  C 67.55 71.92 72.41 72.85 72.44 68.50
  Q 72.47 63.16 72.38 57.45
  A 1.19 1.18 -87.6 0 0 71.31 56.28
  L 70.88 56.24
  A 0.58 0.56 2.8 0 0 70.25 56.80
  L 70.17 69.42
  Q 70.16 70.01 69.58 70.01" stroke="#8f94a4"></path>
<path d="M 74.29 69.25
  C 74.30 73.58 69.76 73.84 64.64 73.43
  Q 63.92 73.37 63.97 74.09
  L 64.00 74.50
  A 0.75 0.74 -89.6 0 0 64.67 75.19
  C 79.33 76.80 76.89 67.69 76.74 57.58
  A 1.35 1.34 4.1 0 0 75.61 56.28
  L 75.33 56.24
  A 0.79 0.79 0.0 0 0 74.42 57.00
  Q 74.28 63.11 74.29 69.25" stroke="#8f94a4"></path>
<path d="M 30.90 61.54
  A 0.33 0.33 0.0 0 1 31.22 61.87
  L 31.26 74.97
  A 0.33 0.33 0.0 0 0 31.56 75.30
  L 33.09 75.44
  A 0.33 0.33 0.0 0 0 33.45 75.11
  L 33.49 60.09
  A 0.33 0.33 0.0 0 0 33.16 59.76
  L 26.35 59.85
  A 0.33 0.33 0.0 0 0 26.03 60.22
  L 26.16 61.16
  A 0.33 0.33 0.0 0 0 26.48 61.45
  L 30.90 61.54" stroke="#8f94a4"></path>
<path d="M 37.76 61.89
  A 0.34 0.34 0.0 0 1 38.09 61.55
  L 42.65 61.47
  A 0.34 0.34 0.0 0 0 42.98 61.13
  L 42.99 60.09
  A 0.34 0.34 0.0 0 0 42.64 59.74
  L 35.83 59.84
  A 0.34 0.34 0.0 0 0 35.49 60.18
  L 35.51 74.91
  A 0.34 0.34 0.0 0 0 35.78 75.24
  L 37.33 75.54
  A 0.34 0.34 0.0 0 0 37.73 75.21
  L 37.76 61.89" stroke="#8f94a4"></path>
<path d="M 51.51 68.27
  Q 50.39 68.16 49.78 69.10
  A 0.65 0.65 0.0 0 0 50.30 70.11
  L 54.41 70.24
  A 0.50 0.50 0.0 0 0 54.92 69.65
  Q 54.49 67.12 52.71 65.29
  A 0.56 0.55 49.6 0 0 51.98 65.23
  L 51.57 65.54
  Q 50.96 65.99 51.34 66.65
  L 51.91 67.65
  A 0.42 0.42 0.0 0 1 51.51 68.27" stroke="#8f94a4"></path>
<path d="M 88.83 68.30
  Q 87.41 68.09 86.96 69.26
  Q 86.73 69.88 87.38 69.99
  Q 89.62 70.38 91.85 69.96
  Q 92.56 69.82 92.22 69.19
  L 90.23 65.37
  A 0.62 0.62 0.0 0 0 89.26 65.20
  L 88.77 65.66
  A 0.82 0.82 0.0 0 0 88.63 66.68
  L 89.23 67.70
  A 0.40 0.40 0.0 0 1 88.83 68.30" stroke="#8f94a4"></path>
<path d="M 56.34 74.98
  A 0.74 0.73 11.0 0 0 57.50 74.20
  Q 57.16 72.99 56.31 72.15
  A 1.27 1.25 66.7 0 0 55.43 71.79
  C 53.03 71.79 47.34 70.64 47.24 74.36
  A 0.62 0.62 0.0 0 0 47.74 74.99
  Q 48.67 75.17 49.16 74.44
  Q 49.46 73.99 49.98 73.84
  Q 53.52 72.80 56.34 74.98" stroke="#8f94a4"></path>
<path d="M 87.45 73.81
  Q 91.10 72.98 93.95 75.01
  A 0.45 0.45 0.0 0 0 94.66 74.61
  C 94.34 70.73 89.96 71.67 87.23 71.80
  C 85.51 71.87 84.69 72.68 84.34 74.28
  A 0.52 0.51 7.6 0 0 84.82 74.90
  Q 85.91 74.96 86.68 74.22
  Q 87.01 73.91 87.45 73.81" stroke="#8f94a4"></path>
<path d="M 62.12 42.05
  A 0.82 0.82 0.0 0 0 63.14 42.06
  L 68.12 38.14
  A 0.82 0.82 0.0 0 0 68.14 36.87
  L 63.22 32.71
  A 0.82 0.82 0.0 0 0 62.16 32.71
  L 57.20 36.85
  A 0.82 0.82 0.0 0 0 57.21 38.12
  L 62.12 42.05" stroke="#4f4b8a"></path>
</g>
<path d="M 0.00 0.00
  L 128.00 0.00
  L 128.00 128.00
  L 0.00 128.00
  L 0.00 0.00
  Z
  M 13.27 60.75
  C 14.15 63.05 15.51 64.98 16.61 67.32
  Q 17.21 68.61 18.03 69.77
  C 19.53 71.89 20.57 74.16 21.99 76.30
  C 22.84 77.59 24.04 77.98 25.24 78.89
  C 26.49 79.84 26.92 81.33 28.10 82.41
  Q 30.91 84.99 36.22 89.43
  Q 36.65 89.80 37.22 89.86
  Q 40.88 90.24 43.71 92.49
  A 1.41 1.41 0.0 0 0 44.71 92.79
  C 47.05 92.56 48.52 94.08 50.50 94.39
  Q 52.25 94.66 57.24 94.44
  Q 65.07 94.10 72.88 93.40
  C 76.93 93.04 80.53 90.91 84.36 89.85
  C 85.41 89.56 86.61 88.57 87.88 88.19
  Q 90.63 87.37 93.18 86.07
  C 94.98 85.14 97.08 84.97 98.94 83.92
  Q 99.42 83.65 99.97 83.56
  Q 103.68 82.96 105.23 79.50
  Q 105.32 79.30 105.53 79.20
  L 105.98 78.99
  A 1.63 1.60 -83.2 0 0 106.54 78.54
  Q 108.38 76.20 110.03 73.74
  Q 111.60 71.39 112.31 68.40
  C 114.24 60.31 115.74 54.34 113.58 47.37
  Q 112.58 44.12 111.76 40.48
  Q 110.08 33.05 105.07 27.17
  Q 104.78 26.83 104.68 26.39
  C 104.08 23.82 98.27 18.94 95.98 17.39
  C 92.67 15.14 90.08 12.98 86.08 11.93
  C 83.73 11.32 81.49 10.16 79.23 9.85
  Q 74.26 9.16 69.74 9.70
  C 68.13 9.89 66.61 9.65 65.43 9.71
  Q 60.92 9.94 56.43 10.22
  C 55.01 10.30 53.40 10.79 51.77 10.80
  Q 49.37 10.82 48.28 11.04
  Q 44.62 11.79 40.99 12.64
  C 39.42 13.00 37.96 13.97 36.33 14.51
  C 30.37 16.51 25.58 22.42 21.20 26.70
  Q 20.92 26.98 20.88 27.33
  Q 20.84 27.70 20.59 27.98
  Q 17.88 30.99 15.30 34.11
  C 14.29 35.33 14.01 36.70 13.25 38.07
  Q 12.31 39.76 11.97 41.11
  Q 11.22 44.02 10.34 46.90
  C 9.78 48.74 10.36 50.42 9.72 52.39
  Q 9.56 52.88 9.72 53.37
  Q 10.88 56.81 12.53 59.98
  Q 12.65 60.20 12.86 60.30
  Q 13.15 60.44 13.27 60.75
  Z" fill="#182446"></path>
<path d="M 12.86 60.30
  Q 12.65 60.20 12.53 59.98
  Q 10.88 56.81 9.72 53.37
  Q 9.56 52.88 9.72 52.39
  C 10.36 50.42 9.78 48.74 10.34 46.90
  Q 11.22 44.02 11.97 41.11
  Q 12.31 39.76 13.25 38.07
  C 14.01 36.70 14.29 35.33 15.30 34.11
  Q 17.88 30.99 20.59 27.98
  Q 20.84 27.70 20.88 27.33
  Q 20.92 26.98 21.20 26.70
  C 25.58 22.42 30.37 16.51 36.33 14.51
  C 37.96 13.97 39.42 13.00 40.99 12.64
  Q 44.62 11.79 48.28 11.04
  Q 49.37 10.82 51.77 10.80
  C 53.40 10.79 55.01 10.30 56.43 10.22
  Q 60.92 9.94 65.43 9.71
  C 66.61 9.65 68.13 9.89 69.74 9.70
  Q 74.26 9.16 79.23 9.85
  C 81.49 10.16 83.73 11.32 86.08 11.93
  C 90.08 12.98 92.67 15.14 95.98 17.39
  C 98.27 18.94 104.08 23.82 104.68 26.39
  Q 104.78 26.83 105.07 27.17
  Q 110.08 33.05 111.76 40.48
  Q 112.58 44.12 113.58 47.37
  C 115.74 54.34 114.24 60.31 112.31 68.40
  Q 111.60 71.39 110.03 73.74
  Q 108.38 76.20 106.54 78.54
  A 1.63 1.60 -83.2 0 1 105.98 78.99
  L 105.53 79.20
  Q 105.32 79.30 105.23 79.50
  Q 103.68 82.96 99.97 83.56
  Q 99.42 83.65 98.94 83.92
  C 97.08 84.97 94.98 85.14 93.18 86.07
  Q 90.63 87.37 87.88 88.19
  C 86.61 88.57 85.41 89.56 84.36 89.85
  C 80.53 90.91 76.93 93.04 72.88 93.40
  Q 65.07 94.10 57.24 94.44
  Q 52.25 94.66 50.50 94.39
  C 48.52 94.08 47.05 92.56 44.71 92.79
  A 1.41 1.41 0.0 0 1 43.71 92.49
  Q 40.88 90.24 37.22 89.86
  Q 36.65 89.80 36.22 89.43
  Q 30.91 84.99 28.10 82.41
  C 26.92 81.33 26.49 79.84 25.24 78.89
  C 24.04 77.98 22.84 77.59 21.99 76.30
  C 20.57 74.16 19.53 71.89 18.03 69.77
  Q 17.21 68.61 16.61 67.32
  C 15.51 64.98 14.15 63.05 13.27 60.75
  Q 13.15 60.44 12.86 60.30
  Z
  M 48.48 34.40
  L 40.52 28.17
  A 0.45 0.45 0.0 0 0 39.79 28.52
  Q 39.68 34.55 39.83 40.75
  C 39.90 43.43 44.55 46.38 46.59 47.83
  C 48.81 49.41 50.38 49.15 53.00 49.15
  Q 64.12 49.13 75.25 49.11
  C 78.37 49.10 82.12 45.30 84.45 43.45
  A 3.14 3.14 0.0 0 0 85.64 40.97
  L 85.54 28.23
  A 0.36 0.35 -19.7 0 0 84.96 27.96
  L 76.77 34.56
  A 0.81 0.81 0.0 0 1 75.75 34.56
  L 63.04 24.41
  A 0.67 0.66 -44.6 0 0 62.21 24.41
  L 49.82 34.39
  A 1.09 1.08 44.2 0 1 48.48 34.40
  Z
  M 52.89 60.07
  L 60.01 74.38
  Q 60.37 75.10 61.17 75.02
  L 61.84 74.95
  A 0.50 0.49 73.9 0 0 62.23 74.23
  L 53.44 56.57
  A 0.28 0.10 70.7 0 0 53.40 56.52
  Q 52.01 55.08 51.13 56.86
  Q 46.84 65.52 42.49 74.03
  A 0.62 0.62 0.0 0 0 42.89 74.91
  L 43.20 74.98
  A 1.32 1.32 0.0 0 0 44.69 74.29
  L 51.80 60.07
  Q 52.35 58.98 52.89 60.07
  Z
  M 89.99 59.75
  L 97.22 74.27
  Q 97.63 75.08 98.53 74.98
  L 98.99 74.93
  A 0.51 0.50 -16.5 0 0 99.39 74.20
  L 90.51 56.32
  A 1.04 1.04 0.0 0 0 88.65 56.32
  L 79.77 74.09
  Q 79.32 74.98 80.32 75.02
  L 80.58 75.03
  Q 81.57 75.06 82.02 74.17
  L 89.23 59.75
  Q 89.61 58.98 89.99 59.75
  Z
  M 42.8700 57.1251
  A 0.83 0.83 0.0 0 0 42.0385 56.2966
  L 26.6385 56.3234
  A 0.83 0.83 0.0 0 0 25.8100 57.1549
  L 25.8100 57.1949
  A 0.83 0.83 0.0 0 0 26.6415 58.0234
  L 42.0415 57.9966
  A 0.83 0.83 0.0 0 0 42.8700 57.1651
  L 42.8700 57.1251
  Z
  M 69.58 70.01
  L 64.98 70.06
  A 0.78 0.77 -0.0 0 0 64.21 70.82
  L 64.21 71.26
  A 0.63 0.63 0.0 0 0 64.83 71.90
  C 67.55 71.92 72.41 72.85 72.44 68.50
  Q 72.47 63.16 72.38 57.45
  A 1.19 1.18 -87.6 0 0 71.31 56.28
  L 70.88 56.24
  A 0.58 0.56 2.8 0 0 70.25 56.80
  L 70.17 69.42
  Q 70.16 70.01 69.58 70.01
  Z
  M 74.29 69.25
  C 74.30 73.58 69.76 73.84 64.64 73.43
  Q 63.92 73.37 63.97 74.09
  L 64.00 74.50
  A 0.75 0.74 -89.6 0 0 64.67 75.19
  C 79.33 76.80 76.89 67.69 76.74 57.58
  A 1.35 1.34 4.1 0 0 75.61 56.28
  L 75.33 56.24
  A 0.79 0.79 0.0 0 0 74.42 57.00
  Q 74.28 63.11 74.29 69.25
  Z
  M 30.90 61.54
  A 0.33 0.33 0.0 0 1 31.22 61.87
  L 31.26 74.97
  A 0.33 0.33 0.0 0 0 31.56 75.30
  L 33.09 75.44
  A 0.33 0.33 0.0 0 0 33.45 75.11
  L 33.49 60.09
  A 0.33 0.33 0.0 0 0 33.16 59.76
  L 26.35 59.85
  A 0.33 0.33 0.0 0 0 26.03 60.22
  L 26.16 61.16
  A 0.33 0.33 0.0 0 0 26.48 61.45
  L 30.90 61.54
  Z
  M 37.76 61.89
  A 0.34 0.34 0.0 0 1 38.09 61.55
  L 42.65 61.47
  A 0.34 0.34 0.0 0 0 42.98 61.13
  L 42.99 60.09
  A 0.34 0.34 0.0 0 0 42.64 59.74
  L 35.83 59.84
  A 0.34 0.34 0.0 0 0 35.49 60.18
  L 35.51 74.91
  A 0.34 0.34 0.0 0 0 35.78 75.24
  L 37.33 75.54
  A 0.34 0.34 0.0 0 0 37.73 75.21
  L 37.76 61.89
  Z
  M 51.51 68.27
  Q 50.39 68.16 49.78 69.10
  A 0.65 0.65 0.0 0 0 50.30 70.11
  L 54.41 70.24
  A 0.50 0.50 0.0 0 0 54.92 69.65
  Q 54.49 67.12 52.71 65.29
  A 0.56 0.55 49.6 0 0 51.98 65.23
  L 51.57 65.54
  Q 50.96 65.99 51.34 66.65
  L 51.91 67.65
  A 0.42 0.42 0.0 0 1 51.51 68.27
  Z
  M 88.83 68.30
  Q 87.41 68.09 86.96 69.26
  Q 86.73 69.88 87.38 69.99
  Q 89.62 70.38 91.85 69.96
  Q 92.56 69.82 92.22 69.19
  L 90.23 65.37
  A 0.62 0.62 0.0 0 0 89.26 65.20
  L 88.77 65.66
  A 0.82 0.82 0.0 0 0 88.63 66.68
  L 89.23 67.70
  A 0.40 0.40 0.0 0 1 88.83 68.30
  Z
  M 56.34 74.98
  A 0.74 0.73 11.0 0 0 57.50 74.20
  Q 57.16 72.99 56.31 72.15
  A 1.27 1.25 66.7 0 0 55.43 71.79
  C 53.03 71.79 47.34 70.64 47.24 74.36
  A 0.62 0.62 0.0 0 0 47.74 74.99
  Q 48.67 75.17 49.16 74.44
  Q 49.46 73.99 49.98 73.84
  Q 53.52 72.80 56.34 74.98
  Z
  M 87.45 73.81
  Q 91.10 72.98 93.95 75.01
  A 0.45 0.45 0.0 0 0 94.66 74.61
  C 94.34 70.73 89.96 71.67 87.23 71.80
  C 85.51 71.87 84.69 72.68 84.34 74.28
  A 0.52 0.51 7.6 0 0 84.82 74.90
  Q 85.91 74.96 86.68 74.22
  Q 87.01 73.91 87.45 73.81
  Z" fill="#232b4d"></path>
<path d="M 48.48 34.40
  A 1.09 1.08 44.2 0 0 49.82 34.39
  L 62.21 24.41
  A 0.67 0.66 -44.6 0 1 63.04 24.41
  L 75.75 34.56
  A 0.81 0.81 0.0 0 0 76.77 34.56
  L 84.96 27.96
  A 0.36 0.35 -19.7 0 1 85.54 28.23
  L 85.64 40.97
  A 3.14 3.14 0.0 0 1 84.45 43.45
  C 82.12 45.30 78.37 49.10 75.25 49.11
  Q 64.12 49.13 53.00 49.15
  C 50.38 49.15 48.81 49.41 46.59 47.83
  C 44.55 46.38 39.90 43.43 39.83 40.75
  Q 39.68 34.55 39.79 28.52
  A 0.45 0.45 0.0 0 1 40.52 28.17
  L 48.48 34.40
  Z
  M 62.12 42.05
  A 0.82 0.82 0.0 0 0 63.14 42.06
  L 68.12 38.14
  A 0.82 0.82 0.0 0 0 68.14 36.87
  L 63.22 32.71
  A 0.82 0.82 0.0 0 0 62.16 32.71
  L 57.20 36.85
  A 0.82 0.82 0.0 0 0 57.21 38.12
  L 62.12 42.05
  Z" fill="#7a6ac6"></path>
<path d="M 62.12 42.05
  L 57.21 38.12
  A 0.82 0.82 0.0 0 1 57.20 36.85
  L 62.16 32.71
  A 0.82 0.82 0.0 0 1 63.22 32.71
  L 68.14 36.87
  A 0.82 0.82 0.0 0 1 68.12 38.14
  L 63.14 42.06
  A 0.82 0.82 0.0 0 1 62.12 42.05
  Z" fill="#232b4d"></path>
<path d="M 52.89 60.07
  Q 52.35 58.98 51.80 60.07
  L 44.69 74.29
  A 1.32 1.32 0.0 0 1 43.20 74.98
  L 42.89 74.91
  A 0.62 0.62 0.0 0 1 42.49 74.03
  Q 46.84 65.52 51.13 56.86
  Q 52.01 55.08 53.40 56.52
  A 0.28 0.10 70.7 0 1 53.44 56.57
  L 62.23 74.23
  A 0.50 0.49 73.9 0 1 61.84 74.95
  L 61.17 75.02
  Q 60.37 75.10 60.01 74.38
  L 52.89 60.07
  Z" fill="#fafcfb"></path>
<path d="M 89.23 59.75
  L 82.02 74.17
  Q 81.57 75.06 80.58 75.03
  L 80.32 75.02
  Q 79.32 74.98 79.77 74.09
  L 88.65 56.32
  A 1.04 1.04 0.0 0 1 90.51 56.32
  L 99.39 74.20
  A 0.51 0.50 -16.5 0 1 98.99 74.93
  L 98.53 74.98
  Q 97.63 75.08 97.22 74.27
  L 89.99 59.75
  Q 89.61 58.98 89.23 59.75
  Z" fill="#fafcfb"></path>
<rect rx="0.83" height="1.70" width="17.06" transform="translate(34.34,57.16) rotate(-0.1)" y="-0.85" x="-8.53" fill="#fafcfb"></rect>
<path d="M 70.17 69.42
  L 70.25 56.80
  A 0.58 0.56 2.8 0 1 70.88 56.24
  L 71.31 56.28
  A 1.19 1.18 -87.6 0 1 72.38 57.45
  Q 72.47 63.16 72.44 68.50
  C 72.41 72.85 67.55 71.92 64.83 71.90
  A 0.63 0.63 0.0 0 1 64.21 71.26
  L 64.21 70.82
  A 0.78 0.77 -0.0 0 1 64.98 70.06
  L 69.58 70.01
  Q 70.16 70.01 70.17 69.42
  Z" fill="#fafcfb"></path>
<path d="M 64.64 73.43
  C 69.76 73.84 74.30 73.58 74.29 69.25
  Q 74.28 63.11 74.42 57.00
  A 0.79 0.79 0.0 0 1 75.33 56.24
  L 75.61 56.28
  A 1.35 1.34 4.1 0 1 76.74 57.58
  C 76.89 67.69 79.33 76.80 64.67 75.19
  A 0.75 0.74 -89.6 0 1 64.00 74.50
  L 63.97 74.09
  Q 63.92 73.37 64.64 73.43
  Z" fill="#fafcfb"></path>
<path d="M 30.90 61.54
  L 26.48 61.45
  A 0.33 0.33 0.0 0 1 26.16 61.16
  L 26.03 60.22
  A 0.33 0.33 0.0 0 1 26.35 59.85
  L 33.16 59.76
  A 0.33 0.33 0.0 0 1 33.49 60.09
  L 33.45 75.11
  A 0.33 0.33 0.0 0 1 33.09 75.44
  L 31.56 75.30
  A 0.33 0.33 0.0 0 1 31.26 74.97
  L 31.22 61.87
  A 0.33 0.33 0.0 0 0 30.90 61.54
  Z" fill="#fafcfb"></path>
<path d="M 37.76 61.89
  L 37.73 75.21
  A 0.34 0.34 0.0 0 1 37.33 75.54
  L 35.78 75.24
  A 0.34 0.34 0.0 0 1 35.51 74.91
  L 35.49 60.18
  A 0.34 0.34 0.0 0 1 35.83 59.84
  L 42.64 59.74
  A 0.34 0.34 0.0 0 1 42.99 60.09
  L 42.98 61.13
  A 0.34 0.34 0.0 0 1 42.65 61.47
  L 38.09 61.55
  A 0.34 0.34 0.0 0 0 37.76 61.89
  Z" fill="#fafcfb"></path>
<path d="M 51.91 67.65
  L 51.34 66.65
  Q 50.96 65.99 51.57 65.54
  L 51.98 65.23
  A 0.56 0.55 49.6 0 1 52.71 65.29
  Q 54.49 67.12 54.92 69.65
  A 0.50 0.50 0.0 0 1 54.41 70.24
  L 50.30 70.11
  A 0.65 0.65 0.0 0 1 49.78 69.10
  Q 50.39 68.16 51.51 68.27
  A 0.42 0.42 0.0 0 0 51.91 67.65
  Z" fill="#fafcfb"></path>
<path d="M 89.23 67.70
  L 88.63 66.68
  A 0.82 0.82 0.0 0 1 88.77 65.66
  L 89.26 65.20
  A 0.62 0.62 0.0 0 1 90.23 65.37
  L 92.22 69.19
  Q 92.56 69.82 91.85 69.96
  Q 89.62 70.38 87.38 69.99
  Q 86.73 69.88 86.96 69.26
  Q 87.41 68.09 88.83 68.30
  A 0.40 0.40 0.0 0 0 89.23 67.70
  Z" fill="#fafcfb"></path>
<path d="M 56.34 74.98
  Q 53.52 72.80 49.98 73.84
  Q 49.46 73.99 49.16 74.44
  Q 48.67 75.17 47.74 74.99
  A 0.62 0.62 0.0 0 1 47.24 74.36
  C 47.34 70.64 53.03 71.79 55.43 71.79
  A 1.27 1.25 66.7 0 1 56.31 72.15
  Q 57.16 72.99 57.50 74.20
  A 0.74 0.73 11.0 0 1 56.34 74.98
  Z" fill="#fafcfb"></path>
<path d="M 86.68 74.22
  Q 85.91 74.96 84.82 74.90
  A 0.52 0.51 7.6 0 1 84.34 74.28
  C 84.69 72.68 85.51 71.87 87.23 71.80
  C 89.96 71.67 94.34 70.73 94.66 74.61
  A 0.45 0.45 0.0 0 1 93.95 75.01
  Q 91.10 72.98 87.45 73.81
  Q 87.01 73.91 86.68 74.22
  Z" fill="#fafcfb"></path>
</svg>
