<svg viewBox="0.00 0.00 48.00 48.00" version="1.1" xmlns="http://www.w3.org/2000/svg">
<g stroke-linecap="butt" fill="none" stroke-width="2.00">
<path d="M 13.20 18.74
  Q 12.38 17.62 11.96 16.21
  Q 11.73 15.42 10.93 15.62
  L 10.55 15.72
  A 0.52 0.51 -16.2 0 0 10.19 16.37
  C 11.50 20.82 13.15 26.58 10.82 30.84
  Q 10.55 31.32 10.06 31.55
  L 7.69 32.62
  A 0.78 0.78 0.0 0 0 7.39 33.80
  L 7.67 34.16
  Q 8.34 35.06 9.27 34.43
  Q 14.34 31.01 13.06 24.75
  Q 13.01 24.47 13.19 24.42
  L 13.20 24.42
  Q 13.36 24.37 13.41 24.53
  Q 14.50 27.51 15.66 28.12
  Q 18.02 29.36 18.98 27.12
  Q 19.15 26.72 19.33 26.58
  Q 19.63 26.34 19.98 26.36" stroke="#16546c"></path>
<path d="M 19.98 26.36
  L 25.80 28.70
  A 2.45 2.44 18.5 0 1 27.25 31.60
  C 25.78 37.07 18.01 33.42 15.55 30.93
  A 0.21 0.21 0.0 0 0 15.21 30.98
  L 11.67 37.76
  A 0.32 0.32 0.0 0 0 11.78 38.18
  C 18.11 42.22 28.57 43.87 33.97 37.67
  C 37.69 33.40 37.44 26.40 32.97 22.45" stroke="#807e4a"></path>
<path d="M 32.97 22.45
  Q 32.92 22.24 32.82 22.09
  Q 32.65 21.83 32.80 21.56
  Q 34.97 17.41 39.43 15.87
  Q 41.78 15.05 40.08 13.49
  A 1.30 1.30 0.0 0 0 38.39 13.43
  Q 33.78 17.05 31.12 21.55" stroke="#16546c"></path>
<path d="M 31.12 21.55
  L 24.75 19.01" stroke="#807e4a"></path>
<path d="M 24.75 19.01
  Q 23.79 18.69 22.86 17.97" stroke="#16546c"></path>
<path d="M 22.86 17.97
  C 21.73 16.13 22.32 14.11 24.55 13.61
  Q 27.72 12.88 31.48 15.49
  Q 31.66 15.62 31.77 15.42
  L 35.16 8.88
  A 0.27 0.26 -66.4 0 0 35.02 8.51
  C 30.33 6.88 25.45 5.35 21.24 6.52
  Q 12.09 9.06 13.20 18.74" stroke="#807e4a"></path>
<path d="M 22.86 17.97
  C 19.45 20.19 19.95 23.02 17.92 25.69" stroke="#96d1b6"></path>
<path d="M 17.92 25.69
  L 14.39 22.67" stroke="#807e4a"></path>
<path d="M 14.39 22.67
  Q 13.31 20.82 13.20 18.74" stroke="#96d1b6"></path>
<path d="M 32.97 22.45
  Q 32.70 22.49 32.50 22.59
  Q 32.31 22.69 32.21 22.96
  Q 31.36 25.22 30.45 28.26
  Q 29.88 30.16 27.95 29.69
  Q 27.35 29.54 26.67 27.94
  Q 25.50 25.20 24.28 21.02
  A 1.65 1.64 79.5 0 0 22.58 19.85
  Q 22.42 19.86 22.00 20.54
  Q 20.25 23.42 19.98 26.36" stroke="#96d1b6"></path>
<path d="M 14.39 22.67
  Q 14.42 24.46 16.26 26.55
  A 1.17 1.16 -41.8 0 0 17.92 26.64
  Q 18.10 26.46 17.92 25.69" stroke="#16546c"></path>
<path d="M 24.75 19.01
  L 27.92 27.33
  Q 28.50 28.85 29.05 27.32
  L 31.12 21.55" stroke="#96d1b6"></path>
</g>
<path d="M 0.00 0.00
  L 48.00 0.00
  L 48.00 48.00
  L 0.00 48.00
  L 0.00 0.00
  Z
  M 13.20 18.74
  Q 12.38 17.62 11.96 16.21
  Q 11.73 15.42 10.93 15.62
  L 10.55 15.72
  A 0.52 0.51 -16.2 0 0 10.19 16.37
  C 11.50 20.82 13.15 26.58 10.82 30.84
  Q 10.55 31.32 10.06 31.55
  L 7.69 32.62
  A 0.78 0.78 0.0 0 0 7.39 33.80
  L 7.67 34.16
  Q 8.34 35.06 9.27 34.43
  Q 14.34 31.01 13.06 24.75
  Q 13.01 24.47 13.19 24.42
  L 13.20 24.42
  Q 13.36 24.37 13.41 24.53
  Q 14.50 27.51 15.66 28.12
  Q 18.02 29.36 18.98 27.12
  Q 19.15 26.72 19.33 26.58
  Q 19.63 26.34 19.98 26.36
  L 25.80 28.70
  A 2.45 2.44 18.5 0 1 27.25 31.60
  C 25.78 37.07 18.01 33.42 15.55 30.93
  A 0.21 0.21 0.0 0 0 15.21 30.98
  L 11.67 37.76
  A 0.32 0.32 0.0 0 0 11.78 38.18
  C 18.11 42.22 28.57 43.87 33.97 37.67
  C 37.69 33.40 37.44 26.40 32.97 22.45
  Q 32.92 22.24 32.82 22.09
  Q 32.65 21.83 32.80 21.56
  Q 34.97 17.41 39.43 15.87
  Q 41.78 15.05 40.08 13.49
  A 1.30 1.30 0.0 0 0 38.39 13.43
  Q 33.78 17.05 31.12 21.55
  L 24.75 19.01
  Q 23.79 18.69 22.86 17.97
  C 21.73 16.13 22.32 14.11 24.55 13.61
  Q 27.72 12.88 31.48 15.49
  Q 31.66 15.62 31.77 15.42
  L 35.16 8.88
  A 0.27 0.26 -66.4 0 0 35.02 8.51
  C 30.33 6.88 25.45 5.35 21.24 6.52
  Q 12.09 9.06 13.20 18.74
  Z" fill="#000000"></path>
<path d="M 22.86 17.97
  C 19.45 20.19 19.95 23.02 17.92 25.69
  L 14.39 22.67
  Q 13.31 20.82 13.20 18.74
  Q 12.09 9.06 21.24 6.52
  C 25.45 5.35 30.33 6.88 35.02 8.51
  A 0.27 0.26 -66.4 0 1 35.16 8.88
  L 31.77 15.42
  Q 31.66 15.62 31.48 15.49
  Q 27.72 12.88 24.55 13.61
  C 22.32 14.11 21.73 16.13 22.86 17.97
  Z" fill="#fffb93"></path>
<path d="M 32.97 22.45
  Q 32.70 22.49 32.50 22.59
  Q 32.31 22.69 32.21 22.96
  Q 31.36 25.22 30.45 28.26
  Q 29.88 30.16 27.95 29.69
  Q 27.35 29.54 26.67 27.94
  Q 25.50 25.20 24.28 21.02
  A 1.65 1.64 79.5 0 0 22.58 19.85
  Q 22.42 19.86 22.00 20.54
  Q 20.25 23.42 19.98 26.36
  Q 19.63 26.34 19.33 26.58
  Q 19.15 26.72 18.98 27.12
  Q 18.02 29.36 15.66 28.12
  Q 14.50 27.51 13.41 24.53
  Q 13.36 24.37 13.20 24.42
  L 13.19 24.42
  Q 13.01 24.47 13.06 24.75
  Q 14.34 31.01 9.27 34.43
  Q 8.34 35.06 7.67 34.16
  L 7.39 33.80
  A 0.78 0.78 0.0 0 1 7.69 32.62
  L 10.06 31.55
  Q 10.55 31.32 10.82 30.84
  C 13.15 26.58 11.50 20.82 10.19 16.37
  A 0.52 0.51 -16.2 0 1 10.55 15.72
  L 10.93 15.62
  Q 11.73 15.42 11.96 16.21
  Q 12.38 17.62 13.20 18.74
  Q 13.31 20.82 14.39 22.67
  Q 14.42 24.46 16.26 26.55
  A 1.17 1.16 -41.8 0 0 17.92 26.64
  Q 18.10 26.46 17.92 25.69
  C 19.95 23.02 19.45 20.19 22.86 17.97
  Q 23.79 18.69 24.75 19.01
  L 27.92 27.33
  Q 28.50 28.85 29.05 27.32
  L 31.12 21.55
  Q 33.78 17.05 38.39 13.43
  A 1.30 1.30 0.0 0 1 40.08 13.49
  Q 41.78 15.05 39.43 15.87
  Q 34.97 17.41 32.80 21.56
  Q 32.65 21.83 32.82 22.09
  Q 32.92 22.24 32.97 22.45
  Z" fill="#2ca7d8"></path>
<path d="M 24.75 19.01
  L 31.12 21.55
  L 29.05 27.32
  Q 28.50 28.85 27.92 27.33
  L 24.75 19.01
  Z" fill="#fffb93"></path>
<path d="M 32.97 22.45
  C 37.44 26.40 37.69 33.40 33.97 37.67
  C 28.57 43.87 18.11 42.22 11.78 38.18
  A 0.32 0.32 0.0 0 1 11.67 37.76
  L 15.21 30.98
  A 0.21 0.21 0.0 0 1 15.55 30.93
  C 18.01 33.42 25.78 37.07 27.25 31.60
  A 2.45 2.44 18.5 0 0 25.80 28.70
  L 19.98 26.36
  Q 20.25 23.42 22.00 20.54
  Q 22.42 19.86 22.58 19.85
  A 1.65 1.64 79.5 0 1 24.28 21.02
  Q 25.50 25.20 26.67 27.94
  Q 27.35 29.54 27.95 29.69
  Q 29.88 30.16 30.45 28.26
  Q 31.36 25.22 32.21 22.96
  Q 32.31 22.69 32.50 22.59
  Q 32.70 22.49 32.97 22.45
  Z" fill="#fffb93"></path>
<path d="M 14.39 22.67
  L 17.92 25.69
  Q 18.10 26.46 17.92 26.64
  A 1.17 1.16 -41.8 0 1 16.26 26.55
  Q 14.42 24.46 14.39 22.67
  Z" fill="#000000"></path>
</svg>
