<svg viewBox="0.00 0.00 192.00 192.00" version="1.1" xmlns="http://www.w3.org/2000/svg">
<path d="M 69.22 139.75
  A 0.95 0.94 -89.7 0 0 68.29 140.68
  C 68.20 145.99 67.64 152.19 69.50 157.22
  Q 69.69 157.72 70.15 157.99
  Q 71.94 159.00 74.50 159.00
  Q 113.25 159.13 152.00 158.97
  C 159.82 158.93 159.57 153.90 159.57 146.75
  Q 159.55 108.62 159.52 70.50
  Q 159.51 64.35 159.71 58.21
  C 159.86 53.81 159.51 50.50 164.28 49.78
  Q 171.61 48.68 171.63 56.51
  Q 171.72 105.49 171.50 154.50
  C 171.47 162.00 168.80 167.95 161.86 170.65
  C 157.65 172.29 150.09 171.99 146.00 172.00
  Q 110.88 172.02 75.75 172.04
  C 71.56 172.04 66.91 172.02 63.37 169.73
  C 54.06 163.71 56.10 150.73 56.04 141.08
  A 1.53 1.52 -1.3 0 0 54.45 139.57
  C 46.54 139.87 35.93 141.39 30.07 135.18
  Q 25.94 130.81 25.91 124.00
  Q 25.73 81.02 25.73 38.03
  Q 25.73 31.50 27.09 28.15
  C 30.41 19.94 37.17 17.29 45.89 17.26
  Q 88.80 17.15 131.70 17.26
  Q 136.22 17.27 137.72 17.90
  C 141.97 19.67 142.57 27.31 138.23 29.33
  Q 136.75 30.02 132.68 30.02
  Q 89.34 30.00 46.00 30.03
  C 41.60 30.03 37.93 31.46 37.91 36.50
  Q 37.73 84.20 37.92 115.12
  C 37.94 118.80 37.26 126.34 42.63 126.64
  Q 48.30 126.96 54.36 126.88
  A 1.32 1.31 1.4 0 0 55.65 125.66
  Q 55.95 120.99 55.95 116.00
  Q 55.92 75.06 56.12 64.50
  Q 56.33 54.15 64.13 50.91
  Q 67.56 49.48 78.03 49.48
  Q 100.90 49.48 123.76 49.47
  Q 128.60 49.47 131.52 50.73
  Q 141.28 54.96 141.27 66.75
  Q 141.24 92.64 141.27 118.52
  Q 141.27 126.66 139.82 130.28
  Q 135.97 139.84 123.76 139.75
  Q 96.28 139.57 69.22 139.75
  Z
  M 70.18 126.89
  Q 70.19 126.89 70.21 126.89
  Q 93.98 126.87 117.85 126.86
  C 123.62 126.86 128.89 127.11 129.06 120.25
  Q 129.36 108.52 129.31 70.00
  Q 129.30 62.35 121.51 62.33
  Q 98.76 62.26 76.00 62.41
  C 74.23 62.42 71.29 62.33 70.20 64.02
  C 69.03 65.81 68.25 66.58 68.26 68.83
  Q 68.30 97.17 68.39 125.50
  Q 68.40 126.78 70.18 126.89
  Z" fill="#ff7f35"></path>
</svg>
