<svg viewBox="0.00 0.00 105.00 106.00" version="1.1" xmlns="http://www.w3.org/2000/svg">
<g stroke-linecap="butt" fill="none" stroke-width="2.00">
<path d="M 9.60 0.00
  Q 1.62 1.07 0.00 9.46" stroke="#fcd38c"></path>
<path d="M 95.51 0.00
  Q 103.65 1.29 105.00 9.86" stroke="#fcd38c"></path>
<path d="M 105.00 37.78
  C 103.35 46.22 98.19 47.26 90.11 47.26
  Q 50.55 47.23 10.99 47.27
  Q 1.94 47.27 0.00 37.83" stroke="#fcd38c"></path>
<path d="M 105.00 67.03
  Q 102.93 57.70 93.01 57.74
  Q 82.38 57.77 71.73 57.73
  C 66.15 57.71 61.82 58.10 59.19 62.97
  Q 57.77 65.61 57.75 72.28
  Q 57.72 82.33 57.77 92.38
  Q 57.79 96.75 58.80 98.97
  C 61.49 104.85 66.32 105.01 72.90 105.00
  Q 81.52 104.99 90.15 105.01
  C 98.19 105.03 103.18 103.95 105.00 95.68" stroke="#9dc2ed"></path>
<path d="M 0.00 83.90
  C 1.85 95.19 9.78 103.94 21.37 104.99
  C 35.38 106.26 46.75 95.56 47.28 82.05
  C 47.67 72.09 40.92 62.47 31.84 59.12
  C 16.92 53.63 2.06 63.83 0.00 79.12" stroke="#f59bb4"></path>
</g>
<path d="M 0.00 0.00
  L 9.60 0.00
  Q 1.62 1.07 0.00 9.46
  L 0.00 0.00
  Z" fill="#ffffff"></path>
<path d="M 9.60 0.00
  L 95.51 0.00
  Q 103.65 1.29 105.00 9.86
  L 105.00 37.78
  C 103.35 46.22 98.19 47.26 90.11 47.26
  Q 50.55 47.23 10.99 47.27
  Q 1.94 47.27 0.00 37.83
  L 0.00 9.46
  Q 1.62 1.07 9.60 0.00
  Z" fill="#f9a619"></path>
<path d="M 95.51 0.00
  L 105.00 0.00
  L 105.00 9.86
  Q 103.65 1.29 95.51 0.00
  Z" fill="#ffffff"></path>
<path d="M 105.00 37.78
  L 105.00 67.03
  Q 102.93 57.70 93.01 57.74
  Q 82.38 57.77 71.73 57.73
  C 66.15 57.71 61.82 58.10 59.19 62.97
  Q 57.77 65.61 57.75 72.28
  Q 57.72 82.33 57.77 92.38
  Q 57.79 96.75 58.80 98.97
  C 61.49 104.85 66.32 105.01 72.90 105.00
  Q 81.52 104.99 90.15 105.01
  C 98.19 105.03 103.18 103.95 105.00 95.68
  L 105.00 106.00
  L 0.00 106.00
  L 0.00 83.90
  C 1.85 95.19 9.78 103.94 21.37 104.99
  C 35.38 106.26 46.75 95.56 47.28 82.05
  C 47.67 72.09 40.92 62.47 31.84 59.12
  C 16.92 53.63 2.06 63.83 0.00 79.12
  L 0.00 37.83
  Q 1.94 47.27 10.99 47.27
  Q 50.55 47.23 90.11 47.26
  C 98.19 47.26 103.35 46.22 105.00 37.78
  Z" fill="#ffffff"></path>
<path d="M 0.00 83.90
  L 0.00 79.12
  C 2.06 63.83 16.92 53.63 31.84 59.12
  C 40.92 62.47 47.67 72.09 47.28 82.05
  C 46.75 95.56 35.38 106.26 21.37 104.99
  C 9.78 103.94 1.85 95.19 0.00 83.90
  Z" fill="#eb3669"></path>
<path d="M 105.00 67.03
  L 105.00 95.68
  C 103.18 103.95 98.19 105.03 90.15 105.01
  Q 81.52 104.99 72.90 105.00
  C 66.32 105.01 61.49 104.85 58.80 98.97
  Q 57.79 96.75 57.77 92.38
  Q 57.72 82.33 57.75 72.28
  Q 57.77 65.61 59.19 62.97
  C 61.82 58.10 66.15 57.71 71.73 57.73
  Q 82.38 57.77 93.01 57.74
  Q 102.93 57.70 105.00 67.03
  Z" fill="#3b85db"></path>
</svg>
