<svg viewBox="0.00 0.00 192.00 192.00" version="1.1" xmlns="http://www.w3.org/2000/svg">
<path d="M 192.00 104.25
  L 192.00 123.49
  C 171.78 124.70 163.21 109.22 153.46 94.81
  C 148.02 86.77 139.51 83.83 132.57 92.82
  C 127.58 99.28 123.02 107.92 116.87 114.12
  C 103.16 127.93 82.45 126.26 70.58 111.17
  Q 66.13 105.52 60.78 97.16
  C 53.70 86.12 44.57 82.84 36.17 95.43
  C 27.24 108.80 18.71 123.99 0.00 123.53
  L 0.00 104.48
  C 5.22 104.74 8.63 101.50 11.52 97.31
  Q 19.25 86.13 21.70 82.75
  C 25.98 76.82 32.20 71.69 39.27 69.57
  C 54.01 65.15 66.13 71.84 74.76 83.95
  Q 79.19 90.16 83.46 96.49
  C 89.23 105.03 97.21 107.97 104.70 99.20
  Q 107.48 95.95 113.74 86.24
  C 122.00 73.44 134.62 65.00 150.21 69.35
  C 164.23 73.26 171.04 86.39 178.54 97.47
  C 181.59 101.96 186.17 105.35 192.00 104.25
  Z" fill="#000dff"></path>
</svg>
