<svg viewBox="0 0 305 367" xmlns="http://www.w3.org/2000/svg"><g fill="none" stroke-width="2"><path d="M161.28 72.01q.18.52 0 .91a.39.39 0 0 1-.68.06l-2.36-3.63q-.24-.37-.25-.81-.01-.6-.48-.81a.74.72 1.3 0 1-.38-.39q-1.34-3.45-2.77-6.86c-.32-.79-.19-1.83-.47-2.48-3.95-9.2-4.15-17.45-3.12-27.42q.22-2.11 1-5.61.62-2.76 1.04-5.61" stroke="#d0ea0d"/><path d="M152.81 19.36q1.44-4.35 2.04-9.1.11-.83-.15-1.3a.77.77 0 0 0-1.32-.04l-3.71 5.78" stroke="#c0d918"/><path d="M149.67 14.7 137.8 29.51" stroke="#a7c229"/><path d="M137.8 29.51q.72-1.37 1.17-2.73c.37-1.1 1.14-1.85 1.58-2.85q.65-1.51 1.1-2.13 1.02-1.42 2.01-2.85c2-2.9 5.38-5.39 7.78-8.13q.35-.4-.17-.29-.43.09-.69.53-.32.55-.92.58-.57.03-.17-.39l.5-.53a.07.07 0 0 0-.03-.12q-.34-.09-.61.05-.44.22-.91.08-1.8-.54-2.7.26-4.71 4.22-10.49 6.97" stroke="#eeed02"/><path d="m135.18 33.76-3.75 8.47" stroke="#abc44c"/><path d="m131.43 42.23-6.38 10.91" stroke="#a9f02c"/><path d="m125.05 53.14-2.57 6.41q-.11.27-.29.04-.15-.2-.04-.59.42-1.55.13-3.47" stroke="#c2ef0d"/><path d="m122.28 55.53 8.55-18.77a7.65.17-67.9 0 0 1.51-3.5q1.41-3.36 3.07-6.51a.64.64 0 0 0-.55-.94l-.51-.01" stroke="#f0f84f"/><path d="M134.35 25.8q2.07-2.85 4.47-5.49.26-.29.32-.62.14-.91-.51-1.16a.54.53 37.8 0 0-.45.05l-3.3 2.08a1.44 1.44 0 0 0-.64.88q-.21.86-.96 1.09-.52.16-.79.63-1.89 3.22-5.08 3.48" stroke="#d3f902"/><path d="M145.76 24.58q-1.13 1.5-5.64 5.04-.98.78-2.64 3.92" stroke="#54b057"/><path d="M137.48 33.54q-1.06.57-2.3.22" stroke="#649974"/><path d="m135.18 33.76 2.62-4.25" stroke="#99c72a"/><path d="M152.81 19.36q-1.04 1.96-1.18 4.26-.03.37-.28.63-.14.14-.26.3-.2.28-.2.7c0 1.87-.13 2.94-.98 4.85q-.56 1.24-.82 2.9-.07.47-.41.35-.36-.13-.42-.5l-.52-2.85q-.7-3.88-1.98-.11-.3.89-1.55 2.76" stroke="#94db23"/><path d="m144.21 32.65.08-1.8" stroke="#7bdb42"/><path d="M144.29 30.85q.83-1.43 1.6-3.02.36-.74-.12-1.09-.37-.28-.4.19-.01.39-.4.42-.53.05-.39-.46.34-1.19 1.18-2.31" stroke="#6ec646"/><path d="M145.76 24.58q.98-1.65 1.99-3.33.75-1.25 2.4-3.01 3.15-3.36 4.24-7.99.12-.53-.42-.63-.53-.09-.89.52-1.43 2.4-3.41 4.56" stroke="#6bb340"/><path d="M168.34 84.11q-4.85-3.65-8.12-8.84c-1.02-1.63-2.82-3.58-3.47-6.08q-.09-.33-.43-.26l-.27.05q-.14.03-.12.17c.75 5.09 3.04 8.37 5.22 12.79q.76 1.55 2.02 3.34 2.53 3.58 5.6 10.86" stroke="#94db23"/><path d="m168.77 96.14-7.68-10.94" stroke="#d0ea0d"/><path d="M161.09 85.2c-1.04-2.15-1.52-4.45-2.61-6.45q-3.64-6.67-5.7-14.01-.04-.11-.15-.12h-.26q-.2.01-.27-.18-4.67-11.93-4.99-16.3-.39-5.19-.5-10.39-.03-1.46-.35-1.95-1.07-1.65-1.39.29c-1.25 7.59-1.58 13.17-.91 22.24.23 2.99.99 5.66 1.76 8.51 1.28 4.67 3.91 8.91 6.23 13.16q.26.48.72.8.5.34.46.91-.04.59.38.99 1.13 1.07 1.39 2.61a.54.4 52.4 0 0 .9.25q.02-.17.04-.29.03-.17.21-.14l.61.11" stroke="#b5f60d"/><path d="m156.66 85.24 10.91 16.49" stroke="#d1f55a"/><path d="m167.57 101.73.29 1.31q.18.84-.62.54l-.8-.29" stroke="#8aed37"/><path d="m166.44 103.29-5.18-7.1" stroke="#7dd83b"/><path d="m161.26 96.19-15.28-23.97q-.26-.41-.3-.89c-.09-.96-.78-1.68-1.02-2.43-3.01-9.43-3.47-17.22-1.89-27.08q.02-.07.07-.1l.06-.04q.13-.06.14-.17l1.17-8.86" stroke="#8aed37"/><path d="M129.51 55.4q-.86-1.18-.69-3.41" stroke="#67ac7a"/><path d="m128.82 51.99 2.61-9.76" stroke="#74c176"/><path d="M122.28 55.53q-.66 3.24-1.33 5.95-.32 1.27.03 2.42c.46 1.52.44 2.24.35 3.64" stroke="#d1f55a"/><path d="M121.33 67.54q-.95 4.46-1 8.99c-.05 4.34-.62 8.42-.51 12.68q.04 1.64-1.5 1.06-.89-.34-1.2-2.27c-1.96-12.13-2.24-25.68 1.98-37.46" stroke="#b8f679"/><path d="M134.35 25.8q-5.7 6.78-10.48 14.2-1.27 1.97-4.77 10.54" stroke="#e3ff4f"/><path d="m119.1 50.54-1.34.78q-.38.21-.41.65-.13 1.47-1.21 2.47-.35.32-.49.78-.25.86-.57 1.61-.2.45-.49.53-.62.18-.5-.45.24-1.29-.35-1.37" stroke="#9cf62c"/><path d="M128.82 51.99c-1.39 6.47-2.46 12.33-3.09 19.41q-.49 5.59-1.25 11.15-.06.43-.33.68-.41.37-.5-.17-.09-.57 0-1.13.04-.18.03.01-.16 5.22-1.71 10.29c-.89 2.91-4.14 2.11-5.79.26" stroke="#64d859"/><path d="m116.18 92.49-2.84-5.29" stroke="#61c553"/><path d="m121.33 67.54 3.72-14.4" stroke="#8aed37"/><path d="m144.29 30.85-3.33 7.75q-.07.17-.25.13l-.28-.07q-.1-.03-.07-.12.42-1.09.26-2.26-.02-.08-.09-.05-.39.19-.87.52-.39.26-.59.69l-.35.76q-.43.93-.55-.09-.36-3.22-1.78-2.11" stroke="#64d859"/><path d="M136.39 36q.22-1.53 1.09-2.46" stroke="#67ac7a"/><path d="M161.26 96.19q-.7-.18-1.26.06-.2.08-.11.27.08.15.15.3.16.31-.19.31h-1.1q-.14 0-.03-.08.17-.14.1-.37-.06-.17-.27-.28-.61-.29-1.24-.05a1.01 1.01 0 0 1-.89-.1c-.83-.55-1.78-.78-2.5-1.29q-6.09-4.25-7.42-5.97c-1.85-2.4-4.17-4.3-5.74-6.91q-.05-.09-.02-.11.07-.04.26-.08.14-.02.04-.12c-1.43-1.27-1.75-2.95-2.85-4.24q-1.12-1.3-2.22-2.66a2.1 1.9 19.5 0 1-.34-.63q-.32-1-1.1-.77-.11.03-.06.13.11.23.01.43-.23.45-.48.02l-4.47-7.79q-.19-.32-.18-.69l.16-10.17" stroke="#64d859"/><path d="M129.51 55.4c1.07-2.98 1.73-5.98 2.7-8.95q1.73-5.31 4.18-10.45" stroke="#74c176"/><path d="M181.61 125.29q.32 4.67-1.41 9.16" stroke="#58a24c"/><path d="M180.2 134.45q-1.41 4.21-4.39 7.46-.14.15-.3.01v-.01q-.13-.11-.01-.29l.93-1.38" stroke="#529246"/><path d="m166.44 103.29.79 1.52" stroke="#64d859"/><path d="m167.23 104.81-3.29-.49a.65.64 19.4 0 0-.66.31q-.4.68-1.3.26-2.16-1.03-4.31-2.06-.47-.23-.79-.64-.59-.75-1.53-1.04a.85.85 0 0 1-.59-.59q-.2-.7-.63-.96-1.8-1.06-4.34-3.4-4.37-4.03-5.76-5.9-1.63-2.19-3.81-3.87-.31-.24-.32-.62 0-.19-.15-.32-.22-.2-.83-.51c-1.86-.96-4.19-3.55-5.48-4.66q-1.52-1.31-.43.37 1.15 1.76 3.11 3.53.17.16.01.33l-.17.18q-.02.02-.04 0l-8-7.58q-.72-.68-.77.3l-.34 6.73a.05.04 27.1 0 0 .02.05q.22.19-.03-.36-.09-.22-.3-.1l-.24.13q-.35.2-.37.6-.19 4.54-2.77 10.62-1.3 3.07-3.96 3.07-.58 0-1-.4-2.21-2.1-1.98-5.3" stroke="#54b057"/><path d="M179.16 98.9q-4.47-3.11-6.77-6.54-2.54-3.8-4.05-5.86c-1.37-1.87-3.55-3.34-5.13-5.34q-.37-.47-1.99-1.51-.31-.21-.22.15.17.74.67 1.34.33.39.43.9.07.35.24.65 2.66 4.57 5.67 8.93.29.41.34.91c.21 2.14 2.22 4.47 3.13 6.48q.48 1.06-.32.22l-1.03-1.08" stroke="#6bb340"/><path d="M170.13 98.15q-.61-1.46-1.36-2.01" stroke="#c0d918"/><path d="M170.13 98.15q4.89 6.34 8.56 13.42" stroke="#a7c229"/><path d="m181.4 120.35.04 2.11" stroke="#9da022"/><path d="m181.44 122.46-.39-.41q-.34-.35-.49-.82c-4.67-14.24-15.11-23.87-22.89-36.19q-.21-.35-.48-.43-.29-.09-.68-.06" stroke="#fef34f"/><path d="m181.44 122.46.17 2.83" stroke="#9fab6f"/><path d="m181.61 125.29-.04 1.35q-.01.46-.42.65-.66.32-.83-.38c-2.57-10.43-7.2-16.69-12.75-25.18" stroke="#b8f679"/><path d="M161.09 85.2c-1.77-1.74-3-4.1-4.38-5.69q-1.66-1.91-2.52-2.74-3.65-3.55-1.59 1.1 1.29 2.9 3.91 6.68" stroke="#e1f402"/><path d="M156.51 84.55q.16.29.15.69" stroke="#e3ff4f"/><path d="m167.23 104.81 5.08 7.37" stroke="#61c553"/><path d="M172.31 112.18q-2.49-.36-5.33-.61-2.7-.24-4.51-1.21-2.1-1.12-3.95-2.63-.15-.12-.15-.33a.43.43 0 0 0-.18-.35q-3.31-2.47-6.17-5.43c-.97-1-2.77-1.72-3.38-3.13q-.93-2.1-2.63-2.93-.45-.22-.79-.58-1.06-1.1-2.28-2-.59-.43-.2.19.44.69 1.15 1.05.46.23.68.69.44.93 1.34 1.45.45.26.72.71 1 1.67 1.76 2.29 3.62 2.95 6.78 6.36.12.13-.01.25v.01q-.04.03-.12-.04l-8.45-7.58q-.35-.31-.57-.71-.16-.29-.41-.52-3.16-2.97-6.48-5.76-2.49-2.1-5.42-3.45-.41-.19-.86-.14c-4.72.54-1.79 6.61-3.95 9.25q-.31.38-.33.87-.26 8.46-7.92 11.71c-.9.38-1.99.23-3 .24a.49.48-88 0 0-.47.44q-.21 2.34 1.35 4.19.19.23.01.46-.21.28-.22.63-.01.57.54.69.29.06.28.33-.02.67.63.54 2.28-.44 4.48-1.16c2.34-.77 3.6-2.6 5.28-4.29 1.29-1.29 1.52-2.81 2.43-4.35q1.09-1.83 1.47-3.42.86-3.58 2.22-6.95.17-.44.64-.51c3.68-.62 4.17 1.02 6.83 2.48q.43.24.74.63 2.06 2.59 4.01 3.77c1.59.95 2.37 2.28 3.57 3.16 2.18 1.61 3.86 2.68 5.71 5q.94 1.18 2.39 2.47 5.04 4.48 9.07 6.92 1.6.97 2.96 1.04.18.01.18-.17 0-.14-.01-.28-.01-.29.27-.24l5.14.86" stroke="#4d8e4f"/><path d="m177.15 122.09.94 4.34" stroke="#61c553"/><path d="M178.09 126.43q-3.08-1.28-5.6-1.7c-3.21-.53-6.63-4-8.95-6.06-.93-.83-2.39-1.42-3.17-2.93a1.69 1.64-87.1 0 0-.52-.59c-3.07-2.2-5.03-5.13-8.32-7.57-.78-.59-1.24-1.7-1.98-2.34q-4.82-4.18-10.12-7.46a1.77 1.76 26.8 0 0-2.57.84q-1.9 4.76-3.63 9.57-.95 2.68-2.64 4.29c-1.67 1.62-3.51 3.28-5.77 4.03q-.91.31-1.74.88-.38.26-.84.31-1.8.19-3.54.42c-2.44.32-4.51-.12-6.89-.51q-.41-.06-.75-.3-.74-.52-1.58-.44-.51.05-1-.13-3.92-1.45-3.77 1.25" stroke="#487a4a"/><path d="M104.71 117.99q-2.54-7.18-1.91-15.46" stroke="#54b057"/><path d="M102.8 102.53q.09.16.22.21a.26.26 0 0 0 .35-.24q0-.13-.02-.28a.49.49 0 0 1 .66-.51q2.01.71 3.6 2.17.36.33.52.79.21.64.85.97 2.75 1.41 5.13.75" stroke="#6bb340"/><path d="M178.09 126.43q.49 1.76.65 5.57.2 4.79-2.31 8.24" stroke="#58a24c"/><path d="M176.43 140.24q-.85-2.1-3.15-2.92-.43-.15-.73-.49l-15.96-17.55a1.05 1.03-10.3 0 0-.41-.28q-1.46-.56-2.52-1.77-.32-.37-.8-.49l-4.02-.99q-.52-.13-.96.2-1.07.81-2.37.96-.54.06-.75.56c-.42 1.02-.55 1.49-1.5 2.15q-5.09 3.52-10.22 6.99-.78.54-1.67.89-3.93 1.56-8.12 2.17c-.95.14-1.46.66-2.36.74-1.78.16-6.59.7-8.02-.09q-.48-.25-.76.21-.18.29-.23.7" stroke="#39473c"/><path d="M111.88 131.23q-3.64-4.95-6.04-10.8" stroke="#487a4a"/><path d="M180.2 134.45q2.45-.05 7.78-1.3 2.81-.66 3.29-2.87.03-.14.18-.15.19 0 .37.02.48.06.64.52.06.18.13.38" stroke="#39473c"/><path d="M190.57 142.17q-.81-2.21-2.65-.38-.34.33-.81.36c-2.9.17-6.81.42-9.59-.43q-1.01-.31-1.56.66a.93.93 0 0 1-1.42.25q-4.84-4.09-7.72-9.62c-.31-.59-.72-.75-1.17-1.28q-2.18-2.58-4.31-5.22-.76-.94-1.66-1.53-.96-.62-1.95-1.18-.11-.06-2.05-1.27-3.13-1.97-6.97-.76-.58.18-.88.69a1.32 1.29 3.4 0 1-.63.55q-2.23.93-4.21 2.27c-.85.58-1.17 1.51-2.61 1.87q-.49.12-.48.54 0 .38-.34.55c-7.31 3.66-13.41 6.13-21 6.64q-.67.04-1.84-.11-1.98-.27-1.78.84" stroke="#2f2d32"/><path d="m114.94 135.61-3.06-4.38" stroke="#426a44"/><path d="m172.31 112.18 4.84 9.91M177.89 78.7q.75 2.05 1.61 3.97 6.14 13.67 10.3 28.09.64 2.23 1.44 6.36" stroke="#5db751"/><path d="m191.24 117.12-2.49.86q-.48.16-.99.1-1.34-.17-2.37.75a.11.1-56.7 0 1-.11.03q-2.1-.71-2.3.21-.04.17-.18.07l-.24-.19q-.22-.17-.36.07l-.8 1.33" stroke="#436c48"/><path d="m181.4 120.35-2.71-8.78" stroke="#a2b427"/><path d="M178.69 111.57q.44-1.51-.33-2.78a1.07 1.05 37.9 0 1-.11-.82q.26-.88-.12-1.69a.71.7-35.7 0 1 .14-.81l.73-.73q.09-.09.15.03.06.13.13.27a.21.21 0 0 0 .37.02q.61-.99 1.67-.67.46.14.75.52l2.57 3.27a.52.51-36.4 0 0 .71.1l.25-.19q.21-.15.06-.36l-6.5-8.83" stroke="#4d8e4f"/><path d="m179.16 98.9-3.35-5.42" stroke="#66a53e"/><path d="m102.8 102.53-.25-3.18q-.04-.46-.26-.88-.43-.81-.08-1.79.03-.06-.08-.06H102q-.13 0-.13.13v1.19q0 .58-.45.22-.32-.25-.34-.67-.05-1.13-.34-.26c-.9 2.77-.64 6.3-.62 9.25" stroke="#6ec646"/><path d="m100.12 106.48.01-10.89" stroke="#b2de18"/><path d="m104.71 117.99 1.13 2.44" stroke="#4b8d50"/><path d="M105.84 120.43q-.33.99.19 2.12.21.46.06.95-.57 1.83-.2 3.25.25.93 1.35 3.3c.49 1.06.42 2.34 1.06 3.43q1.06 1.84 1.24 2.28c.95 2.43 1.97 5.52 4.33 7.15" stroke="#54b057"/><path d="M113.87 142.91q1.13 2.65 2.23 3.85c3.89 4.22 7.56 8.82 11.66 12.81q1.26 1.23 2.32 2.64" stroke="#50a255"/><path d="M130.08 162.21q-3.52-2.2-6.4-5.14c-12.1-12.32-19.94-26.05-23.19-43.06" stroke="#aad62f"/><path d="m114.94 135.61 4.23 5.22" stroke="#3e603f"/><path d="M119.17 140.83q9.96 12.79 24.5 20.45" stroke="#3b5439"/><path d="M143.67 161.28q-3.2.68-6.1-2.19-.35-.36-.82-.52-1.19-.4-2.07-1.23-.37-.34-.83-.53c-1.58-.65-2.43-2.08-3.59-2.89q-3.44-2.4-6.44-5.36c-.5-.49-.98-.48-1.52-.98q-2.75-2.55-5.46-5.17-.34-.31-.77-.45l-2.7-.82q-.35-.1-.13.19.6.83.63 1.58" stroke="#4d8e4f"/><path d="M196.36 131.67c-1.09 10.26-4.71 22.63-12.41 30.24-3.6 3.56-7.22 8.28-12.04 10.14" stroke="#b8f679"/><path d="M171.91 172.05q.09-.49.79-.94" stroke="#59ac4f"/><path d="m172.7 171.11 4.55-3.28" stroke="#5db751"/><path d="M177.25 167.83q5.06-4.46 6.11-5.96 3.47-4.94 5.65-10.58.07-.16.24-.16.16 0 .31.01a.34.33 4.7 0 0 .35-.29l.5-3.52q.06-.46-.14-.87-.52-1.06-.29-2.23" stroke="#61c553"/><path d="m189.98 144.23.59-2.06" stroke="#4e8841"/><path d="M190.57 142.17q1.92-5.35 2.02-11.12" stroke="#529246"/><path d="M192.59 131.05q.32-6.83-1.35-13.93" stroke="#58a24c"/><path d="M189.98 144.23q-2.2 5.31-5.44 8.77" stroke="#3e603f"/><path d="M184.54 153q-3.62-1.62-4.68-1.6-2.26.05-4.38-.71-.51-.18-1.01 0-.41.16-.78-.09l-3.72-2.51a.19.19 0 0 1 .02-.33q.12-.06.25-.12.09-.04.02-.11-2.29-2.23-3.39-5.15-.87-2.31-1.53-3.28-1.04-1.52-2.2-2.92c-.83-1.01-1.98-1.39-2.92-2.48a.94.92 68.2 0 0-.72-.32q-1.71.01-2.68-1.32-.31-.44-.82-.24-1.42.53-3.01.27-.5-.09-.87.27-.58.59-1.25.2-.51-.29-.86.18-.31.44-.88.39a1.02 1-63.3 0 0-.77.26q-1.62 1.46-3.74 2.03-.19.05-.23.24-.02.13-.01.29a1.03 1.03 0 0 1-.97 1.09q-2.64.16-5.25.44-.5.05-.98-.1-1.11-.37-2.18.35-.55.37-.89.15-.31-.19-.64-.07c-3.45 1.18-7.19 2.65-10.89 2.3q-2.15-.2-3.41.72" stroke="#281827"/><path d="m201.08 120.07-8.2-19.96q-.24-.57-.47.01-.23.6.35 1.81 2.3 4.77 3.47 9.92c.42 1.81 1.15 3.57.97 5.79-.39 4.7-.38 9.3-.84 14.03" stroke="#e3ff4f"/><path d="M196.36 131.67q1.14-12.93-2.02-21.22c-2.21-5.8-4.04-11.71-6.9-17.11-1.73-3.28-3.7-8.05-6.18-10.72-.99-1.06-.67-2.34-1.56-3.3q-.84-.91-1.81-.62" stroke="#9cf62c"/><path d="m177.89 78.7-4.54-10.13" stroke="#87c028"/><path d="M176.19 61.86q-2.11.78-3.29.59" stroke="#c0d918"/><path d="M172.9 62.45q-2.35 2.02 0 4.35.29.29-.11.34-.14.02-.27.08-.44.22-.01.47.49.3.84.88" stroke="#a5e418"/><path d="M173.35 68.57q-2.45-.25-3.21 1.46-.31.7-.02 2.99.32 2.57-.86 4.85" stroke="#66a53e"/><path d="m106.66 86.72-1.01 1.06q-.32.34-.79.35-.7 0-1.12.62-1.14 1.68-2.34 3.34-.29.4-.28.89.02 1.44-.99 2.61" stroke="#a5e418"/><path d="m100.13 95.59.26-7.65" stroke="#d3f902"/><path d="M100.39 87.94q.54-1.22.49-1.34-.9-2.71-2.09-.15l-2.67 5.77" stroke="#e3ff4f"/><path d="m100.12 106.48.37 7.53" stroke="#9cdb30"/><path d="M100.49 114.01q-.34-.45-.8-.65-.56-.24-.56.38v.46q0 .12-.1.07-.15-.08-.29-.15a.18.18 0 0 0-.24.09q-.16.43-.06 1.02" stroke="#eeed02"/><path d="M130.08 162.21q5.73 4.2 7.92 5.51 2.28 1.35 8.07 3.94" stroke="#a2b427"/><path d="M146.07 171.66q5.7 3.06 12.69 3.25" stroke="#9faa25"/><path d="M158.76 174.91q-.07.82.77.75a.21.12 21 0 1 .22.27q-.2.04-.33.2a.45.45 0 0 1-.39.17l-7.84-.89" stroke="#eeed02"/><path d="m151.19 175.41-9.62-1.94" stroke="#b7eb2b"/><path d="m141.57 173.47-7.75-2.73" stroke="#a0f368"/><path d="M133.82 170.74q-1.11-2.12-4.05-3.29-.46-.18-.84-.5-.61-.52-1.96-1.27-3.71-2.07-7.64-6.22-.06-.06-.08-.13l-.17-.67q-.08-.33-.31-.58l-5.89-6.32" stroke="#eeed02"/><path d="M177.22 159.38q-1.22 1.48-.04 2.57.16.14.05.33-.13.24.07.4.8.59 1.79.51.49-.05.54.44c.16 1.53-1.65 2.81-2.38 4.2" stroke="#4d8e4f"/><path d="m172.7 171.11 1.82-1.9q.71-.74-.32-.71l-8.02.24q-.24.01-.39.2-.15.2-.32.34-.08.07-.19.05c-2.71-.44-5.54-.6-8.12-1.12q-5.03-1.02-10.07-1.96-.44-.08-4.07-1.15-2.02-.59-4.17-.47a1.88 1.84 55.9 0 1-.88-.18q-1.86-.89-3.96-1.18-1-.13-.13.38l1.62.98a1.57.12 50.2 0 1 .86.89q.19.21.59.12.47-.11.86.2c1.19.94 1.85 1.81 3.4 2.29q3.09.96 4.86 3.53" stroke="#45764b"/><path d="m184.54 153-7.32 6.38" stroke="#3b5439"/><path d="M177.22 159.38q-16.18 9.84-33.55 1.9" stroke="#364637"/><path d="M202.21 125.23q1.44 14.02-2.35 27.34c-.96 3.34-2.79 6.02-4.64 8.96" stroke="#f0f84f"/><path d="m195.22 161.53-6.28 6.72" stroke="#b8f679"/><path d="M188.94 168.25c-5.95 3-13 7.34-19.78 7.61-2.1.09-3.94.83-6.11.32a.45.45 0 0 1-.25-.71q.28-.36.96-.66" stroke="#f0f84f"/><path d="m163.76 174.81 8.15-2.76" stroke="#a0b573"/><path d="m163.76 174.81-5 .1" stroke="#91af26"/><path d="m93.44 126.46 3.13 5.27" stroke="#eeed02"/><path d="M96.57 131.73q2.63 8 7.06 15.42c2.37 3.97 6.24 7.91 9.22 12q2.1 2.88 11.84 9.9 6.67 4.8 14.21 7.55" stroke="#a0f368"/><path d="M138.9 176.6c7.97 3.65 13.48 4.54 22.02 4.89q5.17.22 8.87-.68c7.84-1.9 15.7-6.07 21.13-12.18q1.86-2.1 3.58-3.96" stroke="#b7eb2b"/><path d="M194.5 164.67q2.16-.87 2.5-1.68 1.51-3.63 3.21-7.2.72-1.5 1.29-4.04.49-2.17 1.46-4.23.2-.43.18-.92-.04-.93.4-1.73.25-.44.29-.94.69-8.78.48-11.18-.22-2.51-2.1-7.52" stroke="#eeed02"/><path d="m202.21 125.23-1.13-5.16" stroke="#fef34f"/><path d="m201.08 120.07 3.46 8.17q.25.57.77.24.52-.32.56-1.22.75-18.3-7.83-33.97c-2.48-4.52-6.37-9.44-9.65-14.07-3.17-4.48-7.08-8.3-10.47-12.62q-2.07-2.63-5.02-4.15" stroke="#e1f402"/><path d="M100.39 87.94q-.35 1.69-.91 3.25c-.88 2.45-1.05 4.56-1.61 6.97q-.5 2.13-.53 3.76-.12 6.68 1.1 13.31" stroke="#f0f84f"/><path d="M98.44 115.23q1.01 4.44 1.77 8.93c1.71 10.07 5.6 18.23 12.67 27.6" stroke="#fef34f"/><path d="M112.88 151.76q.19 2.25-1.17 1.77" stroke="#f0f84f"/><path d="M111.71 153.53q-6.34-6.02-10.85-14.82-3.64-7.07-5.43-13.38" stroke="#a1feb5"/><path d="M103.55 81.56q-5.52.04-5.64 3.11-.02.28-.25.44l-.61.41a.26.24 87.1 0 0-.09.11q-1.6 3.53-.84 6.59" stroke="#d3f902"/><path d="m96.12 92.22-1.41 4.18c-2.88 8.55-1.65 20.3.72 28.93" stroke="#f0f84f"/><path d="M95.43 125.33q-.29 2.63 1.14 6.4" stroke="#92f868"/><path d="M151.19 175.41q8.65 1.56 17.53 1.49c1.63-.01 3.23-.73 5-1.05q8.7-1.55 15.22-7.6" stroke="#a9f02c"/><path d="M111.71 153.53q9.7 10.49 22.11 17.21" stroke="#92f868"/><path d="M141.57 173.47q-.05.47.26.78.35.36-.09.6l-.47.26q-.28.15-.14.44.22.42.64.66.36.21.05.47-.23.2-.57.17-1.11-.11-2.35-.25" stroke="#5af692"/><path d="m194.5 164.67 2.62-5.38q.03-.05.02-.08-.01-.02-.02-.05-.04-.09-.08.01-.65 1.39-1.82 2.36" stroke="#a9f02c"/></g><path d="M161.28 72.01q.18.52 0 .91a.39.39 0 0 1-.68.06l-2.36-3.63q-.24-.37-.25-.81-.01-.6-.48-.81a.74.72 1.3 0 1-.38-.39q-1.34-3.45-2.77-6.86c-.32-.79-.19-1.83-.47-2.48-3.95-9.2-4.15-17.45-3.12-27.42q.22-2.11 1-5.61.62-2.76 1.04-5.61 1.44-4.35 2.04-9.1.11-.83-.15-1.3a.77.77 0 0 0-1.32-.04l-3.71 5.78-11.87 14.81q.72-1.37 1.17-2.73c.37-1.1 1.14-1.85 1.58-2.85q.65-1.51 1.1-2.13 1.02-1.42 2.01-2.85c2-2.9 5.38-5.39 7.78-8.13q.35-.4-.17-.29-.43.09-.69.53-.32.55-.92.58-.57.03-.17-.39l.5-.53a.07.07 0 0 0-.03-.12q-.34-.09-.61.05-.44.22-.91.08-1.8-.54-2.7.26-4.71 4.22-10.49 6.97c3.09-3.19 17.35-16.91 21.88-11.05q.99 1.29.33 4.68-1.7 8.79-3.6 17.53c-2.93 13.57.97 30.41 7.42 42.89Z" fill="#fce801"/><path d="M152.81 19.36q-1.04 1.96-1.18 4.26-.03.37-.28.63-.14.14-.26.3-.2.28-.2.7c0 1.87-.13 2.94-.98 4.85q-.56 1.24-.82 2.9-.07.47-.41.35-.36-.13-.42-.5l-.52-2.85q-.7-3.88-1.98-.11-.3.89-1.55 2.76l.08-1.8q.83-1.43 1.6-3.02.36-.74-.12-1.09-.37-.28-.4.19-.01.39-.4.42-.53.05-.39-.46.34-1.19 1.18-2.31.98-1.65 1.99-3.33.75-1.25 2.4-3.01 3.15-3.36 4.24-7.99.12-.53-.42-.63-.53-.09-.89.52-1.43 2.4-3.41 4.56l3.71-5.78a.77.77 0 0 1 1.32.04q.26.47.15 1.3-.6 4.75-2.04 9.1Z" fill="#84c92e"/><path d="M145.76 24.58q-1.13 1.5-5.64 5.04-.98.78-2.64 3.92-1.06.57-2.3.22l2.62-4.25 11.87-14.81q1.98-2.16 3.41-4.56.36-.61.89-.52.54.1.42.63-1.09 4.63-4.24 7.99-1.65 1.76-2.4 3.01-1.01 1.68-1.99 3.33Z" fill="#519c51"/><path d="m137.8 29.51-2.62 4.25-3.75 8.47-6.38 10.91-2.57 6.41q-.11.27-.29.04-.15-.2-.04-.59.42-1.55.13-3.47l8.55-18.77a7.65.17-67.9 0 0 1.51-3.5q1.41-3.36 3.07-6.51a.64.64 0 0 0-.55-.94l-.51-.01q2.07-2.85 4.47-5.49.26-.29.32-.62.14-.91-.51-1.16a.54.53 37.8 0 0-.45.05l-3.3 2.08a1.44 1.44 0 0 0-.64.88q-.21.86-.96 1.09-.52.16-.79.63-1.89 3.22-5.08 3.48l7.84-8.78q5.78-2.75 10.49-6.97.9-.8 2.7-.26.47.14.91-.08.27-.14.61-.05a.07.07 0 0 1 .03.12l-.5.53q-.4.42.17.39.6-.03.92-.58.26-.44.69-.53.52-.11.17.29c-2.4 2.74-5.78 5.23-7.78 8.13q-.99 1.43-2.01 2.85-.45.62-1.1 2.13c-.44 1-1.21 1.75-1.58 2.85q-.45 1.36-1.17 2.73Z" fill="#e0f202"/><path d="M134.35 25.8q-5.7 6.78-10.48 14.2-1.27 1.97-4.77 10.54l-1.34.78q-.38.21-.41.65-.13 1.47-1.21 2.47-.35.32-.49.78-.25.86-.57 1.61-.2.45-.49.53-.62.18-.5-.45.24-1.29-.35-1.37 4.06-15.95 13.67-28.8 3.19-.26 5.08-3.48.27-.47.79-.63.75-.23.96-1.09a1.44 1.44 0 0 1 .64-.88l3.3-2.08a.54.53 37.8 0 1 .45-.05q.65.25.51 1.16-.06.33-.32.62-2.4 2.64-4.47 5.49Z" fill="#c6ff02"/><path d="M152.81 19.36q-.42 2.85-1.04 5.61-.78 3.5-1 5.61c-1.03 9.97-.83 18.22 3.12 27.42.28.65.15 1.69.47 2.48q1.43 3.41 2.77 6.86a.74.72 1.3 0 0 .38.39q.47.21.48.81.01.44.25.81l2.36 3.63a.39.39 0 0 0 .68-.06q.18-.39 0-.91l7.06 12.1q-4.85-3.65-8.12-8.84c-1.02-1.63-2.82-3.58-3.47-6.08q-.09-.33-.43-.26l-.27.05q-.14.03-.12.17c.75 5.09 3.04 8.37 5.22 12.79q.76 1.55 2.02 3.34 2.53 3.58 5.6 10.86l-7.68-10.94c-1.04-2.15-1.52-4.45-2.61-6.45q-3.64-6.67-5.7-14.01-.04-.11-.15-.12h-.26q-.2.01-.27-.18-4.67-11.93-4.99-16.3-.39-5.19-.5-10.39-.03-1.46-.35-1.95-1.07-1.65-1.39.29c-1.25 7.59-1.58 13.17-.91 22.24.23 2.99.99 5.66 1.76 8.51 1.28 4.67 3.91 8.91 6.23 13.16q.26.48.72.8.5.34.46.91-.04.59.38.99 1.13 1.07 1.39 2.61a.54.4 52.4 0 0 .9.25q.02-.17.04-.29.03-.17.21-.14l.61.11 10.91 16.49.29 1.31q.18.84-.62.54l-.8-.29-5.18-7.1-15.28-23.97q-.26-.41-.3-.89c-.09-.96-.78-1.68-1.02-2.43-3.01-9.43-3.47-17.22-1.89-27.08q.02-.07.07-.1l.06-.04q.13-.06.14-.17l1.17-8.86q1.25-1.87 1.55-2.76 1.28-3.77 1.98.11l.52 2.85q.06.37.42.5.34.12.41-.35.26-1.66.82-2.9c.85-1.91.98-2.98.98-4.85q0-.42.2-.7.12-.16.26-.3.25-.26.28-.63.14-2.3 1.18-4.26Z" fill="#a3ec18"/><path d="M145.76 24.58q-.84 1.12-1.18 2.31-.14.51.39.46.39-.03.4-.42.03-.47.4-.19.48.35.12 1.09-.77 1.59-1.6 3.02l-3.33 7.75q-.07.17-.25.13l-.28-.07q-.1-.03-.07-.12.42-1.09.26-2.26-.02-.08-.09-.05-.39.19-.87.52-.39.26-.59.69l-.35.76q-.43.93-.55-.09-.36-3.22-1.78-2.11.22-1.53 1.09-2.46 1.66-3.14 2.64-3.92 4.51-3.54 5.64-5.04Z" fill="#57c35d"/><path d="m134.35 25.8.51.01a.64.64 0 0 1 .55.94q-1.66 3.15-3.07 6.51a7.65.17-67.9 0 1-1.51 3.5l-8.55 18.77q-.66 3.24-1.33 5.95-.32 1.27.03 2.42c.46 1.52.44 2.24.35 3.64q-.95 4.46-1 8.99c-.05 4.34-.62 8.42-.51 12.68q.04 1.64-1.5 1.06-.89-.34-1.2-2.27c-1.96-12.13-2.24-25.68 1.98-37.46q3.5-8.57 4.77-10.54 4.78-7.42 10.48-14.2Z" fill="#fffe9c"/><path d="m144.29 30.85-.08 1.8-1.17 8.86q-.01.11-.14.17l-.06.04q-.05.03-.07.1c-1.58 9.86-1.12 17.65 1.89 27.08.24.75.93 1.47 1.02 2.43q.04.48.3.89l15.28 23.97q-.7-.18-1.26.06-.2.08-.11.27.08.15.15.3.16.31-.19.31h-1.1q-.14 0-.03-.08.17-.14.1-.37-.06-.17-.27-.28-.61-.29-1.24-.05a1.01 1.01 0 0 1-.89-.1c-.83-.55-1.78-.78-2.5-1.29q-6.09-4.25-7.42-5.97c-1.85-2.4-4.17-4.3-5.74-6.91q-.05-.09-.02-.11.07-.04.26-.08.14-.02.04-.12c-1.43-1.27-1.75-2.95-2.85-4.24q-1.12-1.3-2.22-2.66a2.1 1.9 19.5 0 1-.34-.63q-.32-1-1.1-.77-.11.03-.06.13.11.23.01.43-.23.45-.48.02l-4.47-7.79q-.19-.32-.18-.69l.16-10.17c1.07-2.98 1.73-5.98 2.7-8.95q1.73-5.31 4.18-10.45 1.42-1.11 1.78 2.11.12 1.02.55.09l.35-.76q.2-.43.59-.69.48-.33.87-.52.07-.03.09.05.16 1.17-.26 2.26-.03.09.07.12l.28.07q.18.04.25-.13l3.33-7.75Z" fill="#71ed55"/><path d="M137.48 33.54q-.87.93-1.09 2.46-2.45 5.14-4.18 10.45c-.97 2.97-1.63 5.97-2.7 8.95q-.86-1.18-.69-3.41l2.61-9.76 3.75-8.47q1.24.35 2.3-.22Z" fill="#769596"/><path d="M161.09 85.2c-1.77-1.74-3-4.1-4.38-5.69q-1.66-1.91-2.52-2.74-3.65-3.55-1.59 1.1 1.29 2.9 3.91 6.68.16.29.15.69l-.61-.11q-.18-.03-.21.14-.02.12-.04.29a.54.4 52.4 0 1-.9-.25q-.26-1.54-1.39-2.61-.42-.4-.38-.99.04-.57-.46-.91-.46-.32-.72-.8c-2.32-4.25-4.95-8.49-6.23-13.16-.77-2.85-1.53-5.52-1.76-8.51-.67-9.07-.34-14.65.91-22.24q.32-1.94 1.39-.29.32.49.35 1.95.11 5.2.5 10.39.32 4.37 4.99 16.3.07.19.27.18h.26q.11.01.15.12 2.06 7.34 5.7 14.01c1.09 2 1.57 4.3 2.61 6.45Z" fill="#c6ff02"/><path d="m131.43 42.23-2.61 9.76c-1.39 6.47-2.46 12.33-3.09 19.41q-.49 5.59-1.25 11.15-.06.43-.33.68-.41.37-.5-.17-.09-.57 0-1.13.04-.18.03.01-.16 5.22-1.71 10.29c-.89 2.91-4.14 2.11-5.79.26l-2.84-5.29q-2.7-16 .4-31.66.59.08.35 1.37-.12.63.5.45.29-.08.49-.53.32-.75.57-1.61.14-.46.49-.78 1.08-1 1.21-2.47.03-.44.41-.65l1.34-.78c-4.22 11.78-3.94 25.33-1.98 37.46q.31 1.93 1.2 2.27 1.54.58 1.5-1.06c-.11-4.26.46-8.34.51-12.68q.05-4.53 1-8.99l3.72-14.4 6.38-10.91Z" fill="#71ed55"/><path d="M128.82 51.99q-.17 2.23.69 3.41l-.16 10.17q-.01.37.18.69l4.47 7.79q.25.43.48-.02.1-.2-.01-.43-.05-.1.06-.13.78-.23 1.1.77a2.1 1.9 19.5 0 0 .34.63q1.1 1.36 2.22 2.66c1.1 1.29 1.42 2.97 2.85 4.24q.1.1-.04.12-.19.04-.26.08-.03.02.02.11c1.57 2.61 3.89 4.51 5.74 6.91q1.33 1.72 7.42 5.97c.72.51 1.67.74 2.5 1.29a1.01 1.01 0 0 0 .89.1q.63-.24 1.24.05.21.11.27.28.07.23-.1.37-.11.08.03.08h1.1q.35 0 .19-.31-.07-.15-.15-.3-.09-.19.11-.27.56-.24 1.26-.06l5.18 7.1.79 1.52-3.29-.49a.65.64 19.4 0 0-.66.31q-.4.68-1.3.26-2.16-1.03-4.31-2.06-.47-.23-.79-.64-.59-.75-1.53-1.04a.85.85 0 0 1-.59-.59q-.2-.7-.63-.96-1.8-1.06-4.34-3.4-4.37-4.03-5.76-5.9-1.63-2.19-3.81-3.87-.31-.24-.32-.62 0-.19-.15-.32-.22-.2-.83-.51c-1.86-.96-4.19-3.55-5.48-4.66q-1.52-1.31-.43.37 1.15 1.76 3.11 3.53.17.16.01.33l-.17.18q-.02.02-.04 0l-8-7.58q-.72-.68-.77.3l-.34 6.73a.05.04 27.1 0 0 .02.05q.22.19-.03-.36-.09-.22-.3-.1l-.24.13q-.35.2-.37.6-.19 4.54-2.77 10.62-1.3 3.07-3.96 3.07-.58 0-1-.4-2.21-2.1-1.98-5.3c1.65 1.85 4.9 2.65 5.79-.26q1.55-5.07 1.71-10.29.01-.19-.03-.01-.09.56 0 1.13.09.54.5.17.27-.25.33-.68.76-5.56 1.25-11.15c.63-7.08 1.7-12.94 3.09-19.41Z" fill="#57c35d"/><path d="m125.05 53.14-3.72 14.4c.09-1.4.11-2.12-.35-3.64q-.35-1.15-.03-2.42.67-2.71 1.33-5.95.29 1.92-.13 3.47-.11.39.04.59.18.23.29-.04l2.57-6.41Z" fill="#a3ec18"/><path d="M176.19 61.86q-2.11.78-3.29.59-2.35 2.02 0 4.35.29.29-.11.34-.14.02-.27.08-.44.22-.01.47.49.3.84.88-2.45-.25-3.21 1.46-.31.7-.02 2.99.32 2.57-.86 4.85-1.13-4.27-.98-9.86.19-6.77 7.91-6.15Z" fill="#84c92e"/><path d="M176.19 61.86q11.87 10.48 21.34 24.62c16.27 24.29 18.98 52.02 2.88 76.51q-6.27 9.54-17.76 15.88c-25.62 14.11-59.85-2.72-76.07-24.46-6.09-8.16-11.2-17.76-13.14-27.95l3.13 5.27q2.63 8 7.06 15.42c2.37 3.97 6.24 7.91 9.22 12q2.1 2.88 11.84 9.9 6.67 4.8 14.21 7.55c7.97 3.65 13.48 4.54 22.02 4.89q5.17.22 8.87-.68c7.84-1.9 15.7-6.07 21.13-12.18q1.86-2.1 3.58-3.96 2.16-.87 2.5-1.68 1.51-3.63 3.21-7.2.72-1.5 1.29-4.04.49-2.17 1.46-4.23.2-.43.18-.92-.04-.93.4-1.73.25-.44.29-.94.69-8.78.48-11.18-.22-2.51-2.1-7.52l-1.13-5.16 3.46 8.17q.25.57.77.24.52-.32.56-1.22.75-18.3-7.83-33.97c-2.48-4.52-6.37-9.44-9.65-14.07-3.17-4.48-7.08-8.3-10.47-12.62q-2.07-2.63-5.02-4.15 1.18.19 3.29-.59Z" fill="#fce801"/><path d="M172.9 62.45q2.95 1.52 5.02 4.15c3.39 4.32 7.3 8.14 10.47 12.62 3.28 4.63 7.17 9.55 9.65 14.07q8.58 15.67 7.83 33.97-.04.9-.56 1.22-.52.33-.77-.24l-3.46-8.17-8.2-19.96q-.24-.57-.47.01-.23.6.35 1.81 2.3 4.77 3.47 9.92c.42 1.81 1.15 3.57.97 5.79-.39 4.7-.38 9.3-.84 14.03q1.14-12.93-2.02-21.22c-2.21-5.8-4.04-11.71-6.9-17.11-1.73-3.28-3.7-8.05-6.18-10.72-.99-1.06-.67-2.34-1.56-3.3q-.84-.91-1.81-.62l-4.54-10.13q-.35-.58-.84-.88-.43-.25.01-.47.13-.06.27-.08.4-.05.11-.34-2.35-2.33 0-4.35Z" fill="#c6ff02"/><path d="m173.35 68.57 4.54 10.13q.75 2.05 1.61 3.97 6.14 13.67 10.3 28.09.64 2.23 1.44 6.36l-2.49.86q-.48.16-.99.1-1.34-.17-2.37.75a.11.1-56.7 0 1-.11.03q-2.1-.71-2.3.21-.04.17-.18.07l-.24-.19q-.22-.17-.36.07l-.8 1.33-2.71-8.78q.44-1.51-.33-2.78a1.07 1.05 37.9 0 1-.11-.82q.26-.88-.12-1.69a.71.7-35.7 0 1 .14-.81l.73-.73q.09-.09.15.03.06.13.13.27a.21.21 0 0 0 .37.02q.61-.99 1.67-.67.46.14.75.52l2.57 3.27a.52.51-36.4 0 0 .71.1l.25-.19q.21-.15.06-.36l-6.5-8.83-3.35-5.42-6.55-15.61q1.18-2.28.86-4.85-.29-2.29.02-2.99.76-1.71 3.21-1.46Z" fill="#48804d"/><path d="m168.34 84.11 7.47 9.37 3.35 5.42q-4.47-3.11-6.77-6.54-2.54-3.8-4.05-5.86c-1.37-1.87-3.55-3.34-5.13-5.34q-.37-.47-1.99-1.51-.31-.21-.22.15.17.74.67 1.34.33.39.43.9.07.35.24.65 2.66 4.57 5.67 8.93.29.41.34.91c.21 2.14 2.22 4.47 3.13 6.48q.48 1.06-.32.22l-1.03-1.08q-.61-1.46-1.36-2.01-3.07-7.28-5.6-10.86-1.26-1.79-2.02-3.34c-2.18-4.42-4.47-7.7-5.22-12.79q-.02-.14.12-.17l.27-.05q.34-.07.43.26c.65 2.5 2.45 4.45 3.47 6.08q3.27 5.19 8.12 8.84Z" fill="#84c92e"/><path d="m161.09 85.2 7.68 10.94q.75.55 1.36 2.01 4.89 6.34 8.56 13.42l2.71 8.78.04 2.11-.39-.41q-.34-.35-.49-.82c-4.67-14.24-15.11-23.87-22.89-36.19q-.21-.35-.48-.43-.29-.09-.68-.06-2.62-3.78-3.91-6.68-2.06-4.65 1.59-1.1.86.83 2.52 2.74c1.38 1.59 2.61 3.95 4.38 5.69Z" fill="#fce801"/><path d="m167.23 104.81 5.08 7.37q-2.49-.36-5.33-.61-2.7-.24-4.51-1.21-2.1-1.12-3.95-2.63-.15-.12-.15-.33a.43.43 0 0 0-.18-.35q-3.31-2.47-6.17-5.43c-.97-1-2.77-1.72-3.38-3.13q-.93-2.1-2.63-2.93-.45-.22-.79-.58-1.06-1.1-2.28-2-.59-.43-.2.19.44.69 1.15 1.05.46.23.68.69.44.93 1.34 1.45.45.26.72.71 1 1.67 1.76 2.29 3.62 2.95 6.78 6.36.12.13-.01.25v.01q-.04.03-.12-.04l-8.45-7.58q-.35-.31-.57-.71-.16-.29-.41-.52-3.16-2.97-6.48-5.76-2.49-2.1-5.42-3.45-.41-.19-.86-.14c-4.72.54-1.79 6.61-3.95 9.25q-.31.38-.33.87-.26 8.46-7.92 11.71c-.9.38-1.99.23-3 .24a.49.48-88 0 0-.47.44q-.21 2.34 1.35 4.19.19.23.01.46-.21.28-.22.63-.01.57.54.69.29.06.28.33-.02.67.63.54 2.28-.44 4.48-1.16c2.34-.77 3.6-2.6 5.28-4.29 1.29-1.29 1.52-2.81 2.43-4.35q1.09-1.83 1.47-3.42.86-3.58 2.22-6.95.17-.44.64-.51c3.68-.62 4.17 1.02 6.83 2.48q.43.24.74.63 2.06 2.59 4.01 3.77c1.59.95 2.37 2.28 3.57 3.16 2.18 1.61 3.86 2.68 5.71 5q.94 1.18 2.39 2.47 5.04 4.48 9.07 6.92 1.6.97 2.96 1.04.18.01.18-.17 0-.14-.01-.28-.01-.29.27-.24l5.14.86.94 4.34q-3.08-1.28-5.6-1.7c-3.21-.53-6.63-4-8.95-6.06-.93-.83-2.39-1.42-3.17-2.93a1.69 1.64-87.1 0 0-.52-.59c-3.07-2.2-5.03-5.13-8.32-7.57-.78-.59-1.24-1.7-1.98-2.34q-4.82-4.18-10.12-7.46a1.77 1.76 26.8 0 0-2.57.84q-1.9 4.76-3.63 9.57-.95 2.68-2.64 4.29c-1.67 1.62-3.51 3.28-5.77 4.03q-.91.31-1.74.88-.38.26-.84.31-1.8.19-3.54.42c-2.44.32-4.51-.12-6.89-.51q-.41-.06-.75-.3-.74-.52-1.58-.44-.51.05-1-.13-3.92-1.45-3.77 1.25-2.54-7.18-1.91-15.46.09.16.22.21a.26.26 0 0 0 .35-.24q0-.13-.02-.28a.49.49 0 0 1 .66-.51q2.01.71 3.6 2.17.36.33.52.79.21.64.85.97 2.75 1.41 5.13.75.67.92 1.59 1.3a.47.47 0 0 0 .63-.57q-3.04-10.05-2.99-19.92l2.84 5.29q-.23 3.2 1.98 5.3.42.4 1 .4 2.66 0 3.96-3.07 2.58-6.08 2.77-10.62.02-.4.37-.6l.24-.13q.21-.12.3.1.25.55.03.36a.05.04 27.1 0 1-.02-.05l.34-6.73q.05-.98.77-.3l8 7.58q.02.02.04 0l.17-.18q.16-.17-.01-.33-1.96-1.77-3.11-3.53-1.09-1.68.43-.37c1.29 1.11 3.62 3.7 5.48 4.66q.61.31.83.51.15.13.15.32.01.38.32.62 2.18 1.68 3.81 3.87 1.39 1.87 5.76 5.9 2.54 2.34 4.34 3.4.43.26.63.96a.85.85 0 0 0 .59.59q.94.29 1.53 1.04.32.41.79.64 2.15 1.03 4.31 2.06.9.42 1.3-.26a.65.64 19.4 0 1 .66-.31l3.29.49Z" fill="#519c51"/><path d="M177.89 78.7q.97-.29 1.81.62c.89.96.57 2.24 1.56 3.3 2.48 2.67 4.45 7.44 6.18 10.72 2.86 5.4 4.69 11.31 6.9 17.11q3.16 8.29 2.02 21.22c-1.09 10.26-4.71 22.63-12.41 30.24-3.6 3.56-7.22 8.28-12.04 10.14q.09-.49.79-.94l4.55-3.28q5.06-4.46 6.11-5.96 3.47-4.94 5.65-10.58.07-.16.24-.16.16 0 .31.01a.34.33 4.7 0 0 .35-.29l.5-3.52q.06-.46-.14-.87-.52-1.06-.29-2.23l.59-2.06q1.92-5.35 2.02-11.12.32-6.83-1.35-13.93-.8-4.13-1.44-6.36-4.16-14.42-10.3-28.09-.86-1.92-1.61-3.97Z" fill="#71ed55"/><path d="m179.16 98.9 6.5 8.83q.15.21-.06.36l-.25.19a.52.51-36.4 0 1-.71-.1l-2.57-3.27q-.29-.38-.75-.52-1.06-.32-1.67.67a.21.21 0 0 1-.37-.02q-.07-.14-.13-.27-.06-.12-.15-.03l-.73.73a.71.7-35.7 0 0-.14.81q.38.81.12 1.69a1.07 1.05 37.9 0 0 .11.82q.77 1.27.33 2.78-3.67-7.08-8.56-13.42l1.03 1.08q.8.84.32-.22c-.91-2.01-2.92-4.34-3.13-6.48q-.05-.5-.34-.91-3.01-4.36-5.67-8.93-.17-.3-.24-.65-.1-.51-.43-.9-.5-.6-.67-1.34-.09-.36.22-.15 1.62 1.04 1.99 1.51c1.58 2 3.76 3.47 5.13 5.34q1.51 2.06 4.05 5.86 2.3 3.43 6.77 6.54Z" fill="#519c51"/><path d="M103.55 81.56q-5.52.04-5.64 3.11-.02.28-.25.44l-.61.41a.26.24 87.1 0 0-.09.11q-1.6 3.53-.84 6.59l-1.41 4.18c-2.88 8.55-1.65 20.3.72 28.93q-.29 2.63 1.14 6.4l-3.13-5.27q-5.18-17.28.06-35.21c1.08-3.68 4.38-13.38 10.05-9.69Z" fill="#e0f202"/><path d="m103.55 81.56 3.11 5.16-1.01 1.06q-.32.34-.79.35-.7 0-1.12.62-1.14 1.68-2.34 3.34-.29.4-.28.89.02 1.44-.99 2.61l.26-7.65q.54-1.22.49-1.34-.9-2.71-2.09-.15l-2.67 5.77q-.76-3.06.84-6.59a.26.24 87.1 0 1 .09-.11l.61-.41q.23-.16.25-.44.12-3.07 5.64-3.11Z" fill="#c6ff02"/><path d="M156.51 84.55q.39-.03.68.06.27.08.48.43c7.78 12.32 18.22 21.95 22.89 36.19q.15.47.49.82l.39.41.17 2.83-.04 1.35q-.01.46-.42.65-.66.32-.83-.38c-2.57-10.43-7.2-16.69-12.75-25.18l-10.91-16.49q.01-.4-.15-.69ZM100.39 87.94q-.35 1.69-.91 3.25c-.88 2.45-1.05 4.56-1.61 6.97q-.5 2.13-.53 3.76-.12 6.68 1.1 13.31 1.01 4.44 1.77 8.93c1.71 10.07 5.6 18.23 12.67 27.6q.19 2.25-1.17 1.77-6.34-6.02-10.85-14.82-3.64-7.07-5.43-13.38c-2.37-8.63-3.6-20.38-.72-28.93l1.41-4.18 2.67-5.77q1.19-2.56 2.09.15.05.12-.49 1.34Z" fill="#fffe9c"/><path d="M106.66 86.72c2.3 7.43 4.12 14.16 7.45 19.67q-2.38.66-5.13-.75-.64-.33-.85-.97-.16-.46-.52-.79-1.59-1.46-3.6-2.17a.49.49 0 0 0-.66.51q.02.15.02.28a.26.26 0 0 1-.35.24q-.13-.05-.22-.21l-.25-3.18q-.04-.46-.26-.88-.43-.81-.08-1.79.03-.06-.08-.06H102q-.13 0-.13.13v1.19q0 .58-.45.22-.32-.25-.34-.67-.05-1.13-.34-.26c-.9 2.77-.64 6.3-.62 9.25l.01-10.89q1.01-1.17.99-2.61-.01-.49.28-.89 1.2-1.66 2.34-3.34.42-.62 1.12-.62.47-.01.79-.35l1.01-1.06Z" fill="#84c92e"/><path d="m172.31 112.18 4.84 9.91-5.14-.86q-.28-.05-.27.24.01.14.01.28 0 .18-.18.17-1.36-.07-2.96-1.04-4.03-2.44-9.07-6.92-1.45-1.29-2.39-2.47c-1.85-2.32-3.53-3.39-5.71-5-1.2-.88-1.98-2.21-3.57-3.16q-1.95-1.18-4.01-3.77-.31-.39-.74-.63c-2.66-1.46-3.15-3.1-6.83-2.48q-.47.07-.64.51-1.36 3.37-2.22 6.95-.38 1.59-1.47 3.42c-.91 1.54-1.14 3.06-2.43 4.35-1.68 1.69-2.94 3.52-5.28 4.29q-2.2.72-4.48 1.16-.65.13-.63-.54.01-.27-.28-.33-.55-.12-.54-.69.01-.35.22-.63.18-.23-.01-.46-1.56-1.85-1.35-4.19a.49.48-88 0 1 .47-.44c1.01-.01 2.1.14 3-.24q7.66-3.25 7.92-11.71.02-.49.33-.87c2.16-2.64-.77-8.71 3.95-9.25q.45-.05.86.14 2.93 1.35 5.42 3.45 3.32 2.79 6.48 5.76.25.23.41.52.22.4.57.71l8.45 7.58q.08.07.12.04v-.01q.13-.12.01-.25-3.16-3.41-6.78-6.36-.76-.62-1.76-2.29-.27-.45-.72-.71-.9-.52-1.34-1.45-.22-.46-.68-.69-.71-.36-1.15-1.05-.39-.62.2-.19 1.22.9 2.28 2 .34.36.79.58 1.7.83 2.63 2.93c.61 1.41 2.41 2.13 3.38 3.13q2.86 2.96 6.17 5.43a.43.43 0 0 1 .18.35q0 .21.15.33 1.85 1.51 3.95 2.63 1.81.97 4.51 1.21 2.84.25 5.33.61Z" fill="#48804d"/><path d="m100.39 87.94-.26 7.65-.01 10.89.37 7.53q-.34-.45-.8-.65-.56-.24-.56.38v.46q0 .12-.1.07-.15-.08-.29-.15a.18.18 0 0 0-.24.09q-.16.43-.06 1.02-1.22-6.63-1.1-13.31.03-1.63.53-3.76c.56-2.41.73-4.52 1.61-6.97q.56-1.56.91-3.25Z" fill="#e0f202"/><path d="M102.8 102.53q-.63 8.28 1.91 15.46l1.13 2.44q-.33.99.19 2.12.21.46.06.95-.57 1.83-.2 3.25.25.93 1.35 3.3c.49 1.06.42 2.34 1.06 3.43q1.06 1.84 1.24 2.28c.95 2.43 1.97 5.52 4.33 7.15q1.13 2.65 2.23 3.85c3.89 4.22 7.56 8.82 11.66 12.81q1.26 1.23 2.32 2.64-3.52-2.2-6.4-5.14c-12.1-12.32-19.94-26.05-23.19-43.06l-.37-7.53c-.02-2.95-.28-6.48.62-9.25q.29-.87.34.26.02.42.34.67.45.36.45-.22v-1.19q0-.13.13-.13h.13q.11 0 .08.06-.35.98.08 1.79.22.42.26.88l.25 3.18Z" fill="#57c35d"/><path d="M178.09 126.43q.49 1.76.65 5.57.2 4.79-2.31 8.24-.85-2.1-3.15-2.92-.43-.15-.73-.49l-15.96-17.55a1.05 1.03-10.3 0 0-.41-.28q-1.46-.56-2.52-1.77-.32-.37-.8-.49l-4.02-.99q-.52-.13-.96.2-1.07.81-2.37.96-.54.06-.75.56c-.42 1.02-.55 1.49-1.5 2.15q-5.09 3.52-10.22 6.99-.78.54-1.67.89-3.93 1.56-8.12 2.17c-.95.14-1.46.66-2.36.74-1.78.16-6.59.7-8.02-.09q-.48-.25-.76.21-.18.29-.23.7-3.64-4.95-6.04-10.8l-1.13-2.44q-.15-2.7 3.77-1.25.49.18 1 .13.84-.08 1.58.44.34.24.75.3c2.38.39 4.45.83 6.89.51q1.74-.23 3.54-.42.46-.05.84-.31.83-.57 1.74-.88c2.26-.75 4.1-2.41 5.77-4.03q1.69-1.61 2.64-4.29 1.73-4.81 3.63-9.57a1.77 1.76 26.8 0 1 2.57-.84q5.3 3.28 10.12 7.46c.74.64 1.2 1.75 1.98 2.34 3.29 2.44 5.25 5.37 8.32 7.57a1.69 1.64-87.1 0 1 .52.59c.78 1.51 2.24 2.1 3.17 2.93 2.32 2.06 5.74 5.53 8.95 6.06q2.52.42 5.6 1.7Z" fill="#3e5742"/><path d="m201.08 120.07 1.13 5.16q1.44 14.02-2.35 27.34c-.96 3.34-2.79 6.02-4.64 8.96l-6.28 6.72c-5.95 3-13 7.34-19.78 7.61-2.1.09-3.94.83-6.11.32a.45.45 0 0 1-.25-.71q.28-.36.96-.66l8.15-2.76c4.82-1.86 8.44-6.58 12.04-10.14 7.7-7.61 11.32-19.98 12.41-30.24.46-4.73.45-9.33.84-14.03.18-2.22-.55-3.98-.97-5.79q-1.17-5.15-3.47-9.92-.58-1.21-.35-1.81.23-.58.47-.01l8.2 19.96Z" fill="#fffe9c"/><path d="M167.57 101.73c5.55 8.49 10.18 14.75 12.75 25.18q.17.7.83.38.41-.19.42-.65l.04-1.35q.32 4.67-1.41 9.16-1.41 4.21-4.39 7.46-.14.15-.3.01v-.01q-.13-.11-.01-.29l.93-1.38q2.51-3.45 2.31-8.24-.16-3.81-.65-5.57l-.94-4.34-4.84-9.91-5.08-7.37-.79-1.52.8.29q.8.3.62-.54l-.29-1.31Z" fill="#71ed55"/><path d="M100.49 114.01c3.25 17.01 11.09 30.74 23.19 43.06q2.88 2.94 6.4 5.14 5.73 4.2 7.92 5.51 2.28 1.35 8.07 3.94 5.7 3.06 12.69 3.25-.07.82.77.75a.21.12 21 0 1 .22.27q-.2.04-.33.2a.45.45 0 0 1-.39.17l-7.84-.89-9.62-1.94-7.75-2.73q-1.11-2.12-4.05-3.29-.46-.18-.84-.5-.61-.52-1.96-1.27-3.71-2.07-7.64-6.22-.06-.06-.08-.13l-.17-.67q-.08-.33-.31-.58l-5.89-6.32c-7.07-9.37-10.96-17.53-12.67-27.6q-.76-4.49-1.77-8.93-.1-.59.06-1.02a.18.18 0 0 1 .24-.09q.14.07.29.15.1.05.1-.07v-.46q0-.62.56-.38.46.2.8.65Z" fill="#fce801"/><path d="m176.43 140.24-.93 1.38q-.12.18.01.29v.01q.16.14.3-.01 2.98-3.25 4.39-7.46 2.45-.05 7.78-1.3 2.81-.66 3.29-2.87.03-.14.18-.15.19 0 .37.02.48.06.64.52.06.18.13.38-.1 5.77-2.02 11.12-.81-2.21-2.65-.38-.34.33-.81.36c-2.9.17-6.81.42-9.59-.43q-1.01-.31-1.56.66a.93.93 0 0 1-1.42.25q-4.84-4.09-7.72-9.62c-.31-.59-.72-.75-1.17-1.28q-2.18-2.58-4.31-5.22-.76-.94-1.66-1.53-.96-.62-1.95-1.18-.11-.06-2.05-1.27-3.13-1.97-6.97-.76-.58.18-.88.69a1.32 1.29 3.4 0 1-.63.55q-2.23.93-4.21 2.27c-.85.58-1.17 1.51-2.61 1.87q-.49.12-.48.54 0 .38-.34.55c-7.31 3.66-13.41 6.13-21 6.64q-.67.04-1.84-.11-1.98-.27-1.78.84l-3.06-4.38q.05-.41.23-.7.28-.46.76-.21c1.43.79 6.24.25 8.02.09.9-.08 1.41-.6 2.36-.74q4.19-.61 8.12-2.17.89-.35 1.67-.89 5.13-3.47 10.22-6.99c.95-.66 1.08-1.13 1.5-2.15q.21-.5.75-.56 1.3-.15 2.37-.96.44-.33.96-.2l4.02.99q.48.12.8.49 1.06 1.21 2.52 1.77a1.05 1.03-10.3 0 1 .41.28l15.96 17.55q.3.34.73.49 2.3.82 3.15 2.92Z" fill="#333736"/><path d="M191.24 117.12q1.67 7.1 1.35 13.93-.07-.2-.13-.38-.16-.46-.64-.52-.18-.02-.37-.02-.15.01-.18.15-.48 2.21-3.29 2.87-5.33 1.25-7.78 1.3 1.73-4.49 1.41-9.16l-.17-2.83-.04-2.11.8-1.33q.14-.24.36-.07l.24.19q.14.1.18-.07.2-.92 2.3-.21a.11.1-56.7 0 0 .11-.03q1.03-.92 2.37-.75.51.06.99-.1l2.49-.86Z" fill="#3e5742"/><path d="M105.84 120.43q2.4 5.85 6.04 10.8l3.06 4.38 4.23 5.22q9.96 12.79 24.5 20.45-3.2.68-6.1-2.19-.35-.36-.82-.52-1.19-.4-2.07-1.23-.37-.34-.83-.53c-1.58-.65-2.43-2.08-3.59-2.89q-3.44-2.4-6.44-5.36c-.5-.49-.98-.48-1.52-.98q-2.75-2.55-5.46-5.17-.34-.31-.77-.45l-2.7-.82q-.35-.1-.13.19.6.83.63 1.58c-2.36-1.63-3.38-4.72-4.33-7.15q-.18-.44-1.24-2.28c-.64-1.09-.57-2.37-1.06-3.43q-1.1-2.37-1.35-3.3-.37-1.42.2-3.25.15-.49-.06-.95-.52-1.13-.19-2.12Z" fill="#519c51"/><path d="m190.57 142.17-.59 2.06q-2.2 5.31-5.44 8.77-3.62-1.62-4.68-1.6-2.26.05-4.38-.71-.51-.18-1.01 0-.41.16-.78-.09l-3.72-2.51a.19.19 0 0 1 .02-.33q.12-.06.25-.12.09-.04.02-.11-2.29-2.23-3.39-5.15-.87-2.31-1.53-3.28-1.04-1.52-2.2-2.92c-.83-1.01-1.98-1.39-2.92-2.48a.94.92 68.2 0 0-.72-.32q-1.71.01-2.68-1.32-.31-.44-.82-.24-1.42.53-3.01.27-.5-.09-.87.27-.58.59-1.25.2-.51-.29-.86.18-.31.44-.88.39a1.02 1-63.3 0 0-.77.26q-1.62 1.46-3.74 2.03-.19.05-.23.24-.02.13-.01.29a1.03 1.03 0 0 1-.97 1.09q-2.64.16-5.25.44-.5.05-.98-.1-1.11-.37-2.18.35-.55.37-.89.15-.31-.19-.64-.07c-3.45 1.18-7.19 2.65-10.89 2.3q-2.15-.2-3.41.72l-4.23-5.22q-.2-1.11 1.78-.84 1.17.15 1.84.11c7.59-.51 13.69-2.98 21-6.64q.34-.17.34-.55-.01-.42.48-.54c1.44-.36 1.76-1.29 2.61-1.87q1.98-1.34 4.21-2.27a1.32 1.29 3.4 0 0 .63-.55q.3-.51.88-.69 3.84-1.21 6.97.76 1.94 1.21 2.05 1.27.99.56 1.95 1.18.9.59 1.66 1.53 2.13 2.64 4.31 5.22c.45.53.86.69 1.17 1.28q2.88 5.53 7.72 9.62a.93.93 0 0 0 1.42-.25q.55-.97 1.56-.66c2.78.85 6.69.6 9.59.43q.47-.03.81-.36 1.84-1.83 2.65.38Z" fill="#2b232d"/><path d="M95.43 125.33q1.79 6.31 5.43 13.38 4.51 8.8 10.85 14.82 9.7 10.49 22.11 17.21l7.75 2.73q-.05.47.26.78.35.36-.09.6l-.47.26q-.28.15-.14.44.22.42.64.66.36.21.05.47-.23.2-.57.17-1.11-.11-2.35-.25-7.54-2.75-14.21-7.55-9.74-7.02-11.84-9.9c-2.98-4.09-6.85-8.03-9.22-12q-4.43-7.42-7.06-15.42-1.43-3.77-1.14-6.4Z" fill="#43fece"/><path d="M202.21 125.23q1.88 5.01 2.1 7.52.21 2.4-.48 11.18-.04.5-.29.94-.44.8-.4 1.73.02.49-.18.92-.97 2.06-1.46 4.23-.57 2.54-1.29 4.04-1.7 3.57-3.21 7.2-.34.81-2.5 1.68l2.62-5.38q.03-.05.02-.08-.01-.02-.02-.05-.04-.09-.08.01-.65 1.39-1.82 2.36c1.85-2.94 3.68-5.62 4.64-8.96q3.79-13.32 2.35-27.34Z" fill="#e0f202"/><path d="m184.54 153-7.32 6.38q-16.18 9.84-33.55 1.9-14.54-7.66-24.5-20.45 1.26-.92 3.41-.72c3.7.35 7.44-1.12 10.89-2.3q.33-.12.64.07.34.22.89-.15 1.07-.72 2.18-.35.48.15.98.1 2.61-.28 5.25-.44a1.03 1.03 0 0 0 .97-1.09q-.01-.16.01-.29.04-.19.23-.24 2.12-.57 3.74-2.03a1.02 1-63.3 0 1 .77-.26q.57.05.88-.39.35-.47.86-.18.67.39 1.25-.2.37-.36.87-.27 1.59.26 3.01-.27.51-.2.82.24.97 1.33 2.68 1.32a.94.92 68.2 0 1 .72.32c.94 1.09 2.09 1.47 2.92 2.48q1.16 1.4 2.2 2.92.66.97 1.53 3.28 1.1 2.92 3.39 5.15.07.07-.02.11-.13.06-.25.12a.19.19 0 0 0-.02.33l3.72 2.51q.37.25.78.09.5-.18 1.01 0 2.12.76 4.38.71 1.06-.02 4.68 1.6Z" fill="#240c21"/><path d="M143.67 161.28q17.37 7.94 33.55-1.9-1.22 1.48-.04 2.57.16.14.05.33-.13.24.07.4.8.59 1.79.51.49-.05.54.44c.16 1.53-1.65 2.81-2.38 4.2l-4.55 3.28 1.82-1.9q.71-.74-.32-.71l-8.02.24q-.24.01-.39.2-.15.2-.32.34-.08.07-.19.05c-2.71-.44-5.54-.6-8.12-1.12q-5.03-1.02-10.07-1.96-.44-.08-4.07-1.15-2.02-.59-4.17-.47a1.88 1.84 55.9 0 1-.88-.18q-1.86-.89-3.96-1.18-1-.13-.13.38l1.62.98a1.57.12 50.2 0 1 .86.89q.19.21.59.12.47-.11.86.2c1.19.94 1.85 1.81 3.4 2.29q3.09.96 4.86 3.53-5.79-2.59-8.07-3.94-2.19-1.31-7.92-5.51-1.06-1.41-2.32-2.64c-4.1-3.99-7.77-8.59-11.66-12.81q-1.1-1.2-2.23-3.85-.03-.75-.63-1.58-.22-.29.13-.19l2.7.82q.43.14.77.45 2.71 2.62 5.46 5.17c.54.5 1.02.49 1.52.98q3 2.96 6.44 5.36c1.16.81 2.01 2.24 3.59 2.89q.46.19.83.53.88.83 2.07 1.23.47.16.82.52 2.9 2.87 6.1 2.19Z" fill="#48804d"/><path d="M189.98 144.23q-.23 1.17.29 2.23.2.41.14.87l-.5 3.52a.34.33 4.7 0 1-.35.29q-.15-.01-.31-.01-.17 0-.24.16-2.18 5.64-5.65 10.58-1.05 1.5-6.11 5.96c.73-1.39 2.54-2.67 2.38-4.2q-.05-.49-.54-.44-.99.08-1.79-.51-.2-.16-.07-.4.11-.19-.05-.33-1.18-1.09.04-2.57l7.32-6.38q3.24-3.46 5.44-8.77Z" fill="#519c51"/><path d="m112.88 151.76 5.89 6.32q.23.25.31.58l.17.67q.02.07.08.13 3.93 4.15 7.64 6.22 1.35.75 1.96 1.27.38.32.84.5 2.94 1.17 4.05 3.29-12.41-6.72-22.11-17.21 1.36.48 1.17-1.77Z" fill="#e0f202"/><path d="M194.5 164.67q-1.72 1.86-3.58 3.96c-5.43 6.11-13.29 10.28-21.13 12.18q-3.7.9-8.87.68c-8.54-.35-14.05-1.24-22.02-4.89q1.24.14 2.35.25.34.03.57-.17.31-.26-.05-.47-.42-.24-.64-.66-.14-.29.14-.44l.47-.26q.44-.24.09-.6-.31-.31-.26-.78l9.62 1.94q8.65 1.56 17.53 1.49c1.63-.01 3.23-.73 5-1.05q8.7-1.55 15.22-7.6l6.28-6.72q1.17-.97 1.82-2.36.04-.1.08-.01.01.03.02.05.01.03-.02.08l-2.62 5.38Z" fill="#71ed55"/><path d="M172.7 171.11q-.7.45-.79.94l-8.15 2.76-5 .1q-6.99-.19-12.69-3.25-1.77-2.57-4.86-3.53c-1.55-.48-2.21-1.35-3.4-2.29q-.39-.31-.86-.2-.4.09-.59-.12a1.57.12 50.2 0 0-.86-.89l-1.62-.98q-.87-.51.13-.38 2.1.29 3.96 1.18a1.88 1.84 55.9 0 0 .88.18q2.15-.12 4.17.47 3.63 1.07 4.07 1.15 5.04.94 10.07 1.96c2.58.52 5.41.68 8.12 1.12q.11.02.19-.05.17-.14.32-.34.15-.19.39-.2l8.02-.24q1.03-.03.32.71l-1.82 1.9Z" fill="#416b49"/><path d="M188.94 168.25q-6.52 6.05-15.22 7.6c-1.77.32-3.37 1.04-5 1.05q-8.88.07-17.53-1.49l7.84.89a.45.45 0 0 0 .39-.17q.13-.16.33-.2a.21.12 21 0 0-.22-.27q-.84.07-.77-.75l5-.1q-.68.3-.96.66a.45.45 0 0 0 .25.71c2.17.51 4.01-.23 6.11-.32 6.78-.27 13.83-4.61 19.78-7.61Z" fill="#e0f202"/></svg>