<svg viewBox="0.00 0.00 180.00 180.00" version="1.1" xmlns="http://www.w3.org/2000/svg">
<g stroke-linecap="butt" fill="none" stroke-width="2.00">
<path d="M 164.71 90.10
  A 74.74 74.74 0.0 0 0 89.97 15.36
  A 74.74 74.74 0.0 0 0 15.23 90.10
  A 74.74 74.74 0.0 0 0 89.97 164.84
  A 74.74 74.74 0.0 0 0 164.71 90.10" stroke="#ffdf92"></path>
<path d="M 149.72 90.10
  A 59.75 59.75 0.0 0 0 89.97 30.35
  A 59.75 59.75 0.0 0 0 30.22 90.10
  A 59.75 59.75 0.0 0 0 89.97 149.85
  A 59.75 59.75 0.0 0 0 149.72 90.10" stroke="#ffdf92"></path>
<path d="M 92.15 60.84
  C 101.64 61.31 108.92 66.31 114.13 73.43
  Q 114.69 74.19 115.01 73.30
  Q 118.41 63.83 125.30 56.50
  A 0.48 0.47 44.6 0 0 125.29 55.84
  Q 116.64 47.20 105.47 43.43
  Q 96.03 40.24 85.76 41.15
  Q 65.76 42.93 52.06 59.11
  C 37.15 76.72 37.38 101.50 50.74 119.75
  Q 60.14 132.59 75.46 137.12
  Q 85.26 140.02 95.24 138.93
  Q 111.99 137.11 125.00 124.73
  A 0.88 0.88 0.0 0 0 125.03 123.48
  Q 118.19 116.22 114.99 106.77
  A 0.49 0.48 -36.7 0 0 114.13 106.65
  C 105.91 118.37 90.35 123.27 77.24 116.65
  Q 63.64 109.77 60.72 94.08
  Q 60.71 94.02 60.65 93.98
  Q 60.63 93.97 60.60 93.95
  Q 60.47 93.88 60.45 93.76
  C 60.03 91.30 59.68 87.60 60.76 85.27
  C 61.34 84.02 61.37 82.38 61.76 81.32
  Q 65.45 71.32 74.31 65.21
  Q 78.49 62.32 81.75 61.59
  Q 86.32 60.56 92.15 60.84" stroke="#808080"></path>
<path d="M 108.62 90.10
  A 18.65 18.65 0.0 0 0 89.97 71.45
  A 18.65 18.65 0.0 0 0 71.32 90.10
  A 18.65 18.65 0.0 0 0 89.97 108.75
  A 18.65 18.65 0.0 0 0 108.62 90.10" stroke="#ffdf92"></path>
<path d="M 98.82 90.16
  A 8.82 8.82 0.0 0 0 90.00 81.34
  A 8.82 8.82 0.0 0 0 81.18 90.16
  A 8.82 8.82 0.0 0 0 90.00 98.98
  A 8.82 8.82 0.0 0 0 98.82 90.16" stroke="#ffdf92"></path>
</g>
<path d="M 88.15 0.00
  L 91.97 0.00
  C 140.13 2.07 177.02 38.31 180.00 86.39
  L 180.00 93.72
  C 177.23 140.32 142.34 176.03 95.85 180.00
  L 83.79 180.00
  C 37.86 175.78 3.25 140.93 0.00 94.84
  L 0.00 85.26
  C 3.56 37.61 40.36 1.94 88.15 0.00
  Z
  M 164.71 90.10
  A 74.74 74.74 0.0 0 0 89.97 15.36
  A 74.74 74.74 0.0 0 0 15.23 90.10
  A 74.74 74.74 0.0 0 0 89.97 164.84
  A 74.74 74.74 0.0 0 0 164.71 90.10
  Z" fill="#ffffff"></path>
<path d="M 164.71 90.10
  A 74.74 74.74 0.0 0 1 89.97 164.84
  A 74.74 74.74 0.0 0 1 15.23 90.10
  A 74.74 74.74 0.0 0 1 89.97 15.36
  A 74.74 74.74 0.0 0 1 164.71 90.10
  Z
  M 149.72 90.10
  A 59.75 59.75 0.0 0 0 89.97 30.35
  A 59.75 59.75 0.0 0 0 30.22 90.10
  A 59.75 59.75 0.0 0 0 89.97 149.85
  A 59.75 59.75 0.0 0 0 149.72 90.10
  Z" fill="#febe25"></path>
<path d="M 149.72 90.10
  A 59.75 59.75 0.0 0 1 89.97 149.85
  A 59.75 59.75 0.0 0 1 30.22 90.10
  A 59.75 59.75 0.0 0 1 89.97 30.35
  A 59.75 59.75 0.0 0 1 149.72 90.10
  Z
  M 92.15 60.84
  C 101.64 61.31 108.92 66.31 114.13 73.43
  Q 114.69 74.19 115.01 73.30
  Q 118.41 63.83 125.30 56.50
  A 0.48 0.47 44.6 0 0 125.29 55.84
  Q 116.64 47.20 105.47 43.43
  Q 96.03 40.24 85.76 41.15
  Q 65.76 42.93 52.06 59.11
  C 37.15 76.72 37.38 101.50 50.74 119.75
  Q 60.14 132.59 75.46 137.12
  Q 85.26 140.02 95.24 138.93
  Q 111.99 137.11 125.00 124.73
  A 0.88 0.88 0.0 0 0 125.03 123.48
  Q 118.19 116.22 114.99 106.77
  A 0.49 0.48 -36.7 0 0 114.13 106.65
  C 105.91 118.37 90.35 123.27 77.24 116.65
  Q 63.64 109.77 60.72 94.08
  Q 60.71 94.02 60.65 93.98
  Q 60.63 93.97 60.60 93.95
  Q 60.47 93.88 60.45 93.76
  C 60.03 91.30 59.68 87.60 60.76 85.27
  C 61.34 84.02 61.37 82.38 61.76 81.32
  Q 65.45 71.32 74.31 65.21
  Q 78.49 62.32 81.75 61.59
  Q 86.32 60.56 92.15 60.84
  Z
  M 108.62 90.10
  A 18.65 18.65 0.0 0 0 89.97 71.45
  A 18.65 18.65 0.0 0 0 71.32 90.10
  A 18.65 18.65 0.0 0 0 89.97 108.75
  A 18.65 18.65 0.0 0 0 108.62 90.10
  Z" fill="#ffffff"></path>
<path d="M 114.13 73.43
  C 108.92 66.31 101.64 61.31 92.15 60.84
  Q 86.32 60.56 81.75 61.59
  Q 78.49 62.32 74.31 65.21
  Q 65.45 71.32 61.76 81.32
  C 61.37 82.38 61.34 84.02 60.76 85.27
  C 59.68 87.60 60.03 91.30 60.45 93.76
  Q 60.47 93.88 60.60 93.95
  Q 60.63 93.97 60.65 93.98
  Q 60.71 94.02 60.72 94.08
  Q 63.64 109.77 77.24 116.65
  C 90.35 123.27 105.91 118.37 114.13 106.65
  A 0.49 0.48 -36.7 0 1 114.99 106.77
  Q 118.19 116.22 125.03 123.48
  A 0.88 0.88 0.0 0 1 125.00 124.73
  Q 111.99 137.11 95.24 138.93
  Q 85.26 140.02 75.46 137.12
  Q 60.14 132.59 50.74 119.75
  C 37.38 101.50 37.15 76.72 52.06 59.11
  Q 65.76 42.93 85.76 41.15
  Q 96.03 40.24 105.47 43.43
  Q 116.64 47.20 125.29 55.84
  A 0.48 0.47 44.6 0 1 125.30 56.50
  Q 118.41 63.83 115.01 73.30
  Q 114.69 74.19 114.13 73.43
  Z" fill="#000000"></path>
<path d="M 108.62 90.10
  A 18.65 18.65 0.0 0 1 89.97 108.75
  A 18.65 18.65 0.0 0 1 71.32 90.10
  A 18.65 18.65 0.0 0 1 89.97 71.45
  A 18.65 18.65 0.0 0 1 108.62 90.10
  Z
  M 98.82 90.16
  A 8.82 8.82 0.0 0 0 90.00 81.34
  A 8.82 8.82 0.0 0 0 81.18 90.16
  A 8.82 8.82 0.0 0 0 90.00 98.98
  A 8.82 8.82 0.0 0 0 98.82 90.16
  Z" fill="#febe25"></path>
<circle r="8.82" cy="90.16" cx="90.00" fill="#ffffff"></circle>
</svg>
