<svg viewBox="0.00 0.00 336.00 352.00" version="1.1" xmlns="http://www.w3.org/2000/svg">
<g stroke-linecap="butt" fill="none" stroke-width="2.00">
<path d="M 312.02 168.00
  A 144.02 144.02 0.0 0 0 168.00 23.98
  A 144.02 144.02 0.0 0 0 23.98 168.00
  A 144.02 144.02 0.0 0 0 168.00 312.02
  A 144.02 144.02 0.0 0 0 312.02 168.00" stroke="#827138"></path>
<path d="M 56.94 182.99
  C 45.91 94.36 128.53 33.18 210.99 63.79
  A 0.55 0.54 -68.7 0 0 211.69 63.48
  L 215.72 53.75
  A 0.29 0.28 22.5 0 0 215.56 53.38
  C 126.08 16.97 32.99 90.04 45.12 184.98
  A 0.52 0.52 0.0 0 0 45.71 185.43
  L 56.30 183.84
  A 0.77 0.76 82.3 0 0 56.94 182.99" stroke="#fce263"></path>
<path d="M 209.37 128.84
  Q 209.37 128.97 209.37 129.10
  Q 209.37 129.13 209.35 129.12
  Q 209.34 129.12 209.33 129.12
  Q 209.29 129.12 209.30 129.08
  C 209.84 114.99 220.99 104.86 234.19 102.92
  Q 236.10 102.64 234.19 102.43
  Q 211.71 99.93 209.26 77.49
  A 0.17 0.17 0.0 0 0 208.92 77.49
  Q 206.63 99.67 184.51 102.40
  Q 182.18 102.69 184.50 103.03
  C 196.95 104.90 207.48 114.37 208.86 127.62
  Q 208.90 127.98 209.32 128.67
  Q 209.37 128.75 209.37 128.84" stroke="#827138"></path>
<path d="M 292.10 141.17
  C 275.02 139.50 263.37 129.19 262.46 111.41
  Q 262.45 111.18 262.23 111.18
  L 262.22 111.18
  Q 261.99 111.17 261.98 111.40
  Q 261.64 117.37 259.35 122.91
  C 254.25 135.24 244.72 139.62 232.05 141.24
  A 0.14 0.14 0.0 0 0 232.05 141.52
  C 247.55 143.57 260.70 154.70 261.94 170.84
  A 0.22 0.22 0.0 0 0 262.37 170.85
  Q 265.12 149.98 285.36 143.14
  Q 289.36 141.78 292.09 141.65
  Q 292.31 141.64 292.31 141.42
  L 292.31 141.41
  Q 292.32 141.20 292.10 141.17" stroke="#827138"></path>
<path d="M 239.60 179.87
  C 216.53 179.08 200.67 164.01 199.72 140.86
  Q 199.72 140.69 199.54 140.69
  L 199.54 140.69
  Q 199.37 140.68 199.35 140.86
  C 197.50 163.76 183.30 179.19 159.62 179.59
  Q 159.43 179.60 159.42 179.78
  L 159.42 179.79
  Q 159.41 179.98 159.60 180.00
  C 180.04 182.40 197.40 196.83 199.03 217.80
  A 0.40 0.40 0.0 0 0 199.82 217.81
  C 201.79 196.49 218.98 182.36 239.60 179.89
  A 0.01 0.01 0.0 0 0 239.60 179.87" stroke="#827138"></path>
<path d="M 56.45 222.34
  C 66.66 243.23 82.55 260.72 102.16 273.07
  Q 102.62 273.36 102.89 272.89
  L 107.91 264.25
  A 0.48 0.48 0.0 0 0 107.75 263.60
  Q 80.29 246.62 66.60 217.34
  A 0.60 0.59 64.1 0 0 65.80 217.06
  L 56.75 221.46
  Q 56.16 221.75 56.45 222.34" stroke="#fce263"></path>
</g>
<path d="M 160.63 0.00
  L 175.29 0.00
  Q 179.89 0.48 184.48 0.92
  C 264.10 8.61 327.03 71.50 335.01 151.02
  Q 335.49 155.82 336.00 160.63
  L 336.00 175.31
  Q 332.17 238.79 289.67 283.79
  C 273.62 300.79 254.10 314.08 232.50 323.19
  A 0.86 0.85 78.6 0 0 231.98 323.98
  L 231.88 352.00
  L 103.98 352.00
  L 103.96 323.89
  Q 103.96 323.36 103.47 323.16
  C 42.89 297.36 3.36 241.05 0.00 175.16
  L 0.00 160.75
  C 4.51 76.23 68.33 8.99 152.01 0.92
  Q 156.33 0.50 160.63 0.00
  Z
  M 312.02 168.00
  A 144.02 144.02 0.0 0 0 168.00 23.98
  A 144.02 144.02 0.0 0 0 23.98 168.00
  A 144.02 144.02 0.0 0 0 168.00 312.02
  A 144.02 144.02 0.0 0 0 312.02 168.00
  Z" fill="#080735"></path>
<path d="M 312.02 168.00
  A 144.02 144.02 0.0 0 1 168.00 312.02
  A 144.02 144.02 0.0 0 1 23.98 168.00
  A 144.02 144.02 0.0 0 1 168.00 23.98
  A 144.02 144.02 0.0 0 1 312.02 168.00
  Z
  M 56.94 182.99
  C 45.91 94.36 128.53 33.18 210.99 63.79
  A 0.55 0.54 -68.7 0 0 211.69 63.48
  L 215.72 53.75
  A 0.29 0.28 22.5 0 0 215.56 53.38
  C 126.08 16.97 32.99 90.04 45.12 184.98
  A 0.52 0.52 0.0 0 0 45.71 185.43
  L 56.30 183.84
  A 0.77 0.76 82.3 0 0 56.94 182.99
  Z
  M 209.37 128.84
  Q 209.37 128.97 209.37 129.10
  Q 209.37 129.13 209.35 129.12
  Q 209.34 129.12 209.33 129.12
  Q 209.29 129.12 209.30 129.08
  C 209.84 114.99 220.99 104.86 234.19 102.92
  Q 236.10 102.64 234.19 102.43
  Q 211.71 99.93 209.26 77.49
  A 0.17 0.17 0.0 0 0 208.92 77.49
  Q 206.63 99.67 184.51 102.40
  Q 182.18 102.69 184.50 103.03
  C 196.95 104.90 207.48 114.37 208.86 127.62
  Q 208.90 127.98 209.32 128.67
  Q 209.37 128.75 209.37 128.84
  Z
  M 292.10 141.17
  C 275.02 139.50 263.37 129.19 262.46 111.41
  Q 262.45 111.18 262.23 111.18
  L 262.22 111.18
  Q 261.99 111.17 261.98 111.40
  Q 261.64 117.37 259.35 122.91
  C 254.25 135.24 244.72 139.62 232.05 141.24
  A 0.14 0.14 0.0 0 0 232.05 141.52
  C 247.55 143.57 260.70 154.70 261.94 170.84
  A 0.22 0.22 0.0 0 0 262.37 170.85
  Q 265.12 149.98 285.36 143.14
  Q 289.36 141.78 292.09 141.65
  Q 292.31 141.64 292.31 141.42
  L 292.31 141.41
  Q 292.32 141.20 292.10 141.17
  Z
  M 239.60 179.87
  C 216.53 179.08 200.67 164.01 199.72 140.86
  Q 199.72 140.69 199.54 140.69
  L 199.54 140.69
  Q 199.37 140.68 199.35 140.86
  C 197.50 163.76 183.30 179.19 159.62 179.59
  Q 159.43 179.60 159.42 179.78
  L 159.42 179.79
  Q 159.41 179.98 159.60 180.00
  C 180.04 182.40 197.40 196.83 199.03 217.80
  A 0.40 0.40 0.0 0 0 199.82 217.81
  C 201.79 196.49 218.98 182.36 239.60 179.89
  A 0.01 0.01 0.0 0 0 239.60 179.87
  Z
  M 56.45 222.34
  C 66.66 243.23 82.55 260.72 102.16 273.07
  Q 102.62 273.36 102.89 272.89
  L 107.91 264.25
  A 0.48 0.48 0.0 0 0 107.75 263.60
  Q 80.29 246.62 66.60 217.34
  A 0.60 0.59 64.1 0 0 65.80 217.06
  L 56.75 221.46
  Q 56.16 221.75 56.45 222.34
  Z" fill="#fbda3b"></path>
<path d="M 210.99 63.79
  C 128.53 33.18 45.91 94.36 56.94 182.99
  A 0.77 0.76 82.3 0 1 56.30 183.84
  L 45.71 185.43
  A 0.52 0.52 0.0 0 1 45.12 184.98
  C 32.99 90.04 126.08 16.97 215.56 53.38
  A 0.29 0.28 22.5 0 1 215.72 53.75
  L 211.69 63.48
  A 0.55 0.54 -68.7 0 1 210.99 63.79
  Z" fill="#fde98a"></path>
<path d="M 209.32 128.67
  Q 208.90 127.98 208.86 127.62
  C 207.48 114.37 196.95 104.90 184.50 103.03
  Q 182.18 102.69 184.51 102.40
  Q 206.63 99.67 208.92 77.49
  A 0.17 0.17 0.0 0 1 209.26 77.49
  Q 211.71 99.93 234.19 102.43
  Q 236.10 102.64 234.19 102.92
  C 220.99 104.86 209.84 114.99 209.30 129.08
  Q 209.29 129.12 209.33 129.12
  Q 209.34 129.12 209.35 129.12
  Q 209.37 129.13 209.37 129.10
  Q 209.37 128.97 209.37 128.84
  Q 209.37 128.75 209.32 128.67
  Z" fill="#080735"></path>
<path d="M 262.46 111.41
  C 263.37 129.19 275.02 139.50 292.10 141.17
  Q 292.32 141.20 292.31 141.41
  L 292.31 141.42
  Q 292.31 141.64 292.09 141.65
  Q 289.36 141.78 285.36 143.14
  Q 265.12 149.98 262.37 170.85
  A 0.22 0.22 0.0 0 1 261.94 170.84
  C 260.70 154.70 247.55 143.57 232.05 141.52
  A 0.14 0.14 0.0 0 1 232.05 141.24
  C 244.72 139.62 254.25 135.24 259.35 122.91
  Q 261.64 117.37 261.98 111.40
  Q 261.99 111.17 262.22 111.18
  L 262.23 111.18
  Q 262.45 111.18 262.46 111.41
  Z" fill="#080735"></path>
<path d="M 199.72 140.86
  C 200.67 164.01 216.53 179.08 239.60 179.87
  A 0.01 0.01 0.0 0 1 239.60 179.89
  C 218.98 182.36 201.79 196.49 199.82 217.81
  A 0.40 0.40 0.0 0 1 199.03 217.80
  C 197.40 196.83 180.04 182.40 159.60 180.00
  Q 159.41 179.98 159.42 179.79
  L 159.42 179.78
  Q 159.43 179.60 159.62 179.59
  C 183.30 179.19 197.50 163.76 199.35 140.86
  Q 199.37 140.68 199.54 140.69
  L 199.54 140.69
  Q 199.72 140.69 199.72 140.86
  Z" fill="#080735"></path>
<path d="M 102.16 273.07
  C 82.55 260.72 66.66 243.23 56.45 222.34
  Q 56.16 221.75 56.75 221.46
  L 65.80 217.06
  A 0.60 0.59 64.1 0 1 66.60 217.34
  Q 80.29 246.62 107.75 263.60
  A 0.48 0.48 0.0 0 1 107.91 264.25
  L 102.89 272.89
  Q 102.62 273.36 102.16 273.07
  Z" fill="#fde98a"></path>
</svg>
