<svg viewBox="0.00 0.00 128.00 128.00" version="1.1" xmlns="http://www.w3.org/2000/svg">
<g stroke-linecap="butt" fill="none" stroke-width="2.00">
<path d="M 79.14 8.95
  Q 79.13 9.09 79.11 9.20
  Q 79.07 9.48 78.82 9.63
  L 46.87 28.08" stroke="#a242b7"></path>
<path d="M 46.87 28.08
  L 32.97 36.07" stroke="#a437c0"></path>
<path d="M 32.97 36.07
  Q 32.60 35.69 32.68 34.99
  Q 32.74 34.48 32.26 34.30
  Q 31.73 34.09 31.92 33.47
  A 0.52 0.52 0.0 0 0 31.21 32.84
  Q 30.40 33.21 29.90 32.49
  Q 29.55 31.99 28.95 32.11
  Q 28.20 32.27 27.85 31.72
  Q 27.59 31.32 27.14 31.21
  Q 25.42 30.76 24.12 29.43
  Q 23.85 29.15 23.46 29.10
  Q 23.23 29.07 23.09 29.14
  Q 22.25 29.54 21.68 28.80
  Q 19.96 26.55 17.86 26.66" stroke="#6d0bfb"></path>
<path d="M 59.25 39.22
  Q 60.21 37.77 59.60 36.75
  Q 59.40 36.42 59.16 36.72
  Q 58.96 36.96 59.16 37.48
  Q 59.23 37.66 59.04 37.70
  Q 58.85 37.75 58.67 37.80
  Q 58.19 37.93 58.20 37.44
  Q 58.20 36.31 57.81 35.25
  Q 57.65 34.80 57.35 35.18
  Q 56.98 35.67 56.39 34.91
  A 5.48 4.37 44.3 0 1 55.97 34.27
  Q 55.52 33.48 54.56 32.96
  Q 54.20 32.76 54.00 32.41
  Q 53.71 31.91 53.07 32.09
  Q 52.54 32.24 52.20 31.82
  L 49.81 28.97
  Q 49.48 28.57 48.99 28.75
  Q 47.21 29.39 46.87 28.08" stroke="#fe6e7a"></path>
<path d="M 119.31 32.09
  L 105.63 39.92" stroke="#771be9"></path>
<path d="M 105.63 39.92
  L 88.38 50.04" stroke="#ac1be6"></path>
<path d="M 88.38 50.04
  Q 87.46 48.50 88.79 47.89
  A 0.20 0.19 -27.2 0 0 88.88 47.62
  Q 88.73 47.37 88.50 47.35
  A 0.71 0.45 17.1 0 0 87.99 47.49
  L 87.74 47.73
  A 0.43 0.43 0.0 0 1 87.02 47.53
  C 86.58 45.66 84.99 45.17 84.84 43.17
  A 2.09 2.08 14.7 0 0 83.89 41.56
  Q 82.54 40.69 81.93 39.32
  C 81.35 38.03 80.81 37.45 79.96 36.51" stroke="#771be9"></path>
<path d="M 32.97 36.07
  L 24.79 40.89
  Q 24.32 41.16 24.31 41.71
  L 24.28 44.22" stroke="#c937be"></path>
<path d="M 24.28 44.22
  L 24.39 77.46" stroke="#b42ccd"></path>
<path d="M 24.39 77.46
  Q 23.84 77.02 23.00 77.41
  Q 22.36 77.71 22.38 77.01
  Q 22.39 76.67 22.15 76.41
  Q 21.78 76.01 21.31 76.29
  Q 20.08 77.02 19.09 75.51
  Q 18.85 75.14 18.88 74.71
  Q 18.91 74.24 18.49 74.12
  A 0.31 0.30 89.4 0 0 18.12 74.50
  Q 18.31 75.19 17.88 75.63
  Q 17.37 76.15 17.36 75.42
  L 17.36 74.88
  Q 17.36 74.42 17.03 74.10
  Q 16.02 73.12 14.95 72.21
  Q 14.68 71.97 14.43 71.95
  Q 14.11 71.93 13.85 72.13
  Q 13.49 72.42 13.13 72.12
  L 11.62 70.88
  A 1.13 1.12 -29.2 0 0 10.75 70.64
  Q 9.45 70.83 8.53 69.94" stroke="#b10cf6"></path>
<path d="M 40.14 55.49
  Q 38.21 55.14 37.11 53.70
  Q 36.85 53.36 37.06 52.98
  Q 37.22 52.69 37.11 52.44
  Q 37.00 52.17 36.50 52.02
  Q 33.61 51.16 31.48 48.90
  Q 31.11 48.51 31.00 48.00
  Q 30.85 47.36 30.22 47.36
  Q 29.64 47.36 29.16 47.03
  Q 28.15 46.34 27.50 45.38
  Q 26.77 44.33 25.61 45.08
  A 0.75 0.75 0.0 0 1 24.50 44.74
  L 24.28 44.22" stroke="#eb5893"></path>
<path d="M 119.26 43.07
  Q 117.34 44.30 115.80 43.01
  Q 115.43 42.70 114.96 42.57
  L 105.63 39.92" stroke="#7d0bfa"></path>
<path d="M 88.38 50.04
  L 63.83 64.19" stroke="#7d0bfa"></path>
<path d="M 63.83 64.19
  L 48.44 54.67" stroke="#a153a8"></path>
<path d="M 119.26 68.37
  Q 116.75 69.52 114.73 67.46
  Q 114.36 67.08 113.84 67.17
  Q 113.29 67.26 112.89 66.93
  Q 112.56 66.67 112.16 66.83
  Q 111.40 67.16 110.96 66.67
  Q 110.66 66.33 110.22 66.23
  Q 106.78 65.43 103.54 65.79" stroke="#c00cf5"></path>
<path d="M 103.54 65.79
  L 103.56 60.15
  A 0.43 0.43 0.0 0 0 102.92 59.78
  L 87.71 68.50" stroke="#d653a4"></path>
<path d="M 78.02 74.08
  Q 77.16 73.90 76.91 73.30
  Q 76.81 73.04 76.53 73.12
  Q 76.20 73.21 76.14 73.43
  Q 76.00 73.86 75.55 73.88
  Q 75.36 73.88 75.16 73.87
  Q 74.97 73.85 75.08 73.69
  Q 75.15 73.59 75.26 73.50
  A 0.47 0.39 12.1 0 0 74.74 72.84
  Q 73.63 73.16 72.93 72.46
  Q 72.59 72.12 72.20 72.39
  L 70.60 73.50
  Q 70.19 73.79 70.35 73.32
  Q 70.47 72.99 70.85 72.66
  Q 71.29 72.28 70.71 72.19
  Q 69.55 72.02 68.72 71.27
  A 0.58 0.57 -52.5 0 0 67.85 71.39
  Q 67.43 72.06 66.62 71.87
  A 2.60 0.40 13.5 0 1 64.30 70.92
  L 63.95 65.19" stroke="#cd17e8"></path>
<path d="M 63.95 65.19
  Q 63.82 64.82 63.83 64.19" stroke="#d653a4"></path>
<path d="M 40.16 77.72
  L 24.32 86.74" stroke="#e8747a"></path>
<path d="M 24.32 86.74
  L 24.39 77.46" stroke="#d32ccb"></path>
<path d="M 63.95 65.19
  L 64.11 82.21" stroke="#f15f96"></path>
<path d="M 103.54 65.79
  L 103.51 82.28" stroke="#e554a3"></path>
<path d="M 103.51 82.28
  L 103.59 86.14
  Q 103.61 86.68 103.13 86.96
  L 83.38 98.54" stroke="#f4747f"></path>
<path d="M 83.38 98.54
  C 77.84 101.51 72.57 104.98 66.98 107.98
  Q 65.39 108.84 63.95 110.27" stroke="#f89060"></path>
<path d="M 63.95 110.27
  Q 63.59 109.52 63.36 109.38
  Q 43.92 98.20 24.32 86.74" stroke="#e554a3"></path>
<path d="M 119.27 84.28
  Q 118.56 84.04 117.69 84.45
  A 0.39 0.39 0.0 0 1 117.13 84.10
  Q 117.13 83.91 117.12 83.72
  Q 117.10 83.36 116.74 83.36
  Q 114.60 83.37 112.75 82.41
  Q 112.53 82.29 112.31 82.43
  L 112.06 82.59
  Q 111.55 82.92 111.09 82.54
  Q 109.26 81.04 107.25 82.10
  Q 106.78 82.34 106.60 81.85
  Q 106.40 81.30 105.89 81.36
  Q 105.64 81.38 105.38 81.39
  Q 104.90 81.41 104.82 81.84
  Q 104.73 82.31 104.26 82.37
  Q 103.89 82.41 103.51 82.28" stroke="#de2cd0"></path>
<path d="M 63.95 110.27
  L 63.93 128.00" stroke="#e348b1"></path>
<path d="M 105.45 103.95
  L 98.33 102.73
  Q 98.06 102.68 97.94 102.43
  L 97.76 102.04
  A 0.33 0.33 0.0 0 0 97.13 102.19
  Q 97.13 102.34 97.12 102.50
  Q 97.10 102.97 96.69 102.75
  Q 95.13 101.95 93.73 100.91
  Q 93.39 100.66 93.10 100.85
  Q 92.85 101.02 92.55 101.01
  Q 89.21 100.92 86.50 98.96
  A 0.39 0.39 0.0 0 0 85.88 99.28
  L 85.88 100.25
  Q 85.88 100.38 85.75 100.38
  L 85.36 100.38
  A 0.18 0.18 0.0 0 1 85.18 100.17
  Q 85.37 99.03 83.38 98.54" stroke="#f2688d"></path>
</g>
<path d="M 63.60 0.00
  L 64.08 0.00
  L 79.14 8.95
  Q 79.13 9.09 79.11 9.20
  Q 79.07 9.48 78.82 9.63
  L 46.87 28.08
  L 32.97 36.07
  Q 32.60 35.69 32.68 34.99
  Q 32.74 34.48 32.26 34.30
  Q 31.73 34.09 31.92 33.47
  A 0.52 0.52 0.0 0 0 31.21 32.84
  Q 30.40 33.21 29.90 32.49
  Q 29.55 31.99 28.95 32.11
  Q 28.20 32.27 27.85 31.72
  Q 27.59 31.32 27.14 31.21
  Q 25.42 30.76 24.12 29.43
  Q 23.85 29.15 23.46 29.10
  Q 23.23 29.07 23.09 29.14
  Q 22.25 29.54 21.68 28.80
  Q 19.96 26.55 17.86 26.66
  L 63.60 0.00
  Z" fill="#480bfd"></path>
<path d="M 79.14 8.95
  Q 79.44 9.08 79.61 9.26
  Q 79.76 9.43 79.76 9.78
  Q 79.81 18.33 79.74 26.88
  Q 79.74 27.39 79.30 27.65
  L 59.25 39.22
  Q 60.21 37.77 59.60 36.75
  Q 59.40 36.42 59.16 36.72
  Q 58.96 36.96 59.16 37.48
  Q 59.23 37.66 59.04 37.70
  Q 58.85 37.75 58.67 37.80
  Q 58.19 37.93 58.20 37.44
  Q 58.20 36.31 57.81 35.25
  Q 57.65 34.80 57.35 35.18
  Q 56.98 35.67 56.39 34.91
  A 5.48 4.37 44.3 0 1 55.97 34.27
  Q 55.52 33.48 54.56 32.96
  Q 54.20 32.76 54.00 32.41
  Q 53.71 31.91 53.07 32.09
  Q 52.54 32.24 52.20 31.82
  L 49.81 28.97
  Q 49.48 28.57 48.99 28.75
  Q 47.21 29.39 46.87 28.08
  L 78.82 9.63
  Q 79.07 9.48 79.11 9.20
  Q 79.13 9.09 79.14 8.95
  Z" fill="#fc7871"></path>
<path d="M 119.31 32.09
  L 105.63 39.92
  L 88.38 50.04
  Q 87.46 48.50 88.79 47.89
  A 0.20 0.19 -27.2 0 0 88.88 47.62
  Q 88.73 47.37 88.50 47.35
  A 0.71 0.45 17.1 0 0 87.99 47.49
  L 87.74 47.73
  A 0.43 0.43 0.0 0 1 87.02 47.53
  C 86.58 45.66 84.99 45.17 84.84 43.17
  A 2.09 2.08 14.7 0 0 83.89 41.56
  Q 82.54 40.69 81.93 39.32
  C 81.35 38.03 80.81 37.45 79.96 36.51
  L 103.21 23.04
  A 0.61 0.60 45.5 0 1 103.83 23.05
  L 119.31 32.09
  Z" fill="#a62ad5"></path>
<path d="M 17.86 26.66
  Q 19.96 26.55 21.68 28.80
  Q 22.25 29.54 23.09 29.14
  Q 23.23 29.07 23.46 29.10
  Q 23.85 29.15 24.12 29.43
  Q 25.42 30.76 27.14 31.21
  Q 27.59 31.32 27.85 31.72
  Q 28.20 32.27 28.95 32.11
  Q 29.55 31.99 29.90 32.49
  Q 30.40 33.21 31.21 32.84
  A 0.52 0.52 0.0 0 1 31.92 33.47
  Q 31.73 34.09 32.26 34.30
  Q 32.74 34.48 32.68 34.99
  Q 32.60 35.69 32.97 36.07
  L 24.79 40.89
  Q 24.32 41.16 24.31 41.71
  L 24.28 44.22
  L 24.39 77.46
  Q 23.84 77.02 23.00 77.41
  Q 22.36 77.71 22.38 77.01
  Q 22.39 76.67 22.15 76.41
  Q 21.78 76.01 21.31 76.29
  Q 20.08 77.02 19.09 75.51
  Q 18.85 75.14 18.88 74.71
  Q 18.91 74.24 18.49 74.12
  A 0.31 0.30 89.4 0 0 18.12 74.50
  Q 18.31 75.19 17.88 75.63
  Q 17.37 76.15 17.36 75.42
  L 17.36 74.88
  Q 17.36 74.42 17.03 74.10
  Q 16.02 73.12 14.95 72.21
  Q 14.68 71.97 14.43 71.95
  Q 14.11 71.93 13.85 72.13
  Q 13.49 72.42 13.13 72.12
  L 11.62 70.88
  A 1.13 1.12 -29.2 0 0 10.75 70.64
  Q 9.45 70.83 8.53 69.94
  L 8.53 32.73
  Q 8.53 32.19 8.99 31.92
  L 17.86 26.66
  Z" fill="#920bf8"></path>
<path d="M 46.87 28.08
  Q 47.21 29.39 48.99 28.75
  Q 49.48 28.57 49.81 28.97
  L 52.20 31.82
  Q 52.54 32.24 53.07 32.09
  Q 53.71 31.91 54.00 32.41
  Q 54.20 32.76 54.56 32.96
  Q 55.52 33.48 55.97 34.27
  A 5.48 4.37 44.3 0 0 56.39 34.91
  Q 56.98 35.67 57.35 35.18
  Q 57.65 34.80 57.81 35.25
  Q 58.20 36.31 58.20 37.44
  Q 58.19 37.93 58.67 37.80
  Q 58.85 37.75 59.04 37.70
  Q 59.23 37.66 59.16 37.48
  Q 58.96 36.96 59.16 36.72
  Q 59.40 36.42 59.60 36.75
  Q 60.21 37.77 59.25 39.22
  L 40.56 50.07
  Q 40.11 50.34 40.11 50.86
  L 40.14 55.49
  Q 38.21 55.14 37.11 53.70
  Q 36.85 53.36 37.06 52.98
  Q 37.22 52.69 37.11 52.44
  Q 37.00 52.17 36.50 52.02
  Q 33.61 51.16 31.48 48.90
  Q 31.11 48.51 31.00 48.00
  Q 30.85 47.36 30.22 47.36
  Q 29.64 47.36 29.16 47.03
  Q 28.15 46.34 27.50 45.38
  Q 26.77 44.33 25.61 45.08
  A 0.75 0.75 0.0 0 1 24.50 44.74
  L 24.28 44.22
  L 24.31 41.71
  Q 24.32 41.16 24.79 40.89
  L 32.97 36.07
  L 46.87 28.08
  Z" fill="#ff6383"></path>
<path d="M 119.31 32.09
  L 119.26 43.07
  Q 117.34 44.30 115.80 43.01
  Q 115.43 42.70 114.96 42.57
  L 105.63 39.92
  L 119.31 32.09
  Z" fill="#480bfd"></path>
<path d="M 79.96 36.51
  C 80.81 37.45 81.35 38.03 81.93 39.32
  Q 82.54 40.69 83.89 41.56
  A 2.09 2.08 14.7 0 1 84.84 43.17
  C 84.99 45.17 86.58 45.66 87.02 47.53
  A 0.43 0.43 0.0 0 0 87.74 47.73
  L 87.99 47.49
  A 0.71 0.45 17.1 0 1 88.50 47.35
  Q 88.73 47.37 88.88 47.62
  A 0.20 0.19 -27.2 0 1 88.79 47.89
  Q 87.46 48.50 88.38 50.04
  L 63.83 64.19
  L 48.44 54.67
  L 79.96 36.51
  Z" fill="#480bfd"></path>
<path d="M 105.63 39.92
  L 114.96 42.57
  Q 115.43 42.70 115.80 43.01
  Q 117.34 44.30 119.26 43.07
  L 119.26 68.37
  Q 116.75 69.52 114.73 67.46
  Q 114.36 67.08 113.84 67.17
  Q 113.29 67.26 112.89 66.93
  Q 112.56 66.67 112.16 66.83
  Q 111.40 67.16 110.96 66.67
  Q 110.66 66.33 110.22 66.23
  Q 106.78 65.43 103.54 65.79
  L 103.56 60.15
  A 0.43 0.43 0.0 0 0 102.92 59.78
  L 87.71 68.50
  L 78.02 74.08
  Q 77.16 73.90 76.91 73.30
  Q 76.81 73.04 76.53 73.12
  Q 76.20 73.21 76.14 73.43
  Q 76.00 73.86 75.55 73.88
  Q 75.36 73.88 75.16 73.87
  Q 74.97 73.85 75.08 73.69
  Q 75.15 73.59 75.26 73.50
  A 0.47 0.39 12.1 0 0 74.74 72.84
  Q 73.63 73.16 72.93 72.46
  Q 72.59 72.12 72.20 72.39
  L 70.60 73.50
  Q 70.19 73.79 70.35 73.32
  Q 70.47 72.99 70.85 72.66
  Q 71.29 72.28 70.71 72.19
  Q 69.55 72.02 68.72 71.27
  A 0.58 0.57 -52.5 0 0 67.85 71.39
  Q 67.43 72.06 66.62 71.87
  A 2.60 0.40 13.5 0 1 64.30 70.92
  L 63.95 65.19
  Q 63.82 64.82 63.83 64.19
  L 88.38 50.04
  L 105.63 39.92
  Z" fill="#b10bf6"></path>
<path d="M 24.28 44.22
  L 24.50 44.74
  A 0.75 0.75 0.0 0 0 25.61 45.08
  Q 26.77 44.33 27.50 45.38
  Q 28.15 46.34 29.16 47.03
  Q 29.64 47.36 30.22 47.36
  Q 30.85 47.36 31.00 48.00
  Q 31.11 48.51 31.48 48.90
  Q 33.61 51.16 36.50 52.02
  Q 37.00 52.17 37.11 52.44
  Q 37.22 52.69 37.06 52.98
  Q 36.85 53.36 37.11 53.70
  Q 38.21 55.14 40.14 55.49
  L 40.16 77.72
  L 24.32 86.74
  L 24.39 77.46
  L 24.28 44.22
  Z" fill="#d64ca2"></path>
<path d="M 48.44 54.67
  L 63.83 64.19
  Q 63.82 64.82 63.95 65.19
  L 64.11 82.21
  L 48.93 73.62
  A 1.87 1.87 0.0 0 1 47.99 72.00
  L 48.01 56.14
  Q 48.01 55.70 48.18 55.29
  L 48.44 54.67
  Z" fill="#fa9b52"></path>
<path d="M 103.54 65.79
  L 103.51 82.28
  L 103.59 86.14
  Q 103.61 86.68 103.13 86.96
  L 83.38 98.54
  C 77.84 101.51 72.57 104.98 66.98 107.98
  Q 65.39 108.84 63.95 110.27
  Q 63.59 109.52 63.36 109.38
  Q 43.92 98.20 24.32 86.74
  L 40.16 77.72
  L 63.32 91.12
  A 1.25 1.24 -45.2 0 0 64.56 91.11
  L 87.27 77.94
  Q 87.73 77.68 87.73 77.16
  L 87.71 68.50
  L 102.92 59.78
  A 0.43 0.43 0.0 0 1 103.56 60.15
  L 103.54 65.79
  Z" fill="#fa9b52"></path>
<path d="M 63.95 65.19
  L 64.30 70.92
  A 2.60 0.40 13.5 0 0 66.62 71.87
  Q 67.43 72.06 67.85 71.39
  A 0.58 0.57 -52.5 0 1 68.72 71.27
  Q 69.55 72.02 70.71 72.19
  Q 71.29 72.28 70.85 72.66
  Q 70.47 72.99 70.35 73.32
  Q 70.19 73.79 70.60 73.50
  L 72.20 72.39
  Q 72.59 72.12 72.93 72.46
  Q 73.63 73.16 74.74 72.84
  A 0.47 0.39 12.1 0 1 75.26 73.50
  Q 75.15 73.59 75.08 73.69
  Q 74.97 73.85 75.16 73.87
  Q 75.36 73.88 75.55 73.88
  Q 76.00 73.86 76.14 73.43
  Q 76.20 73.21 76.53 73.12
  Q 76.81 73.04 76.91 73.30
  Q 77.16 73.90 78.02 74.08
  L 64.11 82.21
  L 63.95 65.19
  Z" fill="#e822da"></path>
<path d="M 119.26 68.37
  L 119.27 84.28
  Q 118.56 84.04 117.69 84.45
  A 0.39 0.39 0.0 0 1 117.13 84.10
  Q 117.13 83.91 117.12 83.72
  Q 117.10 83.36 116.74 83.36
  Q 114.60 83.37 112.75 82.41
  Q 112.53 82.29 112.31 82.43
  L 112.06 82.59
  Q 111.55 82.92 111.09 82.54
  Q 109.26 81.04 107.25 82.10
  Q 106.78 82.34 106.60 81.85
  Q 106.40 81.30 105.89 81.36
  Q 105.64 81.38 105.38 81.39
  Q 104.90 81.41 104.82 81.84
  Q 104.73 82.31 104.26 82.37
  Q 103.89 82.41 103.51 82.28
  L 103.54 65.79
  Q 106.78 65.43 110.22 66.23
  Q 110.66 66.33 110.96 66.67
  Q 111.40 67.16 112.16 66.83
  Q 112.56 66.67 112.89 66.93
  Q 113.29 67.26 113.84 67.17
  Q 114.36 67.08 114.73 67.46
  Q 116.75 69.52 119.26 68.37
  Z" fill="#cf0cf4"></path>
<path d="M 8.53 69.94
  Q 9.45 70.83 10.75 70.64
  A 1.13 1.12 -29.2 0 1 11.62 70.88
  L 13.13 72.12
  Q 13.49 72.42 13.85 72.13
  Q 14.11 71.93 14.43 71.95
  Q 14.68 71.97 14.95 72.21
  Q 16.02 73.12 17.03 74.10
  Q 17.36 74.42 17.36 74.88
  L 17.36 75.42
  Q 17.37 76.15 17.88 75.63
  Q 18.31 75.19 18.12 74.50
  A 0.31 0.30 89.4 0 1 18.49 74.12
  Q 18.91 74.24 18.88 74.71
  Q 18.85 75.14 19.09 75.51
  Q 20.08 77.02 21.31 76.29
  Q 21.78 76.01 22.15 76.41
  Q 22.39 76.67 22.38 77.01
  Q 22.36 77.71 23.00 77.41
  Q 23.84 77.02 24.39 77.46
  L 24.32 86.74
  Q 43.92 98.20 63.36 109.38
  Q 63.59 109.52 63.95 110.27
  L 63.93 128.00
  Q 63.90 128.00 63.86 128.00
  L 9.29 96.44
  A 1.58 1.56 -75.2 0 1 8.51 95.08
  L 8.53 69.94
  Z" fill="#cf0cf4"></path>
<path d="M 119.27 84.28
  L 119.32 95.20
  A 1.28 1.27 75.1 0 1 118.67 96.33
  L 105.45 103.95
  L 98.33 102.73
  Q 98.06 102.68 97.94 102.43
  L 97.76 102.04
  A 0.33 0.33 0.0 0 0 97.13 102.19
  Q 97.13 102.34 97.12 102.50
  Q 97.10 102.97 96.69 102.75
  Q 95.13 101.95 93.73 100.91
  Q 93.39 100.66 93.10 100.85
  Q 92.85 101.02 92.55 101.01
  Q 89.21 100.92 86.50 98.96
  A 0.39 0.39 0.0 0 0 85.88 99.28
  L 85.88 100.25
  Q 85.88 100.38 85.75 100.38
  L 85.36 100.38
  A 0.18 0.18 0.0 0 1 85.18 100.17
  Q 85.37 99.03 83.38 98.54
  L 103.13 86.96
  Q 103.61 86.68 103.59 86.14
  L 103.51 82.28
  Q 103.89 82.41 104.26 82.37
  Q 104.73 82.31 104.82 81.84
  Q 104.90 81.41 105.38 81.39
  Q 105.64 81.38 105.89 81.36
  Q 106.40 81.30 106.60 81.85
  Q 106.78 82.34 107.25 82.10
  Q 109.26 81.04 111.09 82.54
  Q 111.55 82.92 112.06 82.59
  L 112.31 82.43
  Q 112.53 82.29 112.75 82.41
  Q 114.60 83.37 116.74 83.36
  Q 117.10 83.36 117.12 83.72
  Q 117.13 83.91 117.13 84.10
  A 0.39 0.39 0.0 0 0 117.69 84.45
  Q 118.56 84.04 119.27 84.28
  Z" fill="#ed4cac"></path>
<path d="M 83.38 98.54
  Q 85.37 99.03 85.18 100.17
  A 0.18 0.18 0.0 0 0 85.36 100.38
  L 85.75 100.38
  Q 85.88 100.38 85.88 100.25
  L 85.88 99.28
  A 0.39 0.39 0.0 0 1 86.50 98.96
  Q 89.21 100.92 92.55 101.01
  Q 92.85 101.02 93.10 100.85
  Q 93.39 100.66 93.73 100.91
  Q 95.13 101.95 96.69 102.75
  Q 97.10 102.97 97.12 102.50
  Q 97.13 102.34 97.13 102.19
  A 0.33 0.33 0.0 0 1 97.76 102.04
  L 97.94 102.43
  Q 98.06 102.68 98.33 102.73
  L 105.45 103.95
  L 63.99 128.00
  Q 63.96 128.00 63.93 128.00
  L 63.95 110.27
  Q 65.39 108.84 66.98 107.98
  C 72.57 104.98 77.84 101.51 83.38 98.54
  Z" fill="#f6846d"></path>
</svg>
