<svg viewBox="0.00 0.00 32.00 32.00" version="1.1" xmlns="http://www.w3.org/2000/svg">
<g stroke-linecap="butt" fill="none" stroke-width="2.00">
<path d="M 16.54 6.55
  L 16.71 7.23
  Q 16.89 7.92 17.58 7.76
  Q 18.32 7.60 18.11 6.66
  A 0.79 0.78 78.5 0 0 17.19 6.04
  L 16.82 6.11
  A 0.37 0.36 -13.1 0 0 16.54 6.55" stroke="#848483"></path>
<path d="M 19.44 18.85
  C 17.74 16.27 18.28 13.39 18.65 10.43
  Q 18.68 10.20 18.45 10.20
  L 13.47 10.16
  Q 13.16 10.16 13.24 10.46
  Q 13.91 12.94 13.67 15.73
  C 13.41 18.62 11.16 20.70 9.48 22.97
  A 2.15 2.14 -71.9 0 0 11.21 26.39
  L 21.03 26.33
  A 1.22 1.21 20.6 0 0 21.90 25.94
  C 24.06 23.59 20.76 20.84 19.44 18.85" stroke="#848483"></path>
<path d="M 18.56 19.08
  C 17.53 17.78 15.47 17.42 14.13 18.34
  A 0.30 0.30 0.0 0 0 14.18 18.86
  Q 16.12 19.70 18.23 19.74
  A 0.41 0.41 0.0 0 0 18.56 19.08" stroke="#848483"></path>
</g>
<path d="M 0.00 0.00
  L 32.00 0.00
  L 32.00 32.00
  L 0.00 32.00
  L 0.00 0.00
  Z
  M 16.54 6.55
  L 16.71 7.23
  Q 16.89 7.92 17.58 7.76
  Q 18.32 7.60 18.11 6.66
  A 0.79 0.78 78.5 0 0 17.19 6.04
  L 16.82 6.11
  A 0.37 0.36 -13.1 0 0 16.54 6.55
  Z
  M 19.44 18.85
  C 17.74 16.27 18.28 13.39 18.65 10.43
  Q 18.68 10.20 18.45 10.20
  L 13.47 10.16
  Q 13.16 10.16 13.24 10.46
  Q 13.91 12.94 13.67 15.73
  C 13.41 18.62 11.16 20.70 9.48 22.97
  A 2.15 2.14 -71.9 0 0 11.21 26.39
  L 21.03 26.33
  A 1.22 1.21 20.6 0 0 21.90 25.94
  C 24.06 23.59 20.76 20.84 19.44 18.85
  Z" fill="#e7e7e6"></path>
<path d="M 16.54 6.55
  A 0.37 0.36 -13.1 0 1 16.82 6.11
  L 17.19 6.04
  A 0.79 0.78 78.5 0 1 18.11 6.66
  Q 18.32 7.60 17.58 7.76
  Q 16.89 7.92 16.71 7.23
  L 16.54 6.55
  Z" fill="#212020"></path>
<path d="M 19.44 18.85
  C 20.76 20.84 24.06 23.59 21.90 25.94
  A 1.22 1.21 20.6 0 1 21.03 26.33
  L 11.21 26.39
  A 2.15 2.14 -71.9 0 1 9.48 22.97
  C 11.16 20.70 13.41 18.62 13.67 15.73
  Q 13.91 12.94 13.24 10.46
  Q 13.16 10.16 13.47 10.16
  L 18.45 10.20
  Q 18.68 10.20 18.65 10.43
  C 18.28 13.39 17.74 16.27 19.44 18.85
  Z
  M 18.56 19.08
  C 17.53 17.78 15.47 17.42 14.13 18.34
  A 0.30 0.30 0.0 0 0 14.18 18.86
  Q 16.12 19.70 18.23 19.74
  A 0.41 0.41 0.0 0 0 18.56 19.08
  Z" fill="#212020"></path>
<path d="M 14.13 18.34
  C 15.47 17.42 17.53 17.78 18.56 19.08
  A 0.41 0.41 0.0 0 1 18.23 19.74
  Q 16.12 19.70 14.18 18.86
  A 0.30 0.30 0.0 0 1 14.13 18.34
  Z" fill="#e7e7e6"></path>
</svg>
