<svg viewBox="0.00 0.00 256.00 256.00" version="1.1" xmlns="http://www.w3.org/2000/svg">
<path d="M 115.90 90.94
  C 106.00 114.44 82.58 120.27 59.75 123.47
  Q 40.84 126.13 21.81 127.53
  Q 21.69 127.54 21.69 127.66
  L 21.69 127.66
  Q 21.68 127.79 21.81 127.80
  Q 36.16 129.18 50.49 130.83
  C 64.00 132.37 78.11 134.62 90.76 139.75
  C 114.27 149.29 120.27 171.83 123.64 194.51
  Q 126.56 214.12 127.95 233.94
  Q 127.96 234.07 128.09 234.07
  L 128.36 234.07
  Q 128.61 234.07 128.63 233.82
  Q 129.45 220.31 131.13 206.92
  C 133.09 191.35 135.01 178.86 140.05 165.76
  C 147.07 147.56 162.37 139.21 180.54 135.11
  C 198.38 131.09 216.75 129.46 234.92 127.81
  Q 234.97 127.81 234.96 127.76
  Q 234.96 127.74 234.96 127.72
  Q 234.95 127.61 234.86 127.61
  Q 218.89 126.32 202.99 124.35
  C 179.15 121.40 152.25 116.79 141.22 92.08
  Q 136.85 82.28 135.46 75.26
  Q 130.13 48.44 128.60 21.25
  A 0.03 0.03 0.0 0 0 128.54 21.25
  Q 128.19 22.14 128.08 23.26
  Q 126.64 38.66 124.68 54.00
  C 123.09 66.50 120.82 79.27 115.90 90.94" stroke-linecap="butt" fill="none" stroke-width="2.00" stroke="#b8a2e9"></path>
<path d="M 53.04 3.00
  L 202.96 3.00
  A 50.04 50.04 0.0 0 1 253.00 53.04
  L 253.00 202.96
  A 50.04 50.04 0.0 0 1 202.96 253.00
  L 53.04 253.00
  A 50.04 50.04 0.0 0 1 3.00 202.96
  L 3.00 53.04
  A 50.04 50.04 0.0 0 1 53.04 3.00
  Z
  M 115.90 90.94
  C 106.00 114.44 82.58 120.27 59.75 123.47
  Q 40.84 126.13 21.81 127.53
  Q 21.69 127.54 21.69 127.66
  L 21.69 127.66
  Q 21.68 127.79 21.81 127.80
  Q 36.16 129.18 50.49 130.83
  C 64.00 132.37 78.11 134.62 90.76 139.75
  C 114.27 149.29 120.27 171.83 123.64 194.51
  Q 126.56 214.12 127.95 233.94
  Q 127.96 234.07 128.09 234.07
  L 128.36 234.07
  Q 128.61 234.07 128.63 233.82
  Q 129.45 220.31 131.13 206.92
  C 133.09 191.35 135.01 178.86 140.05 165.76
  C 147.07 147.56 162.37 139.21 180.54 135.11
  C 198.38 131.09 216.75 129.46 234.92 127.81
  Q 234.97 127.81 234.96 127.76
  Q 234.96 127.74 234.96 127.72
  Q 234.95 127.61 234.86 127.61
  Q 218.89 126.32 202.99 124.35
  C 179.15 121.40 152.25 116.79 141.22 92.08
  Q 136.85 82.28 135.46 75.26
  Q 130.13 48.44 128.60 21.25
  A 0.03 0.03 0.0 0 0 128.54 21.25
  Q 128.19 22.14 128.08 23.26
  Q 126.64 38.66 124.68 54.00
  C 123.09 66.50 120.82 79.27 115.90 90.94
  Z" fill="#7144d3"></path>
<path d="M 115.90 90.94
  C 120.82 79.27 123.09 66.50 124.68 54.00
  Q 126.64 38.66 128.08 23.26
  Q 128.19 22.14 128.54 21.25
  A 0.03 0.03 0.0 0 1 128.60 21.25
  Q 130.13 48.44 135.46 75.26
  Q 136.85 82.28 141.22 92.08
  C 152.25 116.79 179.15 121.40 202.99 124.35
  Q 218.89 126.32 234.86 127.61
  Q 234.95 127.61 234.96 127.72
  Q 234.96 127.74 234.96 127.76
  Q 234.97 127.81 234.92 127.81
  C 216.75 129.46 198.38 131.09 180.54 135.11
  C 162.37 139.21 147.07 147.56 140.05 165.76
  C 135.01 178.86 133.09 191.35 131.13 206.92
  Q 129.45 220.31 128.63 233.82
  Q 128.61 234.07 128.36 234.07
  L 128.09 234.07
  Q 127.96 234.07 127.95 233.94
  Q 126.56 214.12 123.64 194.51
  C 120.27 171.83 114.27 149.29 90.76 139.75
  C 78.11 134.62 64.00 132.37 50.49 130.83
  Q 36.16 129.18 21.81 127.80
  Q 21.68 127.79 21.69 127.66
  L 21.69 127.66
  Q 21.69 127.54 21.81 127.53
  Q 40.84 126.13 59.75 123.47
  C 82.58 120.27 106.00 114.44 115.90 90.94
  Z" fill="#ffffff"></path>
</svg>
