<svg viewBox="0.00 0.00 180.00 180.00" version="1.1" xmlns="http://www.w3.org/2000/svg">
<g stroke-linecap="butt" fill="none" stroke-width="2.00">
<path d="M 52.98 130.77
  A 0.46 0.46 0.0 0 1 52.52 130.31
  L 52.52 50.80
  A 0.46 0.46 0.0 0 1 52.98 50.34
  L 65.11 50.33
  A 0.46 0.46 0.0 0 0 65.57 49.87
  L 65.59 32.47
  A 0.46 0.46 0.0 0 0 65.13 32.01
  L 32.47 32.01
  A 0.46 0.46 0.0 0 0 32.01 32.47
  L 31.99 148.55
  A 0.46 0.46 0.0 0 0 32.45 149.01
  L 65.12 149.00
  A 0.46 0.46 0.0 0 0 65.58 148.54
  L 65.57 131.24
  A 0.46 0.46 0.0 0 0 65.11 130.78
  L 52.98 130.77" stroke="#88dcc0"></path>
<path d="M 128.07 50.33
  A 0.42 0.42 0.0 0 1 128.49 50.75
  L 128.49 130.35
  A 0.42 0.42 0.0 0 1 128.07 130.77
  L 115.87 130.77
  A 0.42 0.42 0.0 0 0 115.45 131.19
  L 115.42 148.59
  A 0.42 0.42 0.0 0 0 115.84 149.01
  L 148.57 149.00
  A 0.42 0.42 0.0 0 0 148.99 148.58
  L 148.98 32.43
  A 0.42 0.42 0.0 0 0 148.56 32.01
  L 115.86 32.00
  A 0.42 0.42 0.0 0 0 115.44 32.42
  L 115.44 49.92
  A 0.42 0.42 0.0 0 0 115.86 50.34
  L 128.07 50.33" stroke="#88dcc0"></path>
</g>
<path d="M 0.00 0.00
  L 180.00 0.00
  L 180.00 180.00
  L 0.00 180.00
  L 0.00 0.00
  Z
  M 52.98 130.77
  A 0.46 0.46 0.0 0 1 52.52 130.31
  L 52.52 50.80
  A 0.46 0.46 0.0 0 1 52.98 50.34
  L 65.11 50.33
  A 0.46 0.46 0.0 0 0 65.57 49.87
  L 65.59 32.47
  A 0.46 0.46 0.0 0 0 65.13 32.01
  L 32.47 32.01
  A 0.46 0.46 0.0 0 0 32.01 32.47
  L 31.99 148.55
  A 0.46 0.46 0.0 0 0 32.45 149.01
  L 65.12 149.00
  A 0.46 0.46 0.0 0 0 65.58 148.54
  L 65.57 131.24
  A 0.46 0.46 0.0 0 0 65.11 130.78
  L 52.98 130.77
  Z
  M 128.07 50.33
  A 0.42 0.42 0.0 0 1 128.49 50.75
  L 128.49 130.35
  A 0.42 0.42 0.0 0 1 128.07 130.77
  L 115.87 130.77
  A 0.42 0.42 0.0 0 0 115.45 131.19
  L 115.42 148.59
  A 0.42 0.42 0.0 0 0 115.84 149.01
  L 148.57 149.00
  A 0.42 0.42 0.0 0 0 148.99 148.58
  L 148.98 32.43
  A 0.42 0.42 0.0 0 0 148.56 32.01
  L 115.86 32.00
  A 0.42 0.42 0.0 0 0 115.44 32.42
  L 115.44 49.92
  A 0.42 0.42 0.0 0 0 115.86 50.34
  L 128.07 50.33
  Z" fill="#ffffff"></path>
<path d="M 52.98 130.77
  L 65.11 130.78
  A 0.46 0.46 0.0 0 1 65.57 131.24
  L 65.58 148.54
  A 0.46 0.46 0.0 0 1 65.12 149.00
  L 32.45 149.01
  A 0.46 0.46 0.0 0 1 31.99 148.55
  L 32.01 32.47
  A 0.46 0.46 0.0 0 1 32.47 32.01
  L 65.13 32.01
  A 0.46 0.46 0.0 0 1 65.59 32.47
  L 65.57 49.87
  A 0.46 0.46 0.0 0 1 65.11 50.33
  L 52.98 50.34
  A 0.46 0.46 0.0 0 0 52.52 50.80
  L 52.52 130.31
  A 0.46 0.46 0.0 0 0 52.98 130.77
  Z" fill="#10b981"></path>
<path d="M 128.07 50.33
  L 115.86 50.34
  A 0.42 0.42 0.0 0 1 115.44 49.92
  L 115.44 32.42
  A 0.42 0.42 0.0 0 1 115.86 32.00
  L 148.56 32.01
  A 0.42 0.42 0.0 0 1 148.98 32.43
  L 148.99 148.58
  A 0.42 0.42 0.0 0 1 148.57 149.00
  L 115.84 149.01
  A 0.42 0.42 0.0 0 1 115.42 148.59
  L 115.45 131.19
  A 0.42 0.42 0.0 0 1 115.87 130.77
  L 128.07 130.77
  A 0.42 0.42 0.0 0 0 128.49 130.35
  L 128.49 50.75
  A 0.42 0.42 0.0 0 0 128.07 50.33
  Z" fill="#10b981"></path>
</svg>
