<svg viewBox="0.00 0.00 512.00 512.00" version="1.1" xmlns="http://www.w3.org/2000/svg">
<g stroke-linecap="butt" fill="none" stroke-width="2.00">
<path d="M 239.97 169.58
  A 0.53 0.53 0.0 0 0 239.44 169.05
  L 207.31 169.02
  A 0.53 0.53 0.0 0 0 206.78 169.55
  L 206.78 342.09
  A 0.53 0.53 0.0 0 0 207.31 342.62
  L 239.45 342.60
  A 0.53 0.53 0.0 0 0 239.98 342.07
  L 239.97 169.58" stroke="#808080"></path>
<path d="M 304.78 169.45
  A 0.42 0.42 0.0 0 0 304.36 169.03
  L 272.12 169.03
  A 0.42 0.42 0.0 0 0 271.70 169.45
  L 271.70 342.19
  A 0.42 0.42 0.0 0 0 272.12 342.61
  L 304.36 342.61
  A 0.42 0.42 0.0 0 0 304.78 342.19
  L 304.78 169.45" stroke="#808080"></path>
</g>
<path d="M 0.00 0.00
  L 512.00 0.00
  L 512.00 512.00
  L 0.00 512.00
  L 0.00 0.00
  Z
  M 239.97 169.58
  A 0.53 0.53 0.0 0 0 239.44 169.05
  L 207.31 169.02
  A 0.53 0.53 0.0 0 0 206.78 169.55
  L 206.78 342.09
  A 0.53 0.53 0.0 0 0 207.31 342.62
  L 239.45 342.60
  A 0.53 0.53 0.0 0 0 239.98 342.07
  L 239.97 169.58
  Z
  M 304.78 169.45
  A 0.42 0.42 0.0 0 0 304.36 169.03
  L 272.12 169.03
  A 0.42 0.42 0.0 0 0 271.70 169.45
  L 271.70 342.19
  A 0.42 0.42 0.0 0 0 272.12 342.61
  L 304.36 342.61
  A 0.42 0.42 0.0 0 0 304.78 342.19
  L 304.78 169.45
  Z" fill="#ffffff"></path>
<path d="M 239.97 169.58
  L 239.98 342.07
  A 0.53 0.53 0.0 0 1 239.45 342.60
  L 207.31 342.62
  A 0.53 0.53 0.0 0 1 206.78 342.09
  L 206.78 169.55
  A 0.53 0.53 0.0 0 1 207.31 169.02
  L 239.44 169.05
  A 0.53 0.53 0.0 0 1 239.97 169.58
  Z" fill="#000000"></path>
<rect rx="0.42" height="173.58" width="33.08" y="169.03" x="271.70" fill="#000000"></rect>
</svg>
