<svg viewBox="0.00 0.00 48.00 48.00" version="1.1" xmlns="http://www.w3.org/2000/svg">
<g stroke-linecap="butt" fill="none" stroke-width="2.00">
<path d="M 29.81 27.48
  A 0.44 0.44 0.0 0 1 29.98 26.97
  Q 34.44 23.96 35.95 20.25
  C 37.96 15.27 35.59 8.43 29.50 8.27
  Q 25.84 8.17 17.32 8.30
  Q 16.85 8.31 16.75 8.77
  L 10.49 37.74
  A 0.32 0.31 -83.9 0 0 10.79 38.12
  L 15.92 38.09
  Q 16.21 38.09 16.27 37.80
  L 18.19 28.62
  Q 18.26 28.27 18.63 28.27
  L 23.05 28.25
  A 0.79 0.77 -9.4 0 1 23.79 28.77
  L 26.89 37.83
  A 0.41 0.40 79.5 0 0 27.27 38.10
  L 33.41 38.15
  Q 33.61 38.15 33.54 37.96
  L 29.81 27.48" stroke="#8d89a8"></path>
<path d="M 28.05 22.34
  C 30.86 20.47 31.61 16.50 29.55 13.99
  A 1.40 1.37 69.9 0 0 28.48 13.48
  L 23.12 13.47
  Q 21.50 13.46 21.14 15.05
  L 19.67 21.53
  Q 19.26 23.34 21.10 23.17
  C 22.93 23.01 26.37 23.46 28.05 22.34" stroke="#8d89a8"></path>
</g>
<path d="M 10.60 0.00
  L 37.49 0.00
  Q 46.26 1.86 48.00 10.57
  L 48.00 37.53
  Q 46.13 46.29 37.39 48.00
  L 10.49 48.00
  Q 1.75 46.18 0.00 37.41
  L 0.00 10.47
  Q 1.89 1.71 10.60 0.00
  Z
  M 29.81 27.48
  A 0.44 0.44 0.0 0 1 29.98 26.97
  Q 34.44 23.96 35.95 20.25
  C 37.96 15.27 35.59 8.43 29.50 8.27
  Q 25.84 8.17 17.32 8.30
  Q 16.85 8.31 16.75 8.77
  L 10.49 37.74
  A 0.32 0.31 -83.9 0 0 10.79 38.12
  L 15.92 38.09
  Q 16.21 38.09 16.27 37.80
  L 18.19 28.62
  Q 18.26 28.27 18.63 28.27
  L 23.05 28.25
  A 0.79 0.77 -9.4 0 1 23.79 28.77
  L 26.89 37.83
  A 0.41 0.40 79.5 0 0 27.27 38.10
  L 33.41 38.15
  Q 33.61 38.15 33.54 37.96
  L 29.81 27.48
  Z" fill="#1a1350"></path>
<path d="M 29.81 27.48
  L 33.54 37.96
  Q 33.61 38.15 33.41 38.15
  L 27.27 38.10
  A 0.41 0.40 79.5 0 1 26.89 37.83
  L 23.79 28.77
  A 0.79 0.77 -9.4 0 0 23.05 28.25
  L 18.63 28.27
  Q 18.26 28.27 18.19 28.62
  L 16.27 37.80
  Q 16.21 38.09 15.92 38.09
  L 10.79 38.12
  A 0.32 0.31 -83.9 0 1 10.49 37.74
  L 16.75 8.77
  Q 16.85 8.31 17.32 8.30
  Q 25.84 8.17 29.50 8.27
  C 35.59 8.43 37.96 15.27 35.95 20.25
  Q 34.44 23.96 29.98 26.97
  A 0.44 0.44 0.0 0 0 29.81 27.48
  Z
  M 28.05 22.34
  C 30.86 20.47 31.61 16.50 29.55 13.99
  A 1.40 1.37 69.9 0 0 28.48 13.48
  L 23.12 13.47
  Q 21.50 13.46 21.14 15.05
  L 19.67 21.53
  Q 19.26 23.34 21.10 23.17
  C 22.93 23.01 26.37 23.46 28.05 22.34
  Z" fill="#ffffff"></path>
<path d="M 28.05 22.34
  C 26.37 23.46 22.93 23.01 21.10 23.17
  Q 19.26 23.34 19.67 21.53
  L 21.14 15.05
  Q 21.50 13.46 23.12 13.47
  L 28.48 13.48
  A 1.40 1.37 69.9 0 1 29.55 13.99
  C 31.61 16.50 30.86 20.47 28.05 22.34
  Z" fill="#1a1350"></path>
</svg>
