<svg viewBox="0.00 0.00 180.00 180.00" version="1.1" xmlns="http://www.w3.org/2000/svg">
<g stroke-linecap="butt" fill="none" stroke-width="2.00">
<path d="M 119.65 132.74
  L 119.70 141.97
  A 0.51 0.51 0.0 0 0 120.21 142.47
  L 138.99 142.47
  Q 139.46 142.47 139.46 142.01
  L 139.46 39.41
  Q 139.46 38.86 138.91 38.86
  L 120.28 38.86
  Q 119.68 38.86 119.68 39.47
  L 119.67 47.92
  A 0.21 0.21 0.0 0 1 119.33 48.08
  C 96.91 30.75 66.11 32.56 46.40 52.97
  A 0.45 0.45 0.0 0 0 46.53 53.69
  Q 55.65 57.99 63.60 64.17
  Q 64.01 64.49 64.41 64.16
  C 80.74 50.60 104.50 56.18 114.77 73.61
  C 124.80 90.66 117.01 112.85 98.84 120.99
  Q 98.00 121.37 98.12 122.28
  Q 99.43 132.06 99.19 141.90
  Q 99.18 142.37 99.63 142.25
  Q 110.36 139.32 119.10 132.48
  A 0.34 0.34 0.0 0 1 119.65 132.74" stroke="#f4a692"></path>
<path d="M 38.02 64.49
  C 35.77 68.16 33.90 73.29 33.12 77.45
  Q 33.06 77.81 33.39 77.97
  C 57.62 89.71 72.84 113.95 70.36 141.13
  Q 70.27 142.18 71.29 142.42
  Q 77.84 143.97 84.57 144.05
  Q 85.01 144.05 85.05 143.62
  C 88.24 109.12 69.82 78.43 38.81 64.25
  A 0.62 0.62 0.0 0 0 38.02 64.49" stroke="#f4a692"></path>
<path d="M 59.37 136.66
  C 59.17 118.06 48.59 100.29 31.99 91.54
  Q 31.44 91.26 31.46 91.88
  C 32.25 110.95 42.18 127.69 58.84 136.98
  Q 59.37 137.27 59.37 136.66" stroke="#f4a692"></path>
</g>
<path d="M 0.00 0.00
  L 180.00 0.00
  L 180.00 180.00
  L 0.00 180.00
  L 0.00 0.00
  Z
  M 119.65 132.74
  L 119.70 141.97
  A 0.51 0.51 0.0 0 0 120.21 142.47
  L 138.99 142.47
  Q 139.46 142.47 139.46 142.01
  L 139.46 39.41
  Q 139.46 38.86 138.91 38.86
  L 120.28 38.86
  Q 119.68 38.86 119.68 39.47
  L 119.67 47.92
  A 0.21 0.21 0.0 0 1 119.33 48.08
  C 96.91 30.75 66.11 32.56 46.40 52.97
  A 0.45 0.45 0.0 0 0 46.53 53.69
  Q 55.65 57.99 63.60 64.17
  Q 64.01 64.49 64.41 64.16
  C 80.74 50.60 104.50 56.18 114.77 73.61
  C 124.80 90.66 117.01 112.85 98.84 120.99
  Q 98.00 121.37 98.12 122.28
  Q 99.43 132.06 99.19 141.90
  Q 99.18 142.37 99.63 142.25
  Q 110.36 139.32 119.10 132.48
  A 0.34 0.34 0.0 0 1 119.65 132.74
  Z
  M 38.02 64.49
  C 35.77 68.16 33.90 73.29 33.12 77.45
  Q 33.06 77.81 33.39 77.97
  C 57.62 89.71 72.84 113.95 70.36 141.13
  Q 70.27 142.18 71.29 142.42
  Q 77.84 143.97 84.57 144.05
  Q 85.01 144.05 85.05 143.62
  C 88.24 109.12 69.82 78.43 38.81 64.25
  A 0.62 0.62 0.0 0 0 38.02 64.49
  Z
  M 59.37 136.66
  C 59.17 118.06 48.59 100.29 31.99 91.54
  Q 31.44 91.26 31.46 91.88
  C 32.25 110.95 42.18 127.69 58.84 136.98
  Q 59.37 137.27 59.37 136.66
  Z" fill="#ec4f27"></path>
<path d="M 119.65 132.74
  A 0.34 0.34 0.0 0 0 119.10 132.48
  Q 110.36 139.32 99.63 142.25
  Q 99.18 142.37 99.19 141.90
  Q 99.43 132.06 98.12 122.28
  Q 98.00 121.37 98.84 120.99
  C 117.01 112.85 124.80 90.66 114.77 73.61
  C 104.50 56.18 80.74 50.60 64.41 64.16
  Q 64.01 64.49 63.60 64.17
  Q 55.65 57.99 46.53 53.69
  A 0.45 0.45 0.0 0 1 46.40 52.97
  C 66.11 32.56 96.91 30.75 119.33 48.08
  A 0.21 0.21 0.0 0 0 119.67 47.92
  L 119.68 39.47
  Q 119.68 38.86 120.28 38.86
  L 138.91 38.86
  Q 139.46 38.86 139.46 39.41
  L 139.46 142.01
  Q 139.46 142.47 138.99 142.47
  L 120.21 142.47
  A 0.51 0.51 0.0 0 1 119.70 141.97
  L 119.65 132.74
  Z" fill="#fcfcfc"></path>
<path d="M 33.12 77.45
  C 33.90 73.29 35.77 68.16 38.02 64.49
  A 0.62 0.62 0.0 0 1 38.81 64.25
  C 69.82 78.43 88.24 109.12 85.05 143.62
  Q 85.01 144.05 84.57 144.05
  Q 77.84 143.97 71.29 142.42
  Q 70.27 142.18 70.36 141.13
  C 72.84 113.95 57.62 89.71 33.39 77.97
  Q 33.06 77.81 33.12 77.45
  Z" fill="#fcfcfc"></path>
<path d="M 31.99 91.54
  C 48.59 100.29 59.17 118.06 59.37 136.66
  Q 59.37 137.27 58.84 136.98
  C 42.18 127.69 32.25 110.95 31.46 91.88
  Q 31.44 91.26 31.99 91.54
  Z" fill="#fcfcfc"></path>
</svg>
