<svg xmlns="http://www.w3.org/2000/svg" fill="none" viewBox="0 0 513 513" height="513" width="513">
  <mask height="513" width="513" y="0" x="0" maskUnits="userSpaceOnUse" style="mask-type:alpha" id="a">
    <path fill="#00122B" d="M4.224 155.692C7.42 73.067 73.791 6.886 156.425 3.927L257.821.296l99.526 3.566c83.34 2.986 150.005 70.24 152.258 153.603l2.694 99.689-2.667 98.457c-2.265 83.652-69.373 151.024-153.015 153.619l-98.796 3.066-100.678-3.122C74.209 506.602 7.399 440.308 4.185 357.397L.299 257.154l3.925-101.462Z"></path>
  </mask>
  <g mask="url(#a)">
    <path stroke-width="1.235" stroke="#000" fill="#FF006E" d="M720.245 247.324c0 282.336-231.81 511.227-517.779 511.227-285.968 0-517.778-228.891-517.778-511.227 0-282.335 231.81-511.227 517.778-511.227 285.969 0 517.779 228.892 517.779 511.227Z"></path>
  </g>
  <path d="m356.596 411.735-255.76-252.316 58.056-57.371 255.76 252.316z" fill="#DFBCBC"></path>
  <path d="M253.852 310.374 100.835 159.418l58.057-57.37 153.017 150.955z" fill="#fff"></path>
  <path d="M100.877 354.429 356.53 102.007l58.08 57.346-255.652 252.423z" fill="#DFBCBC"></path>
  <path d="m100.877 354.429 156.1-154.126 58.08 57.346-156.1 154.127z" fill="#fff"></path>
</svg>
