<svg viewBox="0.00 0.00 192.00 192.00" version="1.1" xmlns="http://www.w3.org/2000/svg">
<path d="M 42.41 0.00
  L 150.01 0.00
  Q 151.68 1.99 150.77 6.98
  A 0.69 0.68 -84.7 0 0 151.44 7.79
  Q 163.63 7.72 175.83 7.78
  C 180.38 7.81 183.76 8.64 183.92 13.75
  Q 184.06 18.22 183.95 26.75
  C 183.69 46.90 171.90 62.88 151.99 67.21
  A 1.42 1.41 85.5 0 0 150.88 68.52
  C 150.68 72.79 150.49 77.06 149.42 81.09
  C 143.66 102.84 125.55 119.82 102.83 122.24
  A 1.03 1.02 87.2 0 0 101.91 123.26
  L 101.93 160.51
  A 0.71 0.70 0.0 0 0 102.64 161.21
  Q 119.76 161.13 136.99 161.20
  Q 143.51 161.23 146.80 162.63
  Q 155.08 166.15 156.42 176.07
  Q 157.49 183.99 155.59 192.00
  L 37.63 192.00
  Q 36.33 191.42 36.30 189.50
  C 36.14 179.26 34.44 167.61 45.89 162.65
  Q 49.16 161.23 55.82 161.21
  Q 72.80 161.14 90.00 161.21
  A 0.93 0.93 0.0 0 0 90.93 160.28
  L 90.89 123.48
  Q 90.89 122.36 89.78 122.23
  C 62.08 118.87 42.41 96.19 41.76 68.70
  A 1.58 1.57 5.4 0 0 40.51 67.20
  C 22.08 63.29 9.15 47.68 8.88 28.72
  Q 8.72 17.27 8.81 13.73
  C 8.94 8.49 12.66 7.78 17.26 7.76
  Q 29.12 7.72 40.79 7.82
  A 0.92 0.92 0.0 0 0 41.71 6.75
  Q 41.03 2.70 42.41 0.00
  Z
  M 138.98 7.68
  L 53.50 7.82
  A 1.08 1.08 0.0 0 0 52.42 8.91
  L 52.52 67.60
  A 44.25 43.72 89.9 0 0 96.32 111.77
  L 96.52 111.77
  A 44.25 43.72 89.9 0 0 140.16 67.44
  L 140.06 8.75
  A 1.08 1.08 0.0 0 0 138.98 7.68
  Z
  M 40.85 56.32
  A 0.53 0.52 -79.7 0 0 41.56 55.82
  L 41.53 19.25
  A 0.50 0.48 0.0 0 0 41.03 18.77
  L 20.23 18.75
  A 0.60 0.59 1.5 0 0 19.63 19.31
  C 18.58 36.89 23.18 49.70 40.85 56.32
  Z
  M 151.49 56.17
  C 163.78 52.87 172.20 42.50 172.86 29.74
  Q 173.13 24.55 172.95 19.23
  Q 172.93 18.77 172.48 18.77
  L 151.50 18.75
  Q 151.00 18.75 151.00 19.25
  L 150.96 55.76
  A 0.42 0.42 0.0 0 0 151.49 56.17
  Z
  M 53.44 172.22
  C 46.51 172.23 46.82 177.60 47.20 182.65
  A 0.57 0.56 -2.2 0 0 47.77 183.17
  L 145.02 183.19
  A 0.69 0.68 -90.0 0 0 145.70 182.50
  C 145.63 177.43 146.13 172.22 139.20 172.22
  Q 96.31 172.19 53.44 172.22
  Z" fill="#000000"></path>
</svg>
