<svg viewBox="0.00 0.00 48.00 48.00" version="1.1" xmlns="http://www.w3.org/2000/svg">
<g stroke-linecap="butt" fill="none" stroke-width="2.00">
<path d="M 7.20 25.95
  C 9.00 22.17 14.28 18.26 18.50 18.26
  Q 26.38 18.25 34.28 18.22
  C 42.14 18.20 44.50 8.28 37.68 5.47
  Q 35.98 4.77 31.73 4.79
  C 26.20 4.81 17.63 3.89 13.05 6.00
  C 5.00 9.69 6.53 18.50 6.53 25.81
  Q 6.54 27.36 7.20 25.95" stroke="#ffcd93"></path>
<path d="M 15.88 21.87
  C 7.19 25.03 8.07 34.38 8.60 42.02
  Q 8.64 42.69 8.99 42.11
  Q 12.58 36.08 19.31 34.74
  C 23.17 33.96 27.59 35.50 30.95 33.39
  C 34.73 31.01 34.74 24.39 30.75 22.13
  C 28.08 20.61 18.83 20.79 15.88 21.87" stroke="#ffa18c"></path>
</g>
<path d="M 4.63 0.00
  L 43.47 0.00
  Q 46.79 1.33 48.00 4.64
  L 48.00 43.46
  Q 46.61 46.85 43.37 48.00
  L 4.53 48.00
  Q 1.18 46.69 0.00 43.36
  L 0.00 4.54
  Q 1.34 1.19 4.63 0.00
  Z
  M 7.20 25.95
  C 9.00 22.17 14.28 18.26 18.50 18.26
  Q 26.38 18.25 34.28 18.22
  C 42.14 18.20 44.50 8.28 37.68 5.47
  Q 35.98 4.77 31.73 4.79
  C 26.20 4.81 17.63 3.89 13.05 6.00
  C 5.00 9.69 6.53 18.50 6.53 25.81
  Q 6.54 27.36 7.20 25.95
  Z
  M 15.88 21.87
  C 7.19 25.03 8.07 34.38 8.60 42.02
  Q 8.64 42.69 8.99 42.11
  Q 12.58 36.08 19.31 34.74
  C 23.17 33.96 27.59 35.50 30.95 33.39
  C 34.73 31.01 34.74 24.39 30.75 22.13
  C 28.08 20.61 18.83 20.79 15.88 21.87
  Z" fill="#ffffff"></path>
<path d="M 18.50 18.26
  C 14.28 18.26 9.00 22.17 7.20 25.95
  Q 6.54 27.36 6.53 25.81
  C 6.53 18.50 5.00 9.69 13.05 6.00
  C 17.63 3.89 26.20 4.81 31.73 4.79
  Q 35.98 4.77 37.68 5.47
  C 44.50 8.28 42.14 18.20 34.28 18.22
  Q 26.38 18.25 18.50 18.26
  Z" fill="#ff9a26"></path>
<path d="M 8.60 42.02
  C 8.07 34.38 7.19 25.03 15.88 21.87
  C 18.83 20.79 28.08 20.61 30.75 22.13
  C 34.74 24.39 34.73 31.01 30.95 33.39
  C 27.59 35.50 23.17 33.96 19.31 34.74
  Q 12.58 36.08 8.99 42.11
  Q 8.64 42.69 8.60 42.02
  Z" fill="#ff4218"></path>
</svg>
