<svg viewBox="0.00 0.00 256.00 256.00" version="1.1" xmlns="http://www.w3.org/2000/svg">
<path d="M 66.04 173.01
  A 0.33 0.33 0.0 0 0 66.33 173.50
  L 192.07 173.50
  A 0.33 0.33 0.0 0 0 192.36 173.01
  L 129.49 63.02
  A 0.33 0.33 0.0 0 0 128.91 63.02
  L 66.04 173.01" stroke-linecap="butt" fill="none" stroke-width="2.00" stroke="#808080"></path>
<path d="M 123.26 0.00
  L 132.55 0.00
  Q 144.00 1.09 148.24 1.80
  C 204.93 11.24 248.80 56.66 255.00 114.11
  Q 255.50 118.71 256.00 123.31
  L 256.00 132.53
  Q 254.85 144.38 254.20 148.25
  Q 248.15 184.38 225.09 211.08
  Q 192.21 249.17 140.98 254.96
  Q 136.86 255.43 132.74 256.00
  L 123.45 256.00
  Q 110.79 254.76 107.50 254.19
  C 49.63 244.15 7.15 198.77 0.96 140.73
  Q 0.54 136.72 0.00 132.71
  L 0.00 123.40
  Q 0.53 118.26 1.12 113.13
  C 7.94 53.95 54.62 8.06 113.52 1.16
  Q 118.38 0.59 123.26 0.00
  Z
  M 66.04 173.01
  A 0.33 0.33 0.0 0 0 66.33 173.50
  L 192.07 173.50
  A 0.33 0.33 0.0 0 0 192.36 173.01
  L 129.49 63.02
  A 0.33 0.33 0.0 0 0 128.91 63.02
  L 66.04 173.01
  Z" fill="#000000"></path>
<path d="M 66.04 173.01
  L 128.91 63.02
  A 0.33 0.33 0.0 0 1 129.49 63.02
  L 192.36 173.01
  A 0.33 0.33 0.0 0 1 192.07 173.50
  L 66.33 173.50
  A 0.33 0.33 0.0 0 1 66.04 173.01
  Z" fill="#ffffff"></path>
</svg>
