<svg viewBox="0.00 0.00 48.00 48.00" version="1.1" xmlns="http://www.w3.org/2000/svg">
<path d="M 11.99 0.00
  L 35.48 0.00
  Q 40.29 1.27 40.97 5.73
  Q 41.10 6.57 41.92 6.78
  Q 46.89 8.05 48.00 12.55
  L 48.00 36.24
  Q 45.88 45.96 36.12 48.00
  L 12.49 48.00
  Q 7.68 46.65 6.85 41.75
  Q 6.76 41.22 6.23 41.12
  Q 1.24 40.22 0.00 35.46
  L 0.00 11.92
  Q 2.14 1.87 11.99 0.00
  Z
  M 7.07 14.67
  Q 6.84 26.94 7.00 40.25
  Q 7.01 41.05 7.82 41.05
  Q 20.73 41.02 34.26 41.04
  C 39.78 41.04 40.99 37.25 41.02 32.30
  Q 41.08 19.91 41.02 7.61
  A 0.66 0.66 0.0 0 0 40.36 6.96
  Q 27.52 6.96 14.57 6.97
  C 9.16 6.97 7.18 9.18 7.07 14.67
  Z" fill="#000000"></path>
</svg>
