<svg viewBox="0.00 0.00 128.00 128.00" version="1.1" xmlns="http://www.w3.org/2000/svg">
<path d="M 126.81 63.73
  A 62.84 62.84 0.0 0 1 63.97 126.57
  A 62.84 62.84 0.0 0 1 1.13 63.73
  A 62.84 62.84 0.0 0 1 63.97 0.89
  A 62.84 62.84 0.0 0 1 126.81 63.73
  Z
  M 78.15 96.48
  C 84.85 98.64 89.10 103.52 88.54 110.97
  Q 88.27 114.51 87.32 115.67
  Q 84.74 118.80 87.99 116.37
  Q 90.35 114.59 92.80 112.02
  Q 106.76 97.41 108.09 77.08
  A 1.87 1.80 -58.4 0 0 107.88 76.11
  C 107.22 74.90 107.41 73.23 107.23 72.37
  C 104.17 57.81 93.43 45.04 78.40 42.27
  C 74.78 41.60 72.85 41.14 70.01 41.27
  Q 59.69 41.72 50.82 46.85
  C 39.98 53.13 34.40 67.31 39.01 79.47
  C 42.73 89.29 51.92 95.02 62.00 95.72
  C 65.68 95.97 73.39 94.94 78.15 96.48
  Z" fill="#fe4e00"></path>
<ellipse ry="3.58" rx="3.81" transform="translate(57.00,72.09) rotate(91.4)" cy="0.00" cx="0.00" fill="#fe4e00"></ellipse>
<ellipse ry="3.60" rx="3.81" transform="translate(72.02,72.09) rotate(87.2)" cy="0.00" cx="0.00" fill="#fe4e00"></ellipse>
<ellipse ry="3.56" rx="3.81" transform="translate(87.13,72.10) rotate(91.7)" cy="0.00" cx="0.00" fill="#fe4e00"></ellipse>
</svg>
