<svg viewBox="0.00 0.00 256.00 256.00" version="1.1" xmlns="http://www.w3.org/2000/svg">
<path d="M 128.92 108.54
  Q 130.22 108.61 129.10 109.28
  Q 112.40 119.39 95.81 130.29
  Q 81.53 139.68 74.47 145.70
  C 61.97 156.37 44.10 175.07 44.55 193.09
  C 44.89 206.29 56.32 216.69 69.00 218.48
  Q 74.44 219.25 84.50 218.92
  C 122.65 217.65 161.14 205.89 195.58 189.90
  Q 201.29 187.25 203.32 182.77
  C 206.59 175.56 199.47 170.62 193.03 172.48
  Q 158.04 182.56 122.50 190.47
  Q 108.51 193.59 92.75 195.46
  C 87.16 196.13 69.71 195.12 74.87 184.83
  C 78.59 177.42 84.48 171.89 90.60 166.60
  Q 111.05 148.92 133.67 134.11
  Q 159.28 117.33 186.55 103.45
  Q 190.59 101.39 193.54 98.05
  C 197.36 93.72 196.98 88.11 191.67 85.56
  C 187.29 83.47 181.89 83.12 177.12 83.41
  Q 159.30 84.51 141.49 85.85
  Q 137.45 86.15 134.13 86.15
  Q 132.44 86.16 133.82 85.17
  C 152.55 71.75 174.05 64.94 196.39 60.45
  Q 200.74 59.57 204.48 57.28
  C 211.25 53.16 209.80 45.02 202.91 42.15
  C 195.41 39.02 185.40 39.89 177.47 41.24
  C 156.09 44.86 134.69 52.64 116.76 64.98
  Q 108.46 70.68 104.21 75.74
  C 97.77 83.40 95.24 94.50 103.28 101.52
  C 109.21 106.69 120.67 108.09 128.92 108.54" stroke-linecap="butt" fill="none" stroke-width="2.00" stroke="#1b7661"></path>
<path d="M 0.00 0.00
  L 256.00 0.00
  L 256.00 256.00
  L 0.00 256.00
  L 0.00 0.00
  Z
  M 128.92 108.54
  Q 130.22 108.61 129.10 109.28
  Q 112.40 119.39 95.81 130.29
  Q 81.53 139.68 74.47 145.70
  C 61.97 156.37 44.10 175.07 44.55 193.09
  C 44.89 206.29 56.32 216.69 69.00 218.48
  Q 74.44 219.25 84.50 218.92
  C 122.65 217.65 161.14 205.89 195.58 189.90
  Q 201.29 187.25 203.32 182.77
  C 206.59 175.56 199.47 170.62 193.03 172.48
  Q 158.04 182.56 122.50 190.47
  Q 108.51 193.59 92.75 195.46
  C 87.16 196.13 69.71 195.12 74.87 184.83
  C 78.59 177.42 84.48 171.89 90.60 166.60
  Q 111.05 148.92 133.67 134.11
  Q 159.28 117.33 186.55 103.45
  Q 190.59 101.39 193.54 98.05
  C 197.36 93.72 196.98 88.11 191.67 85.56
  C 187.29 83.47 181.89 83.12 177.12 83.41
  Q 159.30 84.51 141.49 85.85
  Q 137.45 86.15 134.13 86.15
  Q 132.44 86.16 133.82 85.17
  C 152.55 71.75 174.05 64.94 196.39 60.45
  Q 200.74 59.57 204.48 57.28
  C 211.25 53.16 209.80 45.02 202.91 42.15
  C 195.41 39.02 185.40 39.89 177.47 41.24
  C 156.09 44.86 134.69 52.64 116.76 64.98
  Q 108.46 70.68 104.21 75.74
  C 97.77 83.40 95.24 94.50 103.28 101.52
  C 109.21 106.69 120.67 108.09 128.92 108.54
  Z" fill="#202020"></path>
<path d="M 128.92 108.54
  C 120.67 108.09 109.21 106.69 103.28 101.52
  C 95.24 94.50 97.77 83.40 104.21 75.74
  Q 108.46 70.68 116.76 64.98
  C 134.69 52.64 156.09 44.86 177.47 41.24
  C 185.40 39.89 195.41 39.02 202.91 42.15
  C 209.80 45.02 211.25 53.16 204.48 57.28
  Q 200.74 59.57 196.39 60.45
  C 174.05 64.94 152.55 71.75 133.82 85.17
  Q 132.44 86.16 134.13 86.15
  Q 137.45 86.15 141.49 85.85
  Q 159.30 84.51 177.12 83.41
  C 181.89 83.12 187.29 83.47 191.67 85.56
  C 196.98 88.11 197.36 93.72 193.54 98.05
  Q 190.59 101.39 186.55 103.45
  Q 159.28 117.33 133.67 134.11
  Q 111.05 148.92 90.60 166.60
  C 84.48 171.89 78.59 177.42 74.87 184.83
  C 69.71 195.12 87.16 196.13 92.75 195.46
  Q 108.51 193.59 122.50 190.47
  Q 158.04 182.56 193.03 172.48
  C 199.47 170.62 206.59 175.56 203.32 182.77
  Q 201.29 187.25 195.58 189.90
  C 161.14 205.89 122.65 217.65 84.50 218.92
  Q 74.44 219.25 69.00 218.48
  C 56.32 216.69 44.89 206.29 44.55 193.09
  C 44.10 175.07 61.97 156.37 74.47 145.70
  Q 81.53 139.68 95.81 130.29
  Q 112.40 119.39 129.10 109.28
  Q 130.22 108.61 128.92 108.54
  Z" fill="#16cca1"></path>
</svg>
