<svg viewBox="0.00 0.00 192.00 192.00" version="1.1" xmlns="http://www.w3.org/2000/svg">
<g stroke-linecap="butt" fill="none" stroke-width="2.00">
<path d="M 159.55 92.67
  C 143.16 89.33 126.39 82.01 116.35 67.78
  Q 116.03 67.33 115.49 67.33
  L 32.82 67.33
  Q 31.97 67.33 31.97 68.18
  L 31.98 123.88
  Q 31.98 124.69 32.79 124.69
  L 115.50 124.69
  Q 115.97 124.69 116.24 124.31
  C 126.43 110.39 142.72 102.46 159.40 99.37
  A 0.63 0.62 78.1 0 0 159.89 98.61
  Q 159.24 95.94 159.93 93.29
  Q 160.06 92.78 159.55 92.67" stroke="#34985c"></path>
<path d="M 82.73 74.47
  A 0.51 0.51 0.0 0 0 82.22 73.96
  L 62.80 73.96
  A 0.51 0.51 0.0 0 0 62.29 74.47
  L 62.29 93.85
  A 0.51 0.51 0.0 0 0 62.80 94.36
  L 82.22 94.36
  A 0.51 0.51 0.0 0 0 82.73 93.85
  L 82.73 74.47" stroke="#34985c"></path>
<path d="M 116.03 114.52
  Q 124.82 105.12 136.37 99.83
  Q 137.57 99.27 136.24 99.27
  L 113.76 99.28
  Q 113.31 99.28 113.07 99.66
  Q 111.21 102.54 108.14 103.10
  C 98.80 104.80 96.02 90.79 105.54 88.91
  Q 110.09 88.01 113.11 92.37
  Q 113.35 92.73 113.79 92.73
  L 136.24 92.69
  Q 137.52 92.68 136.36 92.15
  Q 122.71 85.90 113.08 74.38
  Q 112.76 73.99 112.26 73.99
  L 89.85 73.95
  A 0.58 0.58 0.0 0 0 89.27 74.53
  L 89.27 117.54
  A 0.52 0.52 0.0 0 0 89.79 118.06
  L 112.01 118.13
  Q 112.53 118.13 112.89 117.76
  Q 114.54 116.12 116.03 114.52" stroke="#34985c"></path>
<path d="M 59.0070 98.1378
  A 0.46 0.46 0.0 0 0 58.5478 97.6770
  L 39.0878 97.6430
  A 0.46 0.46 0.0 0 0 38.6270 98.1022
  L 38.5930 117.5822
  A 0.46 0.46 0.0 0 0 39.0522 118.0430
  L 58.5122 118.0770
  A 0.46 0.46 0.0 0 0 58.9730 117.6178
  L 59.0070 98.1378" stroke="#34985c"></path>
</g>
<path d="M 0.00 0.00
  L 192.00 0.00
  L 192.00 192.00
  L 0.00 192.00
  L 0.00 0.00
  Z
  M 159.55 92.67
  C 143.16 89.33 126.39 82.01 116.35 67.78
  Q 116.03 67.33 115.49 67.33
  L 32.82 67.33
  Q 31.97 67.33 31.97 68.18
  L 31.98 123.88
  Q 31.98 124.69 32.79 124.69
  L 115.50 124.69
  Q 115.97 124.69 116.24 124.31
  C 126.43 110.39 142.72 102.46 159.40 99.37
  A 0.63 0.62 78.1 0 0 159.89 98.61
  Q 159.24 95.94 159.93 93.29
  Q 160.06 92.78 159.55 92.67
  Z" fill="#33fa83"></path>
<path d="M 116.35 67.78
  C 126.39 82.01 143.16 89.33 159.55 92.67
  Q 160.06 92.78 159.93 93.29
  Q 159.24 95.94 159.89 98.61
  A 0.63 0.62 78.1 0 1 159.40 99.37
  C 142.72 102.46 126.43 110.39 116.24 124.31
  Q 115.97 124.69 115.50 124.69
  L 32.79 124.69
  Q 31.98 124.69 31.98 123.88
  L 31.97 68.18
  Q 31.97 67.33 32.82 67.33
  L 115.49 67.33
  Q 116.03 67.33 116.35 67.78
  Z
  M 82.73 74.47
  A 0.51 0.51 0.0 0 0 82.22 73.96
  L 62.80 73.96
  A 0.51 0.51 0.0 0 0 62.29 74.47
  L 62.29 93.85
  A 0.51 0.51 0.0 0 0 62.80 94.36
  L 82.22 94.36
  A 0.51 0.51 0.0 0 0 82.73 93.85
  L 82.73 74.47
  Z
  M 116.03 114.52
  Q 124.82 105.12 136.37 99.83
  Q 137.57 99.27 136.24 99.27
  L 113.76 99.28
  Q 113.31 99.28 113.07 99.66
  Q 111.21 102.54 108.14 103.10
  C 98.80 104.80 96.02 90.79 105.54 88.91
  Q 110.09 88.01 113.11 92.37
  Q 113.35 92.73 113.79 92.73
  L 136.24 92.69
  Q 137.52 92.68 136.36 92.15
  Q 122.71 85.90 113.08 74.38
  Q 112.76 73.99 112.26 73.99
  L 89.85 73.95
  A 0.58 0.58 0.0 0 0 89.27 74.53
  L 89.27 117.54
  A 0.52 0.52 0.0 0 0 89.79 118.06
  L 112.01 118.13
  Q 112.53 118.13 112.89 117.76
  Q 114.54 116.12 116.03 114.52
  Z
  M 59.0070 98.1378
  A 0.46 0.46 0.0 0 0 58.5478 97.6770
  L 39.0878 97.6430
  A 0.46 0.46 0.0 0 0 38.6270 98.1022
  L 38.5930 117.5822
  A 0.46 0.46 0.0 0 0 39.0522 118.0430
  L 58.5122 118.0770
  A 0.46 0.46 0.0 0 0 58.9730 117.6178
  L 59.0070 98.1378
  Z" fill="#353535"></path>
<rect rx="0.51" height="20.40" width="20.44" y="73.96" x="62.29" fill="#33fa83"></rect>
<path d="M 116.03 114.52
  Q 114.54 116.12 112.89 117.76
  Q 112.53 118.13 112.01 118.13
  L 89.79 118.06
  A 0.52 0.52 0.0 0 1 89.27 117.54
  L 89.27 74.53
  A 0.58 0.58 0.0 0 1 89.85 73.95
  L 112.26 73.99
  Q 112.76 73.99 113.08 74.38
  Q 122.71 85.90 136.36 92.15
  Q 137.52 92.68 136.24 92.69
  L 113.79 92.73
  Q 113.35 92.73 113.11 92.37
  Q 110.09 88.01 105.54 88.91
  C 96.02 90.79 98.80 104.80 108.14 103.10
  Q 111.21 102.54 113.07 99.66
  Q 113.31 99.28 113.76 99.28
  L 136.24 99.27
  Q 137.57 99.27 136.37 99.83
  Q 124.82 105.12 116.03 114.52
  Z" fill="#33fa83"></path>
<rect rx="0.46" height="20.40" width="20.38" transform="translate(48.80,107.86) rotate(0.1)" y="-10.20" x="-10.19" fill="#33fa83"></rect>
</svg>
