<svg viewBox="0.00 0.00 288.00 288.00" version="1.1" xmlns="http://www.w3.org/2000/svg">
<path d="M 74.18 194.73
  A 0.35 0.35 0.0 0 0 74.48 195.25
  L 216.24 195.25
  A 0.35 0.35 0.0 0 0 216.54 194.73
  L 145.66 70.68
  A 0.35 0.35 0.0 0 0 145.06 70.68
  L 74.18 194.73" stroke-linecap="butt" fill="none" stroke-width="2.00" stroke="#808080"></path>
<path d="M 138.05 0.00
  L 150.24 0.00
  C 225.90 4.11 285.26 63.60 288.00 139.56
  L 288.00 149.51
  C 284.27 225.50 224.69 285.23 148.45 288.00
  L 138.37 288.00
  Q 70.27 283.85 29.65 231.59
  Q 2.50 196.66 0.00 150.16
  L 0.00 137.50
  Q 4.36 71.64 54.17 31.42
  Q 89.96 2.52 138.05 0.00
  Z
  M 74.18 194.73
  A 0.35 0.35 0.0 0 0 74.48 195.25
  L 216.24 195.25
  A 0.35 0.35 0.0 0 0 216.54 194.73
  L 145.66 70.68
  A 0.35 0.35 0.0 0 0 145.06 70.68
  L 74.18 194.73
  Z" fill="#000000"></path>
<path d="M 74.18 194.73
  L 145.06 70.68
  A 0.35 0.35 0.0 0 1 145.66 70.68
  L 216.54 194.73
  A 0.35 0.35 0.0 0 1 216.24 195.25
  L 74.48 195.25
  A 0.35 0.35 0.0 0 1 74.18 194.73
  Z" fill="#ffffff"></path>
</svg>
