<svg viewBox="0.00 0.00 128.00 128.00" version="1.1" xmlns="http://www.w3.org/2000/svg">
<g stroke-linecap="butt" fill="none" stroke-width="2.00">
<path d="M 34.06 36.08
  L 26.21 52.22" stroke="#b79cc6"></path>
<path d="M 26.21 52.22
  L 19.69 65.50
  A 2.30 2.29 -44.9 0 0 19.68 67.54
  L 28.05 84.79" stroke="#d994be"></path>
<path d="M 28.05 84.79
  L 41.86 113.39
  A 10.08 9.94 8.3 0 0 44.24 116.54
  L 56.40 127.37
  A 0.64 0.58 -40.8 0 0 57.15 127.39
  Q 57.30 127.29 57.35 126.93
  Q 58.58 117.97 59.63 108.99
  C 60.06 105.30 56.20 98.24 54.70 94.87" stroke="#f28db7"></path>
<path d="M 54.70 94.87
  L 46.80 76.02
  Q 46.58 75.50 47.13 75.38
  L 59.10 72.75" stroke="#d994be"></path>
<path d="M 59.10 72.75
  L 91.50 65.84
  A 7.63 7.56 19.3 0 0 94.69 64.32
  L 107.74 53.72
  Q 108.47 53.13 107.60 52.80
  Q 98.55 49.30 89.87 45.79
  Q 87.79 44.95 86.00 45.28
  Q 68.50 48.50 50.66 51.85
  Q 49.25 52.11 49.86 50.81
  L 52.29 45.65" stroke="#b79cc6"></path>
<path d="M 52.29 45.65
  Q 58.91 31.37 65.28 17.30
  C 67.20 13.07 66.51 5.56 66.45 0.80
  A 0.54 0.54 0.0 0 0 65.66 0.32
  L 47.21 10.00
  A 2.42 2.40 -1.4 0 0 46.18 11.07
  L 34.06 36.08" stroke="#a1a1cc"></path>
<path d="M 52.29 45.65
  Q 49.56 45.69 47.15 44.15
  Q 43.70 41.95 43.66 41.92
  Q 38.82 39.35 34.06 36.08" stroke="#593e93"></path>
<path d="M 59.10 72.75
  Q 58.59 71.67 57.74 71.53
  Q 57.72 71.53 56.88 71.12
  Q 56.57 70.96 56.62 70.68
  A 0.36 0.35 -76.9 0 0 56.38 70.28
  Q 54.91 69.79 53.48 69.16
  C 51.64 68.35 50.40 66.57 48.89 65.85
  Q 47.14 65.02 46.06 64.38
  Q 43.38 62.81 43.32 62.78
  C 40.94 61.59 37.70 60.33 35.75 58.56
  Q 35.15 58.01 34.25 57.91
  Q 33.90 57.87 33.86 57.51
  Q 33.83 57.22 33.50 57.12
  Q 28.87 55.79 26.21 52.22" stroke="#913085"></path>
<path d="M 54.70 94.87
  Q 53.38 93.87 52.46 93.88
  Q 52.06 93.89 51.73 93.69
  C 50.23 92.79 48.90 92.28 47.59 91.10
  Q 41.48 85.58 33.43 83.63
  Q 32.65 83.44 31.37 83.61
  Q 30.36 83.74 29.24 83.62
  Q 28.17 83.50 28.05 84.79" stroke="#cb2276"></path>
</g>
<path d="M 0.00 0.00
  L 128.00 0.00
  L 128.00 128.00
  L 0.00 128.00
  L 0.00 0.00
  Z
  M 34.06 36.08
  L 26.21 52.22
  L 19.69 65.50
  A 2.30 2.29 -44.9 0 0 19.68 67.54
  L 28.05 84.79
  L 41.86 113.39
  A 10.08 9.94 8.3 0 0 44.24 116.54
  L 56.40 127.37
  A 0.64 0.58 -40.8 0 0 57.15 127.39
  Q 57.30 127.29 57.35 126.93
  Q 58.58 117.97 59.63 108.99
  C 60.06 105.30 56.20 98.24 54.70 94.87
  L 46.80 76.02
  Q 46.58 75.50 47.13 75.38
  L 59.10 72.75
  L 91.50 65.84
  A 7.63 7.56 19.3 0 0 94.69 64.32
  L 107.74 53.72
  Q 108.47 53.13 107.60 52.80
  Q 98.55 49.30 89.87 45.79
  Q 87.79 44.95 86.00 45.28
  Q 68.50 48.50 50.66 51.85
  Q 49.25 52.11 49.86 50.81
  L 52.29 45.65
  Q 58.91 31.37 65.28 17.30
  C 67.20 13.07 66.51 5.56 66.45 0.80
  A 0.54 0.54 0.0 0 0 65.66 0.32
  L 47.21 10.00
  A 2.42 2.40 -1.4 0 0 46.18 11.07
  L 34.06 36.08
  Z" fill="#ffffff"></path>
<path d="M 52.29 45.65
  Q 49.56 45.69 47.15 44.15
  Q 43.70 41.95 43.66 41.92
  Q 38.82 39.35 34.06 36.08
  L 46.18 11.07
  A 2.42 2.40 -1.4 0 1 47.21 10.00
  L 65.66 0.32
  A 0.54 0.54 0.0 0 1 66.45 0.80
  C 66.51 5.56 67.20 13.07 65.28 17.30
  Q 58.91 31.37 52.29 45.65
  Z" fill="#424399"></path>
<path d="M 34.06 36.08
  Q 38.82 39.35 43.66 41.92
  Q 43.70 41.95 47.15 44.15
  Q 49.56 45.69 52.29 45.65
  L 49.86 50.81
  Q 49.25 52.11 50.66 51.85
  Q 68.50 48.50 86.00 45.28
  Q 87.79 44.95 89.87 45.79
  Q 98.55 49.30 107.60 52.80
  Q 108.47 53.13 107.74 53.72
  L 94.69 64.32
  A 7.63 7.56 19.3 0 1 91.50 65.84
  L 59.10 72.75
  Q 58.59 71.67 57.74 71.53
  Q 57.72 71.53 56.88 71.12
  Q 56.57 70.96 56.62 70.68
  A 0.36 0.35 -76.9 0 0 56.38 70.28
  Q 54.91 69.79 53.48 69.16
  C 51.64 68.35 50.40 66.57 48.89 65.85
  Q 47.14 65.02 46.06 64.38
  Q 43.38 62.81 43.32 62.78
  C 40.94 61.59 37.70 60.33 35.75 58.56
  Q 35.15 58.01 34.25 57.91
  Q 33.90 57.87 33.86 57.51
  Q 33.83 57.22 33.50 57.12
  Q 28.87 55.79 26.21 52.22
  L 34.06 36.08
  Z" fill="#6f388d"></path>
<path d="M 26.21 52.22
  Q 28.87 55.79 33.50 57.12
  Q 33.83 57.22 33.86 57.51
  Q 33.90 57.87 34.25 57.91
  Q 35.15 58.01 35.75 58.56
  C 37.70 60.33 40.94 61.59 43.32 62.78
  Q 43.38 62.81 46.06 64.38
  Q 47.14 65.02 48.89 65.85
  C 50.40 66.57 51.64 68.35 53.48 69.16
  Q 54.91 69.79 56.38 70.28
  A 0.36 0.35 -76.9 0 1 56.62 70.68
  Q 56.57 70.96 56.88 71.12
  Q 57.72 71.53 57.74 71.53
  Q 58.59 71.67 59.10 72.75
  L 47.13 75.38
  Q 46.58 75.50 46.80 76.02
  L 54.70 94.87
  Q 53.38 93.87 52.46 93.88
  Q 52.06 93.89 51.73 93.69
  C 50.23 92.79 48.90 92.28 47.59 91.10
  Q 41.48 85.58 33.43 83.63
  Q 32.65 83.44 31.37 83.61
  Q 30.36 83.74 29.24 83.62
  Q 28.17 83.50 28.05 84.79
  L 19.68 67.54
  A 2.30 2.29 -44.9 0 1 19.69 65.50
  L 26.21 52.22
  Z" fill="#b2287d"></path>
<path d="M 54.70 94.87
  C 56.20 98.24 60.06 105.30 59.63 108.99
  Q 58.58 117.97 57.35 126.93
  Q 57.30 127.29 57.15 127.39
  A 0.64 0.58 -40.8 0 1 56.40 127.37
  L 44.24 116.54
  A 10.08 9.94 8.3 0 1 41.86 113.39
  L 28.05 84.79
  Q 28.17 83.50 29.24 83.62
  Q 30.36 83.74 31.37 83.61
  Q 32.65 83.44 33.43 83.63
  Q 41.48 85.58 47.59 91.10
  C 48.90 92.28 50.23 92.79 51.73 93.69
  Q 52.06 93.89 52.46 93.88
  Q 53.38 93.87 54.70 94.87
  Z" fill="#e41b6f"></path>
</svg>
