<svg viewBox="0.00 0.00 256.00 256.00" version="1.1" xmlns="http://www.w3.org/2000/svg">
<path d="M 133.24 207.61
  C 132.15 208.34 131.48 209.97 130.86 210.77
  C 120.84 223.71 109.51 232.55 93.25 235.53
  Q 81.70 237.65 71.76 235.19
  C 51.94 230.30 33.74 214.59 29.66 193.99
  C 28.48 188.04 27.73 182.47 28.49 176.33
  C 29.50 168.22 31.02 161.38 35.22 154.27
  C 39.77 146.57 47.08 137.19 55.38 133.42
  A 0.76 0.76 0.0 0 0 55.73 132.35
  Q 54.99 131.05 53.90 130.10
  Q 44.44 121.90 38.28 114.22
  C 30.07 103.99 27.44 87.99 28.78 75.50
  C 31.40 51.13 53.35 28.94 78.00 27.65
  C 84.65 27.30 91.04 27.09 97.24 28.58
  C 105.34 30.52 111.76 33.67 118.21 39.40
  Q 126.26 46.56 132.77 54.89
  A 1.05 1.05 0.0 0 0 134.50 54.78
  C 136.42 51.58 138.16 48.31 140.55 45.62
  C 148.92 36.16 158.91 30.77 170.98 28.07
  C 187.20 24.46 206.09 28.54 218.38 40.18
  C 224.61 46.07 230.46 51.92 233.68 59.82
  C 236.00 65.51 237.74 73.19 237.92 79.55
  C 238.56 101.44 228.34 117.84 210.86 130.56
  A 1.79 1.78 -46.4 0 0 210.93 133.49
  C 215.50 136.52 220.06 140.79 223.71 144.50
  C 234.48 155.44 239.48 173.42 237.26 188.42
  C 231.75 225.77 192.88 247.29 157.94 230.82
  C 149.31 226.76 137.95 216.32 134.20 207.88
  A 0.65 0.65 0.0 0 0 133.24 207.61
  Z
  M 184.86 122.23
  Q 204.53 120.38 215.13 105.91
  C 242.78 68.17 195.01 21.99 158.12 49.77
  Q 147.32 57.91 143.61 71.33
  Q 142.90 73.93 141.71 84.76
  Q 140.30 97.61 136.25 107.53
  C 130.84 120.79 117.15 133.35 102.48 136.90
  Q 93.37 139.10 84.08 140.26
  Q 74.01 141.53 70.59 142.68
  C 52.65 148.72 41.92 165.57 43.14 184.51
  Q 43.87 195.79 50.74 204.75
  Q 64.92 223.23 86.43 221.38
  C 107.65 219.56 122.43 203.71 124.18 182.32
  C 124.79 174.91 126.08 166.21 128.70 159.52
  C 133.19 148.03 140.04 137.20 151.24 131.48
  Q 157.41 128.34 165.50 125.49
  Q 171.04 123.54 184.86 122.23
  Z
  M 124.24 82.40
  A 40.49 40.49 0.0 0 0 83.75 41.91
  A 40.49 40.49 0.0 0 0 43.26 82.40
  A 40.49 40.49 0.0 0 0 83.75 122.89
  A 40.49 40.49 0.0 0 0 124.24 82.40
  Z
  M 222.88 181.07
  A 40.48 40.48 0.0 0 0 182.40 140.59
  A 40.48 40.48 0.0 0 0 141.92 181.07
  A 40.48 40.48 0.0 0 0 182.40 221.55
  A 40.48 40.48 0.0 0 0 222.88 181.07
  Z" fill="#7d16ff"></path>
</svg>
