<svg viewBox="0.00 0.00 64.00 64.00" version="1.1" xmlns="http://www.w3.org/2000/svg">
<g stroke-linecap="butt" fill="none" stroke-width="2.00">
<path d="M 25.97 17.00
  Q 24.99 17.89 24.65 18.74
  Q 22.12 25.03 13.87 46.51
  A 0.18 0.18 0.0 0 0 14.03 46.75
  L 21.72 46.76
  Q 21.96 46.76 22.05 46.54
  Q 26.31 35.71 30.59 24.59
  Q 31.03 23.44 32.91 24.18" stroke="#92a2e9"></path>
<path d="M 32.91 24.18
  L 41.64 46.49
  Q 41.74 46.74 42.01 46.74
  L 49.93 46.75
  A 0.17 0.17 0.0 0 0 50.09 46.52
  Q 44.72 32.78 39.60 19.55
  C 37.63 14.47 33.75 15.05 28.76 15.33
  Q 27.05 15.43 25.97 17.00" stroke="#8696dd"></path>
<path d="M 32.91 24.18
  L 31.27 19.56
  A 3.45 3.31 -16.5 0 0 27.25 17.48
  Q 26.96 17.55 25.97 17.00" stroke="#f3f3f3"></path>
</g>
<path d="M 0.00 0.00
  L 64.00 0.00
  L 64.00 64.00
  L 0.00 64.00
  L 0.00 0.00
  Z
  M 25.97 17.00
  Q 24.99 17.89 24.65 18.74
  Q 22.12 25.03 13.87 46.51
  A 0.18 0.18 0.0 0 0 14.03 46.75
  L 21.72 46.76
  Q 21.96 46.76 22.05 46.54
  Q 26.31 35.71 30.59 24.59
  Q 31.03 23.44 32.91 24.18
  L 41.64 46.49
  Q 41.74 46.74 42.01 46.74
  L 49.93 46.75
  A 0.17 0.17 0.0 0 0 50.09 46.52
  Q 44.72 32.78 39.60 19.55
  C 37.63 14.47 33.75 15.05 28.76 15.33
  Q 27.05 15.43 25.97 17.00
  Z" fill="#2545d3"></path>
<path d="M 32.91 24.18
  L 31.27 19.56
  A 3.45 3.31 -16.5 0 0 27.25 17.48
  Q 26.96 17.55 25.97 17.00
  Q 27.05 15.43 28.76 15.33
  C 33.75 15.05 37.63 14.47 39.60 19.55
  Q 44.72 32.78 50.09 46.52
  A 0.17 0.17 0.0 0 1 49.93 46.75
  L 42.01 46.74
  Q 41.74 46.74 41.64 46.49
  L 32.91 24.18
  Z" fill="#e6e6e6"></path>
<path d="M 25.97 17.00
  Q 26.96 17.55 27.25 17.48
  A 3.45 3.31 -16.5 0 1 31.27 19.56
  L 32.91 24.18
  Q 31.03 23.44 30.59 24.59
  Q 26.31 35.71 22.05 46.54
  Q 21.96 46.76 21.72 46.76
  L 14.03 46.75
  A 0.18 0.18 0.0 0 1 13.87 46.51
  Q 22.12 25.03 24.65 18.74
  Q 24.99 17.89 25.97 17.00
  Z" fill="#ffffff"></path>
</svg>
