<svg viewBox="0.00 0.00 32.00 32.00" version="1.1" xmlns="http://www.w3.org/2000/svg">
<g stroke-linecap="butt" fill="none" stroke-width="2.00">
<path d="M 13.01 5.68
  L 6.34 10.73
  A 1.55 1.55 0.0 0 0 6.32 13.19
  L 9.08 15.35
  A 0.57 0.57 0.0 0 1 9.07 16.26
  L 6.44 18.20
  A 1.68 1.68 0.0 0 0 6.46 20.92
  L 15.24 27.14" stroke="#807788"></path>
<path d="M 15.24 27.14
  Q 15.51 27.39 15.84 27.48
  Q 16.38 27.64 16.82 27.31
  L 25.69 20.77
  A 1.52 1.52 0.0 0 0 25.70 18.34
  L 22.62 16.01
  Q 22.26 15.74 22.62 15.48
  L 25.22 13.53
  Q 27.31 11.96 25.21 10.40
  Q 21.60 7.74 17.69 4.51
  Q 15.67 2.85 13.01 5.68" stroke="#457484"></path>
<path d="M 15.24 27.14
  Q 15.95 26.63 16.05 26.38" stroke="#acd2f3"></path>
<path d="M 16.05 26.38
  L 22.62 21.13
  Q 23.50 20.42 22.37 20.40
  L 15.92 20.26" stroke="#457484"></path>
<path d="M 15.92 20.26
  Q 16.92 19.13 16.13 18.53" stroke="#acd2f3"></path>
<path d="M 16.13 18.53
  L 24.16 12.34
  A 0.49 0.49 0.0 0 0 24.16 11.56
  L 16.50 5.84
  Q 16.08 5.52 15.62 5.79
  L 14.04 6.76" stroke="#457484"></path>
<path d="M 14.04 6.76
  Q 13.73 5.51 13.01 5.68" stroke="#acd2f3"></path>
<path d="M 16.13 18.53
  L 7.95 12.23
  Q 7.52 11.90 7.94 11.57
  L 14.04 6.76" stroke="#807788"></path>
<path d="M 15.92 20.26
  L 11.53 17.18
  A 0.92 0.91 -46.5 0 0 10.45 17.21
  L 7.95 19.20
  Q 7.42 19.62 7.95 20.03
  L 16.05 26.38" stroke="#807788"></path>
<path d="M 19.29 18.10
  Q 18.54 18.74 19.53 18.75
  L 22.47 18.77
  Q 23.03 18.77 22.75 18.29
  Q 22.22 17.40 21.32 17.01
  A 0.85 0.85 0.0 0 0 20.42 17.14
  L 19.29 18.10" stroke="#457484"></path>
</g>
<path d="M 3.57 0.00
  L 28.98 0.00
  Q 31.20 1.00 32.00 3.02
  L 32.00 29.06
  Q 30.96 31.18 28.99 32.00
  L 2.94 32.00
  Q 0.78 30.93 0.00 28.96
  L 0.00 3.00
  Q 1.09 0.49 3.57 0.00
  Z
  M 13.01 5.68
  L 6.34 10.73
  A 1.55 1.55 0.0 0 0 6.32 13.19
  L 9.08 15.35
  A 0.57 0.57 0.0 0 1 9.07 16.26
  L 6.44 18.20
  A 1.68 1.68 0.0 0 0 6.46 20.92
  L 15.24 27.14
  Q 15.51 27.39 15.84 27.48
  Q 16.38 27.64 16.82 27.31
  L 25.69 20.77
  A 1.52 1.52 0.0 0 0 25.70 18.34
  L 22.62 16.01
  Q 22.26 15.74 22.62 15.48
  L 25.22 13.53
  Q 27.31 11.96 25.21 10.40
  Q 21.60 7.74 17.69 4.51
  Q 15.67 2.85 13.01 5.68
  Z" fill="#191919"></path>
<path d="M 15.24 27.14
  Q 15.95 26.63 16.05 26.38
  L 22.62 21.13
  Q 23.50 20.42 22.37 20.40
  L 15.92 20.26
  Q 16.92 19.13 16.13 18.53
  L 24.16 12.34
  A 0.49 0.49 0.0 0 0 24.16 11.56
  L 16.50 5.84
  Q 16.08 5.52 15.62 5.79
  L 14.04 6.76
  Q 13.73 5.51 13.01 5.68
  Q 15.67 2.85 17.69 4.51
  Q 21.60 7.74 25.21 10.40
  Q 27.31 11.96 25.22 13.53
  L 22.62 15.48
  Q 22.26 15.74 22.62 16.01
  L 25.70 18.34
  A 1.52 1.52 0.0 0 1 25.69 20.77
  L 16.82 27.31
  Q 16.38 27.64 15.84 27.48
  Q 15.51 27.39 15.24 27.14
  Z
  M 19.29 18.10
  Q 18.54 18.74 19.53 18.75
  L 22.47 18.77
  Q 23.03 18.77 22.75 18.29
  Q 22.22 17.40 21.32 17.01
  A 0.85 0.85 0.0 0 0 20.42 17.14
  L 19.29 18.10
  Z" fill="#70ceee"></path>
<path d="M 16.13 18.53
  L 7.95 12.23
  Q 7.52 11.90 7.94 11.57
  L 14.04 6.76
  L 15.62 5.79
  Q 16.08 5.52 16.50 5.84
  L 24.16 11.56
  A 0.49 0.49 0.0 0 1 24.16 12.34
  L 16.13 18.53
  Z" fill="#191919"></path>
<path d="M 13.01 5.68
  Q 13.73 5.51 14.04 6.76
  L 7.94 11.57
  Q 7.52 11.90 7.95 12.23
  L 16.13 18.53
  Q 16.92 19.13 15.92 20.26
  L 11.53 17.18
  A 0.92 0.91 -46.5 0 0 10.45 17.21
  L 7.95 19.20
  Q 7.42 19.62 7.95 20.03
  L 16.05 26.38
  Q 15.95 26.63 15.24 27.14
  L 6.46 20.92
  A 1.68 1.68 0.0 0 1 6.44 18.20
  L 9.07 16.26
  A 0.57 0.57 0.0 0 0 9.08 15.35
  L 6.32 13.19
  A 1.55 1.55 0.0 0 1 6.34 10.73
  L 13.01 5.68
  Z" fill="#e7d5f7"></path>
<path d="M 15.92 20.26
  L 22.37 20.40
  Q 23.50 20.42 22.62 21.13
  L 16.05 26.38
  L 7.95 20.03
  Q 7.42 19.62 7.95 19.20
  L 10.45 17.21
  A 0.92 0.91 -46.5 0 1 11.53 17.18
  L 15.92 20.26
  Z" fill="#191919"></path>
<path d="M 19.29 18.10
  L 20.42 17.14
  A 0.85 0.85 0.0 0 1 21.32 17.01
  Q 22.22 17.40 22.75 18.29
  Q 23.03 18.77 22.47 18.77
  L 19.53 18.75
  Q 18.54 18.74 19.29 18.10
  Z" fill="#191919"></path>
</svg>
