<svg viewBox="0.00 0.00 300.00 300.00" version="1.1" xmlns="http://www.w3.org/2000/svg">
<g stroke-linecap="butt" fill="none" stroke-width="2.00">
<path d="M 148.24 89.04
  Q 148.33 89.25 148.17 89.41
  Q 125.54 112.16 103.09 135.10
  Q 102.22 135.99 102.22 138.50
  Q 102.21 192.53 102.22 246.46
  Q 102.22 246.76 102.52 246.76
  L 151.99 246.75
  Q 152.50 246.75 152.50 246.24
  L 152.51 123.27" stroke="#a984b1"></path>
<path d="M 152.51 123.27
  Q 160.12 116.51 169.20 111.80" stroke="#835e8b"></path>
<path d="M 169.20 111.80
  C 183.17 105.90 200.44 104.50 214.64 111.08
  Q 215.16 111.32 215.16 110.74
  L 215.23 63.25
  Q 215.23 62.88 214.90 62.73
  Q 211.87 61.36 208.51 61.01
  C 185.92 58.67 162.64 68.55 149.73 87.36
  Q 149.02 88.40 148.90 87.14
  L 146.88 64.29
  Q 146.83 63.72 146.26 63.72
  L 102.76 63.72
  Q 102.24 63.72 102.24 64.24
  L 102.24 88.24
  Q 102.24 88.77 102.77 88.77
  L 148.24 89.04" stroke="#c29eca"></path>
<path d="M 169.20 111.80
  L 149.10 88.92
  Q 149.05 88.86 148.98 88.89
  Q 148.88 88.92 148.77 89.05" stroke="#c0c0c0"></path>
<path d="M 148.77 89.05
  Q 148.53 88.71 148.24 89.04" stroke="#e6e6e6"></path>
<path d="M 152.51 123.27
  L 148.77 89.05" stroke="#a6a6a7"></path>
</g>
<path d="M 146.38 0.00
  L 153.49 0.00
  C 233.84 2.48 297.54 65.84 300.00 146.38
  L 300.00 153.74
  Q 298.24 204.86 267.63 243.13
  Q 225.94 295.22 157.39 300.00
  L 142.53 300.00
  Q 95.85 297.28 60.34 270.41
  Q 5.02 228.56 0.00 157.40
  L 0.00 142.52
  C 4.50 63.55 67.44 2.54 146.38 0.00
  Z
  M 148.24 89.04
  Q 148.33 89.25 148.17 89.41
  Q 125.54 112.16 103.09 135.10
  Q 102.22 135.99 102.22 138.50
  Q 102.21 192.53 102.22 246.46
  Q 102.22 246.76 102.52 246.76
  L 151.99 246.75
  Q 152.50 246.75 152.50 246.24
  L 152.51 123.27
  Q 160.12 116.51 169.20 111.80
  C 183.17 105.90 200.44 104.50 214.64 111.08
  Q 215.16 111.32 215.16 110.74
  L 215.23 63.25
  Q 215.23 62.88 214.90 62.73
  Q 211.87 61.36 208.51 61.01
  C 185.92 58.67 162.64 68.55 149.73 87.36
  Q 149.02 88.40 148.90 87.14
  L 146.88 64.29
  Q 146.83 63.72 146.26 63.72
  L 102.76 63.72
  Q 102.24 63.72 102.24 64.24
  L 102.24 88.24
  Q 102.24 88.77 102.77 88.77
  L 148.24 89.04
  Z" fill="#853c94"></path>
<path d="M 169.20 111.80
  L 149.10 88.92
  Q 149.05 88.86 148.98 88.89
  Q 148.88 88.92 148.77 89.05
  Q 148.53 88.71 148.24 89.04
  L 102.77 88.77
  Q 102.24 88.77 102.24 88.24
  L 102.24 64.24
  Q 102.24 63.72 102.76 63.72
  L 146.26 63.72
  Q 146.83 63.72 146.88 64.29
  L 148.90 87.14
  Q 149.02 88.40 149.73 87.36
  C 162.64 68.55 185.92 58.67 208.51 61.01
  Q 211.87 61.36 214.90 62.73
  Q 215.23 62.88 215.23 63.25
  L 215.16 110.74
  Q 215.16 111.32 214.64 111.08
  C 200.44 104.50 183.17 105.90 169.20 111.80
  Z" fill="#ffffff"></path>
<path d="M 169.20 111.80
  Q 160.12 116.51 152.51 123.27
  L 148.77 89.05
  Q 148.88 88.92 148.98 88.89
  Q 149.05 88.86 149.10 88.92
  L 169.20 111.80
  Z" fill="#808081"></path>
<path d="M 148.24 89.04
  Q 148.53 88.71 148.77 89.05
  L 152.51 123.27
  L 152.50 246.24
  Q 152.50 246.75 151.99 246.75
  L 102.52 246.76
  Q 102.22 246.76 102.22 246.46
  Q 102.21 192.53 102.22 138.50
  Q 102.22 135.99 103.09 135.10
  Q 125.54 112.16 148.17 89.41
  Q 148.33 89.25 148.24 89.04
  Z" fill="#cccccd"></path>
</svg>
