<svg viewBox="0.00 0.00 96.00 96.00" version="1.1" xmlns="http://www.w3.org/2000/svg">
<path d="M 33.88 0.00
  L 35.50 0.00
  C 41.29 1.98 36.01 7.54 40.43 8.38
  A 1.75 1.64 -17.1 0 1 41.23 8.77
  Q 44.05 11.24 44.57 14.97
  Q 44.64 15.45 45.01 15.75
  Q 46.42 16.88 45.42 18.74
  Q 43.81 21.71 42.83 24.98
  Q 42.67 25.49 43.19 25.59
  C 52.85 27.53 63.22 37.90 54.79 47.70
  Q 49.82 53.49 41.04 51.37
  Q 40.89 51.33 40.84 51.48
  L 40.84 51.49
  Q 40.81 51.60 41.00 51.68
  Q 45.98 53.63 50.91 51.56
  Q 51.89 51.15 51.77 52.20
  C 51.26 56.67 51.18 58.76 55.26 61.15
  C 59.56 63.66 61.37 65.55 62.84 70.45
  C 64.59 76.28 65.79 80.19 70.82 83.54
  C 72.73 84.82 74.82 85.87 75.74 88.05
  Q 77.16 91.39 76.65 95.12
  A 0.08 0.08 0.0 0 1 76.49 95.14
  C 75.15 90.55 72.82 86.31 67.24 87.13
  C 60.29 88.14 59.32 84.85 56.46 79.74
  Q 53.05 73.65 45.00 73.58
  C 33.31 73.49 22.53 64.21 24.13 51.86
  Q 24.19 51.36 24.70 51.41
  C 31.58 52.09 36.60 47.52 42.61 45.31
  Q 43.07 45.14 42.58 45.17
  C 37.41 45.44 27.05 53.33 22.92 49.04
  C 14.92 40.73 20.79 30.04 30.12 26.72
  A 2.29 2.29 0.0 0 0 31.50 23.75
  C 30.81 21.90 29.03 18.94 29.06 17.02
  A 1.07 1.07 0.0 0 1 29.42 16.22
  Q 30.05 15.65 30.19 14.76
  Q 30.87 10.52 34.39 8.30
  Q 34.80 8.03 34.74 7.54
  Q 34.62 6.51 35.04 5.59
  Q 35.26 5.12 34.74 5.14
  C 31.87 5.25 32.15 7.96 29.98 9.04
  C 27.77 10.13 24.63 8.88 24.88 5.91
  Q 24.95 5.08 25.43 5.76
  Q 26.09 6.71 27.13 7.28
  Q 27.69 7.59 28.10 7.10
  C 30.28 4.51 29.92 1.46 33.88 0.00
  Z
  M 32.73 26.89
  L 36.60 29.45
  Q 37.11 29.78 37.66 29.54
  Q 40.22 28.42 42.20 26.48
  A 0.57 0.21 -43.9 0 0 42.46 25.95
  L 42.45 25.94
  Q 42.30 25.78 42.14 25.92
  Q 40.56 27.26 38.82 28.40
  C 37.17 29.49 34.13 27.16 33.02 26.29
  Q 32.92 26.21 32.85 26.32
  L 32.67 26.57
  Q 32.54 26.76 32.73 26.89
  Z
  M 50.51 44.73
  C 51.91 43.24 52.44 39.93 51.54 38.17
  Q 50.73 36.59 50.99 38.35
  Q 51.44 41.32 49.83 43.79
  A 0.57 0.57 0.0 0 0 49.93 44.52
  L 50.18 44.74
  Q 50.35 44.90 50.51 44.73
  Z
  M 29.19 42.58
  Q 29.13 41.35 29.47 40.25
  Q 30.24 37.75 28.66 39.83
  Q 27.45 41.42 28.08 43.61
  A 2.04 2.04 0.0 0 0 30.42 45.06
  C 34.04 44.40 37.68 42.55 41.09 41.19
  Q 41.20 41.14 41.17 41.02
  L 41.09 40.78
  Q 41.08 40.74 41.04 40.75
  L 30.95 43.82
  Q 29.27 44.34 29.19 42.58
  Z" fill="#8952e0"></path>
</svg>
