<svg viewBox="0.00 0.00 48.00 48.00" version="1.1" xmlns="http://www.w3.org/2000/svg">
<path d="M 21.59 0.00
  L 26.97 0.00
  Q 44.73 3.66 48.00 21.35
  L 48.00 26.74
  Q 44.53 44.65 26.64 48.00
  L 21.26 48.00
  Q 3.35 44.54 0.00 26.63
  L 0.00 21.28
  Q 3.52 3.17 21.59 0.00
  Z
  M 22.77 1.57
  Q 16.97 2.00 12.00 4.96
  Q 10.58 5.81 12.23 5.80
  L 22.71 5.79
  A 0.50 0.50 0.0 0 0 23.21 5.29
  L 23.25 2.02
  Q 23.26 1.53 22.77 1.57
  Z
  M 24.78 22.84
  A 0.38 0.38 0.0 0 0 25.16 23.22
  L 28.61 23.22
  A 0.38 0.38 0.0 0 0 28.99 22.84
  L 29.00 2.42
  A 0.38 0.38 0.0 0 0 28.68 2.04
  L 25.22 1.53
  A 0.38 0.38 0.0 0 0 24.78 1.90
  L 24.78 22.84
  Z
  M 34.81 4.47
  A 0.35 0.35 0.0 0 0 34.60 4.15
  L 31.11 2.64
  A 0.35 0.35 0.0 0 0 30.62 2.96
  L 30.60 22.88
  A 0.35 0.35 0.0 0 0 30.95 23.23
  L 34.46 23.22
  A 0.35 0.35 0.0 0 0 34.81 22.87
  L 34.81 4.47
  Z
  M 40.69 8.91
  A 0.34 0.34 0.0 0 0 40.57 8.65
  L 36.96 5.53
  A 0.34 0.34 0.0 0 0 36.40 5.78
  L 36.40 22.89
  A 0.34 0.34 0.0 0 0 36.74 23.23
  L 40.35 23.21
  A 0.34 0.34 0.0 0 0 40.69 22.87
  L 40.69 8.91
  Z
  M 8.89 7.36
  A 0.35 0.35 0.0 0 0 8.63 7.48
  L 5.52 11.04
  A 0.35 0.35 0.0 0 0 5.78 11.62
  L 22.87 11.63
  A 0.35 0.35 0.0 0 0 23.22 11.28
  L 23.24 7.68
  A 0.35 0.35 0.0 0 0 22.89 7.33
  L 8.89 7.36
  Z
  M 42.18 11.50
  L 42.22 22.72
  Q 42.22 23.23 42.72 23.23
  L 45.99 23.23
  Q 46.45 23.23 46.42 22.76
  Q 45.98 16.58 42.65 11.36
  A 0.26 0.26 0.0 0 0 42.18 11.50
  Z
  M 4.55 13.18
  A 0.41 0.41 0.0 0 0 4.17 13.42
  L 2.65 16.85
  A 0.41 0.41 0.0 0 0 3.03 17.43
  L 22.82 17.42
  A 0.41 0.41 0.0 0 0 23.23 17.01
  L 23.23 13.59
  A 0.41 0.41 0.0 0 0 22.82 13.18
  L 4.55 13.18
  Z
  M 22.83 23.23
  A 0.39 0.39 0.0 0 0 23.22 22.84
  L 23.24 19.39
  A 0.39 0.39 0.0 0 0 22.85 19.00
  L 2.41 19.00
  A 0.39 0.39 0.0 0 0 2.02 19.34
  L 1.56 22.79
  A 0.39 0.39 0.0 0 0 1.95 23.23
  L 22.83 23.23
  Z
  M 1.58 25.21
  Q 1.97 30.88 4.81 35.77
  Q 5.82 37.50 5.81 35.50
  L 5.78 25.17
  Q 5.78 24.80 5.41 24.80
  L 2.01 24.76
  Q 1.55 24.76 1.58 25.21
  Z
  M 7.32 39.05
  A 0.41 0.41 0.0 0 0 7.46 39.36
  L 10.93 42.42
  A 0.41 0.41 0.0 0 0 11.61 42.11
  L 11.62 25.19
  A 0.41 0.41 0.0 0 0 11.21 24.78
  L 7.72 24.78
  A 0.41 0.41 0.0 0 0 7.31 25.19
  L 7.32 39.05
  Z
  M 13.17 43.47
  A 0.41 0.41 0.0 0 0 13.41 43.85
  L 16.85 45.36
  A 0.41 0.41 0.0 0 0 17.42 44.98
  L 17.45 25.20
  A 0.41 0.41 0.0 0 0 17.04 24.79
  L 13.57 24.76
  A 0.41 0.41 0.0 0 0 13.16 25.17
  L 13.17 43.47
  Z
  M 19.01 45.58
  A 0.40 0.40 0.0 0 0 19.35 45.98
  L 22.77 46.47
  A 0.40 0.40 0.0 0 0 23.23 46.07
  L 23.24 25.19
  A 0.40 0.40 0.0 0 0 22.84 24.79
  L 19.41 24.77
  A 0.40 0.40 0.0 0 0 19.01 25.17
  L 19.01 45.58
  Z
  M 45.57 29.00
  A 0.39 0.39 0.0 0 0 45.96 28.67
  L 46.47 25.22
  A 0.39 0.39 0.0 0 0 46.09 24.77
  L 25.17 24.76
  A 0.39 0.39 0.0 0 0 24.78 25.15
  L 24.77 28.61
  A 0.39 0.39 0.0 0 0 25.16 29.00
  L 45.57 29.00
  Z
  M 43.46 34.82
  A 0.41 0.41 0.0 0 0 43.84 34.58
  L 45.36 31.15
  A 0.41 0.41 0.0 0 0 44.98 30.57
  L 25.18 30.58
  A 0.41 0.41 0.0 0 0 24.77 30.99
  L 24.77 34.40
  A 0.41 0.41 0.0 0 0 25.18 34.81
  L 43.46 34.82
  Z
  M 39.12 40.65
  A 0.35 0.35 0.0 0 0 39.38 40.53
  L 42.46 36.96
  A 0.35 0.35 0.0 0 0 42.20 36.38
  L 25.12 36.37
  A 0.35 0.35 0.0 0 0 24.77 36.72
  L 24.77 40.34
  A 0.35 0.35 0.0 0 0 25.12 40.69
  L 39.12 40.65
  Z
  M 25.22 46.43
  Q 31.14 46.01 36.20 42.92
  A 0.40 0.40 0.0 0 0 35.99 42.18
  L 25.28 42.22
  Q 24.78 42.22 24.77 42.72
  L 24.76 46.00
  Q 24.76 46.46 25.22 46.43
  Z" fill="#015dcc"></path>
</svg>
