<svg viewBox="0.00 0.00 160.00 160.00" version="1.1" xmlns="http://www.w3.org/2000/svg">
<g stroke-linecap="butt" fill="none" stroke-width="2.00">
<path d="M 28.46 70.39
  A 0.35 0.35 0.0 0 0 28.81 70.04
  L 28.81 37.44
  A 0.35 0.35 0.0 0 1 29.46 37.25
  L 50.24 70.35
  A 0.35 0.35 0.0 0 0 50.53 70.51
  L 57.72 70.50
  A 0.35 0.35 0.0 0 0 58.07 70.15
  L 58.06 23.91
  A 0.35 0.35 0.0 0 0 57.71 23.56
  L 51.09 23.55
  A 0.35 0.35 0.0 0 0 50.74 23.90
  L 50.73 56.50
  A 0.35 0.35 0.0 0 1 50.08 56.68
  L 29.30 23.66
  A 0.35 0.35 0.0 0 0 29.01 23.50
  L 21.85 23.47
  A 0.35 0.35 0.0 0 0 21.50 23.82
  L 21.50 70.03
  A 0.35 0.35 0.0 0 0 21.85 70.38
  L 28.46 70.39" stroke="#808080"></path>
<path d="M 110.84 39.26
  A 0.32 0.32 0.0 0 1 110.52 38.94
  L 110.52 30.30
  A 0.32 0.32 0.0 0 0 110.20 29.98
  L 103.87 29.97
  A 0.32 0.32 0.0 0 0 103.55 30.29
  L 103.55 38.94
  A 0.32 0.32 0.0 0 1 103.23 39.26
  L 95.65 39.26
  A 0.32 0.32 0.0 0 0 95.33 39.58
  L 95.35 45.22
  A 0.32 0.32 0.0 0 0 95.67 45.54
  L 103.23 45.54
  A 0.32 0.32 0.0 0 1 103.55 45.86
  L 103.55 70.18
  A 0.32 0.32 0.0 0 0 103.87 70.50
  L 110.20 70.51
  A 0.32 0.32 0.0 0 0 110.52 70.19
  L 110.52 45.86
  A 0.32 0.32 0.0 0 1 110.84 45.54
  L 118.31 45.55
  A 0.32 0.32 0.0 0 0 118.63 45.23
  L 118.66 39.58
  A 0.32 0.32 0.0 0 0 118.34 39.26
  L 110.84 39.26" stroke="#808080"></path>
<path d="M 130.47 57.24
  L 150.21 57.24
  Q 150.57 57.24 150.64 56.88
  Q 151.99 49.12 147.99 43.99
  C 142.37 36.77 131.49 36.90 125.35 43.34
  C 119.58 49.37 119.27 58.96 124.68 65.31
  C 130.97 72.68 141.62 72.52 149.07 67.23
  A 0.36 0.35 -31.6 0 0 149.18 66.78
  L 146.63 62.07
  A 0.30 0.29 59.7 0 0 146.22 61.96
  Q 141.29 64.92 135.57 64.14
  Q 132.05 63.66 129.93 60.81
  L 129.18 59.80
  Q 127.28 57.24 130.47 57.24" stroke="#808080"></path>
<path d="M 83.06 69.15
  C 87.99 66.87 90.92 61.79 90.93 56.25
  Q 90.94 48.73 90.78 40.91
  Q 90.75 39.64 89.48 39.64
  L 64.19 39.69
  A 1.41 1.41 0.0 0 0 62.78 41.10
  L 62.75 68.99
  A 1.48 1.47 0.6 0 0 64.21 70.47
  C 70.07 70.54 78.36 71.32 83.06 69.15" stroke="#7f6100"></path>
<path d="M 119.46 88.97
  Q 120.20 89.16 120.52 89.63
  A 1.82 1.82 0.0 0 0 123.52 89.62
  C 125.58 86.60 123.72 83.85 120.64 82.65
  Q 120.00 82.40 120.33 81.81
  L 120.68 81.15
  A 1.29 1.26 -38.1 0 0 120.80 80.23
  Q 120.52 79.07 120.97 77.99
  Q 121.14 77.59 120.71 77.52
  Q 119.32 77.31 118.43 76.31
  Q 118.03 75.85 118.12 75.36
  Q 118.21 74.88 118.57 74.59
  A 0.76 0.73 -67.9 0 1 118.93 74.43
  Q 119.62 74.35 120.27 74.56
  Q 121.54 74.96 120.62 74.13
  L 119.86 73.43
  A 1.27 1.27 0.0 0 0 117.74 74.27
  Q 117.51 77.18 114.77 77.59
  Q 114.29 77.66 114.54 78.08
  Q 115.12 79.10 114.73 80.25
  Q 114.57 80.71 114.79 81.14
  Q 114.97 81.49 115.25 81.76
  Q 115.79 82.28 115.09 82.54
  Q 112.93 83.34 111.61 85.09
  C 109.96 87.29 110.71 90.03 113.65 90.34
  Q 114.11 90.39 114.11 90.85
  C 114.07 93.26 115.16 97.12 118.44 96.19
  C 119.25 95.96 120.19 96.01 120.58 96.73
  A 0.81 0.80 -43.3 0 0 121.97 96.77
  Q 122.63 95.71 121.88 95.03
  C 120.89 94.11 119.07 94.88 118.15 95.54
  Q 117.76 95.82 117.39 95.51
  Q 116.82 95.02 117.31 94.27
  Q 118.29 92.79 120.75 91.30
  A 0.57 0.57 0.0 0 0 120.82 90.38
  L 119.37 89.14
  Q 119.04 88.86 119.46 88.97" stroke="#6c1419"></path>
<path d="M 40.96 105.43
  L 40.96 110.49
  A 1.74 1.73 70.3 0 1 40.33 111.83
  C 32.86 117.89 21.37 116.58 15.69 108.77
  C 10.72 101.94 11.76 91.63 18.57 86.26
  C 25.03 81.17 33.60 81.55 40.17 86.46
  Q 40.41 86.64 40.60 86.41
  L 44.94 81.26
  A 0.28 0.27 -52.5 0 0 44.89 80.86
  Q 35.23 73.91 25.74 75.50
  C 13.16 77.62 4.59 88.18 5.32 100.88
  C 6.54 122.01 35.14 131.30 48.13 113.99
  Q 48.40 113.64 48.40 113.19
  L 48.29 98.27
  Q 48.29 97.76 47.77 97.76
  L 27.56 97.75
  Q 27.12 97.75 27.12 98.19
  L 27.11 104.47
  A 0.37 0.37 0.0 0 0 27.47 104.84
  L 40.42 104.89
  Q 40.95 104.89 40.96 105.43" stroke="#7f6100"></path>
<path d="M 59.03 109.28
  L 80.22 109.29
  Q 80.62 109.29 80.67 108.89
  C 81.58 101.75 79.16 94.82 72.23 91.81
  Q 68.12 90.02 63.38 91.12
  C 52.13 93.75 47.60 106.79 53.87 116.21
  C 59.46 124.61 71.18 124.59 79.04 119.21
  Q 79.25 119.06 79.13 118.84
  L 76.55 114.04
  Q 76.43 113.80 76.20 113.94
  C 70.62 117.42 60.39 117.81 58.64 109.78
  Q 58.53 109.28 59.03 109.28" stroke="#7f6100"></path>
<path d="M 90.40 92.42
  Q 90.33 92.22 90.41 92.02
  Q 90.64 91.42 90.00 91.42
  L 84.51 91.48
  Q 84.01 91.48 84.01 91.99
  L 83.86 121.95
  Q 83.86 122.30 84.20 122.30
  L 90.48 122.31
  A 0.26 0.26 0.0 0 0 90.74 122.05
  Q 90.72 113.80 90.76 105.27
  C 90.78 101.17 92.24 98.10 96.51 97.74
  Q 102.43 97.25 104.27 103.06
  Q 104.42 103.52 104.90 103.62
  L 110.59 104.79
  Q 111.24 104.92 111.26 104.25
  C 111.59 93.15 100.15 88.05 91.04 92.68
  Q 90.57 92.92 90.40 92.42" stroke="#7f6100"></path>
<path d="M 126.06 105.37
  C 130.24 104.15 135.69 104.54 137.99 108.84
  Q 138.23 109.29 138.74 109.29
  L 153.96 109.28
  Q 154.36 109.28 154.42 108.89
  C 157.92 87.35 128.67 84.21 125.05 104.47
  A 0.80 0.79 -3.0 0 0 126.06 105.37" stroke="#7f6100"></path>
<path d="M 116.76 106.89
  L 111.48 107.11
  Q 110.61 107.15 111.33 107.63
  Q 116.03 110.77 121.66 111.37
  Q 121.83 111.39 121.82 111.55
  L 121.82 111.56
  Q 121.81 111.70 121.67 111.69
  C 115.49 111.42 112.04 108.17 107.24 106.67
  C 104.05 105.67 96.20 103.80 93.55 106.51
  Q 93.17 106.89 93.71 106.83
  C 102.42 105.86 106.44 110.91 111.82 116.42
  Q 112.85 117.48 115.19 118.46
  Q 115.66 118.66 115.57 119.16
  C 115.03 122.42 112.83 120.54 111.58 122.09
  Q 111.29 122.45 111.75 122.45
  L 124.50 122.43
  Q 126.66 122.43 124.60 121.79
  Q 121.60 120.87 121.06 119.65
  A 0.75 0.74 68.7 0 1 121.50 118.63
  C 125.28 117.36 126.05 115.20 127.76 112.34
  C 129.13 110.05 131.07 108.49 133.58 110.10
  A 2.60 2.60 0.0 0 1 134.41 113.66
  C 133.30 115.47 129.85 114.57 129.91 112.65
  Q 129.96 110.58 129.19 112.51
  Q 128.87 113.31 127.86 114.25
  Q 127.53 114.56 127.98 114.62
  Q 129.20 114.78 131.24 115.52
  C 137.72 117.85 139.60 104.40 125.74 107.84
  A 2.21 2.20 73.9 0 1 123.11 106.38
  Q 122.22 103.62 119.40 102.95
  Q 118.58 102.76 119.18 102.17
  Q 120.26 101.12 118.93 100.00
  Q 118.51 99.64 118.04 99.93
  Q 117.60 100.19 117.29 100.61
  Q 117.00 101.01 117.17 101.48
  Q 117.31 101.86 117.58 102.17
  Q 118.08 102.75 117.34 102.94
  Q 115.06 103.51 113.92 105.56
  A 0.63 0.63 0.0 0 0 114.31 106.48
  Q 115.35 106.74 116.76 106.87
  Q 116.93 106.88 116.76 106.89" stroke="#808080"></path>
<path d="M 104.93 122.31
  C 108.35 123.31 108.59 120.89 110.98 119.51
  Q 111.36 119.29 111.06 118.98
  L 104.99 112.89
  Q 104.48 112.38 104.48 113.09
  L 104.48 121.71
  Q 104.48 122.18 104.93 122.31" stroke="#7f6100"></path>
<path d="M 137.27 116.09
  C 135.22 117.89 132.43 118.70 130.07 117.58
  Q 128.02 116.60 129.57 118.26
  C 135.59 124.69 145.98 124.07 152.82 119.24
  Q 153.08 119.06 152.93 118.78
  L 150.41 114.07
  A 0.30 0.30 0.0 0 0 149.99 113.96
  Q 144.51 117.38 138.21 115.86
  Q 137.68 115.73 137.27 116.09" stroke="#7f6100"></path>
<path d="M 128.71 52.05
  L 143.59 51.92
  A 0.17 0.17 0.0 0 0 143.76 51.75
  L 143.76 51.65
  A 7.44 6.45 -0.5 0 0 136.26 45.27
  L 135.92 45.27
  A 7.44 6.45 -0.5 0 0 128.54 51.79
  L 128.54 51.89
  A 0.17 0.17 0.0 0 0 128.71 52.05" stroke="#808080"></path>
<path d="M 76.49 65.00
  C 87.56 64.96 85.72 52.97 85.61 45.81
  A 0.59 0.59 0.0 0 0 85.02 45.23
  L 68.52 45.21
  A 0.52 0.52 0.0 0 0 68.00 45.73
  L 68.03 64.49
  A 0.49 0.48 -90.0 0 0 68.51 64.98
  Q 72.50 65.01 76.49 65.00" stroke="#7f6100"></path>
<path d="M 82.1808 49.6893
  A 0.95 0.95 0.0 0 0 81.2325 48.7376
  L 72.4725 48.7224
  A 0.95 0.95 0.0 0 0 71.5209 49.6707
  L 71.5192 50.6507
  A 0.95 0.95 0.0 0 0 72.4675 51.6024
  L 81.2275 51.6176
  A 0.95 0.95 0.0 0 0 82.1791 50.6693
  L 82.1808 49.6893" stroke="#7f6100"></path>
<path d="M 82.1709 54.2793
  A 0.99 0.99 0.0 0 0 81.1826 53.2876
  L 72.5226 53.2724
  A 0.99 0.99 0.0 0 0 71.5309 54.2607
  L 71.5291 55.2807
  A 0.99 0.99 0.0 0 0 72.5174 56.2724
  L 81.1774 56.2876
  A 0.99 0.99 0.0 0 0 82.1691 55.2993
  L 82.1709 54.2793" stroke="#7f6100"></path>
<path d="M 79.19 58.87
  A 0.97 0.97 0.0 0 0 78.22 57.90
  L 72.48 57.90
  A 0.97 0.97 0.0 0 0 71.51 58.87
  L 71.51 59.81
  A 0.97 0.97 0.0 0 0 72.48 60.78
  L 78.22 60.78
  A 0.97 0.97 0.0 0 0 79.19 59.81
  L 79.19 58.87" stroke="#7f6100"></path>
<path d="M 58.85 104.25
  L 73.59 104.13
  A 0.17 0.17 0.0 0 0 73.76 103.95
  L 73.76 103.86
  A 7.38 6.46 -0.5 0 0 66.32 97.47
  L 66.00 97.47
  A 7.38 6.46 -0.5 0 0 58.68 104.00
  L 58.68 104.09
  A 0.17 0.17 0.0 0 0 58.85 104.25" stroke="#7f6100"></path>
<path d="M 132.67 104.25
  L 147.41 104.13
  A 0.16 0.16 0.0 0 0 147.57 103.96
  L 147.57 103.87
  A 7.37 6.47 -0.5 0 0 140.14 97.47
  L 139.82 97.47
  A 7.37 6.47 -0.5 0 0 132.51 104.01
  L 132.51 104.10
  A 0.16 0.16 0.0 0 0 132.67 104.25" stroke="#7f6100"></path>
</g>
<path d="M 0.00 0.00
  L 160.00 0.00
  L 160.00 160.00
  L 0.00 160.00
  L 0.00 0.00
  Z
  M 28.46 70.39
  A 0.35 0.35 0.0 0 0 28.81 70.04
  L 28.81 37.44
  A 0.35 0.35 0.0 0 1 29.46 37.25
  L 50.24 70.35
  A 0.35 0.35 0.0 0 0 50.53 70.51
  L 57.72 70.50
  A 0.35 0.35 0.0 0 0 58.07 70.15
  L 58.06 23.91
  A 0.35 0.35 0.0 0 0 57.71 23.56
  L 51.09 23.55
  A 0.35 0.35 0.0 0 0 50.74 23.90
  L 50.73 56.50
  A 0.35 0.35 0.0 0 1 50.08 56.68
  L 29.30 23.66
  A 0.35 0.35 0.0 0 0 29.01 23.50
  L 21.85 23.47
  A 0.35 0.35 0.0 0 0 21.50 23.82
  L 21.50 70.03
  A 0.35 0.35 0.0 0 0 21.85 70.38
  L 28.46 70.39
  Z
  M 110.84 39.26
  A 0.32 0.32 0.0 0 1 110.52 38.94
  L 110.52 30.30
  A 0.32 0.32 0.0 0 0 110.20 29.98
  L 103.87 29.97
  A 0.32 0.32 0.0 0 0 103.55 30.29
  L 103.55 38.94
  A 0.32 0.32 0.0 0 1 103.23 39.26
  L 95.65 39.26
  A 0.32 0.32 0.0 0 0 95.33 39.58
  L 95.35 45.22
  A 0.32 0.32 0.0 0 0 95.67 45.54
  L 103.23 45.54
  A 0.32 0.32 0.0 0 1 103.55 45.86
  L 103.55 70.18
  A 0.32 0.32 0.0 0 0 103.87 70.50
  L 110.20 70.51
  A 0.32 0.32 0.0 0 0 110.52 70.19
  L 110.52 45.86
  A 0.32 0.32 0.0 0 1 110.84 45.54
  L 118.31 45.55
  A 0.32 0.32 0.0 0 0 118.63 45.23
  L 118.66 39.58
  A 0.32 0.32 0.0 0 0 118.34 39.26
  L 110.84 39.26
  Z
  M 130.47 57.24
  L 150.21 57.24
  Q 150.57 57.24 150.64 56.88
  Q 151.99 49.12 147.99 43.99
  C 142.37 36.77 131.49 36.90 125.35 43.34
  C 119.58 49.37 119.27 58.96 124.68 65.31
  C 130.97 72.68 141.62 72.52 149.07 67.23
  A 0.36 0.35 -31.6 0 0 149.18 66.78
  L 146.63 62.07
  A 0.30 0.29 59.7 0 0 146.22 61.96
  Q 141.29 64.92 135.57 64.14
  Q 132.05 63.66 129.93 60.81
  L 129.18 59.80
  Q 127.28 57.24 130.47 57.24
  Z
  M 83.06 69.15
  C 87.99 66.87 90.92 61.79 90.93 56.25
  Q 90.94 48.73 90.78 40.91
  Q 90.75 39.64 89.48 39.64
  L 64.19 39.69
  A 1.41 1.41 0.0 0 0 62.78 41.10
  L 62.75 68.99
  A 1.48 1.47 0.6 0 0 64.21 70.47
  C 70.07 70.54 78.36 71.32 83.06 69.15
  Z
  M 119.46 88.97
  Q 120.20 89.16 120.52 89.63
  A 1.82 1.82 0.0 0 0 123.52 89.62
  C 125.58 86.60 123.72 83.85 120.64 82.65
  Q 120.00 82.40 120.33 81.81
  L 120.68 81.15
  A 1.29 1.26 -38.1 0 0 120.80 80.23
  Q 120.52 79.07 120.97 77.99
  Q 121.14 77.59 120.71 77.52
  Q 119.32 77.31 118.43 76.31
  Q 118.03 75.85 118.12 75.36
  Q 118.21 74.88 118.57 74.59
  A 0.76 0.73 -67.9 0 1 118.93 74.43
  Q 119.62 74.35 120.27 74.56
  Q 121.54 74.96 120.62 74.13
  L 119.86 73.43
  A 1.27 1.27 0.0 0 0 117.74 74.27
  Q 117.51 77.18 114.77 77.59
  Q 114.29 77.66 114.54 78.08
  Q 115.12 79.10 114.73 80.25
  Q 114.57 80.71 114.79 81.14
  Q 114.97 81.49 115.25 81.76
  Q 115.79 82.28 115.09 82.54
  Q 112.93 83.34 111.61 85.09
  C 109.96 87.29 110.71 90.03 113.65 90.34
  Q 114.11 90.39 114.11 90.85
  C 114.07 93.26 115.16 97.12 118.44 96.19
  C 119.25 95.96 120.19 96.01 120.58 96.73
  A 0.81 0.80 -43.3 0 0 121.97 96.77
  Q 122.63 95.71 121.88 95.03
  C 120.89 94.11 119.07 94.88 118.15 95.54
  Q 117.76 95.82 117.39 95.51
  Q 116.82 95.02 117.31 94.27
  Q 118.29 92.79 120.75 91.30
  A 0.57 0.57 0.0 0 0 120.82 90.38
  L 119.37 89.14
  Q 119.04 88.86 119.46 88.97
  Z
  M 40.96 105.43
  L 40.96 110.49
  A 1.74 1.73 70.3 0 1 40.33 111.83
  C 32.86 117.89 21.37 116.58 15.69 108.77
  C 10.72 101.94 11.76 91.63 18.57 86.26
  C 25.03 81.17 33.60 81.55 40.17 86.46
  Q 40.41 86.64 40.60 86.41
  L 44.94 81.26
  A 0.28 0.27 -52.5 0 0 44.89 80.86
  Q 35.23 73.91 25.74 75.50
  C 13.16 77.62 4.59 88.18 5.32 100.88
  C 6.54 122.01 35.14 131.30 48.13 113.99
  Q 48.40 113.64 48.40 113.19
  L 48.29 98.27
  Q 48.29 97.76 47.77 97.76
  L 27.56 97.75
  Q 27.12 97.75 27.12 98.19
  L 27.11 104.47
  A 0.37 0.37 0.0 0 0 27.47 104.84
  L 40.42 104.89
  Q 40.95 104.89 40.96 105.43
  Z
  M 59.03 109.28
  L 80.22 109.29
  Q 80.62 109.29 80.67 108.89
  C 81.58 101.75 79.16 94.82 72.23 91.81
  Q 68.12 90.02 63.38 91.12
  C 52.13 93.75 47.60 106.79 53.87 116.21
  C 59.46 124.61 71.18 124.59 79.04 119.21
  Q 79.25 119.06 79.13 118.84
  L 76.55 114.04
  Q 76.43 113.80 76.20 113.94
  C 70.62 117.42 60.39 117.81 58.64 109.78
  Q 58.53 109.28 59.03 109.28
  Z
  M 90.40 92.42
  Q 90.33 92.22 90.41 92.02
  Q 90.64 91.42 90.00 91.42
  L 84.51 91.48
  Q 84.01 91.48 84.01 91.99
  L 83.86 121.95
  Q 83.86 122.30 84.20 122.30
  L 90.48 122.31
  A 0.26 0.26 0.0 0 0 90.74 122.05
  Q 90.72 113.80 90.76 105.27
  C 90.78 101.17 92.24 98.10 96.51 97.74
  Q 102.43 97.25 104.27 103.06
  Q 104.42 103.52 104.90 103.62
  L 110.59 104.79
  Q 111.24 104.92 111.26 104.25
  C 111.59 93.15 100.15 88.05 91.04 92.68
  Q 90.57 92.92 90.40 92.42
  Z
  M 126.06 105.37
  C 130.24 104.15 135.69 104.54 137.99 108.84
  Q 138.23 109.29 138.74 109.29
  L 153.96 109.28
  Q 154.36 109.28 154.42 108.89
  C 157.92 87.35 128.67 84.21 125.05 104.47
  A 0.80 0.79 -3.0 0 0 126.06 105.37
  Z
  M 116.76 106.89
  L 111.48 107.11
  Q 110.61 107.15 111.33 107.63
  Q 116.03 110.77 121.66 111.37
  Q 121.83 111.39 121.82 111.55
  L 121.82 111.56
  Q 121.81 111.70 121.67 111.69
  C 115.49 111.42 112.04 108.17 107.24 106.67
  C 104.05 105.67 96.20 103.80 93.55 106.51
  Q 93.17 106.89 93.71 106.83
  C 102.42 105.86 106.44 110.91 111.82 116.42
  Q 112.85 117.48 115.19 118.46
  Q 115.66 118.66 115.57 119.16
  C 115.03 122.42 112.83 120.54 111.58 122.09
  Q 111.29 122.45 111.75 122.45
  L 124.50 122.43
  Q 126.66 122.43 124.60 121.79
  Q 121.60 120.87 121.06 119.65
  A 0.75 0.74 68.7 0 1 121.50 118.63
  C 125.28 117.36 126.05 115.20 127.76 112.34
  C 129.13 110.05 131.07 108.49 133.58 110.10
  A 2.60 2.60 0.0 0 1 134.41 113.66
  C 133.30 115.47 129.85 114.57 129.91 112.65
  Q 129.96 110.58 129.19 112.51
  Q 128.87 113.31 127.86 114.25
  Q 127.53 114.56 127.98 114.62
  Q 129.20 114.78 131.24 115.52
  C 137.72 117.85 139.60 104.40 125.74 107.84
  A 2.21 2.20 73.9 0 1 123.11 106.38
  Q 122.22 103.62 119.40 102.95
  Q 118.58 102.76 119.18 102.17
  Q 120.26 101.12 118.93 100.00
  Q 118.51 99.64 118.04 99.93
  Q 117.60 100.19 117.29 100.61
  Q 117.00 101.01 117.17 101.48
  Q 117.31 101.86 117.58 102.17
  Q 118.08 102.75 117.34 102.94
  Q 115.06 103.51 113.92 105.56
  A 0.63 0.63 0.0 0 0 114.31 106.48
  Q 115.35 106.74 116.76 106.87
  Q 116.93 106.88 116.76 106.89
  Z
  M 104.93 122.31
  C 108.35 123.31 108.59 120.89 110.98 119.51
  Q 111.36 119.29 111.06 118.98
  L 104.99 112.89
  Q 104.48 112.38 104.48 113.09
  L 104.48 121.71
  Q 104.48 122.18 104.93 122.31
  Z
  M 137.27 116.09
  C 135.22 117.89 132.43 118.70 130.07 117.58
  Q 128.02 116.60 129.57 118.26
  C 135.59 124.69 145.98 124.07 152.82 119.24
  Q 153.08 119.06 152.93 118.78
  L 150.41 114.07
  A 0.30 0.30 0.0 0 0 149.99 113.96
  Q 144.51 117.38 138.21 115.86
  Q 137.68 115.73 137.27 116.09
  Z" fill="#000000"></path>
<path d="M 28.46 70.39
  L 21.85 70.38
  A 0.35 0.35 0.0 0 1 21.50 70.03
  L 21.50 23.82
  A 0.35 0.35 0.0 0 1 21.85 23.47
  L 29.01 23.50
  A 0.35 0.35 0.0 0 1 29.30 23.66
  L 50.08 56.68
  A 0.35 0.35 0.0 0 0 50.73 56.50
  L 50.74 23.90
  A 0.35 0.35 0.0 0 1 51.09 23.55
  L 57.71 23.56
  A 0.35 0.35 0.0 0 1 58.06 23.91
  L 58.07 70.15
  A 0.35 0.35 0.0 0 1 57.72 70.50
  L 50.53 70.51
  A 0.35 0.35 0.0 0 1 50.24 70.35
  L 29.46 37.25
  A 0.35 0.35 0.0 0 0 28.81 37.44
  L 28.81 70.04
  A 0.35 0.35 0.0 0 1 28.46 70.39
  Z" fill="#ffffff"></path>
<path d="M 110.84 39.26
  L 118.34 39.26
  A 0.32 0.32 0.0 0 1 118.66 39.58
  L 118.63 45.23
  A 0.32 0.32 0.0 0 1 118.31 45.55
  L 110.84 45.54
  A 0.32 0.32 0.0 0 0 110.52 45.86
  L 110.52 70.19
  A 0.32 0.32 0.0 0 1 110.20 70.51
  L 103.87 70.50
  A 0.32 0.32 0.0 0 1 103.55 70.18
  L 103.55 45.86
  A 0.32 0.32 0.0 0 0 103.23 45.54
  L 95.67 45.54
  A 0.32 0.32 0.0 0 1 95.35 45.22
  L 95.33 39.58
  A 0.32 0.32 0.0 0 1 95.65 39.26
  L 103.23 39.26
  A 0.32 0.32 0.0 0 0 103.55 38.94
  L 103.55 30.29
  A 0.32 0.32 0.0 0 1 103.87 29.97
  L 110.20 29.98
  A 0.32 0.32 0.0 0 1 110.52 30.30
  L 110.52 38.94
  A 0.32 0.32 0.0 0 0 110.84 39.26
  Z" fill="#ffffff"></path>
<path d="M 130.47 57.24
  Q 127.28 57.24 129.18 59.80
  L 129.93 60.81
  Q 132.05 63.66 135.57 64.14
  Q 141.29 64.92 146.22 61.96
  A 0.30 0.29 59.7 0 1 146.63 62.07
  L 149.18 66.78
  A 0.36 0.35 -31.6 0 1 149.07 67.23
  C 141.62 72.52 130.97 72.68 124.68 65.31
  C 119.27 58.96 119.58 49.37 125.35 43.34
  C 131.49 36.90 142.37 36.77 147.99 43.99
  Q 151.99 49.12 150.64 56.88
  Q 150.57 57.24 150.21 57.24
  L 130.47 57.24
  Z
  M 128.71 52.05
  L 143.59 51.92
  A 0.17 0.17 0.0 0 0 143.76 51.75
  L 143.76 51.65
  A 7.44 6.45 -0.5 0 0 136.26 45.27
  L 135.92 45.27
  A 7.44 6.45 -0.5 0 0 128.54 51.79
  L 128.54 51.89
  A 0.17 0.17 0.0 0 0 128.71 52.05
  Z" fill="#ffffff"></path>
<path d="M 90.93 56.25
  C 90.92 61.79 87.99 66.87 83.06 69.15
  C 78.36 71.32 70.07 70.54 64.21 70.47
  A 1.48 1.47 0.6 0 1 62.75 68.99
  L 62.78 41.10
  A 1.41 1.41 0.0 0 1 64.19 39.69
  L 89.48 39.64
  Q 90.75 39.64 90.78 40.91
  Q 90.94 48.73 90.93 56.25
  Z
  M 76.49 65.00
  C 87.56 64.96 85.72 52.97 85.61 45.81
  A 0.59 0.59 0.0 0 0 85.02 45.23
  L 68.52 45.21
  A 0.52 0.52 0.0 0 0 68.00 45.73
  L 68.03 64.49
  A 0.49 0.48 -90.0 0 0 68.51 64.98
  Q 72.50 65.01 76.49 65.00
  Z" fill="#fec200"></path>
<path d="M 85.61 45.81
  C 85.72 52.97 87.56 64.96 76.49 65.00
  Q 72.50 65.01 68.51 64.98
  A 0.49 0.48 90.0 0 1 68.03 64.49
  L 68.00 45.73
  A 0.52 0.52 0.0 0 1 68.52 45.21
  L 85.02 45.23
  A 0.59 0.59 0.0 0 1 85.61 45.81
  Z
  M 82.1808 49.6893
  A 0.95 0.95 0.0 0 0 81.2325 48.7376
  L 72.4725 48.7224
  A 0.95 0.95 0.0 0 0 71.5209 49.6707
  L 71.5192 50.6507
  A 0.95 0.95 0.0 0 0 72.4675 51.6024
  L 81.2275 51.6176
  A 0.95 0.95 0.0 0 0 82.1791 50.6693
  L 82.1808 49.6893
  Z
  M 82.1709 54.2793
  A 0.99 0.99 0.0 0 0 81.1826 53.2876
  L 72.5226 53.2724
  A 0.99 0.99 0.0 0 0 71.5309 54.2607
  L 71.5291 55.2807
  A 0.99 0.99 0.0 0 0 72.5174 56.2724
  L 81.1774 56.2876
  A 0.99 0.99 0.0 0 0 82.1691 55.2993
  L 82.1709 54.2793
  Z
  M 79.19 58.87
  A 0.97 0.97 0.0 0 0 78.22 57.90
  L 72.48 57.90
  A 0.97 0.97 0.0 0 0 71.51 58.87
  L 71.51 59.81
  A 0.97 0.97 0.0 0 0 72.48 60.78
  L 78.22 60.78
  A 0.97 0.97 0.0 0 0 79.19 59.81
  L 79.19 58.87
  Z" fill="#000000"></path>
<path d="M 128.71 52.05
  A 0.17 0.17 0.0 0 1 128.54 51.89
  L 128.54 51.79
  A 7.44 6.45 -0.5 0 1 135.92 45.27
  L 136.26 45.27
  A 7.44 6.45 -0.5 0 1 143.76 51.65
  L 143.76 51.75
  A 0.17 0.17 0.0 0 1 143.59 51.92
  L 128.71 52.05
  Z" fill="#000000"></path>
<rect rx="0.95" height="2.88" width="10.66" transform="translate(76.85,50.17) rotate(0.1)" y="-1.44" x="-5.33" fill="#fec200"></rect>
<rect rx="0.99" height="3.00" width="10.64" transform="translate(76.85,54.78) rotate(0.1)" y="-1.50" x="-5.32" fill="#fec200"></rect>
<rect rx="0.97" height="2.88" width="7.68" y="57.90" x="71.51" fill="#fec200"></rect>
<path d="M 119.37 89.14
  L 120.82 90.38
  A 0.57 0.57 0.0 0 1 120.75 91.30
  Q 118.29 92.79 117.31 94.27
  Q 116.82 95.02 117.39 95.51
  Q 117.76 95.82 118.15 95.54
  C 119.07 94.88 120.89 94.11 121.88 95.03
  Q 122.63 95.71 121.97 96.77
  A 0.81 0.80 -43.3 0 1 120.58 96.73
  C 120.19 96.01 119.25 95.96 118.44 96.19
  C 115.16 97.12 114.07 93.26 114.11 90.85
  Q 114.11 90.39 113.65 90.34
  C 110.71 90.03 109.96 87.29 111.61 85.09
  Q 112.93 83.34 115.09 82.54
  Q 115.79 82.28 115.25 81.76
  Q 114.97 81.49 114.79 81.14
  Q 114.57 80.71 114.73 80.25
  Q 115.12 79.10 114.54 78.08
  Q 114.29 77.66 114.77 77.59
  Q 117.51 77.18 117.74 74.27
  A 1.27 1.27 0.0 0 1 119.86 73.43
  L 120.62 74.13
  Q 121.54 74.96 120.27 74.56
  Q 119.62 74.35 118.93 74.43
  A 0.76 0.73 -67.9 0 0 118.57 74.59
  Q 118.21 74.88 118.12 75.36
  Q 118.03 75.85 118.43 76.31
  Q 119.32 77.31 120.71 77.52
  Q 121.14 77.59 120.97 77.99
  Q 120.52 79.07 120.80 80.23
  A 1.29 1.26 -38.1 0 1 120.68 81.15
  L 120.33 81.81
  Q 120.00 82.40 120.64 82.65
  C 123.72 83.85 125.58 86.60 123.52 89.62
  A 1.82 1.82 0.0 0 1 120.52 89.63
  Q 120.20 89.16 119.46 88.97
  Q 119.04 88.86 119.37 89.14
  Z" fill="#d72732"></path>
<path d="M 40.42 104.89
  L 27.47 104.84
  A 0.37 0.37 0.0 0 1 27.11 104.47
  L 27.12 98.19
  Q 27.12 97.75 27.56 97.75
  L 47.77 97.76
  Q 48.29 97.76 48.29 98.27
  L 48.40 113.19
  Q 48.40 113.64 48.13 113.99
  C 35.14 131.30 6.54 122.01 5.32 100.88
  C 4.59 88.18 13.16 77.62 25.74 75.50
  Q 35.23 73.91 44.89 80.86
  A 0.28 0.27 -52.5 0 1 44.94 81.26
  L 40.60 86.41
  Q 40.41 86.64 40.17 86.46
  C 33.60 81.55 25.03 81.17 18.57 86.26
  C 11.76 91.63 10.72 101.94 15.69 108.77
  C 21.37 116.58 32.86 117.89 40.33 111.83
  A 1.74 1.73 70.3 0 0 40.96 110.49
  L 40.96 105.43
  Q 40.95 104.89 40.42 104.89
  Z" fill="#fec200"></path>
<path d="M 58.64 109.78
  C 60.39 117.81 70.62 117.42 76.20 113.94
  Q 76.43 113.80 76.55 114.04
  L 79.13 118.84
  Q 79.25 119.06 79.04 119.21
  C 71.18 124.59 59.46 124.61 53.87 116.21
  C 47.60 106.79 52.13 93.75 63.38 91.12
  Q 68.12 90.02 72.23 91.81
  C 79.16 94.82 81.58 101.75 80.67 108.89
  Q 80.62 109.29 80.22 109.29
  L 59.03 109.28
  Q 58.53 109.28 58.64 109.78
  Z
  M 58.85 104.25
  L 73.59 104.13
  A 0.17 0.17 0.0 0 0 73.76 103.95
  L 73.76 103.86
  A 7.38 6.46 -0.5 0 0 66.32 97.47
  L 66.00 97.47
  A 7.38 6.46 -0.5 0 0 58.68 104.00
  L 58.68 104.09
  A 0.17 0.17 0.0 0 0 58.85 104.25
  Z" fill="#fec200"></path>
<path d="M 91.04 92.68
  C 100.15 88.05 111.59 93.15 111.26 104.25
  Q 111.24 104.92 110.59 104.79
  L 104.90 103.62
  Q 104.42 103.52 104.27 103.06
  Q 102.43 97.25 96.51 97.74
  C 92.24 98.10 90.78 101.17 90.76 105.27
  Q 90.72 113.80 90.74 122.05
  A 0.26 0.26 0.0 0 1 90.48 122.31
  L 84.20 122.30
  Q 83.86 122.30 83.86 121.95
  L 84.01 91.99
  Q 84.01 91.48 84.51 91.48
  L 90.00 91.42
  Q 90.64 91.42 90.41 92.02
  Q 90.33 92.22 90.40 92.42
  Q 90.57 92.92 91.04 92.68
  Z" fill="#fec200"></path>
<path d="M 137.99 108.84
  C 135.69 104.54 130.24 104.15 126.06 105.37
  A 0.80 0.79 -3.0 0 1 125.05 104.47
  C 128.67 84.21 157.92 87.35 154.42 108.89
  Q 154.36 109.28 153.96 109.28
  L 138.74 109.29
  Q 138.23 109.29 137.99 108.84
  Z
  M 132.67 104.25
  L 147.41 104.13
  A 0.16 0.16 0.0 0 0 147.57 103.96
  L 147.57 103.87
  A 7.37 6.47 -0.5 0 0 140.14 97.47
  L 139.82 97.47
  A 7.37 6.47 -0.5 0 0 132.51 104.01
  L 132.51 104.10
  A 0.16 0.16 0.0 0 0 132.67 104.25
  Z" fill="#fec200"></path>
<path d="M 58.85 104.25
  A 0.17 0.17 0.0 0 1 58.68 104.09
  L 58.68 104.00
  A 7.38 6.46 -0.5 0 1 66.00 97.47
  L 66.32 97.47
  A 7.38 6.46 -0.5 0 1 73.76 103.86
  L 73.76 103.95
  A 0.17 0.17 0.0 0 1 73.59 104.13
  L 58.85 104.25
  Z" fill="#000000"></path>
<path d="M 132.67 104.25
  A 0.16 0.16 0.0 0 1 132.51 104.10
  L 132.51 104.01
  A 7.37 6.47 -0.5 0 1 139.82 97.47
  L 140.14 97.47
  A 7.37 6.47 -0.5 0 1 147.57 103.87
  L 147.57 103.96
  A 0.16 0.16 0.0 0 1 147.41 104.13
  L 132.67 104.25
  Z" fill="#000000"></path>
<path d="M 116.76 106.87
  Q 115.35 106.74 114.31 106.48
  A 0.63 0.63 0.0 0 1 113.92 105.56
  Q 115.06 103.51 117.34 102.94
  Q 118.08 102.75 117.58 102.17
  Q 117.31 101.86 117.17 101.48
  Q 117.00 101.01 117.29 100.61
  Q 117.60 100.19 118.04 99.93
  Q 118.51 99.64 118.93 100.00
  Q 120.26 101.12 119.18 102.17
  Q 118.58 102.76 119.40 102.95
  Q 122.22 103.62 123.11 106.38
  A 2.21 2.20 73.9 0 0 125.74 107.84
  C 139.60 104.40 137.72 117.85 131.24 115.52
  Q 129.20 114.78 127.98 114.62
  Q 127.53 114.56 127.86 114.25
  Q 128.87 113.31 129.19 112.51
  Q 129.96 110.58 129.91 112.65
  C 129.85 114.57 133.30 115.47 134.41 113.66
  A 2.60 2.60 0.0 0 0 133.58 110.10
  C 131.07 108.49 129.13 110.05 127.76 112.34
  C 126.05 115.20 125.28 117.36 121.50 118.63
  A 0.75 0.74 68.7 0 0 121.06 119.65
  Q 121.60 120.87 124.60 121.79
  Q 126.66 122.43 124.50 122.43
  L 111.75 122.45
  Q 111.29 122.45 111.58 122.09
  C 112.83 120.54 115.03 122.42 115.57 119.16
  Q 115.66 118.66 115.19 118.46
  Q 112.85 117.48 111.82 116.42
  C 106.44 110.91 102.42 105.86 93.71 106.83
  Q 93.17 106.89 93.55 106.51
  C 96.20 103.80 104.05 105.67 107.24 106.67
  C 112.04 108.17 115.49 111.42 121.67 111.69
  Q 121.81 111.70 121.82 111.56
  L 121.82 111.55
  Q 121.83 111.39 121.66 111.37
  Q 116.03 110.77 111.33 107.63
  Q 110.61 107.15 111.48 107.11
  L 116.76 106.89
  Q 116.93 106.88 116.76 106.87
  Z" fill="#ffffff"></path>
<path d="M 110.98 119.51
  C 108.59 120.89 108.35 123.31 104.93 122.31
  Q 104.48 122.18 104.48 121.71
  L 104.48 113.09
  Q 104.48 112.38 104.99 112.89
  L 111.06 118.98
  Q 111.36 119.29 110.98 119.51
  Z" fill="#fec200"></path>
<path d="M 130.07 117.58
  C 132.43 118.70 135.22 117.89 137.27 116.09
  Q 137.68 115.73 138.21 115.86
  Q 144.51 117.38 149.99 113.96
  A 0.30 0.30 0.0 0 1 150.41 114.07
  L 152.93 118.78
  Q 153.08 119.06 152.82 119.24
  C 145.98 124.07 135.59 124.69 129.57 118.26
  Q 128.02 116.60 130.07 117.58
  Z" fill="#fec200"></path>
</svg>
