<svg viewBox="0.00 0.00 256.00 256.00" version="1.1" xmlns="http://www.w3.org/2000/svg">
<g stroke-linecap="butt" fill="none" stroke-width="2.00">
<path d="M 250.09 6.19
  L 222.93 33.33" stroke="#69dfce"></path>
<path d="M 222.93 33.33
  Q 222.65 33.36 222.33 33.21
  Q 221.90 33.00 221.43 33.00
  L 33.03 33.03" stroke="#3dd0bd"></path>
<path d="M 33.03 33.03
  L 5.97 6.13" stroke="#69dfce"></path>
<path d="M 33.03 33.03
  L 33.03 222.94" stroke="#35c6b3"></path>
<path d="M 33.03 222.94
  L 5.90 249.80" stroke="#69dfce"></path>
<path d="M 249.94 249.96
  L 222.94 222.95" stroke="#69dfce"></path>
<path d="M 222.94 222.95
  L 222.93 33.33" stroke="#35c6b3"></path>
<path d="M 222.94 222.95
  L 33.03 222.94" stroke="#3dd0bd"></path>
<path d="M 70.21 127.25
  Q 73.23 121.95 73.23 114.25
  Q 73.23 102.44 73.28 90.64
  Q 73.29 87.68 73.92 86.47
  C 76.17 82.16 79.94 84.47 83.16 82.53
  C 87.66 79.82 85.67 72.52 80.25 72.25
  C 68.60 71.66 61.84 78.49 61.86 90.00
  Q 61.87 102.41 61.82 114.83
  Q 61.80 117.88 61.20 119.08
  C 59.09 123.29 55.05 121.03 51.96 123.00
  C 48.84 124.99 48.65 129.95 51.74 132.11
  C 54.89 134.31 59.10 131.78 61.27 136.31
  Q 61.86 137.54 61.85 140.77
  Q 61.81 153.52 61.99 166.24
  Q 62.20 181.10 76.70 183.00
  C 81.96 183.68 87.09 181.22 85.26 175.49
  C 83.15 168.87 73.25 174.80 73.25 166.00
  Q 73.26 153.38 73.23 140.75
  Q 73.21 133.27 70.21 128.08
  Q 69.97 127.66 70.21 127.25" stroke="#84dbd1"></path>
<path d="M 187.38 128.18
  Q 184.29 133.23 184.30 139.75
  Q 184.31 152.52 184.26 165.28
  Q 184.25 167.51 183.70 168.62
  C 181.50 173.09 177.62 170.76 174.37 172.71
  C 169.88 175.40 171.88 182.69 177.25 182.99
  C 188.24 183.61 195.62 177.25 195.61 166.00
  Q 195.60 152.87 195.65 139.75
  Q 195.67 135.31 199.00 133.71
  C 200.56 132.97 202.75 133.40 204.13 132.89
  C 208.43 131.30 209.61 125.53 205.65 123.02
  C 201.97 120.69 195.99 123.65 195.83 116.49
  Q 195.61 106.66 195.64 96.80
  Q 195.67 85.54 194.27 81.81
  Q 190.72 72.37 178.67 72.31
  Q 175.84 72.30 174.41 73.15
  C 171.07 75.12 171.16 80.84 174.59 82.66
  C 176.55 83.69 179.75 83.01 181.52 84.18
  Q 184.27 86.00 184.27 88.50
  Q 184.29 101.37 184.30 114.25
  Q 184.31 121.93 187.40 127.33
  Q 187.64 127.76 187.38 128.18" stroke="#84dbd1"></path>
<path d="M 109.86 151.64
  A 7.63 7.63 0.0 0 0 102.23 144.01
  A 7.63 7.63 0.0 0 0 94.60 151.64
  A 7.63 7.63 0.0 0 0 102.23 159.27
  A 7.63 7.63 0.0 0 0 109.86 151.64" stroke="#84dbd1"></path>
<path d="M 136.38 151.64
  A 7.64 7.64 0.0 0 0 128.74 144.00
  A 7.64 7.64 0.0 0 0 121.10 151.64
  A 7.64 7.64 0.0 0 0 128.74 159.28
  A 7.64 7.64 0.0 0 0 136.38 151.64" stroke="#84dbd1"></path>
<path d="M 162.87 151.64
  A 7.63 7.63 0.0 0 0 155.24 144.01
  A 7.63 7.63 0.0 0 0 147.61 151.64
  A 7.63 7.63 0.0 0 0 155.24 159.27
  A 7.63 7.63 0.0 0 0 162.87 151.64" stroke="#84dbd1"></path>
</g>
<path d="M 18.63 0.00
  L 237.49 0.00
  Q 245.26 1.29 250.09 6.19
  L 222.93 33.33
  Q 222.65 33.36 222.33 33.21
  Q 221.90 33.00 221.43 33.00
  L 33.03 33.03
  L 5.97 6.13
  Q 10.81 1.22 18.63 0.00
  Z" fill="#71e9d8"></path>
<path d="M 5.97 6.13
  L 33.03 33.03
  L 33.03 222.94
  L 5.90 249.80
  Q 0.76 244.13 0.00 237.36
  L 0.00 18.27
  Q 1.07 11.42 5.97 6.13
  Z" fill="#60d5c4"></path>
<path d="M 250.09 6.19
  Q 255.01 11.50 256.00 18.39
  L 256.00 237.49
  Q 254.80 245.01 249.94 249.96
  L 222.94 222.95
  L 222.93 33.33
  L 250.09 6.19
  Z" fill="#60d5c4"></path>
<path d="M 222.93 33.33
  L 222.94 222.95
  L 33.03 222.94
  L 33.03 33.03
  L 221.43 33.00
  Q 221.90 33.00 222.33 33.21
  Q 222.65 33.36 222.93 33.33
  Z
  M 70.21 127.25
  Q 73.23 121.95 73.23 114.25
  Q 73.23 102.44 73.28 90.64
  Q 73.29 87.68 73.92 86.47
  C 76.17 82.16 79.94 84.47 83.16 82.53
  C 87.66 79.82 85.67 72.52 80.25 72.25
  C 68.60 71.66 61.84 78.49 61.86 90.00
  Q 61.87 102.41 61.82 114.83
  Q 61.80 117.88 61.20 119.08
  C 59.09 123.29 55.05 121.03 51.96 123.00
  C 48.84 124.99 48.65 129.95 51.74 132.11
  C 54.89 134.31 59.10 131.78 61.27 136.31
  Q 61.86 137.54 61.85 140.77
  Q 61.81 153.52 61.99 166.24
  Q 62.20 181.10 76.70 183.00
  C 81.96 183.68 87.09 181.22 85.26 175.49
  C 83.15 168.87 73.25 174.80 73.25 166.00
  Q 73.26 153.38 73.23 140.75
  Q 73.21 133.27 70.21 128.08
  Q 69.97 127.66 70.21 127.25
  Z
  M 187.38 128.18
  Q 184.29 133.23 184.30 139.75
  Q 184.31 152.52 184.26 165.28
  Q 184.25 167.51 183.70 168.62
  C 181.50 173.09 177.62 170.76 174.37 172.71
  C 169.88 175.40 171.88 182.69 177.25 182.99
  C 188.24 183.61 195.62 177.25 195.61 166.00
  Q 195.60 152.87 195.65 139.75
  Q 195.67 135.31 199.00 133.71
  C 200.56 132.97 202.75 133.40 204.13 132.89
  C 208.43 131.30 209.61 125.53 205.65 123.02
  C 201.97 120.69 195.99 123.65 195.83 116.49
  Q 195.61 106.66 195.64 96.80
  Q 195.67 85.54 194.27 81.81
  Q 190.72 72.37 178.67 72.31
  Q 175.84 72.30 174.41 73.15
  C 171.07 75.12 171.16 80.84 174.59 82.66
  C 176.55 83.69 179.75 83.01 181.52 84.18
  Q 184.27 86.00 184.27 88.50
  Q 184.29 101.37 184.30 114.25
  Q 184.31 121.93 187.40 127.33
  Q 187.64 127.76 187.38 128.18
  Z
  M 109.86 151.64
  A 7.63 7.63 0.0 0 0 102.23 144.01
  A 7.63 7.63 0.0 0 0 94.60 151.64
  A 7.63 7.63 0.0 0 0 102.23 159.27
  A 7.63 7.63 0.0 0 0 109.86 151.64
  Z
  M 136.38 151.64
  A 7.64 7.64 0.0 0 0 128.74 144.00
  A 7.64 7.64 0.0 0 0 121.10 151.64
  A 7.64 7.64 0.0 0 0 128.74 159.28
  A 7.64 7.64 0.0 0 0 136.38 151.64
  Z
  M 162.87 151.64
  A 7.63 7.63 0.0 0 0 155.24 144.01
  A 7.63 7.63 0.0 0 0 147.61 151.64
  A 7.63 7.63 0.0 0 0 155.24 159.27
  A 7.63 7.63 0.0 0 0 162.87 151.64
  Z" fill="#09b6a2"></path>
<path d="M 70.21 128.08
  Q 73.21 133.27 73.23 140.75
  Q 73.26 153.38 73.25 166.00
  C 73.25 174.80 83.15 168.87 85.26 175.49
  C 87.09 181.22 81.96 183.68 76.70 183.00
  Q 62.20 181.10 61.99 166.24
  Q 61.81 153.52 61.85 140.77
  Q 61.86 137.54 61.27 136.31
  C 59.10 131.78 54.89 134.31 51.74 132.11
  C 48.65 129.95 48.84 124.99 51.96 123.00
  C 55.05 121.03 59.09 123.29 61.20 119.08
  Q 61.80 117.88 61.82 114.83
  Q 61.87 102.41 61.86 90.00
  C 61.84 78.49 68.60 71.66 80.25 72.25
  C 85.67 72.52 87.66 79.82 83.16 82.53
  C 79.94 84.47 76.17 82.16 73.92 86.47
  Q 73.29 87.68 73.28 90.64
  Q 73.23 102.44 73.23 114.25
  Q 73.23 121.95 70.21 127.25
  Q 69.97 127.66 70.21 128.08
  Z" fill="#ffffff"></path>
<path d="M 187.40 127.33
  Q 184.31 121.93 184.30 114.25
  Q 184.29 101.37 184.27 88.50
  Q 184.27 86.00 181.52 84.18
  C 179.75 83.01 176.55 83.69 174.59 82.66
  C 171.16 80.84 171.07 75.12 174.41 73.15
  Q 175.84 72.30 178.67 72.31
  Q 190.72 72.37 194.27 81.81
  Q 195.67 85.54 195.64 96.80
  Q 195.61 106.66 195.83 116.49
  C 195.99 123.65 201.97 120.69 205.65 123.02
  C 209.61 125.53 208.43 131.30 204.13 132.89
  C 202.75 133.40 200.56 132.97 199.00 133.71
  Q 195.67 135.31 195.65 139.75
  Q 195.60 152.87 195.61 166.00
  C 195.62 177.25 188.24 183.61 177.25 182.99
  C 171.88 182.69 169.88 175.40 174.37 172.71
  C 177.62 170.76 181.50 173.09 183.70 168.62
  Q 184.25 167.51 184.26 165.28
  Q 184.31 152.52 184.30 139.75
  Q 184.29 133.23 187.38 128.18
  Q 187.64 127.76 187.40 127.33
  Z" fill="#ffffff"></path>
<circle r="7.63" cy="151.64" cx="102.23" fill="#ffffff"></circle>
<circle r="7.64" cy="151.64" cx="128.74" fill="#ffffff"></circle>
<circle r="7.63" cy="151.64" cx="155.24" fill="#ffffff"></circle>
<path d="M 33.03 222.94
  L 222.94 222.95
  L 249.94 249.96
  Q 244.63 255.02 237.36 256.00
  L 18.50 256.00
  Q 10.51 254.58 5.90 249.80
  L 33.03 222.94
  Z" fill="#71e9d8"></path>
</svg>
