<svg viewBox="0.00 0.00 192.00 192.00" version="1.1" xmlns="http://www.w3.org/2000/svg">
<g stroke-linecap="butt" fill="none" stroke-width="2.00">
<path d="M 156.19 57.32
  L 155.91 54.01
  Q 155.87 53.51 155.50 53.19
  Q 152.89 50.97 150.01 49.12
  Q 148.39 48.07 143.33 42.92
  Q 141.01 40.55 138.54 38.32
  Q 138.48 38.27 138.42 38.32
  Q 137.74 38.90 138.36 38.13
  Q 138.43 38.05 138.52 38.10
  L 139.00 38.36
  A 0.29 0.28 82.2 0 0 139.34 37.91
  L 133.77 32.14
  Q 133.53 31.90 133.19 31.90
  L 132.79 31.90
  Q 132.24 31.90 131.90 31.47
  Q 130.41 29.62 128.44 28.39
  Q 127.88 28.03 127.89 28.70
  Q 127.89 28.89 127.86 29.07
  Q 127.78 29.53 127.44 29.22
  Q 121.33 23.90 119.92 21.70
  A 7.88 0.36 43.4 0 0 115.51 17.13
  L 110.73 12.53
  Q 110.40 12.22 110.35 11.78
  L 110.23 10.72
  A 2.27 2.26 -2.2 0 0 108.06 8.72
  C 104.27 8.60 99.31 8.12 95.73 9.56
  C 93.53 10.44 91.72 10.90 89.49 12.20
  C 87.36 13.46 84.77 13.46 82.78 14.48
  Q 80.37 15.71 77.99 16.89
  Q 71.04 20.33 67.06 25.54" stroke="#ff9058"></path>
<path d="M 67.06 25.54
  C 57.79 38.04 56.58 53.30 69.10 63.75" stroke="#ff9f77"></path>
<path d="M 69.10 63.75
  Q 69.50 65.23 70.68 65.71
  Q 71.11 65.89 71.33 66.30
  Q 71.64 66.88 72.28 67.06
  Q 72.71 67.19 72.97 67.56
  Q 73.66 68.54 74.07 68.26
  A 0.31 0.31 0.0 0 1 74.54 68.43
  Q 74.76 69.14 74.34 69.65
  Q 74.13 69.90 73.54 70.08
  Q 72.69 70.34 71.94 70.84
  C 68.93 72.86 64.40 71.81 61.06 71.51
  C 58.88 71.32 57.45 71.96 55.50 72.70
  Q 53.42 73.49 51.34 73.46
  Q 47.60 73.42 43.85 73.77
  Q 42.34 73.91 39.78 74.88
  Q 37.75 75.65 35.57 75.88
  Q 35.44 75.89 35.41 76.02
  Q 35.26 76.76 34.41 76.59" stroke="#ff9659"></path>
<path d="M 71.93 64.93
  Q 71.71 64.87 71.35 64.97
  Q 70.88 65.09 70.50 64.80
  L 69.10 63.75" stroke="#ffb589"></path>
<path d="M 117.22 185.72
  Q 118.08 184.29 119.46 183.33
  Q 119.83 183.08 120.26 183.12
  Q 121.27 183.20 121.99 182.52
  Q 122.24 182.28 122.57 182.18
  Q 122.77 182.12 123.01 182.13
  A 1.00 0.99 -65.5 0 0 123.78 181.84
  Q 127.00 178.55 130.68 175.82
  Q 135.22 172.46 136.60 170.88
  C 141.52 165.26 145.37 155.89 144.27 148.37
  Q 143.25 141.47 139.22 136.54
  C 135.66 132.18 132.05 127.19 126.60 127.99" stroke="#ffc997"></path>
<path d="M 88.74 48.55
  L 87.85 46.02
  Q 87.69 45.56 87.31 45.26
  Q 81.85 40.87 75.50 33.01
  Q 72.68 29.53 67.06 25.54" stroke="#ffb088"></path>
<path d="M 86.75 186.60
  Q 86.82 185.65 87.92 185.61
  Q 88.37 185.59 88.36 185.14
  Q 88.36 184.24 89.02 183.66
  Q 89.39 183.33 89.44 182.84
  Q 89.90 178.18 91.02 170.01
  Q 91.08 169.56 91.31 169.32
  Q 91.63 169.00 91.62 168.54
  C 91.46 164.56 92.29 161.69 92.87 158.26
  C 93.42 155.01 94.76 152.30 94.61 148.81
  Q 94.59 148.26 95.10 148.09
  L 95.96 147.81" stroke="#ffd2b6"></path>
</g>
<path d="M 156.19 57.32
  L 155.91 54.01
  Q 155.87 53.51 155.50 53.19
  Q 152.89 50.97 150.01 49.12
  Q 148.39 48.07 143.33 42.92
  Q 141.01 40.55 138.54 38.32
  Q 138.48 38.27 138.42 38.32
  Q 137.74 38.90 138.36 38.13
  Q 138.43 38.05 138.52 38.10
  L 139.00 38.36
  A 0.29 0.28 82.2 0 0 139.34 37.91
  L 133.77 32.14
  Q 133.53 31.90 133.19 31.90
  L 132.79 31.90
  Q 132.24 31.90 131.90 31.47
  Q 130.41 29.62 128.44 28.39
  Q 127.88 28.03 127.89 28.70
  Q 127.89 28.89 127.86 29.07
  Q 127.78 29.53 127.44 29.22
  Q 121.33 23.90 119.92 21.70
  A 7.88 0.36 43.4 0 0 115.51 17.13
  L 110.73 12.53
  Q 110.40 12.22 110.35 11.78
  L 110.23 10.72
  A 2.27 2.26 -2.2 0 0 108.06 8.72
  C 104.27 8.60 99.31 8.12 95.73 9.56
  C 93.53 10.44 91.72 10.90 89.49 12.20
  C 87.36 13.46 84.77 13.46 82.78 14.48
  Q 80.37 15.71 77.99 16.89
  Q 71.04 20.33 67.06 25.54
  C 57.79 38.04 56.58 53.30 69.10 63.75
  Q 69.50 65.23 70.68 65.71
  Q 71.11 65.89 71.33 66.30
  Q 71.64 66.88 72.28 67.06
  Q 72.71 67.19 72.97 67.56
  Q 73.66 68.54 74.07 68.26
  A 0.31 0.31 0.0 0 1 74.54 68.43
  Q 74.76 69.14 74.34 69.65
  Q 74.13 69.90 73.54 70.08
  Q 72.69 70.34 71.94 70.84
  C 68.93 72.86 64.40 71.81 61.06 71.51
  C 58.88 71.32 57.45 71.96 55.50 72.70
  Q 53.42 73.49 51.34 73.46
  Q 47.60 73.42 43.85 73.77
  Q 42.34 73.91 39.78 74.88
  Q 37.75 75.65 35.57 75.88
  Q 35.44 75.89 35.41 76.02
  Q 35.26 76.76 34.41 76.59
  Q 31.31 67.24 31.91 61.12
  C 32.23 57.91 32.10 54.45 32.83 51.49
  C 39.49 24.42 65.65 10.07 91.84 8.41
  C 116.03 6.88 135.64 12.12 155.78 24.49
  Q 159.31 26.66 160.74 28.96
  Q 170.92 45.35 156.19 57.32
  Z" fill="#ff7f47"></path>
<path d="M 156.19 57.32
  C 142.34 65.81 133.22 55.15 121.00 50.98
  Q 105.33 45.64 88.74 48.55
  L 87.85 46.02
  Q 87.69 45.56 87.31 45.26
  Q 81.85 40.87 75.50 33.01
  Q 72.68 29.53 67.06 25.54
  Q 71.04 20.33 77.99 16.89
  Q 80.37 15.71 82.78 14.48
  C 84.77 13.46 87.36 13.46 89.49 12.20
  C 91.72 10.90 93.53 10.44 95.73 9.56
  C 99.31 8.12 104.27 8.60 108.06 8.72
  A 2.27 2.26 -2.2 0 1 110.23 10.72
  L 110.35 11.78
  Q 110.40 12.22 110.73 12.53
  L 115.51 17.13
  A 7.88 0.36 43.4 0 1 119.92 21.70
  Q 121.33 23.90 127.44 29.22
  Q 127.78 29.53 127.86 29.07
  Q 127.89 28.89 127.89 28.70
  Q 127.88 28.03 128.44 28.39
  Q 130.41 29.62 131.90 31.47
  Q 132.24 31.90 132.79 31.90
  L 133.19 31.90
  Q 133.53 31.90 133.77 32.14
  L 139.34 37.91
  A 0.29 0.28 82.2 0 1 139.00 38.36
  L 138.52 38.10
  Q 138.43 38.05 138.36 38.13
  Q 137.74 38.90 138.42 38.32
  Q 138.48 38.27 138.54 38.32
  Q 141.01 40.55 143.33 42.92
  Q 148.39 48.07 150.01 49.12
  Q 152.89 50.97 155.50 53.19
  Q 155.87 53.51 155.91 54.01
  L 156.19 57.32
  Z" fill="#ffa169"></path>
<path d="M 67.06 25.54
  Q 72.68 29.53 75.50 33.01
  Q 81.85 40.87 87.31 45.26
  Q 87.69 45.56 87.85 46.02
  L 88.74 48.55
  C 80.64 50.39 69.20 54.34 71.93 64.93
  Q 71.71 64.87 71.35 64.97
  Q 70.88 65.09 70.50 64.80
  L 69.10 63.75
  C 56.58 53.30 57.79 38.04 67.06 25.54
  Z" fill="#ffbea7"></path>
<path d="M 69.10 63.75
  L 70.50 64.80
  Q 70.88 65.09 71.35 64.97
  Q 71.71 64.87 71.93 64.93
  C 77.20 71.02 88.77 74.24 96.13 75.86
  C 116.35 80.33 138.49 84.95 154.00 99.81
  C 174.47 119.41 173.66 151.64 152.29 170.07
  Q 137.93 182.46 117.22 185.72
  Q 118.08 184.29 119.46 183.33
  Q 119.83 183.08 120.26 183.12
  Q 121.27 183.20 121.99 182.52
  Q 122.24 182.28 122.57 182.18
  Q 122.77 182.12 123.01 182.13
  A 1.00 0.99 -65.5 0 0 123.78 181.84
  Q 127.00 178.55 130.68 175.82
  Q 135.22 172.46 136.60 170.88
  C 141.52 165.26 145.37 155.89 144.27 148.37
  Q 143.25 141.47 139.22 136.54
  C 135.66 132.18 132.05 127.19 126.60 127.99
  C 114.00 119.39 99.49 116.47 83.73 113.49
  Q 79.65 112.71 68.48 108.52
  C 52.76 102.61 40.18 92.62 34.41 76.59
  Q 35.26 76.76 35.41 76.02
  Q 35.44 75.89 35.57 75.88
  Q 37.75 75.65 39.78 74.88
  Q 42.34 73.91 43.85 73.77
  Q 47.60 73.42 51.34 73.46
  Q 53.42 73.49 55.50 72.70
  C 57.45 71.96 58.88 71.32 61.06 71.51
  C 64.40 71.81 68.93 72.86 71.94 70.84
  Q 72.69 70.34 73.54 70.08
  Q 74.13 69.90 74.34 69.65
  Q 74.76 69.14 74.54 68.43
  A 0.31 0.31 0.0 0 0 74.07 68.26
  Q 73.66 68.54 72.97 67.56
  Q 72.71 67.19 72.28 67.06
  Q 71.64 66.88 71.33 66.30
  Q 71.11 65.89 70.68 65.71
  Q 69.50 65.23 69.10 63.75
  Z" fill="#ffac6a"></path>
<path d="M 117.22 185.72
  Q 102.26 188.44 86.75 186.60
  Q 86.82 185.65 87.92 185.61
  Q 88.37 185.59 88.36 185.14
  Q 88.36 184.24 89.02 183.66
  Q 89.39 183.33 89.44 182.84
  Q 89.90 178.18 91.02 170.01
  Q 91.08 169.56 91.31 169.32
  Q 91.63 169.00 91.62 168.54
  C 91.46 164.56 92.29 161.69 92.87 158.26
  C 93.42 155.01 94.76 152.30 94.61 148.81
  Q 94.59 148.26 95.10 148.09
  L 95.96 147.81
  Q 112.85 149.23 126.29 140.92
  C 130.83 138.12 129.94 131.20 126.60 127.99
  C 132.05 127.19 135.66 132.18 139.22 136.54
  Q 143.25 141.47 144.27 148.37
  C 145.37 155.89 141.52 165.26 136.60 170.88
  Q 135.22 172.46 130.68 175.82
  Q 127.00 178.55 123.78 181.84
  A 1.00 0.99 -65.5 0 1 123.01 182.13
  Q 122.77 182.12 122.57 182.18
  Q 122.24 182.28 121.99 182.52
  Q 121.27 183.20 120.26 183.12
  Q 119.83 183.08 119.46 183.33
  Q 118.08 184.29 117.22 185.72
  Z" fill="#ffe5c4"></path>
<path d="M 95.96 147.81
  L 95.10 148.09
  Q 94.59 148.26 94.61 148.81
  C 94.76 152.30 93.42 155.01 92.87 158.26
  C 92.29 161.69 91.46 164.56 91.62 168.54
  Q 91.63 169.00 91.31 169.32
  Q 91.08 169.56 91.02 170.01
  Q 89.90 178.18 89.44 182.84
  Q 89.39 183.33 89.02 183.66
  Q 88.36 184.24 88.36 185.14
  Q 88.37 185.59 87.92 185.61
  Q 86.82 185.65 86.75 186.60
  Q 74.72 185.34 64.49 181.85
  C 58.97 179.96 51.36 177.18 45.55 174.01
  C 36.17 168.90 26.89 163.47 26.05 151.50
  C 25.11 137.97 39.55 128.09 51.90 132.23
  Q 53.88 132.90 61.26 137.39
  Q 77.04 146.98 95.96 147.81
  Z" fill="#ffbea7"></path>
</svg>
