<svg viewBox="0.00 0.00 512.00 512.00" version="1.1" xmlns="http://www.w3.org/2000/svg">
<g stroke-linecap="butt" fill="none" stroke-width="2.00">
<path d="M 498.23 136.41
  L 375.58 13.76" stroke="#f37524"></path>
<path d="M 477.84 156.95
  L 355.04 34.17" stroke="#915d33"></path>
<path d="M 457.41 177.35
  L 334.66 54.58" stroke="#915d33"></path>
<path d="M 222.42 412.34
  L 99.65 289.58" stroke="#915d33"></path>
<path d="M 177.2142 338.1758
  A 145.05 55.36 135.0 0 0 318.9254 274.7554
  A 145.05 55.36 135.0 0 0 382.3458 133.0442
  A 145.05 55.36 135.0 0 0 240.6346 196.4646
  A 145.05 55.36 135.0 0 0 177.2142 338.1758" stroke="#df6a24"></path>
<path d="M 202.00 432.77
  L 79.23 309.98" stroke="#915d33"></path>
<path d="M 181.51 453.12
  L 58.85 330.50" stroke="#f37524"></path>
</g>
<path d="M 394.13 0.00
  L 396.74 0.00
  Q 402.21 0.82 405.45 4.06
  Q 456.45 55.05 507.42 106.07
  Q 511.25 109.90 512.00 115.39
  L 512.00 117.75
  C 510.85 125.70 503.59 130.76 498.23 136.41
  L 375.58 13.76
  C 381.17 8.45 386.29 1.19 394.13 0.00
  Z" fill="#ea580c"></path>
<path d="M 375.58 13.76
  L 498.23 136.41
  L 477.84 156.95
  L 355.04 34.17
  L 375.58 13.76
  Z" fill="#fb923c"></path>
<path d="M 355.04 34.17
  L 477.84 156.95
  L 457.41 177.35
  L 334.66 54.58
  L 355.04 34.17
  Z" fill="#27272a"></path>
<path d="M 334.66 54.58
  L 457.41 177.35
  L 222.42 412.34
  L 99.65 289.58
  L 334.66 54.58
  Z
  M 177.2142 338.1758
  A 145.05 55.36 135.0 0 0 318.9254 274.7554
  A 145.05 55.36 135.0 0 0 382.3458 133.0442
  A 145.05 55.36 135.0 0 0 240.6346 196.4646
  A 145.05 55.36 135.0 0 0 177.2142 338.1758
  Z" fill="#fb923c"></path>
<ellipse ry="55.36" rx="145.05" transform="translate(279.78,235.61) rotate(135.0)" cy="0.00" cx="0.00" fill="#c2410c"></ellipse>
<path d="M 99.65 289.58
  L 222.42 412.34
  L 202.00 432.77
  L 79.23 309.98
  L 99.65 289.58
  Z" fill="#27272a"></path>
<path d="M 79.23 309.98
  L 202.00 432.77
  L 181.51 453.12
  L 58.85 330.50
  L 79.23 309.98
  Z" fill="#fb923c"></path>
<path d="M 58.85 330.50
  L 181.51 453.12
  C 173.79 460.50 166.45 472.02 154.17 466.35
  C 152.25 465.46 149.99 462.80 147.76 462.51
  Q 143.44 461.96 136.99 463.76
  C 120.91 468.25 105.23 475.11 90.11 482.15
  Q 59.74 496.29 29.95 511.76
  A 0.76 0.75 53.6 0 1 29.05 511.62
  L 0.00 482.40
  Q 0.00 482.33 0.00 482.25
  Q 19.92 444.47 37.04 405.37
  C 42.19 393.61 47.36 381.22 49.45 368.50
  C 50.45 362.37 47.16 361.57 45.34 357.16
  Q 42.94 351.37 45.16 346.06
  C 47.27 341.02 54.37 335.14 58.85 330.50
  Z" fill="#ea580c"></path>
</svg>
