<svg viewBox="0.00 0.00 32.00 32.00" version="1.1" xmlns="http://www.w3.org/2000/svg">
<g stroke-linecap="butt" fill="none" stroke-width="2.00">
<path d="M 3.61 0.00
  Q 1.24 1.05 0.00 3.54" stroke-opacity="0.525" stroke="#313131"></path>
<path d="M 28.47 0.00
  Q 31.09 1.23 32.00 3.56" stroke-opacity="0.525" stroke="#313131"></path>
<path d="M 32.00 28.56
  Q 30.98 30.49 29.08 32.00" stroke-opacity="0.525" stroke="#313131"></path>
<path d="M 3.48 32.00
  Q 1.08 30.97 0.00 28.35" stroke-opacity="0.525" stroke="#313131"></path>
<path d="M 9.24 7.44
  A 2.24 2.24 0.0 0 0 7.00 5.20
  A 2.24 2.24 0.0 0 0 4.76 7.44
  A 2.24 2.24 0.0 0 0 7.00 9.68
  A 2.24 2.24 0.0 0 0 9.24 7.44" stroke="#999999"></path>
<path d="M 7.48 14.25
  Q 5.87 14.04 5.08 15.30
  A 2.09 2.09 0.0 0 0 5.94 18.29
  C 8.52 19.55 9.07 17.42 9.31 15.54
  Q 9.37 15.05 9.72 14.70
  L 14.65 9.89
  A 1.18 1.17 -64.4 0 1 15.58 9.56
  Q 16.84 9.70 17.45 8.72
  A 0.96 0.94 -74.1 0 1 18.26 8.26
  L 21.50 8.24
  A 1.16 1.16 0.0 0 1 22.48 8.78
  C 23.57 10.47 25.82 9.66 26.34 8.01
  A 2.04 2.03 25.3 0 0 25.49 5.66
  Q 23.75 4.57 22.38 6.12
  Q 22.05 6.49 21.57 6.62
  Q 18.74 7.39 16.75 5.54
  A 1.94 1.94 0.0 0 0 13.48 7.02
  L 13.52 8.32
  A 1.19 1.19 0.0 0 1 13.16 9.22
  L 8.42 13.94
  Q 8.03 14.33 7.48 14.25" stroke="#999999"></path>
<path d="M 17.89 16.42
  A 2.22 2.22 0.0 0 0 15.67 14.20
  A 2.22 2.22 0.0 0 0 13.45 16.42
  A 2.22 2.22 0.0 0 0 15.67 18.64
  A 2.22 2.22 0.0 0 0 17.89 16.42" stroke="#999999"></path>
<path d="M 12.76 24.24
  L 9.94 24.26
  Q 9.30 24.26 8.96 23.71
  L 8.63 23.18
  Q 8.33 22.68 7.76 22.53
  Q 5.77 21.98 4.95 23.75
  A 2.16 2.15 23.0 0 0 6.13 26.66
  Q 7.58 27.21 8.80 26.06
  Q 9.12 25.75 9.56 25.75
  L 12.95 25.76
  Q 13.44 25.76 13.83 26.07
  Q 15.26 27.19 16.98 26.52
  Q 17.42 26.35 17.53 25.89
  C 18.19 23.13 21.24 20.80 23.24 18.83
  Q 23.56 18.51 24.02 18.51
  L 25.52 18.52
  Q 26.09 18.52 26.45 18.08
  Q 27.26 17.10 27.13 15.92
  A 1.92 1.92 0.0 0 0 25.27 14.22
  Q 22.66 14.15 22.76 16.67
  A 1.15 1.13 66.8 0 1 22.44 17.49
  L 17.59 22.38
  A 0.82 0.82 0.0 0 1 16.76 22.59
  Q 14.64 21.95 13.68 23.69
  Q 13.39 24.24 12.76 24.24" stroke="#999999"></path>
<path d="M 27.15 24.62
  A 2.22 2.22 0.0 0 0 24.93 22.40
  A 2.22 2.22 0.0 0 0 22.71 24.62
  A 2.22 2.22 0.0 0 0 24.93 26.84
  A 2.22 2.22 0.0 0 0 27.15 24.62" stroke="#999999"></path>
</g>
<path d="M 0.00 0.00
  L 3.61 0.00
  Q 1.24 1.05 0.00 3.54
  L 0.00 0.00
  Z" fill-opacity="0.051" fill="#030303"></path>
<path d="M 3.61 0.00
  L 28.47 0.00
  Q 31.09 1.23 32.00 3.56
  L 32.00 28.56
  Q 30.98 30.49 29.08 32.00
  L 3.48 32.00
  Q 1.08 30.97 0.00 28.35
  L 0.00 3.54
  Q 1.24 1.05 3.61 0.00
  Z
  M 9.24 7.44
  A 2.24 2.24 0.0 0 0 7.00 5.20
  A 2.24 2.24 0.0 0 0 4.76 7.44
  A 2.24 2.24 0.0 0 0 7.00 9.68
  A 2.24 2.24 0.0 0 0 9.24 7.44
  Z
  M 7.48 14.25
  Q 5.87 14.04 5.08 15.30
  A 2.09 2.09 0.0 0 0 5.94 18.29
  C 8.52 19.55 9.07 17.42 9.31 15.54
  Q 9.37 15.05 9.72 14.70
  L 14.65 9.89
  A 1.18 1.17 -64.4 0 1 15.58 9.56
  Q 16.84 9.70 17.45 8.72
  A 0.96 0.94 -74.1 0 1 18.26 8.26
  L 21.50 8.24
  A 1.16 1.16 0.0 0 1 22.48 8.78
  C 23.57 10.47 25.82 9.66 26.34 8.01
  A 2.04 2.03 25.3 0 0 25.49 5.66
  Q 23.75 4.57 22.38 6.12
  Q 22.05 6.49 21.57 6.62
  Q 18.74 7.39 16.75 5.54
  A 1.94 1.94 0.0 0 0 13.48 7.02
  L 13.52 8.32
  A 1.19 1.19 0.0 0 1 13.16 9.22
  L 8.42 13.94
  Q 8.03 14.33 7.48 14.25
  Z
  M 17.89 16.42
  A 2.22 2.22 0.0 0 0 15.67 14.20
  A 2.22 2.22 0.0 0 0 13.45 16.42
  A 2.22 2.22 0.0 0 0 15.67 18.64
  A 2.22 2.22 0.0 0 0 17.89 16.42
  Z
  M 12.76 24.24
  L 9.94 24.26
  Q 9.30 24.26 8.96 23.71
  L 8.63 23.18
  Q 8.33 22.68 7.76 22.53
  Q 5.77 21.98 4.95 23.75
  A 2.16 2.15 23.0 0 0 6.13 26.66
  Q 7.58 27.21 8.80 26.06
  Q 9.12 25.75 9.56 25.75
  L 12.95 25.76
  Q 13.44 25.76 13.83 26.07
  Q 15.26 27.19 16.98 26.52
  Q 17.42 26.35 17.53 25.89
  C 18.19 23.13 21.24 20.80 23.24 18.83
  Q 23.56 18.51 24.02 18.51
  L 25.52 18.52
  Q 26.09 18.52 26.45 18.08
  Q 27.26 17.10 27.13 15.92
  A 1.92 1.92 0.0 0 0 25.27 14.22
  Q 22.66 14.15 22.76 16.67
  A 1.15 1.13 66.8 0 1 22.44 17.49
  L 17.59 22.38
  A 0.82 0.82 0.0 0 1 16.76 22.59
  Q 14.64 21.95 13.68 23.69
  Q 13.39 24.24 12.76 24.24
  Z
  M 27.15 24.62
  A 2.22 2.22 0.0 0 0 24.93 22.40
  A 2.22 2.22 0.0 0 0 22.71 24.62
  A 2.22 2.22 0.0 0 0 24.93 26.84
  A 2.22 2.22 0.0 0 0 27.15 24.62
  Z" fill="#333333"></path>
<path d="M 28.47 0.00
  L 32.00 0.00
  L 32.00 3.56
  Q 31.09 1.23 28.47 0.00
  Z" fill-opacity="0.051" fill="#030303"></path>
<circle r="2.24" cy="7.44" cx="7.00" fill="#fefefe"></circle>
<path d="M 8.42 13.94
  L 13.16 9.22
  A 1.19 1.19 0.0 0 0 13.52 8.32
  L 13.48 7.02
  A 1.94 1.94 0.0 0 1 16.75 5.54
  Q 18.74 7.39 21.57 6.62
  Q 22.05 6.49 22.38 6.12
  Q 23.75 4.57 25.49 5.66
  A 2.04 2.03 25.3 0 1 26.34 8.01
  C 25.82 9.66 23.57 10.47 22.48 8.78
  A 1.16 1.16 0.0 0 0 21.50 8.24
  L 18.26 8.26
  A 0.96 0.94 -74.1 0 0 17.45 8.72
  Q 16.84 9.70 15.58 9.56
  A 1.18 1.17 -64.4 0 0 14.65 9.89
  L 9.72 14.70
  Q 9.37 15.05 9.31 15.54
  C 9.07 17.42 8.52 19.55 5.94 18.29
  A 2.09 2.09 0.0 0 1 5.08 15.30
  Q 5.87 14.04 7.48 14.25
  Q 8.03 14.33 8.42 13.94
  Z" fill="#fefefe"></path>
<circle r="2.22" cy="16.42" cx="15.67" fill="#fefefe"></circle>
<path d="M 13.68 23.69
  Q 14.64 21.95 16.76 22.59
  A 0.82 0.82 0.0 0 0 17.59 22.38
  L 22.44 17.49
  A 1.15 1.13 66.8 0 0 22.76 16.67
  Q 22.66 14.15 25.27 14.22
  A 1.92 1.92 0.0 0 1 27.13 15.92
  Q 27.26 17.10 26.45 18.08
  Q 26.09 18.52 25.52 18.52
  L 24.02 18.51
  Q 23.56 18.51 23.24 18.83
  C 21.24 20.80 18.19 23.13 17.53 25.89
  Q 17.42 26.35 16.98 26.52
  Q 15.26 27.19 13.83 26.07
  Q 13.44 25.76 12.95 25.76
  L 9.56 25.75
  Q 9.12 25.75 8.80 26.06
  Q 7.58 27.21 6.13 26.66
  A 2.16 2.15 23.0 0 1 4.95 23.75
  Q 5.77 21.98 7.76 22.53
  Q 8.33 22.68 8.63 23.18
  L 8.96 23.71
  Q 9.30 24.26 9.94 24.26
  L 12.76 24.24
  Q 13.39 24.24 13.68 23.69
  Z" fill="#fefefe"></path>
<circle r="2.22" cy="24.62" cx="24.93" fill="#fefefe"></circle>
<path d="M 0.00 28.35
  Q 1.08 30.97 3.48 32.00
  L 0.00 32.00
  L 0.00 28.35
  Z" fill-opacity="0.051" fill="#030303"></path>
<path d="M 32.00 28.56
  L 32.00 32.00
  L 29.08 32.00
  Q 30.98 30.49 32.00 28.56
  Z" fill-opacity="0.051" fill="#030303"></path>
</svg>
