<svg xmlns="http://www.w3.org/2000/svg" viewBox="0 0 512 512"><g fill="none" stroke-width="2"><path stroke="#dcdedf" d="m103.2 406.46 12.46 1.11q.46.04.17-.33-.21-.26-.6-.27-2.95-.04-4.73-.36"/><path stroke="#888989" d="M110.5 406.61c14.53-.11 29.89.41 43.5.35q64.54-.3 88-.07 7.02.07 9.48-1.76"/><path stroke="#dcdedf" d="M251.48 405.13q3.26-3.99 5.13-7.39.12-.23.37-.27.33-.04.14.23l-1.06 1.61a.23.22-6 0 0 .35.28l.25-.25q.31-.31.75-.3.97.02 1.5-.92 1.69-3.04 3.92-8.06.13-.29 1.7-2.92c1.15-1.93 1.48-4.19 3-6.12 1.88-2.4 2.86-4.91 4.3-7.49.5-.9.99-2.26 1.61-3.21 1.08-1.65 1.74-3.26 2.94-4.72 1.6-1.95 2.28-4.26 3.39-6.44.6-1.18 1.83-2.07 2.16-3.66q.09-.48.39-.87 2.18-2.94 3.11-6.44.12-.46.49-.77l2.46-2.07q.33-.28-.1-.32-.15-.02-.29.03-.33.11-.25-.24.08-.32.38-.15.16.09.32-.02.57-.42 2.81-.48 6.93-.19 13.85-.56c.68-.03.9-.27 1.44-.6q.43-.27.93-.28l8.03-.07"/><path stroke="#888989" d="m315.5 342.66 46.75-.34"/><path stroke="#dcdedf" d="m362.25 342.32 3.56.04a.02.02 0 0 0 0-.04q-.59-.15-1.14.26-.28.21-.64.22l-17.03.35q-.18.01-.19.2v.01q0 .12.12.14 12.13 1.39 24.23-.14.38-.05 3.65.06 2.16.08 3.89-1.4.37-.33.86-.36 3.26-.22 6.5-.37.2-.01.33-.09.15-.09.27-.2.31-.29.71-.15.42.16.8-.31.32-.41.79-.44.26-.02.06.14-.19.15-.42.23a.32.32 0 0 0 .17.62l2.08-.45q.48-.1.67-.56.24-.59.76-.46.4.1.77-.1 3.38-1.85 4.96-2.12 1.89-.33 3.07-.78c1.65-.63 3.08-.77 4.59-1.38q.47-.19.98-.11.84.14 1.38-.4.33-.32.74-.51 1.24-.56 2.53-.98c1.49-.49 2.87-1.54 4.7-1.73a1.48 1.45 19.9 0 0 .86-.39c1.61-1.5 3.39-1.76 5.33-2.65.99-.46 1.4-1.38 2.6-1.66q.51-.12.87-.5.72-.76 1.8-1.05.48-.14.85-.49.79-.77 2.44-1.53 1.97-.9 7.41-3.96c2.54-1.43 4.96-3.94 8.08-5.3q.59-.26 1-1.32.09-.23.75-.68.28-.18.63-.13a1.05 1.04-65 0 0 .95-.35c2.49-2.92 5.88-4.71 8.39-7.14q2.92-2.81 6.11-5.31c3.84-3.02 6.71-6.49 10.27-9.73.97-.88 1.17-2.13 1.85-3.01q1.88-2.44 2.54-3.01a9.67 1.43-60.2 0 0 3.16-4.01c1.96-2.98 3.77-5.73 4.65-9.38.93-3.81 1.98-6.92 1.5-11.26q-.1-.87-.18-4.81c-.08-4.13-2.04-7.76-3.92-11.34-.38-.73-1.24-1.41-1.33-2.55q-.04-.48-.31-.89-3.2-4.79-5.34-7.41c-.68-.84-1.55-1.02-2.28-2.02q-1.44-1.94-3.05-3.76-10.65-12.07-23.64-21.56-3.4-2.48-5.14-3.81c-1.73-1.33-3.98-2.21-5.76-3.85a1.02.03 18.3 0 0-.89-.32q-.87-.29-1.96-1.07-3.28-2.35-8.32-4.7c-1.25-.59-2.07-1.67-3.72-1.85q-.51-.06-.92-.36-4.24-3.07-7.87-1.59"/><path stroke="#888989" d="M413.41 186.76q-16.27-6.7-28.4-9.01-20.08-3.82-29.01-3.85-11.63-.04-23.17 0"/><path stroke="#dcdedf" d="M332.83 173.9q-4.83-.41-9.59-.64c-3.06-.14-5.24-1.53-8.97-.54q-.49.13-.98.04-.96-.19-2.29-.13-4.83.24-8.69 1.32"/><path stroke="#888989" d="m302.31 173.95-12.33-.08"/><path stroke="#dcdedf" d="M289.98 173.87c-4.64-2.06-4.79-4.52-7.03-8.05q-.22-.35-.33-.74-.19-.72-.8-1.11-.34-.22-.54-.59-1.51-2.85-2.95-5.74c-1.9-3.82-4.62-8.46-6.48-12.97-.5-1.21-1.74-3.26-2.51-4.26q-1.47-1.89-2.56-4.01c-1.2-2.32-3.28-4.51-3.94-7.47q-.05-.19-.2-.29-.12-.09-.24-.16-.16-.11-.27-.27-1.53-2.35-2.5-5.01-.17-.46-.58-.73c-1.18-.75-1.66-3.85-3.25-5.03q-.42-.32-.44-.83-.03-.48-.32-.86-.9-1.19-2.26-1.6"/><path stroke="#888989" d="m252.78 114.15-1.51-2.44a2.18 2.18 0 0 0-1.9-1.02c-13.53.4-29.69-.21-40.37-.2-35.74.02-71.34-.48-107.31.25a.73.72-14.9 0 0-.63 1.07q15.68 28.89 31.69 57.73 2.26 4.09 2.26 5.71-.43 82.69-.05 165.38c.01 1.59-.75 3.02-1.38 4.18q-16.44 30.04-32.78 60.16-.3.55.29.76l2.11.73"/><path stroke="#6d6e6f" d="M252.78 114.15q3.6 7.15 7.34 14.01 12.07 22.15 24 44.39c1.06 1.97 3.7 1.55 5.86 1.32M302.31 173.95l30.52-.05M413.41 186.76c27.12 12.27 51.19 29.17 67.26 54.8 4.86 7.75 8.28 16.27 4.32 25.2-3.45 7.78-9.87 15.88-16.26 22.56q-26.48 27.71-62.3 42.28-14.62 5.95-30.21 8.47-6.93 1.12-13.97 2.25M315.5 342.66l-29.14-.55a2.09 2.08-75 0 0-1.88 1.09q-15.33 28.06-30.05 55.45-1.35 2.51-2.95 6.48M110.5 406.61l-7.3-.15"/><path stroke="#888989" d="M118.84 214.96v-27.22a1.12 1.12 0 0 0-1.12-1.12H39.75a2.97 1.28 0 0 0-2.97 1.28v26.9a2.97 1.28 0 0 0 2.97 1.28h77.97a1.12 1.12 0 0 0 1.12-1.12M9.68 243.82a.76.75 0 0 0-.76.75l-.01 27.15q0 .64.61.79 2.69.66 5.48.67 51.57.1 103.14.09.51 0 .51-.52c.06-9.19.58-18.77-.44-27.9a1.2 1.2 0 0 0-1.19-1.07l-107.34.04M118.62 329.89l.04-27.3a1.15 1.15 0 0 0-1.14-1.15l-77.35-.14a3.42.98.1 0 0-3.43.98l-.04 27.64a3.42.98.1 0 0 3.41.98l77.35.14a1.15 1.15 0 0 0 1.16-1.15"/><path stroke="#dcdedf" d="M397.92 337.85q-.98-.07-1.81.61-.36.3.11.33 1.02.07 1.82-.51.54-.38-.12-.43M303.71 344.87a7.06.33 0 0 0-7.06-.33 7.06.33 0 0 0-7.06.33 7.06.33 0 0 0 7.06.33 7.06.33 0 0 0 7.06-.33M255.58 401.79l-2.11 2.67q-.34.43-.34.97v.32q0 .58.47.24.91-.67 1.05-1.78.06-.49.44-.82.72-.62.78-1.49.03-.51-.29-.11"/><path stroke="#888989" d="m169.31 173.99 87.24-.27q.71-.01.37-.63-8.58-15.35-17.05-30.7-1.35-2.45-2.83-4.1a2.18 2.18 0 0 0-1.62-.72l-43.21.27"/><path stroke="#6d6e6f" d="m192.21 137.84-5.95-.78q-.47-.07-.91.13c-1.78.79-3.49-.09-4.86-.08-11.88.14-25.02-1.08-37.7-.67q-.7.02-.37.64l19.96 36.37q.27.49.77.49l6.16.05"/><path stroke="#dcdedf" d="M192.21 137.84q-3.76.85-7.72.58-.91-.06-1.76.29-1 .41-1.42-.16-.28-.38-.75-.38-5.05-.1-10.1-.28c-2.16-.08-4.47.53-6.8.49q-.49-.01-.87.29-.4.31-.79.34-6.56.36-12.75-.13a2.07 2.06-5.3 0 0-2.16 2.6q.94 3.43 2.94 6.24a.52.5 32.5 0 1 .09.37q-.14.76.49.79.54.03.72.54c.77 2.16 2.43 4.11 3.28 5.64q2.87 5.2 5.66 10.43c.63 1.2 2.47 3.03 2.63 4.39a3.48 3.47 82.1 0 0 4.02 3.04q.77-.13 2.39 1.07"/><path stroke="#888989" d="m179.03 206.74 64.51 31.94a3.43 3.41 44.8 0 0 3.05 0l66.16-33"/><path stroke="#6d6e6f" d="m312.75 205.68 9.97-5.07q.77-.39-.09-.4-25.76-.27-49.38.35c-19.32.5-38.53.28-57.75-.04q-24.5-.41-48.81-.41-.75 0-.08.34l12.42 6.29"/><path stroke="#dcdedf" d="M312.75 205.68c-1.39-3.49-4.22-.73-6.72-2.06q-.47-.25-1-.25h-21.78q-.48 0-.88-.27-.76-.51-1.37.03a.48.47-33.8 0 1-.74-.14q-.43-.88-1.23-.52-.34.14-.7.11-10.38-1.04-14.33-.42-5.12.79-11.5.21c-2.18-.2-4.43.51-6.66.4q-6.26-.31-12.52-.1-2.21.07-5.14-.26-3.23-.36-5.19-.02c-2.58.44-5.03 1.05-7.67.96-10.88-.34-21.72.25-32.61-.19-1.22-.04-2.5.31-3.84.23q-.82-.06-.73.98.05.46.45.7 1.32.79.44 1.67"/><path stroke="#888989" d="m355.57 241.56-.14 47.12"/><path stroke="#6d6e6f" d="m355.43 288.68-.39 25.43q-.03 1.87 1.84 1.83l10.91-.22"/><path stroke="#888989" d="M367.79 315.72c3.35-.68 7.14-.77 10.08-1.3 22.33-4.01 42.84-14.62 60.09-29.21 9.42-7.96 17.49-17.43 16.9-30.02"/><path stroke="#6d6e6f" d="M454.86 255.19c-5.99-23.1-32.44-38.11-52.8-46.37-14.56-5.91-29.77-8.49-45.32-8.18a1.97 1.97 0 0 0-1.93 2.01l.76 38.91"/><path stroke="#dcdedf" d="M454.86 255.19q-.7-.67-1.38-.59-.44.05-.45-.4l-.05-1.93q-.01-.45-.38-.71-.94-.65-.66-1.97.06-.29-.22-.36l-.27-.06q-.26-.07-.38-.3c-1.56-2.99-3.58-6.13-5.86-8.69q-1.06-1.19-2.52-3.38-1.81-2.73-8.13-7.14c-.78-.54-1.3-1.42-2.06-1.9-2.71-1.72-5.17-3.88-8.01-5.35q-.86-.44-2.11-1.3-2.77-1.9-10.45-5.81-.39-.19-.82-.18-1.28.06-2.31-.76-.34-.27-.77-.35-.75-.15-1.25-.71-.31-.36-.77-.46c-3.74-.9-5.7-2.4-8.7-3.27q-2.45-.7-4.19-1.36-2.69-1.02-5.62-1.2-.48-.03-.91-.28l-1.85-1.06a1.02 1.01-35.3 0 0-.66-.11c-1.98.34-3.63-.41-5.42-.53q-1.43-.1-2.8-.48c-2.34-.64-4.35-.29-6.67-.67-1.85-.31-3.39-1.76-5.89-.62q-.49.23-1.04.17-2.81-.31-5.52.32a.79.79 0 0 0-.61.76l-.56 37.05M367.79 315.72l-11.07-.97a1.13 1.13 0 0 1-.96-1.5c.65-1.85.09-3.43.12-4.77q.22-9.89-.45-19.8"/><path stroke="#888989" d="m192.54 315.9 133.11-.07a.54.54 0 0 0 .54-.54l.12-79.07"/><path stroke="#6d6e6f" d="m326.31 236.22.07-10.14q0-.51-.45-.28l-80.68 40.05q-.44.22-.88 0l-80.56-40.26q-.46-.23-.51.29c-.5 5.08-.02 10.44.22 15.53.39 8.01.05 16.23.37 24.34.57 14.41-.31 28.75-.05 42q.08 3.75-.33 7.22a.77.76 3.7 0 0 .76.85l28.27.08"/><path stroke="#dcdedf" d="M326.31 236.22q-.18-2.42-1.37-3.44-1.22-1.04-2.68-.4l-9.16 3.98q-.31.13-.51.41-.2.29-.58.35-1.53.25-2.77 1.06c-1.54 1.01-2.36 1.29-3.94 1.73q-.46.12-.79.46c-.9.93-2.22 1.03-3.03 1.41q-2.6 1.22-5.31 2.17-.44.16-.7.55-.25.4-.76.4-.39.01-.72.21c-1.03.59-1.87.9-2.84 1.7q-1.37 1.13-3.16 1.56c-1.29.32-1.94 1.27-3.04 1.72q-4.72 1.92-9.01 4.68-1.93 1.23-4.17 1.82-2.32.61-4.58 1.48-.46.17-.78.53c-1.58 1.77-4.64 2.82-6.71 4.07-1.23.74-2.8.91-4.08 1.81-1.04.73-1.83.85-2.95 1.25q-.83.28-2.1 1.17-3.08 2.13-6.99 1.15-.08-.02-.05-.1.05-.1-.01-.27-.02-.05.03-.04 2.83.22 5.55-.44.04 0 .04.03.17.57-.01-.1a.11.1-17.7 0 0-.14-.07q-4 1.51-7.58-.62-.34-.2-.69-.36l-9.29-4.02q-.27-.12-.06-.33l.25-.24q.12-.12-.03-.19c-2.69-1.29-6.01-3.37-8.97-3.68-1.96-.2-2.79-2.14-4.61-2.09q-.49.01-.92-.23-5.47-3.07-11.23-5.55c-1.47-.63-2.86-1.66-4.39-2.34-3.52-1.56-6.74-3.4-10.1-5.26-2.27-1.26-5.99-2.13-8.51-4.91q-.34-.37-.84-.37h-1.01a1.62 1.57-25.1 0 1-.99-.34c-1.42-1.12-2.79-1.02-4.2-2.17-1.14-.93-2.75-1.17-4-2.27q-.47-.42.15-.3.93.16 1.61.91-.06.12.11-.19a.37.37 0 0 0-.2-.54q-2.53-.82-5.08-1.59-2.45-.74-2.76 1.62-.33 2.45-.53 7.42-.02.32-.24.55-.1.1-.19.2-.32.39-.33.9-.01 4.92.33 9.82c.08 1.18.61 2.5.6 3.86-.02 7.53-.69 15.6-.61 22.51q.11 11.12.5 22.24.02.66-.37.83-.32.14-.32.48l-.16 12.88a1.41 1.4.4 0 0 1.4 1.41q2.93.01 6.1.34c3.39.36 7.07-.43 10.76.29q.2.04.38-.06l.32-.17q.37-.2.79-.15 4.83.59 9.66-.05a.29.29 0 0 1 .12.57q-.47.14-1.32.03"/><path stroke="#888989" d="m150.75 379.37 85.23-.3a1.24 1.21 13.7 0 0 1.06-.63l18.27-32.95"/><path stroke="#6d6e6f" d="m255.31 345.49 1.59-2.96a.2.2 0 0 0-.18-.3l-93.44.11q-.6 0-.88.52l-19.55 35.56q-.53.96.57.96l7.33-.01"/><path stroke="#dcdedf" d="M255.31 345.49q-11.79-.75-23.14-.69c-2.09.01-5.06.91-7.8.12q-.71-.2-.04-.51.55-.25 1.02-.01.34.18.72.16 5.02-.26 10.04-.17.02 0 .02.02v-.04q-.01-.04-.03-.03-8.21.26-16.35-.66-1.3-.15-5.62-.05h-.01v.01q0 .02.02.02 3.79-.21 7.55.29.06.01.05.07v.06q0 .13-.13.12-8.41-.18-16.82.1-.05.01-.08.03-.13.09-.21.22-.16.24-.44.27-5.31.54-10.65.58c-2.02.01-4.75-.84-6.66-.55q-7.04 1.1-10.75.8-4.94-.4-8.01.1c-1.17.19-2.21-.01-3.14 1.09q-3.23 3.87-5.4 8.42-.2.42-.56.72-.68.55-.82 1.38-.07.42-.26.8l-4.95 10.03q-.4.82-.63-.06-.23-.92.58-1.67.07-.06.07-.15v-.33q0-.07-.04 0c-.77 1.55-1.1 2.88-2.83 3.71q-.44.21-.64.65l-3.19 7a.94.94 0 0 0 .68 1.31l3.89.72M164.198 139.364a.26.26 0 0 0-.267-.253l-11.396.298a.26.26 0 0 0-.253.267v.02a.26.26 0 0 0 .267.253l11.396-.298a.26.26 0 0 0 .253-.267v-.02"/></g><path fill="#f7f9f9" d="M0 0h512v512H0V0Zm103.2 406.46 12.46 1.11q.46.04.17-.33-.21-.26-.6-.27-2.95-.04-4.73-.36c14.53-.11 29.89.41 43.5.35q64.54-.3 88-.07 7.02.07 9.48-1.76 3.26-3.99 5.13-7.39.12-.23.37-.27.33-.04.14.23l-1.06 1.61a.23.22-6 0 0 .35.28l.25-.25q.31-.31.75-.3.97.02 1.5-.92 1.69-3.04 3.92-8.06.13-.29 1.7-2.92c1.15-1.93 1.48-4.19 3-6.12 1.88-2.4 2.86-4.91 4.3-7.49.5-.9.99-2.26 1.61-3.21 1.08-1.65 1.74-3.26 2.94-4.72 1.6-1.95 2.28-4.26 3.39-6.44.6-1.18 1.83-2.07 2.16-3.66q.09-.48.39-.87 2.18-2.94 3.11-6.44.12-.46.49-.77l2.46-2.07q.33-.28-.1-.32-.15-.02-.29.03-.33.11-.25-.24.08-.32.38-.15.16.09.32-.02.57-.42 2.81-.48 6.93-.19 13.85-.56c.68-.03.9-.27 1.44-.6q.43-.27.93-.28l8.03-.07 46.75-.34 3.56.04a.02.02 0 0 0 0-.04q-.59-.15-1.14.26-.28.21-.64.22l-17.03.35q-.18.01-.19.2v.01q0 .12.12.14 12.13 1.39 24.23-.14.38-.05 3.65.06 2.16.08 3.89-1.4.37-.33.86-.36 3.26-.22 6.5-.37.2-.01.33-.09.15-.09.27-.2.31-.29.71-.15.42.16.8-.31.32-.41.79-.44.26-.02.06.14-.19.15-.42.23a.32.32 0 0 0 .17.62l2.08-.45q.48-.1.67-.56.24-.59.76-.46.4.1.77-.1 3.38-1.85 4.96-2.12 1.89-.33 3.07-.78c1.65-.63 3.08-.77 4.59-1.38q.47-.19.98-.11.84.14 1.38-.4.33-.32.74-.51 1.24-.56 2.53-.98c1.49-.49 2.87-1.54 4.7-1.73a1.48 1.45 19.9 0 0 .86-.39c1.61-1.5 3.39-1.76 5.33-2.65.99-.46 1.4-1.38 2.6-1.66q.51-.12.87-.5.72-.76 1.8-1.05.48-.14.85-.49.79-.77 2.44-1.53 1.97-.9 7.41-3.96c2.54-1.43 4.96-3.94 8.08-5.3q.59-.26 1-1.32.09-.23.75-.68.28-.18.63-.13a1.05 1.04-65 0 0 .95-.35c2.49-2.92 5.88-4.71 8.39-7.14q2.92-2.81 6.11-5.31c3.84-3.02 6.71-6.49 10.27-9.73.97-.88 1.17-2.13 1.85-3.01q1.88-2.44 2.54-3.01a9.67 1.43-60.2 0 0 3.16-4.01c1.96-2.98 3.77-5.73 4.65-9.38.93-3.81 1.98-6.92 1.5-11.26q-.1-.87-.18-4.81c-.08-4.13-2.04-7.76-3.92-11.34-.38-.73-1.24-1.41-1.33-2.55q-.04-.48-.31-.89-3.2-4.79-5.34-7.41c-.68-.84-1.55-1.02-2.28-2.02q-1.44-1.94-3.05-3.76-10.65-12.07-23.64-21.56-3.4-2.48-5.14-3.81c-1.73-1.33-3.98-2.21-5.76-3.85a1.02.03 18.3 0 0-.89-.32q-.87-.29-1.96-1.07-3.28-2.35-8.32-4.7c-1.25-.59-2.07-1.67-3.72-1.85q-.51-.06-.92-.36-4.24-3.07-7.87-1.59-16.27-6.7-28.4-9.01-20.08-3.82-29.01-3.85-11.63-.04-23.17 0-4.83-.41-9.59-.64c-3.06-.14-5.24-1.53-8.97-.54q-.49.13-.98.04-.96-.19-2.29-.13-4.83.24-8.69 1.32l-12.33-.08c-4.64-2.06-4.79-4.52-7.03-8.05q-.22-.35-.33-.74-.19-.72-.8-1.11-.34-.22-.54-.59-1.51-2.85-2.95-5.74c-1.9-3.82-4.62-8.46-6.48-12.97-.5-1.21-1.74-3.26-2.51-4.26q-1.47-1.89-2.56-4.01c-1.2-2.32-3.28-4.51-3.94-7.47q-.05-.19-.2-.29-.12-.09-.24-.16-.16-.11-.27-.27-1.53-2.35-2.5-5.01-.17-.46-.58-.73c-1.18-.75-1.66-3.85-3.25-5.03q-.42-.32-.44-.83-.03-.48-.32-.86-.9-1.19-2.26-1.6l-1.51-2.44a2.18 2.18 0 0 0-1.9-1.02c-13.53.4-29.69-.21-40.37-.2-35.74.02-71.34-.48-107.31.25a.73.72-14.9 0 0-.63 1.07q15.68 28.89 31.69 57.73 2.26 4.09 2.26 5.71-.43 82.69-.05 165.38c.01 1.59-.75 3.02-1.38 4.18q-16.44 30.04-32.78 60.16-.3.55.29.76l2.11.73Zm15.64-191.5v-27.22a1.12 1.12 0 0 0-1.12-1.12H39.75a2.97 1.28 0 0 0-2.97 1.28v26.9a2.97 1.28 0 0 0 2.97 1.28h77.97a1.12 1.12 0 0 0 1.12-1.12ZM9.68 243.82a.76.75 0 0 0-.76.75l-.01 27.15q0 .64.61.79 2.69.66 5.48.67 51.57.1 103.14.09.51 0 .51-.52c.06-9.19.58-18.77-.44-27.9a1.2 1.2 0 0 0-1.19-1.07l-107.34.04Zm108.94 86.07.04-27.3a1.15 1.15 0 0 0-1.14-1.15l-77.35-.14a3.42.98.1 0 0-3.43.98l-.04 27.64a3.42.98.1 0 0 3.41.98l77.35.14a1.15 1.15 0 0 0 1.16-1.15Zm279.3 7.96q-.98-.07-1.81.61-.36.3.11.33 1.02.07 1.82-.51.54-.38-.12-.43Zm-94.21 7.02a7.06.33 0 0 0-7.06-.33 7.06.33 0 0 0-7.06.33 7.06.33 0 0 0 7.06.33 7.06.33 0 0 0 7.06-.33Zm-48.13 56.92-2.11 2.67q-.34.43-.34.97v.32q0 .58.47.24.91-.67 1.05-1.78.06-.49.44-.82.72-.62.78-1.49.03-.51-.29-.11Z"/><path fill="#191919" d="M252.78 114.15q3.6 7.15 7.34 14.01 12.07 22.15 24 44.39c1.06 1.97 3.7 1.55 5.86 1.32l12.33.08 30.52-.05q11.54-.04 23.17 0 8.93.03 29.01 3.85 12.13 2.31 28.4 9.01c27.12 12.27 51.19 29.17 67.26 54.8 4.86 7.75 8.28 16.27 4.32 25.2-3.45 7.78-9.87 15.88-16.26 22.56q-26.48 27.71-62.3 42.28-14.62 5.95-30.21 8.47-6.93 1.12-13.97 2.25l-46.75.34-29.14-.55a2.09 2.08-75 0 0-1.88 1.09q-15.33 28.06-30.05 55.45-1.35 2.51-2.95 6.48-2.46 1.83-9.48 1.76-23.46-.23-88 .07c-13.61.06-28.97-.46-43.5-.35l-7.3-.15-2.11-.73q-.59-.21-.29-.76 16.34-30.12 32.78-60.16c.63-1.16 1.39-2.59 1.38-4.18q-.38-82.69.05-165.38 0-1.62-2.26-5.71-16.01-28.84-31.69-57.73a.73.72-14.9 0 1 .63-1.07c35.97-.73 71.57-.23 107.31-.25 10.68-.01 26.84.6 40.37.2a2.18 2.18 0 0 1 1.9 1.02l1.51 2.44Zm-83.47 59.84 87.24-.27q.71-.01.37-.63-8.58-15.35-17.05-30.7-1.35-2.45-2.83-4.1a2.18 2.18 0 0 0-1.62-.72l-43.21.27-5.95-.78q-.47-.07-.91.13c-1.78.79-3.49-.09-4.86-.08-11.88.14-25.02-1.08-37.7-.67q-.7.02-.37.64l19.96 36.37q.27.49.77.49l6.16.05Zm9.72 32.75 64.51 31.94a3.43 3.41 44.8 0 0 3.05 0l66.16-33 9.97-5.07q.77-.39-.09-.4-25.76-.27-49.38.35c-19.32.5-38.53.28-57.75-.04q-24.5-.41-48.81-.41-.75 0-.08.34l12.42 6.29Zm176.54 34.82-.14 47.12-.39 25.43q-.03 1.87 1.84 1.83l10.91-.22c3.35-.68 7.14-.77 10.08-1.3 22.33-4.01 42.84-14.62 60.09-29.21 9.42-7.96 17.49-17.43 16.9-30.02-5.99-23.1-32.44-38.11-52.8-46.37-14.56-5.91-29.77-8.49-45.32-8.18a1.97 1.97 0 0 0-1.93 2.01l.76 38.91ZM192.54 315.9l133.11-.07a.54.54 0 0 0 .54-.54l.12-79.07.07-10.14q0-.51-.45-.28l-80.68 40.05q-.44.22-.88 0l-80.56-40.26q-.46-.23-.51.29c-.5 5.08-.02 10.44.22 15.53.39 8.01.05 16.23.37 24.34.57 14.41-.31 28.75-.05 42q.08 3.75-.33 7.22a.77.76 3.7 0 0 .76.85l28.27.08Zm-41.79 63.47 85.23-.3a1.24 1.21 13.7 0 0 1.06-.63l18.27-32.95 1.59-2.96a.2.2 0 0 0-.18-.3l-93.44.11q-.6 0-.88.52l-19.55 35.56q-.53.96.57.96l7.33-.01Z"/><path fill="#c1c3c5" d="M252.78 114.15q1.36.41 2.26 1.6.29.38.32.86.02.51.44.83c1.59 1.18 2.07 4.28 3.25 5.03q.41.27.58.73.97 2.66 2.5 5.01.11.16.27.27.12.07.24.16.15.1.2.29c.66 2.96 2.74 5.15 3.94 7.47q1.09 2.12 2.56 4.01c.77 1 2.01 3.05 2.51 4.26 1.86 4.51 4.58 9.15 6.48 12.97q1.44 2.89 2.95 5.74.2.37.54.59.61.39.8 1.11.11.39.33.74c2.24 3.53 2.39 5.99 7.03 8.05-2.16.23-4.8.65-5.86-1.32q-11.93-22.24-24-44.39-3.74-6.86-7.34-14.01ZM192.21 137.84q-3.76.85-7.72.58-.91-.06-1.76.29-1 .41-1.42-.16-.28-.38-.75-.38-5.05-.1-10.1-.28c-2.16-.08-4.47.53-6.8.49q-.49-.01-.87.29-.4.31-.79.34-6.56.36-12.75-.13a2.07 2.06-5.3 0 0-2.16 2.6q.94 3.43 2.94 6.24a.52.5 32.5 0 1 .09.37q-.14.76.49.79.54.03.72.54c.77 2.16 2.43 4.11 3.28 5.64q2.87 5.2 5.66 10.43c.63 1.2 2.47 3.03 2.63 4.39a3.48 3.47 82.1 0 0 4.02 3.04q.77-.13 2.39 1.07l-6.16-.05q-.5 0-.77-.49l-19.96-36.37q-.33-.62.37-.64c12.68-.41 25.82.81 37.7.67 1.37-.01 3.08.87 4.86.08q.44-.2.91-.13l5.95.78Z"/><path fill="#f7f9f9" d="m192.21 137.84 43.21-.27a2.18 2.18 0 0 1 1.62.72q1.48 1.65 2.83 4.1 8.47 15.35 17.05 30.7.34.62-.37.63l-87.24.27q-1.62-1.2-2.39-1.07a3.48 3.47 82.1 0 1-4.02-3.04c-.16-1.36-2-3.19-2.63-4.39q-2.79-5.23-5.66-10.43c-.85-1.53-2.51-3.48-3.28-5.64q-.18-.51-.72-.54-.63-.03-.49-.79a.52.5 32.5 0 0-.09-.37q-2-2.81-2.94-6.24a2.07 2.06-5.3 0 1 2.16-2.6q6.19.49 12.75.13.39-.03.79-.34.38-.3.87-.29c2.33.04 4.64-.57 6.8-.49q5.05.18 10.1.28.47 0 .75.38.42.57 1.42.16.85-.35 1.76-.29 3.96.27 7.72-.58Zm-28.012 1.524a.26.26 0 0 0-.267-.253l-11.396.298a.26.26 0 0 0-.253.267v.02a.26.26 0 0 0 .267.253l11.396-.298a.26.26 0 0 0 .253-.267v-.02Z"/><rect width="11.92" height=".54" x="-5.96" y="-.27" fill="#c1c3c5" rx=".26" transform="rotate(-1.5 5408.469 -5974.213)"/><path fill="#c1c3c5" d="m332.83 173.9-30.52.05q3.86-1.08 8.69-1.32 1.33-.06 2.29.13.49.09.98-.04c3.73-.99 5.91.4 8.97.54q4.76.23 9.59.64ZM362.25 342.32q7.04-1.13 13.97-2.25 15.59-2.52 30.21-8.47 35.82-14.57 62.3-42.28c6.39-6.68 12.81-14.78 16.26-22.56 3.96-8.93.54-17.45-4.32-25.2-16.07-25.63-40.14-42.53-67.26-54.8q3.63-1.48 7.87 1.59.41.3.92.36c1.65.18 2.47 1.26 3.72 1.85q5.04 2.35 8.32 4.7 1.09.78 1.96 1.07a1.02.03 18.3 0 1 .89.32c1.78 1.64 4.03 2.52 5.76 3.85q1.74 1.33 5.14 3.81 12.99 9.49 23.64 21.56 1.61 1.82 3.05 3.76c.73 1 1.6 1.18 2.28 2.02q2.14 2.62 5.34 7.41.27.41.31.89c.09 1.14.95 1.82 1.33 2.55 1.88 3.58 3.84 7.21 3.92 11.34q.08 3.94.18 4.81c.48 4.34-.57 7.45-1.5 11.26-.88 3.65-2.69 6.4-4.65 9.38a9.67 1.43-60.2 0 1-3.16 4.01q-.66.57-2.54 3.01c-.68.88-.88 2.13-1.85 3.01-3.56 3.24-6.43 6.71-10.27 9.73q-3.19 2.5-6.11 5.31c-2.51 2.43-5.9 4.22-8.39 7.14a1.05 1.04-65 0 1-.95.35q-.35-.05-.63.13-.66.45-.75.68-.41 1.06-1 1.32c-3.12 1.36-5.54 3.87-8.08 5.3q-5.44 3.06-7.41 3.96-1.65.76-2.44 1.53-.37.35-.85.49-1.08.29-1.8 1.05-.36.38-.87.5c-1.2.28-1.61 1.2-2.6 1.66-1.94.89-3.72 1.15-5.33 2.65a1.48 1.45 19.9 0 1-.86.39c-1.83.19-3.21 1.24-4.7 1.73q-1.29.42-2.53.98-.41.19-.74.51-.54.54-1.38.4-.51-.08-.98.11c-1.51.61-2.94.75-4.59 1.38q-1.18.45-3.07.78-1.58.27-4.96 2.12-.37.2-.77.1-.52-.13-.76.46-.19.46-.67.56l-2.08.45a.32.32 0 0 1-.17-.62q.23-.08.42-.23.2-.16-.06-.14-.47.03-.79.44-.38.47-.8.31-.4-.14-.71.15-.12.11-.27.2-.13.08-.33.09-3.24.15-6.5.37-.49.03-.86.36-1.73 1.48-3.89 1.4-3.27-.11-3.65-.06-12.1 1.53-24.23.14-.12-.02-.12-.14v-.01q.01-.19.19-.2l17.03-.35q.36-.01.64-.22.55-.41 1.14-.26a.02.02 0 0 1 0 .04l-3.56-.04Z"/><path fill="#191919" d="M118.84 214.96a1.12 1.12 0 0 1-1.12 1.12H39.75a2.97 1.28 0 0 1-2.97-1.28v-26.9a2.97 1.28 0 0 1 2.97-1.28h77.97a1.12 1.12 0 0 1 1.12 1.12v27.22Z"/><path fill="#c1c3c5" d="M312.75 205.68c-1.39-3.49-4.22-.73-6.72-2.06q-.47-.25-1-.25h-21.78q-.48 0-.88-.27-.76-.51-1.37.03a.48.47-33.8 0 1-.74-.14q-.43-.88-1.23-.52-.34.14-.7.11-10.38-1.04-14.33-.42-5.12.79-11.5.21c-2.18-.2-4.43.51-6.66.4q-6.26-.31-12.52-.1-2.21.07-5.14-.26-3.23-.36-5.19-.02c-2.58.44-5.03 1.05-7.67.96-10.88-.34-21.72.25-32.61-.19-1.22-.04-2.5.31-3.84.23q-.82-.06-.73.98.05.46.45.7 1.32.79.44 1.67l-12.42-6.29q-.67-.34.08-.34 24.31 0 48.81.41c19.22.32 38.43.54 57.75.04q23.62-.62 49.38-.35.86.01.09.4l-9.97 5.07ZM454.86 255.19q-.7-.67-1.38-.59-.44.05-.45-.4l-.05-1.93q-.01-.45-.38-.71-.94-.65-.66-1.97.06-.29-.22-.36l-.27-.06q-.26-.07-.38-.3c-1.56-2.99-3.58-6.13-5.86-8.69q-1.06-1.19-2.52-3.38-1.81-2.73-8.13-7.14c-.78-.54-1.3-1.42-2.06-1.9-2.71-1.72-5.17-3.88-8.01-5.35q-.86-.44-2.11-1.3-2.77-1.9-10.45-5.81-.39-.19-.82-.18-1.28.06-2.31-.76-.34-.27-.77-.35-.75-.15-1.25-.71-.31-.36-.77-.46c-3.74-.9-5.7-2.4-8.7-3.27q-2.45-.7-4.19-1.36-2.69-1.02-5.62-1.2-.48-.03-.91-.28l-1.85-1.06a1.02 1.01-35.3 0 0-.66-.11c-1.98.34-3.63-.41-5.42-.53q-1.43-.1-2.8-.48c-2.34-.64-4.35-.29-6.67-.67-1.85-.31-3.39-1.76-5.89-.62q-.49.23-1.04.17-2.81-.31-5.52.32a.79.79 0 0 0-.61.76l-.56 37.05-.76-38.91a1.97 1.97 0 0 1 1.93-2.01c15.55-.31 30.76 2.27 45.32 8.18 20.36 8.26 46.81 23.27 52.8 46.37Z"/><path fill="#f7f9f9" d="m312.75 205.68-66.16 33a3.43 3.41 44.8 0 1-3.05 0l-64.51-31.94q.88-.88-.44-1.67-.4-.24-.45-.7-.09-1.04.73-.98c1.34.08 2.62-.27 3.84-.23 10.89.44 21.73-.15 32.61.19 2.64.09 5.09-.52 7.67-.96q1.96-.34 5.19.02 2.93.33 5.14.26 6.26-.21 12.52.1c2.23.11 4.48-.6 6.66-.4q6.38.58 11.5-.21 3.95-.62 14.33.42.36.03.7-.11.8-.36 1.23.52a.48.47-33.8 0 0 .74.14q.61-.54 1.37-.03.4.27.88.27h21.78q.53 0 1 .25c2.5 1.33 5.33-1.43 6.72 2.06ZM454.86 255.19c.59 12.59-7.48 22.06-16.9 30.02-17.25 14.59-37.76 25.2-60.09 29.21-2.94.53-6.73.62-10.08 1.3l-11.07-.97a1.13 1.13 0 0 1-.96-1.5c.65-1.85.09-3.43.12-4.77q.22-9.89-.45-19.8l.14-47.12.56-37.05a.79.79 0 0 1 .61-.76q2.71-.63 5.52-.32.55.06 1.04-.17c2.5-1.14 4.04.31 5.89.62 2.32.38 4.33.03 6.67.67q1.37.38 2.8.48c1.79.12 3.44.87 5.42.53a1.02 1.01-35.3 0 1 .66.11l1.85 1.06q.43.25.91.28 2.93.18 5.62 1.2 1.74.66 4.19 1.36c3 .87 4.96 2.37 8.7 3.27q.46.1.77.46.5.56 1.25.71.43.08.77.35 1.03.82 2.31.76.43-.01.82.18 7.68 3.91 10.45 5.81 1.25.86 2.11 1.3c2.84 1.47 5.3 3.63 8.01 5.35.76.48 1.28 1.36 2.06 1.9q6.32 4.41 8.13 7.14 1.46 2.19 2.52 3.38c2.28 2.56 4.3 5.7 5.86 8.69q.12.23.38.3l.27.06q.28.07.22.36-.28 1.32.66 1.97.37.26.38.71l.05 1.93q.01.45.45.4.68-.08 1.38.59Z"/><path fill="#c1c3c5" d="M326.31 236.22q-.18-2.42-1.37-3.44-1.22-1.04-2.68-.4l-9.16 3.98q-.31.13-.51.41-.2.29-.58.35-1.53.25-2.77 1.06c-1.54 1.01-2.36 1.29-3.94 1.73q-.46.12-.79.46c-.9.93-2.22 1.03-3.03 1.41q-2.6 1.22-5.31 2.17-.44.16-.7.55-.25.4-.76.4-.39.01-.72.21c-1.03.59-1.87.9-2.84 1.7q-1.37 1.13-3.16 1.56c-1.29.32-1.94 1.27-3.04 1.72q-4.72 1.92-9.01 4.68-1.93 1.23-4.17 1.82-2.32.61-4.58 1.48-.46.17-.78.53c-1.58 1.77-4.64 2.82-6.71 4.07-1.23.74-2.8.91-4.08 1.81-1.04.73-1.83.85-2.95 1.25q-.83.28-2.1 1.17-3.08 2.13-6.99 1.15-.08-.02-.05-.1.05-.1-.01-.27-.02-.05.03-.04 2.83.22 5.55-.44.04 0 .04.03.17.57-.01-.1a.11.1-17.7 0 0-.14-.07q-4 1.51-7.58-.62-.34-.2-.69-.36l-9.29-4.02q-.27-.12-.06-.33l.25-.24q.12-.12-.03-.19c-2.69-1.29-6.01-3.37-8.97-3.68-1.96-.2-2.79-2.14-4.61-2.09q-.49.01-.92-.23-5.47-3.07-11.23-5.55c-1.47-.63-2.86-1.66-4.39-2.34-3.52-1.56-6.74-3.4-10.1-5.26-2.27-1.26-5.99-2.13-8.51-4.91q-.34-.37-.84-.37h-1.01a1.62 1.57-25.1 0 1-.99-.34c-1.42-1.12-2.79-1.02-4.2-2.17-1.14-.93-2.75-1.17-4-2.27q-.47-.42.15-.3.93.16 1.61.91-.06.12.11-.19a.37.37 0 0 0-.2-.54q-2.53-.82-5.08-1.59-2.45-.74-2.76 1.62-.33 2.45-.53 7.42-.02.32-.24.55-.1.1-.19.2-.32.39-.33.9-.01 4.92.33 9.82c.08 1.18.61 2.5.6 3.86-.02 7.53-.69 15.6-.61 22.51q.11 11.12.5 22.24.02.66-.37.83-.32.14-.32.48l-.16 12.88a1.41 1.4.4 0 0 1.4 1.41q2.93.01 6.1.34c3.39.36 7.07-.43 10.76.29q.2.04.38-.06l.32-.17q.37-.2.79-.15 4.83.59 9.66-.05a.29.29 0 0 1 .12.57q-.47.14-1.32.03l-28.27-.08a.77.76 3.7 0 1-.76-.85q.41-3.47.33-7.22c-.26-13.25.62-27.59.05-42-.32-8.11.02-16.33-.37-24.34-.24-5.09-.72-10.45-.22-15.53q.05-.52.51-.29l80.56 40.26q.44.22.88 0l80.68-40.05q.45-.23.45.28l-.07 10.14Z"/><path fill="#f7f9f9" d="m326.31 236.22-.12 79.07a.54.54 0 0 1-.54.54l-133.11.07q.85.11 1.32-.03a.29.29 0 0 0-.12-.57q-4.83.64-9.66.05-.42-.05-.79.15l-.32.17q-.18.1-.38.06c-3.69-.72-7.37.07-10.76-.29q-3.17-.33-6.1-.34a1.41 1.4.4 0 1-1.4-1.41l.16-12.88q0-.34.32-.48.39-.17.37-.83-.39-11.12-.5-22.24c-.08-6.91.59-14.98.61-22.51.01-1.36-.52-2.68-.6-3.86q-.34-4.9-.33-9.82.01-.51.33-.9.09-.1.19-.2.22-.23.24-.55.2-4.97.53-7.42.31-2.36 2.76-1.62 2.55.77 5.08 1.59a.37.37 0 0 1 .2.54q-.17.31-.11.19-.68-.75-1.61-.91-.62-.12-.15.3c1.25 1.1 2.86 1.34 4 2.27 1.41 1.15 2.78 1.05 4.2 2.17a1.62 1.57-25.1 0 0 .99.34h1.01q.5 0 .84.37c2.52 2.78 6.24 3.65 8.51 4.91 3.36 1.86 6.58 3.7 10.1 5.26 1.53.68 2.92 1.71 4.39 2.34q5.76 2.48 11.23 5.55.43.24.92.23c1.82-.05 2.65 1.89 4.61 2.09 2.96.31 6.28 2.39 8.97 3.68q.15.07.03.19l-.25.24q-.21.21.06.33l9.29 4.02q.35.16.69.36 3.58 2.13 7.58.62a.11.1-17.7 0 1 .14.07q.18.67.01.1 0-.03-.04-.03-2.72.66-5.55.44-.05-.01-.03.04.06.17.01.27-.03.08.05.1 3.91.98 6.99-1.15 1.27-.89 2.1-1.17c1.12-.4 1.91-.52 2.95-1.25 1.28-.9 2.85-1.07 4.08-1.81 2.07-1.25 5.13-2.3 6.71-4.07q.32-.36.78-.53 2.26-.87 4.58-1.48 2.24-.59 4.17-1.82 4.29-2.76 9.01-4.68c1.1-.45 1.75-1.4 3.04-1.72q1.79-.43 3.16-1.56c.97-.8 1.81-1.11 2.84-1.7q.33-.2.72-.21.51 0 .76-.4.26-.39.7-.55 2.71-.95 5.31-2.17c.81-.38 2.13-.48 3.03-1.41q.33-.34.79-.46c1.58-.44 2.4-.72 3.94-1.73q1.24-.81 2.77-1.06.38-.06.58-.35.2-.28.51-.41l9.16-3.98q1.46-.64 2.68.4 1.19 1.02 1.37 3.44Z"/><path fill="#191919" d="m9.68 243.82 107.34-.04a1.2 1.2 0 0 1 1.19 1.07c1.02 9.13.5 18.71.44 27.9q0 .52-.51.52-51.57.01-103.14-.09-2.79-.01-5.48-.67-.61-.15-.61-.79l.01-27.15a.76.75 0 0 1 .76-.75Z"/><path fill="#c1c3c5" d="M355.43 288.68q.67 9.91.45 19.8c-.03 1.34.53 2.92-.12 4.77a1.13 1.13 0 0 0 .96 1.5l11.07.97-10.91.22q-1.87.04-1.84-1.83l.39-25.43Z"/><path fill="#191919" d="M118.62 329.89a1.15 1.15 0 0 1-1.16 1.15l-77.35-.14a3.42.98.1 0 1-3.41-.98l.04-27.64a3.42.98.1 0 1 3.43-.98l77.35.14a1.15 1.15 0 0 1 1.14 1.15l-.04 27.3Z"/><path fill="#c1c3c5" d="M398.04 338.28q-.8.58-1.82.51-.47-.03-.11-.33.83-.68 1.81-.61.66.05.12.43ZM255.31 345.49q-11.79-.75-23.14-.69c-2.09.01-5.06.91-7.8.12q-.71-.2-.04-.51.55-.25 1.02-.01.34.18.72.16 5.02-.26 10.04-.17.02 0 .02.02v-.04q-.01-.04-.03-.03-8.21.26-16.35-.66-1.3-.15-5.62-.05h-.01v.01q0 .02.02.02 3.79-.21 7.55.29.06.01.05.07v.06q0 .13-.13.12-8.41-.18-16.82.1-.05.01-.08.03-.13.09-.21.22-.16.24-.44.27-5.31.54-10.65.58c-2.02.01-4.75-.84-6.66-.55q-7.04 1.1-10.75.8-4.94-.4-8.01.1c-1.17.19-2.21-.01-3.14 1.09q-3.23 3.87-5.4 8.42-.2.42-.56.72-.68.55-.82 1.38-.07.42-.26.8l-4.95 10.03q-.4.82-.63-.06-.23-.92.58-1.67.07-.06.07-.15v-.33q0-.07-.04 0c-.77 1.55-1.1 2.88-2.83 3.71q-.44.21-.64.65l-3.19 7a.94.94 0 0 0 .68 1.31l3.89.72-7.33.01q-1.1 0-.57-.96l19.55-35.56q.28-.52.88-.52l93.44-.11a.2.2 0 0 1 .18.3l-1.59 2.96ZM315.5 342.66l-8.03.07q-.5.01-.93.28c-.54.33-.76.57-1.44.6q-6.92.37-13.85.56-2.24.06-2.81.48-.16.11-.32.02-.3-.17-.38.15-.08.35.25.24.14-.05.29-.03.43.04.1.32l-2.46 2.07q-.37.31-.49.77-.93 3.5-3.11 6.44-.3.39-.39.87c-.33 1.59-1.56 2.48-2.16 3.66-1.11 2.18-1.79 4.49-3.39 6.44-1.2 1.46-1.86 3.07-2.94 4.72-.62.95-1.11 2.31-1.61 3.21-1.44 2.58-2.42 5.09-4.3 7.49-1.52 1.93-1.85 4.19-3 6.12q-1.57 2.63-1.7 2.92-2.23 5.02-3.92 8.06-.53.94-1.5.92-.44-.01-.75.3l-.25.25a.23.22-6 0 1-.35-.28l1.06-1.61q.19-.27-.14-.23-.25.04-.37.27-1.87 3.4-5.13 7.39 1.6-3.97 2.95-6.48 14.72-27.39 30.05-55.45a2.09 2.08-75 0 1 1.88-1.09l29.14.55Z"/><path fill="#f7f9f9" d="m255.31 345.49-18.27 32.95a1.24 1.21 13.7 0 1-1.06.63l-85.23.3-3.89-.72a.94.94 0 0 1-.68-1.31l3.19-7q.2-.44.64-.65c1.73-.83 2.06-2.16 2.83-3.71q.04-.07.04 0v.33q0 .09-.07.15-.81.75-.58 1.67.23.88.63.06l4.95-10.03q.19-.38.26-.8.14-.83.82-1.38.36-.3.56-.72 2.17-4.55 5.4-8.42c.93-1.1 1.97-.9 3.14-1.09q3.07-.5 8.01-.1 3.71.3 10.75-.8c1.91-.29 4.64.56 6.66.55q5.34-.04 10.65-.58.28-.03.44-.27.08-.13.21-.22.03-.02.08-.03 8.41-.28 16.82-.1.13.01.13-.12v-.06q.01-.06-.05-.07-3.76-.5-7.55-.29-.02 0-.02-.02v-.01h.01q4.32-.1 5.62.05 8.14.92 16.35.66.02-.01.03.03v.04q0-.02-.02-.02-5.02-.09-10.04.17-.38.02-.72-.16-.47-.24-1.02.01-.67.31.04.51c2.74.79 5.71-.11 7.8-.12q11.35-.06 23.14.69Z"/><ellipse cx="296.65" cy="344.87" fill="#c1c3c5" rx="7.06" ry=".33"/><path fill="#c1c3c5" d="M255.87 401.9q-.06.87-.78 1.49-.38.33-.44.82-.14 1.11-1.05 1.78-.47.34-.47-.24v-.32q0-.54.34-.97l2.11-2.67q.32-.4.29.11ZM103.2 406.46l7.3.15q1.78.32 4.73.36.39.01.6.27.29.37-.17.33l-12.46-1.11Z"/></svg>