<svg viewBox="0.00 0.00 128.00 128.00" version="1.1" xmlns="http://www.w3.org/2000/svg">
<path d="M 35.70 42.21
  C 29.60 48.56 29.07 58.99 33.25 65.92
  C 38.31 74.31 47.84 78.48 57.55 76.19
  C 62.49 75.02 67.39 71.29 71.94 68.41
  Q 75.09 66.41 76.82 66.21
  C 81.06 65.71 85.13 70.92 83.08 74.71
  Q 82.22 76.29 79.01 78.36
  Q 67.00 86.07 54.94 93.72
  Q 51.87 95.66 49.66 95.49
  C 45.86 95.19 43.64 91.95 43.80 88.05
  Q 43.82 87.50 43.29 87.35
  Q 36.68 85.46 31.27 81.25
  A 0.74 0.73 26.2 0 0 30.11 81.64
  Q 26.59 95.24 35.64 103.83
  C 40.93 108.87 48.05 111.11 55.19 109.60
  Q 59.30 108.73 67.56 103.42
  Q 76.58 97.63 85.65 91.89
  Q 92.45 87.58 94.83 84.40
  C 100.48 76.85 99.43 66.47 93.50 59.41
  C 88.05 52.93 78.72 50.07 70.60 52.54
  C 65.95 53.95 60.91 57.80 56.50 60.77
  C 48.24 66.33 41.31 55.82 47.73 51.71
  Q 60.35 43.63 72.96 35.50
  Q 76.64 33.13 78.95 33.10
  C 81.65 33.08 85.19 35.59 84.99 38.97
  Q 84.95 39.63 85.01 40.40
  Q 85.06 40.92 85.57 41.08
  Q 92.23 43.10 97.74 47.33
  A 0.54 0.54 0.0 0 0 98.57 47.09
  C 102.99 35.23 96.21 23.11 84.25 19.30
  C 76.68 16.88 70.76 19.21 63.76 23.67
  Q 52.26 30.99 40.80 38.35
  Q 37.19 40.66 35.70 42.21" stroke-linecap="butt" fill="none" stroke-width="2.00" stroke="#eeeeee"></path>
<path d="M 108.72 58.82
  C 114.68 70.25 112.93 85.04 104.73 94.46
  Q 101.42 98.27 89.67 105.69
  C 81.05 111.14 70.57 119.01 62.22 121.82
  Q 48.51 126.43 35.24 119.56
  C 17.36 110.29 9.33 88.73 20.25 70.94
  Q 20.52 70.50 20.29 70.04
  C 14.53 58.37 15.82 44.08 24.20 34.33
  Q 27.47 30.53 36.67 24.71
  Q 47.77 17.68 58.86 10.64
  C 89.32 -8.71 127.63 26.00 108.75 57.91
  Q 108.48 58.36 108.72 58.82
  Z
  M 35.70 42.21
  C 29.60 48.56 29.07 58.99 33.25 65.92
  C 38.31 74.31 47.84 78.48 57.55 76.19
  C 62.49 75.02 67.39 71.29 71.94 68.41
  Q 75.09 66.41 76.82 66.21
  C 81.06 65.71 85.13 70.92 83.08 74.71
  Q 82.22 76.29 79.01 78.36
  Q 67.00 86.07 54.94 93.72
  Q 51.87 95.66 49.66 95.49
  C 45.86 95.19 43.64 91.95 43.80 88.05
  Q 43.82 87.50 43.29 87.35
  Q 36.68 85.46 31.27 81.25
  A 0.74 0.73 26.2 0 0 30.11 81.64
  Q 26.59 95.24 35.64 103.83
  C 40.93 108.87 48.05 111.11 55.19 109.60
  Q 59.30 108.73 67.56 103.42
  Q 76.58 97.63 85.65 91.89
  Q 92.45 87.58 94.83 84.40
  C 100.48 76.85 99.43 66.47 93.50 59.41
  C 88.05 52.93 78.72 50.07 70.60 52.54
  C 65.95 53.95 60.91 57.80 56.50 60.77
  C 48.24 66.33 41.31 55.82 47.73 51.71
  Q 60.35 43.63 72.96 35.50
  Q 76.64 33.13 78.95 33.10
  C 81.65 33.08 85.19 35.59 84.99 38.97
  Q 84.95 39.63 85.01 40.40
  Q 85.06 40.92 85.57 41.08
  Q 92.23 43.10 97.74 47.33
  A 0.54 0.54 0.0 0 0 98.57 47.09
  C 102.99 35.23 96.21 23.11 84.25 19.30
  C 76.68 16.88 70.76 19.21 63.76 23.67
  Q 52.26 30.99 40.80 38.35
  Q 37.19 40.66 35.70 42.21
  Z" fill="#dddddd"></path>
<path d="M 33.25 65.92
  C 29.07 58.99 29.60 48.56 35.70 42.21
  Q 37.19 40.66 40.80 38.35
  Q 52.26 30.99 63.76 23.67
  C 70.76 19.21 76.68 16.88 84.25 19.30
  C 96.21 23.11 102.99 35.23 98.57 47.09
  A 0.54 0.54 0.0 0 1 97.74 47.33
  Q 92.23 43.10 85.57 41.08
  Q 85.06 40.92 85.01 40.40
  Q 84.95 39.63 84.99 38.97
  C 85.19 35.59 81.65 33.08 78.95 33.10
  Q 76.64 33.13 72.96 35.50
  Q 60.35 43.63 47.73 51.71
  C 41.31 55.82 48.24 66.33 56.50 60.77
  C 60.91 57.80 65.95 53.95 70.60 52.54
  C 78.72 50.07 88.05 52.93 93.50 59.41
  C 99.43 66.47 100.48 76.85 94.83 84.40
  Q 92.45 87.58 85.65 91.89
  Q 76.58 97.63 67.56 103.42
  Q 59.30 108.73 55.19 109.60
  C 48.05 111.11 40.93 108.87 35.64 103.83
  Q 26.59 95.24 30.11 81.64
  A 0.74 0.73 26.2 0 1 31.27 81.25
  Q 36.68 85.46 43.29 87.35
  Q 43.82 87.50 43.80 88.05
  C 43.64 91.95 45.86 95.19 49.66 95.49
  Q 51.87 95.66 54.94 93.72
  Q 67.00 86.07 79.01 78.36
  Q 82.22 76.29 83.08 74.71
  C 85.13 70.92 81.06 65.71 76.82 66.21
  Q 75.09 66.41 71.94 68.41
  C 67.39 71.29 62.49 75.02 57.55 76.19
  C 47.84 78.48 38.31 74.31 33.25 65.92
  Z" fill="#ffffff"></path>
</svg>
