<svg viewBox="0.00 0.00 192.00 192.00" version="1.1" xmlns="http://www.w3.org/2000/svg">
<g stroke-linecap="butt" fill="none" stroke-width="2.00">
<path d="M 117.7159 55.2621
  A 17.91 17.91 0.0 0 0 99.8685 37.2897
  L 94.3885 37.2706
  A 17.91 17.91 0.0 0 0 76.4161 55.1179
  L 76.4041 58.5579
  A 17.91 17.91 0.0 0 0 94.2515 76.5303
  L 99.7315 76.5494
  A 17.91 17.91 0.0 0 0 117.7039 58.7021
  L 117.7159 55.2621" stroke="#8e8eff"></path>
<path d="M 100.24 127.14
  Q 100.34 127.74 100.01 128.35
  Q 91.99 143.18 76.38 150.25
  A 0.40 0.39 51.3 0 0 76.31 150.92
  L 89.82 161.41
  Q 90.21 161.72 90.66 161.50
  C 107.60 153.00 118.84 134.40 118.81 115.51
  C 118.79 102.35 111.97 89.74 97.34 89.39
  C 83.11 89.05 73.90 99.96 75.90 113.81
  C 77.52 125.08 89.39 131.05 99.79 126.89
  A 0.33 0.33 0.0 0 1 100.24 127.14" stroke="#8e8eff"></path>
</g>
<path d="M 90.63 0.00
  L 101.49 0.00
  C 151.01 4.10 188.47 40.98 192.00 90.64
  L 192.00 101.49
  C 187.88 150.99 151.02 188.47 101.36 192.00
  L 90.52 192.00
  Q 42.94 187.96 16.57 149.94
  Q 1.88 128.74 0.00 101.34
  L 0.00 90.53
  C 3.51 40.88 41.16 4.04 90.63 0.00
  Z
  M 117.7159 55.2621
  A 17.91 17.91 0.0 0 0 99.8685 37.2897
  L 94.3885 37.2706
  A 17.91 17.91 0.0 0 0 76.4161 55.1179
  L 76.4041 58.5579
  A 17.91 17.91 0.0 0 0 94.2515 76.5303
  L 99.7315 76.5494
  A 17.91 17.91 0.0 0 0 117.7039 58.7021
  L 117.7159 55.2621
  Z
  M 100.24 127.14
  Q 100.34 127.74 100.01 128.35
  Q 91.99 143.18 76.38 150.25
  A 0.40 0.39 51.3 0 0 76.31 150.92
  L 89.82 161.41
  Q 90.21 161.72 90.66 161.50
  C 107.60 153.00 118.84 134.40 118.81 115.51
  C 118.79 102.35 111.97 89.74 97.34 89.39
  C 83.11 89.05 73.90 99.96 75.90 113.81
  C 77.52 125.08 89.39 131.05 99.79 126.89
  A 0.33 0.33 0.0 0 1 100.24 127.14
  Z" fill="#1d1dff"></path>
<rect rx="17.91" height="39.26" width="41.30" transform="translate(97.06,56.91) rotate(0.2)" y="-19.63" x="-20.65" fill="#ffffff"></rect>
<path d="M 100.24 127.14
  A 0.33 0.33 0.0 0 0 99.79 126.89
  C 89.39 131.05 77.52 125.08 75.90 113.81
  C 73.90 99.96 83.11 89.05 97.34 89.39
  C 111.97 89.74 118.79 102.35 118.81 115.51
  C 118.84 134.40 107.60 153.00 90.66 161.50
  Q 90.21 161.72 89.82 161.41
  L 76.31 150.92
  A 0.40 0.39 51.3 0 1 76.38 150.25
  Q 91.99 143.18 100.01 128.35
  Q 100.34 127.74 100.24 127.14
  Z" fill="#ffffff"></path>
</svg>
