<svg viewBox="0.00 0.00 56.00 54.00" version="1.1" xmlns="http://www.w3.org/2000/svg">
<g stroke-linecap="butt" fill="none" stroke-width="2.00">
<path d="M 55.75 18.68
  Q 54.50 17.25 53.44 16.04
  C 49.21 11.17 42.02 14.05 39.47 19.16" stroke="#ff81c3"></path>
<path d="M 39.47 19.16
  Q 38.09 10.60 31.99 5.76
  A 0.14 0.14 0.0 0 0 31.80 5.96
  Q 36.57 11.46 37.58 19.07" stroke="#bf36d7"></path>
<path d="M 37.58 19.07
  C 32.17 12.52 26.40 7.95 17.76 7.44
  C 7.13 6.82 3.58 13.30 0.57 21.98" stroke="#ff81c3"></path>
<path d="M 39.47 19.16
  Q 39.70 28.92 32.70 36.05
  A 0.58 0.57 -62.3 0 0 33.00 37.02
  L 37.99 37.92
  Q 38.80 38.07 38.01 38.30
  C 35.98 38.89 32.99 38.51 31.15 37.55
  Q 30.32 37.12 29.80 37.90
  Q 25.76 44.07 27.90 51.25
  Q 27.99 51.52 27.77 51.60
  L 27.76 51.60
  Q 27.57 51.67 27.50 51.50
  Q 25.04 45.42 26.51 39.01
  Q 26.62 38.54 26.14 38.48
  L 21.48 37.91
  Q 21.34 37.89 21.34 37.87
  L 21.37 37.62
  Q 21.39 37.32 21.69 37.33
  C 31.06 37.69 37.93 27.71 37.58 19.07" stroke="#bf8adb"></path>
<path d="M 52.8762 24.7374
  A 3.47 2.27 79.1 0 0 54.4490 20.9008
  A 3.47 2.27 79.1 0 0 51.5638 17.9226
  A 3.47 2.27 79.1 0 0 49.9910 21.7592
  A 3.47 2.27 79.1 0 0 52.8762 24.7374" stroke="#ffded4"></path>
<path d="M 32.0925 27.5431
  A 4.79 3.19 73.1 0 0 33.7522 22.0327
  A 4.79 3.19 73.1 0 0 29.3075 18.3769
  A 4.79 3.19 73.1 0 0 27.6478 23.8873
  A 4.79 3.19 73.1 0 0 32.0925 27.5431" stroke="#ffded4"></path>
</g>
<path d="M 14.81 0.00
  L 19.20 0.00
  Q 25.01 0.82 29.86 3.73
  Q 30.30 3.99 30.70 3.67
  Q 32.33 2.39 34.02 2.13
  C 44.77 0.46 55.04 7.12 55.75 18.68
  Q 54.50 17.25 53.44 16.04
  C 49.21 11.17 42.02 14.05 39.47 19.16
  Q 38.09 10.60 31.99 5.76
  A 0.14 0.14 0.0 0 0 31.80 5.96
  Q 36.57 11.46 37.58 19.07
  C 32.17 12.52 26.40 7.95 17.76 7.44
  C 7.13 6.82 3.58 13.30 0.57 21.98
  L 0.00 19.11
  L 0.00 15.35
  Q 2.01 1.87 14.81 0.00
  Z" fill="#ff2cbf"></path>
<path d="M 39.47 19.16
  Q 39.70 28.92 32.70 36.05
  A 0.58 0.57 -62.3 0 0 33.00 37.02
  L 37.99 37.92
  Q 38.80 38.07 38.01 38.30
  C 35.98 38.89 32.99 38.51 31.15 37.55
  Q 30.32 37.12 29.80 37.90
  Q 25.76 44.07 27.90 51.25
  Q 27.99 51.52 27.77 51.60
  L 27.76 51.60
  Q 27.57 51.67 27.50 51.50
  Q 25.04 45.42 26.51 39.01
  Q 26.62 38.54 26.14 38.48
  L 21.48 37.91
  Q 21.34 37.89 21.34 37.87
  L 21.37 37.62
  Q 21.39 37.32 21.69 37.33
  C 31.06 37.69 37.93 27.71 37.58 19.07
  Q 36.57 11.46 31.80 5.96
  A 0.14 0.14 0.0 0 1 31.99 5.76
  Q 38.09 10.60 39.47 19.16
  Z" fill="#7e3fef"></path>
<path d="M 37.58 19.07
  C 37.93 27.71 31.06 37.69 21.69 37.33
  Q 21.39 37.32 21.37 37.62
  L 21.34 37.87
  Q 21.34 37.89 21.48 37.91
  L 26.14 38.48
  Q 26.62 38.54 26.51 39.01
  Q 25.04 45.42 27.50 51.50
  Q 27.57 51.67 27.76 51.60
  L 27.77 51.60
  Q 27.99 51.52 27.90 51.25
  Q 25.76 44.07 29.80 37.90
  Q 30.32 37.12 31.15 37.55
  C 32.99 38.51 35.98 38.89 38.01 38.30
  Q 38.80 38.07 37.99 37.92
  L 33.00 37.02
  A 0.58 0.57 -62.3 0 1 32.70 36.05
  Q 39.70 28.92 39.47 19.16
  C 42.02 14.05 49.21 11.17 53.44 16.04
  Q 54.50 17.25 55.75 18.68
  L 56.00 18.87
  L 56.00 23.03
  C 53.60 35.14 43.33 41.17 33.98 47.69
  Q 31.13 49.67 28.83 53.30
  Q 28.56 53.74 28.15 53.44
  Q 20.41 47.85 12.29 39.96
  Q 3.91 31.82 0.57 21.98
  C 3.58 13.30 7.13 6.82 17.76 7.44
  C 26.40 7.95 32.17 12.52 37.58 19.07
  Z
  M 52.8762 24.7374
  A 3.47 2.27 79.1 0 0 54.4490 20.9008
  A 3.47 2.27 79.1 0 0 51.5638 17.9226
  A 3.47 2.27 79.1 0 0 49.9910 21.7592
  A 3.47 2.27 79.1 0 0 52.8762 24.7374
  Z
  M 32.0925 27.5431
  A 4.79 3.19 73.1 0 0 33.7522 22.0327
  A 4.79 3.19 73.1 0 0 29.3075 18.3769
  A 4.79 3.19 73.1 0 0 27.6478 23.8873
  A 4.79 3.19 73.1 0 0 32.0925 27.5431
  Z" fill="#ffd5c7"></path>
<ellipse ry="2.27" rx="3.47" transform="translate(52.22,21.33) rotate(79.1)" cy="0.00" cx="0.00" fill="#ffe7e0"></ellipse>
<ellipse ry="3.19" rx="4.79" transform="translate(30.70,22.96) rotate(73.1)" cy="0.00" cx="0.00" fill="#ffe7e0"></ellipse>
</svg>
