<svg viewBox="0.00 0.00 229.00 229.00" version="1.1" xmlns="http://www.w3.org/2000/svg">
<g stroke-linecap="butt" fill="none" stroke-width="2.00">
<path d="M 75.91 138.30
  L 89.48 135.15" stroke="#8db6f6"></path>
<path d="M 89.48 135.15
  L 109.01 130.62" stroke="#96bbee"></path>
<path d="M 109.01 130.62
  Q 123.73 127.29 137.26 124.12
  Q 149.21 121.33 159.15 113.42" stroke="#98c0f5"></path>
<path d="M 159.15 113.42
  C 187.68 88.75 180.96 41.91 144.60 28.12" stroke="#c2dcfe"></path>
<path d="M 144.60 28.12
  Q 135.69 24.79 126.00 24.78
  Q 100.66 24.74 74.31 24.79" stroke="#b9d8fe"></path>
<path d="M 74.31 24.79
  Q 66.62 24.55 62.06 25.09
  C 49.63 26.57 40.54 37.74 40.53 50.25
  Q 40.49 98.25 40.50 146.19
  A 0.26 0.25 83.7 0 0 40.81 146.44
  L 75.91 138.30" stroke="#85adfa"></path>
<path d="M 74.31 24.79
  L 74.27 109.19
  Q 74.27 109.75 74.83 109.76
  L 75.77 109.77" stroke="#3f86f8"></path>
<path d="M 75.77 109.77
  L 75.91 138.30" stroke="#1363f1"></path>
<path d="M 144.60 28.12
  Q 144.48 28.97 144.85 29.88
  Q 145.20 30.72 144.31 30.97
  Q 143.88 31.09 143.88 31.54
  L 143.88 32.97
  Q 143.88 33.45 143.51 33.77
  Q 142.53 34.60 142.92 35.93
  Q 143.09 36.48 142.62 36.81
  Q 141.40 37.66 141.95 39.27
  A 0.47 0.46 -16.8 0 1 141.62 39.87
  Q 140.77 40.09 140.86 40.95
  Q 140.92 41.43 140.54 41.74
  Q 139.53 42.58 139.92 43.93
  Q 140.09 44.48 139.62 44.81
  Q 138.40 45.66 138.95 47.27
  A 0.47 0.46 -16.8 0 1 138.62 47.87
  Q 137.77 48.09 137.86 48.95
  Q 137.92 49.43 137.54 49.74
  Q 136.53 50.58 136.92 51.93
  Q 137.09 52.48 136.62 52.81
  Q 135.40 53.66 135.95 55.27
  A 0.47 0.46 -16.8 0 1 135.62 55.87
  Q 134.76 56.09 134.87 56.97
  Q 134.93 57.48 134.53 57.81
  Q 133.56 58.60 133.87 59.88
  Q 134.02 60.48 133.53 60.86
  Q 132.43 61.73 132.95 63.28
  A 0.45 0.45 0.0 0 1 132.60 63.87
  Q 131.89 64.01 131.87 64.78
  Q 131.85 65.22 131.43 65.14
  Q 130.59 64.98 130.61 65.73
  Q 130.65 66.98 130.63 68.22
  Q 130.62 68.68 130.26 68.98
  Q 129.64 69.50 129.91 70.65
  A 1.16 1.16 0.0 0 1 129.39 71.90
  Q 128.77 72.30 128.87 72.91
  Q 128.96 73.46 128.53 73.81
  Q 127.56 74.60 127.88 75.89
  Q 128.02 76.44 127.57 76.78
  Q 126.55 77.57 126.88 78.88
  Q 127.02 79.48 126.54 79.86
  Q 125.43 80.73 125.94 82.27
  A 0.47 0.47 0.0 0 1 125.62 82.87
  Q 124.77 83.09 124.86 83.95
  Q 124.92 84.43 124.54 84.74
  Q 123.53 85.58 123.92 86.93
  Q 124.09 87.48 123.62 87.81
  Q 122.40 88.66 122.95 90.27
  A 0.47 0.46 -16.8 0 1 122.62 90.87
  Q 121.77 91.09 121.86 91.95
  Q 121.92 92.43 121.54 92.74
  Q 120.53 93.58 120.92 94.93
  Q 121.09 95.48 120.62 95.81
  Q 119.40 96.66 119.95 98.27
  A 0.47 0.46 -16.8 0 1 119.62 98.87
  Q 118.76 99.09 118.87 99.97
  Q 118.93 100.49 118.52 100.82
  Q 117.54 101.62 117.89 102.93
  Q 118.04 103.51 117.55 103.86
  Q 116.40 104.66 116.98 106.18
  A 0.52 0.52 0.0 0 1 116.57 106.88
  Q 116.28 106.92 116.12 107.13
  A 1.51 0.82 76.9 0 0 115.88 108.00
  L 115.88 108.48
  Q 115.88 108.90 115.47 108.87
  Q 113.18 108.68 111.32 109.70" stroke="#7cb5fc"></path>
<path d="M 111.32 109.70
  L 108.91 109.78" stroke="#5299f3"></path>
<path d="M 108.91 109.78
  L 90.00 109.78" stroke="#5094ec"></path>
<path d="M 90.00 109.78
  L 75.77 109.77" stroke="#478ff5"></path>
<path d="M 90.00 109.78
  L 90.10 128.52
  Q 90.11 128.99 90.29 129.42
  Q 90.62 130.18 90.18 130.84
  Q 89.95 131.19 90.07 131.60
  Q 90.57 133.35 89.48 135.15" stroke="#2472e5"></path>
<path d="M 108.91 109.78
  L 109.01 130.62" stroke="#2e7ce3"></path>
<path d="M 159.15 113.42
  Q 149.10 109.74 140.25 109.77
  Q 125.96 109.81 111.32 109.70" stroke="#5b9df3"></path>
<path d="M 104.21 150.88
  L 41.04 165.51
  Q 40.51 165.63 40.51 166.18
  L 40.55 189.34" stroke="#88a8ea"></path>
<path d="M 40.55 189.34
  L 40.53 203.74
  Q 40.53 204.29 41.08 204.29
  L 82.48 204.26" stroke="#85adfa"></path>
<path d="M 82.48 204.26
  L 110.13 204.24" stroke="#8db6f6"></path>
<path d="M 110.13 204.24
  L 132.10 204.25" stroke="#96bbee"></path>
<path d="M 132.10 204.25
  Q 143.43 204.75 148.76 203.76
  C 171.03 199.62 187.18 182.17 188.43 159.46" stroke="#98c0f5"></path>
<path d="M 188.43 159.46
  Q 188.91 147.50 184.05 137.19" stroke="#96bbee"></path>
<path d="M 184.05 137.19
  Q 180.57 129.80 175.18 124.38
  A 0.33 0.32 -44.3 0 0 174.73 124.38
  C 163.53 135.04 152.61 139.56 136.52 143.35
  Q 120.39 147.16 104.21 150.88" stroke="#90b1e8"></path>
<path d="M 184.05 137.19
  C 181.47 137.21 179.81 138.59 178.17 139.06
  Q 174.84 140.01 171.53 141.04
  Q 171.19 141.15 170.84 141.10
  Q 170.12 141.01 170.00 141.70
  A 0.56 0.55 -76.9 0 1 169.30 142.14
  Q 168.35 141.87 167.85 142.63
  A 1.02 1.01 16.5 0 1 167.00 143.09
  L 165.04 143.10
  Q 164.53 143.11 164.19 143.49
  Q 162.92 144.93 161.00 145.11
  A 2.06 2.03 24.9 0 0 160.05 145.45
  Q 159.18 146.02 158.14 145.83
  Q 157.63 145.73 157.14 145.93
  L 149.66 149.10
  Q 149.09 149.34 149.05 149.95
  L 148.83 153.08
  A 0.53 0.53 0.0 0 1 148.34 153.57
  Q 145.91 153.77 143.48 154.15
  Q 142.15 154.36 141.91 155.91
  A 1.01 0.98 81.0 0 1 141.40 156.63
  Q 139.74 157.53 138.16 158.38
  C 137.10 158.95 136.77 159.88 137.15 160.95" stroke="#266dd7"></path>
<path d="M 137.15 160.95
  L 127.57 163.28
  Q 127.07 163.40 126.66 163.09
  Q 125.41 162.11 125.96 160.38
  A 0.42 0.42 0.0 0 0 125.46 159.85
  L 123.95 160.25
  Q 123.46 160.38 123.07 160.68
  C 122.05 161.46 120.55 161.42 119.58 161.74
  Q 117.53 162.42 115.36 162.63
  Q 115.01 162.66 114.70 162.83
  Q 114.44 162.97 114.39 163.15
  Q 114.25 163.62 113.75 163.62
  L 107.98 163.62
  Q 107.61 163.62 107.72 163.97
  Q 107.76 164.09 107.80 164.21
  Q 107.91 164.56 107.82 164.81
  Q 107.61 165.37 106.90 165.40
  Q 106.44 165.41 106.18 165.79
  L 105.51 166.76
  A 0.15 0.15 0.0 0 1 105.25 166.74
  Q 105.19 166.62 105.11 166.47
  Q 104.98 166.24 104.74 166.34
  L 101.52 167.65
  Q 101.16 167.80 100.91 168.10
  Q 100.60 168.49 100.20 168.34
  Q 99.72 168.16 99.27 168.42
  Q 97.59 169.40 98.17 171.44
  A 0.60 0.59 75.5 0 1 97.74 172.18
  L 94.94 172.84
  Q 94.51 172.95 94.14 173.20
  Q 93.35 173.73 92.13 173.31
  Q 88.79 172.14 86.51 174.34" stroke="#1e67df"></path>
<path d="M 86.51 174.34
  Q 85.80 174.90 84.62 174.42
  A 0.59 0.58 -68.8 0 0 83.86 174.76
  Q 83.67 175.28 83.34 175.04
  Q 82.99 174.79 82.58 174.90
  L 77.24 176.30" stroke="#165ee3"></path>
<path d="M 77.24 176.30
  L 78.07 175.76
  Q 78.50 175.48 78.00 175.38
  Q 77.77 175.33 77.58 175.45
  Q 77.24 175.65 77.15 175.28
  Q 76.88 174.25 77.69 173.75
  Q 78.00 173.56 77.79 173.26
  Q 77.69 173.11 77.49 173.03
  Q 77.09 172.90 77.44 172.67
  C 78.74 171.82 80.21 172.59 81.11 171.42
  Q 81.30 171.16 81.60 171.04
  L 84.57 169.86
  A 0.83 0.82 -8.7 0 0 85.09 169.16
  Q 85.18 168.00 86.48 168.13
  Q 86.86 168.16 86.85 167.79
  Q 86.85 167.63 86.86 167.45
  A 0.34 0.34 0.0 0 0 86.49 167.10
  Q 86.04 167.14 85.82 167.48
  A 0.39 0.39 0.0 0 1 85.11 167.27
  L 85.12 165.76
  Q 85.12 165.29 85.59 165.31
  Q 87.81 165.45 89.39 164.03
  Q 89.95 163.52 89.20 163.49
  L 86.83 163.39
  Q 86.37 163.37 86.69 163.05
  L 87.22 162.51
  Q 87.57 162.15 88.08 162.15
  Q 88.70 162.15 89.03 161.69
  Q 89.30 161.30 89.74 161.15
  L 91.26 160.62
  Q 91.63 160.49 91.85 160.16
  Q 92.24 159.57 92.93 159.63
  Q 93.08 159.64 93.01 159.51
  Q 92.94 159.35 92.86 159.20
  A 0.23 0.23 0.0 0 1 93.11 158.87
  Q 93.95 159.03 93.89 158.30
  Q 93.84 157.71 94.43 157.66
  Q 95.96 157.52 97.27 156.70
  Q 97.66 156.46 97.81 156.04
  Q 98.11 155.21 99.00 154.99
  Q 99.43 154.89 99.74 154.59
  Q 101.38 153.08 103.56 153.54
  A 1.08 1.07 16.5 0 0 104.79 152.88
  Q 105.00 152.36 105.47 152.16
  Q 106.21 151.84 105.48 151.49
  L 104.21 150.88" stroke="#195ad3"></path>
<path d="M 188.43 159.46
  Q 187.99 159.65 187.88 160.13
  Q 187.81 160.41 187.53 160.35
  L 186.67 160.18
  Q 186.27 160.10 185.93 160.33
  L 183.95 161.71
  Q 183.53 161.99 183.04 161.98
  L 179.25 161.85
  Q 178.88 161.83 178.88 162.20
  Q 178.88 162.33 178.88 162.46
  Q 178.89 162.65 178.70 162.61
  Q 177.88 162.45 178.22 162.27
  Q 178.61 162.06 178.19 161.94
  Q 177.33 161.68 176.91 162.38
  Q 176.62 162.87 176.04 162.88
  Q 175.31 162.88 174.82 162.32
  A 0.38 0.38 0.0 0 0 174.15 162.61
  Q 174.18 162.86 174.01 163.01
  Q 173.58 163.39 173.25 163.39
  L 171.46 163.38
  Q 170.69 163.38 170.86 164.13
  Q 171.11 165.26 170.97 166.38
  Q 170.92 166.77 170.54 166.88
  Q 170.12 167.01 169.84 167.44
  Q 169.59 167.84 169.25 167.51
  L 168.90 167.15
  Q 168.56 166.82 168.18 167.09
  Q 167.78 167.38 167.59 167.83
  Q 167.40 168.29 166.91 168.37
  Q 165.21 168.66 163.74 169.58
  Q 163.62 169.66 163.62 169.52
  Q 163.62 169.35 163.62 169.19
  Q 163.63 168.77 163.24 168.93
  Q 162.29 169.32 161.31 168.82
  A 0.89 0.88 -54.1 0 0 160.27 168.99
  L 159.64 169.62
  Q 159.30 169.95 158.83 169.89
  Q 156.41 169.55 155.58 171.77
  A 0.87 0.85 4.8 0 1 154.93 172.31
  L 153.31 172.62
  Q 152.79 172.71 152.42 173.08
  L 150.56 174.94
  Q 150.20 175.31 149.68 175.35
  Q 147.51 175.53 146.31 176.55
  Q 145.34 177.38 143.19 180.24
  Q 142.95 180.56 142.57 180.42
  Q 142.32 180.32 142.01 180.41
  Q 138.56 181.44 137.40 184.74
  Q 136.99 185.91 136.61 186.52
  Q 136.25 187.12 136.95 187.11
  Q 137.55 187.11 138.02 187.52
  Q 138.29 187.75 138.13 188.07
  Q 136.09 192.10 135.12 193.13
  Q 133.96 194.37 133.84 195.67
  Q 133.81 196.11 133.55 196.48
  Q 131.85 198.92 133.11 201.74
  Q 133.33 202.23 132.90 202.55
  Q 131.41 203.63 132.10 204.25" stroke="#2e7ce3"></path>
<path d="M 110.13 204.24
  L 111.92 203.65
  Q 112.46 203.48 112.66 202.94
  L 114.24 198.68
  Q 114.39 198.28 114.72 198.00
  Q 115.36 197.49 115.43 196.70
  Q 115.47 196.14 115.93 195.83
  Q 116.58 195.38 116.63 194.60
  Q 116.67 194.06 116.13 193.92
  Q 115.37 193.73 114.88 193.13
  Q 114.38 192.52 113.89 193.14
  Q 113.62 193.48 113.14 193.35
  Q 112.68 193.22 112.97 192.83
  Q 113.90 191.58 114.38 189.99
  A 4.97 0.01 -73.1 0 0 115.81 185.25
  Q 116.43 182.69 116.74 180.11
  A 0.90 0.89 86.9 0 1 117.43 179.33
  L 119.35 178.87
  Q 119.82 178.76 120.09 178.37
  Q 121.20 176.81 122.72 175.66
  C 123.80 174.85 125.10 174.96 126.40 174.63
  Q 126.71 174.55 126.94 174.62
  Q 127.32 174.73 127.57 174.91
  Q 127.84 175.10 128.10 174.90
  Q 129.10 174.15 130.28 173.95
  Q 130.69 173.88 130.64 173.47
  Q 130.60 173.23 130.71 173.02
  Q 130.89 172.66 131.45 172.50
  Q 132.81 172.11 134.30 171.91
  Q 134.77 171.85 134.59 172.29
  L 134.34 172.89
  A 0.36 0.36 0.0 0 0 134.68 173.38
  L 136.04 173.38
  Q 136.52 173.38 136.98 173.28
  Q 138.21 173.00 139.33 173.35
  A 1.26 1.25 20.1 0 0 140.86 172.65
  Q 141.19 171.84 141.83 171.16
  Q 142.11 170.86 142.53 170.82
  Q 145.36 170.57 146.58 168.17
  A 0.08 0.08 0.0 0 1 146.73 168.19
  Q 146.77 168.38 146.88 168.38
  A 0.23 0.12 -66.7 0 0 147.03 168.26
  Q 147.41 167.54 146.62 167.41
  Q 145.75 167.26 146.50 166.79
  L 147.76 166.00
  Q 148.23 165.70 148.14 165.14
  Q 147.92 163.89 149.00 163.51
  Q 149.85 163.21 151.00 163.38
  Q 151.66 163.47 151.88 162.85
  L 152.16 162.07
  A 0.71 0.70 14.4 0 0 151.60 161.13
  Q 150.76 161.01 149.97 161.24
  Q 149.40 161.41 149.13 161.94
  Q 148.12 163.95 145.89 164.16
  Q 145.32 164.21 145.04 164.70
  L 144.77 165.16
  A 0.33 0.31 8.3 0 1 144.56 165.31
  L 141.52 165.77
  Q 140.94 165.86 140.90 165.28
  Q 140.89 165.11 140.75 164.99
  Q 140.66 164.91 140.54 164.96
  Q 139.30 165.41 138.14 165.61
  Q 137.41 165.73 137.11 165.05
  Q 136.98 164.76 136.24 165.18
  A 0.17 0.17 0.0 0 1 136.03 164.91
  Q 136.97 163.91 138.26 163.40
  Q 138.56 163.28 138.75 163.01
  Q 138.96 162.72 139.27 162.62
  Q 139.71 162.48 139.25 162.39
  Q 138.41 162.22 137.72 162.61
  Q 137.15 162.94 137.15 162.28
  L 137.15 160.95" stroke="#2472e5"></path>
<path d="M 82.48 204.26
  Q 82.06 204.12 81.88 204.01
  Q 81.61 203.85 82.01 203.67
  Q 82.29 203.54 82.53 203.43
  Q 83.03 203.20 83.04 202.65
  L 83.08 198.50
  Q 83.09 198.11 82.70 198.12
  Q 82.57 198.12 82.44 198.12
  Q 81.86 198.11 81.73 197.55
  L 81.04 194.53
  Q 80.95 194.11 80.51 194.10
  L 79.56 194.09
  Q 79.07 194.08 78.98 193.60
  C 78.75 192.43 78.85 189.01 80.58 188.81
  Q 80.89 188.77 80.89 188.45
  L 80.89 187.99
  Q 80.89 187.59 80.49 187.59
  L 79.52 187.59
  A 0.25 0.25 0.0 0 1 79.34 187.16
  Q 80.79 185.78 82.81 185.87
  Q 83.08 185.89 83.14 185.63
  L 83.24 185.25
  Q 83.27 185.12 83.27 185.12
  Q 83.14 185.09 83.00 185.00
  Q 82.81 184.87 82.96 184.70
  L 85.01 182.35
  A 0.44 0.44 0.0 0 1 85.77 182.53
  L 85.88 182.98
  Q 85.91 183.06 85.96 182.99
  L 87.26 181.26
  A 0.21 0.20 3.5 0 0 86.99 180.96
  Q 85.40 181.88 84.66 180.25
  Q 84.58 180.08 84.75 180.00
  Q 84.93 179.92 84.88 179.71
  Q 84.78 179.27 84.36 179.43
  Q 84.16 179.51 83.96 179.50
  A 0.19 0.19 0.0 0 1 83.86 179.16
  Q 85.27 178.16 85.35 176.52
  Q 85.37 176.10 85.80 176.14
  Q 85.94 176.15 86.09 176.11
  Q 86.59 175.98 86.66 175.47
  Q 86.73 174.97 86.51 174.34" stroke="#1363f1"></path>
<path d="M 77.24 176.30
  L 76.70 176.79
  Q 76.45 177.02 76.72 177.23
  Q 77.00 177.46 77.12 177.76
  A 0.30 0.30 0.0 0 1 76.73 178.15
  Q 74.09 177.10 72.30 179.17
  Q 72.13 179.37 71.86 179.37
  Q 71.72 179.37 71.56 179.36
  Q 70.98 179.34 71.09 179.91
  Q 71.22 180.55 71.01 181.12
  Q 70.86 181.53 70.43 181.49
  Q 69.44 181.38 68.43 181.68
  Q 67.89 181.84 67.89 181.27
  L 67.89 180.88
  Q 67.89 180.43 67.47 180.26
  C 66.27 179.75 64.61 180.73 63.25 180.89
  Q 62.93 180.93 62.91 181.25
  Q 62.89 181.58 62.71 181.78
  Q 62.40 182.14 61.93 182.08
  C 60.68 181.92 60.40 182.64 59.50 182.67
  Q 58.86 182.68 58.45 182.20
  Q 58.15 181.85 57.71 182.01
  Q 56.22 182.58 54.55 182.55
  A 0.20 0.20 0.0 0 0 54.42 182.91
  Q 54.57 183.03 54.50 183.25
  A 0.66 0.65 -1.2 0 1 54.12 183.64
  Q 51.67 184.63 49.05 184.34
  Q 48.62 184.30 48.43 184.69
  Q 47.58 186.44 45.74 185.70
  Q 45.36 185.55 44.95 185.53
  Q 44.00 185.48 43.29 186.04
  Q 42.90 186.34 42.47 186.10
  L 41.99 185.84
  A 0.29 0.29 0.0 0 0 41.56 186.06
  Q 41.35 187.85 40.55 189.34" stroke="#0e56e4"></path>
</g>
<path d="M 193.45 108.73
  C 231.33 150.65 209.08 218.73 152.34 227.48
  Q 146.49 228.38 132.38 228.38
  Q 74.68 228.37 16.85 228.38
  A 0.36 0.35 -90.0 0 1 16.50 228.02
  Q 16.51 143.46 16.49 58.75
  Q 16.48 45.11 17.91 38.86
  C 22.93 16.98 42.42 1.10 65.25 0.97
  Q 96.12 0.80 127.00 0.82
  C 160.95 0.84 190.96 24.51 198.88 57.80
  Q 204.95 83.29 193.32 107.85
  Q 193.09 108.33 193.45 108.73
  Z
  M 75.91 138.30
  L 89.48 135.15
  L 109.01 130.62
  Q 123.73 127.29 137.26 124.12
  Q 149.21 121.33 159.15 113.42
  C 187.68 88.75 180.96 41.91 144.60 28.12
  Q 135.69 24.79 126.00 24.78
  Q 100.66 24.74 74.31 24.79
  Q 66.62 24.55 62.06 25.09
  C 49.63 26.57 40.54 37.74 40.53 50.25
  Q 40.49 98.25 40.50 146.19
  A 0.26 0.25 83.7 0 0 40.81 146.44
  L 75.91 138.30
  Z
  M 104.21 150.88
  L 41.04 165.51
  Q 40.51 165.63 40.51 166.18
  L 40.55 189.34
  L 40.53 203.74
  Q 40.53 204.29 41.08 204.29
  L 82.48 204.26
  L 110.13 204.24
  L 132.10 204.25
  Q 143.43 204.75 148.76 203.76
  C 171.03 199.62 187.18 182.17 188.43 159.46
  Q 188.91 147.50 184.05 137.19
  Q 180.57 129.80 175.18 124.38
  A 0.33 0.32 -44.3 0 0 174.73 124.38
  C 163.53 135.04 152.61 139.56 136.52 143.35
  Q 120.39 147.16 104.21 150.88
  Z" fill="#ffffff"></path>
<path d="M 74.31 24.79
  L 74.27 109.19
  Q 74.27 109.75 74.83 109.76
  L 75.77 109.77
  L 75.91 138.30
  L 40.81 146.44
  A 0.26 0.25 83.7 0 1 40.50 146.19
  Q 40.49 98.25 40.53 50.25
  C 40.54 37.74 49.63 26.57 62.06 25.09
  Q 66.62 24.55 74.31 24.79
  Z" fill="#0b5af4"></path>
<path d="M 74.31 24.79
  Q 100.66 24.74 126.00 24.78
  Q 135.69 24.79 144.60 28.12
  Q 144.48 28.97 144.85 29.88
  Q 145.20 30.72 144.31 30.97
  Q 143.88 31.09 143.88 31.54
  L 143.88 32.97
  Q 143.88 33.45 143.51 33.77
  Q 142.53 34.60 142.92 35.93
  Q 143.09 36.48 142.62 36.81
  Q 141.40 37.66 141.95 39.27
  A 0.47 0.46 -16.8 0 1 141.62 39.87
  Q 140.77 40.09 140.86 40.95
  Q 140.92 41.43 140.54 41.74
  Q 139.53 42.58 139.92 43.93
  Q 140.09 44.48 139.62 44.81
  Q 138.40 45.66 138.95 47.27
  A 0.47 0.46 -16.8 0 1 138.62 47.87
  Q 137.77 48.09 137.86 48.95
  Q 137.92 49.43 137.54 49.74
  Q 136.53 50.58 136.92 51.93
  Q 137.09 52.48 136.62 52.81
  Q 135.40 53.66 135.95 55.27
  A 0.47 0.46 -16.8 0 1 135.62 55.87
  Q 134.76 56.09 134.87 56.97
  Q 134.93 57.48 134.53 57.81
  Q 133.56 58.60 133.87 59.88
  Q 134.02 60.48 133.53 60.86
  Q 132.43 61.73 132.95 63.28
  A 0.45 0.45 0.0 0 1 132.60 63.87
  Q 131.89 64.01 131.87 64.78
  Q 131.85 65.22 131.43 65.14
  Q 130.59 64.98 130.61 65.73
  Q 130.65 66.98 130.63 68.22
  Q 130.62 68.68 130.26 68.98
  Q 129.64 69.50 129.91 70.65
  A 1.16 1.16 0.0 0 1 129.39 71.90
  Q 128.77 72.30 128.87 72.91
  Q 128.96 73.46 128.53 73.81
  Q 127.56 74.60 127.88 75.89
  Q 128.02 76.44 127.57 76.78
  Q 126.55 77.57 126.88 78.88
  Q 127.02 79.48 126.54 79.86
  Q 125.43 80.73 125.94 82.27
  A 0.47 0.47 0.0 0 1 125.62 82.87
  Q 124.77 83.09 124.86 83.95
  Q 124.92 84.43 124.54 84.74
  Q 123.53 85.58 123.92 86.93
  Q 124.09 87.48 123.62 87.81
  Q 122.40 88.66 122.95 90.27
  A 0.47 0.46 -16.8 0 1 122.62 90.87
  Q 121.77 91.09 121.86 91.95
  Q 121.92 92.43 121.54 92.74
  Q 120.53 93.58 120.92 94.93
  Q 121.09 95.48 120.62 95.81
  Q 119.40 96.66 119.95 98.27
  A 0.47 0.46 -16.8 0 1 119.62 98.87
  Q 118.76 99.09 118.87 99.97
  Q 118.93 100.49 118.52 100.82
  Q 117.54 101.62 117.89 102.93
  Q 118.04 103.51 117.55 103.86
  Q 116.40 104.66 116.98 106.18
  A 0.52 0.52 0.0 0 1 116.57 106.88
  Q 116.28 106.92 116.12 107.13
  A 1.51 0.82 76.9 0 0 115.88 108.00
  L 115.88 108.48
  Q 115.88 108.90 115.47 108.87
  Q 113.18 108.68 111.32 109.70
  L 108.91 109.78
  L 90.00 109.78
  L 75.77 109.77
  L 74.83 109.76
  Q 74.27 109.75 74.27 109.19
  L 74.31 24.79
  Z" fill="#73b1fc"></path>
<path d="M 144.60 28.12
  C 180.96 41.91 187.68 88.75 159.15 113.42
  Q 149.10 109.74 140.25 109.77
  Q 125.96 109.81 111.32 109.70
  Q 113.18 108.68 115.47 108.87
  Q 115.88 108.90 115.88 108.48
  L 115.88 108.00
  A 1.51 0.82 76.9 0 1 116.12 107.13
  Q 116.28 106.92 116.57 106.88
  A 0.52 0.52 0.0 0 0 116.98 106.18
  Q 116.40 104.66 117.55 103.86
  Q 118.04 103.51 117.89 102.93
  Q 117.54 101.62 118.52 100.82
  Q 118.93 100.49 118.87 99.97
  Q 118.76 99.09 119.62 98.87
  A 0.47 0.46 -16.8 0 0 119.95 98.27
  Q 119.40 96.66 120.62 95.81
  Q 121.09 95.48 120.92 94.93
  Q 120.53 93.58 121.54 92.74
  Q 121.92 92.43 121.86 91.95
  Q 121.77 91.09 122.62 90.87
  A 0.47 0.46 -16.8 0 0 122.95 90.27
  Q 122.40 88.66 123.62 87.81
  Q 124.09 87.48 123.92 86.93
  Q 123.53 85.58 124.54 84.74
  Q 124.92 84.43 124.86 83.95
  Q 124.77 83.09 125.62 82.87
  A 0.47 0.47 0.0 0 0 125.94 82.27
  Q 125.43 80.73 126.54 79.86
  Q 127.02 79.48 126.88 78.88
  Q 126.55 77.57 127.57 76.78
  Q 128.02 76.44 127.88 75.89
  Q 127.56 74.60 128.53 73.81
  Q 128.96 73.46 128.87 72.91
  Q 128.77 72.30 129.39 71.90
  A 1.16 1.16 0.0 0 0 129.91 70.65
  Q 129.64 69.50 130.26 68.98
  Q 130.62 68.68 130.63 68.22
  Q 130.65 66.98 130.61 65.73
  Q 130.59 64.98 131.43 65.14
  Q 131.85 65.22 131.87 64.78
  Q 131.89 64.01 132.60 63.87
  A 0.45 0.45 0.0 0 0 132.95 63.28
  Q 132.43 61.73 133.53 60.86
  Q 134.02 60.48 133.87 59.88
  Q 133.56 58.60 134.53 57.81
  Q 134.93 57.48 134.87 56.97
  Q 134.76 56.09 135.62 55.87
  A 0.47 0.46 -16.8 0 0 135.95 55.27
  Q 135.40 53.66 136.62 52.81
  Q 137.09 52.48 136.92 51.93
  Q 136.53 50.58 137.54 49.74
  Q 137.92 49.43 137.86 48.95
  Q 137.77 48.09 138.62 47.87
  A 0.47 0.46 -16.8 0 0 138.95 47.27
  Q 138.40 45.66 139.62 44.81
  Q 140.09 44.48 139.92 43.93
  Q 139.53 42.58 140.54 41.74
  Q 140.92 41.43 140.86 40.95
  Q 140.77 40.09 141.62 39.87
  A 0.47 0.46 -16.8 0 0 141.95 39.27
  Q 141.40 37.66 142.62 36.81
  Q 143.09 36.48 142.92 35.93
  Q 142.53 34.60 143.51 33.77
  Q 143.88 33.45 143.88 32.97
  L 143.88 31.54
  Q 143.88 31.09 144.31 30.97
  Q 145.20 30.72 144.85 29.88
  Q 144.48 28.97 144.60 28.12
  Z" fill="#85b9fc"></path>
<path d="M 75.77 109.77
  L 90.00 109.78
  L 90.10 128.52
  Q 90.11 128.99 90.29 129.42
  Q 90.62 130.18 90.18 130.84
  Q 89.95 131.19 90.07 131.60
  Q 90.57 133.35 89.48 135.15
  L 75.91 138.30
  L 75.77 109.77
  Z" fill="#1b6ced"></path>
<path d="M 90.00 109.78
  L 108.91 109.78
  L 109.01 130.62
  L 89.48 135.15
  Q 90.57 133.35 90.07 131.60
  Q 89.95 131.19 90.18 130.84
  Q 90.62 130.18 90.29 129.42
  Q 90.11 128.99 90.10 128.52
  L 90.00 109.78
  Z" fill="#2c77dc"></path>
<path d="M 108.91 109.78
  L 111.32 109.70
  Q 125.96 109.81 140.25 109.77
  Q 149.10 109.74 159.15 113.42
  Q 149.21 121.33 137.26 124.12
  Q 123.73 127.29 109.01 130.62
  L 108.91 109.78
  Z" fill="#3081ea"></path>
<path d="M 184.05 137.19
  C 181.47 137.21 179.81 138.59 178.17 139.06
  Q 174.84 140.01 171.53 141.04
  Q 171.19 141.15 170.84 141.10
  Q 170.12 141.01 170.00 141.70
  A 0.56 0.55 -76.9 0 1 169.30 142.14
  Q 168.35 141.87 167.85 142.63
  A 1.02 1.01 16.5 0 1 167.00 143.09
  L 165.04 143.10
  Q 164.53 143.11 164.19 143.49
  Q 162.92 144.93 161.00 145.11
  A 2.06 2.03 24.9 0 0 160.05 145.45
  Q 159.18 146.02 158.14 145.83
  Q 157.63 145.73 157.14 145.93
  L 149.66 149.10
  Q 149.09 149.34 149.05 149.95
  L 148.83 153.08
  A 0.53 0.53 0.0 0 1 148.34 153.57
  Q 145.91 153.77 143.48 154.15
  Q 142.15 154.36 141.91 155.91
  A 1.01 0.98 81.0 0 1 141.40 156.63
  Q 139.74 157.53 138.16 158.38
  C 137.10 158.95 136.77 159.88 137.15 160.95
  L 127.57 163.28
  Q 127.07 163.40 126.66 163.09
  Q 125.41 162.11 125.96 160.38
  A 0.42 0.42 0.0 0 0 125.46 159.85
  L 123.95 160.25
  Q 123.46 160.38 123.07 160.68
  C 122.05 161.46 120.55 161.42 119.58 161.74
  Q 117.53 162.42 115.36 162.63
  Q 115.01 162.66 114.70 162.83
  Q 114.44 162.97 114.39 163.15
  Q 114.25 163.62 113.75 163.62
  L 107.98 163.62
  Q 107.61 163.62 107.72 163.97
  Q 107.76 164.09 107.80 164.21
  Q 107.91 164.56 107.82 164.81
  Q 107.61 165.37 106.90 165.40
  Q 106.44 165.41 106.18 165.79
  L 105.51 166.76
  A 0.15 0.15 0.0 0 1 105.25 166.74
  Q 105.19 166.62 105.11 166.47
  Q 104.98 166.24 104.74 166.34
  L 101.52 167.65
  Q 101.16 167.80 100.91 168.10
  Q 100.60 168.49 100.20 168.34
  Q 99.72 168.16 99.27 168.42
  Q 97.59 169.40 98.17 171.44
  A 0.60 0.59 75.5 0 1 97.74 172.18
  L 94.94 172.84
  Q 94.51 172.95 94.14 173.20
  Q 93.35 173.73 92.13 173.31
  Q 88.79 172.14 86.51 174.34
  Q 85.80 174.90 84.62 174.42
  A 0.59 0.58 -68.8 0 0 83.86 174.76
  Q 83.67 175.28 83.34 175.04
  Q 82.99 174.79 82.58 174.90
  L 77.24 176.30
  L 78.07 175.76
  Q 78.50 175.48 78.00 175.38
  Q 77.77 175.33 77.58 175.45
  Q 77.24 175.65 77.15 175.28
  Q 76.88 174.25 77.69 173.75
  Q 78.00 173.56 77.79 173.26
  Q 77.69 173.11 77.49 173.03
  Q 77.09 172.90 77.44 172.67
  C 78.74 171.82 80.21 172.59 81.11 171.42
  Q 81.30 171.16 81.60 171.04
  L 84.57 169.86
  A 0.83 0.82 -8.7 0 0 85.09 169.16
  Q 85.18 168.00 86.48 168.13
  Q 86.86 168.16 86.85 167.79
  Q 86.85 167.63 86.86 167.45
  A 0.34 0.34 0.0 0 0 86.49 167.10
  Q 86.04 167.14 85.82 167.48
  A 0.39 0.39 0.0 0 1 85.11 167.27
  L 85.12 165.76
  Q 85.12 165.29 85.59 165.31
  Q 87.81 165.45 89.39 164.03
  Q 89.95 163.52 89.20 163.49
  L 86.83 163.39
  Q 86.37 163.37 86.69 163.05
  L 87.22 162.51
  Q 87.57 162.15 88.08 162.15
  Q 88.70 162.15 89.03 161.69
  Q 89.30 161.30 89.74 161.15
  L 91.26 160.62
  Q 91.63 160.49 91.85 160.16
  Q 92.24 159.57 92.93 159.63
  Q 93.08 159.64 93.01 159.51
  Q 92.94 159.35 92.86 159.20
  A 0.23 0.23 0.0 0 1 93.11 158.87
  Q 93.95 159.03 93.89 158.30
  Q 93.84 157.71 94.43 157.66
  Q 95.96 157.52 97.27 156.70
  Q 97.66 156.46 97.81 156.04
  Q 98.11 155.21 99.00 154.99
  Q 99.43 154.89 99.74 154.59
  Q 101.38 153.08 103.56 153.54
  A 1.08 1.07 16.5 0 0 104.79 152.88
  Q 105.00 152.36 105.47 152.16
  Q 106.21 151.84 105.48 151.49
  L 104.21 150.88
  Q 120.39 147.16 136.52 143.35
  C 152.61 139.56 163.53 135.04 174.73 124.38
  A 0.33 0.32 -44.3 0 1 175.18 124.38
  Q 180.57 129.80 184.05 137.19
  Z" fill="#2062d1"></path>
<path d="M 184.05 137.19
  Q 188.91 147.50 188.43 159.46
  Q 187.99 159.65 187.88 160.13
  Q 187.81 160.41 187.53 160.35
  L 186.67 160.18
  Q 186.27 160.10 185.93 160.33
  L 183.95 161.71
  Q 183.53 161.99 183.04 161.98
  L 179.25 161.85
  Q 178.88 161.83 178.88 162.20
  Q 178.88 162.33 178.88 162.46
  Q 178.89 162.65 178.70 162.61
  Q 177.88 162.45 178.22 162.27
  Q 178.61 162.06 178.19 161.94
  Q 177.33 161.68 176.91 162.38
  Q 176.62 162.87 176.04 162.88
  Q 175.31 162.88 174.82 162.32
  A 0.38 0.38 0.0 0 0 174.15 162.61
  Q 174.18 162.86 174.01 163.01
  Q 173.58 163.39 173.25 163.39
  L 171.46 163.38
  Q 170.69 163.38 170.86 164.13
  Q 171.11 165.26 170.97 166.38
  Q 170.92 166.77 170.54 166.88
  Q 170.12 167.01 169.84 167.44
  Q 169.59 167.84 169.25 167.51
  L 168.90 167.15
  Q 168.56 166.82 168.18 167.09
  Q 167.78 167.38 167.59 167.83
  Q 167.40 168.29 166.91 168.37
  Q 165.21 168.66 163.74 169.58
  Q 163.62 169.66 163.62 169.52
  Q 163.62 169.35 163.62 169.19
  Q 163.63 168.77 163.24 168.93
  Q 162.29 169.32 161.31 168.82
  A 0.89 0.88 -54.1 0 0 160.27 168.99
  L 159.64 169.62
  Q 159.30 169.95 158.83 169.89
  Q 156.41 169.55 155.58 171.77
  A 0.87 0.85 4.8 0 1 154.93 172.31
  L 153.31 172.62
  Q 152.79 172.71 152.42 173.08
  L 150.56 174.94
  Q 150.20 175.31 149.68 175.35
  Q 147.51 175.53 146.31 176.55
  Q 145.34 177.38 143.19 180.24
  Q 142.95 180.56 142.57 180.42
  Q 142.32 180.32 142.01 180.41
  Q 138.56 181.44 137.40 184.74
  Q 136.99 185.91 136.61 186.52
  Q 136.25 187.12 136.95 187.11
  Q 137.55 187.11 138.02 187.52
  Q 138.29 187.75 138.13 188.07
  Q 136.09 192.10 135.12 193.13
  Q 133.96 194.37 133.84 195.67
  Q 133.81 196.11 133.55 196.48
  Q 131.85 198.92 133.11 201.74
  Q 133.33 202.23 132.90 202.55
  Q 131.41 203.63 132.10 204.25
  L 110.13 204.24
  L 111.92 203.65
  Q 112.46 203.48 112.66 202.94
  L 114.24 198.68
  Q 114.39 198.28 114.72 198.00
  Q 115.36 197.49 115.43 196.70
  Q 115.47 196.14 115.93 195.83
  Q 116.58 195.38 116.63 194.60
  Q 116.67 194.06 116.13 193.92
  Q 115.37 193.73 114.88 193.13
  Q 114.38 192.52 113.89 193.14
  Q 113.62 193.48 113.14 193.35
  Q 112.68 193.22 112.97 192.83
  Q 113.90 191.58 114.38 189.99
  A 4.97 0.01 -73.1 0 0 115.81 185.25
  Q 116.43 182.69 116.74 180.11
  A 0.90 0.89 86.9 0 1 117.43 179.33
  L 119.35 178.87
  Q 119.82 178.76 120.09 178.37
  Q 121.20 176.81 122.72 175.66
  C 123.80 174.85 125.10 174.96 126.40 174.63
  Q 126.71 174.55 126.94 174.62
  Q 127.32 174.73 127.57 174.91
  Q 127.84 175.10 128.10 174.90
  Q 129.10 174.15 130.28 173.95
  Q 130.69 173.88 130.64 173.47
  Q 130.60 173.23 130.71 173.02
  Q 130.89 172.66 131.45 172.50
  Q 132.81 172.11 134.30 171.91
  Q 134.77 171.85 134.59 172.29
  L 134.34 172.89
  A 0.36 0.36 0.0 0 0 134.68 173.38
  L 136.04 173.38
  Q 136.52 173.38 136.98 173.28
  Q 138.21 173.00 139.33 173.35
  A 1.26 1.25 20.1 0 0 140.86 172.65
  Q 141.19 171.84 141.83 171.16
  Q 142.11 170.86 142.53 170.82
  Q 145.36 170.57 146.58 168.17
  A 0.08 0.08 0.0 0 1 146.73 168.19
  Q 146.77 168.38 146.88 168.38
  A 0.23 0.12 -66.7 0 0 147.03 168.26
  Q 147.41 167.54 146.62 167.41
  Q 145.75 167.26 146.50 166.79
  L 147.76 166.00
  Q 148.23 165.70 148.14 165.14
  Q 147.92 163.89 149.00 163.51
  Q 149.85 163.21 151.00 163.38
  Q 151.66 163.47 151.88 162.85
  L 152.16 162.07
  A 0.71 0.70 14.4 0 0 151.60 161.13
  Q 150.76 161.01 149.97 161.24
  Q 149.40 161.41 149.13 161.94
  Q 148.12 163.95 145.89 164.16
  Q 145.32 164.21 145.04 164.70
  L 144.77 165.16
  A 0.33 0.31 8.3 0 1 144.56 165.31
  L 141.52 165.77
  Q 140.94 165.86 140.90 165.28
  Q 140.89 165.11 140.75 164.99
  Q 140.66 164.91 140.54 164.96
  Q 139.30 165.41 138.14 165.61
  Q 137.41 165.73 137.11 165.05
  Q 136.98 164.76 136.24 165.18
  A 0.17 0.17 0.0 0 1 136.03 164.91
  Q 136.97 163.91 138.26 163.40
  Q 138.56 163.28 138.75 163.01
  Q 138.96 162.72 139.27 162.62
  Q 139.71 162.48 139.25 162.39
  Q 138.41 162.22 137.72 162.61
  Q 137.15 162.94 137.15 162.28
  L 137.15 160.95
  C 136.77 159.88 137.10 158.95 138.16 158.38
  Q 139.74 157.53 141.40 156.63
  A 1.01 0.98 81.0 0 0 141.91 155.91
  Q 142.15 154.36 143.48 154.15
  Q 145.91 153.77 148.34 153.57
  A 0.53 0.53 0.0 0 0 148.83 153.08
  L 149.05 149.95
  Q 149.09 149.34 149.66 149.10
  L 157.14 145.93
  Q 157.63 145.73 158.14 145.83
  Q 159.18 146.02 160.05 145.45
  A 2.06 2.03 24.9 0 1 161.00 145.11
  Q 162.92 144.93 164.19 143.49
  Q 164.53 143.11 165.04 143.10
  L 167.00 143.09
  A 1.02 1.01 16.5 0 0 167.85 142.63
  Q 168.35 141.87 169.30 142.14
  A 0.56 0.55 -76.9 0 0 170.00 141.70
  Q 170.12 141.01 170.84 141.10
  Q 171.19 141.15 171.53 141.04
  Q 174.84 140.01 178.17 139.06
  C 179.81 138.59 181.47 137.21 184.05 137.19
  Z" fill="#2c77dc"></path>
<path d="M 104.21 150.88
  L 105.48 151.49
  Q 106.21 151.84 105.47 152.16
  Q 105.00 152.36 104.79 152.88
  A 1.08 1.07 16.5 0 1 103.56 153.54
  Q 101.38 153.08 99.74 154.59
  Q 99.43 154.89 99.00 154.99
  Q 98.11 155.21 97.81 156.04
  Q 97.66 156.46 97.27 156.70
  Q 95.96 157.52 94.43 157.66
  Q 93.84 157.71 93.89 158.30
  Q 93.95 159.03 93.11 158.87
  A 0.23 0.23 0.0 0 0 92.86 159.20
  Q 92.94 159.35 93.01 159.51
  Q 93.08 159.64 92.93 159.63
  Q 92.24 159.57 91.85 160.16
  Q 91.63 160.49 91.26 160.62
  L 89.74 161.15
  Q 89.30 161.30 89.03 161.69
  Q 88.70 162.15 88.08 162.15
  Q 87.57 162.15 87.22 162.51
  L 86.69 163.05
  Q 86.37 163.37 86.83 163.39
  L 89.20 163.49
  Q 89.95 163.52 89.39 164.03
  Q 87.81 165.45 85.59 165.31
  Q 85.12 165.29 85.12 165.76
  L 85.11 167.27
  A 0.39 0.39 0.0 0 0 85.82 167.48
  Q 86.04 167.14 86.49 167.10
  A 0.34 0.34 0.0 0 1 86.86 167.45
  Q 86.85 167.63 86.85 167.79
  Q 86.86 168.16 86.48 168.13
  Q 85.18 168.00 85.09 169.16
  A 0.83 0.82 -8.7 0 1 84.57 169.86
  L 81.60 171.04
  Q 81.30 171.16 81.11 171.42
  C 80.21 172.59 78.74 171.82 77.44 172.67
  Q 77.09 172.90 77.49 173.03
  Q 77.69 173.11 77.79 173.26
  Q 78.00 173.56 77.69 173.75
  Q 76.88 174.25 77.15 175.28
  Q 77.24 175.65 77.58 175.45
  Q 77.77 175.33 78.00 175.38
  Q 78.50 175.48 78.07 175.76
  L 77.24 176.30
  L 76.70 176.79
  Q 76.45 177.02 76.72 177.23
  Q 77.00 177.46 77.12 177.76
  A 0.30 0.30 0.0 0 1 76.73 178.15
  Q 74.09 177.10 72.30 179.17
  Q 72.13 179.37 71.86 179.37
  Q 71.72 179.37 71.56 179.36
  Q 70.98 179.34 71.09 179.91
  Q 71.22 180.55 71.01 181.12
  Q 70.86 181.53 70.43 181.49
  Q 69.44 181.38 68.43 181.68
  Q 67.89 181.84 67.89 181.27
  L 67.89 180.88
  Q 67.89 180.43 67.47 180.26
  C 66.27 179.75 64.61 180.73 63.25 180.89
  Q 62.93 180.93 62.91 181.25
  Q 62.89 181.58 62.71 181.78
  Q 62.40 182.14 61.93 182.08
  C 60.68 181.92 60.40 182.64 59.50 182.67
  Q 58.86 182.68 58.45 182.20
  Q 58.15 181.85 57.71 182.01
  Q 56.22 182.58 54.55 182.55
  A 0.20 0.20 0.0 0 0 54.42 182.91
  Q 54.57 183.03 54.50 183.25
  A 0.66 0.65 -1.2 0 1 54.12 183.64
  Q 51.67 184.63 49.05 184.34
  Q 48.62 184.30 48.43 184.69
  Q 47.58 186.44 45.74 185.70
  Q 45.36 185.55 44.95 185.53
  Q 44.00 185.48 43.29 186.04
  Q 42.90 186.34 42.47 186.10
  L 41.99 185.84
  A 0.29 0.29 0.0 0 0 41.56 186.06
  Q 41.35 187.85 40.55 189.34
  L 40.51 166.18
  Q 40.51 165.63 41.04 165.51
  L 104.21 150.88
  Z" fill="#1151d4"></path>
<path d="M 188.43 159.46
  C 187.18 182.17 171.03 199.62 148.76 203.76
  Q 143.43 204.75 132.10 204.25
  Q 131.41 203.63 132.90 202.55
  Q 133.33 202.23 133.11 201.74
  Q 131.85 198.92 133.55 196.48
  Q 133.81 196.11 133.84 195.67
  Q 133.96 194.37 135.12 193.13
  Q 136.09 192.10 138.13 188.07
  Q 138.29 187.75 138.02 187.52
  Q 137.55 187.11 136.95 187.11
  Q 136.25 187.12 136.61 186.52
  Q 136.99 185.91 137.40 184.74
  Q 138.56 181.44 142.01 180.41
  Q 142.32 180.32 142.57 180.42
  Q 142.95 180.56 143.19 180.24
  Q 145.34 177.38 146.31 176.55
  Q 147.51 175.53 149.68 175.35
  Q 150.20 175.31 150.56 174.94
  L 152.42 173.08
  Q 152.79 172.71 153.31 172.62
  L 154.93 172.31
  A 0.87 0.85 4.8 0 0 155.58 171.77
  Q 156.41 169.55 158.83 169.89
  Q 159.30 169.95 159.64 169.62
  L 160.27 168.99
  A 0.89 0.88 -54.1 0 1 161.31 168.82
  Q 162.29 169.32 163.24 168.93
  Q 163.63 168.77 163.62 169.19
  Q 163.62 169.35 163.62 169.52
  Q 163.62 169.66 163.74 169.58
  Q 165.21 168.66 166.91 168.37
  Q 167.40 168.29 167.59 167.83
  Q 167.78 167.38 168.18 167.09
  Q 168.56 166.82 168.90 167.15
  L 169.25 167.51
  Q 169.59 167.84 169.84 167.44
  Q 170.12 167.01 170.54 166.88
  Q 170.92 166.77 170.97 166.38
  Q 171.11 165.26 170.86 164.13
  Q 170.69 163.38 171.46 163.38
  L 173.25 163.39
  Q 173.58 163.39 174.01 163.01
  Q 174.18 162.86 174.15 162.61
  A 0.38 0.38 0.0 0 1 174.82 162.32
  Q 175.31 162.88 176.04 162.88
  Q 176.62 162.87 176.91 162.38
  Q 177.33 161.68 178.19 161.94
  Q 178.61 162.06 178.22 162.27
  Q 177.88 162.45 178.70 162.61
  Q 178.89 162.65 178.88 162.46
  Q 178.88 162.33 178.88 162.20
  Q 178.88 161.83 179.25 161.85
  L 183.04 161.98
  Q 183.53 161.99 183.95 161.71
  L 185.93 160.33
  Q 186.27 160.10 186.67 160.18
  L 187.53 160.35
  Q 187.81 160.41 187.88 160.13
  Q 187.99 159.65 188.43 159.46
  Z" fill="#3081ea"></path>
<path d="M 137.15 160.95
  L 137.15 162.28
  Q 137.15 162.94 137.72 162.61
  Q 138.41 162.22 139.25 162.39
  Q 139.71 162.48 139.27 162.62
  Q 138.96 162.72 138.75 163.01
  Q 138.56 163.28 138.26 163.40
  Q 136.97 163.91 136.03 164.91
  A 0.17 0.17 0.0 0 0 136.24 165.18
  Q 136.98 164.76 137.11 165.05
  Q 137.41 165.73 138.14 165.61
  Q 139.30 165.41 140.54 164.96
  Q 140.66 164.91 140.75 164.99
  Q 140.89 165.11 140.90 165.28
  Q 140.94 165.86 141.52 165.77
  L 144.56 165.31
  A 0.33 0.31 8.3 0 0 144.77 165.16
  L 145.04 164.70
  Q 145.32 164.21 145.89 164.16
  Q 148.12 163.95 149.13 161.94
  Q 149.40 161.41 149.97 161.24
  Q 150.76 161.01 151.60 161.13
  A 0.71 0.70 14.4 0 1 152.16 162.07
  L 151.88 162.85
  Q 151.66 163.47 151.00 163.38
  Q 149.85 163.21 149.00 163.51
  Q 147.92 163.89 148.14 165.14
  Q 148.23 165.70 147.76 166.00
  L 146.50 166.79
  Q 145.75 167.26 146.62 167.41
  Q 147.41 167.54 147.03 168.26
  A 0.23 0.12 -66.7 0 1 146.88 168.38
  Q 146.77 168.38 146.73 168.19
  A 0.08 0.08 0.0 0 0 146.58 168.17
  Q 145.36 170.57 142.53 170.82
  Q 142.11 170.86 141.83 171.16
  Q 141.19 171.84 140.86 172.65
  A 1.26 1.25 20.1 0 1 139.33 173.35
  Q 138.21 173.00 136.98 173.28
  Q 136.52 173.38 136.04 173.38
  L 134.68 173.38
  A 0.36 0.36 0.0 0 1 134.34 172.89
  L 134.59 172.29
  Q 134.77 171.85 134.30 171.91
  Q 132.81 172.11 131.45 172.50
  Q 130.89 172.66 130.71 173.02
  Q 130.60 173.23 130.64 173.47
  Q 130.69 173.88 130.28 173.95
  Q 129.10 174.15 128.10 174.90
  Q 127.84 175.10 127.57 174.91
  Q 127.32 174.73 126.94 174.62
  Q 126.71 174.55 126.40 174.63
  C 125.10 174.96 123.80 174.85 122.72 175.66
  Q 121.20 176.81 120.09 178.37
  Q 119.82 178.76 119.35 178.87
  L 117.43 179.33
  A 0.90 0.89 86.9 0 0 116.74 180.11
  Q 116.43 182.69 115.81 185.25
  A 4.97 0.01 -73.1 0 1 114.38 189.99
  Q 113.90 191.58 112.97 192.83
  Q 112.68 193.22 113.14 193.35
  Q 113.62 193.48 113.89 193.14
  Q 114.38 192.52 114.88 193.13
  Q 115.37 193.73 116.13 193.92
  Q 116.67 194.06 116.63 194.60
  Q 116.58 195.38 115.93 195.83
  Q 115.47 196.14 115.43 196.70
  Q 115.36 197.49 114.72 198.00
  Q 114.39 198.28 114.24 198.68
  L 112.66 202.94
  Q 112.46 203.48 111.92 203.65
  L 110.13 204.24
  L 82.48 204.26
  Q 82.06 204.12 81.88 204.01
  Q 81.61 203.85 82.01 203.67
  Q 82.29 203.54 82.53 203.43
  Q 83.03 203.20 83.04 202.65
  L 83.08 198.50
  Q 83.09 198.11 82.70 198.12
  Q 82.57 198.12 82.44 198.12
  Q 81.86 198.11 81.73 197.55
  L 81.04 194.53
  Q 80.95 194.11 80.51 194.10
  L 79.56 194.09
  Q 79.07 194.08 78.98 193.60
  C 78.75 192.43 78.85 189.01 80.58 188.81
  Q 80.89 188.77 80.89 188.45
  L 80.89 187.99
  Q 80.89 187.59 80.49 187.59
  L 79.52 187.59
  A 0.25 0.25 0.0 0 1 79.34 187.16
  Q 80.79 185.78 82.81 185.87
  Q 83.08 185.89 83.14 185.63
  L 83.24 185.25
  Q 83.27 185.12 83.27 185.12
  Q 83.14 185.09 83.00 185.00
  Q 82.81 184.87 82.96 184.70
  L 85.01 182.35
  A 0.44 0.44 0.0 0 1 85.77 182.53
  L 85.88 182.98
  Q 85.91 183.06 85.96 182.99
  L 87.26 181.26
  A 0.21 0.20 3.5 0 0 86.99 180.96
  Q 85.40 181.88 84.66 180.25
  Q 84.58 180.08 84.75 180.00
  Q 84.93 179.92 84.88 179.71
  Q 84.78 179.27 84.36 179.43
  Q 84.16 179.51 83.96 179.50
  A 0.19 0.19 0.0 0 1 83.86 179.16
  Q 85.27 178.16 85.35 176.52
  Q 85.37 176.10 85.80 176.14
  Q 85.94 176.15 86.09 176.11
  Q 86.59 175.98 86.66 175.47
  Q 86.73 174.97 86.51 174.34
  Q 88.79 172.14 92.13 173.31
  Q 93.35 173.73 94.14 173.20
  Q 94.51 172.95 94.94 172.84
  L 97.74 172.18
  A 0.60 0.59 75.5 0 0 98.17 171.44
  Q 97.59 169.40 99.27 168.42
  Q 99.72 168.16 100.20 168.34
  Q 100.60 168.49 100.91 168.10
  Q 101.16 167.80 101.52 167.65
  L 104.74 166.34
  Q 104.98 166.24 105.11 166.47
  Q 105.19 166.62 105.25 166.74
  A 0.15 0.15 0.0 0 0 105.51 166.76
  L 106.18 165.79
  Q 106.44 165.41 106.90 165.40
  Q 107.61 165.37 107.82 164.81
  Q 107.91 164.56 107.80 164.21
  Q 107.76 164.09 107.72 163.97
  Q 107.61 163.62 107.98 163.62
  L 113.75 163.62
  Q 114.25 163.62 114.39 163.15
  Q 114.44 162.97 114.70 162.83
  Q 115.01 162.66 115.36 162.63
  Q 117.53 162.42 119.58 161.74
  C 120.55 161.42 122.05 161.46 123.07 160.68
  Q 123.46 160.38 123.95 160.25
  L 125.46 159.85
  A 0.42 0.42 0.0 0 1 125.96 160.38
  Q 125.41 162.11 126.66 163.09
  Q 127.07 163.40 127.57 163.28
  L 137.15 160.95
  Z" fill="#1b6ced"></path>
<path d="M 86.51 174.34
  Q 86.73 174.97 86.66 175.47
  Q 86.59 175.98 86.09 176.11
  Q 85.94 176.15 85.80 176.14
  Q 85.37 176.10 85.35 176.52
  Q 85.27 178.16 83.86 179.16
  A 0.19 0.19 0.0 0 0 83.96 179.50
  Q 84.16 179.51 84.36 179.43
  Q 84.78 179.27 84.88 179.71
  Q 84.93 179.92 84.75 180.00
  Q 84.58 180.08 84.66 180.25
  Q 85.40 181.88 86.99 180.96
  A 0.21 0.20 3.5 0 1 87.26 181.26
  L 85.96 182.99
  Q 85.91 183.06 85.88 182.98
  L 85.77 182.53
  A 0.44 0.44 0.0 0 0 85.01 182.35
  L 82.96 184.70
  Q 82.81 184.87 83.00 185.00
  Q 83.14 185.09 83.27 185.12
  Q 83.27 185.12 83.24 185.25
  L 83.14 185.63
  Q 83.08 185.89 82.81 185.87
  Q 80.79 185.78 79.34 187.16
  A 0.25 0.25 0.0 0 0 79.52 187.59
  L 80.49 187.59
  Q 80.89 187.59 80.89 187.99
  L 80.89 188.45
  Q 80.89 188.77 80.58 188.81
  C 78.85 189.01 78.75 192.43 78.98 193.60
  Q 79.07 194.08 79.56 194.09
  L 80.51 194.10
  Q 80.95 194.11 81.04 194.53
  L 81.73 197.55
  Q 81.86 198.11 82.44 198.12
  Q 82.57 198.12 82.70 198.12
  Q 83.09 198.11 83.08 198.50
  L 83.04 202.65
  Q 83.03 203.20 82.53 203.43
  Q 82.29 203.54 82.01 203.67
  Q 81.61 203.85 81.88 204.01
  Q 82.06 204.12 82.48 204.26
  L 41.08 204.29
  Q 40.53 204.29 40.53 203.74
  L 40.55 189.34
  Q 41.35 187.85 41.56 186.06
  A 0.29 0.29 0.0 0 1 41.99 185.84
  L 42.47 186.10
  Q 42.90 186.34 43.29 186.04
  Q 44.00 185.48 44.95 185.53
  Q 45.36 185.55 45.74 185.70
  Q 47.58 186.44 48.43 184.69
  Q 48.62 184.30 49.05 184.34
  Q 51.67 184.63 54.12 183.64
  A 0.66 0.65 -1.2 0 0 54.50 183.25
  Q 54.57 183.03 54.42 182.91
  A 0.20 0.20 0.0 0 1 54.55 182.55
  Q 56.22 182.58 57.71 182.01
  Q 58.15 181.85 58.45 182.20
  Q 58.86 182.68 59.50 182.67
  C 60.40 182.64 60.68 181.92 61.93 182.08
  Q 62.40 182.14 62.71 181.78
  Q 62.89 181.58 62.91 181.25
  Q 62.93 180.93 63.25 180.89
  C 64.61 180.73 66.27 179.75 67.47 180.26
  Q 67.89 180.43 67.89 180.88
  L 67.89 181.27
  Q 67.89 181.84 68.43 181.68
  Q 69.44 181.38 70.43 181.49
  Q 70.86 181.53 71.01 181.12
  Q 71.22 180.55 71.09 179.91
  Q 70.98 179.34 71.56 179.36
  Q 71.72 179.37 71.86 179.37
  Q 72.13 179.37 72.30 179.17
  Q 74.09 177.10 76.73 178.15
  A 0.30 0.30 0.0 0 0 77.12 177.76
  Q 77.00 177.46 76.72 177.23
  Q 76.45 177.02 76.70 176.79
  L 77.24 176.30
  L 82.58 174.90
  Q 82.99 174.79 83.34 175.04
  Q 83.67 175.28 83.86 174.76
  A 0.59 0.58 -68.8 0 1 84.62 174.42
  Q 85.80 174.90 86.51 174.34
  Z" fill="#0b5af4"></path>
</svg>
