<svg viewBox="0.00 0.00 192.00 192.00" version="1.1" xmlns="http://www.w3.org/2000/svg">
<g stroke-linecap="butt" fill="none" stroke-width="2.00">
<path d="M 83.26 107.08
  C 92.14 107.29 102.28 107.83 110.97 105.37
  C 126.12 101.06 132.95 87.85 129.43 72.92
  C 125.84 57.71 111.88 51.80 97.25 51.78
  Q 81.15 51.76 65.13 51.81
  A 0.19 0.19 0.0 0 0 64.94 52.00
  L 64.94 136.85
  A 0.38 0.38 0.0 0 0 65.32 137.23
  L 81.99 137.23
  Q 82.58 137.23 82.58 136.64
  L 82.58 107.74
  Q 82.58 107.06 83.26 107.08" stroke="#808080"></path>
<path d="M 82.63 66.43
  L 82.53 92.55
  A 0.34 0.34 0.0 0 0 82.87 92.89
  L 99.33 92.95
  A 13.18 12.57 0.2 0 0 112.56 80.42
  L 112.56 78.76
  A 13.18 12.57 0.2 0 0 99.43 66.15
  L 82.97 66.09
  A 0.34 0.34 0.0 0 0 82.63 66.43" stroke="#808080"></path>
</g>
<path d="M 0.00 0.00
  L 192.00 0.00
  L 192.00 192.00
  L 0.00 192.00
  L 0.00 0.00
  Z
  M 83.26 107.08
  C 92.14 107.29 102.28 107.83 110.97 105.37
  C 126.12 101.06 132.95 87.85 129.43 72.92
  C 125.84 57.71 111.88 51.80 97.25 51.78
  Q 81.15 51.76 65.13 51.81
  A 0.19 0.19 0.0 0 0 64.94 52.00
  L 64.94 136.85
  A 0.38 0.38 0.0 0 0 65.32 137.23
  L 81.99 137.23
  Q 82.58 137.23 82.58 136.64
  L 82.58 107.74
  Q 82.58 107.06 83.26 107.08
  Z" fill="#ffffff"></path>
<path d="M 83.26 107.08
  Q 82.58 107.06 82.58 107.74
  L 82.58 136.64
  Q 82.58 137.23 81.99 137.23
  L 65.32 137.23
  A 0.38 0.38 0.0 0 1 64.94 136.85
  L 64.94 52.00
  A 0.19 0.19 0.0 0 1 65.13 51.81
  Q 81.15 51.76 97.25 51.78
  C 111.88 51.80 125.84 57.71 129.43 72.92
  C 132.95 87.85 126.12 101.06 110.97 105.37
  C 102.28 107.83 92.14 107.29 83.26 107.08
  Z
  M 82.63 66.43
  L 82.53 92.55
  A 0.34 0.34 0.0 0 0 82.87 92.89
  L 99.33 92.95
  A 13.18 12.57 0.2 0 0 112.56 80.42
  L 112.56 78.76
  A 13.18 12.57 0.2 0 0 99.43 66.15
  L 82.97 66.09
  A 0.34 0.34 0.0 0 0 82.63 66.43
  Z" fill="#000000"></path>
<path d="M 82.63 66.43
  A 0.34 0.34 0.0 0 1 82.97 66.09
  L 99.43 66.15
  A 13.18 12.57 0.2 0 1 112.56 78.76
  L 112.56 80.42
  A 13.18 12.57 0.2 0 1 99.33 92.95
  L 82.87 92.89
  A 0.34 0.34 0.0 0 1 82.53 92.55
  L 82.63 66.43
  Z" fill="#ffffff"></path>
</svg>
