<svg viewBox="0.00 0.00 128.00 128.00" version="1.1" xmlns="http://www.w3.org/2000/svg">
<g stroke-linecap="butt" fill="none" stroke-width="2.00">
<path d="M 118.85 11.48
  Q 118.42 12.84 119.18 13.26
  Q 119.85 13.64 119.25 13.64
  L 118.60 13.64
  Q 118.06 13.64 117.83 14.12
  Q 117.74 14.32 117.65 14.52
  Q 117.47 14.89 117.09 15.04
  Q 115.87 15.54 115.61 16.85
  Q 115.54 17.20 115.32 17.50
  L 112.36 21.51
  Q 112.09 21.88 111.70 22.12
  Q 111.00 22.56 111.35 22.89
  Q 111.57 23.10 110.90 23.52
  Q 110.64 23.69 110.62 24.06
  Q 110.60 24.50 110.33 24.85
  L 107.32 28.67
  Q 106.74 29.40 106.39 30.26
  Q 106.03 31.12 105.46 31.71
  Q 105.40 31.77 105.43 31.84
  Q 105.46 31.98 105.62 32.10
  Q 105.71 32.18 105.64 32.27
  L 103.25 35.50
  Q 103.19 35.58 103.24 35.67
  L 103.40 35.98
  Q 103.56 36.30 103.35 36.59
  L 101.64 38.85
  Q 101.29 39.32 101.26 39.90
  Q 101.19 41.69 99.53 42.53
  Q 99.10 42.75 99.14 43.22
  Q 99.18 43.80 98.72 44.19
  Q 98.32 44.53 98.40 45.05
  Q 98.51 45.69 97.96 46.07
  Q 97.56 46.34 97.51 46.83
  Q 97.40 48.16 96.52 49.25
  Q 96.16 49.69 96.51 50.14
  Q 96.79 50.52 96.45 50.83
  Q 96.24 51.02 96.19 51.30
  L 95.69 54.21
  Q 95.61 54.62 95.27 54.86
  Q 94.67 55.29 94.91 56.02
  A 0.68 0.68 0.0 0 1 94.66 56.78
  Q 93.98 57.29 94.22 58.07
  Q 94.34 58.47 94.08 58.80
  Q 93.01 60.13 93.39 61.60
  A 2.01 1.68 74.9 0 1 92.30 63.95
  Q 91.91 64.06 92.18 64.76
  A 0.98 0.96 50.9 0 1 92.10 65.63
  C 90.05 68.92 91.95 72.34 90.90 75.89
  C 90.70 76.58 90.08 77.12 90.16 77.97
  Q 90.20 78.37 90.08 78.76
  L 89.40 81.00
  Q 89.38 81.05 89.41 81.11
  Q 89.49 81.27 89.64 81.34
  Q 89.94 81.47 89.74 81.74
  L 89.42 82.17
  Q 89.24 82.41 88.94 82.38
  Q 88.40 82.32 88.50 82.73
  A 0.19 0.19 0.0 0 0 88.74 82.87
  Q 89.00 82.79 88.83 83.14
  Q 88.72 83.38 88.52 83.56
  Q 87.71 84.31 88.10 85.25
  Q 88.36 85.87 87.75 86.15
  Q 87.19 86.40 87.39 87.05
  Q 87.52 87.46 87.25 87.78
  Q 86.34 88.85 86.47 90.21
  Q 86.52 90.70 86.34 91.16
  Q 85.92 92.26 85.43 93.33
  Q 85.35 93.51 85.37 93.65
  Q 85.42 93.96 85.71 94.09
  Q 86.01 94.21 85.90 94.51
  Q 85.78 94.82 85.44 94.95
  A 0.49 0.49 0.0 0 0 85.29 95.78
  Q 86.05 96.45 86.49 97.36
  A 0.15 0.14 10.7 0 1 86.25 97.52
  L 85.98 97.24
  Q 85.43 96.66 85.18 97.42
  Q 84.87 98.41 85.46 99.10
  Q 85.66 99.35 85.44 99.58
  Q 85.19 99.82 85.04 100.15
  Q 84.88 100.51 85.04 100.86
  Q 85.25 101.32 85.73 101.38
  Q 85.92 101.41 85.82 101.57
  Q 85.71 101.73 85.44 101.74
  Q 85.18 101.76 85.14 102.01
  Q 85.05 102.68 85.26 103.29
  A 0.11 0.11 0.0 0 0 85.46 103.31
  Q 85.57 103.10 85.63 103.12
  Q 85.84 103.21 85.75 103.76
  Q 85.62 104.63 84.87 105.11
  A 0.54 0.53 -46.6 0 0 84.89 106.02
  Q 86.28 106.83 84.96 108.03
  A 0.72 0.72 0.0 0 0 84.91 109.04
  Q 85.65 109.84 85.36 111.00
  Q 85.14 111.84 85.12 111.87
  Q 84.52 112.71 85.29 113.26
  A 0.35 0.35 0.0 0 1 85.08 113.90
  Q 84.46 113.89 83.88 113.37
  Q 83.24 112.78 82.47 113.24
  Q 81.89 113.59 82.52 113.81
  L 83.31 114.10
  Q 83.94 114.32 83.47 114.79
  L 82.74 115.52
  A 0.37 0.37 0.0 0 1 82.12 115.17
  Q 82.30 114.46 81.73 114.10
  A 0.50 0.49 -75.1 0 0 80.98 114.54
  Q 81.02 115.70 79.77 115.76
  Q 79.38 115.78 79.53 115.42
  Q 79.70 115.05 80.06 114.93
  A 0.43 0.43 0.0 0 0 80.22 114.20
  Q 79.69 113.73 79.02 113.90
  Q 78.72 113.98 78.65 114.29
  Q 78.61 114.45 78.63 114.63
  Q 78.63 114.64 78.63 114.64
  Q 78.63 114.64 78.62 114.64
  Q 78.61 114.64 78.61 114.62
  Q 78.59 112.69 77.01 111.82
  Q 76.64 111.62 76.55 111.20
  Q 76.35 110.24 75.65 109.61
  Q 75.26 109.26 75.10 108.75
  Q 74.84 107.93 74.03 107.66
  Q 73.54 107.49 73.38 107.01
  Q 72.86 105.43 72.85 103.78
  A 0.43 0.42 80.8 0 0 72.29 103.37
  Q 71.59 103.59 72.05 104.36
  Q 72.54 105.16 71.82 104.57
  Q 70.99 103.89 71.13 102.98
  A 0.81 0.81 0.0 0 0 70.60 102.11
  Q 70.10 101.94 69.94 101.45
  Q 69.77 100.90 69.19 100.90
  Q 68.04 100.91 67.83 99.57
  A 0.81 0.81 0.0 0 0 67.50 99.03
  Q 65.90 97.92 65.18 96.09
  A 1.11 1.10 81.8 0 0 64.25 95.39
  Q 61.05 95.11 57.84 94.86
  Q 57.45 94.83 57.17 94.65
  Q 56.86 94.46 56.59 94.20
  Q 56.23 93.86 55.74 93.94
  Q 51.70 94.62 50.07 91.20" stroke="#070511"></path>
<path d="M 50.07 91.20
  Q 64.57 97.30 78.43 90.62" stroke="#5b5961"></path>
<path d="M 78.43 90.62
  C 85.78 86.34 89.84 78.41 89.96 70.00
  Q 89.97 69.51 89.48 69.51
  L 73.76 69.51
  Q 73.26 69.51 73.14 70.00
  L 72.19 74.02" stroke="#79787d"></path>
<path d="M 72.19 74.02
  C 68.43 81.44 58.99 80.93 55.55 73.48
  C 52.43 66.74 52.55 53.94 59.24 48.45" stroke="#5b5961"></path>
<path d="M 59.24 48.45
  C 67.21 45.18 71.47 49.07 73.10 56.47
  A 0.67 0.66 84.1 0 0 73.75 57.00
  L 89.24 56.99
  A 0.80 0.80 0.0 0 0 90.04 56.13
  C 88.53 37.84 74.28 30.87 57.75 33.22
  Q 54.27 33.71 50.63 35.56" stroke="#79787d"></path>
<path d="M 50.63 35.56
  C 34.84 43.14 31.90 64.18 38.38 78.98" stroke="#5b5961"></path>
<path d="M 38.38 78.98
  Q 35.93 77.56 35.43 74.62
  Q 34.79 70.92 34.19 68.47
  C 32.48 61.51 34.77 53.08 37.07 46.73
  Q 37.19 46.39 37.55 46.35
  Q 37.90 46.32 38.03 46.00
  L 39.02 43.62
  A 3.41 3.40 32.5 0 0 38.16 39.78
  C 36.00 37.84 35.28 34.50 32.83 32.73
  Q 30.66 31.16 29.89 30.26
  Q 26.80 26.64 23.68 23.06
  Q 21.89 21.01 19.94 19.12
  Q 19.86 19.05 16.66 15.55
  Q 14.80 13.50 12.23 12.24
  A 0.26 0.26 0.0 0 1 12.22 11.77
  Q 12.59 11.58 12.10 11.40
  Q 11.66 11.23 11.27 11.50
  Q 10.31 12.15 8.68 11.84" stroke="#070511"></path>
<path d="M 38.38 78.98
  Q 42.24 86.85 50.07 91.20" stroke="#605c6c"></path>
<path d="M 48.19 128.00
  Q 48.20 127.90 47.98 127.74
  Q 47.74 127.58 48.03 127.57
  Q 48.21 127.56 48.38 127.49
  A 0.30 0.30 0.0 0 0 48.49 127.03
  Q 48.28 126.76 47.83 126.73
  Q 47.65 126.72 47.56 126.56
  Q 47.45 126.35 47.57 126.22
  Q 47.86 125.89 47.68 125.49
  L 46.43 122.76
  Q 46.27 122.40 46.27 122.01
  Q 46.29 120.73 45.42 119.66
  A 0.54 0.54 0.0 0 1 45.44 118.95
  Q 45.76 118.58 45.42 118.18
  Q 45.16 117.89 45.05 117.53
  L 43.70 113.32
  Q 43.67 113.21 43.73 113.11
  Q 43.79 113.00 43.88 112.91
  A 0.41 0.40 -43.5 0 0 43.90 112.34
  Q 42.63 110.97 42.58 109.11
  Q 42.57 108.55 42.19 108.15
  Q 41.77 107.70 41.82 107.01
  Q 41.84 106.60 41.69 106.21
  Q 41.12 104.75 41.68 103.29
  A 0.78 0.77 -61.3 0 0 41.42 102.39
  Q 40.59 101.76 40.73 100.80
  Q 40.79 100.39 40.69 99.98
  L 40.43 98.89
  Q 40.29 98.30 39.81 98.68
  Q 39.55 98.88 39.39 98.62
  Q 39.25 98.38 39.47 98.21
  Q 39.74 98.01 39.68 97.59
  A 0.69 0.67 -78.2 0 0 39.36 97.09
  Q 38.71 96.69 39.01 95.99
  Q 39.21 95.53 38.82 95.22
  Q 37.87 94.44 37.70 93.21
  Q 37.64 92.79 37.39 92.44
  Q 36.92 91.79 36.88 91.06
  Q 36.85 90.66 36.53 90.42
  Q 35.25 89.46 35.21 87.90
  Q 35.20 87.52 34.99 87.20
  Q 34.61 86.60 34.61 85.95
  A 0.74 0.74 0.0 0 0 34.11 85.25
  Q 33.60 85.09 33.24 84.74
  Q 32.85 84.36 33.21 83.93
  Q 33.60 83.47 33.11 83.10
  Q 32.64 82.76 32.51 82.19
  Q 31.84 79.43 29.47 77.78
  Q 29.07 77.51 29.38 77.14
  Q 29.61 76.85 29.90 76.88
  A 0.16 0.16 0.0 0 0 30.04 76.62
  Q 29.00 75.39 28.79 74.81
  Q 28.68 74.51 28.42 74.33
  Q 27.67 73.79 27.74 72.74
  A 1.89 1.86 23.9 0 0 27.14 71.22
  Q 24.15 68.48 22.31 64.94
  Q 22.20 64.74 22.16 64.52
  Q 22.09 64.18 21.76 64.11
  C 21.66 64.09 14.36 54.27 13.43 53.18
  Q 13.12 52.82 13.02 52.36
  C 12.80 51.28 12.13 51.13 11.65 50.50
  Q 9.35 47.50 6.95 44.58
  C 5.83 43.23 5.08 41.28 3.42 39.94
  A 1.57 1.56 11.0 0 1 2.93 39.22
  Q 2.53 37.99 1.71 36.95
  Q 1.33 36.48 1.00 36.99
  Q 0.55 37.68 0.53 38.58
  Q 0.53 38.95 0.38 38.88
  Q 0.24 38.81 0.00 38.43" stroke="#110a24"></path>
<path d="M 59.24 48.45
  L 50.63 35.56" stroke="#d2d0d7"></path>
<path d="M 72.19 74.02
  L 78.43 90.62" stroke="#d2d0d7"></path>
</g>
<path d="M 33.05 0.00
  L 97.08 0.00
  Q 110.22 1.80 118.85 11.48
  Q 118.42 12.84 119.18 13.26
  Q 119.85 13.64 119.25 13.64
  L 118.60 13.64
  Q 118.06 13.64 117.83 14.12
  Q 117.74 14.32 117.65 14.52
  Q 117.47 14.89 117.09 15.04
  Q 115.87 15.54 115.61 16.85
  Q 115.54 17.20 115.32 17.50
  L 112.36 21.51
  Q 112.09 21.88 111.70 22.12
  Q 111.00 22.56 111.35 22.89
  Q 111.57 23.10 110.90 23.52
  Q 110.64 23.69 110.62 24.06
  Q 110.60 24.50 110.33 24.85
  L 107.32 28.67
  Q 106.74 29.40 106.39 30.26
  Q 106.03 31.12 105.46 31.71
  Q 105.40 31.77 105.43 31.84
  Q 105.46 31.98 105.62 32.10
  Q 105.71 32.18 105.64 32.27
  L 103.25 35.50
  Q 103.19 35.58 103.24 35.67
  L 103.40 35.98
  Q 103.56 36.30 103.35 36.59
  L 101.64 38.85
  Q 101.29 39.32 101.26 39.90
  Q 101.19 41.69 99.53 42.53
  Q 99.10 42.75 99.14 43.22
  Q 99.18 43.80 98.72 44.19
  Q 98.32 44.53 98.40 45.05
  Q 98.51 45.69 97.96 46.07
  Q 97.56 46.34 97.51 46.83
  Q 97.40 48.16 96.52 49.25
  Q 96.16 49.69 96.51 50.14
  Q 96.79 50.52 96.45 50.83
  Q 96.24 51.02 96.19 51.30
  L 95.69 54.21
  Q 95.61 54.62 95.27 54.86
  Q 94.67 55.29 94.91 56.02
  A 0.68 0.68 0.0 0 1 94.66 56.78
  Q 93.98 57.29 94.22 58.07
  Q 94.34 58.47 94.08 58.80
  Q 93.01 60.13 93.39 61.60
  A 2.01 1.68 74.9 0 1 92.30 63.95
  Q 91.91 64.06 92.18 64.76
  A 0.98 0.96 50.9 0 1 92.10 65.63
  C 90.05 68.92 91.95 72.34 90.90 75.89
  C 90.70 76.58 90.08 77.12 90.16 77.97
  Q 90.20 78.37 90.08 78.76
  L 89.40 81.00
  Q 89.38 81.05 89.41 81.11
  Q 89.49 81.27 89.64 81.34
  Q 89.94 81.47 89.74 81.74
  L 89.42 82.17
  Q 89.24 82.41 88.94 82.38
  Q 88.40 82.32 88.50 82.73
  A 0.19 0.19 0.0 0 0 88.74 82.87
  Q 89.00 82.79 88.83 83.14
  Q 88.72 83.38 88.52 83.56
  Q 87.71 84.31 88.10 85.25
  Q 88.36 85.87 87.75 86.15
  Q 87.19 86.40 87.39 87.05
  Q 87.52 87.46 87.25 87.78
  Q 86.34 88.85 86.47 90.21
  Q 86.52 90.70 86.34 91.16
  Q 85.92 92.26 85.43 93.33
  Q 85.35 93.51 85.37 93.65
  Q 85.42 93.96 85.71 94.09
  Q 86.01 94.21 85.90 94.51
  Q 85.78 94.82 85.44 94.95
  A 0.49 0.49 0.0 0 0 85.29 95.78
  Q 86.05 96.45 86.49 97.36
  A 0.15 0.14 10.7 0 1 86.25 97.52
  L 85.98 97.24
  Q 85.43 96.66 85.18 97.42
  Q 84.87 98.41 85.46 99.10
  Q 85.66 99.35 85.44 99.58
  Q 85.19 99.82 85.04 100.15
  Q 84.88 100.51 85.04 100.86
  Q 85.25 101.32 85.73 101.38
  Q 85.92 101.41 85.82 101.57
  Q 85.71 101.73 85.44 101.74
  Q 85.18 101.76 85.14 102.01
  Q 85.05 102.68 85.26 103.29
  A 0.11 0.11 0.0 0 0 85.46 103.31
  Q 85.57 103.10 85.63 103.12
  Q 85.84 103.21 85.75 103.76
  Q 85.62 104.63 84.87 105.11
  A 0.54 0.53 -46.6 0 0 84.89 106.02
  Q 86.28 106.83 84.96 108.03
  A 0.72 0.72 0.0 0 0 84.91 109.04
  Q 85.65 109.84 85.36 111.00
  Q 85.14 111.84 85.12 111.87
  Q 84.52 112.71 85.29 113.26
  A 0.35 0.35 0.0 0 1 85.08 113.90
  Q 84.46 113.89 83.88 113.37
  Q 83.24 112.78 82.47 113.24
  Q 81.89 113.59 82.52 113.81
  L 83.31 114.10
  Q 83.94 114.32 83.47 114.79
  L 82.74 115.52
  A 0.37 0.37 0.0 0 1 82.12 115.17
  Q 82.30 114.46 81.73 114.10
  A 0.50 0.49 -75.1 0 0 80.98 114.54
  Q 81.02 115.70 79.77 115.76
  Q 79.38 115.78 79.53 115.42
  Q 79.70 115.05 80.06 114.93
  A 0.43 0.43 0.0 0 0 80.22 114.20
  Q 79.69 113.73 79.02 113.90
  Q 78.72 113.98 78.65 114.29
  Q 78.61 114.45 78.63 114.63
  Q 78.63 114.64 78.63 114.64
  Q 78.63 114.64 78.62 114.64
  Q 78.61 114.64 78.61 114.62
  Q 78.59 112.69 77.01 111.82
  Q 76.64 111.62 76.55 111.20
  Q 76.35 110.24 75.65 109.61
  Q 75.26 109.26 75.10 108.75
  Q 74.84 107.93 74.03 107.66
  Q 73.54 107.49 73.38 107.01
  Q 72.86 105.43 72.85 103.78
  A 0.43 0.42 80.8 0 0 72.29 103.37
  Q 71.59 103.59 72.05 104.36
  Q 72.54 105.16 71.82 104.57
  Q 70.99 103.89 71.13 102.98
  A 0.81 0.81 0.0 0 0 70.60 102.11
  Q 70.10 101.94 69.94 101.45
  Q 69.77 100.90 69.19 100.90
  Q 68.04 100.91 67.83 99.57
  A 0.81 0.81 0.0 0 0 67.50 99.03
  Q 65.90 97.92 65.18 96.09
  A 1.11 1.10 81.8 0 0 64.25 95.39
  Q 61.05 95.11 57.84 94.86
  Q 57.45 94.83 57.17 94.65
  Q 56.86 94.46 56.59 94.20
  Q 56.23 93.86 55.74 93.94
  Q 51.70 94.62 50.07 91.20
  Q 64.57 97.30 78.43 90.62
  C 85.78 86.34 89.84 78.41 89.96 70.00
  Q 89.97 69.51 89.48 69.51
  L 73.76 69.51
  Q 73.26 69.51 73.14 70.00
  L 72.19 74.02
  C 68.43 81.44 58.99 80.93 55.55 73.48
  C 52.43 66.74 52.55 53.94 59.24 48.45
  C 67.21 45.18 71.47 49.07 73.10 56.47
  A 0.67 0.66 84.1 0 0 73.75 57.00
  L 89.24 56.99
  A 0.80 0.80 0.0 0 0 90.04 56.13
  C 88.53 37.84 74.28 30.87 57.75 33.22
  Q 54.27 33.71 50.63 35.56
  C 34.84 43.14 31.90 64.18 38.38 78.98
  Q 35.93 77.56 35.43 74.62
  Q 34.79 70.92 34.19 68.47
  C 32.48 61.51 34.77 53.08 37.07 46.73
  Q 37.19 46.39 37.55 46.35
  Q 37.90 46.32 38.03 46.00
  L 39.02 43.62
  A 3.41 3.40 32.5 0 0 38.16 39.78
  C 36.00 37.84 35.28 34.50 32.83 32.73
  Q 30.66 31.16 29.89 30.26
  Q 26.80 26.64 23.68 23.06
  Q 21.89 21.01 19.94 19.12
  Q 19.86 19.05 16.66 15.55
  Q 14.80 13.50 12.23 12.24
  A 0.26 0.26 0.0 0 1 12.22 11.77
  Q 12.59 11.58 12.10 11.40
  Q 11.66 11.23 11.27 11.50
  Q 10.31 12.15 8.68 11.84
  Q 17.96 0.87 33.05 0.00
  Z" fill="#020106"></path>
<path d="M 38.38 78.98
  Q 42.24 86.85 50.07 91.20
  Q 51.70 94.62 55.74 93.94
  Q 56.23 93.86 56.59 94.20
  Q 56.86 94.46 57.17 94.65
  Q 57.45 94.83 57.84 94.86
  Q 61.05 95.11 64.25 95.39
  A 1.11 1.10 81.8 0 1 65.18 96.09
  Q 65.90 97.92 67.50 99.03
  A 0.81 0.81 0.0 0 1 67.83 99.57
  Q 68.04 100.91 69.19 100.90
  Q 69.77 100.90 69.94 101.45
  Q 70.10 101.94 70.60 102.11
  A 0.81 0.81 0.0 0 1 71.13 102.98
  Q 70.99 103.89 71.82 104.57
  Q 72.54 105.16 72.05 104.36
  Q 71.59 103.59 72.29 103.37
  A 0.43 0.42 80.8 0 1 72.85 103.78
  Q 72.86 105.43 73.38 107.01
  Q 73.54 107.49 74.03 107.66
  Q 74.84 107.93 75.10 108.75
  Q 75.26 109.26 75.65 109.61
  Q 76.35 110.24 76.55 111.20
  Q 76.64 111.62 77.01 111.82
  Q 78.59 112.69 78.61 114.62
  Q 78.61 114.64 78.62 114.64
  Q 78.63 114.64 78.63 114.64
  Q 78.63 114.64 78.63 114.63
  Q 78.61 114.45 78.65 114.29
  Q 78.72 113.98 79.02 113.90
  Q 79.69 113.73 80.22 114.20
  A 0.43 0.43 0.0 0 1 80.06 114.93
  Q 79.70 115.05 79.53 115.42
  Q 79.38 115.78 79.77 115.76
  Q 81.02 115.70 80.98 114.54
  A 0.50 0.49 -75.1 0 1 81.73 114.10
  Q 82.30 114.46 82.12 115.17
  A 0.37 0.37 0.0 0 0 82.74 115.52
  L 83.47 114.79
  Q 83.94 114.32 83.31 114.10
  L 82.52 113.81
  Q 81.89 113.59 82.47 113.24
  Q 83.24 112.78 83.88 113.37
  Q 84.46 113.89 85.08 113.90
  A 0.35 0.35 0.0 0 0 85.29 113.26
  Q 84.52 112.71 85.12 111.87
  Q 85.14 111.84 85.36 111.00
  Q 85.65 109.84 84.91 109.04
  A 0.72 0.72 0.0 0 1 84.96 108.03
  Q 86.28 106.83 84.89 106.02
  A 0.54 0.53 -46.6 0 1 84.87 105.11
  Q 85.62 104.63 85.75 103.76
  Q 85.84 103.21 85.63 103.12
  Q 85.57 103.10 85.46 103.31
  A 0.11 0.11 0.0 0 1 85.26 103.29
  Q 85.05 102.68 85.14 102.01
  Q 85.18 101.76 85.44 101.74
  Q 85.71 101.73 85.82 101.57
  Q 85.92 101.41 85.73 101.38
  Q 85.25 101.32 85.04 100.86
  Q 84.88 100.51 85.04 100.15
  Q 85.19 99.82 85.44 99.58
  Q 85.66 99.35 85.46 99.10
  Q 84.87 98.41 85.18 97.42
  Q 85.43 96.66 85.98 97.24
  L 86.25 97.52
  A 0.15 0.14 10.7 0 0 86.49 97.36
  Q 86.05 96.45 85.29 95.78
  A 0.49 0.49 0.0 0 1 85.44 94.95
  Q 85.78 94.82 85.90 94.51
  Q 86.01 94.21 85.71 94.09
  Q 85.42 93.96 85.37 93.65
  Q 85.35 93.51 85.43 93.33
  Q 85.92 92.26 86.34 91.16
  Q 86.52 90.70 86.47 90.21
  Q 86.34 88.85 87.25 87.78
  Q 87.52 87.46 87.39 87.05
  Q 87.19 86.40 87.75 86.15
  Q 88.36 85.87 88.10 85.25
  Q 87.71 84.31 88.52 83.56
  Q 88.72 83.38 88.83 83.14
  Q 89.00 82.79 88.74 82.87
  A 0.19 0.19 0.0 0 1 88.50 82.73
  Q 88.40 82.32 88.94 82.38
  Q 89.24 82.41 89.42 82.17
  L 89.74 81.74
  Q 89.94 81.47 89.64 81.34
  Q 89.49 81.27 89.41 81.11
  Q 89.38 81.05 89.40 81.00
  L 90.08 78.76
  Q 90.20 78.37 90.16 77.97
  C 90.08 77.12 90.70 76.58 90.90 75.89
  C 91.95 72.34 90.05 68.92 92.10 65.63
  A 0.98 0.96 50.9 0 0 92.18 64.76
  Q 91.91 64.06 92.30 63.95
  A 2.01 1.68 74.9 0 0 93.39 61.60
  Q 93.01 60.13 94.08 58.80
  Q 94.34 58.47 94.22 58.07
  Q 93.98 57.29 94.66 56.78
  A 0.68 0.68 0.0 0 0 94.91 56.02
  Q 94.67 55.29 95.27 54.86
  Q 95.61 54.62 95.69 54.21
  L 96.19 51.30
  Q 96.24 51.02 96.45 50.83
  Q 96.79 50.52 96.51 50.14
  Q 96.16 49.69 96.52 49.25
  Q 97.40 48.16 97.51 46.83
  Q 97.56 46.34 97.96 46.07
  Q 98.51 45.69 98.40 45.05
  Q 98.32 44.53 98.72 44.19
  Q 99.18 43.80 99.14 43.22
  Q 99.10 42.75 99.53 42.53
  Q 101.19 41.69 101.26 39.90
  Q 101.29 39.32 101.64 38.85
  L 103.35 36.59
  Q 103.56 36.30 103.40 35.98
  L 103.24 35.67
  Q 103.19 35.58 103.25 35.50
  L 105.64 32.27
  Q 105.71 32.18 105.62 32.10
  Q 105.46 31.98 105.43 31.84
  Q 105.40 31.77 105.46 31.71
  Q 106.03 31.12 106.39 30.26
  Q 106.74 29.40 107.32 28.67
  L 110.33 24.85
  Q 110.60 24.50 110.62 24.06
  Q 110.64 23.69 110.90 23.52
  Q 111.57 23.10 111.35 22.89
  Q 111.00 22.56 111.70 22.12
  Q 112.09 21.88 112.36 21.51
  L 115.32 17.50
  Q 115.54 17.20 115.61 16.85
  Q 115.87 15.54 117.09 15.04
  Q 117.47 14.89 117.65 14.52
  Q 117.74 14.32 117.83 14.12
  Q 118.06 13.64 118.60 13.64
  L 119.25 13.64
  Q 119.85 13.64 119.18 13.26
  Q 118.42 12.84 118.85 11.48
  Q 127.74 21.91 127.77 35.76
  Q 127.84 59.99 127.83 84.23
  Q 127.83 97.72 126.27 103.10
  C 122.41 116.38 111.11 126.07 97.10 128.00
  L 48.19 128.00
  Q 48.20 127.90 47.98 127.74
  Q 47.74 127.58 48.03 127.57
  Q 48.21 127.56 48.38 127.49
  A 0.30 0.30 0.0 0 0 48.49 127.03
  Q 48.28 126.76 47.83 126.73
  Q 47.65 126.72 47.56 126.56
  Q 47.45 126.35 47.57 126.22
  Q 47.86 125.89 47.68 125.49
  L 46.43 122.76
  Q 46.27 122.40 46.27 122.01
  Q 46.29 120.73 45.42 119.66
  A 0.54 0.54 0.0 0 1 45.44 118.95
  Q 45.76 118.58 45.42 118.18
  Q 45.16 117.89 45.05 117.53
  L 43.70 113.32
  Q 43.67 113.21 43.73 113.11
  Q 43.79 113.00 43.88 112.91
  A 0.41 0.40 -43.5 0 0 43.90 112.34
  Q 42.63 110.97 42.58 109.11
  Q 42.57 108.55 42.19 108.15
  Q 41.77 107.70 41.82 107.01
  Q 41.84 106.60 41.69 106.21
  Q 41.12 104.75 41.68 103.29
  A 0.78 0.77 -61.3 0 0 41.42 102.39
  Q 40.59 101.76 40.73 100.80
  Q 40.79 100.39 40.69 99.98
  L 40.43 98.89
  Q 40.29 98.30 39.81 98.68
  Q 39.55 98.88 39.39 98.62
  Q 39.25 98.38 39.47 98.21
  Q 39.74 98.01 39.68 97.59
  A 0.69 0.67 -78.2 0 0 39.36 97.09
  Q 38.71 96.69 39.01 95.99
  Q 39.21 95.53 38.82 95.22
  Q 37.87 94.44 37.70 93.21
  Q 37.64 92.79 37.39 92.44
  Q 36.92 91.79 36.88 91.06
  Q 36.85 90.66 36.53 90.42
  Q 35.25 89.46 35.21 87.90
  Q 35.20 87.52 34.99 87.20
  Q 34.61 86.60 34.61 85.95
  A 0.74 0.74 0.0 0 0 34.11 85.25
  Q 33.60 85.09 33.24 84.74
  Q 32.85 84.36 33.21 83.93
  Q 33.60 83.47 33.11 83.10
  Q 32.64 82.76 32.51 82.19
  Q 31.84 79.43 29.47 77.78
  Q 29.07 77.51 29.38 77.14
  Q 29.61 76.85 29.90 76.88
  A 0.16 0.16 0.0 0 0 30.04 76.62
  Q 29.00 75.39 28.79 74.81
  Q 28.68 74.51 28.42 74.33
  Q 27.67 73.79 27.74 72.74
  A 1.89 1.86 23.9 0 0 27.14 71.22
  Q 24.15 68.48 22.31 64.94
  Q 22.20 64.74 22.16 64.52
  Q 22.09 64.18 21.76 64.11
  C 21.66 64.09 14.36 54.27 13.43 53.18
  Q 13.12 52.82 13.02 52.36
  C 12.80 51.28 12.13 51.13 11.65 50.50
  Q 9.35 47.50 6.95 44.58
  C 5.83 43.23 5.08 41.28 3.42 39.94
  A 1.57 1.56 11.0 0 1 2.93 39.22
  Q 2.53 37.99 1.71 36.95
  Q 1.33 36.48 1.00 36.99
  Q 0.55 37.68 0.53 38.58
  Q 0.53 38.95 0.38 38.88
  Q 0.24 38.81 0.00 38.43
  L 0.00 32.26
  C 1.65 24.26 3.20 18.25 8.68 11.84
  Q 10.31 12.15 11.27 11.50
  Q 11.66 11.23 12.10 11.40
  Q 12.59 11.58 12.22 11.77
  A 0.26 0.26 0.0 0 0 12.23 12.24
  Q 14.80 13.50 16.66 15.55
  Q 19.86 19.05 19.94 19.12
  Q 21.89 21.01 23.68 23.06
  Q 26.80 26.64 29.89 30.26
  Q 30.66 31.16 32.83 32.73
  C 35.28 34.50 36.00 37.84 38.16 39.78
  A 3.41 3.40 32.5 0 1 39.02 43.62
  L 38.03 46.00
  Q 37.90 46.32 37.55 46.35
  Q 37.19 46.39 37.07 46.73
  C 34.77 53.08 32.48 61.51 34.19 68.47
  Q 34.79 70.92 35.43 74.62
  Q 35.93 77.56 38.38 78.98
  Z" fill="#0c081c"></path>
<path d="M 59.24 48.45
  L 50.63 35.56
  Q 54.27 33.71 57.75 33.22
  C 74.28 30.87 88.53 37.84 90.04 56.13
  A 0.80 0.80 0.0 0 1 89.24 56.99
  L 73.75 57.00
  A 0.67 0.66 84.1 0 1 73.10 56.47
  C 71.47 49.07 67.21 45.18 59.24 48.45
  Z" fill="#efeff3"></path>
<path d="M 50.63 35.56
  L 59.24 48.45
  C 52.55 53.94 52.43 66.74 55.55 73.48
  C 58.99 80.93 68.43 81.44 72.19 74.02
  L 78.43 90.62
  Q 64.57 97.30 50.07 91.20
  Q 42.24 86.85 38.38 78.98
  C 31.90 64.18 34.84 43.14 50.63 35.56
  Z" fill="#b4b0bb"></path>
<path d="M 48.19 128.00
  L 30.78 128.00
  C 13.23 125.42 1.86 112.48 0.00 95.20
  L 0.00 38.43
  Q 0.24 38.81 0.38 38.88
  Q 0.53 38.95 0.53 38.58
  Q 0.55 37.68 1.00 36.99
  Q 1.33 36.48 1.71 36.95
  Q 2.53 37.99 2.93 39.22
  A 1.57 1.56 11.0 0 0 3.42 39.94
  C 5.08 41.28 5.83 43.23 6.95 44.58
  Q 9.35 47.50 11.65 50.50
  C 12.13 51.13 12.80 51.28 13.02 52.36
  Q 13.12 52.82 13.43 53.18
  C 14.36 54.27 21.66 64.09 21.76 64.11
  Q 22.09 64.18 22.16 64.52
  Q 22.20 64.74 22.31 64.94
  Q 24.15 68.48 27.14 71.22
  A 1.89 1.86 23.9 0 1 27.74 72.74
  Q 27.67 73.79 28.42 74.33
  Q 28.68 74.51 28.79 74.81
  Q 29.00 75.39 30.04 76.62
  A 0.16 0.16 0.0 0 1 29.90 76.88
  Q 29.61 76.85 29.38 77.14
  Q 29.07 77.51 29.47 77.78
  Q 31.84 79.43 32.51 82.19
  Q 32.64 82.76 33.11 83.10
  Q 33.60 83.47 33.21 83.93
  Q 32.85 84.36 33.24 84.74
  Q 33.60 85.09 34.11 85.25
  A 0.74 0.74 0.0 0 1 34.61 85.95
  Q 34.61 86.60 34.99 87.20
  Q 35.20 87.52 35.21 87.90
  Q 35.25 89.46 36.53 90.42
  Q 36.85 90.66 36.88 91.06
  Q 36.92 91.79 37.39 92.44
  Q 37.64 92.79 37.70 93.21
  Q 37.87 94.44 38.82 95.22
  Q 39.21 95.53 39.01 95.99
  Q 38.71 96.69 39.36 97.09
  A 0.69 0.67 -78.2 0 1 39.68 97.59
  Q 39.74 98.01 39.47 98.21
  Q 39.25 98.38 39.39 98.62
  Q 39.55 98.88 39.81 98.68
  Q 40.29 98.30 40.43 98.89
  L 40.69 99.98
  Q 40.79 100.39 40.73 100.80
  Q 40.59 101.76 41.42 102.39
  A 0.78 0.77 -61.3 0 1 41.68 103.29
  Q 41.12 104.75 41.69 106.21
  Q 41.84 106.60 41.82 107.01
  Q 41.77 107.70 42.19 108.15
  Q 42.57 108.55 42.58 109.11
  Q 42.63 110.97 43.90 112.34
  A 0.41 0.40 -43.5 0 1 43.88 112.91
  Q 43.79 113.00 43.73 113.11
  Q 43.67 113.21 43.70 113.32
  L 45.05 117.53
  Q 45.16 117.89 45.42 118.18
  Q 45.76 118.58 45.44 118.95
  A 0.54 0.54 0.0 0 0 45.42 119.66
  Q 46.29 120.73 46.27 122.01
  Q 46.27 122.40 46.43 122.76
  L 47.68 125.49
  Q 47.86 125.89 47.57 126.22
  Q 47.45 126.35 47.56 126.56
  Q 47.65 126.72 47.83 126.73
  Q 48.28 126.76 48.49 127.03
  A 0.30 0.30 0.0 0 1 48.38 127.49
  Q 48.21 127.56 48.03 127.57
  Q 47.74 127.58 47.98 127.74
  Q 48.20 127.90 48.19 128.00
  Z" fill="#150b2b"></path>
<path d="M 78.43 90.62
  L 72.19 74.02
  L 73.14 70.00
  Q 73.26 69.51 73.76 69.51
  L 89.48 69.51
  Q 89.97 69.51 89.96 70.00
  C 89.84 78.41 85.78 86.34 78.43 90.62
  Z" fill="#efeff3"></path>
</svg>
