<svg viewBox="0.00 0.00 32.00 32.00" version="1.1" xmlns="http://www.w3.org/2000/svg">
<path d="M 14.23 12.77
  L 17.67 6.18
  Q 18.18 5.20 18.08 6.30
  L 17.50 12.67
  Q 17.41 13.72 18.23 13.06
  L 23.23 9.03
  Q 24.19 8.26 23.64 9.36
  L 21.10 14.47
  A 0.32 0.32 0.0 0 0 21.49 14.92
  L 26.84 13.14
  Q 27.87 12.80 27.12 13.59
  L 23.03 17.83
  Q 22.52 18.37 23.26 18.35
  L 29.04 18.21
  Q 30.32 18.18 29.19 18.78
  L 25.26 20.82
  Q 23.95 21.51 25.30 22.13
  L 28.55 23.63
  Q 29.07 23.87 28.50 23.87
  L 3.01 23.83
  Q 1.70 23.83 2.65 22.93
  L 8.10 17.81
  Q 8.51 17.43 8.27 16.92
  L 4.83 9.48
  Q 3.93 7.54 5.45 9.05
  L 9.83 13.43
  A 0.30 0.30 0.0 0 0 10.33 13.27
  L 11.63 6.00
  Q 11.89 4.59 12.21 5.99
  L 13.75 12.71
  Q 13.91 13.39 14.23 12.77
  Z" fill="#00bf9a"></path>
</svg>
