<svg viewBox="0.00 0.00 48.00 48.00" version="1.1" xmlns="http://www.w3.org/2000/svg">
<g stroke-linecap="butt" fill="none" stroke-width="2.00">
<path d="M 4.61 31.99
  Q 8.97 41.66 18.40 44.32
  C 37.97 49.82 53.23 26.75 40.61 10.87
  C 29.84 -2.67 9.01 1.62 3.89 18.02
  C 2.14 23.64 2.43 27.16 4.61 31.99" stroke="#0a0a0a"></path>
<path d="M 29.47 25.74
  L 29.25 22.68
  Q 29.16 21.40 28.24 22.29
  Q 26.79 23.70 26.19 23.55" stroke="#0a7a5a"></path>
<path d="M 26.19 23.55
  L 26.23 20.39
  Q 26.25 19.65 25.69 20.14
  L 20.34 24.89
  A 0.22 0.22 0.0 0 1 19.98 24.78
  L 19.85 24.22
  A 0.41 0.40 63.6 0 0 19.20 24.00
  L 17.26 25.56
  Q 16.04 26.55 16.12 24.98
  L 16.26 22.31
  Q 16.31 21.31 15.55 21.96
  L 5.64 30.30
  Q 4.67 31.12 5.94 31.12
  L 39.90 31.08
  Q 40.50 31.08 40.50 30.47
  L 40.51 16.49
  A 0.33 0.33 0.0 0 0 39.96 16.24
  L 29.47 25.74" stroke="#0a8a6f"></path>
<path d="M 26.19 23.55
  Q 26.45 25.09 26.01 27.50
  A 0.49 0.49 0.0 0 0 26.81 27.97
  L 29.47 25.74" stroke="#00efb5"></path>
</g>
<path d="M 21.85 0.00
  L 26.08 0.00
  Q 44.92 2.97 48.00 21.86
  L 48.00 26.11
  Q 45.13 45.02 25.97 48.00
  L 21.90 48.00
  Q 3.10 45.03 0.00 26.15
  L 0.00 21.91
  Q 3.04 3.03 21.85 0.00
  Z
  M 4.61 31.99
  Q 8.97 41.66 18.40 44.32
  C 37.97 49.82 53.23 26.75 40.61 10.87
  C 29.84 -2.67 9.01 1.62 3.89 18.02
  C 2.14 23.64 2.43 27.16 4.61 31.99
  Z" fill="#000000"></path>
<path d="M 4.61 31.99
  C 2.43 27.16 2.14 23.64 3.89 18.02
  C 9.01 1.62 29.84 -2.67 40.61 10.87
  C 53.23 26.75 37.97 49.82 18.40 44.32
  Q 8.97 41.66 4.61 31.99
  Z
  M 29.47 25.74
  L 29.25 22.68
  Q 29.16 21.40 28.24 22.29
  Q 26.79 23.70 26.19 23.55
  L 26.23 20.39
  Q 26.25 19.65 25.69 20.14
  L 20.34 24.89
  A 0.22 0.22 0.0 0 1 19.98 24.78
  L 19.85 24.22
  A 0.41 0.40 63.6 0 0 19.20 24.00
  L 17.26 25.56
  Q 16.04 26.55 16.12 24.98
  L 16.26 22.31
  Q 16.31 21.31 15.55 21.96
  L 5.64 30.30
  Q 4.67 31.12 5.94 31.12
  L 39.90 31.08
  Q 40.50 31.08 40.50 30.47
  L 40.51 16.49
  A 0.33 0.33 0.0 0 0 39.96 16.24
  L 29.47 25.74
  Z" fill="#141414"></path>
<path d="M 26.19 23.55
  Q 26.45 25.09 26.01 27.50
  A 0.49 0.49 0.0 0 0 26.81 27.97
  L 29.47 25.74
  L 39.96 16.24
  A 0.33 0.33 0.0 0 1 40.51 16.49
  L 40.50 30.47
  Q 40.50 31.08 39.90 31.08
  L 5.94 31.12
  Q 4.67 31.12 5.64 30.30
  L 15.55 21.96
  Q 16.31 21.31 16.26 22.31
  L 16.12 24.98
  Q 16.04 26.55 17.26 25.56
  L 19.20 24.00
  A 0.41 0.40 63.6 0 1 19.85 24.22
  L 19.98 24.78
  A 0.22 0.22 0.0 0 0 20.34 24.89
  L 25.69 20.14
  Q 26.25 19.65 26.23 20.39
  L 26.19 23.55
  Z" fill="#00ffca"></path>
<path d="M 29.47 25.74
  L 26.81 27.97
  A 0.49 0.49 0.0 0 1 26.01 27.50
  Q 26.45 25.09 26.19 23.55
  Q 26.79 23.70 28.24 22.29
  Q 29.16 21.40 29.25 22.68
  L 29.47 25.74
  Z" fill="#00dfa0"></path>
</svg>
