<svg viewBox="0.00 0.00 256.00 256.00" version="1.1" xmlns="http://www.w3.org/2000/svg">
<g stroke-linecap="butt" fill="none" stroke-width="2.00">
<path d="M 118.05 17.26
  Q 117.85 15.14 118.58 13.11
  Q 118.72 12.71 118.53 12.33
  C 118.07 11.44 118.69 10.46 118.15 9.53
  Q 117.90 9.11 117.88 8.62
  L 117.66 0.22" stroke="#ba24b1"></path>
<path d="M 183.61 11.84
  L 182.77 34.99" stroke="#ff2a68"></path>
<path d="M 196.47 19.38
  Q 194.86 33.10 196.74 45.76" stroke="#ff4158"></path>
<path d="M 206.49 26.93
  Q 204.47 26.27 204.69 29.56
  C 205.26 37.83 204.27 46.07 205.23 54.34" stroke="#ff624b"></path>
<path d="M 223.03 43.58
  Q 221.58 43.89 221.67 46.67
  Q 221.73 48.74 221.73 48.82
  Q 221.49 64.38 221.79 80.40" stroke="#ff7f41"></path>
<path d="M 229.12 51.67
  Q 227.09 51.70 227.13 53.51
  Q 227.50 73.35 226.63 93.73" stroke="#ff923b"></path>
<path d="M 234.52 60.37
  Q 234.26 93.46 234.36 125.58
  Q 234.36 125.94 234.02 129.39
  Q 233.88 130.89 233.88 133.25
  Q 233.86 154.45 233.87 175.66
  C 233.88 178.27 233.10 180.90 233.19 183.57
  Q 233.20 184.01 233.63 183.92
  L 234.10 183.82" stroke="#ffa535"></path>
<path d="M 228.31 192.79
  L 228.14 192.43
  Q 227.96 192.02 227.52 192.12
  Q 227.36 192.15 227.21 192.11
  Q 226.66 191.95 226.84 191.41
  C 227.25 190.15 227.61 188.99 227.61 187.63
  Q 227.67 175.35 227.60 163.08
  Q 227.58 159.51 227.80 153.41
  Q 227.98 148.60 227.93 143.74" stroke="#ff923b"></path>
<path d="M 210.81 212.62
  L 211.36 183.72
  Q 211.37 183.33 211.48 182.96
  Q 211.74 182.12 211.33 181.17" stroke="#ff7f41"></path>
<path d="M 206.13 216.64
  L 205.91 196.34
  Q 205.91 196.25 205.97 196.18
  Q 206.06 196.08 206.16 195.98
  Q 206.35 195.79 206.36 195.53
  L 206.69 187.22" stroke="#ff624b"></path>
<path d="M 187.81 229.25
  L 187.66 227.37
  Q 187.62 226.94 187.79 226.55
  Q 188.28 225.44 187.87 224.42
  Q 187.79 224.22 187.98 224.13
  Q 188.11 224.07 188.24 224.00
  Q 188.41 223.92 188.41 223.74
  L 188.52 204.35" stroke="#ff4158"></path>
<path d="M 171.03 237.02
  Q 171.51 236.22 171.17 235.61
  Q 170.95 235.23 171.06 234.80
  Q 171.28 233.96 171.07 233.12
  Q 170.96 232.65 170.96 232.17
  L 171.07 214.67" stroke="#ff2a68"></path>
<path d="M 155.01 46.44
  L 154.89 68.86" stroke="#f61e80"></path>
<path d="M 183.18 64.21
  L 182.67 98.81" stroke="#ff2a68"></path>
<path d="M 192.17 74.23
  L 192.30 168.52" stroke="#ff4158"></path>
<path d="M 182.46 179.84
  Q 181.87 167.25 182.18 155.27
  C 182.24 152.65 182.81 149.29 182.78 146.24
  Q 182.78 145.73 183.10 145.40
  Q 183.42 145.08 183.28 144.65
  Q 183.00 143.80 183.20 142.96" stroke="#ff2a68"></path>
<path d="M 151.47 198.01
  Q 149.99 194.16 150.11 190.06
  C 150.27 184.92 150.07 181.81 150.12 177.61
  Q 150.12 177.11 149.62 177.18
  L 148.23 177.40" stroke="#f61e80"></path>
<path d="M 115.30 73.93
  Q 114.53 73.74 114.23 74.32
  Q 114.08 74.61 114.19 75.28
  C 114.41 76.61 113.82 77.38 113.88 78.55
  Q 114.17 84.32 113.77 90.09
  Q 113.63 92.16 113.83 94.41
  C 114.18 98.31 113.33 102.05 113.37 105.50
  Q 113.43 111.41 113.34 114.74
  Q 112.81 135.00 113.56 155.25
  C 113.63 157.11 114.48 158.73 113.95 160.60
  Q 113.71 161.48 113.80 162.43
  Q 114.03 164.88 113.40 168.24
  Q 113.08 169.94 114.30 170.99" stroke="#ba24b1"></path>
<path d="M 115.04 213.83
  Q 114.00 214.46 114.47 216.68
  Q 114.58 217.23 114.97 217.62
  Q 115.77 218.42 115.25 219.51
  A 1.83 1.79 -36.3 0 0 115.09 220.49
  L 115.43 223.41
  Q 115.48 223.87 115.25 224.28
  Q 114.71 225.22 114.87 226.50
  Q 115.81 233.89 115.75 242.78" stroke="#ba24b1"></path>
<path d="M 103.44 240.95
  Q 103.53 226.53 102.92 212.16
  Q 102.69 206.81 103.01 202.34
  Q 103.35 197.46 103.80 192.57
  Q 103.83 192.24 103.56 192.04
  Q 103.33 191.87 103.34 191.50
  Q 103.42 186.83 103.38 182.17
  C 103.31 174.99 101.48 166.80 101.76 160.01
  C 102.23 148.88 102.19 137.33 101.90 126.20
  Q 101.80 122.64 101.85 119.09
  Q 101.92 113.21 101.84 108.42
  Q 101.75 102.33 101.99 96.24
  Q 102.17 91.54 102.47 86.83
  C 102.60 84.71 102.08 82.57 102.12 80.50
  Q 102.18 77.03 102.49 70.50
  C 102.71 65.96 103.40 59.90 102.99 54.41
  C 102.89 53.13 103.48 52.13 103.39 50.81
  C 103.07 46.18 103.14 40.64 103.13 36.62
  Q 103.09 22.68 103.19 8.74
  Q 103.22 4.26 103.59 2.29" stroke="#a429be"></path>
<path d="M 93.14 238.33
  Q 94.73 231.55 94.14 226.49
  Q 93.19 218.24 93.42 214.25
  Q 93.61 210.89 93.20 209.17
  Q 93.09 208.68 93.18 208.18
  C 93.38 207.16 93.16 205.95 93.15 205.21
  C 92.89 186.23 92.43 167.31 92.69 148.25
  C 93.05 121.07 92.37 93.88 93.13 66.71
  Q 93.13 66.65 93.06 66.61
  Q 93.01 66.58 93.01 66.50
  C 93.14 56.83 92.81 47.23 93.64 37.52
  C 94.35 29.10 94.08 20.64 94.38 12.21
  C 94.45 10.31 94.10 8.36 93.91 6.45
  Q 93.88 6.17 93.61 6.12
  Q 93.43 6.09 93.29 5.96
  Q 93.14 5.82 93.12 5.60
  Q 93.10 5.31 92.84 5.43
  Q 92.13 5.77 92.19 5.17" stroke="#922ec9"></path>
<path d="M 86.04 240.54
  Q 84.73 238.80 84.84 236.74
  C 85.02 233.23 85.23 230.04 84.89 226.43
  Q 83.47 211.16 84.29 195.84
  Q 84.37 194.42 84.04 192.19
  C 83.31 187.24 84.21 181.93 83.83 176.98
  C 83.54 173.21 83.66 168.13 83.73 164.91
  Q 83.90 157.21 83.93 149.50
  Q 83.98 138.76 84.45 128.73
  Q 84.45 128.68 84.45 128.63
  Q 84.23 113.81 84.09 99.00
  Q 84.06 95.39 84.29 92.44
  Q 84.34 91.80 84.13 87.98
  C 83.96 84.95 84.35 81.34 83.85 78.25
  C 83.60 76.69 84.16 75.64 84.11 74.40
  C 83.89 68.89 84.13 63.37 84.05 57.87
  Q 83.94 50.17 84.65 42.50
  Q 84.70 41.97 84.53 41.46
  Q 84.39 41.05 84.43 40.61
  L 85.11 32.25
  Q 85.12 32.15 84.97 32.12
  Q 84.91 32.10 84.88 32.07
  Q 84.83 32.03 84.84 31.91
  Q 85.47 20.01 84.09 7.97" stroke="#8135d3"></path>
<path d="M 67.05 249.17
  Q 67.02 236.85 67.12 224.72
  Q 67.20 214.60 67.09 204.74
  Q 66.84 183.37 66.93 162.00
  Q 66.95 158.51 66.71 155.03
  C 66.56 152.73 66.98 150.33 66.85 147.91
  C 66.47 140.56 66.96 133.11 66.81 125.75
  Q 66.60 115.96 66.77 101.32
  C 66.82 96.60 66.59 90.48 66.77 85.05
  C 66.83 83.45 66.48 81.65 66.58 79.91
  C 66.83 75.75 66.79 71.14 66.58 66.99
  C 66.23 60.19 66.73 53.10 66.95 46.28
  C 67.02 43.98 66.86 41.47 67.11 38.50
  Q 67.82 30.20 66.88 18.94
  Q 66.84 18.56 66.60 18.26
  Q 66.26 17.85 66.60 17.52
  Q 66.66 16.85 66.01 16.71" stroke="#6d43df"></path>
<path d="M 52.06 253.48
  Q 53.35 250.31 53.36 245.00
  Q 53.39 219.25 53.43 193.50
  Q 53.44 183.38 52.97 173.28
  Q 52.90 171.78 53.03 169.23
  C 53.17 166.58 52.79 163.92 53.07 161.34
  Q 53.37 158.63 53.37 157.50
  Q 53.37 144.13 53.39 130.75
  Q 53.45 99.50 53.43 68.25
  Q 53.41 46.73 53.34 25.28" stroke="#5d56e9"></path>
<path d="M 48.52 254.18
  Q 48.51 223.89 48.76 193.50
  Q 48.88 178.87 48.63 164.25
  Q 48.62 164.02 48.72 163.84
  Q 48.88 163.56 48.84 163.24
  C 48.37 159.65 48.89 156.28 48.62 152.76
  Q 48.46 150.76 48.46 148.75
  Q 48.46 92.48 48.55 36.21
  Q 48.55 35.28 48.85 33.33
  Q 49.39 29.89 46.86 30.71" stroke="#5465ef"></path>
<path d="M 39.97 255.43
  L 40.82 236.28
  A 0.23 0.11 71.6 0 1 40.83 236.21
  C 41.07 235.11 40.63 234.00 40.67 233.06
  Q 40.86 228.63 40.25 224.24
  C 40.11 223.21 40.37 222.40 40.34 221.25
  C 40.16 214.05 40.63 206.35 40.39 198.91
  Q 40.01 187.01 40.50 175.09
  Q 40.50 174.98 40.40 174.93
  Q 40.30 174.88 40.14 174.88
  A 0.08 0.08 0.0 0 1 40.07 174.79
  Q 40.42 169.88 40.37 168.50
  Q 40.04 159.45 40.28 154.92
  C 40.40 152.62 40.09 150.50 40.11 148.25
  Q 40.34 118.32 40.37 88.40
  Q 40.37 88.16 40.51 87.98
  Q 40.59 87.86 40.63 87.71
  Q 40.68 87.56 40.58 87.26
  Q 40.34 86.50 40.39 84.50
  Q 40.58 77.74 40.08 52.51
  C 40.05 51.28 40.66 50.03 40.15 48.52
  A 1.65 1.63 -46.5 0 1 40.13 47.55
  C 40.90 44.76 40.31 42.09 40.65 39.18
  Q 40.74 38.41 40.03 38.74
  Q 39.10 39.17 38.76 38.62" stroke="#4d73f4"></path>
<path d="M 34.56 255.73
  Q 34.64 254.10 34.10 252.26
  Q 33.99 251.89 34.19 251.52
  Q 34.38 251.18 34.38 250.79
  L 34.49 215.73" stroke="#4681f8"></path>
<path d="M 34.40 199.74
  L 34.88 199.34
  A 0.04 0.04 0.0 0 1 34.94 199.35
  L 35.05 199.61
  Q 35.06 199.65 35.08 199.61
  C 35.84 197.92 35.00 196.54 34.91 195.16
  C 34.81 193.73 34.42 192.16 34.41 190.83
  C 34.08 143.90 34.00 97.00 34.32 50.07
  C 34.33 48.49 35.41 46.09 33.61 44.53" stroke="#4681f8"></path>
<path d="M 28.78 192.46
  Q 28.75 191.02 28.22 189.57
  Q 27.62 187.95 27.60 186.80
  C 27.28 162.02 27.35 138.10 27.36 115.84
  Q 27.36 110.87 27.36 105.89
  Q 27.35 85.78 27.36 71.77
  Q 27.36 67.82 27.67 63.87
  Q 28.08 58.52 27.78 53.09
  Q 27.78 52.99 27.85 52.94
  Q 27.89 52.91 27.94 52.90
  Q 28.14 52.83 28.15 52.70
  Q 28.22 52.24 27.96 51.96" stroke="#418dfb"></path>
<path d="M 18.55 175.62
  Q 19.81 174.29 19.53 172.16
  Q 19.10 168.96 19.10 168.78
  Q 18.72 128.27 19.15 87.75
  Q 19.22 80.88 19.46 74.00
  Q 19.55 71.62 19.27 69.27
  Q 19.24 69.05 19.05 68.94
  L 18.74 68.77
  Q 18.23 68.48 18.46 69.02
  Q 18.57 69.26 18.58 69.52
  Q 18.61 69.89 18.24 69.96
  Q 17.18 70.16 17.38 71.24
  Q 17.44 71.58 17.69 71.61
  Q 17.99 71.66 17.74 71.84
  Q 17.26 72.19 16.69 71.85" stroke="#3c99fe"></path>
<path d="M 125.12 84.15
  L 125.13 104.51
  Q 125.13 104.91 124.99 105.28
  Q 124.91 105.50 124.91 105.75
  C 124.89 119.47 124.59 133.24 125.22 146.95
  Q 125.49 152.73 125.49 158.84" stroke="#cf21a4"></path>
<path d="M 137.14 89.54
  Q 137.11 100.50 137.13 111.17
  C 137.14 113.00 136.61 115.98 137.13 118.50
  Q 137.23 119.03 137.06 119.55
  Q 136.91 119.98 136.92 120.44
  Q 137.21 132.17 136.99 152.00
  Q 136.97 153.54 138.48 153.37" stroke="#e21f96"></path>
<path d="M 145.62 93.38
  Q 147.28 96.04 146.58 97.19
  Q 146.32 97.63 146.38 98.13
  C 146.54 99.27 147.02 100.09 147.02 101.20
  Q 146.97 125.04 147.02 149.06" stroke="#f31d87"></path>
</g>
<path d="M 118.87 0.00
  L 121.01 0.00
  Q 122.85 0.64 122.15 2.88
  Q 119.95 9.98 118.05 17.26
  Q 117.85 15.14 118.58 13.11
  Q 118.72 12.71 118.53 12.33
  C 118.07 11.44 118.69 10.46 118.15 9.53
  Q 117.90 9.11 117.88 8.62
  L 117.66 0.22
  Q 118.53 0.31 118.87 0.00
  Z" fill="#c622a9"></path>
<path d="M 117.66 0.22
  L 117.88 8.62
  Q 117.90 9.11 118.15 9.53
  C 118.69 10.46 118.07 11.44 118.53 12.33
  Q 118.72 12.71 118.58 13.11
  Q 117.85 15.14 118.05 17.26
  Q 114.60 30.78 110.85 44.30
  Q 106.58 59.68 115.30 73.93
  Q 114.53 73.74 114.23 74.32
  Q 114.08 74.61 114.19 75.28
  C 114.41 76.61 113.82 77.38 113.88 78.55
  Q 114.17 84.32 113.77 90.09
  Q 113.63 92.16 113.83 94.41
  C 114.18 98.31 113.33 102.05 113.37 105.50
  Q 113.43 111.41 113.34 114.74
  Q 112.81 135.00 113.56 155.25
  C 113.63 157.11 114.48 158.73 113.95 160.60
  Q 113.71 161.48 113.80 162.43
  Q 114.03 164.88 113.40 168.24
  Q 113.08 169.94 114.30 170.99
  Q 108.90 180.85 109.69 191.58
  C 110.16 198.03 113.20 206.63 115.04 213.83
  Q 114.00 214.46 114.47 216.68
  Q 114.58 217.23 114.97 217.62
  Q 115.77 218.42 115.25 219.51
  A 1.83 1.79 -36.3 0 0 115.09 220.49
  L 115.43 223.41
  Q 115.48 223.87 115.25 224.28
  Q 114.71 225.22 114.87 226.50
  Q 115.81 233.89 115.75 242.78
  L 103.44 240.95
  Q 103.53 226.53 102.92 212.16
  Q 102.69 206.81 103.01 202.34
  Q 103.35 197.46 103.80 192.57
  Q 103.83 192.24 103.56 192.04
  Q 103.33 191.87 103.34 191.50
  Q 103.42 186.83 103.38 182.17
  C 103.31 174.99 101.48 166.80 101.76 160.01
  C 102.23 148.88 102.19 137.33 101.90 126.20
  Q 101.80 122.64 101.85 119.09
  Q 101.92 113.21 101.84 108.42
  Q 101.75 102.33 101.99 96.24
  Q 102.17 91.54 102.47 86.83
  C 102.60 84.71 102.08 82.57 102.12 80.50
  Q 102.18 77.03 102.49 70.50
  C 102.71 65.96 103.40 59.90 102.99 54.41
  C 102.89 53.13 103.48 52.13 103.39 50.81
  C 103.07 46.18 103.14 40.64 103.13 36.62
  Q 103.09 22.68 103.19 8.74
  Q 103.22 4.26 103.59 2.29
  L 117.66 0.22
  Z" fill="#ae26b8"></path>
<path d="M 103.59 2.29
  Q 103.22 4.26 103.19 8.74
  Q 103.09 22.68 103.13 36.62
  C 103.14 40.64 103.07 46.18 103.39 50.81
  C 103.48 52.13 102.89 53.13 102.99 54.41
  C 103.40 59.90 102.71 65.96 102.49 70.50
  Q 102.18 77.03 102.12 80.50
  C 102.08 82.57 102.60 84.71 102.47 86.83
  Q 102.17 91.54 101.99 96.24
  Q 101.75 102.33 101.84 108.42
  Q 101.92 113.21 101.85 119.09
  Q 101.80 122.64 101.90 126.20
  C 102.19 137.33 102.23 148.88 101.76 160.01
  C 101.48 166.80 103.31 174.99 103.38 182.17
  Q 103.42 186.83 103.34 191.50
  Q 103.33 191.87 103.56 192.04
  Q 103.83 192.24 103.80 192.57
  Q 103.35 197.46 103.01 202.34
  Q 102.69 206.81 102.92 212.16
  Q 103.53 226.53 103.44 240.95
  L 93.14 238.33
  Q 94.73 231.55 94.14 226.49
  Q 93.19 218.24 93.42 214.25
  Q 93.61 210.89 93.20 209.17
  Q 93.09 208.68 93.18 208.18
  C 93.38 207.16 93.16 205.95 93.15 205.21
  C 92.89 186.23 92.43 167.31 92.69 148.25
  C 93.05 121.07 92.37 93.88 93.13 66.71
  Q 93.13 66.65 93.06 66.61
  Q 93.01 66.58 93.01 66.50
  C 93.14 56.83 92.81 47.23 93.64 37.52
  C 94.35 29.10 94.08 20.64 94.38 12.21
  C 94.45 10.31 94.10 8.36 93.91 6.45
  Q 93.88 6.17 93.61 6.12
  Q 93.43 6.09 93.29 5.96
  Q 93.14 5.82 93.12 5.60
  Q 93.10 5.31 92.84 5.43
  Q 92.13 5.77 92.19 5.17
  L 103.59 2.29
  Z" fill="#9a2bc4"></path>
<path d="M 183.61 11.84
  L 182.77 34.99
  Q 169.80 27.00 156.06 22.99
  C 151.28 21.60 147.45 19.37 146.80 14.50
  C 145.73 6.51 152.50 0.49 160.27 2.67
  Q 172.90 6.23 183.61 11.84
  Z" fill="#ff1e72"></path>
<path d="M 92.19 5.17
  Q 92.13 5.77 92.84 5.43
  Q 93.10 5.31 93.12 5.60
  Q 93.14 5.82 93.29 5.96
  Q 93.43 6.09 93.61 6.12
  Q 93.88 6.17 93.91 6.45
  C 94.10 8.36 94.45 10.31 94.38 12.21
  C 94.08 20.64 94.35 29.10 93.64 37.52
  C 92.81 47.23 93.14 56.83 93.01 66.50
  Q 93.01 66.58 93.06 66.61
  Q 93.13 66.65 93.13 66.71
  C 92.37 93.88 93.05 121.07 92.69 148.25
  C 92.43 167.31 92.89 186.23 93.15 205.21
  C 93.16 205.95 93.38 207.16 93.18 208.18
  Q 93.09 208.68 93.20 209.17
  Q 93.61 210.89 93.42 214.25
  Q 93.19 218.24 94.14 226.49
  Q 94.73 231.55 93.14 238.33
  Q 90.42 237.12 86.04 240.54
  Q 84.73 238.80 84.84 236.74
  C 85.02 233.23 85.23 230.04 84.89 226.43
  Q 83.47 211.16 84.29 195.84
  Q 84.37 194.42 84.04 192.19
  C 83.31 187.24 84.21 181.93 83.83 176.98
  C 83.54 173.21 83.66 168.13 83.73 164.91
  Q 83.90 157.21 83.93 149.50
  Q 83.98 138.76 84.45 128.73
  Q 84.45 128.68 84.45 128.63
  Q 84.23 113.81 84.09 99.00
  Q 84.06 95.39 84.29 92.44
  Q 84.34 91.80 84.13 87.98
  C 83.96 84.95 84.35 81.34 83.85 78.25
  C 83.60 76.69 84.16 75.64 84.11 74.40
  C 83.89 68.89 84.13 63.37 84.05 57.87
  Q 83.94 50.17 84.65 42.50
  Q 84.70 41.97 84.53 41.46
  Q 84.39 41.05 84.43 40.61
  L 85.11 32.25
  Q 85.12 32.15 84.97 32.12
  Q 84.91 32.10 84.88 32.07
  Q 84.83 32.03 84.84 31.91
  Q 85.47 20.01 84.09 7.97
  L 92.19 5.17
  Z" fill="#8a30cd"></path>
<path d="M 84.09 7.97
  Q 85.47 20.01 84.84 31.91
  Q 84.83 32.03 84.88 32.07
  Q 84.91 32.10 84.97 32.12
  Q 85.12 32.15 85.11 32.25
  L 84.43 40.61
  Q 84.39 41.05 84.53 41.46
  Q 84.70 41.97 84.65 42.50
  Q 83.94 50.17 84.05 57.87
  C 84.13 63.37 83.89 68.89 84.11 74.40
  C 84.16 75.64 83.60 76.69 83.85 78.25
  C 84.35 81.34 83.96 84.95 84.13 87.98
  Q 84.34 91.80 84.29 92.44
  Q 84.06 95.39 84.09 99.00
  Q 84.23 113.81 84.45 128.63
  Q 84.45 128.68 84.45 128.73
  Q 83.98 138.76 83.93 149.50
  Q 83.90 157.21 83.73 164.91
  C 83.66 168.13 83.54 173.21 83.83 176.98
  C 84.21 181.93 83.31 187.24 84.04 192.19
  Q 84.37 194.42 84.29 195.84
  Q 83.47 211.16 84.89 226.43
  C 85.23 230.04 85.02 233.23 84.84 236.74
  Q 84.73 238.80 86.04 240.54
  Q 77.41 245.33 67.05 249.17
  Q 67.02 236.85 67.12 224.72
  Q 67.20 214.60 67.09 204.74
  Q 66.84 183.37 66.93 162.00
  Q 66.95 158.51 66.71 155.03
  C 66.56 152.73 66.98 150.33 66.85 147.91
  C 66.47 140.56 66.96 133.11 66.81 125.75
  Q 66.60 115.96 66.77 101.32
  C 66.82 96.60 66.59 90.48 66.77 85.05
  C 66.83 83.45 66.48 81.65 66.58 79.91
  C 66.83 75.75 66.79 71.14 66.58 66.99
  C 66.23 60.19 66.73 53.10 66.95 46.28
  C 67.02 43.98 66.86 41.47 67.11 38.50
  Q 67.82 30.20 66.88 18.94
  Q 66.84 18.56 66.60 18.26
  Q 66.26 17.85 66.60 17.52
  Q 66.66 16.85 66.01 16.71
  Q 74.00 11.82 84.09 7.97
  Z" fill="#7739d8"></path>
<path d="M 183.61 11.84
  L 196.47 19.38
  Q 194.86 33.10 196.74 45.76
  Q 190.25 39.82 182.77 34.99
  L 183.61 11.84
  Z" fill="#ff365d"></path>
<path d="M 66.01 16.71
  Q 66.66 16.85 66.60 17.52
  Q 66.26 17.85 66.60 18.26
  Q 66.84 18.56 66.88 18.94
  Q 67.82 30.20 67.11 38.50
  C 66.86 41.47 67.02 43.98 66.95 46.28
  C 66.73 53.10 66.23 60.19 66.58 66.99
  C 66.79 71.14 66.83 75.75 66.58 79.91
  C 66.48 81.65 66.83 83.45 66.77 85.05
  C 66.59 90.48 66.82 96.60 66.77 101.32
  Q 66.60 115.96 66.81 125.75
  C 66.96 133.11 66.47 140.56 66.85 147.91
  C 66.98 150.33 66.56 152.73 66.71 155.03
  Q 66.95 158.51 66.93 162.00
  Q 66.84 183.37 67.09 204.74
  Q 67.20 214.60 67.12 224.72
  Q 67.02 236.85 67.05 249.17
  L 52.06 253.48
  Q 53.35 250.31 53.36 245.00
  Q 53.39 219.25 53.43 193.50
  Q 53.44 183.38 52.97 173.28
  Q 52.90 171.78 53.03 169.23
  C 53.17 166.58 52.79 163.92 53.07 161.34
  Q 53.37 158.63 53.37 157.50
  Q 53.37 144.13 53.39 130.75
  Q 53.45 99.50 53.43 68.25
  Q 53.41 46.73 53.34 25.28
  L 66.01 16.71
  Z" fill="#634ce5"></path>
<path d="M 196.47 19.38
  L 206.49 26.93
  Q 204.47 26.27 204.69 29.56
  C 205.26 37.83 204.27 46.07 205.23 54.34
  L 196.74 45.76
  Q 194.86 33.10 196.47 19.38
  Z" fill="#ff4c52"></path>
<path d="M 53.34 25.28
  Q 53.41 46.73 53.43 68.25
  Q 53.45 99.50 53.39 130.75
  Q 53.37 144.13 53.37 157.50
  Q 53.37 158.63 53.07 161.34
  C 52.79 163.92 53.17 166.58 53.03 169.23
  Q 52.90 171.78 52.97 173.28
  Q 53.44 183.38 53.43 193.50
  Q 53.39 219.25 53.36 245.00
  Q 53.35 250.31 52.06 253.48
  L 48.52 254.18
  Q 48.51 223.89 48.76 193.50
  Q 48.88 178.87 48.63 164.25
  Q 48.62 164.02 48.72 163.84
  Q 48.88 163.56 48.84 163.24
  C 48.37 159.65 48.89 156.28 48.62 152.76
  Q 48.46 150.76 48.46 148.75
  Q 48.46 92.48 48.55 36.21
  Q 48.55 35.28 48.85 33.33
  Q 49.39 29.89 46.86 30.71
  L 53.34 25.28
  Z" fill="#575fed"></path>
<path d="M 206.49 26.93
  Q 215.81 34.60 223.03 43.58
  Q 221.58 43.89 221.67 46.67
  Q 221.73 48.74 221.73 48.82
  Q 221.49 64.38 221.79 80.40
  Q 215.09 65.86 205.23 54.34
  C 204.27 46.07 205.26 37.83 204.69 29.56
  Q 204.47 26.27 206.49 26.93
  Z" fill="#ff7743"></path>
<path d="M 48.52 254.18
  L 39.97 255.43
  L 40.82 236.28
  A 0.23 0.11 71.6 0 1 40.83 236.21
  C 41.07 235.11 40.63 234.00 40.67 233.06
  Q 40.86 228.63 40.25 224.24
  C 40.11 223.21 40.37 222.40 40.34 221.25
  C 40.16 214.05 40.63 206.35 40.39 198.91
  Q 40.01 187.01 40.50 175.09
  Q 40.50 174.98 40.40 174.93
  Q 40.30 174.88 40.14 174.88
  A 0.08 0.08 0.0 0 1 40.07 174.79
  Q 40.42 169.88 40.37 168.50
  Q 40.04 159.45 40.28 154.92
  C 40.40 152.62 40.09 150.50 40.11 148.25
  Q 40.34 118.32 40.37 88.40
  Q 40.37 88.16 40.51 87.98
  Q 40.59 87.86 40.63 87.71
  Q 40.68 87.56 40.58 87.26
  Q 40.34 86.50 40.39 84.50
  Q 40.58 77.74 40.08 52.51
  C 40.05 51.28 40.66 50.03 40.15 48.52
  A 1.65 1.63 -46.5 0 1 40.13 47.55
  C 40.90 44.76 40.31 42.09 40.65 39.18
  Q 40.74 38.41 40.03 38.74
  Q 39.10 39.17 38.76 38.62
  L 46.86 30.71
  Q 49.39 29.89 48.85 33.33
  Q 48.55 35.28 48.55 36.21
  Q 48.46 92.48 48.46 148.75
  Q 48.46 150.76 48.62 152.76
  C 48.89 156.28 48.37 159.65 48.84 163.24
  Q 48.88 163.56 48.72 163.84
  Q 48.62 164.02 48.63 164.25
  Q 48.88 178.87 48.76 193.50
  Q 48.51 223.89 48.52 254.18
  Z" fill="#516af1"></path>
<path d="M 38.76 38.62
  Q 39.10 39.17 40.03 38.74
  Q 40.74 38.41 40.65 39.18
  C 40.31 42.09 40.90 44.76 40.13 47.55
  A 1.65 1.63 -46.5 0 0 40.15 48.52
  C 40.66 50.03 40.05 51.28 40.08 52.51
  Q 40.58 77.74 40.39 84.50
  Q 40.34 86.50 40.58 87.26
  Q 40.68 87.56 40.63 87.71
  Q 40.59 87.86 40.51 87.98
  Q 40.37 88.16 40.37 88.40
  Q 40.34 118.32 40.11 148.25
  C 40.09 150.50 40.40 152.62 40.28 154.92
  Q 40.04 159.45 40.37 168.50
  Q 40.42 169.88 40.07 174.79
  A 0.08 0.08 0.0 0 0 40.14 174.88
  Q 40.30 174.88 40.40 174.93
  Q 40.50 174.98 40.50 175.09
  Q 40.01 187.01 40.39 198.91
  C 40.63 206.35 40.16 214.05 40.34 221.25
  C 40.37 222.40 40.11 223.21 40.25 224.24
  Q 40.86 228.63 40.67 233.06
  C 40.63 234.00 41.07 235.11 40.83 236.21
  A 0.23 0.11 71.6 0 0 40.82 236.28
  L 39.97 255.43
  L 34.56 255.73
  Q 34.64 254.10 34.10 252.26
  Q 33.99 251.89 34.19 251.52
  Q 34.38 251.18 34.38 250.79
  L 34.49 215.73
  Q 36.07 206.89 36.23 203.25
  Q 36.30 201.66 34.40 199.74
  L 34.88 199.34
  A 0.04 0.04 0.0 0 1 34.94 199.35
  L 35.05 199.61
  Q 35.06 199.65 35.08 199.61
  C 35.84 197.92 35.00 196.54 34.91 195.16
  C 34.81 193.73 34.42 192.16 34.41 190.83
  C 34.08 143.90 34.00 97.00 34.32 50.07
  C 34.33 48.49 35.41 46.09 33.61 44.53
  L 38.76 38.62
  Z" fill="#487bf6"></path>
<path d="M 223.03 43.58
  L 229.12 51.67
  Q 227.09 51.70 227.13 53.51
  Q 227.50 73.35 226.63 93.73
  L 221.79 80.40
  Q 221.49 64.38 221.73 48.82
  Q 221.73 48.74 221.67 46.67
  Q 221.58 43.89 223.03 43.58
  Z" fill="#ff863e"></path>
<path d="M 155.01 46.44
  L 154.89 68.86
  Q 150.28 66.51 145.17 64.93
  Q 140.64 63.52 138.92 62.01
  C 131.88 55.85 136.62 43.41 145.99 43.96
  Q 149.47 44.17 155.01 46.44
  Z" fill="#ed1d8d"></path>
<path d="M 33.61 44.53
  C 35.41 46.09 34.33 48.49 34.32 50.07
  C 34.00 97.00 34.08 143.90 34.41 190.83
  C 34.42 192.16 34.81 193.73 34.91 195.16
  C 35.00 196.54 35.84 197.92 35.08 199.61
  Q 35.06 199.65 35.05 199.61
  L 34.94 199.35
  A 0.04 0.04 0.0 0 0 34.88 199.34
  L 34.40 199.74
  L 28.78 192.46
  Q 28.75 191.02 28.22 189.57
  Q 27.62 187.95 27.60 186.80
  C 27.28 162.02 27.35 138.10 27.36 115.84
  Q 27.36 110.87 27.36 105.89
  Q 27.35 85.78 27.36 71.77
  Q 27.36 67.82 27.67 63.87
  Q 28.08 58.52 27.78 53.09
  Q 27.78 52.99 27.85 52.94
  Q 27.89 52.91 27.94 52.90
  Q 28.14 52.83 28.15 52.70
  Q 28.22 52.24 27.96 51.96
  L 33.61 44.53
  Z" fill="#4387f9"></path>
<path d="M 155.01 46.44
  Q 172.43 53.04 183.18 64.21
  L 182.67 98.81
  Q 173.62 78.60 154.89 68.86
  L 155.01 46.44
  Z" fill="#ff1e72"></path>
<path d="M 229.12 51.67
  L 234.52 60.37
  Q 234.26 93.46 234.36 125.58
  Q 234.36 125.94 234.02 129.39
  Q 233.88 130.89 233.88 133.25
  Q 233.86 154.45 233.87 175.66
  C 233.88 178.27 233.10 180.90 233.19 183.57
  Q 233.20 184.01 233.63 183.92
  L 234.10 183.82
  L 228.31 192.79
  L 228.14 192.43
  Q 227.96 192.02 227.52 192.12
  Q 227.36 192.15 227.21 192.11
  Q 226.66 191.95 226.84 191.41
  C 227.25 190.15 227.61 188.99 227.61 187.63
  Q 227.67 175.35 227.60 163.08
  Q 227.58 159.51 227.80 153.41
  Q 227.98 148.60 227.93 143.74
  Q 233.16 118.47 226.63 93.73
  Q 227.50 73.35 227.13 53.51
  Q 227.09 51.70 229.12 51.67
  Z" fill="#ff9e37"></path>
<path d="M 27.96 51.96
  Q 28.22 52.24 28.15 52.70
  Q 28.14 52.83 27.94 52.90
  Q 27.89 52.91 27.85 52.94
  Q 27.78 52.99 27.78 53.09
  Q 28.08 58.52 27.67 63.87
  Q 27.36 67.82 27.36 71.77
  Q 27.35 85.78 27.36 105.89
  Q 27.36 110.87 27.36 115.84
  C 27.35 138.10 27.28 162.02 27.60 186.80
  Q 27.62 187.95 28.22 189.57
  Q 28.75 191.02 28.78 192.46
  Q 22.87 184.24 18.55 175.62
  Q 19.81 174.29 19.53 172.16
  Q 19.10 168.96 19.10 168.78
  Q 18.72 128.27 19.15 87.75
  Q 19.22 80.88 19.46 74.00
  Q 19.55 71.62 19.27 69.27
  Q 19.24 69.05 19.05 68.94
  L 18.74 68.77
  Q 18.23 68.48 18.46 69.02
  Q 18.57 69.26 18.58 69.52
  Q 18.61 69.89 18.24 69.96
  Q 17.18 70.16 17.38 71.24
  Q 17.44 71.58 17.69 71.61
  Q 17.99 71.66 17.74 71.84
  Q 17.26 72.19 16.69 71.85
  Q 21.32 61.39 27.96 51.96
  Z" fill="#3e93fc"></path>
<path d="M 234.52 60.37
  C 256.70 99.06 256.33 145.48 234.10 183.82
  L 233.63 183.92
  Q 233.20 184.01 233.19 183.57
  C 233.10 180.90 233.88 178.27 233.87 175.66
  Q 233.86 154.45 233.88 133.25
  Q 233.88 130.89 234.02 129.39
  Q 234.36 125.94 234.36 125.58
  Q 234.26 93.46 234.52 60.37
  Z" fill="#ffac33"></path>
<path d="M 183.18 64.21
  L 192.17 74.23
  L 192.30 168.52
  Q 189.15 173.72 182.46 179.84
  Q 181.87 167.25 182.18 155.27
  C 182.24 152.65 182.81 149.29 182.78 146.24
  Q 182.78 145.73 183.10 145.40
  Q 183.42 145.08 183.28 144.65
  Q 183.00 143.80 183.20 142.96
  Q 191.13 120.55 182.67 98.81
  L 183.18 64.21
  Z" fill="#ff365d"></path>
<path d="M 18.55 175.62
  C 2.82 142.39 1.52 105.65 16.69 71.85
  Q 17.26 72.19 17.74 71.84
  Q 17.99 71.66 17.69 71.61
  Q 17.44 71.58 17.38 71.24
  Q 17.18 70.16 18.24 69.96
  Q 18.61 69.89 18.58 69.52
  Q 18.57 69.26 18.46 69.02
  Q 18.23 68.48 18.74 68.77
  L 19.05 68.94
  Q 19.24 69.05 19.27 69.27
  Q 19.55 71.62 19.46 74.00
  Q 19.22 80.88 19.15 87.75
  Q 18.72 128.27 19.10 168.78
  Q 19.10 168.96 19.53 172.16
  Q 19.81 174.29 18.55 175.62
  Z" fill="#399eff"></path>
<path d="M 115.30 73.93
  Q 119.42 80.05 125.12 84.15
  L 125.13 104.51
  Q 125.13 104.91 124.99 105.28
  Q 124.91 105.50 124.91 105.75
  C 124.89 119.47 124.59 133.24 125.22 146.95
  Q 125.49 152.73 125.49 158.84
  Q 118.99 163.35 114.30 170.99
  Q 113.08 169.94 113.40 168.24
  Q 114.03 164.88 113.80 162.43
  Q 113.71 161.48 113.95 160.60
  C 114.48 158.73 113.63 157.11 113.56 155.25
  Q 112.81 135.00 113.34 114.74
  Q 113.43 111.41 113.37 105.50
  C 113.33 102.05 114.18 98.31 113.83 94.41
  Q 113.63 92.16 113.77 90.09
  Q 114.17 84.32 113.88 78.55
  C 113.82 77.38 114.41 76.61 114.19 75.28
  Q 114.08 74.61 114.23 74.32
  Q 114.53 73.74 115.30 73.93
  Z" fill="#c622a9"></path>
<path d="M 192.17 74.23
  C 212.22 102.51 213.57 140.00 192.30 168.52
  L 192.17 74.23
  Z" fill="#ff4c52"></path>
<path d="M 125.12 84.15
  Q 131.19 88.05 137.14 89.54
  Q 137.11 100.50 137.13 111.17
  C 137.14 113.00 136.61 115.98 137.13 118.50
  Q 137.23 119.03 137.06 119.55
  Q 136.91 119.98 136.92 120.44
  Q 137.21 132.17 136.99 152.00
  Q 136.97 153.54 138.48 153.37
  L 125.49 158.84
  Q 125.49 152.73 125.22 146.95
  C 124.59 133.24 124.89 119.47 124.91 105.75
  Q 124.91 105.50 124.99 105.28
  Q 125.13 104.91 125.13 104.51
  L 125.12 84.15
  Z" fill="#d7209e"></path>
<path d="M 137.14 89.54
  Q 142.35 91.10 145.62 93.38
  Q 147.28 96.04 146.58 97.19
  Q 146.32 97.63 146.38 98.13
  C 146.54 99.27 147.02 100.09 147.02 101.20
  Q 146.97 125.04 147.02 149.06
  L 138.48 153.37
  Q 136.97 153.54 136.99 152.00
  Q 137.21 132.17 136.92 120.44
  Q 136.91 119.98 137.06 119.55
  Q 137.23 119.03 137.13 118.50
  C 136.61 115.98 137.14 113.00 137.13 111.17
  Q 137.11 100.50 137.14 89.54
  Z" fill="#ed1d8d"></path>
<path d="M 145.62 93.38
  C 166.12 106.74 166.14 134.57 147.02 149.06
  Q 146.97 125.04 147.02 101.20
  C 147.02 100.09 146.54 99.27 146.38 98.13
  Q 146.32 97.63 146.58 97.19
  Q 147.28 96.04 145.62 93.38
  Z" fill="#f91c81"></path>
<path d="M 183.20 142.96
  Q 183.00 143.80 183.28 144.65
  Q 183.42 145.08 183.10 145.40
  Q 182.78 145.73 182.78 146.24
  C 182.81 149.29 182.24 152.65 182.18 155.27
  Q 181.87 167.25 182.46 179.84
  Q 169.69 192.26 151.47 198.01
  Q 149.99 194.16 150.11 190.06
  C 150.27 184.92 150.07 181.81 150.12 177.61
  Q 150.12 177.11 149.62 177.18
  L 148.23 177.40
  Q 173.07 167.76 183.20 142.96
  Z" fill="#ff1e72"></path>
<path d="M 227.93 143.74
  Q 227.98 148.60 227.80 153.41
  Q 227.58 159.51 227.60 163.08
  Q 227.67 175.35 227.61 187.63
  C 227.61 188.99 227.25 190.15 226.84 191.41
  Q 226.66 191.95 227.21 192.11
  Q 227.36 192.15 227.52 192.12
  Q 227.96 192.02 228.14 192.43
  L 228.31 192.79
  Q 220.74 203.59 210.81 212.62
  L 211.36 183.72
  Q 211.37 183.33 211.48 182.96
  Q 211.74 182.12 211.33 181.17
  Q 223.31 164.23 227.93 143.74
  Z" fill="#ff863e"></path>
<path d="M 148.23 177.40
  L 149.62 177.18
  Q 150.12 177.11 150.12 177.61
  C 150.07 181.81 150.27 184.92 150.11 190.06
  Q 149.99 194.16 151.47 198.01
  C 142.33 202.03 132.31 194.80 136.28 184.80
  C 138.16 180.05 142.88 178.95 148.23 177.40
  Z" fill="#ed1d8d"></path>
<path d="M 211.33 181.17
  Q 211.74 182.12 211.48 182.96
  Q 211.37 183.33 211.36 183.72
  L 210.81 212.62
  L 206.13 216.64
  L 205.91 196.34
  Q 205.91 196.25 205.97 196.18
  Q 206.06 196.08 206.16 195.98
  Q 206.35 195.79 206.36 195.53
  L 206.69 187.22
  L 211.33 181.17
  Z" fill="#ff7743"></path>
<path d="M 206.69 187.22
  L 206.36 195.53
  Q 206.35 195.79 206.16 195.98
  Q 206.06 196.08 205.97 196.18
  Q 205.91 196.25 205.91 196.34
  L 206.13 216.64
  Q 198.07 223.51 187.81 229.25
  L 187.66 227.37
  Q 187.62 226.94 187.79 226.55
  Q 188.28 225.44 187.87 224.42
  Q 187.79 224.22 187.98 224.13
  Q 188.11 224.07 188.24 224.00
  Q 188.41 223.92 188.41 223.74
  L 188.52 204.35
  Q 198.53 196.88 206.69 187.22
  Z" fill="#ff4c52"></path>
<path d="M 188.52 204.35
  L 188.41 223.74
  Q 188.41 223.92 188.24 224.00
  Q 188.11 224.07 187.98 224.13
  Q 187.79 224.22 187.87 224.42
  Q 188.28 225.44 187.79 226.55
  Q 187.62 226.94 187.66 227.37
  L 187.81 229.25
  Q 179.72 233.78 171.03 237.02
  Q 171.51 236.22 171.17 235.61
  Q 170.95 235.23 171.06 234.80
  Q 171.28 233.96 171.07 233.12
  Q 170.96 232.65 170.96 232.17
  L 171.07 214.67
  Q 180.15 210.40 188.52 204.35
  Z" fill="#ff365d"></path>
<path d="M 115.04 213.83
  L 122.28 241.29
  A 1.54 1.53 -4.9 0 1 120.66 243.21
  L 115.75 242.78
  Q 115.81 233.89 114.87 226.50
  Q 114.71 225.22 115.25 224.28
  Q 115.48 223.87 115.43 223.41
  L 115.09 220.49
  A 1.83 1.79 -36.3 0 1 115.25 219.51
  Q 115.77 218.42 114.97 217.62
  Q 114.58 217.23 114.47 216.68
  Q 114.00 214.46 115.04 213.83
  Z" fill="#c622a9"></path>
<path d="M 171.07 214.67
  L 170.96 232.17
  Q 170.96 232.65 171.07 233.12
  Q 171.28 233.96 171.06 234.80
  Q 170.95 235.23 171.17 235.61
  Q 171.51 236.22 171.03 237.02
  Q 165.51 239.13 159.74 240.62
  C 152.30 242.55 145.57 236.46 146.77 229.01
  C 147.64 223.60 151.30 221.70 156.58 220.12
  Q 163.96 217.91 171.07 214.67
  Z" fill="#ff1e72"></path>
<path d="M 34.49 215.73
  L 34.38 250.79
  Q 34.38 251.18 34.19 251.52
  Q 33.99 251.89 34.10 252.26
  Q 34.64 254.10 34.56 255.73
  Q 34.00 255.78 33.88 256.00
  L 24.01 256.00
  Q 19.30 255.59 14.63 255.12
  C 12.49 254.90 12.56 252.91 13.81 251.62
  Q 28.31 236.51 34.49 215.73
  Z" fill="#4387f9"></path>
</svg>
