<svg viewBox="0.00 0.00 192.00 192.00" version="1.1" xmlns="http://www.w3.org/2000/svg">
<g stroke-linecap="butt" fill="none" stroke-width="2.00">
<path d="M 76.07 0.00
  L 74.28 0.30" stroke="#a0a2ce"></path>
<path d="M 74.28 0.30
  L 72.05 0.35" stroke="#f1c7ac"></path>
<path d="M 72.05 0.35
  Q 62.92 0.45 56.57 3.13" stroke="#a9acd3"></path>
<path d="M 56.57 3.13
  Q 52.71 3.02 49.75 4.73" stroke="#f1c7ac"></path>
<path d="M 49.75 4.73
  C 21.37 13.75 1.84 37.60 2.27 68.06" stroke="#a0a2ce"></path>
<path d="M 2.27 68.06
  L 0.00 83.50" stroke="#dbbcae"></path>
<path d="M 80.80 0.00
  C 119.33 2.14 155.25 25.79 158.30 67.00
  Q 158.79 73.61 157.80 80.84" stroke="#a0a2ce"></path>
<path d="M 157.80 80.84
  L 143.40 69.53" stroke="#92697b"></path>
<path d="M 143.40 69.53
  Q 131.11 60.16 117.21 55.34" stroke="#695278"></path>
<path d="M 117.21 55.34
  L 100.32 50.00" stroke="#9e839a"></path>
<path d="M 100.32 50.00
  L 101.25 43.65" stroke="#92697b"></path>
<path d="M 101.25 43.65
  Q 115.79 46.76 129.44 52.13
  C 143.05 57.48 148.24 49.64 141.62 37.62
  C 131.78 19.73 111.67 7.75 92.26 3.47
  Q 85.91 2.07 82.22 2.97" stroke="#4a4ea2"></path>
<path d="M 82.22 2.97
  Q 78.86 1.34 74.65 0.84
  Q 74.41 0.81 74.36 0.57
  Q 74.34 0.43 74.28 0.30" stroke="#92697b"></path>
<path d="M 0.00 88.66
  Q 1.67 115.55 19.63 133.79
  C 40.90 155.39 78.10 162.73 105.56 149.32" stroke="#dbbcae"></path>
<path d="M 105.56 149.32
  Q 112.77 145.93 119.09 140.92
  Q 119.51 140.58 119.85 141.01
  C 121.85 143.49 127.26 138.61 128.44 137.21
  A 0.63 0.62 72.3 0 1 129.52 137.77
  Q 129.26 138.77 129.91 139.72
  C 131.97 142.74 135.42 139.48 136.95 137.94" stroke="#c8b0a9"></path>
<path d="M 136.95 137.94
  Q 149.03 145.46 162.99 145.40
  C 176.35 145.34 190.62 137.76 191.80 123.02
  C 192.66 112.21 187.31 101.32 179.63 93.86
  Q 170.30 84.80 157.80 80.84" stroke="#f1c7ac"></path>
<path d="M 72.05 0.35
  Q 72.25 0.46 72.47 0.91
  Q 72.70 1.36 73.20 1.47
  C 94.42 5.91 101.46 23.15 99.99 43.23" stroke="#9b7380"></path>
<path d="M 99.99 43.23
  Q 86.41 41.06 73.00 40.43
  Q 71.52 40.37 71.47 39.34" stroke="#4a4ea2"></path>
<path d="M 71.47 39.34
  Q 71.94 39.16 71.96 38.75
  C 73.08 20.74 62.44 12.43 45.66 18.69
  C 35.32 22.55 27.16 32.32 26.34 44.35
  A 0.53 0.53 0.0 0 0 27.04 44.89
  Q 47.39 37.93 69.10 39.29" stroke="#9b7380"></path>
<path d="M 69.10 39.29
  Q 65.44 40.29 61.49 39.77
  C 60.89 39.69 59.70 40.31 58.80 40.30
  C 54.70 40.26 50.25 41.19 46.71 41.54
  Q 40.78 42.12 34.99 43.57
  Q 33.95 43.84 32.87 43.94
  A 0.47 0.46 9.0 0 0 32.50 44.20
  Q 32.18 44.87 30.67 44.41
  A 1.55 1.53 -63.5 0 0 28.96 44.99
  Q 28.27 45.95 27.10 45.62
  Q 26.59 45.48 26.15 45.77
  Q 24.38 46.93 22.25 46.31" stroke="#4a4ea2"></path>
<path d="M 22.25 46.31
  Q 26.36 15.86 56.57 3.13" stroke="#9b7380"></path>
<path d="M 82.22 2.97
  C 97.79 11.34 102.90 26.98 101.25 43.65" stroke="#9b7380"></path>
<path d="M 100.32 50.00
  Q 99.67 49.89 99.42 49.99" stroke="#efa878"></path>
<path d="M 99.42 49.99
  L 99.99 43.23" stroke="#92697b"></path>
<path d="M 22.25 46.31
  L 21.95 53.44
  A 0.63 0.62 -88.1 0 1 21.32 54.04
  L 20.98 54.04
  Q 20.80 54.03 20.80 53.85
  L 20.97 47.33" stroke="#92697b"></path>
<path d="M 20.97 47.33
  Q 22.83 26.66 39.39 11.64" stroke="#9b7380"></path>
<path d="M 39.39 11.64
  L 49.75 4.73" stroke="#92697b"></path>
<path d="M 39.39 11.64
  Q 29.32 15.12 20.72 24.02
  Q 13.99 31.00 11.04 41.79
  C 8.85 49.80 16.46 48.43 20.97 47.33" stroke="#4a4ea2"></path>
<path d="M 69.10 39.29
  L 71.47 39.34" stroke="#92697b"></path>
<path d="M 99.42 49.99
  C 68.56 42.67 26.46 42.48 2.93 67.96" stroke="#9e839a"></path>
<path d="M 2.93 67.96
  Q 2.97 68.24 2.27 68.06" stroke="#7c5f7d"></path>
<path d="M 117.21 55.34
  C 117.18 58.12 117.26 61.55 118.73 63.71
  A 0.98 0.97 62.2 0 0 119.89 64.08
  Q 120.69 63.77 121.25 63.20
  Q 121.78 62.65 121.84 63.42
  Q 122.22 68.47 119.01 72.04
  C 117.86 73.32 116.00 74.26 114.55 75.41
  A 0.83 0.83 0.0 0 0 114.81 76.85
  L 117.47 77.73" stroke="#c69175"></path>
<path d="M 117.47 77.73
  Q 112.65 80.78 107.46 77.85
  A 0.79 0.79 0.0 0 1 107.48 76.47
  Q 113.66 73.15 115.10 66.23
  Q 115.20 65.76 114.77 65.55
  C 111.22 63.90 111.23 59.44 111.59 56.13
  A 1.23 1.21 -79.5 0 0 110.70 54.82
  Q 92.68 49.86 74.07 48.21
  C 51.51 46.22 24.55 50.55 7.32 66.57
  C 6.02 67.78 5.06 68.83 4.85 70.73
  Q 2.94 88.12 7.56 104.49
  C 15.47 132.53 36.65 149.59 65.36 151.77
  C 80.77 152.94 100.30 151.17 110.03 137.01
  Q 110.30 136.62 110.12 136.18
  Q 108.92 133.25 111.25 131.64
  Q 111.72 131.32 112.27 131.25
  L 113.47 131.10
  A 0.44 0.44 0.0 0 0 113.74 130.36
  Q 110.03 126.33 109.96 123.26
  C 109.82 116.93 118.20 120.32 121.02 121.80
  Q 121.37 121.98 121.71 121.79
  L 130.13 117.16
  Q 131.63 116.34 132.28 117.92
  Q 133.49 120.84 136.71 120.77
  C 142.42 120.65 144.56 115.29 146.10 110.81
  Q 146.17 110.62 145.98 110.54
  L 145.67 110.42
  Q 145.38 110.30 145.23 110.58
  Q 142.79 115.41 138.99 116.24
  Q 135.84 116.92 135.78 113.39" stroke="#fccba8"></path>
<path d="M 135.78 113.39
  Q 135.75 109.62 137.67 108.75
  Q 138.17 108.52 138.64 108.79
  Q 139.51 109.30 140.16 110.05
  Q 141.11 111.13 140.66 109.77
  Q 139.89 107.43 137.50 107.65
  Q 137.01 107.70 137.22 107.25
  C 138.93 103.61 143.64 104.66 145.02 108.09
  Q 145.26 108.70 145.45 108.07
  Q 145.55 107.74 145.42 107.27" stroke="#c69175"></path>
<path d="M 145.42 107.27
  Q 146.14 107.30 146.45 106.73
  Q 146.67 106.32 146.48 105.73
  C 146.25 105.02 145.97 104.80 145.87 104.04
  Q 145.13 98.62 138.42 96.59" stroke="#fccba8"></path>
<path d="M 138.42 96.59
  Q 142.41 95.29 144.87 97.87
  C 149.85 103.11 148.33 113.28 145.53 119.03
  C 143.59 123.00 138.64 127.72 134.31 124.43
  Q 133.90 124.11 133.48 124.43
  C 129.21 127.70 123.03 126.85 118.58 124.43
  A 2.07 2.06 33.2 0 0 115.98 124.97
  C 113.32 128.36 119.11 132.55 121.74 132.90
  Q 124.44 133.26 121.86 134.11
  C 119.02 135.05 115.21 134.73 113.77 138.06
  Q 113.58 138.50 113.72 138.96
  Q 114.29 140.81 116.27 140.94
  Q 117.20 141.00 116.44 141.55
  Q 110.85 145.64 104.53 148.51" stroke="#c69175"></path>
<path d="M 104.53 148.51
  C 85.77 157.17 65.01 156.42 45.92 149.25
  C 12.59 136.72 -4.06 104.77 2.84 69.72
  Q 2.99 68.96 2.93 67.96" stroke="#d99d7a"></path>
<path d="M 117.47 77.73
  L 119.25 77.69" stroke="#c79b86"></path>
<path d="M 119.25 77.69
  Q 115.61 83.92 116.88 90.30
  Q 117.42 93.04 120.06 94.98
  A 0.99 0.98 17.6 0 1 120.47 95.76
  C 120.55 99.51 120.19 101.87 122.61 105.14
  A 1.18 1.18 0.0 0 0 124.05 105.51
  Q 126.04 104.60 126.13 102.70" stroke="#fccba8"></path>
<path d="M 126.13 102.70
  L 129.36 99.23
  Q 130.61 97.89 130.25 99.69
  Q 130.13 100.29 129.96 101.74
  Q 129.85 102.68 130.88 102.72
  Q 131.35 102.73 131.65 102.38
  Q 133.21 100.56 134.76 98.78
  Q 136.20 97.12 138.42 96.59" stroke="#c79b86"></path>
<path d="M 145.42 107.27
  C 143.98 103.73 140.50 102.51 137.55 105.15
  Q 134.52 107.86 135.78 113.39" stroke="#c79b86"></path>
<path d="M 55.2280 63.7169
  A 17.32 17.28 -35.4 0 0 31.1000 59.6646
  A 17.32 17.28 -35.4 0 0 26.9920 83.7831
  A 17.32 17.28 -35.4 0 0 51.1200 87.8354
  A 17.32 17.28 -35.4 0 0 55.2280 63.7169" stroke="#feeadc"></path>
<path d="M 99.78 78.04
  A 19.02 19.02 0.0 0 0 80.76 59.02
  A 19.02 19.02 0.0 0 0 61.74 78.04
  A 19.02 19.02 0.0 0 0 80.76 97.06
  A 19.02 19.02 0.0 0 0 99.78 78.04" stroke="#feeadc"></path>
<path d="M 95.90 113.05
  Q 92.39 115.73 89.16 118.36
  Q 84.87 121.86 82.18 123.31
  Q 65.82 132.14 46.01 125.79" stroke="#fccba8"></path>
<path d="M 46.01 125.79
  Q 41.10 124.39 35.72 120.19" stroke="#9d7a65"></path>
<path d="M 35.72 120.19
  L 32.77 118.16
  Q 31.23 117.10 32.51 118.46
  Q 33.46 119.46 34.96 120.53" stroke="#daa78b"></path>
<path d="M 34.96 120.53
  Q 44.81 128.11 55.63 133.68" stroke="#9d7a65"></path>
<path d="M 55.63 133.68
  Q 57.01 136.34 60.91 136.71
  Q 61.39 136.76 61.75 137.08
  Q 63.28 138.45 65.34 138.47
  Q 65.86 138.48 66.31 138.75
  Q 68.54 140.14 71.16 140.15
  Q 71.68 140.15 72.07 140.48
  Q 72.41 140.76 73.01 140.91
  C 82.54 143.23 103.82 149.17 104.73 132.79
  Q 104.79 131.75 103.90 130.73
  A 1.20 1.16 -63.8 0 1 103.61 129.83
  Q 103.74 128.59 103.22 127.68" stroke="#fccba8"></path>
<path d="M 103.22 127.68
  L 100.04 109.82
  Q 99.97 109.44 100.10 109.07
  Q 100.19 108.83 100.18 108.56
  Q 100.14 107.81 99.67 108.39
  L 95.90 113.05" stroke="#9d7a65"></path>
<path d="M 103.22 127.68
  Q 103.28 129.63 103.27 131.56
  C 103.25 137.82 99.07 141.64 92.74 141.71
  C 79.96 141.85 66.44 139.18 55.63 133.68" stroke="#9c7055"></path>
<path d="M 34.96 120.53
  L 35.72 120.19" stroke="#7a4c38"></path>
<path d="M 46.01 125.79
  Q 49.81 128.59 53.80 129.18" stroke="#9c7055"></path>
<path d="M 53.80 129.18
  C 57.55 132.93 61.92 136.42 66.62 135.16
  Q 76.71 132.45 84.12 124.97" stroke="#9e8f89"></path>
<path d="M 84.12 124.97
  Q 91.00 120.28 95.90 113.05" stroke="#9c7055"></path>
<path d="M 84.12 124.97
  Q 69.25 130.93 53.80 129.18" stroke="#fde0cb"></path>
<path d="M 143.40 69.53
  Q 134.99 64.58 132.01 63.07
  Q 125.72 59.90 119.27 57.05
  A 0.70 0.70 0.0 0 0 118.29 57.78
  L 118.80 62.07
  A 0.92 0.92 0.0 0 0 120.35 62.62
  L 121.73 61.26
  Q 122.64 60.38 122.82 61.63
  Q 124.16 70.68 116.50 75.26
  Q 115.42 75.90 116.65 76.17
  Q 121.36 77.18 125.33 74.04
  Q 125.47 73.93 125.62 73.92
  Q 125.89 73.89 125.96 73.93
  A 0.70 0.70 0.0 0 1 126.14 74.91
  C 122.64 80.00 120.38 86.16 121.89 92.48
  A 0.79 0.79 0.0 0 0 123.33 92.72
  L 126.28 88.07
  Q 126.44 87.82 126.70 87.68
  Q 127.07 87.48 127.35 87.66
  A 0.46 0.46 0.0 0 1 127.50 88.28
  C 125.64 91.49 123.98 97.16 125.61 100.73
  A 0.69 0.69 0.0 0 0 126.82 100.82
  Q 128.59 98.07 131.33 96.26
  A 0.79 0.79 0.0 0 1 132.49 97.23
  L 131.10 100.52
  Q 131.06 100.61 131.14 100.66
  L 131.42 100.82
  Q 131.59 100.91 131.71 100.75
  C 135.30 95.73 141.46 92.19 146.37 98.02
  Q 148.04 100.01 148.61 102.43
  Q 151.63 115.37 142.37 124.84
  Q 138.76 128.53 133.85 126.33
  Q 133.37 126.12 132.93 126.38
  C 128.63 128.98 122.66 128.54 118.65 126.29
  Q 115.71 124.64 116.96 127.78
  Q 118.94 132.76 123.88 132.22
  Q 127.61 131.82 124.54 133.97
  Q 120.80 136.58 115.99 137.12
  Q 114.76 137.26 114.85 138.69
  Q 114.88 139.21 115.36 139.41
  Q 117.60 140.33 119.60 139.09
  A 0.57 0.56 -26.2 0 1 120.43 139.37
  Q 120.64 139.90 121.05 140.31
  Q 121.45 140.71 121.96 140.46
  Q 126.19 138.37 129.38 134.88
  A 0.57 0.56 -25.6 0 1 130.36 135.22
  L 130.55 138.19
  A 1.69 1.68 74.2 0 0 133.02 139.57
  Q 136.95 137.47 138.09 133.27
  Q 138.90 130.26 139.57 133.21
  Q 140.04 135.30 143.36 136.79" stroke="#ba7756"></path>
<path d="M 143.36 136.79
  Q 141.10 137.98 139.80 135.38
  A 0.95 0.94 -33.6 0 0 138.34 135.09
  Q 137.37 135.93 137.86 137.01" stroke="#725c7d"></path>
<path d="M 137.86 137.01
  Q 137.09 137.15 136.95 137.94" stroke="#ba7756"></path>
<path d="M 105.56 149.32
  Q 105.34 149.19 105.04 149.19
  Q 104.66 149.20 104.58 148.83
  Q 104.55 148.70 104.53 148.51" stroke="#a46d58"></path>
<path d="M 126.13 102.70
  Q 123.11 99.95 124.21 94.75
  Q 124.33 94.17 123.74 94.29
  Q 121.22 94.81 120.74 92.23
  Q 119.22 83.98 123.48 77.53
  Q 124.91 75.37 122.69 76.68
  Q 121.36 77.48 119.25 77.69" stroke="#c69175"></path>
<path d="M 56.75 69.88
  A 9.13 9.13 0.0 0 0 47.62 60.75
  A 9.13 9.13 0.0 0 0 38.49 69.88
  A 9.13 9.13 0.0 0 0 47.62 79.01
  A 9.13 9.13 0.0 0 0 56.75 69.88" stroke="#9e8f89"></path>
<path d="M 137.86 137.01
  Q 146.24 142.21 156.00 143.80
  C 168.95 145.91 186.68 140.93 190.30 126.34
  C 191.67 120.82 190.63 115.04 188.73 109.68
  C 184.58 97.95 173.44 88.48 162.19 83.73
  Q 161.59 83.48 160.69 82.79
  Q 159.79 82.09 158.94 82.17
  Q 157.38 82.32 158.62 83.28
  Q 160.11 84.44 159.70 85.48
  Q 159.56 85.86 159.76 86.21
  C 162.79 91.38 165.94 95.59 171.92 95.45
  A 0.43 0.43 0.0 0 1 172.22 96.20
  Q 168.90 99.21 164.36 98.77" stroke="#9b7380"></path>
<path d="M 164.36 98.77
  Q 163.27 97.95 162.49 98.10
  A 0.47 0.46 72.0 0 0 162.16 98.76
  Q 165.54 105.99 161.60 112.77
  A 1.82 1.81 -45.7 0 1 158.48 112.81
  Q 157.94 111.94 157.31 111.73
  Q 156.19 111.36 156.45 112.51
  Q 158.01 119.47 164.09 122.97
  Q 166.83 124.54 163.78 125.40
  Q 159.32 126.65 152.76 125.28" stroke="#ba7756"></path>
<path d="M 152.76 125.28
  Q 152.43 124.76 151.74 124.63
  Q 151.24 124.54 151.36 125.04
  Q 151.66 126.29 152.62 127.13
  A 0.90 0.90 0.0 0 1 152.90 128.02
  Q 152.51 129.72 152.82 131.45
  A 1.13 1.11 56.8 0 1 152.66 132.26
  Q 151.43 134.16 149.86 132.30" stroke="#9b7380"></path>
<path d="M 149.86 132.30
  Q 148.75 130.76 147.61 129.41
  Q 147.49 129.27 147.36 129.24
  Q 147.18 129.20 147.05 129.27
  Q 146.75 129.41 146.89 129.71
  Q 148.88 134.05 144.63 136.73" stroke="#ba7756"></path>
<path d="M 144.63 136.73
  Q 143.79 136.65 143.36 136.79" stroke="#9b7380"></path>
<path d="M 97.93 73.79
  A 10.04 10.04 0.0 0 0 87.89 63.75
  A 10.04 10.04 0.0 0 0 77.85 73.79
  A 10.04 10.04 0.0 0 0 87.89 83.83
  A 10.04 10.04 0.0 0 0 97.93 73.79" stroke="#9e8f89"></path>
<path d="M 50.52 64.57
  A 2.92 2.92 0.0 0 0 47.60 61.65
  A 2.92 2.92 0.0 0 0 44.68 64.57
  A 2.92 2.92 0.0 0 0 47.60 67.49
  A 2.92 2.92 0.0 0 0 50.52 64.57" stroke="#9e8f89"></path>
<path d="M 90.82 68.44
  A 2.92 2.92 0.0 0 0 87.90 65.52
  A 2.92 2.92 0.0 0 0 84.98 68.44
  A 2.92 2.92 0.0 0 0 87.90 71.36
  A 2.92 2.92 0.0 0 0 90.82 68.44" stroke="#9e8f89"></path>
<path d="M 144.63 136.73
  C 146.85 137.39 148.17 134.97 147.87 133.04
  Q 147.80 132.54 148.26 132.32
  Q 148.90 132.00 149.86 132.30" stroke="#725c7d"></path>
<path d="M 152.76 125.28
  Q 157.02 128.18 162.49 126.84
  Q 164.75 126.29 166.25 124.75
  A 1.00 0.99 38.2 0 0 166.06 123.21
  Q 161.07 120.10 158.19 115.01
  Q 157.37 113.55 158.95 114.10
  C 164.81 116.12 165.62 103.03 163.53 100.00
  Q 163.25 99.59 163.54 99.19
  Q 163.78 98.87 164.36 98.77" stroke="#725c7d"></path>
<path d="M 92.86 127.07
  L 92.70 126.48
  A 1.14 1.14 0.0 0 0 90.72 126.04
  C 88.60 128.54 86.39 134.82 90.91 136.17
  A 2.06 2.06 0.0 0 0 93.40 135.00
  L 96.21 128.44
  A 1.08 1.08 0.0 0 0 95.07 126.94
  Q 94.35 127.04 93.68 127.42
  Q 93.05 127.79 92.86 127.07" stroke="#9a5f52"></path>
</g>
<path d="M 0.00 0.00
  L 76.07 0.00
  L 74.28 0.30
  L 72.05 0.35
  Q 62.92 0.45 56.57 3.13
  Q 52.71 3.02 49.75 4.73
  C 21.37 13.75 1.84 37.60 2.27 68.06
  L 0.00 83.50
  L 0.00 0.00
  Z" fill="#ffffff"></path>
<path d="M 76.07 0.00
  L 80.80 0.00
  C 119.33 2.14 155.25 25.79 158.30 67.00
  Q 158.79 73.61 157.80 80.84
  L 143.40 69.53
  Q 131.11 60.16 117.21 55.34
  L 100.32 50.00
  L 101.25 43.65
  Q 115.79 46.76 129.44 52.13
  C 143.05 57.48 148.24 49.64 141.62 37.62
  C 131.78 19.73 111.67 7.75 92.26 3.47
  Q 85.91 2.07 82.22 2.97
  Q 78.86 1.34 74.65 0.84
  Q 74.41 0.81 74.36 0.57
  Q 74.34 0.43 74.28 0.30
  L 76.07 0.00
  Z" fill="#40449c"></path>
<path d="M 80.80 0.00
  L 192.00 0.00
  L 192.00 192.00
  L 0.00 192.00
  L 0.00 88.66
  Q 1.67 115.55 19.63 133.79
  C 40.90 155.39 78.10 162.73 105.56 149.32
  Q 112.77 145.93 119.09 140.92
  Q 119.51 140.58 119.85 141.01
  C 121.85 143.49 127.26 138.61 128.44 137.21
  A 0.63 0.62 72.3 0 1 129.52 137.77
  Q 129.26 138.77 129.91 139.72
  C 131.97 142.74 135.42 139.48 136.95 137.94
  Q 149.03 145.46 162.99 145.40
  C 176.35 145.34 190.62 137.76 191.80 123.02
  C 192.66 112.21 187.31 101.32 179.63 93.86
  Q 170.30 84.80 157.80 80.84
  Q 158.79 73.61 158.30 67.00
  C 155.25 25.79 119.33 2.14 80.80 0.00
  Z" fill="#ffffff"></path>
<path d="M 72.05 0.35
  Q 72.25 0.46 72.47 0.91
  Q 72.70 1.36 73.20 1.47
  C 94.42 5.91 101.46 23.15 99.99 43.23
  Q 86.41 41.06 73.00 40.43
  Q 71.52 40.37 71.47 39.34
  Q 71.94 39.16 71.96 38.75
  C 73.08 20.74 62.44 12.43 45.66 18.69
  C 35.32 22.55 27.16 32.32 26.34 44.35
  A 0.53 0.53 0.0 0 0 27.04 44.89
  Q 47.39 37.93 69.10 39.29
  Q 65.44 40.29 61.49 39.77
  C 60.89 39.69 59.70 40.31 58.80 40.30
  C 54.70 40.26 50.25 41.19 46.71 41.54
  Q 40.78 42.12 34.99 43.57
  Q 33.95 43.84 32.87 43.94
  A 0.47 0.46 9.0 0 0 32.50 44.20
  Q 32.18 44.87 30.67 44.41
  A 1.55 1.53 -63.5 0 0 28.96 44.99
  Q 28.27 45.95 27.10 45.62
  Q 26.59 45.48 26.15 45.77
  Q 24.38 46.93 22.25 46.31
  Q 26.36 15.86 56.57 3.13
  Q 62.92 0.45 72.05 0.35
  Z" fill="#5358a7"></path>
<path d="M 72.05 0.35
  L 74.28 0.30
  Q 74.34 0.43 74.36 0.57
  Q 74.41 0.81 74.65 0.84
  Q 78.86 1.34 82.22 2.97
  C 97.79 11.34 102.90 26.98 101.25 43.65
  L 100.32 50.00
  Q 99.67 49.89 99.42 49.99
  L 99.99 43.23
  C 101.46 23.15 94.42 5.91 73.20 1.47
  Q 72.70 1.36 72.47 0.91
  Q 72.25 0.46 72.05 0.35
  Z" fill="#e38e59"></path>
<path d="M 101.25 43.65
  C 102.90 26.98 97.79 11.34 82.22 2.97
  Q 85.91 2.07 92.26 3.47
  C 111.67 7.75 131.78 19.73 141.62 37.62
  C 148.24 49.64 143.05 57.48 129.44 52.13
  Q 115.79 46.76 101.25 43.65
  Z" fill="#5358a7"></path>
<path d="M 56.57 3.13
  Q 26.36 15.86 22.25 46.31
  L 21.95 53.44
  A 0.63 0.62 -88.1 0 1 21.32 54.04
  L 20.98 54.04
  Q 20.80 54.03 20.80 53.85
  L 20.97 47.33
  Q 22.83 26.66 39.39 11.64
  L 49.75 4.73
  Q 52.71 3.02 56.57 3.13
  Z" fill="#e38e59"></path>
<path d="M 49.75 4.73
  L 39.39 11.64
  Q 29.32 15.12 20.72 24.02
  Q 13.99 31.00 11.04 41.79
  C 8.85 49.80 16.46 48.43 20.97 47.33
  L 20.80 53.85
  Q 20.80 54.03 20.98 54.04
  L 21.32 54.04
  A 0.63 0.62 -88.1 0 0 21.95 53.44
  L 22.25 46.31
  Q 24.38 46.93 26.15 45.77
  Q 26.59 45.48 27.10 45.62
  Q 28.27 45.95 28.96 44.99
  A 1.55 1.53 -63.5 0 1 30.67 44.41
  Q 32.18 44.87 32.50 44.20
  A 0.47 0.46 9.0 0 1 32.87 43.94
  Q 33.95 43.84 34.99 43.57
  Q 40.78 42.12 46.71 41.54
  C 50.25 41.19 54.70 40.26 58.80 40.30
  C 59.70 40.31 60.89 39.69 61.49 39.77
  Q 65.44 40.29 69.10 39.29
  L 71.47 39.34
  Q 71.52 40.37 73.00 40.43
  Q 86.41 41.06 99.99 43.23
  L 99.42 49.99
  C 68.56 42.67 26.46 42.48 2.93 67.96
  Q 2.97 68.24 2.27 68.06
  C 1.84 37.60 21.37 13.75 49.75 4.73
  Z" fill="#40449c"></path>
<path d="M 39.39 11.64
  Q 22.83 26.66 20.97 47.33
  C 16.46 48.43 8.85 49.80 11.04 41.79
  Q 13.99 31.00 20.72 24.02
  Q 29.32 15.12 39.39 11.64
  Z" fill="#5358a7"></path>
<path d="M 71.47 39.34
  L 69.10 39.29
  Q 47.39 37.93 27.04 44.89
  A 0.53 0.53 0.0 0 1 26.34 44.35
  C 27.16 32.32 35.32 22.55 45.66 18.69
  C 62.44 12.43 73.08 20.74 71.96 38.75
  Q 71.94 39.16 71.47 39.34
  Z" fill="#e38e59"></path>
<path d="M 99.42 49.99
  Q 99.67 49.89 100.32 50.00
  L 117.21 55.34
  C 117.18 58.12 117.26 61.55 118.73 63.71
  A 0.98 0.97 62.2 0 0 119.89 64.08
  Q 120.69 63.77 121.25 63.20
  Q 121.78 62.65 121.84 63.42
  Q 122.22 68.47 119.01 72.04
  C 117.86 73.32 116.00 74.26 114.55 75.41
  A 0.83 0.83 0.0 0 0 114.81 76.85
  L 117.47 77.73
  Q 112.65 80.78 107.46 77.85
  A 0.79 0.79 0.0 0 1 107.48 76.47
  Q 113.66 73.15 115.10 66.23
  Q 115.20 65.76 114.77 65.55
  C 111.22 63.90 111.23 59.44 111.59 56.13
  A 1.23 1.21 -79.5 0 0 110.70 54.82
  Q 92.68 49.86 74.07 48.21
  C 51.51 46.22 24.55 50.55 7.32 66.57
  C 6.02 67.78 5.06 68.83 4.85 70.73
  Q 2.94 88.12 7.56 104.49
  C 15.47 132.53 36.65 149.59 65.36 151.77
  C 80.77 152.94 100.30 151.17 110.03 137.01
  Q 110.30 136.62 110.12 136.18
  Q 108.92 133.25 111.25 131.64
  Q 111.72 131.32 112.27 131.25
  L 113.47 131.10
  A 0.44 0.44 0.0 0 0 113.74 130.36
  Q 110.03 126.33 109.96 123.26
  C 109.82 116.93 118.20 120.32 121.02 121.80
  Q 121.37 121.98 121.71 121.79
  L 130.13 117.16
  Q 131.63 116.34 132.28 117.92
  Q 133.49 120.84 136.71 120.77
  C 142.42 120.65 144.56 115.29 146.10 110.81
  Q 146.17 110.62 145.98 110.54
  L 145.67 110.42
  Q 145.38 110.30 145.23 110.58
  Q 142.79 115.41 138.99 116.24
  Q 135.84 116.92 135.78 113.39
  Q 135.75 109.62 137.67 108.75
  Q 138.17 108.52 138.64 108.79
  Q 139.51 109.30 140.16 110.05
  Q 141.11 111.13 140.66 109.77
  Q 139.89 107.43 137.50 107.65
  Q 137.01 107.70 137.22 107.25
  C 138.93 103.61 143.64 104.66 145.02 108.09
  Q 145.26 108.70 145.45 108.07
  Q 145.55 107.74 145.42 107.27
  Q 146.14 107.30 146.45 106.73
  Q 146.67 106.32 146.48 105.73
  C 146.25 105.02 145.97 104.80 145.87 104.04
  Q 145.13 98.62 138.42 96.59
  Q 142.41 95.29 144.87 97.87
  C 149.85 103.11 148.33 113.28 145.53 119.03
  C 143.59 123.00 138.64 127.72 134.31 124.43
  Q 133.90 124.11 133.48 124.43
  C 129.21 127.70 123.03 126.85 118.58 124.43
  A 2.07 2.06 33.2 0 0 115.98 124.97
  C 113.32 128.36 119.11 132.55 121.74 132.90
  Q 124.44 133.26 121.86 134.11
  C 119.02 135.05 115.21 134.73 113.77 138.06
  Q 113.58 138.50 113.72 138.96
  Q 114.29 140.81 116.27 140.94
  Q 117.20 141.00 116.44 141.55
  Q 110.85 145.64 104.53 148.51
  C 85.77 157.17 65.01 156.42 45.92 149.25
  C 12.59 136.72 -4.06 104.77 2.84 69.72
  Q 2.99 68.96 2.93 67.96
  C 26.46 42.48 68.56 42.67 99.42 49.99
  Z" fill="#fbc197"></path>
<path d="M 117.47 77.73
  L 119.25 77.69
  Q 115.61 83.92 116.88 90.30
  Q 117.42 93.04 120.06 94.98
  A 0.99 0.98 17.6 0 1 120.47 95.76
  C 120.55 99.51 120.19 101.87 122.61 105.14
  A 1.18 1.18 0.0 0 0 124.05 105.51
  Q 126.04 104.60 126.13 102.70
  L 129.36 99.23
  Q 130.61 97.89 130.25 99.69
  Q 130.13 100.29 129.96 101.74
  Q 129.85 102.68 130.88 102.72
  Q 131.35 102.73 131.65 102.38
  Q 133.21 100.56 134.76 98.78
  Q 136.20 97.12 138.42 96.59
  Q 145.13 98.62 145.87 104.04
  C 145.97 104.80 146.25 105.02 146.48 105.73
  Q 146.67 106.32 146.45 106.73
  Q 146.14 107.30 145.42 107.27
  C 143.98 103.73 140.50 102.51 137.55 105.15
  Q 134.52 107.86 135.78 113.39
  Q 135.84 116.92 138.99 116.24
  Q 142.79 115.41 145.23 110.58
  Q 145.38 110.30 145.67 110.42
  L 145.98 110.54
  Q 146.17 110.62 146.10 110.81
  C 144.56 115.29 142.42 120.65 136.71 120.77
  Q 133.49 120.84 132.28 117.92
  Q 131.63 116.34 130.13 117.16
  L 121.71 121.79
  Q 121.37 121.98 121.02 121.80
  C 118.20 120.32 109.82 116.93 109.96 123.26
  Q 110.03 126.33 113.74 130.36
  A 0.44 0.44 0.0 0 1 113.47 131.10
  L 112.27 131.25
  Q 111.72 131.32 111.25 131.64
  Q 108.92 133.25 110.12 136.18
  Q 110.30 136.62 110.03 137.01
  C 100.30 151.17 80.77 152.94 65.36 151.77
  C 36.65 149.59 15.47 132.53 7.56 104.49
  Q 2.94 88.12 4.85 70.73
  C 5.06 68.83 6.02 67.78 7.32 66.57
  C 24.55 50.55 51.51 46.22 74.07 48.21
  Q 92.68 49.86 110.70 54.82
  A 1.23 1.21 -79.5 0 1 111.59 56.13
  C 111.23 59.44 111.22 63.90 114.77 65.55
  Q 115.20 65.76 115.10 66.23
  Q 113.66 73.15 107.48 76.47
  A 0.79 0.79 0.0 0 0 107.46 77.85
  Q 112.65 80.78 117.47 77.73
  Z
  M 55.2280 63.7169
  A 17.32 17.28 -35.4 0 0 31.1000 59.6646
  A 17.32 17.28 -35.4 0 0 26.9920 83.7831
  A 17.32 17.28 -35.4 0 0 51.1200 87.8354
  A 17.32 17.28 -35.4 0 0 55.2280 63.7169
  Z
  M 99.78 78.04
  A 19.02 19.02 0.0 0 0 80.76 59.02
  A 19.02 19.02 0.0 0 0 61.74 78.04
  A 19.02 19.02 0.0 0 0 80.76 97.06
  A 19.02 19.02 0.0 0 0 99.78 78.04
  Z
  M 95.90 113.05
  Q 92.39 115.73 89.16 118.36
  Q 84.87 121.86 82.18 123.31
  Q 65.82 132.14 46.01 125.79
  Q 41.10 124.39 35.72 120.19
  L 32.77 118.16
  Q 31.23 117.10 32.51 118.46
  Q 33.46 119.46 34.96 120.53
  Q 44.81 128.11 55.63 133.68
  Q 57.01 136.34 60.91 136.71
  Q 61.39 136.76 61.75 137.08
  Q 63.28 138.45 65.34 138.47
  Q 65.86 138.48 66.31 138.75
  Q 68.54 140.14 71.16 140.15
  Q 71.68 140.15 72.07 140.48
  Q 72.41 140.76 73.01 140.91
  C 82.54 143.23 103.82 149.17 104.73 132.79
  Q 104.79 131.75 103.90 130.73
  A 1.20 1.16 -63.8 0 1 103.61 129.83
  Q 103.74 128.59 103.22 127.68
  L 100.04 109.82
  Q 99.97 109.44 100.10 109.07
  Q 100.19 108.83 100.18 108.56
  Q 100.14 107.81 99.67 108.39
  L 95.90 113.05
  Z" fill="#fdd5b8"></path>
<path d="M 117.21 55.34
  Q 131.11 60.16 143.40 69.53
  Q 134.99 64.58 132.01 63.07
  Q 125.72 59.90 119.27 57.05
  A 0.70 0.70 0.0 0 0 118.29 57.78
  L 118.80 62.07
  A 0.92 0.92 0.0 0 0 120.35 62.62
  L 121.73 61.26
  Q 122.64 60.38 122.82 61.63
  Q 124.16 70.68 116.50 75.26
  Q 115.42 75.90 116.65 76.17
  Q 121.36 77.18 125.33 74.04
  Q 125.47 73.93 125.62 73.92
  Q 125.89 73.89 125.96 73.93
  A 0.70 0.70 0.0 0 1 126.14 74.91
  C 122.64 80.00 120.38 86.16 121.89 92.48
  A 0.79 0.79 0.0 0 0 123.33 92.72
  L 126.28 88.07
  Q 126.44 87.82 126.70 87.68
  Q 127.07 87.48 127.35 87.66
  A 0.46 0.46 0.0 0 1 127.50 88.28
  C 125.64 91.49 123.98 97.16 125.61 100.73
  A 0.69 0.69 0.0 0 0 126.82 100.82
  Q 128.59 98.07 131.33 96.26
  A 0.79 0.79 0.0 0 1 132.49 97.23
  L 131.10 100.52
  Q 131.06 100.61 131.14 100.66
  L 131.42 100.82
  Q 131.59 100.91 131.71 100.75
  C 135.30 95.73 141.46 92.19 146.37 98.02
  Q 148.04 100.01 148.61 102.43
  Q 151.63 115.37 142.37 124.84
  Q 138.76 128.53 133.85 126.33
  Q 133.37 126.12 132.93 126.38
  C 128.63 128.98 122.66 128.54 118.65 126.29
  Q 115.71 124.64 116.96 127.78
  Q 118.94 132.76 123.88 132.22
  Q 127.61 131.82 124.54 133.97
  Q 120.80 136.58 115.99 137.12
  Q 114.76 137.26 114.85 138.69
  Q 114.88 139.21 115.36 139.41
  Q 117.60 140.33 119.60 139.09
  A 0.57 0.56 -26.2 0 1 120.43 139.37
  Q 120.64 139.90 121.05 140.31
  Q 121.45 140.71 121.96 140.46
  Q 126.19 138.37 129.38 134.88
  A 0.57 0.56 -25.6 0 1 130.36 135.22
  L 130.55 138.19
  A 1.69 1.68 74.2 0 0 133.02 139.57
  Q 136.95 137.47 138.09 133.27
  Q 138.90 130.26 139.57 133.21
  Q 140.04 135.30 143.36 136.79
  Q 141.10 137.98 139.80 135.38
  A 0.95 0.94 -33.6 0 0 138.34 135.09
  Q 137.37 135.93 137.86 137.01
  Q 137.09 137.15 136.95 137.94
  C 135.42 139.48 131.97 142.74 129.91 139.72
  Q 129.26 138.77 129.52 137.77
  A 0.63 0.62 72.3 0 0 128.44 137.21
  C 127.26 138.61 121.85 143.49 119.85 141.01
  Q 119.51 140.58 119.09 140.92
  Q 112.77 145.93 105.56 149.32
  Q 105.34 149.19 105.04 149.19
  Q 104.66 149.20 104.58 148.83
  Q 104.55 148.70 104.53 148.51
  Q 110.85 145.64 116.44 141.55
  Q 117.20 141.00 116.27 140.94
  Q 114.29 140.81 113.72 138.96
  Q 113.58 138.50 113.77 138.06
  C 115.21 134.73 119.02 135.05 121.86 134.11
  Q 124.44 133.26 121.74 132.90
  C 119.11 132.55 113.32 128.36 115.98 124.97
  A 2.07 2.06 33.2 0 1 118.58 124.43
  C 123.03 126.85 129.21 127.70 133.48 124.43
  Q 133.90 124.11 134.31 124.43
  C 138.64 127.72 143.59 123.00 145.53 119.03
  C 148.33 113.28 149.85 103.11 144.87 97.87
  Q 142.41 95.29 138.42 96.59
  Q 136.20 97.12 134.76 98.78
  Q 133.21 100.56 131.65 102.38
  Q 131.35 102.73 130.88 102.72
  Q 129.85 102.68 129.96 101.74
  Q 130.13 100.29 130.25 99.69
  Q 130.61 97.89 129.36 99.23
  L 126.13 102.70
  Q 123.11 99.95 124.21 94.75
  Q 124.33 94.17 123.74 94.29
  Q 121.22 94.81 120.74 92.23
  Q 119.22 83.98 123.48 77.53
  Q 124.91 75.37 122.69 76.68
  Q 121.36 77.48 119.25 77.69
  L 117.47 77.73
  L 114.81 76.85
  A 0.83 0.83 0.0 0 1 114.55 75.41
  C 116.00 74.26 117.86 73.32 119.01 72.04
  Q 122.22 68.47 121.84 63.42
  Q 121.78 62.65 121.25 63.20
  Q 120.69 63.77 119.89 64.08
  A 0.98 0.97 62.2 0 1 118.73 63.71
  C 117.26 61.55 117.18 58.12 117.21 55.34
  Z" fill="#916053"></path>
<path d="M 55.2280 63.7169
  A 17.32 17.28 -35.4 0 1 51.1200 87.8354
  A 17.32 17.28 -35.4 0 1 26.9920 83.7831
  A 17.32 17.28 -35.4 0 1 31.1000 59.6646
  A 17.32 17.28 -35.4 0 1 55.2280 63.7169
  Z
  M 56.75 69.88
  A 9.13 9.13 0.0 0 0 47.62 60.75
  A 9.13 9.13 0.0 0 0 38.49 69.88
  A 9.13 9.13 0.0 0 0 47.62 79.01
  A 9.13 9.13 0.0 0 0 56.75 69.88
  Z" fill="#ffffff"></path>
<path d="M 143.40 69.53
  L 157.80 80.84
  Q 170.30 84.80 179.63 93.86
  C 187.31 101.32 192.66 112.21 191.80 123.02
  C 190.62 137.76 176.35 145.34 162.99 145.40
  Q 149.03 145.46 136.95 137.94
  Q 137.09 137.15 137.86 137.01
  Q 146.24 142.21 156.00 143.80
  C 168.95 145.91 186.68 140.93 190.30 126.34
  C 191.67 120.82 190.63 115.04 188.73 109.68
  C 184.58 97.95 173.44 88.48 162.19 83.73
  Q 161.59 83.48 160.69 82.79
  Q 159.79 82.09 158.94 82.17
  Q 157.38 82.32 158.62 83.28
  Q 160.11 84.44 159.70 85.48
  Q 159.56 85.86 159.76 86.21
  C 162.79 91.38 165.94 95.59 171.92 95.45
  A 0.43 0.43 0.0 0 1 172.22 96.20
  Q 168.90 99.21 164.36 98.77
  Q 163.27 97.95 162.49 98.10
  A 0.47 0.46 72.0 0 0 162.16 98.76
  Q 165.54 105.99 161.60 112.77
  A 1.82 1.81 -45.7 0 1 158.48 112.81
  Q 157.94 111.94 157.31 111.73
  Q 156.19 111.36 156.45 112.51
  Q 158.01 119.47 164.09 122.97
  Q 166.83 124.54 163.78 125.40
  Q 159.32 126.65 152.76 125.28
  Q 152.43 124.76 151.74 124.63
  Q 151.24 124.54 151.36 125.04
  Q 151.66 126.29 152.62 127.13
  A 0.90 0.90 0.0 0 1 152.90 128.02
  Q 152.51 129.72 152.82 131.45
  A 1.13 1.11 56.8 0 1 152.66 132.26
  Q 151.43 134.16 149.86 132.30
  Q 148.75 130.76 147.61 129.41
  Q 147.49 129.27 147.36 129.24
  Q 147.18 129.20 147.05 129.27
  Q 146.75 129.41 146.89 129.71
  Q 148.88 134.05 144.63 136.73
  Q 143.79 136.65 143.36 136.79
  Q 140.04 135.30 139.57 133.21
  Q 138.90 130.26 138.09 133.27
  Q 136.95 137.47 133.02 139.57
  A 1.69 1.68 74.2 0 1 130.55 138.19
  L 130.36 135.22
  A 0.57 0.56 -25.6 0 0 129.38 134.88
  Q 126.19 138.37 121.96 140.46
  Q 121.45 140.71 121.05 140.31
  Q 120.64 139.90 120.43 139.37
  A 0.57 0.56 -26.2 0 0 119.60 139.09
  Q 117.60 140.33 115.36 139.41
  Q 114.88 139.21 114.85 138.69
  Q 114.76 137.26 115.99 137.12
  Q 120.80 136.58 124.54 133.97
  Q 127.61 131.82 123.88 132.22
  Q 118.94 132.76 116.96 127.78
  Q 115.71 124.64 118.65 126.29
  C 122.66 128.54 128.63 128.98 132.93 126.38
  Q 133.37 126.12 133.85 126.33
  Q 138.76 128.53 142.37 124.84
  Q 151.63 115.37 148.61 102.43
  Q 148.04 100.01 146.37 98.02
  C 141.46 92.19 135.30 95.73 131.71 100.75
  Q 131.59 100.91 131.42 100.82
  L 131.14 100.66
  Q 131.06 100.61 131.10 100.52
  L 132.49 97.23
  A 0.79 0.79 0.0 0 0 131.33 96.26
  Q 128.59 98.07 126.82 100.82
  A 0.69 0.69 0.0 0 1 125.61 100.73
  C 123.98 97.16 125.64 91.49 127.50 88.28
  A 0.46 0.46 0.0 0 0 127.35 87.66
  Q 127.07 87.48 126.70 87.68
  Q 126.44 87.82 126.28 88.07
  L 123.33 92.72
  A 0.79 0.79 0.0 0 1 121.89 92.48
  C 120.38 86.16 122.64 80.00 126.14 74.91
  A 0.70 0.70 0.0 0 0 125.96 73.93
  Q 125.89 73.89 125.62 73.92
  Q 125.47 73.93 125.33 74.04
  Q 121.36 77.18 116.65 76.17
  Q 115.42 75.90 116.50 75.26
  Q 124.16 70.68 122.82 61.63
  Q 122.64 60.38 121.73 61.26
  L 120.35 62.62
  A 0.92 0.92 0.0 0 1 118.80 62.07
  L 118.29 57.78
  A 0.70 0.70 0.0 0 1 119.27 57.05
  Q 125.72 59.90 132.01 63.07
  Q 134.99 64.58 143.40 69.53
  Z" fill="#e38e59"></path>
<path d="M 99.78 78.04
  A 19.02 19.02 0.0 0 1 80.76 97.06
  A 19.02 19.02 0.0 0 1 61.74 78.04
  A 19.02 19.02 0.0 0 1 80.76 59.02
  A 19.02 19.02 0.0 0 1 99.78 78.04
  Z
  M 97.93 73.79
  A 10.04 10.04 0.0 0 0 87.89 63.75
  A 10.04 10.04 0.0 0 0 77.85 73.79
  A 10.04 10.04 0.0 0 0 87.89 83.83
  A 10.04 10.04 0.0 0 0 97.93 73.79
  Z" fill="#ffffff"></path>
<path d="M 56.75 69.88
  A 9.13 9.13 0.0 0 1 47.62 79.01
  A 9.13 9.13 0.0 0 1 38.49 69.88
  A 9.13 9.13 0.0 0 1 47.62 60.75
  A 9.13 9.13 0.0 0 1 56.75 69.88
  Z
  M 50.52 64.57
  A 2.92 2.92 0.0 0 0 47.60 61.65
  A 2.92 2.92 0.0 0 0 44.68 64.57
  A 2.92 2.92 0.0 0 0 47.60 67.49
  A 2.92 2.92 0.0 0 0 50.52 64.57
  Z" fill="#3d1f12"></path>
<circle r="2.92" cy="64.57" cx="47.60" fill="#ffffff"></circle>
<path d="M 97.93 73.79
  A 10.04 10.04 0.0 0 1 87.89 83.83
  A 10.04 10.04 0.0 0 1 77.85 73.79
  A 10.04 10.04 0.0 0 1 87.89 63.75
  A 10.04 10.04 0.0 0 1 97.93 73.79
  Z
  M 90.82 68.44
  A 2.92 2.92 0.0 0 0 87.90 65.52
  A 2.92 2.92 0.0 0 0 84.98 68.44
  A 2.92 2.92 0.0 0 0 87.90 71.36
  A 2.92 2.92 0.0 0 0 90.82 68.44
  Z" fill="#3d1f12"></path>
<circle r="2.92" cy="68.44" cx="87.90" fill="#ffffff"></circle>
<path d="M 2.27 68.06
  Q 2.97 68.24 2.93 67.96
  Q 2.99 68.96 2.84 69.72
  C -4.06 104.77 12.59 136.72 45.92 149.25
  C 65.01 156.42 85.77 157.17 104.53 148.51
  Q 104.55 148.70 104.58 148.83
  Q 104.66 149.20 105.04 149.19
  Q 105.34 149.19 105.56 149.32
  C 78.10 162.73 40.90 155.39 19.63 133.79
  Q 1.67 115.55 0.00 88.66
  L 0.00 83.50
  L 2.27 68.06
  Z" fill="#b7795d"></path>
<path d="M 126.13 102.70
  Q 126.04 104.60 124.05 105.51
  A 1.18 1.18 0.0 0 1 122.61 105.14
  C 120.19 101.87 120.55 99.51 120.47 95.76
  A 0.99 0.98 17.6 0 0 120.06 94.98
  Q 117.42 93.04 116.88 90.30
  Q 115.61 83.92 119.25 77.69
  Q 121.36 77.48 122.69 76.68
  Q 124.91 75.37 123.48 77.53
  Q 119.22 83.98 120.74 92.23
  Q 121.22 94.81 123.74 94.29
  Q 124.33 94.17 124.21 94.75
  Q 123.11 99.95 126.13 102.70
  Z" fill="#fbc197"></path>
<path d="M 137.86 137.01
  Q 137.37 135.93 138.34 135.09
  A 0.95 0.94 -33.6 0 1 139.80 135.38
  Q 141.10 137.98 143.36 136.79
  Q 143.79 136.65 144.63 136.73
  C 146.85 137.39 148.17 134.97 147.87 133.04
  Q 147.80 132.54 148.26 132.32
  Q 148.90 132.00 149.86 132.30
  Q 151.43 134.16 152.66 132.26
  A 1.13 1.11 56.8 0 0 152.82 131.45
  Q 152.51 129.72 152.90 128.02
  A 0.90 0.90 0.0 0 0 152.62 127.13
  Q 151.66 126.29 151.36 125.04
  Q 151.24 124.54 151.74 124.63
  Q 152.43 124.76 152.76 125.28
  Q 157.02 128.18 162.49 126.84
  Q 164.75 126.29 166.25 124.75
  A 1.00 0.99 38.2 0 0 166.06 123.21
  Q 161.07 120.10 158.19 115.01
  Q 157.37 113.55 158.95 114.10
  C 164.81 116.12 165.62 103.03 163.53 100.00
  Q 163.25 99.59 163.54 99.19
  Q 163.78 98.87 164.36 98.77
  Q 168.90 99.21 172.22 96.20
  A 0.43 0.43 0.0 0 0 171.92 95.45
  C 165.94 95.59 162.79 91.38 159.76 86.21
  Q 159.56 85.86 159.70 85.48
  Q 160.11 84.44 158.62 83.28
  Q 157.38 82.32 158.94 82.17
  Q 159.79 82.09 160.69 82.79
  Q 161.59 83.48 162.19 83.73
  C 173.44 88.48 184.58 97.95 188.73 109.68
  C 190.63 115.04 191.67 120.82 190.30 126.34
  C 186.68 140.93 168.95 145.91 156.00 143.80
  Q 146.24 142.21 137.86 137.01
  Z" fill="#5358a7"></path>
<path d="M 164.36 98.77
  Q 163.78 98.87 163.54 99.19
  Q 163.25 99.59 163.53 100.00
  C 165.62 103.03 164.81 116.12 158.95 114.10
  Q 157.37 113.55 158.19 115.01
  Q 161.07 120.10 166.06 123.21
  A 1.00 0.99 38.2 0 1 166.25 124.75
  Q 164.75 126.29 162.49 126.84
  Q 157.02 128.18 152.76 125.28
  Q 159.32 126.65 163.78 125.40
  Q 166.83 124.54 164.09 122.97
  Q 158.01 119.47 156.45 112.51
  Q 156.19 111.36 157.31 111.73
  Q 157.94 111.94 158.48 112.81
  A 1.82 1.81 -45.7 0 0 161.60 112.77
  Q 165.54 105.99 162.16 98.76
  A 0.47 0.46 72.0 0 1 162.49 98.10
  Q 163.27 97.95 164.36 98.77
  Z" fill="#916053"></path>
<path d="M 145.42 107.27
  Q 145.55 107.74 145.45 108.07
  Q 145.26 108.70 145.02 108.09
  C 143.64 104.66 138.93 103.61 137.22 107.25
  Q 137.01 107.70 137.50 107.65
  Q 139.89 107.43 140.66 109.77
  Q 141.11 111.13 140.16 110.05
  Q 139.51 109.30 138.64 108.79
  Q 138.17 108.52 137.67 108.75
  Q 135.75 109.62 135.78 113.39
  Q 134.52 107.86 137.55 105.15
  C 140.50 102.51 143.98 103.73 145.42 107.27
  Z" fill="#916053"></path>
<path d="M 103.22 127.68
  Q 103.28 129.63 103.27 131.56
  C 103.25 137.82 99.07 141.64 92.74 141.71
  C 79.96 141.85 66.44 139.18 55.63 133.68
  Q 44.81 128.11 34.96 120.53
  L 35.72 120.19
  Q 41.10 124.39 46.01 125.79
  Q 49.81 128.59 53.80 129.18
  C 57.55 132.93 61.92 136.42 66.62 135.16
  Q 76.71 132.45 84.12 124.97
  Q 91.00 120.28 95.90 113.05
  L 99.67 108.39
  Q 100.14 107.81 100.18 108.56
  Q 100.19 108.83 100.10 109.07
  Q 99.97 109.44 100.04 109.82
  L 103.22 127.68
  Z
  M 92.86 127.07
  L 92.70 126.48
  A 1.14 1.14 0.0 0 0 90.72 126.04
  C 88.60 128.54 86.39 134.82 90.91 136.17
  A 2.06 2.06 0.0 0 0 93.40 135.00
  L 96.21 128.44
  A 1.08 1.08 0.0 0 0 95.07 126.94
  Q 94.35 127.04 93.68 127.42
  Q 93.05 127.79 92.86 127.07
  Z" fill="#3d1f12"></path>
<path d="M 95.90 113.05
  Q 91.00 120.28 84.12 124.97
  Q 69.25 130.93 53.80 129.18
  Q 49.81 128.59 46.01 125.79
  Q 65.82 132.14 82.18 123.31
  Q 84.87 121.86 89.16 118.36
  Q 92.39 115.73 95.90 113.05
  Z" fill="#fbc197"></path>
<path d="M 35.72 120.19
  L 34.96 120.53
  Q 33.46 119.46 32.51 118.46
  Q 31.23 117.10 32.77 118.16
  L 35.72 120.19
  Z" fill="#b7795d"></path>
<path d="M 84.12 124.97
  Q 76.71 132.45 66.62 135.16
  C 61.92 136.42 57.55 132.93 53.80 129.18
  Q 69.25 130.93 84.12 124.97
  Z" fill="#ffffff"></path>
<path d="M 93.68 127.42
  Q 94.35 127.04 95.07 126.94
  A 1.08 1.08 0.0 0 1 96.21 128.44
  L 93.40 135.00
  A 2.06 2.06 0.0 0 1 90.91 136.17
  C 86.39 134.82 88.60 128.54 90.72 126.04
  A 1.14 1.14 0.0 0 1 92.70 126.48
  L 92.86 127.07
  Q 93.05 127.79 93.68 127.42
  Z" fill="#f69f92"></path>
<path d="M 103.22 127.68
  Q 103.74 128.59 103.61 129.83
  A 1.20 1.16 -63.8 0 0 103.90 130.73
  Q 104.79 131.75 104.73 132.79
  C 103.82 149.17 82.54 143.23 73.01 140.91
  Q 72.41 140.76 72.07 140.48
  Q 71.68 140.15 71.16 140.15
  Q 68.54 140.14 66.31 138.75
  Q 65.86 138.48 65.34 138.47
  Q 63.28 138.45 61.75 137.08
  Q 61.39 136.76 60.91 136.71
  Q 57.01 136.34 55.63 133.68
  C 66.44 139.18 79.96 141.85 92.74 141.71
  C 99.07 141.64 103.25 137.82 103.27 131.56
  Q 103.28 129.63 103.22 127.68
  Z" fill="#fbc197"></path>
<path d="M 149.86 132.30
  Q 148.90 132.00 148.26 132.32
  Q 147.80 132.54 147.87 133.04
  C 148.17 134.97 146.85 137.39 144.63 136.73
  Q 148.88 134.05 146.89 129.71
  Q 146.75 129.41 147.05 129.27
  Q 147.18 129.20 147.36 129.24
  Q 147.49 129.27 147.61 129.41
  Q 148.75 130.76 149.86 132.30
  Z" fill="#916053"></path>
</svg>
