<svg viewBox="0.00 0.00 280.00 280.00" version="1.1" xmlns="http://www.w3.org/2000/svg">
<path d="M 101.23 86.01
  C 67.40 97.52 60.42 144.36 76.35 171.93
  C 85.76 188.23 104.40 197.08 123.05 195.53
  C 140.62 194.07 154.35 184.23 160.84 167.68
  A 0.85 0.85 0.0 0 1 162.00 167.22
  L 192.04 181.74
  Q 192.58 182.00 192.38 182.57
  C 186.24 200.39 170.52 213.91 153.64 221.14
  C 137.59 228.02 118.82 229.34 101.70 226.09
  C 71.73 220.40 47.71 198.82 37.64 170.27
  Q 31.03 151.56 33.27 129.00
  C 38.33 77.98 81.39 45.18 131.85 51.76
  C 158.22 55.19 182.80 70.77 192.46 96.11
  A 0.59 0.59 0.0 0 1 192.17 96.85
  L 162.13 111.37
  Q 161.04 111.90 160.63 110.76
  C 155.69 97.02 143.56 87.22 129.51 84.02
  Q 116.09 80.96 101.23 86.01
  Z" fill="#f24e1d"></path>
<circle r="16.98" cy="211.00" cx="235.00" fill="#4262ff"></circle>
</svg>
