<svg viewBox="0.00 0.00 512.00 512.00" version="1.1" xmlns="http://www.w3.org/2000/svg">
<path d="M 118.58 0.00
  L 392.76 0.00
  Q 397.12 0.51 401.50 1.08
  Q 441.81 6.35 467.28 35.74
  C 500.84 74.47 506.59 136.47 482.28 181.64
  C 466.00 211.88 436.76 233.08 401.53 237.46
  A 0.56 0.56 0.0 0 0 401.11 238.29
  Q 401.36 238.74 401.92 239.33
  Q 436.30 275.57 470.74 311.74
  Q 477.93 319.28 484.51 331.43
  Q 501.98 363.72 498.06 400.50
  C 494.29 435.90 477.18 468.96 448.51 490.25
  Q 423.74 508.64 392.75 509.93
  Q 386.12 510.20 379.50 510.33
  C 350.78 510.86 323.82 492.17 303.82 473.42
  C 282.02 453.00 262.59 430.44 242.14 408.73
  C 241.65 408.20 240.77 407.74 240.19 407.32
  A 0.45 0.45 0.0 0 0 239.48 407.62
  C 232.79 462.44 192.80 503.22 137.18 507.55
  C 73.79 512.48 21.22 470.64 14.03 406.96
  Q 13.27 400.23 13.26 387.00
  Q 13.19 255.75 13.27 124.50
  Q 13.28 111.48 14.11 104.55
  C 20.80 48.94 62.26 5.92 118.58 0.00
  Z
  M 420.64 148.65
  C 439.55 119.55 426.62 72.14 385.75 72.13
  Q 311.17 72.09 236.59 72.13
  C 235.50 72.13 234.34 71.80 233.28 71.76
  A 1.25 1.25 0.0 0 0 232.08 73.47
  Q 236.02 83.32 237.66 93.51
  C 241.49 117.35 240.48 141.29 240.56 165.42
  A 0.91 0.90 0.0 0 0 241.47 166.32
  Q 310.18 166.24 378.00 166.30
  Q 392.52 166.31 397.91 164.98
  Q 412.34 161.44 420.64 148.65
  Z
  M 105.69 431.83
  C 132.34 444.75 166.38 431.40 171.15 400.09
  Q 171.68 396.59 171.68 381.88
  Q 171.68 254.12 171.69 126.35
  Q 171.69 112.65 170.18 106.79
  Q 166.59 92.83 155.03 82.95
  C 128.94 60.65 91.31 75.17 83.47 107.10
  Q 82.03 112.93 82.04 125.03
  Q 82.07 254.90 82.06 384.73
  Q 82.05 398.93 83.41 404.63
  Q 87.80 423.16 105.69 431.83
  Z
  M 241.35 238.43
  A 0.85 0.85 0.0 0 0 240.50 239.28
  L 240.50 303.24
  A 4.35 4.31 24.2 0 0 241.62 306.14
  Q 247.93 313.15 254.86 320.39
  Q 303.50 371.26 351.81 422.43
  Q 355.72 426.57 360.19 430.06
  C 386.34 450.45 420.04 430.27 428.61 402.75
  C 432.29 390.94 431.25 378.68 425.22 367.96
  Q 422.45 363.04 413.22 353.33
  Q 359.01 296.35 305.08 239.74
  A 4.21 4.19 -21.8 0 0 302.04 238.44
  L 241.35 238.43
  Z" fill="#000000"></path>
</svg>
