<svg viewBox="0.00 0.00 144.00 144.00" version="1.1" xmlns="http://www.w3.org/2000/svg">
<path d="M 78.71 65.84
  C 71.84 64.95 58.13 63.97 57.49 56.36
  C 56.58 45.54 75.92 45.44 81.47 49.78
  Q 84.26 51.97 86.00 56.01
  Q 86.08 56.20 86.29 56.20
  L 100.48 56.21
  A 0.49 0.48 -4.5 0 0 100.96 55.65
  Q 98.29 38.93 81.75 34.95
  C 66.26 31.22 40.10 36.30 42.47 58.04
  C 43.86 70.73 55.83 75.50 66.76 76.92
  C 73.16 77.75 87.13 79.64 88.45 86.77
  C 90.50 97.87 71.99 97.55 65.83 96.44
  C 60.67 95.51 57.33 93.34 55.53 88.51
  A 0.78 0.78 0.0 0 0 54.80 88.00
  L 40.72 87.97
  A 0.37 0.36 -2.8 0 0 40.35 88.37
  C 41.58 100.61 51.53 108.17 63.57 109.59
  C 78.85 111.40 103.23 108.99 103.73 88.33
  C 104.08 73.99 91.04 67.46 78.71 65.84" stroke-linecap="butt" fill="none" stroke-width="2.00" stroke="#647d29"></path>
<path d="M 0.00 0.00
  L 144.00 0.00
  L 144.00 144.00
  L 0.00 144.00
  L 0.00 0.00
  Z
  M 78.71 65.84
  C 71.84 64.95 58.13 63.97 57.49 56.36
  C 56.58 45.54 75.92 45.44 81.47 49.78
  Q 84.26 51.97 86.00 56.01
  Q 86.08 56.20 86.29 56.20
  L 100.48 56.21
  A 0.49 0.48 -4.5 0 0 100.96 55.65
  Q 98.29 38.93 81.75 34.95
  C 66.26 31.22 40.10 36.30 42.47 58.04
  C 43.86 70.73 55.83 75.50 66.76 76.92
  C 73.16 77.75 87.13 79.64 88.45 86.77
  C 90.50 97.87 71.99 97.55 65.83 96.44
  C 60.67 95.51 57.33 93.34 55.53 88.51
  A 0.78 0.78 0.0 0 0 54.80 88.00
  L 40.72 87.97
  A 0.37 0.36 -2.8 0 0 40.35 88.37
  C 41.58 100.61 51.53 108.17 63.57 109.59
  C 78.85 111.40 103.23 108.99 103.73 88.33
  C 104.08 73.99 91.04 67.46 78.71 65.84
  Z" fill="#c7fa51"></path>
<path d="M 57.49 56.36
  C 58.13 63.97 71.84 64.95 78.71 65.84
  C 91.04 67.46 104.08 73.99 103.73 88.33
  C 103.23 108.99 78.85 111.40 63.57 109.59
  C 51.53 108.17 41.58 100.61 40.35 88.37
  A 0.37 0.36 -2.8 0 1 40.72 87.97
  L 54.80 88.00
  A 0.78 0.78 0.0 0 1 55.53 88.51
  C 57.33 93.34 60.67 95.51 65.83 96.44
  C 71.99 97.55 90.50 97.87 88.45 86.77
  C 87.13 79.64 73.16 77.75 66.76 76.92
  C 55.83 75.50 43.86 70.73 42.47 58.04
  C 40.10 36.30 66.26 31.22 81.75 34.95
  Q 98.29 38.93 100.96 55.65
  A 0.49 0.48 -4.5 0 1 100.48 56.21
  L 86.29 56.20
  Q 86.08 56.20 86.00 56.01
  Q 84.26 51.97 81.47 49.78
  C 75.92 45.44 56.58 45.54 57.49 56.36
  Z" fill="#000000"></path>
</svg>
