<svg viewBox="0 0 300 300" xmlns="http://www.w3.org/2000/svg"><g fill="none" stroke-width="2"><path d="m133.24 0 1.08 1.38q.33.42.81.66.38.19.79.24.46.06.46.52v.83h-.01v-.01q.02-.2-.11-.36a.17.16 39.1 0 0-.27.02q-.08.14-.25.09-.57-.15.08.53.19.2 0 .59-.81 1.71-1.33 3.61a.38.38 0 0 0 .73.23q.07-.19.14-.21.15-.03.15.12.03 1.11-.42.84a.33.33 0 0 0-.4.53q.74.66.27 1.31-.18.25-.48.2-.3-.04-.52.17a.31.3 61.4 0 0-.08.29q.16.65.41.4.12-.12.22.02.31.41 0 .76-.11.12-.21.03-.04-.04-.1-.05-.2-.06-.28.25-.32 1.27.38 2.27.38.53-.17.89-.37.24-.16.79.12.32.43.47l.47.24a.25.25 0 0 1 .02.43q-.81.53-.53 1.6.09.34.01.68-.36 1.66 1.13 2.54.34.2.35.6.04 1.68 1.14 3.08.37.48.83.07.13-.12.06-.37-.05-.16.12-.16h.4a.35.35 0 0 1 .18.65q-1.98 1.2-2.39-.11-.03-.1-.13-.06-.14.07-.27.14-.36.19-.45-.2-.18-.74-1-.67a.45.03 21.5 0 1-.35-.11q-.21-.09-.08-.38a.36.36 0 0 0-.63-.34q-.67 1-.89.27a.72.72 0 0 0-.4-.44l-2.46-1.04q-.68-.29-.63.45l.04.73a.34.34 0 0 0 .3.31q.14.01.29.03a.12.12 0 0 1 .08.19q-1.2 1.59.21 3.13.4.44.99.4.44-.03.32.42-.12.43.67-.02.43-.24 1-.01a.19.19 0 0 1 .11.11q.11.28.4.39a.55.54 38.7 0 0 .49-.05q.7-.43 1.4.48 1.04 1.33 2.96 1.61.5.07.86.42.7.68 1.65.45.46-.11.46.36v3.32q0 .75.74.63 1.53-.24 1.78.37a2.44 1.98-11.6 0 0 2.37 1.23q1.35-.12 1.65 1.35.12.6-.34.99-.33.28-.26.76.1.62.68.83.35.13.62.41a.92.92 0 0 0 .89.26q.68-.17.86.5 1.61.66 3.34 1.38.43.19.53.65.25 1.19 1.44 1.73.51.24.08.59-.36.3-.69-.06a.23.23 0 0 0-.36.27q.26.45 1.05.43.44-.01.55.24.17.35-.17.55-.32.19-.46.48-.23.43.19.7l1.25.78a.08.07 22.7 0 1 .04.09q-.06.19-.21.35-.29.28-.66.14-1.83-.68-3.29-1.93-.31-.27-.84.05-.29.18-.23-.15.04-.24-.03-.49-.18-.65-.52-.07-.32.52-.71.07-.29-.34-.42.08-.06.2.06.32.32.32-.02.62-1.27 1.11-.52 2.73.17.37.27-.02l.09-.35q.09-.36.31-.06.52.72.23 1.34-.15.31-.47.43-.94.33-1.15-.31-.13-.41-.51-.21l-.27.14q-.38.21-.63-.14-.37-.51-1.09-.36l-.3-.14q-.17-.07-.13-.26.11-.46-.8-.14-.79.27-1.28-.5-.26-.4-.7-.24-.16.05-.33.16a.6.6 0 0 1-.78-.12q-.48-.55-1.22-.25-.4.17-.78-.04-1.35-.74-2.84-.84-.47-.03-.91-.22c-2.31-.96-4.68.34-7.22-.89q-.4-.19-.77.04-1.4.89-2.39-.21-.33-.37-.65 0l-.18.21q-.22.26-.55.34-.57.14-1.02-.11-.08-.04-.08.05-.01.13.01.28.01.05.4.59.42.58.97 1.13a.38.38 0 0 1-.31.65l-3.97-.43q-.55-.06-.88.38-.09.11-.21.16-.35.13-.27.49l.32 1.54q.13.6.45.08.28-.45.24-.93-.08-1.3.46-.16.41.85.2 1.71a.15.14-50.9 0 1-.27.03q-.14-.27-.26.01-.18.41.04.79.23.43-.14.97-.22.33-.64.37-.35.03-.26.37.12.42.45.71.38.33.88.37.58.05 1.16.33a.42.28 55.3 0 1 .01.71q-.47-.14-.51.4-.04.5.42.71.42.19.36.74-.03.36.3.23l.49-.19q.62-.24.91.36.09.19.45.33.37.14.71-.07.66-.43 2.23.26a.65.64-63.4 0 0 .82-.28q.3-.56 1.09-.06.11.07.19.18l.12.22q.03.08.18.05.38-.09.62-.37.61-.7.72.11.03.21.18.33.29.22.59.01.63-.44 1.23.01.45.34 1.01.27.9-.13 1.66.49.21.17.39-.03.1-.12.23-.23.26-.22.51.02l.63.64a.51.51 0 0 0 .75-.05q.1-.13.21-.2.36-.23.57-.13.88.41.26 1.27-.31.42.07.77 1.16 1.07 1.08 2.64-.02.41-.34.16-.87-.68-1.83-.25-.69.31-1.03-.36-.09-.18-.29-.31-.28-.19-.51.05-.69.71-1.26-.06a.44.44 0 0 0-.42-.17q-.53.1-.42.43.18.54-.36.4-.8-.21-.88-.84a.38.38 0 0 0-.76.01q-.05.41-.41.65a.47.47 0 0 1-.71-.3q-.07-.34-.24-.37-.2-.04-.52.14-.18.09-.11.3.11.33.47.33.2 0 .36.12.41.29 0 .57-.88.6-.7 1.48.05.29-.12.52l-.29.4q-.3.43.11.75.61.48.35 1.2-.07.2-.28.2-.16 0-.32.01-.43 0-.06.22.83.5 1.6.06a.43.43 0 0 1 .63.37q0 .77-.65 1.27a.28.28 0 0 0-.03.41q.23.24.19.58-.08.57.48.49 1.81-.27 3.51.23 2.97.87 3.3.93 2.77.47 5.36 1.09a2.37 2.37 0 0 1 1.72 1.63q.54 1.8 2.03 2.18a.37.37 0 0 1 .25.52q-.18.38-.54.65-.81.6.16.89 7.8 2.29 14.52 6.14" stroke="#862ff2"/><path d="m162.18 92.03-.07 36.04" stroke="#bf97f7"/><path d="M162.11 128.07q-1.07-1.48-.76-3.8.06-.45-.36-.63-.18-.07-.38-.04-.31.06-.6.47-.31.44-.61.89a.15.15 0 0 1-.28-.08v-.39q0-.72-.71-.6-.31.05-.3-.1.03-.26-.19-.39-.95-.58-2.12-.49-.48.04-.87-.25-.52-.39-1.03 0-.41.31-.79-.04-1.45-1.38-3.39-1.13-.45.05-.75-.29-.49-.56-1.2-.2-.46.23-.71-.21-.5-.85-1.39-.66c-1.65.35-2.61.38-4.05-.66q-.4-.29-.47.2-.05.37-.41.2l-.88-.41q-.32-.31-.8-.28c-.4.03-.74.4-1.25.46q-.52.06-.15-.31l.58-.57q.38-.39-.09-.64l-.86-.47a.28.28 0 0 0-.4.15l-.78 2.19" stroke="#7d18e9"/><path d="M136.11 119.99 125.22 92.7a.76.75 79 0 0-.72-.49l-6.46.02a.55.54 10 0 0-.51.35l-4.99 12.58" stroke="#bf97f7"/><path d="M112.54 105.16q-1.91-.6-3.11-1.67-.34-.31-.77-.12-1.02.47-2.15.54-3.35.23-6.44 1.53-.09.04-.12.13-.05.12-.07.24-.01.1-.07.02-.09-.12-.28-.19-.12-.05-.21.05-.16.17-.39.23a.05.05 0 0 1-.06-.06q.05-.31-.1-.57-.19-.31-.47-.08-.25.21-.13.43.19.34-.18.47l-3.31 1.16q-.35.12-.72.08-1-.12-1.71.88-.02.02.01.02l.36.14a.09.09 0 0 1 .01.16q-.32.16-.55.49-.25.34-.6.1-1.18-.84-2.32-.18a.72.72 0 0 1-1.04-.38l-.11-.31q-.16-.44-.62-.39-.91.08-1.65-.45-.49-.35-.78.17l-.17.32q-.22.39-.64.26-.84-.25-1.38.28-.19.19-.46.19-.22.01-.42-.05-.41-.14-.79.07-2.35 1.29-4.9.63-.5-.13-.87.24-.81.82-.38 2.18a.05.04-14.9 0 1-.04.06l-.3.04q-.24.03-.24-.21l-.01-5.36q0-.2-.21-.19h-.01q-.14.01-.15.17l-.17 2.82" stroke="#7d18e9"/><path d="m73.82 109.05-.04-10.22q0-.48.48-.48l14.49-.09A.26.25 90 0 0 89 98v-5.52a.27.26 0 0 0-.27-.26H51.74a.78.78 0 0 0-.75.99q.45 1.64-.03 3.35" stroke="#bf97f7"/><path d="M50.96 96.56q-.53-.37-.36-1.19.03-.14.05 0 .05.36-.18.64-.28.36-.31.8-.09 1.19-.62 2.25-.2.38-.62.38-3.84.04-5.04.96-.88.67-1.86 1.21-.41.23-.62-.18-.16-.31-.4-.45-.42-.25-.77.09-.41.42-.57.79-.22.54-.78.37-1.84-.56-3.78-.3-.02.01-.36.32-.06.06-.11.13-.37.5-.4-.31-.02-.36-.13-.67-.23-.6-.83-.36-.53.23-.39.72.19.63-.61.23-1.02-.51-1.59.26-.3.41-.81.39-1.75-.09-3.29.62-.58.26-.44-.36.09-.39-.14-.67-.34-.4-.76-.09-.57.44-.13.94.55.6-.27.62l-3.32.05q-.35.01-.12-.26.3-.35.32-.4.72-2.01-.82-.54-.07.07-.14.8-.07.77-.6.21-.46-.47-.27-1.15a.31.31 0 0 0-.49-.32q-.4.31-.31.84.12.67-.56.69l-6.22.21q-.56.02-1.08-.17-1.23-.44-2.41.39-.35.24-.75.08-.44-.18-.83.01-3.26 1.51-6.47 1.32-.37-.02-.39.35-.05.53-.38.44" stroke="#7d18e9"/><path d="M187.78 0q-.58.6 1.39 3.3.39.52.07.9-.54.66.01.67.26.01.37.28.28.7.24.85l-.56 2.48q-.05.22.17.28l.34.08q.51.13.66.63.26.84.71 1.61.25.42.32.89.18 1.08-.13 2.07a.78.78 0 0 0 .27.85q.75.58.77 1.55a1.12 1.11-69.2 0 0 .35.79q.74.68.81 2.01.13 2.31 2.5 2.93.87.23.28-.46-.77-.88-1.05-2.06-.13-.52.02-1.02.44-1.51-.56-2.86-.3-.42-.11-.9.49-1.27-.68-1.78-.5-.22-.3-.72.34-.84.33-1.82a.64.59-65.3 0 0-.12-.37q-.51-.76-.22-1.83.3-1.1.55.01 1.01 4.48 2.75 9.2.34.94.75 1.84 1.32 2.96 2.68 5.9 1.28 2.76 3.13 5.68 2.93 4.63 5.71 9.36 2.04 3.46 4.66 6.52 2.66 3.11 5.08 6.41 3.28 4.48 7.27 8.36.48.46 1.58 2.18c1.63 2.52 4.43 4.82 6.56 6.94q3.12 3.12 6.25 6.22c.66.65 1.13 1.8 2.36 2.23q.42.15.64.54c.36.66.82 1.04 1.6 1.38q.49.21.71.69.21.44.58.75c3.27 2.66 5 4.6 9.63 6.78q.43.2.91.16 1.2-.09 1.69.94.39.82 1.1 1.37 2.39 1.85 6.63 3.72 1.86.82 7.02 4.36 2.12 1.46 4.91 2.37 2.63.85 5.17 1.96c1.83.81 4.07.83 5.91 2.42q.37.32.87.38 2.97.32 5.44 1.88 1.19.75 1.99.92 2.27.46 2.21-.89" stroke="#9238f8"/><path d="m300 170.09-.55 1.63a.09.09 0 0 1-.17.01q-.06-.14-.13-.28-.12-.26-.35-.1l-2.36 1.67q-.37.27-.81.14c-1.31-.36-2.48-.18-3.8-.39q-.72-.11-1.01.45-.22.43-.69.37-.27-.03-.52-.21-.39-.29-.75.04-.38.35-.79.07a.67.67 0 0 0-.43-.09l-4.89.71q-.48.07-.82.42-.36.38-.91.16-.37-.15-.76-.06-1.41.32-2.75-.39-.26-.14-.48.05l-.23.21q-.41.36-.78-.02-.68-.69-1.58-.23a.96.94 46.4 0 1-.95-.03l-.6-.36q-.33-.2-.55.12-.46.69-.22 1.49a.9.9 0 0 1 .05.35q-.06 2.21-.49 4.37-.13.62.51.65 1.36.07 2.52.74a.27.27 0 0 0 .4-.31q-.08-.3.4-.35.55-.06.38.47l-1.65 4.9q-.12.35-.48.34h-.29q-.1.01-.1-.1-.01-.18-.01-.35a.32.32 0 0 0-.45-.29q-.91.38-1.73-.21-.13-.09-.21-.23-.18-.28-.53-.26a.49.48-76.6 0 0-.38.24q-.11.18-.26.3-.2.16-.43.03-.42-.24-.72-.65-.21-.28-.28.07-.28 1.32-1.42.93-.39-.14-.36-.55.08-1.21.05-1.59-.23-2.56-.77.04-.6 2.85-1.97 5.46-.12.22-.31.06-1.82-1.48-3.75-.05-.46.35-.7-.18-.2-.45-.64-.68a1.9.18 29 0 0-1.49-.65q-1.73.17-3.4-.31-1.44-.41-2.36.57-.52.56-.39-.24.16-.94-.68-.88-.24.02-.27.26-.14 1.38-.23 2.74 0 .03-.02.02h-.02q-.03 0-.03-.04.3-2.68-.53-4.99" stroke="#862ff2"/><path d="m249.08 185.1-.06-24.81a.4.4 0 0 0-.4-.4l-39.18-.01" stroke="#c697fa"/><path d="m209.44 159.88 5.86-.65q.49-.05.73-.48.15-.27.13-.53a.19.19 0 0 0-.34-.11q-.27.34-.71.16-.3-.13-.33-.46l-.22-2.39q0-.05-.05-.05-.15 0-.3-.01a.31.31 0 0 1-.29-.38c.46-1.79-.7-3.23-1.02-4.9q-.17-.87-.51-1.57-1.24-2.53-2.55-5.01-.18-.34-.55-.26-.34.07-.45-.12a2.06 2.05 49.2 0 1 .17-2.39q.25-.3 1.03-.09" stroke="#862ff2"/><path d="m210.04 140.64 6.63.01a.39.38 90 0 0 .38-.39l-.1-20.73q0-.47.45-.6c3.02-.89 4.94-.22 7.03 2.27q7.72 9.22 16.13 19.07a.7.69 70 0 0 .5.24l7.78.11a.12.12 0 0 0 .09-.2q-9.32-11.34-18.37-22.47-1.13-1.38-2.5-2.39-.36-.26-.07-.59l19.04-21.79q.85-.97-.44-.97l-5.74.01a2.97 2.95-69.7 0 0-2.26 1.05q-7.67 9-15.29 17.77c-1.68 1.94-3.4 2.56-5.81 2.02q-.48-.11-.48-.61V92.51q0-.35-.36-.35l-6.61.04q-.29 0-.29.29l-.01 47.87" stroke="#c697fa"/><path d="M209.74 140.36q-.82-.48-.84-1.73 0-.38-.36-.25-.73.26-1.45-.1a.66.66 0 0 1-.23-.99q.65-.87-.2-1.38a.67.67 0 0 1-.26-.86q.29-.61-.06-1.3-.02-.05-.06-.02-.05.03-.11.04a.36.26 66 0 1-.31-.18q-1.62-2.55-2.67-5.38c-.44-1.18-1.31-1.91-1.89-3.01-.96-1.85-2.31-2.88-3.36-4.56q-.95-1.53-1.8-2.46c-1.73-1.89-3.03-3.96-4.96-5.65-3.09-2.7-5.81-5.76-8.94-8.33q-2.19-1.8-4.3-3.7-.37-.33-.84-.43-.53-.12-.75-.64-.19-.45-.6-.71l-4-2.56q-.12-.07-.12-.21v-.33q0-.33-.32-.26-1.25.28-1.89-.8" stroke="#862ff2"/><path d="m169.42 94.56-.07-1.81q-.02-.57-.58-.58l-6.59-.14" stroke="#c697fa"/><path d="M239.39 0q-1.42 1.68-.42 3.29c1.25 2.01 2.37 4.25 3.07 6.52q2.1 6.84 2.57 8.95.43 1.93 1.23 3.33.21.37.26.79.14 1.44 1.18 2.4.42.39-.03.75-.25.2-.06.62.15.33.46.15.14-.07.25-.2.28-.34.38.09.23.92.63 1.79.27.56.73.65.43.09.78.36.79.64.88 1.49.1.95.95.5l.24-.13q.14-.07.14.08l-.01 1.1q0 .16.14.09.12-.06.23-.12.26-.15.48.06 1.3 1.25 2.14 2.89.07.14-.05.25-.1.09-.2.2-.21.22-.1.51.16.4.55.47.35.06.32.41-.05.59.53.6.41.01.7.31.51.53.6 1.13.08.52.47.87.82.75 1.27 1.76.23.52.79.4.36-.07.54.17.13.17.02.34-.08.14-.1.29-.06.46.36.64.63.28.92.86.15.3.47.22.27-.06.42-.25.36-.48.53.11.21.73.8 1.12.26.17.48-.05.09-.08.18-.18a.62.62 0 0 1 .86-.02l4.47 4.2q.07.07.16.06h.48a.07.07 0 0 1 .07.09q-.03.16-.12.27-.09.09-.03.2.29.54.77.44.33-.07.35-.41.01-.13.06-.26.12-.28.29-.03.72 1.04 1.91 1.41.12.04.19.15.14.21-.06.28-.6.21-.14.61.11.1.2.19a.12.12 0 0 0 .17.01q1.35-1.26 2.35-.16.2.22.5.22.34-.01.54-.26.38-.48.75.01.49.64 1.27.5.39-.07.58.28.14.26.39.41.22.13.8.08 1.03-.1 1.65.76.28.39.75.46l2.25.33q.37.05.64.32.94.97 2.23 1.44.46.17.96.15.51-.03.94.33.35.28.78.44 2.46.89 4.9 1.83.79.3 1.46-.24.17-.13.14.08-.02.2.08.37.22.37.52.06.53-.54.78-.23" stroke="#9a4cfd"/><path d="M210.04 140.64q-.24-.13-.3-.28" stroke="#bf97f7"/><path d="m73.82 109.05-.03 31.25a.29.29 0 0 1-.28.29l-6.78.05q-.17 0-.17-.16l.06-41.76a.4.4 0 0 0-.4-.4l-14.5.06q-.47 0-.54-.46l-.22-1.36M136.11 119.99l7.89 19.87q.32.8-.55.79l-5.49-.05a1.55 1.53 79.6 0 1-1.42-.99l-4.31-11.18q-.27-.69-1.01-.69l-19.68.01q-.77.01-1.05.73l-4.15 10.85a2 2 0 0 1-1.87 1.29h-4.99q-1.07 0-.67-.99l13.73-34.47" stroke="#bd80f1"/><path d="M129.58 122.47a.28.28 0 0 0 .26-.38l-8.37-21.92a.12.12 0 0 0-.22 0L113.04 122q-.21.55.39.55l16.15-.08" stroke="#bd80f1"/><path d="M169.42 94.56v39.69a.32.31 0 0 0 .32.31l18.99-.05q1.14-.01 1.14 1.13v4.06q0 1.06-1.06 1.02l-3.24-.11" stroke="#bf97f7"/><path d="m185.57 140.61-22.78-.07q-.59 0-.59-.59l-.09-11.88" stroke="#bd80f1"/><path d="m209.44 159.88-20.15.02" stroke="#bf97f7"/><path d="M189.29 159.9q.8.08 1.34-.04.43-.1.14-.44-.81-.94-.38-2.35.04-.11.12-.16.11-.07.27-.11.17-.05.11-.21l-4.65-12.02q-.23-.58-.11-1.18.16-.91-.59-1.1-.13-.04-.04-.13l.4-.4a.02.02 0 0 0-.01-.04q-.77-.3-.32-1.11" stroke="#7d18e9"/><path d="m189.29 159.9-13.71.02a.56.56 0 0 0-.56.56l-.05 47.51a.37.36-90 0 0 .36.37l28.85-.02" stroke="#bd80f1"/><path d="M204.18 208.34q2.55.6 5.25.29.25-.02.29.22l.04.25q.02.12-.1.13l-9.93 1.04q-.89.09-.26.73l.28.28a.62.62 0 0 1 .08.76q-1.46 2.3-2.03 4.97-.11.52-.49.89-.87.86-.72 2.07.06.49-.26.87c-1.15 1.33-1.05 2.84-1.71 4.16q-.9 1.78-1.74 3.57-.21.43-.17.91.05.62-.56.94-.4.21-.32.65.36 1.83-1.12 2.82-.55.36-.2.92.17.27.07.64-.1.36-.36.63-1.05 1.09-.73 2.58.02.09-.08.1-.15.01-.28-.12-.04-.03-.05.01-1.61 5.71-3.1 11.41-.33 1.28-1.02 2.45-.23.39-.28.85-.25 2.04-1.11 3.94-.17.37-.16.79.02 1.09-.6 2.06-.24.38-.16.83.23 1.2-.47 2.13-.28.37-.37.84l-.8 4.31q-.02.11-.13.1-.22-.02-.41.07-.28.13.02.21.41.11.4.61-.01.21-.18.45-1 1.39-.58 3.07a1.29 1.28 54.3 0 1-.16.99q-.42.67-.48 1.5-.03.45.09.87c.35 1.25-.51 2.8-.56 4.61q-.02.43-.57.61-.27.1-.07.3l.35.35q.28.27.06.59c-1.19 1.75-.77 3.98-.57 5.92.37 3.59-1.06 6.28-.18 10q.34 1.44-1.33 1.49" stroke="#7d18e9"/><path d="M58.93 190.33c11.33.78 24.63-.46 25.04-14.8.54-18.55-20.47-15.91-32.33-15.59q-.53.01-.53.54l.02 46.82q0 1.05 1.04 1.04h5.26a1.01 1.01 0 0 0 1.01-1.01l.01-16.55q0-.48.48-.45M96.81 195.43l20.27.01a.64.64 0 0 1 .6.41l4.16 11.04q.54 1.43 2.07 1.44l4.63.01q1.26.01.8-1.17l-18.58-46.71q-.23-.56-.82-.56l-6.08-.02q-.64 0-.87.59l-18.5 46.47q-.55 1.39.94 1.39l4.06.01q1.87.01 2.53-1.74l4.04-10.65q.19-.52.75-.52M167.59 202.63a.44.44 0 0 0-.44-.44l-19.67.01a.44.44 0 0 1-.44-.44l-.02-41.36a.44.44 0 0 0-.44-.44l-6.33.01a.44.44 0 0 0-.44.44l-.01 47.47a.44.44 0 0 0 .44.44l26.92-.02a.44.44 0 0 0 .44-.44l-.01-5.23" stroke="#bd80f1"/><path d="m58.39 166.01.1 18.38a.37.37 0 0 0 .37.37l8.35-.05a9.66 8.76-.3 0 0 9.61-8.81v-1.6a9.66 8.76-.3 0 0-9.71-8.71l-8.35.05a.37.37 0 0 0-.37.37M99.02 190.21l15.64.02a.57.56-10.6 0 0 .53-.77l-8.22-21.65q-.09-.23-.17 0l-8.25 21.71q-.26.69.47.69" stroke="#bd80f1"/><path d="m249.08 185.1-.06 22.9a.33.32 0 0 1-.33.32l-44.51.02" stroke="#bf97f7"/><path d="M193.7 193.39q.11-.28.4-.28h13.96q.5 0 .67.46l2.61 7.03a1.94 1.94 0 0 0 1.77 1.26l4.23.11q1.19.03.75-1.08l-13.33-33.99q-.22-.54-.8-.55l-5.63-.03a.75.74-78.7 0 0-.71.48l-13.33 33.84q-.5 1.26.86 1.27l3.93.02q1.38.01 1.87-1.28l2.75-7.26M236.06 166.71a.4.4 0 0 0-.4-.4h-5.82a.4.4 0 0 0-.4.4v34.8a.4.4 0 0 0 .4.4h5.82a.4.4 0 0 0 .4-.4v-34.8" stroke="#bf97f7"/><path d="m201.76 174.08-.08-.95a.33.32-37.6 0 0-.63-.08l-5.37 14.85a.46.45-80.2 0 0 .43.62l10.35-.06q.41 0 .27-.39l-4.75-13.03q-.17-.47-.22-.96" stroke="#bf97f7"/></g><path d="M0 0h133.24l1.08 1.38q.33.42.81.66.38.19.79.24.46.06.46.52v.83h-.01v-.01q.02-.2-.11-.36a.17.16 39.1 0 0-.27.02q-.08.14-.25.09-.57-.15.08.53.19.2 0 .59-.81 1.71-1.33 3.61a.38.38 0 0 0 .73.23q.07-.19.14-.21.15-.03.15.12.03 1.11-.42.84a.33.33 0 0 0-.4.53q.74.66.27 1.31-.18.25-.48.2-.3-.04-.52.17a.31.3 61.4 0 0-.08.29q.16.65.41.4.12-.12.22.02.31.41 0 .76-.11.12-.21.03-.04-.04-.1-.05-.2-.06-.28.25-.32 1.27.38 2.27.38.53-.17.89-.37.24-.16.79.12.32.43.47l.47.24a.25.25 0 0 1 .02.43q-.81.53-.53 1.6.09.34.01.68-.36 1.66 1.13 2.54.34.2.35.6.04 1.68 1.14 3.08.37.48.83.07.13-.12.06-.37-.05-.16.12-.16h.4a.35.35 0 0 1 .18.65q-1.98 1.2-2.39-.11-.03-.1-.13-.06-.14.07-.27.14-.36.19-.45-.2-.18-.74-1-.67a.45.03 21.5 0 1-.35-.11q-.21-.09-.08-.38a.36.36 0 0 0-.63-.34q-.67 1-.89.27a.72.72 0 0 0-.4-.44l-2.46-1.04q-.68-.29-.63.45l.04.73a.34.34 0 0 0 .3.31q.14.01.29.03a.12.12 0 0 1 .08.19q-1.2 1.59.21 3.13.4.44.99.4.44-.03.32.42-.12.43.67-.02.43-.24 1-.01a.19.19 0 0 1 .11.11q.11.28.4.39a.55.54 38.7 0 0 .49-.05q.7-.43 1.4.48 1.04 1.33 2.96 1.61.5.07.86.42.7.68 1.65.45.46-.11.46.36v3.32q0 .75.74.63 1.53-.24 1.78.37a2.44 1.98-11.6 0 0 2.37 1.23q1.35-.12 1.65 1.35.12.6-.34.99-.33.28-.26.76.1.62.68.83.35.13.62.41a.92.92 0 0 0 .89.26q.68-.17.86.5 1.61.66 3.34 1.38.43.19.53.65.25 1.19 1.44 1.73.51.24.08.59-.36.3-.69-.06a.23.23 0 0 0-.36.27q.26.45 1.05.43.44-.01.55.24.17.35-.17.55-.32.19-.46.48-.23.43.19.7l1.25.78a.08.07 22.7 0 1 .04.09q-.06.19-.21.35-.29.28-.66.14-1.83-.68-3.29-1.93-.31-.27-.84.05-.29.18-.23-.15.04-.24-.03-.49-.18-.65-.52-.07-.32.52-.71.07-.29-.34-.42.08-.06.2.06.32.32.32-.02.62-1.27 1.11-.52 2.73.17.37.27-.02l.09-.35q.09-.36.31-.06.52.72.23 1.34-.15.31-.47.43-.94.33-1.15-.31-.13-.41-.51-.21l-.27.14q-.38.21-.63-.14-.37-.51-1.09-.36l-.3-.14q-.17-.07-.13-.26.11-.46-.8-.14-.79.27-1.28-.5-.26-.4-.7-.24-.16.05-.33.16a.6.6 0 0 1-.78-.12q-.48-.55-1.22-.25-.4.17-.78-.04-1.35-.74-2.84-.84-.47-.03-.91-.22c-2.31-.96-4.68.34-7.22-.89q-.4-.19-.77.04-1.4.89-2.39-.21-.33-.37-.65 0l-.18.21q-.22.26-.55.34-.57.14-1.02-.11-.08-.04-.08.05-.01.13.01.28.01.05.4.59.42.58.97 1.13a.38.38 0 0 1-.31.65l-3.97-.43q-.55-.06-.88.38-.09.11-.21.16-.35.13-.27.49l.32 1.54q.13.6.45.08.28-.45.24-.93-.08-1.3.46-.16.41.85.2 1.71a.15.14-50.9 0 1-.27.03q-.14-.27-.26.01-.18.41.04.79.23.43-.14.97-.22.33-.64.37-.35.03-.26.37.12.42.45.71.38.33.88.37.58.05 1.16.33a.42.28 55.3 0 1 .01.71q-.47-.14-.51.4-.04.5.42.71.42.19.36.74-.03.36.3.23l.49-.19q.62-.24.91.36.09.19.45.33.37.14.71-.07.66-.43 2.23.26a.65.64-63.4 0 0 .82-.28q.3-.56 1.09-.06.11.07.19.18l.12.22q.03.08.18.05.38-.09.62-.37.61-.7.72.11.03.21.18.33.29.22.59.01.63-.44 1.23.01.45.34 1.01.27.9-.13 1.66.49.21.17.39-.03.1-.12.23-.23.26-.22.51.02l.63.64a.51.51 0 0 0 .75-.05q.1-.13.21-.2.36-.23.57-.13.88.41.26 1.27-.31.42.07.77 1.16 1.07 1.08 2.64-.02.41-.34.16-.87-.68-1.83-.25-.69.31-1.03-.36-.09-.18-.29-.31-.28-.19-.51.05-.69.71-1.26-.06a.44.44 0 0 0-.42-.17q-.53.1-.42.43.18.54-.36.4-.8-.21-.88-.84a.38.38 0 0 0-.76.01q-.05.41-.41.65a.47.47 0 0 1-.71-.3q-.07-.34-.24-.37-.2-.04-.52.14-.18.09-.11.3.11.33.47.33.2 0 .36.12.41.29 0 .57-.88.6-.7 1.48.05.29-.12.52l-.29.4q-.3.43.11.75.61.48.35 1.2-.07.2-.28.2-.16 0-.32.01-.43 0-.06.22.83.5 1.6.06a.43.43 0 0 1 .63.37q0 .77-.65 1.27a.28.28 0 0 0-.03.41q.23.24.19.58-.08.57.48.49 1.81-.27 3.51.23 2.97.87 3.3.93 2.77.47 5.36 1.09a2.37 2.37 0 0 1 1.72 1.63q.54 1.8 2.03 2.18a.37.37 0 0 1 .25.52q-.18.38-.54.65-.81.6.16.89 7.8 2.29 14.52 6.14l-.07 36.04q-1.07-1.48-.76-3.8.06-.45-.36-.63-.18-.07-.38-.04-.31.06-.6.47-.31.44-.61.89a.15.15 0 0 1-.28-.08v-.39q0-.72-.71-.6-.31.05-.3-.1.03-.26-.19-.39-.95-.58-2.12-.49-.48.04-.87-.25-.52-.39-1.03 0-.41.31-.79-.04-1.45-1.38-3.39-1.13-.45.05-.75-.29-.49-.56-1.2-.2-.46.23-.71-.21-.5-.85-1.39-.66c-1.65.35-2.61.38-4.05-.66q-.4-.29-.47.2-.05.37-.41.2l-.88-.41q-.32-.31-.8-.28c-.4.03-.74.4-1.25.46q-.52.06-.15-.31l.58-.57q.38-.39-.09-.64l-.86-.47a.28.28 0 0 0-.4.15l-.78 2.19-10.89-27.29a.76.75 79 0 0-.72-.49l-6.46.02a.55.54 10 0 0-.51.35l-4.99 12.58q-1.91-.6-3.11-1.67-.34-.31-.77-.12-1.02.47-2.15.54-3.35.23-6.44 1.53-.09.04-.12.13-.05.12-.07.24-.01.1-.07.02-.09-.12-.28-.19-.12-.05-.21.05-.16.17-.39.23a.05.05 0 0 1-.06-.06q.05-.31-.1-.57-.19-.31-.47-.08-.25.21-.13.43.19.34-.18.47l-3.31 1.16q-.35.12-.72.08-1-.12-1.71.88-.02.02.01.02l.36.14a.09.09 0 0 1 .01.16q-.32.16-.55.49-.25.34-.6.1-1.18-.84-2.32-.18a.72.72 0 0 1-1.04-.38l-.11-.31q-.16-.44-.62-.39-.91.08-1.65-.45-.49-.35-.78.17l-.17.32q-.22.39-.64.26-.84-.25-1.38.28-.19.19-.46.19-.22.01-.42-.05-.41-.14-.79.07-2.35 1.29-4.9.63-.5-.13-.87.24-.81.82-.38 2.18a.05.04-14.9 0 1-.04.06l-.3.04q-.24.03-.24-.21l-.01-5.36q0-.2-.21-.19h-.01q-.14.01-.15.17l-.17 2.82-.04-10.22q0-.48.48-.48l14.49-.09A.26.25 90 0 0 89 98v-5.52a.27.26 0 0 0-.27-.26H51.74a.78.78 0 0 0-.75.99q.45 1.64-.03 3.35-.53-.37-.36-1.19.03-.14.05 0 .05.36-.18.64-.28.36-.31.8-.09 1.19-.62 2.25-.2.38-.62.38-3.84.04-5.04.96-.88.67-1.86 1.21-.41.23-.62-.18-.16-.31-.4-.45-.42-.25-.77.09-.41.42-.57.79-.22.54-.78.37-1.84-.56-3.78-.3-.02.01-.36.32-.06.06-.11.13-.37.5-.4-.31-.02-.36-.13-.67-.23-.6-.83-.36-.53.23-.39.72.19.63-.61.23-1.02-.51-1.59.26-.3.41-.81.39-1.75-.09-3.29.62-.58.26-.44-.36.09-.39-.14-.67-.34-.4-.76-.09-.57.44-.13.94.55.6-.27.62l-3.32.05q-.35.01-.12-.26.3-.35.32-.4.72-2.01-.82-.54-.07.07-.14.8-.07.77-.6.21-.46-.47-.27-1.15a.31.31 0 0 0-.49-.32q-.4.31-.31.84.12.67-.56.69l-6.22.21q-.56.02-1.08-.17-1.23-.44-2.41.39-.35.24-.75.08-.44-.18-.83.01-3.26 1.51-6.47 1.32-.37-.02-.39.35-.05.53-.38.44V0Z" fill="#7f2fee"/><path d="M133.24 0h54.54q-.58.6 1.39 3.3.39.52.07.9-.54.66.01.67.26.01.37.28.28.7.24.85l-.56 2.48q-.05.22.17.28l.34.08q.51.13.66.63.26.84.71 1.61.25.42.32.89.18 1.08-.13 2.07a.78.78 0 0 0 .27.85q.75.58.77 1.55a1.12 1.11-69.2 0 0 .35.79q.74.68.81 2.01.13 2.31 2.5 2.93.87.23.28-.46-.77-.88-1.05-2.06-.13-.52.02-1.02.44-1.51-.56-2.86-.3-.42-.11-.9.49-1.27-.68-1.78-.5-.22-.3-.72.34-.84.33-1.82a.64.59-65.3 0 0-.12-.37q-.51-.76-.22-1.83.3-1.1.55.01 1.01 4.48 2.75 9.2.34.94.75 1.84 1.32 2.96 2.68 5.9 1.28 2.76 3.13 5.68 2.93 4.63 5.71 9.36 2.04 3.46 4.66 6.52 2.66 3.11 5.08 6.41 3.28 4.48 7.27 8.36.48.46 1.58 2.18c1.63 2.52 4.43 4.82 6.56 6.94q3.12 3.12 6.25 6.22c.66.65 1.13 1.8 2.36 2.23q.42.15.64.54c.36.66.82 1.04 1.6 1.38q.49.21.71.69.21.44.58.75c3.27 2.66 5 4.6 9.63 6.78q.43.2.91.16 1.2-.09 1.69.94.39.82 1.1 1.37 2.39 1.85 6.63 3.72 1.86.82 7.02 4.36 2.12 1.46 4.91 2.37 2.63.85 5.17 1.96c1.83.81 4.07.83 5.91 2.42q.37.32.87.38 2.97.32 5.44 1.88 1.19.75 1.99.92 2.27.46 2.21-.89v61.16l-.55 1.63a.09.09 0 0 1-.17.01q-.06-.14-.13-.28-.12-.26-.35-.1l-2.36 1.67q-.37.27-.81.14c-1.31-.36-2.48-.18-3.8-.39q-.72-.11-1.01.45-.22.43-.69.37-.27-.03-.52-.21-.39-.29-.75.04-.38.35-.79.07a.67.67 0 0 0-.43-.09l-4.89.71q-.48.07-.82.42-.36.38-.91.16-.37-.15-.76-.06-1.41.32-2.75-.39-.26-.14-.48.05l-.23.21q-.41.36-.78-.02-.68-.69-1.58-.23a.96.94 46.4 0 1-.95-.03l-.6-.36q-.33-.2-.55.12-.46.69-.22 1.49a.9.9 0 0 1 .05.35q-.06 2.21-.49 4.37-.13.62.51.65 1.36.07 2.52.74a.27.27 0 0 0 .4-.31q-.08-.3.4-.35.55-.06.38.47l-1.65 4.9q-.12.35-.48.34h-.29q-.1.01-.1-.1-.01-.18-.01-.35a.32.32 0 0 0-.45-.29q-.91.38-1.73-.21-.13-.09-.21-.23-.18-.28-.53-.26a.49.48-76.6 0 0-.38.24q-.11.18-.26.3-.2.16-.43.03-.42-.24-.72-.65-.21-.28-.28.07-.28 1.32-1.42.93-.39-.14-.36-.55.08-1.21.05-1.59-.23-2.56-.77.04-.6 2.85-1.97 5.46-.12.22-.31.06-1.82-1.48-3.75-.05-.46.35-.7-.18-.2-.45-.64-.68a1.9.18 29 0 0-1.49-.65q-1.73.17-3.4-.31-1.44-.41-2.36.57-.52.56-.39-.24.16-.94-.68-.88-.24.02-.27.26-.14 1.38-.23 2.74 0 .03-.02.02h-.02q-.03 0-.03-.04.3-2.68-.53-4.99l-.06-24.81a.4.4 0 0 0-.4-.4l-39.18-.01 5.86-.65q.49-.05.73-.48.15-.27.13-.53a.19.19 0 0 0-.34-.11q-.27.34-.71.16-.3-.13-.33-.46l-.22-2.39q0-.05-.05-.05-.15 0-.3-.01a.31.31 0 0 1-.29-.38c.46-1.79-.7-3.23-1.02-4.9q-.17-.87-.51-1.57-1.24-2.53-2.55-5.01-.18-.34-.55-.26-.34.07-.45-.12a2.06 2.05 49.2 0 1 .17-2.39q.25-.3 1.03-.09l6.63.01a.39.38 90 0 0 .38-.39l-.1-20.73q0-.47.45-.6c3.02-.89 4.94-.22 7.03 2.27q7.72 9.22 16.13 19.07a.7.69 70 0 0 .5.24l7.78.11a.12.12 0 0 0 .09-.2q-9.32-11.34-18.37-22.47-1.13-1.38-2.5-2.39-.36-.26-.07-.59l19.04-21.79q.85-.97-.44-.97l-5.74.01a2.97 2.95-69.7 0 0-2.26 1.05q-7.67 9-15.29 17.77c-1.68 1.94-3.4 2.56-5.81 2.02q-.48-.11-.48-.61V92.51q0-.35-.36-.35l-6.61.04q-.29 0-.29.29l-.01 47.87q-.82-.48-.84-1.73 0-.38-.36-.25-.73.26-1.45-.1a.66.66 0 0 1-.23-.99q.65-.87-.2-1.38a.67.67 0 0 1-.26-.86q.29-.61-.06-1.3-.02-.05-.06-.02-.05.03-.11.04a.36.26 66 0 1-.31-.18q-1.62-2.55-2.67-5.38c-.44-1.18-1.31-1.91-1.89-3.01-.96-1.85-2.31-2.88-3.36-4.56q-.95-1.53-1.8-2.46c-1.73-1.89-3.03-3.96-4.96-5.65-3.09-2.7-5.81-5.76-8.94-8.33q-2.19-1.8-4.3-3.7-.37-.33-.84-.43-.53-.12-.75-.64-.19-.45-.6-.71l-4-2.56q-.12-.07-.12-.21v-.33q0-.33-.32-.26-1.25.28-1.89-.8l-.07-1.81q-.02-.57-.58-.58l-6.59-.14q-6.72-3.85-14.52-6.14-.97-.29-.16-.89.36-.27.54-.65a.37.37 0 0 0-.25-.52q-1.49-.38-2.03-2.18a2.37 2.37 0 0 0-1.72-1.63q-2.59-.62-5.36-1.09-.33-.06-3.3-.93-1.7-.5-3.51-.23-.56.08-.48-.49.04-.34-.19-.58a.28.28 0 0 1 .03-.41q.65-.5.65-1.27a.43.43 0 0 0-.63-.37q-.77.44-1.6-.06-.37-.22.06-.22.16-.01.32-.01.21 0 .28-.2.26-.72-.35-1.2-.41-.32-.11-.75l.29-.4q.17-.23.12-.52-.18-.88.7-1.48.41-.28 0-.57-.16-.12-.36-.12-.36 0-.47-.33-.07-.21.11-.3.32-.18.52-.14.17.03.24.37a.47.47 0 0 0 .71.3q.36-.24.41-.65a.38.38 0 0 1 .76-.01q.08.63.88.84.54.14.36-.4-.11-.33.42-.43a.44.44 0 0 1 .42.17q.57.77 1.26.06.23-.24.51-.05.2.13.29.31.34.67 1.03.36.96-.43 1.83.25.32.25.34-.16.08-1.57-1.08-2.64-.38-.35-.07-.77.62-.86-.26-1.27-.21-.1-.57.13-.11.07-.21.2a.51.51 0 0 1-.75.05l-.63-.64q-.25-.24-.51-.02-.13.11-.23.23-.18.2-.39.03-.76-.62-1.66-.49-.56.07-1.01-.27-.6-.45-1.23-.01-.3.21-.59-.01-.15-.12-.18-.33-.11-.81-.72-.11-.24.28-.62.37-.15.03-.18-.05l-.12-.22q-.08-.11-.19-.18-.79-.5-1.09.06a.65.64-63.4 0 1-.82.28q-1.57-.69-2.23-.26-.34.21-.71.07-.36-.14-.45-.33-.29-.6-.91-.36l-.49.19q-.33.13-.3-.23.06-.55-.36-.74-.46-.21-.42-.71.04-.54.51-.4a.42.28 55.3 0 0-.01-.71q-.58-.28-1.16-.33-.5-.04-.88-.37-.33-.29-.45-.71-.09-.34.26-.37.42-.04.64-.37.37-.54.14-.97-.22-.38-.04-.79.12-.28.26-.01a.15.14-50.9 0 0 .27-.03q.21-.86-.2-1.71-.54-1.14-.46.16.04.48-.24.93-.32.52-.45-.08l-.32-1.54q-.08-.36.27-.49.12-.05.21-.16.33-.44.88-.38l3.97.43a.38.38 0 0 0 .31-.65q-.55-.55-.97-1.13-.39-.54-.4-.59-.02-.15-.01-.28 0-.09.08-.05.45.25 1.02.11.33-.08.55-.34l.18-.21q.32-.37.65 0 .99 1.1 2.39.21.37-.23.77-.04c2.54 1.23 4.91-.07 7.22.89q.44.19.91.22 1.49.1 2.84.84.38.21.78.04.74-.3 1.22.25a.6.6 0 0 0 .78.12q.17-.11.33-.16.44-.16.7.24.49.77 1.28.5.91-.32.8.14-.04.19.13.26l.3.14q.72-.15 1.09.36.25.35.63.14l.27-.14q.38-.2.51.21.21.64 1.15.31.32-.12.47-.43.29-.62-.23-1.34-.22-.3-.31.06l-.09.35q-.1.39-.27.02-.75-1.62.52-2.73.34-.3.02-.62-.12-.12-.06-.32.13-.42.42-.08.39.45.71-.07.34-.58.52.07.07.25.03.49-.06.33.23.15.53-.32.84-.05 1.46 1.25 3.29 1.93.37.14.66-.14.15-.16.21-.35a.08.07 22.7 0 0-.04-.09l-1.25-.78q-.42-.27-.19-.7.14-.29.46-.48.34-.2.17-.55-.11-.25-.55-.24-.79.02-1.05-.43a.23.23 0 0 1 .36-.27q.33.36.69.06.43-.35-.08-.59-1.19-.54-1.44-1.73-.1-.46-.53-.65-1.73-.72-3.34-1.38-.18-.67-.86-.5a.92.92 0 0 1-.89-.26q-.27-.28-.62-.41-.58-.21-.68-.83-.07-.48.26-.76.46-.39.34-.99-.3-1.47-1.65-1.35a2.44 1.98-11.6 0 1-2.37-1.23q-.25-.61-1.78-.37-.74.12-.74-.63v-3.32q0-.47-.46-.36-.95.23-1.65-.45-.36-.35-.86-.42-1.92-.28-2.96-1.61-.7-.91-1.4-.48a.55.54 38.7 0 1-.49.05q-.29-.11-.4-.39a.19.19 0 0 0-.11-.11q-.57-.23-1 .01-.79.45-.67.02.12-.45-.32-.42-.59.04-.99-.4-1.41-1.54-.21-3.13a.12.12 0 0 0-.08-.19q-.15-.02-.29-.03a.34.34 0 0 1-.3-.31l-.04-.73q-.05-.74.63-.45l2.46 1.04a.72.72 0 0 1 .4.44q.22.73.89-.27a.36.36 0 0 1 .63.34q-.13.29.08.38a.45.03 21.5 0 0 .35.11q.82-.07 1 .67.09.39.45.2.13-.07.27-.14.1-.04.13.06.41 1.31 2.39.11a.35.35 0 0 0-.18-.65h-.4q-.17 0-.12.16.07.25-.06.37-.46.41-.83-.07-1.1-1.4-1.14-3.08-.01-.4-.35-.6-1.49-.88-1.13-2.54.08-.34-.01-.68-.28-1.07.53-1.6a.25.25 0 0 0-.02-.43l-.47-.24q-.31-.15-.43-.47-.21-.55.16-.79.55-.36.17-.89-.7-1-.38-2.27.08-.31.28-.25.06.01.1.05.1.09.21-.03.31-.35 0-.76-.1-.14-.22-.02-.25.25-.41-.4a.31.3 61.4 0 1 .08-.29q.22-.21.52-.17.3.05.48-.2.47-.65-.27-1.31a.33.33 0 0 1 .4-.53q.45.27.42-.84 0-.15-.15-.12-.07.02-.14.21a.38.38 0 0 1-.73-.23q.52-1.9 1.33-3.61.19-.39 0-.59-.65-.68-.08-.53.17.05.25-.09a.17.16 39.1 0 1 .27-.02q.13.16.11.36v.01h.01V2.8q0-.46-.46-.52-.41-.05-.79-.24-.48-.24-.81-.66L133.24 0Z" fill="#8d2ff5"/><path d="M187.78 0h51.61q-1.42 1.68-.42 3.29c1.25 2.01 2.37 4.25 3.07 6.52q2.1 6.84 2.57 8.95.43 1.93 1.23 3.33.21.37.26.79.14 1.44 1.18 2.4.42.39-.03.75-.25.2-.06.62.15.33.46.15.14-.07.25-.2.28-.34.38.09.23.92.63 1.79.27.56.73.65.43.09.78.36.79.64.88 1.49.1.95.95.5l.24-.13q.14-.07.14.08l-.01 1.1q0 .16.14.09.12-.06.23-.12.26-.15.48.06 1.3 1.25 2.14 2.89.07.14-.05.25-.1.09-.2.2-.21.22-.1.51.16.4.55.47.35.06.32.41-.05.59.53.6.41.01.7.31.51.53.6 1.13.08.52.47.87.82.75 1.27 1.76.23.52.79.4.36-.07.54.17.13.17.02.34-.08.14-.1.29-.06.46.36.64.63.28.92.86.15.3.47.22.27-.06.42-.25.36-.48.53.11.21.73.8 1.12.26.17.48-.05.09-.08.18-.18a.62.62 0 0 1 .86-.02l4.47 4.2q.07.07.16.06h.48a.07.07 0 0 1 .07.09q-.03.16-.12.27-.09.09-.03.2.29.54.77.44.33-.07.35-.41.01-.13.06-.26.12-.28.29-.03.72 1.04 1.91 1.41.12.04.19.15.14.21-.06.28-.6.21-.14.61.11.1.2.19a.12.12 0 0 0 .17.01q1.35-1.26 2.35-.16.2.22.5.22.34-.01.54-.26.38-.48.75.01.49.64 1.27.5.39-.07.58.28.14.26.39.41.22.13.8.08 1.03-.1 1.65.76.28.39.75.46l2.25.33q.37.05.64.32.94.97 2.23 1.44.46.17.96.15.51-.03.94.33.35.28.78.44 2.46.89 4.9 1.83.79.3 1.46-.24.17-.13.14.08-.02.2.08.37.22.37.52.06.53-.54.78-.23v48.93q.06 1.35-2.21.89-.8-.17-1.99-.92-2.47-1.56-5.44-1.88-.5-.06-.87-.38c-1.84-1.59-4.08-1.61-5.91-2.42q-2.54-1.11-5.17-1.96-2.79-.91-4.91-2.37-5.16-3.54-7.02-4.36-4.24-1.87-6.63-3.72-.71-.55-1.1-1.37-.49-1.03-1.69-.94-.48.04-.91-.16c-4.63-2.18-6.36-4.12-9.63-6.78q-.37-.31-.58-.75-.22-.48-.71-.69c-.78-.34-1.24-.72-1.6-1.38q-.22-.39-.64-.54c-1.23-.43-1.7-1.58-2.36-2.23q-3.13-3.1-6.25-6.22c-2.13-2.12-4.93-4.42-6.56-6.94q-1.1-1.72-1.58-2.18-3.99-3.88-7.27-8.36-2.42-3.3-5.08-6.41-2.62-3.06-4.66-6.52-2.78-4.73-5.71-9.36-1.85-2.92-3.13-5.68-1.36-2.94-2.68-5.9-.41-.9-.75-1.84-1.74-4.72-2.75-9.2-.25-1.11-.55-.01-.29 1.07.22 1.83a.64.59-65.3 0 1 .12.37q.01.98-.33 1.82-.2.5.3.72 1.17.51.68 1.78-.19.48.11.9 1 1.35.56 2.86-.15.5-.02 1.02.28 1.18 1.05 2.06.59.69-.28.46-2.37-.62-2.5-2.93-.07-1.33-.81-2.01a1.12 1.11-69.2 0 1-.35-.79q-.02-.97-.77-1.55a.78.78 0 0 1-.27-.85q.31-.99.13-2.07-.07-.47-.32-.89-.45-.77-.71-1.61-.15-.5-.66-.63l-.34-.08q-.22-.06-.17-.28l.56-2.48q.04-.15-.24-.85-.11-.27-.37-.28-.55-.01-.01-.67.32-.38-.07-.9Q187.2.6 187.78 0Z" fill="#9641fb"/><path d="M239.39 0H300v60q-.25-.31-.78.23-.3.31-.52-.06-.1-.17-.08-.37.03-.21-.14-.08-.67.54-1.46.24-2.44-.94-4.9-1.83-.43-.16-.78-.44-.43-.36-.94-.33-.5.02-.96-.15-1.29-.47-2.23-1.44-.27-.27-.64-.32l-2.25-.33q-.47-.07-.75-.46-.62-.86-1.65-.76-.58.05-.8-.08-.25-.15-.39-.41-.19-.35-.58-.28-.78.14-1.27-.5-.37-.49-.75-.01-.2.25-.54.26-.3 0-.5-.22-1-1.1-2.35.16a.12.12 0 0 1-.17-.01q-.09-.09-.2-.19-.46-.4.14-.61.2-.07.06-.28-.07-.11-.19-.15-1.19-.37-1.91-1.41-.17-.25-.29.03-.05.13-.06.26-.02.34-.35.41-.48.1-.77-.44-.06-.11.03-.2.09-.11.12-.27a.07.07 0 0 0-.07-.09h-.48q-.09.01-.16-.06l-4.47-4.2a.62.62 0 0 0-.86.02q-.09.1-.18.18-.22.22-.48.05-.59-.39-.8-1.12-.17-.59-.53-.11-.15.19-.42.25-.32.08-.47-.22-.29-.58-.92-.86-.42-.18-.36-.64.02-.15.1-.29.11-.17-.02-.34-.18-.24-.54-.17-.56.12-.79-.4-.45-1.01-1.27-1.76-.39-.35-.47-.87-.09-.6-.6-1.13-.29-.3-.7-.31-.58-.01-.53-.6.03-.35-.32-.41-.39-.07-.55-.47-.11-.29.1-.51.1-.11.2-.2.12-.11.05-.25-.84-1.64-2.14-2.89-.22-.21-.48-.06-.11.06-.23.12-.14.07-.14-.09l.01-1.1q0-.15-.14-.08l-.24.13q-.85.45-.95-.5-.09-.85-.88-1.49-.35-.27-.78-.36-.46-.09-.73-.65-.4-.87-.63-1.79-.1-.43-.38-.09-.11.13-.25.2-.31.18-.46-.15-.19-.42.06-.62.45-.36.03-.75-1.04-.96-1.18-2.4-.05-.42-.26-.79-.8-1.4-1.23-3.33-.47-2.11-2.57-8.95c-.7-2.27-1.82-4.51-3.07-6.52q-1-1.61.42-3.29Z" fill="#9e56ff"/><path d="M210.04 140.64q-.24-.13-.3-.28l.01-47.87q0-.29.29-.29l6.61-.04q.36 0 .36.35v19.94q0 .5.48.61c2.41.54 4.13-.08 5.81-2.02q7.62-8.77 15.29-17.77a2.97 2.95-69.7 0 1 2.26-1.05l5.74-.01q1.29 0 .44.97l-19.04 21.79q-.29.33.07.59 1.37 1.01 2.5 2.39 9.05 11.13 18.37 22.47a.12.12 0 0 1-.09.2l-7.78-.11a.7.69 70 0 1-.5-.24q-8.41-9.85-16.13-19.07c-2.09-2.49-4.01-3.16-7.03-2.27q-.45.13-.45.6l.1 20.73a.39.38-90 0 1-.38.39l-6.63-.01ZM73.82 109.05l-.03 31.25a.29.29 0 0 1-.28.29l-6.78.05q-.17 0-.17-.16l.06-41.76a.4.4 0 0 0-.4-.4l-14.5.06q-.47 0-.54-.46l-.22-1.36q.48-1.71.03-3.35a.78.78 0 0 1 .75-.99h36.99a.27.26 0 0 1 .27.26V98a.26.25-90 0 1-.25.26l-14.49.09q-.48 0-.48.48l.04 10.22ZM136.11 119.99l7.89 19.87q.32.8-.55.79l-5.49-.05a1.55 1.53 79.6 0 1-1.42-.99l-4.31-11.18q-.27-.69-1.01-.69l-19.68.01q-.77.01-1.05.73l-4.15 10.85a2 2 0 0 1-1.87 1.29h-4.99q-1.07 0-.67-.99l13.73-34.47 4.99-12.58a.55.54 10 0 1 .51-.35l6.46-.02a.76.75 79 0 1 .72.49l10.89 27.29Zm-6.53 2.48a.28.28 0 0 0 .26-.38l-8.37-21.92a.12.12 0 0 0-.22 0L113.04 122q-.21.55.39.55l16.15-.08ZM162.18 92.03l6.59.14q.56.01.58.58l.07 1.81v39.69a.32.31 0 0 0 .32.31l18.99-.05q1.14-.01 1.14 1.13v4.06q0 1.06-1.06 1.02l-3.24-.11-22.78-.07q-.59 0-.59-.59l-.09-11.88.07-36.04Z" fill="#fff"/><path d="M169.42 94.56q.64 1.08 1.89.8.32-.07.32.26v.33q0 .14.12.21l4 2.56q.41.26.6.71.22.52.75.64.47.1.84.43 2.11 1.9 4.3 3.7c3.13 2.57 5.85 5.63 8.94 8.33 1.93 1.69 3.23 3.76 4.96 5.65q.85.93 1.8 2.46c1.05 1.68 2.4 2.71 3.36 4.56.58 1.1 1.45 1.83 1.89 3.01q1.05 2.83 2.67 5.38a.36.26 66 0 0 .31.18q.06-.01.11-.04.04-.03.06.02.35.69.06 1.3a.67.67 0 0 0 .26.86q.85.51.2 1.38a.66.66 0 0 0 .23.99q.72.36 1.45.1.36-.13.36.25.02 1.25.84 1.73.06.15.3.28-.78-.21-1.03.09a2.06 2.05 49.2 0 0-.17 2.39q.11.19.45.12.37-.08.55.26 1.31 2.48 2.55 5.01.34.7.51 1.57c.32 1.67 1.48 3.11 1.02 4.9a.31.31 0 0 0 .29.38q.15.01.3.01.05 0 .05.05l.22 2.39q.03.33.33.46.44.18.71-.16a.19.19 0 0 1 .34.11q.02.26-.13.53-.24.43-.73.48l-5.86.65-20.15.02q.8.08 1.34-.04.43-.1.14-.44-.81-.94-.38-2.35.04-.11.12-.16.11-.07.27-.11.17-.05.11-.21l-4.65-12.02q-.23-.58-.11-1.18.16-.91-.59-1.1-.13-.04-.04-.13l.4-.4a.02.02 0 0 0-.01-.04q-.77-.3-.32-1.11l3.24.11q1.06.04 1.06-1.02v-4.06q0-1.14-1.14-1.13l-18.99.05a.32.31 0 0 1-.32-.31V94.56Z" fill="#7f2fee"/><path d="m50.96 96.56.22 1.36q.07.46.54.46l14.5-.06a.4.4 0 0 1 .4.4l-.06 41.76q0 .16.17.16l6.78-.05a.29.29 0 0 0 .28-.29l.03-31.25.17-2.82q.01-.16.15-.17h.01q.21-.01.21.19l.01 5.36q0 .24.24.21l.3-.04a.05.04-14.9 0 0 .04-.06q-.43-1.36.38-2.18.37-.37.87-.24 2.55.66 4.9-.63.38-.21.79-.07.2.06.42.05.27 0 .46-.19.54-.53 1.38-.28.42.13.64-.26l.17-.32q.29-.52.78-.17.74.53 1.65.45.46-.05.62.39l.11.31a.72.72 0 0 0 1.04.38q1.14-.66 2.32.18.35.24.6-.1.23-.33.55-.49a.09.09 0 0 0-.01-.16l-.36-.14q-.03 0-.01-.02.71-1 1.71-.88.37.04.72-.08l3.31-1.16q.37-.13.18-.47-.12-.22.13-.43.28-.23.47.08.15.26.1.57a.05.05 0 0 0 .06.06q.23-.06.39-.23.09-.1.21-.05.19.07.28.19.06.08.07-.02.02-.12.07-.24.03-.09.12-.13 3.09-1.3 6.44-1.53 1.13-.07 2.15-.54.43-.19.77.12 1.2 1.07 3.11 1.67l-13.73 34.47q-.4.99.67.99h4.99a2 2 0 0 0 1.87-1.29l4.15-10.85q.28-.72 1.05-.73l19.68-.01q.74 0 1.01.69l4.31 11.18a1.55 1.53 79.6 0 0 1.42.99l5.49.05q.87.01.55-.79l-7.89-19.87.78-2.19a.28.28 0 0 1 .4-.15l.86.47q.47.25.09.64l-.58.57q-.37.37.15.31c.51-.06.85-.43 1.25-.46q.48-.03.8.28l.88.41q.36.17.41-.2.07-.49.47-.2c1.44 1.04 2.4 1.01 4.05.66q.89-.19 1.39.66.25.44.71.21.71-.36 1.2.2.3.34.75.29 1.94-.25 3.39 1.13.38.35.79.04.51-.39 1.03 0 .39.29.87.25 1.17-.09 2.12.49.22.13.19.39-.01.15.3.1.71-.12.71.6v.39a.15.15 0 0 0 .28.08q.3-.45.61-.89.29-.41.6-.47.2-.03.38.04.42.18.36.63-.31 2.32.76 3.8l.09 11.88q0 .59.59.59l22.78.07q-.45.81.32 1.11a.02.02 0 0 1 .01.04l-.4.4q-.09.09.04.13.75.19.59 1.1-.12.6.11 1.18l4.65 12.02q.06.16-.11.21-.16.04-.27.11-.08.05-.12.16-.43 1.41.38 2.35.29.34-.14.44-.54.12-1.34.04l-13.71.02a.56.56 0 0 0-.56.56l-.05 47.51a.37.36-90 0 0 .36.37l28.85-.02q2.55.6 5.25.29.25-.02.29.22l.04.25q.02.12-.1.13l-9.93 1.04q-.89.09-.26.73l.28.28a.62.62 0 0 1 .08.76q-1.46 2.3-2.03 4.97-.11.52-.49.89-.87.86-.72 2.07.06.49-.26.87c-1.15 1.33-1.05 2.84-1.71 4.16q-.9 1.78-1.74 3.57-.21.43-.17.91.05.62-.56.94-.4.21-.32.65.36 1.83-1.12 2.82-.55.36-.2.92.17.27.07.64-.1.36-.36.63-1.05 1.09-.73 2.58.02.09-.08.1-.15.01-.28-.12-.04-.03-.05.01-1.61 5.71-3.1 11.41-.33 1.28-1.02 2.45-.23.39-.28.85-.25 2.04-1.11 3.94-.17.37-.16.79.02 1.09-.6 2.06-.24.38-.16.83.23 1.2-.47 2.13-.28.37-.37.84l-.8 4.31q-.02.11-.13.1-.22-.02-.41.07-.28.13.02.21.41.11.4.61-.01.21-.18.45-1 1.39-.58 3.07a1.29 1.28 54.3 0 1-.16.99q-.42.67-.48 1.5-.03.45.09.87c.35 1.25-.51 2.8-.56 4.61q-.02.43-.57.61-.27.1-.07.3l.35.35q.28.27.06.59c-1.19 1.75-.77 3.98-.57 5.92.37 3.59-1.06 6.28-.18 10q.34 1.44-1.33 1.49H0V106.25q.33.09.38-.44.02-.37.39-.35 3.21.19 6.47-1.32.39-.19.83-.01.4.16.75-.08 1.18-.83 2.41-.39.52.19 1.08.17l6.22-.21q.68-.02.56-.69-.09-.53.31-.84a.31.31 0 0 1 .49.32q-.19.68.27 1.15.53.56.6-.21.07-.73.14-.8 1.54-1.47.82.54-.02.05-.32.4-.23.27.12.26l3.32-.05q.82-.02.27-.62-.44-.5.13-.94.42-.31.76.09.23.28.14.67-.14.62.44.36 1.54-.71 3.29-.62.51.02.81-.39.57-.77 1.59-.26.8.4.61-.23-.14-.49.39-.72.6-.24.83.36.11.31.13.67.03.81.4.31.05-.07.11-.13.34-.31.36-.32 1.94-.26 3.78.3.56.17.78-.37.16-.37.57-.79.35-.34.77-.09.24.14.4.45.21.41.62.18.98-.54 1.86-1.21 1.2-.92 5.04-.96.42 0 .62-.38.53-1.06.62-2.25.03-.44.31-.8.23-.28.18-.64-.02-.14-.05 0-.17.82.36 1.19Zm7.97 93.77c11.33.78 24.63-.46 25.04-14.8.54-18.55-20.47-15.91-32.33-15.59q-.53.01-.53.54l.02 46.82q0 1.05 1.04 1.04h5.26a1.01 1.01 0 0 0 1.01-1.01l.01-16.55q0-.48.48-.45Zm37.88 5.1 20.27.01a.64.64 0 0 1 .6.41l4.16 11.04q.54 1.43 2.07 1.44l4.63.01q1.26.01.8-1.17l-18.58-46.71q-.23-.56-.82-.56l-6.08-.02q-.64 0-.87.59l-18.5 46.47q-.55 1.39.94 1.39l4.06.01q1.87.01 2.53-1.74l4.04-10.65q.19-.52.75-.52Zm70.78 7.2a.44.44 0 0 0-.44-.44l-19.67.01a.44.44 0 0 1-.44-.44l-.02-41.36a.44.44 0 0 0-.44-.44l-6.33.01a.44.44 0 0 0-.44.44l-.01 47.47a.44.44 0 0 0 .44.44l26.92-.02a.44.44 0 0 0 .44-.44l-.01-5.23Z" fill="#7a00e3"/><path d="m129.58 122.47-16.15.08q-.6 0-.39-.55l8.21-21.83a.12.12 0 0 1 .22 0l8.37 21.92a.28.28 0 0 1-.26.38Z" fill="#7a00e3"/><path d="m58.45 190.78-.01 16.55a1.01 1.01 0 0 1-1.01 1.01h-5.26q-1.04.01-1.04-1.04l-.02-46.82q0-.53.53-.54c11.86-.32 32.87-2.96 32.33 15.59-.41 14.34-13.71 15.58-25.04 14.8q-.48-.03-.48.45Zm-.06-24.77.1 18.38a.37.37 0 0 0 .37.37l8.35-.05a9.66 8.76-.3 0 0 9.61-8.81v-1.6a9.66 8.76-.3 0 0-9.71-8.71l-8.35.05a.37.37 0 0 0-.37.37ZM96.06 195.95l-4.04 10.65q-.66 1.75-2.53 1.74l-4.06-.01q-1.49 0-.94-1.39l18.5-46.47q.23-.59.87-.59l6.08.02q.59 0 .82.56l18.58 46.71q.46 1.18-.8 1.17l-4.63-.01q-1.53-.01-2.07-1.44l-4.16-11.04a.64.64 0 0 0-.6-.41l-20.27-.01q-.56 0-.75.52Zm2.96-5.74 15.64.02a.57.56-10.6 0 0 .53-.77l-8.22-21.65q-.09-.23-.17 0l-8.25 21.71q-.26.69.47.69ZM189.29 159.9l20.15-.02 39.18.01a.4.4 0 0 1 .4.4l.06 24.81-.06 22.9a.33.32 0 0 1-.33.32l-44.51.02-28.85.02a.37.36-90 0 1-.36-.37l.05-47.51a.56.56 0 0 1 .56-.56l13.71-.02Zm4.41 33.49q.11-.28.4-.28h13.96q.5 0 .67.46l2.61 7.03a1.94 1.94 0 0 0 1.77 1.26l4.23.11q1.19.03.75-1.08l-13.33-33.99q-.22-.54-.8-.55l-5.63-.03a.75.74-78.7 0 0-.71.48l-13.33 33.84q-.5 1.26.86 1.27l3.93.02q1.38.01 1.87-1.28l2.75-7.26Zm42.36-26.68a.4.4 0 0 0-.4-.4h-5.82a.4.4 0 0 0-.4.4v34.8a.4.4 0 0 0 .4.4h5.82a.4.4 0 0 0 .4-.4v-34.8ZM167.59 202.63l.01 5.23a.44.44 0 0 1-.44.44l-26.92.02a.44.44 0 0 1-.44-.44l.01-47.47a.44.44 0 0 1 .44-.44l6.33-.01a.44.44 0 0 1 .44.44l.02 41.36a.44.44 0 0 0 .44.44l19.67-.01a.44.44 0 0 1 .44.44Z" fill="#fff"/><path d="M58.39 166.01a.37.37 0 0 1 .37-.37l8.35-.05a9.66 8.76-.3 0 1 9.71 8.71v1.6a9.66 8.76-.3 0 1-9.61 8.81l-8.35.05a.37.37 0 0 1-.37-.37l-.1-18.38Z" fill="#7a00e3"/><path d="m193.7 193.39-2.75 7.26q-.49 1.29-1.87 1.28l-3.93-.02q-1.36-.01-.86-1.27l13.33-33.84a.75.74-78.7 0 1 .71-.48l5.63.03q.58.01.8.55l13.33 33.99q.44 1.11-.75 1.08l-4.23-.11a1.94 1.94 0 0 1-1.77-1.26l-2.61-7.03q-.17-.46-.67-.46H194.1q-.29 0-.4.28Zm8.06-19.31-.08-.95a.33.32-37.6 0 0-.63-.08l-5.37 14.85a.46.45-80.2 0 0 .43.62l10.35-.06q.41 0 .27-.39l-4.75-13.03q-.17-.47-.22-.96Z" fill="#7f2fee"/><rect rx=".4" height="35.6" width="6.62" y="166.31" x="229.44" fill="#7f2fee"/><path d="m114.66 190.23-15.64-.02q-.73 0-.47-.69l8.25-21.71q.08-.23.17 0l8.22 21.65a.57.56-10.6 0 1-.53.77Z" fill="#7a00e3"/><path d="M300 170.09V300H176.71q1.67-.05 1.33-1.49c-.88-3.72.55-6.41.18-10-.2-1.94-.62-4.17.57-5.92q.22-.32-.06-.59l-.35-.35q-.2-.2.07-.3.55-.18.57-.61c.05-1.81.91-3.36.56-4.61q-.12-.42-.09-.87.06-.83.48-1.5a1.29 1.28 54.3 0 0 .16-.99q-.42-1.68.58-3.07.17-.24.18-.45.01-.5-.4-.61-.3-.08-.02-.21.19-.09.41-.07.11.01.13-.1l.8-4.31q.09-.47.37-.84.7-.93.47-2.13-.08-.45.16-.83.62-.97.6-2.06-.01-.42.16-.79.86-1.9 1.11-3.94.05-.46.28-.85.69-1.17 1.02-2.45 1.49-5.7 3.1-11.41.01-.04.05-.01.13.13.28.12.1-.01.08-.1-.32-1.49.73-2.58.26-.27.36-.63.1-.37-.07-.64-.35-.56.2-.92 1.48-.99 1.12-2.82-.08-.44.32-.65.61-.32.56-.94-.04-.48.17-.91.84-1.79 1.74-3.57c.66-1.32.56-2.83 1.71-4.16q.32-.38.26-.87-.15-1.21.72-2.07.38-.37.49-.89.57-2.67 2.03-4.97a.62.62 0 0 0-.08-.76l-.28-.28q-.63-.64.26-.73l9.93-1.04q.12-.01.1-.13l-.04-.25q-.04-.24-.29-.22-2.7.31-5.25-.29l44.51-.02a.33.32 0 0 0 .33-.32l.06-22.9q.83 2.31.53 4.99 0 .04.03.04h.02q.02.01.02-.02.09-1.36.23-2.74.03-.24.27-.26.84-.06.68.88-.13.8.39.24.92-.98 2.36-.57 1.67.48 3.4.31a1.9.18 29 0 1 1.49.65q.44.23.64.68.24.53.7.18 1.93-1.43 3.75.05.19.16.31-.06 1.37-2.61 1.97-5.46.54-2.6.77-.04.03.38-.05 1.59-.03.41.36.55 1.14.39 1.42-.93.07-.35.28-.07.3.41.72.65.23.13.43-.03.15-.12.26-.3a.49.48-76.6 0 1 .38-.24q.35-.02.53.26.08.14.21.23.82.59 1.73.21a.32.32 0 0 1 .45.29q0 .17.01.35 0 .11.1.1h.29q.36.01.48-.34l1.65-4.9q.17-.53-.38-.47-.48.05-.4.35a.27.27 0 0 1-.4.31q-1.16-.67-2.52-.74-.64-.03-.51-.65.43-2.16.49-4.37a.9.9 0 0 0-.05-.35q-.24-.8.22-1.49.22-.32.55-.12l.6.36a.96.94 46.4 0 0 .95.03q.9-.46 1.58.23.37.38.78.02l.23-.21q.22-.19.48-.05 1.34.71 2.75.39.39-.09.76.06.55.22.91-.16.34-.35.82-.42l4.89-.71a.67.67 0 0 1 .43.09q.41.28.79-.07.36-.33.75-.04.25.18.52.21.47.06.69-.37.29-.56 1.01-.45c1.32.21 2.49.03 3.8.39q.44.13.81-.14l2.36-1.67q.23-.16.35.1.07.14.13.28a.09.09 0 0 0 .17-.01l.55-1.63Z" fill="#7f2fee"/><path d="m201.98 175.04 4.75 13.03q.14.39-.27.39l-10.35.06a.46.45-80.2 0 1-.43-.62l5.37-14.85a.33.32-37.6 0 1 .63.08l.08.95q.05.49.22.96Z" fill="#fff"/></svg>