<svg viewBox="0.00 0.00 256.00 256.00" version="1.1" xmlns="http://www.w3.org/2000/svg">
<g stroke-linecap="butt" fill="none" stroke-width="2.00">
<path d="M 116.27 46.19
  L 115.00 45.95" stroke="#801079"></path>
<path d="M 115.00 45.95
  Q 100.93 43.92 91.46 53.71
  Q 87.86 57.43 84.44 60.76" stroke="#80085d"></path>
<path d="M 84.44 60.76
  Q 76.44 62.27 71.35 65.35
  Q 63.17 70.29 59.82 79.73" stroke="#015469"></path>
<path d="M 59.82 79.73
  Q 51.62 85.49 51.46 96.41" stroke="#000c13"></path>
<path d="M 51.46 96.41
  L 50.54 97.66" stroke="#780768"></path>
<path d="M 50.54 97.66
  Q 41.75 109.04 45.65 121.57
  Q 47.85 128.63 48.37 131.02" stroke="#660080"></path>
<path d="M 48.37 131.02
  C 45.08 141.00 44.25 150.06 50.63 159.11" stroke="#003861"></path>
<path d="M 50.63 159.11
  Q 51.02 159.95 51.92 163.25
  Q 54.48 172.59 63.00 178.34" stroke="#015e69"></path>
<path d="M 63.00 178.34
  L 63.38 178.83" stroke="#696480"></path>
<path d="M 63.38 178.83
  C 67.52 188.98 74.45 193.30 84.62 195.71
  Q 88.37 196.59 91.67 197.59" stroke="#660080"></path>
<path d="M 91.67 197.59
  Q 96.16 203.28 101.61 206.40
  Q 108.58 210.41 116.77 209.34" stroke="#000153"></path>
<path d="M 116.77 209.34
  L 119.23 210.12" stroke="#006580"></path>
<path d="M 119.23 210.12
  Q 128.42 213.06 136.44 209.91
  Q 139.36 208.77 140.69 208.44" stroke="#015e69"></path>
<path d="M 140.69 208.44
  C 151.72 209.66 158.42 205.68 165.55 198.15
  Q 168.41 195.13 170.97 192.74" stroke="#660080"></path>
<path d="M 170.97 192.74
  Q 186.61 191.23 193.26 177.46" stroke="#000153"></path>
<path d="M 193.26 177.46
  L 194.72 176.00" stroke="#006580"></path>
<path d="M 194.72 176.00
  Q 203.30 168.56 203.81 157.22" stroke="#015e69"></path>
<path d="M 203.81 157.22
  Q 203.70 157.04 204.25 156.04" stroke="#675080"></path>
<path d="M 204.25 156.04
  Q 204.93 155.62 205.41 154.90
  C 210.55 147.00 210.84 139.47 208.24 130.67
  Q 206.96 126.32 205.99 122.48" stroke="#660080"></path>
<path d="M 205.99 122.48
  Q 208.44 117.03 208.74 111.52
  Q 209.21 102.61 203.79 94.93" stroke="#000153"></path>
<path d="M 203.79 94.93
  Q 203.63 93.92 202.80 93.22" stroke="#01226b"></path>
<path d="M 202.80 93.22
  Q 203.14 92.34 203.04 91.99
  Q 200.55 82.58 192.77 76.77
  Q 192.46 76.54 191.86 76.74" stroke="#0e1e34"></path>
<path d="M 191.86 76.74
  L 190.84 74.50" stroke="#801079"></path>
<path d="M 190.84 74.50
  Q 185.26 62.07 172.82 59.15
  Q 165.17 57.36 162.81 56.60" stroke="#80085d"></path>
<path d="M 162.81 56.60
  Q 159.08 51.92 154.58 48.92
  Q 147.03 43.89 137.45 44.68" stroke="#01226b"></path>
<path d="M 137.45 44.68
  L 136.11 44.71" stroke="#003878"></path>
<path d="M 136.11 44.71
  Q 125.77 40.93 116.27 45.69
  Q 116.08 45.78 116.14 45.98
  Q 116.17 46.09 116.27 46.19" stroke="#000153"></path>
<path d="M 136.11 44.71
  L 125.93 47.81" stroke="#0039cb"></path>
<path d="M 125.93 47.81
  Q 126.01 48.22 125.13 48.07
  Q 120.67 47.33 116.27 46.19" stroke="#8011cc"></path>
<path d="M 157.79 55.73
  Q 157.90 56.77 158.36 57.45" stroke="#ff18d5"></path>
<path d="M 158.36 57.45
  Q 150.64 56.28 143.29 57.08" stroke="#fe84f8"></path>
<path d="M 143.29 57.08
  C 134.80 51.37 127.30 47.95 117.38 53.33
  Q 117.16 53.44 117.13 53.69
  Q 117.12 53.83 117.01 54.02" stroke="#ff18d5"></path>
<path d="M 117.01 54.02
  L 115.83 53.81" stroke="#8047d9"></path>
<path d="M 115.83 53.81
  Q 110.96 52.23 106.55 53.50" stroke="#805ff2"></path>
<path d="M 106.55 53.50
  Q 104.34 53.63 102.31 54.77" stroke="#8032e4"></path>
<path d="M 102.31 54.77
  Q 99.19 55.96 97.14 58.53" stroke="#805ff2"></path>
<path d="M 97.14 58.53
  Q 96.39 58.73 96.38 59.03" stroke="#8074f8"></path>
<path d="M 96.38 59.03
  L 94.47 59.10" stroke="#fd48ed"></path>
<path d="M 137.45 44.68
  L 152.42 54.24" stroke="#015ae3"></path>
<path d="M 152.42 54.24
  L 126.64 48.59
  Q 126.27 48.51 126.11 48.17
  Q 126.04 48.02 125.93 47.81" stroke="#8048f1"></path>
<path d="M 190.84 74.50
  Q 190.48 75.36 190.00 75.07
  Q 178.15 68.05 168.74 63.22" stroke="#ff18d5"></path>
<path d="M 168.74 63.22
  Q 164.05 59.81 158.36 57.45" stroke="#fe7cdc"></path>
<path d="M 84.50 71.73
  L 71.11 86.16" stroke="#8b56a8"></path>
<path d="M 71.11 86.16
  C 73.13 80.01 77.76 71.54 81.47 66.57" stroke="#f53fdd"></path>
<path d="M 143.29 57.08
  L 133.26 57.60" stroke="#fe7cdc"></path>
<path d="M 133.26 57.60
  L 131.70 57.52" stroke="#8353b4"></path>
<path d="M 131.70 57.52
  L 123.63 55.66" stroke="#80085d"></path>
<path d="M 123.63 55.66
  L 117.01 54.02" stroke="#8040bd"></path>
<path d="M 115.00 45.95
  L 95.13 57.66
  Q 94.72 57.90 94.62 58.36
  L 94.47 59.10" stroke="#ff18d5"></path>
<path d="M 94.47 59.10
  Q 87.02 60.86 81.47 66.57" stroke="#fd40d1"></path>
<path d="M 81.47 66.57
  Q 81.02 66.38 80.71 66.10
  Q 80.40 65.84 80.57 65.47
  Q 80.69 65.21 80.62 64.94" stroke="#f80fc5"></path>
<path d="M 80.62 64.94
  L 84.44 60.76" stroke="#805cc5"></path>
<path d="M 168.74 63.22
  L 170.89 66.28" stroke="#fe84f8"></path>
<path d="M 170.89 66.28
  Q 170.77 66.26 170.65 66.24" stroke="#7facf8"></path>
<path d="M 170.65 66.24
  L 154.48 62.58" stroke="#7fecff"></path>
<path d="M 154.48 62.58
  L 140.38 59.31" stroke="#7fd2e9"></path>
<path d="M 140.38 59.31
  L 133.26 57.60" stroke="#82bfd7"></path>
<path d="M 115.83 53.81
  L 110.82 57.32
  Q 109.48 58.26 111.10 57.98
  Q 112.85 57.67 115.60 58.33" stroke="#0187da"></path>
<path d="M 115.60 58.33
  L 105.75 61.16" stroke="#0489bf"></path>
<path d="M 105.75 61.16
  Q 107.74 60.44 108.29 58.97
  Q 108.61 58.10 107.69 58.14
  L 97.14 58.53" stroke="#01b4f9"></path>
<path d="M 102.31 54.77
  Q 104.62 54.79 106.55 53.50" stroke="#0171e4"></path>
<path d="M 162.81 56.60
  L 157.79 55.73" stroke="#802ac8"></path>
<path d="M 157.79 55.73
  L 152.42 54.24" stroke="#8032e4"></path>
<path d="M 123.63 55.66
  L 117.23 57.83" stroke="#003861"></path>
<path d="M 117.23 57.83
  Q 116.35 58.27 115.60 58.33" stroke="#0472a6"></path>
<path d="M 90.08 66.14
  L 96.38 59.03" stroke="#7d9df4"></path>
<path d="M 191.86 76.74
  L 194.62 85.97" stroke="#8e2dac"></path>
<path d="M 194.62 85.97
  L 203.34 113.94" stroke="#8032e4"></path>
<path d="M 203.34 113.94
  L 204.50 118.75" stroke="#8011cc"></path>
<path d="M 204.50 118.75
  Q 204.15 119.68 203.46 120.41" stroke="#e610f8"></path>
<path d="M 203.46 120.41
  Q 200.91 112.43 195.98 106.07" stroke="#e974f8"></path>
<path d="M 195.98 106.07
  Q 196.47 102.30 196.42 98.87
  Q 196.22 87.41 186.47 81.63
  Q 185.90 81.29 185.41 81.35" stroke="#f816e1"></path>
<path d="M 185.41 81.35
  Q 185.13 80.73 184.95 80.72" stroke="#8011cc"></path>
<path d="M 184.95 80.72
  Q 185.02 79.40 184.26 77.75
  Q 180.05 68.60 170.89 66.28" stroke="#8048f1"></path>
<path d="M 70.43 100.98
  Q 67.84 98.76 64.36 97.38" stroke="#28356f"></path>
<path d="M 64.36 97.38
  Q 66.81 93.78 68.01 89.62" stroke="#0e1e34"></path>
<path d="M 71.11 86.16
  L 68.01 89.62" stroke="#86249c"></path>
<path d="M 68.01 89.62
  L 63.62 94.40" stroke="#780768"></path>
<path d="M 63.62 94.40
  L 57.04 101.43" stroke="#7956e1"></path>
<path d="M 57.04 101.43
  Q 54.49 103.84 53.44 107.26" stroke="#7965d1"></path>
<path d="M 53.44 107.26
  Q 52.10 109.38 52.15 111.86" stroke="#921ea4"></path>
<path d="M 52.15 111.86
  Q 51.55 115.13 52.34 118.47" stroke="#7965d1"></path>
<path d="M 52.34 118.47
  Q 52.17 119.64 52.54 119.50" stroke="#7b72e2"></path>
<path d="M 52.54 119.50
  Q 52.45 119.64 52.41 119.75
  Q 52.38 119.84 52.30 119.77
  Q 51.57 119.15 50.96 120.05" stroke="#e16be8"></path>
<path d="M 50.96 120.05
  L 50.54 97.66" stroke="#de07e8"></path>
<path d="M 51.46 96.41
  L 57.83 89.62" stroke="#78127b"></path>
<path d="M 120.18 64.79
  Q 111.35 65.18 102.33 65.46
  Q 96.52 65.64 93.39 66.98
  Q 89.21 68.77 85.67 72.21" stroke="#043a46"></path>
<path d="M 85.67 72.21
  Q 85.14 72.29 84.50 71.73" stroke="#125879"></path>
<path d="M 84.50 71.73
  L 90.08 66.14" stroke="#8172ba"></path>
<path d="M 90.08 66.14
  L 105.75 61.16" stroke="#049fc5"></path>
<path d="M 140.38 59.31
  Q 139.53 59.99 139.19 61.50
  Q 139.07 62.01 138.67 62.34
  Q 137.01 63.72 138.18 64.17" stroke="#04a9c0"></path>
<path d="M 138.18 64.17
  L 120.18 64.79" stroke="#034b57"></path>
<path d="M 120.18 64.79
  C 121.74 62.87 123.85 60.16 123.76 57.81" stroke="#07859d"></path>
<path d="M 131.70 57.52
  L 131.44 57.67
  Q 131.15 57.84 130.82 57.84
  L 123.76 57.81" stroke="#034b57"></path>
<path d="M 123.76 57.81
  L 117.23 57.83" stroke="#043a46"></path>
<path d="M 80.62 64.94
  L 57.83 89.62" stroke="#795bd1"></path>
<path d="M 57.83 89.62
  L 59.82 79.73" stroke="#01607b"></path>
<path d="M 184.95 80.72
  L 177.91 77.15" stroke="#0039cb"></path>
<path d="M 177.91 77.15
  Q 177.54 76.94 176.89 75.77" stroke="#03a4f2"></path>
<path d="M 154.48 62.58
  L 154.09 62.92
  Q 153.76 63.22 154.19 63.33
  Q 154.95 63.54 155.42 63.96" stroke="#01d6e9"></path>
<path d="M 155.42 63.96
  L 138.18 64.17" stroke="#015e69"></path>
<path d="M 170.65 66.24
  L 176.89 75.77" stroke="#01b0f8"></path>
<path d="M 176.89 75.77
  Q 176.86 76.63 176.30 76.96
  Q 175.94 77.17 175.69 76.85
  Q 174.65 75.54 171.76 73.59
  Q 167.49 70.70 165.43 70.19" stroke="#04e4fa"></path>
<path d="M 165.43 70.19
  Q 161.52 66.19 155.42 63.96" stroke="#017880"></path>
<path d="M 204.25 156.04
  L 204.03 155.47
  A 1.92 1.71 37.3 0 1 203.90 154.80
  L 203.59 131.33" stroke="#cd50ff"></path>
<path d="M 202.80 93.22
  L 194.62 85.97" stroke="#0f409f"></path>
<path d="M 203.46 120.41
  L 203.59 131.33" stroke="#cf64ff"></path>
<path d="M 203.59 131.33
  Q 202.34 131.90 202.10 133.27
  Q 202.04 133.61 201.80 133.36
  Q 201.59 133.15 201.41 133.25" stroke="#d0b4ff"></path>
<path d="M 201.41 133.25
  L 193.35 107.09" stroke="#69c9ff"></path>
<path d="M 185.41 81.35
  L 187.42 88.35" stroke="#7808bb"></path>
<path d="M 187.42 88.35
  L 182.44 84.37" stroke="#000153"></path>
<path d="M 205.99 122.48
  L 204.50 118.75" stroke="#6601d3"></path>
<path d="M 203.79 94.93
  L 203.34 113.94" stroke="#0123be"></path>
<path d="M 195.98 106.07
  L 190.75 97.98" stroke="#e16be8"></path>
<path d="M 189.92 96.24
  L 187.42 88.35" stroke="#780768"></path>
<path d="M 64.36 97.38
  Q 63.91 99.29 62.41 100.36" stroke="#1a173c"></path>
<path d="M 62.41 100.36
  L 63.62 94.40" stroke="#014f79"></path>
<path d="M 58.67 123.25
  Q 57.57 122.99 57.75 122.05" stroke="#1a7cbb"></path>
<path d="M 57.75 122.05
  L 61.42 104.68" stroke="#1d83b6"></path>
<path d="M 165.43 70.19
  L 189.41 108.36" stroke="#036c7a"></path>
<path d="M 189.41 108.36
  C 193.99 115.70 197.96 119.91 196.32 129.97" stroke="#006580"></path>
<path d="M 196.32 129.97
  L 184.23 153.20" stroke="#0f2f48"></path>
<path d="M 184.23 153.20
  L 168.28 182.95" stroke="#0e1e34"></path>
<path d="M 168.28 182.95
  L 158.56 188.69" stroke="#006580"></path>
<path d="M 158.56 188.69
  L 99.57 190.57" stroke="#27093e"></path>
<path d="M 99.57 190.57
  L 89.76 185.09" stroke="#036c7a"></path>
<path d="M 89.76 185.09
  L 58.94 135.90" stroke="#27093e"></path>
<path d="M 58.94 135.90
  Q 57.79 129.84 58.67 123.25" stroke="#006580"></path>
<path d="M 58.67 123.25
  L 70.43 100.98" stroke="#1a173c"></path>
<path d="M 70.43 100.98
  L 85.67 72.21" stroke="#0e1e34"></path>
<path d="M 56.20 129.98
  L 58.08 136.53" stroke="#69c9ff"></path>
<path d="M 58.08 136.53
  L 58.60 139.15" stroke="#906dbd"></path>
<path d="M 58.60 139.15
  Q 58.21 153.27 58.51 157.75
  Q 59.19 167.92 69.18 173.33" stroke="#cf64ff"></path>
<path d="M 69.18 173.33
  Q 69.30 173.46 69.76 173.65" stroke="#6a86eb"></path>
<path d="M 69.76 173.65
  Q 69.52 174.62 70.07 175.97
  Q 73.76 185.02 83.12 187.80" stroke="#6adcff"></path>
<path d="M 83.12 187.80
  L 100.48 191.47" stroke="#6cd0fa"></path>
<path d="M 100.48 191.47
  L 103.51 192.75" stroke="#906dbd"></path>
<path d="M 103.51 192.75
  Q 115.51 200.56 119.91 202.36
  Q 129.43 206.27 138.63 200.42" stroke="#cf64ff"></path>
<path d="M 138.63 200.42
  Q 138.49 200.43 138.34 200.44" stroke="#6965d3"></path>
<path d="M 138.34 200.44
  Q 145.89 202.45 152.27 199.52
  Q 155.64 197.96 160.58 192.61
  Q 164.81 188.03 169.03 183.44" stroke="#69c9ff"></path>
<path d="M 169.03 183.44
  L 172.10 180.44" stroke="#7782b3"></path>
<path d="M 172.10 180.44
  L 174.37 179.93" stroke="#cf64ff"></path>
<path d="M 174.37 179.93
  Q 172.38 185.63 168.36 191.85" stroke="#e8d8ff"></path>
<path d="M 168.36 191.85
  L 140.16 208.25" stroke="#cf64ff"></path>
<path d="M 140.16 208.25
  L 129.22 206.01" stroke="#6ac2e9"></path>
<path d="M 129.22 206.01
  L 99.78 199.35" stroke="#69c9ff"></path>
<path d="M 99.78 199.35
  Q 98.92 199.27 97.79 198.40" stroke="#6965d3"></path>
<path d="M 97.79 198.40
  L 63.38 178.83" stroke="#cf64ff"></path>
<path d="M 63.00 178.34
  L 59.72 167.68" stroke="#6ac2e9"></path>
<path d="M 59.72 167.68
  L 51.21 140.17" stroke="#6adcff"></path>
<path d="M 51.21 140.17
  L 50.80 137.38" stroke="#699ce0"></path>
<path d="M 50.96 120.05
  L 50.80 137.38" stroke="#cf64ff"></path>
<path d="M 50.80 137.38
  L 48.37 131.02" stroke="#6638e0"></path>
<path d="M 62.41 100.36
  L 61.42 104.68" stroke="#1b66b5"></path>
<path d="M 61.42 104.68
  Q 60.09 105.51 58.89 108.32" stroke="#04bbf3"></path>
<path d="M 58.89 108.32
  L 58.27 102.25
  A 0.12 0.12 0.0 0 0 58.07 102.18
  Q 57.97 102.29 57.86 102.38
  A 0.14 0.14 0.0 0 1 57.63 102.27
  Q 57.66 101.94 57.56 101.65
  Q 57.50 101.47 57.38 101.41
  Q 57.22 101.33 57.04 101.43" stroke="#01ade2"></path>
<path d="M 57.75 122.05
  L 56.20 129.98" stroke="#03d0fa"></path>
<path d="M 56.20 129.98
  L 52.54 119.50" stroke="#6cd0fa"></path>
<path d="M 58.89 108.32
  Q 56.15 112.82 53.58 117.82
  Q 53.38 118.19 53.12 118.37
  Q 52.64 118.70 52.34 118.47" stroke="#04cae3"></path>
<path d="M 52.15 111.86
  L 53.44 107.26" stroke="#1b75a5"></path>
<path d="M 177.91 77.15
  L 182.44 84.37" stroke="#036dcd"></path>
<path d="M 182.44 84.37
  L 189.92 96.24" stroke="#036c7a"></path>
<path d="M 189.92 96.24
  L 190.75 97.98" stroke="#7b72e2"></path>
<path d="M 190.75 97.98
  L 193.35 107.09" stroke="#6cd0fa"></path>
<path d="M 193.35 107.09
  Q 192.46 107.46 191.37 107.37
  Q 190.90 107.34 190.58 107.67
  Q 190.13 108.15 189.41 108.36" stroke="#03d0fa"></path>
<path d="M 203.81 157.22
  L 196.54 165.07" stroke="#67aee9"></path>
<path d="M 196.54 165.07
  L 181.38 181.09" stroke="#67b5ff"></path>
<path d="M 181.38 181.09
  Q 181.04 179.29 181.85 176.75
  Q 182.08 176.00 181.01 175.86" stroke="#e5c4ff"></path>
<path d="M 181.01 175.86
  C 190.12 170.84 197.05 166.27 196.31 154.41" stroke="#cd50ff"></path>
<path d="M 196.31 154.41
  Q 196.32 154.14 196.52 153.84" stroke="#6751d3"></path>
<path d="M 196.52 153.84
  Q 204.70 145.83 201.85 134.58" stroke="#6788f8"></path>
<path d="M 201.41 133.25
  Q 201.50 134.36 201.85 134.58" stroke="#67b5ff"></path>
<path d="M 201.85 134.58
  Q 199.37 138.99 197.29 143.09
  Q 197.20 143.26 197.06 143.32
  Q 196.93 143.37 196.80 143.36
  Q 196.31 143.31 196.39 142.83
  Q 196.95 139.56 196.18 136.75" stroke="#009df8"></path>
<path d="M 196.18 136.75
  Q 197.07 132.63 196.32 129.97" stroke="#0f94c8"></path>
<path d="M 58.94 135.90
  Q 58.65 136.40 58.08 136.53" stroke="#276dbd"></path>
<path d="M 99.57 190.57
  Q 100.23 191.02 100.48 191.47" stroke="#2a74b8"></path>
<path d="M 138.34 200.44
  L 145.67 196.30" stroke="#0066d3"></path>
<path d="M 145.67 196.30
  L 153.05 191.93" stroke="#0187eb"></path>
<path d="M 153.05 191.93
  L 158.56 188.69" stroke="#276dbd"></path>
<path d="M 190.04 157.12
  L 186.20 165.14" stroke="#0e1e34"></path>
<path d="M 186.20 165.14
  L 172.10 180.44" stroke="#741eb3"></path>
<path d="M 169.03 183.44
  Q 169.01 183.31 168.98 183.15
  Q 168.94 182.92 168.70 182.88
  Q 168.52 182.84 168.28 182.95" stroke="#0e82b3"></path>
<path d="M 153.05 191.93
  L 139.59 195.87" stroke="#282ba9"></path>
<path d="M 139.59 195.87
  L 136.64 196.30" stroke="#270a91"></path>
<path d="M 136.64 196.30
  L 124.22 197.16" stroke="#27093e"></path>
<path d="M 124.22 197.16
  L 103.51 192.75" stroke="#8d09bd"></path>
<path d="M 196.18 136.75
  L 193.04 151.11" stroke="#0f67c0"></path>
<path d="M 193.04 151.11
  L 191.82 153.89" stroke="#0f309b"></path>
<path d="M 191.82 153.89
  Q 190.48 155.49 190.04 157.12" stroke="#0f2f48"></path>
<path d="M 190.04 157.12
  Q 188.82 156.26 187.75 156.03
  Q 187.29 155.93 186.99 155.56
  Q 185.91 154.23 184.23 153.20" stroke="#1d4d7c"></path>
<path d="M 89.76 185.09
  L 82.03 180.47" stroke="#2a74b8"></path>
<path d="M 82.03 180.47
  Q 82.22 180.43 82.28 180.30
  Q 82.38 180.09 82.21 179.92
  L 72.00 170.10" stroke="#282ba9"></path>
<path d="M 72.00 170.10
  L 64.88 158.91" stroke="#27093e"></path>
<path d="M 64.88 158.91
  L 58.60 139.15" stroke="#8d09bd"></path>
<path d="M 124.22 197.16
  L 131.71 198.79" stroke="#660080"></path>
<path d="M 131.71 198.79
  L 138.63 200.42" stroke="#6601d3"></path>
<path d="M 51.21 140.17
  L 51.09 157.30" stroke="#01b0e0"></path>
<path d="M 51.09 157.30
  Q 51.28 158.21 50.63 159.11" stroke="#0196ca"></path>
<path d="M 97.79 198.40
  L 91.67 197.59" stroke="#6601d3"></path>
<path d="M 99.78 199.35
  L 116.77 209.34" stroke="#0066d3"></path>
<path d="M 140.69 208.44
  Q 140.60 208.15 140.16 208.25" stroke="#675ee9"></path>
<path d="M 176.29 187.28
  L 173.81 188.98" stroke="#7f75d3"></path>
<path d="M 173.81 188.98
  L 168.36 191.85" stroke="#e574ff"></path>
<path d="M 82.03 180.47
  L 78.08 178.60" stroke="#048ee5"></path>
<path d="M 78.08 178.60
  L 69.76 173.65" stroke="#019aeb"></path>
<path d="M 64.88 158.91
  L 67.15 166.09" stroke="#660080"></path>
<path d="M 67.15 166.09
  L 69.18 173.33" stroke="#6722eb"></path>
<path d="M 129.22 206.01
  L 119.23 210.12" stroke="#01c3e9"></path>
<path d="M 78.08 178.60
  L 83.12 187.80" stroke="#04e4fa"></path>
<path d="M 59.72 167.68
  Q 54.97 165.16 51.97 160.79
  C 51.28 159.79 51.37 158.48 51.09 157.30" stroke="#01d6e9"></path>
<path d="M 181.01 175.86
  L 174.37 179.93" stroke="#e574ff"></path>
<path d="M 193.26 177.46
  L 176.29 187.28" stroke="#0066d3"></path>
<path d="M 176.29 187.28
  L 181.38 181.09" stroke="#7fd9ff"></path>
<path d="M 196.31 154.41
  L 191.42 159.27" stroke="#6601d3"></path>
<path d="M 191.42 159.27
  L 191.82 153.89" stroke="#000153"></path>
<path d="M 196.52 153.84
  L 196.37 146.20
  Q 196.34 145.00 195.77 146.05
  L 193.04 151.11" stroke="#0039cb"></path>
<path d="M 194.72 176.00
  L 196.54 165.07" stroke="#01c3e9"></path>
<path d="M 145.67 196.30
  L 139.59 195.87" stroke="#0123be"></path>
<path d="M 191.42 159.27
  L 186.20 165.14" stroke="#660080"></path>
<path d="M 136.64 196.30
  Q 133.71 197.28 131.71 198.79" stroke="#000153"></path>
<path d="M 72.00 170.10
  L 67.15 166.09" stroke="#01226b"></path>
<path d="M 170.97 192.74
  L 173.81 188.98" stroke="#6601d3"></path>
</g>
<path d="M 119.88 0.00
  L 134.49 0.00
  Q 174.42 2.79 204.43 26.06
  C 262.90 71.39 271.55 156.56 221.94 211.95
  C 175.11 264.24 93.02 269.05 41.10 220.90
  Q 3.89 186.38 0.00 134.38
  L 0.00 119.73
  Q 4.92 59.58 51.83 24.59
  Q 81.28 2.62 119.88 0.00
  Z
  M 116.27 46.19
  L 115.00 45.95
  Q 100.93 43.92 91.46 53.71
  Q 87.86 57.43 84.44 60.76
  Q 76.44 62.27 71.35 65.35
  Q 63.17 70.29 59.82 79.73
  Q 51.62 85.49 51.46 96.41
  L 50.54 97.66
  Q 41.75 109.04 45.65 121.57
  Q 47.85 128.63 48.37 131.02
  C 45.08 141.00 44.25 150.06 50.63 159.11
  Q 51.02 159.95 51.92 163.25
  Q 54.48 172.59 63.00 178.34
  L 63.38 178.83
  C 67.52 188.98 74.45 193.30 84.62 195.71
  Q 88.37 196.59 91.67 197.59
  Q 96.16 203.28 101.61 206.40
  Q 108.58 210.41 116.77 209.34
  L 119.23 210.12
  Q 128.42 213.06 136.44 209.91
  Q 139.36 208.77 140.69 208.44
  C 151.72 209.66 158.42 205.68 165.55 198.15
  Q 168.41 195.13 170.97 192.74
  Q 186.61 191.23 193.26 177.46
  L 194.72 176.00
  Q 203.30 168.56 203.81 157.22
  Q 203.70 157.04 204.25 156.04
  Q 204.93 155.62 205.41 154.90
  C 210.55 147.00 210.84 139.47 208.24 130.67
  Q 206.96 126.32 205.99 122.48
  Q 208.44 117.03 208.74 111.52
  Q 209.21 102.61 203.79 94.93
  Q 203.63 93.92 202.80 93.22
  Q 203.14 92.34 203.04 91.99
  Q 200.55 82.58 192.77 76.77
  Q 192.46 76.54 191.86 76.74
  L 190.84 74.50
  Q 185.26 62.07 172.82 59.15
  Q 165.17 57.36 162.81 56.60
  Q 159.08 51.92 154.58 48.92
  Q 147.03 43.89 137.45 44.68
  L 136.11 44.71
  Q 125.77 40.93 116.27 45.69
  Q 116.08 45.78 116.14 45.98
  Q 116.17 46.09 116.27 46.19
  Z" fill="#000000"></path>
<path d="M 136.11 44.71
  L 125.93 47.81
  Q 126.01 48.22 125.13 48.07
  Q 120.67 47.33 116.27 46.19
  Q 116.17 46.09 116.14 45.98
  Q 116.08 45.78 116.27 45.69
  Q 125.77 40.93 136.11 44.71
  Z" fill="#0002a6"></path>
<path d="M 137.45 44.68
  L 152.42 54.24
  L 126.64 48.59
  Q 126.27 48.51 126.11 48.17
  Q 126.04 48.02 125.93 47.81
  L 136.11 44.71
  L 137.45 44.68
  Z" fill="#0070f0"></path>
<path d="M 162.81 56.60
  L 157.79 55.73
  L 152.42 54.24
  L 137.45 44.68
  Q 147.03 43.89 154.58 48.92
  Q 159.08 51.92 162.81 56.60
  Z" fill="#0144d6"></path>
<path d="M 115.00 45.95
  L 95.13 57.66
  Q 94.72 57.90 94.62 58.36
  L 94.47 59.10
  Q 87.02 60.86 81.47 66.57
  Q 81.02 66.38 80.71 66.10
  Q 80.40 65.84 80.57 65.47
  Q 80.69 65.21 80.62 64.94
  L 84.44 60.76
  Q 87.86 57.43 91.46 53.71
  Q 100.93 43.92 115.00 45.95
  Z" fill="#ff10b9"></path>
<path d="M 115.00 45.95
  L 116.27 46.19
  Q 120.67 47.33 125.13 48.07
  Q 126.01 48.22 125.93 47.81
  Q 126.04 48.02 126.11 48.17
  Q 126.27 48.51 126.64 48.59
  L 152.42 54.24
  L 157.79 55.73
  Q 157.90 56.77 158.36 57.45
  Q 150.64 56.28 143.29 57.08
  C 134.80 51.37 127.30 47.95 117.38 53.33
  Q 117.16 53.44 117.13 53.69
  Q 117.12 53.83 117.01 54.02
  L 115.83 53.81
  Q 110.96 52.23 106.55 53.50
  Q 104.34 53.63 102.31 54.77
  Q 99.19 55.96 97.14 58.53
  Q 96.39 58.73 96.38 59.03
  L 94.47 59.10
  L 94.62 58.36
  Q 94.72 57.90 95.13 57.66
  L 115.00 45.95
  Z" fill="#ff1ff1"></path>
<path d="M 143.29 57.08
  L 133.26 57.60
  L 131.70 57.52
  L 123.63 55.66
  L 117.01 54.02
  Q 117.12 53.83 117.13 53.69
  Q 117.16 53.44 117.38 53.33
  C 127.30 47.95 134.80 51.37 143.29 57.08
  Z" fill="#ff10b9"></path>
<path d="M 115.83 53.81
  L 110.82 57.32
  Q 109.48 58.26 111.10 57.98
  Q 112.85 57.67 115.60 58.33
  L 105.75 61.16
  Q 107.74 60.44 108.29 58.97
  Q 108.61 58.10 107.69 58.14
  L 97.14 58.53
  Q 99.19 55.96 102.31 54.77
  Q 104.62 54.79 106.55 53.50
  Q 110.96 52.23 115.83 53.81
  Z" fill="#019ef2"></path>
<path d="M 106.55 53.50
  Q 104.62 54.79 102.31 54.77
  Q 104.34 53.63 106.55 53.50
  Z" fill="#0144d6"></path>
<path d="M 115.83 53.81
  L 117.01 54.02
  L 123.63 55.66
  L 117.23 57.83
  Q 116.35 58.27 115.60 58.33
  Q 112.85 57.67 111.10 57.98
  Q 109.48 58.26 110.82 57.32
  L 115.83 53.81
  Z" fill="#006fc1"></path>
<path d="M 123.63 55.66
  L 131.70 57.52
  L 131.44 57.67
  Q 131.15 57.84 130.82 57.84
  L 123.76 57.81
  L 117.23 57.83
  L 123.63 55.66
  Z" fill="#000000"></path>
<path d="M 157.79 55.73
  L 162.81 56.60
  Q 165.17 57.36 172.82 59.15
  Q 185.26 62.07 190.84 74.50
  Q 190.48 75.36 190.00 75.07
  Q 178.15 68.05 168.74 63.22
  Q 164.05 59.81 158.36 57.45
  Q 157.90 56.77 157.79 55.73
  Z" fill="#ff10b9"></path>
<path d="M 158.36 57.45
  Q 164.05 59.81 168.74 63.22
  L 170.89 66.28
  Q 170.77 66.26 170.65 66.24
  L 154.48 62.58
  L 140.38 59.31
  L 133.26 57.60
  L 143.29 57.08
  Q 150.64 56.28 158.36 57.45
  Z" fill="#fde8ff"></path>
<path d="M 131.70 57.52
  L 133.26 57.60
  L 140.38 59.31
  Q 139.53 59.99 139.19 61.50
  Q 139.07 62.01 138.67 62.34
  Q 137.01 63.72 138.18 64.17
  L 120.18 64.79
  C 121.74 62.87 123.85 60.16 123.76 57.81
  L 130.82 57.84
  Q 131.15 57.84 131.44 57.67
  L 131.70 57.52
  Z" fill="#0695ae"></path>
<path d="M 117.23 57.83
  L 123.76 57.81
  C 123.85 60.16 121.74 62.87 120.18 64.79
  Q 111.35 65.18 102.33 65.46
  Q 96.52 65.64 93.39 66.98
  Q 89.21 68.77 85.67 72.21
  Q 85.14 72.29 84.50 71.73
  L 90.08 66.14
  L 105.75 61.16
  L 115.60 58.33
  Q 116.35 58.27 117.23 57.83
  Z" fill="#07748b"></path>
<path d="M 105.75 61.16
  L 90.08 66.14
  L 96.38 59.03
  Q 96.39 58.73 97.14 58.53
  L 107.69 58.14
  Q 108.61 58.10 108.29 58.97
  Q 107.74 60.44 105.75 61.16
  Z" fill="#00c9ff"></path>
<path d="M 96.38 59.03
  L 90.08 66.14
  L 84.50 71.73
  L 71.11 86.16
  C 73.13 80.01 77.76 71.54 81.47 66.57
  Q 87.02 60.86 94.47 59.10
  L 96.38 59.03
  Z" fill="#fa70e9"></path>
<path d="M 140.38 59.31
  L 154.48 62.58
  L 154.09 62.92
  Q 153.76 63.22 154.19 63.33
  Q 154.95 63.54 155.42 63.96
  L 138.18 64.17
  Q 137.01 63.72 138.67 62.34
  Q 139.07 62.01 139.19 61.50
  Q 139.53 59.99 140.38 59.31
  Z" fill="#01bcd2"></path>
<path d="M 84.44 60.76
  L 80.62 64.94
  L 57.83 89.62
  L 59.82 79.73
  Q 63.17 70.29 71.35 65.35
  Q 76.44 62.27 84.44 60.76
  Z" fill="#01a8d1"></path>
<path d="M 154.48 62.58
  L 170.65 66.24
  L 176.89 75.77
  Q 176.86 76.63 176.30 76.96
  Q 175.94 77.17 175.69 76.85
  Q 174.65 75.54 171.76 73.59
  Q 167.49 70.70 165.43 70.19
  Q 161.52 66.19 155.42 63.96
  Q 154.95 63.54 154.19 63.33
  Q 153.76 63.22 154.09 62.92
  L 154.48 62.58
  Z" fill="#01f0ff"></path>
<path d="M 168.74 63.22
  Q 178.15 68.05 190.00 75.07
  Q 190.48 75.36 190.84 74.50
  L 191.86 76.74
  L 194.62 85.97
  L 203.34 113.94
  L 204.50 118.75
  Q 204.15 119.68 203.46 120.41
  Q 200.91 112.43 195.98 106.07
  Q 196.47 102.30 196.42 98.87
  Q 196.22 87.41 186.47 81.63
  Q 185.90 81.29 185.41 81.35
  Q 185.13 80.73 184.95 80.72
  Q 185.02 79.40 184.26 77.75
  Q 180.05 68.60 170.89 66.28
  L 168.74 63.22
  Z" fill="#ff1ff1"></path>
<path d="M 155.42 63.96
  Q 161.52 66.19 165.43 70.19
  L 189.41 108.36
  C 193.99 115.70 197.96 119.91 196.32 129.97
  L 184.23 153.20
  L 168.28 182.95
  L 158.56 188.69
  L 99.57 190.57
  L 89.76 185.09
  L 58.94 135.90
  Q 57.79 129.84 58.67 123.25
  L 70.43 100.98
  L 85.67 72.21
  Q 89.21 68.77 93.39 66.98
  Q 96.52 65.64 102.33 65.46
  Q 111.35 65.18 120.18 64.79
  L 138.18 64.17
  L 155.42 63.96
  Z" fill="#000000"></path>
<path d="M 80.62 64.94
  Q 80.69 65.21 80.57 65.47
  Q 80.40 65.84 80.71 66.10
  Q 81.02 66.38 81.47 66.57
  C 77.76 71.54 73.13 80.01 71.11 86.16
  L 68.01 89.62
  L 63.62 94.40
  L 57.04 101.43
  Q 54.49 103.84 53.44 107.26
  Q 52.10 109.38 52.15 111.86
  Q 51.55 115.13 52.34 118.47
  Q 52.17 119.64 52.54 119.50
  Q 52.45 119.64 52.41 119.75
  Q 52.38 119.84 52.30 119.77
  Q 51.57 119.15 50.96 120.05
  L 50.54 97.66
  L 51.46 96.41
  L 57.83 89.62
  L 80.62 64.94
  Z" fill="#f00dd0"></path>
<path d="M 170.65 66.24
  Q 170.77 66.26 170.89 66.28
  Q 180.05 68.60 184.26 77.75
  Q 185.02 79.40 184.95 80.72
  L 177.91 77.15
  Q 177.54 76.94 176.89 75.77
  L 170.65 66.24
  Z" fill="#0070f0"></path>
<path d="M 165.43 70.19
  Q 167.49 70.70 171.76 73.59
  Q 174.65 75.54 175.69 76.85
  Q 175.94 77.17 176.30 76.96
  Q 176.86 76.63 176.89 75.77
  Q 177.54 76.94 177.91 77.15
  L 182.44 84.37
  L 189.92 96.24
  L 190.75 97.98
  L 193.35 107.09
  Q 192.46 107.46 191.37 107.37
  Q 190.90 107.34 190.58 107.67
  Q 190.13 108.15 189.41 108.36
  L 165.43 70.19
  Z" fill="#06d7f4"></path>
<path d="M 84.50 71.73
  Q 85.14 72.29 85.67 72.21
  L 70.43 100.98
  Q 67.84 98.76 64.36 97.38
  Q 66.81 93.78 68.01 89.62
  L 71.11 86.16
  L 84.50 71.73
  Z" fill="#1c3b67"></path>
<path d="M 191.86 76.74
  Q 192.46 76.54 192.77 76.77
  Q 200.55 82.58 203.04 91.99
  Q 203.14 92.34 202.80 93.22
  L 194.62 85.97
  L 191.86 76.74
  Z" fill="#1c3b67"></path>
<path d="M 184.95 80.72
  Q 185.13 80.73 185.41 81.35
  L 187.42 88.35
  L 182.44 84.37
  L 177.91 77.15
  L 184.95 80.72
  Z" fill="#0002a6"></path>
<path d="M 59.82 79.73
  L 57.83 89.62
  L 51.46 96.41
  Q 51.62 85.49 59.82 79.73
  Z" fill="#001725"></path>
<path d="M 185.41 81.35
  Q 185.90 81.29 186.47 81.63
  Q 196.22 87.41 196.42 98.87
  Q 196.47 102.30 195.98 106.07
  L 190.75 97.98
  L 189.92 96.24
  L 187.42 88.35
  L 185.41 81.35
  Z" fill="#f00dd0"></path>
<path d="M 182.44 84.37
  L 187.42 88.35
  L 189.92 96.24
  L 182.44 84.37
  Z" fill="#000000"></path>
<path d="M 194.62 85.97
  L 202.80 93.22
  Q 203.63 93.92 203.79 94.93
  L 203.34 113.94
  L 194.62 85.97
  Z" fill="#0144d6"></path>
<path d="M 68.01 89.62
  Q 66.81 93.78 64.36 97.38
  Q 63.91 99.29 62.41 100.36
  L 63.62 94.40
  L 68.01 89.62
  Z" fill="#000000"></path>
<path d="M 63.62 94.40
  L 62.41 100.36
  L 61.42 104.68
  Q 60.09 105.51 58.89 108.32
  L 58.27 102.25
  A 0.12 0.12 0.0 0 0 58.07 102.18
  Q 57.97 102.29 57.86 102.38
  A 0.14 0.14 0.0 0 1 57.63 102.27
  Q 57.66 101.94 57.56 101.65
  Q 57.50 101.47 57.38 101.41
  Q 57.22 101.33 57.04 101.43
  L 63.62 94.40
  Z" fill="#019ef2"></path>
<path d="M 203.79 94.93
  Q 209.21 102.61 208.74 111.52
  Q 208.44 117.03 205.99 122.48
  L 204.50 118.75
  L 203.34 113.94
  L 203.79 94.93
  Z" fill="#0002a6"></path>
<path d="M 64.36 97.38
  Q 67.84 98.76 70.43 100.98
  L 58.67 123.25
  Q 57.57 122.99 57.75 122.05
  L 61.42 104.68
  L 62.41 100.36
  Q 63.91 99.29 64.36 97.38
  Z" fill="#342e77"></path>
<path d="M 50.54 97.66
  L 50.96 120.05
  L 50.80 137.38
  L 48.37 131.02
  Q 47.85 128.63 45.65 121.57
  Q 41.75 109.04 50.54 97.66
  Z" fill="#cc00ff"></path>
<path d="M 190.75 97.98
  L 195.98 106.07
  Q 200.91 112.43 203.46 120.41
  L 203.59 131.33
  Q 202.34 131.90 202.10 133.27
  Q 202.04 133.61 201.80 133.36
  Q 201.59 133.15 201.41 133.25
  L 193.35 107.09
  L 190.75 97.98
  Z" fill="#d2c8ff"></path>
<path d="M 57.04 101.43
  Q 57.22 101.33 57.38 101.41
  Q 57.50 101.47 57.56 101.65
  Q 57.66 101.94 57.63 102.27
  A 0.14 0.14 0.0 0 0 57.86 102.38
  Q 57.97 102.29 58.07 102.18
  A 0.12 0.12 0.0 0 1 58.27 102.25
  L 58.89 108.32
  Q 56.15 112.82 53.58 117.82
  Q 53.38 118.19 53.12 118.37
  Q 52.64 118.70 52.34 118.47
  Q 51.55 115.13 52.15 111.86
  L 53.44 107.26
  Q 54.49 103.84 57.04 101.43
  Z" fill="#01bcd2"></path>
<path d="M 61.42 104.68
  L 57.75 122.05
  L 56.20 129.98
  L 52.54 119.50
  Q 52.17 119.64 52.34 118.47
  Q 52.64 118.70 53.12 118.37
  Q 53.38 118.19 53.58 117.82
  Q 56.15 112.82 58.89 108.32
  Q 60.09 105.51 61.42 104.68
  Z" fill="#06d7f4"></path>
<path d="M 193.35 107.09
  L 201.41 133.25
  Q 201.50 134.36 201.85 134.58
  Q 199.37 138.99 197.29 143.09
  Q 197.20 143.26 197.06 143.32
  Q 196.93 143.37 196.80 143.36
  Q 196.31 143.31 196.39 142.83
  Q 196.95 139.56 196.18 136.75
  Q 197.07 132.63 196.32 129.97
  C 197.96 119.91 193.99 115.70 189.41 108.36
  Q 190.13 108.15 190.58 107.67
  Q 190.90 107.34 191.37 107.37
  Q 192.46 107.46 193.35 107.09
  Z" fill="#00c9ff"></path>
<path d="M 53.44 107.26
  L 52.15 111.86
  Q 52.10 109.38 53.44 107.26
  Z" fill="#342e77"></path>
<path d="M 204.50 118.75
  L 205.99 122.48
  Q 206.96 126.32 208.24 130.67
  C 210.84 139.47 210.55 147.00 205.41 154.90
  Q 204.93 155.62 204.25 156.04
  L 204.03 155.47
  A 1.92 1.71 37.3 0 1 203.90 154.80
  L 203.59 131.33
  L 203.46 120.41
  Q 204.15 119.68 204.50 118.75
  Z" fill="#cc00ff"></path>
<path d="M 52.54 119.50
  L 56.20 129.98
  L 58.08 136.53
  L 58.60 139.15
  Q 58.21 153.27 58.51 157.75
  Q 59.19 167.92 69.18 173.33
  Q 69.30 173.46 69.76 173.65
  Q 69.52 174.62 70.07 175.97
  Q 73.76 185.02 83.12 187.80
  L 100.48 191.47
  L 103.51 192.75
  Q 115.51 200.56 119.91 202.36
  Q 129.43 206.27 138.63 200.42
  Q 138.49 200.43 138.34 200.44
  Q 145.89 202.45 152.27 199.52
  Q 155.64 197.96 160.58 192.61
  Q 164.81 188.03 169.03 183.44
  L 172.10 180.44
  L 174.37 179.93
  Q 172.38 185.63 168.36 191.85
  L 140.16 208.25
  L 129.22 206.01
  L 99.78 199.35
  Q 98.92 199.27 97.79 198.40
  L 63.38 178.83
  L 63.00 178.34
  L 59.72 167.68
  L 51.21 140.17
  L 50.80 137.38
  L 50.96 120.05
  Q 51.57 119.15 52.30 119.77
  Q 52.38 119.84 52.41 119.75
  Q 52.45 119.64 52.54 119.50
  Z" fill="#d2c8ff"></path>
<path d="M 57.75 122.05
  Q 57.57 122.99 58.67 123.25
  Q 57.79 129.84 58.94 135.90
  Q 58.65 136.40 58.08 136.53
  L 56.20 129.98
  L 57.75 122.05
  Z" fill="#00c9ff"></path>
<path d="M 196.32 129.97
  Q 197.07 132.63 196.18 136.75
  L 193.04 151.11
  L 191.82 153.89
  Q 190.48 155.49 190.04 157.12
  Q 188.82 156.26 187.75 156.03
  Q 187.29 155.93 186.99 155.56
  Q 185.91 154.23 184.23 153.20
  L 196.32 129.97
  Z" fill="#1e5e90"></path>
<path d="M 48.37 131.02
  L 50.80 137.38
  L 51.21 140.17
  L 51.09 157.30
  Q 51.28 158.21 50.63 159.11
  C 44.25 150.06 45.08 141.00 48.37 131.02
  Z" fill="#006fc1"></path>
<path d="M 203.59 131.33
  L 203.90 154.80
  A 1.92 1.71 37.3 0 0 204.03 155.47
  L 204.25 156.04
  Q 203.70 157.04 203.81 157.22
  L 196.54 165.07
  L 181.38 181.09
  Q 181.04 179.29 181.85 176.75
  Q 182.08 176.00 181.01 175.86
  C 190.12 170.84 197.05 166.27 196.31 154.41
  Q 196.32 154.14 196.52 153.84
  Q 204.70 145.83 201.85 134.58
  Q 201.50 134.36 201.41 133.25
  Q 201.59 133.15 201.80 133.36
  Q 202.04 133.61 202.10 133.27
  Q 202.34 131.90 203.59 131.33
  Z" fill="#cda0ff"></path>
<path d="M 201.85 134.58
  Q 204.70 145.83 196.52 153.84
  L 196.37 146.20
  Q 196.34 145.00 195.77 146.05
  L 193.04 151.11
  L 196.18 136.75
  Q 196.95 139.56 196.39 142.83
  Q 196.31 143.31 196.80 143.36
  Q 196.93 143.37 197.06 143.32
  Q 197.20 143.26 197.29 143.09
  Q 199.37 138.99 201.85 134.58
  Z" fill="#0070f0"></path>
<path d="M 58.94 135.90
  L 89.76 185.09
  L 82.03 180.47
  Q 82.22 180.43 82.28 180.30
  Q 82.38 180.09 82.21 179.92
  L 72.00 170.10
  L 64.88 158.91
  L 58.60 139.15
  L 58.08 136.53
  Q 58.65 136.40 58.94 135.90
  Z" fill="#4e117b"></path>
<path d="M 58.60 139.15
  L 64.88 158.91
  L 67.15 166.09
  L 69.18 173.33
  Q 59.19 167.92 58.51 157.75
  Q 58.21 153.27 58.60 139.15
  Z" fill="#cc00ff"></path>
<path d="M 51.21 140.17
  L 59.72 167.68
  Q 54.97 165.16 51.97 160.79
  C 51.28 159.79 51.37 158.48 51.09 157.30
  L 51.21 140.17
  Z" fill="#01f0ff"></path>
<path d="M 196.52 153.84
  Q 196.32 154.14 196.31 154.41
  L 191.42 159.27
  L 191.82 153.89
  L 193.04 151.11
  L 195.77 146.05
  Q 196.34 145.00 196.37 146.20
  L 196.52 153.84
  Z" fill="#0002a6"></path>
<path d="M 184.23 153.20
  Q 185.91 154.23 186.99 155.56
  Q 187.29 155.93 187.75 156.03
  Q 188.82 156.26 190.04 157.12
  L 186.20 165.14
  L 172.10 180.44
  L 169.03 183.44
  Q 169.01 183.31 168.98 183.15
  Q 168.94 182.92 168.70 182.88
  Q 168.52 182.84 168.28 182.95
  L 184.23 153.20
  Z" fill="#1c3b67"></path>
<path d="M 191.82 153.89
  L 191.42 159.27
  L 186.20 165.14
  L 190.04 157.12
  Q 190.48 155.49 191.82 153.89
  Z" fill="#000000"></path>
<path d="M 196.31 154.41
  C 197.05 166.27 190.12 170.84 181.01 175.86
  L 174.37 179.93
  L 172.10 180.44
  L 186.20 165.14
  L 191.42 159.27
  L 196.31 154.41
  Z" fill="#cc00ff"></path>
<path d="M 51.09 157.30
  C 51.37 158.48 51.28 159.79 51.97 160.79
  Q 54.97 165.16 59.72 167.68
  L 63.00 178.34
  Q 54.48 172.59 51.92 163.25
  Q 51.02 159.95 50.63 159.11
  Q 51.28 158.21 51.09 157.30
  Z" fill="#01bcd2"></path>
<path d="M 203.81 157.22
  Q 203.30 168.56 194.72 176.00
  L 196.54 165.07
  L 203.81 157.22
  Z" fill="#01bcd2"></path>
<path d="M 64.88 158.91
  L 72.00 170.10
  L 67.15 166.09
  L 64.88 158.91
  Z" fill="#000000"></path>
<path d="M 196.54 165.07
  L 194.72 176.00
  L 193.26 177.46
  L 176.29 187.28
  L 181.38 181.09
  L 196.54 165.07
  Z" fill="#00c9ff"></path>
<path d="M 67.15 166.09
  L 72.00 170.10
  L 82.21 179.92
  Q 82.38 180.09 82.28 180.30
  Q 82.22 180.43 82.03 180.47
  L 78.08 178.60
  L 69.76 173.65
  Q 69.30 173.46 69.18 173.33
  L 67.15 166.09
  Z" fill="#0144d6"></path>
<path d="M 69.76 173.65
  L 78.08 178.60
  L 83.12 187.80
  Q 73.76 185.02 70.07 175.97
  Q 69.52 174.62 69.76 173.65
  Z" fill="#01f0ff"></path>
<path d="M 181.01 175.86
  Q 182.08 176.00 181.85 176.75
  Q 181.04 179.29 181.38 181.09
  L 176.29 187.28
  L 173.81 188.98
  L 168.36 191.85
  Q 172.38 185.63 174.37 179.93
  L 181.01 175.86
  Z" fill="#fde8ff"></path>
<path d="M 193.26 177.46
  Q 186.61 191.23 170.97 192.74
  L 173.81 188.98
  L 176.29 187.28
  L 193.26 177.46
  Z" fill="#0002a6"></path>
<path d="M 63.38 178.83
  L 97.79 198.40
  L 91.67 197.59
  Q 88.37 196.59 84.62 195.71
  C 74.45 193.30 67.52 188.98 63.38 178.83
  Z" fill="#cc00ff"></path>
<path d="M 78.08 178.60
  L 82.03 180.47
  L 89.76 185.09
  L 99.57 190.57
  Q 100.23 191.02 100.48 191.47
  L 83.12 187.80
  L 78.08 178.60
  Z" fill="#06d7f4"></path>
<path d="M 168.28 182.95
  Q 168.52 182.84 168.70 182.88
  Q 168.94 182.92 168.98 183.15
  Q 169.01 183.31 169.03 183.44
  Q 164.81 188.03 160.58 192.61
  Q 155.64 197.96 152.27 199.52
  Q 145.89 202.45 138.34 200.44
  L 145.67 196.30
  L 153.05 191.93
  L 158.56 188.69
  L 168.28 182.95
  Z" fill="#00c9ff"></path>
<path d="M 158.56 188.69
  L 153.05 191.93
  L 139.59 195.87
  L 136.64 196.30
  L 124.22 197.16
  L 103.51 192.75
  L 100.48 191.47
  Q 100.23 191.02 99.57 190.57
  L 158.56 188.69
  Z" fill="#4e117b"></path>
<path d="M 173.81 188.98
  L 170.97 192.74
  Q 168.41 195.13 165.55 198.15
  C 158.42 205.68 151.72 209.66 140.69 208.44
  Q 140.60 208.15 140.16 208.25
  L 168.36 191.85
  L 173.81 188.98
  Z" fill="#cc00ff"></path>
<path d="M 153.05 191.93
  L 145.67 196.30
  L 139.59 195.87
  L 153.05 191.93
  Z" fill="#0144d6"></path>
<path d="M 124.22 197.16
  L 131.71 198.79
  L 138.63 200.42
  Q 129.43 206.27 119.91 202.36
  Q 115.51 200.56 103.51 192.75
  L 124.22 197.16
  Z" fill="#cc00ff"></path>
<path d="M 136.64 196.30
  Q 133.71 197.28 131.71 198.79
  L 124.22 197.16
  L 136.64 196.30
  Z" fill="#000000"></path>
<path d="M 139.59 195.87
  L 145.67 196.30
  L 138.34 200.44
  Q 138.49 200.43 138.63 200.42
  L 131.71 198.79
  Q 133.71 197.28 136.64 196.30
  L 139.59 195.87
  Z" fill="#0002a6"></path>
<path d="M 91.67 197.59
  L 97.79 198.40
  Q 98.92 199.27 99.78 199.35
  L 116.77 209.34
  Q 108.58 210.41 101.61 206.40
  Q 96.16 203.28 91.67 197.59
  Z" fill="#0002a6"></path>
<path d="M 99.78 199.35
  L 129.22 206.01
  L 119.23 210.12
  L 116.77 209.34
  L 99.78 199.35
  Z" fill="#00c9ff"></path>
<path d="M 129.22 206.01
  L 140.16 208.25
  Q 140.60 208.15 140.69 208.44
  Q 139.36 208.77 136.44 209.91
  Q 128.42 213.06 119.23 210.12
  L 129.22 206.01
  Z" fill="#01bcd2"></path>
</svg>
