<svg viewBox="0.00 0.00 256.00 256.00" version="1.1" xmlns="http://www.w3.org/2000/svg">
<path d="M 118.00 193.38
  Q 105.63 200.38 93.33 207.52
  Q 83.56 213.20 78.57 214.83
  C 58.07 221.53 35.97 213.03 24.10 195.89
  C 10.86 176.77 13.99 150.17 30.56 134.20
  Q 34.81 130.10 44.38 124.55
  Q 56.10 117.76 67.86 111.01
  C 75.67 106.53 79.94 102.95 79.97 94.00
  Q 80.03 77.70 80.00 61.39
  Q 79.98 51.99 81.04 47.19
  C 86.37 23.01 109.19 7.75 133.24 10.22
  C 152.96 12.24 170.44 26.87 174.90 46.90
  Q 176.01 51.85 176.00 61.68
  Q 175.99 77.84 176.04 93.99
  C 176.07 103.05 180.41 106.58 188.31 111.11
  Q 199.41 117.47 210.48 123.90
  Q 221.48 130.27 225.87 134.56
  C 250.43 158.51 241.92 200.45 210.42 213.42
  Q 194.84 219.84 178.94 215.23
  Q 173.10 213.54 162.27 207.30
  Q 149.15 199.75 136.04 192.18
  C 129.53 188.43 124.62 189.63 118.00 193.38
  Z
  M 159.23 133.41
  Q 167.05 120.07 156.17 109.27
  Q 151.09 104.23 145.25 104.24
  Q 129.83 104.26 114.42 104.25
  Q 108.86 104.24 106.19 105.14
  C 97.91 107.94 92.56 116.79 93.75 125.23
  Q 94.27 128.85 97.60 134.62
  Q 103.73 145.21 109.85 155.81
  Q 113.74 162.56 116.68 164.87
  C 124.89 171.32 138.25 169.44 143.64 160.16
  Q 151.41 146.77 159.23 133.41
  Z" fill="#1b1a29"></path>
</svg>
