<svg viewBox="0.00 0.00 62.00 62.00" version="1.1" xmlns="http://www.w3.org/2000/svg">
<g stroke-linecap="butt" fill="none" stroke-width="2.00">
<path d="M 61.80 23.23
  L 60.78 22.62" stroke="#2eccb3"></path>
<path d="M 60.78 22.62
  Q 56.63 15.87 49.75 14.58
  Q 46.24 13.91 40.75 14.76" stroke="#4fd5bf"></path>
<path d="M 40.75 14.76
  Q 26.99 13.97 15.00 15.53
  Q 10.14 16.17 7.09 21.58" stroke="#006151"></path>
<path d="M 7.09 21.58
  Q 6.60 19.82 7.58 16.71" stroke="#2eccb3"></path>
<path d="M 7.58 16.71
  Q 8.91 13.47 12.36 9.62" stroke="#4fd5bf"></path>
<path d="M 7.58 16.71
  Q 3.63 18.66 2.36 17.60" stroke="#7de0d0"></path>
<path d="M 60.78 22.62
  Q 60.51 25.23 55.52 23.69" stroke="#7de0d0"></path>
<path d="M 55.52 23.69
  C 53.53 15.19 47.82 16.01 40.75 14.76" stroke="#4f746e"></path>
<path d="M 55.52 23.69
  L 55.56 38.18" stroke="#2e6c62"></path>
<path d="M 55.56 38.18
  Q 54.60 43.41 49.21 46.08" stroke="#006151"></path>
<path d="M 49.21 46.08
  L 33.08 47.45" stroke="#436d6d"></path>
<path d="M 33.08 47.45
  L 13.17 46.24" stroke="#256465"></path>
<path d="M 13.17 46.24
  Q 7.35 43.08 6.73 37.79" stroke="#006151"></path>
<path d="M 6.73 37.79
  L 7.09 21.58" stroke="#2e6c62"></path>
<path d="M 41.38 31.24
  A 0.47 0.47 0.0 0 1 41.39 30.59
  L 44.95 27.09
  A 0.47 0.47 0.0 0 0 44.94 26.41
  L 42.80 24.34
  A 0.47 0.47 0.0 0 0 42.14 24.35
  L 35.90 30.61
  A 0.47 0.47 0.0 0 0 35.89 31.27
  L 42.06 37.60
  A 0.47 0.47 0.0 0 0 42.71 37.62
  L 44.92 35.66
  A 0.47 0.47 0.0 0 0 44.94 34.99
  L 41.38 31.24" stroke="#808080"></path>
<path d="M 22.63 25.03
  A 0.29 0.29 0.0 0 0 22.34 24.74
  L 19.04 24.74
  A 0.29 0.29 0.0 0 0 18.75 25.03
  L 18.75 37.21
  A 0.29 0.29 0.0 0 0 19.04 37.50
  L 22.34 37.50
  A 0.29 0.29 0.0 0 0 22.63 37.21
  L 22.63 25.03" stroke="#808080"></path>
<path d="M 6.73 37.79
  Q 1.87 39.17 0.33 36.61" stroke="#2eccb3"></path>
<path d="M 61.33 40.86
  Q 60.41 40.72 60.05 41.52" stroke="#81ddd4"></path>
<path d="M 60.05 41.52
  Q 59.80 40.56 59.96 39.83
  Q 59.98 39.75 60.05 39.73
  L 60.37 39.61
  Q 61.23 39.30 60.32 39.41
  Q 56.76 39.86 55.56 38.18" stroke="#2eccb3"></path>
<path d="M 13.17 46.24
  Q 8.40 46.76 2.41 44.57" stroke="#25c4b6"></path>
<path d="M 60.05 41.52
  Q 55.94 45.35 50.18 46.51" stroke="#53d2c3"></path>
<path d="M 50.18 46.51
  L 49.21 46.08" stroke="#43cdbe"></path>
<path d="M 51.21 51.99
  Q 51.16 51.45 50.68 51.12
  Q 50.26 50.83 50.18 50.33
  C 49.99 49.03 48.68 48.79 48.90 47.54
  Q 48.96 47.14 49.37 47.13
  Q 50.13 47.09 50.18 46.51" stroke="#95dedf"></path>
<path d="M 33.08 47.45
  Q 35.78 50.37 36.54 52.91" stroke="#68d0d2"></path>
</g>
<path d="M 61.80 23.23
  L 60.78 22.62
  Q 56.63 15.87 49.75 14.58
  Q 46.24 13.91 40.75 14.76
  Q 26.99 13.97 15.00 15.53
  Q 10.14 16.17 7.09 21.58
  Q 6.60 19.82 7.58 16.71
  Q 8.91 13.47 12.36 9.62
  Q 27.38 7.29 42.77 8.72
  Q 51.11 9.49 54.77 11.83
  Q 60.44 15.46 61.80 23.23
  Z" fill="#00c1a2"></path>
<path d="M 12.36 9.62
  Q 8.91 13.47 7.58 16.71
  Q 3.63 18.66 2.36 17.60
  Q 5.49 11.56 12.36 9.62
  Z" fill="#9ee8dc"></path>
<path d="M 60.78 22.62
  Q 60.51 25.23 55.52 23.69
  C 53.53 15.19 47.82 16.01 40.75 14.76
  Q 46.24 13.91 49.75 14.58
  Q 56.63 15.87 60.78 22.62
  Z" fill="#9ee8dc"></path>
<path d="M 40.75 14.76
  C 47.82 16.01 53.53 15.19 55.52 23.69
  L 55.56 38.18
  Q 54.60 43.41 49.21 46.08
  L 33.08 47.45
  L 13.17 46.24
  Q 7.35 43.08 6.73 37.79
  L 7.09 21.58
  Q 10.14 16.17 15.00 15.53
  Q 26.99 13.97 40.75 14.76
  Z
  M 41.38 31.24
  A 0.47 0.47 0.0 0 1 41.39 30.59
  L 44.95 27.09
  A 0.47 0.47 0.0 0 0 44.94 26.41
  L 42.80 24.34
  A 0.47 0.47 0.0 0 0 42.14 24.35
  L 35.90 30.61
  A 0.47 0.47 0.0 0 0 35.89 31.27
  L 42.06 37.60
  A 0.47 0.47 0.0 0 0 42.71 37.62
  L 44.92 35.66
  A 0.47 0.47 0.0 0 0 44.94 34.99
  L 41.38 31.24
  Z
  M 22.63 25.03
  A 0.29 0.29 0.0 0 0 22.34 24.74
  L 19.04 24.74
  A 0.29 0.29 0.0 0 0 18.75 25.03
  L 18.75 37.21
  A 0.29 0.29 0.0 0 0 19.04 37.50
  L 22.34 37.50
  A 0.29 0.29 0.0 0 0 22.63 37.21
  L 22.63 25.03
  Z" fill="#000000"></path>
<path d="M 7.58 16.71
  Q 6.60 19.82 7.09 21.58
  L 6.73 37.79
  Q 1.87 39.17 0.33 36.61
  C 0.13 30.02 -0.65 22.79 2.36 17.60
  Q 3.63 18.66 7.58 16.71
  Z" fill="#5cd7c4"></path>
<path d="M 60.78 22.62
  L 61.80 23.23
  Q 61.71 23.71 62.00 23.87
  L 62.00 37.98
  L 61.33 40.86
  Q 60.41 40.72 60.05 41.52
  Q 59.80 40.56 59.96 39.83
  Q 59.98 39.75 60.05 39.73
  L 60.37 39.61
  Q 61.23 39.30 60.32 39.41
  Q 56.76 39.86 55.56 38.18
  L 55.52 23.69
  Q 60.51 25.23 60.78 22.62
  Z" fill="#5cd7c4"></path>
<path d="M 41.38 31.24
  L 44.94 34.99
  A 0.47 0.47 0.0 0 1 44.92 35.66
  L 42.71 37.62
  A 0.47 0.47 0.0 0 1 42.06 37.60
  L 35.89 31.27
  A 0.47 0.47 0.0 0 1 35.90 30.61
  L 42.14 24.35
  A 0.47 0.47 0.0 0 1 42.80 24.34
  L 44.94 26.41
  A 0.47 0.47 0.0 0 1 44.95 27.09
  L 41.39 30.59
  A 0.47 0.47 0.0 0 0 41.38 31.24
  Z" fill="#ffffff"></path>
<rect rx="0.29" height="12.76" width="3.88" y="24.74" x="18.75" fill="#ffffff"></rect>
<path d="M 0.33 36.61
  Q 1.87 39.17 6.73 37.79
  Q 7.35 43.08 13.17 46.24
  Q 8.40 46.76 2.41 44.57
  Q 0.42 41.12 0.33 36.61
  Z" fill="#00c1a2"></path>
<path d="M 55.56 38.18
  Q 56.76 39.86 60.32 39.41
  Q 61.23 39.30 60.37 39.61
  L 60.05 39.73
  Q 59.98 39.75 59.96 39.83
  Q 59.80 40.56 60.05 41.52
  Q 55.94 45.35 50.18 46.51
  L 49.21 46.08
  Q 54.60 43.41 55.56 38.18
  Z" fill="#00c1a2"></path>
<path d="M 61.33 40.86
  Q 59.14 48.73 51.21 51.99
  Q 51.16 51.45 50.68 51.12
  Q 50.26 50.83 50.18 50.33
  C 49.99 49.03 48.68 48.79 48.90 47.54
  Q 48.96 47.14 49.37 47.13
  Q 50.13 47.09 50.18 46.51
  Q 55.94 45.35 60.05 41.52
  Q 60.41 40.72 61.33 40.86
  Z" fill="#a5e3e4"></path>
<path d="M 2.41 44.57
  Q 8.40 46.76 13.17 46.24
  L 33.08 47.45
  Q 35.78 50.37 36.54 52.91
  Q 27.18 53.07 18.00 53.00
  Q 7.50 52.92 2.41 44.57
  Z" fill="#4ac7c9"></path>
<path d="M 49.21 46.08
  L 50.18 46.51
  Q 50.13 47.09 49.37 47.13
  Q 48.96 47.14 48.90 47.54
  C 48.68 48.79 49.99 49.03 50.18 50.33
  Q 50.26 50.83 50.68 51.12
  Q 51.16 51.45 51.21 51.99
  Q 44.15 53.54 36.54 52.91
  Q 35.78 50.37 33.08 47.45
  L 49.21 46.08
  Z" fill="#85d9da"></path>
</svg>
