<svg viewBox="0.00 0.00 96.00 96.00" version="1.1" xmlns="http://www.w3.org/2000/svg">
<g stroke-linecap="butt" fill="none" stroke-width="2.00">
<path d="M 72.85 39.89
  C 65.36 18.71 36.39 14.76 24.60 35.03
  A 1.37 1.35 -83.6 0 1 23.86 35.63
  C 22.52 36.06 21.03 36.37 19.91 36.91
  C 3.78 44.66 4.14 65.35 19.76 73.47
  A 0.23 0.23 0.0 0 0 20.09 73.27
  L 20.12 67.98
  Q 20.12 67.67 19.85 67.49
  C 7.78 59.54 12.96 41.58 27.04 40.43
  Q 27.52 40.39 27.81 40.00
  Q 28.39 39.19 28.85 38.31
  C 38.46 19.71 64.73 25.15 68.74 44.76
  Q 68.85 45.29 69.38 45.36
  C 70.74 45.55 72.24 45.39 73.39 45.68
  C 84.50 48.38 86.57 62.52 75.83 67.94
  Q 75.56 68.08 75.56 68.38
  L 75.63 73.24
  Q 75.63 73.48 75.85 73.41
  C 93.52 67.70 91.19 43.58 73.52 40.46
  A 0.88 0.87 85.3 0 1 72.85 39.89" stroke="#9aa4e2"></path>
<path d="M 37.31 53.33
  L 38.20 53.29
  Q 39.53 53.21 38.59 52.27
  L 31.72 45.43
  A 0.42 0.41 -44.5 0 0 31.13 45.43
  L 24.53 52.01
  Q 23.13 53.40 25.24 53.30
  Q 25.71 53.27 26.02 53.63
  A 0.84 0.80 26.2 0 1 26.21 54.15
  L 26.20 70.60
  A 3.66 3.65 0.2 0 0 29.85 74.26
  L 38.28 74.27
  A 0.60 0.59 60.3 0 0 38.58 73.16
  C 37.12 72.31 36.76 70.81 36.74 69.08
  Q 36.66 61.49 36.77 53.90
  Q 36.78 53.36 37.31 53.33" stroke="#9aa4e2"></path>
<path d="M 53.59 57.59
  L 54.47 57.52
  Q 55.87 57.42 54.87 56.43
  L 48.09 49.66
  A 0.47 0.47 0.0 0 0 47.43 49.66
  L 40.37 56.72
  A 0.38 0.37 26.5 0 0 40.59 57.35
  L 41.92 57.55
  A 0.62 0.61 -86.3 0 1 42.45 58.16
  L 42.43 70.59
  A 3.66 3.66 0.0 0 0 46.09 74.26
  L 55.02 74.28
  A 0.34 0.33 65.1 0 0 55.23 73.69
  Q 54.05 72.68 53.36 71.28
  Q 53.11 70.78 53.11 70.22
  L 53.05 58.16
  Q 53.05 57.63 53.59 57.59" stroke="#9aa4e2"></path>
<path d="M 70.03 61.56
  L 71.23 61.67
  Q 71.40 61.69 71.44 61.52
  Q 71.48 61.38 71.51 61.25
  A 0.31 0.30 -61.4 0 0 71.43 60.96
  L 64.40 54.00
  A 0.52 0.52 0.0 0 0 63.68 54.00
  L 57.08 60.59
  Q 55.56 62.11 57.76 61.67
  Q 57.92 61.63 58.09 61.65
  Q 58.75 61.73 58.75 62.39
  L 58.76 70.76
  A 3.50 3.50 0.0 0 0 62.26 74.26
  L 71.00 74.27
  Q 72.46 74.28 71.30 73.39
  C 68.44 71.22 69.32 65.27 69.45 62.08
  A 0.54 0.53 -86.5 0 1 70.03 61.56" stroke="#9aa4e2"></path>
</g>
<path d="M 0.00 0.00
  L 96.00 0.00
  L 96.00 96.00
  L 0.00 96.00
  L 0.00 0.00
  Z
  M 72.85 39.89
  C 65.36 18.71 36.39 14.76 24.60 35.03
  A 1.37 1.35 -83.6 0 1 23.86 35.63
  C 22.52 36.06 21.03 36.37 19.91 36.91
  C 3.78 44.66 4.14 65.35 19.76 73.47
  A 0.23 0.23 0.0 0 0 20.09 73.27
  L 20.12 67.98
  Q 20.12 67.67 19.85 67.49
  C 7.78 59.54 12.96 41.58 27.04 40.43
  Q 27.52 40.39 27.81 40.00
  Q 28.39 39.19 28.85 38.31
  C 38.46 19.71 64.73 25.15 68.74 44.76
  Q 68.85 45.29 69.38 45.36
  C 70.74 45.55 72.24 45.39 73.39 45.68
  C 84.50 48.38 86.57 62.52 75.83 67.94
  Q 75.56 68.08 75.56 68.38
  L 75.63 73.24
  Q 75.63 73.48 75.85 73.41
  C 93.52 67.70 91.19 43.58 73.52 40.46
  A 0.88 0.87 85.3 0 1 72.85 39.89
  Z
  M 37.31 53.33
  L 38.20 53.29
  Q 39.53 53.21 38.59 52.27
  L 31.72 45.43
  A 0.42 0.41 -44.5 0 0 31.13 45.43
  L 24.53 52.01
  Q 23.13 53.40 25.24 53.30
  Q 25.71 53.27 26.02 53.63
  A 0.84 0.80 26.2 0 1 26.21 54.15
  L 26.20 70.60
  A 3.66 3.65 0.2 0 0 29.85 74.26
  L 38.28 74.27
  A 0.60 0.59 60.3 0 0 38.58 73.16
  C 37.12 72.31 36.76 70.81 36.74 69.08
  Q 36.66 61.49 36.77 53.90
  Q 36.78 53.36 37.31 53.33
  Z
  M 53.59 57.59
  L 54.47 57.52
  Q 55.87 57.42 54.87 56.43
  L 48.09 49.66
  A 0.47 0.47 0.0 0 0 47.43 49.66
  L 40.37 56.72
  A 0.38 0.37 26.5 0 0 40.59 57.35
  L 41.92 57.55
  A 0.62 0.61 -86.3 0 1 42.45 58.16
  L 42.43 70.59
  A 3.66 3.66 0.0 0 0 46.09 74.26
  L 55.02 74.28
  A 0.34 0.33 65.1 0 0 55.23 73.69
  Q 54.05 72.68 53.36 71.28
  Q 53.11 70.78 53.11 70.22
  L 53.05 58.16
  Q 53.05 57.63 53.59 57.59
  Z
  M 70.03 61.56
  L 71.23 61.67
  Q 71.40 61.69 71.44 61.52
  Q 71.48 61.38 71.51 61.25
  A 0.31 0.30 -61.4 0 0 71.43 60.96
  L 64.40 54.00
  A 0.52 0.52 0.0 0 0 63.68 54.00
  L 57.08 60.59
  Q 55.56 62.11 57.76 61.67
  Q 57.92 61.63 58.09 61.65
  Q 58.75 61.73 58.75 62.39
  L 58.76 70.76
  A 3.50 3.50 0.0 0 0 62.26 74.26
  L 71.00 74.27
  Q 72.46 74.28 71.30 73.39
  C 68.44 71.22 69.32 65.27 69.45 62.08
  A 0.54 0.53 -86.5 0 1 70.03 61.56
  Z" fill="#3448c5"></path>
<path d="M 72.85 39.89
  A 0.88 0.87 85.3 0 0 73.52 40.46
  C 91.19 43.58 93.52 67.70 75.85 73.41
  Q 75.63 73.48 75.63 73.24
  L 75.56 68.38
  Q 75.56 68.08 75.83 67.94
  C 86.57 62.52 84.50 48.38 73.39 45.68
  C 72.24 45.39 70.74 45.55 69.38 45.36
  Q 68.85 45.29 68.74 44.76
  C 64.73 25.15 38.46 19.71 28.85 38.31
  Q 28.39 39.19 27.81 40.00
  Q 27.52 40.39 27.04 40.43
  C 12.96 41.58 7.78 59.54 19.85 67.49
  Q 20.12 67.67 20.12 67.98
  L 20.09 73.27
  A 0.23 0.23 0.0 0 1 19.76 73.47
  C 4.14 65.35 3.78 44.66 19.91 36.91
  C 21.03 36.37 22.52 36.06 23.86 35.63
  A 1.37 1.35 -83.6 0 0 24.60 35.03
  C 36.39 14.76 65.36 18.71 72.85 39.89
  Z" fill="#ffffff"></path>
<path d="M 36.77 53.90
  Q 36.66 61.49 36.74 69.08
  C 36.76 70.81 37.12 72.31 38.58 73.16
  A 0.60 0.59 60.3 0 1 38.28 74.27
  L 29.85 74.26
  A 3.66 3.65 0.2 0 1 26.20 70.60
  L 26.21 54.15
  A 0.84 0.80 26.2 0 0 26.02 53.63
  Q 25.71 53.27 25.24 53.30
  Q 23.13 53.40 24.53 52.01
  L 31.13 45.43
  A 0.42 0.41 -44.5 0 1 31.72 45.43
  L 38.59 52.27
  Q 39.53 53.21 38.20 53.29
  L 37.31 53.33
  Q 36.78 53.36 36.77 53.90
  Z" fill="#ffffff"></path>
<path d="M 53.05 58.16
  L 53.11 70.22
  Q 53.11 70.78 53.36 71.28
  Q 54.05 72.68 55.23 73.69
  A 0.34 0.33 65.1 0 1 55.02 74.28
  L 46.09 74.26
  A 3.66 3.66 0.0 0 1 42.43 70.59
  L 42.45 58.16
  A 0.62 0.61 -86.3 0 0 41.92 57.55
  L 40.59 57.35
  A 0.38 0.37 26.5 0 1 40.37 56.72
  L 47.43 49.66
  A 0.47 0.47 0.0 0 1 48.09 49.66
  L 54.87 56.43
  Q 55.87 57.42 54.47 57.52
  L 53.59 57.59
  Q 53.05 57.63 53.05 58.16
  Z" fill="#ffffff"></path>
<path d="M 69.45 62.08
  C 69.32 65.27 68.44 71.22 71.30 73.39
  Q 72.46 74.28 71.00 74.27
  L 62.26 74.26
  A 3.50 3.50 0.0 0 1 58.76 70.76
  L 58.75 62.39
  Q 58.75 61.73 58.09 61.65
  Q 57.92 61.63 57.76 61.67
  Q 55.56 62.11 57.08 60.59
  L 63.68 54.00
  A 0.52 0.52 0.0 0 1 64.40 54.00
  L 71.43 60.96
  A 0.31 0.30 -61.4 0 1 71.51 61.25
  Q 71.48 61.38 71.44 61.52
  Q 71.40 61.69 71.23 61.67
  L 70.03 61.56
  A 0.54 0.53 -86.5 0 0 69.45 62.08
  Z" fill="#ffffff"></path>
</svg>
