<svg viewBox="0.00 0.00 64.00 64.00" version="1.1" xmlns="http://www.w3.org/2000/svg">
<g stroke-linecap="butt" fill="none" stroke-width="2.00">
<path d="M 10.50 0.00
  Q 10.53 0.07 10.56 0.15" stroke="#523320"></path>
<path d="M 10.56 0.15
  L 8.53 0.23
  Q 8.03 0.25 7.89 0.73
  Q 7.58 1.81 8.45 2.58
  Q 8.82 2.91 8.49 3.28
  Q 8.08 3.72 7.40 3.92
  Q 6.98 4.04 6.89 4.47
  Q 6.79 4.96 6.96 5.42
  A 0.77 0.77 0.0 0 0 7.68 5.91
  Q 9.57 5.88 11.22 5.13
  A 1.76 1.75 -14.5 0 1 13.70 6.58
  Q 13.72 6.87 12.73 7.50" stroke="#714e39"></path>
<path d="M 12.73 7.50
  Q 13.35 4.94 10.40 6.26
  A 1.71 1.55 9.0 0 0 10.02 6.51
  C 7.78 8.56 4.89 8.46 2.26 10.62
  Q 1.69 11.08 0.62 10.67
  A 0.60 0.59 14.7 0 1 0.24 10.03
  Q 0.63 7.41 0.16 4.79
  Q 0.07 4.32 0.28 3.90
  Q 1.07 2.32 0.00 1.12" stroke="#523320"></path>
<path d="M 41.51 0.00
  Q 40.89 0.27 40.86 0.65
  Q 40.85 0.92 41.28 1.23
  C 43.32 2.69 44.40 6.72 44.69 9.40
  A 0.67 0.67 0.0 0 1 44.30 10.08
  Q 44.11 10.17 43.90 10.14
  Q 43.55 10.09 43.31 9.64
  Q 43.04 9.14 42.78 8.43
  Q 42.64 8.02 42.30 7.74
  C 40.96 6.64 39.70 5.17 38.31 4.40
  Q 34.56 2.31 30.22 2.70
  C 27.90 2.91 26.44 2.41 24.39 1.78
  Q 22.26 1.14 20.00 1.21
  Q 16.75 1.32 13.41 0.98" stroke="#4a2c1b"></path>
<path d="M 13.41 0.98
  L 10.56 0.15" stroke="#583e30"></path>
<path d="M 44.08 0.00
  L 47.53 8.30
  Q 48.35 10.26 49.19 8.31
  Q 49.29 8.08 49.44 7.79
  Q 50.12 6.51 50.39 7.93
  Q 50.87 10.47 51.23 13.37
  C 51.56 16.05 52.48 18.30 53.32 20.80
  Q 53.38 20.96 53.54 21.02
  L 53.85 21.13
  Q 54.00 21.19 54.03 21.35
  Q 54.18 22.33 54.94 22.38
  Q 55.27 22.40 55.35 22.72
  L 55.48 23.25
  Q 55.49 23.28 55.62 23.28
  Q 55.68 23.28 55.74 23.25
  Q 55.88 23.18 56.06 23.33
  L 58.50 25.37
  Q 58.92 25.73 58.41 25.93
  Q 58.18 26.02 58.00 26.25
  Q 57.66 26.68 58.10 27.02
  L 58.99 27.70" stroke="#744021"></path>
<path d="M 58.99 27.70
  Q 57.91 27.13 56.68 26.97" stroke="#643d25"></path>
<path d="M 56.68 26.97
  Q 54.45 26.82 52.74 25.73
  A 0.88 0.88 0.0 0 0 51.42 26.69
  Q 53.06 33.00 52.19 38.41" stroke="#4a2c1b"></path>
<path d="M 52.19 38.41
  Q 52.52 34.54 51.42 31.32
  A 1.32 1.31 -83.4 0 0 50.87 30.62
  Q 49.96 30.05 50.12 28.98
  A 1.25 1.24 -84.5 0 0 48.96 27.56
  L 44.77 27.33
  Q 44.54 27.31 44.59 27.08
  Q 44.84 26.06 44.30 25.28
  A 0.69 0.68 55.5 0 0 43.34 25.10
  Q 41.80 26.17 40.06 25.40
  Q 39.54 25.17 39.00 25.32
  Q 38.27 25.52 38.15 26.16
  Q 38.02 26.92 37.26 26.92
  Q 36.53 26.92 36.09 26.36
  A 0.74 0.73 49.2 0 1 36.16 25.37
  Q 40.47 21.34 46.51 22.23
  A 1.07 1.07 0.0 0 0 47.55 20.58
  C 45.56 17.61 41.61 20.49 39.19 21.26
  A 0.62 0.60 -25.6 0 1 38.51 21.03
  L 38.35 20.78
  Q 38.15 20.49 38.48 20.39
  Q 39.89 19.96 40.99 18.90" stroke="#6a4835"></path>
<path d="M 40.99 18.90
  L 43.67 17.49" stroke="#7f5945"></path>
<path d="M 43.67 17.49
  L 45.00 16.85
  Q 45.39 16.66 45.30 16.24
  C 44.66 13.37 42.48 12.54 41.92 9.89
  A 1.63 1.58 -72.8 0 0 41.54 9.14
  C 39.47 6.82 38.33 5.12 35.52 3.57
  A 1.50 1.48 -29.1 0 0 34.83 3.38
  C 31.12 3.32 28.34 3.41 24.28 2.27
  C 22.26 1.70 20.79 1.92 18.79 2.15
  Q 18.33 2.20 17.89 2.09
  Q 16.89 1.84 16.03 1.28
  A 1.07 1.07 0.0 0 0 15.04 1.18
  Q 13.91 1.63 13.41 0.98" stroke="#6a4835"></path>
<path d="M 48.85 0.00
  L 51.89 0.31" stroke="#67381d"></path>
<path d="M 51.89 0.31
  Q 52.56 0.99 53.43 1.46
  A 0.50 0.49 6.0 0 1 53.64 1.71
  L 55.96 8.48
  A 0.37 0.37 0.0 0 1 55.37 8.89
  Q 54.17 7.86 53.21 9.25
  A 0.43 0.43 0.0 0 1 52.47 9.18
  L 52.10 8.33
  Q 51.76 7.56 51.42 8.33
  C 50.71 9.95 51.63 11.73 52.91 12.34
  Q 53.41 12.57 53.79 12.98
  L 57.74 17.24
  A 0.92 0.92 0.0 0 0 59.33 16.62
  Q 59.33 15.55 59.99 15.32" stroke="#965124"></path>
<path d="M 59.99 15.32
  Q 62.33 16.23 62.31 18.67
  Q 62.30 19.28 61.73 19.47
  L 60.51 19.87
  Q 59.89 20.08 60.11 20.69
  L 60.47 21.73
  Q 60.63 22.21 60.22 22.50
  Q 59.35 23.11 58.93 24.11
  Q 58.74 24.55 59.19 24.72
  Q 59.94 25.00 60.25 25.76
  Q 60.49 26.36 59.86 26.53
  Q 59.55 26.61 59.61 26.95
  Q 59.70 27.44 60.12 27.71
  Q 60.74 28.12 61.04 28.75" stroke="#9c5a2e"></path>
<path d="M 61.04 28.75
  Q 60.05 28.62 58.99 27.70" stroke="#7b4726"></path>
<path d="M 55.01 0.00
  L 53.79 0.30" stroke="#784829"></path>
<path d="M 53.79 0.30
  L 51.89 0.31" stroke="#723f1f"></path>
<path d="M 63.61 0.00
  L 64.00 4.51" stroke="#784829"></path>
<path d="M 64.00 15.60
  L 64.00 23.27" stroke="#784829"></path>
<path d="M 64.00 28.58
  Q 63.83 28.46 63.66 29.08" stroke="#734628"></path>
<path d="M 63.66 29.08
  Q 62.18 28.56 61.04 28.75" stroke="#8c5732"></path>
<path d="M 59.99 15.32
  Q 60.81 13.27 59.45 10.79
  Q 59.23 10.38 59.31 9.92
  Q 59.65 7.99 58.91 6.19
  Q 58.83 5.99 58.83 5.78
  C 58.84 4.77 57.19 3.57 56.93 2.23
  A 1.31 1.30 73.0 0 0 55.14 1.27
  Q 53.89 1.80 53.79 0.30" stroke="#a76130"></path>
<path d="M 43.67 17.49
  Q 44.30 15.96 43.03 15.56
  A 1.28 1.18 77.7 0 1 42.47 15.17
  C 41.67 14.22 40.42 13.67 40.33 12.48
  Q 40.29 12.00 40.02 11.60
  Q 38.68 9.59 37.86 7.30
  A 2.69 2.69 0.0 0 0 35.94 5.60
  C 33.34 4.99 30.87 5.31 28.19 4.50
  Q 24.36 3.34 20.14 3.65" stroke="#8c6b5a"></path>
<path d="M 20.14 3.65
  Q 16.00 4.59 12.47 8.64" stroke="#967563"></path>
<path d="M 12.47 8.64
  Q 10.98 9.50 9.89 11.43" stroke="#7c5e4e"></path>
<path d="M 9.89 11.43
  Q 9.78 10.86 9.85 10.45
  Q 9.91 10.08 10.39 9.72
  Q 11.73 8.74 12.73 7.50" stroke="#583e30"></path>
<path d="M 9.89 11.43
  Q 8.62 13.33 8.86 15.79
  Q 8.87 15.88 8.81 15.94
  Q 8.69 16.06 8.56 16.19
  A 0.93 0.92 -21.1 0 0 8.29 16.79
  L 7.27 32.47" stroke="#5d4234"></path>
<path d="M 7.27 32.47
  L 7.62 35.08
  Q 7.76 36.13 6.99 35.40
  L 5.22 33.72
  A 0.81 0.81 0.0 0 1 5.12 32.67
  Q 5.81 31.70 5.62 30.51
  Q 5.55 30.07 5.19 29.81
  L 3.20 28.33
  Q 1.48 27.06 2.19 29.07
  L 5.22 37.78" stroke="#4a2c1b"></path>
<path d="M 5.22 37.78
  Q 5.30 37.88 5.38 37.98" stroke="#5d4234"></path>
<path d="M 5.38 37.98
  Q 5.15 42.03 8.72 41.56
  A 1.30 1.30 0.0 0 1 10.18 43.00
  L 9.83 46.05
  A 0.44 0.44 0.0 0 1 8.98 46.14
  L 8.70 45.32
  Q 8.54 44.86 8.10 44.64
  L 4.73 42.95
  A 2.12 2.09 12.4 0 1 3.57 41.16
  Q 3.52 39.98 2.59 39.37
  Q 2.13 39.07 2.00 38.54
  L 0.00 30.73" stroke="#3d2417"></path>
<path d="M 40.99 18.90
  Q 39.21 19.25 37.54 20.26" stroke="#8c6b5a"></path>
<path d="M 37.54 20.26
  C 35.90 20.32 33.75 22.46 32.43 23.54
  Q 32.03 23.87 32.28 24.33
  Q 32.98 25.62 33.35 27.87
  Q 33.47 28.62 34.22 28.73
  Q 34.66 28.79 34.84 28.38
  Q 35.12 27.72 35.76 27.89
  Q 42.77 29.74 48.52 29.70
  A 0.84 0.82 80.5 0 1 49.32 30.28
  Q 49.80 31.79 49.36 34.13
  Q 48.49 38.66 45.77 41.05
  Q 45.40 41.38 44.91 41.38
  L 43.45 41.38
  A 0.92 0.92 0.0 0 0 42.69 42.81
  Q 43.48 43.99 43.38 45.45
  Q 43.35 45.87 42.94 45.95
  Q 42.09 46.13 41.98 47.24" stroke="#997664"></path>
<path d="M 41.98 47.24
  L 32.05 47.71" stroke="#7e4d45"></path>
<path d="M 32.05 47.71
  Q 32.01 47.66 31.96 47.61" stroke="#997664"></path>
<path d="M 31.96 47.61
  Q 33.59 47.78 34.34 47.10
  Q 35.64 45.94 33.91 46.19
  Q 32.14 46.45 31.82 45.38" stroke="#b7937f"></path>
<path d="M 31.82 45.38
  C 33.89 46.22 34.96 45.02 36.83 44.73
  A 1.06 1.06 0.0 0 0 37.58 44.24
  Q 38.70 42.48 38.29 40.40
  Q 38.20 39.97 37.78 39.83
  L 34.12 38.61" stroke="#997664"></path>
<path d="M 34.12 38.61
  Q 35.54 37.63 35.07 34.39
  A 0.85 0.83 71.4 0 1 35.48 33.54
  Q 35.89 33.30 36.39 33.37
  A 0.95 0.95 0.0 0 1 37.11 33.92
  Q 38.78 37.65 40.15 38.57
  C 43.28 40.68 45.79 39.55 47.12 36.40
  C 47.86 34.65 48.82 33.25 48.29 31.12
  Q 48.20 30.79 47.87 30.77
  L 38.42 30.18
  Q 38.02 30.16 37.75 29.86
  Q 37.05 29.12 35.09 29.61
  A 1.45 1.45 0.0 0 1 33.31 28.46
  Q 33.19 27.79 32.23 27.24" stroke="#b58e7b"></path>
<path d="M 32.23 27.24
  Q 32.09 27.18 31.97 26.96" stroke="#cba693"></path>
<path d="M 31.97 26.96
  Q 31.77 25.88 31.61 25.78
  A 2.07 1.62 -63.6 0 0 29.06 27.00
  L 28.35 28.72
  A 0.70 0.70 0.0 0 1 27.58 29.13
  Q 25.13 28.70 23.76 30.73
  A 0.60 0.59 23.4 0 1 23.12 30.98
  C 22.01 30.73 21.10 31.41 20.36 31.53
  Q 16.56 32.13 13.26 30.14
  A 1.44 1.44 0.0 0 0 11.13 31.77
  Q 12.01 34.80 14.60 36.46
  A 1.02 1.00 -77.0 0 1 15.06 37.21
  Q 15.33 39.66 17.26 40.23
  Q 22.05 41.64 24.82 37.61" stroke="#b58e7b"></path>
<path d="M 24.82 37.61
  Q 23.79 41.90 19.72 43.01
  Q 19.16 43.16 18.67 42.87
  L 14.77 40.56
  A 0.21 0.17 87.4 0 1 14.68 40.46
  C 14.14 39.12 13.85 38.27 12.83 37.10
  C 11.35 35.38 9.28 32.12 9.62 29.46
  A 0.66 0.66 0.0 0 1 10.32 28.89
  L 12.91 29.09" stroke="#997664"></path>
<path d="M 12.91 29.09
  Q 11.01 27.51 14.24 29.11
  Q 14.91 29.44 15.82 28.92" stroke="#916f5e"></path>
<path d="M 15.82 28.92
  Q 16.18 28.19 16.21 27.25
  A 0.48 0.48 0.0 0 1 16.77 26.79
  L 17.78 26.97
  A 1.05 1.05 0.0 0 1 18.53 27.52
  Q 18.99 28.41 19.98 28.24
  A 0.87 0.87 0.0 0 0 20.63 27.76
  Q 21.92 25.18 23.12 27.41" stroke="#6d4f40"></path>
<path d="M 23.12 27.41
  Q 22.85 27.55 22.91 27.81
  Q 23.02 28.27 23.49 28.20
  L 26.88 27.71
  A 1.97 1.97 0.0 0 0 28.02 24.39
  C 27.09 23.42 26.55 22.53 25.22 22.00
  Q 21.87 20.69 18.28 20.30" stroke="#916f5e"></path>
<path d="M 18.28 20.30
  C 21.33 20.51 23.60 20.21 26.84 20.97
  Q 29.73 21.66 31.75 20.72
  Q 34.50 19.46 37.37 18.61
  Q 37.82 18.48 37.93 18.03
  Q 38.14 17.22 38.91 16.84
  Q 39.35 16.63 39.31 16.14
  C 39.15 14.17 38.30 12.79 36.54 11.93
  Q 35.78 11.55 35.60 11.02
  Q 35.09 9.42 34.13 8.04
  A 1.47 1.44 81.2 0 0 33.39 7.49
  Q 29.93 6.31 26.65 4.77
  C 24.56 3.78 22.43 4.01 20.14 3.65" stroke="#ab8673"></path>
<path d="M 18.28 20.30
  L 15.51 19.66" stroke="#9b7967"></path>
<path d="M 15.51 19.66
  Q 17.71 19.68 19.62 18.53
  Q 20.05 18.27 20.54 18.34
  C 23.94 18.81 27.06 18.10 30.33 17.93
  C 32.60 17.80 36.37 17.46 36.38 14.59
  Q 36.38 14.14 36.07 13.83
  Q 34.22 11.93 31.41 12.01
  A 1.60 1.59 4.5 0 1 29.79 10.12
  C 30.08 8.56 30.03 7.44 28.53 6.59
  Q 25.33 4.77 21.56 4.66
  Q 21.07 4.65 20.64 4.43
  Q 19.73 3.97 18.27 4.67
  Q 15.31 6.08 13.74 8.67
  A 1.72 1.71 -69.3 0 0 14.90 11.25
  Q 16.35 11.51 17.44 12.48
  A 0.10 0.10 0.0 0 1 17.47 12.60
  Q 16.76 14.43 16.04 16.28
  Q 15.90 16.61 15.61 16.82
  L 12.99 18.67
  A 0.48 0.47 47.6 0 0 12.96 19.42
  Q 13.53 19.89 14.75 19.76" stroke="#c19d88"></path>
<path d="M 14.75 19.76
  Q 13.44 20.23 12.15 20.10
  Q 11.55 20.04 11.62 19.44
  Q 11.70 18.68 12.13 18.03
  Q 12.37 17.67 12.27 17.26
  Q 12.15 16.77 11.88 16.88
  A 0.21 0.20 69.2 0 1 11.61 16.75
  Q 10.18 12.20 12.47 8.64" stroke="#9b7967"></path>
<path d="M 15.51 19.66
  L 14.75 19.76" stroke="#a78673"></path>
<path d="M 23.12 27.41
  Q 23.82 28.00 24.30 27.12
  A 1.03 1.03 0.0 0 0 24.06 25.85
  C 20.38 22.72 17.67 25.04 13.91 25.65
  A 1.10 1.10 0.0 0 0 13.57 27.71
  L 15.82 28.92" stroke="#5d4234"></path>
<path d="M 12.91 29.09
  L 10.28 28.34
  A 1.30 1.29 -81.4 0 0 8.63 29.56
  C 8.60 30.90 8.41 32.07 9.12 33.32
  Q 11.06 36.74 13.06 40.14
  C 14.63 42.81 16.38 43.71 19.04 44.96
  Q 19.52 45.19 19.72 45.68
  Q 20.47 47.60 18.81 48.28
  Q 18.39 48.45 18.35 48.91
  Q 18.08 52.04 20.87 53.54
  Q 21.76 54.03 21.17 54.84
  Q 20.30 56.04 18.83 56.17
  A 0.29 0.29 0.0 0 0 18.77 56.74
  Q 20.49 57.29 21.25 58.82" stroke="#896958"></path>
<path d="M 21.25 58.82
  L 15.57 55.74" stroke="#765848"></path>
<path d="M 15.57 55.74
  Q 10.37 49.66 10.51 41.95
  A 0.74 0.73 -3.3 0 0 9.67 41.21
  C 6.74 41.63 6.81 39.46 5.38 37.98" stroke="#624435"></path>
<path d="M 5.22 37.78
  L 5.14 36.03
  Q 5.12 35.57 5.58 35.57
  Q 5.80 35.57 6.00 35.64
  Q 6.31 35.76 6.55 36.26
  Q 7.15 37.50 7.58 38.80
  Q 7.77 39.37 8.09 39.56
  Q 8.57 39.83 9.16 39.65
  Q 9.69 39.49 9.63 38.94
  Q 9.50 37.71 8.68 36.73
  Q 8.36 36.35 8.22 35.87
  L 7.27 32.47" stroke="#6f4c39"></path>
<path d="M 16.4183 21.9887
  A 2.15 0.93 -11.3 0 0 14.1278 21.4980
  A 2.15 0.93 -11.3 0 0 12.2017 22.8313
  A 2.15 0.93 -11.3 0 0 14.4922 23.3220
  A 2.15 0.93 -11.3 0 0 16.4183 21.9887" stroke="#9b7967"></path>
<path d="M 52.19 38.41
  L 51.79 43.22" stroke="#583e30"></path>
<path d="M 51.79 43.22
  C 51.60 48.38 50.49 50.63 47.76 55.15
  C 46.34 57.51 46.41 59.73 46.34 62.33
  A 1.02 1.02 0.0 0 1 45.41 63.31
  L 39.56 63.84" stroke="#4f372d"></path>
<path d="M 39.56 63.84
  C 40.77 62.74 42.01 62.17 42.79 60.73
  Q 43.77 58.92 44.78 57.13
  Q 45.02 56.71 45.07 56.22
  Q 45.17 55.05 46.21 54.36
  Q 46.68 54.04 46.67 53.47
  L 46.64 52.07
  Q 46.63 51.63 46.87 51.26
  Q 48.27 49.21 47.31 46.96
  A 0.82 0.81 -6.0 0 0 46.70 46.47
  L 44.81 46.12
  A 1.41 1.41 0.0 0 1 44.87 43.33
  Q 46.02 43.16 46.83 42.47
  Q 47.21 42.14 47.48 41.71
  Q 48.26 40.48 49.14 39.35
  C 51.00 36.96 50.89 33.60 50.34 30.83
  A 2.58 2.58 0.0 0 0 47.42 28.79
  Q 45.10 29.15 42.95 28.38
  Q 42.44 28.20 42.07 27.82
  C 40.64 26.36 38.18 27.74 36.12 27.23
  Q 35.65 27.11 35.36 27.27
  Q 34.98 27.46 34.73 27.88
  Q 34.40 28.41 34.13 27.85
  Q 33.10 25.80 34.05 23.81
  Q 34.30 23.29 34.86 23.19
  Q 35.41 23.09 35.41 22.53
  Q 36.38 21.32 37.54 20.26" stroke="#846454"></path>
<path d="M 39.56 63.84
  Q 39.65 63.92 39.75 64.00" stroke="#5c4238"></path>
<path d="M 30.27 64.00
  Q 29.78 63.56 28.80 63.69" stroke="#65493a"></path>
<path d="M 28.80 63.69
  L 21.25 58.82" stroke="#7e5e4e"></path>
<path d="M 24.82 37.61
  Q 24.96 36.41 26.20 36.03
  Q 26.75 35.86 27.01 36.37
  Q 27.15 36.63 27.17 36.96
  C 27.21 37.81 26.29 38.51 26.34 39.76
  Q 26.36 40.30 26.91 40.37
  Q 27.34 40.42 27.77 40.15
  C 28.17 39.88 28.23 39.52 28.57 39.18
  Q 28.93 38.82 29.43 38.90
  Q 31.76 39.25 34.12 38.61" stroke="#ad8775"></path>
<path d="M 31.82 45.38
  Q 27.79 44.96 25.58 41.74
  A 0.73 0.73 0.0 0 0 24.36 41.76
  L 22.49 44.79
  A 1.02 1.02 0.0 0 0 23.42 46.35
  C 24.55 46.28 25.29 46.62 26.38 47.35
  C 27.95 48.38 30.11 47.46 31.96 47.61" stroke="#af8d79"></path>
<path d="M 32.05 47.71
  Q 28.99 47.73 26.21 48.77" stroke="#76463f"></path>
<path d="M 26.21 48.77
  Q 24.65 49.18 23.65 48.42
  A 1.00 1.00 0.0 0 0 22.77 48.26
  Q 21.46 48.64 20.84 49.82
  A 0.74 0.74 0.0 0 0 21.57 50.90
  Q 23.59 50.69 25.44 51.27
  A 0.89 0.88 -2.6 0 1 26.02 51.79
  Q 26.26 52.36 27.01 52.71
  Q 30.10 54.14 32.68 54.23
  Q 33.15 54.25 32.87 54.62
  Q 32.47 55.13 31.76 54.91
  Q 30.66 54.58 30.08 55.18
  A 0.42 0.42 0.0 0 0 30.34 55.90
  Q 32.65 56.12 34.94 55.60
  Q 35.45 55.49 35.69 55.01
  L 36.38 53.67
  A 1.02 1.00 5.2 0 1 37.02 53.15
  C 39.49 52.46 39.78 50.51 41.87 49.68
  A 1.32 1.31 -86.8 0 0 42.57 49.05
  Q 43.05 48.10 44.11 47.98
  Q 44.53 47.93 44.56 47.51
  Q 44.58 47.16 44.23 47.04
  Q 43.97 46.95 43.74 47.11" stroke="#885f52"></path>
<path d="M 43.74 47.11
  L 41.98 47.24" stroke="#76463f"></path>
<path d="M 33.14 41.40
  Q 32.13 41.56 31.42 40.93
  Q 31.07 40.62 30.63 40.44
  Q 28.50 39.54 27.50 41.37
  Q 27.21 41.89 27.60 42.34
  Q 28.56 43.42 30.15 43.05
  A 0.66 0.66 0.0 0 1 30.90 43.39
  Q 32.40 46.36 35.10 43.99
  Q 35.47 43.66 35.96 43.63
  L 36.89 43.58
  A 1.40 1.39 -18.1 0 0 37.98 41.44
  Q 36.69 39.41 34.78 40.02
  Q 34.44 40.13 34.23 40.42
  L 33.82 40.99
  Q 33.56 41.34 33.14 41.40" stroke="#7e5e4e"></path>
<path d="M 31.97 26.96
  Q 31.38 26.46 30.32 26.64
  Q 29.70 26.75 29.72 27.38
  L 30.11 37.02
  Q 30.16 38.13 31.27 38.13
  L 32.73 38.13
  Q 33.93 38.13 33.75 36.94
  L 32.23 27.24" stroke="#dfb7a3"></path>
<path d="M 15.42 34.15
  L 19.11 37.57
  A 1.89 1.89 0.0 0 0 21.80 37.44
  Q 22.56 36.58 23.90 35.78
  Q 24.18 35.62 24.28 35.41
  Q 24.41 35.11 24.40 34.76
  Q 24.38 34.25 24.80 33.95
  Q 25.39 33.54 25.38 32.84
  Q 25.37 32.27 24.83 32.15
  Q 24.19 32.00 23.84 32.41
  Q 23.53 32.75 23.09 32.91
  Q 20.64 33.79 18.06 33.62
  Q 17.55 33.58 17.10 33.34
  L 16.30 32.91
  A 0.77 0.76 80.5 0 0 15.42 34.15" stroke="#d6ae99"></path>
<path d="M 56.68 26.97
  Q 57.09 27.62 57.92 27.79
  A 1.69 1.61 72.1 0 1 58.71 28.22
  C 60.67 30.14 60.40 31.96 63.19 33.35
  Q 63.67 33.59 63.76 33.06
  Q 64.12 31.10 63.66 29.08" stroke="#523320"></path>
<path d="M 49.49 64.00
  Q 52.62 63.82 55.76 63.60
  C 58.32 63.42 62.35 60.49 61.26 57.23
  C 60.73 55.66 60.78 54.87 61.12 53.38
  Q 61.23 52.88 61.06 52.40
  C 60.15 49.76 58.31 47.83 57.38 45.45
  Q 56.63 43.51 55.87 41.56
  A 0.75 0.74 -49.2 0 1 55.84 41.13
  Q 55.94 40.68 55.62 40.36
  Q 55.37 40.11 55.32 39.77
  Q 55.18 38.82 55.29 38.31
  Q 55.42 37.71 54.82 37.54
  L 54.31 37.39
  A 0.72 0.71 16.1 0 0 53.43 37.87
  L 51.79 43.22" stroke="#301c14"></path>
<path d="M 15.57 55.74
  L 15.03 64.00" stroke="#573a2b"></path>
<path d="M 11.81 64.00
  L 10.61 60.24
  A 0.17 0.17 0.0 0 0 10.33 60.17
  Q 10.23 60.27 10.13 60.38
  A 0.26 0.26 0.0 0 1 9.70 60.26
  Q 8.65 56.33 5.92 53.29
  Q 5.56 52.89 5.49 52.36
  L 4.94 48.01
  A 1.10 1.09 18.1 0 0 4.60 47.35
  Q 3.59 46.41 3.63 45.02
  A 1.32 1.29 -67.2 0 0 3.24 44.04
  Q 1.87 42.70 1.87 40.77
  A 0.47 0.46 -11.8 0 0 1.22 40.35
  Q 0.77 40.54 0.79 41.02
  Q 0.94 44.77 0.28 48.03" stroke="#4f2e1c"></path>
<path d="M 0.28 48.03
  L 0.27 58.72" stroke="#624435"></path>
<path d="M 0.27 58.72
  Q 0.24 59.47 0.00 59.64" stroke="#886856"></path>
<path d="M 5.79 64.00
  Q 5.94 61.29 5.26 58.14
  C 5.12 57.46 4.46 56.78 4.06 56.15
  A 0.89 0.82 -68.9 0 1 3.92 55.79
  Q 3.76 54.84 3.00 53.25
  Q 1.16 49.37 0.28 48.03" stroke="#6f4c39"></path>
<path d="M 43.74 47.11
  L 43.69 47.38
  Q 43.66 47.50 43.56 47.56
  Q 42.27 48.34 40.94 49.01
  Q 40.49 49.23 39.99 49.23
  Q 37.71 49.24 35.01 49.89
  Q 34.06 50.12 33.06 49.50
  A 0.67 0.65 -33.7 0 0 32.58 49.41
  L 25.16 50.59
  Q 24.35 50.72 24.05 49.95
  L 23.92 49.58
  Q 23.68 48.96 24.34 48.91
  L 26.21 48.77" stroke="#6d3633"></path>
<path d="M 3.39 64.00
  Q 4.93 63.50 4.34 61.75
  C 3.85 60.28 2.07 59.24 0.75 58.52
  Q 0.56 58.41 0.27 58.72" stroke="#a78673"></path>
<path d="M 28.80 63.69
  L 24.48 64.00" stroke="#52382a"></path>
<path d="M 23.66 64.00
  Q 21.58 63.38 19.48 64.00" stroke="#52382a"></path>
</g>
<path d="M 0.00 0.00
  L 10.50 0.00
  Q 10.53 0.07 10.56 0.15
  L 8.53 0.23
  Q 8.03 0.25 7.89 0.73
  Q 7.58 1.81 8.45 2.58
  Q 8.82 2.91 8.49 3.28
  Q 8.08 3.72 7.40 3.92
  Q 6.98 4.04 6.89 4.47
  Q 6.79 4.96 6.96 5.42
  A 0.77 0.77 0.0 0 0 7.68 5.91
  Q 9.57 5.88 11.22 5.13
  A 1.76 1.75 -14.5 0 1 13.70 6.58
  Q 13.72 6.87 12.73 7.50
  Q 13.35 4.94 10.40 6.26
  A 1.71 1.55 9.0 0 0 10.02 6.51
  C 7.78 8.56 4.89 8.46 2.26 10.62
  Q 1.69 11.08 0.62 10.67
  A 0.60 0.59 14.7 0 1 0.24 10.03
  Q 0.63 7.41 0.16 4.79
  Q 0.07 4.32 0.28 3.90
  Q 1.07 2.32 0.00 1.12
  L 0.00 0.00
  Z" fill="#6b4329"></path>
<path d="M 10.50 0.00
  L 41.51 0.00
  Q 40.89 0.27 40.86 0.65
  Q 40.85 0.92 41.28 1.23
  C 43.32 2.69 44.40 6.72 44.69 9.40
  A 0.67 0.67 0.0 0 1 44.30 10.08
  Q 44.11 10.17 43.90 10.14
  Q 43.55 10.09 43.31 9.64
  Q 43.04 9.14 42.78 8.43
  Q 42.64 8.02 42.30 7.74
  C 40.96 6.64 39.70 5.17 38.31 4.40
  Q 34.56 2.31 30.22 2.70
  C 27.90 2.91 26.44 2.41 24.39 1.78
  Q 22.26 1.14 20.00 1.21
  Q 16.75 1.32 13.41 0.98
  L 10.56 0.15
  Q 10.53 0.07 10.50 0.00
  Z" fill="#382216"></path>
<path d="M 41.51 0.00
  L 44.08 0.00
  L 47.53 8.30
  Q 48.35 10.26 49.19 8.31
  Q 49.29 8.08 49.44 7.79
  Q 50.12 6.51 50.39 7.93
  Q 50.87 10.47 51.23 13.37
  C 51.56 16.05 52.48 18.30 53.32 20.80
  Q 53.38 20.96 53.54 21.02
  L 53.85 21.13
  Q 54.00 21.19 54.03 21.35
  Q 54.18 22.33 54.94 22.38
  Q 55.27 22.40 55.35 22.72
  L 55.48 23.25
  Q 55.49 23.28 55.62 23.28
  Q 55.68 23.28 55.74 23.25
  Q 55.88 23.18 56.06 23.33
  L 58.50 25.37
  Q 58.92 25.73 58.41 25.93
  Q 58.18 26.02 58.00 26.25
  Q 57.66 26.68 58.10 27.02
  L 58.99 27.70
  Q 57.91 27.13 56.68 26.97
  Q 54.45 26.82 52.74 25.73
  A 0.88 0.88 0.0 0 0 51.42 26.69
  Q 53.06 33.00 52.19 38.41
  Q 52.52 34.54 51.42 31.32
  A 1.32 1.31 -83.4 0 0 50.87 30.62
  Q 49.96 30.05 50.12 28.98
  A 1.25 1.24 -84.5 0 0 48.96 27.56
  L 44.77 27.33
  Q 44.54 27.31 44.59 27.08
  Q 44.84 26.06 44.30 25.28
  A 0.69 0.68 55.5 0 0 43.34 25.10
  Q 41.80 26.17 40.06 25.40
  Q 39.54 25.17 39.00 25.32
  Q 38.27 25.52 38.15 26.16
  Q 38.02 26.92 37.26 26.92
  Q 36.53 26.92 36.09 26.36
  A 0.74 0.73 49.2 0 1 36.16 25.37
  Q 40.47 21.34 46.51 22.23
  A 1.07 1.07 0.0 0 0 47.55 20.58
  C 45.56 17.61 41.61 20.49 39.19 21.26
  A 0.62 0.60 -25.6 0 1 38.51 21.03
  L 38.35 20.78
  Q 38.15 20.49 38.48 20.39
  Q 39.89 19.96 40.99 18.90
  L 43.67 17.49
  L 45.00 16.85
  Q 45.39 16.66 45.30 16.24
  C 44.66 13.37 42.48 12.54 41.92 9.89
  A 1.63 1.58 -72.8 0 0 41.54 9.14
  C 39.47 6.82 38.33 5.12 35.52 3.57
  A 1.50 1.48 -29.1 0 0 34.83 3.38
  C 31.12 3.32 28.34 3.41 24.28 2.27
  C 22.26 1.70 20.79 1.92 18.79 2.15
  Q 18.33 2.20 17.89 2.09
  Q 16.89 1.84 16.03 1.28
  A 1.07 1.07 0.0 0 0 15.04 1.18
  Q 13.91 1.63 13.41 0.98
  Q 16.75 1.32 20.00 1.21
  Q 22.26 1.14 24.39 1.78
  C 26.44 2.41 27.90 2.91 30.22 2.70
  Q 34.56 2.31 38.31 4.40
  C 39.70 5.17 40.96 6.64 42.30 7.74
  Q 42.64 8.02 42.78 8.43
  Q 43.04 9.14 43.31 9.64
  Q 43.55 10.09 43.90 10.14
  Q 44.11 10.17 44.30 10.08
  A 0.67 0.67 0.0 0 0 44.69 9.40
  C 44.40 6.72 43.32 2.69 41.28 1.23
  Q 40.85 0.92 40.86 0.65
  Q 40.89 0.27 41.51 0.00
  Z" fill="#5c3620"></path>
<path d="M 44.08 0.00
  L 48.85 0.00
  L 51.89 0.31
  Q 52.56 0.99 53.43 1.46
  A 0.50 0.49 6.0 0 1 53.64 1.71
  L 55.96 8.48
  A 0.37 0.37 0.0 0 1 55.37 8.89
  Q 54.17 7.86 53.21 9.25
  A 0.43 0.43 0.0 0 1 52.47 9.18
  L 52.10 8.33
  Q 51.76 7.56 51.42 8.33
  C 50.71 9.95 51.63 11.73 52.91 12.34
  Q 53.41 12.57 53.79 12.98
  L 57.74 17.24
  A 0.92 0.92 0.0 0 0 59.33 16.62
  Q 59.33 15.55 59.99 15.32
  Q 62.33 16.23 62.31 18.67
  Q 62.30 19.28 61.73 19.47
  L 60.51 19.87
  Q 59.89 20.08 60.11 20.69
  L 60.47 21.73
  Q 60.63 22.21 60.22 22.50
  Q 59.35 23.11 58.93 24.11
  Q 58.74 24.55 59.19 24.72
  Q 59.94 25.00 60.25 25.76
  Q 60.49 26.36 59.86 26.53
  Q 59.55 26.61 59.61 26.95
  Q 59.70 27.44 60.12 27.71
  Q 60.74 28.12 61.04 28.75
  Q 60.05 28.62 58.99 27.70
  L 58.10 27.02
  Q 57.66 26.68 58.00 26.25
  Q 58.18 26.02 58.41 25.93
  Q 58.92 25.73 58.50 25.37
  L 56.06 23.33
  Q 55.88 23.18 55.74 23.25
  Q 55.68 23.28 55.62 23.28
  Q 55.49 23.28 55.48 23.25
  L 55.35 22.72
  Q 55.27 22.40 54.94 22.38
  Q 54.18 22.33 54.03 21.35
  Q 54.00 21.19 53.85 21.13
  L 53.54 21.02
  Q 53.38 20.96 53.32 20.80
  C 52.48 18.30 51.56 16.05 51.23 13.37
  Q 50.87 10.47 50.39 7.93
  Q 50.12 6.51 49.44 7.79
  Q 49.29 8.08 49.19 8.31
  Q 48.35 10.26 47.53 8.30
  L 44.08 0.00
  Z" fill="#8b4a22"></path>
<path d="M 48.85 0.00
  L 55.01 0.00
  L 53.79 0.30
  L 51.89 0.31
  L 48.85 0.00
  Z" fill="#422618"></path>
<path d="M 55.01 0.00
  L 63.61 0.00
  L 64.00 4.51
  L 64.00 15.60
  L 64.00 23.27
  L 64.00 28.58
  Q 63.83 28.46 63.66 29.08
  Q 62.18 28.56 61.04 28.75
  Q 60.74 28.12 60.12 27.71
  Q 59.70 27.44 59.61 26.95
  Q 59.55 26.61 59.86 26.53
  Q 60.49 26.36 60.25 25.76
  Q 59.94 25.00 59.19 24.72
  Q 58.74 24.55 58.93 24.11
  Q 59.35 23.11 60.22 22.50
  Q 60.63 22.21 60.47 21.73
  L 60.11 20.69
  Q 59.89 20.08 60.51 19.87
  L 61.73 19.47
  Q 62.30 19.28 62.31 18.67
  Q 62.33 16.23 59.99 15.32
  Q 60.81 13.27 59.45 10.79
  Q 59.23 10.38 59.31 9.92
  Q 59.65 7.99 58.91 6.19
  Q 58.83 5.99 58.83 5.78
  C 58.84 4.77 57.19 3.57 56.93 2.23
  A 1.31 1.30 73.0 0 0 55.14 1.27
  Q 53.89 1.80 53.79 0.30
  L 55.01 0.00
  Z" fill="#ad6a3a"></path>
<path d="M 63.61 0.00
  L 64.00 0.00
  L 64.00 4.51
  L 63.61 0.00
  Z" fill="#422618"></path>
<path d="M 10.56 0.15
  L 13.41 0.98
  Q 13.91 1.63 15.04 1.18
  A 1.07 1.07 0.0 0 1 16.03 1.28
  Q 16.89 1.84 17.89 2.09
  Q 18.33 2.20 18.79 2.15
  C 20.79 1.92 22.26 1.70 24.28 2.27
  C 28.34 3.41 31.12 3.32 34.83 3.38
  A 1.50 1.48 -29.1 0 1 35.52 3.57
  C 38.33 5.12 39.47 6.82 41.54 9.14
  A 1.63 1.58 -72.8 0 1 41.92 9.89
  C 42.48 12.54 44.66 13.37 45.30 16.24
  Q 45.39 16.66 45.00 16.85
  L 43.67 17.49
  Q 44.30 15.96 43.03 15.56
  A 1.28 1.18 77.7 0 1 42.47 15.17
  C 41.67 14.22 40.42 13.67 40.33 12.48
  Q 40.29 12.00 40.02 11.60
  Q 38.68 9.59 37.86 7.30
  A 2.69 2.69 0.0 0 0 35.94 5.60
  C 33.34 4.99 30.87 5.31 28.19 4.50
  Q 24.36 3.34 20.14 3.65
  Q 16.00 4.59 12.47 8.64
  Q 10.98 9.50 9.89 11.43
  Q 9.78 10.86 9.85 10.45
  Q 9.91 10.08 10.39 9.72
  Q 11.73 8.74 12.73 7.50
  Q 13.72 6.87 13.70 6.58
  A 1.76 1.75 -14.5 0 0 11.22 5.13
  Q 9.57 5.88 7.68 5.91
  A 0.77 0.77 0.0 0 1 6.96 5.42
  Q 6.79 4.96 6.89 4.47
  Q 6.98 4.04 7.40 3.92
  Q 8.08 3.72 8.49 3.28
  Q 8.82 2.91 8.45 2.58
  Q 7.58 1.81 7.89 0.73
  Q 8.03 0.25 8.53 0.23
  L 10.56 0.15
  Z" fill="#775949"></path>
<path d="M 51.89 0.31
  L 53.79 0.30
  Q 53.89 1.80 55.14 1.27
  A 1.31 1.30 73.0 0 1 56.93 2.23
  C 57.19 3.57 58.84 4.77 58.83 5.78
  Q 58.83 5.99 58.91 6.19
  Q 59.65 7.99 59.31 9.92
  Q 59.23 10.38 59.45 10.79
  Q 60.81 13.27 59.99 15.32
  Q 59.33 15.55 59.33 16.62
  A 0.92 0.92 0.0 0 1 57.74 17.24
  L 53.79 12.98
  Q 53.41 12.57 52.91 12.34
  C 51.63 11.73 50.71 9.95 51.42 8.33
  Q 51.76 7.56 52.10 8.33
  L 52.47 9.18
  A 0.43 0.43 0.0 0 0 53.21 9.25
  Q 54.17 7.86 55.37 8.89
  A 0.37 0.37 0.0 0 0 55.96 8.48
  L 53.64 1.71
  A 0.50 0.49 6.0 0 0 53.43 1.46
  Q 52.56 0.99 51.89 0.31
  Z" fill="#a15826"></path>
<path d="M 0.00 1.12
  Q 1.07 2.32 0.28 3.90
  Q 0.07 4.32 0.16 4.79
  Q 0.63 7.41 0.24 10.03
  A 0.60 0.59 14.7 0 0 0.62 10.67
  Q 1.69 11.08 2.26 10.62
  C 4.89 8.46 7.78 8.56 10.02 6.51
  A 1.71 1.55 9.0 0 1 10.40 6.26
  Q 13.35 4.94 12.73 7.50
  Q 11.73 8.74 10.39 9.72
  Q 9.91 10.08 9.85 10.45
  Q 9.78 10.86 9.89 11.43
  Q 8.62 13.33 8.86 15.79
  Q 8.87 15.88 8.81 15.94
  Q 8.69 16.06 8.56 16.19
  A 0.93 0.92 -21.1 0 0 8.29 16.79
  L 7.27 32.47
  L 7.62 35.08
  Q 7.76 36.13 6.99 35.40
  L 5.22 33.72
  A 0.81 0.81 0.0 0 1 5.12 32.67
  Q 5.81 31.70 5.62 30.51
  Q 5.55 30.07 5.19 29.81
  L 3.20 28.33
  Q 1.48 27.06 2.19 29.07
  L 5.22 37.78
  Q 5.30 37.88 5.38 37.98
  Q 5.15 42.03 8.72 41.56
  A 1.30 1.30 0.0 0 1 10.18 43.00
  L 9.83 46.05
  A 0.44 0.44 0.0 0 1 8.98 46.14
  L 8.70 45.32
  Q 8.54 44.86 8.10 44.64
  L 4.73 42.95
  A 2.12 2.09 12.4 0 1 3.57 41.16
  Q 3.52 39.98 2.59 39.37
  Q 2.13 39.07 2.00 38.54
  L 0.00 30.73
  L 0.00 1.12
  Z" fill="#382216"></path>
<path d="M 43.67 17.49
  L 40.99 18.90
  Q 39.21 19.25 37.54 20.26
  C 35.90 20.32 33.75 22.46 32.43 23.54
  Q 32.03 23.87 32.28 24.33
  Q 32.98 25.62 33.35 27.87
  Q 33.47 28.62 34.22 28.73
  Q 34.66 28.79 34.84 28.38
  Q 35.12 27.72 35.76 27.89
  Q 42.77 29.74 48.52 29.70
  A 0.84 0.82 80.5 0 1 49.32 30.28
  Q 49.80 31.79 49.36 34.13
  Q 48.49 38.66 45.77 41.05
  Q 45.40 41.38 44.91 41.38
  L 43.45 41.38
  A 0.92 0.92 0.0 0 0 42.69 42.81
  Q 43.48 43.99 43.38 45.45
  Q 43.35 45.87 42.94 45.95
  Q 42.09 46.13 41.98 47.24
  L 32.05 47.71
  Q 32.01 47.66 31.96 47.61
  Q 33.59 47.78 34.34 47.10
  Q 35.64 45.94 33.91 46.19
  Q 32.14 46.45 31.82 45.38
  C 33.89 46.22 34.96 45.02 36.83 44.73
  A 1.06 1.06 0.0 0 0 37.58 44.24
  Q 38.70 42.48 38.29 40.40
  Q 38.20 39.97 37.78 39.83
  L 34.12 38.61
  Q 35.54 37.63 35.07 34.39
  A 0.85 0.83 71.4 0 1 35.48 33.54
  Q 35.89 33.30 36.39 33.37
  A 0.95 0.95 0.0 0 1 37.11 33.92
  Q 38.78 37.65 40.15 38.57
  C 43.28 40.68 45.79 39.55 47.12 36.40
  C 47.86 34.65 48.82 33.25 48.29 31.12
  Q 48.20 30.79 47.87 30.77
  L 38.42 30.18
  Q 38.02 30.16 37.75 29.86
  Q 37.05 29.12 35.09 29.61
  A 1.45 1.45 0.0 0 1 33.31 28.46
  Q 33.19 27.79 32.23 27.24
  Q 32.09 27.18 31.97 26.96
  Q 31.77 25.88 31.61 25.78
  A 2.07 1.62 -63.6 0 0 29.06 27.00
  L 28.35 28.72
  A 0.70 0.70 0.0 0 1 27.58 29.13
  Q 25.13 28.70 23.76 30.73
  A 0.60 0.59 23.4 0 1 23.12 30.98
  C 22.01 30.73 21.10 31.41 20.36 31.53
  Q 16.56 32.13 13.26 30.14
  A 1.44 1.44 0.0 0 0 11.13 31.77
  Q 12.01 34.80 14.60 36.46
  A 1.02 1.00 -77.0 0 1 15.06 37.21
  Q 15.33 39.66 17.26 40.23
  Q 22.05 41.64 24.82 37.61
  Q 23.79 41.90 19.72 43.01
  Q 19.16 43.16 18.67 42.87
  L 14.77 40.56
  A 0.21 0.17 87.4 0 1 14.68 40.46
  C 14.14 39.12 13.85 38.27 12.83 37.10
  C 11.35 35.38 9.28 32.12 9.62 29.46
  A 0.66 0.66 0.0 0 1 10.32 28.89
  L 12.91 29.09
  Q 11.01 27.51 14.24 29.11
  Q 14.91 29.44 15.82 28.92
  Q 16.18 28.19 16.21 27.25
  A 0.48 0.48 0.0 0 1 16.77 26.79
  L 17.78 26.97
  A 1.05 1.05 0.0 0 1 18.53 27.52
  Q 18.99 28.41 19.98 28.24
  A 0.87 0.87 0.0 0 0 20.63 27.76
  Q 21.92 25.18 23.12 27.41
  Q 22.85 27.55 22.91 27.81
  Q 23.02 28.27 23.49 28.20
  L 26.88 27.71
  A 1.97 1.97 0.0 0 0 28.02 24.39
  C 27.09 23.42 26.55 22.53 25.22 22.00
  Q 21.87 20.69 18.28 20.30
  C 21.33 20.51 23.60 20.21 26.84 20.97
  Q 29.73 21.66 31.75 20.72
  Q 34.50 19.46 37.37 18.61
  Q 37.82 18.48 37.93 18.03
  Q 38.14 17.22 38.91 16.84
  Q 39.35 16.63 39.31 16.14
  C 39.15 14.17 38.30 12.79 36.54 11.93
  Q 35.78 11.55 35.60 11.02
  Q 35.09 9.42 34.13 8.04
  A 1.47 1.44 81.2 0 0 33.39 7.49
  Q 29.93 6.31 26.65 4.77
  C 24.56 3.78 22.43 4.01 20.14 3.65
  Q 24.36 3.34 28.19 4.50
  C 30.87 5.31 33.34 4.99 35.94 5.60
  A 2.69 2.69 0.0 0 1 37.86 7.30
  Q 38.68 9.59 40.02 11.60
  Q 40.29 12.00 40.33 12.48
  C 40.42 13.67 41.67 14.22 42.47 15.17
  A 1.28 1.18 77.7 0 0 43.03 15.56
  Q 44.30 15.96 43.67 17.49
  Z" fill="#a17c6a"></path>
<path d="M 20.14 3.65
  C 22.43 4.01 24.56 3.78 26.65 4.77
  Q 29.93 6.31 33.39 7.49
  A 1.47 1.44 81.2 0 1 34.13 8.04
  Q 35.09 9.42 35.60 11.02
  Q 35.78 11.55 36.54 11.93
  C 38.30 12.79 39.15 14.17 39.31 16.14
  Q 39.35 16.63 38.91 16.84
  Q 38.14 17.22 37.93 18.03
  Q 37.82 18.48 37.37 18.61
  Q 34.50 19.46 31.75 20.72
  Q 29.73 21.66 26.84 20.97
  C 23.60 20.21 21.33 20.51 18.28 20.30
  L 15.51 19.66
  Q 17.71 19.68 19.62 18.53
  Q 20.05 18.27 20.54 18.34
  C 23.94 18.81 27.06 18.10 30.33 17.93
  C 32.60 17.80 36.37 17.46 36.38 14.59
  Q 36.38 14.14 36.07 13.83
  Q 34.22 11.93 31.41 12.01
  A 1.60 1.59 4.5 0 1 29.79 10.12
  C 30.08 8.56 30.03 7.44 28.53 6.59
  Q 25.33 4.77 21.56 4.66
  Q 21.07 4.65 20.64 4.43
  Q 19.73 3.97 18.27 4.67
  Q 15.31 6.08 13.74 8.67
  A 1.72 1.71 -69.3 0 0 14.90 11.25
  Q 16.35 11.51 17.44 12.48
  A 0.10 0.10 0.0 0 1 17.47 12.60
  Q 16.76 14.43 16.04 16.28
  Q 15.90 16.61 15.61 16.82
  L 12.99 18.67
  A 0.48 0.47 47.6 0 0 12.96 19.42
  Q 13.53 19.89 14.75 19.76
  Q 13.44 20.23 12.15 20.10
  Q 11.55 20.04 11.62 19.44
  Q 11.70 18.68 12.13 18.03
  Q 12.37 17.67 12.27 17.26
  Q 12.15 16.77 11.88 16.88
  A 0.21 0.20 69.2 0 1 11.61 16.75
  Q 10.18 12.20 12.47 8.64
  Q 16.00 4.59 20.14 3.65
  Z" fill="#b5907c"></path>
<path d="M 15.51 19.66
  L 14.75 19.76
  Q 13.53 19.89 12.96 19.42
  A 0.48 0.47 47.6 0 1 12.99 18.67
  L 15.61 16.82
  Q 15.90 16.61 16.04 16.28
  Q 16.76 14.43 17.47 12.60
  A 0.10 0.10 0.0 0 0 17.44 12.48
  Q 16.35 11.51 14.90 11.25
  A 1.72 1.71 -69.3 0 1 13.74 8.67
  Q 15.31 6.08 18.27 4.67
  Q 19.73 3.97 20.64 4.43
  Q 21.07 4.65 21.56 4.66
  Q 25.33 4.77 28.53 6.59
  C 30.03 7.44 30.08 8.56 29.79 10.12
  A 1.60 1.59 4.5 0 0 31.41 12.01
  Q 34.22 11.93 36.07 13.83
  Q 36.38 14.14 36.38 14.59
  C 36.37 17.46 32.60 17.80 30.33 17.93
  C 27.06 18.10 23.94 18.81 20.54 18.34
  Q 20.05 18.27 19.62 18.53
  Q 17.71 19.68 15.51 19.66
  Z" fill="#cdaa94"></path>
<path d="M 12.47 8.64
  Q 10.18 12.20 11.61 16.75
  A 0.21 0.20 69.2 0 0 11.88 16.88
  Q 12.15 16.77 12.27 17.26
  Q 12.37 17.67 12.13 18.03
  Q 11.70 18.68 11.62 19.44
  Q 11.55 20.04 12.15 20.10
  Q 13.44 20.23 14.75 19.76
  L 15.51 19.66
  L 18.28 20.30
  Q 21.87 20.69 25.22 22.00
  C 26.55 22.53 27.09 23.42 28.02 24.39
  A 1.97 1.97 0.0 0 1 26.88 27.71
  L 23.49 28.20
  Q 23.02 28.27 22.91 27.81
  Q 22.85 27.55 23.12 27.41
  Q 23.82 28.00 24.30 27.12
  A 1.03 1.03 0.0 0 0 24.06 25.85
  C 20.38 22.72 17.67 25.04 13.91 25.65
  A 1.10 1.10 0.0 0 0 13.57 27.71
  L 15.82 28.92
  Q 14.91 29.44 14.24 29.11
  Q 11.01 27.51 12.91 29.09
  L 10.28 28.34
  A 1.30 1.29 -81.4 0 0 8.63 29.56
  C 8.60 30.90 8.41 32.07 9.12 33.32
  Q 11.06 36.74 13.06 40.14
  C 14.63 42.81 16.38 43.71 19.04 44.96
  Q 19.52 45.19 19.72 45.68
  Q 20.47 47.60 18.81 48.28
  Q 18.39 48.45 18.35 48.91
  Q 18.08 52.04 20.87 53.54
  Q 21.76 54.03 21.17 54.84
  Q 20.30 56.04 18.83 56.17
  A 0.29 0.29 0.0 0 0 18.77 56.74
  Q 20.49 57.29 21.25 58.82
  L 15.57 55.74
  Q 10.37 49.66 10.51 41.95
  A 0.74 0.73 -3.3 0 0 9.67 41.21
  C 6.74 41.63 6.81 39.46 5.38 37.98
  Q 5.30 37.88 5.22 37.78
  L 5.14 36.03
  Q 5.12 35.57 5.58 35.57
  Q 5.80 35.57 6.00 35.64
  Q 6.31 35.76 6.55 36.26
  Q 7.15 37.50 7.58 38.80
  Q 7.77 39.37 8.09 39.56
  Q 8.57 39.83 9.16 39.65
  Q 9.69 39.49 9.63 38.94
  Q 9.50 37.71 8.68 36.73
  Q 8.36 36.35 8.22 35.87
  L 7.27 32.47
  L 8.29 16.79
  A 0.93 0.92 -21.1 0 1 8.56 16.19
  Q 8.69 16.06 8.81 15.94
  Q 8.87 15.88 8.86 15.79
  Q 8.62 13.33 9.89 11.43
  Q 10.98 9.50 12.47 8.64
  Z
  M 16.4183 21.9887
  A 2.15 0.93 -11.3 0 0 14.1278 21.4980
  A 2.15 0.93 -11.3 0 0 12.2017 22.8313
  A 2.15 0.93 -11.3 0 0 14.4922 23.3220
  A 2.15 0.93 -11.3 0 0 16.4183 21.9887
  Z" fill="#816252"></path>
<path d="M 64.00 15.60
  L 64.00 23.27
  L 64.00 15.60
  Z" fill="#422618"></path>
<path d="M 40.99 18.90
  Q 39.89 19.96 38.48 20.39
  Q 38.15 20.49 38.35 20.78
  L 38.51 21.03
  A 0.62 0.60 -25.6 0 0 39.19 21.26
  C 41.61 20.49 45.56 17.61 47.55 20.58
  A 1.07 1.07 0.0 0 1 46.51 22.23
  Q 40.47 21.34 36.16 25.37
  A 0.74 0.73 49.2 0 0 36.09 26.36
  Q 36.53 26.92 37.26 26.92
  Q 38.02 26.92 38.15 26.16
  Q 38.27 25.52 39.00 25.32
  Q 39.54 25.17 40.06 25.40
  Q 41.80 26.17 43.34 25.10
  A 0.69 0.68 55.5 0 1 44.30 25.28
  Q 44.84 26.06 44.59 27.08
  Q 44.54 27.31 44.77 27.33
  L 48.96 27.56
  A 1.25 1.24 -84.5 0 1 50.12 28.98
  Q 49.96 30.05 50.87 30.62
  A 1.32 1.31 -83.4 0 1 51.42 31.32
  Q 52.52 34.54 52.19 38.41
  L 51.79 43.22
  C 51.60 48.38 50.49 50.63 47.76 55.15
  C 46.34 57.51 46.41 59.73 46.34 62.33
  A 1.02 1.02 0.0 0 1 45.41 63.31
  L 39.56 63.84
  C 40.77 62.74 42.01 62.17 42.79 60.73
  Q 43.77 58.92 44.78 57.13
  Q 45.02 56.71 45.07 56.22
  Q 45.17 55.05 46.21 54.36
  Q 46.68 54.04 46.67 53.47
  L 46.64 52.07
  Q 46.63 51.63 46.87 51.26
  Q 48.27 49.21 47.31 46.96
  A 0.82 0.81 -6.0 0 0 46.70 46.47
  L 44.81 46.12
  A 1.41 1.41 0.0 0 1 44.87 43.33
  Q 46.02 43.16 46.83 42.47
  Q 47.21 42.14 47.48 41.71
  Q 48.26 40.48 49.14 39.35
  C 51.00 36.96 50.89 33.60 50.34 30.83
  A 2.58 2.58 0.0 0 0 47.42 28.79
  Q 45.10 29.15 42.95 28.38
  Q 42.44 28.20 42.07 27.82
  C 40.64 26.36 38.18 27.74 36.12 27.23
  Q 35.65 27.11 35.36 27.27
  Q 34.98 27.46 34.73 27.88
  Q 34.40 28.41 34.13 27.85
  Q 33.10 25.80 34.05 23.81
  Q 34.30 23.29 34.86 23.19
  Q 35.41 23.09 35.41 22.53
  Q 36.38 21.32 37.54 20.26
  Q 39.21 19.25 40.99 18.90
  Z" fill="#775949"></path>
<path d="M 37.54 20.26
  Q 36.38 21.32 35.41 22.53
  Q 35.41 23.09 34.86 23.19
  Q 34.30 23.29 34.05 23.81
  Q 33.10 25.80 34.13 27.85
  Q 34.40 28.41 34.73 27.88
  Q 34.98 27.46 35.36 27.27
  Q 35.65 27.11 36.12 27.23
  C 38.18 27.74 40.64 26.36 42.07 27.82
  Q 42.44 28.20 42.95 28.38
  Q 45.10 29.15 47.42 28.79
  A 2.58 2.58 0.0 0 1 50.34 30.83
  C 50.89 33.60 51.00 36.96 49.14 39.35
  Q 48.26 40.48 47.48 41.71
  Q 47.21 42.14 46.83 42.47
  Q 46.02 43.16 44.87 43.33
  A 1.41 1.41 0.0 0 0 44.81 46.12
  L 46.70 46.47
  A 0.82 0.81 -6.0 0 1 47.31 46.96
  Q 48.27 49.21 46.87 51.26
  Q 46.63 51.63 46.64 52.07
  L 46.67 53.47
  Q 46.68 54.04 46.21 54.36
  Q 45.17 55.05 45.07 56.22
  Q 45.02 56.71 44.78 57.13
  Q 43.77 58.92 42.79 60.73
  C 42.01 62.17 40.77 62.74 39.56 63.84
  Q 39.65 63.92 39.75 64.00
  L 30.27 64.00
  Q 29.78 63.56 28.80 63.69
  L 21.25 58.82
  Q 20.49 57.29 18.77 56.74
  A 0.29 0.29 0.0 0 1 18.83 56.17
  Q 20.30 56.04 21.17 54.84
  Q 21.76 54.03 20.87 53.54
  Q 18.08 52.04 18.35 48.91
  Q 18.39 48.45 18.81 48.28
  Q 20.47 47.60 19.72 45.68
  Q 19.52 45.19 19.04 44.96
  C 16.38 43.71 14.63 42.81 13.06 40.14
  Q 11.06 36.74 9.12 33.32
  C 8.41 32.07 8.60 30.90 8.63 29.56
  A 1.30 1.29 -81.4 0 1 10.28 28.34
  L 12.91 29.09
  L 10.32 28.89
  A 0.66 0.66 0.0 0 0 9.62 29.46
  C 9.28 32.12 11.35 35.38 12.83 37.10
  C 13.85 38.27 14.14 39.12 14.68 40.46
  A 0.21 0.17 87.4 0 0 14.77 40.56
  L 18.67 42.87
  Q 19.16 43.16 19.72 43.01
  Q 23.79 41.90 24.82 37.61
  Q 24.96 36.41 26.20 36.03
  Q 26.75 35.86 27.01 36.37
  Q 27.15 36.63 27.17 36.96
  C 27.21 37.81 26.29 38.51 26.34 39.76
  Q 26.36 40.30 26.91 40.37
  Q 27.34 40.42 27.77 40.15
  C 28.17 39.88 28.23 39.52 28.57 39.18
  Q 28.93 38.82 29.43 38.90
  Q 31.76 39.25 34.12 38.61
  L 37.78 39.83
  Q 38.20 39.97 38.29 40.40
  Q 38.70 42.48 37.58 44.24
  A 1.06 1.06 0.0 0 1 36.83 44.73
  C 34.96 45.02 33.89 46.22 31.82 45.38
  Q 27.79 44.96 25.58 41.74
  A 0.73 0.73 0.0 0 0 24.36 41.76
  L 22.49 44.79
  A 1.02 1.02 0.0 0 0 23.42 46.35
  C 24.55 46.28 25.29 46.62 26.38 47.35
  C 27.95 48.38 30.11 47.46 31.96 47.61
  Q 32.01 47.66 32.05 47.71
  Q 28.99 47.73 26.21 48.77
  Q 24.65 49.18 23.65 48.42
  A 1.00 1.00 0.0 0 0 22.77 48.26
  Q 21.46 48.64 20.84 49.82
  A 0.74 0.74 0.0 0 0 21.57 50.90
  Q 23.59 50.69 25.44 51.27
  A 0.89 0.88 -2.6 0 1 26.02 51.79
  Q 26.26 52.36 27.01 52.71
  Q 30.10 54.14 32.68 54.23
  Q 33.15 54.25 32.87 54.62
  Q 32.47 55.13 31.76 54.91
  Q 30.66 54.58 30.08 55.18
  A 0.42 0.42 0.0 0 0 30.34 55.90
  Q 32.65 56.12 34.94 55.60
  Q 35.45 55.49 35.69 55.01
  L 36.38 53.67
  A 1.02 1.00 5.2 0 1 37.02 53.15
  C 39.49 52.46 39.78 50.51 41.87 49.68
  A 1.32 1.31 -86.8 0 0 42.57 49.05
  Q 43.05 48.10 44.11 47.98
  Q 44.53 47.93 44.56 47.51
  Q 44.58 47.16 44.23 47.04
  Q 43.97 46.95 43.74 47.11
  L 41.98 47.24
  Q 42.09 46.13 42.94 45.95
  Q 43.35 45.87 43.38 45.45
  Q 43.48 43.99 42.69 42.81
  A 0.92 0.92 0.0 0 1 43.45 41.38
  L 44.91 41.38
  Q 45.40 41.38 45.77 41.05
  Q 48.49 38.66 49.36 34.13
  Q 49.80 31.79 49.32 30.28
  A 0.84 0.82 80.5 0 0 48.52 29.70
  Q 42.77 29.74 35.76 27.89
  Q 35.12 27.72 34.84 28.38
  Q 34.66 28.79 34.22 28.73
  Q 33.47 28.62 33.35 27.87
  Q 32.98 25.62 32.28 24.33
  Q 32.03 23.87 32.43 23.54
  C 33.75 22.46 35.90 20.32 37.54 20.26
  Z
  M 33.14 41.40
  Q 32.13 41.56 31.42 40.93
  Q 31.07 40.62 30.63 40.44
  Q 28.50 39.54 27.50 41.37
  Q 27.21 41.89 27.60 42.34
  Q 28.56 43.42 30.15 43.05
  A 0.66 0.66 0.0 0 1 30.90 43.39
  Q 32.40 46.36 35.10 43.99
  Q 35.47 43.66 35.96 43.63
  L 36.89 43.58
  A 1.40 1.39 -18.1 0 0 37.98 41.44
  Q 36.69 39.41 34.78 40.02
  Q 34.44 40.13 34.23 40.42
  L 33.82 40.99
  Q 33.56 41.34 33.14 41.40
  Z" fill="#916f5e"></path>
<ellipse ry="0.93" rx="2.15" transform="translate(14.31,22.41) rotate(-11.3)" cy="0.00" cx="0.00" fill="#b5907c"></ellipse>
<path d="M 23.12 27.41
  Q 21.92 25.18 20.63 27.76
  A 0.87 0.87 0.0 0 1 19.98 28.24
  Q 18.99 28.41 18.53 27.52
  A 1.05 1.05 0.0 0 0 17.78 26.97
  L 16.77 26.79
  A 0.48 0.48 0.0 0 0 16.21 27.25
  Q 16.18 28.19 15.82 28.92
  L 13.57 27.71
  A 1.10 1.10 0.0 0 1 13.91 25.65
  C 17.67 25.04 20.38 22.72 24.06 25.85
  A 1.03 1.03 0.0 0 1 24.30 27.12
  Q 23.82 28.00 23.12 27.41
  Z" fill="#382216"></path>
<path d="M 31.97 26.96
  Q 31.38 26.46 30.32 26.64
  Q 29.70 26.75 29.72 27.38
  L 30.11 37.02
  Q 30.16 38.13 31.27 38.13
  L 32.73 38.13
  Q 33.93 38.13 33.75 36.94
  L 32.23 27.24
  Q 33.19 27.79 33.31 28.46
  A 1.45 1.45 0.0 0 0 35.09 29.61
  Q 37.05 29.12 37.75 29.86
  Q 38.02 30.16 38.42 30.18
  L 47.87 30.77
  Q 48.20 30.79 48.29 31.12
  C 48.82 33.25 47.86 34.65 47.12 36.40
  C 45.79 39.55 43.28 40.68 40.15 38.57
  Q 38.78 37.65 37.11 33.92
  A 0.95 0.95 0.0 0 0 36.39 33.37
  Q 35.89 33.30 35.48 33.54
  A 0.85 0.83 71.4 0 0 35.07 34.39
  Q 35.54 37.63 34.12 38.61
  Q 31.76 39.25 29.43 38.90
  Q 28.93 38.82 28.57 39.18
  C 28.23 39.52 28.17 39.88 27.77 40.15
  Q 27.34 40.42 26.91 40.37
  Q 26.36 40.30 26.34 39.76
  C 26.29 38.51 27.21 37.81 27.17 36.96
  Q 27.15 36.63 27.01 36.37
  Q 26.75 35.86 26.20 36.03
  Q 24.96 36.41 24.82 37.61
  Q 22.05 41.64 17.26 40.23
  Q 15.33 39.66 15.06 37.21
  A 1.02 1.00 -77.0 0 0 14.60 36.46
  Q 12.01 34.80 11.13 31.77
  A 1.44 1.44 0.0 0 1 13.26 30.14
  Q 16.56 32.13 20.36 31.53
  C 21.10 31.41 22.01 30.73 23.12 30.98
  A 0.60 0.59 23.4 0 0 23.76 30.73
  Q 25.13 28.70 27.58 29.13
  A 0.70 0.70 0.0 0 0 28.35 28.72
  L 29.06 27.00
  A 2.07 1.62 -63.6 0 1 31.61 25.78
  Q 31.77 25.88 31.97 26.96
  Z
  M 15.42 34.15
  L 19.11 37.57
  A 1.89 1.89 0.0 0 0 21.80 37.44
  Q 22.56 36.58 23.90 35.78
  Q 24.18 35.62 24.28 35.41
  Q 24.41 35.11 24.40 34.76
  Q 24.38 34.25 24.80 33.95
  Q 25.39 33.54 25.38 32.84
  Q 25.37 32.27 24.83 32.15
  Q 24.19 32.00 23.84 32.41
  Q 23.53 32.75 23.09 32.91
  Q 20.64 33.79 18.06 33.62
  Q 17.55 33.58 17.10 33.34
  L 16.30 32.91
  A 0.77 0.76 80.5 0 0 15.42 34.15
  Z" fill="#c99f8b"></path>
<path d="M 56.68 26.97
  Q 57.09 27.62 57.92 27.79
  A 1.69 1.61 72.1 0 1 58.71 28.22
  C 60.67 30.14 60.40 31.96 63.19 33.35
  Q 63.67 33.59 63.76 33.06
  Q 64.12 31.10 63.66 29.08
  Q 63.83 28.46 64.00 28.58
  L 64.00 64.00
  L 49.49 64.00
  Q 52.62 63.82 55.76 63.60
  C 58.32 63.42 62.35 60.49 61.26 57.23
  C 60.73 55.66 60.78 54.87 61.12 53.38
  Q 61.23 52.88 61.06 52.40
  C 60.15 49.76 58.31 47.83 57.38 45.45
  Q 56.63 43.51 55.87 41.56
  A 0.75 0.74 -49.2 0 1 55.84 41.13
  Q 55.94 40.68 55.62 40.36
  Q 55.37 40.11 55.32 39.77
  Q 55.18 38.82 55.29 38.31
  Q 55.42 37.71 54.82 37.54
  L 54.31 37.39
  A 0.72 0.71 16.1 0 0 53.43 37.87
  L 51.79 43.22
  L 52.19 38.41
  Q 53.06 33.00 51.42 26.69
  A 0.88 0.88 0.0 0 1 52.74 25.73
  Q 54.45 26.82 56.68 26.97
  Z" fill="#382216"></path>
<path d="M 31.97 26.96
  Q 32.09 27.18 32.23 27.24
  L 33.75 36.94
  Q 33.93 38.13 32.73 38.13
  L 31.27 38.13
  Q 30.16 38.13 30.11 37.02
  L 29.72 27.38
  Q 29.70 26.75 30.32 26.64
  Q 31.38 26.46 31.97 26.96
  Z" fill="#f5cfbb"></path>
<path d="M 56.68 26.97
  Q 57.91 27.13 58.99 27.70
  Q 60.05 28.62 61.04 28.75
  Q 62.18 28.56 63.66 29.08
  Q 64.12 31.10 63.76 33.06
  Q 63.67 33.59 63.19 33.35
  C 60.40 31.96 60.67 30.14 58.71 28.22
  A 1.69 1.61 72.1 0 0 57.92 27.79
  Q 57.09 27.62 56.68 26.97
  Z" fill="#6b4329"></path>
<path d="M 7.27 32.47
  L 8.22 35.87
  Q 8.36 36.35 8.68 36.73
  Q 9.50 37.71 9.63 38.94
  Q 9.69 39.49 9.16 39.65
  Q 8.57 39.83 8.09 39.56
  Q 7.77 39.37 7.58 38.80
  Q 7.15 37.50 6.55 36.26
  Q 6.31 35.76 6.00 35.64
  Q 5.80 35.57 5.58 35.57
  Q 5.12 35.57 5.14 36.03
  L 5.22 37.78
  L 2.19 29.07
  Q 1.48 27.06 3.20 28.33
  L 5.19 29.81
  Q 5.55 30.07 5.62 30.51
  Q 5.81 31.70 5.12 32.67
  A 0.81 0.81 0.0 0 0 5.22 33.72
  L 6.99 35.40
  Q 7.76 36.13 7.62 35.08
  L 7.27 32.47
  Z" fill="#5c3620"></path>
<path d="M 0.00 30.73
  L 2.00 38.54
  Q 2.13 39.07 2.59 39.37
  Q 3.52 39.98 3.57 41.16
  A 2.12 2.09 12.4 0 0 4.73 42.95
  L 8.10 44.64
  Q 8.54 44.86 8.70 45.32
  L 8.98 46.14
  A 0.44 0.44 0.0 0 0 9.83 46.05
  L 10.18 43.00
  A 1.30 1.30 0.0 0 0 8.72 41.56
  Q 5.15 42.03 5.38 37.98
  C 6.81 39.46 6.74 41.63 9.67 41.21
  A 0.74 0.73 -3.3 0 1 10.51 41.95
  Q 10.37 49.66 15.57 55.74
  L 15.03 64.00
  L 11.81 64.00
  L 10.61 60.24
  A 0.17 0.17 0.0 0 0 10.33 60.17
  Q 10.23 60.27 10.13 60.38
  A 0.26 0.26 0.0 0 1 9.70 60.26
  Q 8.65 56.33 5.92 53.29
  Q 5.56 52.89 5.49 52.36
  L 4.94 48.01
  A 1.10 1.09 18.1 0 0 4.60 47.35
  Q 3.59 46.41 3.63 45.02
  A 1.32 1.29 -67.2 0 0 3.24 44.04
  Q 1.87 42.70 1.87 40.77
  A 0.47 0.46 -11.8 0 0 1.22 40.35
  Q 0.77 40.54 0.79 41.02
  Q 0.94 44.77 0.28 48.03
  L 0.27 58.72
  Q 0.24 59.47 0.00 59.64
  L 0.00 30.73
  Z" fill="#422618"></path>
<path d="M 15.42 34.15
  A 0.77 0.76 80.5 0 1 16.30 32.91
  L 17.10 33.34
  Q 17.55 33.58 18.06 33.62
  Q 20.64 33.79 23.09 32.91
  Q 23.53 32.75 23.84 32.41
  Q 24.19 32.00 24.83 32.15
  Q 25.37 32.27 25.38 32.84
  Q 25.39 33.54 24.80 33.95
  Q 24.38 34.25 24.40 34.76
  Q 24.41 35.11 24.28 35.41
  Q 24.18 35.62 23.90 35.78
  Q 22.56 36.58 21.80 37.44
  A 1.89 1.89 0.0 0 1 19.11 37.57
  L 15.42 34.15
  Z" fill="#e3bca6"></path>
<path d="M 49.49 64.00
  L 39.75 64.00
  Q 39.65 63.92 39.56 63.84
  L 45.41 63.31
  A 1.02 1.02 0.0 0 0 46.34 62.33
  C 46.41 59.73 46.34 57.51 47.76 55.15
  C 50.49 50.63 51.60 48.38 51.79 43.22
  L 53.43 37.87
  A 0.72 0.71 16.1 0 1 54.31 37.39
  L 54.82 37.54
  Q 55.42 37.71 55.29 38.31
  Q 55.18 38.82 55.32 39.77
  Q 55.37 40.11 55.62 40.36
  Q 55.94 40.68 55.84 41.13
  A 0.75 0.74 -49.2 0 0 55.87 41.56
  Q 56.63 43.51 57.38 45.45
  C 58.31 47.83 60.15 49.76 61.06 52.40
  Q 61.23 52.88 61.12 53.38
  C 60.78 54.87 60.73 55.66 61.26 57.23
  C 62.35 60.49 58.32 63.42 55.76 63.60
  Q 52.62 63.82 49.49 64.00
  Z" fill="#271511"></path>
<path d="M 33.82 40.99
  L 34.23 40.42
  Q 34.44 40.13 34.78 40.02
  Q 36.69 39.41 37.98 41.44
  A 1.40 1.39 -18.1 0 1 36.89 43.58
  L 35.96 43.63
  Q 35.47 43.66 35.10 43.99
  Q 32.40 46.36 30.90 43.39
  A 0.66 0.66 0.0 0 0 30.15 43.05
  Q 28.56 43.42 27.60 42.34
  Q 27.21 41.89 27.50 41.37
  Q 28.50 39.54 30.63 40.44
  Q 31.07 40.62 31.42 40.93
  Q 32.13 41.56 33.14 41.40
  Q 33.56 41.34 33.82 40.99
  Z" fill="#6b4d3d"></path>
<path d="M 11.81 64.00
  L 5.79 64.00
  Q 5.94 61.29 5.26 58.14
  C 5.12 57.46 4.46 56.78 4.06 56.15
  A 0.89 0.82 -68.9 0 1 3.92 55.79
  Q 3.76 54.84 3.00 53.25
  Q 1.16 49.37 0.28 48.03
  Q 0.94 44.77 0.79 41.02
  Q 0.77 40.54 1.22 40.35
  A 0.47 0.46 -11.8 0 1 1.87 40.77
  Q 1.87 42.70 3.24 44.04
  A 1.32 1.29 -67.2 0 1 3.63 45.02
  Q 3.59 46.41 4.60 47.35
  A 1.10 1.09 18.1 0 1 4.94 48.01
  L 5.49 52.36
  Q 5.56 52.89 5.92 53.29
  Q 8.65 56.33 9.70 60.26
  A 0.26 0.26 0.0 0 0 10.13 60.38
  Q 10.23 60.27 10.33 60.17
  A 0.17 0.17 0.0 0 1 10.61 60.24
  L 11.81 64.00
  Z" fill="#5c3620"></path>
<path d="M 31.82 45.38
  Q 32.14 46.45 33.91 46.19
  Q 35.64 45.94 34.34 47.10
  Q 33.59 47.78 31.96 47.61
  C 30.11 47.46 27.95 48.38 26.38 47.35
  C 25.29 46.62 24.55 46.28 23.42 46.35
  A 1.02 1.02 0.0 0 1 22.49 44.79
  L 24.36 41.76
  A 0.73 0.73 0.0 0 1 25.58 41.74
  Q 27.79 44.96 31.82 45.38
  Z" fill="#cdaa94"></path>
<path d="M 43.74 47.11
  L 43.69 47.38
  Q 43.66 47.50 43.56 47.56
  Q 42.27 48.34 40.94 49.01
  Q 40.49 49.23 39.99 49.23
  Q 37.71 49.24 35.01 49.89
  Q 34.06 50.12 33.06 49.50
  A 0.67 0.65 -33.7 0 0 32.58 49.41
  L 25.16 50.59
  Q 24.35 50.72 24.05 49.95
  L 23.92 49.58
  Q 23.68 48.96 24.34 48.91
  L 26.21 48.77
  Q 28.99 47.73 32.05 47.71
  L 41.98 47.24
  L 43.74 47.11
  Z" fill="#5b1d1f"></path>
<path d="M 43.74 47.11
  Q 43.97 46.95 44.23 47.04
  Q 44.58 47.16 44.56 47.51
  Q 44.53 47.93 44.11 47.98
  Q 43.05 48.10 42.57 49.05
  A 1.32 1.31 -86.8 0 1 41.87 49.68
  C 39.78 50.51 39.49 52.46 37.02 53.15
  A 1.02 1.00 5.2 0 0 36.38 53.67
  L 35.69 55.01
  Q 35.45 55.49 34.94 55.60
  Q 32.65 56.12 30.34 55.90
  A 0.42 0.42 0.0 0 1 30.08 55.18
  Q 30.66 54.58 31.76 54.91
  Q 32.47 55.13 32.87 54.62
  Q 33.15 54.25 32.68 54.23
  Q 30.10 54.14 27.01 52.71
  Q 26.26 52.36 26.02 51.79
  A 0.89 0.88 -2.6 0 0 25.44 51.27
  Q 23.59 50.69 21.57 50.90
  A 0.74 0.74 0.0 0 1 20.84 49.82
  Q 21.46 48.64 22.77 48.26
  A 1.00 1.00 0.0 0 1 23.65 48.42
  Q 24.65 49.18 26.21 48.77
  L 24.34 48.91
  Q 23.68 48.96 23.92 49.58
  L 24.05 49.95
  Q 24.35 50.72 25.16 50.59
  L 32.58 49.41
  A 0.67 0.65 -33.7 0 1 33.06 49.50
  Q 34.06 50.12 35.01 49.89
  Q 37.71 49.24 39.99 49.23
  Q 40.49 49.23 40.94 49.01
  Q 42.27 48.34 43.56 47.56
  Q 43.66 47.50 43.69 47.38
  L 43.74 47.11
  Z" fill="#7e4e46"></path>
<path d="M 0.28 48.03
  Q 1.16 49.37 3.00 53.25
  Q 3.76 54.84 3.92 55.79
  A 0.89 0.82 -68.9 0 0 4.06 56.15
  C 4.46 56.78 5.12 57.46 5.26 58.14
  Q 5.94 61.29 5.79 64.00
  L 3.39 64.00
  Q 4.93 63.50 4.34 61.75
  C 3.85 60.28 2.07 59.24 0.75 58.52
  Q 0.56 58.41 0.27 58.72
  L 0.28 48.03
  Z" fill="#816252"></path>
<path d="M 15.57 55.74
  L 21.25 58.82
  L 28.80 63.69
  L 24.48 64.00
  L 23.66 64.00
  Q 21.58 63.38 19.48 64.00
  L 15.03 64.00
  L 15.57 55.74
  Z" fill="#6b4d3d"></path>
<path d="M 3.39 64.00
  L 0.00 64.00
  L 0.00 59.64
  Q 0.24 59.47 0.27 58.72
  Q 0.56 58.41 0.75 58.52
  C 2.07 59.24 3.85 60.28 4.34 61.75
  Q 4.93 63.50 3.39 64.00
  Z" fill="#cdaa94"></path>
<path d="M 23.66 64.00
  L 19.48 64.00
  Q 21.58 63.38 23.66 64.00
  Z" fill="#382216"></path>
<path d="M 28.80 63.69
  Q 29.78 63.56 30.27 64.00
  L 24.48 64.00
  L 28.80 63.69
  Z" fill="#382216"></path>
</svg>
