<svg viewBox="0.00 0.00 128.00 128.00" version="1.1" xmlns="http://www.w3.org/2000/svg">
<g stroke-linecap="butt" fill="none" stroke-width="2.00">
<path d="M 98.57 0.00
  Q 95.68 1.02 93.87 3.60" stroke="#ee97a2"></path>
<path d="M 93.87 3.60
  L 88.90 8.54" stroke="#f5acb7"></path>
<path d="M 88.90 8.54
  L 83.63 13.70" stroke="#949799"></path>
<path d="M 83.63 13.70
  L 25.00 72.37" stroke="#f5acb7"></path>
<path d="M 25.00 72.37
  L 19.77 77.67" stroke="#949799"></path>
<path d="M 19.77 77.67
  L 14.88 82.57" stroke="#f5acb7"></path>
<path d="M 14.88 82.57
  C 13.23 83.80 9.99 86.73 11.36 89.18
  Q 12.76 91.68 11.87 94.18
  Q 7.30 107.02 0.59 119.25
  A 1.91 1.91 0.0 0 0 0.91 121.51
  L 6.46 127.14
  Q 7.37 128.06 8.52 127.45
  C 13.40 124.83 32.85 114.31 37.43 115.99
  C 39.39 116.71 40.78 117.70 42.71 115.94
  Q 44.56 114.26 45.49 113.08" stroke="#ee97a2"></path>
<path d="M 45.49 113.08
  L 50.38 108.18" stroke="#f5acb7"></path>
<path d="M 50.38 108.18
  L 55.57 103.03" stroke="#949799"></path>
<path d="M 55.57 103.03
  L 114.34 44.37" stroke="#f5acb7"></path>
<path d="M 114.34 44.37
  L 119.47 39.15" stroke="#949799"></path>
<path d="M 119.47 39.15
  L 124.51 34.10" stroke="#f5acb7"></path>
<path d="M 124.51 34.10
  Q 126.85 32.26 128.00 29.78" stroke="#ee97a2"></path>
<path d="M 99.25 0.00
  Q 101.05 0.71 103.30 2.95
  Q 114.69 14.31 126.03 25.73
  Q 127.52 27.22 128.00 28.76" stroke="#ee97a2"></path>
<path d="M 124.51 34.10
  L 93.87 3.60" stroke="#e44459"></path>
<path d="M 119.47 39.15
  L 88.90 8.54" stroke="#8a4451"></path>
<path d="M 114.34 44.37
  L 83.63 13.70" stroke="#8a4451"></path>
<path d="M 55.57 103.03
  L 25.00 72.37" stroke="#8a4451"></path>
<path d="M 95.5355 33.2945
  A 36.24 13.82 -45.0 0 0 60.1378 49.1478
  A 36.24 13.82 -45.0 0 0 44.2845 84.5455
  A 36.24 13.82 -45.0 0 0 79.6822 68.6922
  A 36.24 13.82 -45.0 0 0 95.5355 33.2945" stroke="#d43950"></path>
<path d="M 50.38 108.18
  L 19.77 77.67" stroke="#8a4451"></path>
<path d="M 45.49 113.08
  L 14.88 82.57" stroke="#e44459"></path>
</g>
<path d="M 0.00 0.00
  L 98.57 0.00
  Q 95.68 1.02 93.87 3.60
  L 88.90 8.54
  L 83.63 13.70
  L 25.00 72.37
  L 19.77 77.67
  L 14.88 82.57
  C 13.23 83.80 9.99 86.73 11.36 89.18
  Q 12.76 91.68 11.87 94.18
  Q 7.30 107.02 0.59 119.25
  A 1.91 1.91 0.0 0 0 0.91 121.51
  L 6.46 127.14
  Q 7.37 128.06 8.52 127.45
  C 13.40 124.83 32.85 114.31 37.43 115.99
  C 39.39 116.71 40.78 117.70 42.71 115.94
  Q 44.56 114.26 45.49 113.08
  L 50.38 108.18
  L 55.57 103.03
  L 114.34 44.37
  L 119.47 39.15
  L 124.51 34.10
  Q 126.85 32.26 128.00 29.78
  L 128.00 128.00
  L 0.00 128.00
  L 0.00 0.00
  Z" fill="#ffffff"></path>
<path d="M 98.57 0.00
  L 99.25 0.00
  Q 101.05 0.71 103.30 2.95
  Q 114.69 14.31 126.03 25.73
  Q 127.52 27.22 128.00 28.76
  L 128.00 29.78
  Q 126.85 32.26 124.51 34.10
  L 93.87 3.60
  Q 95.68 1.02 98.57 0.00
  Z" fill="#dd2e44"></path>
<path d="M 99.25 0.00
  L 128.00 0.00
  L 128.00 28.76
  Q 127.52 27.22 126.03 25.73
  Q 114.69 14.31 103.30 2.95
  Q 101.05 0.71 99.25 0.00
  Z" fill="#ffffff"></path>
<path d="M 93.87 3.60
  L 124.51 34.10
  L 119.47 39.15
  L 88.90 8.54
  L 93.87 3.60
  Z" fill="#ea596e"></path>
<path d="M 88.90 8.54
  L 119.47 39.15
  L 114.34 44.37
  L 83.63 13.70
  L 88.90 8.54
  Z" fill="#292f33"></path>
<path d="M 83.63 13.70
  L 114.34 44.37
  L 55.57 103.03
  L 25.00 72.37
  L 83.63 13.70
  Z
  M 95.5355 33.2945
  A 36.24 13.82 -45.0 0 0 60.1378 49.1478
  A 36.24 13.82 -45.0 0 0 44.2845 84.5455
  A 36.24 13.82 -45.0 0 0 79.6822 68.6922
  A 36.24 13.82 -45.0 0 0 95.5355 33.2945
  Z" fill="#ea596e"></path>
<ellipse ry="13.82" rx="36.24" transform="translate(69.91,58.92) rotate(-45.0)" cy="0.00" cx="0.00" fill="#be1931"></ellipse>
<path d="M 25.00 72.37
  L 55.57 103.03
  L 50.38 108.18
  L 19.77 77.67
  L 25.00 72.37
  Z" fill="#292f33"></path>
<path d="M 19.77 77.67
  L 50.38 108.18
  L 45.49 113.08
  L 14.88 82.57
  L 19.77 77.67
  Z" fill="#ea596e"></path>
<path d="M 14.88 82.57
  L 45.49 113.08
  Q 44.56 114.26 42.71 115.94
  C 40.78 117.70 39.39 116.71 37.43 115.99
  C 32.85 114.31 13.40 124.83 8.52 127.45
  Q 7.37 128.06 6.46 127.14
  L 0.91 121.51
  A 1.91 1.91 0.0 0 1 0.59 119.25
  Q 7.30 107.02 11.87 94.18
  Q 12.76 91.68 11.36 89.18
  C 9.99 86.73 13.23 83.80 14.88 82.57
  Z" fill="#dd2e44"></path>
</svg>
