<svg viewBox="0.00 0.00 256.00 256.00" version="1.1" xmlns="http://www.w3.org/2000/svg">
<g stroke-linecap="butt" fill="none" stroke-width="2.00">
<path d="M 195.77 57.00
  C 229.54 78.38 229.39 128.07 195.46 149.20
  Q 177.92 160.13 155.85 156.20
  Q 155.48 156.14 155.42 156.51
  L 153.24 168.97
  A 0.48 0.48 0.0 0 0 153.62 169.52
  C 196.70 178.10 235.77 144.82 234.62 101.45
  C 233.45 57.60 192.24 26.16 149.59 36.68
  C 122.93 43.26 104.18 65.27 99.46 91.84
  Q 99.39 92.22 99.77 92.29
  L 112.34 94.61
  Q 112.94 94.72 113.04 94.13
  C 119.66 55.27 162.09 35.67 195.77 57.00" stroke="#929292"></path>
<path d="M 151.08 80.34
  C 170.55 67.00 196.88 83.22 193.62 106.70
  C 191.40 122.64 176.51 132.61 160.81 129.34
  Q 160.29 129.23 160.20 129.76
  L 158.04 142.21
  A 0.58 0.57 -80.6 0 0 158.51 142.88
  Q 178.53 146.16 192.54 134.55
  C 208.91 120.98 212.19 97.83 200.48 80.12
  C 190.10 64.43 169.10 57.50 151.49 64.74
  Q 130.42 73.40 126.37 96.60
  Q 126.29 97.09 126.77 97.18
  L 139.25 99.46
  Q 139.78 99.56 139.86 99.02
  Q 141.61 86.83 151.08 80.34" stroke="#929292"></path>
<path d="M 98.40 181.42
  C 117.98 168.14 135.89 147.21 134.55 122.55
  Q 134.48 121.13 133.44 120.56
  C 123.09 114.87 109.14 115.05 98.03 117.89
  Q 80.06 122.48 65.14 133.24
  A 1.62 1.61 37.7 0 1 63.61 133.43
  C 57.21 130.94 46.39 124.76 40.23 129.00
  Q 26.24 138.63 12.26 148.46
  Q 11.81 148.78 12.27 149.08
  Q 24.16 157.00 36.13 164.85
  Q 38.41 166.35 39.97 168.58
  Q 48.33 180.55 56.66 192.57
  Q 58.21 194.80 58.82 197.43
  Q 62.07 211.46 65.28 225.45
  Q 65.39 225.93 65.79 225.65
  Q 78.49 216.88 91.19 208.01
  C 95.20 205.21 98.39 201.95 98.15 197.24
  Q 97.76 189.77 97.93 182.28
  A 1.07 1.06 -16.6 0 1 98.40 181.42" stroke="#929292"></path>
<path d="M 111.52 153.77
  C 117.16 146.86 121.66 138.47 122.77 129.53
  A 0.78 0.78 0.0 0 0 122.21 128.69
  C 112.99 126.14 101.02 128.33 92.28 131.71
  Q 67.71 141.22 51.67 163.06
  A 1.51 1.51 0.0 0 0 51.65 164.83
  L 64.58 183.43
  Q 64.86 183.84 65.34 183.71
  Q 93.29 176.09 111.52 153.77" stroke="#929292"></path>
<path d="M 53.65 142.54
  A 0.32 0.32 0.0 0 0 53.53 142.04
  L 46.30 139.22
  A 0.32 0.32 0.0 0 0 46.00 139.26
  L 33.13 148.23
  A 0.32 0.32 0.0 0 0 33.13 148.76
  L 42.50 154.99
  A 0.32 0.32 0.0 0 0 42.91 154.94
  L 53.65 142.54" stroke="#929292"></path>
<path d="M 70.51 194.61
  A 0.34 0.34 0.0 0 0 70.30 195.01
  L 72.87 205.89
  A 0.34 0.34 0.0 0 0 73.39 206.09
  L 86.20 197.19
  A 0.34 0.34 0.0 0 0 86.35 196.91
  L 86.20 189.16
  A 0.34 0.34 0.0 0 0 85.74 188.85
  L 70.51 194.61" stroke="#929292"></path>
<path d="M 100.43 152.55
  A 11.74 11.74 0.0 0 0 88.69 140.81
  A 11.74 11.74 0.0 0 0 76.95 152.55
  A 11.74 11.74 0.0 0 0 88.69 164.29
  A 11.74 11.74 0.0 0 0 100.43 152.55" stroke="#929292"></path>
</g>
<path d="M 0.00 0.00
  L 256.00 0.00
  L 256.00 256.00
  L 0.00 256.00
  L 0.00 0.00
  Z
  M 195.77 57.00
  C 229.54 78.38 229.39 128.07 195.46 149.20
  Q 177.92 160.13 155.85 156.20
  Q 155.48 156.14 155.42 156.51
  L 153.24 168.97
  A 0.48 0.48 0.0 0 0 153.62 169.52
  C 196.70 178.10 235.77 144.82 234.62 101.45
  C 233.45 57.60 192.24 26.16 149.59 36.68
  C 122.93 43.26 104.18 65.27 99.46 91.84
  Q 99.39 92.22 99.77 92.29
  L 112.34 94.61
  Q 112.94 94.72 113.04 94.13
  C 119.66 55.27 162.09 35.67 195.77 57.00
  Z
  M 151.08 80.34
  C 170.55 67.00 196.88 83.22 193.62 106.70
  C 191.40 122.64 176.51 132.61 160.81 129.34
  Q 160.29 129.23 160.20 129.76
  L 158.04 142.21
  A 0.58 0.57 -80.6 0 0 158.51 142.88
  Q 178.53 146.16 192.54 134.55
  C 208.91 120.98 212.19 97.83 200.48 80.12
  C 190.10 64.43 169.10 57.50 151.49 64.74
  Q 130.42 73.40 126.37 96.60
  Q 126.29 97.09 126.77 97.18
  L 139.25 99.46
  Q 139.78 99.56 139.86 99.02
  Q 141.61 86.83 151.08 80.34
  Z
  M 98.40 181.42
  C 117.98 168.14 135.89 147.21 134.55 122.55
  Q 134.48 121.13 133.44 120.56
  C 123.09 114.87 109.14 115.05 98.03 117.89
  Q 80.06 122.48 65.14 133.24
  A 1.62 1.61 37.7 0 1 63.61 133.43
  C 57.21 130.94 46.39 124.76 40.23 129.00
  Q 26.24 138.63 12.26 148.46
  Q 11.81 148.78 12.27 149.08
  Q 24.16 157.00 36.13 164.85
  Q 38.41 166.35 39.97 168.58
  Q 48.33 180.55 56.66 192.57
  Q 58.21 194.80 58.82 197.43
  Q 62.07 211.46 65.28 225.45
  Q 65.39 225.93 65.79 225.65
  Q 78.49 216.88 91.19 208.01
  C 95.20 205.21 98.39 201.95 98.15 197.24
  Q 97.76 189.77 97.93 182.28
  A 1.07 1.06 -16.6 0 1 98.40 181.42
  Z" fill="#252525"></path>
<path d="M 195.77 57.00
  C 162.09 35.67 119.66 55.27 113.04 94.13
  Q 112.94 94.72 112.34 94.61
  L 99.77 92.29
  Q 99.39 92.22 99.46 91.84
  C 104.18 65.27 122.93 43.26 149.59 36.68
  C 192.24 26.16 233.45 57.60 234.62 101.45
  C 235.77 144.82 196.70 178.10 153.62 169.52
  A 0.48 0.48 0.0 0 1 153.24 168.97
  L 155.42 156.51
  Q 155.48 156.14 155.85 156.20
  Q 177.92 160.13 195.46 149.20
  C 229.39 128.07 229.54 78.38 195.77 57.00
  Z" fill="#ffffff"></path>
<path d="M 193.62 106.70
  C 196.88 83.22 170.55 67.00 151.08 80.34
  Q 141.61 86.83 139.86 99.02
  Q 139.78 99.56 139.25 99.46
  L 126.77 97.18
  Q 126.29 97.09 126.37 96.60
  Q 130.42 73.40 151.49 64.74
  C 169.10 57.50 190.10 64.43 200.48 80.12
  C 212.19 97.83 208.91 120.98 192.54 134.55
  Q 178.53 146.16 158.51 142.88
  A 0.58 0.57 -80.6 0 1 158.04 142.21
  L 160.20 129.76
  Q 160.29 129.23 160.81 129.34
  C 176.51 132.61 191.40 122.64 193.62 106.70
  Z" fill="#ffffff"></path>
<path d="M 97.93 182.28
  Q 97.76 189.77 98.15 197.24
  C 98.39 201.95 95.20 205.21 91.19 208.01
  Q 78.49 216.88 65.79 225.65
  Q 65.39 225.93 65.28 225.45
  Q 62.07 211.46 58.82 197.43
  Q 58.21 194.80 56.66 192.57
  Q 48.33 180.55 39.97 168.58
  Q 38.41 166.35 36.13 164.85
  Q 24.16 157.00 12.27 149.08
  Q 11.81 148.78 12.26 148.46
  Q 26.24 138.63 40.23 129.00
  C 46.39 124.76 57.21 130.94 63.61 133.43
  A 1.62 1.61 37.7 0 0 65.14 133.24
  Q 80.06 122.48 98.03 117.89
  C 109.14 115.05 123.09 114.87 133.44 120.56
  Q 134.48 121.13 134.55 122.55
  C 135.89 147.21 117.98 168.14 98.40 181.42
  A 1.07 1.06 -16.6 0 0 97.93 182.28
  Z
  M 111.52 153.77
  C 117.16 146.86 121.66 138.47 122.77 129.53
  A 0.78 0.78 0.0 0 0 122.21 128.69
  C 112.99 126.14 101.02 128.33 92.28 131.71
  Q 67.71 141.22 51.67 163.06
  A 1.51 1.51 0.0 0 0 51.65 164.83
  L 64.58 183.43
  Q 64.86 183.84 65.34 183.71
  Q 93.29 176.09 111.52 153.77
  Z
  M 53.65 142.54
  A 0.32 0.32 0.0 0 0 53.53 142.04
  L 46.30 139.22
  A 0.32 0.32 0.0 0 0 46.00 139.26
  L 33.13 148.23
  A 0.32 0.32 0.0 0 0 33.13 148.76
  L 42.50 154.99
  A 0.32 0.32 0.0 0 0 42.91 154.94
  L 53.65 142.54
  Z
  M 70.51 194.61
  A 0.34 0.34 0.0 0 0 70.30 195.01
  L 72.87 205.89
  A 0.34 0.34 0.0 0 0 73.39 206.09
  L 86.20 197.19
  A 0.34 0.34 0.0 0 0 86.35 196.91
  L 86.20 189.16
  A 0.34 0.34 0.0 0 0 85.74 188.85
  L 70.51 194.61
  Z" fill="#ffffff"></path>
<path d="M 122.77 129.53
  C 121.66 138.47 117.16 146.86 111.52 153.77
  Q 93.29 176.09 65.34 183.71
  Q 64.86 183.84 64.58 183.43
  L 51.65 164.83
  A 1.51 1.51 0.0 0 1 51.67 163.06
  Q 67.71 141.22 92.28 131.71
  C 101.02 128.33 112.99 126.14 122.21 128.69
  A 0.78 0.78 0.0 0 1 122.77 129.53
  Z
  M 100.43 152.55
  A 11.74 11.74 0.0 0 0 88.69 140.81
  A 11.74 11.74 0.0 0 0 76.95 152.55
  A 11.74 11.74 0.0 0 0 88.69 164.29
  A 11.74 11.74 0.0 0 0 100.43 152.55
  Z" fill="#252525"></path>
<path d="M 53.65 142.54
  L 42.91 154.94
  A 0.32 0.32 0.0 0 1 42.50 154.99
  L 33.13 148.76
  A 0.32 0.32 0.0 0 1 33.13 148.23
  L 46.00 139.26
  A 0.32 0.32 0.0 0 1 46.30 139.22
  L 53.53 142.04
  A 0.32 0.32 0.0 0 1 53.65 142.54
  Z" fill="#252525"></path>
<circle r="11.74" cy="152.55" cx="88.69" fill="#ffffff"></circle>
<path d="M 70.51 194.61
  L 85.74 188.85
  A 0.34 0.34 0.0 0 1 86.20 189.16
  L 86.35 196.91
  A 0.34 0.34 0.0 0 1 86.20 197.19
  L 73.39 206.09
  A 0.34 0.34 0.0 0 1 72.87 205.89
  L 70.30 195.01
  A 0.34 0.34 0.0 0 1 70.51 194.61
  Z" fill="#252525"></path>
</svg>
