<svg viewBox="0.00 0.00 256.00 256.00" version="1.1" xmlns="http://www.w3.org/2000/svg">
<path d="M 140.12 256.00
  L 122.56 256.00
  L 121.33 181.80
  Q 121.32 181.30 121.83 181.27
  Q 126.95 180.99 131.96 180.34
  C 164.21 176.17 178.21 147.85 173.61 118.01
  C 170.42 97.34 155.77 81.83 135.53 77.84
  Q 130.04 76.75 115.91 76.75
  Q 80.81 76.75 45.77 76.75
  A 0.27 0.27 0.0 0 1 45.50 76.48
  L 45.50 1.28
  Q 45.50 0.81 45.97 0.80
  Q 105.18 0.62 124.48 0.80
  C 187.98 1.40 239.85 44.75 248.83 108.01
  C 258.49 176.11 220.66 239.53 151.72 253.85
  Q 145.96 255.05 140.12 256.00
  Z" fill="#4f61ff"></path>
<path d="M 95.25 256.00
  L 41.28 256.00
  C 21.99 251.33 8.43 236.60 6.07 217.00
  C 3.47 195.50 17.50 175.47 37.75 169.32
  C 62.40 161.84 88.25 177.20 93.94 202.10
  Q 95.28 207.99 95.26 222.00
  Q 95.23 239.00 95.25 256.00
  Z" fill="#4f61ff"></path>
</svg>
