<svg viewBox="0.00 0.00 889.00 889.00" version="1.1" xmlns="http://www.w3.org/2000/svg">
<g stroke-linecap="butt" fill="none" stroke-width="2.00">
<path d="M 467.12 277.10
  Q 467.36 279.32 467.58 281.55
  C 468.72 293.05 479.62 299.53 490.21 297.93
  C 497.66 296.80 505.45 289.81 506.15 282.25
  Q 508.95 252.10 511.98 221.97
  Q 512.62 215.56 513.22 209.15
  C 514.31 197.31 515.46 191.46 510.88 182.67
  C 509.52 180.05 505.43 175.73 503.15 174.14
  C 490.07 165.02 472.13 168.16 463.56 181.52
  C 460.82 185.81 458.87 192.11 459.24 197.00
  Q 460.95 219.57 467.12 277.10" stroke="#bab4ff"></path>
<path d="M 417.34 322.86
  Q 421.20 313.47 416.74 304.99
  C 415.05 301.78 411.63 298.47 409.12 295.28
  C 405.75 290.98 402.01 286.45 398.40 282.12
  Q 386.98 268.39 375.54 254.69
  C 373.55 252.31 371.82 249.58 369.77 247.32
  C 365.33 242.45 360.49 234.94 354.73 232.32
  C 341.10 226.11 326.13 229.49 318.04 242.09
  C 312.93 250.04 312.22 261.10 317.10 269.71
  C 320.47 275.65 325.60 279.72 331.49 284.19
  C 333.94 286.05 336.24 288.32 338.74 290.31
  C 353.24 301.82 367.67 313.71 381.76 325.72
  C 384.92 328.41 392.05 334.24 395.75 334.25
  C 398.79 334.25 402.28 334.60 405.07 333.76
  C 408.44 332.74 411.23 330.45 414.06 327.99
  C 415.76 326.51 416.52 324.86 417.34 322.86" stroke="#bab4ff"></path>
<path d="M 556.47 305.73
  C 551.00 316.36 556.65 329.89 568.06 333.45
  C 573.73 335.21 581.14 334.49 585.72 330.70
  Q 610.41 310.26 635.21 289.96
  C 637.05 288.46 639.51 286.20 641.76 284.48
  C 645.26 281.79 648.17 278.98 651.50 276.32
  C 653.64 274.61 656.34 270.29 657.37 267.92
  Q 661.06 259.41 659.24 251.01
  C 655.64 234.48 639.36 225.83 623.33 230.57
  C 617.27 232.36 613.47 235.91 609.46 240.73
  C 594.28 258.98 579.25 277.37 564.15 295.68
  Q 557.49 303.76 556.47 305.73" stroke="#bab4ff"></path>
<path d="M 309.19 376.98
  Q 295.99 375.52 282.76 374.34
  C 275.62 373.70 268.83 376.60 263.12 381.05
  C 261.33 382.44 260.27 384.23 258.90 386.03
  C 252.74 394.15 252.15 405.85 256.78 414.85
  C 258.17 417.55 261.40 421.58 263.74 423.34
  C 270.10 428.15 277.64 430.57 285.40 429.52
  Q 292.52 428.56 293.16 428.51
  Q 302.27 427.78 311.35 426.87
  Q 334.22 424.60 357.10 422.47
  Q 357.18 422.46 361.41 422.19
  C 370.95 421.56 379.53 417.30 382.22 407.50
  C 384.81 398.13 380.68 388.60 372.36 384.39
  Q 368.96 382.67 362.34 382.01
  C 344.63 380.23 327.00 378.96 309.19 376.98" stroke="#bab4ff"></path>
<path d="M 714.81 386.26
  Q 713.25 383.46 710.85 381.43
  Q 699.92 372.20 685.98 374.75
  C 683.23 375.26 680.70 375.24 678.01 375.54
  C 655.87 377.99 633.70 379.71 611.55 381.94
  Q 604.62 382.64 601.26 384.40
  C 594.52 387.91 590.31 395.31 590.59 402.83
  C 590.90 411.20 597.56 419.68 605.77 421.22
  Q 609.85 421.99 622.00 423.01
  Q 656.36 425.90 690.64 429.68
  C 698.07 430.50 708.36 426.22 713.50 419.71
  C 721.22 409.93 722.21 397.32 715.27 386.69
  Q 715.22 386.60 715.14 386.55
  Q 715.06 386.50 714.99 386.45
  Q 714.88 386.37 714.81 386.26" stroke="#bab4ff"></path>
<path d="M 447.58 472.21
  C 449.31 470.16 451.44 468.38 453.23 466.29
  C 455.97 463.09 458.58 460.70 461.13 457.75
  C 465.48 452.71 470.51 448.17 474.89 443.13
  C 480.83 436.32 487.24 429.88 493.39 423.25
  C 499.78 416.37 500.57 406.20 495.56 398.40
  C 490.35 390.29 478.22 387.34 470.05 392.08
  C 462.41 396.51 456.21 404.96 449.16 410.58
  Q 447.93 411.56 446.73 412.83
  C 443.95 415.78 440.85 418.10 437.99 421.11
  C 435.76 423.45 433.15 425.25 430.95 427.57
  C 428.52 430.13 424.65 433.34 423.14 434.77
  C 389.45 466.60 355.45 498.13 321.48 529.67
  C 291.98 557.07 262.39 585.02 240.64 605.15
  C 231.49 613.63 223.31 621.08 214.86 629.25
  C 213.24 630.82 211.05 632.36 209.30 634.14
  C 204.85 638.64 200.15 642.83 195.50 647.12
  C 190.75 651.49 186.17 656.32 181.23 660.48
  C 177.63 663.53 173.47 667.39 170.95 671.15
  C 164.45 680.85 162.81 693.67 168.18 704.43
  C 174.90 717.89 186.93 724.60 201.99 723.30
  C 211.72 722.45 219.01 718.05 225.20 710.79
  C 229.01 706.32 233.26 701.83 237.40 697.71
  C 239.38 695.74 241.53 692.86 243.94 690.68
  C 245.23 689.51 246.15 688.32 247.20 687.03
  C 251.09 682.29 256.10 678.21 260.12 673.43
  Q 262.69 670.38 263.97 669.14
  C 267.11 666.10 269.08 663.56 271.63 660.96
  C 275.96 656.54 280.11 651.86 284.33 647.34
  Q 308.24 621.74 332.20 596.19
  Q 337.68 590.33 342.99 584.31
  C 347.70 578.97 353.13 574.16 357.71 568.63
  C 359.64 566.30 361.91 564.41 363.89 562.13
  Q 366.30 559.36 368.44 557.22
  C 370.71 554.96 372.63 552.40 374.85 550.26
  Q 377.83 547.40 380.63 544.37
  Q 402.75 520.49 424.87 496.62
  Q 430.89 490.12 432.57 488.56
  C 433.65 487.56 434.64 485.89 435.98 484.66
  C 438.58 482.24 440.74 479.33 443.18 476.94
  Q 445.49 474.68 447.58 472.21" stroke="#bab4ff"></path>
<path d="M 568.92 470.15
  C 555.14 473.92 550.41 490.07 558.40 501.32
  C 560.38 504.10 562.91 506.42 564.89 509.14
  C 566.88 511.86 569.26 514.20 571.26 516.81
  Q 572.51 518.44 574.24 520.52
  Q 585.15 533.59 604.23 556.94
  C 605.62 558.63 608.28 561.41 609.97 564.02
  Q 611.33 566.13 615.33 569.22
  C 625.72 577.23 641.18 576.32 650.79 567.69
  C 660.53 558.94 662.55 543.45 655.51 532.49
  Q 653.07 528.70 646.57 523.36
  Q 619.90 501.45 593.30 479.45
  C 585.61 473.09 579.53 467.25 568.92 470.15" stroke="#bab4ff"></path>
<path d="M 514.12 603.13
  Q 509.19 551.11 506.22 522.51
  C 505.45 515.13 499.36 508.00 491.97 506.43
  C 480.80 504.06 468.76 510.03 467.44 522.25
  Q 464.09 553.36 461.20 584.53
  C 460.80 588.84 460.50 594.47 459.98 599.44
  Q 459.13 607.61 459.44 610.60
  C 460.57 621.21 467.44 629.85 477.45 633.36
  C 485.33 636.12 496.55 635.15 503.34 629.57
  C 511.98 622.49 515.19 614.32 514.12 603.13" stroke="#bab4ff"></path>
</g>
<path d="M 0.00 0.00
  L 889.00 0.00
  L 889.00 889.00
  L 0.00 889.00
  L 0.00 0.00
  Z
  M 467.12 277.10
  Q 467.36 279.32 467.58 281.55
  C 468.72 293.05 479.62 299.53 490.21 297.93
  C 497.66 296.80 505.45 289.81 506.15 282.25
  Q 508.95 252.10 511.98 221.97
  Q 512.62 215.56 513.22 209.15
  C 514.31 197.31 515.46 191.46 510.88 182.67
  C 509.52 180.05 505.43 175.73 503.15 174.14
  C 490.07 165.02 472.13 168.16 463.56 181.52
  C 460.82 185.81 458.87 192.11 459.24 197.00
  Q 460.95 219.57 467.12 277.10
  Z
  M 417.34 322.86
  Q 421.20 313.47 416.74 304.99
  C 415.05 301.78 411.63 298.47 409.12 295.28
  C 405.75 290.98 402.01 286.45 398.40 282.12
  Q 386.98 268.39 375.54 254.69
  C 373.55 252.31 371.82 249.58 369.77 247.32
  C 365.33 242.45 360.49 234.94 354.73 232.32
  C 341.10 226.11 326.13 229.49 318.04 242.09
  C 312.93 250.04 312.22 261.10 317.10 269.71
  C 320.47 275.65 325.60 279.72 331.49 284.19
  C 333.94 286.05 336.24 288.32 338.74 290.31
  C 353.24 301.82 367.67 313.71 381.76 325.72
  C 384.92 328.41 392.05 334.24 395.75 334.25
  C 398.79 334.25 402.28 334.60 405.07 333.76
  C 408.44 332.74 411.23 330.45 414.06 327.99
  C 415.76 326.51 416.52 324.86 417.34 322.86
  Z
  M 556.47 305.73
  C 551.00 316.36 556.65 329.89 568.06 333.45
  C 573.73 335.21 581.14 334.49 585.72 330.70
  Q 610.41 310.26 635.21 289.96
  C 637.05 288.46 639.51 286.20 641.76 284.48
  C 645.26 281.79 648.17 278.98 651.50 276.32
  C 653.64 274.61 656.34 270.29 657.37 267.92
  Q 661.06 259.41 659.24 251.01
  C 655.64 234.48 639.36 225.83 623.33 230.57
  C 617.27 232.36 613.47 235.91 609.46 240.73
  C 594.28 258.98 579.25 277.37 564.15 295.68
  Q 557.49 303.76 556.47 305.73
  Z
  M 309.19 376.98
  Q 295.99 375.52 282.76 374.34
  C 275.62 373.70 268.83 376.60 263.12 381.05
  C 261.33 382.44 260.27 384.23 258.90 386.03
  C 252.74 394.15 252.15 405.85 256.78 414.85
  C 258.17 417.55 261.40 421.58 263.74 423.34
  C 270.10 428.15 277.64 430.57 285.40 429.52
  Q 292.52 428.56 293.16 428.51
  Q 302.27 427.78 311.35 426.87
  Q 334.22 424.60 357.10 422.47
  Q 357.18 422.46 361.41 422.19
  C 370.95 421.56 379.53 417.30 382.22 407.50
  C 384.81 398.13 380.68 388.60 372.36 384.39
  Q 368.96 382.67 362.34 382.01
  C 344.63 380.23 327.00 378.96 309.19 376.98
  Z
  M 714.81 386.26
  Q 713.25 383.46 710.85 381.43
  Q 699.92 372.20 685.98 374.75
  C 683.23 375.26 680.70 375.24 678.01 375.54
  C 655.87 377.99 633.70 379.71 611.55 381.94
  Q 604.62 382.64 601.26 384.40
  C 594.52 387.91 590.31 395.31 590.59 402.83
  C 590.90 411.20 597.56 419.68 605.77 421.22
  Q 609.85 421.99 622.00 423.01
  Q 656.36 425.90 690.64 429.68
  C 698.07 430.50 708.36 426.22 713.50 419.71
  C 721.22 409.93 722.21 397.32 715.27 386.69
  Q 715.22 386.60 715.14 386.55
  Q 715.06 386.50 714.99 386.45
  Q 714.88 386.37 714.81 386.26
  Z
  M 447.58 472.21
  C 449.31 470.16 451.44 468.38 453.23 466.29
  C 455.97 463.09 458.58 460.70 461.13 457.75
  C 465.48 452.71 470.51 448.17 474.89 443.13
  C 480.83 436.32 487.24 429.88 493.39 423.25
  C 499.78 416.37 500.57 406.20 495.56 398.40
  C 490.35 390.29 478.22 387.34 470.05 392.08
  C 462.41 396.51 456.21 404.96 449.16 410.58
  Q 447.93 411.56 446.73 412.83
  C 443.95 415.78 440.85 418.10 437.99 421.11
  C 435.76 423.45 433.15 425.25 430.95 427.57
  C 428.52 430.13 424.65 433.34 423.14 434.77
  C 389.45 466.60 355.45 498.13 321.48 529.67
  C 291.98 557.07 262.39 585.02 240.64 605.15
  C 231.49 613.63 223.31 621.08 214.86 629.25
  C 213.24 630.82 211.05 632.36 209.30 634.14
  C 204.85 638.64 200.15 642.83 195.50 647.12
  C 190.75 651.49 186.17 656.32 181.23 660.48
  C 177.63 663.53 173.47 667.39 170.95 671.15
  C 164.45 680.85 162.81 693.67 168.18 704.43
  C 174.90 717.89 186.93 724.60 201.99 723.30
  C 211.72 722.45 219.01 718.05 225.20 710.79
  C 229.01 706.32 233.26 701.83 237.40 697.71
  C 239.38 695.74 241.53 692.86 243.94 690.68
  C 245.23 689.51 246.15 688.32 247.20 687.03
  C 251.09 682.29 256.10 678.21 260.12 673.43
  Q 262.69 670.38 263.97 669.14
  C 267.11 666.10 269.08 663.56 271.63 660.96
  C 275.96 656.54 280.11 651.86 284.33 647.34
  Q 308.24 621.74 332.20 596.19
  Q 337.68 590.33 342.99 584.31
  C 347.70 578.97 353.13 574.16 357.71 568.63
  C 359.64 566.30 361.91 564.41 363.89 562.13
  Q 366.30 559.36 368.44 557.22
  C 370.71 554.96 372.63 552.40 374.85 550.26
  Q 377.83 547.40 380.63 544.37
  Q 402.75 520.49 424.87 496.62
  Q 430.89 490.12 432.57 488.56
  C 433.65 487.56 434.64 485.89 435.98 484.66
  C 438.58 482.24 440.74 479.33 443.18 476.94
  Q 445.49 474.68 447.58 472.21
  Z
  M 568.92 470.15
  C 555.14 473.92 550.41 490.07 558.40 501.32
  C 560.38 504.10 562.91 506.42 564.89 509.14
  C 566.88 511.86 569.26 514.20 571.26 516.81
  Q 572.51 518.44 574.24 520.52
  Q 585.15 533.59 604.23 556.94
  C 605.62 558.63 608.28 561.41 609.97 564.02
  Q 611.33 566.13 615.33 569.22
  C 625.72 577.23 641.18 576.32 650.79 567.69
  C 660.53 558.94 662.55 543.45 655.51 532.49
  Q 653.07 528.70 646.57 523.36
  Q 619.90 501.45 593.30 479.45
  C 585.61 473.09 579.53 467.25 568.92 470.15
  Z
  M 514.12 603.13
  Q 509.19 551.11 506.22 522.51
  C 505.45 515.13 499.36 508.00 491.97 506.43
  C 480.80 504.06 468.76 510.03 467.44 522.25
  Q 464.09 553.36 461.20 584.53
  C 460.80 588.84 460.50 594.47 459.98 599.44
  Q 459.13 607.61 459.44 610.60
  C 460.57 621.21 467.44 629.85 477.45 633.36
  C 485.33 636.12 496.55 635.15 503.34 629.57
  C 511.98 622.49 515.19 614.32 514.12 603.13
  Z" fill="#7468ff"></path>
<path d="M 467.12 277.10
  Q 460.95 219.57 459.24 197.00
  C 458.87 192.11 460.82 185.81 463.56 181.52
  C 472.13 168.16 490.07 165.02 503.15 174.14
  C 505.43 175.73 509.52 180.05 510.88 182.67
  C 515.46 191.46 514.31 197.31 513.22 209.15
  Q 512.62 215.56 511.98 221.97
  Q 508.95 252.10 506.15 282.25
  C 505.45 289.81 497.66 296.80 490.21 297.93
  C 479.62 299.53 468.72 293.05 467.58 281.55
  Q 467.36 279.32 467.12 277.10
  Z" fill="#ffffff"></path>
<path d="M 417.34 322.86
  C 416.52 324.86 415.76 326.51 414.06 327.99
  C 411.23 330.45 408.44 332.74 405.07 333.76
  C 402.28 334.60 398.79 334.25 395.75 334.25
  C 392.05 334.24 384.92 328.41 381.76 325.72
  C 367.67 313.71 353.24 301.82 338.74 290.31
  C 336.24 288.32 333.94 286.05 331.49 284.19
  C 325.60 279.72 320.47 275.65 317.10 269.71
  C 312.22 261.10 312.93 250.04 318.04 242.09
  C 326.13 229.49 341.10 226.11 354.73 232.32
  C 360.49 234.94 365.33 242.45 369.77 247.32
  C 371.82 249.58 373.55 252.31 375.54 254.69
  Q 386.98 268.39 398.40 282.12
  C 402.01 286.45 405.75 290.98 409.12 295.28
  C 411.63 298.47 415.05 301.78 416.74 304.99
  Q 421.20 313.47 417.34 322.86
  Z" fill="#ffffff"></path>
<path d="M 568.06 333.45
  C 556.65 329.89 551.00 316.36 556.47 305.73
  Q 557.49 303.76 564.15 295.68
  C 579.25 277.37 594.28 258.98 609.46 240.73
  C 613.47 235.91 617.27 232.36 623.33 230.57
  C 639.36 225.83 655.64 234.48 659.24 251.01
  Q 661.06 259.41 657.37 267.92
  C 656.34 270.29 653.64 274.61 651.50 276.32
  C 648.17 278.98 645.26 281.79 641.76 284.48
  C 639.51 286.20 637.05 288.46 635.21 289.96
  Q 610.41 310.26 585.72 330.70
  C 581.14 334.49 573.73 335.21 568.06 333.45
  Z" fill="#ffffff"></path>
<path d="M 309.19 376.98
  C 327.00 378.96 344.63 380.23 362.34 382.01
  Q 368.96 382.67 372.36 384.39
  C 380.68 388.60 384.81 398.13 382.22 407.50
  C 379.53 417.30 370.95 421.56 361.41 422.19
  Q 357.18 422.46 357.10 422.47
  Q 334.22 424.60 311.35 426.87
  Q 302.27 427.78 293.16 428.51
  Q 292.52 428.56 285.40 429.52
  C 277.64 430.57 270.10 428.15 263.74 423.34
  C 261.40 421.58 258.17 417.55 256.78 414.85
  C 252.15 405.85 252.74 394.15 258.90 386.03
  C 260.27 384.23 261.33 382.44 263.12 381.05
  C 268.83 376.60 275.62 373.70 282.76 374.34
  Q 295.99 375.52 309.19 376.98
  Z" fill="#ffffff"></path>
<path d="M 714.99 386.45
  Q 715.06 386.50 715.14 386.55
  Q 715.22 386.60 715.27 386.69
  C 722.21 397.32 721.22 409.93 713.50 419.71
  C 708.36 426.22 698.07 430.50 690.64 429.68
  Q 656.36 425.90 622.00 423.01
  Q 609.85 421.99 605.77 421.22
  C 597.56 419.68 590.90 411.20 590.59 402.83
  C 590.31 395.31 594.52 387.91 601.26 384.40
  Q 604.62 382.64 611.55 381.94
  C 633.70 379.71 655.87 377.99 678.01 375.54
  C 680.70 375.24 683.23 375.26 685.98 374.75
  Q 699.92 372.20 710.85 381.43
  Q 713.25 383.46 714.81 386.26
  Q 714.88 386.37 714.99 386.45
  Z" fill="#ffffff"></path>
<path d="M 447.58 472.21
  Q 445.49 474.68 443.18 476.94
  C 440.74 479.33 438.58 482.24 435.98 484.66
  C 434.64 485.89 433.65 487.56 432.57 488.56
  Q 430.89 490.12 424.87 496.62
  Q 402.75 520.49 380.63 544.37
  Q 377.83 547.40 374.85 550.26
  C 372.63 552.40 370.71 554.96 368.44 557.22
  Q 366.30 559.36 363.89 562.13
  C 361.91 564.41 359.64 566.30 357.71 568.63
  C 353.13 574.16 347.70 578.97 342.99 584.31
  Q 337.68 590.33 332.20 596.19
  Q 308.24 621.74 284.33 647.34
  C 280.11 651.86 275.96 656.54 271.63 660.96
  C 269.08 663.56 267.11 666.10 263.97 669.14
  Q 262.69 670.38 260.12 673.43
  C 256.10 678.21 251.09 682.29 247.20 687.03
  C 246.15 688.32 245.23 689.51 243.94 690.68
  C 241.53 692.86 239.38 695.74 237.40 697.71
  C 233.26 701.83 229.01 706.32 225.20 710.79
  C 219.01 718.05 211.72 722.45 201.99 723.30
  C 186.93 724.60 174.90 717.89 168.18 704.43
  C 162.81 693.67 164.45 680.85 170.95 671.15
  C 173.47 667.39 177.63 663.53 181.23 660.48
  C 186.17 656.32 190.75 651.49 195.50 647.12
  C 200.15 642.83 204.85 638.64 209.30 634.14
  C 211.05 632.36 213.24 630.82 214.86 629.25
  C 223.31 621.08 231.49 613.63 240.64 605.15
  C 262.39 585.02 291.98 557.07 321.48 529.67
  C 355.45 498.13 389.45 466.60 423.14 434.77
  C 424.65 433.34 428.52 430.13 430.95 427.57
  C 433.15 425.25 435.76 423.45 437.99 421.11
  C 440.85 418.10 443.95 415.78 446.73 412.83
  Q 447.93 411.56 449.16 410.58
  C 456.21 404.96 462.41 396.51 470.05 392.08
  C 478.22 387.34 490.35 390.29 495.56 398.40
  C 500.57 406.20 499.78 416.37 493.39 423.25
  C 487.24 429.88 480.83 436.32 474.89 443.13
  C 470.51 448.17 465.48 452.71 461.13 457.75
  C 458.58 460.70 455.97 463.09 453.23 466.29
  C 451.44 468.38 449.31 470.16 447.58 472.21
  Z" fill="#ffffff"></path>
<path d="M 558.40 501.32
  C 550.41 490.07 555.14 473.92 568.92 470.15
  C 579.53 467.25 585.61 473.09 593.30 479.45
  Q 619.90 501.45 646.57 523.36
  Q 653.07 528.70 655.51 532.49
  C 662.55 543.45 660.53 558.94 650.79 567.69
  C 641.18 576.32 625.72 577.23 615.33 569.22
  Q 611.33 566.13 609.97 564.02
  C 608.28 561.41 605.62 558.63 604.23 556.94
  Q 585.15 533.59 574.24 520.52
  Q 572.51 518.44 571.26 516.81
  C 569.26 514.20 566.88 511.86 564.89 509.14
  C 562.91 506.42 560.38 504.10 558.40 501.32
  Z" fill="#ffffff"></path>
<path d="M 514.12 603.13
  C 515.19 614.32 511.98 622.49 503.34 629.57
  C 496.55 635.15 485.33 636.12 477.45 633.36
  C 467.44 629.85 460.57 621.21 459.44 610.60
  Q 459.13 607.61 459.98 599.44
  C 460.50 594.47 460.80 588.84 461.20 584.53
  Q 464.09 553.36 467.44 522.25
  C 468.76 510.03 480.80 504.06 491.97 506.43
  C 499.36 508.00 505.45 515.13 506.22 522.51
  Q 509.19 551.11 514.12 603.13
  Z" fill="#ffffff"></path>
</svg>
