<svg viewBox="0.00 0.00 310.00 310.00" version="1.1" xmlns="http://www.w3.org/2000/svg">
<g stroke-linecap="butt" fill="none" stroke-width="2.00">
<path d="M 113.60 79.98
  L 112.90 80.22
  Q 112.64 80.31 112.64 80.04
  Q 112.64 79.91 112.63 79.78
  Q 112.61 79.40 112.24 79.44
  Q 110.06 79.66 107.99 80.31
  C 105.72 81.02 104.56 82.98 102.96 84.04
  Q 99.84 86.13 98.16 87.71
  C 96.29 89.47 95.10 90.40 93.40 91.67
  Q 93.12 91.87 93.11 92.22
  Q 93.11 92.36 93.11 92.50
  Q 93.11 93.10 92.50 93.11
  L 92.16 93.11
  Q 91.72 93.11 91.39 93.40
  C 87.78 96.59 85.21 98.37 82.33 100.83
  Q 80.37 102.50 78.47 103.94
  C 76.11 105.72 74.08 108.04 71.86 109.65
  Q 68.95 111.77 66.00 113.84
  Q 65.29 114.33 62.63 116.85
  Q 60.95 118.44 58.73 119.24
  A 0.87 0.84 -77.8 0 0 58.40 119.46
  L 55.21 122.93
  Q 55.12 123.03 55.11 123.17
  Q 55.11 123.30 55.13 123.42
  Q 55.21 123.78 54.88 123.93
  Q 54.07 124.30 53.26 123.99" stroke="#ff6b2d"></path>
<path d="M 161.06 155.64
  Q 158.77 154.80 156.59 157.28
  Q 156.30 157.61 155.87 157.67
  Q 155.63 157.70 155.40 157.80
  C 154.70 158.09 153.42 159.86 152.47 160.43
  C 149.53 162.19 147.75 164.58 144.54 166.12
  A 1.30 1.23 4.7 0 0 144.09 166.48
  Q 143.44 167.35 142.48 167.90
  Q 142.11 168.11 141.83 168.43
  L 139.19 171.38
  A 1.61 1.52 -13.8 0 0 138.92 171.80
  Q 138.35 173.07 136.86 172.88
  Q 136.35 172.82 135.97 173.15
  Q 128.60 179.58 121.00 185.75
  C 120.30 186.31 119.27 186.72 118.67 187.31
  C 117.34 188.62 116.06 189.28 114.86 190.48
  C 113.04 192.28 110.73 193.55 109.02 195.16
  Q 106.00 198.03 104.63 198.88
  Q 98.36 202.81 95.08 206.06
  Q 94.77 206.37 94.32 206.37
  Q 93.28 206.35 93.02 207.26" stroke="#ff881c"></path>
<path d="M 189.92 212.25
  Q 188.80 212.07 185.99 213.96
  Q 182.08 216.58 178.96 220.12
  Q 178.58 220.55 178.02 220.68
  Q 176.88 220.94 176.02 221.70
  A 1.25 1.09 -12.2 0 0 175.73 222.09
  Q 175.37 222.91 174.49 222.88
  A 1.03 1.01 -72.2 0 0 173.58 223.36
  Q 172.48 225.13 170.47 225.72
  A 1.21 1.16 -75.5 0 0 169.92 226.06
  Q 166.99 229.16 163.80 231.99
  C 162.81 232.86 161.48 232.71 160.42 233.86
  Q 155.20 239.53 153.03 240.52
  C 150.41 241.73 148.84 243.96 146.75 245.81
  C 145.81 246.64 144.64 246.64 143.80 247.29
  Q 141.89 248.76 139.35 251.46
  Q 138.77 252.07 137.24 253.02
  Q 136.01 253.79 135.23 255.12
  A 0.64 0.64 0.0 0 1 134.33 255.33
  Q 133.77 254.96 133.16 255.19
  Q 132.94 255.27 132.89 255.50
  Q 132.85 255.68 132.96 255.91
  Q 133.01 256.00 133.10 256.04
  Q 133.23 256.10 133.38 256.12
  Q 133.56 256.14 133.48 256.31
  Q 133.35 256.57 133.43 257.01" stroke="#ffa10e"></path>
<path d="M 269.13 129.16
  Q 268.13 129.42 267.32 130.71
  Q 267.01 131.20 266.69 130.72
  Q 266.51 130.45 266.45 130.17
  Q 266.35 129.73 265.91 129.64
  C 264.67 129.37 263.69 129.27 262.53 128.60
  Q 261.05 127.74 259.40 127.36
  C 256.13 126.60 253.54 125.07 250.69 123.43
  Q 250.31 123.21 249.88 123.15
  Q 248.98 123.03 248.55 122.20
  Q 248.48 122.06 248.33 122.11
  L 248.03 122.20
  Q 247.70 122.30 247.42 122.12
  Q 245.60 121.02 243.77 119.96
  C 242.44 119.20 240.27 118.53 238.72 117.27
  Q 238.35 116.97 237.89 116.86
  Q 237.01 116.67 236.48 115.94
  Q 236.19 115.55 235.76 115.33
  Q 230.54 112.72 224.94 111.05
  C 224.01 110.78 222.88 110.70 222.07 110.27
  Q 220.52 109.45 218.94 108.66
  A 0.08 0.07 50.0 0 1 218.95 108.52
  Q 219.33 108.44 218.90 108.13
  A 0.38 0.38 0.0 0 0 218.52 108.09
  L 217.88 108.38
  Q 217.44 108.59 217.44 108.10
  Q 217.43 107.95 217.46 107.79" stroke="#3bd5f4"></path>
</g>
<path d="M 113.60 79.98
  L 112.90 80.22
  Q 112.64 80.31 112.64 80.04
  Q 112.64 79.91 112.63 79.78
  Q 112.61 79.40 112.24 79.44
  Q 110.06 79.66 107.99 80.31
  C 105.72 81.02 104.56 82.98 102.96 84.04
  Q 99.84 86.13 98.16 87.71
  C 96.29 89.47 95.10 90.40 93.40 91.67
  Q 93.12 91.87 93.11 92.22
  Q 93.11 92.36 93.11 92.50
  Q 93.11 93.10 92.50 93.11
  L 92.16 93.11
  Q 91.72 93.11 91.39 93.40
  C 87.78 96.59 85.21 98.37 82.33 100.83
  Q 80.37 102.50 78.47 103.94
  C 76.11 105.72 74.08 108.04 71.86 109.65
  Q 68.95 111.77 66.00 113.84
  Q 65.29 114.33 62.63 116.85
  Q 60.95 118.44 58.73 119.24
  A 0.87 0.84 -77.8 0 0 58.40 119.46
  L 55.21 122.93
  Q 55.12 123.03 55.11 123.17
  Q 55.11 123.30 55.13 123.42
  Q 55.21 123.78 54.88 123.93
  Q 54.07 124.30 53.26 123.99
  C 45.63 101.38 39.84 76.93 38.85 53.00
  C 38.22 37.65 40.79 7.51 65.70 24.79
  Q 75.11 31.32 86.65 44.87
  Q 101.00 61.72 113.60 79.98
  Z" fill="#ff5b36"></path>
<path d="M 269.13 129.16
  Q 268.13 129.42 267.32 130.71
  Q 267.01 131.20 266.69 130.72
  Q 266.51 130.45 266.45 130.17
  Q 266.35 129.73 265.91 129.64
  C 264.67 129.37 263.69 129.27 262.53 128.60
  Q 261.05 127.74 259.40 127.36
  C 256.13 126.60 253.54 125.07 250.69 123.43
  Q 250.31 123.21 249.88 123.15
  Q 248.98 123.03 248.55 122.20
  Q 248.48 122.06 248.33 122.11
  L 248.03 122.20
  Q 247.70 122.30 247.42 122.12
  Q 245.60 121.02 243.77 119.96
  C 242.44 119.20 240.27 118.53 238.72 117.27
  Q 238.35 116.97 237.89 116.86
  Q 237.01 116.67 236.48 115.94
  Q 236.19 115.55 235.76 115.33
  Q 230.54 112.72 224.94 111.05
  C 224.01 110.78 222.88 110.70 222.07 110.27
  Q 220.52 109.45 218.94 108.66
  A 0.08 0.07 50.0 0 1 218.95 108.52
  Q 219.33 108.44 218.90 108.13
  A 0.38 0.38 0.0 0 0 218.52 108.09
  L 217.88 108.38
  Q 217.44 108.59 217.44 108.10
  Q 217.43 107.95 217.46 107.79
  Q 233.73 81.12 253.83 57.34
  Q 262.35 47.26 272.77 39.27
  C 276.30 36.57 281.86 33.42 285.98 36.81
  C 299.86 48.25 275.00 113.95 269.13 129.16
  Z" fill="#49e0f9"></path>
<path d="M 113.60 79.98
  Q 139.33 116.60 161.06 155.64
  Q 158.77 154.80 156.59 157.28
  Q 156.30 157.61 155.87 157.67
  Q 155.63 157.70 155.40 157.80
  C 154.70 158.09 153.42 159.86 152.47 160.43
  C 149.53 162.19 147.75 164.58 144.54 166.12
  A 1.30 1.23 4.7 0 0 144.09 166.48
  Q 143.44 167.35 142.48 167.90
  Q 142.11 168.11 141.83 168.43
  L 139.19 171.38
  A 1.61 1.52 -13.8 0 0 138.92 171.80
  Q 138.35 173.07 136.86 172.88
  Q 136.35 172.82 135.97 173.15
  Q 128.60 179.58 121.00 185.75
  C 120.30 186.31 119.27 186.72 118.67 187.31
  C 117.34 188.62 116.06 189.28 114.86 190.48
  C 113.04 192.28 110.73 193.55 109.02 195.16
  Q 106.00 198.03 104.63 198.88
  Q 98.36 202.81 95.08 206.06
  Q 94.77 206.37 94.32 206.37
  Q 93.28 206.35 93.02 207.26
  Q 67.49 168.56 53.26 123.99
  Q 54.07 124.30 54.88 123.93
  Q 55.21 123.78 55.13 123.42
  Q 55.11 123.30 55.11 123.17
  Q 55.12 123.03 55.21 122.93
  L 58.40 119.46
  A 0.87 0.84 -77.8 0 1 58.73 119.24
  Q 60.95 118.44 62.63 116.85
  Q 65.29 114.33 66.00 113.84
  Q 68.95 111.77 71.86 109.65
  C 74.08 108.04 76.11 105.72 78.47 103.94
  Q 80.37 102.50 82.33 100.83
  C 85.21 98.37 87.78 96.59 91.39 93.40
  Q 91.72 93.11 92.16 93.11
  L 92.50 93.11
  Q 93.11 93.10 93.11 92.50
  Q 93.11 92.36 93.11 92.22
  Q 93.12 91.87 93.40 91.67
  C 95.10 90.40 96.29 89.47 98.16 87.71
  Q 99.84 86.13 102.96 84.04
  C 104.56 82.98 105.72 81.02 107.99 80.31
  Q 110.06 79.66 112.24 79.44
  Q 112.61 79.40 112.63 79.78
  Q 112.64 79.91 112.64 80.04
  Q 112.64 80.31 112.90 80.22
  L 113.60 79.98
  Z" fill="#ff7a24"></path>
<path d="M 217.46 107.79
  Q 217.43 107.95 217.44 108.10
  Q 217.44 108.59 217.88 108.38
  L 218.52 108.09
  A 0.38 0.38 0.0 0 1 218.90 108.13
  Q 219.33 108.44 218.95 108.52
  A 0.08 0.07 50.0 0 0 218.94 108.66
  Q 220.52 109.45 222.07 110.27
  C 222.88 110.70 224.01 110.78 224.94 111.05
  Q 230.54 112.72 235.76 115.33
  Q 236.19 115.55 236.48 115.94
  Q 237.01 116.67 237.89 116.86
  Q 238.35 116.97 238.72 117.27
  C 240.27 118.53 242.44 119.20 243.77 119.96
  Q 245.60 121.02 247.42 122.12
  Q 247.70 122.30 248.03 122.20
  L 248.33 122.11
  Q 248.48 122.06 248.55 122.20
  Q 248.98 123.03 249.88 123.15
  Q 250.31 123.21 250.69 123.43
  C 253.54 125.07 256.13 126.60 259.40 127.36
  Q 261.05 127.74 262.53 128.60
  C 263.69 129.27 264.67 129.37 265.91 129.64
  Q 266.35 129.73 266.45 130.17
  Q 266.51 130.45 266.69 130.72
  Q 267.01 131.20 267.32 130.71
  Q 268.13 129.42 269.13 129.16
  Q 244.58 192.39 212.68 252.00
  Q 212.42 252.48 212.37 251.94
  C 210.08 223.55 197.67 194.79 183.91 170.22
  A 1.68 1.67 -47.0 0 1 183.86 168.67
  Q 199.05 137.30 217.46 107.79
  Z" fill="#2cc9ef"></path>
<path d="M 161.06 155.64
  Q 176.87 183.67 189.92 212.25
  Q 188.80 212.07 185.99 213.96
  Q 182.08 216.58 178.96 220.12
  Q 178.58 220.55 178.02 220.68
  Q 176.88 220.94 176.02 221.70
  A 1.25 1.09 -12.2 0 0 175.73 222.09
  Q 175.37 222.91 174.49 222.88
  A 1.03 1.01 -72.2 0 0 173.58 223.36
  Q 172.48 225.13 170.47 225.72
  A 1.21 1.16 -75.5 0 0 169.92 226.06
  Q 166.99 229.16 163.80 231.99
  C 162.81 232.86 161.48 232.71 160.42 233.86
  Q 155.20 239.53 153.03 240.52
  C 150.41 241.73 148.84 243.96 146.75 245.81
  C 145.81 246.64 144.64 246.64 143.80 247.29
  Q 141.89 248.76 139.35 251.46
  Q 138.77 252.07 137.24 253.02
  Q 136.01 253.79 135.23 255.12
  A 0.64 0.64 0.0 0 1 134.33 255.33
  Q 133.77 254.96 133.16 255.19
  Q 132.94 255.27 132.89 255.50
  Q 132.85 255.68 132.96 255.91
  Q 133.01 256.00 133.10 256.04
  Q 133.23 256.10 133.38 256.12
  Q 133.56 256.14 133.48 256.31
  Q 133.35 256.57 133.43 257.01
  Q 110.78 234.37 93.02 207.26
  Q 93.28 206.35 94.32 206.37
  Q 94.77 206.37 95.08 206.06
  Q 98.36 202.81 104.63 198.88
  Q 106.00 198.03 109.02 195.16
  C 110.73 193.55 113.04 192.28 114.86 190.48
  C 116.06 189.28 117.34 188.62 118.67 187.31
  C 119.27 186.72 120.30 186.31 121.00 185.75
  Q 128.60 179.58 135.97 173.15
  Q 136.35 172.82 136.86 172.88
  Q 138.35 173.07 138.92 171.80
  A 1.61 1.52 -13.8 0 1 139.19 171.38
  L 141.83 168.43
  Q 142.11 168.11 142.48 167.90
  Q 143.44 167.35 144.09 166.48
  A 1.30 1.23 4.7 0 1 144.54 166.12
  C 147.75 164.58 149.53 162.19 152.47 160.43
  C 153.42 159.86 154.70 158.09 155.40 157.80
  Q 155.63 157.70 155.87 157.67
  Q 156.30 157.61 156.59 157.28
  Q 158.77 154.80 161.06 155.64
  Z" fill="#ff9614"></path>
<path d="M 189.92 212.25
  Q 197.44 228.94 202.31 245.89
  C 204.62 253.94 206.49 262.88 204.92 271.25
  C 202.26 285.45 184.36 287.20 173.24 283.55
  C 158.03 278.55 144.71 268.18 133.43 257.01
  Q 133.35 256.57 133.48 256.31
  Q 133.56 256.14 133.38 256.12
  Q 133.23 256.10 133.10 256.04
  Q 133.01 256.00 132.96 255.91
  Q 132.85 255.68 132.89 255.50
  Q 132.94 255.27 133.16 255.19
  Q 133.77 254.96 134.33 255.33
  A 0.64 0.64 0.0 0 0 135.23 255.12
  Q 136.01 253.79 137.24 253.02
  Q 138.77 252.07 139.35 251.46
  Q 141.89 248.76 143.80 247.29
  C 144.64 246.64 145.81 246.64 146.75 245.81
  C 148.84 243.96 150.41 241.73 153.03 240.52
  Q 155.20 239.53 160.42 233.86
  C 161.48 232.71 162.81 232.86 163.80 231.99
  Q 166.99 229.16 169.92 226.06
  A 1.21 1.16 -75.5 0 1 170.47 225.72
  Q 172.48 225.13 173.58 223.36
  A 1.03 1.01 -72.2 0 1 174.49 222.88
  Q 175.37 222.91 175.73 222.09
  A 1.25 1.09 -12.2 0 1 176.02 221.70
  Q 176.88 220.94 178.02 220.68
  Q 178.58 220.55 178.96 220.12
  Q 182.08 216.58 185.99 213.96
  Q 188.80 212.07 189.92 212.25
  Z" fill="#ffac08"></path>
</svg>
