<svg viewBox="0.00 0.00 100.00 100.00" version="1.1" xmlns="http://www.w3.org/2000/svg">
<g stroke-linecap="butt" fill="none" stroke-width="2.00">
<path d="M 22.67 33.13
  Q 22.38 33.74 21.74 32.97
  A 0.16 0.15 -36.8 0 1 21.78 32.74
  Q 22.00 32.60 21.84 32.19
  A 0.29 0.28 -10.2 0 0 21.57 32.01
  Q 15.72 32.29 9.95 32.48
  C 8.96 32.52 8.28 32.09 7.43 31.69
  Q 7.04 31.51 6.79 31.85
  Q 6.43 32.36 5.47 32.50" stroke="#9f4fff"></path>
<path d="M 59.23 66.23
  L 57.77 64.31
  Q 57.07 63.40 57.17 64.57
  Q 57.21 65.12 56.86 65.55
  Q 56.56 65.91 56.10 65.90
  L 42.13 65.62" stroke="#a169ff"></path>
</g>
<path d="M 22.67 33.13
  Q 22.38 33.74 21.74 32.97
  A 0.16 0.15 -36.8 0 1 21.78 32.74
  Q 22.00 32.60 21.84 32.19
  A 0.29 0.28 -10.2 0 0 21.57 32.01
  Q 15.72 32.29 9.95 32.48
  C 8.96 32.52 8.28 32.09 7.43 31.69
  Q 7.04 31.51 6.79 31.85
  Q 6.43 32.36 5.47 32.50
  C 6.33 23.37 13.53 16.87 22.15 14.73
  Q 38.88 10.57 54.03 18.24
  A 1.68 1.66 -76.7 0 1 54.94 19.73
  L 54.98 33.75
  Q 54.98 34.28 54.50 34.06
  Q 52.62 33.18 50.85 32.25
  C 44.30 28.77 27.12 23.88 22.67 33.13
  Z" fill="#9e41ff"></path>
<path d="M 22.67 33.13
  C 19.79 47.32 61.16 38.93 59.23 66.23
  L 57.77 64.31
  Q 57.07 63.40 57.17 64.57
  Q 57.21 65.12 56.86 65.55
  Q 56.56 65.91 56.10 65.90
  L 42.13 65.62
  Q 42.30 62.13 39.32 60.17
  Q 36.60 58.38 32.37 57.13
  C 20.16 53.51 2.94 49.64 5.47 32.50
  Q 6.43 32.36 6.79 31.85
  Q 7.04 31.51 7.43 31.69
  C 8.28 32.09 8.96 32.52 9.95 32.48
  Q 15.72 32.29 21.57 32.01
  A 0.29 0.28 -10.2 0 1 21.84 32.19
  Q 22.00 32.60 21.78 32.74
  A 0.16 0.15 -36.8 0 0 21.74 32.97
  Q 22.38 33.74 22.67 33.13
  Z" fill="#a05cff"></path>
<path d="M 42.13 65.62
  L 56.10 65.90
  Q 56.56 65.91 56.86 65.55
  Q 57.21 65.12 57.17 64.57
  Q 57.07 63.40 57.77 64.31
  L 59.23 66.23
  C 58.48 91.54 20.38 90.89 5.91 80.33
  A 1.03 1.03 0.0 0 1 5.49 79.50
  L 5.50 63.77
  Q 5.50 63.18 5.96 63.54
  C 14.86 70.46 23.72 73.86 34.99 71.99
  Q 40.65 71.05 42.13 65.62
  Z" fill="#a276ff"></path>
<circle r="10.45" cy="75.82" cx="83.99" fill="#e80000"></circle>
</svg>
