<svg viewBox="0.00 0.00 32.00 32.00" version="1.1" xmlns="http://www.w3.org/2000/svg">
<path d="M 13.19 0.00
  L 14.33 0.00
  Q 15.10 4.01 13.56 7.51
  Q 12.06 10.87 8.66 9.47
  L 5.36 8.11
  Q 2.33 6.86 4.67 4.56
  Q 7.87 1.42 13.19 0.00
  Z" fill="#71d5dc"></path>
<path d="M 17.71 0.00
  L 18.99 0.00
  Q 24.51 1.60 27.60 4.86
  Q 29.68 7.05 26.86 8.13
  L 23.16 9.55
  Q 20.09 10.73 18.61 7.80
  Q 16.86 4.37 17.71 0.00
  Z" fill="#6dccdf"></path>
<path d="M 0.00 17.85
  L 0.00 14.03
  L 0.90 10.46
  A 1.13 1.13 0.0 0 1 2.57 9.76
  C 10.19 14.32 9.71 18.24 2.28 22.37
  Q 1.36 22.88 1.09 21.87
  L 0.00 17.85
  Z" fill="#71d5dc"></path>
<path d="M 32.00 14.15
  L 32.00 17.97
  L 31.11 21.52
  A 1.17 1.16 23.1 0 1 29.36 22.22
  C 21.87 17.53 22.26 13.85 29.67 9.64
  A 0.82 0.82 0.0 0 1 30.87 10.14
  L 32.00 14.15
  Z" fill="#64bce9"></path>
<path d="M 14.31 32.00
  L 13.02 32.00
  Q 7.31 30.64 3.40 25.91
  A 0.63 0.63 0.0 0 1 3.50 25.01
  C 6.22 22.92 11.97 20.22 13.74 25.00
  Q 15.04 28.52 14.31 32.00
  Z" fill="#68c4e4"></path>
<path d="M 18.81 32.00
  L 17.66 32.00
  Q 16.89 28.01 18.43 24.51
  Q 19.91 21.15 23.32 22.53
  L 26.57 23.84
  Q 29.71 25.11 27.29 27.48
  Q 24.10 30.60 18.81 32.00
  Z" fill="#64bce9"></path>
</svg>
