<svg viewBox="0.00 0.00 256.00 256.00" version="1.1" xmlns="http://www.w3.org/2000/svg">
<g stroke-linecap="butt" fill="none" stroke-width="2.00">
<path d="M 234.29 71.68
  Q 234.49 75.93 234.90 80.07
  C 235.56 86.75 234.98 93.47 235.62 100.26
  C 236.06 104.89 235.99 109.60 236.47 114.27
  Q 237.03 119.67 237.27 124.76
  C 237.50 129.46 238.24 134.13 238.53 138.76
  C 238.98 145.89 240.69 152.75 241.12 159.73
  Q 241.38 163.92 241.78 168.19" stroke="#909192"></path>
<path d="M 16.25 170.90
  Q 17.66 160.74 19.17 150.89
  Q 19.80 146.76 20.12 141.56
  C 20.45 136.10 21.23 130.86 21.28 125.25
  C 21.34 119.40 22.19 112.50 22.42 107.75
  C 22.69 101.82 23.38 96.09 23.30 90.08
  Q 23.16 79.21 24.38 68.56" stroke="#909192"></path>
<path d="M 241.34 87.47
  Q 240.07 92.17 240.61 96.12
  C 241.60 103.30 241.79 111.54 242.22 116.96
  Q 242.61 121.83 242.79 126.71
  C 243.00 132.30 244.62 138.15 244.38 144.24
  C 244.31 145.84 244.78 147.50 244.88 149.25
  Q 244.97 150.81 246.35 151.51" stroke="#1e1e1e"></path>
<path d="M 11.70 155.03
  Q 14.66 146.76 14.63 137.87
  C 14.63 135.77 15.42 133.74 15.51 132.00
  Q 15.83 125.56 16.47 119.15
  Q 17.08 112.92 17.08 106.31
  Q 17.08 97.97 17.77 91.24
  Q 18.10 88.08 15.80 86.83" stroke="#1e1e1e"></path>
<path d="M 37.32 102.50
  Q 34.79 113.29 34.42 116.63
  C 33.40 125.91 34.04 138.57 38.07 148.80" stroke="#7a7b7c"></path>
<path d="M 38.07 148.80
  Q 37.63 149.77 38.09 150.63
  A 4.21 0.88 78.2 0 1 38.47 151.50
  Q 38.84 152.49 38.51 153.52
  Q 38.41 153.81 38.22 154.04
  Q 37.89 154.45 37.36 154.60
  Q 36.83 154.74 36.76 155.28
  L 36.26 159.12
  A 1.15 1.11 -15.4 0 1 35.81 159.88
  Q 34.44 160.87 34.22 162.47
  Q 34.20 162.56 33.96 163.39
  Q 33.66 164.39 32.85 164.67
  Q 32.41 164.83 32.37 165.30
  L 32.01 170.06
  A 0.60 0.59 -88.9 0 1 31.44 170.61
  L 31.16 170.62
  Q 30.65 170.63 30.56 171.13
  Q 29.76 175.32 30.37 179.54
  C 30.53 180.66 31.23 181.09 31.11 182.44
  A 1.78 1.69 -54.8 0 0 31.23 183.26
  Q 32.59 186.74 34.02 190.18
  C 34.86 192.17 36.24 194.14 37.23 196.26
  Q 37.41 196.65 37.72 196.95
  Q 38.30 197.50 38.09 198.32
  Q 38.01 198.66 38.30 198.84
  Q 38.53 198.98 38.70 198.90
  Q 39.08 198.72 39.28 199.08
  Q 39.92 200.20 41.03 200.80
  A 1.28 1.23 5.1 0 1 41.61 201.47
  C 42.74 204.56 45.85 206.96 48.07 209.36
  Q 48.33 209.64 48.35 210.01
  Q 48.37 210.37 48.68 210.58
  Q 48.87 210.70 48.97 210.50
  Q 49.03 210.39 49.10 210.27
  A 0.12 0.12 0.0 0 1 49.28 210.23
  C 50.99 211.71 52.30 213.85 54.17 215.00
  Q 55.07 215.55 55.82 216.33
  Q 56.32 216.84 57.99 217.49
  Q 58.66 217.75 58.39 218.40
  Q 58.32 218.57 58.49 218.63
  Q 58.70 218.70 58.63 218.49
  A 0.20 0.20 0.0 0 1 58.88 218.24
  Q 60.95 218.97 64.74 221.22
  Q 68.74 223.59 74.99 223.89
  C 77.57 224.01 81.40 222.01 83.72 221.36
  Q 87.06 220.41 90.36 219.31
  C 93.63 218.22 97.54 217.36 101.05 216.04
  Q 101.53 215.86 102.03 215.89
  C 102.92 215.96 103.53 215.39 104.16 215.18
  Q 111.02 212.92 118.24 212.85
  C 120.31 212.83 122.42 212.27 124.26 212.27
  Q 129.64 212.29 140.16 212.89
  C 141.77 212.98 143.45 212.41 144.35 214.30
  Q 144.57 214.77 145.08 214.73
  Q 147.37 214.55 149.68 214.83
  Q 150.76 214.96 153.12 216.11
  Q 155.12 217.09 157.49 216.85
  Q 158.09 216.79 158.06 217.39
  Q 158.01 218.42 159.13 218.48
  Q 159.64 218.50 159.95 218.10
  Q 160.14 217.86 160.49 217.89
  Q 161.13 217.94 161.45 218.10
  Q 163.74 219.21 166.23 219.81
  Q 166.61 219.90 166.77 220.13
  Q 166.93 220.39 167.24 220.45
  Q 170.54 221.12 173.50 222.73
  Q 174.43 223.23 175.61 223.41
  C 177.57 223.71 179.14 224.70 181.06 224.71
  Q 182.98 224.73 184.91 224.59
  Q 185.39 224.56 185.78 224.27
  C 186.83 223.47 188.21 223.44 189.17 222.97
  Q 191.03 222.05 192.94 221.28
  C 194.60 220.61 195.87 219.18 197.69 218.50
  Q 198.12 218.34 198.44 218.02
  Q 199.30 217.20 200.63 216.38
  C 206.01 213.10 209.33 208.29 214.08 204.22
  Q 214.45 203.90 214.55 203.42
  C 214.94 201.59 216.58 200.39 217.29 199.32
  Q 219.45 196.05 221.49 192.69
  C 221.92 191.98 222.40 191.77 222.70 191.02
  C 225.20 184.65 227.24 179.37 226.48 172.35
  C 226.27 170.43 224.57 169.01 224.09 167.01
  Q 222.29 159.43 219.38 152.03" stroke="#e6e8ea"></path>
<path d="M 219.38 152.03
  Q 222.29 144.92 223.13 139.63
  C 225.21 126.64 223.03 114.24 218.68 100.57" stroke="#7a7b7c"></path>
<path d="M 218.68 100.57
  Q 218.70 99.37 218.31 98.23
  Q 218.14 97.73 218.46 97.43
  Q 218.68 97.22 218.88 97.44
  Q 219.03 97.59 219.22 97.62
  Q 219.44 97.66 219.70 97.40
  Q 221.05 96.07 221.75 94.28
  A 0.58 0.57 10.0 0 1 222.27 93.92
  Q 222.80 93.91 222.65 93.52
  Q 222.54 93.25 222.66 92.97
  Q 223.80 90.43 224.49 87.73
  Q 224.86 86.29 226.11 83.47
  C 228.78 77.42 224.42 68.23 220.68 63.29
  C 219.39 61.60 218.54 59.42 217.06 57.70
  Q 216.79 57.39 216.70 56.99
  Q 216.59 56.52 216.28 56.14
  C 214.94 54.52 211.68 50.01 209.97 49.20
  Q 209.50 48.97 209.16 48.57
  Q 202.23 40.35 192.45 35.84
  A 0.25 0.25 0.0 0 0 192.11 35.98
  Q 192.06 36.11 192.00 36.22
  Q 191.90 36.45 191.67 36.33
  C 190.11 35.56 189.01 34.76 187.19 34.52
  C 185.48 34.29 183.87 33.47 182.23 33.69
  Q 179.99 34.00 177.89 34.89
  C 176.66 35.41 175.26 35.41 173.99 36.26
  Q 173.58 36.54 173.08 36.57
  C 170.54 36.72 169.00 37.80 166.68 38.41
  C 164.67 38.94 163.03 39.86 160.96 40.34
  C 159.22 40.73 157.65 41.54 155.95 41.80
  Q 150.88 42.56 149.51 43.28
  Q 147.87 44.12 145.99 44.07
  C 144.91 44.04 143.97 44.60 143.16 44.79
  Q 132.31 47.34 125.00 46.30
  Q 122.28 45.91 120.62 45.86
  C 119.04 45.81 117.77 45.25 116.21 45.08
  C 114.00 44.83 112.45 44.33 110.48 43.95
  C 108.27 43.53 107.13 42.30 104.53 42.64
  Q 104.04 42.71 103.58 42.53
  C 102.14 41.95 99.90 42.10 99.14 41.39
  Q 98.78 41.06 98.31 40.92
  Q 95.74 40.16 93.16 39.44
  Q 92.97 39.39 92.86 39.27
  Q 92.73 39.12 92.61 38.94
  Q 92.38 38.59 91.97 38.53
  Q 89.72 38.19 87.94 36.82
  Q 87.53 36.50 87.04 36.36
  Q 86.70 36.26 86.41 36.05
  C 85.19 35.21 84.24 34.88 82.80 34.61
  Q 82.33 34.52 82.02 34.15
  Q 81.81 33.90 81.51 33.76
  Q 77.48 31.89 73.16 32.11
  Q 71.25 32.20 68.59 33.49
  C 66.09 34.70 63.36 35.50 60.99 36.84
  Q 59.48 37.70 57.95 38.53
  C 54.92 40.18 53.64 42.85 50.81 44.57
  Q 50.41 44.81 50.13 45.18
  C 49.53 45.97 48.59 46.19 47.96 46.76
  Q 44.76 49.69 42.23 53.24
  C 41.58 54.15 40.34 54.72 39.56 55.87
  Q 37.32 59.23 35.17 62.62
  Q 34.69 63.37 34.15 65.31
  C 33.57 67.35 31.87 68.22 30.98 69.72
  C 29.39 72.40 29.08 78.52 29.96 82.01
  C 30.81 85.36 31.61 88.82 33.61 91.32
  Q 33.90 91.69 33.92 92.15
  Q 33.99 93.12 34.53 93.97
  Q 34.79 94.38 34.84 94.87
  C 35.00 96.58 35.40 98.62 36.42 100.03
  Q 36.74 100.46 36.51 101.02
  Q 36.33 101.44 36.70 101.73
  Q 37.19 102.11 37.32 102.50" stroke="#e6e8ea"></path>
<path d="M 218.68 100.57
  C 216.01 94.39 213.11 87.24 208.36 82.38
  C 195.85 69.56 179.45 66.25 162.25 68.12
  Q 149.94 69.46 137.64 70.85
  C 133.20 71.36 127.59 71.71 124.00 71.31
  C 111.84 69.95 99.79 68.50 87.25 68.82
  C 76.13 69.11 62.82 71.44 53.78 78.01
  C 45.63 83.92 40.85 92.82 37.32 102.50" stroke="#737475"></path>
<path d="M 219.38 152.03
  Q 210.45 170.00 190.23 169.14
  Q 174.70 168.47 156.93 166.45
  Q 143.76 164.95 137.02 164.81
  C 116.92 164.42 96.55 167.00 76.50 168.49
  C 69.94 168.97 62.63 169.76 56.64 167.75
  Q 47.78 164.76 42.30 156.96
  C 40.67 154.64 39.40 151.54 38.07 148.80" stroke="#737475"></path>
<path d="M 166.3552 123.4585
  A 16.33 12.40 83.3 0 0 176.7653 105.7933
  A 16.33 12.40 83.3 0 0 162.5448 91.0215
  A 16.33 12.40 83.3 0 0 152.1347 108.6867
  A 16.33 12.40 83.3 0 0 166.3552 123.4585" stroke="#838383"></path>
<path d="M 85.3709 124.4428
  A 16.32 12.31 95.2 0 0 99.1093 109.3057
  A 16.32 12.31 95.2 0 0 88.3291 91.9372
  A 16.32 12.31 95.2 0 0 74.5907 107.0743
  A 16.32 12.31 95.2 0 0 85.3709 124.4428" stroke="#838383"></path>
</g>
<path d="M 234.29 71.68
  Q 234.49 75.93 234.90 80.07
  C 235.56 86.75 234.98 93.47 235.62 100.26
  C 236.06 104.89 235.99 109.60 236.47 114.27
  Q 237.03 119.67 237.27 124.76
  C 237.50 129.46 238.24 134.13 238.53 138.76
  C 238.98 145.89 240.69 152.75 241.12 159.73
  Q 241.38 163.92 241.78 168.19
  C 210.49 257.17 93.44 276.97 34.43 203.08
  Q 22.57 188.23 16.25 170.90
  Q 17.66 160.74 19.17 150.89
  Q 19.80 146.76 20.12 141.56
  C 20.45 136.10 21.23 130.86 21.28 125.25
  C 21.34 119.40 22.19 112.50 22.42 107.75
  C 22.69 101.82 23.38 96.09 23.30 90.08
  Q 23.16 79.21 24.38 68.56
  C 72.20 -13.08 188.97 -10.87 234.29 71.68
  Z
  M 37.32 102.50
  Q 34.79 113.29 34.42 116.63
  C 33.40 125.91 34.04 138.57 38.07 148.80
  Q 37.63 149.77 38.09 150.63
  A 4.21 0.88 78.2 0 1 38.47 151.50
  Q 38.84 152.49 38.51 153.52
  Q 38.41 153.81 38.22 154.04
  Q 37.89 154.45 37.36 154.60
  Q 36.83 154.74 36.76 155.28
  L 36.26 159.12
  A 1.15 1.11 -15.4 0 1 35.81 159.88
  Q 34.44 160.87 34.22 162.47
  Q 34.20 162.56 33.96 163.39
  Q 33.66 164.39 32.85 164.67
  Q 32.41 164.83 32.37 165.30
  L 32.01 170.06
  A 0.60 0.59 -88.9 0 1 31.44 170.61
  L 31.16 170.62
  Q 30.65 170.63 30.56 171.13
  Q 29.76 175.32 30.37 179.54
  C 30.53 180.66 31.23 181.09 31.11 182.44
  A 1.78 1.69 -54.8 0 0 31.23 183.26
  Q 32.59 186.74 34.02 190.18
  C 34.86 192.17 36.24 194.14 37.23 196.26
  Q 37.41 196.65 37.72 196.95
  Q 38.30 197.50 38.09 198.32
  Q 38.01 198.66 38.30 198.84
  Q 38.53 198.98 38.70 198.90
  Q 39.08 198.72 39.28 199.08
  Q 39.92 200.20 41.03 200.80
  A 1.28 1.23 5.1 0 1 41.61 201.47
  C 42.74 204.56 45.85 206.96 48.07 209.36
  Q 48.33 209.64 48.35 210.01
  Q 48.37 210.37 48.68 210.58
  Q 48.87 210.70 48.97 210.50
  Q 49.03 210.39 49.10 210.27
  A 0.12 0.12 0.0 0 1 49.28 210.23
  C 50.99 211.71 52.30 213.85 54.17 215.00
  Q 55.07 215.55 55.82 216.33
  Q 56.32 216.84 57.99 217.49
  Q 58.66 217.75 58.39 218.40
  Q 58.32 218.57 58.49 218.63
  Q 58.70 218.70 58.63 218.49
  A 0.20 0.20 0.0 0 1 58.88 218.24
  Q 60.95 218.97 64.74 221.22
  Q 68.74 223.59 74.99 223.89
  C 77.57 224.01 81.40 222.01 83.72 221.36
  Q 87.06 220.41 90.36 219.31
  C 93.63 218.22 97.54 217.36 101.05 216.04
  Q 101.53 215.86 102.03 215.89
  C 102.92 215.96 103.53 215.39 104.16 215.18
  Q 111.02 212.92 118.24 212.85
  C 120.31 212.83 122.42 212.27 124.26 212.27
  Q 129.64 212.29 140.16 212.89
  C 141.77 212.98 143.45 212.41 144.35 214.30
  Q 144.57 214.77 145.08 214.73
  Q 147.37 214.55 149.68 214.83
  Q 150.76 214.96 153.12 216.11
  Q 155.12 217.09 157.49 216.85
  Q 158.09 216.79 158.06 217.39
  Q 158.01 218.42 159.13 218.48
  Q 159.64 218.50 159.95 218.10
  Q 160.14 217.86 160.49 217.89
  Q 161.13 217.94 161.45 218.10
  Q 163.74 219.21 166.23 219.81
  Q 166.61 219.90 166.77 220.13
  Q 166.93 220.39 167.24 220.45
  Q 170.54 221.12 173.50 222.73
  Q 174.43 223.23 175.61 223.41
  C 177.57 223.71 179.14 224.70 181.06 224.71
  Q 182.98 224.73 184.91 224.59
  Q 185.39 224.56 185.78 224.27
  C 186.83 223.47 188.21 223.44 189.17 222.97
  Q 191.03 222.05 192.94 221.28
  C 194.60 220.61 195.87 219.18 197.69 218.50
  Q 198.12 218.34 198.44 218.02
  Q 199.30 217.20 200.63 216.38
  C 206.01 213.10 209.33 208.29 214.08 204.22
  Q 214.45 203.90 214.55 203.42
  C 214.94 201.59 216.58 200.39 217.29 199.32
  Q 219.45 196.05 221.49 192.69
  C 221.92 191.98 222.40 191.77 222.70 191.02
  C 225.20 184.65 227.24 179.37 226.48 172.35
  C 226.27 170.43 224.57 169.01 224.09 167.01
  Q 222.29 159.43 219.38 152.03
  Q 222.29 144.92 223.13 139.63
  C 225.21 126.64 223.03 114.24 218.68 100.57
  Q 218.70 99.37 218.31 98.23
  Q 218.14 97.73 218.46 97.43
  Q 218.68 97.22 218.88 97.44
  Q 219.03 97.59 219.22 97.62
  Q 219.44 97.66 219.70 97.40
  Q 221.05 96.07 221.75 94.28
  A 0.58 0.57 10.0 0 1 222.27 93.92
  Q 222.80 93.91 222.65 93.52
  Q 222.54 93.25 222.66 92.97
  Q 223.80 90.43 224.49 87.73
  Q 224.86 86.29 226.11 83.47
  C 228.78 77.42 224.42 68.23 220.68 63.29
  C 219.39 61.60 218.54 59.42 217.06 57.70
  Q 216.79 57.39 216.70 56.99
  Q 216.59 56.52 216.28 56.14
  C 214.94 54.52 211.68 50.01 209.97 49.20
  Q 209.50 48.97 209.16 48.57
  Q 202.23 40.35 192.45 35.84
  A 0.25 0.25 0.0 0 0 192.11 35.98
  Q 192.06 36.11 192.00 36.22
  Q 191.90 36.45 191.67 36.33
  C 190.11 35.56 189.01 34.76 187.19 34.52
  C 185.48 34.29 183.87 33.47 182.23 33.69
  Q 179.99 34.00 177.89 34.89
  C 176.66 35.41 175.26 35.41 173.99 36.26
  Q 173.58 36.54 173.08 36.57
  C 170.54 36.72 169.00 37.80 166.68 38.41
  C 164.67 38.94 163.03 39.86 160.96 40.34
  C 159.22 40.73 157.65 41.54 155.95 41.80
  Q 150.88 42.56 149.51 43.28
  Q 147.87 44.12 145.99 44.07
  C 144.91 44.04 143.97 44.60 143.16 44.79
  Q 132.31 47.34 125.00 46.30
  Q 122.28 45.91 120.62 45.86
  C 119.04 45.81 117.77 45.25 116.21 45.08
  C 114.00 44.83 112.45 44.33 110.48 43.95
  C 108.27 43.53 107.13 42.30 104.53 42.64
  Q 104.04 42.71 103.58 42.53
  C 102.14 41.95 99.90 42.10 99.14 41.39
  Q 98.78 41.06 98.31 40.92
  Q 95.74 40.16 93.16 39.44
  Q 92.97 39.39 92.86 39.27
  Q 92.73 39.12 92.61 38.94
  Q 92.38 38.59 91.97 38.53
  Q 89.72 38.19 87.94 36.82
  Q 87.53 36.50 87.04 36.36
  Q 86.70 36.26 86.41 36.05
  C 85.19 35.21 84.24 34.88 82.80 34.61
  Q 82.33 34.52 82.02 34.15
  Q 81.81 33.90 81.51 33.76
  Q 77.48 31.89 73.16 32.11
  Q 71.25 32.20 68.59 33.49
  C 66.09 34.70 63.36 35.50 60.99 36.84
  Q 59.48 37.70 57.95 38.53
  C 54.92 40.18 53.64 42.85 50.81 44.57
  Q 50.41 44.81 50.13 45.18
  C 49.53 45.97 48.59 46.19 47.96 46.76
  Q 44.76 49.69 42.23 53.24
  C 41.58 54.15 40.34 54.72 39.56 55.87
  Q 37.32 59.23 35.17 62.62
  Q 34.69 63.37 34.15 65.31
  C 33.57 67.35 31.87 68.22 30.98 69.72
  C 29.39 72.40 29.08 78.52 29.96 82.01
  C 30.81 85.36 31.61 88.82 33.61 91.32
  Q 33.90 91.69 33.92 92.15
  Q 33.99 93.12 34.53 93.97
  Q 34.79 94.38 34.84 94.87
  C 35.00 96.58 35.40 98.62 36.42 100.03
  Q 36.74 100.46 36.51 101.02
  Q 36.33 101.44 36.70 101.73
  Q 37.19 102.11 37.32 102.50
  Z" fill="#eceef0"></path>
<path d="M 218.68 100.57
  C 216.01 94.39 213.11 87.24 208.36 82.38
  C 195.85 69.56 179.45 66.25 162.25 68.12
  Q 149.94 69.46 137.64 70.85
  C 133.20 71.36 127.59 71.71 124.00 71.31
  C 111.84 69.95 99.79 68.50 87.25 68.82
  C 76.13 69.11 62.82 71.44 53.78 78.01
  C 45.63 83.92 40.85 92.82 37.32 102.50
  Q 37.19 102.11 36.70 101.73
  Q 36.33 101.44 36.51 101.02
  Q 36.74 100.46 36.42 100.03
  C 35.40 98.62 35.00 96.58 34.84 94.87
  Q 34.79 94.38 34.53 93.97
  Q 33.99 93.12 33.92 92.15
  Q 33.90 91.69 33.61 91.32
  C 31.61 88.82 30.81 85.36 29.96 82.01
  C 29.08 78.52 29.39 72.40 30.98 69.72
  C 31.87 68.22 33.57 67.35 34.15 65.31
  Q 34.69 63.37 35.17 62.62
  Q 37.32 59.23 39.56 55.87
  C 40.34 54.72 41.58 54.15 42.23 53.24
  Q 44.76 49.69 47.96 46.76
  C 48.59 46.19 49.53 45.97 50.13 45.18
  Q 50.41 44.81 50.81 44.57
  C 53.64 42.85 54.92 40.18 57.95 38.53
  Q 59.48 37.70 60.99 36.84
  C 63.36 35.50 66.09 34.70 68.59 33.49
  Q 71.25 32.20 73.16 32.11
  Q 77.48 31.89 81.51 33.76
  Q 81.81 33.90 82.02 34.15
  Q 82.33 34.52 82.80 34.61
  C 84.24 34.88 85.19 35.21 86.41 36.05
  Q 86.70 36.26 87.04 36.36
  Q 87.53 36.50 87.94 36.82
  Q 89.72 38.19 91.97 38.53
  Q 92.38 38.59 92.61 38.94
  Q 92.73 39.12 92.86 39.27
  Q 92.97 39.39 93.16 39.44
  Q 95.74 40.16 98.31 40.92
  Q 98.78 41.06 99.14 41.39
  C 99.90 42.10 102.14 41.95 103.58 42.53
  Q 104.04 42.71 104.53 42.64
  C 107.13 42.30 108.27 43.53 110.48 43.95
  C 112.45 44.33 114.00 44.83 116.21 45.08
  C 117.77 45.25 119.04 45.81 120.62 45.86
  Q 122.28 45.91 125.00 46.30
  Q 132.31 47.34 143.16 44.79
  C 143.97 44.60 144.91 44.04 145.99 44.07
  Q 147.87 44.12 149.51 43.28
  Q 150.88 42.56 155.95 41.80
  C 157.65 41.54 159.22 40.73 160.96 40.34
  C 163.03 39.86 164.67 38.94 166.68 38.41
  C 169.00 37.80 170.54 36.72 173.08 36.57
  Q 173.58 36.54 173.99 36.26
  C 175.26 35.41 176.66 35.41 177.89 34.89
  Q 179.99 34.00 182.23 33.69
  C 183.87 33.47 185.48 34.29 187.19 34.52
  C 189.01 34.76 190.11 35.56 191.67 36.33
  Q 191.90 36.45 192.00 36.22
  Q 192.06 36.11 192.11 35.98
  A 0.25 0.25 0.0 0 1 192.45 35.84
  Q 202.23 40.35 209.16 48.57
  Q 209.50 48.97 209.97 49.20
  C 211.68 50.01 214.94 54.52 216.28 56.14
  Q 216.59 56.52 216.70 56.99
  Q 216.79 57.39 217.06 57.70
  C 218.54 59.42 219.39 61.60 220.68 63.29
  C 224.42 68.23 228.78 77.42 226.11 83.47
  Q 224.86 86.29 224.49 87.73
  Q 223.80 90.43 222.66 92.97
  Q 222.54 93.25 222.65 93.52
  Q 222.80 93.91 222.27 93.92
  A 0.58 0.57 10.0 0 0 221.75 94.28
  Q 221.05 96.07 219.70 97.40
  Q 219.44 97.66 219.22 97.62
  Q 219.03 97.59 218.88 97.44
  Q 218.68 97.22 218.46 97.43
  Q 218.14 97.73 218.31 98.23
  Q 218.70 99.37 218.68 100.57
  Z" fill="#dfe1e3"></path>
<path d="M 218.68 100.57
  C 223.03 114.24 225.21 126.64 223.13 139.63
  Q 222.29 144.92 219.38 152.03
  Q 210.45 170.00 190.23 169.14
  Q 174.70 168.47 156.93 166.45
  Q 143.76 164.95 137.02 164.81
  C 116.92 164.42 96.55 167.00 76.50 168.49
  C 69.94 168.97 62.63 169.76 56.64 167.75
  Q 47.78 164.76 42.30 156.96
  C 40.67 154.64 39.40 151.54 38.07 148.80
  C 34.04 138.57 33.40 125.91 34.42 116.63
  Q 34.79 113.29 37.32 102.50
  C 40.85 92.82 45.63 83.92 53.78 78.01
  C 62.82 71.44 76.13 69.11 87.25 68.82
  C 99.79 68.50 111.84 69.95 124.00 71.31
  C 127.59 71.71 133.20 71.36 137.64 70.85
  Q 149.94 69.46 162.25 68.12
  C 179.45 66.25 195.85 69.56 208.36 82.38
  C 213.11 87.24 216.01 94.39 218.68 100.57
  Z
  M 166.3552 123.4585
  A 16.33 12.40 83.3 0 0 176.7653 105.7933
  A 16.33 12.40 83.3 0 0 162.5448 91.0215
  A 16.33 12.40 83.3 0 0 152.1347 108.6867
  A 16.33 12.40 83.3 0 0 166.3552 123.4585
  Z
  M 85.3709 124.4428
  A 16.32 12.31 95.2 0 0 99.1093 109.3057
  A 16.32 12.31 95.2 0 0 88.3291 91.9372
  A 16.32 12.31 95.2 0 0 74.5907 107.0743
  A 16.32 12.31 95.2 0 0 85.3709 124.4428
  Z" fill="#070707"></path>
<path d="M 24.38 68.56
  Q 23.16 79.21 23.30 90.08
  C 23.38 96.09 22.69 101.82 22.42 107.75
  C 22.19 112.50 21.34 119.40 21.28 125.25
  C 21.23 130.86 20.45 136.10 20.12 141.56
  Q 19.80 146.76 19.17 150.89
  Q 17.66 160.74 16.25 170.90
  Q 12.49 162.26 11.70 155.03
  Q 14.66 146.76 14.63 137.87
  C 14.63 135.77 15.42 133.74 15.51 132.00
  Q 15.83 125.56 16.47 119.15
  Q 17.08 112.92 17.08 106.31
  Q 17.08 97.97 17.77 91.24
  Q 18.10 88.08 15.80 86.83
  Q 19.46 77.20 24.38 68.56
  Z" fill="#343434"></path>
<path d="M 234.29 71.68
  L 241.34 87.47
  Q 240.07 92.17 240.61 96.12
  C 241.60 103.30 241.79 111.54 242.22 116.96
  Q 242.61 121.83 242.79 126.71
  C 243.00 132.30 244.62 138.15 244.38 144.24
  C 244.31 145.84 244.78 147.50 244.88 149.25
  Q 244.97 150.81 246.35 151.51
  L 241.78 168.19
  Q 241.38 163.92 241.12 159.73
  C 240.69 152.75 238.98 145.89 238.53 138.76
  C 238.24 134.13 237.50 129.46 237.27 124.76
  Q 237.03 119.67 236.47 114.27
  C 235.99 109.60 236.06 104.89 235.62 100.26
  C 234.98 93.47 235.56 86.75 234.90 80.07
  Q 234.49 75.93 234.29 71.68
  Z" fill="#343434"></path>
<path d="M 15.80 86.83
  Q 18.10 88.08 17.77 91.24
  Q 17.08 97.97 17.08 106.31
  Q 17.08 112.92 16.47 119.15
  Q 15.83 125.56 15.51 132.00
  C 15.42 133.74 14.63 135.77 14.63 137.87
  Q 14.66 146.76 11.70 155.03
  Q 10.69 152.81 10.17 149.50
  Q 5.01 116.65 15.80 86.83
  Z" fill="#070707"></path>
<path d="M 241.34 87.47
  Q 252.57 118.80 246.35 151.51
  Q 244.97 150.81 244.88 149.25
  C 244.78 147.50 244.31 145.84 244.38 144.24
  C 244.62 138.15 243.00 132.30 242.79 126.71
  Q 242.61 121.83 242.22 116.96
  C 241.79 111.54 241.60 103.30 240.61 96.12
  Q 240.07 92.17 241.34 87.47
  Z" fill="#070707"></path>
<ellipse ry="12.40" rx="16.33" transform="translate(164.45,107.24) rotate(83.3)" cy="0.00" cx="0.00" fill="#ffffff"></ellipse>
<ellipse ry="12.31" rx="16.32" transform="translate(86.85,108.19) rotate(95.2)" cy="0.00" cx="0.00" fill="#ffffff"></ellipse>
<path d="M 38.07 148.80
  C 39.40 151.54 40.67 154.64 42.30 156.96
  Q 47.78 164.76 56.64 167.75
  C 62.63 169.76 69.94 168.97 76.50 168.49
  C 96.55 167.00 116.92 164.42 137.02 164.81
  Q 143.76 164.95 156.93 166.45
  Q 174.70 168.47 190.23 169.14
  Q 210.45 170.00 219.38 152.03
  Q 222.29 159.43 224.09 167.01
  C 224.57 169.01 226.27 170.43 226.48 172.35
  C 227.24 179.37 225.20 184.65 222.70 191.02
  C 222.40 191.77 221.92 191.98 221.49 192.69
  Q 219.45 196.05 217.29 199.32
  C 216.58 200.39 214.94 201.59 214.55 203.42
  Q 214.45 203.90 214.08 204.22
  C 209.33 208.29 206.01 213.10 200.63 216.38
  Q 199.30 217.20 198.44 218.02
  Q 198.12 218.34 197.69 218.50
  C 195.87 219.18 194.60 220.61 192.94 221.28
  Q 191.03 222.05 189.17 222.97
  C 188.21 223.44 186.83 223.47 185.78 224.27
  Q 185.39 224.56 184.91 224.59
  Q 182.98 224.73 181.06 224.71
  C 179.14 224.70 177.57 223.71 175.61 223.41
  Q 174.43 223.23 173.50 222.73
  Q 170.54 221.12 167.24 220.45
  Q 166.93 220.39 166.77 220.13
  Q 166.61 219.90 166.23 219.81
  Q 163.74 219.21 161.45 218.10
  Q 161.13 217.94 160.49 217.89
  Q 160.14 217.86 159.95 218.10
  Q 159.64 218.50 159.13 218.48
  Q 158.01 218.42 158.06 217.39
  Q 158.09 216.79 157.49 216.85
  Q 155.12 217.09 153.12 216.11
  Q 150.76 214.96 149.68 214.83
  Q 147.37 214.55 145.08 214.73
  Q 144.57 214.77 144.35 214.30
  C 143.45 212.41 141.77 212.98 140.16 212.89
  Q 129.64 212.29 124.26 212.27
  C 122.42 212.27 120.31 212.83 118.24 212.85
  Q 111.02 212.92 104.16 215.18
  C 103.53 215.39 102.92 215.96 102.03 215.89
  Q 101.53 215.86 101.05 216.04
  C 97.54 217.36 93.63 218.22 90.36 219.31
  Q 87.06 220.41 83.72 221.36
  C 81.40 222.01 77.57 224.01 74.99 223.89
  Q 68.74 223.59 64.74 221.22
  Q 60.95 218.97 58.88 218.24
  A 0.20 0.20 0.0 0 0 58.63 218.49
  Q 58.70 218.70 58.49 218.63
  Q 58.32 218.57 58.39 218.40
  Q 58.66 217.75 57.99 217.49
  Q 56.32 216.84 55.82 216.33
  Q 55.07 215.55 54.17 215.00
  C 52.30 213.85 50.99 211.71 49.28 210.23
  A 0.12 0.12 0.0 0 0 49.10 210.27
  Q 49.03 210.39 48.97 210.50
  Q 48.87 210.70 48.68 210.58
  Q 48.37 210.37 48.35 210.01
  Q 48.33 209.64 48.07 209.36
  C 45.85 206.96 42.74 204.56 41.61 201.47
  A 1.28 1.23 5.1 0 0 41.03 200.80
  Q 39.92 200.20 39.28 199.08
  Q 39.08 198.72 38.70 198.90
  Q 38.53 198.98 38.30 198.84
  Q 38.01 198.66 38.09 198.32
  Q 38.30 197.50 37.72 196.95
  Q 37.41 196.65 37.23 196.26
  C 36.24 194.14 34.86 192.17 34.02 190.18
  Q 32.59 186.74 31.23 183.26
  A 1.78 1.69 -54.8 0 1 31.11 182.44
  C 31.23 181.09 30.53 180.66 30.37 179.54
  Q 29.76 175.32 30.56 171.13
  Q 30.65 170.63 31.16 170.62
  L 31.44 170.61
  A 0.60 0.59 -88.9 0 0 32.01 170.06
  L 32.37 165.30
  Q 32.41 164.83 32.85 164.67
  Q 33.66 164.39 33.96 163.39
  Q 34.20 162.56 34.22 162.47
  Q 34.44 160.87 35.81 159.88
  A 1.15 1.11 -15.4 0 0 36.26 159.12
  L 36.76 155.28
  Q 36.83 154.74 37.36 154.60
  Q 37.89 154.45 38.22 154.04
  Q 38.41 153.81 38.51 153.52
  Q 38.84 152.49 38.47 151.50
  A 4.21 0.88 78.2 0 0 38.09 150.63
  Q 37.63 149.77 38.07 148.80
  Z" fill="#dfe1e3"></path>
</svg>
