<svg viewBox="0.00 0.00 192.00 192.00" version="1.1" xmlns="http://www.w3.org/2000/svg">
<g stroke-linecap="butt" fill="none" stroke-width="2.00">
<path d="M 179.02 95.76
  A 83.01 83.01 0.0 0 0 96.01 12.75
  A 83.01 83.01 0.0 0 0 13.00 95.76
  A 83.01 83.01 0.0 0 0 96.01 178.77
  A 83.01 83.01 0.0 0 0 179.02 95.76" stroke="#b9b0f9"></path>
<path d="M 95.49 146.75
  A 1.02 1.02 0.0 0 0 96.51 146.75
  L 139.92 121.68
  A 1.02 1.02 0.0 0 0 140.43 120.80
  L 140.44 70.76
  A 1.02 1.02 0.0 0 0 139.93 69.88
  L 96.52 44.81
  A 1.02 1.02 0.0 0 0 95.50 44.81
  L 52.05 69.90
  A 1.02 1.02 0.0 0 0 51.54 70.78
  L 51.54 120.77
  A 1.02 1.02 0.0 0 0 52.05 121.65
  L 95.49 146.75" stroke="#b9b0f9"></path>
<path d="M 131.30 76.10
  A 1.29 1.29 0.0 0 0 130.65 74.98
  L 96.62 55.35
  A 1.29 1.29 0.0 0 0 95.34 55.35
  L 61.30 75.00
  A 1.29 1.29 0.0 0 0 60.66 76.11
  L 60.61 115.38
  A 1.29 1.29 0.0 0 0 61.26 116.50
  L 95.39 136.20
  A 1.29 1.29 0.0 0 0 96.67 136.20
  L 130.65 116.58
  A 1.29 1.29 0.0 0 0 131.30 115.47
  L 131.30 76.10" stroke="#b9b0f9"></path>
<path d="M 64.18 114.95
  C 74.29 120.82 84.41 126.91 94.69 132.59
  C 96.23 133.44 96.81 132.87 98.12 132.11
  Q 112.94 123.51 127.81 114.96
  A 1.42 1.40 -15.2 0 0 128.52 113.74
  L 128.52 77.81
  A 1.45 1.44 15.4 0 0 127.81 76.57
  L 96.68 58.60
  A 1.35 1.33 44.6 0 0 95.35 58.60
  L 64.13 76.65
  A 1.28 1.28 0.0 0 0 63.49 77.76
  L 63.49 113.75
  A 1.41 1.39 15.6 0 0 64.18 114.95" stroke="#b9b0f9"></path>
<path d="M 72.48 108.51
  A 1.45 1.45 0.0 0 0 73.20 109.77
  L 95.29 122.53
  A 1.45 1.45 0.0 0 0 96.74 122.53
  L 118.78 109.83
  A 1.45 1.45 0.0 0 0 119.51 108.57
  L 119.50 82.99
  A 1.45 1.45 0.0 0 0 118.77 81.73
  L 96.68 69.02
  A 1.45 1.45 0.0 0 0 95.24 69.02
  L 73.20 81.75
  A 1.45 1.45 0.0 0 0 72.48 83.01
  L 72.48 108.51" stroke="#b9b0f9"></path>
<path d="M 75.25 106.82
  A 1.60 1.60 0.0 0 0 76.05 108.20
  L 95.18 119.25
  A 1.60 1.60 0.0 0 0 96.78 119.25
  L 115.92 108.20
  A 1.60 1.60 0.0 0 0 116.72 106.82
  L 116.74 84.70
  A 1.60 1.60 0.0 0 0 115.94 83.32
  L 96.83 72.29
  A 1.60 1.60 0.0 0 0 95.23 72.29
  L 76.06 83.37
  A 1.60 1.60 0.0 0 0 75.26 84.75
  L 75.25 106.82" stroke="#b9b0f9"></path>
<path d="M 108.00 89.46
  A 1.03 1.03 0.0 0 0 107.48 88.56
  L 96.52 82.22
  A 1.03 1.03 0.0 0 0 95.48 82.22
  L 84.51 88.58
  A 1.03 1.03 0.0 0 0 83.99 89.48
  L 84.03 102.11
  A 1.03 1.03 0.0 0 0 84.54 103.00
  L 95.48 109.31
  A 1.03 1.03 0.0 0 0 96.50 109.31
  L 107.46 103.03
  A 1.03 1.03 0.0 0 0 107.98 102.13
  L 108.00 89.46" stroke="#b9b0f9"></path>
</g>
<path d="M 181.97 95.78
  A 85.98 85.98 0.0 0 1 95.99 181.76
  A 85.98 85.98 0.0 0 1 10.01 95.78
  A 85.98 85.98 0.0 0 1 95.99 9.80
  A 85.98 85.98 0.0 0 1 181.97 95.78
  Z
  M 179.02 95.76
  A 83.01 83.01 0.0 0 0 96.01 12.75
  A 83.01 83.01 0.0 0 0 13.00 95.76
  A 83.01 83.01 0.0 0 0 96.01 178.77
  A 83.01 83.01 0.0 0 0 179.02 95.76
  Z" fill="#7360f2"></path>
<path d="M 179.02 95.76
  A 83.01 83.01 0.0 0 1 96.01 178.77
  A 83.01 83.01 0.0 0 1 13.00 95.76
  A 83.01 83.01 0.0 0 1 96.01 12.75
  A 83.01 83.01 0.0 0 1 179.02 95.76
  Z
  M 95.49 146.75
  A 1.02 1.02 0.0 0 0 96.51 146.75
  L 139.92 121.68
  A 1.02 1.02 0.0 0 0 140.43 120.80
  L 140.44 70.76
  A 1.02 1.02 0.0 0 0 139.93 69.88
  L 96.52 44.81
  A 1.02 1.02 0.0 0 0 95.50 44.81
  L 52.05 69.90
  A 1.02 1.02 0.0 0 0 51.54 70.78
  L 51.54 120.77
  A 1.02 1.02 0.0 0 0 52.05 121.65
  L 95.49 146.75
  Z" fill="#ffffff"></path>
<path d="M 95.49 146.75
  L 52.05 121.65
  A 1.02 1.02 0.0 0 1 51.54 120.77
  L 51.54 70.78
  A 1.02 1.02 0.0 0 1 52.05 69.90
  L 95.50 44.81
  A 1.02 1.02 0.0 0 1 96.52 44.81
  L 139.93 69.88
  A 1.02 1.02 0.0 0 1 140.44 70.76
  L 140.43 120.80
  A 1.02 1.02 0.0 0 1 139.92 121.68
  L 96.51 146.75
  A 1.02 1.02 0.0 0 1 95.49 146.75
  Z
  M 131.30 76.10
  A 1.29 1.29 0.0 0 0 130.65 74.98
  L 96.62 55.35
  A 1.29 1.29 0.0 0 0 95.34 55.35
  L 61.30 75.00
  A 1.29 1.29 0.0 0 0 60.66 76.11
  L 60.61 115.38
  A 1.29 1.29 0.0 0 0 61.26 116.50
  L 95.39 136.20
  A 1.29 1.29 0.0 0 0 96.67 136.20
  L 130.65 116.58
  A 1.29 1.29 0.0 0 0 131.30 115.47
  L 131.30 76.10
  Z" fill="#7360f2"></path>
<path d="M 131.30 76.10
  L 131.30 115.47
  A 1.29 1.29 0.0 0 1 130.65 116.58
  L 96.67 136.20
  A 1.29 1.29 0.0 0 1 95.39 136.20
  L 61.26 116.50
  A 1.29 1.29 0.0 0 1 60.61 115.38
  L 60.66 76.11
  A 1.29 1.29 0.0 0 1 61.30 75.00
  L 95.34 55.35
  A 1.29 1.29 0.0 0 1 96.62 55.35
  L 130.65 74.98
  A 1.29 1.29 0.0 0 1 131.30 76.10
  Z
  M 64.18 114.95
  C 74.29 120.82 84.41 126.91 94.69 132.59
  C 96.23 133.44 96.81 132.87 98.12 132.11
  Q 112.94 123.51 127.81 114.96
  A 1.42 1.40 -15.2 0 0 128.52 113.74
  L 128.52 77.81
  A 1.45 1.44 15.4 0 0 127.81 76.57
  L 96.68 58.60
  A 1.35 1.33 44.6 0 0 95.35 58.60
  L 64.13 76.65
  A 1.28 1.28 0.0 0 0 63.49 77.76
  L 63.49 113.75
  A 1.41 1.39 15.6 0 0 64.18 114.95
  Z" fill="#ffffff"></path>
<path d="M 94.69 132.59
  C 84.41 126.91 74.29 120.82 64.18 114.95
  A 1.41 1.39 15.6 0 1 63.49 113.75
  L 63.49 77.76
  A 1.28 1.28 0.0 0 1 64.13 76.65
  L 95.35 58.60
  A 1.35 1.33 44.6 0 1 96.68 58.60
  L 127.81 76.57
  A 1.45 1.44 15.4 0 1 128.52 77.81
  L 128.52 113.74
  A 1.42 1.40 -15.2 0 1 127.81 114.96
  Q 112.94 123.51 98.12 132.11
  C 96.81 132.87 96.23 133.44 94.69 132.59
  Z
  M 72.48 108.51
  A 1.45 1.45 0.0 0 0 73.20 109.77
  L 95.29 122.53
  A 1.45 1.45 0.0 0 0 96.74 122.53
  L 118.78 109.83
  A 1.45 1.45 0.0 0 0 119.51 108.57
  L 119.50 82.99
  A 1.45 1.45 0.0 0 0 118.77 81.73
  L 96.68 69.02
  A 1.45 1.45 0.0 0 0 95.24 69.02
  L 73.20 81.75
  A 1.45 1.45 0.0 0 0 72.48 83.01
  L 72.48 108.51
  Z" fill="#7360f2"></path>
<path d="M 72.48 108.51
  L 72.48 83.01
  A 1.45 1.45 0.0 0 1 73.20 81.75
  L 95.24 69.02
  A 1.45 1.45 0.0 0 1 96.68 69.02
  L 118.77 81.73
  A 1.45 1.45 0.0 0 1 119.50 82.99
  L 119.51 108.57
  A 1.45 1.45 0.0 0 1 118.78 109.83
  L 96.74 122.53
  A 1.45 1.45 0.0 0 1 95.29 122.53
  L 73.20 109.77
  A 1.45 1.45 0.0 0 1 72.48 108.51
  Z
  M 75.25 106.82
  A 1.60 1.60 0.0 0 0 76.05 108.20
  L 95.18 119.25
  A 1.60 1.60 0.0 0 0 96.78 119.25
  L 115.92 108.20
  A 1.60 1.60 0.0 0 0 116.72 106.82
  L 116.74 84.70
  A 1.60 1.60 0.0 0 0 115.94 83.32
  L 96.83 72.29
  A 1.60 1.60 0.0 0 0 95.23 72.29
  L 76.06 83.37
  A 1.60 1.60 0.0 0 0 75.26 84.75
  L 75.25 106.82
  Z" fill="#ffffff"></path>
<path d="M 75.25 106.82
  L 75.26 84.75
  A 1.60 1.60 0.0 0 1 76.06 83.37
  L 95.23 72.29
  A 1.60 1.60 0.0 0 1 96.83 72.29
  L 115.94 83.32
  A 1.60 1.60 0.0 0 1 116.74 84.70
  L 116.72 106.82
  A 1.60 1.60 0.0 0 1 115.92 108.20
  L 96.78 119.25
  A 1.60 1.60 0.0 0 1 95.18 119.25
  L 76.05 108.20
  A 1.60 1.60 0.0 0 1 75.25 106.82
  Z
  M 108.00 89.46
  A 1.03 1.03 0.0 0 0 107.48 88.56
  L 96.52 82.22
  A 1.03 1.03 0.0 0 0 95.48 82.22
  L 84.51 88.58
  A 1.03 1.03 0.0 0 0 83.99 89.48
  L 84.03 102.11
  A 1.03 1.03 0.0 0 0 84.54 103.00
  L 95.48 109.31
  A 1.03 1.03 0.0 0 0 96.50 109.31
  L 107.46 103.03
  A 1.03 1.03 0.0 0 0 107.98 102.13
  L 108.00 89.46
  Z" fill="#7360f2"></path>
<path d="M 108.00 89.46
  L 107.98 102.13
  A 1.03 1.03 0.0 0 1 107.46 103.03
  L 96.50 109.31
  A 1.03 1.03 0.0 0 1 95.48 109.31
  L 84.54 103.00
  A 1.03 1.03 0.0 0 1 84.03 102.11
  L 83.99 89.48
  A 1.03 1.03 0.0 0 1 84.51 88.58
  L 95.48 82.22
  A 1.03 1.03 0.0 0 1 96.52 82.22
  L 107.48 88.56
  A 1.03 1.03 0.0 0 1 108.00 89.46
  Z" fill="#ffffff"></path>
</svg>
