<svg viewBox="0.00 0.00 512.00 512.00" version="1.1" xmlns="http://www.w3.org/2000/svg">
<g stroke-linecap="butt" fill="none" stroke-width="2.00">
<path d="M 393.38 73.25
  A 0.31 0.31 0.0 0 0 393.16 72.72
  L 280.89 72.72
  A 0.31 0.31 0.0 0 0 280.67 72.81
  L 97.36 256.12
  A 0.31 0.31 0.0 0 0 97.36 256.56
  L 153.49 312.70
  A 0.31 0.31 0.0 0 0 153.93 312.70
  L 393.38 73.25" stroke="#aae2fc"></path>
<path d="M 238.58 284.57
  L 182.21 340.95
  Q 181.99 341.16 182.21 341.38
  L 238.55 397.73" stroke="#94dbfb"></path>
<path d="M 238.55 397.73
  L 239.66 398.78" stroke="#8096a8"></path>
<path d="M 239.66 398.78
  L 280.60 439.73
  Q 280.98 440.12 281.53 440.12
  L 393.41 440.11
  A 0.22 0.22 0.0 0 0 393.57 439.73
  L 295.50 341.66" stroke="#80abcd"></path>
<path d="M 295.50 341.66
  Q 295.13 341.02 295.83 340.32
  Q 344.77 291.42 393.50 242.73
  Q 394.07 242.16 393.26 242.16
  L 281.68 242.16
  A 1.71 1.69 -67.2 0 0 280.48 242.66
  L 238.58 284.57" stroke="#aae2fc"></path>
<path d="M 295.50 341.66
  Q 295.33 341.69 295.25 341.42" stroke="#2b8eca"></path>
<path d="M 295.25 341.42
  Q 294.36 341.25 294.01 340.38
  Q 293.82 339.91 293.46 339.55
  L 238.58 284.57" stroke="#3fbef7"></path>
<path d="M 239.66 398.78
  Q 240.45 397.07 241.86 396.59
  Q 252.45 392.97 263.09 389.21
  A 0.61 0.61 0.0 0 0 263.48 388.52
  Q 261.83 379.50 266.58 371.75
  Q 267.25 370.66 269.25 368.74
  Q 270.74 367.31 271.36 364.89" stroke="#014276"></path>
<path d="M 295.25 341.42
  Q 295.10 341.41 294.95 341.40
  A 0.45 0.45 0.0 0 0 294.61 341.53
  L 271.36 364.89" stroke="#1587c9"></path>
<path d="M 271.36 364.89
  L 238.55 397.73" stroke="#1572a3"></path>
</g>
<path d="M 0.00 0.00
  L 512.00 0.00
  L 512.00 512.00
  L 0.00 512.00
  L 0.00 0.00
  Z
  M 393.38 73.25
  A 0.31 0.31 0.0 0 0 393.16 72.72
  L 280.89 72.72
  A 0.31 0.31 0.0 0 0 280.67 72.81
  L 97.36 256.12
  A 0.31 0.31 0.0 0 0 97.36 256.56
  L 153.49 312.70
  A 0.31 0.31 0.0 0 0 153.93 312.70
  L 393.38 73.25
  Z
  M 238.58 284.57
  L 182.21 340.95
  Q 181.99 341.16 182.21 341.38
  L 238.55 397.73
  L 239.66 398.78
  L 280.60 439.73
  Q 280.98 440.12 281.53 440.12
  L 393.41 440.11
  A 0.22 0.22 0.0 0 0 393.57 439.73
  L 295.50 341.66
  Q 295.13 341.02 295.83 340.32
  Q 344.77 291.42 393.50 242.73
  Q 394.07 242.16 393.26 242.16
  L 281.68 242.16
  A 1.71 1.69 -67.2 0 0 280.48 242.66
  L 238.58 284.57
  Z" fill="#ffffff"></path>
<path d="M 393.38 73.25
  L 153.93 312.70
  A 0.31 0.31 0.0 0 1 153.49 312.70
  L 97.36 256.56
  A 0.31 0.31 0.0 0 1 97.36 256.12
  L 280.67 72.81
  A 0.31 0.31 0.0 0 1 280.89 72.72
  L 393.16 72.72
  A 0.31 0.31 0.0 0 1 393.38 73.25
  Z" fill="#54c5f8"></path>
<path d="M 295.50 341.66
  Q 295.33 341.69 295.25 341.42
  Q 294.36 341.25 294.01 340.38
  Q 293.82 339.91 293.46 339.55
  L 238.58 284.57
  L 280.48 242.66
  A 1.71 1.69 -67.2 0 1 281.68 242.16
  L 393.26 242.16
  Q 394.07 242.16 393.50 242.73
  Q 344.77 291.42 295.83 340.32
  Q 295.13 341.02 295.50 341.66
  Z" fill="#54c5f8"></path>
<path d="M 238.58 284.57
  L 293.46 339.55
  Q 293.82 339.91 294.01 340.38
  Q 294.36 341.25 295.25 341.42
  Q 295.10 341.41 294.95 341.40
  A 0.45 0.45 0.0 0 0 294.61 341.53
  L 271.36 364.89
  L 238.55 397.73
  L 182.21 341.38
  Q 181.99 341.16 182.21 340.95
  L 238.58 284.57
  Z" fill="#29b6f6"></path>
<path d="M 295.25 341.42
  Q 295.33 341.69 295.50 341.66
  L 393.57 439.73
  A 0.22 0.22 0.0 0 1 393.41 440.11
  L 281.53 440.12
  Q 280.98 440.12 280.60 439.73
  L 239.66 398.78
  Q 240.45 397.07 241.86 396.59
  Q 252.45 392.97 263.09 389.21
  A 0.61 0.61 0.0 0 0 263.48 388.52
  Q 261.83 379.50 266.58 371.75
  Q 267.25 370.66 269.25 368.74
  Q 270.74 367.31 271.36 364.89
  L 294.61 341.53
  A 0.45 0.45 0.0 0 1 294.95 341.40
  Q 295.10 341.41 295.25 341.42
  Z" fill="#01579b"></path>
<path d="M 271.36 364.89
  Q 270.74 367.31 269.25 368.74
  Q 267.25 370.66 266.58 371.75
  Q 261.83 379.50 263.48 388.52
  A 0.61 0.61 0.0 0 1 263.09 389.21
  Q 252.45 392.97 241.86 396.59
  Q 240.45 397.07 239.66 398.78
  L 238.55 397.73
  L 271.36 364.89
  Z" fill="#002d50"></path>
</svg>
