<svg viewBox="0.00 0.00 256.00 256.00" version="1.1" xmlns="http://www.w3.org/2000/svg">
<path d="M 179.96 167.19
  C 188.91 157.00 195.14 143.97 200.09 130.79
  C 204.23 119.79 187.37 113.99 183.64 125.23
  C 181.37 132.07 166.49 168.69 155.09 159.40
  C 147.96 153.59 143.16 142.34 140.23 133.84
  C 136.15 121.98 132.28 110.24 126.36 99.14
  C 119.06 85.43 105.87 71.91 88.66 79.39
  C 73.19 86.11 61.99 108.20 56.71 123.22
  Q 54.41 129.74 58.12 133.39
  C 62.67 137.86 70.09 136.34 72.41 130.16
  Q 77.81 115.75 84.44 105.72
  C 87.09 101.70 93.29 93.86 98.50 94.24
  C 109.97 95.08 119.70 126.76 123.12 136.97
  C 127.44 149.85 134.99 166.51 146.50 173.97
  C 157.93 181.38 171.39 176.94 179.96 167.19" stroke-linecap="butt" fill="none" stroke-width="2.00" stroke="#848586"></path>
<path d="M 26.79 0.00
  L 229.10 0.00
  Q 252.24 3.66 256.00 26.81
  L 256.00 229.08
  Q 252.25 252.18 229.19 256.00
  L 26.91 256.00
  Q 3.88 252.28 0.00 229.21
  L 0.00 26.94
  Q 3.74 3.82 26.79 0.00
  Z
  M 179.96 167.19
  C 188.91 157.00 195.14 143.97 200.09 130.79
  C 204.23 119.79 187.37 113.99 183.64 125.23
  C 181.37 132.07 166.49 168.69 155.09 159.40
  C 147.96 153.59 143.16 142.34 140.23 133.84
  C 136.15 121.98 132.28 110.24 126.36 99.14
  C 119.06 85.43 105.87 71.91 88.66 79.39
  C 73.19 86.11 61.99 108.20 56.71 123.22
  Q 54.41 129.74 58.12 133.39
  C 62.67 137.86 70.09 136.34 72.41 130.16
  Q 77.81 115.75 84.44 105.72
  C 87.09 101.70 93.29 93.86 98.50 94.24
  C 109.97 95.08 119.70 126.76 123.12 136.97
  C 127.44 149.85 134.99 166.51 146.50 173.97
  C 157.93 181.38 171.39 176.94 179.96 167.19
  Z" fill="#090a0c"></path>
<path d="M 200.09 130.79
  C 195.14 143.97 188.91 157.00 179.96 167.19
  C 171.39 176.94 157.93 181.38 146.50 173.97
  C 134.99 166.51 127.44 149.85 123.12 136.97
  C 119.70 126.76 109.97 95.08 98.50 94.24
  C 93.29 93.86 87.09 101.70 84.44 105.72
  Q 77.81 115.75 72.41 130.16
  C 70.09 136.34 62.67 137.86 58.12 133.39
  Q 54.41 129.74 56.71 123.22
  C 61.99 108.20 73.19 86.11 88.66 79.39
  C 105.87 71.91 119.06 85.43 126.36 99.14
  C 132.28 110.24 136.15 121.98 140.23 133.84
  C 143.16 142.34 147.96 153.59 155.09 159.40
  C 166.49 168.69 181.37 132.07 183.64 125.23
  C 187.37 113.99 204.23 119.79 200.09 130.79
  Z" fill="#ffffff"></path>
</svg>
