<svg viewBox="0.00 0.00 192.00 192.00" version="1.1" xmlns="http://www.w3.org/2000/svg">
<g stroke-linecap="butt" fill="none" stroke-width="2.00">
<path d="M 71.84 20.40
  C 69.64 21.31 69.94 22.40 68.57 23.90
  Q 68.25 24.25 68.16 24.71
  Q 67.89 26.16 66.49 26.92
  Q 65.90 27.25 65.86 27.83
  Q 65.84 28.37 65.50 28.78
  L 64.13 30.45
  Q 63.78 30.87 63.90 31.40
  Q 64.12 32.45 63.42 33.12
  Q 63.05 33.47 62.97 33.97
  Q 62.73 35.25 61.50 35.91
  Q 60.89 36.24 60.87 36.83
  Q 60.84 37.38 60.49 37.80
  L 59.05 39.52
  A 0.79 0.77 59.7 0 0 58.88 40.19
  Q 58.99 40.76 58.55 40.88
  Q 57.89 41.06 57.89 41.74
  L 57.89 42.25
  Q 57.89 42.56 57.62 42.72
  Q 56.68 43.27 56.89 44.22
  Q 57.00 44.71 56.53 44.88
  Q 55.85 45.13 55.86 45.81
  Q 55.87 46.32 55.57 46.74
  Q 54.98 47.55 54.20 48.11
  Q 53.77 48.41 53.88 48.93
  Q 54.03 49.65 53.49 50.04
  Q 53.14 50.30 53.14 50.75
  L 53.14 51.46
  Q 53.14 52.03 52.57 52.06
  Q 51.47 52.13 50.51 53.06" stroke="#7ae868"></path>
<path d="M 141.17 16.17
  Q 137.13 22.67 133.52 29.10
  C 132.97 30.08 132.91 31.29 131.59 32.00
  Q 131.21 32.21 130.98 32.58
  L 129.39 35.17
  Q 129.20 35.49 129.16 35.86
  Q 129.09 36.57 128.51 36.98
  A 0.92 0.91 -16.8 0 0 128.13 37.68
  C 128.02 39.92 126.52 41.21 125.80 42.72
  C 125.09 44.19 124.42 45.37 123.61 47.12
  Q 122.23 50.11 120.12 50.13" stroke="#43d1b3"></path>
<path d="M 96.01 40.86
  L 97.39 40.66
  Q 97.57 40.64 97.60 40.46
  Q 97.67 40.11 97.52 39.95
  Q 97.07 39.51 97.41 38.98
  Q 98.42 37.42 99.47 35.89
  Q 100.03 35.68 99.90 35.13
  A 0.76 0.76 0.0 0 1 100.11 34.41
  Q 102.05 32.53 103.13 30.10
  Q 103.92 28.32 104.71 26.50
  Q 104.78 26.35 104.75 26.20
  Q 104.69 25.86 104.50 25.85
  Q 103.91 25.81 104.65 25.27
  Q 104.92 25.06 104.97 24.89" stroke="#5cdc91"></path>
<path d="M 63.71 143.98
  Q 61.72 145.70 61.40 146.37
  C 60.26 148.72 59.05 151.40 57.49 153.36
  Q 57.22 153.71 57.16 154.14
  Q 57.08 154.85 56.50 155.25
  A 0.84 0.84 0.0 0 0 56.13 156.00
  Q 56.17 156.82 55.50 157.24
  A 0.83 0.82 -18.9 0 0 55.12 158.00
  Q 55.19 158.76 54.64 159.16
  Q 53.04 160.33 52.89 162.03
  Q 52.85 162.52 52.54 162.90
  C 51.00 164.84 50.33 167.00 48.81 168.93
  Q 48.53 169.30 48.42 169.75
  Q 48.19 170.70 47.43 171.30
  Q 47.07 171.59 47.13 172.05
  Q 47.21 172.71 46.69 173.06
  Q 46.35 173.28 46.22 173.66
  Q 45.80 174.84 44.94 175.76
  Q 44.58 176.16 44.47 176.68
  L 43.99 179.01" stroke="#43d1b3"></path>
<path d="M 68.44 177.83
  Q 68.26 177.83 68.15 177.79
  A 0.73 0.63 -59.7 0 1 67.95 176.74
  Q 69.30 174.89 70.17 172.72
  Q 70.36 172.25 70.75 171.94
  Q 71.70 171.17 71.95 170.03
  Q 72.04 169.61 72.38 169.35
  Q 72.96 168.91 72.83 168.14
  A 0.85 0.84 -22.9 0 1 73.17 167.31
  Q 74.19 166.58 74.20 165.26
  A 0.65 0.65 0.0 0 1 74.83 164.61
  Q 75.44 164.59 75.35 163.92
  Q 75.28 163.44 75.62 163.10
  L 76.87 161.85
  A 0.91 0.89 61.1 0 0 77.11 160.98
  Q 76.95 160.36 77.47 160.02
  Q 77.89 159.74 78.06 159.26
  Q 78.93 156.69 81.08 155.01
  Q 81.48 154.70 81.50 154.70
  Q 81.63 154.74 81.76 154.79
  Q 82.17 154.95 82.45 154.61
  Q 82.70 154.32 82.53 154.03" stroke="#35c9c5"></path>
<path d="M 137.92 143.19
  Q 133.19 152.74 128.70 159.97
  Q 128.60 160.12 128.42 160.15
  Q 128.12 160.20 128.12 160.50
  L 128.12 160.91
  Q 128.12 161.37 127.89 161.78
  L 119.22 176.54
  A 0.10 0.10 0.0 0 1 119.06 176.56
  Q 118.97 176.46 118.86 176.37
  Q 118.71 176.25 118.56 176.38
  Q 117.95 176.89 116.49 176.27" stroke="#26a9cc"></path>
<path d="M 108.99 172.44
  Q 112.21 170.65 114.63 165.11
  A 0.86 0.85 7.5 0 1 115.29 164.61
  Q 116.00 164.50 116.11 164.01
  Q 116.81 161.14 118.31 159.28
  Q 118.35 159.24 118.35 159.19
  Q 118.35 159.06 118.36 158.93
  Q 118.37 158.60 118.60 158.37
  Q 119.82 157.11 120.46 155.51
  A 1.12 1.05 88.3 0 1 120.94 154.97
  Q 121.59 154.62 121.61 153.96
  Q 121.62 153.55 121.90 153.27
  Q 122.51 152.67 122.98 151.97
  Q 125.30 148.45 127.45 144.73
  Q 127.76 144.20 127.17 143.99
  Q 126.08 143.61 123.94 144.04" stroke="#29bad0"></path>
<path d="M 32.08 81.98
  C 32.39 83.40 30.97 84.16 30.35 85.33
  Q 30.12 85.77 30.12 86.26
  Q 30.12 86.82 29.58 87.10
  Q 29.10 87.34 29.11 87.88
  Q 29.11 88.03 29.11 88.17
  Q 29.12 88.45 28.93 88.65
  L 27.54 90.17
  Q 27.19 90.55 27.16 91.06
  Q 27.11 91.78 26.56 92.19
  Q 26.19 92.48 26.15 92.94
  C 26.07 94.12 25.36 94.05 25.04 94.91
  Q 24.77 95.62 25.08 96.17
  Q 25.24 96.47 25.00 96.71
  L 22.39 99.28
  Q 22.07 99.59 22.12 100.04
  Q 22.18 100.68 21.71 101.06
  Q 21.30 101.39 21.20 101.90
  C 20.83 103.81 19.07 103.70 19.10 106.18
  Q 19.11 106.66 18.73 106.94
  Q 18.01 107.49 17.50 108.27
  Q 17.25 108.64 17.18 109.09
  Q 17.04 109.95 16.30 110.40
  Q 16.11 110.51 16.11 110.74
  L 16.11 111.24
  A 0.62 0.58 -26.9 0 1 15.97 111.62
  L 12.03 116.54" stroke="#7ae868"></path>
<path d="M 110.72 84.02
  Q 108.32 84.32 107.84 86.09
  Q 107.73 86.51 107.47 86.86
  Q 106.86 87.68 106.57 88.63
  Q 106.45 89.00 106.15 89.22
  Q 105.10 89.98 104.92 91.26
  Q 104.85 91.73 104.47 92.01
  Q 103.87 92.46 103.87 93.22
  Q 103.87 93.80 103.39 94.12
  Q 102.79 94.52 102.88 95.25
  Q 102.94 95.72 102.50 95.89
  Q 101.77 96.17 101.89 96.96
  Q 101.96 97.44 101.58 97.75
  Q 100.21 98.87 99.76 100.52
  Q 99.63 101.01 99.21 101.30
  Q 98.76 101.62 98.63 102.15
  Q 98.52 102.64 98.22 103.04
  L 97.37 104.21
  A 1.15 1.05 -26.5 0 0 97.17 104.73
  C 97.00 105.94 95.84 106.15 95.86 107.24
  Q 95.87 107.76 95.44 108.06
  Q 94.84 108.48 94.88 109.20
  Q 94.90 109.63 94.53 109.86
  Q 93.62 110.41 93.63 111.48
  Q 93.64 111.87 93.37 112.14
  L 92.51 113.00
  A 1.25 1.24 -20.0 0 0 92.15 113.77
  Q 92.09 114.52 91.51 115.00
  Q 91.11 115.34 91.16 115.86
  Q 91.29 117.35 90.54 117.45" stroke="#3fd0b8"></path>
<path d="M 176.79 78.72
  L 177.75 79.51
  Q 178.17 79.85 177.90 80.32
  L 160.20 111.43
  A 0.61 0.60 -30.5 0 0 160.12 111.73
  L 160.11 112.27
  A 0.17 0.17 0.0 0 1 159.86 112.42
  Q 159.26 112.08 158.22 112.56" stroke="#26a9cc"></path>
<path d="M 148.99 107.80
  L 150.47 107.33
  Q 150.90 107.19 151.14 106.80
  Q 153.72 102.41 156.40 98.08
  C 157.03 97.06 157.43 95.64 158.68 94.61
  Q 158.80 94.51 158.84 94.40
  Q 158.89 94.25 158.90 94.10
  Q 158.96 93.61 159.22 93.19
  L 167.50 79.71
  Q 167.80 79.21 167.23 79.13
  L 165.97 78.97" stroke="#29bad0"></path>
<path d="M 184.80 82.80
  L 172.34 105.34
  Q 172.07 105.84 172.13 106.40
  Q 172.20 106.95 171.83 107.09
  Q 171.51 107.22 171.33 107.52
  L 169.54 110.60
  Q 169.39 110.87 169.39 111.18
  Q 169.39 111.51 169.15 111.73
  Q 168.48 112.35 168.44 112.40
  Q 167.66 113.57 166.97 114.84
  Q 166.78 115.19 166.76 115.57
  Q 166.71 116.41 165.46 117.09" stroke="#239ac9"></path>
<path d="M 117.44 108.45
  Q 117.67 107.95 117.62 107.57
  Q 117.54 107.05 117.26 107.49
  Q 117.09 107.74 116.81 107.71
  Q 116.16 107.62 116.60 107.13
  Q 118.25 105.31 118.79 102.87
  A 0.98 0.98 0.0 0 1 119.26 102.22
  Q 119.95 101.83 119.89 101.09
  Q 119.84 100.51 120.31 100.18
  Q 121.09 99.62 121.14 98.68
  A 1.09 1.08 -14.7 0 1 121.65 97.82
  C 122.80 97.08 122.81 96.13 123.31 95.34
  Q 124.62 93.27 125.67 91.00
  Q 126.09 90.06 127.73 90.46" stroke="#31c7cb"></path>
</g>
<path d="M 71.84 20.40
  C 69.64 21.31 69.94 22.40 68.57 23.90
  Q 68.25 24.25 68.16 24.71
  Q 67.89 26.16 66.49 26.92
  Q 65.90 27.25 65.86 27.83
  Q 65.84 28.37 65.50 28.78
  L 64.13 30.45
  Q 63.78 30.87 63.90 31.40
  Q 64.12 32.45 63.42 33.12
  Q 63.05 33.47 62.97 33.97
  Q 62.73 35.25 61.50 35.91
  Q 60.89 36.24 60.87 36.83
  Q 60.84 37.38 60.49 37.80
  L 59.05 39.52
  A 0.79 0.77 59.7 0 0 58.88 40.19
  Q 58.99 40.76 58.55 40.88
  Q 57.89 41.06 57.89 41.74
  L 57.89 42.25
  Q 57.89 42.56 57.62 42.72
  Q 56.68 43.27 56.89 44.22
  Q 57.00 44.71 56.53 44.88
  Q 55.85 45.13 55.86 45.81
  Q 55.87 46.32 55.57 46.74
  Q 54.98 47.55 54.20 48.11
  Q 53.77 48.41 53.88 48.93
  Q 54.03 49.65 53.49 50.04
  Q 53.14 50.30 53.14 50.75
  L 53.14 51.46
  Q 53.14 52.03 52.57 52.06
  Q 51.47 52.13 50.51 53.06
  C 32.17 47.96 30.38 23.61 47.17 15.53
  C 53.85 12.32 61.44 13.22 67.74 17.68
  Q 69.76 19.11 71.84 20.40
  Z" fill="#83ec5b"></path>
<path d="M 141.17 16.17
  Q 137.13 22.67 133.52 29.10
  C 132.97 30.08 132.91 31.29 131.59 32.00
  Q 131.21 32.21 130.98 32.58
  L 129.39 35.17
  Q 129.20 35.49 129.16 35.86
  Q 129.09 36.57 128.51 36.98
  A 0.92 0.91 -16.8 0 0 128.13 37.68
  C 128.02 39.92 126.52 41.21 125.80 42.72
  C 125.09 44.19 124.42 45.37 123.61 47.12
  Q 122.23 50.11 120.12 50.13
  Q 109.53 41.62 96.01 40.86
  L 97.39 40.66
  Q 97.57 40.64 97.60 40.46
  Q 97.67 40.11 97.52 39.95
  Q 97.07 39.51 97.41 38.98
  Q 98.42 37.42 99.47 35.89
  Q 100.03 35.68 99.90 35.13
  A 0.76 0.76 0.0 0 1 100.11 34.41
  Q 102.05 32.53 103.13 30.10
  Q 103.92 28.32 104.71 26.50
  Q 104.78 26.35 104.75 26.20
  Q 104.69 25.86 104.50 25.85
  Q 103.91 25.81 104.65 25.27
  Q 104.92 25.06 104.97 24.89
  Q 111.79 22.94 120.24 16.97
  Q 129.82 10.21 141.17 16.17
  Z" fill="#47d3ad"></path>
<path d="M 141.17 16.17
  C 155.58 24.92 154.47 45.10 139.25 52.05
  Q 129.30 56.58 120.12 50.13
  Q 122.23 50.11 123.61 47.12
  C 124.42 45.37 125.09 44.19 125.80 42.72
  C 126.52 41.21 128.02 39.92 128.13 37.68
  A 0.92 0.91 -16.8 0 1 128.51 36.98
  Q 129.09 36.57 129.16 35.86
  Q 129.20 35.49 129.39 35.17
  L 130.98 32.58
  Q 131.21 32.21 131.59 32.00
  C 132.91 31.29 132.97 30.08 133.52 29.10
  Q 137.13 22.67 141.17 16.17
  Z" fill="#3ecfb8"></path>
<path d="M 71.84 20.40
  Q 87.47 29.34 104.97 24.89
  Q 104.92 25.06 104.65 25.27
  Q 103.91 25.81 104.50 25.85
  Q 104.69 25.86 104.75 26.20
  Q 104.78 26.35 104.71 26.50
  Q 103.92 28.32 103.13 30.10
  Q 102.05 32.53 100.11 34.41
  A 0.76 0.76 0.0 0 0 99.90 35.13
  Q 100.03 35.68 99.47 35.89
  Q 98.42 37.42 97.41 38.98
  Q 97.07 39.51 97.52 39.95
  Q 97.67 40.11 97.60 40.46
  Q 97.57 40.64 97.39 40.66
  L 96.01 40.86
  Q 83.47 40.17 72.54 46.30
  C 69.63 47.92 66.09 51.22 62.60 52.52
  Q 56.79 54.69 50.51 53.06
  Q 51.47 52.13 52.57 52.06
  Q 53.14 52.03 53.14 51.46
  L 53.14 50.75
  Q 53.14 50.30 53.49 50.04
  Q 54.03 49.65 53.88 48.93
  Q 53.77 48.41 54.20 48.11
  Q 54.98 47.55 55.57 46.74
  Q 55.87 46.32 55.86 45.81
  Q 55.85 45.13 56.53 44.88
  Q 57.00 44.71 56.89 44.22
  Q 56.68 43.27 57.62 42.72
  Q 57.89 42.56 57.89 42.25
  L 57.89 41.74
  Q 57.89 41.06 58.55 40.88
  Q 58.99 40.76 58.88 40.19
  A 0.79 0.77 59.7 0 1 59.05 39.52
  L 60.49 37.80
  Q 60.84 37.38 60.87 36.83
  Q 60.89 36.24 61.50 35.91
  Q 62.73 35.25 62.97 33.97
  Q 63.05 33.47 63.42 33.12
  Q 64.12 32.45 63.90 31.40
  Q 63.78 30.87 64.13 30.45
  L 65.50 28.78
  Q 65.84 28.37 65.86 27.83
  Q 65.90 27.25 66.49 26.92
  Q 67.89 26.16 68.16 24.71
  Q 68.25 24.25 68.57 23.90
  C 69.94 22.40 69.64 21.31 71.84 20.40
  Z" fill="#70e475"></path>
<path d="M 32.08 81.98
  C 32.39 83.40 30.97 84.16 30.35 85.33
  Q 30.12 85.77 30.12 86.26
  Q 30.12 86.82 29.58 87.10
  Q 29.10 87.34 29.11 87.88
  Q 29.11 88.03 29.11 88.17
  Q 29.12 88.45 28.93 88.65
  L 27.54 90.17
  Q 27.19 90.55 27.16 91.06
  Q 27.11 91.78 26.56 92.19
  Q 26.19 92.48 26.15 92.94
  C 26.07 94.12 25.36 94.05 25.04 94.91
  Q 24.77 95.62 25.08 96.17
  Q 25.24 96.47 25.00 96.71
  L 22.39 99.28
  Q 22.07 99.59 22.12 100.04
  Q 22.18 100.68 21.71 101.06
  Q 21.30 101.39 21.20 101.90
  C 20.83 103.81 19.07 103.70 19.10 106.18
  Q 19.11 106.66 18.73 106.94
  Q 18.01 107.49 17.50 108.27
  Q 17.25 108.64 17.18 109.09
  Q 17.04 109.95 16.30 110.40
  Q 16.11 110.51 16.11 110.74
  L 16.11 111.24
  A 0.62 0.58 -26.9 0 1 15.97 111.62
  L 12.03 116.54
  Q 1.93 111.59 0.00 100.36
  L 0.00 95.78
  C 2.97 80.60 19.07 72.49 32.08 81.98
  Z" fill="#83ec5b"></path>
<path d="M 110.72 84.02
  Q 108.32 84.32 107.84 86.09
  Q 107.73 86.51 107.47 86.86
  Q 106.86 87.68 106.57 88.63
  Q 106.45 89.00 106.15 89.22
  Q 105.10 89.98 104.92 91.26
  Q 104.85 91.73 104.47 92.01
  Q 103.87 92.46 103.87 93.22
  Q 103.87 93.80 103.39 94.12
  Q 102.79 94.52 102.88 95.25
  Q 102.94 95.72 102.50 95.89
  Q 101.77 96.17 101.89 96.96
  Q 101.96 97.44 101.58 97.75
  Q 100.21 98.87 99.76 100.52
  Q 99.63 101.01 99.21 101.30
  Q 98.76 101.62 98.63 102.15
  Q 98.52 102.64 98.22 103.04
  L 97.37 104.21
  A 1.15 1.05 -26.5 0 0 97.17 104.73
  C 97.00 105.94 95.84 106.15 95.86 107.24
  Q 95.87 107.76 95.44 108.06
  Q 94.84 108.48 94.88 109.20
  Q 94.90 109.63 94.53 109.86
  Q 93.62 110.41 93.63 111.48
  Q 93.64 111.87 93.37 112.14
  L 92.51 113.00
  A 1.25 1.24 -20.0 0 0 92.15 113.77
  Q 92.09 114.52 91.51 115.00
  Q 91.11 115.34 91.16 115.86
  Q 91.29 117.35 90.54 117.45
  C 68.91 110.35 72.54 79.16 95.37 78.09
  Q 103.66 77.71 110.72 84.02
  Z" fill="#47d3ad"></path>
<path d="M 176.79 78.72
  L 177.75 79.51
  Q 178.17 79.85 177.90 80.32
  L 160.20 111.43
  A 0.61 0.60 -30.5 0 0 160.12 111.73
  L 160.11 112.27
  A 0.17 0.17 0.0 0 1 159.86 112.42
  Q 159.26 112.08 158.22 112.56
  L 148.99 107.80
  L 150.47 107.33
  Q 150.90 107.19 151.14 106.80
  Q 153.72 102.41 156.40 98.08
  C 157.03 97.06 157.43 95.64 158.68 94.61
  Q 158.80 94.51 158.84 94.40
  Q 158.89 94.25 158.90 94.10
  Q 158.96 93.61 159.22 93.19
  L 167.50 79.71
  Q 167.80 79.21 167.23 79.13
  L 165.97 78.97
  Q 171.46 77.24 176.79 78.72
  Z" fill="#27b1ce"></path>
<path d="M 176.79 78.72
  Q 181.11 79.75 184.80 82.80
  L 172.34 105.34
  Q 172.07 105.84 172.13 106.40
  Q 172.20 106.95 171.83 107.09
  Q 171.51 107.22 171.33 107.52
  L 169.54 110.60
  Q 169.39 110.87 169.39 111.18
  Q 169.39 111.51 169.15 111.73
  Q 168.48 112.35 168.44 112.40
  Q 167.66 113.57 166.97 114.84
  Q 166.78 115.19 166.76 115.57
  Q 166.71 116.41 165.46 117.09
  Q 161.49 115.72 158.22 112.56
  Q 159.26 112.08 159.86 112.42
  A 0.17 0.17 0.0 0 0 160.11 112.27
  L 160.12 111.73
  A 0.61 0.60 -30.5 0 1 160.20 111.43
  L 177.90 80.32
  Q 178.17 79.85 177.75 79.51
  L 176.79 78.72
  Z" fill="#24a0ca"></path>
<path d="M 165.97 78.97
  L 167.23 79.13
  Q 167.80 79.21 167.50 79.71
  L 159.22 93.19
  Q 158.96 93.61 158.90 94.10
  Q 158.89 94.25 158.84 94.40
  Q 158.80 94.51 158.68 94.61
  C 157.43 95.64 157.03 97.06 156.40 98.08
  Q 153.72 102.41 151.14 106.80
  Q 150.90 107.19 150.47 107.33
  L 148.99 107.80
  Q 133.17 102.08 117.44 108.45
  Q 117.67 107.95 117.62 107.57
  Q 117.54 107.05 117.26 107.49
  Q 117.09 107.74 116.81 107.71
  Q 116.16 107.62 116.60 107.13
  Q 118.25 105.31 118.79 102.87
  A 0.98 0.98 0.0 0 1 119.26 102.22
  Q 119.95 101.83 119.89 101.09
  Q 119.84 100.51 120.31 100.18
  Q 121.09 99.62 121.14 98.68
  A 1.09 1.08 -14.7 0 1 121.65 97.82
  C 122.80 97.08 122.81 96.13 123.31 95.34
  Q 124.62 93.27 125.67 91.00
  Q 126.09 90.06 127.73 90.46
  Q 146.76 92.76 161.62 80.87
  Q 163.16 79.65 165.97 78.97
  Z" fill="#2bc2d2"></path>
<path d="M 32.08 81.98
  C 42.68 89.93 42.98 105.28 32.72 113.68
  Q 24.05 120.77 12.03 116.54
  L 15.97 111.62
  A 0.62 0.58 -26.9 0 0 16.11 111.24
  L 16.11 110.74
  Q 16.11 110.51 16.30 110.40
  Q 17.04 109.95 17.18 109.09
  Q 17.25 108.64 17.50 108.27
  Q 18.01 107.49 18.73 106.94
  Q 19.11 106.66 19.10 106.18
  C 19.07 103.70 20.83 103.81 21.20 101.90
  Q 21.30 101.39 21.71 101.06
  Q 22.18 100.68 22.12 100.04
  Q 22.07 99.59 22.39 99.28
  L 25.00 96.71
  Q 25.24 96.47 25.08 96.17
  Q 24.77 95.62 25.04 94.91
  C 25.36 94.05 26.07 94.12 26.15 92.94
  Q 26.19 92.48 26.56 92.19
  Q 27.11 91.78 27.16 91.06
  Q 27.19 90.55 27.54 90.17
  L 28.93 88.65
  Q 29.12 88.45 29.11 88.17
  Q 29.11 88.03 29.11 87.88
  Q 29.10 87.34 29.58 87.10
  Q 30.12 86.82 30.12 86.26
  Q 30.12 85.77 30.35 85.33
  C 30.97 84.16 32.39 83.40 32.08 81.98
  Z" fill="#70e475"></path>
<path d="M 184.80 82.80
  Q 190.72 87.84 192.00 96.14
  L 192.00 100.47
  C 189.64 113.06 178.02 121.23 165.46 117.09
  Q 166.71 116.41 166.76 115.57
  Q 166.78 115.19 166.97 114.84
  Q 167.66 113.57 168.44 112.40
  Q 168.48 112.35 169.15 111.73
  Q 169.39 111.51 169.39 111.18
  Q 169.39 110.87 169.54 110.60
  L 171.33 107.52
  Q 171.51 107.22 171.83 107.09
  Q 172.20 106.95 172.13 106.40
  Q 172.07 105.84 172.34 105.34
  L 184.80 82.80
  Z" fill="#2293c7"></path>
<path d="M 110.72 84.02
  Q 118.61 88.87 127.73 90.46
  Q 126.09 90.06 125.67 91.00
  Q 124.62 93.27 123.31 95.34
  C 122.81 96.13 122.80 97.08 121.65 97.82
  A 1.09 1.08 -14.7 0 0 121.14 98.68
  Q 121.09 99.62 120.31 100.18
  Q 119.84 100.51 119.89 101.09
  Q 119.95 101.83 119.26 102.22
  A 0.98 0.98 0.0 0 0 118.79 102.87
  Q 118.25 105.31 116.60 107.13
  Q 116.16 107.62 116.81 107.71
  Q 117.09 107.74 117.26 107.49
  Q 117.54 107.05 117.62 107.57
  Q 117.67 107.95 117.44 108.45
  Q 113.09 110.47 109.08 113.23
  Q 104.18 116.60 101.93 117.30
  Q 96.43 119.01 90.54 117.45
  Q 91.29 117.35 91.16 115.86
  Q 91.11 115.34 91.51 115.00
  Q 92.09 114.52 92.15 113.77
  A 1.25 1.24 -20.0 0 1 92.51 113.00
  L 93.37 112.14
  Q 93.64 111.87 93.63 111.48
  Q 93.62 110.41 94.53 109.86
  Q 94.90 109.63 94.88 109.20
  Q 94.84 108.48 95.44 108.06
  Q 95.87 107.76 95.86 107.24
  C 95.84 106.15 97.00 105.94 97.17 104.73
  A 1.15 1.05 -26.5 0 1 97.37 104.21
  L 98.22 103.04
  Q 98.52 102.64 98.63 102.15
  Q 98.76 101.62 99.21 101.30
  Q 99.63 101.01 99.76 100.52
  Q 100.21 98.87 101.58 97.75
  Q 101.96 97.44 101.89 96.96
  Q 101.77 96.17 102.50 95.89
  Q 102.94 95.72 102.88 95.25
  Q 102.79 94.52 103.39 94.12
  Q 103.87 93.80 103.87 93.22
  Q 103.87 92.46 104.47 92.01
  Q 104.85 91.73 104.92 91.26
  Q 105.10 89.98 106.15 89.22
  Q 106.45 89.00 106.57 88.63
  Q 106.86 87.68 107.47 86.86
  Q 107.73 86.51 107.84 86.09
  Q 108.32 84.32 110.72 84.02
  Z" fill="#37ccc3"></path>
<path d="M 63.71 143.98
  Q 61.72 145.70 61.40 146.37
  C 60.26 148.72 59.05 151.40 57.49 153.36
  Q 57.22 153.71 57.16 154.14
  Q 57.08 154.85 56.50 155.25
  A 0.84 0.84 0.0 0 0 56.13 156.00
  Q 56.17 156.82 55.50 157.24
  A 0.83 0.82 -18.9 0 0 55.12 158.00
  Q 55.19 158.76 54.64 159.16
  Q 53.04 160.33 52.89 162.03
  Q 52.85 162.52 52.54 162.90
  C 51.00 164.84 50.33 167.00 48.81 168.93
  Q 48.53 169.30 48.42 169.75
  Q 48.19 170.70 47.43 171.30
  Q 47.07 171.59 47.13 172.05
  Q 47.21 172.71 46.69 173.06
  Q 46.35 173.28 46.22 173.66
  Q 45.80 174.84 44.94 175.76
  Q 44.58 176.16 44.47 176.68
  L 43.99 179.01
  Q 30.92 168.50 37.57 153.59
  Q 40.49 147.04 48.44 143.99
  Q 55.74 141.20 63.71 143.98
  Z" fill="#47d3ad"></path>
<path d="M 137.92 143.19
  Q 133.19 152.74 128.70 159.97
  Q 128.60 160.12 128.42 160.15
  Q 128.12 160.20 128.12 160.50
  L 128.12 160.91
  Q 128.12 161.37 127.89 161.78
  L 119.22 176.54
  A 0.10 0.10 0.0 0 1 119.06 176.56
  Q 118.97 176.46 118.86 176.37
  Q 118.71 176.25 118.56 176.38
  Q 117.95 176.89 116.49 176.27
  L 108.99 172.44
  Q 112.21 170.65 114.63 165.11
  A 0.86 0.85 7.5 0 1 115.29 164.61
  Q 116.00 164.50 116.11 164.01
  Q 116.81 161.14 118.31 159.28
  Q 118.35 159.24 118.35 159.19
  Q 118.35 159.06 118.36 158.93
  Q 118.37 158.60 118.60 158.37
  Q 119.82 157.11 120.46 155.51
  A 1.12 1.05 88.3 0 1 120.94 154.97
  Q 121.59 154.62 121.61 153.96
  Q 121.62 153.55 121.90 153.27
  Q 122.51 152.67 122.98 151.97
  Q 125.30 148.45 127.45 144.73
  Q 127.76 144.20 127.17 143.99
  Q 126.08 143.61 123.94 144.04
  Q 130.29 141.43 137.92 143.19
  Z" fill="#27b1ce"></path>
<path d="M 137.92 143.19
  Q 153.41 148.36 152.78 164.25
  Q 152.60 168.72 149.98 172.96
  C 144.49 181.81 133.93 184.73 124.20 181.30
  C 121.33 180.29 119.03 178.10 116.49 176.27
  Q 117.95 176.89 118.56 176.38
  Q 118.71 176.25 118.86 176.37
  Q 118.97 176.46 119.06 176.56
  A 0.10 0.10 0.0 0 0 119.22 176.54
  L 127.89 161.78
  Q 128.12 161.37 128.12 160.91
  L 128.12 160.50
  Q 128.12 160.20 128.42 160.15
  Q 128.60 160.12 128.70 159.97
  Q 133.19 152.74 137.92 143.19
  Z" fill="#24a0ca"></path>
<path d="M 108.99 172.44
  Q 86.93 164.81 68.44 177.83
  Q 68.26 177.83 68.15 177.79
  A 0.73 0.63 -59.7 0 1 67.95 176.74
  Q 69.30 174.89 70.17 172.72
  Q 70.36 172.25 70.75 171.94
  Q 71.70 171.17 71.95 170.03
  Q 72.04 169.61 72.38 169.35
  Q 72.96 168.91 72.83 168.14
  A 0.85 0.84 -22.9 0 1 73.17 167.31
  Q 74.19 166.58 74.20 165.26
  A 0.65 0.65 0.0 0 1 74.83 164.61
  Q 75.44 164.59 75.35 163.92
  Q 75.28 163.44 75.62 163.10
  L 76.87 161.85
  A 0.91 0.89 61.1 0 0 77.11 160.98
  Q 76.95 160.36 77.47 160.02
  Q 77.89 159.74 78.06 159.26
  Q 78.93 156.69 81.08 155.01
  Q 81.48 154.70 81.50 154.70
  Q 81.63 154.74 81.76 154.79
  Q 82.17 154.95 82.45 154.61
  Q 82.70 154.32 82.53 154.03
  Q 104.08 158.92 121.25 145.22
  Q 122.17 144.49 123.94 144.04
  Q 126.08 143.61 127.17 143.99
  Q 127.76 144.20 127.45 144.73
  Q 125.30 148.45 122.98 151.97
  Q 122.51 152.67 121.90 153.27
  Q 121.62 153.55 121.61 153.96
  Q 121.59 154.62 120.94 154.97
  A 1.12 1.05 88.3 0 0 120.46 155.51
  Q 119.82 157.11 118.60 158.37
  Q 118.37 158.60 118.36 158.93
  Q 118.35 159.06 118.35 159.19
  Q 118.35 159.24 118.31 159.28
  Q 116.81 161.14 116.11 164.01
  Q 116.00 164.50 115.29 164.61
  A 0.86 0.85 7.5 0 0 114.63 165.11
  Q 112.21 170.65 108.99 172.44
  Z" fill="#2bc2d2"></path>
<path d="M 63.71 143.98
  Q 72.42 150.48 82.53 154.03
  Q 82.70 154.32 82.45 154.61
  Q 82.17 154.95 81.76 154.79
  Q 81.63 154.74 81.50 154.70
  Q 81.48 154.70 81.08 155.01
  Q 78.93 156.69 78.06 159.26
  Q 77.89 159.74 77.47 160.02
  Q 76.95 160.36 77.11 160.98
  A 0.91 0.89 61.1 0 1 76.87 161.85
  L 75.62 163.10
  Q 75.28 163.44 75.35 163.92
  Q 75.44 164.59 74.83 164.61
  A 0.65 0.65 0.0 0 0 74.20 165.26
  Q 74.19 166.58 73.17 167.31
  A 0.85 0.84 -22.9 0 0 72.83 168.14
  Q 72.96 168.91 72.38 169.35
  Q 72.04 169.61 71.95 170.03
  Q 71.70 171.17 70.75 171.94
  Q 70.36 172.25 70.17 172.72
  Q 69.30 174.89 67.95 176.74
  A 0.73 0.63 -59.7 0 0 68.15 177.79
  Q 68.26 177.83 68.44 177.83
  C 61.62 183.96 51.50 184.24 43.99 179.01
  L 44.47 176.68
  Q 44.58 176.16 44.94 175.76
  Q 45.80 174.84 46.22 173.66
  Q 46.35 173.28 46.69 173.06
  Q 47.21 172.71 47.13 172.05
  Q 47.07 171.59 47.43 171.30
  Q 48.19 170.70 48.42 169.75
  Q 48.53 169.30 48.81 168.93
  C 50.33 167.00 51.00 164.84 52.54 162.90
  Q 52.85 162.52 52.89 162.03
  Q 53.04 160.33 54.64 159.16
  Q 55.19 158.76 55.12 158.00
  A 0.83 0.82 -18.9 0 1 55.50 157.24
  Q 56.17 156.82 56.13 156.00
  A 0.84 0.84 0.0 0 1 56.50 155.25
  Q 57.08 154.85 57.16 154.14
  Q 57.22 153.71 57.49 153.36
  C 59.05 151.40 60.26 148.72 61.40 146.37
  Q 61.72 145.70 63.71 143.98
  Z" fill="#3ecfb8"></path>
</svg>
