<svg viewBox="0.00 0.00 300.00 300.00" version="1.1" xmlns="http://www.w3.org/2000/svg">
<path d="M 300.00 20.62
  L 300.00 125.24
  C 294.00 154.11 252.16 151.28 251.72 121.50
  Q 251.48 105.75 251.53 90.03
  Q 251.53 89.51 251.05 89.71
  Q 250.91 89.78 250.66 89.88
  Q 250.46 89.96 250.31 90.11
  C 191.85 151.54 97.27 159.09 30.77 105.62
  C 22.96 99.34 13.32 90.17 6.70 83.04
  C -2.27 73.40 -1.38 57.68 8.22 48.99
  C 18.25 39.90 32.24 40.36 42.09 49.92
  Q 48.68 56.32 55.48 62.51
  C 96.56 99.93 156.64 103.02 200.95 69.29
  C 208.12 63.83 215.65 56.18 222.63 49.40
  Q 223.41 48.64 222.32 48.64
  Q 202.88 48.65 183.67 48.66
  Q 174.88 48.67 170.73 47.24
  C 151.78 40.71 149.08 14.63 166.27 3.74
  Q 171.51 0.41 177.75 0.39
  Q 225.91 0.23 274.06 0.20
  Q 280.14 0.19 283.76 1.46
  Q 296.79 6.01 300.00 20.62
  Z" fill="#1c62d3"></path>
<rect rx="23.32" height="133.92" width="48.40" transform="translate(24.87,208.43) rotate(0.2)" y="-66.96" x="-24.20" fill="#1cac78"></rect>
<path d="M 300.00 190.13
  L 300.00 279.26
  C 296.74 296.39 278.48 305.10 263.50 296.49
  Q 255.63 291.96 252.91 283.59
  Q 251.52 279.32 251.52 267.76
  Q 251.50 231.25 251.73 194.75
  C 251.92 164.13 294.08 160.43 300.00 190.13
  Z" fill="#1cac78"></path>
<circle r="38.74" cy="220.53" cx="150.38" fill="#ff4848"></circle>
</svg>
