<svg viewBox="0.00 0.00 100.00 100.00" version="1.1" xmlns="http://www.w3.org/2000/svg">
<g stroke-linecap="butt" fill="none" stroke-width="2.00">
<path d="M 40.25 81.55
  C 50.49 92.30 66.26 87.89 71.79 74.77
  A 0.92 0.91 -85.3 0 1 72.41 74.24
  C 86.49 70.66 91.32 54.84 82.39 43.61
  A 0.96 0.95 -57.0 0 1 82.22 42.78
  C 86.06 28.72 74.93 16.62 60.62 18.74
  A 0.93 0.92 -25.6 0 1 59.81 18.46
  C 49.81 8.23 33.74 11.66 28.37 24.80
  A 1.35 1.34 -3.5 0 1 27.77 25.47
  Q 26.64 26.09 25.41 26.54
  C 12.75 31.18 9.25 45.99 17.55 56.40
  A 0.97 0.95 -57.7 0 1 17.73 57.24
  C 14.18 71.35 24.95 83.44 39.38 81.25
  A 1.00 0.98 63.5 0 1 40.25 81.55" stroke="#808080"></path>
<path d="M 38.22 52.56
  A 0.17 0.16 15.0 0 0 38.47 52.42
  L 38.48 31.29
  A 1.85 1.84 75.2 0 1 39.40 29.69
  L 54.50 20.96
  A 0.43 0.43 0.0 0 0 54.54 20.24
  C 46.89 14.64 35.80 17.81 32.84 26.88
  C 31.11 32.19 32.03 42.11 32.00 48.74
  A 0.40 0.39 16.2 0 0 32.20 49.10
  L 38.22 52.56" stroke="#808080"></path>
<path d="M 60.21 30.75
  A 2.27 2.25 -44.8 0 1 62.48 30.75
  L 77.52 39.44
  A 0.30 0.30 0.0 0 0 77.97 39.22
  C 79.04 29.81 71.12 21.69 61.60 23.54
  Q 58.92 24.06 53.69 27.09
  Q 47.89 30.44 42.14 33.76
  Q 41.88 33.91 41.88 34.22
  L 41.91 41.03
  A 0.17 0.17 0.0 0 0 42.17 41.18
  L 60.21 30.75" stroke="#808080"></path>
<path d="M 27.12 49.43
  L 27.10 31.71
  Q 27.10 30.96 26.42 31.25
  C 15.30 35.95 15.33 50.47 25.50 56.50
  Q 32.72 60.79 39.95 64.93
  Q 40.19 65.07 40.42 64.93
  L 46.24 61.54
  A 0.22 0.21 -45.5 0 0 46.24 61.17
  L 27.71 50.44
  A 1.19 1.17 -75.9 0 1 27.12 49.43" stroke="#808080"></path>
<path d="M 73.61 68.75
  C 81.56 65.19 84.43 55.46 79.87 48.37
  Q 78.07 45.57 72.87 42.47
  Q 66.43 38.63 60.08 35.08
  Q 59.83 34.94 59.59 35.09
  L 53.77 38.45
  A 0.21 0.21 0.0 0 0 53.77 38.82
  L 71.65 49.17
  A 2.46 2.46 0.0 0 1 72.88 51.30
  L 72.87 68.27
  Q 72.87 69.08 73.61 68.75" stroke="#808080"></path>
<path d="M 57.75 54.90
  A 0.74 0.74 0.0 0 0 58.12 54.26
  L 58.12 45.75
  A 0.74 0.74 0.0 0 0 57.75 45.11
  L 50.37 40.82
  A 0.74 0.74 0.0 0 0 49.63 40.82
  L 42.24 45.11
  A 0.74 0.74 0.0 0 0 41.87 45.75
  L 41.86 54.25
  A 0.74 0.74 0.0 0 0 42.23 54.89
  L 49.64 59.16
  A 0.74 0.74 0.0 0 0 50.38 59.16
  L 57.75 54.90" stroke="#808080"></path>
<path d="M 60.96 70.05
  L 45.49 79.03
  A 0.45 0.44 -41.7 0 0 45.44 79.76
  C 52.77 85.13 63.18 82.43 66.74 74.07
  Q 67.95 71.25 67.98 65.25
  Q 68.01 58.21 67.97 51.33
  Q 67.97 51.01 67.69 50.85
  L 61.77 47.42
  A 0.17 0.16 15.6 0 0 61.52 47.56
  L 61.51 69.08
  A 1.13 1.10 75.3 0 1 60.96 70.05" stroke="#808080"></path>
<path d="M 36.73 76.69
  C 42.91 76.04 51.99 69.70 57.92 66.12
  A 0.42 0.41 -15.0 0 0 58.13 65.76
  L 58.12 58.96
  A 0.18 0.18 0.0 0 0 57.85 58.80
  L 39.78 69.22
  A 2.29 2.28 45.1 0 1 37.50 69.21
  L 22.64 60.62
  A 0.43 0.43 0.0 0 0 22.00 60.94
  C 21.07 69.40 28.11 77.59 36.73 76.69" stroke="#808080"></path>
</g>
<path d="M 0.00 0.00
  L 100.00 0.00
  L 100.00 100.00
  L 0.00 100.00
  L 0.00 0.00
  Z
  M 40.25 81.55
  C 50.49 92.30 66.26 87.89 71.79 74.77
  A 0.92 0.91 -85.3 0 1 72.41 74.24
  C 86.49 70.66 91.32 54.84 82.39 43.61
  A 0.96 0.95 -57.0 0 1 82.22 42.78
  C 86.06 28.72 74.93 16.62 60.62 18.74
  A 0.93 0.92 -25.6 0 1 59.81 18.46
  C 49.81 8.23 33.74 11.66 28.37 24.80
  A 1.35 1.34 -3.5 0 1 27.77 25.47
  Q 26.64 26.09 25.41 26.54
  C 12.75 31.18 9.25 45.99 17.55 56.40
  A 0.97 0.95 -57.7 0 1 17.73 57.24
  C 14.18 71.35 24.95 83.44 39.38 81.25
  A 1.00 0.98 63.5 0 1 40.25 81.55
  Z" fill="#000000"></path>
<path d="M 39.38 81.25
  C 24.95 83.44 14.18 71.35 17.73 57.24
  A 0.97 0.95 -57.7 0 0 17.55 56.40
  C 9.25 45.99 12.75 31.18 25.41 26.54
  Q 26.64 26.09 27.77 25.47
  A 1.35 1.34 -3.5 0 0 28.37 24.80
  C 33.74 11.66 49.81 8.23 59.81 18.46
  A 0.93 0.92 -25.6 0 0 60.62 18.74
  C 74.93 16.62 86.06 28.72 82.22 42.78
  A 0.96 0.95 -57.0 0 0 82.39 43.61
  C 91.32 54.84 86.49 70.66 72.41 74.24
  A 0.92 0.91 -85.3 0 0 71.79 74.77
  C 66.26 87.89 50.49 92.30 40.25 81.55
  A 1.00 0.98 63.5 0 0 39.38 81.25
  Z
  M 38.22 52.56
  A 0.17 0.16 15.0 0 0 38.47 52.42
  L 38.48 31.29
  A 1.85 1.84 75.2 0 1 39.40 29.69
  L 54.50 20.96
  A 0.43 0.43 0.0 0 0 54.54 20.24
  C 46.89 14.64 35.80 17.81 32.84 26.88
  C 31.11 32.19 32.03 42.11 32.00 48.74
  A 0.40 0.39 16.2 0 0 32.20 49.10
  L 38.22 52.56
  Z
  M 60.21 30.75
  A 2.27 2.25 -44.8 0 1 62.48 30.75
  L 77.52 39.44
  A 0.30 0.30 0.0 0 0 77.97 39.22
  C 79.04 29.81 71.12 21.69 61.60 23.54
  Q 58.92 24.06 53.69 27.09
  Q 47.89 30.44 42.14 33.76
  Q 41.88 33.91 41.88 34.22
  L 41.91 41.03
  A 0.17 0.17 0.0 0 0 42.17 41.18
  L 60.21 30.75
  Z
  M 27.12 49.43
  L 27.10 31.71
  Q 27.10 30.96 26.42 31.25
  C 15.30 35.95 15.33 50.47 25.50 56.50
  Q 32.72 60.79 39.95 64.93
  Q 40.19 65.07 40.42 64.93
  L 46.24 61.54
  A 0.22 0.21 -45.5 0 0 46.24 61.17
  L 27.71 50.44
  A 1.19 1.17 -75.9 0 1 27.12 49.43
  Z
  M 73.61 68.75
  C 81.56 65.19 84.43 55.46 79.87 48.37
  Q 78.07 45.57 72.87 42.47
  Q 66.43 38.63 60.08 35.08
  Q 59.83 34.94 59.59 35.09
  L 53.77 38.45
  A 0.21 0.21 0.0 0 0 53.77 38.82
  L 71.65 49.17
  A 2.46 2.46 0.0 0 1 72.88 51.30
  L 72.87 68.27
  Q 72.87 69.08 73.61 68.75
  Z
  M 57.75 54.90
  A 0.74 0.74 0.0 0 0 58.12 54.26
  L 58.12 45.75
  A 0.74 0.74 0.0 0 0 57.75 45.11
  L 50.37 40.82
  A 0.74 0.74 0.0 0 0 49.63 40.82
  L 42.24 45.11
  A 0.74 0.74 0.0 0 0 41.87 45.75
  L 41.86 54.25
  A 0.74 0.74 0.0 0 0 42.23 54.89
  L 49.64 59.16
  A 0.74 0.74 0.0 0 0 50.38 59.16
  L 57.75 54.90
  Z
  M 60.96 70.05
  L 45.49 79.03
  A 0.45 0.44 -41.7 0 0 45.44 79.76
  C 52.77 85.13 63.18 82.43 66.74 74.07
  Q 67.95 71.25 67.98 65.25
  Q 68.01 58.21 67.97 51.33
  Q 67.97 51.01 67.69 50.85
  L 61.77 47.42
  A 0.17 0.16 15.6 0 0 61.52 47.56
  L 61.51 69.08
  A 1.13 1.10 75.3 0 1 60.96 70.05
  Z
  M 36.73 76.69
  C 42.91 76.04 51.99 69.70 57.92 66.12
  A 0.42 0.41 -15.0 0 0 58.13 65.76
  L 58.12 58.96
  A 0.18 0.18 0.0 0 0 57.85 58.80
  L 39.78 69.22
  A 2.29 2.28 45.1 0 1 37.50 69.21
  L 22.64 60.62
  A 0.43 0.43 0.0 0 0 22.00 60.94
  C 21.07 69.40 28.11 77.59 36.73 76.69
  Z" fill="#ffffff"></path>
<path d="M 38.22 52.56
  L 32.20 49.10
  A 0.40 0.39 16.2 0 1 32.00 48.74
  C 32.03 42.11 31.11 32.19 32.84 26.88
  C 35.80 17.81 46.89 14.64 54.54 20.24
  A 0.43 0.43 0.0 0 1 54.50 20.96
  L 39.40 29.69
  A 1.85 1.84 75.2 0 0 38.48 31.29
  L 38.47 52.42
  A 0.17 0.16 15.0 0 1 38.22 52.56
  Z" fill="#000000"></path>
<path d="M 60.21 30.75
  L 42.17 41.18
  A 0.17 0.17 0.0 0 1 41.91 41.03
  L 41.88 34.22
  Q 41.88 33.91 42.14 33.76
  Q 47.89 30.44 53.69 27.09
  Q 58.92 24.06 61.60 23.54
  C 71.12 21.69 79.04 29.81 77.97 39.22
  A 0.30 0.30 0.0 0 1 77.52 39.44
  L 62.48 30.75
  A 2.27 2.25 -44.8 0 0 60.21 30.75
  Z" fill="#000000"></path>
<path d="M 27.12 49.43
  A 1.19 1.17 -75.9 0 0 27.71 50.44
  L 46.24 61.17
  A 0.22 0.21 -45.5 0 1 46.24 61.54
  L 40.42 64.93
  Q 40.19 65.07 39.95 64.93
  Q 32.72 60.79 25.50 56.50
  C 15.33 50.47 15.30 35.95 26.42 31.25
  Q 27.10 30.96 27.10 31.71
  L 27.12 49.43
  Z" fill="#000000"></path>
<path d="M 79.87 48.37
  C 84.43 55.46 81.56 65.19 73.61 68.75
  Q 72.87 69.08 72.87 68.27
  L 72.88 51.30
  A 2.46 2.46 0.0 0 0 71.65 49.17
  L 53.77 38.82
  A 0.21 0.21 0.0 0 1 53.77 38.45
  L 59.59 35.09
  Q 59.83 34.94 60.08 35.08
  Q 66.43 38.63 72.87 42.47
  Q 78.07 45.57 79.87 48.37
  Z" fill="#000000"></path>
<path d="M 57.75 54.90
  L 50.38 59.16
  A 0.74 0.74 0.0 0 1 49.64 59.16
  L 42.23 54.89
  A 0.74 0.74 0.0 0 1 41.86 54.25
  L 41.87 45.75
  A 0.74 0.74 0.0 0 1 42.24 45.11
  L 49.63 40.82
  A 0.74 0.74 0.0 0 1 50.37 40.82
  L 57.75 45.11
  A 0.74 0.74 0.0 0 1 58.12 45.75
  L 58.12 54.26
  A 0.74 0.74 0.0 0 1 57.75 54.90
  Z" fill="#000000"></path>
<path d="M 60.96 70.05
  A 1.13 1.10 75.3 0 0 61.51 69.08
  L 61.52 47.56
  A 0.17 0.16 15.6 0 1 61.77 47.42
  L 67.69 50.85
  Q 67.97 51.01 67.97 51.33
  Q 68.01 58.21 67.98 65.25
  Q 67.95 71.25 66.74 74.07
  C 63.18 82.43 52.77 85.13 45.44 79.76
  A 0.45 0.44 -41.7 0 1 45.49 79.03
  L 60.96 70.05
  Z" fill="#000000"></path>
<path d="M 36.73 76.69
  C 28.11 77.59 21.07 69.40 22.00 60.94
  A 0.43 0.43 0.0 0 1 22.64 60.62
  L 37.50 69.21
  A 2.29 2.28 45.1 0 0 39.78 69.22
  L 57.85 58.80
  A 0.18 0.18 0.0 0 1 58.12 58.96
  L 58.13 65.76
  A 0.42 0.41 -15.0 0 1 57.92 66.12
  C 51.99 69.70 42.91 76.04 36.73 76.69
  Z" fill="#000000"></path>
</svg>
