<svg viewBox="0.00 0.00 256.00 256.00" version="1.1" xmlns="http://www.w3.org/2000/svg">
<path d="M 230.34 209.25
  L 115.88 12.00
  A 0.21 0.21 0.0 0 1 116.04 11.69
  C 164.55 6.79 211.82 29.73 236.81 71.24
  C 262.97 114.71 260.53 168.49 230.90 209.23
  A 0.35 0.31 -43.4 0 1 230.34 209.25
  Z" fill="#6e63fa"></path>
<path d="M 129.05 144.56
  L 70.42 245.52
  A 0.42 0.42 0.0 0 1 69.87 245.68
  C 8.29 212.47 -14.64 134.71 20.59 73.82
  C 40.27 39.82 73.37 18.11 112.19 12.16
  A 0.84 0.83 70.1 0 1 113.04 12.56
  L 228.55 211.64
  Q 228.84 212.14 228.55 212.56
  Q 227.63 213.89 226.61 215.09
  Q 210.70 233.84 189.12 245.71
  A 0.43 0.43 0.0 0 1 188.54 245.55
  L 129.92 144.56
  A 0.50 0.50 0.0 0 0 129.05 144.56
  Z" fill="#6e63fa"></path>
</svg>
