<svg viewBox="0.00 0.00 64.00 64.00" version="1.1" xmlns="http://www.w3.org/2000/svg">
<g stroke-linecap="butt" fill="none" stroke-width="2.00">
<path d="M 34.26 30.78
  L 37.19 20.00
  Q 37.62 18.40 36.29 19.20
  Q 36.20 19.25 35.64 19.89
  Q 30.59 25.68 25.55 31.52
  Q 24.27 33.00 26.22 32.79
  L 29.15 32.46
  A 0.57 0.56 -85.8 0 1 29.76 33.17
  L 27.10 43.04
  Q 26.16 46.50 28.52 43.80
  L 38.44 32.42
  Q 39.88 30.77 37.71 31.02
  L 34.78 31.37
  Q 34.08 31.46 34.26 30.78" stroke="#433d71"></path>
<path d="M 12.49 32.72
  A 0.42 0.42 0.0 0 1 12.49 31.95
  L 22.24 27.65
  Q 22.85 27.38 22.86 26.71
  L 22.90 24.67
  Q 22.91 23.82 22.14 24.17
  L 8.77 30.28
  A 2.27 2.27 0.0 0 0 8.76 34.41
  L 22.01 40.48
  A 0.58 0.57 13.2 0 0 22.82 39.98
  L 22.89 38.18
  Q 22.93 37.36 22.17 37.02
  L 12.49 32.72" stroke="#808080"></path>
<path d="M 51.79 32.64
  L 41.74 37.08
  Q 41.11 37.35 41.13 38.04
  L 41.19 39.99
  Q 41.22 40.84 41.99 40.48
  L 55.29 34.41
  A 2.28 2.27 -45.1 0 0 55.29 30.27
  L 41.49 23.97
  A 0.17 0.17 0.0 0 0 41.25 24.12
  L 41.10 27.02
  Q 41.09 27.30 41.35 27.41
  L 51.79 32.07
  A 0.31 0.31 0.0 0 1 51.79 32.64" stroke="#808080"></path>
</g>
<path d="M 29.53 0.00
  L 34.59 0.00
  C 50.52 1.86 62.51 13.54 64.00 29.56
  L 64.00 34.58
  C 62.29 50.48 50.40 62.46 34.45 64.00
  L 29.39 64.00
  C 13.50 62.27 1.54 50.39 0.00 34.45
  L 0.00 29.41
  C 1.72 13.51 13.59 1.57 29.53 0.00
  Z
  M 34.26 30.78
  L 37.19 20.00
  Q 37.62 18.40 36.29 19.20
  Q 36.20 19.25 35.64 19.89
  Q 30.59 25.68 25.55 31.52
  Q 24.27 33.00 26.22 32.79
  L 29.15 32.46
  A 0.57 0.56 -85.8 0 1 29.76 33.17
  L 27.10 43.04
  Q 26.16 46.50 28.52 43.80
  L 38.44 32.42
  Q 39.88 30.77 37.71 31.02
  L 34.78 31.37
  Q 34.08 31.46 34.26 30.78
  Z
  M 12.49 32.72
  A 0.42 0.42 0.0 0 1 12.49 31.95
  L 22.24 27.65
  Q 22.85 27.38 22.86 26.71
  L 22.90 24.67
  Q 22.91 23.82 22.14 24.17
  L 8.77 30.28
  A 2.27 2.27 0.0 0 0 8.76 34.41
  L 22.01 40.48
  A 0.58 0.57 13.2 0 0 22.82 39.98
  L 22.89 38.18
  Q 22.93 37.36 22.17 37.02
  L 12.49 32.72
  Z
  M 51.79 32.64
  L 41.74 37.08
  Q 41.11 37.35 41.13 38.04
  L 41.19 39.99
  Q 41.22 40.84 41.99 40.48
  L 55.29 34.41
  A 2.28 2.27 -45.1 0 0 55.29 30.27
  L 41.49 23.97
  A 0.17 0.17 0.0 0 0 41.25 24.12
  L 41.10 27.02
  Q 41.09 27.30 41.35 27.41
  L 51.79 32.07
  A 0.31 0.31 0.0 0 1 51.79 32.64
  Z" fill="#000000"></path>
<path d="M 34.78 31.37
  L 37.71 31.02
  Q 39.88 30.77 38.44 32.42
  L 28.52 43.80
  Q 26.16 46.50 27.10 43.04
  L 29.76 33.17
  A 0.57 0.56 -85.8 0 0 29.15 32.46
  L 26.22 32.79
  Q 24.27 33.00 25.55 31.52
  Q 30.59 25.68 35.64 19.89
  Q 36.20 19.25 36.29 19.20
  Q 37.62 18.40 37.19 20.00
  L 34.26 30.78
  Q 34.08 31.46 34.78 31.37
  Z" fill="#8679e1"></path>
<path d="M 12.49 32.72
  L 22.17 37.02
  Q 22.93 37.36 22.89 38.18
  L 22.82 39.98
  A 0.58 0.57 13.2 0 1 22.01 40.48
  L 8.76 34.41
  A 2.27 2.27 0.0 0 1 8.77 30.28
  L 22.14 24.17
  Q 22.91 23.82 22.90 24.67
  L 22.86 26.71
  Q 22.85 27.38 22.24 27.65
  L 12.49 31.95
  A 0.42 0.42 0.0 0 0 12.49 32.72
  Z" fill="#ffffff"></path>
<path d="M 51.79 32.64
  A 0.31 0.31 0.0 0 0 51.79 32.07
  L 41.35 27.41
  Q 41.09 27.30 41.10 27.02
  L 41.25 24.12
  A 0.17 0.17 0.0 0 1 41.49 23.97
  L 55.29 30.27
  A 2.28 2.27 -45.1 0 1 55.29 34.41
  L 41.99 40.48
  Q 41.22 40.84 41.19 39.99
  L 41.13 38.04
  Q 41.11 37.35 41.74 37.08
  L 51.79 32.64
  Z" fill="#ffffff"></path>
</svg>
