<svg viewBox="0.00 0.00 256.00 256.00" version="1.1" xmlns="http://www.w3.org/2000/svg">
<path d="M 219.33 127.99
  A 91.47 91.47 0.0 0 1 127.86 219.46
  A 91.47 91.47 0.0 0 1 36.39 127.99
  A 91.47 91.47 0.0 0 1 127.86 36.52
  A 91.47 91.47 0.0 0 1 219.33 127.99
  Z
  M 145.46 89.96
  C 143.57 78.35 141.83 67.49 137.57 56.81
  C 135.57 51.78 130.30 42.38 123.73 47.99
  C 115.27 55.21 111.41 79.43 110.37 90.05
  Q 110.33 90.52 110.80 90.56
  Q 127.90 91.98 145.00 90.55
  A 0.51 0.50 83.2 0 0 145.46 89.96
  Z
  M 116.56 47.88
  C 99.43 53.75 87.20 68.56 80.69 84.89
  A 0.37 0.37 0.0 0 0 80.93 85.37
  Q 92.74 88.74 104.96 90.04
  A 0.46 0.46 0.0 0 0 105.47 89.63
  C 106.91 76.26 109.92 60.08 117.04 48.48
  Q 117.64 47.51 116.56 47.88
  Z
  M 139.62 48.13
  Q 139.23 47.65 138.79 47.76
  A 0.36 0.35 67.9 0 0 138.57 48.29
  C 145.77 60.12 148.76 75.96 150.21 89.55
  A 0.53 0.53 0.0 0 0 150.80 90.02
  Q 162.99 88.77 174.75 85.34
  A 0.37 0.37 0.0 0 0 174.99 84.84
  C 168.52 68.75 156.52 53.91 139.62 48.13
  Z
  M 76.33 82.71
  C 80.86 71.65 88.50 60.10 97.93 52.73
  Q 100.17 50.97 97.53 52.05
  Q 79.05 59.59 65.94 74.62
  Q 64.79 75.94 66.00 77.21
  Q 69.88 81.29 75.23 83.20
  Q 76.01 83.48 76.33 82.71
  Z
  M 157.66 52.60
  C 167.35 60.23 174.71 71.55 179.57 82.97
  Q 179.78 83.45 180.28 83.28
  Q 185.75 81.34 189.74 77.21
  A 1.87 1.87 0.0 0 0 189.81 74.68
  Q 176.63 59.54 158.01 51.98
  Q 155.67 51.03 157.66 52.60
  Z
  M 178.26 148.95
  Q 187.92 145.03 196.61 139.33
  C 199.55 137.40 204.96 134.72 208.51 131.28
  Q 209.62 130.21 209.60 128.24
  Q 209.32 101.54 194.26 80.29
  Q 193.90 79.78 193.47 80.23
  Q 188.67 85.29 182.06 87.64
  Q 181.48 87.85 181.68 88.43
  Q 184.92 97.52 186.53 107.04
  Q 186.63 107.63 186.02 107.63
  L 182.47 107.62
  Q 181.98 107.62 181.85 107.14
  L 177.42 90.30
  Q 177.23 89.57 176.50 89.78
  Q 164.19 93.49 151.38 94.75
  Q 150.91 94.80 150.95 95.27
  L 151.82 105.93
  Q 151.89 106.76 151.06 106.75
  L 147.74 106.74
  Q 146.99 106.74 146.93 105.99
  L 146.19 96.24
  Q 146.12 95.31 145.20 95.39
  Q 127.63 96.87 110.06 95.36
  Q 109.50 95.31 109.46 95.87
  L 108.00 119.63
  Q 107.98 120.00 107.61 120.00
  L 103.67 119.98
  Q 103.11 119.98 103.14 119.41
  L 104.64 95.18
  A 0.42 0.42 0.0 0 0 104.26 94.73
  Q 91.37 93.49 78.99 89.70
  A 0.29 0.29 0.0 0 0 78.63 89.88
  Q 73.40 105.00 72.49 120.99
  Q 72.48 121.26 72.23 121.37
  L 67.77 123.32
  A 0.17 0.17 0.0 0 1 67.54 123.16
  Q 68.13 105.25 74.04 88.36
  Q 74.22 87.86 73.72 87.68
  Q 67.20 85.38 62.43 80.40
  Q 61.84 79.78 61.35 80.48
  Q 45.87 102.38 46.15 129.40
  Q 46.16 129.96 46.51 130.39
  Q 48.84 133.21 52.02 135.03
  Q 52.28 135.17 52.19 135.46
  L 50.91 139.78
  Q 50.81 140.11 50.53 139.92
  L 47.27 137.72
  Q 46.69 137.34 46.78 138.02
  Q 49.13 157.05 59.56 173.13
  C 64.62 180.93 73.99 184.45 82.68 186.35
  A 0.21 0.21 0.0 0 0 82.91 186.03
  Q 74.00 171.49 70.41 154.79
  A 0.28 0.28 0.0 0 1 70.71 154.46
  L 75.18 154.82
  A 0.31 0.30 86.0 0 1 75.45 155.06
  Q 79.46 172.72 89.76 187.58
  Q 90.30 188.35 91.22 188.47
  L 109.44 190.84
  Q 110.12 190.93 109.95 190.26
  Q 105.61 173.19 104.38 155.61
  Q 104.36 155.45 104.52 155.44
  L 108.96 155.38
  Q 109.24 155.37 109.27 155.65
  Q 110.56 173.34 115.01 190.49
  Q 115.23 191.33 116.10 191.33
  L 139.54 191.33
  Q 140.49 191.33 140.73 190.41
  Q 145.13 173.32 146.46 155.70
  A 0.32 0.31 1.0 0 1 146.77 155.41
  L 151.17 155.33
  Q 151.35 155.33 151.34 155.51
  Q 150.10 173.13 145.78 190.24
  Q 145.61 190.91 146.30 190.82
  L 164.66 188.38
  A 2.04 2.01 -76.3 0 0 166.05 187.52
  Q 177.92 170.15 181.48 149.36
  A 0.67 0.67 0.0 0 0 180.57 148.62
  Q 179.49 149.04 178.30 149.14
  Q 177.69 149.18 178.26 148.95
  Z
  M 196.12 172.87
  Q 206.69 156.87 208.92 138.09
  Q 209.00 137.38 208.42 137.79
  C 201.93 142.27 194.80 144.81 187.26 147.04
  A 0.84 0.83 86.2 0 0 186.67 147.72
  Q 183.61 168.21 172.91 185.88
  Q 172.64 186.32 173.15 186.22
  Q 182.04 184.35 189.83 179.64
  C 192.77 177.86 194.25 175.71 196.12 172.87
  Z
  M 98.79 203.95
  C 94.67 200.58 91.17 197.23 87.85 193.02
  Q 87.53 192.61 87.03 192.48
  L 74.20 188.96
  Q 73.04 188.64 73.95 189.44
  Q 84.58 198.76 98.02 204.14
  Q 98.47 204.32 98.71 204.27
  Q 99.09 204.19 98.79 203.95
  Z
  M 167.74 193.11
  C 164.60 196.98 161.41 200.44 157.93 203.14
  Q 155.43 205.08 158.35 203.88
  Q 171.14 198.64 181.59 189.61
  Q 182.59 188.75 181.32 189.10
  L 168.55 192.59
  Q 168.06 192.72 167.74 193.11
  Z
  M 111.04 195.54
  C 106.13 195.40 100.76 194.75 95.92 193.87
  Q 94.80 193.66 95.57 194.50
  Q 104.53 204.16 117.06 208.26
  Q 117.19 208.30 117.14 208.17
  L 111.32 195.72
  Q 111.24 195.54 111.04 195.54
  Z
  M 138.68 207.31
  Q 138.46 207.57 138.48 207.95
  Q 138.49 208.31 138.83 208.19
  Q 151.19 204.11 160.05 194.60
  Q 160.58 194.03 159.80 194.11
  L 144.39 195.81
  A 0.60 0.60 0.0 0 0 143.88 196.22
  C 142.77 199.64 140.95 204.61 138.68 207.31
  Z
  M 123.40 207.59
  C 130.47 215.32 137.12 201.33 138.59 196.58
  Q 138.71 196.19 138.30 196.19
  L 117.42 196.21
  Q 117.04 196.21 117.15 196.57
  Q 119.04 202.83 123.40 207.59
  Z" fill="#488eff"></path>
<path d="M 147.50 129.12
  L 163.46 130.64
  Q 163.95 130.69 164.31 130.36
  L 180.51 115.47
  Q 180.94 115.08 181.51 115.08
  L 189.73 115.05
  A 0.34 0.34 0.0 0 1 190.05 115.50
  L 183.69 132.65
  A 0.49 0.49 0.0 0 0 184.05 133.30
  L 189.49 134.47
  A 0.28 0.28 0.0 0 1 189.58 134.98
  C 180.39 140.49 169.74 145.07 159.20 146.92
  Q 153.56 147.91 142.51 147.92
  Q 116.50 147.96 90.50 147.98
  C 85.81 147.98 58.33 148.17 58.41 140.78
  C 58.44 137.98 62.23 136.37 64.62 135.70
  Q 65.12 135.56 65.43 135.16
  C 71.68 127.18 78.04 127.63 89.00 127.48
  Q 102.60 127.30 116.21 127.50
  Q 118.26 127.53 120.06 126.57
  Q 130.77 120.84 141.51 115.27
  C 145.02 113.44 150.82 114.25 154.76 114.22
  A 0.34 0.33 14.7 0 1 155.06 114.72
  L 147.17 128.47
  Q 146.84 129.06 147.50 129.12
  Z" fill="#488eff"></path>
</svg>
