<svg viewBox="0.00 0.00 256.00 256.00" version="1.1" xmlns="http://www.w3.org/2000/svg">
<g stroke-linecap="butt" fill="none" stroke-width="2.00">
<path d="M 160.93 65.39
  L 148.86 74.04" stroke="#efa69e"></path>
<path d="M 148.86 74.04
  L 140.01 78.92" stroke="#e8a3a6"></path>
<path d="M 140.01 78.92
  L 127.90 83.86" stroke="#e09fb0"></path>
<path d="M 127.90 83.86
  L 114.96 87.24" stroke="#d79bb9"></path>
<path d="M 114.96 87.24
  Q 105.66 89.04 97.11 93.50" stroke="#ce97c3"></path>
<path d="M 97.11 93.50
  Q 83.44 100.53 74.01 112.96" stroke="#c694cc"></path>
<path d="M 74.01 112.96
  L 67.99 122.45" stroke="#bb8fd8"></path>
<path d="M 67.99 122.45
  Q 59.90 138.02 60.40 155.73" stroke="#b48ce0"></path>
<path d="M 60.40 155.73
  C 61.05 178.57 73.08 199.01 92.30 211.22
  Q 92.44 211.31 92.54 211.17
  L 92.54 211.17
  Q 92.64 211.04 92.52 210.93
  C 78.68 198.73 73.82 179.71 80.86 162.47" stroke="#a082f8"></path>
<path d="M 80.86 162.47
  L 84.04 156.43
  Q 84.37 155.81 84.62 156.47
  Q 89.70 169.79 101.27 178.06
  Q 101.58 178.28 101.51 177.91
  Q 98.09 160.36 105.98 145.48" stroke="#b48ce0"></path>
<path d="M 105.98 145.48
  Q 108.76 140.36 112.67 136.14" stroke="#bb8fd8"></path>
<path d="M 112.67 136.14
  Q 122.28 125.76 136.41 122.30
  Q 137.77 121.97 136.76 122.94
  Q 130.61 128.87 127.22 137.42" stroke="#c694cc"></path>
<path d="M 127.22 137.42
  Q 123.37 146.85 124.22 156.92" stroke="#bb8fd8"></path>
<path d="M 124.22 156.92
  Q 125.62 173.80 137.57 185.15
  Q 137.94 185.50 138.45 185.39
  Q 148.62 183.05 156.87 176.51" stroke="#b48ce0"></path>
<path d="M 156.87 176.51
  L 161.92 171.93
  Q 162.31 171.57 162.50 172.07
  L 162.80 172.86" stroke="#bb8fd8"></path>
<path d="M 162.80 172.86
  Q 164.43 191.96 153.30 205.73" stroke="#b48ce0"></path>
<path d="M 153.30 205.73
  Q 142.96 218.05 127.21 220.67
  A 0.02 0.02 0.0 0 0 127.21 220.71
  C 139.71 222.12 153.45 217.44 163.33 211.33" stroke="#a082f8"></path>
<path d="M 163.33 211.33
  Q 177.86 202.36 186.50 187.59" stroke="#b48ce0"></path>
<path d="M 186.50 187.59
  L 191.67 176.47" stroke="#bb8fd8"></path>
<path d="M 191.67 176.47
  Q 194.94 167.61 195.51 157.96" stroke="#c694cc"></path>
<path d="M 195.51 157.96
  Q 196.48 146.20 193.11 135.01
  A 0.33 0.32 68.3 0 0 192.65 134.81
  Q 181.25 140.46 168.77 143.24" stroke="#ce97c3"></path>
<path d="M 168.77 143.24
  L 160.97 144.55
  Q 160.23 144.67 160.75 144.13
  L 166.87 137.68" stroke="#c694cc"></path>
<path d="M 166.87 137.68
  Q 172.29 131.85 175.80 125.36" stroke="#ce97c3"></path>
<path d="M 175.80 125.36
  L 181.00 116.49" stroke="#d79bb9"></path>
<path d="M 181.00 116.49
  Q 184.04 111.28 185.71 105.68" stroke="#e09fb0"></path>
<path d="M 185.71 105.68
  L 188.35 97.05" stroke="#e8a3a6"></path>
<path d="M 188.35 97.05
  L 191.60 80.19" stroke="#efa69e"></path>
<path d="M 191.60 80.19
  Q 194.05 57.03 185.90 35.34
  A 0.28 0.27 -41.2 0 0 185.40 35.31
  C 178.90 47.31 170.92 56.25 160.93 65.39" stroke="#f9aa93"></path>
<path d="M 191.60 80.19
  Q 191.11 80.31 190.81 80.81
  A 1.26 0.16 -86.5 0 0 190.63 81.75
  Q 190.61 81.98 190.68 82.28
  Q 190.93 83.29 189.98 82.23
  Q 189.55 81.74 188.83 81.87
  Q 188.35 81.96 188.13 81.52
  Q 187.70 80.64 186.75 80.89
  A 0.53 0.52 -22.2 0 1 186.15 80.64
  Q 185.35 79.23 183.85 78.82
  Q 183.39 78.70 183.08 78.33
  Q 182.58 77.73 181.82 77.88
  Q 181.37 77.96 181.14 77.58
  Q 180.31 76.24 178.89 75.83
  Q 178.41 75.70 178.08 75.32
  Q 177.58 74.73 176.82 74.88
  Q 176.37 74.96 176.14 74.58
  Q 175.31 73.24 173.89 72.83
  Q 173.41 72.70 173.08 72.32
  Q 172.58 71.73 171.82 71.88
  Q 171.37 71.96 171.14 71.58
  Q 170.31 70.24 168.89 69.83
  Q 168.41 69.70 168.09 69.32
  Q 167.57 68.71 166.78 68.88
  Q 166.29 68.99 166.12 68.52
  Q 165.86 67.81 165.11 67.86
  Q 164.56 67.89 164.17 67.51
  L 162.66 66.04
  A 0.79 0.78 65.6 0 0 162.06 65.81
  Q 161.29 65.85 160.93 65.39" stroke="#e95132"></path>
<path d="M 188.35 97.05
  L 182.32 94.20
  Q 182.15 94.12 181.96 94.11
  Q 181.81 94.10 181.66 94.10
  A 0.62 0.60 74.0 0 1 181.14 93.80
  Q 180.33 92.40 178.75 92.10
  A 1.15 1.15 0.0 0 1 177.99 91.59
  Q 177.67 91.08 177.19 91.08
  Q 176.65 91.08 176.24 90.73
  Q 174.72 89.39 172.94 88.52
  Q 171.40 87.77 169.79 86.60
  Q 168.21 85.46 166.28 84.91
  Q 166.14 84.87 166.07 84.74
  Q 165.99 84.60 165.92 84.45
  Q 165.78 84.17 165.48 84.11
  C 163.93 83.83 163.35 82.60 161.88 82.10
  Q 161.39 81.94 161.05 81.55
  Q 160.55 80.98 159.71 80.93
  Q 159.21 80.89 158.90 80.49
  Q 157.31 78.37 154.77 78.03
  Q 154.22 77.96 153.93 77.49
  Q 153.35 76.53 152.24 76.34
  Q 151.74 76.26 151.38 75.90
  Q 150.16 74.67 148.86 74.04" stroke="#d84945"></path>
<path d="M 185.71 105.68
  Q 182.84 104.94 180.59 103.25
  C 178.88 101.96 177.62 101.39 175.83 100.60
  A 1.37 1.37 0.0 0 1 175.16 99.96
  C 174.56 98.76 171.16 98.02 169.78 96.50
  Q 169.47 96.16 169.03 96.03
  C 165.97 95.08 164.33 92.75 161.88 91.53
  Q 160.12 90.65 158.37 89.77
  C 155.17 88.16 152.39 86.05 148.91 84.66
  A 1.58 1.56 85.6 0 1 148.15 84.00
  Q 147.54 82.97 146.50 82.36
  Q 146.14 82.16 145.74 82.15
  Q 144.14 82.13 143.11 80.92
  Q 142.77 80.53 142.33 80.27
  L 140.01 78.92" stroke="#c94356"></path>
<path d="M 181.00 116.49
  Q 179.87 116.39 179.20 115.57
  Q 178.90 115.21 178.46 115.08
  Q 178.23 115.01 177.99 114.97
  Q 177.48 114.87 177.17 114.45
  Q 176.42 113.43 175.22 113.11
  Q 174.71 112.97 174.35 112.59
  Q 173.67 111.88 172.67 111.87
  Q 172.25 111.86 172.10 111.47
  Q 171.81 110.74 170.97 110.91
  A 0.78 0.78 0.0 0 1 170.16 110.55
  Q 169.33 109.19 167.80 108.85
  Q 167.34 108.74 167.06 108.35
  Q 166.35 107.35 165.16 107.10
  Q 164.72 107.01 164.43 106.68
  Q 163.77 105.93 162.75 105.87
  Q 162.34 105.85 162.12 105.49
  Q 161.65 104.71 160.71 104.64
  A 1.14 1.14 0.0 0 1 159.84 104.13
  Q 159.17 103.11 158.01 102.85
  Q 157.49 102.73 157.12 102.35
  Q 156.73 101.95 156.18 101.81
  Q 155.76 101.70 155.39 101.46
  C 152.61 99.67 149.67 98.22 146.97 96.32
  C 146.20 95.78 145.55 95.87 144.73 95.16
  C 143.39 94.00 142.54 93.46 141.10 92.94
  C 140.10 92.58 139.72 91.96 138.97 91.26
  A 1.18 1.16 68.0 0 0 138.21 90.93
  Q 137.35 90.88 136.90 90.16
  Q 136.71 89.85 136.35 89.88
  Q 136.10 89.91 135.86 89.89
  Q 135.59 89.86 135.30 89.61
  Q 133.79 88.31 130.77 86.86
  Q 129.05 86.03 127.90 83.86" stroke="#b83b6a"></path>
<path d="M 175.80 125.36
  Q 173.92 124.99 173.19 123.86
  Q 172.95 123.49 172.51 123.43
  Q 171.32 123.27 170.56 122.30
  Q 170.42 122.12 170.19 122.12
  L 169.75 122.12
  Q 169.34 122.12 169.10 121.79
  C 168.02 120.27 166.64 120.60 165.63 119.42
  Q 165.39 119.13 165.02 119.12
  Q 164.85 119.12 164.68 119.12
  A 0.67 0.66 72.0 0 1 164.14 118.84
  C 163.03 117.26 161.46 117.59 160.55 116.26
  Q 160.46 116.12 160.28 116.12
  Q 160.08 116.12 159.88 116.12
  A 0.65 0.64 71.8 0 1 159.33 115.84
  Q 158.77 115.04 157.85 114.87
  Q 157.39 114.78 157.02 114.50
  L 155.58 113.39
  Q 155.23 113.12 154.79 113.13
  Q 154.26 113.14 153.98 112.70
  Q 153.76 112.36 153.37 112.24
  Q 152.27 111.87 151.41 111.14
  C 149.84 109.79 148.02 109.17 146.40 107.95
  C 145.19 107.05 143.69 106.65 142.44 105.79
  Q 140.40 104.38 139.63 103.98
  C 138.49 103.38 136.84 102.67 136.02 101.69
  Q 135.73 101.34 135.32 101.21
  C 133.14 100.48 131.65 99.02 129.58 98.12
  Q 128.38 97.60 127.70 96.28
  Q 127.51 95.91 127.15 95.70
  L 120.30 91.68
  Q 119.85 91.42 119.48 91.06
  Q 118.85 90.44 117.93 90.23
  Q 117.43 90.12 117.07 89.75
  Q 116.37 89.01 115.30 88.82
  Q 114.68 88.70 114.80 88.09
  L 114.96 87.24" stroke="#a6337d"></path>
<path d="M 166.87 137.68
  Q 166.46 136.16 165.73 135.48
  C 165.14 134.93 164.36 135.15 163.65 134.41
  Q 163.31 134.05 162.82 133.92
  Q 161.57 133.57 160.79 132.53
  Q 160.52 132.16 160.06 132.21
  Q 159.37 132.29 158.98 131.76
  Q 158.34 130.89 157.50 130.73
  Q 157.02 130.64 156.67 130.30
  C 155.58 129.25 154.15 128.79 153.11 128.11
  C 150.64 126.47 147.98 125.40 146.00 123.75
  Q 145.57 123.39 145.14 123.30
  Q 144.66 123.20 144.27 122.90
  Q 141.77 120.95 138.95 119.48
  C 138.07 119.02 137.55 118.50 136.61 118.19
  Q 134.97 117.64 133.71 116.46
  Q 133.40 116.17 132.98 116.16
  Q 132.74 116.15 132.51 116.08
  Q 132.22 115.99 131.86 115.56
  Q 131.39 115.01 130.72 114.79
  Q 130.25 114.64 129.84 114.34
  L 128.70 113.51
  Q 128.38 113.28 127.99 113.24
  Q 127.19 113.16 126.72 112.42
  Q 126.48 112.04 126.04 111.93
  Q 124.67 111.61 123.75 110.49
  Q 123.46 110.14 123.00 110.13
  Q 122.15 110.13 121.68 109.44
  Q 121.37 108.99 120.83 108.89
  Q 119.92 108.73 119.32 108.10
  Q 118.97 107.74 118.51 107.53
  Q 116.57 106.64 114.84 105.43
  C 112.95 104.12 110.77 103.21 108.94 101.76
  Q 108.55 101.46 108.07 101.34
  Q 107.45 101.18 106.98 100.75
  Q 106.68 100.47 106.30 100.32
  Q 105.08 99.84 104.11 98.86
  Q 103.75 98.49 103.25 98.39
  Q 102.37 98.20 101.80 97.56
  Q 101.50 97.22 101.05 97.14
  C 99.88 96.94 99.56 96.18 98.90 95.58
  Q 97.85 94.61 97.11 93.50" stroke="#952c90"></path>
<path d="M 168.77 143.24
  L 169.01 143.55
  Q 169.16 143.75 169.38 143.61
  Q 169.50 143.54 169.64 143.51
  Q 169.75 143.49 169.80 143.58
  Q 169.83 143.63 169.85 143.68
  Q 169.89 143.81 170.00 143.75
  Q 170.13 143.69 170.26 143.63
  Q 170.46 143.53 170.54 143.74
  Q 171.02 145.05 172.22 144.89
  Q 172.72 144.82 172.97 145.26
  Q 173.41 146.07 174.17 146.64
  Q 174.57 146.93 175.05 146.88
  Q 175.67 146.81 176.02 147.26
  Q 176.33 147.66 176.83 147.76
  C 179.02 148.18 180.11 149.79 182.25 150.58
  Q 183.19 150.93 184.06 151.64
  Q 185.95 153.19 188.29 154.04
  Q 188.75 154.20 189.07 154.57
  C 190.25 155.94 191.83 155.97 193.03 157.49
  Q 193.34 157.88 193.83 157.81
  Q 194.65 157.69 195.51 157.96" stroke="#952c90"></path>
<path d="M 191.67 176.47
  Q 190.32 175.31 189.00 174.22
  Q 188.51 173.81 187.79 173.88
  Q 187.33 173.92 187.12 173.50
  Q 186.71 172.67 185.83 172.88
  Q 185.38 172.98 185.14 172.59
  Q 184.30 171.23 182.85 170.83
  Q 182.37 170.69 182.05 170.30
  Q 181.73 169.89 181.28 169.87
  Q 180.79 169.84 180.38 169.58
  Q 179.47 169.00 178.88 168.19
  Q 178.57 167.75 178.05 167.87
  Q 177.21 168.06 177.02 167.36
  Q 176.89 166.83 176.34 166.87
  Q 174.12 167.01 172.80 165.28
  Q 172.47 164.85 171.93 164.89
  Q 171.17 164.94 170.76 164.27
  A 1.30 1.29 -12.1 0 0 169.78 163.64
  Q 168.81 163.54 168.24 162.73
  A 1.37 1.36 -11.5 0 0 167.40 162.18
  C 165.80 161.87 165.08 159.86 164.12 159.86
  Q 163.53 159.86 163.11 159.45
  L 161.70 158.08
  A 0.75 0.74 59.5 0 0 160.97 157.89
  Q 160.33 158.05 160.11 157.52
  Q 159.92 157.06 159.43 156.99
  C 157.50 156.71 157.92 155.55 156.67 155.00
  Q 156.28 154.84 155.76 154.88
  Q 155.28 154.93 155.10 154.48
  Q 154.80 153.72 153.90 153.89
  A 0.76 0.75 -20.8 0 1 153.11 153.54
  Q 152.59 152.69 151.79 152.08
  A 1.03 1.02 57.6 0 0 150.97 151.89
  Q 150.17 152.04 150.01 151.30
  Q 149.92 150.88 149.49 150.88
  L 148.95 150.88
  Q 148.57 150.88 148.30 150.61
  L 146.80 149.05
  A 0.73 0.72 -30.2 0 0 146.05 148.86
  Q 145.31 149.10 145.09 148.48
  Q 144.92 147.99 144.40 147.94
  Q 142.75 147.79 141.98 146.21
  Q 141.75 145.73 141.23 145.87
  Q 140.47 146.07 140.01 145.55
  Q 139.83 145.36 139.60 145.22
  L 131.38 140.48
  Q 130.96 140.24 130.66 139.86
  Q 129.95 138.94 128.79 138.85
  Q 128.29 138.81 128.20 138.32
  Q 127.97 137.09 127.22 137.42" stroke="#8223a5"></path>
<path d="M 112.67 136.14
  Q 111.64 134.95 110.42 133.81
  C 109.32 132.79 107.51 132.33 106.17 131.55
  C 105.40 131.10 105.07 130.30 104.00 129.90
  Q 100.74 128.70 97.74 126.30
  Q 97.37 126.01 96.91 125.95
  C 95.69 125.78 95.41 124.45 94.40 124.05
  C 92.49 123.31 90.42 122.34 88.77 121.05
  Q 86.85 119.55 84.55 118.78
  C 83.54 118.44 83.24 117.43 82.14 116.99
  Q 80.25 116.22 78.60 115.01
  C 78.03 114.60 77.73 113.99 76.87 113.82
  Q 76.41 113.72 76.15 113.33
  Q 75.46 112.28 74.01 112.96" stroke="#8223a5"></path>
<path d="M 186.50 187.59
  Q 185.55 186.96 185.05 185.91
  Q 184.64 185.06 183.78 185.07
  Q 183.32 185.07 183.00 184.75
  L 181.65 183.40
  Q 181.35 183.10 180.93 183.13
  Q 180.26 183.17 179.89 182.65
  Q 179.64 182.31 179.22 182.22
  Q 177.94 181.97 177.18 180.95
  Q 176.87 180.55 176.43 180.31
  L 162.80 172.86" stroke="#701bb9"></path>
<path d="M 156.87 176.51
  Q 156.32 176.10 156.01 175.42
  Q 155.82 175.01 155.36 174.98
  Q 153.94 174.90 153.13 173.47
  Q 152.72 172.75 151.82 172.88
  Q 151.34 172.95 151.12 172.51
  Q 150.70 171.63 149.75 171.91
  A 0.68 0.68 0.0 0 1 148.95 171.56
  Q 148.25 170.15 146.82 169.81
  Q 146.37 169.71 146.08 169.33
  Q 145.70 168.83 145.15 168.85
  Q 144.55 168.88 144.11 168.45
  L 142.70 167.08
  A 0.78 0.77 -29.5 0 0 141.96 166.88
  Q 141.31 167.06 141.10 166.49
  Q 140.93 166.02 140.43 165.94
  Q 138.86 165.67 137.99 164.28
  Q 137.74 163.88 137.26 163.88
  L 136.74 163.88
  Q 136.27 163.88 136.09 163.45
  Q 135.80 162.77 135.03 162.88
  A 0.78 0.77 -20.6 0 1 134.27 162.54
  Q 133.85 161.90 133.07 161.81
  Q 132.57 161.76 132.15 161.49
  Q 131.41 161.03 130.97 160.29
  A 0.86 0.83 -14.7 0 0 130.24 159.88
  L 128.51 159.88
  Q 128.16 159.88 128.17 159.52
  Q 128.18 158.96 127.75 158.89
  Q 127.61 158.87 126.89 158.36
  Q 126.28 157.94 126.00 157.29
  Q 125.72 156.66 125.40 157.26
  L 125.22 157.59
  Q 125.04 157.93 124.83 157.60
  Q 124.58 157.19 124.22 156.92" stroke="#701bb9"></path>
<path d="M 105.98 145.48
  Q 104.52 143.37 102.73 142.80
  Q 102.28 142.66 101.91 142.35
  Q 101.10 141.65 99.76 141.92
  Q 99.22 142.03 99.06 141.46
  Q 98.89 140.88 98.28 140.88
  L 97.75 140.88
  Q 97.31 140.88 97.12 140.49
  Q 96.69 139.63 95.74 139.91
  A 0.67 0.67 0.0 0 1 94.95 139.56
  Q 94.25 138.15 92.82 137.81
  Q 92.36 137.70 92.08 137.33
  Q 91.63 136.73 90.93 136.89
  Q 90.41 137.00 90.06 136.60
  L 88.83 135.21
  Q 88.54 134.88 88.11 134.88
  L 87.76 134.88
  Q 87.38 134.88 87.20 134.54
  Q 86.75 133.70 85.94 133.89
  Q 85.42 134.00 85.07 133.61
  L 83.66 132.06
  Q 83.50 131.88 83.26 131.88
  Q 83.13 131.88 82.99 131.89
  A 0.87 0.85 71.8 0 1 82.24 131.50
  Q 81.73 130.73 80.78 130.88
  Q 80.30 130.96 80.04 130.56
  Q 79.22 129.31 77.84 128.85
  Q 77.36 128.69 77.05 128.30
  Q 76.67 127.81 76.11 127.86
  Q 75.53 127.90 75.11 127.48
  L 71.99 124.34
  A 1.09 1.07 73.6 0 0 71.47 124.05
  Q 70.35 123.80 69.39 122.61
  Q 68.93 122.03 67.99 122.45" stroke="#701bb9"></path>
<path d="M 163.33 211.33
  L 159.68 208.18
  Q 159.37 207.91 158.95 207.91
  L 157.72 207.90
  A 0.93 0.90 -15.4 0 1 156.97 207.49
  Q 156.59 206.92 155.86 206.87
  Q 155.21 206.82 154.94 206.23
  L 154.73 205.78
  Q 154.47 205.21 153.89 205.47
  L 153.30 205.73" stroke="#550fd9"></path>
<path d="M 80.86 162.47
  Q 79.85 161.95 78.66 161.89
  A 0.86 0.86 0.0 0 1 77.97 161.49
  Q 77.54 160.81 76.74 160.90
  Q 76.17 160.96 75.87 160.46
  Q 75.12 159.25 73.70 158.91
  Q 73.24 158.80 72.95 158.43
  Q 72.51 157.87 71.78 157.87
  Q 71.20 157.87 70.88 157.40
  Q 70.49 156.81 69.78 156.88
  Q 69.33 156.93 69.12 156.52
  Q 68.71 155.69 67.84 155.88
  Q 67.40 155.98 67.14 155.60
  Q 66.34 154.38 64.96 153.86
  Q 64.47 153.67 64.06 153.34
  L 62.44 152.03
  A 0.74 0.73 -46.0 0 0 61.49 152.05
  Q 60.09 153.28 60.40 155.73" stroke="#550fd9"></path>
</g>
<path d="M 17.87 0.00
  L 238.00 0.00
  Q 253.38 2.75 256.00 18.12
  L 256.00 238.00
  Q 253.23 253.37 237.88 256.00
  L 18.00 256.00
  Q 2.82 253.29 0.00 238.12
  L 0.00 17.76
  Q 2.89 2.75 17.87 0.00
  Z
  M 160.93 65.39
  L 148.86 74.04
  L 140.01 78.92
  L 127.90 83.86
  L 114.96 87.24
  Q 105.66 89.04 97.11 93.50
  Q 83.44 100.53 74.01 112.96
  L 67.99 122.45
  Q 59.90 138.02 60.40 155.73
  C 61.05 178.57 73.08 199.01 92.30 211.22
  Q 92.44 211.31 92.54 211.17
  L 92.54 211.17
  Q 92.64 211.04 92.52 210.93
  C 78.68 198.73 73.82 179.71 80.86 162.47
  L 84.04 156.43
  Q 84.37 155.81 84.62 156.47
  Q 89.70 169.79 101.27 178.06
  Q 101.58 178.28 101.51 177.91
  Q 98.09 160.36 105.98 145.48
  Q 108.76 140.36 112.67 136.14
  Q 122.28 125.76 136.41 122.30
  Q 137.77 121.97 136.76 122.94
  Q 130.61 128.87 127.22 137.42
  Q 123.37 146.85 124.22 156.92
  Q 125.62 173.80 137.57 185.15
  Q 137.94 185.50 138.45 185.39
  Q 148.62 183.05 156.87 176.51
  L 161.92 171.93
  Q 162.31 171.57 162.50 172.07
  L 162.80 172.86
  Q 164.43 191.96 153.30 205.73
  Q 142.96 218.05 127.21 220.67
  A 0.02 0.02 0.0 0 0 127.21 220.71
  C 139.71 222.12 153.45 217.44 163.33 211.33
  Q 177.86 202.36 186.50 187.59
  L 191.67 176.47
  Q 194.94 167.61 195.51 157.96
  Q 196.48 146.20 193.11 135.01
  A 0.33 0.32 68.3 0 0 192.65 134.81
  Q 181.25 140.46 168.77 143.24
  L 160.97 144.55
  Q 160.23 144.67 160.75 144.13
  L 166.87 137.68
  Q 172.29 131.85 175.80 125.36
  L 181.00 116.49
  Q 184.04 111.28 185.71 105.68
  L 188.35 97.05
  L 191.60 80.19
  Q 194.05 57.03 185.90 35.34
  A 0.28 0.27 -41.2 0 0 185.40 35.31
  C 178.90 47.31 170.92 56.25 160.93 65.39
  Z" fill="#ffffff"></path>
<path d="M 191.60 80.19
  Q 191.11 80.31 190.81 80.81
  A 1.26 0.16 -86.5 0 0 190.63 81.75
  Q 190.61 81.98 190.68 82.28
  Q 190.93 83.29 189.98 82.23
  Q 189.55 81.74 188.83 81.87
  Q 188.35 81.96 188.13 81.52
  Q 187.70 80.64 186.75 80.89
  A 0.53 0.52 -22.2 0 1 186.15 80.64
  Q 185.35 79.23 183.85 78.82
  Q 183.39 78.70 183.08 78.33
  Q 182.58 77.73 181.82 77.88
  Q 181.37 77.96 181.14 77.58
  Q 180.31 76.24 178.89 75.83
  Q 178.41 75.70 178.08 75.32
  Q 177.58 74.73 176.82 74.88
  Q 176.37 74.96 176.14 74.58
  Q 175.31 73.24 173.89 72.83
  Q 173.41 72.70 173.08 72.32
  Q 172.58 71.73 171.82 71.88
  Q 171.37 71.96 171.14 71.58
  Q 170.31 70.24 168.89 69.83
  Q 168.41 69.70 168.09 69.32
  Q 167.57 68.71 166.78 68.88
  Q 166.29 68.99 166.12 68.52
  Q 165.86 67.81 165.11 67.86
  Q 164.56 67.89 164.17 67.51
  L 162.66 66.04
  A 0.79 0.78 65.6 0 0 162.06 65.81
  Q 161.29 65.85 160.93 65.39
  C 170.92 56.25 178.90 47.31 185.40 35.31
  A 0.28 0.27 -41.2 0 1 185.90 35.34
  Q 194.05 57.03 191.60 80.19
  Z" fill="#f35527"></path>
<path d="M 160.93 65.39
  Q 161.29 65.85 162.06 65.81
  A 0.79 0.78 65.6 0 1 162.66 66.04
  L 164.17 67.51
  Q 164.56 67.89 165.11 67.86
  Q 165.86 67.81 166.12 68.52
  Q 166.29 68.99 166.78 68.88
  Q 167.57 68.71 168.09 69.32
  Q 168.41 69.70 168.89 69.83
  Q 170.31 70.24 171.14 71.58
  Q 171.37 71.96 171.82 71.88
  Q 172.58 71.73 173.08 72.32
  Q 173.41 72.70 173.89 72.83
  Q 175.31 73.24 176.14 74.58
  Q 176.37 74.96 176.82 74.88
  Q 177.58 74.73 178.08 75.32
  Q 178.41 75.70 178.89 75.83
  Q 180.31 76.24 181.14 77.58
  Q 181.37 77.96 181.82 77.88
  Q 182.58 77.73 183.08 78.33
  Q 183.39 78.70 183.85 78.82
  Q 185.35 79.23 186.15 80.64
  A 0.53 0.52 -22.2 0 0 186.75 80.89
  Q 187.70 80.64 188.13 81.52
  Q 188.35 81.96 188.83 81.87
  Q 189.55 81.74 189.98 82.23
  Q 190.93 83.29 190.68 82.28
  Q 190.61 81.98 190.63 81.75
  A 1.26 0.16 -86.5 0 1 190.81 80.81
  Q 191.11 80.31 191.60 80.19
  L 188.35 97.05
  L 182.32 94.20
  Q 182.15 94.12 181.96 94.11
  Q 181.81 94.10 181.66 94.10
  A 0.62 0.60 74.0 0 1 181.14 93.80
  Q 180.33 92.40 178.75 92.10
  A 1.15 1.15 0.0 0 1 177.99 91.59
  Q 177.67 91.08 177.19 91.08
  Q 176.65 91.08 176.24 90.73
  Q 174.72 89.39 172.94 88.52
  Q 171.40 87.77 169.79 86.60
  Q 168.21 85.46 166.28 84.91
  Q 166.14 84.87 166.07 84.74
  Q 165.99 84.60 165.92 84.45
  Q 165.78 84.17 165.48 84.11
  C 163.93 83.83 163.35 82.60 161.88 82.10
  Q 161.39 81.94 161.05 81.55
  Q 160.55 80.98 159.71 80.93
  Q 159.21 80.89 158.90 80.49
  Q 157.31 78.37 154.77 78.03
  Q 154.22 77.96 153.93 77.49
  Q 153.35 76.53 152.24 76.34
  Q 151.74 76.26 151.38 75.90
  Q 150.16 74.67 148.86 74.04
  L 160.93 65.39
  Z" fill="#df4c3d"></path>
<path d="M 188.35 97.05
  L 185.71 105.68
  Q 182.84 104.94 180.59 103.25
  C 178.88 101.96 177.62 101.39 175.83 100.60
  A 1.37 1.37 0.0 0 1 175.16 99.96
  C 174.56 98.76 171.16 98.02 169.78 96.50
  Q 169.47 96.16 169.03 96.03
  C 165.97 95.08 164.33 92.75 161.88 91.53
  Q 160.12 90.65 158.37 89.77
  C 155.17 88.16 152.39 86.05 148.91 84.66
  A 1.58 1.56 85.6 0 1 148.15 84.00
  Q 147.54 82.97 146.50 82.36
  Q 146.14 82.16 145.74 82.15
  Q 144.14 82.13 143.11 80.92
  Q 142.77 80.53 142.33 80.27
  L 140.01 78.92
  L 148.86 74.04
  Q 150.16 74.67 151.38 75.90
  Q 151.74 76.26 152.24 76.34
  Q 153.35 76.53 153.93 77.49
  Q 154.22 77.96 154.77 78.03
  Q 157.31 78.37 158.90 80.49
  Q 159.21 80.89 159.71 80.93
  Q 160.55 80.98 161.05 81.55
  Q 161.39 81.94 161.88 82.10
  C 163.35 82.60 163.93 83.83 165.48 84.11
  Q 165.78 84.17 165.92 84.45
  Q 165.99 84.60 166.07 84.74
  Q 166.14 84.87 166.28 84.91
  Q 168.21 85.46 169.79 86.60
  Q 171.40 87.77 172.94 88.52
  Q 174.72 89.39 176.24 90.73
  Q 176.65 91.08 177.19 91.08
  Q 177.67 91.08 177.99 91.59
  A 1.15 1.15 0.0 0 0 178.75 92.10
  Q 180.33 92.40 181.14 93.80
  A 0.62 0.60 74.0 0 0 181.66 94.10
  Q 181.81 94.10 181.96 94.11
  Q 182.15 94.12 182.32 94.20
  L 188.35 97.05
  Z" fill="#d1464c"></path>
<path d="M 140.01 78.92
  L 142.33 80.27
  Q 142.77 80.53 143.11 80.92
  Q 144.14 82.13 145.74 82.15
  Q 146.14 82.16 146.50 82.36
  Q 147.54 82.97 148.15 84.00
  A 1.58 1.56 85.6 0 0 148.91 84.66
  C 152.39 86.05 155.17 88.16 158.37 89.77
  Q 160.12 90.65 161.88 91.53
  C 164.33 92.75 165.97 95.08 169.03 96.03
  Q 169.47 96.16 169.78 96.50
  C 171.16 98.02 174.56 98.76 175.16 99.96
  A 1.37 1.37 0.0 0 0 175.83 100.60
  C 177.62 101.39 178.88 101.96 180.59 103.25
  Q 182.84 104.94 185.71 105.68
  Q 184.04 111.28 181.00 116.49
  Q 179.87 116.39 179.20 115.57
  Q 178.90 115.21 178.46 115.08
  Q 178.23 115.01 177.99 114.97
  Q 177.48 114.87 177.17 114.45
  Q 176.42 113.43 175.22 113.11
  Q 174.71 112.97 174.35 112.59
  Q 173.67 111.88 172.67 111.87
  Q 172.25 111.86 172.10 111.47
  Q 171.81 110.74 170.97 110.91
  A 0.78 0.78 0.0 0 1 170.16 110.55
  Q 169.33 109.19 167.80 108.85
  Q 167.34 108.74 167.06 108.35
  Q 166.35 107.35 165.16 107.10
  Q 164.72 107.01 164.43 106.68
  Q 163.77 105.93 162.75 105.87
  Q 162.34 105.85 162.12 105.49
  Q 161.65 104.71 160.71 104.64
  A 1.14 1.14 0.0 0 1 159.84 104.13
  Q 159.17 103.11 158.01 102.85
  Q 157.49 102.73 157.12 102.35
  Q 156.73 101.95 156.18 101.81
  Q 155.76 101.70 155.39 101.46
  C 152.61 99.67 149.67 98.22 146.97 96.32
  C 146.20 95.78 145.55 95.87 144.73 95.16
  C 143.39 94.00 142.54 93.46 141.10 92.94
  C 140.10 92.58 139.72 91.96 138.97 91.26
  A 1.18 1.16 68.0 0 0 138.21 90.93
  Q 137.35 90.88 136.90 90.16
  Q 136.71 89.85 136.35 89.88
  Q 136.10 89.91 135.86 89.89
  Q 135.59 89.86 135.30 89.61
  Q 133.79 88.31 130.77 86.86
  Q 129.05 86.03 127.90 83.86
  L 140.01 78.92
  Z" fill="#c03f60"></path>
<path d="M 127.90 83.86
  Q 129.05 86.03 130.77 86.86
  Q 133.79 88.31 135.30 89.61
  Q 135.59 89.86 135.86 89.89
  Q 136.10 89.91 136.35 89.88
  Q 136.71 89.85 136.90 90.16
  Q 137.35 90.88 138.21 90.93
  A 1.18 1.16 68.0 0 1 138.97 91.26
  C 139.72 91.96 140.10 92.58 141.10 92.94
  C 142.54 93.46 143.39 94.00 144.73 95.16
  C 145.55 95.87 146.20 95.78 146.97 96.32
  C 149.67 98.22 152.61 99.67 155.39 101.46
  Q 155.76 101.70 156.18 101.81
  Q 156.73 101.95 157.12 102.35
  Q 157.49 102.73 158.01 102.85
  Q 159.17 103.11 159.84 104.13
  A 1.14 1.14 0.0 0 0 160.71 104.64
  Q 161.65 104.71 162.12 105.49
  Q 162.34 105.85 162.75 105.87
  Q 163.77 105.93 164.43 106.68
  Q 164.72 107.01 165.16 107.10
  Q 166.35 107.35 167.06 108.35
  Q 167.34 108.74 167.80 108.85
  Q 169.33 109.19 170.16 110.55
  A 0.78 0.78 0.0 0 0 170.97 110.91
  Q 171.81 110.74 172.10 111.47
  Q 172.25 111.86 172.67 111.87
  Q 173.67 111.88 174.35 112.59
  Q 174.71 112.97 175.22 113.11
  Q 176.42 113.43 177.17 114.45
  Q 177.48 114.87 177.99 114.97
  Q 178.23 115.01 178.46 115.08
  Q 178.90 115.21 179.20 115.57
  Q 179.87 116.39 181.00 116.49
  L 175.80 125.36
  Q 173.92 124.99 173.19 123.86
  Q 172.95 123.49 172.51 123.43
  Q 171.32 123.27 170.56 122.30
  Q 170.42 122.12 170.19 122.12
  L 169.75 122.12
  Q 169.34 122.12 169.10 121.79
  C 168.02 120.27 166.64 120.60 165.63 119.42
  Q 165.39 119.13 165.02 119.12
  Q 164.85 119.12 164.68 119.12
  A 0.67 0.66 72.0 0 1 164.14 118.84
  C 163.03 117.26 161.46 117.59 160.55 116.26
  Q 160.46 116.12 160.28 116.12
  Q 160.08 116.12 159.88 116.12
  A 0.65 0.64 71.8 0 1 159.33 115.84
  Q 158.77 115.04 157.85 114.87
  Q 157.39 114.78 157.02 114.50
  L 155.58 113.39
  Q 155.23 113.12 154.79 113.13
  Q 154.26 113.14 153.98 112.70
  Q 153.76 112.36 153.37 112.24
  Q 152.27 111.87 151.41 111.14
  C 149.84 109.79 148.02 109.17 146.40 107.95
  C 145.19 107.05 143.69 106.65 142.44 105.79
  Q 140.40 104.38 139.63 103.98
  C 138.49 103.38 136.84 102.67 136.02 101.69
  Q 135.73 101.34 135.32 101.21
  C 133.14 100.48 131.65 99.02 129.58 98.12
  Q 128.38 97.60 127.70 96.28
  Q 127.51 95.91 127.15 95.70
  L 120.30 91.68
  Q 119.85 91.42 119.48 91.06
  Q 118.85 90.44 117.93 90.23
  Q 117.43 90.12 117.07 89.75
  Q 116.37 89.01 115.30 88.82
  Q 114.68 88.70 114.80 88.09
  L 114.96 87.24
  L 127.90 83.86
  Z" fill="#af3773"></path>
<path d="M 114.96 87.24
  L 114.80 88.09
  Q 114.68 88.70 115.30 88.82
  Q 116.37 89.01 117.07 89.75
  Q 117.43 90.12 117.93 90.23
  Q 118.85 90.44 119.48 91.06
  Q 119.85 91.42 120.30 91.68
  L 127.15 95.70
  Q 127.51 95.91 127.70 96.28
  Q 128.38 97.60 129.58 98.12
  C 131.65 99.02 133.14 100.48 135.32 101.21
  Q 135.73 101.34 136.02 101.69
  C 136.84 102.67 138.49 103.38 139.63 103.98
  Q 140.40 104.38 142.44 105.79
  C 143.69 106.65 145.19 107.05 146.40 107.95
  C 148.02 109.17 149.84 109.79 151.41 111.14
  Q 152.27 111.87 153.37 112.24
  Q 153.76 112.36 153.98 112.70
  Q 154.26 113.14 154.79 113.13
  Q 155.23 113.12 155.58 113.39
  L 157.02 114.50
  Q 157.39 114.78 157.85 114.87
  Q 158.77 115.04 159.33 115.84
  A 0.65 0.64 71.8 0 0 159.88 116.12
  Q 160.08 116.12 160.28 116.12
  Q 160.46 116.12 160.55 116.26
  C 161.46 117.59 163.03 117.26 164.14 118.84
  A 0.67 0.66 72.0 0 0 164.68 119.12
  Q 164.85 119.12 165.02 119.12
  Q 165.39 119.13 165.63 119.42
  C 166.64 120.60 168.02 120.27 169.10 121.79
  Q 169.34 122.12 169.75 122.12
  L 170.19 122.12
  Q 170.42 122.12 170.56 122.30
  Q 171.32 123.27 172.51 123.43
  Q 172.95 123.49 173.19 123.86
  Q 173.92 124.99 175.80 125.36
  Q 172.29 131.85 166.87 137.68
  Q 166.46 136.16 165.73 135.48
  C 165.14 134.93 164.36 135.15 163.65 134.41
  Q 163.31 134.05 162.82 133.92
  Q 161.57 133.57 160.79 132.53
  Q 160.52 132.16 160.06 132.21
  Q 159.37 132.29 158.98 131.76
  Q 158.34 130.89 157.50 130.73
  Q 157.02 130.64 156.67 130.30
  C 155.58 129.25 154.15 128.79 153.11 128.11
  C 150.64 126.47 147.98 125.40 146.00 123.75
  Q 145.57 123.39 145.14 123.30
  Q 144.66 123.20 144.27 122.90
  Q 141.77 120.95 138.95 119.48
  C 138.07 119.02 137.55 118.50 136.61 118.19
  Q 134.97 117.64 133.71 116.46
  Q 133.40 116.17 132.98 116.16
  Q 132.74 116.15 132.51 116.08
  Q 132.22 115.99 131.86 115.56
  Q 131.39 115.01 130.72 114.79
  Q 130.25 114.64 129.84 114.34
  L 128.70 113.51
  Q 128.38 113.28 127.99 113.24
  Q 127.19 113.16 126.72 112.42
  Q 126.48 112.04 126.04 111.93
  Q 124.67 111.61 123.75 110.49
  Q 123.46 110.14 123.00 110.13
  Q 122.15 110.13 121.68 109.44
  Q 121.37 108.99 120.83 108.89
  Q 119.92 108.73 119.32 108.10
  Q 118.97 107.74 118.51 107.53
  Q 116.57 106.64 114.84 105.43
  C 112.95 104.12 110.77 103.21 108.94 101.76
  Q 108.55 101.46 108.07 101.34
  Q 107.45 101.18 106.98 100.75
  Q 106.68 100.47 106.30 100.32
  Q 105.08 99.84 104.11 98.86
  Q 103.75 98.49 103.25 98.39
  Q 102.37 98.20 101.80 97.56
  Q 101.50 97.22 101.05 97.14
  C 99.88 96.94 99.56 96.18 98.90 95.58
  Q 97.85 94.61 97.11 93.50
  Q 105.66 89.04 114.96 87.24
  Z" fill="#9d2f87"></path>
<path d="M 97.11 93.50
  Q 97.85 94.61 98.90 95.58
  C 99.56 96.18 99.88 96.94 101.05 97.14
  Q 101.50 97.22 101.80 97.56
  Q 102.37 98.20 103.25 98.39
  Q 103.75 98.49 104.11 98.86
  Q 105.08 99.84 106.30 100.32
  Q 106.68 100.47 106.98 100.75
  Q 107.45 101.18 108.07 101.34
  Q 108.55 101.46 108.94 101.76
  C 110.77 103.21 112.95 104.12 114.84 105.43
  Q 116.57 106.64 118.51 107.53
  Q 118.97 107.74 119.32 108.10
  Q 119.92 108.73 120.83 108.89
  Q 121.37 108.99 121.68 109.44
  Q 122.15 110.13 123.00 110.13
  Q 123.46 110.14 123.75 110.49
  Q 124.67 111.61 126.04 111.93
  Q 126.48 112.04 126.72 112.42
  Q 127.19 113.16 127.99 113.24
  Q 128.38 113.28 128.70 113.51
  L 129.84 114.34
  Q 130.25 114.64 130.72 114.79
  Q 131.39 115.01 131.86 115.56
  Q 132.22 115.99 132.51 116.08
  Q 132.74 116.15 132.98 116.16
  Q 133.40 116.17 133.71 116.46
  Q 134.97 117.64 136.61 118.19
  C 137.55 118.50 138.07 119.02 138.95 119.48
  Q 141.77 120.95 144.27 122.90
  Q 144.66 123.20 145.14 123.30
  Q 145.57 123.39 146.00 123.75
  C 147.98 125.40 150.64 126.47 153.11 128.11
  C 154.15 128.79 155.58 129.25 156.67 130.30
  Q 157.02 130.64 157.50 130.73
  Q 158.34 130.89 158.98 131.76
  Q 159.37 132.29 160.06 132.21
  Q 160.52 132.16 160.79 132.53
  Q 161.57 133.57 162.82 133.92
  Q 163.31 134.05 163.65 134.41
  C 164.36 135.15 165.14 134.93 165.73 135.48
  Q 166.46 136.16 166.87 137.68
  L 160.75 144.13
  Q 160.23 144.67 160.97 144.55
  L 168.77 143.24
  L 169.01 143.55
  Q 169.16 143.75 169.38 143.61
  Q 169.50 143.54 169.64 143.51
  Q 169.75 143.49 169.80 143.58
  Q 169.83 143.63 169.85 143.68
  Q 169.89 143.81 170.00 143.75
  Q 170.13 143.69 170.26 143.63
  Q 170.46 143.53 170.54 143.74
  Q 171.02 145.05 172.22 144.89
  Q 172.72 144.82 172.97 145.26
  Q 173.41 146.07 174.17 146.64
  Q 174.57 146.93 175.05 146.88
  Q 175.67 146.81 176.02 147.26
  Q 176.33 147.66 176.83 147.76
  C 179.02 148.18 180.11 149.79 182.25 150.58
  Q 183.19 150.93 184.06 151.64
  Q 185.95 153.19 188.29 154.04
  Q 188.75 154.20 189.07 154.57
  C 190.25 155.94 191.83 155.97 193.03 157.49
  Q 193.34 157.88 193.83 157.81
  Q 194.65 157.69 195.51 157.96
  Q 194.94 167.61 191.67 176.47
  Q 190.32 175.31 189.00 174.22
  Q 188.51 173.81 187.79 173.88
  Q 187.33 173.92 187.12 173.50
  Q 186.71 172.67 185.83 172.88
  Q 185.38 172.98 185.14 172.59
  Q 184.30 171.23 182.85 170.83
  Q 182.37 170.69 182.05 170.30
  Q 181.73 169.89 181.28 169.87
  Q 180.79 169.84 180.38 169.58
  Q 179.47 169.00 178.88 168.19
  Q 178.57 167.75 178.05 167.87
  Q 177.21 168.06 177.02 167.36
  Q 176.89 166.83 176.34 166.87
  Q 174.12 167.01 172.80 165.28
  Q 172.47 164.85 171.93 164.89
  Q 171.17 164.94 170.76 164.27
  A 1.30 1.29 -12.1 0 0 169.78 163.64
  Q 168.81 163.54 168.24 162.73
  A 1.37 1.36 -11.5 0 0 167.40 162.18
  C 165.80 161.87 165.08 159.86 164.12 159.86
  Q 163.53 159.86 163.11 159.45
  L 161.70 158.08
  A 0.75 0.74 59.5 0 0 160.97 157.89
  Q 160.33 158.05 160.11 157.52
  Q 159.92 157.06 159.43 156.99
  C 157.50 156.71 157.92 155.55 156.67 155.00
  Q 156.28 154.84 155.76 154.88
  Q 155.28 154.93 155.10 154.48
  Q 154.80 153.72 153.90 153.89
  A 0.76 0.75 -20.8 0 1 153.11 153.54
  Q 152.59 152.69 151.79 152.08
  A 1.03 1.02 57.6 0 0 150.97 151.89
  Q 150.17 152.04 150.01 151.30
  Q 149.92 150.88 149.49 150.88
  L 148.95 150.88
  Q 148.57 150.88 148.30 150.61
  L 146.80 149.05
  A 0.73 0.72 -30.2 0 0 146.05 148.86
  Q 145.31 149.10 145.09 148.48
  Q 144.92 147.99 144.40 147.94
  Q 142.75 147.79 141.98 146.21
  Q 141.75 145.73 141.23 145.87
  Q 140.47 146.07 140.01 145.55
  Q 139.83 145.36 139.60 145.22
  L 131.38 140.48
  Q 130.96 140.24 130.66 139.86
  Q 129.95 138.94 128.79 138.85
  Q 128.29 138.81 128.20 138.32
  Q 127.97 137.09 127.22 137.42
  Q 130.61 128.87 136.76 122.94
  Q 137.77 121.97 136.41 122.30
  Q 122.28 125.76 112.67 136.14
  Q 111.64 134.95 110.42 133.81
  C 109.32 132.79 107.51 132.33 106.17 131.55
  C 105.40 131.10 105.07 130.30 104.00 129.90
  Q 100.74 128.70 97.74 126.30
  Q 97.37 126.01 96.91 125.95
  C 95.69 125.78 95.41 124.45 94.40 124.05
  C 92.49 123.31 90.42 122.34 88.77 121.05
  Q 86.85 119.55 84.55 118.78
  C 83.54 118.44 83.24 117.43 82.14 116.99
  Q 80.25 116.22 78.60 115.01
  C 78.03 114.60 77.73 113.99 76.87 113.82
  Q 76.41 113.72 76.15 113.33
  Q 75.46 112.28 74.01 112.96
  Q 83.44 100.53 97.11 93.50
  Z" fill="#8d2899"></path>
<path d="M 112.67 136.14
  Q 108.76 140.36 105.98 145.48
  Q 104.52 143.37 102.73 142.80
  Q 102.28 142.66 101.91 142.35
  Q 101.10 141.65 99.76 141.92
  Q 99.22 142.03 99.06 141.46
  Q 98.89 140.88 98.28 140.88
  L 97.75 140.88
  Q 97.31 140.88 97.12 140.49
  Q 96.69 139.63 95.74 139.91
  A 0.67 0.67 0.0 0 1 94.95 139.56
  Q 94.25 138.15 92.82 137.81
  Q 92.36 137.70 92.08 137.33
  Q 91.63 136.73 90.93 136.89
  Q 90.41 137.00 90.06 136.60
  L 88.83 135.21
  Q 88.54 134.88 88.11 134.88
  L 87.76 134.88
  Q 87.38 134.88 87.20 134.54
  Q 86.75 133.70 85.94 133.89
  Q 85.42 134.00 85.07 133.61
  L 83.66 132.06
  Q 83.50 131.88 83.26 131.88
  Q 83.13 131.88 82.99 131.89
  A 0.87 0.85 71.8 0 1 82.24 131.50
  Q 81.73 130.73 80.78 130.88
  Q 80.30 130.96 80.04 130.56
  Q 79.22 129.31 77.84 128.85
  Q 77.36 128.69 77.05 128.30
  Q 76.67 127.81 76.11 127.86
  Q 75.53 127.90 75.11 127.48
  L 71.99 124.34
  A 1.09 1.07 73.6 0 0 71.47 124.05
  Q 70.35 123.80 69.39 122.61
  Q 68.93 122.03 67.99 122.45
  L 74.01 112.96
  Q 75.46 112.28 76.15 113.33
  Q 76.41 113.72 76.87 113.82
  C 77.73 113.99 78.03 114.60 78.60 115.01
  Q 80.25 116.22 82.14 116.99
  C 83.24 117.43 83.54 118.44 84.55 118.78
  Q 86.85 119.55 88.77 121.05
  C 90.42 122.34 92.49 123.31 94.40 124.05
  C 95.41 124.45 95.69 125.78 96.91 125.95
  Q 97.37 126.01 97.74 126.30
  Q 100.74 128.70 104.00 129.90
  C 105.07 130.30 105.40 131.10 106.17 131.55
  C 107.51 132.33 109.32 132.79 110.42 133.81
  Q 111.64 134.95 112.67 136.14
  Z" fill="#771eb1"></path>
<path d="M 105.98 145.48
  Q 98.09 160.36 101.51 177.91
  Q 101.58 178.28 101.27 178.06
  Q 89.70 169.79 84.62 156.47
  Q 84.37 155.81 84.04 156.43
  L 80.86 162.47
  Q 79.85 161.95 78.66 161.89
  A 0.86 0.86 0.0 0 1 77.97 161.49
  Q 77.54 160.81 76.74 160.90
  Q 76.17 160.96 75.87 160.46
  Q 75.12 159.25 73.70 158.91
  Q 73.24 158.80 72.95 158.43
  Q 72.51 157.87 71.78 157.87
  Q 71.20 157.87 70.88 157.40
  Q 70.49 156.81 69.78 156.88
  Q 69.33 156.93 69.12 156.52
  Q 68.71 155.69 67.84 155.88
  Q 67.40 155.98 67.14 155.60
  Q 66.34 154.38 64.96 153.86
  Q 64.47 153.67 64.06 153.34
  L 62.44 152.03
  A 0.74 0.73 -46.0 0 0 61.49 152.05
  Q 60.09 153.28 60.40 155.73
  Q 59.90 138.02 67.99 122.45
  Q 68.93 122.03 69.39 122.61
  Q 70.35 123.80 71.47 124.05
  A 1.09 1.07 73.6 0 1 71.99 124.34
  L 75.11 127.48
  Q 75.53 127.90 76.11 127.86
  Q 76.67 127.81 77.05 128.30
  Q 77.36 128.69 77.84 128.85
  Q 79.22 129.31 80.04 130.56
  Q 80.30 130.96 80.78 130.88
  Q 81.73 130.73 82.24 131.50
  A 0.87 0.85 71.8 0 0 82.99 131.89
  Q 83.13 131.88 83.26 131.88
  Q 83.50 131.88 83.66 132.06
  L 85.07 133.61
  Q 85.42 134.00 85.94 133.89
  Q 86.75 133.70 87.20 134.54
  Q 87.38 134.88 87.76 134.88
  L 88.11 134.88
  Q 88.54 134.88 88.83 135.21
  L 90.06 136.60
  Q 90.41 137.00 90.93 136.89
  Q 91.63 136.73 92.08 137.33
  Q 92.36 137.70 92.82 137.81
  Q 94.25 138.15 94.95 139.56
  A 0.67 0.67 0.0 0 0 95.74 139.91
  Q 96.69 139.63 97.12 140.49
  Q 97.31 140.88 97.75 140.88
  L 98.28 140.88
  Q 98.89 140.88 99.06 141.46
  Q 99.22 142.03 99.76 141.92
  Q 101.10 141.65 101.91 142.35
  Q 102.28 142.66 102.73 142.80
  Q 104.52 143.37 105.98 145.48
  Z" fill="#6918c1"></path>
<path d="M 195.51 157.96
  Q 194.65 157.69 193.83 157.81
  Q 193.34 157.88 193.03 157.49
  C 191.83 155.97 190.25 155.94 189.07 154.57
  Q 188.75 154.20 188.29 154.04
  Q 185.95 153.19 184.06 151.64
  Q 183.19 150.93 182.25 150.58
  C 180.11 149.79 179.02 148.18 176.83 147.76
  Q 176.33 147.66 176.02 147.26
  Q 175.67 146.81 175.05 146.88
  Q 174.57 146.93 174.17 146.64
  Q 173.41 146.07 172.97 145.26
  Q 172.72 144.82 172.22 144.89
  Q 171.02 145.05 170.54 143.74
  Q 170.46 143.53 170.26 143.63
  Q 170.13 143.69 170.00 143.75
  Q 169.89 143.81 169.85 143.68
  Q 169.83 143.63 169.80 143.58
  Q 169.75 143.49 169.64 143.51
  Q 169.50 143.54 169.38 143.61
  Q 169.16 143.75 169.01 143.55
  L 168.77 143.24
  Q 181.25 140.46 192.65 134.81
  A 0.33 0.32 68.3 0 1 193.11 135.01
  Q 196.48 146.20 195.51 157.96
  Z" fill="#9d2f87"></path>
<path d="M 127.22 137.42
  Q 127.97 137.09 128.20 138.32
  Q 128.29 138.81 128.79 138.85
  Q 129.95 138.94 130.66 139.86
  Q 130.96 140.24 131.38 140.48
  L 139.60 145.22
  Q 139.83 145.36 140.01 145.55
  Q 140.47 146.07 141.23 145.87
  Q 141.75 145.73 141.98 146.21
  Q 142.75 147.79 144.40 147.94
  Q 144.92 147.99 145.09 148.48
  Q 145.31 149.10 146.05 148.86
  A 0.73 0.72 -30.2 0 1 146.80 149.05
  L 148.30 150.61
  Q 148.57 150.88 148.95 150.88
  L 149.49 150.88
  Q 149.92 150.88 150.01 151.30
  Q 150.17 152.04 150.97 151.89
  A 1.03 1.02 57.6 0 1 151.79 152.08
  Q 152.59 152.69 153.11 153.54
  A 0.76 0.75 -20.8 0 0 153.90 153.89
  Q 154.80 153.72 155.10 154.48
  Q 155.28 154.93 155.76 154.88
  Q 156.28 154.84 156.67 155.00
  C 157.92 155.55 157.50 156.71 159.43 156.99
  Q 159.92 157.06 160.11 157.52
  Q 160.33 158.05 160.97 157.89
  A 0.75 0.74 59.5 0 1 161.70 158.08
  L 163.11 159.45
  Q 163.53 159.86 164.12 159.86
  C 165.08 159.86 165.80 161.87 167.40 162.18
  A 1.37 1.36 -11.5 0 1 168.24 162.73
  Q 168.81 163.54 169.78 163.64
  A 1.30 1.29 -12.1 0 1 170.76 164.27
  Q 171.17 164.94 171.93 164.89
  Q 172.47 164.85 172.80 165.28
  Q 174.12 167.01 176.34 166.87
  Q 176.89 166.83 177.02 167.36
  Q 177.21 168.06 178.05 167.87
  Q 178.57 167.75 178.88 168.19
  Q 179.47 169.00 180.38 169.58
  Q 180.79 169.84 181.28 169.87
  Q 181.73 169.89 182.05 170.30
  Q 182.37 170.69 182.85 170.83
  Q 184.30 171.23 185.14 172.59
  Q 185.38 172.98 185.83 172.88
  Q 186.71 172.67 187.12 173.50
  Q 187.33 173.92 187.79 173.88
  Q 188.51 173.81 189.00 174.22
  Q 190.32 175.31 191.67 176.47
  L 186.50 187.59
  Q 185.55 186.96 185.05 185.91
  Q 184.64 185.06 183.78 185.07
  Q 183.32 185.07 183.00 184.75
  L 181.65 183.40
  Q 181.35 183.10 180.93 183.13
  Q 180.26 183.17 179.89 182.65
  Q 179.64 182.31 179.22 182.22
  Q 177.94 181.97 177.18 180.95
  Q 176.87 180.55 176.43 180.31
  L 162.80 172.86
  L 162.50 172.07
  Q 162.31 171.57 161.92 171.93
  L 156.87 176.51
  Q 156.32 176.10 156.01 175.42
  Q 155.82 175.01 155.36 174.98
  Q 153.94 174.90 153.13 173.47
  Q 152.72 172.75 151.82 172.88
  Q 151.34 172.95 151.12 172.51
  Q 150.70 171.63 149.75 171.91
  A 0.68 0.68 0.0 0 1 148.95 171.56
  Q 148.25 170.15 146.82 169.81
  Q 146.37 169.71 146.08 169.33
  Q 145.70 168.83 145.15 168.85
  Q 144.55 168.88 144.11 168.45
  L 142.70 167.08
  A 0.78 0.77 -29.5 0 0 141.96 166.88
  Q 141.31 167.06 141.10 166.49
  Q 140.93 166.02 140.43 165.94
  Q 138.86 165.67 137.99 164.28
  Q 137.74 163.88 137.26 163.88
  L 136.74 163.88
  Q 136.27 163.88 136.09 163.45
  Q 135.80 162.77 135.03 162.88
  A 0.78 0.77 -20.6 0 1 134.27 162.54
  Q 133.85 161.90 133.07 161.81
  Q 132.57 161.76 132.15 161.49
  Q 131.41 161.03 130.97 160.29
  A 0.86 0.83 -14.7 0 0 130.24 159.88
  L 128.51 159.88
  Q 128.16 159.88 128.17 159.52
  Q 128.18 158.96 127.75 158.89
  Q 127.61 158.87 126.89 158.36
  Q 126.28 157.94 126.00 157.29
  Q 125.72 156.66 125.40 157.26
  L 125.22 157.59
  Q 125.04 157.93 124.83 157.60
  Q 124.58 157.19 124.22 156.92
  Q 123.37 146.85 127.22 137.42
  Z" fill="#771eb1"></path>
<path d="M 80.86 162.47
  C 73.82 179.71 78.68 198.73 92.52 210.93
  Q 92.64 211.04 92.54 211.17
  L 92.54 211.17
  Q 92.44 211.31 92.30 211.22
  C 73.08 199.01 61.05 178.57 60.40 155.73
  Q 60.09 153.28 61.49 152.05
  A 0.74 0.73 -46.0 0 1 62.44 152.03
  L 64.06 153.34
  Q 64.47 153.67 64.96 153.86
  Q 66.34 154.38 67.14 155.60
  Q 67.40 155.98 67.84 155.88
  Q 68.71 155.69 69.12 156.52
  Q 69.33 156.93 69.78 156.88
  Q 70.49 156.81 70.88 157.40
  Q 71.20 157.87 71.78 157.87
  Q 72.51 157.87 72.95 158.43
  Q 73.24 158.80 73.70 158.91
  Q 75.12 159.25 75.87 160.46
  Q 76.17 160.96 76.74 160.90
  Q 77.54 160.81 77.97 161.49
  A 0.86 0.86 0.0 0 0 78.66 161.89
  Q 79.85 161.95 80.86 162.47
  Z" fill="#4005f1"></path>
<path d="M 124.22 156.92
  Q 124.58 157.19 124.83 157.60
  Q 125.04 157.93 125.22 157.59
  L 125.40 157.26
  Q 125.72 156.66 126.00 157.29
  Q 126.28 157.94 126.89 158.36
  Q 127.61 158.87 127.75 158.89
  Q 128.18 158.96 128.17 159.52
  Q 128.16 159.88 128.51 159.88
  L 130.24 159.88
  A 0.86 0.83 -14.7 0 1 130.97 160.29
  Q 131.41 161.03 132.15 161.49
  Q 132.57 161.76 133.07 161.81
  Q 133.85 161.90 134.27 162.54
  A 0.78 0.77 -20.6 0 0 135.03 162.88
  Q 135.80 162.77 136.09 163.45
  Q 136.27 163.88 136.74 163.88
  L 137.26 163.88
  Q 137.74 163.88 137.99 164.28
  Q 138.86 165.67 140.43 165.94
  Q 140.93 166.02 141.10 166.49
  Q 141.31 167.06 141.96 166.88
  A 0.78 0.77 -29.5 0 1 142.70 167.08
  L 144.11 168.45
  Q 144.55 168.88 145.15 168.85
  Q 145.70 168.83 146.08 169.33
  Q 146.37 169.71 146.82 169.81
  Q 148.25 170.15 148.95 171.56
  A 0.68 0.68 0.0 0 0 149.75 171.91
  Q 150.70 171.63 151.12 172.51
  Q 151.34 172.95 151.82 172.88
  Q 152.72 172.75 153.13 173.47
  Q 153.94 174.90 155.36 174.98
  Q 155.82 175.01 156.01 175.42
  Q 156.32 176.10 156.87 176.51
  Q 148.62 183.05 138.45 185.39
  Q 137.94 185.50 137.57 185.15
  Q 125.62 173.80 124.22 156.92
  Z" fill="#6918c1"></path>
<path d="M 186.50 187.59
  Q 177.86 202.36 163.33 211.33
  L 159.68 208.18
  Q 159.37 207.91 158.95 207.91
  L 157.72 207.90
  A 0.93 0.90 -15.4 0 1 156.97 207.49
  Q 156.59 206.92 155.86 206.87
  Q 155.21 206.82 154.94 206.23
  L 154.73 205.78
  Q 154.47 205.21 153.89 205.47
  L 153.30 205.73
  Q 164.43 191.96 162.80 172.86
  L 176.43 180.31
  Q 176.87 180.55 177.18 180.95
  Q 177.94 181.97 179.22 182.22
  Q 179.64 182.31 179.89 182.65
  Q 180.26 183.17 180.93 183.13
  Q 181.35 183.10 181.65 183.40
  L 183.00 184.75
  Q 183.32 185.07 183.78 185.07
  Q 184.64 185.06 185.05 185.91
  Q 185.55 186.96 186.50 187.59
  Z" fill="#6918c1"></path>
<path d="M 163.33 211.33
  C 153.45 217.44 139.71 222.12 127.21 220.71
  A 0.02 0.02 0.0 0 1 127.21 220.67
  Q 142.96 218.05 153.30 205.73
  L 153.89 205.47
  Q 154.47 205.21 154.73 205.78
  L 154.94 206.23
  Q 155.21 206.82 155.86 206.87
  Q 156.59 206.92 156.97 207.49
  A 0.93 0.90 -15.4 0 0 157.72 207.90
  L 158.95 207.91
  Q 159.37 207.91 159.68 208.18
  L 163.33 211.33
  Z" fill="#4005f1"></path>
</svg>
