<svg viewBox="0.00 0.00 48.00 48.00" version="1.1" xmlns="http://www.w3.org/2000/svg">
<g stroke-linecap="butt" fill="none" stroke-width="2.00">
<path d="M 45.02 13.97
  Q 44.58 13.88 43.49 12.77" stroke="#b19af2"></path>
<path d="M 43.49 12.77
  Q 42.15 12.83 42.36 11.41
  Q 42.45 10.86 42.09 10.44
  C 36.73 4.06 27.74 1.43 19.73 3.40
  A 3.37 0.73 -46.4 0 0 17.98 4.59
  Q 17.07 5.41 18.01 6.23" stroke="#927cf1"></path>
<path d="M 18.01 6.23
  Q 18.57 10.37 15.95 12.37
  Q 15.85 12.45 15.75 12.25
  Q 15.71 12.17 15.78 12.11
  Q 18.78 9.70 17.21 5.99
  Q 17.00 5.50 17.20 5.01
  L 17.50 4.24
  Q 17.78 3.55 17.18 3.99
  Q 16.52 4.48 16.06 5.19
  Q 15.78 5.64 16.10 6.07
  Q 17.90 8.43 16.56 10.49
  Q 15.73 11.75 14.00 13.37
  Q 12.05 15.19 9.17 15.20
  Q 8.64 15.20 8.30 14.79
  Q 7.45 13.76 6.04 13.87
  Q 5.50 13.91 5.38 13.39
  Q 5.27 12.94 5.45 12.26" stroke="#b19af2"></path>
<path d="M 8.68 8.23
  Q 8.42 10.16 9.10 11.91
  A 1.60 1.60 0.0 0 0 11.26 12.78
  Q 13.59 11.69 14.81 9.53
  A 1.61 1.60 -51.7 0 0 14.60 7.67
  Q 13.06 5.97 10.23 6.71" stroke="#d7bff8"></path>
<path d="M 43.49 12.77
  L 45.25 16.55" stroke="#8570f0"></path>
<path d="M 45.25 16.55
  Q 43.07 14.70 40.28 11.37
  Q 39.38 10.29 38.03 10.35
  Q 37.65 10.37 37.30 10.22
  Q 36.41 9.85 35.63 9.37
  Q 35.56 9.32 35.50 9.25
  Q 35.34 9.08 35.55 9.18
  Q 36.01 9.41 36.58 9.45
  Q 37.70 9.51 36.73 8.94
  Q 35.74 8.36 35.09 7.42
  Q 34.81 7.02 34.35 6.88
  Q 33.33 6.58 32.26 6.62
  Q 32.03 6.63 32.25 6.72
  Q 32.43 6.80 32.67 6.80
  Q 32.69 6.80 32.69 6.82
  Q 32.68 6.83 32.68 6.85
  Q 32.68 6.90 32.64 6.89
  C 29.96 6.44 24.63 6.22 22.98 9.05
  Q 21.59 11.43 20.04 13.69
  C 18.99 15.22 15.69 18.20 14.09 18.86
  C 9.82 20.63 5.78 20.73 2.03 24.67" stroke="#5541d9"></path>
<path d="M 2.28 21.35
  Q 4.06 20.83 3.81 19.07
  A 1.79 1.78 89.4 0 1 5.79 17.04
  Q 14.92 18.17 18.91 10.64
  Q 19.04 10.40 18.76 10.11
  Q 18.51 9.85 18.47 10.21
  Q 18.42 10.58 18.19 10.84
  Q 18.08 10.96 18.03 10.80
  Q 17.95 10.55 18.04 10.34
  C 18.56 9.14 18.40 7.43 18.01 6.23" stroke="#8570f0"></path>
<path d="M 46.18 16.76
  Q 45.82 17.02 45.32 16.77" stroke="#8570f0"></path>
<path d="M 45.25 16.55
  Q 45.28 16.66 45.32 16.77" stroke="#7460da"></path>
<path d="M 45.32 16.77
  Q 45.58 18.95 46.75 18.69" stroke="#5541d9"></path>
<path d="M 47.21 20.81
  Q 42.91 17.56 38.80 14.28
  C 36.88 12.75 33.76 12.07 31.39 11.56
  C 27.92 10.81 23.96 13.72 21.68 16.02
  Q 17.07 20.67 13.60 21.70
  Q 8.61 23.18 5.14 25.10
  Q 4.37 25.53 3.80 26.48
  Q 3.43 27.09 4.05 26.74
  Q 4.58 26.46 4.95 25.96
  Q 5.43 25.31 5.71 25.44
  Q 5.93 25.54 5.73 25.66
  Q 3.16 27.26 4.31 29.78" stroke="#3b2ab1"></path>
<path d="M 4.31 29.78
  Q 3.93 30.51 4.34 30.95" stroke="#34239f"></path>
<path d="M 4.34 30.95
  Q 3.94 30.85 3.79 30.35
  Q 3.66 29.91 3.45 30.32
  L 3.07 31.03" stroke="#3b2ab1"></path>
<path d="M 47.15 27.98
  Q 46.46 25.74 46.17 23.57
  Q 46.02 22.39 45.52 21.73
  Q 44.39 20.19 43.45 21.12" stroke="#312079"></path>
<path d="M 43.45 21.12
  L 39.47 19.57
  Q 39.08 19.42 38.84 19.09
  Q 38.50 18.62 37.92 18.63
  Q 37.62 18.63 37.35 18.48
  C 35.68 17.56 34.29 18.50 32.97 18.63
  Q 24.70 19.49 17.16 23.06
  A 1.11 1.08 38.4 0 1 16.47 23.13
  Q 15.66 22.92 15.30 23.57
  A 0.60 0.60 0.0 0 1 14.94 23.86
  Q 8.71 25.59 4.31 29.78" stroke="#2b1b8e"></path>
<path d="M 43.45 21.12
  Q 44.54 21.45 45.30 22.38
  Q 45.42 22.53 45.27 22.65
  L 45.06 22.82
  Q 44.76 23.05 44.51 22.76
  Q 43.91 22.05 43.00 22.12
  Q 42.97 22.12 43.00 22.13
  Q 43.30 22.24 43.43 22.43
  Q 43.59 22.64 43.55 23.11
  Q 43.50 23.59 43.54 24.19" stroke="#291966"></path>
<path d="M 43.54 24.19
  Q 36.67 23.65 30.23 25.22
  Q 27.32 25.93 17.76 28.14
  Q 12.52 29.34 9.12 33.01
  Q 8.63 33.54 8.61 35.43
  Q 8.61 35.89 8.15 35.85
  Q 7.91 35.82 7.76 35.97
  A 0.24 0.24 0.0 0 1 7.37 35.92
  Q 6.92 35.12 6.44 35.50" stroke="#1c0e61"></path>
<path d="M 6.44 35.50
  Q 4.80 33.81 4.34 30.95" stroke="#2b1b8e"></path>
<path d="M 9.72 41.31
  Q 11.15 41.17 8.32 38.07" stroke="#312079"></path>
<path d="M 8.32 38.07
  Q 11.15 40.74 13.33 40.78
  Q 13.81 40.79 14.13 41.13
  Q 14.64 41.67 15.12 41.90
  Q 18.83 43.66 22.32 44.78
  A 15.15 15.00 -35.4 0 0 26.63 45.49
  Q 29.01 45.53 32.93 43.42
  C 34.47 42.59 36.77 40.89 37.80 39.54
  Q 39.61 37.15 41.31 34.69
  Q 41.42 34.53 41.52 34.69
  Q 41.61 34.83 41.62 35.00
  A 0.02 0.02 0.0 0 0 41.66 35.00
  Q 41.88 34.44 42.18 33.91
  Q 42.31 33.67 42.48 33.65
  Q 42.85 33.61 42.64 34.04
  Q 42.58 34.17 42.50 34.31
  Q 42.21 34.83 42.51 34.51
  Q 42.75 34.25 43.00 34.51
  Q 43.27 34.77 42.98 35.01
  Q 42.76 35.21 42.67 35.41
  Q 42.44 35.98 42.80 35.45
  Q 45.79 31.12 44.55 25.97
  A 2.04 2.00 15.5 0 0 43.98 24.99
  Q 43.53 24.57 43.54 24.19" stroke="#22134c"></path>
<path d="M 8.32 38.07
  Q 7.42 37.66 6.44 35.50" stroke="#231573"></path>
</g>
<path d="M 45.02 13.97
  Q 44.58 13.88 43.49 12.77
  Q 42.15 12.83 42.36 11.41
  Q 42.45 10.86 42.09 10.44
  C 36.73 4.06 27.74 1.43 19.73 3.40
  A 3.37 0.73 -46.4 0 0 17.98 4.59
  Q 17.07 5.41 18.01 6.23
  Q 18.57 10.37 15.95 12.37
  Q 15.85 12.45 15.75 12.25
  Q 15.71 12.17 15.78 12.11
  Q 18.78 9.70 17.21 5.99
  Q 17.00 5.50 17.20 5.01
  L 17.50 4.24
  Q 17.78 3.55 17.18 3.99
  Q 16.52 4.48 16.06 5.19
  Q 15.78 5.64 16.10 6.07
  Q 17.90 8.43 16.56 10.49
  Q 15.73 11.75 14.00 13.37
  Q 12.05 15.19 9.17 15.20
  Q 8.64 15.20 8.30 14.79
  Q 7.45 13.76 6.04 13.87
  Q 5.50 13.91 5.38 13.39
  Q 5.27 12.94 5.45 12.26
  L 8.68 8.23
  Q 8.42 10.16 9.10 11.91
  A 1.60 1.60 0.0 0 0 11.26 12.78
  Q 13.59 11.69 14.81 9.53
  A 1.61 1.60 -51.7 0 0 14.60 7.67
  Q 13.06 5.97 10.23 6.71
  C 21.88 -2.29 38.22 0.68 45.02 13.97
  Z" fill="#bea6f3"></path>
<path d="M 43.49 12.77
  L 45.25 16.55
  Q 43.07 14.70 40.28 11.37
  Q 39.38 10.29 38.03 10.35
  Q 37.65 10.37 37.30 10.22
  Q 36.41 9.85 35.63 9.37
  Q 35.56 9.32 35.50 9.25
  Q 35.34 9.08 35.55 9.18
  Q 36.01 9.41 36.58 9.45
  Q 37.70 9.51 36.73 8.94
  Q 35.74 8.36 35.09 7.42
  Q 34.81 7.02 34.35 6.88
  Q 33.33 6.58 32.26 6.62
  Q 32.03 6.63 32.25 6.72
  Q 32.43 6.80 32.67 6.80
  Q 32.69 6.80 32.69 6.82
  Q 32.68 6.83 32.68 6.85
  Q 32.68 6.90 32.64 6.89
  C 29.96 6.44 24.63 6.22 22.98 9.05
  Q 21.59 11.43 20.04 13.69
  C 18.99 15.22 15.69 18.20 14.09 18.86
  C 9.82 20.63 5.78 20.73 2.03 24.67
  L 2.28 21.35
  Q 4.06 20.83 3.81 19.07
  A 1.79 1.78 89.4 0 1 5.79 17.04
  Q 14.92 18.17 18.91 10.64
  Q 19.04 10.40 18.76 10.11
  Q 18.51 9.85 18.47 10.21
  Q 18.42 10.58 18.19 10.84
  Q 18.08 10.96 18.03 10.80
  Q 17.95 10.55 18.04 10.34
  C 18.56 9.14 18.40 7.43 18.01 6.23
  Q 17.07 5.41 17.98 4.59
  A 3.37 0.73 -46.4 0 1 19.73 3.40
  C 27.74 1.43 36.73 4.06 42.09 10.44
  Q 42.45 10.86 42.36 11.41
  Q 42.15 12.83 43.49 12.77
  Z" fill="#6651ef"></path>
<path d="M 18.01 6.23
  C 18.40 7.43 18.56 9.14 18.04 10.34
  Q 17.95 10.55 18.03 10.80
  Q 18.08 10.96 18.19 10.84
  Q 18.42 10.58 18.47 10.21
  Q 18.51 9.85 18.76 10.11
  Q 19.04 10.40 18.91 10.64
  Q 14.92 18.17 5.79 17.04
  A 1.79 1.78 89.4 0 0 3.81 19.07
  Q 4.06 20.83 2.28 21.35
  Q 2.79 16.41 5.45 12.26
  Q 5.27 12.94 5.38 13.39
  Q 5.50 13.91 6.04 13.87
  Q 7.45 13.76 8.30 14.79
  Q 8.64 15.20 9.17 15.20
  Q 12.05 15.19 14.00 13.37
  Q 15.73 11.75 16.56 10.49
  Q 17.90 8.43 16.10 6.07
  Q 15.78 5.64 16.06 5.19
  Q 16.52 4.48 17.18 3.99
  Q 17.78 3.55 17.50 4.24
  L 17.20 5.01
  Q 17.00 5.50 17.21 5.99
  Q 18.78 9.70 15.78 12.11
  Q 15.71 12.17 15.75 12.25
  Q 15.85 12.45 15.95 12.37
  Q 18.57 10.37 18.01 6.23
  Z" fill="#a38ef1"></path>
<path d="M 8.68 8.23
  L 10.23 6.71
  Q 13.06 5.97 14.60 7.67
  A 1.61 1.60 -51.7 0 1 14.81 9.53
  Q 13.59 11.69 11.26 12.78
  A 1.60 1.60 0.0 0 1 9.10 11.91
  Q 8.42 10.16 8.68 8.23
  Z" fill="#f0d7fd"></path>
<path d="M 45.25 16.55
  Q 45.28 16.66 45.32 16.77
  Q 45.58 18.95 46.75 18.69
  Q 47.23 19.63 47.21 20.81
  Q 42.91 17.56 38.80 14.28
  C 36.88 12.75 33.76 12.07 31.39 11.56
  C 27.92 10.81 23.96 13.72 21.68 16.02
  Q 17.07 20.67 13.60 21.70
  Q 8.61 23.18 5.14 25.10
  Q 4.37 25.53 3.80 26.48
  Q 3.43 27.09 4.05 26.74
  Q 4.58 26.46 4.95 25.96
  Q 5.43 25.31 5.71 25.44
  Q 5.93 25.54 5.73 25.66
  Q 3.16 27.26 4.31 29.78
  Q 3.93 30.51 4.34 30.95
  Q 3.94 30.85 3.79 30.35
  Q 3.66 29.91 3.45 30.32
  L 3.07 31.03
  L 2.03 24.67
  C 5.78 20.73 9.82 20.63 14.09 18.86
  C 15.69 18.20 18.99 15.22 20.04 13.69
  Q 21.59 11.43 22.98 9.05
  C 24.63 6.22 29.96 6.44 32.64 6.89
  Q 32.68 6.90 32.68 6.85
  Q 32.68 6.83 32.69 6.82
  Q 32.69 6.80 32.67 6.80
  Q 32.43 6.80 32.25 6.72
  Q 32.03 6.63 32.26 6.62
  Q 33.33 6.58 34.35 6.88
  Q 34.81 7.02 35.09 7.42
  Q 35.74 8.36 36.73 8.94
  Q 37.70 9.51 36.58 9.45
  Q 36.01 9.41 35.55 9.18
  Q 35.34 9.08 35.50 9.25
  Q 35.56 9.32 35.63 9.37
  Q 36.41 9.85 37.30 10.22
  Q 37.65 10.37 38.03 10.35
  Q 39.38 10.29 40.28 11.37
  Q 43.07 14.70 45.25 16.55
  Z" fill="#4431c2"></path>
<path d="M 47.21 20.81
  Q 47.94 24.13 47.15 27.98
  Q 46.46 25.74 46.17 23.57
  Q 46.02 22.39 45.52 21.73
  Q 44.39 20.19 43.45 21.12
  L 39.47 19.57
  Q 39.08 19.42 38.84 19.09
  Q 38.50 18.62 37.92 18.63
  Q 37.62 18.63 37.35 18.48
  C 35.68 17.56 34.29 18.50 32.97 18.63
  Q 24.70 19.49 17.16 23.06
  A 1.11 1.08 38.4 0 1 16.47 23.13
  Q 15.66 22.92 15.30 23.57
  A 0.60 0.60 0.0 0 1 14.94 23.86
  Q 8.71 25.59 4.31 29.78
  Q 3.16 27.26 5.73 25.66
  Q 5.93 25.54 5.71 25.44
  Q 5.43 25.31 4.95 25.96
  Q 4.58 26.46 4.05 26.74
  Q 3.43 27.09 3.80 26.48
  Q 4.37 25.53 5.14 25.10
  Q 8.61 23.18 13.60 21.70
  Q 17.07 20.67 21.68 16.02
  C 23.96 13.72 27.92 10.81 31.39 11.56
  C 33.76 12.07 36.88 12.75 38.80 14.28
  Q 42.91 17.56 47.21 20.81
  Z" fill="#3222a0"></path>
<path d="M 43.49 12.77
  Q 44.58 13.88 45.02 13.97
  L 46.18 16.76
  Q 45.82 17.02 45.32 16.77
  Q 45.28 16.66 45.25 16.55
  L 43.49 12.77
  Z" fill="#a38ef1"></path>
<path d="M 45.32 16.77
  Q 45.82 17.02 46.18 16.76
  L 46.75 18.69
  Q 45.58 18.95 45.32 16.77
  Z" fill="#6651ef"></path>
<path d="M 43.45 21.12
  Q 44.54 21.45 45.30 22.38
  Q 45.42 22.53 45.27 22.65
  L 45.06 22.82
  Q 44.76 23.05 44.51 22.76
  Q 43.91 22.05 43.00 22.12
  Q 42.97 22.12 43.00 22.13
  Q 43.30 22.24 43.43 22.43
  Q 43.59 22.64 43.55 23.11
  Q 43.50 23.59 43.54 24.19
  Q 36.67 23.65 30.23 25.22
  Q 27.32 25.93 17.76 28.14
  Q 12.52 29.34 9.12 33.01
  Q 8.63 33.54 8.61 35.43
  Q 8.61 35.89 8.15 35.85
  Q 7.91 35.82 7.76 35.97
  A 0.24 0.24 0.0 0 1 7.37 35.92
  Q 6.92 35.12 6.44 35.50
  Q 4.80 33.81 4.34 30.95
  Q 3.93 30.51 4.31 29.78
  Q 8.71 25.59 14.94 23.86
  A 0.60 0.60 0.0 0 0 15.30 23.57
  Q 15.66 22.92 16.47 23.13
  A 1.11 1.08 38.4 0 0 17.16 23.06
  Q 24.70 19.49 32.97 18.63
  C 34.29 18.50 35.68 17.56 37.35 18.48
  Q 37.62 18.63 37.92 18.63
  Q 38.50 18.62 38.84 19.09
  Q 39.08 19.42 39.47 19.57
  L 43.45 21.12
  Z" fill="#23147b"></path>
<path d="M 47.15 27.98
  C 44.13 45.98 23.67 52.55 9.72 41.31
  Q 11.15 41.17 8.32 38.07
  Q 11.15 40.74 13.33 40.78
  Q 13.81 40.79 14.13 41.13
  Q 14.64 41.67 15.12 41.90
  Q 18.83 43.66 22.32 44.78
  A 15.15 15.00 -35.4 0 0 26.63 45.49
  Q 29.01 45.53 32.93 43.42
  C 34.47 42.59 36.77 40.89 37.80 39.54
  Q 39.61 37.15 41.31 34.69
  Q 41.42 34.53 41.52 34.69
  Q 41.61 34.83 41.62 35.00
  A 0.02 0.02 0.0 0 0 41.66 35.00
  Q 41.88 34.44 42.18 33.91
  Q 42.31 33.67 42.48 33.65
  Q 42.85 33.61 42.64 34.04
  Q 42.58 34.17 42.50 34.31
  Q 42.21 34.83 42.51 34.51
  Q 42.75 34.25 43.00 34.51
  Q 43.27 34.77 42.98 35.01
  Q 42.76 35.21 42.67 35.41
  Q 42.44 35.98 42.80 35.45
  Q 45.79 31.12 44.55 25.97
  A 2.04 2.00 15.5 0 0 43.98 24.99
  Q 43.53 24.57 43.54 24.19
  Q 43.50 23.59 43.55 23.11
  Q 43.59 22.64 43.43 22.43
  Q 43.30 22.24 43.00 22.13
  Q 42.97 22.12 43.00 22.12
  Q 43.91 22.05 44.51 22.76
  Q 44.76 23.05 45.06 22.82
  L 45.27 22.65
  Q 45.42 22.53 45.30 22.38
  Q 44.54 21.45 43.45 21.12
  Q 44.39 20.19 45.52 21.73
  Q 46.02 22.39 46.17 23.57
  Q 46.46 25.74 47.15 27.98
  Z" fill="#2f1e51"></path>
<path d="M 43.54 24.19
  Q 43.53 24.57 43.98 24.99
  A 2.04 2.00 15.5 0 1 44.55 25.97
  Q 45.79 31.12 42.80 35.45
  Q 42.44 35.98 42.67 35.41
  Q 42.76 35.21 42.98 35.01
  Q 43.27 34.77 43.00 34.51
  Q 42.75 34.25 42.51 34.51
  Q 42.21 34.83 42.50 34.31
  Q 42.58 34.17 42.64 34.04
  Q 42.85 33.61 42.48 33.65
  Q 42.31 33.67 42.18 33.91
  Q 41.88 34.44 41.66 35.00
  A 0.02 0.02 0.0 0 1 41.62 35.00
  Q 41.61 34.83 41.52 34.69
  Q 41.42 34.53 41.31 34.69
  Q 39.61 37.15 37.80 39.54
  C 36.77 40.89 34.47 42.59 32.93 43.42
  Q 29.01 45.53 26.63 45.49
  A 15.15 15.00 -35.4 0 1 22.32 44.78
  Q 18.83 43.66 15.12 41.90
  Q 14.64 41.67 14.13 41.13
  Q 13.81 40.79 13.33 40.78
  Q 11.15 40.74 8.32 38.07
  Q 7.42 37.66 6.44 35.50
  Q 6.92 35.12 7.37 35.92
  A 0.24 0.24 0.0 0 0 7.76 35.97
  Q 7.91 35.82 8.15 35.85
  Q 8.61 35.89 8.61 35.43
  Q 8.63 33.54 9.12 33.01
  Q 12.52 29.34 17.76 28.14
  Q 27.32 25.93 30.23 25.22
  Q 36.67 23.65 43.54 24.19
  Z" fill="#140746"></path>
<path d="M 4.34 30.95
  Q 4.80 33.81 6.44 35.50
  Q 7.42 37.66 8.32 38.07
  Q 11.15 41.17 9.72 41.31
  Q 4.91 36.94 3.07 31.03
  L 3.45 30.32
  Q 3.66 29.91 3.79 30.35
  Q 3.94 30.85 4.34 30.95
  Z" fill="#3222a0"></path>
</svg>
