<svg viewBox="0.00 0.00 256.00 256.00" version="1.1" xmlns="http://www.w3.org/2000/svg">
<path d="M 119.25 80.72
  L 119.25 25.25
  Q 119.25 24.75 119.75 24.75
  L 137.25 24.75
  Q 137.75 24.75 137.75 25.25
  L 137.75 79.49
  Q 137.75 80.20 138.20 79.65
  Q 151.88 63.06 165.31 46.33
  C 168.68 42.14 174.55 41.02 180.30 41.00
  Q 188.43 40.98 196.37 41.01
  Q 196.98 41.02 196.60 41.49
  Q 182.84 58.78 169.08 76.02
  Q 161.50 85.52 156.86 88.97
  C 140.29 101.31 113.36 100.39 97.52 87.69
  Q 93.90 84.79 88.19 77.63
  Q 73.75 59.53 59.30 41.38
  A 0.22 0.22 0.0 0 1 59.47 41.02
  Q 69.29 40.97 79.25 41.01
  C 85.00 41.03 89.32 44.68 93.16 49.45
  Q 105.89 65.24 118.81 80.88
  Q 119.25 81.42 119.25 80.72
  Z" fill="#ffffff"></path>
<path d="M 83.49 117.49
  A 0.13 0.13 0.0 0 0 83.58 117.27
  Q 68.25 102.72 52.88 88.12
  C 48.50 83.95 47.54 78.39 47.51 71.91
  Q 47.46 62.96 47.52 54.28
  Q 47.52 53.56 48.05 54.05
  Q 64.21 69.04 80.00 83.75
  Q 88.44 91.61 91.62 96.53
  C 98.99 107.92 100.34 120.47 99.62 134.00
  Q 98.86 148.32 91.40 159.80
  Q 88.28 164.61 80.32 172.01
  Q 64.13 187.08 47.97 202.06
  Q 47.51 202.49 47.51 201.86
  Q 47.50 191.95 47.49 181.75
  C 47.48 174.52 50.21 170.53 55.67 165.30
  Q 69.75 151.83 84.25 138.17
  Q 84.96 137.51 83.99 137.51
  L 33.24 137.49
  A 0.75 0.74 90.0 0 1 32.50 136.74
  L 32.51 118.25
  A 0.75 0.74 -90.0 0 1 33.25 117.50
  L 83.49 117.49
  Z" fill="#ffffff"></path>
<path d="M 172.60 138.92
  Q 187.82 153.32 203.23 168.00
  C 207.37 171.95 208.41 177.24 208.47 183.37
  Q 208.57 192.69 208.47 201.70
  Q 208.46 202.44 207.92 201.94
  Q 194.87 189.83 182.02 177.87
  Q 169.47 166.18 167.65 163.98
  C 157.40 151.57 155.23 136.25 156.51 120.27
  Q 157.60 106.83 164.64 96.18
  Q 167.95 91.18 178.25 81.61
  Q 193.08 67.83 207.94 54.09
  Q 208.41 53.65 208.43 54.29
  Q 208.66 63.83 208.47 73.24
  C 208.30 81.85 206.22 85.13 199.76 91.29
  Q 185.68 104.72 171.59 118.03
  Q 171.09 118.49 171.77 118.49
  L 222.75 118.52
  A 0.73 0.73 0.0 0 1 223.48 119.25
  L 223.50 137.74
  A 0.75 0.74 90.0 0 1 222.76 138.49
  L 172.77 138.51
  Q 172.16 138.51 172.60 138.92
  Z" fill="#ffffff"></path>
<path d="M 136.75 175.27
  L 136.75 230.87
  A 0.38 0.37 -90.0 0 1 136.38 231.25
  L 118.75 231.25
  Q 118.25 231.25 118.25 230.75
  L 118.25 176.72
  Q 118.25 175.72 117.62 176.50
  Q 104.33 192.83 90.78 209.51
  Q 86.68 214.57 78.75 214.77
  Q 69.15 215.02 59.65 215.03
  A 0.34 0.34 0.0 0 1 59.39 214.47
  Q 72.57 198.02 85.67 181.52
  Q 94.05 170.96 98.78 167.39
  C 114.85 155.27 140.95 155.20 157.10 167.25
  Q 161.71 170.69 169.34 180.27
  Q 182.97 197.41 196.57 214.45
  A 0.33 0.33 0.0 0 1 196.32 214.99
  Q 186.83 215.01 177.24 215.00
  C 171.28 215.00 167.17 211.82 163.20 206.97
  Q 150.38 191.32 137.26 175.09
  Q 136.75 174.45 136.75 175.27
  Z" fill="#ffffff"></path>
</svg>
