<svg viewBox="0 0 256 256" xmlns="http://www.w3.org/2000/svg"><g fill="none" stroke-width="2"><path d="m121.83 33.15-12.4 4.98" stroke="#bed2fd"/><path d="m109.43 38.13-13.4 5.56" stroke="#dce0fd"/><path d="m96.03 43.69-8.58 3.54" stroke="#eeecfd"/><path d="m87.45 47.23-12.38 5.21q-.39.16-.7.46l-1.64 1.57q-.33.32-.04.67.48.59.7 1.32.14.47.63.44c2.01-.12 3.11-.11 5.16.69 1.26.49 3.6.23 4.3.61q.22.12.35.31.34.48-.17.78-.59.34-1.47.3" stroke="#f8f4fe"/><path d="m82.19 59.59-.72.03" stroke="#9bc5fd"/><path d="M81.47 59.62q-7-1.01-13.96-2.14-9-1.45-10.6 7.41" stroke="#8ebaff"/><path d="m56.91 64.89-6.18 14.4" stroke="#dce0fd"/><path d="M50.73 79.29q-3 7.12-5.9 14.32-.84 2.09-.7 4.42.44 7.23.1 14.18-.03.59.47.27l4.44-2.89q.57-.37.77.28.06.21.07.48" stroke="#eeecfd"/><path d="m49.98 110.35-.52.58" stroke="#9bc5fd"/><path d="M49.46 110.93q-7.69 5.51-15.27 11.2c-1.42 1.06-2.61 2.54-2.89 4.13q-.74 4.31 2 8.07" stroke="#8ebaff"/><path d="m33.3 134.33 6.77 16.52" stroke="#dce0fd"/><path d="m40.07 150.85 5.79 14.08" stroke="#eeecfd"/><path d="m45.86 164.93 6.23 14.71q.15.36.48.58l3.28 2.14q.43.28.66-.19 1.33-2.76 1.52-5.82.05-.81.43-1.06.52-.34 1.36.02" stroke="#f8f4fe"/><path d="M59.82 175.31q-.84 7.23-2.23 14.44-1.48 7.7 7.26 9.6" stroke="#8ebaff"/><path d="m64.85 199.35 10.94 4.71" stroke="#dce0fd"/><path d="m75.79 204.06 17.19 7.07" stroke="#eeecfd"/><path d="M92.98 211.13q6.28 2.7 12.69 5.26c1.91.76 3.62.78 5.64 1.09q.45.07.86-.14 1.09-.56 2.28-.47.59.04.61-.54.05-1.89-1.28-3.18-.35-.34-.27-.81.1-.57.67-.65" stroke="#f8f4fe"/><path d="M114.18 211.69q3.33 4.34 6.69 8.64c3.15 4.02 5.99 6.18 10.93 4.02q8.19-3.6 16.43-7" stroke="#8ebaff"/><path d="m148.23 217.35 17.44-7.38" stroke="#bed2fd"/><path d="m165.67 209.97 6.17-2.45" stroke="#d2defc"/><path d="m171.84 207.52 17.12-6.97" stroke="#eeecfd"/><path d="M188.96 200.55q1.52-.44 1.51-1.84" stroke="#f8f4fe"/><path d="M190.47 198.71c4.69.46 6.77-1.81 8.52-6.05q3.69-8.92 7.29-17.85" stroke="#8ebaff"/><path d="m206.28 174.81 5.99-14.87" stroke="#bed2fd"/><path d="m212.27 159.94 3.25-8.04" stroke="#dce0fd"/><path d="m215.52 151.9 6.58-15.42q.27-.62-.31-.27-3.02 1.85-5.83 3.98-2.14 1.62-4.3 3.21-2.35 1.73-4.12 3.42c-2.05 1.96-4.54 4.08-6.17 6.4q-1.38 1.95-1.72-.16" stroke="#eeecfd"/><path d="m199.65 153.06 2.13-3.15" stroke="#d4eef9"/><path d="m201.78 149.91 4.89-4.73" stroke="#afd4fb"/><path d="m206.67 145.18 4.12-3.02" stroke="#9bc5fd"/><path d="M210.79 142.16q4.49-3.21 8.72-6.28c4.73-3.44 7.54-6.57 4.73-12.29q-1.57-3.21-3.46-7.47" stroke="#8ebaff"/><path d="m220.78 116.12-4.79-11.61" stroke="#bed2fd"/><path d="m215.99 104.51-4.31-10.26" stroke="#d2defc"/><path d="m211.68 94.25-2.03-4.85" stroke="#d4eef9"/><path d="m209.65 89.4-2.63-6.55" stroke="#eeecfd"/><path d="M207.02 82.85q-2.7-7.04-6.05-14.08-1.18-2.49-.78.24l.32 2.2a1.02.98 60.4 0 1-.2.78c-1.63 2.16-.28 4.16-1.71 6.41q-.55.87-.5 1.61.26 3.44-.84 6.65c-.52 1.54.67 3.73-1.53 4.48" stroke="#f8f4fe"/><path d="M195.73 91.14q.01-.49-.26-.61" stroke="#c4e4fa"/><path d="m195.47 90.53.74-8.35" stroke="#afd4fb"/><path d="M196.21 82.18q1.28-8.33 2.44-16.19c.73-5-1.61-7.17-6.11-9.02q-4.65-1.9-9.75-3.83" stroke="#8ebaff"/><path d="m182.79 53.14-5.26-2.27" stroke="#bed2fd"/><path d="m177.53 50.87-13.56-5.38" stroke="#d2defc"/><path d="m163.97 45.49-7.38-3.22" stroke="#edf9fd"/><path d="m156.59 42.27-9.11-3.75" stroke="#eeecfd"/><path d="M147.48 38.52q-2.47-1.18-6.55-2.6-1.27-.44-1.81-.29-1.41.38-.57 1.57l7.28 10.31q.22.32.04.66-.31.59-.87.42" stroke="#f8f4fe"/><path d="m145 48.59-1.47-1.88" stroke="#9bc5fd"/><path d="M143.53 46.71q-7.45-10.32-9.61-12.87-4.81-5.68-12.09-.69" stroke="#8ebaff"/><path d="M143.53 46.71q-.09.33-.24.5-.03.03-.78-.22-.2-.07-.12-.28a.32.32 0 0 0-.19-.41q-1.84-.64-2.19.98-.77 3.54-2.51 6.09c-.7 1.01-1.99 2-2.7 3.43q-.22.45.06.87.85 1.32.66 2.94" stroke="#2a80fd"/><path d="m135.52 60.61-10.48-13.39" stroke="#8ebaff"/><path d="M125.04 47.22q-2.72-3.57-3.75-5.48-1.85-3.42.54-8.59" stroke="#4d8dfd"/><path d="m139.6 64.53 5.19 4.05" stroke="#afd4fb"/><path d="m144.79 68.58 6.94 3.71" stroke="#d4eef9"/><path d="m177.78 66.94 3.98 1.56" stroke="#bed2fd"/><path d="M181.76 68.5q.47-.02.89.19.44.22.39.72l-.91 7.86" stroke="#8ebaff"/><path d="m182.13 77.27-1.4 10.02" stroke="#afd4fb"/><path d="m180.73 87.29.13 5.2" stroke="#c4e4fa"/><path d="M180.86 92.49q.78 6.14 2.93 11.71" stroke="#d4eef9"/><path d="m183.79 104.2 1.46 3.37" stroke="#edf9fd"/><path d="M185.25 107.57q3.6 7.1 9.68 12.21.38.32.87.27 1.86-.18 3.68.12.33.06.52.37.16.27.47.29l3.59.17q.44.02.51-.42.19-1.28 1.24-1.97" stroke="#f2fdfb"/><path d="m205.81 118.61.66 1.07" stroke="#d4eef9"/><path d="M206.47 119.68q.53 3.21 3.04 4.84" stroke="#d2defc"/><path d="m209.51 124.52-10.58 7.89" stroke="#8ebaff"/><path d="m198.93 132.41-7.65 7.45" stroke="#9bc5fd"/><path d="m191.28 139.86-2.13 2.82" stroke="#afd4fb"/><path d="m189.15 142.68-2.01 2.92" stroke="#d4eef9"/><path d="m187.14 145.6-2.05 3.92q-.2.38-.19.81.02.97-.56 1.78a1.01.03-79.1 0 0-.2.89q-.09.45.06.86.18.49-.06.94-3.54 6.62-2.91 14.18c.3 3.7-.16 10.02 4.77 10.72q.58.08.8-.46l.42-1.04q.22-.54.72-.23.42.26.67 1.11" stroke="#f2fdfb"/><path d="m188.61 179.08-1.25 3.91" stroke="#d2defc"/><path d="M187.36 182.99c-5.54-.77-11.67-2.5-17.28-2.44" stroke="#8ebaff"/><path d="m170.08 180.55-6.85.23" stroke="#9bc5fd"/><path d="M163.23 180.78q-2.91-.05-6.92 1.42" stroke="#afd4fb"/><path d="m156.31 182.2-7.88 3.13" stroke="#c4e4fa"/><path d="m148.43 185.33-6.69 4.3" stroke="#d4eef9"/><path d="M141.74 189.63q-6.75 6.03-11.01 12.86-.79 1.25.39 1.87.33.18.46.53.26.74 1.16.75 1.42.02 1.63 1.47" stroke="#f2fdfb"/><path d="m134.37 207.11-1.76.7q-.5.19-.46.73.08 1.01-.58 1.11" stroke="#d2defc"/><path d="m131.57 209.65-9.26-11.47" stroke="#8ebaff"/><path d="m122.31 198.18-4.16-4.71" stroke="#9bc5fd"/><path d="M118.15 193.47q-.69-1.21-2.04-1.96" stroke="#afd4fb"/><path d="m116.11 191.51-6.02-4.29" stroke="#c4e4fa"/><path d="m110.09 187.22-5.02-2.66" stroke="#d4eef9"/><path d="M105.07 184.56q-4.52-2.58-10.09-3.58" stroke="#edf9fd"/><path d="M94.98 180.98q-6.15-1.07-12.31.42c-1.4.33-3.06 0-4.61 1.08q-.39.26-.41.73-.07 1.12-.89 1.77a1.01 1.01 0 0 0 .49 1.79q1.9.25 3.85 1.92 1.26 1.08-.15 1.4" stroke="#f2fdfb"/><path d="m80.95 190.09-6.99-2.74" stroke="#bed2fd"/><path d="M73.96 187.35q-1.01-.11-.65-2.11c2.04-11.38 3.84-20.89-.41-32.26" stroke="#8ebaff"/><path d="M72.9 152.98q-1.43-4.56-4.81-9.31" stroke="#afd4fb"/><path d="M68.09 143.67q-.63-1.36-2-2.76" stroke="#c4e4fa"/><path d="m66.09 140.91-2.58-3.25" stroke="#d4eef9"/><path d="M63.51 137.66q-4.07-4.16-9.12-7.26c-2-1.23-3.85-.7-4.25 1.7a1.41 1.38 35.6 0 0 .16.91q1.63 2.94-.26 3.4" stroke="#edf9fd"/><path d="m50.04 136.41-1.72-3.88" stroke="#bed2fd"/><path d="m48.32 132.53-.74-1.12q-.3-.45.14-.78c9.53-6.89 18.26-12.11 23.63-23.89" stroke="#8ebaff"/><path d="M71.35 106.74q1.62-2.25 2.17-6.08" stroke="#afd4fb"/><path d="M73.52 100.66q.84-1.26 1.42-4.27" stroke="#c4e4fa"/><path d="m74.94 96.39.48-11.91" stroke="#d4eef9"/><path d="m75.42 84.48-1.53-8.55q-.09-.48-.53-.68-2.21-.98-3.72.8-.21.25-.4.31-.24.08-.44.02-.48-.14-.36-.63.12-.46-.06-.77" stroke="#f2fdfb"/><path d="M68.38 74.98q.25-.92.69-1.51.32-.42.85-.37l6.24.64" stroke="#8ebaff"/><path d="m76.16 73.74 5.82.81" stroke="#9bc5fd"/><path d="m81.98 74.55 8.24.68" stroke="#afd4fb"/><path d="M90.22 75.23q8.36-.41 16.01-3.72" stroke="#d4eef9"/><path d="M106.23 71.51q9.4-3.97 15.38-12.14a1.5 1.47 62.9 0 0 .28-.9q-.08-3 .97-5.85a1.33 1.33 0 0 0-1.4-1.78q-2.12.24-1.28-1.12" stroke="#f2fdfb"/><path d="M125.04 47.22q-2.34 1.81-4.86 2.5" stroke="#bed2fd"/><path d="m120.18 49.72-14.6 6.06" stroke="#b0d0f9"/><path d="m105.58 55.78-.6-.32" stroke="#92c1f6"/><path d="M104.98 55.46q3.78-2.12 5.7-5.3c1.78-2.95 1.19-7.03 1.13-10.51q0-.59-.59-.64-2.06-.17-1.79-.88" stroke="#9ab3fb"/><path d="M146.25 50.67q-.05 1.24-.67 1.73-.37.29-.44.75c-.22 1.39.77 1.99.97 3.03q.26 1.38-.05 2.74-.12.54-.58.84l-1.98 1.29a.69.69 0 0 0-.12 1.06l.21.21q.4.41-.05.77-1.29 1.03-2.58.21a.67.66-55.1 0 0-.88.16q-.35.44-.48 1.07" stroke="#4b9af9"/><path d="m139.6 64.53-4.08-3.92" stroke="#9bc5fd"/><path d="M106.23 71.51q-.08-.9-.92-1.4a1.12 1.11-66.6 0 1-.5-1.27q1.89-6.81.77-13.06" stroke="#c6ecf5"/><path d="M147.62 52.29q-.29 1.15-.46 1.15a1.1 1.1 0 0 0-.87 1.72c2.17 3.16 6.02 4.3 4.56 9.05q-.14.47-.53.77c-1.84 1.4-2.07 1.96-4.59 2.17q-.47.04-.57.51-.11.51-.37.92M90.22 75.23l-.23-.85a.7.7 0 0 0-.76-.52q-.6.08-1.06-.35-.51-.48-.36-1.16l1.92-9.38q.11-.51.56-.79.56-.35 1.24-.41.51-.04.59-.54.09-.52-.39-1.12" stroke="#84c3f5"/><path d="M71.35 106.74q-1.66.33-2.98 3.88" stroke="#3e8ffb"/><path d="m68.37 110.62-13.26-.02a1.24 1.24 0 0 1-1.06-1.89q1.17-1.93.43-2.48" stroke="#4b9af9"/><path d="M105.07 184.56q-.09 2.87-3.08 2.92-4.1.05-6.91 3.61c-.94 1.2-1.23 2.54-1.79 4.01" stroke="#c1e8f6"/><path d="m93.29 195.1-4.88-1.97" stroke="#abccfa"/><path d="M163.97 45.49c-.44 1.41.65 1.85.77 3.03q.19 1.86-1.35 3.08-.42.33-.34.85c.6 3.91 1.35 5.73-.77 9.39a.9.9 0 0 0 .93 1.34c2.69-.46 4.74-.82 7.39.42q2.52 1.17 5.25 2.08" stroke="#bfd8f9"/><path d="m175.85 65.68 1.93 1.26" stroke="#abccfa"/><path d="M177.78 66.94q-.55-.19-.5 1.11.03.78.84 1a.32.32 0 0 1 .21.44l-1.62 3.72q-.14.33-.46.5-2.8 1.47-5.5 1.55-2.17.06-10-.39-.13 0-.24-.07-.12-.08-.26-.16a1.06 1.04 60.2 0 0-.54-.15q-4.27-.05-7.98-2.2" stroke="#edf9fd"/><path d="M151.73 72.29q2.63-.85 4.87-2.44.13-.1.25-.39.17-.42.53-.7.82-.65.46-1.68-.18-.5-.7-.62l-2.64-.56a1.14 1.14 0 0 1-.9-1.16c.09-1.77.25-3.14-.65-4.83q-1-1.86-1.63-3.94" stroke="#c1e8f6"/><path d="m163.52 195.56-7.18 2.32" stroke="#bdd8f8"/><path d="m156.34 197.88-1.01.61" stroke="#b2d0f8"/><path d="m155.33 198.49-.32-.3q-.41-.39.07-.7.49-.32.7-.84.13-.33.01-.81-1.29-4.87-3.6-9.7a1.16 1.16 0 0 0-1.74-.43q-1.03.79-2.02-.38" stroke="#98d3f3"/><path d="m131.57 209.65 3.77 5.14" stroke="#6199fc"/><path d="M135.34 214.79q.75 2.8.02 5.83-.16.64.46.41 2.85-1.08 11.68-4.4 1.28-.48.73.72" stroke="#4d8dfd"/><path d="m114.18 211.69-1.27-1.79" stroke="#87aefe"/><path d="M73.52 100.66q-2.06 2.01-2.71 5.13-.1.48-.59.49l-12.28.26q-.4.01-.72.24-.3.21-.73.1-.61-.16-.35-.73.94-2.14-.08-2.32" stroke="#74b9f6"/><path d="M81.47 59.62q.09.11.14.26.15.47-.32.61-1.42.44-2.84.38a1.1 1.09-87.3 0 0-1.13 1.04q-.22 4.66-1.64 9.31-.09.32-.03.53.12.44.57.56.46.13.38.6-.06.37-.44.83" stroke="#2a80fd"/><path d="m68.38 74.98-2.71 5.98" stroke="#81b7fb"/><path d="M65.67 80.96q.18-3.94 2.13-7.64.28-.52-.3-.61l-5.36-.87" stroke="#4d8dfd"/><path d="M62.14 71.84q-4.1-1.5-5.23-6.95" stroke="#6b9afd"/><path d="m175.84 196.17-4.9-.92" stroke="#94bafc"/><path d="M170.94 195.25q-.7-.77.21-1.08 1.63-.55 1.13-2.2l-3.02-9.82a.59.59 0 0 0-.7-.4q-3.35.8-5.33-.97" stroke="#4b9af9"/><path d="m55.96 150.18.8 1.54" stroke="#92c1f6"/><path d="m56.76 151.72-.61.31" stroke="#82b7f7"/><path d="m56.15 152.03-3.87-5.08q-.29-.39-.76-.53-1.56-.48-2.87-1.41-2.16-1.54-3.1-2.1-1.2-.71-2.27-1.6c-1.5-1.25-3.3-2.15-4.69-3.73q-.18-.21-.39-.04-.28.21-.53-.14a.44.43-48.5 0 1-.02-.44q.33-.59.29-1.18" stroke="#9ab3fb"/><path d="M182.79 53.14q1.04 1.93 3.53 3.08.35.16.73.14.86-.03 1.56.5a.39.39 0 0 1-.09.67c-4.9 1.87-4.9 5.19-5.07 9.78q-.03.64-.66.59l-.54-.04q-.38-.03-.45.35-.03.12-.04.29" stroke="#4d8dfd"/><path d="M155.33 198.49q-5.67 3.21-9.53 8.23" stroke="#c2dbf7"/><path d="M145.8 206.72q-1 .55-.91-.71a.66.62-16 0 1 .29-.49q2.06-1.42 1.35-3.44" stroke="#a6cdf5"/><path d="m146.53 202.08 1.91-.78q.48-.19.22-.64-.34-.59-.94-.87-.52-.23-.7-.77l-2.99-8.62a.26.26 0 0 0-.28-.17q-1.46.23-2.01-.6" stroke="#c6ecf5"/><path d="M94.38 195.81q-2.03.09-4.1-.14-2.26-.24-4.05.01-5.9.85-11.85 1.33-.54.04-.98.35-.74.5-1.5.01-.33-.21-.32-.59.01-.47-.28-1.01" stroke="#9ab3fb"/><path d="M94.98 180.98c-2 1.09-2.96 2.81-4.63 4.25q-.34.3-.47.73-.33 1.1-1.39 1.73a1.34 1.29 89 0 0-.53.57q-.5.99-.77 1.08-2.72.9.03 1.72 2.12.62 1.19 2.07" stroke="#dff6f9"/><path d="m88.41 193.13-7.46-3.04" stroke="#b0d0f9"/><path d="M74.94 96.39q-1.28-.76-1.91 1.62a.51.5 6.9 0 1-.48.37l-11.13.19q-.35 0-.59-.24-.48-.5-1.18.16a.76.66 85.9 0 0-.12.16q-.41.81-1.28 1.63M110.09 187.22q-.96.2-.73 1.41a1.45 1.44 80.4 0 1-1.2 1.7q-.96.14-1.89-.11-.39-.11-.61-.46-.4-.66-.98-.8a1.51 1.5 13.2 0 0-1.84 1.13q-.41 1.91-1.49 4.06c-.31.61-.3 1.44-1.2 1.87q-.31.15-.5.42-.38.53-1.03.52" stroke="#98d3f3"/><path d="M98.62 196.96q-.4-.15-.84-.11" stroke="#c2dbf7"/><path d="m97.78 196.85-3.4-1.04" stroke="#b0cff7"/><path d="m94.38 195.81-1.09-.71" stroke="#92c1f6"/><path d="m190.47 198.71-14.63-2.54" stroke="#87aefe"/><path d="M175.84 196.17q.59-1.18 2.88-1.48.64-.08.4-.68-.53-1.27-.89-2.58c-.52-1.88-1.56-3.51-1.95-5.57-.28-1.52-1.07-2.31-2.03-3.39q-.32-.37-.81-.4l-3.32-.21q-.51-.04-.51-.54-.01-.43.47-.77" stroke="#2a80fd"/><path d="m73.96 187.35-2.66 8.42" stroke="#4d8dfd"/><path d="M71.3 195.77q-2.49 2.71-6.45 3.58" stroke="#6b9afd"/><path d="m59.82 175.31.91-5.02" stroke="#87aefe"/><path d="m146.53 202.08-12.16 5.03" stroke="#c4dcf8"/><path d="M165.67 209.97q-2.67-.25-5.27.97-2.03.95-3.55 1.02-6.94.31-13.88.13-.33-.01-.5.26-.1.15-.22.27-.2.21-.58.26-2.52.3-5.05.54-.34.04-.27.37l.07.35q.12.57-.44.72-.29.09-.64-.07" stroke="#90b1f9"/><path d="m116.11 191.51-4.16-1.7a.6.59-68.3 0 0-.78.34q-.64 1.62-2.32 2.06-.48.12-.8.49-1.5 1.7-1.15 3.98.02.12-.1.18-.16.08-.26-.04-.29-.33-.58-.01-1.86 2.07-.08 4.78" stroke="#74b9f6"/><path d="m105.88 201.59-7.26-4.63" stroke="#b2d0f8"/><path d="m196.35 162.18-.92.01" stroke="#a6cdf5"/><path d="M195.43 162.19q-3.22-.85-4.6-3.24c-.78-1.33-.59-3.35-1.5-4.98q-2.24-4.03-2.19-8.37" stroke="#c6ecf5"/><path d="M201.4 107.96q-4.03 1.5-8.63-.35-3.91-1.56-7.52-.04" stroke="#dff6f9"/><path d="M201.78 149.91q-1.72-.83-2.28-.07a3.21 3.01 34.7 0 1-4.23.63l-2.78-1.81q-.44-.29-.97-.25-1.2.08-1.83-.91-.27-.41-.3-.89l-.24-3.93" stroke="#84c3f5"/><path d="M210.79 142.16q-1.18-.75 1.09-2.63.43-.36.22-.87c-1.18-2.92-4.16-1.72-6.48-3.7q-.35-.3-.45-.75l-.3-1.38q-.12-.53-.62-.73-.45-.18-.4-.66.09-.76-.58-.4-1.52.83-2.8 1.93-.76.67-1.54-.56" stroke="#2a80fd"/><path d="m195.43 162.19-6.82 16.89" stroke="#c4dcf8"/><path d="m195.19 184.59-7.83-1.6" stroke="#6199fc"/><path d="M118.15 193.47q-4.97-1.12-8.12 4.68-.22.41-.65.61-1.38.66-1.73 2.24a1.07 1.05 26.9 0 0 .35 1.04l1.79 1.52q.35.3.32.76l-.1 1.64" stroke="#4b9af9"/><path d="M110.01 205.96q-.55-.21-.23-.19" stroke="#a8c9fa"/><path d="m109.78 205.77-3.9-4.18" stroke="#9ec1f9"/><path d="M196.79 97.22q-1.35-.7-2.8-3.19-.26-.44-.76-.48l-12.37-1.06" stroke="#98d3f3"/><path d="M84.83 60.03q-2.91 1.89-2.39 3.9.04.17-.05.83-.08.6-.6.95a.87.86-11.5 0 0-.37.55l-1.15 5.96a.61.61 0 0 0 .44.71l1.51.41a.56.56 0 0 1 .13 1.03q-.14.07-.37.18" stroke="#4b9af9"/><path d="M66.09 140.91q-.29-.06-.47.01-.43.18-.11.52.76.79.43 1.75-.18.54-.99 1.04c-2.03 1.26-2.42 2.9-3.52 4.61-.73 1.13-1.12 2.75-2.61 3.78q-.41.28-.82-.01l-1.24-.89" stroke="#98d3f3"/><path d="M211.68 94.25q-1.44.79-.02 3.22.26.45.25.97-.1 3.52-.9 6.96c-.19.83-.01 1.62-.33 2.5-.61 1.64-.78 2.98-1.13 4.53q-.07.31-.29.09l-.29-.28a.27.26 23 0 0-.45.18l-.22 6.09q-.01.4-.42.4-.35.01-.62-.11-.44-.2-.75.18-.24.29-.04.7" stroke="#a6cdf5"/><path d="m205.81 118.61-4.41-10.65" stroke="#c6ecf5"/><path d="M201.4 107.96q-.8-2.13-1.95-3.35a1.31 1.3 69.9 0 0-.92-.43q-6.55-.23-12.79-2.13a.89.88.4 0 0-1.11 1.09q.28.93-.84 1.06" stroke="#c1e8f6"/><path d="M75.42 84.48q-1.37.21-1.47 1.2a1.07 1.06 2.7 0 1-1.06.96h-5.87q-.37 0-.69-.2l-.24-.14q-.26-.15-.54-.02-.51.24-.46.66.06.49-.33.79-.56.45-1.45-.35" stroke="#c6ecf5"/><path d="m195.47 90.53-.29.33q-.43.49-.69-.11-.54-1.28-.52-2.7.01-.56-.54-.64l-10.14-1.51a1.26 1.26 0 0 0-1.23.53q-.53.77-1.33.86" stroke="#74b9f6"/><path d="m170.94 195.25-7.42.31" stroke="#a8c9fa"/><path d="M163.52 195.56q-.77.02-1.06-.35a.45.45 0 0 1 .31-.72q.53-.06.97-.34.48-.3.3-.82l-3.3-9.77q-.18-.55-.76-.53-2.18.05-3.67-.83" stroke="#74b9f6"/><path d="M196.21 82.18q-1.62-.87-1.29-3.84.06-.54-.48-.6-6.1-.73-8.06-1.33-1.89-.58-4.25.86" stroke="#3e8ffb"/><path d="M48.32 132.53q.15.47-.12.78-.41.47-.81 0-.22-.24-.28-.59a.92.92 0 0 0-1.55-.51q-3.26 3.18-7.62 3.57" stroke="#4d8dfd"/><path d="m37.94 135.78-4.64-1.45" stroke="#6b9afd"/><path d="M72.9 152.98q-.79 1.9-.05 4.48c1.36 4.7-3.09 7.04-5.56 10.79q-.65.98-1.42 1.87c-1.06 1.22-2.36.96-3.24 2.37q-.22.36-.32-.06-.48-2.19-1.58-2.14" stroke="#3e8ffb"/><path d="m60.73 170.29-.26-5.76" stroke="#a8c9fa"/><path d="M60.47 164.53q.05-1.59-.5-3.04" stroke="#9ec1f9"/><path d="M68.09 143.67q-.42 1.47.93 3.09.35.42.16.92-.5 1.33-1.77 1.8-.49.19-.83.58c-1.52 1.74-5.39 4.59-5.44 6.85q-.01.48-.26.89-.98 1.58-.91 3.69" stroke="#74b9f6"/><path d="m59.97 161.49-.47-2.14" stroke="#b2d0f8"/><path d="M206.67 145.18q-.62-1.13-1.66-1.63-.43-.2-.85.01c-1.44.74-2.95 1.74-4.59 1.26q-1.46-.42-2.68-1.35-.39-.3-.59-.75-.17-.39-.55-.63-.35-.22-1.07-.2-1.02.04-2.12-.06-.52-.04-.51-.56.02-1.33-.77-1.41" stroke="#4b9af9"/><path d="M215.99 104.51q-1.35.64.24 4.38.05.11.13.16.12.07.25.08.3.04.35.34.27 1.72.19 3.47c-.05 1.11-.72 1.84-.5 3.23q.07.45-.38.55-1.14.27-1.1 1.48.02.51.51.64.56.15.76.83.07.26-.05.5-.06.12-.12.25" stroke="#90b1f9"/><path d="m216.27 120.42-6.76 4.1" stroke="#6199fc"/><path d="M63.51 137.66q-.29-.08-.5-.03-.51.12-.33.61c.25.69.2 1.26-.33 1.84-1.3 1.44-2.45 2.76-3.25 4.63q-.66 1.55-1.41 3.1-.8 1.63-1.73 2.37" stroke="#c1e8f6"/><path d="m55.96 150.18-5.92-13.77" stroke="#abccfa"/><path d="m122.31 198.18.73 2.84a.69.68 84.3 0 1-.69.85q-2.11-.08-3.76 1.16a.96.92-12.4 0 0-.34.51l-1.97 7.2a.52.52 0 0 1-.93.17q-1.66-2.32-2.44-1.01" stroke="#2a80fd"/><path d="m112.91 209.9-2.9-3.94" stroke="#94bafc"/><path d="M104.98 55.46q-2.88 2.53-7.12 3.12" stroke="#b0cff7"/><path d="M97.86 58.58q-.67-2.6-.49-5.17c.24-3.55.28-5.41.21-8.2q-.02-.58-.59-.58h-.44q-.37 0-.43-.37l-.09-.57" stroke="#caccfb"/><path d="M147.48 38.52q1.64 3.34 1.08 4.63-.16.36-.18.76c-.06 1.27-.36 4.09 1.16 4.7q.44.18.71.57 2.14 3.05 5.89 3.35.15.01.04-.1-.1-.1-.2-.21a.28.28 0 0 1 .24-.47q4.06.73 5.63 4.73a1.18 1.18 0 0 1-.66 1.52q-1.02.41-1.01 1.5a1.36 1.35 17.8 0 1-2.15 1.1l-5.4-3.87" stroke="#e7e0fc"/><path d="M152.63 56.73q-.52-.62-1.31-.76" stroke="#e6edfb"/><path d="m151.32 55.97-3.7-3.68" stroke="#cde3f7"/><path d="m147.62 52.29-1.37-1.62" stroke="#a8c9fa"/><path d="M146.25 50.67 145 48.59" stroke="#94bafc"/><path d="m97.86 58.58-6.13 1.53" stroke="#c2dbf7"/><path d="M91.73 60.11q-.33.27-1.31.12" stroke="#9ec1f9"/><path d="M90.42 60.23q.33-.24.46-.57.18-.46-.24-.73l-1.11-.71a.85.83 16.5 0 1-.4-.71v-8.89a.32.31-84.5 0 0-.25-.31q-1.66-.35-1.43-1.08" stroke="#e7e0fc"/><path d="m90.42 60.23-5.59-.2" stroke="#a8c9fa"/><path d="m84.83 60.03-2.64-.44" stroke="#94bafc"/><path d="m68.37 110.62-5.14 5.88a1.36 1.34 20.8 0 1-1.04.46l-16.45-.32a.57.57 0 0 1-.35-1.01l4.57-3.83q.45-.37-.07-.64l-.43-.23" stroke="#2a80fd"/><path d="M62.14 71.84q.2 1.12-.57 1.56-.41.22-.41.68c-.02 1.85-1.02 2.96-1.06 4.65q-.11 4.81 1 9.5.12.51-.11.98-1.54 3.26-1.26 6.59" stroke="#9ab3fb"/><path d="m59.73 95.8-1.48 4.48" stroke="#b0cff7"/><path d="m58.25 100.28-2.19 3.55" stroke="#a0c4f8"/><path d="m56.06 103.83-1.58 2.4" stroke="#8cb5f9"/><path d="M54.48 106.23q-.22.1-.4.3" stroke="#78a6fb"/><path d="M54.08 106.53q.13-.52.01-.84-.24-.62-.76-.22-.29.22-.68.18-.53-.07-.53-.6V81.92a1.77 1.75-61.9 0 0-.29-.97l-1.1-1.66" stroke="#caccfb"/><path d="M177.53 50.87q-2.36-.06-5.06-1.12a1.47 1.47 0 0 0-2 1.24q-.08.91-.74 1.25a.99.96-5.6 0 0-.49.58q-.27.88.01 1.67.16.46.02.93-.45 1.57-.16 3.06.08.41-.33.45-2.03.21-1.64 2.24.09.44.43.73c1.26 1.08 2.98.94 4.01 1.33q2.46.93 4.27 2.45" stroke="#90b1f9"/><path d="M156.59 42.27q-.12 1.31.42 1.33 1.15.51 1.13 1.72-.01.47.35.78 1.46 1.26.46 2.71-.32.45-.14.97.5 1.48 1.91 1.82a1.14 1.13 83.1 0 1 .76.6q1.52 3.02 1.41 6.4-.02.5-.47.72l-1.6.79q-.39.2-.42.64l-.02.33a.26.25-2.8 0 1-.22.24q-2.96.32-3.96-.92c-1.11-1.36-2.37-2.37-3.57-3.67" stroke="#dbe5fb"/><path d="M188.96 200.55q-3.25-.96-6.56-1.22c-1.33-.11-2.16-.65-3.37-1.09q-.47-.17-.97-.09-1.96.33-3.81-.15-2.52-.66-3.61-.66-3.7-.03-7.4.06-.45.01-.82.29-1.23.94-2.42.57-.97-.3-1.52.12-.4.29-.89.29-.97.02-1.25-.79" stroke="#e7e0fc"/><path d="M171.84 207.52q-1.62-.76-3.93-.47-2.93.37-3.85.36-8.83-.12-17.66.16-.52.02-.57-.5l-.03-.35" stroke="#c0cbfa"/><path d="M65.67 80.96q-.43 2.9-2.36 6.42" stroke="#b0d0f9"/><path d="m63.31 87.38-3.58 8.42" stroke="#92c1f6"/><path d="m56.15 152.03 1.82 3.24q.22.38.63.51.43.13.28.52-.19.52.16.95.82 1.04.46 2.1" stroke="#a0c4f8"/><path d="M59.5 159.35q-4.08-1.25-7.6-3.36c-3.76-2.24-6.5-3.75-9.68-5.76q-.42-.26-.89-.11-.67.21-1.26.73M97.78 196.85q.25.69.05 1.17-.21.53-.77.37-.65-.19-.99.28-.32.44-.86.44-1.82-.02-3.59.39-7.53 1.73-15.2 2.53-.22.02-.38.18l-.27.27q-.27.27.05.48.32.22.47.59.1.24-.01.41-.16.24-.49.1" stroke="#caccfb"/><path d="M109.78 205.77q-1.34-.25-1.65.97-.14.52-.63.74-2.55 1.13-5.32.82-.54-.06-1.03.14-2.1.86-4.3 1.1-.47.06-.9.25l-2.97 1.34" stroke="#e7e0fc"/><path d="M206.28 174.81q-.16-.2-.17-.45-.01-.3-.31-.29-.21.02-.28.19-2.99 7.21-6.01 14.2a.46.46 0 0 1-.82.04q-1.33-2.37-3.5-3.91" stroke="#4d8dfd"/><path d="M195.19 184.59q0-2.63 1.9-3.4.28-.11.29-.41 0-.14-.01-.28-.02-.34.21-.59 2.04-2.21 4.47-3.95 2.38-1.71 3.46-3.41 2.22-3.5 3.72-7.53" stroke="#90b1f9"/><path d="M215.52 151.9q-5.82 7.82-12.77 13.11-.21.16-.49.14-.38-.02-.64.24l-4.02 4.01q-.22.23-.53.23-.18 0-.35.01-.33.01-.33-.32.02-.79-.78-.75" stroke="#caccfb"/><path d="m195.61 168.57.74-6.39" stroke="#c0cbfa"/><path d="M196.35 162.18q.75-4.89 3.3-9.12" stroke="#c2dbf7"/><path d="M220.78 116.12q-1.28.93.48 4.16.4.73-.4.52-2.32-.64-4.59-.38" stroke="#4d8dfd"/><path d="M212.27 159.94q-1.9 1.74-3.04 5.08" stroke="#9ab3fb"/><path d="m209.23 165.02-11.35 9.45q-.51.42-.78-.18-1.39-3.07-1.49-5.72" stroke="#aebffa"/><path d="M207.02 82.85q-1.78.27-.33 2.35.29.41.27.92-.17 4.69-1.53 9.74-1.29 4.77-1.56 10.38-.04.8.74 1.15.42.19.28.63-.12.4-.8.48" stroke="#e7e0fc"/><path d="M204.09 108.5q-4.79-4.98-7.3-11.28" stroke="#cde3f7"/><path d="m196.79 97.22-1.06-6.08" stroke="#bdd8f8"/><path d="M209.65 89.4q-.75 2.01.51 3.89.29.43.19.93-.16.82.44 1.34.1.08.08.21-.07.33-.47.36a.19.19 0 0 0-.18.17l-1.95 13.06a1.38 1.38 0 0 1-2.28.83l-1.9-1.69" stroke="#c2dbf7"/><path d="M60.47 164.53q-.29 0-.34-.24-.03-.15-.14-.04l-.31.31q-.25.26-.28.61l-.46 5.81a.37.37 0 0 1-.49.32c-2-.71-2.93-1.91-4.32-2.85q-3.81-2.59-8.27-3.52" stroke="#e7e0fc"/><path d="M54.08 106.53q-1.68 2.25-4.1 3.82" stroke="#8ab2fb"/></g><path d="M0 0h256v256H0V0Zm121.83 33.15-12.4 4.98-13.4 5.56-8.58 3.54-12.38 5.21q-.39.16-.7.46l-1.64 1.57q-.33.32-.04.67.48.59.7 1.32.14.47.63.44c2.01-.12 3.11-.11 5.16.69 1.26.49 3.6.23 4.3.61q.22.12.35.31.34.48-.17.78-.59.34-1.47.3l-.72.03q-7-1.01-13.96-2.14-9-1.45-10.6 7.41l-6.18 14.4q-3 7.12-5.9 14.32-.84 2.09-.7 4.42.44 7.23.1 14.18-.03.59.47.27l4.44-2.89q.57-.37.77.28.06.21.07.48l-.52.58q-7.69 5.51-15.27 11.2c-1.42 1.06-2.61 2.54-2.89 4.13q-.74 4.31 2 8.07l6.77 16.52 5.79 14.08 6.23 14.71q.15.36.48.58l3.28 2.14q.43.28.66-.19 1.33-2.76 1.52-5.82.05-.81.43-1.06.52-.34 1.36.02-.84 7.23-2.23 14.44-1.48 7.7 7.26 9.6l10.94 4.71 17.19 7.07q6.28 2.7 12.69 5.26c1.91.76 3.62.78 5.64 1.09q.45.07.86-.14 1.09-.56 2.28-.47.59.04.61-.54.05-1.89-1.28-3.18-.35-.34-.27-.81.1-.57.67-.65 3.33 4.34 6.69 8.64c3.15 4.02 5.99 6.18 10.93 4.02q8.19-3.6 16.43-7l17.44-7.38 6.17-2.45 17.12-6.97q1.52-.44 1.51-1.84c4.69.46 6.77-1.81 8.52-6.05q3.69-8.92 7.29-17.85l5.99-14.87 3.25-8.04 6.58-15.42q.27-.62-.31-.27-3.02 1.85-5.83 3.98-2.14 1.62-4.3 3.21-2.35 1.73-4.12 3.42c-2.05 1.96-4.54 4.08-6.17 6.4q-1.38 1.95-1.72-.16l2.13-3.15 4.89-4.73 4.12-3.02q4.49-3.21 8.72-6.28c4.73-3.44 7.54-6.57 4.73-12.29q-1.57-3.21-3.46-7.47l-4.79-11.61-4.31-10.26-2.03-4.85-2.63-6.55q-2.7-7.04-6.05-14.08-1.18-2.49-.78.24l.32 2.2a1.02.98 60.4 0 1-.2.78c-1.63 2.16-.28 4.16-1.71 6.41q-.55.87-.5 1.61.26 3.44-.84 6.65c-.52 1.54.67 3.73-1.53 4.48q.01-.49-.26-.61l.74-8.35q1.28-8.33 2.44-16.19c.73-5-1.61-7.17-6.11-9.02q-4.65-1.9-9.75-3.83l-5.26-2.27-13.56-5.38-7.38-3.22-9.11-3.75q-2.47-1.18-6.55-2.6-1.27-.44-1.81-.29-1.41.38-.57 1.57l7.28 10.31q.22.32.04.66-.31.59-.87.42l-1.47-1.88q-7.45-10.32-9.61-12.87-4.81-5.68-12.09-.69Z" fill="#fff"/><path d="M143.53 46.71q-.09.33-.24.5-.03.03-.78-.22-.2-.07-.12-.28a.32.32 0 0 0-.19-.41q-1.84-.64-2.19.98-.77 3.54-2.51 6.09c-.7 1.01-1.99 2-2.7 3.43q-.22.45.06.87.85 1.32.66 2.94l-10.48-13.39q-2.72-3.57-3.75-5.48-1.85-3.42.54-8.59 7.28-4.99 12.09.69 2.16 2.55 9.61 12.87Z" fill="#1d74ff"/><path d="M121.83 33.15q-2.39 5.17-.54 8.59 1.03 1.91 3.75 5.48-2.34 1.81-4.86 2.5l-14.6 6.06-.6-.32q3.78-2.12 5.7-5.3c1.78-2.95 1.19-7.03 1.13-10.51q0-.59-.59-.64-2.06-.17-1.79-.88l12.4-4.98Z" fill="#7ca5fa"/><path d="M147.48 38.52q1.64 3.34 1.08 4.63-.16.36-.18.76c-.06 1.27-.36 4.09 1.16 4.7q.44.18.71.57 2.14 3.05 5.89 3.35.15.01.04-.1-.1-.1-.2-.21a.28.28 0 0 1 .24-.47q4.06.73 5.63 4.73a1.18 1.18 0 0 1-.66 1.52q-1.02.41-1.01 1.5a1.36 1.35 17.8 0 1-2.15 1.1l-5.4-3.87q-.52-.62-1.31-.76l-3.7-3.68-1.37-1.62-1.25-2.08q.56.17.87-.42.18-.34-.04-.66l-7.28-10.31q-.84-1.19.57-1.57.54-.15 1.81.29 4.08 1.42 6.55 2.6Z" fill="#f1e8fc"/><path d="M109.43 38.13q-.27.71 1.79.88.59.05.59.64c.06 3.48.65 7.56-1.13 10.51q-1.92 3.18-5.7 5.3-2.88 2.53-7.12 3.12-.67-2.6-.49-5.17c.24-3.55.28-5.41.21-8.2q-.02-.58-.59-.58h-.44q-.37 0-.43-.37l-.09-.57 13.4-5.56Z" fill="#b8c0fb"/><path d="m147.48 38.52 9.11 3.75q-.12 1.31.42 1.33 1.15.51 1.13 1.72-.01.47.35.78 1.46 1.26.46 2.71-.32.45-.14.97.5 1.48 1.91 1.82a1.14 1.13 83.1 0 1 .76.6q1.52 3.02 1.41 6.4-.02.5-.47.72l-1.6.79q-.39.2-.42.64l-.02.33a.26.25-2.8 0 1-.22.24q-2.96.32-3.96-.92c-1.11-1.36-2.37-2.37-3.57-3.67l5.4 3.87a1.36 1.35 17.8 0 0 2.15-1.1q-.01-1.09 1.01-1.5a1.18 1.18 0 0 0 .66-1.52q-1.57-4-5.63-4.73a.28.28 0 0 0-.24.47q.1.11.2.21.11.11-.04.1-3.75-.3-5.89-3.35-.27-.39-.71-.57c-1.52-.61-1.22-3.43-1.16-4.7q.02-.4.18-.76.56-1.29-1.08-4.63Z" fill="#dcd8fb"/><path d="m156.59 42.27 7.38 3.22c-.44 1.41.65 1.85.77 3.03q.19 1.86-1.35 3.08-.42.33-.34.85c.6 3.91 1.35 5.73-.77 9.39a.9.9 0 0 0 .93 1.34c2.69-.46 4.74-.82 7.39.42q2.52 1.17 5.25 2.08l1.93 1.26q-.55-.19-.5 1.11.03.78.84 1a.32.32 0 0 1 .21.44l-1.62 3.72q-.14.33-.46.5-2.8 1.47-5.5 1.55-2.17.06-10-.39-.13 0-.24-.07-.12-.08-.26-.16a1.06 1.04 60.2 0 0-.54-.15q-4.27-.05-7.98-2.2 2.63-.85 4.87-2.44.13-.1.25-.39.17-.42.53-.7.82-.65.46-1.68-.18-.5-.7-.62l-2.64-.56a1.14 1.14 0 0 1-.9-1.16c.09-1.77.25-3.14-.65-4.83q-1-1.86-1.63-3.94.79.14 1.31.76c1.2 1.3 2.46 2.31 3.57 3.67q1 1.24 3.96.92a.26.25-2.8 0 0 .22-.24l.02-.33q.03-.44.42-.64l1.6-.79q.45-.22.47-.72.11-3.38-1.41-6.4a1.14 1.13 83.1 0 0-.76-.6q-1.41-.34-1.91-1.82-.18-.52.14-.97 1-1.45-.46-2.71-.36-.31-.35-.78.02-1.21-1.13-1.72-.54-.02-.42-1.33Z" fill="#daf2fa"/><path d="m96.03 43.69.09.57q.06.37.43.37h.44q.57 0 .59.58c.07 2.79.03 4.65-.21 8.2q-.18 2.57.49 5.17l-6.13 1.53q-.33.27-1.31.12.33-.24.46-.57.18-.46-.24-.73l-1.11-.71a.85.83 16.5 0 1-.4-.71v-8.89a.32.31-84.5 0 0-.25-.31q-1.66-.35-1.43-1.08l8.58-3.54Z" fill="#dcd8fb"/><path d="m163.97 45.49 13.56 5.38q-2.36-.06-5.06-1.12a1.47 1.47 0 0 0-2 1.24q-.08.91-.74 1.25a.99.96-5.6 0 0-.49.58q-.27.88.01 1.67.16.46.02.93-.45 1.57-.16 3.06.08.41-.33.45-2.03.21-1.64 2.24.09.44.43.73c1.26 1.08 2.98.94 4.01 1.33q2.46.93 4.27 2.45-2.73-.91-5.25-2.08c-2.65-1.24-4.7-.88-7.39-.42a.9.9 0 0 1-.93-1.34c2.12-3.66 1.37-5.48.77-9.39q-.08-.52.34-.85 1.54-1.22 1.35-3.08c-.12-1.18-1.21-1.62-.77-3.03Z" fill="#a4bdf8"/><path d="m143.53 46.71 1.47 1.88 1.25 2.08q-.05 1.24-.67 1.73-.37.29-.44.75c-.22 1.39.77 1.99.97 3.03q.26 1.38-.05 2.74-.12.54-.58.84l-1.98 1.29a.69.69 0 0 0-.12 1.06l.21.21q.4.41-.05.77-1.29 1.03-2.58.21a.67.66-55.1 0 0-.88.16q-.35.44-.48 1.07l-4.08-3.92q.19-1.62-.66-2.94-.28-.42-.06-.87c.71-1.43 2-2.42 2.7-3.43q1.74-2.55 2.51-6.09.35-1.62 2.19-.98a.32.32 0 0 1 .19.41q-.08.21.12.28.75.25.78.22.15-.17.24-.5Z" fill="#378bfb"/><path d="M87.45 47.23q-.23.73 1.43 1.08a.32.31-84.5 0 1 .25.31v8.89a.85.83 16.5 0 0 .4.71l1.11.71q.42.27.24.73-.13.33-.46.57l-5.59-.2-2.64-.44q.88.04 1.47-.3.51-.3.17-.78-.13-.19-.35-.31c-.7-.38-3.04-.12-4.3-.61-2.05-.8-3.15-.81-5.16-.69q-.49.03-.63-.44-.22-.73-.7-1.32-.29-.35.04-.67l1.64-1.57q.31-.3.7-.46l12.38-5.21Z" fill="#f1e8fc"/><path d="m125.04 47.22 10.48 13.39 4.08 3.92 5.19 4.05 6.94 3.71q3.71 2.15 7.98 2.2a1.06 1.04 60.2 0 1 .54.15q.14.08.26.16.11.07.24.07 7.83.45 10 .39 2.7-.08 5.5-1.55.32-.17.46-.5l1.62-3.72a.32.32 0 0 0-.21-.44q-.81-.22-.84-1-.05-1.3.5-1.11l3.98 1.56q.47-.02.89.19.44.22.39.72l-.91 7.86-1.4 10.02.13 5.2q.78 6.14 2.93 11.71l1.46 3.37q3.6 7.1 9.68 12.21.38.32.87.27 1.86-.18 3.68.12.33.06.52.37.16.27.47.29l3.59.17q.44.02.51-.42.19-1.28 1.24-1.97l.66 1.07q.53 3.21 3.04 4.84l-10.58 7.89-7.65 7.45-2.13 2.82-2.01 2.92-2.05 3.92q-.2.38-.19.81.02.97-.56 1.78a1.01.03-79.1 0 0-.2.89q-.09.45.06.86.18.49-.06.94-3.54 6.62-2.91 14.18c.3 3.7-.16 10.02 4.77 10.72q.58.08.8-.46l.42-1.04q.22-.54.72-.23.42.26.67 1.11l-1.25 3.91c-5.54-.77-11.67-2.5-17.28-2.44l-6.85.23q-2.91-.05-6.92 1.42l-7.88 3.13-6.69 4.3q-6.75 6.03-11.01 12.86-.79 1.25.39 1.87.33.18.46.53.26.74 1.16.75 1.42.02 1.63 1.47l-1.76.7q-.5.19-.46.73.08 1.01-.58 1.11l-9.26-11.47-4.16-4.71q-.69-1.21-2.04-1.96l-6.02-4.29-5.02-2.66q-4.52-2.58-10.09-3.58-6.15-1.07-12.31.42c-1.4.33-3.06 0-4.61 1.08q-.39.26-.41.73-.07 1.12-.89 1.77a1.01 1.01 0 0 0 .49 1.79q1.9.25 3.85 1.92 1.26 1.08-.15 1.4l-6.99-2.74q-1.01-.11-.65-2.11c2.04-11.38 3.84-20.89-.41-32.26q-1.43-4.56-4.81-9.31-.63-1.36-2-2.76l-2.58-3.25q-4.07-4.16-9.12-7.26c-2-1.23-3.85-.7-4.25 1.7a1.41 1.38 35.6 0 0 .16.91q1.63 2.94-.26 3.4l-1.72-3.88-.74-1.12q-.3-.45.14-.78c9.53-6.89 18.26-12.11 23.63-23.89q1.62-2.25 2.17-6.08.84-1.26 1.42-4.27l.48-11.91-1.53-8.55q-.09-.48-.53-.68-2.21-.98-3.72.8-.21.25-.4.31-.24.08-.44.02-.48-.14-.36-.63.12-.46-.06-.77.25-.92.69-1.51.32-.42.85-.37l6.24.64 5.82.81 8.24.68q8.36-.41 16.01-3.72 9.4-3.97 15.38-12.14a1.5 1.47 62.9 0 0 .28-.9q-.08-3 .97-5.85a1.33 1.33 0 0 0-1.4-1.78q-2.12.24-1.28-1.12 2.52-.69 4.86-2.5Z" fill="#fff"/><path d="M120.18 49.72q-.84 1.36 1.28 1.12a1.33 1.33 0 0 1 1.4 1.78q-1.05 2.85-.97 5.85a1.5 1.47 62.9 0 1-.28.9q-5.98 8.17-15.38 12.14-.08-.9-.92-1.4a1.12 1.11-66.6 0 1-.5-1.27q1.89-6.81.77-13.06l14.6-6.06Z" fill="#e4faf7"/><path d="m177.53 50.87 5.26 2.27q1.04 1.93 3.53 3.08.35.16.73.14.86-.03 1.56.5a.39.39 0 0 1-.09.67c-4.9 1.87-4.9 5.19-5.07 9.78q-.03.64-.66.59l-.54-.04q-.38-.03-.45.35-.03.12-.04.29l-3.98-1.56-1.93-1.26q-1.81-1.52-4.27-2.45c-1.03-.39-2.75-.25-4.01-1.33q-.34-.29-.43-.73-.39-2.03 1.64-2.24.41-.04.33-.45-.29-1.49.16-3.06.14-.47-.02-.93-.28-.79-.01-1.67a.99.96-5.6 0 1 .49-.58q.66-.34.74-1.25a1.47 1.47 0 0 1 2-1.24q2.7 1.06 5.06 1.12Z" fill="#7ca5fa"/><path d="m146.25 50.67 1.37 1.62q-.29 1.15-.46 1.15a1.1 1.1 0 0 0-.87 1.72c2.17 3.16 6.02 4.3 4.56 9.05q-.14.47-.53.77c-1.84 1.4-2.07 1.96-4.59 2.17q-.47.04-.57.51-.11.51-.37.92l-5.19-4.05q.13-.63.48-1.07a.67.66-55.1 0 1 .88-.16q1.29.82 2.58-.21.45-.36.05-.77l-.21-.21a.69.69 0 0 1 .12-1.06l1.98-1.29q.46-.3.58-.84.31-1.36.05-2.74c-.2-1.04-1.19-1.64-.97-3.03q.07-.46.44-.75.62-.49.67-1.73Z" fill="#5fa9f7"/><path d="m147.62 52.29 3.7 3.68q.63 2.08 1.63 3.94c.9 1.69.74 3.06.65 4.83a1.14 1.14 0 0 0 .9 1.16l2.64.56q.52.12.7.62.36 1.03-.46 1.68-.36.28-.53.7-.12.29-.25.39-2.24 1.59-4.87 2.44l-6.94-3.71q.26-.41.37-.92.1-.47.57-.51c2.52-.21 2.75-.77 4.59-2.17q.39-.3.53-.77c1.46-4.75-2.39-5.89-4.56-9.05a1.1 1.1 0 0 1 .87-1.72q.17 0 .46-1.15Z" fill="#a8ddf2"/><path d="M182.79 53.14q5.1 1.93 9.75 3.83c4.5 1.85 6.84 4.02 6.11 9.02q-1.16 7.86-2.44 16.19-1.62-.87-1.29-3.84.06-.54-.48-.6-6.1-.73-8.06-1.33-1.89-.58-4.25.86l.91-7.86q.05-.5-.39-.72-.42-.21-.89-.19.01-.17.04-.29.07-.38.45-.35l.54.04q.63.05.66-.59c.17-4.59.17-7.91 5.07-9.78a.39.39 0 0 0 .09-.67q-.7-.53-1.56-.5-.38.02-.73-.14-2.49-1.15-3.53-3.08Z" fill="#1d74ff"/><path d="m104.98 55.46.6.32q1.12 6.25-.77 13.06a1.12 1.11-66.6 0 0 .5 1.27q.84.5.92 1.4-7.65 3.31-16.01 3.72l-.23-.85a.7.7 0 0 0-.76-.52q-.6.08-1.06-.35-.51-.48-.36-1.16l1.92-9.38q.11-.51.56-.79.56-.35 1.24-.41.51-.04.59-.54.09-.52-.39-1.12l6.13-1.53q4.24-.59 7.12-3.12Z" fill="#a8ddf2"/><path d="M81.47 59.62q.09.11.14.26.15.47-.32.61-1.42.44-2.84.38a1.1 1.09-87.3 0 0-1.13 1.04q-.22 4.66-1.64 9.31-.09.32-.03.53.12.44.57.56.46.13.38.6-.06.37-.44.83l-6.24-.64q-.53-.05-.85.37-.44.59-.69 1.51l-2.71 5.98q.18-3.94 2.13-7.64.28-.52-.3-.61l-5.36-.87q-4.1-1.5-5.23-6.95 1.6-8.86 10.6-7.41 6.96 1.13 13.96 2.14Z" fill="#1d74ff"/><path d="m81.47 59.62.72-.03 2.64.44q-2.91 1.89-2.39 3.9.04.17-.05.83-.08.6-.6.95a.87.86-11.5 0 0-.37.55l-1.15 5.96a.61.61 0 0 0 .44.71l1.51.41a.56.56 0 0 1 .13 1.03q-.14.07-.37.18l-5.82-.81q.38-.46.44-.83.08-.47-.38-.6-.45-.12-.57-.56-.06-.21.03-.53 1.42-4.65 1.64-9.31a1.1 1.09-87.3 0 1 1.13-1.04q1.42.06 2.84-.38.47-.14.32-.61-.05-.15-.14-.26Z" fill="#378bfb"/><path d="m84.83 60.03 5.59.2q.98.15 1.31-.12.48.6.39 1.12-.08.5-.59.54-.68.06-1.24.41-.45.28-.56.79l-1.92 9.38q-.15.68.36 1.16.46.43 1.06.35a.7.7 0 0 1 .76.52l.23.85-8.24-.68q.23-.11.37-.18a.56.56 0 0 0-.13-1.03l-1.51-.41a.61.61 0 0 1-.44-.71l1.15-5.96a.87.86-11.5 0 1 .37-.55q.52-.35.6-.95.09-.66.05-.83-.52-2.01 2.39-3.9Z" fill="#5fa9f7"/><path d="M56.91 64.89q1.13 5.45 5.23 6.95.2 1.12-.57 1.56-.41.22-.41.68c-.02 1.85-1.02 2.96-1.06 4.65q-.11 4.81 1 9.5.12.51-.11.98-1.54 3.26-1.26 6.59l-1.48 4.48-2.19 3.55-1.58 2.4q-.22.1-.4.3.13-.52.01-.84-.24-.62-.76-.22-.29.22-.68.18-.53-.07-.53-.6V81.92a1.77 1.75-61.9 0 0-.29-.97l-1.1-1.66 6.18-14.4Z" fill="#b8c0fb"/><path d="M207.02 82.85q-1.78.27-.33 2.35.29.41.27.92-.17 4.69-1.53 9.74-1.29 4.77-1.56 10.38-.04.8.74 1.15.42.19.28.63-.12.4-.8.48-4.79-4.98-7.3-11.28l-1.06-6.08c2.2-.75 1.01-2.94 1.53-4.48q1.1-3.21.84-6.65-.05-.74.5-1.61c1.43-2.25.08-4.25 1.71-6.41a1.02.98 60.4 0 0 .2-.78l-.32-2.2q-.4-2.73.78-.24 3.35 7.04 6.05 14.08Z" fill="#f1e8fc"/><path d="m62.14 71.84 5.36.87q.58.09.3.61-1.95 3.7-2.13 7.64-.43 2.9-2.36 6.42l-3.58 8.42q-.28-3.33 1.26-6.59.23-.47.11-.98-1.11-4.69-1-9.5c.04-1.69 1.04-2.8 1.06-4.65q0-.46.41-.68.77-.44.57-1.56Z" fill="#7ca5fa"/><path d="M68.38 74.98q.18.31.06.77-.12.49.36.63.2.06.44-.02.19-.06.4-.31 1.51-1.78 3.72-.8.44.2.53.68l1.53 8.55q-1.37.21-1.47 1.2a1.07 1.06 2.7 0 1-1.06.96h-5.87q-.37 0-.69-.2l-.24-.14q-.26-.15-.54-.02-.51.24-.46.66.06.49-.33.79-.56.45-1.45-.35 1.93-3.52 2.36-6.42l2.71-5.98Z" fill="#e4faf7"/><path d="m196.21 82.18-.74 8.35-.29.33q-.43.49-.69-.11-.54-1.28-.52-2.7.01-.56-.54-.64l-10.14-1.51a1.26 1.26 0 0 0-1.23.53q-.53.77-1.33.86l1.4-10.02q2.36-1.44 4.25-.86 1.96.6 8.06 1.33.54.06.48.6-.33 2.97 1.29 3.84Z" fill="#5fa9f7"/><path d="m50.73 79.29 1.1 1.66a1.77 1.75-61.9 0 1 .29.97v23.13q0 .53.53.6.39.04.68-.18.52-.4.76.22.12.32-.01.84-1.68 2.25-4.1 3.82-.01-.27-.07-.48-.2-.65-.77-.28l-4.44 2.89q-.5.32-.47-.27.34-6.95-.1-14.18-.14-2.33.7-4.42 2.9-7.2 5.9-14.32ZM207.02 82.85l2.63 6.55q-.75 2.01.51 3.89.29.43.19.93-.16.82.44 1.34.1.08.08.21-.07.33-.47.36a.19.19 0 0 0-.18.17l-1.95 13.06a1.38 1.38 0 0 1-2.28.83l-1.9-1.69q.68-.08.8-.48.14-.44-.28-.63-.78-.35-.74-1.15.27-5.61 1.56-10.38 1.36-5.05 1.53-9.74.02-.51-.27-.92-1.45-2.08.33-2.35Z" fill="#dcd8fb"/><path d="m75.42 84.48-.48 11.91q-1.28-.76-1.91 1.62a.51.5 6.9 0 1-.48.37l-11.13.19q-.35 0-.59-.24-.48-.5-1.18.16a.76.66 85.9 0 0-.12.16q-.41.81-1.28 1.63l1.48-4.48 3.58-8.42q.89.8 1.45.35.39-.3.33-.79-.05-.42.46-.66.28-.13.54.02l.24.14q.32.2.69.2h5.87a1.07 1.06 2.7 0 0 1.06-.96q.1-.99 1.47-1.2Z" fill="#a8ddf2"/><path d="M195.47 90.53q.27.12.26.61l1.06 6.08q-1.35-.7-2.8-3.19-.26-.44-.76-.48l-12.37-1.06-.13-5.2q.8-.09 1.33-.86a1.26 1.26 0 0 1 1.23-.53l10.14 1.51q.55.08.54.64-.02 1.42.52 2.7.26.6.69.11l.29-.33Z" fill="#88c8f4"/><path d="m209.65 89.4 2.03 4.85q-1.44.79-.02 3.22.26.45.25.97-.1 3.52-.9 6.96c-.19.83-.01 1.62-.33 2.5-.61 1.64-.78 2.98-1.13 4.53q-.07.31-.29.09l-.29-.28a.27.26 23 0 0-.45.18l-.22 6.09q-.01.4-.42.4-.35.01-.62-.11-.44-.2-.75.18-.24.29-.04.7l-.66-1.07-4.41-10.65q-.8-2.13-1.95-3.35a1.31 1.3 69.9 0 0-.92-.43q-6.55-.23-12.79-2.13a.89.88.4 0 0-1.11 1.09q.28.93-.84 1.06-2.15-5.57-2.93-11.71l12.37 1.06q.5.04.76.48 1.45 2.49 2.8 3.19 2.51 6.3 7.3 11.28l1.9 1.69a1.38 1.38 0 0 0 2.28-.83l1.95-13.06a.19.19 0 0 1 .18-.17q.4-.03.47-.36.02-.13-.08-.21-.6-.52-.44-1.34.1-.5-.19-.93-1.26-1.88-.51-3.89Z" fill="#a8ddf2"/><path d="m211.68 94.25 4.31 10.26q-1.35.64.24 4.38.05.11.13.16.12.07.25.08.3.04.35.34.27 1.72.19 3.47c-.05 1.11-.72 1.84-.5 3.23q.07.45-.38.55-1.14.27-1.1 1.48.02.51.51.64.56.15.76.83.07.26-.05.5-.06.12-.12.25l-6.76 4.1q-2.51-1.63-3.04-4.84-.2-.41.04-.7.31-.38.75-.18.27.12.62.11.41 0 .42-.4l.22-6.09a.27.26 23 0 1 .45-.18l.29.28q.22.22.29-.09c.35-1.55.52-2.89 1.13-4.53.32-.88.14-1.67.33-2.5q.8-3.44.9-6.96.01-.52-.25-.97-1.42-2.43.02-3.22Z" fill="#a4bdf8"/><path d="M74.94 96.39q-.58 3.01-1.42 4.27-2.06 2.01-2.71 5.13-.1.48-.59.49l-12.28.26q-.4.01-.72.24-.3.21-.73.1-.61-.16-.35-.73.94-2.14-.08-2.32l2.19-3.55q.87-.82 1.28-1.63a.76.66 85.9 0 1 .12-.16q.7-.66 1.18-.16.24.24.59.24l11.13-.19a.51.5 6.9 0 0 .48-.37q.63-2.38 1.91-1.62Z" fill="#88c8f4"/><path d="M73.52 100.66q-.55 3.83-2.17 6.08-1.66.33-2.98 3.88l-13.26-.02a1.24 1.24 0 0 1-1.06-1.89q1.17-1.93.43-2.48l1.58-2.4q1.02.18.08 2.32-.26.57.35.73.43.11.73-.1.32-.23.72-.24l12.28-.26q.49-.01.59-.49.65-3.12 2.71-5.13Z" fill="#5fa9f7"/><path d="M201.4 107.96q-4.03 1.5-8.63-.35-3.91-1.56-7.52-.04l-1.46-3.37q1.12-.13.84-1.06a.89.88.4 0 1 1.11-1.09q6.24 1.9 12.79 2.13a1.31 1.3 69.9 0 1 .92.43q1.15 1.22 1.95 3.35Z" fill="#daf2fa"/><path d="m215.99 104.51 4.79 11.61q-1.28.93.48 4.16.4.73-.4.52-2.32-.64-4.59-.38.06-.13.12-.25.12-.24.05-.5-.2-.68-.76-.83-.49-.13-.51-.64-.04-1.21 1.1-1.48.45-.1.38-.55c-.22-1.39.45-2.12.5-3.23q.08-1.75-.19-3.47-.05-.3-.35-.34-.13-.01-.25-.08-.08-.05-.13-.16-1.59-3.74-.24-4.38Z" fill="#7ca5fa"/><path d="M54.48 106.23q.74.55-.43 2.48a1.24 1.24 0 0 0 1.06 1.89l13.26.02-5.14 5.88a1.36 1.34 20.8 0 1-1.04.46l-16.45-.32a.57.57 0 0 1-.35-1.01l4.57-3.83q.45-.37-.07-.64l-.43-.23.52-.58q2.42-1.57 4.1-3.82.18-.2.4-.3Z" fill="#378bfb"/><path d="M71.35 106.74c-5.37 11.78-14.1 17-23.63 23.89q-.44.33-.14.78l.74 1.12q.15.47-.12.78-.41.47-.81 0-.22-.24-.28-.59a.92.92 0 0 0-1.55-.51q-3.26 3.18-7.62 3.57l-4.64-1.45q-2.74-3.76-2-8.07c.28-1.59 1.47-3.07 2.89-4.13q7.58-5.69 15.27-11.2l.43.23q.52.27.07.64l-4.57 3.83a.57.57 0 0 0 .35 1.01l16.45.32a1.36 1.34 20.8 0 0 1.04-.46l5.14-5.88q1.32-3.55 2.98-3.88Z" fill="#1d74ff"/><path d="m201.4 107.96 4.41 10.65q-1.05.69-1.24 1.97-.07.44-.51.42l-3.59-.17q-.31-.02-.47-.29-.19-.31-.52-.37-1.82-.3-3.68-.12-.49.05-.87-.27-6.08-5.11-9.68-12.21 3.61-1.52 7.52.04 4.6 1.85 8.63.35Z" fill="#e4faf7"/><path d="M220.78 116.12q1.89 4.26 3.46 7.47c2.81 5.72 0 8.85-4.73 12.29q-4.23 3.07-8.72 6.28-1.18-.75 1.09-2.63.43-.36.22-.87c-1.18-2.92-4.16-1.72-6.48-3.7q-.35-.3-.45-.75l-.3-1.38q-.12-.53-.62-.73-.45-.18-.4-.66.09-.76-.58-.4-1.52.83-2.8 1.93-.76.67-1.54-.56l10.58-7.89 6.76-4.1q2.27-.26 4.59.38.8.21.4-.52-1.76-3.23-.48-4.16Z" fill="#1d74ff"/><path d="M63.51 137.66q-.29-.08-.5-.03-.51.12-.33.61c.25.69.2 1.26-.33 1.84-1.3 1.44-2.45 2.76-3.25 4.63q-.66 1.55-1.41 3.1-.8 1.63-1.73 2.37l-5.92-13.77q1.89-.46.26-3.4a1.41 1.38 35.6 0 1-.16-.91c.4-2.4 2.25-2.93 4.25-1.7q5.05 3.1 9.12 7.26Z" fill="#daf2fa"/><path d="m210.79 142.16-4.12 3.02q-.62-1.13-1.66-1.63-.43-.2-.85.01c-1.44.74-2.95 1.74-4.59 1.26q-1.46-.42-2.68-1.35-.39-.3-.59-.75-.17-.39-.55-.63-.35-.22-1.07-.2-1.02.04-2.12-.06-.52-.04-.51-.56.02-1.33-.77-1.41l7.65-7.45q.78 1.23 1.54.56 1.28-1.1 2.8-1.93.67-.36.58.4-.05.48.4.66.5.2.62.73l.3 1.38q.1.45.45.75c2.32 1.98 5.3.78 6.48 3.7q.21.51-.22.87-2.27 1.88-1.09 2.63Z" fill="#378bfb"/><path d="m48.32 132.53 1.72 3.88 5.92 13.77.8 1.54-.61.31-3.87-5.08q-.29-.39-.76-.53-1.56-.48-2.87-1.41-2.16-1.54-3.1-2.1-1.2-.71-2.27-1.6c-1.5-1.25-3.3-2.15-4.69-3.73q-.18-.21-.39-.04-.28.21-.53-.14a.44.43-48.5 0 1-.02-.44q.33-.59.29-1.18 4.36-.39 7.62-3.57a.92.92 0 0 1 1.55.51q.06.35.28.59.4.47.81 0 .27-.31.12-.78Z" fill="#7ca5fa"/><path d="m33.3 134.33 4.64 1.45q.04.59-.29 1.18a.44.43-48.5 0 0 .02.44q.25.35.53.14.21-.17.39.04c1.39 1.58 3.19 2.48 4.69 3.73q1.07.89 2.27 1.6.94.56 3.1 2.1 1.31.93 2.87 1.41.47.14.76.53l3.87 5.08 1.82 3.24q.22.38.63.51.43.13.28.52-.19.52.16.95.82 1.04.46 2.1-4.08-1.25-7.6-3.36c-3.76-2.24-6.5-3.75-9.68-5.76q-.42-.26-.89-.11-.67.21-1.26.73l-6.77-16.52Z" fill="#b8c0fb"/><path d="M215.52 151.9q-5.82 7.82-12.77 13.11-.21.16-.49.14-.38-.02-.64.24l-4.02 4.01q-.22.23-.53.23-.18 0-.35.01-.33.01-.33-.32.02-.79-.78-.75l.74-6.39q.75-4.89 3.3-9.12.34 2.11 1.72.16c1.63-2.32 4.12-4.44 6.17-6.4q1.77-1.69 4.12-3.42 2.16-1.59 4.3-3.21 2.81-2.13 5.83-3.98.58-.35.31.27l-6.58 15.42Z" fill="#dcd8fb"/><path d="m63.51 137.66 2.58 3.25q-.29-.06-.47.01-.43.18-.11.52.76.79.43 1.75-.18.54-.99 1.04c-2.03 1.26-2.42 2.9-3.52 4.61-.73 1.13-1.12 2.75-2.61 3.78q-.41.28-.82-.01l-1.24-.89-.8-1.54q.93-.74 1.73-2.37.75-1.55 1.41-3.1c.8-1.87 1.95-3.19 3.25-4.63.53-.58.58-1.15.33-1.84q-.18-.49.33-.61.21-.05.5.03Z" fill="#a8ddf2"/><path d="M191.28 139.86q.79.08.77 1.41-.01.52.51.56 1.1.1 2.12.06.72-.02 1.07.2.38.24.55.63.2.45.59.75 1.22.93 2.68 1.35c1.64.48 3.15-.52 4.59-1.26q.42-.21.85-.01 1.04.5 1.66 1.63l-4.89 4.73q-1.72-.83-2.28-.07a3.21 3.01 34.7 0 1-4.23.63l-2.78-1.81q-.44-.29-.97-.25-1.2.08-1.83-.91-.27-.41-.3-.89l-.24-3.93 2.13-2.82Z" fill="#5fa9f7"/><path d="M66.09 140.91q1.37 1.4 2 2.76-.42 1.47.93 3.09.35.42.16.92-.5 1.33-1.77 1.8-.49.19-.83.58c-1.52 1.74-5.39 4.59-5.44 6.85q-.01.48-.26.89-.98 1.58-.91 3.69l-.47-2.14q.36-1.06-.46-2.1-.35-.43-.16-.95.15-.39-.28-.52-.41-.13-.63-.51l-1.82-3.24.61-.31 1.24.89q.41.29.82.01c1.49-1.03 1.88-2.65 2.61-3.78 1.1-1.71 1.49-3.35 3.52-4.61q.81-.5.99-1.04.33-.96-.43-1.75-.32-.34.11-.52.18-.07.47-.01Z" fill="#88c8f4"/><path d="m189.15 142.68.24 3.93q.03.48.3.89.63.99 1.83.91.53-.04.97.25l2.78 1.81a3.21 3.01 34.7 0 0 4.23-.63q.56-.76 2.28.07l-2.13 3.15q-2.55 4.23-3.3 9.12l-.92.01q-3.22-.85-4.6-3.24c-.78-1.33-.59-3.35-1.5-4.98q-2.24-4.03-2.19-8.37l2.01-2.92Z" fill="#a8ddf2"/><path d="M68.09 143.67q3.38 4.75 4.81 9.31-.79 1.9-.05 4.48c1.36 4.7-3.09 7.04-5.56 10.79q-.65.98-1.42 1.87c-1.06 1.22-2.36.96-3.24 2.37q-.22.36-.32-.06-.48-2.19-1.58-2.14l-.26-5.76q.05-1.59-.5-3.04-.07-2.11.91-3.69.25-.41.26-.89c.05-2.26 3.92-5.11 5.44-6.85q.34-.39.83-.58 1.27-.47 1.77-1.8.19-.5-.16-.92-1.35-1.62-.93-3.09Z" fill="#5fa9f7"/><path d="M187.14 145.6q-.05 4.34 2.19 8.37c.91 1.63.72 3.65 1.5 4.98q1.38 2.39 4.6 3.24l-6.82 16.89q-.25-.85-.67-1.11-.5-.31-.72.23l-.42 1.04q-.22.54-.8.46c-4.93-.7-4.47-7.02-4.77-10.72q-.63-7.56 2.91-14.18.24-.45.06-.94-.15-.41-.06-.86a1.01.03-79.1 0 1 .2-.89q.58-.81.56-1.78-.01-.43.19-.81l2.05-3.92Z" fill="#e4faf7"/><path d="m59.5 159.35.47 2.14q.55 1.45.5 3.04-.29 0-.34-.24-.03-.15-.14-.04l-.31.31q-.25.26-.28.61l-.46 5.81a.37.37 0 0 1-.49.32c-2-.71-2.93-1.91-4.32-2.85q-3.81-2.59-8.27-3.52l-5.79-14.08q.59-.52 1.26-.73.47-.15.89.11c3.18 2.01 5.92 3.52 9.68 5.76q3.52 2.11 7.6 3.36Z" fill="#dcd8fb"/><path d="m215.52 151.9-3.25 8.04q-1.9 1.74-3.04 5.08l-11.35 9.45q-.51.42-.78-.18-1.39-3.07-1.49-5.72.8-.04.78.75 0 .33.33.32.17-.01.35-.01.31 0 .53-.23l4.02-4.01q.26-.26.64-.24.28.02.49-.14 6.95-5.29 12.77-13.11Z" fill="#b8c0fb"/><path d="M72.9 152.98c4.25 11.37 2.45 20.88.41 32.26q-.36 2 .65 2.11l-2.66 8.42q-2.49 2.71-6.45 3.58-8.74-1.9-7.26-9.6 1.39-7.21 2.23-14.44l.91-5.02q1.1-.05 1.58 2.14.1.42.32.06c.88-1.41 2.18-1.15 3.24-2.37q.77-.89 1.42-1.87c2.47-3.75 6.92-6.09 5.56-10.79q-.74-2.58.05-4.48Z" fill="#1d74ff"/><path d="m212.27 159.94-5.99 14.87q-.16-.2-.17-.45-.01-.3-.31-.29-.21.02-.28.19-2.99 7.21-6.01 14.2a.46.46 0 0 1-.82.04q-1.33-2.37-3.5-3.91 0-2.63 1.9-3.4.28-.11.29-.41 0-.14-.01-.28-.02-.34.21-.59 2.04-2.21 4.47-3.95 2.38-1.71 3.46-3.41 2.22-3.5 3.72-7.53 1.14-3.34 3.04-5.08Z" fill="#7ca5fa"/><path d="m196.35 162.18-.74 6.39q.1 2.65 1.49 5.72.27.6.78.18l11.35-9.45q-1.5 4.03-3.72 7.53-1.08 1.7-3.46 3.41-2.43 1.74-4.47 3.95-.23.25-.21.59.01.14.01.28-.01.3-.29.41-1.9.77-1.9 3.4l-7.83-1.6 1.25-3.91 6.82-16.89.92-.01Z" fill="#a4bdf8"/><path d="m60.47 164.53.26 5.76-.91 5.02q-.84-.36-1.36-.02-.38.25-.43 1.06-.19 3.06-1.52 5.82-.23.47-.66.19l-3.28-2.14q-.33-.22-.48-.58l-6.23-14.71q4.46.93 8.27 3.52c1.39.94 2.32 2.14 4.32 2.85a.37.37 0 0 0 .49-.32l.46-5.81q.03-.35.28-.61l.31-.31q.11-.11.14.04.05.24.34.24Z" fill="#f1e8fc"/><path d="M206.28 174.81q-3.6 8.93-7.29 17.85c-1.75 4.24-3.83 6.51-8.52 6.05l-14.63-2.54q.59-1.18 2.88-1.48.64-.08.4-.68-.53-1.27-.89-2.58c-.52-1.88-1.56-3.51-1.95-5.57-.28-1.52-1.07-2.31-2.03-3.39q-.32-.37-.81-.4l-3.32-.21q-.51-.04-.51-.54-.01-.43.47-.77c5.61-.06 11.74 1.67 17.28 2.44l7.83 1.6q2.17 1.54 3.5 3.91a.46.46 0 0 0 .82-.04q3.02-6.99 6.01-14.2.07-.17.28-.19.3-.01.31.29.01.25.17.45Z" fill="#1d74ff"/><path d="M94.98 180.98c-2 1.09-2.96 2.81-4.63 4.25q-.34.3-.47.73-.33 1.1-1.39 1.73a1.34 1.29 89 0 0-.53.57q-.5.99-.77 1.08-2.72.9.03 1.72 2.12.62 1.19 2.07l-7.46-3.04q1.41-.32.15-1.4-1.95-1.67-3.85-1.92a1.01 1.01 0 0 1-.49-1.79q.82-.65.89-1.77.02-.47.41-.73c1.55-1.08 3.21-.75 4.61-1.08q6.16-1.49 12.31-.42Z" fill="#e4faf7"/><path d="M170.08 180.55q-.48.34-.47.77 0 .5.51.54l3.32.21q.49.03.81.4c.96 1.08 1.75 1.87 2.03 3.39.39 2.06 1.43 3.69 1.95 5.57q.36 1.31.89 2.58.24.6-.4.68-2.29.3-2.88 1.48l-4.9-.92q-.7-.77.21-1.08 1.63-.55 1.13-2.2l-3.02-9.82a.59.59 0 0 0-.7-.4q-3.35.8-5.33-.97l6.85-.23Z" fill="#378bfb"/><path d="M163.23 180.78q1.98 1.77 5.33.97a.59.59 0 0 1 .7.4l3.02 9.82q.5 1.65-1.13 2.2-.91.31-.21 1.08l-7.42.31q-.77.02-1.06-.35a.45.45 0 0 1 .31-.72q.53-.06.97-.34.48-.3.3-.82l-3.3-9.77q-.18-.55-.76-.53-2.18.05-3.67-.83 4.01-1.47 6.92-1.42Z" fill="#5fa9f7"/><path d="M94.98 180.98q5.57 1 10.09 3.58-.09 2.87-3.08 2.92-4.1.05-6.91 3.61c-.94 1.2-1.23 2.54-1.79 4.01l-4.88-1.97q.93-1.45-1.19-2.07-2.75-.82-.03-1.72.27-.09.77-1.08a1.34 1.29 89 0 1 .53-.57q1.06-.63 1.39-1.73.13-.43.47-.73c1.67-1.44 2.63-3.16 4.63-4.25Z" fill="#daf2fa"/><path d="M156.31 182.2q1.49.88 3.67.83.58-.02.76.53l3.3 9.77q.18.52-.3.82-.44.28-.97.34a.45.45 0 0 0-.31.72q.29.37 1.06.35l-7.18 2.32-1.01.61-.32-.3q-.41-.39.07-.7.49-.32.7-.84.13-.33.01-.81-1.29-4.87-3.6-9.7a1.16 1.16 0 0 0-1.74-.43q-1.03.79-2.02-.38l7.88-3.13Z" fill="#88c8f4"/><path d="m105.07 184.56 5.02 2.66q-.96.2-.73 1.41a1.45 1.44 80.4 0 1-1.2 1.7q-.96.14-1.89-.11-.39-.11-.61-.46-.4-.66-.98-.8a1.51 1.5 13.2 0 0-1.84 1.13q-.41 1.91-1.49 4.06c-.31.61-.3 1.44-1.2 1.87q-.31.15-.5.42-.38.53-1.03.52-.4-.15-.84-.11l-3.4-1.04-1.09-.71c.56-1.47.85-2.81 1.79-4.01q2.81-3.56 6.91-3.61 2.99-.05 3.08-2.92ZM148.43 185.33q.99 1.17 2.02.38a1.16 1.16 0 0 1 1.74.43q2.31 4.83 3.6 9.7.12.48-.01.81-.21.52-.7.84-.48.31-.07.7l.32.3q-5.67 3.21-9.53 8.23-1 .55-.91-.71a.66.62-16 0 1 .29-.49q2.06-1.42 1.35-3.44l1.91-.78q.48-.19.22-.64-.34-.59-.94-.87-.52-.23-.7-.77l-2.99-8.62a.26.26 0 0 0-.28-.17q-1.46.23-2.01-.6l6.69-4.3Z" fill="#a8ddf2"/><path d="m110.09 187.22 6.02 4.29-4.16-1.7a.6.59-68.3 0 0-.78.34q-.64 1.62-2.32 2.06-.48.12-.8.49-1.5 1.7-1.15 3.98.02.12-.1.18-.16.08-.26-.04-.29-.33-.58-.01-1.86 2.07-.08 4.78l-7.26-4.63q.65.01 1.03-.52.19-.27.5-.42c.9-.43.89-1.26 1.2-1.87q1.08-2.15 1.49-4.06a1.51 1.5 13.2 0 1 1.84-1.13q.58.14.98.8.22.35.61.46.93.25 1.89.11a1.45 1.44 80.4 0 0 1.2-1.7q-.23-1.21.73-1.41Z" fill="#88c8f4"/><path d="m73.96 187.35 6.99 2.74 7.46 3.04 4.88 1.97 1.09.71q-2.03.09-4.1-.14-2.26-.24-4.05.01-5.9.85-11.85 1.33-.54.04-.98.35-.74.5-1.5.01-.33-.21-.32-.59.01-.47-.28-1.01l2.66-8.42Z" fill="#7ca5fa"/><path d="M141.74 189.63q.55.83 2.01.6a.26.26 0 0 1 .28.17l2.99 8.62q.18.54.7.77.6.28.94.87.26.45-.22.64l-1.91.78-12.16 5.03q-.21-1.45-1.63-1.47-.9-.01-1.16-.75-.13-.35-.46-.53-1.18-.62-.39-1.87 4.26-6.83 11.01-12.86Z" fill="#e4faf7"/><path d="M116.11 191.51q1.35.75 2.04 1.96-4.97-1.12-8.12 4.68-.22.41-.65.61-1.38.66-1.73 2.24a1.07 1.05 26.9 0 0 .35 1.04l1.79 1.52q.35.3.32.76l-.1 1.64q-.55-.21-.23-.19l-3.9-4.18q-1.78-2.71.08-4.78.29-.32.58.01.1.12.26.04.12-.06.1-.18-.35-2.28 1.15-3.98.32-.37.8-.49 1.68-.44 2.32-2.06a.6.59-68.3 0 1 .78-.34l4.16 1.7Z" fill="#5fa9f7"/><path d="m118.15 193.47 4.16 4.71.73 2.84a.69.68 84.3 0 1-.69.85q-2.11-.08-3.76 1.16a.96.92-12.4 0 0-.34.51l-1.97 7.2a.52.52 0 0 1-.93.17q-1.66-2.32-2.44-1.01l-2.9-3.94.1-1.64q.03-.46-.32-.76l-1.79-1.52a1.07 1.05 26.9 0 1-.35-1.04q.35-1.58 1.73-2.24.43-.2.65-.61 3.15-5.8 8.12-4.68Z" fill="#378bfb"/><path d="m94.38 195.81 3.4 1.04q.25.69.05 1.17-.21.53-.77.37-.65-.19-.99.28-.32.44-.86.44-1.82-.02-3.59.39-7.53 1.73-15.2 2.53-.22.02-.38.18l-.27.27q-.27.27.05.48.32.22.47.59.1.24-.01.41-.16.24-.49.1l-10.94-4.71q3.96-.87 6.45-3.58.29.54.28 1.01-.01.38.32.59.76.49 1.5-.01.44-.31.98-.35 5.95-.48 11.85-1.33 1.79-.25 4.05-.01 2.07.23 4.1.14Z" fill="#b8c0fb"/><path d="m170.94 195.25 4.9.92 14.63 2.54q.01 1.4-1.51 1.84-3.25-.96-6.56-1.22c-1.33-.11-2.16-.65-3.37-1.09q-.47-.17-.97-.09-1.96.33-3.81-.15-2.52-.66-3.61-.66-3.7-.03-7.4.06-.45.01-.82.29-1.23.94-2.42.57-.97-.3-1.52.12-.4.29-.89.29-.97.02-1.25-.79l7.18-2.32 7.42-.31Z" fill="#f1e8fc"/><path d="M97.78 196.85q.44-.04.84.11l7.26 4.63 3.9 4.18q-1.34-.25-1.65.97-.14.52-.63.74-2.55 1.13-5.32.82-.54-.06-1.03.14-2.1.86-4.3 1.1-.47.06-.9.25l-2.97 1.34-17.19-7.07q.33.14.49-.1.11-.17.01-.41-.15-.37-.47-.59-.32-.21-.05-.48l.27-.27q.16-.16.38-.18 7.67-.8 15.2-2.53 1.77-.41 3.59-.39.54 0 .86-.44.34-.47.99-.28.56.16.77-.37.2-.48-.05-1.17ZM188.96 200.55l-17.12 6.97q-1.62-.76-3.93-.47-2.93.37-3.85.36-8.83-.12-17.66.16-.52.02-.57-.5l-.03-.35q3.86-5.02 9.53-8.23l1.01-.61q.28.81 1.25.79.49 0 .89-.29.55-.42 1.52-.12 1.19.37 2.42-.57.37-.28.82-.29 3.7-.09 7.4-.06 1.09 0 3.61.66 1.85.48 3.81.15.5-.08.97.09c1.21.44 2.04.98 3.37 1.09q3.31.26 6.56 1.22Z" fill="#dcd8fb"/><path d="m122.31 198.18 9.26 11.47 3.77 5.14q.75 2.8.02 5.83-.16.64.46.41 2.85-1.08 11.68-4.4 1.28-.48.73.72-8.24 3.4-16.43 7c-4.94 2.16-7.78 0-10.93-4.02q-3.36-4.3-6.69-8.64l-1.27-1.79q.78-1.31 2.44 1.01a.52.52 0 0 0 .93-.17l1.97-7.2a.96.92-12.4 0 1 .34-.51q1.65-1.24 3.76-1.16a.69.68 84.3 0 0 .69-.85l-.73-2.84Z" fill="#1d74ff"/><path d="M146.53 202.08q.71 2.02-1.35 3.44a.66.62-16 0 0-.29.49q-.09 1.26.91.71l.03.35q.05.52.57.5 8.83-.28 17.66-.16.92.01 3.85-.36 2.31-.29 3.93.47l-6.17 2.45q-2.67-.25-5.27.97-2.03.95-3.55 1.02-6.94.31-13.88.13-.33-.01-.5.26-.1.15-.22.27-.2.21-.58.26-2.52.3-5.05.54-.34.04-.27.37l.07.35q.12.57-.44.72-.29.09-.64-.07l-3.77-5.14q.66-.1.58-1.11-.04-.54.46-.73l1.76-.7 12.16-5.03Z" fill="#a4bdf8"/><path d="M109.78 205.77q-.32-.02.23.19l2.9 3.94 1.27 1.79q-.57.08-.67.65-.08.47.27.81 1.33 1.29 1.28 3.18-.02.58-.61.54-1.19-.09-2.28.47-.41.21-.86.14c-2.02-.31-3.73-.33-5.64-1.09q-6.41-2.56-12.69-5.26l2.97-1.34q.43-.19.9-.25 2.2-.24 4.3-1.1.49-.2 1.03-.14 2.77.31 5.32-.82.49-.22.63-.74.31-1.22 1.65-.97Z" fill="#f1e8fc"/><path d="m165.67 209.97-17.44 7.38q.55-1.2-.73-.72-8.83 3.32-11.68 4.4-.62.23-.46-.41.73-3.03-.02-5.83.35.16.64.07.56-.15.44-.72l-.07-.35q-.07-.33.27-.37 2.53-.24 5.05-.54.38-.05.58-.26.12-.12.22-.27.17-.27.5-.26 6.94.18 13.88-.13 1.52-.07 3.55-1.02 2.6-1.22 5.27-.97Z" fill="#7ca5fa"/></svg>