<svg viewBox="0.00 0.00 300.00 300.00" version="1.1" xmlns="http://www.w3.org/2000/svg">
<g stroke-linecap="butt" fill="none" stroke-width="2.00">
<path d="M 170.21 58.20
  Q 170.40 57.73 170.57 57.35
  C 174.49 48.88 156.12 53.25 152.61 54.22
  Q 152.10 54.36 151.83 53.91
  C 148.07 47.67 141.09 45.57 134.19 45.33
  C 130.90 45.21 127.98 46.59 129.54 50.46
  Q 131.19 54.54 130.59 58.06
  Q 130.49 58.66 129.91 58.84
  Q 98.99 68.87 85.71 98.42
  Q 85.53 98.83 85.09 98.74
  C 73.59 96.28 58.16 97.90 50.22 107.25
  C 42.16 116.73 45.30 131.73 50.50 141.98
  Q 55.88 152.59 65.63 158.23
  Q 66.08 158.49 65.85 158.94
  C 44.01 203.35 80.55 240.64 121.01 250.97
  C 149.47 258.23 180.73 254.92 206.12 239.62
  C 221.04 230.64 233.95 216.52 238.68 199.68
  Q 243.83 181.34 235.93 163.42
  Q 234.93 161.15 234.13 158.83
  Q 233.97 158.35 234.41 158.11
  Q 242.38 153.77 247.41 145.70
  C 254.73 133.93 259.14 115.66 247.75 105.25
  C 239.62 97.81 225.66 96.41 214.77 98.74
  Q 214.50 98.80 214.39 98.55
  Q 201.31 68.98 170.50 58.84
  Q 170.02 58.68 170.21 58.20" stroke="#d3c4fa"></path>
<path d="M 162.65 59.96
  A 0.38 0.38 0.0 0 0 162.28 59.53
  Q 156.77 59.40 151.94 62.14
  C 149.06 63.78 147.40 62.60 146.62 59.55
  Q 145.17 53.91 138.29 52.84
  Q 137.32 52.69 137.45 53.66
  C 137.78 56.00 137.68 63.80 134.25 64.76
  C 108.73 71.92 90.41 92.53 87.53 118.98
  C 86.82 125.46 87.91 132.30 86.48 138.35
  Q 84.90 145.08 80.98 149.51
  C 55.06 178.77 65.66 214.37 96.87 233.35
  C 131.22 254.26 180.78 252.66 212.28 226.77
  C 230.53 211.76 238.88 189.88 230.04 166.86
  Q 226.84 158.52 219.03 149.49
  C 214.75 144.54 212.70 137.33 212.76 130.53
  C 212.79 125.96 212.86 121.16 212.25 116.94
  C 208.64 91.70 190.99 71.39 166.30 64.77
  C 163.47 64.01 162.23 62.98 162.65 59.96" stroke="#d3c4fa"></path>
<path d="M 64.07 113.83
  Q 71.95 110.39 80.89 112.17
  Q 81.50 112.29 81.66 111.69
  L 83.10 105.99
  A 0.63 0.62 -79.0 0 0 82.58 105.21
  C 71.61 103.80 55.99 105.11 52.98 116.74
  C 49.85 128.81 57.96 146.77 69.34 152.29
  A 0.47 0.47 0.0 0 0 69.92 152.15
  L 73.91 146.74
  Q 74.13 146.44 73.78 146.32
  C 63.64 142.87 59.04 132.35 59.34 122.22
  C 59.45 118.53 60.69 115.31 64.07 113.83" stroke="#d3c4fa"></path>
<path d="M 218.35 111.76
  Q 218.47 112.27 218.99 112.17
  C 227.21 110.49 241.35 111.48 240.65 123.25
  C 240.03 133.67 236.51 142.64 226.21 146.34
  Q 225.86 146.47 226.08 146.77
  L 230.06 152.12
  Q 230.28 152.42 230.62 152.27
  C 241.38 147.51 247.16 133.47 247.62 122.25
  C 248.30 105.52 229.07 103.25 217.34 105.29
  Q 216.79 105.39 216.92 105.93
  L 218.35 111.76" stroke="#d3c4fa"></path>
<path d="M 67.88 131.59
  Q 70.50 138.56 77.69 140.32
  A 0.67 0.67 0.0 0 0 78.47 139.93
  C 81.08 133.68 80.25 126.39 80.34 119.61
  Q 80.35 119.11 79.86 119.02
  C 77.51 118.56 66.78 118.05 66.33 121.36
  Q 65.71 125.80 67.88 131.59" stroke="#d3c4fa"></path>
<path d="M 221.19 139.40
  Q 221.56 140.54 222.71 140.21
  Q 229.65 138.20 232.16 131.47
  C 233.04 129.11 234.41 123.78 233.48 120.69
  A 1.12 1.11 -89.6 0 0 232.77 119.96
  Q 226.53 117.84 220.02 118.95
  Q 219.54 119.03 219.55 119.50
  C 219.67 126.27 219.06 132.91 221.19 139.40" stroke="#d3c4fa"></path>
<path d="M 101.50 183.22
  Q 94.75 197.42 99.90 210.89
  C 109.90 237.06 143.00 244.95 167.49 238.23
  C 190.46 231.94 210.42 209.57 199.31 184.52
  C 195.47 175.88 196.27 172.20 200.97 164.23
  C 208.83 150.91 206.94 134.50 196.85 123.13
  C 185.99 110.91 168.18 108.48 153.98 116.01
  C 151.46 117.34 149.12 117.75 146.74 116.46
  Q 138.94 112.23 130.67 111.78
  C 104.95 110.38 86.61 137.37 97.37 160.98
  C 98.56 163.59 100.89 166.70 101.93 169.06
  Q 104.97 175.93 101.50 183.22" stroke="#d3c4fa"></path>
<path d="M 110.13 178.13
  C 109.65 183.39 106.22 188.51 105.28 192.98
  C 101.46 211.12 115.63 225.33 131.50 230.69
  C 148.33 236.37 167.58 234.22 181.98 223.53
  C 192.90 215.43 198.39 202.49 193.39 189.29
  C 190.44 181.49 188.32 176.29 191.01 168.07
  C 192.17 164.52 195.28 160.76 196.48 157.73
  C 205.55 134.81 184.93 113.24 161.51 120.39
  C 159.28 121.07 156.97 122.68 154.74 123.46
  C 149.60 125.24 146.12 123.68 141.51 121.47
  C 126.89 114.47 110.44 120.68 103.73 134.91
  C 99.90 143.03 100.31 153.64 105.75 161.72
  C 109.09 166.68 110.68 171.95 110.13 178.13" stroke="#d3c4fa"></path>
<path d="M 162.58 150.66
  Q 158.40 148.52 156.75 152.76
  C 155.49 156.01 162.07 158.14 164.17 158.67
  Q 176.00 161.67 183.92 152.45
  A 3.51 3.51 0.0 0 0 183.69 147.62
  L 183.04 147.01
  A 2.50 2.50 0.0 0 0 179.39 147.21
  Q 172.32 155.64 162.58 150.66" stroke="#d3c4fa"></path>
<path d="M 134.94 151.66
  Q 129.56 153.88 124.23 150.64
  C 122.30 149.47 121.38 146.99 119.04 146.74
  C 115.96 146.41 114.01 150.02 116.06 152.45
  Q 123.83 161.69 136.00 158.55
  C 138.64 157.87 145.55 155.57 141.99 151.38
  C 139.90 148.92 137.35 150.67 134.94 151.66" stroke="#d3c4fa"></path>
<path d="M 138.17 185.59
  C 140.56 186.72 142.32 190.20 145.38 187.36
  C 151.06 182.10 133.21 173.30 132.50 181.26
  C 132.19 184.75 136.21 184.67 138.17 185.59" stroke="#d3c4fa"></path>
<path d="M 159.74 186.99
  C 161.22 185.83 162.55 185.23 164.50 184.77
  C 168.93 183.73 167.82 177.83 164.25 177.94
  Q 158.74 178.10 154.47 182.49
  C 152.24 184.78 154.06 188.57 156.96 188.39
  Q 158.03 188.32 159.74 186.99" stroke="#d3c4fa"></path>
<path d="M 153.49 212.74
  L 153.49 208.87
  A 3.06 3.06 0.0 0 0 150.37 205.81
  L 149.48 205.83
  A 3.01 3.01 0.0 0 0 146.53 208.80
  L 146.49 212.56
  Q 146.48 213.13 145.91 213.15
  C 137.30 213.53 128.99 211.58 124.56 203.29
  A 2.65 2.64 62.3 0 0 121.03 202.18
  L 120.34 202.54
  Q 117.30 204.08 118.86 207.12
  C 124.13 217.41 135.12 220.62 146.11 220.08
  Q 150.01 219.88 153.38 220.07
  C 164.15 220.65 175.58 217.68 180.93 207.45
  Q 182.41 204.61 179.66 202.96
  L 178.93 202.52
  A 2.52 2.52 0.0 0 0 175.45 203.43
  C 170.78 211.53 162.75 213.42 153.96 213.22
  Q 153.49 213.21 153.49 212.74" stroke="#d3c4fa"></path>
</g>
<path d="M 0.00 0.00
  L 300.00 0.00
  L 300.00 300.00
  L 0.00 300.00
  L 0.00 0.00
  Z
  M 170.21 58.20
  Q 170.40 57.73 170.57 57.35
  C 174.49 48.88 156.12 53.25 152.61 54.22
  Q 152.10 54.36 151.83 53.91
  C 148.07 47.67 141.09 45.57 134.19 45.33
  C 130.90 45.21 127.98 46.59 129.54 50.46
  Q 131.19 54.54 130.59 58.06
  Q 130.49 58.66 129.91 58.84
  Q 98.99 68.87 85.71 98.42
  Q 85.53 98.83 85.09 98.74
  C 73.59 96.28 58.16 97.90 50.22 107.25
  C 42.16 116.73 45.30 131.73 50.50 141.98
  Q 55.88 152.59 65.63 158.23
  Q 66.08 158.49 65.85 158.94
  C 44.01 203.35 80.55 240.64 121.01 250.97
  C 149.47 258.23 180.73 254.92 206.12 239.62
  C 221.04 230.64 233.95 216.52 238.68 199.68
  Q 243.83 181.34 235.93 163.42
  Q 234.93 161.15 234.13 158.83
  Q 233.97 158.35 234.41 158.11
  Q 242.38 153.77 247.41 145.70
  C 254.73 133.93 259.14 115.66 247.75 105.25
  C 239.62 97.81 225.66 96.41 214.77 98.74
  Q 214.50 98.80 214.39 98.55
  Q 201.31 68.98 170.50 58.84
  Q 170.02 58.68 170.21 58.20
  Z" fill="#a789f5"></path>
<path d="M 170.50 58.84
  Q 201.31 68.98 214.39 98.55
  Q 214.50 98.80 214.77 98.74
  C 225.66 96.41 239.62 97.81 247.75 105.25
  C 259.14 115.66 254.73 133.93 247.41 145.70
  Q 242.38 153.77 234.41 158.11
  Q 233.97 158.35 234.13 158.83
  Q 234.93 161.15 235.93 163.42
  Q 243.83 181.34 238.68 199.68
  C 233.95 216.52 221.04 230.64 206.12 239.62
  C 180.73 254.92 149.47 258.23 121.01 250.97
  C 80.55 240.64 44.01 203.35 65.85 158.94
  Q 66.08 158.49 65.63 158.23
  Q 55.88 152.59 50.50 141.98
  C 45.30 131.73 42.16 116.73 50.22 107.25
  C 58.16 97.90 73.59 96.28 85.09 98.74
  Q 85.53 98.83 85.71 98.42
  Q 98.99 68.87 129.91 58.84
  Q 130.49 58.66 130.59 58.06
  Q 131.19 54.54 129.54 50.46
  C 127.98 46.59 130.90 45.21 134.19 45.33
  C 141.09 45.57 148.07 47.67 151.83 53.91
  Q 152.10 54.36 152.61 54.22
  C 156.12 53.25 174.49 48.88 170.57 57.35
  Q 170.40 57.73 170.21 58.20
  Q 170.02 58.68 170.50 58.84
  Z
  M 162.65 59.96
  A 0.38 0.38 0.0 0 0 162.28 59.53
  Q 156.77 59.40 151.94 62.14
  C 149.06 63.78 147.40 62.60 146.62 59.55
  Q 145.17 53.91 138.29 52.84
  Q 137.32 52.69 137.45 53.66
  C 137.78 56.00 137.68 63.80 134.25 64.76
  C 108.73 71.92 90.41 92.53 87.53 118.98
  C 86.82 125.46 87.91 132.30 86.48 138.35
  Q 84.90 145.08 80.98 149.51
  C 55.06 178.77 65.66 214.37 96.87 233.35
  C 131.22 254.26 180.78 252.66 212.28 226.77
  C 230.53 211.76 238.88 189.88 230.04 166.86
  Q 226.84 158.52 219.03 149.49
  C 214.75 144.54 212.70 137.33 212.76 130.53
  C 212.79 125.96 212.86 121.16 212.25 116.94
  C 208.64 91.70 190.99 71.39 166.30 64.77
  C 163.47 64.01 162.23 62.98 162.65 59.96
  Z
  M 64.07 113.83
  Q 71.95 110.39 80.89 112.17
  Q 81.50 112.29 81.66 111.69
  L 83.10 105.99
  A 0.63 0.62 -79.0 0 0 82.58 105.21
  C 71.61 103.80 55.99 105.11 52.98 116.74
  C 49.85 128.81 57.96 146.77 69.34 152.29
  A 0.47 0.47 0.0 0 0 69.92 152.15
  L 73.91 146.74
  Q 74.13 146.44 73.78 146.32
  C 63.64 142.87 59.04 132.35 59.34 122.22
  C 59.45 118.53 60.69 115.31 64.07 113.83
  Z
  M 218.35 111.76
  Q 218.47 112.27 218.99 112.17
  C 227.21 110.49 241.35 111.48 240.65 123.25
  C 240.03 133.67 236.51 142.64 226.21 146.34
  Q 225.86 146.47 226.08 146.77
  L 230.06 152.12
  Q 230.28 152.42 230.62 152.27
  C 241.38 147.51 247.16 133.47 247.62 122.25
  C 248.30 105.52 229.07 103.25 217.34 105.29
  Q 216.79 105.39 216.92 105.93
  L 218.35 111.76
  Z
  M 67.88 131.59
  Q 70.50 138.56 77.69 140.32
  A 0.67 0.67 0.0 0 0 78.47 139.93
  C 81.08 133.68 80.25 126.39 80.34 119.61
  Q 80.35 119.11 79.86 119.02
  C 77.51 118.56 66.78 118.05 66.33 121.36
  Q 65.71 125.80 67.88 131.59
  Z
  M 221.19 139.40
  Q 221.56 140.54 222.71 140.21
  Q 229.65 138.20 232.16 131.47
  C 233.04 129.11 234.41 123.78 233.48 120.69
  A 1.12 1.11 -89.6 0 0 232.77 119.96
  Q 226.53 117.84 220.02 118.95
  Q 219.54 119.03 219.55 119.50
  C 219.67 126.27 219.06 132.91 221.19 139.40
  Z" fill="#ffffff"></path>
<path d="M 162.65 59.96
  C 162.23 62.98 163.47 64.01 166.30 64.77
  C 190.99 71.39 208.64 91.70 212.25 116.94
  C 212.86 121.16 212.79 125.96 212.76 130.53
  C 212.70 137.33 214.75 144.54 219.03 149.49
  Q 226.84 158.52 230.04 166.86
  C 238.88 189.88 230.53 211.76 212.28 226.77
  C 180.78 252.66 131.22 254.26 96.87 233.35
  C 65.66 214.37 55.06 178.77 80.98 149.51
  Q 84.90 145.08 86.48 138.35
  C 87.91 132.30 86.82 125.46 87.53 118.98
  C 90.41 92.53 108.73 71.92 134.25 64.76
  C 137.68 63.80 137.78 56.00 137.45 53.66
  Q 137.32 52.69 138.29 52.84
  Q 145.17 53.91 146.62 59.55
  C 147.40 62.60 149.06 63.78 151.94 62.14
  Q 156.77 59.40 162.28 59.53
  A 0.38 0.38 0.0 0 1 162.65 59.96
  Z
  M 101.50 183.22
  Q 94.75 197.42 99.90 210.89
  C 109.90 237.06 143.00 244.95 167.49 238.23
  C 190.46 231.94 210.42 209.57 199.31 184.52
  C 195.47 175.88 196.27 172.20 200.97 164.23
  C 208.83 150.91 206.94 134.50 196.85 123.13
  C 185.99 110.91 168.18 108.48 153.98 116.01
  C 151.46 117.34 149.12 117.75 146.74 116.46
  Q 138.94 112.23 130.67 111.78
  C 104.95 110.38 86.61 137.37 97.37 160.98
  C 98.56 163.59 100.89 166.70 101.93 169.06
  Q 104.97 175.93 101.50 183.22
  Z" fill="#a789f5"></path>
<path d="M 64.07 113.83
  C 60.69 115.31 59.45 118.53 59.34 122.22
  C 59.04 132.35 63.64 142.87 73.78 146.32
  Q 74.13 146.44 73.91 146.74
  L 69.92 152.15
  A 0.47 0.47 0.0 0 1 69.34 152.29
  C 57.96 146.77 49.85 128.81 52.98 116.74
  C 55.99 105.11 71.61 103.80 82.58 105.21
  A 0.63 0.62 -79.0 0 1 83.10 105.99
  L 81.66 111.69
  Q 81.50 112.29 80.89 112.17
  Q 71.95 110.39 64.07 113.83
  Z" fill="#a789f5"></path>
<path d="M 218.35 111.76
  L 216.92 105.93
  Q 216.79 105.39 217.34 105.29
  C 229.07 103.25 248.30 105.52 247.62 122.25
  C 247.16 133.47 241.38 147.51 230.62 152.27
  Q 230.28 152.42 230.06 152.12
  L 226.08 146.77
  Q 225.86 146.47 226.21 146.34
  C 236.51 142.64 240.03 133.67 240.65 123.25
  C 241.35 111.48 227.21 110.49 218.99 112.17
  Q 218.47 112.27 218.35 111.76
  Z" fill="#a789f5"></path>
<path d="M 101.50 183.22
  Q 104.97 175.93 101.93 169.06
  C 100.89 166.70 98.56 163.59 97.37 160.98
  C 86.61 137.37 104.95 110.38 130.67 111.78
  Q 138.94 112.23 146.74 116.46
  C 149.12 117.75 151.46 117.34 153.98 116.01
  C 168.18 108.48 185.99 110.91 196.85 123.13
  C 206.94 134.50 208.83 150.91 200.97 164.23
  C 196.27 172.20 195.47 175.88 199.31 184.52
  C 210.42 209.57 190.46 231.94 167.49 238.23
  C 143.00 244.95 109.90 237.06 99.90 210.89
  Q 94.75 197.42 101.50 183.22
  Z
  M 110.13 178.13
  C 109.65 183.39 106.22 188.51 105.28 192.98
  C 101.46 211.12 115.63 225.33 131.50 230.69
  C 148.33 236.37 167.58 234.22 181.98 223.53
  C 192.90 215.43 198.39 202.49 193.39 189.29
  C 190.44 181.49 188.32 176.29 191.01 168.07
  C 192.17 164.52 195.28 160.76 196.48 157.73
  C 205.55 134.81 184.93 113.24 161.51 120.39
  C 159.28 121.07 156.97 122.68 154.74 123.46
  C 149.60 125.24 146.12 123.68 141.51 121.47
  C 126.89 114.47 110.44 120.68 103.73 134.91
  C 99.90 143.03 100.31 153.64 105.75 161.72
  C 109.09 166.68 110.68 171.95 110.13 178.13
  Z" fill="#ffffff"></path>
<path d="M 67.88 131.59
  Q 65.71 125.80 66.33 121.36
  C 66.78 118.05 77.51 118.56 79.86 119.02
  Q 80.35 119.11 80.34 119.61
  C 80.25 126.39 81.08 133.68 78.47 139.93
  A 0.67 0.67 0.0 0 1 77.69 140.32
  Q 70.50 138.56 67.88 131.59
  Z" fill="#a789f5"></path>
<path d="M 110.13 178.13
  C 110.68 171.95 109.09 166.68 105.75 161.72
  C 100.31 153.64 99.90 143.03 103.73 134.91
  C 110.44 120.68 126.89 114.47 141.51 121.47
  C 146.12 123.68 149.60 125.24 154.74 123.46
  C 156.97 122.68 159.28 121.07 161.51 120.39
  C 184.93 113.24 205.55 134.81 196.48 157.73
  C 195.28 160.76 192.17 164.52 191.01 168.07
  C 188.32 176.29 190.44 181.49 193.39 189.29
  C 198.39 202.49 192.90 215.43 181.98 223.53
  C 167.58 234.22 148.33 236.37 131.50 230.69
  C 115.63 225.33 101.46 211.12 105.28 192.98
  C 106.22 188.51 109.65 183.39 110.13 178.13
  Z
  M 162.58 150.66
  Q 158.40 148.52 156.75 152.76
  C 155.49 156.01 162.07 158.14 164.17 158.67
  Q 176.00 161.67 183.92 152.45
  A 3.51 3.51 0.0 0 0 183.69 147.62
  L 183.04 147.01
  A 2.50 2.50 0.0 0 0 179.39 147.21
  Q 172.32 155.64 162.58 150.66
  Z
  M 134.94 151.66
  Q 129.56 153.88 124.23 150.64
  C 122.30 149.47 121.38 146.99 119.04 146.74
  C 115.96 146.41 114.01 150.02 116.06 152.45
  Q 123.83 161.69 136.00 158.55
  C 138.64 157.87 145.55 155.57 141.99 151.38
  C 139.90 148.92 137.35 150.67 134.94 151.66
  Z
  M 138.17 185.59
  C 140.56 186.72 142.32 190.20 145.38 187.36
  C 151.06 182.10 133.21 173.30 132.50 181.26
  C 132.19 184.75 136.21 184.67 138.17 185.59
  Z
  M 159.74 186.99
  C 161.22 185.83 162.55 185.23 164.50 184.77
  C 168.93 183.73 167.82 177.83 164.25 177.94
  Q 158.74 178.10 154.47 182.49
  C 152.24 184.78 154.06 188.57 156.96 188.39
  Q 158.03 188.32 159.74 186.99
  Z
  M 153.49 212.74
  L 153.49 208.87
  A 3.06 3.06 0.0 0 0 150.37 205.81
  L 149.48 205.83
  A 3.01 3.01 0.0 0 0 146.53 208.80
  L 146.49 212.56
  Q 146.48 213.13 145.91 213.15
  C 137.30 213.53 128.99 211.58 124.56 203.29
  A 2.65 2.64 62.3 0 0 121.03 202.18
  L 120.34 202.54
  Q 117.30 204.08 118.86 207.12
  C 124.13 217.41 135.12 220.62 146.11 220.08
  Q 150.01 219.88 153.38 220.07
  C 164.15 220.65 175.58 217.68 180.93 207.45
  Q 182.41 204.61 179.66 202.96
  L 178.93 202.52
  A 2.52 2.52 0.0 0 0 175.45 203.43
  C 170.78 211.53 162.75 213.42 153.96 213.22
  Q 153.49 213.21 153.49 212.74
  Z" fill="#a789f5"></path>
<path d="M 221.19 139.40
  C 219.06 132.91 219.67 126.27 219.55 119.50
  Q 219.54 119.03 220.02 118.95
  Q 226.53 117.84 232.77 119.96
  A 1.12 1.11 -89.6 0 1 233.48 120.69
  C 234.41 123.78 233.04 129.11 232.16 131.47
  Q 229.65 138.20 222.71 140.21
  Q 221.56 140.54 221.19 139.40
  Z" fill="#a789f5"></path>
<path d="M 162.58 150.66
  Q 172.32 155.64 179.39 147.21
  A 2.50 2.50 0.0 0 1 183.04 147.01
  L 183.69 147.62
  A 3.51 3.51 0.0 0 1 183.92 152.45
  Q 176.00 161.67 164.17 158.67
  C 162.07 158.14 155.49 156.01 156.75 152.76
  Q 158.40 148.52 162.58 150.66
  Z" fill="#ffffff"></path>
<path d="M 134.94 151.66
  C 137.35 150.67 139.90 148.92 141.99 151.38
  C 145.55 155.57 138.64 157.87 136.00 158.55
  Q 123.83 161.69 116.06 152.45
  C 114.01 150.02 115.96 146.41 119.04 146.74
  C 121.38 146.99 122.30 149.47 124.23 150.64
  Q 129.56 153.88 134.94 151.66
  Z" fill="#ffffff"></path>
<path d="M 138.17 185.59
  C 136.21 184.67 132.19 184.75 132.50 181.26
  C 133.21 173.30 151.06 182.10 145.38 187.36
  C 142.32 190.20 140.56 186.72 138.17 185.59
  Z" fill="#ffffff"></path>
<path d="M 164.50 184.77
  C 162.55 185.23 161.22 185.83 159.74 186.99
  Q 158.03 188.32 156.96 188.39
  C 154.06 188.57 152.24 184.78 154.47 182.49
  Q 158.74 178.10 164.25 177.94
  C 167.82 177.83 168.93 183.73 164.50 184.77
  Z" fill="#ffffff"></path>
<path d="M 153.96 213.22
  C 162.75 213.42 170.78 211.53 175.45 203.43
  A 2.52 2.52 0.0 0 1 178.93 202.52
  L 179.66 202.96
  Q 182.41 204.61 180.93 207.45
  C 175.58 217.68 164.15 220.65 153.38 220.07
  Q 150.01 219.88 146.11 220.08
  C 135.12 220.62 124.13 217.41 118.86 207.12
  Q 117.30 204.08 120.34 202.54
  L 121.03 202.18
  A 2.65 2.64 62.3 0 1 124.56 203.29
  C 128.99 211.58 137.30 213.53 145.91 213.15
  Q 146.48 213.13 146.49 212.56
  L 146.53 208.80
  A 3.01 3.01 0.0 0 1 149.48 205.83
  L 150.37 205.81
  A 3.06 3.06 0.0 0 1 153.49 208.87
  L 153.49 212.74
  Q 153.49 213.21 153.96 213.22
  Z" fill="#ffffff"></path>
</svg>
