<svg viewBox="0.00 0.00 256.00 256.00" version="1.1" xmlns="http://www.w3.org/2000/svg">
<g stroke-linecap="butt" fill="none" stroke-width="2.00">
<path d="M 35.35 198.37
  A 0.34 0.34 0.0 0 0 35.64 198.88
  L 221.12 198.88
  A 0.34 0.34 0.0 0 0 221.41 198.37
  L 128.67 38.12
  A 0.34 0.34 0.0 0 0 128.09 38.12
  L 35.35 198.37" stroke="#8d2750"></path>
<path d="M 128.07 64.57
  L 67.86 168.57
  Q 67.22 169.67 68.09 168.80
  L 144.35 92.88
  Q 144.73 92.50 144.46 92.04
  L 128.43 64.57
  A 0.21 0.21 0.0 0 0 128.07 64.57" stroke="#8d2750"></path>
<path d="M 70.00 175.77
  L 163.38 125.12
  A 0.26 0.25 61.5 0 0 163.48 124.77
  L 148.26 98.48
  A 0.41 0.40 52.4 0 0 147.62 98.39
  L 69.88 175.60
  Q 69.37 176.11 70.00 175.77" stroke="#8d2750"></path>
<path d="M 166.21 130.41
  L 73.42 180.94
  Q 72.81 181.27 73.49 181.13
  L 182.20 157.42
  A 0.14 0.13 -21.6 0 0 182.29 157.22
  L 166.67 130.54
  A 0.35 0.34 60.4 0 0 166.21 130.41" stroke="#8d2750"></path>
<path d="M 198.44 185.29
  L 185.74 163.28
  A 0.67 0.66 -21.1 0 0 185.03 162.97
  L 81.64 185.37
  Q 81.60 185.38 81.58 185.42
  Q 81.52 185.52 81.57 185.71
  Q 81.58 185.75 81.62 185.75
  Q 139.93 185.52 198.24 185.64
  A 0.23 0.23 0.0 0 0 198.44 185.29" stroke="#8d2750"></path>
</g>
<path d="M 0.00 0.00
  L 256.00 0.00
  L 256.00 256.00
  L 0.00 256.00
  L 0.00 0.00
  Z
  M 35.35 198.37
  A 0.34 0.34 0.0 0 0 35.64 198.88
  L 221.12 198.88
  A 0.34 0.34 0.0 0 0 221.41 198.37
  L 128.67 38.12
  A 0.34 0.34 0.0 0 0 128.09 38.12
  L 35.35 198.37
  Z" fill="#1a1a1a"></path>
<path d="M 35.35 198.37
  L 128.09 38.12
  A 0.34 0.34 0.0 0 1 128.67 38.12
  L 221.41 198.37
  A 0.34 0.34 0.0 0 1 221.12 198.88
  L 35.64 198.88
  A 0.34 0.34 0.0 0 1 35.35 198.37
  Z
  M 128.07 64.57
  L 67.86 168.57
  Q 67.22 169.67 68.09 168.80
  L 144.35 92.88
  Q 144.73 92.50 144.46 92.04
  L 128.43 64.57
  A 0.21 0.21 0.0 0 0 128.07 64.57
  Z
  M 70.00 175.77
  L 163.38 125.12
  A 0.26 0.25 61.5 0 0 163.48 124.77
  L 148.26 98.48
  A 0.41 0.40 52.4 0 0 147.62 98.39
  L 69.88 175.60
  Q 69.37 176.11 70.00 175.77
  Z
  M 166.21 130.41
  L 73.42 180.94
  Q 72.81 181.27 73.49 181.13
  L 182.20 157.42
  A 0.14 0.13 -21.6 0 0 182.29 157.22
  L 166.67 130.54
  A 0.35 0.34 60.4 0 0 166.21 130.41
  Z
  M 198.44 185.29
  L 185.74 163.28
  A 0.67 0.66 -21.1 0 0 185.03 162.97
  L 81.64 185.37
  Q 81.60 185.38 81.58 185.42
  Q 81.52 185.52 81.57 185.71
  Q 81.58 185.75 81.62 185.75
  Q 139.93 185.52 198.24 185.64
  A 0.23 0.23 0.0 0 0 198.44 185.29
  Z" fill="#ff3385"></path>
<path d="M 67.86 168.57
  L 128.07 64.57
  A 0.21 0.21 0.0 0 1 128.43 64.57
  L 144.46 92.04
  Q 144.73 92.50 144.35 92.88
  L 68.09 168.80
  Q 67.22 169.67 67.86 168.57
  Z" fill="#1a1a1a"></path>
<path d="M 70.00 175.77
  Q 69.37 176.11 69.88 175.60
  L 147.62 98.39
  A 0.41 0.40 52.4 0 1 148.26 98.48
  L 163.48 124.77
  A 0.26 0.25 61.5 0 1 163.38 125.12
  L 70.00 175.77
  Z" fill="#1a1a1a"></path>
<path d="M 73.42 180.94
  L 166.21 130.41
  A 0.35 0.34 60.4 0 1 166.67 130.54
  L 182.29 157.22
  A 0.14 0.13 -21.6 0 1 182.20 157.42
  L 73.49 181.13
  Q 72.81 181.27 73.42 180.94
  Z" fill="#1a1a1a"></path>
<path d="M 198.44 185.29
  A 0.23 0.23 0.0 0 1 198.24 185.64
  Q 139.93 185.52 81.62 185.75
  Q 81.58 185.75 81.57 185.71
  Q 81.52 185.52 81.58 185.42
  Q 81.60 185.38 81.64 185.37
  L 185.03 162.97
  A 0.67 0.66 -21.1 0 1 185.74 163.28
  L 198.44 185.29
  Z" fill="#1a1a1a"></path>
</svg>
