<svg viewBox="0.00 0.00 180.00 180.00" version="1.1" xmlns="http://www.w3.org/2000/svg">
<g stroke-linecap="butt" fill="none" stroke-width="2.00">
<path d="M 13.12 95.46
  C 15.84 136.52 50.61 168.95 91.79 168.03
  C 133.69 167.10 166.24 134.33 168.04 92.70" stroke="#92d0ef"></path>
<path d="M 168.04 92.70
  C 169.31 37.96 115.29 -1.13 63.80 17.72
  C 31.48 29.56 11.30 60.95 13.12 95.46" stroke="#94d4f4"></path>
<path d="M 168.04 92.70
  Q 167.25 92.73 167.15 93.71
  Q 167.09 94.31 166.88 93.75
  Q 166.76 93.40 166.87 93.00
  A 0.87 0.86 8.2 0 0 166.03 91.89
  Q 148.38 91.89 130.50 91.88
  Q 128.72 91.88 125.94 92.28
  Q 125.52 92.34 125.15 92.12
  Q 124.78 91.90 124.60 91.49
  A 0.36 0.36 0.0 0 0 123.91 91.67
  Q 123.95 92.06 123.69 92.35
  Q 123.38 92.70 122.93 92.53
  Q 122.80 92.49 122.66 92.42" stroke="#26a5e4"></path>
<path d="M 122.66 92.42
  Q 124.79 79.36 126.41 66.21
  C 127.58 56.75 119.50 59.83 114.80 61.69
  Q 79.62 75.63 45.07 91.08
  Q 43.77 91.66 42.43 93.25" stroke="#94d4f4"></path>
<path d="M 42.43 93.25
  Q 41.15 92.56 41.73 91.84
  Q 42.44 90.95 41.30 90.95
  L 17.26 91.00
  A 0.47 0.47 0.0 0 0 16.83 91.65
  Q 17.06 92.18 16.00 92.14
  Q 14.72 92.09 13.67 91.40
  Q 13.34 91.17 13.26 91.57
  Q 13.23 91.73 13.35 91.86
  Q 13.60 92.14 13.48 92.50
  Q 13.04 93.77 13.12 95.46" stroke="#26a5e4"></path>
<path d="M 122.66 92.42
  Q 120.30 106.96 117.65 121.43
  C 116.19 129.42 111.77 131.76 104.93 127.06
  Q 92.94 118.81 81.06 110.43
  C 76.46 107.18 79.76 104.22 82.44 101.70
  Q 94.08 90.78 105.53 79.34
  A 1.19 1.17 54.6 0 0 105.75 77.99
  Q 104.97 76.40 103.11 77.60
  Q 86.77 88.22 70.72 99.25
  C 63.18 104.43 52.88 100.04 45.28 97.20
  Q 41.83 95.91 42.43 93.25" stroke="#92d0ef"></path>
</g>
<path d="M 0.00 0.00
  L 180.00 0.00
  L 180.00 180.00
  L 0.00 180.00
  L 0.00 0.00
  Z
  M 13.12 95.46
  C 15.84 136.52 50.61 168.95 91.79 168.03
  C 133.69 167.10 166.24 134.33 168.04 92.70
  C 169.31 37.96 115.29 -1.13 63.80 17.72
  C 31.48 29.56 11.30 60.95 13.12 95.46
  Z" fill="#ffffff"></path>
<path d="M 168.04 92.70
  Q 167.25 92.73 167.15 93.71
  Q 167.09 94.31 166.88 93.75
  Q 166.76 93.40 166.87 93.00
  A 0.87 0.86 8.2 0 0 166.03 91.89
  Q 148.38 91.89 130.50 91.88
  Q 128.72 91.88 125.94 92.28
  Q 125.52 92.34 125.15 92.12
  Q 124.78 91.90 124.60 91.49
  A 0.36 0.36 0.0 0 0 123.91 91.67
  Q 123.95 92.06 123.69 92.35
  Q 123.38 92.70 122.93 92.53
  Q 122.80 92.49 122.66 92.42
  Q 124.79 79.36 126.41 66.21
  C 127.58 56.75 119.50 59.83 114.80 61.69
  Q 79.62 75.63 45.07 91.08
  Q 43.77 91.66 42.43 93.25
  Q 41.15 92.56 41.73 91.84
  Q 42.44 90.95 41.30 90.95
  L 17.26 91.00
  A 0.47 0.47 0.0 0 0 16.83 91.65
  Q 17.06 92.18 16.00 92.14
  Q 14.72 92.09 13.67 91.40
  Q 13.34 91.17 13.26 91.57
  Q 13.23 91.73 13.35 91.86
  Q 13.60 92.14 13.48 92.50
  Q 13.04 93.77 13.12 95.46
  C 11.30 60.95 31.48 29.56 63.80 17.72
  C 115.29 -1.13 169.31 37.96 168.04 92.70
  Z" fill="#28a8e9"></path>
<path d="M 122.66 92.42
  Q 120.30 106.96 117.65 121.43
  C 116.19 129.42 111.77 131.76 104.93 127.06
  Q 92.94 118.81 81.06 110.43
  C 76.46 107.18 79.76 104.22 82.44 101.70
  Q 94.08 90.78 105.53 79.34
  A 1.19 1.17 54.6 0 0 105.75 77.99
  Q 104.97 76.40 103.11 77.60
  Q 86.77 88.22 70.72 99.25
  C 63.18 104.43 52.88 100.04 45.28 97.20
  Q 41.83 95.91 42.43 93.25
  Q 43.77 91.66 45.07 91.08
  Q 79.62 75.63 114.80 61.69
  C 119.50 59.83 127.58 56.75 126.41 66.21
  Q 124.79 79.36 122.66 92.42
  Z" fill="#ffffff"></path>
<path d="M 122.66 92.42
  Q 122.80 92.49 122.93 92.53
  Q 123.38 92.70 123.69 92.35
  Q 123.95 92.06 123.91 91.67
  A 0.36 0.36 0.0 0 1 124.60 91.49
  Q 124.78 91.90 125.15 92.12
  Q 125.52 92.34 125.94 92.28
  Q 128.72 91.88 130.50 91.88
  Q 148.38 91.89 166.03 91.89
  A 0.87 0.86 8.2 0 1 166.87 93.00
  Q 166.76 93.40 166.88 93.75
  Q 167.09 94.31 167.15 93.71
  Q 167.25 92.73 168.04 92.70
  C 166.24 134.33 133.69 167.10 91.79 168.03
  C 50.61 168.95 15.84 136.52 13.12 95.46
  Q 13.04 93.77 13.48 92.50
  Q 13.60 92.14 13.35 91.86
  Q 13.23 91.73 13.26 91.57
  Q 13.34 91.17 13.67 91.40
  Q 14.72 92.09 16.00 92.14
  Q 17.06 92.18 16.83 91.65
  A 0.47 0.47 0.0 0 1 17.26 91.00
  L 41.30 90.95
  Q 42.44 90.95 41.73 91.84
  Q 41.15 92.56 42.43 93.25
  Q 41.83 95.91 45.28 97.20
  C 52.88 100.04 63.18 104.43 70.72 99.25
  Q 86.77 88.22 103.11 77.60
  Q 104.97 76.40 105.75 77.99
  A 1.19 1.17 54.6 0 1 105.53 79.34
  Q 94.08 90.78 82.44 101.70
  C 79.76 104.22 76.46 107.18 81.06 110.43
  Q 92.94 118.81 104.93 127.06
  C 111.77 131.76 116.19 129.42 117.65 121.43
  Q 120.30 106.96 122.66 92.42
  Z" fill="#24a1df"></path>
</svg>
