<svg viewBox="0.00 0.00 513.00 512.00" version="1.1" xmlns="http://www.w3.org/2000/svg">
<g stroke-linecap="butt" fill="none" stroke-width="2.00">
<path d="M 363.11 72.51
  Q 362.83 73.16 362.20 73.13
  Q 361.92 73.12 361.87 73.39
  Q 361.84 73.57 361.70 73.70
  Q 354.63 80.95 347.40 88.01
  Q 341.90 93.38 336.96 99.27
  Q 336.88 99.37 336.75 99.37
  Q 336.60 99.37 336.45 99.36
  Q 336.26 99.35 336.21 99.54
  Q 335.88 100.91 334.49 101.39
  Q 334.28 101.46 334.34 101.77
  Q 334.40 102.09 334.16 102.30
  C 332.18 104.03 330.80 106.22 328.90 107.87
  C 325.73 110.62 323.21 113.84 320.07 116.62
  C 316.94 119.40 314.25 122.58 311.15 125.46
  C 308.67 127.76 306.65 130.35 304.10 132.60
  C 301.01 135.32 298.31 138.51 295.31 141.31
  C 292.82 143.62 290.76 146.14 288.22 148.55
  C 283.95 152.59 280.57 156.37 274.84 161.47
  Q 273.38 162.78 271.86 163.99
  Q 270.17 165.34 268.95 166.59
  Q 263.70 171.95 258.43 177.30
  Q 252.91 182.89 246.95 188.33" stroke="#feca62"></path>
<path d="M 245.54 208.61
  Q 245.31 208.26 245.49 207.70
  Q 245.64 207.26 245.31 206.93
  L 131.01 92.63
  A 0.52 0.51 42.0 0 1 130.97 91.94
  Q 131.45 91.33 131.26 90.75" stroke="#0987be"></path>
<path d="M 408.33 117.70
  L 292.87 233.17
  Q 292.78 233.25 292.70 233.18
  Q 292.64 233.14 292.58 233.11
  Q 292.47 233.08 292.33 233.33
  Q 292.27 233.43 292.14 233.56" stroke="#fbbb46"></path>
<path d="M 218.07 236.06
  L 218.65 234.70
  Q 218.85 234.24 218.49 233.88
  L 104.35 119.73
  A 0.78 0.77 -60.7 0 0 103.05 120.10
  Q 102.83 120.99 101.94 120.15" stroke="#1499cd"></path>
<path d="M 422.22 174.52
  Q 393.89 177.66 373.50 197.23
  Q 370.43 200.17 362.01 208.66" stroke="#81c759"></path>
<path d="M 362.01 208.66
  L 322.01 248.64" stroke="#8cc35d"></path>
<path d="M 322.01 248.64
  L 314.31 255.79" stroke="#8fba5c"></path>
<path d="M 197.89 256.15
  L 192.28 261.30" stroke="#6867b0"></path>
<path d="M 192.28 261.30
  L 191.75 259.66
  Q 191.61 259.24 191.29 258.93
  L 77.21 144.90" stroke="#1cafe1"></path>
<path d="M 192.28 261.30
  L 154.78 298.74" stroke="#6b72bb"></path>
<path d="M 154.78 298.74
  Q 154.93 298.22 153.98 298.21
  Q 153.46 298.20 153.09 297.83
  L 38.72 183.40" stroke="#1cc1f3"></path>
<path d="M 465.33 337.08
  Q 457.50 328.59 449.27 320.35
  Q 433.37 304.44 417.41 288.60
  A 2.92 0.00 44.7 0 0 415.90 287.10
  Q 400.49 271.65 385.06 256.23
  Q 384.70 255.88 384.20 255.88
  L 383.90 255.88
  Q 383.36 255.88 382.96 255.50
  L 361.48 235.19
  Q 361.26 234.98 360.98 234.82
  Q 360.55 234.57 360.27 234.16
  C 358.93 232.19 357.13 230.67 355.52 228.92
  Q 355.49 228.89 355.44 228.88
  Q 355.28 228.88 355.12 228.88
  Q 354.89 228.88 354.87 228.65
  Q 354.83 228.12 354.38 227.96
  Q 354.09 227.86 353.89 227.64
  L 351.92 225.55
  Q 351.57 225.18 351.08 225.06
  Q 350.62 224.94 350.63 224.73
  Q 350.65 224.36 350.33 224.17
  Q 349.54 223.72 348.59 223.91
  Q 348.28 223.97 348.50 223.74
  Q 348.72 223.52 349.04 223.64
  A 0.23 0.23 0.0 0 0 349.34 223.48
  Q 349.49 222.74 349.99 222.59
  Q 350.36 222.47 350.39 222.08
  Q 350.44 221.49 350.78 221.26
  Q 351.45 220.82 351.55 220.69
  Q 352.85 219.00 354.41 217.55
  Q 358.71 213.53 362.69 209.23
  A 0.36 0.36 0.0 0 0 362.53 208.64
  Q 362.32 208.58 362.01 208.66" stroke="#13d780"></path>
<path d="M 154.78 298.74
  C 146.88 306.69 138.22 316.06 130.10 322.04
  Q 108.40 338.02 81.50 337.94
  Q 52.36 337.85 28.13 318.22" stroke="#6879c1"></path>
<path d="M 437.94 364.49
  L 323.02 249.56
  A 0.59 0.59 0.0 0 1 323.43 248.56
  Q 323.93 248.55 323.99 248.22
  Q 324.03 248.01 323.84 248.13
  Q 323.13 248.62 322.01 248.64" stroke="#21ca83"></path>
<path d="M 400.78 401.72
  Q 400.49 400.50 400.63 400.31
  A 1.76 1.76 0.0 0 0 400.28 397.87
  Q 395.83 394.46 392.54 390.79
  C 390.61 388.63 388.19 386.82 386.38 384.62
  Q 385.78 383.89 384.99 383.84
  Q 384.87 383.84 384.87 383.71
  Q 384.87 383.58 384.87 383.45
  A 0.87 0.85 -68.0 0 0 384.62 382.84
  Q 369.03 367.60 353.68 352.13
  Q 353.51 351.96 353.32 351.92
  Q 353.12 351.87 352.92 351.87
  Q 352.64 351.86 352.64 351.59
  Q 352.63 351.43 352.60 351.28
  Q 352.54 351.03 352.29 350.78
  Q 336.99 335.46 321.68 320.16
  Q 321.49 319.97 321.28 319.92
  Q 321.04 319.86 320.76 319.88
  Q 320.62 319.90 320.62 319.76
  Q 320.62 319.62 320.61 319.48
  Q 320.61 319.18 320.41 318.97
  Q 299.64 297.48 293.11 291.26
  Q 291.44 289.67 290.92 288.70
  Q 290.69 288.26 290.30 287.96
  Q 287.86 286.05 287.46 282.96" stroke="#22b27d"></path>
<path d="M 229.31 287.63
  Q 224.43 290.37 220.25 295.28
  Q 220.08 295.48 220.08 295.75
  L 220.08 296.08
  Q 220.08 296.50 219.78 296.80
  L 205.27 311.31
  Q 205.08 311.50 205.08 311.77
  L 205.08 312.08
  Q 205.08 312.50 204.78 312.80
  L 190.26 327.32
  Q 190.09 327.49 190.09 327.73
  Q 190.08 327.88 190.07 328.02
  Q 190.03 328.55 189.65 328.93
  L 176.27 342.31
  Q 176.08 342.50 176.08 342.77
  L 176.08 343.08
  Q 176.08 343.50 175.78 343.80
  L 161.27 358.31
  Q 161.08 358.50 161.08 358.77
  L 161.08 359.08
  Q 161.08 359.50 160.78 359.80
  L 146.27 374.31
  Q 146.08 374.50 146.08 374.77
  L 146.08 375.08
  Q 146.08 375.50 145.78 375.80
  L 131.26 390.32
  Q 131.09 390.49 131.09 390.73
  Q 131.08 390.87 131.07 391.02
  Q 131.04 391.54 130.66 391.91
  L 117.55 405.04
  Q 117.22 405.37 117.32 405.83
  Q 117.51 406.65 117.20 407.52" stroke="#c4338e"></path>
<path d="M 385.06 417.46
  Q 383.72 414.18 378.84 409.30
  C 370.61 401.07 361.97 393.02 354.08 384.49
  Q 353.73 384.11 353.22 384.11
  L 352.75 384.11
  Q 352.39 384.11 352.39 383.75
  Q 352.39 383.60 352.37 383.44
  Q 352.33 382.83 351.89 382.39
  L 321.88 352.38
  A 0.87 0.84 -21.2 0 0 321.26 352.12
  Q 321.13 352.11 321.00 352.12
  Q 320.39 352.12 320.39 351.50
  L 320.38 350.76
  Q 320.38 350.33 320.08 350.02
  L 270.45 299.95" stroke="#1d9a74"></path>
<path d="M 256.11 314.47
  Q 255.14 314.56 254.27 313.80
  A 0.09 0.09 0.0 0 0 254.12 313.89
  Q 254.19 314.27 253.94 314.57
  A 0.17 0.17 0.0 0 1 253.74 314.62
  Q 253.63 314.56 253.51 314.50
  Q 253.26 314.37 253.07 314.56
  L 240.31 327.31
  Q 240.12 327.49 240.12 327.75
  L 240.12 328.07
  Q 240.12 328.50 239.81 328.80
  L 226.30 342.32
  Q 226.12 342.50 226.12 342.76
  L 226.12 343.07
  Q 226.12 343.50 225.81 343.80
  L 211.30 358.31
  Q 211.12 358.50 211.12 358.76
  L 211.12 359.07
  Q 211.12 359.50 210.81 359.81
  L 196.30 374.31
  Q 196.12 374.50 196.12 374.76
  L 196.12 375.07
  Q 196.12 375.50 195.81 375.81
  L 181.30 390.32
  Q 181.12 390.50 181.12 390.76
  L 181.12 391.07
  Q 181.12 391.50 180.81 391.80
  L 167.30 405.31
  Q 167.12 405.50 167.12 405.76
  L 167.12 406.07
  Q 167.12 406.50 166.81 406.80
  L 152.30 421.31
  Q 152.12 421.50 152.12 421.76
  L 152.12 422.06
  Q 152.12 422.49 151.82 422.80
  L 143.50 431.13
  Q 143.13 431.51 143.28 432.02
  Q 143.58 433.03 142.99 433.36" stroke="#d93f96"></path>
<path d="M 374.25 428.29
  Q 371.18 424.07 366.25 419.25
  Q 357.23 410.45 340.85 393.90
  C 339.17 392.21 337.23 390.72 335.68 389.06
  C 322.82 375.31 306.49 359.08 296.01 348.61
  Q 295.68 348.28 295.22 348.18
  Q 294.56 348.05 294.62 347.60
  Q 294.66 347.22 294.39 346.95
  L 259.03 311.37" stroke="#178a6d"></path>
<path d="M 337.40 424.43
  Q 334.86 393.08 312.56 370.94
  Q 297.02 355.49 281.50 339.98" stroke="#846482"></path>
<path d="M 281.50 339.98
  Q 268.99 327.50 256.53 314.92
  Q 256.35 314.74 256.35 314.16" stroke="#7b6381"></path>
<path d="M 281.50 339.98
  Q 280.77 340.46 280.37 340.22
  Q 280.09 340.05 279.89 340.31
  Q 279.22 341.19 279.00 342.23
  Q 278.90 342.72 278.55 343.07
  L 264.30 357.32
  Q 264.12 357.50 264.12 357.76
  L 264.12 358.07
  Q 264.12 358.50 263.82 358.81
  L 249.30 373.32
  Q 249.12 373.50 249.12 373.76
  L 249.12 374.07
  Q 249.12 374.50 248.81 374.81
  L 235.30 388.32
  Q 235.12 388.50 235.12 388.76
  L 235.12 389.07
  Q 235.12 389.50 234.82 389.81
  L 220.30 404.32
  Q 220.12 404.50 220.12 404.76
  L 220.12 405.07
  Q 220.12 405.50 219.81 405.81
  L 205.30 420.32
  Q 205.12 420.50 205.12 420.76
  L 205.12 421.07
  Q 205.12 421.50 204.82 421.81
  L 190.30 436.32
  Q 190.12 436.50 190.12 436.76
  L 190.12 437.07
  Q 190.12 437.50 189.81 437.81
  L 176.31 451.31
  Q 176.13 451.49 176.12 451.75
  Q 176.12 451.93 176.10 452.10
  Q 176.04 452.47 175.79 452.76
  L 169.56 459.92" stroke="#ea4499"></path>
</g>
<path d="M 252.36 0.00
  L 260.97 0.00
  Q 285.44 1.72 304.49 15.45
  Q 309.70 19.21 319.35 28.79
  Q 341.28 50.59 363.11 72.51
  Q 362.83 73.16 362.20 73.13
  Q 361.92 73.12 361.87 73.39
  Q 361.84 73.57 361.70 73.70
  Q 354.63 80.95 347.40 88.01
  Q 341.90 93.38 336.96 99.27
  Q 336.88 99.37 336.75 99.37
  Q 336.60 99.37 336.45 99.36
  Q 336.26 99.35 336.21 99.54
  Q 335.88 100.91 334.49 101.39
  Q 334.28 101.46 334.34 101.77
  Q 334.40 102.09 334.16 102.30
  C 332.18 104.03 330.80 106.22 328.90 107.87
  C 325.73 110.62 323.21 113.84 320.07 116.62
  C 316.94 119.40 314.25 122.58 311.15 125.46
  C 308.67 127.76 306.65 130.35 304.10 132.60
  C 301.01 135.32 298.31 138.51 295.31 141.31
  C 292.82 143.62 290.76 146.14 288.22 148.55
  C 283.95 152.59 280.57 156.37 274.84 161.47
  Q 273.38 162.78 271.86 163.99
  Q 270.17 165.34 268.95 166.59
  Q 263.70 171.95 258.43 177.30
  Q 252.91 182.89 246.95 188.33
  Q 224.91 166.37 203.03 144.36
  Q 193.54 134.81 189.73 129.47
  C 169.25 100.80 169.66 61.39 190.92 33.08
  Q 213.25 3.33 252.36 0.00
  Z" fill="#ffd26e"></path>
<path d="M 245.54 208.61
  Q 245.31 208.26 245.49 207.70
  Q 245.64 207.26 245.31 206.93
  L 131.01 92.63
  A 0.52 0.51 42.0 0 1 130.97 91.94
  Q 131.45 91.33 131.26 90.75
  L 192.34 29.66
  Q 193.96 28.04 192.70 29.96
  C 191.48 31.80 189.72 33.74 188.57 35.45
  C 168.81 64.80 169.07 103.59 190.85 131.80
  Q 194.27 136.23 204.45 146.43
  Q 230.09 172.09 255.68 197.68
  A 0.59 0.58 -45.3 0 1 255.68 198.51
  L 245.54 208.61
  Z" fill="#047fb8"></path>
<path d="M 363.11 72.51
  L 408.33 117.70
  L 292.87 233.17
  Q 292.78 233.25 292.70 233.18
  Q 292.64 233.14 292.58 233.11
  Q 292.47 233.08 292.33 233.33
  Q 292.27 233.43 292.14 233.56
  L 246.95 188.33
  Q 252.91 182.89 258.43 177.30
  Q 263.70 171.95 268.95 166.59
  Q 270.17 165.34 271.86 163.99
  Q 273.38 162.78 274.84 161.47
  C 280.57 156.37 283.95 152.59 288.22 148.55
  C 290.76 146.14 292.82 143.62 295.31 141.31
  C 298.31 138.51 301.01 135.32 304.10 132.60
  C 306.65 130.35 308.67 127.76 311.15 125.46
  C 314.25 122.58 316.94 119.40 320.07 116.62
  C 323.21 113.84 325.73 110.62 328.90 107.87
  C 330.80 106.22 332.18 104.03 334.16 102.30
  Q 334.40 102.09 334.34 101.77
  Q 334.28 101.46 334.49 101.39
  Q 335.88 100.91 336.21 99.54
  Q 336.26 99.35 336.45 99.36
  Q 336.60 99.37 336.75 99.37
  Q 336.88 99.37 336.96 99.27
  Q 341.90 93.38 347.40 88.01
  Q 354.63 80.95 361.70 73.70
  Q 361.84 73.57 361.87 73.39
  Q 361.92 73.12 362.20 73.13
  Q 362.83 73.16 363.11 72.51
  Z" fill="#fcc255"></path>
<path d="M 131.26 90.75
  Q 131.45 91.33 130.97 91.94
  A 0.52 0.51 42.0 0 0 131.01 92.63
  L 245.31 206.93
  Q 245.64 207.26 245.49 207.70
  Q 245.31 208.26 245.54 208.61
  L 218.07 236.06
  L 218.65 234.70
  Q 218.85 234.24 218.49 233.88
  L 104.35 119.73
  A 0.78 0.77 -60.7 0 0 103.05 120.10
  Q 102.83 120.99 101.94 120.15
  L 131.26 90.75
  Z" fill="#0e8fc4"></path>
<path d="M 408.33 117.70
  Q 446.84 156.14 484.05 193.45
  Q 484.25 193.45 484.16 193.63
  Q 484.07 193.78 483.94 193.67
  C 465.65 179.19 445.67 172.30 422.22 174.52
  Q 393.89 177.66 373.50 197.23
  Q 370.43 200.17 362.01 208.66
  L 322.01 248.64
  L 314.31 255.79
  L 292.14 233.56
  Q 292.27 233.43 292.33 233.33
  Q 292.47 233.08 292.58 233.11
  Q 292.64 233.14 292.70 233.18
  Q 292.78 233.25 292.87 233.17
  L 408.33 117.70
  Z" fill="#fab336"></path>
<path d="M 218.07 236.06
  L 197.89 256.15
  L 192.28 261.30
  L 191.75 259.66
  Q 191.61 259.24 191.29 258.93
  L 77.21 144.90
  L 101.94 120.15
  Q 102.83 120.99 103.05 120.10
  A 0.78 0.77 -60.7 0 1 104.35 119.73
  L 218.49 233.88
  Q 218.85 234.24 218.65 234.70
  L 218.07 236.06
  Z" fill="#19a3d6"></path>
<path d="M 77.21 144.90
  L 191.29 258.93
  Q 191.61 259.24 191.75 259.66
  L 192.28 261.30
  L 154.78 298.74
  Q 154.93 298.22 153.98 298.21
  Q 153.46 298.20 153.09 297.83
  L 38.72 183.40
  L 77.21 144.90
  Z" fill="#1fbaec"></path>
<path d="M 422.22 174.52
  Q 427.30 174.59 432.41 174.65
  C 459.60 174.95 484.48 189.81 498.96 212.03
  C 519.92 244.21 515.10 286.95 488.03 314.28
  Q 476.13 326.30 465.33 337.08
  Q 457.50 328.59 449.27 320.35
  Q 433.37 304.44 417.41 288.60
  A 2.92 0.00 44.7 0 0 415.90 287.10
  Q 400.49 271.65 385.06 256.23
  Q 384.70 255.88 384.20 255.88
  L 383.90 255.88
  Q 383.36 255.88 382.96 255.50
  L 361.48 235.19
  Q 361.26 234.98 360.98 234.82
  Q 360.55 234.57 360.27 234.16
  C 358.93 232.19 357.13 230.67 355.52 228.92
  Q 355.49 228.89 355.44 228.88
  Q 355.28 228.88 355.12 228.88
  Q 354.89 228.88 354.87 228.65
  Q 354.83 228.12 354.38 227.96
  Q 354.09 227.86 353.89 227.64
  L 351.92 225.55
  Q 351.57 225.18 351.08 225.06
  Q 350.62 224.94 350.63 224.73
  Q 350.65 224.36 350.33 224.17
  Q 349.54 223.72 348.59 223.91
  Q 348.28 223.97 348.50 223.74
  Q 348.72 223.52 349.04 223.64
  A 0.23 0.23 0.0 0 0 349.34 223.48
  Q 349.49 222.74 349.99 222.59
  Q 350.36 222.47 350.39 222.08
  Q 350.44 221.49 350.78 221.26
  Q 351.45 220.82 351.55 220.69
  Q 352.85 219.00 354.41 217.55
  Q 358.71 213.53 362.69 209.23
  A 0.36 0.36 0.0 0 0 362.53 208.64
  Q 362.32 208.58 362.01 208.66
  Q 370.43 200.17 373.50 197.23
  Q 393.89 177.66 422.22 174.52
  Z" fill="#08db7b"></path>
<path d="M 38.72 183.40
  L 153.09 297.83
  Q 153.46 298.20 153.98 298.21
  Q 154.93 298.22 154.78 298.74
  C 146.88 306.69 138.22 316.06 130.10 322.04
  Q 108.40 338.02 81.50 337.94
  Q 52.36 337.85 28.13 318.22
  Q 2.65 294.85 0.00 260.41
  L 0.00 251.53
  Q 2.24 220.97 23.20 199.20
  Q 31.10 191.00 38.72 183.40
  Z" fill="#19c7f9"></path>
<path d="M 362.01 208.66
  Q 362.32 208.58 362.53 208.64
  A 0.36 0.36 0.0 0 1 362.69 209.23
  Q 358.71 213.53 354.41 217.55
  Q 352.85 219.00 351.55 220.69
  Q 351.45 220.82 350.78 221.26
  Q 350.44 221.49 350.39 222.08
  Q 350.36 222.47 349.99 222.59
  Q 349.49 222.74 349.34 223.48
  A 0.23 0.23 0.0 0 1 349.04 223.64
  Q 348.72 223.52 348.50 223.74
  Q 348.28 223.97 348.59 223.91
  Q 349.54 223.72 350.33 224.17
  Q 350.65 224.36 350.63 224.73
  Q 350.62 224.94 351.08 225.06
  Q 351.57 225.18 351.92 225.55
  L 353.89 227.64
  Q 354.09 227.86 354.38 227.96
  Q 354.83 228.12 354.87 228.65
  Q 354.89 228.88 355.12 228.88
  Q 355.28 228.88 355.44 228.88
  Q 355.49 228.89 355.52 228.92
  C 357.13 230.67 358.93 232.19 360.27 234.16
  Q 360.55 234.57 360.98 234.82
  Q 361.26 234.98 361.48 235.19
  L 382.96 255.50
  Q 383.36 255.88 383.90 255.88
  L 384.20 255.88
  Q 384.70 255.88 385.06 256.23
  Q 400.49 271.65 415.90 287.10
  A 2.92 0.00 44.7 0 1 417.41 288.60
  Q 433.37 304.44 449.27 320.35
  Q 457.50 328.59 465.33 337.08
  L 437.94 364.49
  L 323.02 249.56
  A 0.59 0.59 0.0 0 1 323.43 248.56
  Q 323.93 248.55 323.99 248.22
  Q 324.03 248.01 323.84 248.13
  Q 323.13 248.62 322.01 248.64
  L 362.01 208.66
  Z" fill="#1ed384"></path>
<path d="M 437.94 364.49
  L 400.78 401.72
  Q 400.49 400.50 400.63 400.31
  A 1.76 1.76 0.0 0 0 400.28 397.87
  Q 395.83 394.46 392.54 390.79
  C 390.61 388.63 388.19 386.82 386.38 384.62
  Q 385.78 383.89 384.99 383.84
  Q 384.87 383.84 384.87 383.71
  Q 384.87 383.58 384.87 383.45
  A 0.87 0.85 -68.0 0 0 384.62 382.84
  Q 369.03 367.60 353.68 352.13
  Q 353.51 351.96 353.32 351.92
  Q 353.12 351.87 352.92 351.87
  Q 352.64 351.86 352.64 351.59
  Q 352.63 351.43 352.60 351.28
  Q 352.54 351.03 352.29 350.78
  Q 336.99 335.46 321.68 320.16
  Q 321.49 319.97 321.28 319.92
  Q 321.04 319.86 320.76 319.88
  Q 320.62 319.90 320.62 319.76
  Q 320.62 319.62 320.61 319.48
  Q 320.61 319.18 320.41 318.97
  Q 299.64 297.48 293.11 291.26
  Q 291.44 289.67 290.92 288.70
  Q 290.69 288.26 290.30 287.96
  Q 287.86 286.05 287.46 282.96
  L 314.31 255.79
  L 322.01 248.64
  Q 323.13 248.62 323.84 248.13
  Q 324.03 248.01 323.99 248.22
  Q 323.93 248.55 323.43 248.56
  A 0.59 0.59 0.0 0 0 323.02 249.56
  L 437.94 364.49
  Z" fill="#24c082"></path>
<path d="M 197.89 256.15
  L 229.31 287.63
  Q 224.43 290.37 220.25 295.28
  Q 220.08 295.48 220.08 295.75
  L 220.08 296.08
  Q 220.08 296.50 219.78 296.80
  L 205.27 311.31
  Q 205.08 311.50 205.08 311.77
  L 205.08 312.08
  Q 205.08 312.50 204.78 312.80
  L 190.26 327.32
  Q 190.09 327.49 190.09 327.73
  Q 190.08 327.88 190.07 328.02
  Q 190.03 328.55 189.65 328.93
  L 176.27 342.31
  Q 176.08 342.50 176.08 342.77
  L 176.08 343.08
  Q 176.08 343.50 175.78 343.80
  L 161.27 358.31
  Q 161.08 358.50 161.08 358.77
  L 161.08 359.08
  Q 161.08 359.50 160.78 359.80
  L 146.27 374.31
  Q 146.08 374.50 146.08 374.77
  L 146.08 375.08
  Q 146.08 375.50 145.78 375.80
  L 131.26 390.32
  Q 131.09 390.49 131.09 390.73
  Q 131.08 390.87 131.07 391.02
  Q 131.04 391.54 130.66 391.91
  L 117.55 405.04
  Q 117.22 405.37 117.32 405.83
  Q 117.51 406.65 117.20 407.52
  L 28.13 318.22
  Q 52.36 337.85 81.50 337.94
  Q 108.40 338.02 130.10 322.04
  C 138.22 316.06 146.88 306.69 154.78 298.74
  L 192.28 261.30
  L 197.89 256.15
  Z" fill="#b62a89"></path>
<path d="M 287.46 282.96
  Q 287.86 286.05 290.30 287.96
  Q 290.69 288.26 290.92 288.70
  Q 291.44 289.67 293.11 291.26
  Q 299.64 297.48 320.41 318.97
  Q 320.61 319.18 320.61 319.48
  Q 320.62 319.62 320.62 319.76
  Q 320.62 319.90 320.76 319.88
  Q 321.04 319.86 321.28 319.92
  Q 321.49 319.97 321.68 320.16
  Q 336.99 335.46 352.29 350.78
  Q 352.54 351.03 352.60 351.28
  Q 352.63 351.43 352.64 351.59
  Q 352.64 351.86 352.92 351.87
  Q 353.12 351.87 353.32 351.92
  Q 353.51 351.96 353.68 352.13
  Q 369.03 367.60 384.62 382.84
  A 0.87 0.85 -68.0 0 1 384.87 383.45
  Q 384.87 383.58 384.87 383.71
  Q 384.87 383.84 384.99 383.84
  Q 385.78 383.89 386.38 384.62
  C 388.19 386.82 390.61 388.63 392.54 390.79
  Q 395.83 394.46 400.28 397.87
  A 1.76 1.76 0.0 0 1 400.63 400.31
  Q 400.49 400.50 400.78 401.72
  L 385.06 417.46
  Q 383.72 414.18 378.84 409.30
  C 370.61 401.07 361.97 393.02 354.08 384.49
  Q 353.73 384.11 353.22 384.11
  L 352.75 384.11
  Q 352.39 384.11 352.39 383.75
  Q 352.39 383.60 352.37 383.44
  Q 352.33 382.83 351.89 382.39
  L 321.88 352.38
  A 0.87 0.84 -21.2 0 0 321.26 352.12
  Q 321.13 352.11 321.00 352.12
  Q 320.39 352.12 320.39 351.50
  L 320.38 350.76
  Q 320.38 350.33 320.08 350.02
  L 270.45 299.95
  L 287.46 282.96
  Z" fill="#20a378"></path>
<path d="M 229.31 287.63
  L 256.11 314.47
  Q 255.14 314.56 254.27 313.80
  A 0.09 0.09 0.0 0 0 254.12 313.89
  Q 254.19 314.27 253.94 314.57
  A 0.17 0.17 0.0 0 1 253.74 314.62
  Q 253.63 314.56 253.51 314.50
  Q 253.26 314.37 253.07 314.56
  L 240.31 327.31
  Q 240.12 327.49 240.12 327.75
  L 240.12 328.07
  Q 240.12 328.50 239.81 328.80
  L 226.30 342.32
  Q 226.12 342.50 226.12 342.76
  L 226.12 343.07
  Q 226.12 343.50 225.81 343.80
  L 211.30 358.31
  Q 211.12 358.50 211.12 358.76
  L 211.12 359.07
  Q 211.12 359.50 210.81 359.81
  L 196.30 374.31
  Q 196.12 374.50 196.12 374.76
  L 196.12 375.07
  Q 196.12 375.50 195.81 375.81
  L 181.30 390.32
  Q 181.12 390.50 181.12 390.76
  L 181.12 391.07
  Q 181.12 391.50 180.81 391.80
  L 167.30 405.31
  Q 167.12 405.50 167.12 405.76
  L 167.12 406.07
  Q 167.12 406.50 166.81 406.80
  L 152.30 421.31
  Q 152.12 421.50 152.12 421.76
  L 152.12 422.06
  Q 152.12 422.49 151.82 422.80
  L 143.50 431.13
  Q 143.13 431.51 143.28 432.02
  Q 143.58 433.03 142.99 433.36
  L 117.20 407.52
  Q 117.51 406.65 117.32 405.83
  Q 117.22 405.37 117.55 405.04
  L 130.66 391.91
  Q 131.04 391.54 131.07 391.02
  Q 131.08 390.87 131.09 390.73
  Q 131.09 390.49 131.26 390.32
  L 145.78 375.80
  Q 146.08 375.50 146.08 375.08
  L 146.08 374.77
  Q 146.08 374.50 146.27 374.31
  L 160.78 359.80
  Q 161.08 359.50 161.08 359.08
  L 161.08 358.77
  Q 161.08 358.50 161.27 358.31
  L 175.78 343.80
  Q 176.08 343.50 176.08 343.08
  L 176.08 342.77
  Q 176.08 342.50 176.27 342.31
  L 189.65 328.93
  Q 190.03 328.55 190.07 328.02
  Q 190.08 327.88 190.09 327.73
  Q 190.09 327.49 190.26 327.32
  L 204.78 312.80
  Q 205.08 312.50 205.08 312.08
  L 205.08 311.77
  Q 205.08 311.50 205.27 311.31
  L 219.78 296.80
  Q 220.08 296.50 220.08 296.08
  L 220.08 295.75
  Q 220.08 295.48 220.25 295.28
  Q 224.43 290.37 229.31 287.63
  Z" fill="#d13b93"></path>
<path d="M 270.45 299.95
  L 320.08 350.02
  Q 320.38 350.33 320.38 350.76
  L 320.39 351.50
  Q 320.39 352.12 321.00 352.12
  Q 321.13 352.11 321.26 352.12
  A 0.87 0.84 -21.2 0 1 321.88 352.38
  L 351.89 382.39
  Q 352.33 382.83 352.37 383.44
  Q 352.39 383.60 352.39 383.75
  Q 352.39 384.11 352.75 384.11
  L 353.22 384.11
  Q 353.73 384.11 354.08 384.49
  C 361.97 393.02 370.61 401.07 378.84 409.30
  Q 383.72 414.18 385.06 417.46
  L 374.25 428.29
  Q 371.18 424.07 366.25 419.25
  Q 357.23 410.45 340.85 393.90
  C 339.17 392.21 337.23 390.72 335.68 389.06
  C 322.82 375.31 306.49 359.08 296.01 348.61
  Q 295.68 348.28 295.22 348.18
  Q 294.56 348.05 294.62 347.60
  Q 294.66 347.22 294.39 346.95
  L 259.03 311.37
  L 270.45 299.95
  Z" fill="#1a9070"></path>
<path d="M 259.03 311.37
  L 294.39 346.95
  Q 294.66 347.22 294.62 347.60
  Q 294.56 348.05 295.22 348.18
  Q 295.68 348.28 296.01 348.61
  C 306.49 359.08 322.82 375.31 335.68 389.06
  C 337.23 390.72 339.17 392.21 340.85 393.90
  Q 357.23 410.45 366.25 419.25
  Q 371.18 424.07 374.25 428.29
  L 318.94 483.60
  Q 318.90 483.63 318.75 483.63
  L 318.49 483.62
  Q 318.45 483.62 318.48 483.58
  C 332.61 466.15 339.34 446.04 337.60 423.50
  Q 337.25 423.62 337.40 424.43
  Q 334.86 393.08 312.56 370.94
  Q 297.02 355.49 281.50 339.98
  Q 268.99 327.50 256.53 314.92
  Q 256.35 314.74 256.35 314.16
  L 259.03 311.37
  Z" fill="#14836a"></path>
<path d="M 256.11 314.47
  Q 256.47 314.42 256.35 314.16
  Q 256.35 314.74 256.53 314.92
  Q 268.99 327.50 281.50 339.98
  Q 280.77 340.46 280.37 340.22
  Q 280.09 340.05 279.89 340.31
  Q 279.22 341.19 279.00 342.23
  Q 278.90 342.72 278.55 343.07
  L 264.30 357.32
  Q 264.12 357.50 264.12 357.76
  L 264.12 358.07
  Q 264.12 358.50 263.82 358.81
  L 249.30 373.32
  Q 249.12 373.50 249.12 373.76
  L 249.12 374.07
  Q 249.12 374.50 248.81 374.81
  L 235.30 388.32
  Q 235.12 388.50 235.12 388.76
  L 235.12 389.07
  Q 235.12 389.50 234.82 389.81
  L 220.30 404.32
  Q 220.12 404.50 220.12 404.76
  L 220.12 405.07
  Q 220.12 405.50 219.81 405.81
  L 205.30 420.32
  Q 205.12 420.50 205.12 420.76
  L 205.12 421.07
  Q 205.12 421.50 204.82 421.81
  L 190.30 436.32
  Q 190.12 436.50 190.12 436.76
  L 190.12 437.07
  Q 190.12 437.50 189.81 437.81
  L 176.31 451.31
  Q 176.13 451.49 176.12 451.75
  Q 176.12 451.93 176.10 452.10
  Q 176.04 452.47 175.79 452.76
  L 169.56 459.92
  L 142.99 433.36
  Q 143.58 433.03 143.28 432.02
  Q 143.13 431.51 143.50 431.13
  L 151.82 422.80
  Q 152.12 422.49 152.12 422.06
  L 152.12 421.76
  Q 152.12 421.50 152.30 421.31
  L 166.81 406.80
  Q 167.12 406.50 167.12 406.07
  L 167.12 405.76
  Q 167.12 405.50 167.30 405.31
  L 180.81 391.80
  Q 181.12 391.50 181.12 391.07
  L 181.12 390.76
  Q 181.12 390.50 181.30 390.32
  L 195.81 375.81
  Q 196.12 375.50 196.12 375.07
  L 196.12 374.76
  Q 196.12 374.50 196.30 374.31
  L 210.81 359.81
  Q 211.12 359.50 211.12 359.07
  L 211.12 358.76
  Q 211.12 358.50 211.30 358.31
  L 225.81 343.80
  Q 226.12 343.50 226.12 343.07
  L 226.12 342.76
  Q 226.12 342.50 226.30 342.32
  L 239.81 328.80
  Q 240.12 328.50 240.12 328.07
  L 240.12 327.75
  Q 240.12 327.49 240.31 327.31
  L 253.07 314.56
  Q 253.26 314.37 253.51 314.50
  Q 253.63 314.56 253.74 314.62
  A 0.17 0.17 0.0 0 0 253.94 314.57
  Q 254.19 314.27 254.12 313.89
  A 0.09 0.09 0.0 0 1 254.27 313.80
  Q 255.14 314.56 256.11 314.47
  Z" fill="#e14398"></path>
<path d="M 281.50 339.98
  Q 297.02 355.49 312.56 370.94
  Q 334.86 393.08 337.40 424.43
  C 339.95 471.14 306.25 508.42 259.87 512.00
  L 251.27 512.00
  Q 225.83 510.20 206.34 495.50
  Q 201.61 491.93 191.62 481.99
  Q 180.70 471.10 169.56 459.92
  L 175.79 452.76
  Q 176.04 452.47 176.10 452.10
  Q 176.12 451.93 176.12 451.75
  Q 176.13 451.49 176.31 451.31
  L 189.81 437.81
  Q 190.12 437.50 190.12 437.07
  L 190.12 436.76
  Q 190.12 436.50 190.30 436.32
  L 204.82 421.81
  Q 205.12 421.50 205.12 421.07
  L 205.12 420.76
  Q 205.12 420.50 205.30 420.32
  L 219.81 405.81
  Q 220.12 405.50 220.12 405.07
  L 220.12 404.76
  Q 220.12 404.50 220.30 404.32
  L 234.82 389.81
  Q 235.12 389.50 235.12 389.07
  L 235.12 388.76
  Q 235.12 388.50 235.30 388.32
  L 248.81 374.81
  Q 249.12 374.50 249.12 374.07
  L 249.12 373.76
  Q 249.12 373.50 249.30 373.32
  L 263.82 358.81
  Q 264.12 358.50 264.12 358.07
  L 264.12 357.76
  Q 264.12 357.50 264.30 357.32
  L 278.55 343.07
  Q 278.90 342.72 279.00 342.23
  Q 279.22 341.19 279.89 340.31
  Q 280.09 340.05 280.37 340.22
  Q 280.77 340.46 281.50 339.98
  Z" fill="#f3459a"></path>
</svg>
