<svg viewBox="0.00 0.00 128.00 128.00" version="1.1" xmlns="http://www.w3.org/2000/svg">
<g stroke-linecap="butt" fill="none" stroke-width="2.00">
<path d="M 57.24 44.84
  L 28.62 43.72" stroke="#6fc0d7"></path>
<path d="M 28.62 43.72
  Q 36.18 35.25 37.50 26.74
  Q 38.28 21.70 35.07 15.67" stroke="#92e3bf"></path>
<path d="M 28.62 43.72
  Q 16.98 44.72 4.36 49.33" stroke="#89cae7"></path>
</g>
<path d="M 57.24 44.84
  L 28.62 43.72
  Q 36.18 35.25 37.50 26.74
  Q 38.28 21.70 35.07 15.67
  Q 51.08 7.71 68.64 8.56
  Q 69.16 8.59 69.15 9.11
  Q 68.62 28.78 57.24 44.84
  Z" fill="#78d8ae"></path>
<path d="M 128.00 68.63
  L 128.00 119.50
  L 88.30 119.49
  Q 87.79 119.49 87.79 118.99
  Q 87.72 93.56 87.56 68.26
  C 87.48 56.31 78.57 47.38 66.84 46.88
  A 0.41 0.40 17.2 0 1 66.51 46.26
  Q 76.85 29.70 77.70 10.09
  Q 77.72 9.65 78.16 9.74
  C 102.30 14.67 120.66 32.65 126.33 56.51
  C 127.22 60.26 127.45 64.54 128.00 68.63
  Z" fill="#455af6"></path>
<path d="M 35.07 15.67
  Q 38.28 21.70 37.50 26.74
  Q 36.18 35.25 28.62 43.72
  Q 16.98 44.72 4.36 49.33
  Q 13.83 26.50 35.07 15.67
  Z" fill="#abedcf"></path>
<path d="M 28.62 43.72
  L 57.24 44.84
  Q 56.25 46.55 54.92 48.15
  C 41.40 64.36 21.13 73.28 0.00 71.88
  L 0.00 67.26
  Q 0.81 63.53 1.24 59.75
  Q 1.68 55.86 4.36 49.33
  Q 16.98 44.72 28.62 43.72
  Z" fill="#66a7ff"></path>
<path d="M 0.00 79.30
  L 39.79 79.30
  Q 40.26 79.31 40.26 79.78
  L 40.26 118.99
  Q 40.26 119.51 39.74 119.51
  L 0.00 119.52
  L 0.00 79.30
  Z" fill="#455af6"></path>
</svg>
