<svg viewBox="0 0 192 192" xmlns="http://www.w3.org/2000/svg"><g fill="none" stroke-width="2"><path d="M94.91 13.02q.43.62.1 1.55" stroke="#94587c"/><path d="M95.01 14.57q-4.58.41-9.25.94-32.2 3.65-54.52 27.57" stroke="#8a7deb"/><path d="M31.24 43.08q-.26.03-.42.12" stroke="#8e34a6"/><path d="M30.82 43.2q-1.29-.18-1.67-.68" stroke="#1f5cd4"/><path d="M140.29 24.26q.18.59-.96 1.28" stroke="#86bf49"/><path d="M139.33 25.54q-2.41-.97-4.9-2.08-18.76-8.35-39.42-8.89" stroke="#f0c176"/><path d="M139.33 25.54c6.23 3.69 12.13 8.04 17.46 12.93q2.79 2.56 5.66 4.95" stroke="#7ce4b9"/><path d="M162.45 43.42q-.74-.13-1.07.11" stroke="#edb475"/><path d="m161.38 43.53-6.69-.07" stroke="#c0a779"/><path d="M154.69 43.46q-1.22-.17-2.28-1.12-16.54-14.8-38.07-19.11-1.03-.21-.42.64l9.69 13.64" stroke="#7f8797"/><path d="m123.61 37.51-2.74-1.7" stroke="#f3f3f2"/><path d="m120.87 35.81-8.65-12.71q-.34-.5-.94-.6l-8.67-1.54a.88.88 0 0 0-1 .64c-1.72 6.45-8.5 5.81-10.32-.03a.84.84 0 0 0-.94-.58l-8.25 1.35q-.62.11-.99.63l-8.32 11.98" stroke="#838797"/><path d="M72.79 34.95q-1.05.82-2.33 1.1" stroke="#f3f3f2"/><path d="m70.46 36.05 9.18-12.67q.46-.63-.31-.52c-11.71 1.7-24.07 7.47-33.2 14.76q-2.24 1.79-6.14 5.51" stroke="#878696"/><path d="m39.99 43.13-7.65.41" stroke="#e18f84"/><path d="m32.34 43.54-1.1-.46" stroke="#eb9da0"/><path d="M120.87 35.81q-10.56-7.02-22.36-7.45-.6-.02-.59.57l.04 4.01q.01.5.5.58 13.96 2.11 22.49 13.24 1.19 1.55-.28.27c-6.91-6.04-12.34-10.4-21.93-11.7a.87.87 0 0 0-.95 1.1q.58 2.03-.79 4.45" stroke="#8f93a4"/><path d="M97 40.88q3.83 2.3 7.56 4.12c10.3 5 18.15 12.48 29.31 16.25" stroke="#8c7436"/><path d="M133.87 61.25q4.16 2.05 9.94 2.82" stroke="#8f93a4"/><path d="m143.81 64.07 20.36.09a.45.45 0 0 0 .44-.35q.06-.26-.15-.49" stroke="#7b6c3c"/><path d="M164.46 63.32q.49-.32.78-.09" stroke="#1c2848"/><path d="m165.24 63.23 1.06 2.02" stroke="#838797"/><path d="m166.3 65.25-18.24 25.69" stroke="#157b76"/><path d="m148.06 90.94-5.12-24.35a.76.76 0 0 0-.69-.6l-5.27-.43" stroke="#8f93a4"/><path d="m136.98 65.56-6.2-1.67" stroke="#8c7436"/><path d="m130.78 63.89-9.97-4.66q-.56-.27-.25.27c5.77 9.78 9.14 18.04 9.94 29.21" stroke="#86672d"/><path d="M130.5 88.71c.46 15.26-4.72 34.12 8.9 45.87q4.32 3.73 10.52 4.93 1.47.29.19-.49c-8.08-4.91-12.28-20.06-13.04-28.79q-.86-9.97-.74-15.65.01-.15.16-.15h.01q.15-.01.16.14c1.56 18.08 3.61 46.65 28.91 47.14" stroke="#8c7436"/><path d="M165.57 141.71q-.45 3.22 1.79 5.01a.52.52 0 0 1-.1.88l-19.78 9.02" stroke="#838797"/><path d="M147.48 156.62q-.75-.06-.64-.37 1.99-5.86 3.86-11.86.17-.52-.36-.71-1.04-.36-2.33-.22" stroke="#8d8282"/><path d="m148.01 143.46-6.39-1.73" stroke="#873e52"/><path d="m141.62 141.73-7.08-3.93a.4.4 0 0 0-.6.32l-2.27 24.68" stroke="#631e5e"/><path d="m131.67 162.8-17.65 7.79q-.65.29-.35-.36 3.94-8.62 7.89-15.16c6.98-11.57 11.85-33.76-3.1-41.44q-.47-.24-.52.28c-.27 3.13 1.83 6.49 2.52 9.33q.26 1.04-.44.23c-3.66-4.21-7.9-8.87-13.27-10.74" stroke="#8f93a4"/><path d="M106.75 112.73q-2.06-.8-2.35-1.83" stroke="#7b6c3c"/><path d="M104.4 110.9q.82-.31 1.53-.99" stroke="#74746d"/><path d="m105.93 109.91 7.73 4.5" stroke="#7a6f5c"/><path d="M113.66 114.41q2.44 1.94 2.11.19" stroke="#8f93a4"/><path d="M115.77 114.6q3.9-7.45 7.83-14.77 3.34-6.22 2.06-13.09" stroke="#8c7436"/><path d="M125.66 86.74q-.35-1.95-.85-2.78" stroke="#5a402d"/><path d="M124.81 83.96q-1.93-8.93-5.27-16.74" stroke="#86672d"/><path d="M119.54 67.22q-2.22-5.05-5.45-9.33c-9.4-12.46-26.56-11.54-35.96.49-5.69 7.27-8.45 16.19-10.79 25.14" stroke="#8a5427"/><path d="M67.34 83.52q.28.42-.32.8a1.02 1.02 0 0 0-.4.49q-.37 1-.24 2.24" stroke="#14307e"/><path d="M66.38 87.05q-.52 1.67-.35 4.33" stroke="#156877"/><path d="M66.03 91.38q-.77-.66-.65-1.64.03-.31-.26-.22-.21.06-.38-.01-.33-.15-.71-.14-.27.01-.39.24-.16.28-.48.29-.91.02-1.07-.68" stroke="#232747"/><path d="M62.09 89.22 62 87.51" stroke="#294979"/><path d="m62 87.51 1.52-10.24" stroke="#4e3b5e"/><path d="M63.52 77.27q3.15-9.34 8.14-17.04.85-1.31-.58-.68l-10.3 4.6" stroke="#5d3851"/><path d="m60.78 64.15-6.25 1.65" stroke="#7c4261"/><path d="M54.53 65.8q-3.46-.11-5.4.68" stroke="#8f93a4"/><path d="M49.13 66.48q-.74-1.8.92-2.6" stroke="#232747"/><path d="m50.05 63.88 9.37-2.72" stroke="#8f93a4"/><path d="M59.42 61.16Q70.1 56.67 80.6 49.1q5.73-4.13 13.45-6.62.92-.3 1.2-.83.36-.71.06-1.62" stroke="#8d6127"/><path d="m95.31 40.03-.11-3.97a.66.66 0 0 0-.77-.63l-5.21.94" stroke="#8f93a4"/><path d="M89.22 36.37q-.84-.08-1.64.2-.68.23-.44-.45l.31-.86" stroke="#3e4074"/><path d="m87.45 35.26 7.47-1.75a.4.4 0 0 0 .31-.39l-.02-4.43q0-.29-.29-.29-12.47-.01-22.13 6.55" stroke="#8f93a4"/><path d="m70.46 36.05-2.14 2.83" stroke="#9393a3"/><path d="M68.32 38.88q-19.84 9.44-40.84 17.76" stroke="#878696"/><path d="M27.48 56.64q5.76-7.3 12.51-13.51" stroke="#812f35"/><path d="m154.69 43.46-.03.37q-.05.53.36.87 5.85 4.9 10.76 10.71.27.32.32.63.1.62-.29.71" stroke="#59482a"/><path d="M165.81 56.75q-20.97-8.22-41.33-17.99" stroke="#776d3c"/><path d="M124.48 38.76q-.61-.47-.87-1.25" stroke="#8c94a4"/><path d="M164.81 44.24q-1.1-.12-2.36-.82" stroke="#83b249"/><path d="M87.45 35.26q-10.08 4.08-16.54 12.8-.15.2.04.37l.19.17q.02.01.04 0c5.42-5.24 10.97-9.85 18.04-12.23" stroke="#aeacd0"/><path d="M95.31 40.03c-13.33 1.21-19.66 9.14-30.17 16.65q-2.9 2.08-5.72 4.48" stroke="#fdcd83"/><path d="m50.05 63.88-1.49.3" stroke="#9393a3"/><path d="M48.56 64.18q-.6-.42-.43-.63" stroke="#e2c29f"/><path d="M48.13 63.55q1.43-.48 2.52-1.65 8.45-9.01 14.79-19.69" stroke="#9393a3"/><path d="m65.44 42.21 2.88-3.33" stroke="#f3f3f2"/><path d="m124.48 38.76 2.78 3.18" stroke="#ebd897"/><path d="M127.26 41.94c3.7 6.07 12.8 20.96 17.17 21.39" stroke="#8c94a4"/><path d="M144.43 63.33q.11.66-.62.74" stroke="#ebd897"/><path d="M133.87 61.25q-7.51-5.87-14.33-11.53-4.26-3.55-10.73-7.04-5.66-3.06-11.81-1.8" stroke="#fce092"/><path d="m165.81 56.75 1.23.74" stroke="#b88d1e"/><path d="M167.04 57.49q-.66.25-.66.54" stroke="#decc8a"/><path d="M166.38 58.03q-19.5-7.98-38.77-16.34-.13-.06-.24-.03-.18.07-.11.28" stroke="#776d3c"/><path d="M65.44 42.21q.43.28.13-.31a.6.6 0 0 0-.78-.29l-38.12 16.7q-.42.19-.18.57 2.16 3.49-.16 6.28" stroke="#878696"/><path d="m26.33 65.16-1.15 1.05" stroke="#eb9da0"/><path d="m25.18 66.21-1.1.34" stroke="#d5b692"/><path d="M24.08 66.55q-1.49.23-2.27 1.8-14.17 28.5-4.92 59.23 1.4 4.63 3.98 8.78.23.35.85.52" stroke="#878696"/><path d="M21.72 136.88q-.02.79-1.05 1.97a.62.62 0 0 0 .5 1.02l1.09-.06" stroke="#f3f3f2"/><path d="M22.26 139.81c-2.31.47-3.24 2.9-2.09 4.82 3 5.01 8.82-3.59 2.91-4.83" stroke="#80869c"/><path d="M23.08 139.8q1.33.44 1.64-1.51" stroke="#f3f3f2"/><path d="M24.72 138.29q1.5 1.49 2.31 3.48" stroke="#77bec8"/><path d="M27.03 141.77q.33 2.86-1.58 4.45a.44.44 0 0 0 .09.73l19.74 9.39" stroke="#878696"/><path d="M45.28 156.34q.71 1-.05 1.3" stroke="#f0e2d1"/><path d="m45.23 157.64-21.27-10.11" stroke="#878696"/><path d="M23.96 147.53q-.83.24-2.61-.06" stroke="#7bc5ce"/><path d="M21.35 147.47q-2.26-.84-3.1-2.54" stroke="#79cef0"/><path d="M18.25 144.93C11.61 133.9 7.37 123.74 6.17 110.8" stroke="#919fdf"/><path d="M6.17 110.8q4.4-4.14-.05-7.86" stroke="#878696"/><path d="M6.12 102.94C7.56 86.55 10.63 73 18.98 58.78" stroke="#7bc5ce"/><path d="m18.98 58.78 3.99-1.59" stroke="#eb9da0"/><path d="M22.97 57.19q2.53.75 4.51-.55" stroke="#e18f84"/><path d="M25.9 61.95a2.96 2.96 0 0 0-2.96-2.96 2.96 2.96 0 0 0-2.96 2.96 2.96 2.96 0 0 0 2.96 2.96 2.96 2.96 0 0 0 2.96-2.96" stroke="#80869c"/><path d="m48.13 63.55-19.85-.21a.23.23 0 0 0-.23.22v.28q-.01.43.42.43l20.09-.09" stroke="#765643"/><path d="m49.13 66.48-4.91 24.77" stroke="#9393a3"/><path d="M44.22 91.25 26.33 65.16" stroke="#8b3d51"/><path d="M166.38 58.03c.12 1.37-1.32 2.89-1.14 5.2" stroke="#7f8797"/><path d="m164.46 63.32-20.03.01" stroke="#776d3c"/><path d="M30.82 43.2q-8 6.65-11.84 15.58" stroke="#807c89"/><path d="m6.12 102.94-1.58-.36" stroke="#1c657f"/><path d="m32.34 43.54-9.85 12.69a.74.51 56.7 0 0-.02.68q.05.11.5.28" stroke="#e5463f"/><path d="M161.38 43.53q4.54 5.61 8.81 11.51 1.49 2.06-.12 2.29" stroke="#c77509"/><path d="m170.07 57.33-3.03.16" stroke="#c0a779"/><path d="M188.27 102.41q-.5.44-1.98.31" stroke="#8e5426"/><path d="M186.29 102.72q-.94-23.67-12.79-43.22-1.04-1.71-3.43-2.17" stroke="#edb475"/><path d="m119.54 67.22-1.12-1.45q-.26-.33-.45.04-.07.15-.16.31-.16.3-.49.2l-.59-.18" stroke="#f0940b"/><path d="M116.73 66.14q-1.08-2.62-3.13-5.27-6.27-8.13-16.94-7.97" stroke="#fac082"/><path d="M96.66 52.9c-13.69.09-26.03 13.36-23.78 27.31" stroke="#e6a75e"/><path d="M72.88 80.21q-3.02 1.08-5.54 3.31" stroke="#7f5d5c"/><path d="M96.66 52.9c-.43 9.7.27 19.56-1.03 29.1q-.51 3.75-.76 8.57-.69 13.4.57 23.77" stroke="#ebe6db"/><path d="M95.44 114.34q-2.37-.48-4.23-3.31a1.1 1.09-12.1 0 0-.77-.49q-.92-.14-1.8.26" stroke="#8d8b86"/><path d="M88.64 110.8q-1.79-.17-2.7-1.13-.4-.42-.22-.97.57-1.68 2.19-2.32.47-.18.92.05l2.48 1.3a.54.54 0 0 0 .79-.46l.35-17.76" stroke="#7083b5"/><path d="M92.45 89.51c.23-2.91.19-7.92-2.5-9.22-2.58-1.24-9.51-.81-12.76-.73" stroke="#797a85"/><path d="M77.19 79.56q-2.29-.06-4.31.65" stroke="#7083b5"/><path d="M116.73 66.14q4.37 7.78 2.37 13.99" stroke="#f6d388"/><path d="M119.1 80.13q-5.21-.65-13.1-.52-3.39.06-5.39 3" stroke="#caac89"/><path d="m100.61 82.61-.6 23.45q-.02.5.4.78 2.03 1.42 1.52 4.14" stroke="#e4e0c9"/><path d="m101.93 110.98-2.37 2.23" stroke="#ebd897"/><path d="M99.56 113.21q-1.59 1.33-4.12 1.13" stroke="#a1a4aa"/><path d="M186.29 102.72q-5.02 3.55-.63 8.34" stroke="#878696"/><path d="M185.66 111.06q-1.67 16.67-9.31 31.11" stroke="#c779cd"/><path d="M176.35 142.17q-1.91 1.75-2.51 4.33" stroke="#919fdf"/><path d="m173.84 146.5-1.27.73" stroke="#f0c176"/><path d="M172.57 147.23q-3.53.35-4.87 1.33" stroke="#eea875"/><path d="m167.7 148.56-21.65 9.86" stroke="#7f8797"/><path d="m146.05 158.42 1.43-1.8" stroke="#f0e2d1"/><path d="M165.57 141.71q.51-1.5 2.91-3.41" stroke="#efd485"/><path d="M168.48 138.3q-.57 1.96 2.16.98.51-.18.48-.72l-.13-1.8" stroke="#f3f3f2"/><path d="m170.99 136.76.31-.1q.42-.12.59-.52c9.16-21.52 9.53-47.93-2.27-69.04q-.3-.53-1.4-.52" stroke="#7f8797"/><path d="m168.22 66.58-1.1-.31" stroke="#decc8a"/><path d="M167.12 66.27q-.47-.38-.82-1.02" stroke="#79dac4"/><path d="M172.63 61.87a2.91 2.91 0 0 0-2.91-2.91 2.91 2.91 0 0 0-2.91 2.91 2.91 2.91 0 0 0 2.91 2.91 2.91 2.91 0 0 0 2.91-2.91" stroke="#80869c"/><path d="M173.06 142.93a3.05 3.05 0 0 0-3.05-3.05 3.05 3.05 0 0 0-3.05 3.05 3.05 3.05 0 0 0 3.05 3.05 3.05 3.05 0 0 0 3.05-3.05" stroke="#878696"/><path d="M130.78 63.89q-.67-.12-.98.31-.3.42-.06.87 4.27 7.93 5.94 17.69.49 2.89.31 5.19-.05.67-.68.43-3.11-1.18-4.81.33" stroke="#f2b41b"/><path d="m63.52 77.27-5.63.04" stroke="#8c4c66"/><path d="M57.89 77.31q.81-6.18 4.03-12.06.25-.47-.1-.87-.36-.4-1.04-.23" stroke="#ba536a"/><path d="M136.98 65.56q2.49 7.19 3.73 14.69c1.97 11.84 3.54 23.2 7.12 34.97q5.01 16.49 20.65 23.08" stroke="#fce092"/><path d="m57.89 77.31-1.82 11.36" stroke="#ab5677"/><path d="m56.07 88.67-6.11.18" stroke="#9b5b8d"/><path d="M49.96 88.85q1.32-11.57 4.57-23.05" stroke="#ecaebd"/><path d="M44.22 91.25q.11 1.76-.91 4.02" stroke="#f7aaad"/><path d="m43.31 95.27-17.64-26.5" stroke="#8b3d51"/><path d="M25.67 68.77q-.37-.74-.49-2.56" stroke="#da6d4d"/><path d="m167.12 66.27-.09 1.52" stroke="#71c069"/><path d="M167.03 67.79q-.15.05-.26.07-.16.03-.24.17l-17.6 28.04" stroke="#127b76"/><path d="m148.93 96.07-.87-5.13" stroke="#85e7d1"/><path d="M148.93 96.07c2.16 10.24 4.28 19.39 9.92 27.55 3.11 4.5 7.91 9 12.14 13.14" stroke="#8c94a4"/><path d="m49.96 88.85-2.29 14.85" stroke="#aeacd0"/><path d="M47.67 103.7q-1.64 9.81-5.39 18.76" stroke="#99b5d5"/><path d="M42.28 122.46q-5.7 11.47-17.56 15.83" stroke="#84cad5"/><path d="m23.08 139.8-.82.01" stroke="#8d93a9"/><path d="m21.72 136.88 2.87-2.7" stroke="#9393a3"/><path d="M24.59 134.18q.82-.59 1.3-1.39" stroke="#e2c29f"/><path d="M25.89 132.79c11.21-9.86 15.23-23.14 17.42-37.52" stroke="#9393a3"/><path d="m124.81 83.96-5.71-3.83" stroke="#c17f12"/><path d="m25.67 68.77.08 63.9q0 .08.07.1.04.01.07.02M24.59 134.18c-.08-1.28-.51-2.5-.5-3.76q.04-30.08-.03-60.17 0-1.78.02-3.7" stroke="#765643"/><path d="M168.22 66.58 168.2 132q0 .42-.4.32l-.25-.06a.68.67 7.2 0 1-.51-.65l-.01-63.82" stroke="#776d3c"/><path d="m62 87.51-1.8 1" stroke="#585d8f"/><path d="m60.2 88.51-4.13.16" stroke="#6c548a"/><path d="M77.19 79.56q.79 1.4.1 1.85" stroke="#123083"/><path d="M77.29 81.41q-2.53.68-4.75 2.13-.51.34-.46.79a.39.39 0 0 0 .53.32l.44-.16" stroke="#624f84"/><path d="M73.05 84.49q.17.35.24.88" stroke="#123083"/><path d="M73.29 85.37q-.96-.28-.3 1.32" stroke="#624f84"/><path d="m72.99 86.69-6.61.36" stroke="#0a71ac"/><path d="M92.45 89.51q-1.72 1.28-2.84.66" stroke="#123083"/><path d="M89.61 90.17c-2.97-3.41-7.25-9.1-12.32-8.76" stroke="#6b4654"/><path d="M125.66 86.74q-.98.26-1.68.16" stroke="#c78d1b"/><path d="M123.98 86.9q-5.05.9-5.24-1.79" stroke="#b58741"/><path d="M118.74 85.11q-.19-.13.04-.32" stroke="#583f33"/><path d="M118.78 84.79q1.16-.22.83-1.26a1.23 1.21 6.8 0 0-.55-.69q-7.57-4.57-13.07 3.1" stroke="#c17f12"/><path d="M105.99 85.94q-.73 1.55-2.37 1.57" stroke="#b58741"/><path d="M103.62 87.51q-2.13-1.98-3.01-4.9" stroke="#af8c52"/><path d="M118.78 84.79q-5.47-3.54-10.29-.07-.45.33-.34.61.12.3.67.59" stroke="#836632"/><path d="M108.82 85.92q-1.44.82-2.83.02" stroke="#e0ae41"/><path d="m89.61 90.17.03 12.08q0 .52-.5.64c-4.36 1.04-6.96 4.53-5.28 9.02" stroke="#624f84"/><path d="m83.86 111.91-2.28.76" stroke="#71464d"/><path d="M81.58 112.67q-1-4.66 1.59-8.71c1.44-2.26 3.96-4.78 4.19-7.54q.25-3.04.36-6.21.07-2-3.12-2.79" stroke="#c29373"/><path d="m84.6 87.42-6.81 2.32a.98.98 0 0 1-.89-.14l-3.91-2.91" stroke="#63877d"/><path d="M73.29 85.37q4.71 4.12 8.88.16.4-.38.05-.81c-2.14-2.64-6.63-1.78-9.17-.23" stroke="#6b4654"/><path d="m103.62 87.51.03 1.56" stroke="#cfbb81"/><path d="M103.65 89.07q-.93.72-.85 1.17 1.18 6.77 3.13 13.23" stroke="#e4e0c9"/><path d="M105.93 103.47q-.9.28-2.02-.44-.77-.51-1.32.23l-.22.28q-.44.59.16 1.02c1.88 1.34 3.49 2.9 3.4 5.35" stroke="#cfbb81"/><path d="M104.4 110.9q-1.17.33-2.47.08" stroke="#d0b961"/><path d="M118.74 85.11q-5.41 4.22-9.92.81" stroke="#776e62"/><path d="m123.98 86.9-.2 2.24" stroke="#e6bc4a"/><path d="M123.78 89.14q-5.43 1.44-10.09 3.15c-2.83 1.04-7.41-2.1-10.04-3.22" stroke="#eadbb8"/><path d="M84.6 87.42q-2.54 2.8-4.92 3.75c-3.28 1.31-7.84-1.72-11.13-2.77a.37.37 0 0 0-.47.46c2.76 8.94 11.01 16.13 9.94 26.25" stroke="#6ab49c"/><path d="M78.02 115.11q-3.74-7.39-8.14-13.97-3.1-4.64-3.85-9.76" stroke="#196776"/><path d="M115.77 114.6q-.48-.97-.41-1.48c1.28-9.66 5.12-15.48 8.42-23.98" stroke="#fce092"/><path d="m62.09 89.22.16 9.48" stroke="#2d4978"/><path d="m62.25 98.7-5.81 1.46" stroke="#2176ae"/><path d="m56.44 100.16.49-10.23q.03-.49.52-.53 1.5-.11 2.75-.89" stroke="#4862a5"/><path d="M81.58 112.67q-1.89 2.05-3.56 2.44" stroke="#78736c"/><path d="m56.44 100.16-1.61 15.35" stroke="#356da9"/><path d="m54.83 115.51.27-4.04q.07-.98-.52-.19-.53.7-.59 2.09" stroke="#424073"/><path d="m53.99 113.37 1.44-17.17q.01-.08-.07-.08h-.29q-.2 0-.2.2v.93q0 .37-.37.37h-.28q-.22.01-.34.2-.68 1.07-.77 2.3-.04.54-.42.94l-2.39 2.49q-.31.32-.75.39-.89.13-1.88-.24" stroke="#4862a5"/><path d="M113.66 114.41q.16-.25.21-.44.04-.18-.13-.43c-2.6-3.69-3.78-6.98-7.81-10.07" stroke="#eadbb8"/><path d="M83.86 111.91q.07.69.68 1.67" stroke="#18307d"/><path d="M84.54 113.58q-7.22 3.31-10.71 7.95-2.07 2.74-.94-.5l2.26-6.45a.54.54 0 0 0-.74-.66c-5.11 2.44-7.85 6.62-8.72 12.39-2.67 17.73 4.73 28.55 13.03 43.52q.51.94-.46.51l-17.58-7.74" stroke="#9393a3"/><path d="m60.68 162.6-1.42-25.21a.26.25-17.1 0 0-.39-.2l-7.01 4.22" stroke="#2a1d9c"/><path d="m51.86 141.41-6.4 2.02" stroke="#313f8f"/><path d="m45.46 143.43-2.8.34q-.65.08-.46.7l3.6 11.65" stroke="#916b75"/><path d="M45.8 156.12q.11.23-.52.22" stroke="#918281"/><path d="M27.03 141.77c2.77-.72 5.89-.93 8.24-1.68 8.81-2.83 13.82-10.14 16.59-18.61" stroke="#185e79"/><path d="m51.86 121.48 2.13-8.11" stroke="#2d4978"/><path d="M54.83 115.51c-1.46 8.61-5.15 18.02-12.43 23.56q-1.15.87.26.57c19.97-4.26 21.51-24.42 19.59-40.94" stroke="#1b547c"/><path d="M88.64 110.8q-1.62 1.12-1.93 2.35" stroke="#264184"/><path d="m86.71 113.15-2.17.43" stroke="#849cd9"/><path d="M51.86 121.48q-1.57.31-2.85-.71-.47-.37-1.06-.32-1.3.12-1.83-1.07a.52.52 0 0 0-.84-.15l-.28.28q-.08.08-.14-.03l-.12-.24a.27.27 0 0 0-.5.03q-.18.48-.12 1 .06.45-.33.7-.8.52-1.51 1.49" stroke="#1e80ab"/><path d="m187.63 111.64-1.97-.58" stroke="#68197d"/><path d="M6.17 110.8q-1.6.02-1.78.41" stroke="#313f8f"/><path d="M99.56 113.21q.61-.13.92 1.27" stroke="#8c7d42"/><path d="M100.48 114.48q-2.74 3.5-6.93 1.97c-1.49-.54-3.71-4.25-6.09-3.1" stroke="#977733"/><path d="M87.46 113.35q-.3.02-.75-.2" stroke="#a1a4aa"/><path d="M18.25 144.93q-.56 1.1-1.21 1.57" stroke="#2387e9"/><path d="m106.75 112.73-4.71 1.85" stroke="#ebd897"/><path d="M102.04 114.58q-.96.15-1.56-.1" stroke="#e1ac20"/><path d="M176.69 145.71q-.44-.18-.92-.01" stroke="#d1545d"/><path d="M175.77 145.7q.22-.56.81-.95.41-.28.34-.77-.13-.97-.57-1.81" stroke="#7232c6"/><path d="m131.67 162.8 2.32-.89" stroke="#d38ab9"/><path d="M133.99 161.91q.43.36.5.85" stroke="#fdeede"/><path d="m134.49 162.76-2.53 1.1" stroke="#ea8fc5"/><path d="m131.96 163.86-18.84 8.08q-.46.2-.73.63l-6.32 10.45" stroke="#9393a3"/><path d="M106.07 183.02q-1.7 1.88-4.19 4.1-.63.57-1.37.42M100.12 187.26l3.68-3.43" stroke="#d486da"/><path d="m103.8 183.83 1.82-2.15" stroke="#968af8"/><path d="m105.62 181.68 4.67-7.64" stroke="#9393a3"/><path d="m110.29 174.04 7.09-13.78" stroke="#968af8"/><path d="m117.38 160.26.99-1.89" stroke="#8d93a9"/><path d="M118.37 158.37c2.42-6.8 5.21-17.1 2.21-23.61" stroke="#fce092"/><path d="m120.58 134.76-.56-1.61" stroke="#8d93a9"/><path d="M120.02 133.15c-.52-6.3-12.23-14.42-17.7-17.46q-.5-.28-.28-1.11" stroke="#f6d388"/><path d="M120.02 133.15c-4.34-7.15-14.06-16.05-23.12-11.57a1 .96 45.9 0 1-.92-.03c-6.84-3.91-14.11 1.42-19.22 6.44" stroke="#836632"/><path d="M76.76 127.99q-.51.04-1.08.52a.08.08 0 0 1-.1-.12q1.25-1.21 1.57-2.4" stroke="#f2b41b"/><path d="M77.15 125.99q5.88-5.58 12.59-10.02a.75.74 43.7 0 0-.03-1.26l-2.25-1.36" stroke="#f6d388"/><path d="M77.15 125.99c-8.97 9.61-6.86 23.1-2.53 34.3" stroke="#fce092"/><path d="m74.62 160.29.86 1.7" stroke="#8d93a9"/><path d="m75.48 161.99 6.99 12.41" stroke="#968af8"/><path d="m82.47 174.4 4.71 7.37" stroke="#9393a3"/><path d="m87.18 181.77 1.73 2.22" stroke="#968af8"/><path d="m88.91 183.99 2.89 2.79a.41.4 34.3 0 1 .09.46l-.16.34q-.13.28-.35.06l-4.95-4.86" stroke="#d486da"/><path d="m86.43 182.78-6.41-10.41q-.27-.43-.74-.63l-18.59-7.96" stroke="#9393a3"/><path d="m60.69 163.78-5.98-2.39" stroke="#d486da"/><path d="m54.71 161.39-4.3-2.11" stroke="#ecaebd"/><path d="M50.41 159.28q.09-.21.1-.37a.26.26 0 0 0-.26-.28h-.26q-.11 0-.12-.11l-.04-.8" stroke="#fdeede"/><path d="m49.83 157.72 5.91 2.62" stroke="#9dacec"/><path d="m55.74 160.34 4.94 2.26" stroke="#968af8"/><path d="m120.58 134.76-2.21 23.61" stroke="#89743c"/><path d="m117.38 160.26-.83-11.71a.48.48 0 0 0-.63-.42q-.32.1-.51.42" stroke="#241da2"/><path d="M115.41 148.55q-.48-.88-.13-1.35" stroke="#21264d"/><path d="m115.28 147.2.27.12q.32.14.37-.21 1.39-10.69-3.54-18.55" stroke="#89743c"/><path d="M112.38 128.56q-6.5-8.16-15.33-3.89-.52.25-1.03-.01-8.91-4.43-15.45 4.21" stroke="#8d93a9"/><path d="M80.57 128.87q-5.25 7.4-3.58 19.34" stroke="#8a612d"/><path d="M76.99 148.21q-.19.28-.18.88" stroke="#21264d"/><path d="M76.81 149.09c-1.63 3.23-1.1 7.65-.93 11.16q.05.93-.4 1.74" stroke="#241da2"/><path d="M74.62 160.29q.31-2.17-.76-7.16-1.72-8.03-.77-19.64.15-1.88 3.67-5.5" stroke="#89743c"/><path d="M112.38 128.56q-4.4 3.69-10.37.86-.45-.22-.91-.03l-1.05.44" stroke="#fce092"/><path d="M100.05 129.83q-4.67 1.74-8-.67" stroke="#9393a3"/><path d="M92.05 129.16q-4.01 1.3-7.66 1.36-2.27.03-3.82-1.65" stroke="#fdcd83"/><path d="M115.28 147.2q.06-.55-.05-.72c-4.3-7.1-8.6-11.07-13.83-16.22q-.33-.32-.8-.37l-.55-.06" stroke="#907435"/><path d="M92.05 129.16q-2.79 3.9-6.44 6.7-2.21 1.68-7.77 9.72-.79 1.15-.85 2.63" stroke="#916126"/><path d="M115.41 148.55c-.35 3.33.43 5.22-2.23 8.36q-6.76 7.97-13.94 15.29a.49.49 0 0 0 .18.81q4.58 1.69 10.87 1.03M105.62 181.68q-6.22-3.7-10.62-3.2-2.03.23-7.82 3.29M82.47 174.4l10.51-1.3a.49.49 0 0 0 .39-.66q-.13-.37-.55-.76-7.65-7.12-14.24-15.27-2.21-2.74-1.77-7.32" stroke="#2a1d9c"/><path d="m91.6 136.37-1.59 1.85" stroke="#9393a3"/><path d="M90.01 138.22c-3.88 3.44-5.88 8.71-3.35 13.61q4.41 8.58 9.41 16.71a.24.24 0 0 0 .41-.01q4.11-7.15 8.48-14.13 5.86-9.37-2.57-16.46" stroke="#916126"/><path d="m102.39 137.94-1.24-1.47" stroke="#9393a3"/><path d="M101.15 136.47q-4.33-5.87-9.55-.1" stroke="#916126"/><path d="m101.15 136.47-9.55-.1M102.39 137.94c1.81 6.01.48 10.47-2.69 15.51-1.69 2.69-2.51 5.28-2.75 8.22a.45.45 0 0 1-.89.03c-.56-3.67-2.3-6.62-4.04-9.98-2.42-4.66-3.04-8.46-2.01-13.5" stroke="#fdcd83"/><path d="m55.74 160.34-3.88-18.93" stroke="#3436e5"/><path d="m141.62 141.73-4.12 18.33" stroke="#cb3567"/><path d="m137.5 160.06-3.51 1.85" stroke="#d17998"/><path d="M49.83 157.72q-.53-.33-.75-.84" stroke="#9b9bca"/><path d="m49.08 156.88-3.62-13.45" stroke="#9b84be"/><path d="m148.01 143.46-3.85 13.38q-.15.52-.65.72l-6.01 2.5" stroke="#f5998c"/><path d="M175.77 145.7q-.94.64-1.93.8" stroke="#9b7a6f"/><path d="M49.08 156.88q-.79.98-3.28-.76" stroke="#fbc6b0"/><path d="m146.05 158.42-4.5 13.06" stroke="#898382"/><path d="m139.12 168.7 3.75-8.36q.62-1.39-.75-.72l-4.24 2.09" stroke="#f5998c"/><path d="m137.88 161.71-3.39 1.05" stroke="#e77ea3"/><path d="M21.35 147.47q-1.24 1.21-.19 2.28 1.05 1.06 1.27 1.41 8.51 14.17 22.34 24.13 4.43 3.19 9.33 3.62" stroke="#0eadd9"/><path d="M139.99 180.76q.13-.12.21-.29.14-.27.41-.4c14.75-6.89 23.82-17.86 31.92-31.62q.63-1.07.04-1.22" stroke="#f88306"/><path d="M140.97 173.63q17.47-8.02 26.73-25.07" stroke="#874927"/><path d="M23.96 147.53q3.58 5.54 7.32 9.96 6.58 7.77 15.53 12.51c1.31.69 3.29 1.02 4.62 2.18" stroke="#1c657f"/><path d="M45.23 157.64q1.49.52 1.73 1.39 1.21 4.45 3.94 11.33.4 1 .82 1.22" stroke="#918281"/><path d="M50.41 159.28q-.72.17-.42.97 1.76 4.68 4.26 9 .14.25-.04.69" stroke="#ea9d9b"/><path d="m54.71 161.39 5.85 10.33" stroke="#c13597"/><path d="M60.56 171.72q2.14 4.16 5.74 7.36 1.11.99 1.94 3.55" stroke="#d73e82"/><path d="M128.63 180.55q-.47-.83-1.64.43-.31.34-.56.41-.35.08-.56-.14a.88.88 0 0 1 .04-1.27q8.34-7.53 11.97-18.27" stroke="#e23a73"/><path d="M60.69 163.78q.63 3.77 3.2 7.5" stroke="#68197d"/><path d="m63.89 171.28-3.33.44M117.72 186.35l-.57.04q-1.38.08-.37-.62.62-.42.33-1.23a.62.6-22.6 0 1 .32-.75q1.29-.61.74-1.79-.21-.45.28-.56.55-.12.6-.5" stroke="#be169f"/><path d="M119.05 180.94q10.07-5.15 12.91-17.08" stroke="#7e2368"/><path d="m86.43 182.78-3.72.01" stroke="#68197d"/><path d="M82.71 182.79q-12.45-1.28-18.82-11.51" stroke="#7e2368"/><path d="M119.05 180.94q-6.41 2.51-12.98 2.08" stroke="#68197d"/><path d="m82.71 182.79.4 2.43q.02.09-.06.05-.11-.05-.28-.01-.11.02-.09.13.22 1.13-.25 2.06" stroke="#be169f"/><path d="M103.8 183.83q-3.29-.49-6.3.54-1.53.53-6.84-.76-.39-.1-.71.14-.31.22-1.04.24" stroke="#6b10d3"/></g><circle r="4.17" cy="8.04" cx="96.63" fill="#272646"/><path d="M94.91 13.02q.43.62.1 1.55-4.58.41-9.25.94-32.2 3.65-54.52 27.57-.26.03-.42.12-1.29-.18-1.67-.68 26.49-29.04 65.76-29.5Z" fill="#2d14f1"/><path d="M94.91 13.02q24.29-.25 45.38 11.24.18.59-.96 1.28-2.41-.97-4.9-2.08-18.76-8.35-39.42-8.89.33-.93-.1-1.55Z" fill="#fa9b06"/><path d="M95.01 14.57q20.66.54 39.42 8.89 2.49 1.11 4.9 2.08c6.23 3.69 12.13 8.04 17.46 12.93q2.79 2.56 5.66 4.95-.74-.13-1.07.11l-6.69-.07q-1.22-.17-2.28-1.12-16.54-14.8-38.07-19.11-1.03-.21-.42.64l9.69 13.64-2.74-1.7-8.65-12.71q-.34-.5-.94-.6l-8.67-1.54a.88.88 0 0 0-1 .64c-1.72 6.45-8.5 5.81-10.32-.03a.84.84 0 0 0-.94-.58l-8.25 1.35q-.62.11-.99.63l-8.32 11.98q-1.05.82-2.33 1.1l9.18-12.67q.46-.63-.31-.52c-11.71 1.7-24.07 7.47-33.2 14.76q-2.24 1.79-6.14 5.51l-7.65.41-1.1-.46q22.32-23.92 54.52-27.57 4.67-.53 9.25-.94Zm5.19 6.34a3.68 3.68 0 0 0-3.68-3.68 3.68 3.68 0 0 0-3.68 3.68 3.68 3.68 0 0 0 3.68 3.68 3.68 3.68 0 0 0 3.68-3.68Z" fill="#e6e6e5"/><path d="M120.87 35.81q-10.56-7.02-22.36-7.45-.6-.02-.59.57l.04 4.01q.01.5.5.58 13.96 2.11 22.49 13.24 1.19 1.55-.28.27c-6.91-6.04-12.34-10.4-21.93-11.7a.87.87 0 0 0-.95 1.1q.58 2.03-.79 4.45 3.83 2.3 7.56 4.12c10.3 5 18.15 12.48 29.31 16.25q4.16 2.05 9.94 2.82l20.36.09a.45.45 0 0 0 .44-.35q.06-.26-.15-.49.49-.32.78-.09l1.06 2.02-18.24 25.69-5.12-24.35a.76.76 0 0 0-.69-.6l-5.27-.43-6.2-1.67-9.97-4.66q-.56-.27-.25.27c5.77 9.78 9.14 18.04 9.94 29.21.46 15.26-4.72 34.12 8.9 45.87q4.32 3.73 10.52 4.93 1.47.29.19-.49c-8.08-4.91-12.28-20.06-13.04-28.79q-.86-9.97-.74-15.65.01-.15.16-.15h.01q.15-.01.16.14c1.56 18.08 3.61 46.65 28.91 47.14q-.45 3.22 1.79 5.01a.52.52 0 0 1-.1.88l-19.78 9.02q-.75-.06-.64-.37 1.99-5.86 3.86-11.86.17-.52-.36-.71-1.04-.36-2.33-.22l-6.39-1.73-7.08-3.93a.4.4 0 0 0-.6.32l-2.27 24.68-17.65 7.79q-.65.29-.35-.36 3.94-8.62 7.89-15.16c6.98-11.57 11.85-33.76-3.1-41.44q-.47-.24-.52.28c-.27 3.13 1.83 6.49 2.52 9.33q.26 1.04-.44.23c-3.66-4.21-7.9-8.87-13.27-10.74q-2.06-.8-2.35-1.83.82-.31 1.53-.99l7.73 4.5q2.44 1.94 2.11.19 3.9-7.45 7.83-14.77 3.34-6.22 2.06-13.09-.35-1.95-.85-2.78-1.93-8.93-5.27-16.74-2.22-5.05-5.45-9.33c-9.4-12.46-26.56-11.54-35.96.49-5.69 7.27-8.45 16.19-10.79 25.14q.28.42-.32.8a1.02 1.02 0 0 0-.4.49q-.37 1-.24 2.24-.52 1.67-.35 4.33-.77-.66-.65-1.64.03-.31-.26-.22-.21.06-.38-.01-.33-.15-.71-.14-.27.01-.39.24-.16.28-.48.29-.91.02-1.07-.68L62 87.51l1.52-10.24q3.15-9.34 8.14-17.04.85-1.31-.58-.68l-10.3 4.6-6.25 1.65q-3.46-.11-5.4.68-.74-1.8.92-2.6l9.37-2.72Q70.1 56.67 80.6 49.1q5.73-4.13 13.45-6.62.92-.3 1.2-.83.36-.71.06-1.62l-.11-3.97a.66.66 0 0 0-.77-.63l-5.21.94q-.84-.08-1.64.2-.68.23-.44-.45l.31-.86 7.47-1.75a.4.4 0 0 0 .31-.39l-.02-4.43q0-.29-.29-.29-12.47-.01-22.13 6.55l8.32-11.98q.37-.52.99-.63l8.25-1.35a.84.84 0 0 1 .94.58c1.82 5.84 8.6 6.48 10.32.03a.88.88 0 0 1 1-.64l8.67 1.54q.6.1.94.6l8.65 12.71Z" fill="#1f2748"/><path d="m70.46 36.05-2.14 2.83q-19.84 9.44-40.84 17.76 5.76-7.3 12.51-13.51 3.9-3.72 6.14-5.51c9.13-7.29 21.49-13.06 33.2-14.76q.77-.11.31.52l-9.18 12.67Z" fill="#272646"/><path d="m154.69 43.46-.03.37q-.05.53.36.87 5.85 4.9 10.76 10.71.27.32.32.63.1.62-.29.71-20.97-8.22-41.33-17.99-.61-.47-.87-1.25l-9.69-13.64q-.61-.85.42-.64 21.53 4.31 38.07 19.11 1.06.95 2.28 1.12Z" fill="#182848"/><path d="M140.29 24.26c9.4 5.89 17.45 11.24 24.52 19.98q-1.1-.12-2.36-.82-2.87-2.39-5.66-4.95c-5.33-4.89-11.23-9.24-17.46-12.93q1.14-.69.96-1.28Z" fill="#12e28c"/><path d="M87.45 35.26q-10.08 4.08-16.54 12.8-.15.2.04.37l.19.17q.02.01.04 0c5.42-5.24 10.97-9.85 18.04-12.23l5.21-.94a.66.66 0 0 1 .77.63l.11 3.97c-13.33 1.21-19.66 9.14-30.17 16.65q-2.9 2.08-5.72 4.48l-9.37 2.72-1.49.3q-.6-.42-.43-.63 1.43-.48 2.52-1.65 8.45-9.01 14.79-19.69l2.88-3.33 2.14-2.83q1.28-.28 2.33-1.1 9.66-6.56 22.13-6.55.29 0 .29.29l.02 4.43a.4.4 0 0 1-.31.39l-7.47 1.75ZM120.87 35.81l2.74 1.7q.26.78.87 1.25l2.78 3.18c3.7 6.07 12.8 20.96 17.17 21.39q.11.66-.62.74-5.78-.77-9.94-2.82-7.51-5.87-14.33-11.53-4.26-3.55-10.73-7.04-5.66-3.06-11.81-1.8 1.37-2.42.79-4.45a.87.87 0 0 1 .95-1.1c9.59 1.3 15.02 5.66 21.93 11.7q1.47 1.28.28-.27-8.53-11.13-22.49-13.24-.49-.08-.5-.58l-.04-4.01q-.01-.59.59-.57 11.8.43 22.36 7.45Z" fill="#fff"/><path d="m87.45 35.26-.31.86q-.24.68.44.45.8-.28 1.64-.2c-7.07 2.38-12.62 6.99-18.04 12.23q-.02.01-.04 0l-.19-.17q-.19-.17-.04-.37 6.46-8.72 16.54-12.8Z" fill="#5c59a0"/><path d="M124.48 38.76q20.36 9.77 41.33 17.99l1.23.74q-.66.25-.66.54-19.5-7.98-38.77-16.34-.13-.06-.24-.03-.18.07-.11.28l-2.78-3.18Z" fill="#d6b12f"/><path d="m68.32 38.88-2.88 3.33q.43.28.13-.31a.6.6 0 0 0-.78-.29l-38.12 16.7q-.42.19-.18.57 2.16 3.49-.16 6.28l-1.15 1.05-1.1.34q-1.49.23-2.27 1.8-14.17 28.5-4.92 59.23 1.4 4.63 3.98 8.78.23.35.85.52-.02.79-1.05 1.97a.62.62 0 0 0 .5 1.02l1.09-.06c-2.31.47-3.24 2.9-2.09 4.82 3 5.01 8.82-3.59 2.91-4.83q1.33.44 1.64-1.51 1.5 1.49 2.31 3.48.33 2.86-1.58 4.45a.44.44 0 0 0 .09.73l19.74 9.39q.71 1-.05 1.3l-21.27-10.11q-.83.24-2.61-.06-2.26-.84-3.1-2.54C11.61 133.9 7.37 123.74 6.17 110.8q4.4-4.14-.05-7.86C7.56 86.55 10.63 73 18.98 58.78l3.99-1.59q2.53.75 4.51-.55 21-8.32 40.84-17.76ZM25.9 61.95a2.96 2.96 0 0 0-2.96-2.96 2.96 2.96 0 0 0-2.96 2.96 2.96 2.96 0 0 0 2.96 2.96 2.96 2.96 0 0 0 2.96-2.96Z" fill="#e6e6e5"/><path d="M95.31 40.03q.3.91-.06 1.62-.28.53-1.2.83-7.72 2.49-13.45 6.62-10.5 7.57-21.18 12.06 2.82-2.4 5.72-4.48c10.51-7.51 16.84-15.44 30.17-16.65Z" fill="#fa9b06"/><path d="M133.87 61.25C122.71 57.48 114.86 50 104.56 45q-3.73-1.82-7.56-4.12 6.15-1.26 11.81 1.8 6.47 3.49 10.73 7.04 6.82 5.66 14.33 11.53Z" fill="#f8c124"/><path d="M65.44 42.21Q59.1 52.89 50.65 61.9q-1.09 1.17-2.52 1.65l-19.85-.21a.23.23 0 0 0-.23.22v.28q-.01.43.42.43l20.09-.09 1.49-.3q-1.66.8-.92 2.6l-4.91 24.77-17.89-26.09q2.32-2.79.16-6.28-.24-.38.18-.57l38.12-16.7a.6.6 0 0 1 .78.29q.3.59-.13.31Z" fill="#272646"/><path d="M166.38 58.03c.12 1.37-1.32 2.89-1.14 5.2q-.29-.23-.78.09l-20.03.01c-4.37-.43-13.47-15.32-17.17-21.39q-.07-.21.11-.28.11-.03.24.03 19.27 8.36 38.77 16.34Z" fill="#182848"/><path d="M29.15 42.52q.38.5 1.67.68-8 6.65-11.84 15.58C10.63 73 7.56 86.55 6.12 102.94l-1.58-.36c.41-23.43 9.54-42.67 24.61-60.06Z" fill="#10a3b7"/><path d="m31.24 43.08 1.1.46-9.85 12.69a.74.51 56.7 0 0-.02.68q.05.11.5.28l-3.99 1.59q3.84-8.93 11.84-15.58.16-.09.42-.12Z" fill="#ef545b"/><path d="M39.99 43.13q-6.75 6.21-12.51 13.51-1.98 1.3-4.51.55-.45-.17-.5-.28a.74.51 56.7 0 1 .02-.68l9.85-12.69 7.65-.41Z" fill="#db3823"/><path d="M161.38 43.53q4.54 5.61 8.81 11.51 1.49 2.06-.12 2.29l-3.03.16-1.23-.74q.39-.09.29-.71-.05-.31-.32-.63-4.91-5.81-10.76-10.71-.41-.34-.36-.87l.03-.37 6.69.07Z" fill="#99680c"/><path d="M161.38 43.53q.33-.24 1.07-.11 1.26.7 2.36.82c14.35 17.01 22.4 35.82 23.46 58.17q-.5.44-1.98.31-.94-23.67-12.79-43.22-1.04-1.71-3.43-2.17 1.61-.23.12-2.29-4.27-5.9-8.81-11.51ZM119.54 67.22l-1.12-1.45q-.26-.33-.45.04-.07.15-.16.31-.16.3-.49.2l-.59-.18q-1.08-2.62-3.13-5.27-6.27-8.13-16.94-7.97c-13.69.09-26.03 13.36-23.78 27.31q-3.02 1.08-5.54 3.31c2.34-8.95 5.1-17.87 10.79-25.14 9.4-12.03 26.56-12.95 35.96-.49q3.23 4.28 5.45 9.33Z" fill="#f48105"/><path d="M96.66 52.9c-.43 9.7.27 19.56-1.03 29.1q-.51 3.75-.76 8.57-.69 13.4.57 23.77-2.37-.48-4.23-3.31a1.1 1.09-12.1 0 0-.77-.49q-.92-.14-1.8.26-1.79-.17-2.7-1.13-.4-.42-.22-.97.57-1.68 2.19-2.32.47-.18.92.05l2.48 1.3a.54.54 0 0 0 .79-.46l.35-17.76c.23-2.91.19-7.92-2.5-9.22-2.58-1.24-9.51-.81-12.76-.73q-2.29-.06-4.31.65C70.63 66.26 82.97 52.99 96.66 52.9Z" fill="#d7cdb6"/><path d="M96.66 52.9q10.67-.16 16.94 7.97 2.05 2.65 3.13 5.27 4.37 7.78 2.37 13.99-5.21-.65-13.1-.52-3.39.06-5.39 3l-.6 23.45q-.02.5.4.78 2.03 1.42 1.52 4.14l-2.37 2.23q-1.59 1.33-4.12 1.13-1.26-10.37-.57-23.77.25-4.82.76-8.57c1.3-9.54.6-19.4 1.03-29.1Z" fill="#fff"/><path d="M170.07 57.33q2.39.46 3.43 2.17 11.85 19.55 12.79 43.22-5.02 3.55-.63 8.34-1.67 16.67-9.31 31.11-1.91 1.75-2.51 4.33l-1.27.73q-3.53.35-4.87 1.33l-21.65 9.86 1.43-1.8 19.78-9.02a.52.52 0 0 0 .1-.88q-2.24-1.79-1.79-5.01.51-1.5 2.91-3.41-.57 1.96 2.16.98.51-.18.48-.72l-.13-1.8.31-.1q.42-.12.59-.52c9.16-21.52 9.53-47.93-2.27-69.04q-.3-.53-1.4-.52l-1.1-.31q-.47-.38-.82-1.02l-1.06-2.02c-.18-2.31 1.26-3.83 1.14-5.2q0-.29.66-.54l3.03-.16Zm2.56 4.54a2.91 2.91 0 0 0-2.91-2.91 2.91 2.91 0 0 0-2.91 2.91 2.91 2.91 0 0 0 2.91 2.91 2.91 2.91 0 0 0 2.91-2.91Zm.43 81.06a3.05 3.05 0 0 0-3.05-3.05 3.05 3.05 0 0 0-3.05 3.05 3.05 3.05 0 0 0 3.05 3.05 3.05 3.05 0 0 0 3.05-3.05Z" fill="#e6e6e5"/><circle r="2.96" cy="61.95" cx="22.94" fill="#1a2653"/><path d="M130.78 63.89q-.67-.12-.98.31-.3.42-.06.87 4.27 7.93 5.94 17.69.49 2.89.31 5.19-.05.67-.68.43-3.11-1.18-4.81.33c-.8-11.17-4.17-19.43-9.94-29.21q-.31-.54.25-.27l9.97 4.66Z" fill="#eca611"/><circle r="2.91" cy="61.87" cx="169.72" fill="#1a2653"/><path d="m63.52 77.27-5.63.04q.81-6.18 4.03-12.06.25-.47-.1-.87-.36-.4-1.04-.23l10.3-4.6q1.43-.63.58.68-4.99 7.7-8.14 17.04Z" fill="#9b4959"/><path d="M48.13 63.55q-.17.21.43.63l-20.09.09q-.43 0-.42-.43v-.28a.23.23 0 0 1 .23-.22l19.85.21Z" fill="#c4853f"/><path d="m144.43 63.33 20.03-.01q.21.23.15.49a.45.45 0 0 1-.44.35l-20.36-.09q.73-.08.62-.74Z" fill="#d6b12f"/><path d="m130.78 63.89 6.2 1.67q2.49 7.19 3.73 14.69c1.97 11.84 3.54 23.2 7.12 34.97q5.01 16.49 20.65 23.08-2.4 1.91-2.91 3.41c-25.3-.49-27.35-29.06-28.91-47.14q-.01-.15-.16-.14h-.01q-.15 0-.16.15-.12 5.68.74 15.65c.76 8.73 4.96 23.88 13.04 28.79q1.28.78-.19.49-6.2-1.2-10.52-4.93c-13.62-11.75-8.44-30.61-8.9-45.87q1.7-1.51 4.81-.33.63.24.68-.43.18-2.3-.31-5.19-1.67-9.76-5.94-17.69-.24-.45.06-.87.31-.43.98-.31Z" fill="#f8c124"/><path d="M60.78 64.15q.68-.17 1.04.23.35.4.1.87-3.22 5.88-4.03 12.06l-1.82 11.36-6.11.18q1.32-11.57 4.57-23.05l6.25-1.65Z" fill="#d95d7a"/><path d="m26.33 65.16 17.89 26.09q.11 1.76-.91 4.02l-17.64-26.5q-.37-.74-.49-2.56l1.15-1.05Z" fill="#ef545b"/><path d="M166.3 65.25q.35.64.82 1.02l-.09 1.52q-.15.05-.26.07-.16.03-.24.17l-17.6 28.04-.87-5.13 18.24-25.69Z" fill="#0bcea3"/><path d="m136.98 65.56 5.27.43a.76.76 0 0 1 .69.6l5.12 24.35.87 5.13c2.16 10.24 4.28 19.39 9.92 27.55 3.11 4.5 7.91 9 12.14 13.14l.13 1.8q.03.54-.48.72-2.73.98-2.16-.98-15.64-6.59-20.65-23.08c-3.58-11.77-5.15-23.13-7.12-34.97q-1.24-7.5-3.73-14.69ZM54.53 65.8q-3.25 11.48-4.57 23.05l-2.29 14.85q-1.64 9.81-5.39 18.76-5.7 11.47-17.56 15.83-.31 1.95-1.64 1.51l-.82.01-1.09.06a.62.62 0 0 1-.5-1.02q1.03-1.18 1.05-1.97l2.87-2.7q.82-.59 1.3-1.39c11.21-9.86 15.23-23.14 17.42-37.52q1.02-2.26.91-4.02l4.91-24.77q1.94-.79 5.4-.68Z" fill="#fff"/><path d="M119.54 67.22q3.34 7.81 5.27 16.74l-5.71-3.83q2-6.21-2.37-13.99l.59.18q.33.1.49-.2.09-.16.16-.31.19-.37.45-.04l1.12 1.45Z" fill="#eca611"/><path d="M25.18 66.21q.12 1.82.49 2.56l.08 63.9q0 .08.07.1.04.01.07.02-.48.8-1.3 1.39c-.08-1.28-.51-2.5-.5-3.76q.04-30.08-.03-60.17 0-1.78.02-3.7l1.1-.34Z" fill="#c4853f"/><path d="m167.12 66.27 1.1.31-.02 65.42q0 .42-.4.32l-.25-.06a.68.67 7.2 0 1-.51-.65l-.01-63.82.09-1.52Z" fill="#d6b12f"/><path d="M24.08 66.55q-.02 1.92-.02 3.7.07 30.09.03 60.17c-.01 1.26.42 2.48.5 3.76l-2.87 2.7q-.62-.17-.85-.52-2.58-4.15-3.98-8.78-9.25-30.73 4.92-59.23.78-1.57 2.27-1.8Z" fill="#272646"/><path d="M168.22 66.58q1.1-.01 1.4.52c11.8 21.11 11.43 47.52 2.27 69.04q-.17.4-.59.52l-.31.1c-4.23-4.14-9.03-8.64-12.14-13.14-5.64-8.16-7.76-17.31-9.92-27.55l17.6-28.04q.08-.14.24-.17.11-.02.26-.07l.01 63.82a.68.67 7.2 0 0 .51.65l.25.06q.4.1.4-.32l.02-65.42Z" fill="#182848"/><path d="m25.67 68.77 17.64 26.5c-2.19 14.38-6.21 27.66-17.42 37.52q-.03-.01-.07-.02-.07-.02-.07-.1l-.08-63.9Z" fill="#272646"/><path d="M63.52 77.27 62 87.51l-1.8 1-4.13.16 1.82-11.36 5.63-.04Z" fill="#7c4f73"/><path d="M77.19 79.56q.79 1.4.1 1.85-2.53.68-4.75 2.13-.51.34-.46.79a.39.39 0 0 0 .53.32l.44-.16q.17.35.24.88-.96-.28-.3 1.32l-6.61.36q-.13-1.24.24-2.24a1.02 1.02 0 0 1 .4-.49q.6-.38.32-.8 2.52-2.23 5.54-3.31 2.02-.71 4.31-.65Z" fill="#0939b3"/><path d="M77.19 79.56c3.25-.08 10.18-.51 12.76.73 2.69 1.3 2.73 6.31 2.5 9.22q-1.72 1.28-2.84.66c-2.97-3.41-7.25-9.1-12.32-8.76q.69-.45-.1-1.85Z" fill="#1a2653"/><path d="m119.1 80.13 5.71 3.83q.5.83.85 2.78-.98.26-1.68.16-5.05.9-5.24-1.79-.19-.13.04-.32 1.16-.22.83-1.26a1.23 1.21 6.8 0 0-.55-.69q-7.57-4.57-13.07 3.1-.73 1.55-2.37 1.57-2.13-1.98-3.01-4.9 2-2.94 5.39-3 7.89-.13 13.1.52Z" fill="#955812"/><path d="M118.78 84.79q-5.47-3.54-10.29-.07-.45.33-.34.61.12.3.67.59-1.44.82-2.83.02 5.5-7.67 13.07-3.1a1.23 1.21 6.8 0 1 .55.69q.33 1.04-.83 1.26Z" fill="#eca611"/><path d="M77.29 81.41c5.07-.34 9.35 5.35 12.32 8.76l.03 12.08q0 .52-.5.64c-4.36 1.04-6.96 4.53-5.28 9.02l-2.28.76q-1-4.66 1.59-8.71c1.44-2.26 3.96-4.78 4.19-7.54q.25-3.04.36-6.21.07-2-3.12-2.79l-6.81 2.32a.98.98 0 0 1-.89-.14l-3.91-2.91q-.66-1.6.3-1.32 4.71 4.12 8.88.16.4-.38.05-.81c-2.14-2.64-6.63-1.78-9.17-.23l-.44.16a.39.39 0 0 1-.53-.32q-.05-.45.46-.79 2.22-1.45 4.75-2.13Z" fill="#bb6554"/><path d="M100.61 82.61q.88 2.92 3.01 4.9l.03 1.56q-.93.72-.85 1.17 1.18 6.77 3.13 13.23-.9.28-2.02-.44-.77-.51-1.32.23l-.22.28q-.44.59.16 1.02c1.88 1.34 3.49 2.9 3.4 5.35q-.71.68-1.53.99-1.17.33-2.47.08.51-2.72-1.52-4.14-.42-.28-.4-.78l.6-23.45Z" fill="#c9c092"/><path d="M73.29 85.37q-.07-.53-.24-.88c2.54-1.55 7.03-2.41 9.17.23q.35.43-.05.81-4.17 3.96-8.88-.16ZM118.78 84.79q-.23.19-.04.32-5.41 4.22-9.92.81-.55-.29-.67-.59-.11-.28.34-.61 4.82-3.47 10.29.07Z" fill="#1a2653"/><path d="M118.74 85.11q.19 2.69 5.24 1.79l-.2 2.24q-5.43 1.44-10.09 3.15c-2.83 1.04-7.41-2.1-10.04-3.22l-.03-1.56q1.64-.02 2.37-1.57 1.39.8 2.83-.02 4.51 3.41 9.92-.81Z" fill="#d4b670"/><path d="m72.99 86.69 3.91 2.91a.98.98 0 0 0 .89.14l6.81-2.32q-2.54 2.8-4.92 3.75c-3.28 1.31-7.84-1.72-11.13-2.77a.37.37 0 0 0-.47.46c2.76 8.94 11.01 16.13 9.94 26.25q-3.74-7.39-8.14-13.97-3.1-4.64-3.85-9.76-.17-2.66.35-4.33l6.61-.36Z" fill="#0aa8a5"/><path d="M125.66 86.74q1.28 6.87-2.06 13.09-3.93 7.32-7.83 14.77-.48-.97-.41-1.48c1.28-9.66 5.12-15.48 8.42-23.98l.2-2.24q.7.1 1.68-.16Z" fill="#f8c124"/><path d="m62 87.51.09 1.71.16 9.48-5.81 1.46.49-10.23q.03-.49.52-.53 1.5-.11 2.75-.89l1.8-1Z" fill="#336baa"/><path d="M84.6 87.42q3.19.79 3.12 2.79-.11 3.17-.36 6.21c-.23 2.76-2.75 5.28-4.19 7.54q-2.59 4.05-1.59 8.71-1.89 2.05-3.56 2.44c1.07-10.12-7.18-17.31-9.94-26.25a.37.37 0 0 1 .47-.46c3.29 1.05 7.85 4.08 11.13 2.77q2.38-.95 4.92-3.75Z" fill="#c9c092"/><path d="m56.07 88.67 4.13-.16q-1.25.78-2.75.89-.49.04-.52.53l-.49 10.23-1.61 15.35.27-4.04q.07-.98-.52-.19-.53.7-.59 2.09l1.44-17.17q.01-.08-.07-.08h-.29q-.2 0-.2.2v.93q0 .37-.37.37h-.28q-.22.01-.34.2-.68 1.07-.77 2.3-.04.54-.42.94l-2.39 2.49q-.31.32-.75.39-.89.13-1.88-.24l2.29-14.85 6.11-.18Z" fill="#5c59a0"/><path d="M123.78 89.14c-3.3 8.5-7.14 14.32-8.42 23.98q-.07.51.41 1.48.33 1.75-2.11-.19.16-.25.21-.44.04-.18-.13-.43c-2.6-3.69-3.78-6.98-7.81-10.07q-1.95-6.46-3.13-13.23-.08-.45.85-1.17c2.63 1.12 7.21 4.26 10.04 3.22q4.66-1.71 10.09-3.15Z" fill="#fff"/><path d="M66.03 91.38q.75 5.12 3.85 9.76 4.4 6.58 8.14 13.97 1.67-.39 3.56-2.44l2.28-.76q.07.69.68 1.67-7.22 3.31-10.71 7.95-2.07 2.74-.94-.5l2.26-6.45a.54.54 0 0 0-.74-.66c-5.11 2.44-7.85 6.62-8.72 12.39-2.67 17.73 4.73 28.55 13.03 43.52q.51.94-.46.51l-17.58-7.74-1.42-25.21a.26.25-17.1 0 0-.39-.2l-7.01 4.22-6.4 2.02-2.8.34q-.65.08-.46.7l3.6 11.65q.11.23-.52.22l-19.74-9.39a.44.44 0 0 1-.09-.73q1.91-1.59 1.58-4.45c2.77-.72 5.89-.93 8.24-1.68 8.81-2.83 13.82-10.14 16.59-18.61l2.13-8.11q.06-1.39.59-2.09.59-.79.52.19l-.27 4.04c-1.46 8.61-5.15 18.02-12.43 23.56q-1.15.87.26.57c19.97-4.26 21.51-24.42 19.59-40.94l-.16-9.48q.16.7 1.07.68.32-.01.48-.29.12-.23.39-.24.38-.01.71.14.17.07.38.01.29-.09.26.22-.12.98.65 1.64Z" fill="#272646"/><path d="m92.45 89.51-.35 17.76a.54.54 0 0 1-.79.46l-2.48-1.3q-.45-.23-.92-.05-1.62.64-2.19 2.32-.18.55.22.97.91.96 2.7 1.13-1.62 1.12-1.93 2.35l-2.17.43q-.61-.98-.68-1.67c-1.68-4.49.92-7.98 5.28-9.02q.5-.12.5-.64l-.03-12.08q1.12.62 2.84-.66Z" fill="#0939b3"/><path d="m53.99 113.37-2.13 8.11q-1.57.31-2.85-.71-.47-.37-1.06-.32-1.3.12-1.83-1.07a.52.52 0 0 0-.84-.15l-.28.28q-.08.08-.14-.03l-.12-.24a.27.27 0 0 0-.5.03q-.18.48-.12 1 .06.45-.33.7-.8.52-1.51 1.49 3.75-8.95 5.39-18.76.99.37 1.88.24.44-.07.75-.39l2.39-2.49q.38-.4.42-.94.09-1.23.77-2.3.12-.19.34-.2h.28q.37 0 .37-.37v-.93q0-.2.2-.2h.29q.08 0 .07.08l-1.44 17.17Z" fill="#336baa"/><path d="M62.25 98.7c1.92 16.52.38 36.68-19.59 40.94q-1.41.3-.26-.57c7.28-5.54 10.97-14.95 12.43-23.56l1.61-15.35 5.81-1.46Z" fill="#0e81b2"/><path d="M188.27 102.41q2.95 1.1 3.73 3.63v2c-.71 2.35-2.14 2.63-4.37 3.6l-1.97-.58q-4.39-4.79.63-8.34 1.48.13 1.98-.31ZM4.54 102.58l1.58.36q4.45 3.72.05 7.86-1.6.02-1.78.41-3.41-.31-4.39-3.55V106q1.29-3.34 4.54-3.42Z" fill="#272646"/><path d="M105.93 103.47c4.03 3.09 5.21 6.38 7.81 10.07q.17.25.13.43-.05.19-.21.44l-7.73-4.5c.09-2.45-1.52-4.01-3.4-5.35q-.6-.43-.16-1.02l.22-.28q.55-.74 1.32-.23 1.12.72 2.02.44Z" fill="#d4b670"/><path d="M95.44 114.34q2.53.2 4.12-1.13.61-.13.92 1.27-2.74 3.5-6.93 1.97c-1.49-.54-3.71-4.25-6.09-3.1q-.3.02-.75-.2.31-1.23 1.93-2.35.88-.4 1.8-.26a1.1 1.09-12.1 0 1 .77.49q1.86 2.83 4.23 3.31Z" fill="#424855"/><path d="M6.17 110.8c1.2 12.94 5.44 23.1 12.08 34.13q-.56 1.1-1.21 1.57-10.95-15.92-12.65-35.29.18-.39 1.78-.41Z" fill="#3b58d8"/><path d="M104.4 110.9q.29 1.03 2.35 1.83l-4.71 1.85q-.96.15-1.56-.1-.31-1.4-.92-1.27l2.37-2.23q1.3.25 2.47-.08Z" fill="#d6b12f"/><path d="m185.66 111.06 1.97.58q-2.21 18.08-10.94 34.07-.44-.18-.92-.01.22-.56.81-.95.41-.28.34-.77-.13-.97-.57-1.81 7.64-14.44 9.31-31.11Z" fill="#a80cb4"/><path d="M106.75 112.73c5.37 1.87 9.61 6.53 13.27 10.74q.7.81.44-.23c-.69-2.84-2.79-6.2-2.52-9.33q.05-.52.52-.28c14.95 7.68 10.08 29.87 3.1 41.44q-3.95 6.54-7.89 15.16-.3.65.35.36l17.65-7.79 2.32-.89q.43.36.5.85l-2.53 1.1-18.84 8.08q-.46.2-.73.63l-6.32 10.45q-1.7 1.88-4.19 4.1-.63.57-1.37.42-.2-.14-.39-.28l3.68-3.43 1.82-2.15 4.67-7.64 7.09-13.78.99-1.89c2.42-6.8 5.21-17.1 2.21-23.61l-.56-1.61c-.52-6.3-12.23-14.42-17.7-17.46q-.5-.28-.28-1.11l4.71-1.85Z" fill="#fff"/><path d="M100.48 114.48q.6.25 1.56.1-.22.83.28 1.11c5.47 3.04 17.18 11.16 17.7 17.46-4.34-7.15-14.06-16.05-23.12-11.57a1 .96 45.9 0 1-.92-.03c-6.84-3.91-14.11 1.42-19.22 6.44q-.51.04-1.08.52a.08.08 0 0 1-.1-.12q1.25-1.21 1.57-2.4 5.88-5.58 12.59-10.02a.75.74 43.7 0 0-.03-1.26l-2.25-1.36c2.38-1.15 4.6 2.56 6.09 3.1q4.19 1.53 6.93-1.97Z" fill="#eca611"/><path d="M86.71 113.15q.45.22.75.2l2.25 1.36a.75.74 43.7 0 1 .03 1.26q-6.71 4.44-12.59 10.02c-8.97 9.61-6.86 23.1-2.53 34.3l.86 1.7 6.99 12.41 4.71 7.37 1.73 2.22 2.89 2.79a.41.4 34.3 0 1 .09.46l-.16.34q-.13.28-.35.06l-4.95-4.86-6.41-10.41q-.27-.43-.74-.63l-18.59-7.96-5.98-2.39-4.3-2.11q.09-.21.1-.37a.26.26 0 0 0-.26-.28h-.26q-.11 0-.12-.11l-.04-.8 5.91 2.62 4.94 2.26 17.58 7.74q.97.43.46-.51c-8.3-14.97-15.7-25.79-13.03-43.52.87-5.77 3.61-9.95 8.72-12.39a.54.54 0 0 1 .74.66l-2.26 6.45q-1.13 3.24.94.5 3.49-4.64 10.71-7.95l2.17-.43Z" fill="#fff"/><path d="M51.86 121.48c-2.77 8.47-7.78 15.78-16.59 18.61-2.35.75-5.47.96-8.24 1.68q-.81-1.99-2.31-3.48 11.86-4.36 17.56-15.83.71-.97 1.51-1.49.39-.25.33-.7-.06-.52.12-1a.27.27 0 0 1 .5-.03l.12.24q.06.11.14.03l.28-.28a.52.52 0 0 1 .84.15q.53 1.19 1.83 1.07.59-.05 1.06.32 1.28 1.02 2.85.71Z" fill="#0895ab"/><path d="m120.02 133.15.56 1.61-2.21 23.61-.99 1.89-.83-11.71a.48.48 0 0 0-.63-.42q-.32.1-.51.42-.48-.88-.13-1.35l.27.12q.32.14.37-.21 1.39-10.69-3.54-18.55-6.5-8.16-15.33-3.89-.52.25-1.03-.01-8.91-4.43-15.45 4.21-5.25 7.4-3.58 19.34-.19.28-.18.88c-1.63 3.23-1.1 7.65-.93 11.16q.05.93-.4 1.74l-.86-1.7q.31-2.17-.76-7.16-1.72-8.03-.77-19.64.15-1.88 3.67-5.5c5.11-5.02 12.38-10.35 19.22-6.44a1 .96 45.9 0 0 .92.03c9.06-4.48 18.78 4.42 23.12 11.57Z" fill="#1a2653"/><path d="M112.38 128.56q-4.4 3.69-10.37.86-.45-.22-.91-.03l-1.05.44q-4.67 1.74-8-.67-4.01 1.3-7.66 1.36-2.27.03-3.82-1.65 6.54-8.64 15.45-4.21.51.26 1.03.01 8.83-4.27 15.33 3.89Z" fill="#fff"/><path d="M77.15 125.99q-.32 1.19-1.57 2.4a.08.08 0 0 0 .1.12q.57-.48 1.08-.52-3.52 3.62-3.67 5.5-.95 11.61.77 19.64 1.07 4.99.76 7.16c-4.33-11.2-6.44-24.69 2.53-34.3ZM112.38 128.56q4.93 7.86 3.54 18.55-.05.35-.37.21l-.27-.12q.06-.55-.05-.72c-4.3-7.1-8.6-11.07-13.83-16.22q-.33-.32-.8-.37l-.55-.06 1.05-.44q.46-.19.91.03 5.97 2.83 10.37-.86Z" fill="#f8c124"/><path d="M80.57 128.87q1.55 1.68 3.82 1.65 3.65-.06 7.66-1.36-2.79 3.9-6.44 6.7-2.21 1.68-7.77 9.72-.79 1.15-.85 2.63-1.67-11.94 3.58-19.34Z" fill="#fa9b06"/><path d="M92.05 129.16q3.33 2.41 8 .67l.55.06q.47.05.8.37c5.23 5.15 9.53 9.12 13.83 16.22q.11.17.05.72-.35.47.13 1.35c-.35 3.33.43 5.22-2.23 8.36q-6.76 7.97-13.94 15.29a.49.49 0 0 0 .18.81q4.58 1.69 10.87 1.03l-4.67 7.64q-6.22-3.7-10.62-3.2-2.03.23-7.82 3.29l-4.71-7.37 10.51-1.3a.49.49 0 0 0 .39-.66q-.13-.37-.55-.76-7.65-7.12-14.24-15.27-2.21-2.74-1.77-7.32-.01-.6.18-.88.06-1.48.85-2.63 5.56-8.04 7.77-9.72 3.65-2.8 6.44-6.7Zm-.45 7.21-1.59 1.85c-3.88 3.44-5.88 8.71-3.35 13.61q4.41 8.58 9.41 16.71a.24.24 0 0 0 .41-.01q4.11-7.15 8.48-14.13 5.86-9.37-2.57-16.46l-1.24-1.47q-4.33-5.87-9.55-.1Z" fill="#272646"/><path d="m101.15 136.47-9.55-.1q5.22-5.77 9.55.1Z" fill="#fa9b06"/><path d="M120.58 134.76c3 6.51.21 16.81-2.21 23.61l2.21-23.61Z" fill="#f8c124"/><path d="m91.6 136.37 9.55.1 1.24 1.47c1.81 6.01.48 10.47-2.69 15.51-1.69 2.69-2.51 5.28-2.75 8.22a.45.45 0 0 1-.89.03c-.56-3.67-2.3-6.62-4.04-9.98-2.42-4.66-3.04-8.46-2.01-13.5l1.59-1.85Z" fill="#fff"/><path d="m60.68 162.6-4.94-2.26-3.88-18.93 7.01-4.22a.26.25-17.1 0 1 .39.2l1.42 25.21Z" fill="#2d14f1"/><path d="m141.62 141.73-4.12 18.33-3.51 1.85-2.32.89 2.27-24.68a.4.4 0 0 1 .6-.32l7.08 3.93Z" fill="#a71573"/><path d="M102.39 137.94q8.43 7.09 2.57 16.46-4.37 6.98-8.48 14.13a.24.24 0 0 1-.41.01q-5-8.13-9.41-16.71c-2.53-4.9-.53-10.17 3.35-13.61-1.03 5.04-.41 8.84 2.01 13.5 1.74 3.36 3.48 6.31 4.04 9.98a.45.45 0 0 0 .89-.03c.24-2.94 1.06-5.53 2.75-8.22 3.17-5.04 4.5-9.5 2.69-15.51Z" fill="#fa9b06"/><path d="m22.26 139.81.82-.01c5.91 1.24.09 9.84-2.91 4.83-1.15-1.92-.22-4.35 2.09-4.82Z" fill="#1a2653"/><circle r="3.05" cy="142.93" cx="170.01" fill="#272646"/><path d="m51.86 141.41 3.88 18.93-5.91-2.62q-.53-.33-.75-.84l-3.62-13.45 6.4-2.02Z" fill="#3b58d8"/><path d="m141.62 141.73 6.39 1.73-3.85 13.38q-.15.52-.65.72l-6.01 2.5 4.12-18.33Z" fill="#ef545b"/><path d="M176.35 142.17q.44.84.57 1.81.07.49-.34.77-.59.39-.81.95-.94.64-1.93.8.6-2.58 2.51-4.33Z" fill="#3b58d8"/><path d="m45.46 143.43 3.62 13.45q-.79.98-3.28-.76l-3.6-11.65q-.19-.62.46-.7l2.8-.34Z" fill="#fbafa3"/><path d="M148.01 143.46q1.29-.14 2.33.22.53.19.36.71-1.87 6-3.86 11.86-.11.31.64.37l-1.43 1.8-4.5 13.06q-1.09-2.08-2.43-2.78l3.75-8.36q.62-1.39-.75-.72l-4.24 2.09-3.39 1.05q-.07-.49-.5-.85l3.51-1.85 6.01-2.5q.5-.2.65-.72l3.85-13.38Z" fill="#faddbc"/><path d="M18.25 144.93q.84 1.7 3.1 2.54-1.24 1.21-.19 2.28 1.05 1.06 1.27 1.41 8.51 14.17 22.34 24.13 4.43 3.19 9.33 3.62c-1.19 3.53-3.99 2.92-6.72 1.69-13.46-6-24.5-21.02-30.34-34.1q.65-.47 1.21-1.57Z" fill="#0bb6fa"/><path d="M175.77 145.7q.48-.17.92.01c-5.39 13.27-18.82 33.29-33.79 36.74q-1.61.37-2.91-1.69.13-.12.21-.29.14-.27.41-.4c14.75-6.89 23.82-17.86 31.92-31.62q.63-1.07.04-1.22l1.27-.73q.99-.16 1.93-.8Z" fill="#fa9b06"/><path d="M172.57 147.23q.59.15-.04 1.22c-8.1 13.76-17.17 24.73-31.92 31.62q-.27.13-.41.4-.08.17-.21.29c-1.95-1.27.17-5.69.98-7.13q17.47-8.02 26.73-25.07 1.34-.98 4.87-1.33Z" fill="#f56a05"/><path d="M21.35 147.47q1.78.3 2.61.06 3.58 5.54 7.32 9.96 6.58 7.77 15.53 12.51c1.31.69 3.29 1.02 4.62 2.18l2.67 6.73q-4.9-.43-9.33-3.62-13.83-9.96-22.34-24.13-.22-.35-1.27-1.41-1.05-1.07.19-2.28Z" fill="#10a3b7"/><path d="m23.96 147.53 21.27 10.11q1.49.52 1.73 1.39 1.21 4.45 3.94 11.33.4 1 .82 1.22-.03.25-.29.6c-1.33-1.16-3.31-1.49-4.62-2.18q-8.95-4.74-15.53-12.51-3.74-4.42-7.32-9.96Z" fill="#272646"/><path d="m117.38 160.26-7.09 13.78q-6.29.66-10.87-1.03a.49.49 0 0 1-.18-.81q7.18-7.32 13.94-15.29c2.66-3.14 1.88-5.03 2.23-8.36q.19-.32.51-.42a.48.48 0 0 1 .63.42l.83 11.71Z" fill="#2d14f1"/><path d="M167.7 148.56q-9.26 17.05-26.73 25.07l.58-2.15 4.5-13.06 21.65-9.86Z" fill="#182848"/><path d="M76.81 149.09q-.44 4.58 1.77 7.32 6.59 8.15 14.24 15.27.42.39.55.76a.49.49 0 0 1-.39.66l-10.51 1.3-6.99-12.41q.45-.81.4-1.74c-.17-3.51-.7-7.93.93-11.16Z" fill="#2d14f1"/><path d="M45.28 156.34q.63.01.52-.22 2.49 1.74 3.28.76.22.51.75.84l.04.8q.01.11.12.11h.26a.26.26 0 0 1 .26.28q-.01.16-.1.37-.72.17-.42.97 1.76 4.68 4.26 9 .14.25-.04.69-1.61.39-2.49 1.64-.42-.22-.82-1.22-2.73-6.88-3.94-11.33-.24-.87-1.73-1.39.76-.3.05-1.3Z" fill="#faddbc"/><path d="m50.41 159.28 4.3 2.11 5.85 10.33q2.14 4.16 5.74 7.36 1.11.99 1.94 3.55-7.7-4.67-13.07-12.05-.15-.2-.96-.64.18-.44.04-.69-2.5-4.32-4.26-9-.3-.8.42-.97Z" fill="#d95d7a"/><path d="M139.12 168.7q-4.36 7.07-10.49 11.85-.47-.83-1.64.43-.31.34-.56.41-.35.08-.56-.14a.88.88 0 0 1 .04-1.27q8.34-7.53 11.97-18.27l4.24-2.09q1.37-.67.75.72l-3.75 8.36Z" fill="#ef545b"/><path d="m54.71 161.39 5.98 2.39q.63 3.77 3.2 7.5l-3.33.44-5.85-10.33Z" fill="#a80cb4"/><path d="M137.88 161.71q-3.63 10.74-11.97 18.27a.88.88 0 0 0-.04 1.27q.21.22.56.14.25-.07.56-.41 1.17-1.26 1.64-.43-5.07 3.92-10.91 5.8l-.57.04q-1.38.08-.37-.62.62-.42.33-1.23a.62.6-22.6 0 1 .32-.75q1.29-.61.74-1.79-.21-.45.28-.56.55-.12.6-.5 10.07-5.15 12.91-17.08l2.53-1.1 3.39-1.05Z" fill="#d41f8a"/><path d="m60.69 163.78 18.59 7.96q.47.2.74.63l6.41 10.41-3.72.01q-12.45-1.28-18.82-11.51-2.57-3.73-3.2-7.5ZM131.96 163.86q-2.84 11.93-12.91 17.08-6.41 2.51-12.98 2.08l6.32-10.45q.27-.43.73-.63l18.84-8.08Z" fill="#272646"/><path d="M63.89 171.28q6.37 10.23 18.82 11.51l.4 2.43q.02.09-.06.05-.11-.05-.28-.01-.11.02-.09.13.22 1.13-.25 2.06-7.97-.78-14.19-4.82-.83-2.56-1.94-3.55-3.6-3.2-5.74-7.36l3.33-.44Z" fill="#d41f8a"/><path d="m105.62 181.68-1.82 2.15q-3.29-.49-6.3.54-1.53.53-6.84-.76-.39-.1-.71.14-.31.22-1.04.24l-1.73-2.22q5.79-3.06 7.82-3.29 4.4-.5 10.62 3.2Z" fill="#2d14f1"/><path d="M119.05 180.94q-.05.38-.6.5-.49.11-.28.56.55 1.18-.74 1.79a.62.6-22.6 0 0-.32.75q.29.81-.33 1.23-1.01.7.37.62l.57-.04q-8.48 2.1-16.47 1.87-.56-.01-.74-.68.74.15 1.37-.42 2.49-2.22 4.19-4.1 6.57.43 12.98-2.08ZM82.71 182.79l3.72-.01 4.95 4.86q.22.22.35-.06l.16-.34a.41.4 34.3 0 0-.09-.46l-2.89-2.79q.73-.02 1.04-.24.32-.24.71-.14 5.31 1.29 6.84.76 3.01-1.03 6.3-.54l-3.68 3.43c-2.39.7-4.22 1.43-7 .44q-.45-.17-.86.08-.89.52-1.51.45-4.12-.45-8.32-.78.47-.93.25-2.06-.02-.11.09-.13.17-.04.28.01.08.04.06-.05l-.4-2.43Z" fill="#a80cb4"/></svg>