<svg viewBox="0.00 0.00 32.00 32.00" version="1.1" xmlns="http://www.w3.org/2000/svg">
<g stroke-linecap="butt" fill="none" stroke-width="2.00">
<path d="M 28.98 8.02
  Q 21.43 4.08 18.45 12.01
  Q 18.27 12.49 17.75 12.49
  L 16.97 12.49
  A 0.74 0.74 0.0 0 1 16.26 11.95
  C 14.46 5.02 5.69 4.92 3.70 11.82
  Q 3.57 12.29 3.10 12.43
  Q 1.99 12.78 1.45 12.10" stroke="#73726d"></path>
<path d="M 29.20 17.72
  C 24.85 20.81 20.09 19.40 18.56 14.14
  Q 18.42 13.65 17.92 13.61
  L 17.01 13.52
  Q 16.38 13.47 16.24 14.08
  C 14.71 21.00 5.64 21.20 3.69 14.23
  Q 3.55 13.73 3.05 13.64
  Q 2.18 13.48 1.47 13.95" stroke="#73726d"></path>
<path d="M 15.22 13.03
  A 5.25 5.25 0.0 0 0 9.97 7.78
  A 5.25 5.25 0.0 0 0 4.72 13.03
  A 5.25 5.25 0.0 0 0 9.97 18.28
  A 5.25 5.25 0.0 0 0 15.22 13.03" stroke="#806602"></path>
<path d="M 30.09 13.04
  A 5.24 5.24 0.0 0 0 24.85 7.80
  A 5.24 5.24 0.0 0 0 19.61 13.04
  A 5.24 5.24 0.0 0 0 24.85 18.28
  A 5.24 5.24 0.0 0 0 30.09 13.04" stroke="#806602"></path>
<path d="M 10.39 11.94
  Q 10.16 11.47 10.23 11.08
  A 0.62 0.61 -8.3 0 0 9.35 10.43
  Q 6.25 11.96 7.89 14.67
  A 2.26 2.26 0.0 0 0 10.58 15.62
  Q 12.34 15.00 12.62 13.26
  Q 12.71 12.68 12.13 12.73
  Q 11.53 12.78 11.06 12.59
  Q 10.61 12.40 10.39 11.94" stroke="#806602"></path>
<path d="M 25.46 12.32
  Q 25.09 11.70 25.10 11.01
  Q 25.10 10.48 24.57 10.49
  C 21.13 10.56 21.61 16.52 25.57 15.52
  Q 27.14 15.12 27.53 13.32
  Q 27.66 12.68 27.01 12.72
  L 26.28 12.76
  A 0.92 0.92 0.0 0 1 25.46 12.32" stroke="#806602"></path>
<path d="M 29.42 26.71
  Q 28.22 29.34 28.05 32.00" stroke="#cdc8be"></path>
<path d="M 18.74 32.00
  Q 18.68 31.40 18.96 31.20
  Q 20.06 30.43 18.74 30.22
  Q 14.61 29.59 15.62 32.00" stroke="#cdc8be"></path>
<path d="M 6.63 32.00
  Q 8.32 24.25 1.40 20.74" stroke="#cdc8be"></path>
<path d="M 19.51 19.83
  A 0.47 0.47 0.0 0 0 19.52 19.03
  L 16.93 17.44
  A 0.47 0.47 0.0 0 0 16.21 17.81
  L 16.02 21.04
  A 0.47 0.47 0.0 0 0 16.72 21.47
  L 19.51 19.83" stroke="#f2d86f"></path>
<path d="M 16.14 26.06
  L 12.30 26.04
  A 0.13 0.13 0.0 0 0 12.16 26.17
  L 12.16 26.24
  A 1.94 1.82 0.3 0 0 14.09 28.07
  L 14.31 28.07
  A 1.94 1.82 0.3 0 0 16.26 26.26
  L 16.26 26.19
  A 0.13 0.13 0.0 0 0 16.14 26.06" stroke="#cdc8be"></path>
<path d="M 22.60 26.06
  L 18.64 26.08
  A 0.11 0.11 0.0 0 0 18.53 26.19
  L 18.53 26.25
  A 1.98 1.83 -0.4 0 0 20.53 28.07
  L 20.75 28.07
  A 1.98 1.83 -0.4 0 0 22.71 26.23
  L 22.71 26.17
  A 0.11 0.11 0.0 0 0 22.60 26.06" stroke="#cdc8be"></path>
</g>
<path d="M 28.98 8.02
  Q 21.43 4.08 18.45 12.01
  Q 18.27 12.49 17.75 12.49
  L 16.97 12.49
  A 0.74 0.74 0.0 0 1 16.26 11.95
  C 14.46 5.02 5.69 4.92 3.70 11.82
  Q 3.57 12.29 3.10 12.43
  Q 1.99 12.78 1.45 12.10
  L 1.49 2.15
  Q 1.50 0.09 2.95 1.55
  L 5.29 3.90
  A 1.24 1.23 67.0 0 0 6.15 4.25
  L 24.26 4.25
  Q 24.88 4.25 25.32 3.81
  L 27.69 1.43
  Q 29.01 0.10 29.01 1.98
  L 28.98 8.02
  Z" fill="#e5e4da"></path>
<path d="M 28.98 8.02
  Q 33.34 13.06 29.20 17.72
  C 24.85 20.81 20.09 19.40 18.56 14.14
  Q 18.42 13.65 17.92 13.61
  L 17.01 13.52
  Q 16.38 13.47 16.24 14.08
  C 14.71 21.00 5.64 21.20 3.69 14.23
  Q 3.55 13.73 3.05 13.64
  Q 2.18 13.48 1.47 13.95
  Q 0.50 14.09 0.00 13.69
  L 0.00 13.00
  Q 0.89 12.62 1.45 12.10
  Q 1.99 12.78 3.10 12.43
  Q 3.57 12.29 3.70 11.82
  C 5.69 4.92 14.46 5.02 16.26 11.95
  A 0.74 0.74 0.0 0 0 16.97 12.49
  L 17.75 12.49
  Q 18.27 12.49 18.45 12.01
  Q 21.43 4.08 28.98 8.02
  Z
  M 15.22 13.03
  A 5.25 5.25 0.0 0 0 9.97 7.78
  A 5.25 5.25 0.0 0 0 4.72 13.03
  A 5.25 5.25 0.0 0 0 9.97 18.28
  A 5.25 5.25 0.0 0 0 15.22 13.03
  Z
  M 30.09 13.04
  A 5.24 5.24 0.0 0 0 24.85 7.80
  A 5.24 5.24 0.0 0 0 19.61 13.04
  A 5.24 5.24 0.0 0 0 24.85 18.28
  A 5.24 5.24 0.0 0 0 30.09 13.04
  Z" fill="#000000"></path>
<path d="M 15.22 13.03
  A 5.25 5.25 0.0 0 1 9.97 18.28
  A 5.25 5.25 0.0 0 1 4.72 13.03
  A 5.25 5.25 0.0 0 1 9.97 7.78
  A 5.25 5.25 0.0 0 1 15.22 13.03
  Z
  M 10.39 11.94
  Q 10.16 11.47 10.23 11.08
  A 0.62 0.61 -8.3 0 0 9.35 10.43
  Q 6.25 11.96 7.89 14.67
  A 2.26 2.26 0.0 0 0 10.58 15.62
  Q 12.34 15.00 12.62 13.26
  Q 12.71 12.68 12.13 12.73
  Q 11.53 12.78 11.06 12.59
  Q 10.61 12.40 10.39 11.94
  Z" fill="#ffcc03"></path>
<path d="M 30.09 13.04
  A 5.24 5.24 0.0 0 1 24.85 18.28
  A 5.24 5.24 0.0 0 1 19.61 13.04
  A 5.24 5.24 0.0 0 1 24.85 7.80
  A 5.24 5.24 0.0 0 1 30.09 13.04
  Z
  M 25.46 12.32
  Q 25.09 11.70 25.10 11.01
  Q 25.10 10.48 24.57 10.49
  C 21.13 10.56 21.61 16.52 25.57 15.52
  Q 27.14 15.12 27.53 13.32
  Q 27.66 12.68 27.01 12.72
  L 26.28 12.76
  A 0.92 0.92 0.0 0 1 25.46 12.32
  Z" fill="#ffcc03"></path>
<path d="M 11.06 12.59
  Q 11.53 12.78 12.13 12.73
  Q 12.71 12.68 12.62 13.26
  Q 12.34 15.00 10.58 15.62
  A 2.26 2.26 0.0 0 1 7.89 14.67
  Q 6.25 11.96 9.35 10.43
  A 0.62 0.61 -8.3 0 1 10.23 11.08
  Q 10.16 11.47 10.39 11.94
  Q 10.61 12.40 11.06 12.59
  Z" fill="#000000"></path>
<path d="M 26.28 12.76
  L 27.01 12.72
  Q 27.66 12.68 27.53 13.32
  Q 27.14 15.12 25.57 15.52
  C 21.61 16.52 21.13 10.56 24.57 10.49
  Q 25.10 10.48 25.10 11.01
  Q 25.09 11.70 25.46 12.32
  A 0.92 0.92 0.0 0 0 26.28 12.76
  Z" fill="#000000"></path>
<path d="M 29.20 17.72
  L 29.42 26.71
  Q 28.22 29.34 28.05 32.00
  L 18.74 32.00
  Q 18.68 31.40 18.96 31.20
  Q 20.06 30.43 18.74 30.22
  Q 14.61 29.59 15.62 32.00
  L 6.63 32.00
  Q 8.32 24.25 1.40 20.74
  L 1.47 13.95
  Q 2.18 13.48 3.05 13.64
  Q 3.55 13.73 3.69 14.23
  C 5.64 21.20 14.71 21.00 16.24 14.08
  Q 16.38 13.47 17.01 13.52
  L 17.92 13.61
  Q 18.42 13.65 18.56 14.14
  C 20.09 19.40 24.85 20.81 29.20 17.72
  Z
  M 19.51 19.83
  A 0.47 0.47 0.0 0 0 19.52 19.03
  L 16.93 17.44
  A 0.47 0.47 0.0 0 0 16.21 17.81
  L 16.02 21.04
  A 0.47 0.47 0.0 0 0 16.72 21.47
  L 19.51 19.83
  Z
  M 16.14 26.06
  L 12.30 26.04
  A 0.13 0.13 0.0 0 0 12.16 26.17
  L 12.16 26.24
  A 1.94 1.82 0.3 0 0 14.09 28.07
  L 14.31 28.07
  A 1.94 1.82 0.3 0 0 16.26 26.26
  L 16.26 26.19
  A 0.13 0.13 0.0 0 0 16.14 26.06
  Z
  M 22.60 26.06
  L 18.64 26.08
  A 0.11 0.11 0.0 0 0 18.53 26.19
  L 18.53 26.25
  A 1.98 1.83 -0.4 0 0 20.53 28.07
  L 20.75 28.07
  A 1.98 1.83 -0.4 0 0 22.71 26.23
  L 22.71 26.17
  A 0.11 0.11 0.0 0 0 22.60 26.06
  Z" fill="#e5e4da"></path>
<path d="M 19.51 19.83
  L 16.72 21.47
  A 0.47 0.47 0.0 0 1 16.02 21.04
  L 16.21 17.81
  A 0.47 0.47 0.0 0 1 16.93 17.44
  L 19.52 19.03
  A 0.47 0.47 0.0 0 1 19.51 19.83
  Z" fill="#ffcc03"></path>
<path d="M 1.40 20.74
  Q 8.32 24.25 6.63 32.00
  L 0.00 32.00
  L 0.00 23.24
  L 1.40 20.74
  Z" fill="#b5aca1"></path>
<path d="M 16.14 26.06
  A 0.13 0.13 0.0 0 1 16.26 26.19
  L 16.26 26.26
  A 1.94 1.82 0.3 0 1 14.31 28.07
  L 14.09 28.07
  A 1.94 1.82 0.3 0 1 12.16 26.24
  L 12.16 26.17
  A 0.13 0.13 0.0 0 1 12.30 26.04
  L 16.14 26.06
  Z" fill="#b5aca1"></path>
<path d="M 22.60 26.06
  A 0.11 0.11 0.0 0 1 22.71 26.17
  L 22.71 26.23
  A 1.98 1.83 -0.4 0 1 20.75 28.07
  L 20.53 28.07
  A 1.98 1.83 -0.4 0 1 18.53 26.25
  L 18.53 26.19
  A 0.11 0.11 0.0 0 1 18.64 26.08
  L 22.60 26.06
  Z" fill="#b5aca1"></path>
<path d="M 29.42 26.71
  L 31.72 32.00
  L 28.05 32.00
  Q 28.22 29.34 29.42 26.71
  Z" fill="#b5aca1"></path>
<path d="M 18.74 32.00
  L 15.62 32.00
  Q 14.61 29.59 18.74 30.22
  Q 20.06 30.43 18.96 31.20
  Q 18.68 31.40 18.74 32.00
  Z" fill="#b5aca1"></path>
</svg>
