<svg viewBox="0.00 0.00 64.00 64.00" version="1.1" xmlns="http://www.w3.org/2000/svg">
<path d="M 50.79 31.27
  L 57.55 38.97
  A 0.32 0.32 0.0 0 1 57.38 39.50
  L 47.40 41.67
  A 0.32 0.32 0.0 0 0 47.15 42.01
  L 48.15 52.30
  A 0.32 0.32 0.0 0 1 47.70 52.63
  L 38.31 48.45
  A 0.32 0.32 0.0 0 0 37.91 48.58
  L 32.72 57.49
  A 0.32 0.32 0.0 0 1 32.16 57.49
  L 27.02 48.55
  A 0.32 0.32 0.0 0 0 26.62 48.42
  L 17.22 52.56
  A 0.32 0.32 0.0 0 1 16.78 52.23
  L 17.83 41.95
  A 0.32 0.32 0.0 0 0 17.58 41.61
  L 7.54 39.42
  A 0.32 0.32 0.0 0 1 7.37 38.89
  L 14.22 31.21
  A 0.32 0.32 0.0 0 0 14.22 30.79
  L 7.40 23.05
  A 0.32 0.32 0.0 0 1 7.57 22.52
  L 17.60 20.35
  A 0.32 0.32 0.0 0 0 17.85 20.01
  L 16.84 9.73
  A 0.32 0.32 0.0 0 1 17.29 9.40
  L 26.66 13.56
  A 0.32 0.32 0.0 0 0 27.06 13.43
  L 32.27 4.53
  A 0.32 0.32 0.0 0 1 32.83 4.53
  L 37.99 13.46
  A 0.32 0.32 0.0 0 0 38.39 13.59
  L 47.77 9.46
  A 0.32 0.32 0.0 0 1 48.21 9.79
  L 47.17 20.06
  A 0.32 0.32 0.0 0 0 47.42 20.40
  L 57.44 22.58
  A 0.32 0.32 0.0 0 1 57.61 23.11
  L 50.79 30.85
  A 0.32 0.32 0.0 0 0 50.79 31.27
  Z
  M 41.00 24.26
  A 0.26 0.26 0.0 0 0 40.74 24.00
  L 24.26 24.00
  A 0.26 0.26 0.0 0 0 24.00 24.26
  L 24.00 28.74
  A 0.26 0.26 0.0 0 0 24.26 29.00
  L 40.74 29.00
  A 0.26 0.26 0.0 0 0 41.00 28.74
  L 41.00 24.26
  Z
  M 41.00 33.26
  A 0.26 0.26 0.0 0 0 40.74 33.00
  L 24.26 33.00
  A 0.26 0.26 0.0 0 0 24.00 33.26
  L 24.00 37.74
  A 0.26 0.26 0.0 0 0 24.26 38.00
  L 40.74 38.00
  A 0.26 0.26 0.0 0 0 41.00 37.74
  L 41.00 33.26
  Z" fill="#ff6600"></path>
</svg>
