<svg viewBox="0.00 0.00 48.00 48.00" version="1.1" xmlns="http://www.w3.org/2000/svg">
<g stroke-linecap="butt" fill="none" stroke-width="2.00">
<path d="M 47.90 9.77
  Q 45.94 10.31 44.04 10.05
  Q 43.49 9.97 43.22 10.46
  Q 42.83 11.16 42.02 11.33
  Q 41.53 11.44 41.31 10.98
  Q 40.99 10.33 40.25 10.15
  Q 36.90 9.34 32.24 10.40
  A 0.49 0.49 0.0 0 0 32.09 11.30
  Q 32.74 11.71 32.19 13.06" stroke="#6476a8"></path>
<path d="M 32.19 13.06
  Q 29.26 8.83 24.46 9.18" stroke="#b1bbd8"></path>
<path d="M 24.46 9.18
  Q 23.03 9.14 21.83 9.81" stroke="#9dacd8"></path>
<path d="M 21.83 9.81
  L 19.00 10.70" stroke="#91b2d9"></path>
<path d="M 19.00 10.70
  Q 20.15 9.68 18.11 9.48
  Q 17.70 9.45 17.34 9.66
  Q 16.70 10.05 15.96 9.80
  Q 15.56 9.66 15.17 9.83
  C 14.19 10.25 13.43 9.84 12.63 9.85
  Q 9.24 9.86 5.86 9.85
  C 4.46 9.85 3.10 9.10 1.46 9.50
  A 1.20 1.14 46.6 0 1 0.76 9.46
  L 0.22 9.26" stroke="#6476a8"></path>
<path d="M 16.27 6.82
  A 0.99 0.99 0.0 0 0 15.28 5.83
  A 0.99 0.99 0.0 0 0 14.29 6.82
  A 0.99 0.99 0.0 0 0 15.28 7.81
  A 0.99 0.99 0.0 0 0 16.27 6.82" stroke="#a491ab"></path>
<path d="M 35.49 7.45
  A 1.29 1.29 0.0 0 0 34.20 6.16
  A 1.29 1.29 0.0 0 0 32.91 7.45
  A 1.29 1.29 0.0 0 0 34.20 8.74
  A 1.29 1.29 0.0 0 0 35.49 7.45" stroke="#869ad0"></path>
<path d="M 19.00 10.70
  C 16.11 11.94 12.43 14.07 12.67 17.35" stroke="#8baacb"></path>
<path d="M 12.67 17.35
  L 12.44 19.70" stroke="#96a4ca"></path>
<path d="M 12.44 19.70
  L 0.00 19.08" stroke="#58668d"></path>
<path d="M 10.47 14.80
  A 0.91 0.91 0.0 0 0 9.56 13.89
  A 0.91 0.91 0.0 0 0 8.65 14.80
  A 0.91 0.91 0.0 0 0 9.56 15.71
  A 0.91 0.91 0.0 0 0 10.47 14.80" stroke="#9e899d"></path>
<path d="M 24.46 9.18
  C 23.16 11.69 25.64 13.56 27.28 15.14
  A 1.41 1.41 0.0 0 0 29.05 15.28
  Q 30.07 14.58 31.00 15.39" stroke="#e3e9fb"></path>
<path d="M 31.00 15.39
  Q 28.88 15.31 28.78 16.54" stroke="#d7bfcd"></path>
<path d="M 28.78 16.54
  L 29.32 18.74" stroke="#8a93af"></path>
<path d="M 29.32 18.74
  Q 28.95 19.64 28.11 20.28" stroke="#e6c6d7"></path>
<path d="M 28.11 20.28
  Q 26.77 21.18 24.78 21.27
  A 0.82 0.81 22.6 0 0 24.26 21.48
  L 19.03 26.04
  Q 18.69 26.33 18.62 26.76
  L 18.48 27.50" stroke="#d2caf8"></path>
<path d="M 18.48 27.50
  L 15.27 27.64" stroke="#8a93af"></path>
<path d="M 15.27 27.64
  Q 12.27 27.97 12.35 25.50
  Q 12.42 23.23 12.44 19.70" stroke="#919bbd"></path>
<path d="M 12.67 17.35
  Q 14.11 18.11 14.56 21.43
  Q 14.62 21.83 15.01 21.92
  Q 15.24 21.97 15.46 22.12
  A 0.11 0.11 0.0 0 0 15.63 22.03
  Q 15.64 21.88 15.64 21.73
  A 0.23 0.22 -68.7 0 1 16.01 21.56
  L 16.36 21.86
  Q 16.55 22.02 16.66 21.80
  Q 16.84 21.44 16.77 21.12
  Q 16.70 20.74 17.01 20.51
  Q 19.41 18.76 21.30 16.45
  Q 21.50 16.21 21.56 15.95
  Q 21.63 15.69 21.64 15.42
  Q 21.67 14.95 22.04 14.66
  Q 22.55 14.26 22.31 13.51
  Q 21.77 11.79 21.83 9.81" stroke="#c4e0fb"></path>
<path d="M 32.19 13.06
  L 35.93 22.85" stroke="#aab3cb"></path>
<path d="M 35.93 22.85
  L 36.80 26.72" stroke="#9ea2af"></path>
<path d="M 36.80 26.72
  Q 35.66 27.59 34.66 27.22" stroke="#e6daf8"></path>
<path d="M 34.66 27.22
  Q 34.80 23.74 32.93 22.00" stroke="#fad6d8"></path>
<path d="M 32.93 22.00
  L 32.44 20.73" stroke="#9ea2af"></path>
<path d="M 32.44 20.73
  Q 33.63 18.17 31.00 15.39" stroke="#ebcece"></path>
<path d="M 48.00 21.44
  L 39.30 21.35
  A 1.49 1.44 58.5 0 1 38.60 21.17
  Q 37.00 20.29 35.93 22.85" stroke="#515d7f"></path>
<path d="M 38.75 18.91
  Q 39.34 19.40 39.93 18.74
  Q 40.28 18.36 40.04 17.90
  Q 39.81 17.48 39.15 17.57
  Q 38.00 17.72 38.34 18.29
  A 0.82 0.03 58.3 0 0 38.75 18.91" stroke="#85a1b7"></path>
<path d="M 32.44 20.73
  L 30.16 16.44
  Q 29.89 15.94 29.37 16.15
  Q 29.08 16.27 28.78 16.54" stroke="#927882"></path>
<path d="M 32.93 22.00
  Q 32.85 22.53 32.68 22.62
  A 1.38 1.28 63.7 0 1 30.92 21.95
  L 29.32 18.74" stroke="#a1808c"></path>
<path d="M 34.66 27.22
  C 31.03 27.82 29.02 23.20 28.11 20.28" stroke="#e8b7d5"></path>
<path d="M 15.27 27.64
  L 12.86 27.84
  Q 12.38 27.88 12.02 27.57
  Q 11.60 27.20 11.25 27.51
  Q 10.90 27.81 10.43 27.82
  L 0.00 28.07" stroke="#4c5571"></path>
<path d="M 4.16 23.41
  Q 4.43 24.26 5.45 23.98
  Q 5.98 23.84 6.01 23.29
  Q 6.02 23.11 6.01 22.93
  Q 5.97 22.37 5.41 22.30
  Q 4.57 22.20 4.21 22.83
  Q 4.06 23.11 4.16 23.41" stroke="#8098a9"></path>
<path d="M 36.80 26.72
  C 38.74 30.72 34.96 31.45 32.18 32.50" stroke="#8d84ac"></path>
<path d="M 32.18 32.50
  L 26.75 27.85
  A 1.32 1.28 63.3 0 0 25.86 27.54
  L 21.04 27.64" stroke="#baa1dc"></path>
<path d="M 21.04 27.64
  L 19.47 27.76" stroke="#bc9abb"></path>
<path d="M 19.47 27.76
  Q 18.95 27.75 18.48 27.50" stroke="#8d84ac"></path>
<path d="M 38.51 47.80
  C 36.10 43.42 34.32 37.23 28.05 37.56" stroke="#9c9c9d"></path>
<path d="M 28.05 37.56
  Q 25.58 37.27 24.07 37.91
  A 0.74 0.74 0.0 0 1 23.06 37.06
  L 23.79 34.00" stroke="#927882"></path>
<path d="M 23.79 34.00
  Q 24.56 32.51 24.31 30.90
  A 1.13 1.12 -78.3 0 0 23.82 30.14
  Q 22.45 29.21 21.72 27.79" stroke="#746272"></path>
<path d="M 21.72 27.79
  C 24.80 26.88 27.46 31.18 28.90 32.37
  Q 30.43 33.63 32.18 32.50" stroke="#726993"></path>
<path d="M 44.30 26.13
  A 0.95 0.95 0.0 0 0 43.35 25.18
  A 0.95 0.95 0.0 0 0 42.40 26.13
  A 0.95 0.95 0.0 0 0 43.35 27.08
  A 0.95 0.95 0.0 0 0 44.30 26.13" stroke="#927882"></path>
<path d="M 19.47 27.76
  L 18.96 28.77" stroke="#746272"></path>
<path d="M 18.96 28.77
  L 17.84 32.10" stroke="#927882"></path>
<path d="M 17.84 32.10
  L 15.44 37.79" stroke="#79909b"></path>
<path d="M 15.44 37.79
  Q 12.97 38.22 11.75 40.47" stroke="#9c9c9d"></path>
<path d="M 11.75 40.47
  L 7.77 47.69" stroke="#748396"></path>
<path d="M 6.53 36.33
  A 1.40 1.40 0.0 0 0 5.13 34.93
  A 1.40 1.40 0.0 0 0 3.73 36.33
  A 1.40 1.40 0.0 0 0 5.13 37.73
  A 1.40 1.40 0.0 0 0 6.53 36.33" stroke="#7381a7"></path>
<path d="M 21.72 27.79
  Q 21.37 27.61 21.04 27.64" stroke="#a17fa2"></path>
<path d="M 23.79 34.00
  Q 21.27 31.84 19.78 29.15
  A 0.71 0.68 78.4 0 0 19.29 28.81
  Q 19.14 28.79 18.96 28.77" stroke="#c18e90"></path>
<path d="M 28.05 37.56
  Q 26.84 39.03 24.52 39.50
  Q 22.54 39.90 22.29 38.98" stroke="#e8c8bc"></path>
<path d="M 22.29 38.98
  Q 21.06 35.19 17.84 32.10" stroke="#c6bcba"></path>
<path d="M 22.29 38.98
  L 18.79 37.77
  Q 18.32 37.60 17.81 37.63
  L 15.44 37.79" stroke="#d0dfd5"></path>
<path d="M 35.07 48.00
  Q 32.64 45.80 30.34 43.68
  Q 28.59 42.06 26.28 43.44
  Q 25.85 43.70 25.45 43.41
  L 22.65 41.43
  Q 22.29 41.17 21.84 41.09
  L 19.81 40.74" stroke="#e7d2cd"></path>
<path d="M 19.81 40.74
  Q 16.50 38.64 14.08 41.25" stroke="#95928d"></path>
<path d="M 14.08 41.25
  L 12.71 41.64
  Q 12.24 41.77 12.00 41.35
  Q 11.81 41.02 11.75 40.47" stroke="#cbd3d0"></path>
<path d="M 19.81 40.74
  Q 20.21 41.46 20.60 41.67" stroke="#8a7983"></path>
<path d="M 20.60 41.67
  L 24.22 48.00" stroke="#6b6874"></path>
<path d="M 9.37 48.00
  Q 9.53 47.75 9.85 47.67
  Q 10.30 47.55 10.54 47.16
  L 14.08 41.25" stroke="#6d7986"></path>
<path d="M 27.02 48.00
  C 25.98 46.03 25.21 44.50 23.19 43.28
  Q 21.94 42.52 20.60 41.67" stroke="#bea8b4"></path>
</g>
<path d="M 9.88 0.00
  L 38.21 0.00
  Q 46.90 1.34 47.90 9.77
  Q 45.94 10.31 44.04 10.05
  Q 43.49 9.97 43.22 10.46
  Q 42.83 11.16 42.02 11.33
  Q 41.53 11.44 41.31 10.98
  Q 40.99 10.33 40.25 10.15
  Q 36.90 9.34 32.24 10.40
  A 0.49 0.49 0.0 0 0 32.09 11.30
  Q 32.74 11.71 32.19 13.06
  Q 29.26 8.83 24.46 9.18
  Q 23.03 9.14 21.83 9.81
  L 19.00 10.70
  Q 20.15 9.68 18.11 9.48
  Q 17.70 9.45 17.34 9.66
  Q 16.70 10.05 15.96 9.80
  Q 15.56 9.66 15.17 9.83
  C 14.19 10.25 13.43 9.84 12.63 9.85
  Q 9.24 9.86 5.86 9.85
  C 4.46 9.85 3.10 9.10 1.46 9.50
  A 1.20 1.14 46.6 0 1 0.76 9.46
  L 0.22 9.26
  C 0.43 4.14 5.06 0.48 9.88 0.00
  Z
  M 16.27 6.82
  A 0.99 0.99 0.0 0 0 15.28 5.83
  A 0.99 0.99 0.0 0 0 14.29 6.82
  A 0.99 0.99 0.0 0 0 15.28 7.81
  A 0.99 0.99 0.0 0 0 16.27 6.82
  Z
  M 35.49 7.45
  A 1.29 1.29 0.0 0 0 34.20 6.16
  A 1.29 1.29 0.0 0 0 32.91 7.45
  A 1.29 1.29 0.0 0 0 34.20 8.74
  A 1.29 1.29 0.0 0 0 35.49 7.45
  Z" fill="#6a7eb5"></path>
<circle r="0.99" cy="6.82" cx="15.28" fill="#dea4a0"></circle>
<circle r="1.29" cy="7.45" cx="34.20" fill="#a1b5eb"></circle>
<path d="M 0.22 9.26
  L 0.76 9.46
  A 1.20 1.14 46.6 0 0 1.46 9.50
  C 3.10 9.10 4.46 9.85 5.86 9.85
  Q 9.24 9.86 12.63 9.85
  C 13.43 9.84 14.19 10.25 15.17 9.83
  Q 15.56 9.66 15.96 9.80
  Q 16.70 10.05 17.34 9.66
  Q 17.70 9.45 18.11 9.48
  Q 20.15 9.68 19.00 10.70
  C 16.11 11.94 12.43 14.07 12.67 17.35
  L 12.44 19.70
  L 0.00 19.08
  L 0.00 9.50
  Q 0.65 9.52 0.22 9.26
  Z
  M 10.47 14.80
  A 0.91 0.91 0.0 0 0 9.56 13.89
  A 0.91 0.91 0.0 0 0 8.65 14.80
  A 0.91 0.91 0.0 0 0 9.56 15.71
  A 0.91 0.91 0.0 0 0 10.47 14.80
  Z" fill="#5d6e9a"></path>
<path d="M 24.46 9.18
  C 23.16 11.69 25.64 13.56 27.28 15.14
  A 1.41 1.41 0.0 0 0 29.05 15.28
  Q 30.07 14.58 31.00 15.39
  Q 28.88 15.31 28.78 16.54
  L 29.32 18.74
  Q 28.95 19.64 28.11 20.28
  Q 26.77 21.18 24.78 21.27
  A 0.82 0.81 22.6 0 0 24.26 21.48
  L 19.03 26.04
  Q 18.69 26.33 18.62 26.76
  L 18.48 27.50
  L 15.27 27.64
  Q 12.27 27.97 12.35 25.50
  Q 12.42 23.23 12.44 19.70
  L 12.67 17.35
  Q 14.11 18.11 14.56 21.43
  Q 14.62 21.83 15.01 21.92
  Q 15.24 21.97 15.46 22.12
  A 0.11 0.11 0.0 0 0 15.63 22.03
  Q 15.64 21.88 15.64 21.73
  A 0.23 0.22 -68.7 0 1 16.01 21.56
  L 16.36 21.86
  Q 16.55 22.02 16.66 21.80
  Q 16.84 21.44 16.77 21.12
  Q 16.70 20.74 17.01 20.51
  Q 19.41 18.76 21.30 16.45
  Q 21.50 16.21 21.56 15.95
  Q 21.63 15.69 21.64 15.42
  Q 21.67 14.95 22.04 14.66
  Q 22.55 14.26 22.31 13.51
  Q 21.77 11.79 21.83 9.81
  Q 23.03 9.14 24.46 9.18
  Z" fill="#cfd9fa"></path>
<path d="M 24.46 9.18
  Q 29.26 8.83 32.19 13.06
  L 35.93 22.85
  L 36.80 26.72
  Q 35.66 27.59 34.66 27.22
  Q 34.80 23.74 32.93 22.00
  L 32.44 20.73
  Q 33.63 18.17 31.00 15.39
  Q 30.07 14.58 29.05 15.28
  A 1.41 1.41 0.0 0 1 27.28 15.14
  C 25.64 13.56 23.16 11.69 24.46 9.18
  Z" fill="#f7f8fb"></path>
<path d="M 47.90 9.77
  Q 47.95 9.82 48.00 9.87
  L 48.00 21.44
  L 39.30 21.35
  A 1.49 1.44 58.5 0 1 38.60 21.17
  Q 37.00 20.29 35.93 22.85
  L 32.19 13.06
  Q 32.74 11.71 32.09 11.30
  A 0.49 0.49 0.0 0 1 32.24 10.40
  Q 36.90 9.34 40.25 10.15
  Q 40.99 10.33 41.31 10.98
  Q 41.53 11.44 42.02 11.33
  Q 42.83 11.16 43.22 10.46
  Q 43.49 9.97 44.04 10.05
  Q 45.94 10.31 47.90 9.77
  Z
  M 38.75 18.91
  Q 39.34 19.40 39.93 18.74
  Q 40.28 18.36 40.04 17.90
  Q 39.81 17.48 39.15 17.57
  Q 38.00 17.72 38.34 18.29
  A 0.82 0.03 58.3 0 0 38.75 18.91
  Z" fill="#5d6e9a"></path>
<path d="M 21.83 9.81
  Q 21.77 11.79 22.31 13.51
  Q 22.55 14.26 22.04 14.66
  Q 21.67 14.95 21.64 15.42
  Q 21.63 15.69 21.56 15.95
  Q 21.50 16.21 21.30 16.45
  Q 19.41 18.76 17.01 20.51
  Q 16.70 20.74 16.77 21.12
  Q 16.84 21.44 16.66 21.80
  Q 16.55 22.02 16.36 21.86
  L 16.01 21.56
  A 0.23 0.22 -68.7 0 0 15.64 21.73
  Q 15.64 21.88 15.63 22.03
  A 0.11 0.11 0.0 0 1 15.46 22.12
  Q 15.24 21.97 15.01 21.92
  Q 14.62 21.83 14.56 21.43
  Q 14.11 18.11 12.67 17.35
  C 12.43 14.07 16.11 11.94 19.00 10.70
  L 21.83 9.81
  Z" fill="#b8e6fc"></path>
<circle r="0.91" cy="14.80" cx="9.56" fill="#dea4a0"></circle>
<path d="M 31.00 15.39
  Q 33.63 18.17 32.44 20.73
  L 30.16 16.44
  Q 29.89 15.94 29.37 16.15
  Q 29.08 16.27 28.78 16.54
  Q 28.88 15.31 31.00 15.39
  Z" fill="#dea4a0"></path>
<path d="M 32.44 20.73
  L 32.93 22.00
  Q 32.85 22.53 32.68 22.62
  A 1.38 1.28 63.7 0 1 30.92 21.95
  L 29.32 18.74
  L 28.78 16.54
  Q 29.08 16.27 29.37 16.15
  Q 29.89 15.94 30.16 16.44
  L 32.44 20.73
  Z" fill="#454c63"></path>
<path d="M 38.75 18.91
  A 0.82 0.03 58.3 0 1 38.34 18.29
  Q 38.00 17.72 39.15 17.57
  Q 39.81 17.48 40.04 17.90
  Q 40.28 18.36 39.93 18.74
  Q 39.34 19.40 38.75 18.91
  Z" fill="#add3d3"></path>
<path d="M 29.32 18.74
  L 30.92 21.95
  A 1.38 1.28 63.7 0 0 32.68 22.62
  Q 32.85 22.53 32.93 22.00
  Q 34.80 23.74 34.66 27.22
  C 31.03 27.82 29.02 23.20 28.11 20.28
  Q 28.95 19.64 29.32 18.74
  Z" fill="#fcb3b4"></path>
<path d="M 0.00 19.08
  L 12.44 19.70
  Q 12.42 23.23 12.35 25.50
  Q 12.27 27.97 15.27 27.64
  L 12.86 27.84
  Q 12.38 27.88 12.02 27.57
  Q 11.60 27.20 11.25 27.51
  Q 10.90 27.81 10.43 27.82
  L 0.00 28.07
  L 0.00 19.08
  Z
  M 4.16 23.41
  Q 4.43 24.26 5.45 23.98
  Q 5.98 23.84 6.01 23.29
  Q 6.02 23.11 6.01 22.93
  Q 5.97 22.37 5.41 22.30
  Q 4.57 22.20 4.21 22.83
  Q 4.06 23.11 4.16 23.41
  Z" fill="#525d7f"></path>
<path d="M 28.11 20.28
  C 29.02 23.20 31.03 27.82 34.66 27.22
  Q 35.66 27.59 36.80 26.72
  C 38.74 30.72 34.96 31.45 32.18 32.50
  L 26.75 27.85
  A 1.32 1.28 63.3 0 0 25.86 27.54
  L 21.04 27.64
  L 19.47 27.76
  Q 18.95 27.75 18.48 27.50
  L 18.62 26.76
  Q 18.69 26.33 19.03 26.04
  L 24.26 21.48
  A 0.82 0.81 22.6 0 1 24.78 21.27
  Q 26.77 21.18 28.11 20.28
  Z" fill="#d4bbf5"></path>
<path d="M 48.00 21.44
  L 48.00 38.00
  C 47.61 43.00 43.75 47.72 38.51 47.80
  C 36.10 43.42 34.32 37.23 28.05 37.56
  Q 25.58 37.27 24.07 37.91
  A 0.74 0.74 0.0 0 1 23.06 37.06
  L 23.79 34.00
  Q 24.56 32.51 24.31 30.90
  A 1.13 1.12 -78.3 0 0 23.82 30.14
  Q 22.45 29.21 21.72 27.79
  C 24.80 26.88 27.46 31.18 28.90 32.37
  Q 30.43 33.63 32.18 32.50
  C 34.96 31.45 38.74 30.72 36.80 26.72
  L 35.93 22.85
  Q 37.00 20.29 38.60 21.17
  A 1.49 1.44 58.5 0 0 39.30 21.35
  L 48.00 21.44
  Z
  M 44.30 26.13
  A 0.95 0.95 0.0 0 0 43.35 25.18
  A 0.95 0.95 0.0 0 0 42.40 26.13
  A 0.95 0.95 0.0 0 0 43.35 27.08
  A 0.95 0.95 0.0 0 0 44.30 26.13
  Z" fill="#454c63"></path>
<path d="M 4.16 23.41
  Q 4.06 23.11 4.21 22.83
  Q 4.57 22.20 5.41 22.30
  Q 5.97 22.37 6.01 22.93
  Q 6.02 23.11 6.01 23.29
  Q 5.98 23.84 5.45 23.98
  Q 4.43 24.26 4.16 23.41
  Z" fill="#add3d3"></path>
<circle r="0.95" cy="26.13" cx="43.35" fill="#dea4a0"></circle>
<path d="M 15.27 27.64
  L 18.48 27.50
  Q 18.95 27.75 19.47 27.76
  L 18.96 28.77
  L 17.84 32.10
  L 15.44 37.79
  Q 12.97 38.22 11.75 40.47
  L 7.77 47.69
  Q 0.83 45.31 0.00 38.11
  L 0.00 28.07
  L 10.43 27.82
  Q 10.90 27.81 11.25 27.51
  Q 11.60 27.20 12.02 27.57
  Q 12.38 27.88 12.86 27.84
  L 15.27 27.64
  Z
  M 6.53 36.33
  A 1.40 1.40 0.0 0 0 5.13 34.93
  A 1.40 1.40 0.0 0 0 3.73 36.33
  A 1.40 1.40 0.0 0 0 5.13 37.73
  A 1.40 1.40 0.0 0 0 6.53 36.33
  Z" fill="#454c63"></path>
<path d="M 32.18 32.50
  Q 30.43 33.63 28.90 32.37
  C 27.46 31.18 24.80 26.88 21.72 27.79
  Q 21.37 27.61 21.04 27.64
  L 25.86 27.54
  A 1.32 1.28 63.3 0 1 26.75 27.85
  L 32.18 32.50
  Z" fill="#9f86c3"></path>
<path d="M 19.47 27.76
  L 21.04 27.64
  Q 21.37 27.61 21.72 27.79
  Q 22.45 29.21 23.82 30.14
  A 1.13 1.12 -78.3 0 1 24.31 30.90
  Q 24.56 32.51 23.79 34.00
  Q 21.27 31.84 19.78 29.15
  A 0.71 0.68 78.4 0 0 19.29 28.81
  Q 19.14 28.79 18.96 28.77
  L 19.47 27.76
  Z" fill="#a37880"></path>
<path d="M 18.96 28.77
  Q 19.14 28.79 19.29 28.81
  A 0.71 0.68 78.4 0 1 19.78 29.15
  Q 21.27 31.84 23.79 34.00
  L 23.06 37.06
  A 0.74 0.74 0.0 0 0 24.07 37.91
  Q 25.58 37.27 28.05 37.56
  Q 26.84 39.03 24.52 39.50
  Q 22.54 39.90 22.29 38.98
  Q 21.06 35.19 17.84 32.10
  L 18.96 28.77
  Z" fill="#dea4a0"></path>
<path d="M 17.84 32.10
  Q 21.06 35.19 22.29 38.98
  L 18.79 37.77
  Q 18.32 37.60 17.81 37.63
  L 15.44 37.79
  L 17.84 32.10
  Z" fill="#add3d3"></path>
<circle r="1.40" cy="36.33" cx="5.13" fill="#a1b5eb"></circle>
<path d="M 22.29 38.98
  Q 22.54 39.90 24.52 39.50
  Q 26.84 39.03 28.05 37.56
  C 34.32 37.23 36.10 43.42 38.51 47.80
  Q 38.46 47.90 38.41 48.00
  L 35.07 48.00
  Q 32.64 45.80 30.34 43.68
  Q 28.59 42.06 26.28 43.44
  Q 25.85 43.70 25.45 43.41
  L 22.65 41.43
  Q 22.29 41.17 21.84 41.09
  L 19.81 40.74
  Q 16.50 38.64 14.08 41.25
  L 12.71 41.64
  Q 12.24 41.77 12.00 41.35
  Q 11.81 41.02 11.75 40.47
  Q 12.97 38.22 15.44 37.79
  L 17.81 37.63
  Q 18.32 37.60 18.79 37.77
  L 22.29 38.98
  Z" fill="#f2ebd7"></path>
<path d="M 19.81 40.74
  Q 20.21 41.46 20.60 41.67
  L 24.22 48.00
  L 9.37 48.00
  Q 9.53 47.75 9.85 47.67
  Q 10.30 47.55 10.54 47.16
  L 14.08 41.25
  Q 16.50 38.64 19.81 40.74
  Z" fill="#373843"></path>
<path d="M 11.75 40.47
  Q 11.81 41.02 12.00 41.35
  Q 12.24 41.77 12.71 41.64
  L 14.08 41.25
  L 10.54 47.16
  Q 10.30 47.55 9.85 47.67
  Q 9.53 47.75 9.37 48.00
  L 9.03 48.00
  Q 8.46 47.63 7.77 47.69
  L 11.75 40.47
  Z" fill="#a3bac8"></path>
<path d="M 19.81 40.74
  L 21.84 41.09
  Q 22.29 41.17 22.65 41.43
  L 25.45 43.41
  Q 25.85 43.70 26.28 43.44
  Q 28.59 42.06 30.34 43.68
  Q 32.64 45.80 35.07 48.00
  L 27.02 48.00
  C 25.98 46.03 25.21 44.50 23.19 43.28
  Q 21.94 42.52 20.60 41.67
  Q 20.21 41.46 19.81 40.74
  Z" fill="#dcb9c3"></path>
<path d="M 20.60 41.67
  Q 21.94 42.52 23.19 43.28
  C 25.21 44.50 25.98 46.03 27.02 48.00
  L 24.22 48.00
  L 20.60 41.67
  Z" fill="#9f97a5"></path>
</svg>
