<svg viewBox="0.00 0.00 16.00 16.00" version="1.1" xmlns="http://www.w3.org/2000/svg">
<g stroke-linecap="butt" fill="none" stroke-width="2.00">
<path d="M 7.70 6.35
  Q 7.47 6.44 7.26 6.23" stroke="#c2c3c3"></path>
<path d="M 7.26 6.23
  Q 7.45 5.66 7.28 5.45
  A 1.56 1.43 50.8 0 0 5.15 5.14
  L 2.56 7.35
  Q 2.15 7.70 2.54 8.07
  Q 3.18 8.67 3.87 8.72" stroke="#808080"></path>
<path d="M 3.87 8.72
  Q 4.10 9.00 4.21 9.02" stroke="#c2c3c3"></path>
<path d="M 4.21 9.02
  Q 4.12 9.76 5.01 10.05
  Q 6.90 10.66 7.81 11.06
  Q 8.21 11.24 8.62 11.10
  Q 11.40 10.19 13.43 8.05
  Q 13.79 7.66 13.45 7.26
  Q 12.65 6.34 11.23 6.73" stroke="#808080"></path>
<path d="M 11.23 6.73
  Q 11.33 6.59 11.42 6.46" stroke="#c2c3c3"></path>
<path d="M 11.42 6.46
  Q 11.37 3.32 7.70 6.35" stroke="#808080"></path>
<path d="M 11.42 6.46
  Q 8.84 7.79 7.37 9.45
  Q 6.74 10.15 7.61 9.80
  Q 9.80 8.91 11.23 6.73" stroke="#424344"></path>
<path d="M 4.21 9.02
  Q 6.33 8.23 7.70 6.35" stroke="#424344"></path>
<path d="M 7.26 6.23
  L 3.87 8.72" stroke="#424344"></path>
</g>
<path d="M 0.00 0.00
  L 16.00 0.00
  L 16.00 16.00
  L 0.00 16.00
  L 0.00 0.00
  Z
  M 7.70 6.35
  Q 7.47 6.44 7.26 6.23
  Q 7.45 5.66 7.28 5.45
  A 1.56 1.43 50.8 0 0 5.15 5.14
  L 2.56 7.35
  Q 2.15 7.70 2.54 8.07
  Q 3.18 8.67 3.87 8.72
  Q 4.10 9.00 4.21 9.02
  Q 4.12 9.76 5.01 10.05
  Q 6.90 10.66 7.81 11.06
  Q 8.21 11.24 8.62 11.10
  Q 11.40 10.19 13.43 8.05
  Q 13.79 7.66 13.45 7.26
  Q 12.65 6.34 11.23 6.73
  Q 11.33 6.59 11.42 6.46
  Q 11.37 3.32 7.70 6.35
  Z" fill="#ffffff"></path>
<path d="M 11.42 6.46
  Q 8.84 7.79 7.37 9.45
  Q 6.74 10.15 7.61 9.80
  Q 9.80 8.91 11.23 6.73
  Q 12.65 6.34 13.45 7.26
  Q 13.79 7.66 13.43 8.05
  Q 11.40 10.19 8.62 11.10
  Q 8.21 11.24 7.81 11.06
  Q 6.90 10.66 5.01 10.05
  Q 4.12 9.76 4.21 9.02
  Q 6.33 8.23 7.70 6.35
  Q 11.37 3.32 11.42 6.46
  Z" fill="#000000"></path>
<path d="M 7.26 6.23
  L 3.87 8.72
  Q 3.18 8.67 2.54 8.07
  Q 2.15 7.70 2.56 7.35
  L 5.15 5.14
  A 1.56 1.43 50.8 0 1 7.28 5.45
  Q 7.45 5.66 7.26 6.23
  Z" fill="#000000"></path>
<path d="M 7.26 6.23
  Q 7.47 6.44 7.70 6.35
  Q 6.33 8.23 4.21 9.02
  Q 4.10 9.00 3.87 8.72
  L 7.26 6.23
  Z" fill="#848687"></path>
<path d="M 11.42 6.46
  Q 11.33 6.59 11.23 6.73
  Q 9.80 8.91 7.61 9.80
  Q 6.74 10.15 7.37 9.45
  Q 8.84 7.79 11.42 6.46
  Z" fill="#848687"></path>
</svg>
