<svg viewBox="0.00 0.00 256.00 256.00" version="1.1" xmlns="http://www.w3.org/2000/svg">
<g stroke-linecap="butt" fill="none" stroke-width="2.00">
<path d="M 211.93 4.23
  L 211.64 5.92
  A 0.56 0.56 0.0 0 1 210.81 6.32
  Q 210.44 6.11 209.98 6.30
  Q 209.41 6.53 209.23 6.70
  Q 208.85 7.04 208.22 6.85
  A 0.78 0.77 -62.9 0 0 207.37 7.13
  Q 206.49 8.30 204.93 7.82
  A 0.76 0.75 -72.4 0 0 203.98 8.32
  Q 203.73 9.16 202.79 8.87
  A 0.63 0.63 0.0 0 0 202.04 9.19
  Q 201.27 10.70 199.69 10.98
  Q 199.23 11.06 198.98 11.45
  Q 198.53 12.16 197.50 11.89
  Q 195.74 11.43 194.76 12.51
  Q 194.46 12.84 194.02 12.86
  L 192.34 12.93
  Q 191.88 12.95 191.88 13.41
  L 191.88 14.50
  A 0.47 0.47 0.0 0 1 191.27 14.95
  Q 189.71 14.44 188.83 15.56
  Q 188.55 15.93 188.08 15.86
  Q 187.26 15.73 186.94 16.43
  A 0.92 0.92 0.0 0 1 185.90 16.93
  Q 183.56 16.39 183.88 18.50
  A 0.42 0.42 0.0 0 1 183.34 18.96
  Q 181.72 18.44 180.73 19.59
  Q 180.46 19.90 180.05 19.86
  Q 179.30 19.77 178.81 20.47
  Q 178.52 20.88 178.01 20.88
  L 175.80 20.88
  Q 175.35 20.88 175.08 21.24
  Q 174.50 22.02 173.63 22.57
  Q 173.22 22.83 172.73 22.86
  Q 172.15 22.89 171.91 23.45
  Q 171.72 23.88 171.25 23.88
  L 169.69 23.88
  A 0.82 0.80 -81.1 0 0 168.92 24.45
  Q 168.72 25.06 168.05 24.89
  A 0.83 0.81 -59.8 0 0 167.28 25.10
  L 165.83 26.52
  Q 165.44 26.90 164.89 26.86
  Q 164.19 26.81 163.91 27.45
  Q 163.72 27.88 163.25 27.88
  L 161.69 27.88
  A 0.82 0.80 -81.1 0 0 160.92 28.45
  Q 160.72 29.06 160.05 28.89
  A 0.83 0.81 -59.8 0 0 159.28 29.10
  L 157.83 30.52
  Q 157.42 30.91 156.85 30.87
  Q 156.25 30.82 155.98 31.31
  Q 155.65 31.88 154.99 31.88
  L 152.69 31.88
  A 0.81 0.81 0.0 0 0 151.92 32.44
  Q 151.72 33.06 151.06 32.89
  A 0.88 0.88 0.0 0 0 150.22 33.13
  L 148.79 34.60
  Q 148.45 34.95 147.97 34.88
  Q 147.20 34.78 146.91 35.45
  Q 146.72 35.88 146.25 35.88
  L 144.69 35.88
  A 0.82 0.80 -81.1 0 0 143.92 36.45
  Q 143.72 37.06 143.05 36.89
  A 0.83 0.81 -59.8 0 0 142.28 37.10
  L 140.84 38.50
  Q 140.46 38.87 139.93 38.85
  Q 139.13 38.82 138.90 39.49
  A 0.69 0.69 0.0 0 1 138.05 39.93
  Q 136.66 39.51 135.83 40.50
  Q 135.51 40.88 135.02 40.88
  L 132.75 40.88
  A 0.87 0.87 0.0 0 0 131.88 41.75
  L 131.88 42.50
  A 0.47 0.46 9.1 0 1 131.27 42.94
  Q 129.71 42.44 128.83 43.56
  Q 128.55 43.93 128.08 43.86
  Q 127.26 43.73 126.94 44.43
  A 0.92 0.92 0.0 0 1 125.90 44.93
  Q 123.56 44.39 123.88 46.50
  A 0.42 0.42 0.0 0 1 123.34 46.96
  Q 121.70 46.44 120.71 47.61
  Q 120.45 47.93 120.04 47.87
  Q 119.24 47.75 118.91 48.44
  A 0.95 0.94 -70.4 0 1 117.85 48.95
  Q 115.56 48.41 115.88 50.50
  A 0.42 0.42 0.0 0 1 115.34 50.96
  Q 113.74 50.45 112.76 51.56
  Q 112.47 51.88 112.03 51.88
  L 109.53 51.88
  Q 109.10 51.88 108.99 52.30
  Q 108.79 53.06 108.06 52.89
  A 0.90 0.90 0.0 0 0 107.22 53.14
  L 105.79 54.60
  Q 105.45 54.95 104.97 54.88
  Q 104.15 54.77 103.88 55.54
  Q 103.71 56.02 103.22 55.90
  Q 102.02 55.62 101.12 56.33
  Q 100.80 56.59 100.41 56.72
  Q 98.83 57.27 97.79 58.60
  Q 97.53 58.93 97.12 58.87
  Q 96.24 58.73 95.90 59.46
  Q 95.71 59.88 95.25 59.88
  L 92.99 59.88
  A 1.00 1.00 0.0 0 0 92.13 60.37
  Q 91.80 60.93 91.15 60.90
  A 1.13 1.09 -62.0 0 0 90.41 61.14
  L 88.78 62.49
  Q 88.35 62.85 87.78 62.86
  Q 87.11 62.86 86.88 63.55
  Q 86.71 64.04 86.20 63.91
  Q 84.78 63.55 83.92 64.57
  Q 83.66 64.88 83.25 64.88
  L 82.78 64.88
  A 0.68 0.67 -67.2 0 0 82.30 65.08
  L 80.83 66.51
  Q 80.46 66.87 79.94 66.85
  Q 79.13 66.82 78.90 67.49
  A 0.69 0.69 0.0 0 1 78.05 67.93
  Q 76.66 67.51 75.83 68.51
  Q 75.53 68.87 75.05 68.88
  Q 74.09 68.89 73.19 68.89
  Q 72.70 68.89 72.36 69.08
  Q 71.71 69.43 71.77 69.76
  A 1.80 1.80 0.0 0 1 70.00 71.88
  L 67.78 71.88
  A 0.90 0.89 13.8 0 0 66.99 72.35
  Q 66.51 73.23 65.35 72.86
  A 1.17 1.17 0.0 0 0 63.85 74.18
  Q 63.88 74.34 63.88 74.51
  A 0.45 0.44 -81.8 0 1 63.31 74.94
  Q 61.79 74.50 60.89 75.61
  Q 60.60 75.97 60.15 75.88
  Q 59.19 75.70 58.87 76.55
  Q 58.69 77.02 58.21 76.90
  Q 57.13 76.64 56.30 77.21
  Q 55.88 77.49 55.88 78.00
  L 55.88 78.49
  A 0.46 0.45 -81.9 0 1 55.30 78.93
  Q 53.79 78.51 52.89 79.61
  Q 52.60 79.96 52.16 79.88
  Q 51.17 79.69 50.86 80.60
  Q 50.69 81.07 50.20 80.95
  Q 47.55 80.28 46.16 82.40
  A 1.07 1.07 0.0 0 1 45.23 82.88
  Q 44.36 82.86 43.91 83.63
  A 0.72 0.71 23.2 0 1 43.10 83.95
  Q 41.82 83.58 41.04 84.44
  Q 40.73 84.77 40.30 84.87
  Q 38.84 85.19 38.05 86.56
  A 0.72 0.71 -68.0 0 1 37.26 86.90
  Q 36.24 86.65 35.90 87.50
  A 0.75 0.73 -70.2 0 1 35.01 87.93
  Q 33.54 87.48 32.89 88.52
  Q 32.62 88.94 32.14 88.87
  Q 30.08 88.59 28.99 90.45
  Q 28.68 90.97 28.09 90.87
  Q 27.23 90.73 26.91 91.46
  Q 26.72 91.88 26.25 91.88
  L 24.69 91.88
  A 0.81 0.81 0.0 0 0 23.92 92.44
  Q 23.72 93.06 23.06 92.89
  A 0.88 0.88 0.0 0 0 22.22 93.13
  L 20.79 94.60
  Q 20.45 94.95 19.97 94.88
  Q 19.20 94.78 18.91 95.45
  Q 18.73 95.88 18.26 95.88
  L 16.97 95.88
  Q 16.27 95.88 15.92 96.49
  Q 15.56 97.12 14.79 96.87
  A 0.63 0.63 0.0 0 0 14.04 97.19
  Q 13.28 98.70 11.69 98.98
  Q 11.23 99.06 10.98 99.46
  Q 10.53 100.16 9.50 99.89
  Q 7.73 99.43 6.74 100.53
  Q 6.43 100.88 5.96 100.88
  L 4.63 100.88
  A 0.75 0.75 0.0 0 0 3.88 101.63
  L 3.88 102.46
  A 0.46 0.45 3.4 0 1 3.37 102.91
  Q 2.43 102.78 1.57 102.99
  Q 1.09 103.10 0.96 103.57
  Q 0.68 104.55 0.00 105.38" stroke="#356bea"></path>
<path d="M 242.07 26.20
  Q 241.54 26.74 241.97 27.49
  Q 242.34 28.11 241.66 28.37
  Q 241.18 28.55 240.96 29.00
  A 0.86 0.86 0.0 0 1 240.20 29.49
  Q 238.82 29.53 238.09 30.71
  A 0.89 0.89 0.0 0 1 237.20 31.12
  Q 236.57 31.03 236.22 31.49
  Q 235.88 31.93 235.33 32.04
  L 233.75 32.34
  Q 233.25 32.43 232.95 32.83
  Q 232.51 33.39 231.76 33.37
  Q 231.17 33.35 230.86 33.85
  Q 230.22 34.86 229.11 35.14
  Q 228.60 35.26 228.21 35.60
  Q 227.30 36.39 226.06 36.10
  Q 225.55 35.98 225.28 36.43
  Q 224.88 37.11 224.06 37.17
  Q 223.54 37.20 223.16 37.55
  L 221.80 38.81
  Q 221.45 39.12 220.99 39.12
  L 220.06 39.12
  Q 219.56 39.12 219.21 39.48
  Q 218.19 40.53 216.71 40.06
  A 0.45 0.45 0.0 0 0 216.13 40.40
  Q 215.97 41.18 215.05 41.16
  Q 214.53 41.14 214.16 41.50
  L 212.72 42.90
  A 0.81 0.78 -59.5 0 1 211.95 43.11
  Q 211.30 42.95 211.10 43.52
  Q 210.88 44.12 210.25 44.12
  L 208.73 44.12
  Q 208.27 44.12 208.09 44.55
  Q 207.83 45.20 207.07 45.13
  A 0.87 0.87 0.0 0 0 206.37 45.38
  L 204.89 46.85
  Q 204.59 47.16 204.16 47.11
  Q 203.47 47.03 203.12 47.64
  A 0.96 0.95 14.8 0 1 202.32 48.10
  L 200.04 48.15
  A 1.17 1.14 -67.7 0 0 199.25 48.49
  L 196.94 50.80
  Q 196.62 51.12 196.17 51.12
  L 193.97 51.12
  A 0.91 0.89 -72.9 0 0 193.22 51.53
  Q 192.79 52.17 192.03 52.13
  Q 191.58 52.10 191.30 52.45
  Q 190.53 53.41 189.27 53.10
  Q 188.37 52.89 188.22 53.80
  Q 187.95 55.37 186.74 55.12
  Q 185.65 54.90 185.04 55.67
  Q 184.83 55.95 184.65 56.02
  Q 184.38 56.14 184.08 56.15
  Q 183.61 56.17 183.28 56.51
  C 182.25 57.62 181.61 56.75 180.57 57.19
  Q 179.98 57.44 180.11 58.13
  A 0.92 0.92 0.0 0 1 178.96 59.18
  Q 177.13 58.67 175.87 59.79
  Q 175.49 60.12 174.99 60.12
  L 173.97 60.12
  Q 173.43 60.12 173.14 60.57
  Q 172.74 61.19 172.12 61.15
  Q 171.57 61.10 171.17 61.49
  L 169.72 62.91
  A 0.81 0.80 -59.3 0 1 168.95 63.11
  Q 168.30 62.95 168.10 63.52
  Q 167.88 64.12 167.25 64.12
  L 165.74 64.12
  Q 165.28 64.12 165.09 64.55
  Q 164.81 65.22 164.02 65.12
  Q 163.54 65.06 163.21 65.41
  L 161.77 66.88
  A 0.91 0.90 -61.1 0 1 160.91 67.13
  Q 159.62 66.82 158.91 67.84
  A 0.79 0.78 -65.0 0 1 158.04 68.16
  Q 156.86 67.82 156.14 68.58
  Q 155.87 68.85 155.50 68.94
  Q 154.04 69.28 152.98 70.75
  Q 152.71 71.13 152.15 71.13
  Q 151.64 71.13 151.28 71.50
  Q 150.38 72.43 149.06 72.10
  A 0.69 0.69 0.0 0 0 148.28 72.43
  Q 147.85 73.18 147.03 73.12
  Q 146.59 73.10 146.30 73.44
  Q 144.17 75.94 140.89 76.17
  Q 140.39 76.21 140.10 76.63
  Q 139.70 77.22 139.07 77.13
  Q 138.57 77.05 138.28 77.46
  Q 137.77 78.21 137.96 78.98
  Q 138.07 79.40 137.65 79.52
  L 133.83 80.54
  Q 133.42 80.65 133.49 81.06
  L 133.62 81.78" stroke="#2a60e0"></path>
<path d="M 133.62 81.78
  L 132.13 82.51" stroke="#98b3f2"></path>
<path d="M 132.13 82.51
  Q 132.26 81.36 131.92 80.86
  Q 131.45 80.17 131.24 80.97
  Q 131.07 81.59 130.54 81.86
  Q 130.02 82.13 129.67 81.67
  Q 129.29 81.16 128.63 81.43
  Q 128.38 81.53 128.31 81.79
  Q 127.94 83.07 128.16 84.53
  A 0.65 0.64 87.8 0 1 127.48 85.27
  Q 126.87 85.22 126.31 84.76
  Q 126.00 84.51 126.29 84.22
  L 126.72 83.79
  Q 127.23 83.28 126.51 83.35
  Q 125.66 83.44 125.15 84.10
  A 0.80 0.80 0.0 0 1 124.29 84.39
  Q 123.41 84.15 122.93 84.80
  Q 122.57 85.29 122.04 85.00
  L 121.38 84.65
  Q 120.89 84.38 121.10 83.86
  Q 121.26 83.45 121.00 83.24
  Q 120.71 83.01 120.57 83.36
  Q 120.38 83.81 119.68 83.95" stroke="#2a60e0"></path>
<path d="M 119.68 83.95
  Q 118.93 77.94 113.75 76.25
  C 107.56 74.25 104.28 77.92 101.53 83.27
  Q 97.41 91.29 93.23 99.35" stroke="#98b3f2"></path>
<path d="M 93.23 99.35
  Q 92.13 97.09 90.80 100.88
  Q 90.61 101.43 90.13 101.11
  L 88.92 100.34
  Q 88.32 99.96 88.10 100.63
  Q 87.79 101.55 86.77 101.36
  A 0.78 0.77 -68.7 0 0 85.98 101.71
  Q 85.28 102.83 84.04 103.16
  Q 83.57 103.29 83.20 103.60
  Q 82.35 104.32 81.23 104.39
  Q 80.75 104.42 80.37 104.71
  C 79.32 105.51 77.78 105.70 76.99 106.87
  Q 76.69 107.30 76.18 107.36
  Q 75.18 107.47 74.22 107.94
  Q 74.02 108.04 74.17 108.20
  Q 74.31 108.35 74.59 108.43
  Q 75.09 108.56 74.59 108.73
  L 73.75 109.01" stroke="#2a60e0"></path>
<path d="M 73.75 109.01
  Q 64.14 101.11 51.98 98.36
  C 43.01 96.33 37.37 107.15 44.13 113.04
  C 46.93 115.48 52.71 116.30 56.52 118.17" stroke="#98b3f2"></path>
<path d="M 56.52 118.17
  L 55.82 118.92
  Q 55.51 119.24 55.23 118.89
  Q 54.83 118.39 54.18 118.11
  Q 54.02 118.04 53.94 118.20
  Q 53.86 118.37 53.88 118.57
  A 0.27 0.27 0.0 0 1 53.39 118.74
  Q 52.95 118.02 52.28 117.47
  Q 51.88 117.14 51.66 117.61
  Q 51.48 117.99 51.06 118.09
  Q 50.69 118.18 50.48 118.50
  Q 49.95 119.31 48.93 119.10
  A 0.68 0.67 -68.4 0 0 48.20 119.42
  Q 47.56 120.49 46.19 120.07
  A 0.77 0.77 0.0 0 0 45.33 120.39
  Q 44.83 121.19 43.94 121.14
  A 0.99 0.98 17.4 0 0 43.03 121.61
  Q 42.16 123.03 40.63 123.48
  Q 40.23 123.59 39.92 123.88
  Q 39.14 124.60 38.07 124.37
  Q 37.58 124.27 37.20 124.60
  C 36.46 125.23 35.51 125.30 34.89 125.77
  Q 34.28 126.24 33.74 126.80
  Q 33.42 127.12 32.97 127.12
  L 32.51 127.12
  Q 32.17 127.12 32.16 127.46
  Q 32.14 127.99 31.51 128.00
  Q 30.20 128.03 28.88 128.16
  Q 28.40 128.20 28.12 128.61
  Q 27.72 129.19 27.11 129.15
  Q 26.57 129.10 26.17 129.49
  L 24.72 130.91
  A 0.81 0.80 -59.3 0 1 23.95 131.11
  Q 23.30 130.95 23.10 131.52
  Q 22.88 132.12 22.25 132.12
  L 20.74 132.12
  Q 20.28 132.12 20.09 132.55
  Q 19.86 133.10 19.29 133.13
  Q 18.80 133.16 18.39 133.42
  Q 17.48 133.99 16.88 134.82
  Q 16.57 135.25 16.05 135.13
  Q 15.25 134.95 15.05 135.57
  Q 14.86 136.12 14.28 136.12
  L 12.07 136.12
  Q 11.61 136.12 11.28 136.44
  Q 10.13 137.55 8.48 137.05
  A 0.30 0.30 0.0 0 0 8.10 137.39
  Q 8.49 139.50 6.34 139.13
  A 1.25 1.24 23.2 0 0 5.11 139.62
  Q 4.60 140.31 3.79 140.12
  Q 3.47 140.04 3.32 140.33
  Q 3.02 140.89 2.44 141.15
  A 0.34 0.34 0.0 0 1 2.00 140.98
  L 1.76 140.47
  Q 1.56 140.04 1.09 140.12
  Q 0.52 140.23 0.00 140.76" stroke="#2a60e0"></path>
<path d="M 256.00 99.37
  L 255.76 100.47
  Q 255.75 100.52 255.71 100.51
  L 255.40 100.41
  Q 255.06 100.30 255.27 100.60
  Q 256.10 101.79 255.00 102.76
  Q 254.77 102.96 254.39 103.01
  Q 254.13 103.05 253.88 103.10
  Q 253.39 103.18 253.12 103.59
  Q 252.73 104.18 252.13 104.13
  Q 251.59 104.08 251.22 104.47
  Q 250.20 105.53 248.71 105.05
  A 0.37 0.36 -76.7 0 0 248.25 105.34
  Q 247.93 107.34 246.76 107.05
  Q 245.46 106.74 244.91 107.71
  Q 244.69 108.12 244.22 108.12
  L 241.74 108.12
  Q 241.27 108.12 241.09 108.54
  Q 240.82 109.18 240.11 109.14
  Q 239.56 109.10 239.17 109.49
  L 237.72 110.90
  A 0.83 0.81 -59.8 0 1 236.95 111.11
  Q 236.30 110.94 236.09 111.52
  Q 235.88 112.12 235.25 112.12
  L 233.74 112.12
  Q 233.27 112.12 233.09 112.55
  Q 232.80 113.22 232.03 113.12
  Q 231.54 113.05 231.20 113.40
  L 229.78 114.87
  A 0.87 0.86 29.4 0 1 228.94 115.10
  Q 228.30 114.94 228.09 115.52
  Q 227.88 116.12 227.25 116.12
  L 226.03 116.12
  Q 225.49 116.12 225.14 116.52
  Q 224.37 117.42 223.13 117.12
  Q 222.59 116.99 222.20 117.39
  L 220.73 118.94
  A 0.71 0.71 0.0 0 1 219.99 119.13
  Q 219.31 118.92 219.09 119.52
  Q 218.88 120.12 218.24 120.12
  L 216.74 120.12
  Q 216.27 120.12 216.09 120.55
  Q 215.86 121.10 215.30 121.13
  Q 214.80 121.16 214.39 121.42
  Q 213.50 121.97 212.92 122.76
  Q 212.59 123.21 212.04 123.11
  Q 211.12 122.96 210.91 123.85
  A 0.49 0.49 0.0 0 1 210.28 124.20
  Q 208.65 123.64 207.94 124.72
  Q 207.68 125.12 207.20 125.12
  L 204.63 125.12
  A 0.51 0.50 -0.0 0 0 204.12 125.62
  L 204.12 125.96
  Q 204.12 126.12 204.05 126.26
  Q 202.89 128.74 200.31 128.04
  A 0.90 0.89 26.3 0 0 199.38 128.35
  Q 198.49 129.50 196.99 129.06
  A 0.73 0.73 0.0 0 0 196.09 129.98
  Q 196.38 130.91 195.25 130.96
  Q 194.56 131.00 193.85 131.15
  Q 193.38 131.25 193.10 131.64
  Q 192.67 132.22 192.04 132.13
  Q 191.58 132.07 191.24 132.38
  Q 189.79 133.68 187.77 133.32
  A 0.14 0.14 0.0 0 0 187.61 133.46
  Q 187.61 133.61 187.61 133.75
  Q 187.61 133.86 187.72 133.78
  Q 187.78 133.73 187.86 133.73
  Q 187.97 133.74 188.06 133.86
  Q 188.22 134.06 188.22 134.28
  Q 188.22 134.80 187.69 134.83
  Q 185.82 134.93 185.70 134.00" stroke="#1b52d2"></path>
<path d="M 185.70 134.00
  Q 199.88 104.55 213.76 75.02
  C 219.09 63.67 203.03 56.50 197.92 67.72
  Q 179.79 107.57 160.20 146.72
  C 150.71 165.70 133.45 182.55 110.87 170.94
  C 103.48 167.13 98.70 160.02 96.02 152.35
  C 89.86 134.73 86.32 120.71 73.75 109.01" stroke="#92aded"></path>
<path d="M 93.23 99.35
  C 90.55 104.33 88.12 108.37 91.82 113.20
  C 96.02 118.67 103.87 117.66 106.94 111.67
  Q 112.95 99.95 118.95 88.23
  Q 119.80 86.57 119.68 83.95" stroke="#92aded"></path>
<path d="M 132.13 82.51
  Q 130.02 84.07 129.27 85.51
  Q 123.62 96.43 118.02 107.38
  Q 116.01 111.32 116.03 113.50
  C 116.07 118.67 120.90 122.92 126.01 122.21
  C 130.94 121.52 132.31 118.31 134.78 113.56
  Q 139.53 104.41 144.44 95.35
  C 148.64 87.58 142.43 79.15 133.62 81.78" stroke="#92aded"></path>
<path d="M 170.9656 99.5127
  A 8.58 8.58 0.0 0 0 167.3168 87.9404
  L 166.8201 87.6818
  A 8.58 8.58 0.0 0 0 155.2477 91.3305
  L 142.9744 114.9073
  A 8.58 8.58 0.0 0 0 146.6232 126.4796
  L 147.1199 126.7382
  A 8.58 8.58 0.0 0 0 158.6923 123.0895
  L 170.9656 99.5127" stroke="#92aded"></path>
<path d="M 185.70 134.00
  Q 183.44 138.68 175.37 154.62
  C 162.41 180.24 138.46 200.67 107.94 188.43
  Q 97.94 184.42 90.34 176.54" stroke="#89a4e4"></path>
<path d="M 90.34 176.54
  Q 83.69 168.23 80.30 159.47
  C 75.07 145.96 72.08 126.14 56.52 118.17" stroke="#92aded"></path>
<path d="M 6.52 217.97
  Q 7.11 218.19 7.20 217.40
  Q 7.22 217.29 7.27 217.35
  L 7.50 217.57
  Q 7.70 217.77 7.89 217.57
  Q 8.57 216.91 9.58 217.07
  Q 10.19 217.17 10.43 217.09
  Q 10.92 216.93 11.17 216.44
  Q 11.37 216.03 11.82 216.12
  Q 12.75 216.29 13.10 215.53
  Q 13.29 215.12 13.75 215.12
  L 15.38 215.12
  A 0.75 0.74 90.0 0 0 16.12 214.37
  L 16.12 213.75
  Q 16.12 213.12 16.75 213.12
  L 19.20 213.12
  Q 19.66 213.12 19.91 212.74
  Q 20.65 211.67 22.07 212.19
  A 0.72 0.72 0.0 0 0 23.01 211.69
  Q 23.21 210.93 23.94 211.11
  A 0.90 0.90 0.0 0 0 24.78 210.86
  L 26.21 209.40
  Q 26.55 209.05 27.03 209.12
  Q 27.80 209.22 28.09 208.55
  Q 28.27 208.12 28.74 208.12
  L 30.03 208.12
  Q 30.73 208.12 31.08 207.51
  Q 31.44 206.88 32.21 207.12
  A 0.63 0.62 22.2 0 0 32.96 206.81
  Q 33.70 205.35 35.21 205.04
  Q 35.67 204.95 35.95 204.56
  Q 36.58 203.66 38.72 204.56
  A 1.00 0.99 14.7 0 0 40.10 203.76
  Q 40.20 202.88 40.93 203.10
  A 0.79 0.77 -57.9 0 0 41.71 202.91
  L 43.17 201.48
  Q 43.56 201.10 44.11 201.14
  Q 44.81 201.18 45.09 200.55
  Q 45.27 200.12 45.75 200.12
  L 47.31 200.12
  A 0.81 0.81 0.0 0 0 48.08 199.56
  Q 48.28 198.94 48.95 199.11
  A 0.83 0.81 -59.8 0 0 49.72 198.90
  L 51.16 197.50
  Q 51.54 197.12 52.07 197.15
  Q 52.87 197.18 53.09 196.51
  A 0.70 0.69 -71.8 0 1 53.95 196.07
  Q 55.32 196.49 56.15 195.51
  Q 56.48 195.12 57.00 195.12
  L 59.50 195.12
  Q 60.12 195.12 60.12 194.50
  L 60.12 193.50
  A 0.50 0.49 -81.1 0 1 60.76 193.02
  Q 62.43 193.57 63.18 192.39
  Q 63.40 192.04 63.82 192.12
  Q 64.75 192.30 65.10 191.52
  Q 65.28 191.12 65.73 191.12
  L 67.50 191.12
  Q 68.12 191.12 68.12 190.50
  L 68.12 189.50
  A 0.47 0.46 -81.0 0 1 68.73 189.05
  Q 70.29 189.56 71.16 188.44
  Q 71.45 188.07 71.92 188.14
  Q 72.76 188.26 73.09 187.54
  Q 73.28 187.15 73.71 187.14
  L 75.66 187.07
  A 0.54 0.54 0.0 0 0 76.16 186.35
  Q 75.94 185.72 76.38 185.32
  Q 76.82 184.92 77.40 185.07
  Q 79.10 185.50 80.35 184.41
  Q 80.75 184.06 81.26 184.14
  Q 82.66 184.36 83.43 183.31
  Q 83.57 183.12 83.82 183.12
  L 84.19 183.12
  Q 84.53 183.12 84.78 182.87
  L 86.22 181.39
  Q 86.56 181.04 87.03 181.12
  Q 87.84 181.24 88.11 180.48
  Q 88.28 180.01 88.77 180.11
  Q 89.43 180.25 89.86 179.87
  Q 90.27 179.51 90.04 179.03
  Q 88.19 175.15 90.34 176.54" stroke="#1b52d2"></path>
</g>
<path d="M 90.12 0.00
  L 94.23 0.00
  Q 96.57 0.42 98.89 0.00
  L 111.48 0.00
  Q 113.69 0.44 115.90 0.00
  L 116.48 0.00
  L 122.88 0.00
  L 157.24 0.00
  L 170.89 0.00
  L 182.25 0.00
  Q 184.10 0.12 191.50 0.25
  Q 201.19 0.42 211.93 4.23
  L 211.64 5.92
  A 0.56 0.56 0.0 0 1 210.81 6.32
  Q 210.44 6.11 209.98 6.30
  Q 209.41 6.53 209.23 6.70
  Q 208.85 7.04 208.22 6.85
  A 0.78 0.77 -62.9 0 0 207.37 7.13
  Q 206.49 8.30 204.93 7.82
  A 0.76 0.75 -72.4 0 0 203.98 8.32
  Q 203.73 9.16 202.79 8.87
  A 0.63 0.63 0.0 0 0 202.04 9.19
  Q 201.27 10.70 199.69 10.98
  Q 199.23 11.06 198.98 11.45
  Q 198.53 12.16 197.50 11.89
  Q 195.74 11.43 194.76 12.51
  Q 194.46 12.84 194.02 12.86
  L 192.34 12.93
  Q 191.88 12.95 191.88 13.41
  L 191.88 14.50
  A 0.47 0.47 0.0 0 1 191.27 14.95
  Q 189.71 14.44 188.83 15.56
  Q 188.55 15.93 188.08 15.86
  Q 187.26 15.73 186.94 16.43
  A 0.92 0.92 0.0 0 1 185.90 16.93
  Q 183.56 16.39 183.88 18.50
  A 0.42 0.42 0.0 0 1 183.34 18.96
  Q 181.72 18.44 180.73 19.59
  Q 180.46 19.90 180.05 19.86
  Q 179.30 19.77 178.81 20.47
  Q 178.52 20.88 178.01 20.88
  L 175.80 20.88
  Q 175.35 20.88 175.08 21.24
  Q 174.50 22.02 173.63 22.57
  Q 173.22 22.83 172.73 22.86
  Q 172.15 22.89 171.91 23.45
  Q 171.72 23.88 171.25 23.88
  L 169.69 23.88
  A 0.82 0.80 -81.1 0 0 168.92 24.45
  Q 168.72 25.06 168.05 24.89
  A 0.83 0.81 -59.8 0 0 167.28 25.10
  L 165.83 26.52
  Q 165.44 26.90 164.89 26.86
  Q 164.19 26.81 163.91 27.45
  Q 163.72 27.88 163.25 27.88
  L 161.69 27.88
  A 0.82 0.80 -81.1 0 0 160.92 28.45
  Q 160.72 29.06 160.05 28.89
  A 0.83 0.81 -59.8 0 0 159.28 29.10
  L 157.83 30.52
  Q 157.42 30.91 156.85 30.87
  Q 156.25 30.82 155.98 31.31
  Q 155.65 31.88 154.99 31.88
  L 152.69 31.88
  A 0.81 0.81 0.0 0 0 151.92 32.44
  Q 151.72 33.06 151.06 32.89
  A 0.88 0.88 0.0 0 0 150.22 33.13
  L 148.79 34.60
  Q 148.45 34.95 147.97 34.88
  Q 147.20 34.78 146.91 35.45
  Q 146.72 35.88 146.25 35.88
  L 144.69 35.88
  A 0.82 0.80 -81.1 0 0 143.92 36.45
  Q 143.72 37.06 143.05 36.89
  A 0.83 0.81 -59.8 0 0 142.28 37.10
  L 140.84 38.50
  Q 140.46 38.87 139.93 38.85
  Q 139.13 38.82 138.90 39.49
  A 0.69 0.69 0.0 0 1 138.05 39.93
  Q 136.66 39.51 135.83 40.50
  Q 135.51 40.88 135.02 40.88
  L 132.75 40.88
  A 0.87 0.87 0.0 0 0 131.88 41.75
  L 131.88 42.50
  A 0.47 0.46 9.1 0 1 131.27 42.94
  Q 129.71 42.44 128.83 43.56
  Q 128.55 43.93 128.08 43.86
  Q 127.26 43.73 126.94 44.43
  A 0.92 0.92 0.0 0 1 125.90 44.93
  Q 123.56 44.39 123.88 46.50
  A 0.42 0.42 0.0 0 1 123.34 46.96
  Q 121.70 46.44 120.71 47.61
  Q 120.45 47.93 120.04 47.87
  Q 119.24 47.75 118.91 48.44
  A 0.95 0.94 -70.4 0 1 117.85 48.95
  Q 115.56 48.41 115.88 50.50
  A 0.42 0.42 0.0 0 1 115.34 50.96
  Q 113.74 50.45 112.76 51.56
  Q 112.47 51.88 112.03 51.88
  L 109.53 51.88
  Q 109.10 51.88 108.99 52.30
  Q 108.79 53.06 108.06 52.89
  A 0.90 0.90 0.0 0 0 107.22 53.14
  L 105.79 54.60
  Q 105.45 54.95 104.97 54.88
  Q 104.15 54.77 103.88 55.54
  Q 103.71 56.02 103.22 55.90
  Q 102.02 55.62 101.12 56.33
  Q 100.80 56.59 100.41 56.72
  Q 98.83 57.27 97.79 58.60
  Q 97.53 58.93 97.12 58.87
  Q 96.24 58.73 95.90 59.46
  Q 95.71 59.88 95.25 59.88
  L 92.99 59.88
  A 1.00 1.00 0.0 0 0 92.13 60.37
  Q 91.80 60.93 91.15 60.90
  A 1.13 1.09 -62.0 0 0 90.41 61.14
  L 88.78 62.49
  Q 88.35 62.85 87.78 62.86
  Q 87.11 62.86 86.88 63.55
  Q 86.71 64.04 86.20 63.91
  Q 84.78 63.55 83.92 64.57
  Q 83.66 64.88 83.25 64.88
  L 82.78 64.88
  A 0.68 0.67 -67.2 0 0 82.30 65.08
  L 80.83 66.51
  Q 80.46 66.87 79.94 66.85
  Q 79.13 66.82 78.90 67.49
  A 0.69 0.69 0.0 0 1 78.05 67.93
  Q 76.66 67.51 75.83 68.51
  Q 75.53 68.87 75.05 68.88
  Q 74.09 68.89 73.19 68.89
  Q 72.70 68.89 72.36 69.08
  Q 71.71 69.43 71.77 69.76
  A 1.80 1.80 0.0 0 1 70.00 71.88
  L 67.78 71.88
  A 0.90 0.89 13.8 0 0 66.99 72.35
  Q 66.51 73.23 65.35 72.86
  A 1.17 1.17 0.0 0 0 63.85 74.18
  Q 63.88 74.34 63.88 74.51
  A 0.45 0.44 -81.8 0 1 63.31 74.94
  Q 61.79 74.50 60.89 75.61
  Q 60.60 75.97 60.15 75.88
  Q 59.19 75.70 58.87 76.55
  Q 58.69 77.02 58.21 76.90
  Q 57.13 76.64 56.30 77.21
  Q 55.88 77.49 55.88 78.00
  L 55.88 78.49
  A 0.46 0.45 -81.9 0 1 55.30 78.93
  Q 53.79 78.51 52.89 79.61
  Q 52.60 79.96 52.16 79.88
  Q 51.17 79.69 50.86 80.60
  Q 50.69 81.07 50.20 80.95
  Q 47.55 80.28 46.16 82.40
  A 1.07 1.07 0.0 0 1 45.23 82.88
  Q 44.36 82.86 43.91 83.63
  A 0.72 0.71 23.2 0 1 43.10 83.95
  Q 41.82 83.58 41.04 84.44
  Q 40.73 84.77 40.30 84.87
  Q 38.84 85.19 38.05 86.56
  A 0.72 0.71 -68.0 0 1 37.26 86.90
  Q 36.24 86.65 35.90 87.50
  A 0.75 0.73 -70.2 0 1 35.01 87.93
  Q 33.54 87.48 32.89 88.52
  Q 32.62 88.94 32.14 88.87
  Q 30.08 88.59 28.99 90.45
  Q 28.68 90.97 28.09 90.87
  Q 27.23 90.73 26.91 91.46
  Q 26.72 91.88 26.25 91.88
  L 24.69 91.88
  A 0.81 0.81 0.0 0 0 23.92 92.44
  Q 23.72 93.06 23.06 92.89
  A 0.88 0.88 0.0 0 0 22.22 93.13
  L 20.79 94.60
  Q 20.45 94.95 19.97 94.88
  Q 19.20 94.78 18.91 95.45
  Q 18.73 95.88 18.26 95.88
  L 16.97 95.88
  Q 16.27 95.88 15.92 96.49
  Q 15.56 97.12 14.79 96.87
  A 0.63 0.63 0.0 0 0 14.04 97.19
  Q 13.28 98.70 11.69 98.98
  Q 11.23 99.06 10.98 99.46
  Q 10.53 100.16 9.50 99.89
  Q 7.73 99.43 6.74 100.53
  Q 6.43 100.88 5.96 100.88
  L 4.63 100.88
  A 0.75 0.75 0.0 0 0 3.88 101.63
  L 3.88 102.46
  A 0.46 0.45 3.4 0 1 3.37 102.91
  Q 2.43 102.78 1.57 102.99
  Q 1.09 103.10 0.96 103.57
  Q 0.68 104.55 0.00 105.38
  L 0.00 61.80
  C 3.05 31.76 24.24 7.43 53.71 1.53
  C 64.23 -0.57 78.13 0.20 90.12 0.00
  Z" fill="#396fee"></path>
<path d="M 211.93 4.23
  Q 230.13 10.97 242.07 26.20
  Q 241.54 26.74 241.97 27.49
  Q 242.34 28.11 241.66 28.37
  Q 241.18 28.55 240.96 29.00
  A 0.86 0.86 0.0 0 1 240.20 29.49
  Q 238.82 29.53 238.09 30.71
  A 0.89 0.89 0.0 0 1 237.20 31.12
  Q 236.57 31.03 236.22 31.49
  Q 235.88 31.93 235.33 32.04
  L 233.75 32.34
  Q 233.25 32.43 232.95 32.83
  Q 232.51 33.39 231.76 33.37
  Q 231.17 33.35 230.86 33.85
  Q 230.22 34.86 229.11 35.14
  Q 228.60 35.26 228.21 35.60
  Q 227.30 36.39 226.06 36.10
  Q 225.55 35.98 225.28 36.43
  Q 224.88 37.11 224.06 37.17
  Q 223.54 37.20 223.16 37.55
  L 221.80 38.81
  Q 221.45 39.12 220.99 39.12
  L 220.06 39.12
  Q 219.56 39.12 219.21 39.48
  Q 218.19 40.53 216.71 40.06
  A 0.45 0.45 0.0 0 0 216.13 40.40
  Q 215.97 41.18 215.05 41.16
  Q 214.53 41.14 214.16 41.50
  L 212.72 42.90
  A 0.81 0.78 -59.5 0 1 211.95 43.11
  Q 211.30 42.95 211.10 43.52
  Q 210.88 44.12 210.25 44.12
  L 208.73 44.12
  Q 208.27 44.12 208.09 44.55
  Q 207.83 45.20 207.07 45.13
  A 0.87 0.87 0.0 0 0 206.37 45.38
  L 204.89 46.85
  Q 204.59 47.16 204.16 47.11
  Q 203.47 47.03 203.12 47.64
  A 0.96 0.95 14.8 0 1 202.32 48.10
  L 200.04 48.15
  A 1.17 1.14 -67.7 0 0 199.25 48.49
  L 196.94 50.80
  Q 196.62 51.12 196.17 51.12
  L 193.97 51.12
  A 0.91 0.89 -72.9 0 0 193.22 51.53
  Q 192.79 52.17 192.03 52.13
  Q 191.58 52.10 191.30 52.45
  Q 190.53 53.41 189.27 53.10
  Q 188.37 52.89 188.22 53.80
  Q 187.95 55.37 186.74 55.12
  Q 185.65 54.90 185.04 55.67
  Q 184.83 55.95 184.65 56.02
  Q 184.38 56.14 184.08 56.15
  Q 183.61 56.17 183.28 56.51
  C 182.25 57.62 181.61 56.75 180.57 57.19
  Q 179.98 57.44 180.11 58.13
  A 0.92 0.92 0.0 0 1 178.96 59.18
  Q 177.13 58.67 175.87 59.79
  Q 175.49 60.12 174.99 60.12
  L 173.97 60.12
  Q 173.43 60.12 173.14 60.57
  Q 172.74 61.19 172.12 61.15
  Q 171.57 61.10 171.17 61.49
  L 169.72 62.91
  A 0.81 0.80 -59.3 0 1 168.95 63.11
  Q 168.30 62.95 168.10 63.52
  Q 167.88 64.12 167.25 64.12
  L 165.74 64.12
  Q 165.28 64.12 165.09 64.55
  Q 164.81 65.22 164.02 65.12
  Q 163.54 65.06 163.21 65.41
  L 161.77 66.88
  A 0.91 0.90 -61.1 0 1 160.91 67.13
  Q 159.62 66.82 158.91 67.84
  A 0.79 0.78 -65.0 0 1 158.04 68.16
  Q 156.86 67.82 156.14 68.58
  Q 155.87 68.85 155.50 68.94
  Q 154.04 69.28 152.98 70.75
  Q 152.71 71.13 152.15 71.13
  Q 151.64 71.13 151.28 71.50
  Q 150.38 72.43 149.06 72.10
  A 0.69 0.69 0.0 0 0 148.28 72.43
  Q 147.85 73.18 147.03 73.12
  Q 146.59 73.10 146.30 73.44
  Q 144.17 75.94 140.89 76.17
  Q 140.39 76.21 140.10 76.63
  Q 139.70 77.22 139.07 77.13
  Q 138.57 77.05 138.28 77.46
  Q 137.77 78.21 137.96 78.98
  Q 138.07 79.40 137.65 79.52
  L 133.83 80.54
  Q 133.42 80.65 133.49 81.06
  L 133.62 81.78
  L 132.13 82.51
  Q 132.26 81.36 131.92 80.86
  Q 131.45 80.17 131.24 80.97
  Q 131.07 81.59 130.54 81.86
  Q 130.02 82.13 129.67 81.67
  Q 129.29 81.16 128.63 81.43
  Q 128.38 81.53 128.31 81.79
  Q 127.94 83.07 128.16 84.53
  A 0.65 0.64 87.8 0 1 127.48 85.27
  Q 126.87 85.22 126.31 84.76
  Q 126.00 84.51 126.29 84.22
  L 126.72 83.79
  Q 127.23 83.28 126.51 83.35
  Q 125.66 83.44 125.15 84.10
  A 0.80 0.80 0.0 0 1 124.29 84.39
  Q 123.41 84.15 122.93 84.80
  Q 122.57 85.29 122.04 85.00
  L 121.38 84.65
  Q 120.89 84.38 121.10 83.86
  Q 121.26 83.45 121.00 83.24
  Q 120.71 83.01 120.57 83.36
  Q 120.38 83.81 119.68 83.95
  Q 118.93 77.94 113.75 76.25
  C 107.56 74.25 104.28 77.92 101.53 83.27
  Q 97.41 91.29 93.23 99.35
  Q 92.13 97.09 90.80 100.88
  Q 90.61 101.43 90.13 101.11
  L 88.92 100.34
  Q 88.32 99.96 88.10 100.63
  Q 87.79 101.55 86.77 101.36
  A 0.78 0.77 -68.7 0 0 85.98 101.71
  Q 85.28 102.83 84.04 103.16
  Q 83.57 103.29 83.20 103.60
  Q 82.35 104.32 81.23 104.39
  Q 80.75 104.42 80.37 104.71
  C 79.32 105.51 77.78 105.70 76.99 106.87
  Q 76.69 107.30 76.18 107.36
  Q 75.18 107.47 74.22 107.94
  Q 74.02 108.04 74.17 108.20
  Q 74.31 108.35 74.59 108.43
  Q 75.09 108.56 74.59 108.73
  L 73.75 109.01
  Q 64.14 101.11 51.98 98.36
  C 43.01 96.33 37.37 107.15 44.13 113.04
  C 46.93 115.48 52.71 116.30 56.52 118.17
  L 55.82 118.92
  Q 55.51 119.24 55.23 118.89
  Q 54.83 118.39 54.18 118.11
  Q 54.02 118.04 53.94 118.20
  Q 53.86 118.37 53.88 118.57
  A 0.27 0.27 0.0 0 1 53.39 118.74
  Q 52.95 118.02 52.28 117.47
  Q 51.88 117.14 51.66 117.61
  Q 51.48 117.99 51.06 118.09
  Q 50.69 118.18 50.48 118.50
  Q 49.95 119.31 48.93 119.10
  A 0.68 0.67 -68.4 0 0 48.20 119.42
  Q 47.56 120.49 46.19 120.07
  A 0.77 0.77 0.0 0 0 45.33 120.39
  Q 44.83 121.19 43.94 121.14
  A 0.99 0.98 17.4 0 0 43.03 121.61
  Q 42.16 123.03 40.63 123.48
  Q 40.23 123.59 39.92 123.88
  Q 39.14 124.60 38.07 124.37
  Q 37.58 124.27 37.20 124.60
  C 36.46 125.23 35.51 125.30 34.89 125.77
  Q 34.28 126.24 33.74 126.80
  Q 33.42 127.12 32.97 127.12
  L 32.51 127.12
  Q 32.17 127.12 32.16 127.46
  Q 32.14 127.99 31.51 128.00
  Q 30.20 128.03 28.88 128.16
  Q 28.40 128.20 28.12 128.61
  Q 27.72 129.19 27.11 129.15
  Q 26.57 129.10 26.17 129.49
  L 24.72 130.91
  A 0.81 0.80 -59.3 0 1 23.95 131.11
  Q 23.30 130.95 23.10 131.52
  Q 22.88 132.12 22.25 132.12
  L 20.74 132.12
  Q 20.28 132.12 20.09 132.55
  Q 19.86 133.10 19.29 133.13
  Q 18.80 133.16 18.39 133.42
  Q 17.48 133.99 16.88 134.82
  Q 16.57 135.25 16.05 135.13
  Q 15.25 134.95 15.05 135.57
  Q 14.86 136.12 14.28 136.12
  L 12.07 136.12
  Q 11.61 136.12 11.28 136.44
  Q 10.13 137.55 8.48 137.05
  A 0.30 0.30 0.0 0 0 8.10 137.39
  Q 8.49 139.50 6.34 139.13
  A 1.25 1.24 23.2 0 0 5.11 139.62
  Q 4.60 140.31 3.79 140.12
  Q 3.47 140.04 3.32 140.33
  Q 3.02 140.89 2.44 141.15
  A 0.34 0.34 0.0 0 1 2.00 140.98
  L 1.76 140.47
  Q 1.56 140.04 1.09 140.12
  Q 0.52 140.23 0.00 140.76
  L 0.00 105.38
  Q 0.68 104.55 0.96 103.57
  Q 1.09 103.10 1.57 102.99
  Q 2.43 102.78 3.37 102.91
  A 0.46 0.45 3.4 0 0 3.88 102.46
  L 3.88 101.63
  A 0.75 0.75 0.0 0 1 4.63 100.88
  L 5.96 100.88
  Q 6.43 100.88 6.74 100.53
  Q 7.73 99.43 9.50 99.89
  Q 10.53 100.16 10.98 99.46
  Q 11.23 99.06 11.69 98.98
  Q 13.28 98.70 14.04 97.19
  A 0.63 0.63 0.0 0 1 14.79 96.87
  Q 15.56 97.12 15.92 96.49
  Q 16.27 95.88 16.97 95.88
  L 18.26 95.88
  Q 18.73 95.88 18.91 95.45
  Q 19.20 94.78 19.97 94.88
  Q 20.45 94.95 20.79 94.60
  L 22.22 93.13
  A 0.88 0.88 0.0 0 1 23.06 92.89
  Q 23.72 93.06 23.92 92.44
  A 0.81 0.81 0.0 0 1 24.69 91.88
  L 26.25 91.88
  Q 26.72 91.88 26.91 91.46
  Q 27.23 90.73 28.09 90.87
  Q 28.68 90.97 28.99 90.45
  Q 30.08 88.59 32.14 88.87
  Q 32.62 88.94 32.89 88.52
  Q 33.54 87.48 35.01 87.93
  A 0.75 0.73 -70.2 0 0 35.90 87.50
  Q 36.24 86.65 37.26 86.90
  A 0.72 0.71 -68.0 0 0 38.05 86.56
  Q 38.84 85.19 40.30 84.87
  Q 40.73 84.77 41.04 84.44
  Q 41.82 83.58 43.10 83.95
  A 0.72 0.71 23.2 0 0 43.91 83.63
  Q 44.36 82.86 45.23 82.88
  A 1.07 1.07 0.0 0 0 46.16 82.40
  Q 47.55 80.28 50.20 80.95
  Q 50.69 81.07 50.86 80.60
  Q 51.17 79.69 52.16 79.88
  Q 52.60 79.96 52.89 79.61
  Q 53.79 78.51 55.30 78.93
  A 0.46 0.45 -81.9 0 0 55.88 78.49
  L 55.88 78.00
  Q 55.88 77.49 56.30 77.21
  Q 57.13 76.64 58.21 76.90
  Q 58.69 77.02 58.87 76.55
  Q 59.19 75.70 60.15 75.88
  Q 60.60 75.97 60.89 75.61
  Q 61.79 74.50 63.31 74.94
  A 0.45 0.44 -81.8 0 0 63.88 74.51
  Q 63.88 74.34 63.85 74.18
  A 1.17 1.17 0.0 0 1 65.35 72.86
  Q 66.51 73.23 66.99 72.35
  A 0.90 0.89 13.8 0 1 67.78 71.88
  L 70.00 71.88
  A 1.80 1.80 0.0 0 0 71.77 69.76
  Q 71.71 69.43 72.36 69.08
  Q 72.70 68.89 73.19 68.89
  Q 74.09 68.89 75.05 68.88
  Q 75.53 68.87 75.83 68.51
  Q 76.66 67.51 78.05 67.93
  A 0.69 0.69 0.0 0 0 78.90 67.49
  Q 79.13 66.82 79.94 66.85
  Q 80.46 66.87 80.83 66.51
  L 82.30 65.08
  A 0.68 0.67 -67.2 0 1 82.78 64.88
  L 83.25 64.88
  Q 83.66 64.88 83.92 64.57
  Q 84.78 63.55 86.20 63.91
  Q 86.71 64.04 86.88 63.55
  Q 87.11 62.86 87.78 62.86
  Q 88.35 62.85 88.78 62.49
  L 90.41 61.14
  A 1.13 1.09 -62.0 0 1 91.15 60.90
  Q 91.80 60.93 92.13 60.37
  A 1.00 1.00 0.0 0 1 92.99 59.88
  L 95.25 59.88
  Q 95.71 59.88 95.90 59.46
  Q 96.24 58.73 97.12 58.87
  Q 97.53 58.93 97.79 58.60
  Q 98.83 57.27 100.41 56.72
  Q 100.80 56.59 101.12 56.33
  Q 102.02 55.62 103.22 55.90
  Q 103.71 56.02 103.88 55.54
  Q 104.15 54.77 104.97 54.88
  Q 105.45 54.95 105.79 54.60
  L 107.22 53.14
  A 0.90 0.90 0.0 0 1 108.06 52.89
  Q 108.79 53.06 108.99 52.30
  Q 109.10 51.88 109.53 51.88
  L 112.03 51.88
  Q 112.47 51.88 112.76 51.56
  Q 113.74 50.45 115.34 50.96
  A 0.42 0.42 0.0 0 0 115.88 50.50
  Q 115.56 48.41 117.85 48.95
  A 0.95 0.94 -70.4 0 0 118.91 48.44
  Q 119.24 47.75 120.04 47.87
  Q 120.45 47.93 120.71 47.61
  Q 121.70 46.44 123.34 46.96
  A 0.42 0.42 0.0 0 0 123.88 46.50
  Q 123.56 44.39 125.90 44.93
  A 0.92 0.92 0.0 0 0 126.94 44.43
  Q 127.26 43.73 128.08 43.86
  Q 128.55 43.93 128.83 43.56
  Q 129.71 42.44 131.27 42.94
  A 0.47 0.46 9.1 0 0 131.88 42.50
  L 131.88 41.75
  A 0.87 0.87 0.0 0 1 132.75 40.88
  L 135.02 40.88
  Q 135.51 40.88 135.83 40.50
  Q 136.66 39.51 138.05 39.93
  A 0.69 0.69 0.0 0 0 138.90 39.49
  Q 139.13 38.82 139.93 38.85
  Q 140.46 38.87 140.84 38.50
  L 142.28 37.10
  A 0.83 0.81 -59.8 0 1 143.05 36.89
  Q 143.72 37.06 143.92 36.45
  A 0.82 0.80 -81.1 0 1 144.69 35.88
  L 146.25 35.88
  Q 146.72 35.88 146.91 35.45
  Q 147.20 34.78 147.97 34.88
  Q 148.45 34.95 148.79 34.60
  L 150.22 33.13
  A 0.88 0.88 0.0 0 1 151.06 32.89
  Q 151.72 33.06 151.92 32.44
  A 0.81 0.81 0.0 0 1 152.69 31.88
  L 154.99 31.88
  Q 155.65 31.88 155.98 31.31
  Q 156.25 30.82 156.85 30.87
  Q 157.42 30.91 157.83 30.52
  L 159.28 29.10
  A 0.83 0.81 -59.8 0 1 160.05 28.89
  Q 160.72 29.06 160.92 28.45
  A 0.82 0.80 -81.1 0 1 161.69 27.88
  L 163.25 27.88
  Q 163.72 27.88 163.91 27.45
  Q 164.19 26.81 164.89 26.86
  Q 165.44 26.90 165.83 26.52
  L 167.28 25.10
  A 0.83 0.81 -59.8 0 1 168.05 24.89
  Q 168.72 25.06 168.92 24.45
  A 0.82 0.80 -81.1 0 1 169.69 23.88
  L 171.25 23.88
  Q 171.72 23.88 171.91 23.45
  Q 172.15 22.89 172.73 22.86
  Q 173.22 22.83 173.63 22.57
  Q 174.50 22.02 175.08 21.24
  Q 175.35 20.88 175.80 20.88
  L 178.01 20.88
  Q 178.52 20.88 178.81 20.47
  Q 179.30 19.77 180.05 19.86
  Q 180.46 19.90 180.73 19.59
  Q 181.72 18.44 183.34 18.96
  A 0.42 0.42 0.0 0 0 183.88 18.50
  Q 183.56 16.39 185.90 16.93
  A 0.92 0.92 0.0 0 0 186.94 16.43
  Q 187.26 15.73 188.08 15.86
  Q 188.55 15.93 188.83 15.56
  Q 189.71 14.44 191.27 14.95
  A 0.47 0.47 0.0 0 0 191.88 14.50
  L 191.88 13.41
  Q 191.88 12.95 192.34 12.93
  L 194.02 12.86
  Q 194.46 12.84 194.76 12.51
  Q 195.74 11.43 197.50 11.89
  Q 198.53 12.16 198.98 11.45
  Q 199.23 11.06 199.69 10.98
  Q 201.27 10.70 202.04 9.19
  A 0.63 0.63 0.0 0 1 202.79 8.87
  Q 203.73 9.16 203.98 8.32
  A 0.76 0.75 -72.4 0 1 204.93 7.82
  Q 206.49 8.30 207.37 7.13
  A 0.78 0.77 -62.9 0 1 208.22 6.85
  Q 208.85 7.04 209.23 6.70
  Q 209.41 6.53 209.98 6.30
  Q 210.44 6.11 210.81 6.32
  A 0.56 0.56 0.0 0 0 211.64 5.92
  L 211.93 4.23
  Z" fill="#3066e5"></path>
<path d="M 242.07 26.20
  Q 254.16 42.08 256.00 62.42
  L 256.00 99.37
  L 255.76 100.47
  Q 255.75 100.52 255.71 100.51
  L 255.40 100.41
  Q 255.06 100.30 255.27 100.60
  Q 256.10 101.79 255.00 102.76
  Q 254.77 102.96 254.39 103.01
  Q 254.13 103.05 253.88 103.10
  Q 253.39 103.18 253.12 103.59
  Q 252.73 104.18 252.13 104.13
  Q 251.59 104.08 251.22 104.47
  Q 250.20 105.53 248.71 105.05
  A 0.37 0.36 -76.7 0 0 248.25 105.34
  Q 247.93 107.34 246.76 107.05
  Q 245.46 106.74 244.91 107.71
  Q 244.69 108.12 244.22 108.12
  L 241.74 108.12
  Q 241.27 108.12 241.09 108.54
  Q 240.82 109.18 240.11 109.14
  Q 239.56 109.10 239.17 109.49
  L 237.72 110.90
  A 0.83 0.81 -59.8 0 1 236.95 111.11
  Q 236.30 110.94 236.09 111.52
  Q 235.88 112.12 235.25 112.12
  L 233.74 112.12
  Q 233.27 112.12 233.09 112.55
  Q 232.80 113.22 232.03 113.12
  Q 231.54 113.05 231.20 113.40
  L 229.78 114.87
  A 0.87 0.86 29.4 0 1 228.94 115.10
  Q 228.30 114.94 228.09 115.52
  Q 227.88 116.12 227.25 116.12
  L 226.03 116.12
  Q 225.49 116.12 225.14 116.52
  Q 224.37 117.42 223.13 117.12
  Q 222.59 116.99 222.20 117.39
  L 220.73 118.94
  A 0.71 0.71 0.0 0 1 219.99 119.13
  Q 219.31 118.92 219.09 119.52
  Q 218.88 120.12 218.24 120.12
  L 216.74 120.12
  Q 216.27 120.12 216.09 120.55
  Q 215.86 121.10 215.30 121.13
  Q 214.80 121.16 214.39 121.42
  Q 213.50 121.97 212.92 122.76
  Q 212.59 123.21 212.04 123.11
  Q 211.12 122.96 210.91 123.85
  A 0.49 0.49 0.0 0 1 210.28 124.20
  Q 208.65 123.64 207.94 124.72
  Q 207.68 125.12 207.20 125.12
  L 204.63 125.12
  A 0.51 0.50 -0.0 0 0 204.12 125.62
  L 204.12 125.96
  Q 204.12 126.12 204.05 126.26
  Q 202.89 128.74 200.31 128.04
  A 0.90 0.89 26.3 0 0 199.38 128.35
  Q 198.49 129.50 196.99 129.06
  A 0.73 0.73 0.0 0 0 196.09 129.98
  Q 196.38 130.91 195.25 130.96
  Q 194.56 131.00 193.85 131.15
  Q 193.38 131.25 193.10 131.64
  Q 192.67 132.22 192.04 132.13
  Q 191.58 132.07 191.24 132.38
  Q 189.79 133.68 187.77 133.32
  A 0.14 0.14 0.0 0 0 187.61 133.46
  Q 187.61 133.61 187.61 133.75
  Q 187.61 133.86 187.72 133.78
  Q 187.78 133.73 187.86 133.73
  Q 187.97 133.74 188.06 133.86
  Q 188.22 134.06 188.22 134.28
  Q 188.22 134.80 187.69 134.83
  Q 185.82 134.93 185.70 134.00
  Q 199.88 104.55 213.76 75.02
  C 219.09 63.67 203.03 56.50 197.92 67.72
  Q 179.79 107.57 160.20 146.72
  C 150.71 165.70 133.45 182.55 110.87 170.94
  C 103.48 167.13 98.70 160.02 96.02 152.35
  C 89.86 134.73 86.32 120.71 73.75 109.01
  L 74.59 108.73
  Q 75.09 108.56 74.59 108.43
  Q 74.31 108.35 74.17 108.20
  Q 74.02 108.04 74.22 107.94
  Q 75.18 107.47 76.18 107.36
  Q 76.69 107.30 76.99 106.87
  C 77.78 105.70 79.32 105.51 80.37 104.71
  Q 80.75 104.42 81.23 104.39
  Q 82.35 104.32 83.20 103.60
  Q 83.57 103.29 84.04 103.16
  Q 85.28 102.83 85.98 101.71
  A 0.78 0.77 -68.7 0 1 86.77 101.36
  Q 87.79 101.55 88.10 100.63
  Q 88.32 99.96 88.92 100.34
  L 90.13 101.11
  Q 90.61 101.43 90.80 100.88
  Q 92.13 97.09 93.23 99.35
  C 90.55 104.33 88.12 108.37 91.82 113.20
  C 96.02 118.67 103.87 117.66 106.94 111.67
  Q 112.95 99.95 118.95 88.23
  Q 119.80 86.57 119.68 83.95
  Q 120.38 83.81 120.57 83.36
  Q 120.71 83.01 121.00 83.24
  Q 121.26 83.45 121.10 83.86
  Q 120.89 84.38 121.38 84.65
  L 122.04 85.00
  Q 122.57 85.29 122.93 84.80
  Q 123.41 84.15 124.29 84.39
  A 0.80 0.80 0.0 0 0 125.15 84.10
  Q 125.66 83.44 126.51 83.35
  Q 127.23 83.28 126.72 83.79
  L 126.29 84.22
  Q 126.00 84.51 126.31 84.76
  Q 126.87 85.22 127.48 85.27
  A 0.65 0.64 87.8 0 0 128.16 84.53
  Q 127.94 83.07 128.31 81.79
  Q 128.38 81.53 128.63 81.43
  Q 129.29 81.16 129.67 81.67
  Q 130.02 82.13 130.54 81.86
  Q 131.07 81.59 131.24 80.97
  Q 131.45 80.17 131.92 80.86
  Q 132.26 81.36 132.13 82.51
  Q 130.02 84.07 129.27 85.51
  Q 123.62 96.43 118.02 107.38
  Q 116.01 111.32 116.03 113.50
  C 116.07 118.67 120.90 122.92 126.01 122.21
  C 130.94 121.52 132.31 118.31 134.78 113.56
  Q 139.53 104.41 144.44 95.35
  C 148.64 87.58 142.43 79.15 133.62 81.78
  L 133.49 81.06
  Q 133.42 80.65 133.83 80.54
  L 137.65 79.52
  Q 138.07 79.40 137.96 78.98
  Q 137.77 78.21 138.28 77.46
  Q 138.57 77.05 139.07 77.13
  Q 139.70 77.22 140.10 76.63
  Q 140.39 76.21 140.89 76.17
  Q 144.17 75.94 146.30 73.44
  Q 146.59 73.10 147.03 73.12
  Q 147.85 73.18 148.28 72.43
  A 0.69 0.69 0.0 0 1 149.06 72.10
  Q 150.38 72.43 151.28 71.50
  Q 151.64 71.13 152.15 71.13
  Q 152.71 71.13 152.98 70.75
  Q 154.04 69.28 155.50 68.94
  Q 155.87 68.85 156.14 68.58
  Q 156.86 67.82 158.04 68.16
  A 0.79 0.78 -65.0 0 0 158.91 67.84
  Q 159.62 66.82 160.91 67.13
  A 0.91 0.90 -61.1 0 0 161.77 66.88
  L 163.21 65.41
  Q 163.54 65.06 164.02 65.12
  Q 164.81 65.22 165.09 64.55
  Q 165.28 64.12 165.74 64.12
  L 167.25 64.12
  Q 167.88 64.12 168.10 63.52
  Q 168.30 62.95 168.95 63.11
  A 0.81 0.80 -59.3 0 0 169.72 62.91
  L 171.17 61.49
  Q 171.57 61.10 172.12 61.15
  Q 172.74 61.19 173.14 60.57
  Q 173.43 60.12 173.97 60.12
  L 174.99 60.12
  Q 175.49 60.12 175.87 59.79
  Q 177.13 58.67 178.96 59.18
  A 0.92 0.92 0.0 0 0 180.11 58.13
  Q 179.98 57.44 180.57 57.19
  C 181.61 56.75 182.25 57.62 183.28 56.51
  Q 183.61 56.17 184.08 56.15
  Q 184.38 56.14 184.65 56.02
  Q 184.83 55.95 185.04 55.67
  Q 185.65 54.90 186.74 55.12
  Q 187.95 55.37 188.22 53.80
  Q 188.37 52.89 189.27 53.10
  Q 190.53 53.41 191.30 52.45
  Q 191.58 52.10 192.03 52.13
  Q 192.79 52.17 193.22 51.53
  A 0.91 0.89 -72.9 0 1 193.97 51.12
  L 196.17 51.12
  Q 196.62 51.12 196.94 50.80
  L 199.25 48.49
  A 1.17 1.14 -67.7 0 1 200.04 48.15
  L 202.32 48.10
  A 0.96 0.95 14.8 0 0 203.12 47.64
  Q 203.47 47.03 204.16 47.11
  Q 204.59 47.16 204.89 46.85
  L 206.37 45.38
  A 0.87 0.87 0.0 0 1 207.07 45.13
  Q 207.83 45.20 208.09 44.55
  Q 208.27 44.12 208.73 44.12
  L 210.25 44.12
  Q 210.88 44.12 211.10 43.52
  Q 211.30 42.95 211.95 43.11
  A 0.81 0.78 -59.5 0 0 212.72 42.90
  L 214.16 41.50
  Q 214.53 41.14 215.05 41.16
  Q 215.97 41.18 216.13 40.40
  A 0.45 0.45 0.0 0 1 216.71 40.06
  Q 218.19 40.53 219.21 39.48
  Q 219.56 39.12 220.06 39.12
  L 220.99 39.12
  Q 221.45 39.12 221.80 38.81
  L 223.16 37.55
  Q 223.54 37.20 224.06 37.17
  Q 224.88 37.11 225.28 36.43
  Q 225.55 35.98 226.06 36.10
  Q 227.30 36.39 228.21 35.60
  Q 228.60 35.26 229.11 35.14
  Q 230.22 34.86 230.86 33.85
  Q 231.17 33.35 231.76 33.37
  Q 232.51 33.39 232.95 32.83
  Q 233.25 32.43 233.75 32.34
  L 235.33 32.04
  Q 235.88 31.93 236.22 31.49
  Q 236.57 31.03 237.20 31.12
  A 0.89 0.89 0.0 0 0 238.09 30.71
  Q 238.82 29.53 240.20 29.49
  A 0.86 0.86 0.0 0 0 240.96 29.00
  Q 241.18 28.55 241.66 28.37
  Q 242.34 28.11 241.97 27.49
  Q 241.54 26.74 242.07 26.20
  Z
  M 170.9656 99.5127
  A 8.58 8.58 0.0 0 0 167.3168 87.9404
  L 166.8201 87.6818
  A 8.58 8.58 0.0 0 0 155.2477 91.3305
  L 142.9744 114.9073
  A 8.58 8.58 0.0 0 0 146.6232 126.4796
  L 147.1199 126.7382
  A 8.58 8.58 0.0 0 0 158.6923 123.0895
  L 170.9656 99.5127
  Z" fill="#245ada"></path>
<path d="M 185.70 134.00
  Q 183.44 138.68 175.37 154.62
  C 162.41 180.24 138.46 200.67 107.94 188.43
  Q 97.94 184.42 90.34 176.54
  Q 83.69 168.23 80.30 159.47
  C 75.07 145.96 72.08 126.14 56.52 118.17
  C 52.71 116.30 46.93 115.48 44.13 113.04
  C 37.37 107.15 43.01 96.33 51.98 98.36
  Q 64.14 101.11 73.75 109.01
  C 86.32 120.71 89.86 134.73 96.02 152.35
  C 98.70 160.02 103.48 167.13 110.87 170.94
  C 133.45 182.55 150.71 165.70 160.20 146.72
  Q 179.79 107.57 197.92 67.72
  C 203.03 56.50 219.09 63.67 213.76 75.02
  Q 199.88 104.55 185.70 134.00
  Z" fill="#ffffff"></path>
<path d="M 119.68 83.95
  Q 119.80 86.57 118.95 88.23
  Q 112.95 99.95 106.94 111.67
  C 103.87 117.66 96.02 118.67 91.82 113.20
  C 88.12 108.37 90.55 104.33 93.23 99.35
  Q 97.41 91.29 101.53 83.27
  C 104.28 77.92 107.56 74.25 113.75 76.25
  Q 118.93 77.94 119.68 83.95
  Z" fill="#ffffff"></path>
<path d="M 132.13 82.51
  L 133.62 81.78
  C 142.43 79.15 148.64 87.58 144.44 95.35
  Q 139.53 104.41 134.78 113.56
  C 132.31 118.31 130.94 121.52 126.01 122.21
  C 120.90 122.92 116.07 118.67 116.03 113.50
  Q 116.01 111.32 118.02 107.38
  Q 123.62 96.43 129.27 85.51
  Q 130.02 84.07 132.13 82.51
  Z" fill="#ffffff"></path>
<rect rx="8.58" height="43.74" width="17.72" transform="translate(156.97,107.21) rotate(27.5)" y="-21.87" x="-8.86" fill="#ffffff"></rect>
<path d="M 256.00 99.37
  L 256.00 194.20
  C 252.43 228.48 226.51 253.76 192.10 256.00
  L 63.54 256.00
  C 38.53 253.97 17.62 240.59 6.52 217.97
  Q 7.11 218.19 7.20 217.40
  Q 7.22 217.29 7.27 217.35
  L 7.50 217.57
  Q 7.70 217.77 7.89 217.57
  Q 8.57 216.91 9.58 217.07
  Q 10.19 217.17 10.43 217.09
  Q 10.92 216.93 11.17 216.44
  Q 11.37 216.03 11.82 216.12
  Q 12.75 216.29 13.10 215.53
  Q 13.29 215.12 13.75 215.12
  L 15.38 215.12
  A 0.75 0.74 90.0 0 0 16.12 214.37
  L 16.12 213.75
  Q 16.12 213.12 16.75 213.12
  L 19.20 213.12
  Q 19.66 213.12 19.91 212.74
  Q 20.65 211.67 22.07 212.19
  A 0.72 0.72 0.0 0 0 23.01 211.69
  Q 23.21 210.93 23.94 211.11
  A 0.90 0.90 0.0 0 0 24.78 210.86
  L 26.21 209.40
  Q 26.55 209.05 27.03 209.12
  Q 27.80 209.22 28.09 208.55
  Q 28.27 208.12 28.74 208.12
  L 30.03 208.12
  Q 30.73 208.12 31.08 207.51
  Q 31.44 206.88 32.21 207.12
  A 0.63 0.62 22.2 0 0 32.96 206.81
  Q 33.70 205.35 35.21 205.04
  Q 35.67 204.95 35.95 204.56
  Q 36.58 203.66 38.72 204.56
  A 1.00 0.99 14.7 0 0 40.10 203.76
  Q 40.20 202.88 40.93 203.10
  A 0.79 0.77 -57.9 0 0 41.71 202.91
  L 43.17 201.48
  Q 43.56 201.10 44.11 201.14
  Q 44.81 201.18 45.09 200.55
  Q 45.27 200.12 45.75 200.12
  L 47.31 200.12
  A 0.81 0.81 0.0 0 0 48.08 199.56
  Q 48.28 198.94 48.95 199.11
  A 0.83 0.81 -59.8 0 0 49.72 198.90
  L 51.16 197.50
  Q 51.54 197.12 52.07 197.15
  Q 52.87 197.18 53.09 196.51
  A 0.70 0.69 -71.8 0 1 53.95 196.07
  Q 55.32 196.49 56.15 195.51
  Q 56.48 195.12 57.00 195.12
  L 59.50 195.12
  Q 60.12 195.12 60.12 194.50
  L 60.12 193.50
  A 0.50 0.49 -81.1 0 1 60.76 193.02
  Q 62.43 193.57 63.18 192.39
  Q 63.40 192.04 63.82 192.12
  Q 64.75 192.30 65.10 191.52
  Q 65.28 191.12 65.73 191.12
  L 67.50 191.12
  Q 68.12 191.12 68.12 190.50
  L 68.12 189.50
  A 0.47 0.46 -81.0 0 1 68.73 189.05
  Q 70.29 189.56 71.16 188.44
  Q 71.45 188.07 71.92 188.14
  Q 72.76 188.26 73.09 187.54
  Q 73.28 187.15 73.71 187.14
  L 75.66 187.07
  A 0.54 0.54 0.0 0 0 76.16 186.35
  Q 75.94 185.72 76.38 185.32
  Q 76.82 184.92 77.40 185.07
  Q 79.10 185.50 80.35 184.41
  Q 80.75 184.06 81.26 184.14
  Q 82.66 184.36 83.43 183.31
  Q 83.57 183.12 83.82 183.12
  L 84.19 183.12
  Q 84.53 183.12 84.78 182.87
  L 86.22 181.39
  Q 86.56 181.04 87.03 181.12
  Q 87.84 181.24 88.11 180.48
  Q 88.28 180.01 88.77 180.11
  Q 89.43 180.25 89.86 179.87
  Q 90.27 179.51 90.04 179.03
  Q 88.19 175.15 90.34 176.54
  Q 97.94 184.42 107.94 188.43
  C 138.46 200.67 162.41 180.24 175.37 154.62
  Q 183.44 138.68 185.70 134.00
  Q 185.82 134.93 187.69 134.83
  Q 188.22 134.80 188.22 134.28
  Q 188.22 134.06 188.06 133.86
  Q 187.97 133.74 187.86 133.73
  Q 187.78 133.73 187.72 133.78
  Q 187.61 133.86 187.61 133.75
  Q 187.61 133.61 187.61 133.46
  A 0.14 0.14 0.0 0 1 187.77 133.32
  Q 189.79 133.68 191.24 132.38
  Q 191.58 132.07 192.04 132.13
  Q 192.67 132.22 193.10 131.64
  Q 193.38 131.25 193.85 131.15
  Q 194.56 131.00 195.25 130.96
  Q 196.38 130.91 196.09 129.98
  A 0.73 0.73 0.0 0 1 196.99 129.06
  Q 198.49 129.50 199.38 128.35
  A 0.90 0.89 26.3 0 1 200.31 128.04
  Q 202.89 128.74 204.05 126.26
  Q 204.12 126.12 204.12 125.96
  L 204.12 125.62
  A 0.51 0.50 -0.0 0 1 204.63 125.12
  L 207.20 125.12
  Q 207.68 125.12 207.94 124.72
  Q 208.65 123.64 210.28 124.20
  A 0.49 0.49 0.0 0 0 210.91 123.85
  Q 211.12 122.96 212.04 123.11
  Q 212.59 123.21 212.92 122.76
  Q 213.50 121.97 214.39 121.42
  Q 214.80 121.16 215.30 121.13
  Q 215.86 121.10 216.09 120.55
  Q 216.27 120.12 216.74 120.12
  L 218.24 120.12
  Q 218.88 120.12 219.09 119.52
  Q 219.31 118.92 219.99 119.13
  A 0.71 0.71 0.0 0 0 220.73 118.94
  L 222.20 117.39
  Q 222.59 116.99 223.13 117.12
  Q 224.37 117.42 225.14 116.52
  Q 225.49 116.12 226.03 116.12
  L 227.25 116.12
  Q 227.88 116.12 228.09 115.52
  Q 228.30 114.94 228.94 115.10
  A 0.87 0.86 29.4 0 0 229.78 114.87
  L 231.20 113.40
  Q 231.54 113.05 232.03 113.12
  Q 232.80 113.22 233.09 112.55
  Q 233.27 112.12 233.74 112.12
  L 235.25 112.12
  Q 235.88 112.12 236.09 111.52
  Q 236.30 110.94 236.95 111.11
  A 0.83 0.81 -59.8 0 0 237.72 110.90
  L 239.17 109.49
  Q 239.56 109.10 240.11 109.14
  Q 240.82 109.18 241.09 108.54
  Q 241.27 108.12 241.74 108.12
  L 244.22 108.12
  Q 244.69 108.12 244.91 107.71
  Q 245.46 106.74 246.76 107.05
  Q 247.93 107.34 248.25 105.34
  A 0.37 0.36 -76.7 0 1 248.71 105.05
  Q 250.20 105.53 251.22 104.47
  Q 251.59 104.08 252.13 104.13
  Q 252.73 104.18 253.12 103.59
  Q 253.39 103.18 253.88 103.10
  Q 254.13 103.05 254.39 103.01
  Q 254.77 102.96 255.00 102.76
  Q 256.10 101.79 255.27 100.60
  Q 255.06 100.30 255.40 100.41
  L 255.71 100.51
  Q 255.75 100.52 255.76 100.47
  L 256.00 99.37
  Z" fill="#1249c9"></path>
<path d="M 56.52 118.17
  C 72.08 126.14 75.07 145.96 80.30 159.47
  Q 83.69 168.23 90.34 176.54
  Q 88.19 175.15 90.04 179.03
  Q 90.27 179.51 89.86 179.87
  Q 89.43 180.25 88.77 180.11
  Q 88.28 180.01 88.11 180.48
  Q 87.84 181.24 87.03 181.12
  Q 86.56 181.04 86.22 181.39
  L 84.78 182.87
  Q 84.53 183.12 84.19 183.12
  L 83.82 183.12
  Q 83.57 183.12 83.43 183.31
  Q 82.66 184.36 81.26 184.14
  Q 80.75 184.06 80.35 184.41
  Q 79.10 185.50 77.40 185.07
  Q 76.82 184.92 76.38 185.32
  Q 75.94 185.72 76.16 186.35
  A 0.54 0.54 0.0 0 1 75.66 187.07
  L 73.71 187.14
  Q 73.28 187.15 73.09 187.54
  Q 72.76 188.26 71.92 188.14
  Q 71.45 188.07 71.16 188.44
  Q 70.29 189.56 68.73 189.05
  A 0.47 0.46 -81.0 0 0 68.12 189.50
  L 68.12 190.50
  Q 68.12 191.12 67.50 191.12
  L 65.73 191.12
  Q 65.28 191.12 65.10 191.52
  Q 64.75 192.30 63.82 192.12
  Q 63.40 192.04 63.18 192.39
  Q 62.43 193.57 60.76 193.02
  A 0.50 0.49 -81.1 0 0 60.12 193.50
  L 60.12 194.50
  Q 60.12 195.12 59.50 195.12
  L 57.00 195.12
  Q 56.48 195.12 56.15 195.51
  Q 55.32 196.49 53.95 196.07
  A 0.70 0.69 -71.8 0 0 53.09 196.51
  Q 52.87 197.18 52.07 197.15
  Q 51.54 197.12 51.16 197.50
  L 49.72 198.90
  A 0.83 0.81 -59.8 0 1 48.95 199.11
  Q 48.28 198.94 48.08 199.56
  A 0.81 0.81 0.0 0 1 47.31 200.12
  L 45.75 200.12
  Q 45.27 200.12 45.09 200.55
  Q 44.81 201.18 44.11 201.14
  Q 43.56 201.10 43.17 201.48
  L 41.71 202.91
  A 0.79 0.77 -57.9 0 1 40.93 203.10
  Q 40.20 202.88 40.10 203.76
  A 1.00 0.99 14.7 0 1 38.72 204.56
  Q 36.58 203.66 35.95 204.56
  Q 35.67 204.95 35.21 205.04
  Q 33.70 205.35 32.96 206.81
  A 0.63 0.62 22.2 0 1 32.21 207.12
  Q 31.44 206.88 31.08 207.51
  Q 30.73 208.12 30.03 208.12
  L 28.74 208.12
  Q 28.27 208.12 28.09 208.55
  Q 27.80 209.22 27.03 209.12
  Q 26.55 209.05 26.21 209.40
  L 24.78 210.86
  A 0.90 0.90 0.0 0 1 23.94 211.11
  Q 23.21 210.93 23.01 211.69
  A 0.72 0.72 0.0 0 1 22.07 212.19
  Q 20.65 211.67 19.91 212.74
  Q 19.66 213.12 19.20 213.12
  L 16.75 213.12
  Q 16.12 213.12 16.12 213.75
  L 16.12 214.37
  A 0.75 0.74 90.0 0 1 15.38 215.12
  L 13.75 215.12
  Q 13.29 215.12 13.10 215.53
  Q 12.75 216.29 11.82 216.12
  Q 11.37 216.03 11.17 216.44
  Q 10.92 216.93 10.43 217.09
  Q 10.19 217.17 9.58 217.07
  Q 8.57 216.91 7.89 217.57
  Q 7.70 217.77 7.50 217.57
  L 7.27 217.35
  Q 7.22 217.29 7.20 217.40
  Q 7.11 218.19 6.52 217.97
  Q 1.35 206.90 0.00 194.34
  L 0.00 140.76
  Q 0.52 140.23 1.09 140.12
  Q 1.56 140.04 1.76 140.47
  L 2.00 140.98
  A 0.34 0.34 0.0 0 0 2.44 141.15
  Q 3.02 140.89 3.32 140.33
  Q 3.47 140.04 3.79 140.12
  Q 4.60 140.31 5.11 139.62
  A 1.25 1.24 23.2 0 1 6.34 139.13
  Q 8.49 139.50 8.10 137.39
  A 0.30 0.30 0.0 0 1 8.48 137.05
  Q 10.13 137.55 11.28 136.44
  Q 11.61 136.12 12.07 136.12
  L 14.28 136.12
  Q 14.86 136.12 15.05 135.57
  Q 15.25 134.95 16.05 135.13
  Q 16.57 135.25 16.88 134.82
  Q 17.48 133.99 18.39 133.42
  Q 18.80 133.16 19.29 133.13
  Q 19.86 133.10 20.09 132.55
  Q 20.28 132.12 20.74 132.12
  L 22.25 132.12
  Q 22.88 132.12 23.10 131.52
  Q 23.30 130.95 23.95 131.11
  A 0.81 0.80 -59.3 0 0 24.72 130.91
  L 26.17 129.49
  Q 26.57 129.10 27.11 129.15
  Q 27.72 129.19 28.12 128.61
  Q 28.40 128.20 28.88 128.16
  Q 30.20 128.03 31.51 128.00
  Q 32.14 127.99 32.16 127.46
  Q 32.17 127.12 32.51 127.12
  L 32.97 127.12
  Q 33.42 127.12 33.74 126.80
  Q 34.28 126.24 34.89 125.77
  C 35.51 125.30 36.46 125.23 37.20 124.60
  Q 37.58 124.27 38.07 124.37
  Q 39.14 124.60 39.92 123.88
  Q 40.23 123.59 40.63 123.48
  Q 42.16 123.03 43.03 121.61
  A 0.99 0.98 17.4 0 1 43.94 121.14
  Q 44.83 121.19 45.33 120.39
  A 0.77 0.77 0.0 0 1 46.19 120.07
  Q 47.56 120.49 48.20 119.42
  A 0.68 0.67 -68.4 0 1 48.93 119.10
  Q 49.95 119.31 50.48 118.50
  Q 50.69 118.18 51.06 118.09
  Q 51.48 117.99 51.66 117.61
  Q 51.88 117.14 52.28 117.47
  Q 52.95 118.02 53.39 118.74
  A 0.27 0.27 0.0 0 0 53.88 118.57
  Q 53.86 118.37 53.94 118.20
  Q 54.02 118.04 54.18 118.11
  Q 54.83 118.39 55.23 118.89
  Q 55.51 119.24 55.82 118.92
  L 56.52 118.17
  Z" fill="#245ada"></path>
</svg>
