<svg viewBox="0.00 0.00 128.00 128.00" version="1.1" xmlns="http://www.w3.org/2000/svg">
<g stroke-linecap="butt" fill="none" stroke-width="2.00">
<path d="M 78.99 23.51
  L 71.83 8.74
  A 1.75 1.75 0.0 0 0 69.14 8.15
  Q 67.86 9.20 67.10 10.65
  Q 63.80 16.97 60.81 23.30
  A 0.98 0.97 8.1 0 1 60.08 23.84
  L 44.17 26.06
  A 2.36 2.36 0.0 0 0 42.85 30.09
  L 54.31 41.25
  Q 54.75 41.67 54.65 42.27
  Q 53.52 48.92 52.21 55.74
  Q 51.85 57.67 52.31 58.96
  A 2.16 2.16 0.0 0 0 55.36 60.15
  L 69.01 52.90
  A 1.80 1.77 44.9 0 1 70.70 52.91
  L 84.10 60.19
  A 2.42 2.41 9.1 0 0 87.63 57.64
  L 84.90 42.60
  A 1.68 1.67 62.9 0 1 85.38 41.10
  Q 90.81 35.79 96.33 30.14
  Q 98.05 28.39 96.39 26.86
  A 1.99 1.94 70.0 0 0 95.37 26.37
  L 79.73 24.05
  A 0.96 0.95 -8.5 0 1 78.99 23.51" stroke="#3a8b89"></path>
<path d="M 18.47 80.50
  L 18.51 66.20
  A 0.27 0.27 0.0 0 0 18.19 65.93
  L 11.48 67.08
  A 0.46 0.46 0.0 0 0 11.10 67.53
  L 11.11 111.04
  Q 11.11 111.71 11.79 111.71
  L 17.76 111.71
  A 0.72 0.72 0.0 0 0 18.48 110.99
  L 18.50 87.51
  Q 18.50 87.18 18.81 87.10
  C 23.41 85.91 29.31 85.66 29.42 92.27
  Q 29.59 101.73 29.49 110.53
  Q 29.48 111.24 30.19 111.24
  L 36.51 111.24
  Q 37.18 111.24 37.19 110.57
  C 37.40 96.96 40.58 75.13 19.08 80.97
  Q 18.47 81.14 18.47 80.50" stroke="#a3a5bf"></path>
<path d="M 91.39 106.31
  Q 86.45 106.57 86.46 101.74
  Q 86.49 84.14 86.49 66.65
  A 0.29 0.28 -4.4 0 0 86.16 66.37
  L 79.48 67.47
  Q 79.11 67.53 79.11 67.90
  Q 79.08 85.69 79.15 103.75
  C 79.17 109.83 83.65 112.59 89.35 112.34
  Q 89.65 112.32 89.75 112.03
  L 91.58 106.56
  A 0.19 0.19 0.0 0 0 91.39 106.31" stroke="#a3a5bf"></path>
<path d="M 53.01 97.62
  L 70.73 97.69
  Q 71.11 97.69 71.15 97.31
  C 71.75 90.07 69.80 82.51 62.06 80.24
  C 53.83 77.81 46.40 82.90 44.27 90.76
  C 42.79 96.20 43.42 103.38 47.47 107.48
  C 52.45 112.53 60.97 112.27 67.67 110.86
  Q 69.21 110.54 69.05 108.97
  L 68.68 105.17
  Q 68.54 103.76 67.19 104.20
  Q 62.65 105.66 57.97 104.94
  Q 54.48 104.41 52.31 101.61
  L 51.53 100.61
  Q 49.21 97.60 53.01 97.62" stroke="#a3a5bf"></path>
<path d="M 104.13 111.23
  C 111.24 114.33 120.00 111.76 122.74 104.04
  Q 125.73 95.60 122.09 88.46
  C 117.18 78.83 105.67 79.15 96.95 81.84
  A 0.89 0.89 0.0 0 0 96.32 82.69
  L 96.32 122.23
  A 0.66 0.65 -0.0 0 0 96.98 122.88
  L 103.05 122.87
  A 0.66 0.66 0.0 0 0 103.71 122.21
  L 103.70 111.52
  Q 103.70 111.04 104.13 111.23" stroke="#a3a5bf"></path>
<path d="M 51.85 93.59
  L 64.17 93.44
  A 0.28 0.28 0.0 0 0 64.44 93.16
  L 64.44 93.00
  A 7.10 6.29 89.3 0 0 58.06 85.98
  L 57.76 85.98
  A 7.10 6.29 89.3 0 0 51.56 93.16
  L 51.56 93.32
  A 0.28 0.28 0.0 0 0 51.85 93.59" stroke="#a3a5bf"></path>
<path d="M 115.52 90.48
  C 113.58 86.03 108.83 85.64 104.60 86.07
  A 0.67 0.66 -2.9 0 0 104.00 86.73
  L 104.00 103.51
  Q 104.00 104.03 104.46 104.29
  Q 107.23 105.81 110.25 105.51
  C 117.68 104.78 117.72 95.50 115.52 90.48" stroke="#a3a5bf"></path>
</g>
<path d="M 0.00 0.00
  L 128.00 0.00
  L 128.00 128.00
  L 0.00 128.00
  L 0.00 0.00
  Z
  M 78.99 23.51
  L 71.83 8.74
  A 1.75 1.75 0.0 0 0 69.14 8.15
  Q 67.86 9.20 67.10 10.65
  Q 63.80 16.97 60.81 23.30
  A 0.98 0.97 8.1 0 1 60.08 23.84
  L 44.17 26.06
  A 2.36 2.36 0.0 0 0 42.85 30.09
  L 54.31 41.25
  Q 54.75 41.67 54.65 42.27
  Q 53.52 48.92 52.21 55.74
  Q 51.85 57.67 52.31 58.96
  A 2.16 2.16 0.0 0 0 55.36 60.15
  L 69.01 52.90
  A 1.80 1.77 44.9 0 1 70.70 52.91
  L 84.10 60.19
  A 2.42 2.41 9.1 0 0 87.63 57.64
  L 84.90 42.60
  A 1.68 1.67 62.9 0 1 85.38 41.10
  Q 90.81 35.79 96.33 30.14
  Q 98.05 28.39 96.39 26.86
  A 1.99 1.94 70.0 0 0 95.37 26.37
  L 79.73 24.05
  A 0.96 0.95 -8.5 0 1 78.99 23.51
  Z
  M 18.47 80.50
  L 18.51 66.20
  A 0.27 0.27 0.0 0 0 18.19 65.93
  L 11.48 67.08
  A 0.46 0.46 0.0 0 0 11.10 67.53
  L 11.11 111.04
  Q 11.11 111.71 11.79 111.71
  L 17.76 111.71
  A 0.72 0.72 0.0 0 0 18.48 110.99
  L 18.50 87.51
  Q 18.50 87.18 18.81 87.10
  C 23.41 85.91 29.31 85.66 29.42 92.27
  Q 29.59 101.73 29.49 110.53
  Q 29.48 111.24 30.19 111.24
  L 36.51 111.24
  Q 37.18 111.24 37.19 110.57
  C 37.40 96.96 40.58 75.13 19.08 80.97
  Q 18.47 81.14 18.47 80.50
  Z
  M 91.39 106.31
  Q 86.45 106.57 86.46 101.74
  Q 86.49 84.14 86.49 66.65
  A 0.29 0.28 -4.4 0 0 86.16 66.37
  L 79.48 67.47
  Q 79.11 67.53 79.11 67.90
  Q 79.08 85.69 79.15 103.75
  C 79.17 109.83 83.65 112.59 89.35 112.34
  Q 89.65 112.32 89.75 112.03
  L 91.58 106.56
  A 0.19 0.19 0.0 0 0 91.39 106.31
  Z
  M 53.01 97.62
  L 70.73 97.69
  Q 71.11 97.69 71.15 97.31
  C 71.75 90.07 69.80 82.51 62.06 80.24
  C 53.83 77.81 46.40 82.90 44.27 90.76
  C 42.79 96.20 43.42 103.38 47.47 107.48
  C 52.45 112.53 60.97 112.27 67.67 110.86
  Q 69.21 110.54 69.05 108.97
  L 68.68 105.17
  Q 68.54 103.76 67.19 104.20
  Q 62.65 105.66 57.97 104.94
  Q 54.48 104.41 52.31 101.61
  L 51.53 100.61
  Q 49.21 97.60 53.01 97.62
  Z
  M 104.13 111.23
  C 111.24 114.33 120.00 111.76 122.74 104.04
  Q 125.73 95.60 122.09 88.46
  C 117.18 78.83 105.67 79.15 96.95 81.84
  A 0.89 0.89 0.0 0 0 96.32 82.69
  L 96.32 122.23
  A 0.66 0.65 -0.0 0 0 96.98 122.88
  L 103.05 122.87
  A 0.66 0.66 0.0 0 0 103.71 122.21
  L 103.70 111.52
  Q 103.70 111.04 104.13 111.23
  Z" fill="#474b7e"></path>
<path d="M 79.73 24.05
  L 95.37 26.37
  A 1.99 1.94 70.0 0 1 96.39 26.86
  Q 98.05 28.39 96.33 30.14
  Q 90.81 35.79 85.38 41.10
  A 1.68 1.67 62.9 0 0 84.90 42.60
  L 87.63 57.64
  A 2.42 2.41 9.1 0 1 84.10 60.19
  L 70.70 52.91
  A 1.80 1.77 44.9 0 0 69.01 52.90
  L 55.36 60.15
  A 2.16 2.16 0.0 0 1 52.31 58.96
  Q 51.85 57.67 52.21 55.74
  Q 53.52 48.92 54.65 42.27
  Q 54.75 41.67 54.31 41.25
  L 42.85 30.09
  A 2.36 2.36 0.0 0 1 44.17 26.06
  L 60.08 23.84
  A 0.98 0.97 8.1 0 0 60.81 23.30
  Q 63.80 16.97 67.10 10.65
  Q 67.86 9.20 69.14 8.15
  A 1.75 1.75 0.0 0 1 71.83 8.74
  L 78.99 23.51
  A 0.96 0.95 -8.5 0 0 79.73 24.05
  Z" fill="#2dca94"></path>
<path d="M 19.08 80.97
  C 40.58 75.13 37.40 96.96 37.19 110.57
  Q 37.18 111.24 36.51 111.24
  L 30.19 111.24
  Q 29.48 111.24 29.49 110.53
  Q 29.59 101.73 29.42 92.27
  C 29.31 85.66 23.41 85.91 18.81 87.10
  Q 18.50 87.18 18.50 87.51
  L 18.48 110.99
  A 0.72 0.72 0.0 0 1 17.76 111.71
  L 11.79 111.71
  Q 11.11 111.71 11.11 111.04
  L 11.10 67.53
  A 0.46 0.46 0.0 0 1 11.48 67.08
  L 18.19 65.93
  A 0.27 0.27 0.0 0 1 18.51 66.20
  L 18.47 80.50
  Q 18.47 81.14 19.08 80.97
  Z" fill="#ffffff"></path>
<path d="M 91.39 106.31
  A 0.19 0.19 0.0 0 1 91.58 106.56
  L 89.75 112.03
  Q 89.65 112.32 89.35 112.34
  C 83.65 112.59 79.17 109.83 79.15 103.75
  Q 79.08 85.69 79.11 67.90
  Q 79.11 67.53 79.48 67.47
  L 86.16 66.37
  A 0.29 0.28 -4.4 0 1 86.49 66.65
  Q 86.49 84.14 86.46 101.74
  Q 86.45 106.57 91.39 106.31
  Z" fill="#ffffff"></path>
<path d="M 53.01 97.62
  Q 49.21 97.60 51.53 100.61
  L 52.31 101.61
  Q 54.48 104.41 57.97 104.94
  Q 62.65 105.66 67.19 104.20
  Q 68.54 103.76 68.68 105.17
  L 69.05 108.97
  Q 69.21 110.54 67.67 110.86
  C 60.97 112.27 52.45 112.53 47.47 107.48
  C 43.42 103.38 42.79 96.20 44.27 90.76
  C 46.40 82.90 53.83 77.81 62.06 80.24
  C 69.80 82.51 71.75 90.07 71.15 97.31
  Q 71.11 97.69 70.73 97.69
  L 53.01 97.62
  Z
  M 51.85 93.59
  L 64.17 93.44
  A 0.28 0.28 0.0 0 0 64.44 93.16
  L 64.44 93.00
  A 7.10 6.29 89.3 0 0 58.06 85.98
  L 57.76 85.98
  A 7.10 6.29 89.3 0 0 51.56 93.16
  L 51.56 93.32
  A 0.28 0.28 0.0 0 0 51.85 93.59
  Z" fill="#ffffff"></path>
<path d="M 103.70 111.52
  L 103.71 122.21
  A 0.66 0.66 0.0 0 1 103.05 122.87
  L 96.98 122.88
  A 0.66 0.65 0.0 0 1 96.32 122.23
  L 96.32 82.69
  A 0.89 0.89 0.0 0 1 96.95 81.84
  C 105.67 79.15 117.18 78.83 122.09 88.46
  Q 125.73 95.60 122.74 104.04
  C 120.00 111.76 111.24 114.33 104.13 111.23
  Q 103.70 111.04 103.70 111.52
  Z
  M 115.52 90.48
  C 113.58 86.03 108.83 85.64 104.60 86.07
  A 0.67 0.66 -2.9 0 0 104.00 86.73
  L 104.00 103.51
  Q 104.00 104.03 104.46 104.29
  Q 107.23 105.81 110.25 105.51
  C 117.68 104.78 117.72 95.50 115.52 90.48
  Z" fill="#ffffff"></path>
<path d="M 51.85 93.59
  A 0.28 0.28 0.0 0 1 51.56 93.32
  L 51.56 93.16
  A 7.10 6.29 89.3 0 1 57.76 85.98
  L 58.06 85.98
  A 7.10 6.29 89.3 0 1 64.44 93.00
  L 64.44 93.16
  A 0.28 0.28 0.0 0 1 64.17 93.44
  L 51.85 93.59
  Z" fill="#474b7e"></path>
<path d="M 115.52 90.48
  C 117.72 95.50 117.68 104.78 110.25 105.51
  Q 107.23 105.81 104.46 104.29
  Q 104.00 104.03 104.00 103.51
  L 104.00 86.73
  A 0.67 0.66 -2.9 0 1 104.60 86.07
  C 108.83 85.64 113.58 86.03 115.52 90.48
  Z" fill="#474b7e"></path>
</svg>
