<svg viewBox="0.00 0.00 256.00 256.00" version="1.1" xmlns="http://www.w3.org/2000/svg">
<g stroke-linecap="butt" fill="none" stroke-width="2.00">
<path d="M 86.74 74.15
  L 85.56 73.32
  Q 85.22 73.08 85.23 73.49
  Q 85.24 73.87 85.80 74.15
  Q 85.99 74.24 85.84 74.39
  Q 85.73 74.50 85.63 74.60
  Q 85.20 75.02 84.91 74.49
  L 84.70 74.10
  Q 84.53 73.80 84.39 74.12
  Q 84.32 74.28 84.38 74.50
  Q 84.44 74.74 84.73 74.77
  A 0.10 0.09 -66.5 0 1 84.79 74.93
  Q 84.69 75.03 84.59 75.13
  Q 84.43 75.27 84.22 75.33
  Q 83.63 75.50 83.29 75.03
  A 0.32 0.31 -31.3 0 1 83.41 74.56
  Q 83.76 74.38 83.92 73.97
  A 0.63 0.63 0.0 0 0 83.34 73.11
  Q 46.26 73.11 10.00 73.12
  Q 7.64 73.12 8.34 75.56
  Q 8.37 75.68 8.29 75.71
  Q 8.20 75.75 8.04 75.72
  Q 8.01 75.71 8.00 75.68
  L 7.43 47.79" stroke="#81a7d4"></path>
<path d="M 7.43 47.79
  Q 7.02 46.59 7.09 44.78" stroke="#7c8cd8"></path>
<path d="M 7.43 47.79
  L 7.15 117.05" stroke="#7977db"></path>
<path d="M 192.44 54.47
  L 192.43 40.80" stroke="#7c8cd8"></path>
<path d="M 251.25 185.93
  L 250.19 189.77
  Q 250.15 189.91 250.05 189.81
  Q 249.95 189.71 249.86 189.62
  A 0.79 0.78 64.7 0 0 249.24 189.39
  Q 246.00 189.69 242.75 189.71
  Q 210.25 189.88 177.75 189.88
  C 176.84 189.88 175.77 189.51 174.75 189.55
  Q 169.12 189.79 163.50 190.18
  Q 162.22 190.27 160.00 188.83" stroke="#786fdc"></path>
</g>
<path d="M 86.74 74.15
  L 85.56 73.32
  Q 85.22 73.08 85.23 73.49
  Q 85.24 73.87 85.80 74.15
  Q 85.99 74.24 85.84 74.39
  Q 85.73 74.50 85.63 74.60
  Q 85.20 75.02 84.91 74.49
  L 84.70 74.10
  Q 84.53 73.80 84.39 74.12
  Q 84.32 74.28 84.38 74.50
  Q 84.44 74.74 84.73 74.77
  A 0.10 0.09 -66.5 0 1 84.79 74.93
  Q 84.69 75.03 84.59 75.13
  Q 84.43 75.27 84.22 75.33
  Q 83.63 75.50 83.29 75.03
  A 0.32 0.31 -31.3 0 1 83.41 74.56
  Q 83.76 74.38 83.92 73.97
  A 0.63 0.63 0.0 0 0 83.34 73.11
  Q 46.26 73.11 10.00 73.12
  Q 7.64 73.12 8.34 75.56
  Q 8.37 75.68 8.29 75.71
  Q 8.20 75.75 8.04 75.72
  Q 8.01 75.71 8.00 75.68
  L 7.43 47.79
  Q 7.02 46.59 7.09 44.78
  C 7.56 35.67 7.52 28.05 12.38 19.99
  C 18.47 9.89 28.63 7.07 39.75 7.02
  Q 86.19 6.82 132.64 6.92
  Q 141.77 6.94 146.21 8.37
  C 163.80 14.06 174.34 35.55 170.47 53.00
  C 169.16 58.92 165.72 64.61 159.11 64.85
  C 154.71 65.02 150.16 65.55 145.96 65.57
  Q 133.26 65.63 120.56 65.63
  Q 108.64 65.64 103.07 67.00
  Q 94.39 69.11 86.74 74.15
  Z" fill="#84bcd1"></path>
<path d="M 192.44 54.47
  L 192.43 40.80
  C 193.09 28.42 197.14 16.81 208.29 10.25
  C 210.80 8.78 215.77 7.51 218.81 7.19
  C 236.85 5.28 252.07 19.78 251.02 37.58
  C 249.44 64.14 222.23 66.64 202.00 65.48
  C 194.48 65.05 192.75 61.66 192.44 54.47
  Z" fill="#84bcd1"></path>
<path d="M 192.43 40.80
  L 192.44 54.47
  L 192.43 40.80
  Z" fill="#745bdf"></path>
<path d="M 7.09 44.78
  Q 7.02 46.59 7.43 47.79
  L 7.15 117.05
  L 7.09 44.78
  Z" fill="#745bdf"></path>
<path d="M 7.43 47.79
  L 8.00 75.68
  Q 8.01 75.71 8.04 75.72
  Q 8.20 75.75 8.29 75.71
  Q 8.37 75.68 8.34 75.56
  Q 7.64 73.12 10.00 73.12
  Q 46.26 73.11 83.34 73.11
  A 0.63 0.63 0.0 0 1 83.92 73.97
  Q 83.76 74.38 83.41 74.56
  A 0.32 0.31 -31.3 0 0 83.29 75.03
  Q 83.63 75.50 84.22 75.33
  Q 84.43 75.27 84.59 75.13
  Q 84.69 75.03 84.79 74.93
  A 0.10 0.09 -66.5 0 0 84.73 74.77
  Q 84.44 74.74 84.38 74.50
  Q 84.32 74.28 84.39 74.12
  Q 84.53 73.80 84.70 74.10
  L 84.91 74.49
  Q 85.20 75.02 85.63 74.60
  Q 85.73 74.50 85.84 74.39
  Q 85.99 74.24 85.80 74.15
  Q 85.24 73.87 85.23 73.49
  Q 85.22 73.08 85.56 73.32
  L 86.74 74.15
  Q 69.63 86.51 66.61 107.34
  C 66.03 111.34 66.18 115.80 66.16 120.08
  C 66.14 125.50 64.98 132.52 65.51 137.75
  Q 66.74 150.12 66.10 158.51
  Q 65.38 167.72 55.74 167.97
  Q 43.34 168.30 39.00 168.14
  C 21.77 167.51 10.22 158.30 7.62 141.25
  Q 6.52 134.05 7.15 117.05
  L 7.43 47.79
  Z" fill="#7e92d7"></path>
<path d="M 93.07 107.00
  Q 98.22 95.43 109.12 91.37
  Q 114.04 89.53 124.66 89.31
  Q 136.13 89.07 147.64 89.27
  C 154.11 89.38 166.64 86.67 168.20 96.00
  Q 168.39 97.15 168.44 101.00
  C 168.55 110.39 169.27 119.80 168.71 129.16
  C 168.42 134.18 168.42 139.84 167.52 144.23
  C 163.60 163.29 147.66 168.46 129.95 168.17
  Q 118.16 167.98 106.37 168.19
  Q 98.30 168.33 95.76 167.30
  C 89.72 164.85 89.46 159.31 89.64 152.98
  Q 90.09 136.87 89.82 120.75
  Q 89.71 114.56 93.07 107.00
  Z" fill="#7d8bd8"></path>
<path d="M 251.25 185.93
  L 250.19 189.77
  Q 250.15 189.91 250.05 189.81
  Q 249.95 189.71 249.86 189.62
  A 0.79 0.78 64.7 0 0 249.24 189.39
  Q 246.00 189.69 242.75 189.71
  Q 210.25 189.88 177.75 189.88
  C 176.84 189.88 175.77 189.51 174.75 189.55
  Q 169.12 189.79 163.50 190.18
  Q 162.22 190.27 160.00 188.83
  Q 182.57 180.49 189.56 159.20
  Q 191.86 152.19 192.45 139.49
  Q 192.97 128.38 192.75 117.21
  C 192.64 111.56 191.83 103.08 192.85 96.61
  Q 194.00 89.39 201.74 89.40
  C 211.02 89.41 220.97 88.35 229.93 90.96
  C 243.53 94.92 249.89 104.22 250.69 117.93
  C 252.01 140.45 251.34 163.39 251.25 185.93
  Z" fill="#7c83d9"></path>
<path d="M 78.50 186.46
  C 80.99 207.83 77.14 237.66 48.61 237.61
  C 19.93 237.55 8.82 197.39 34.30 184.04
  C 44.53 178.68 59.78 177.94 71.75 179.49
  Q 77.79 180.27 78.50 186.46
  Z" fill="#745bdf"></path>
<path d="M 251.25 185.93
  Q 251.35 200.13 251.28 214.25
  C 251.17 232.40 245.06 249.51 223.25 249.51
  Q 173.06 249.51 122.87 249.52
  Q 114.73 249.52 110.76 248.11
  C 91.75 241.35 81.33 214.89 90.59 197.57
  C 93.91 191.35 101.61 192.08 107.68 191.57
  C 119.53 190.59 132.00 191.29 143.92 191.25
  C 149.59 191.24 154.62 190.07 160.00 188.83
  Q 162.22 190.27 163.50 190.18
  Q 169.12 189.79 174.75 189.55
  C 175.77 189.51 176.84 189.88 177.75 189.88
  Q 210.25 189.88 242.75 189.71
  Q 246.00 189.69 249.24 189.39
  A 0.79 0.78 64.7 0 1 249.86 189.62
  Q 249.95 189.71 250.05 189.81
  Q 250.15 189.91 250.19 189.77
  L 251.25 185.93
  Z" fill="#745bdf"></path>
</svg>
