<svg xmlns="http://www.w3.org/2000/svg" fill="none" viewBox="0 0 546 120" height="40" width="182">
<path fill="#EA6E55" d="M44.6577 19.5241C38.121 20.0932 32.2016 20.7705 26.9703 21.4737C25.2853 21.7002 23.6717 21.9294 22.1319 22.1585C15.2915 23.1763 11.8714 23.6852 8.43445 25.9233C5.74072 27.6775 2.8533 31.0612 1.55029 33.9909C-0.112219 37.7288 -0.0604347 41.3409 0.0431341 48.5651C0.147852 55.8695 0.43109 63.9723 1.06863 71.2248C1.70617 78.4773 2.84099 86.506 4.01231 93.7175C5.17077 100.85 5.75 104.416 8.03943 107.81C9.8338 110.47 13.2677 113.303 16.2266 114.565C20.0018 116.175 23.4589 116.085 30.3728 115.906C36.7615 115.739 44.3739 115.359 53.0161 114.607C61.6583 113.854 69.2213 112.913 75.5419 111.972C82.3822 110.955 85.8024 110.446 89.2393 108.208C91.7143 106.596 94.3529 103.608 95.7757 100.862C95.8857 100.649 95.9885 100.438 96.0833 100.229C96.0969 100.2 96.1103 100.17 96.1235 100.14C97.786 96.4022 97.7342 92.7901 97.6306 85.5659C97.539 79.1745 97.3107 72.1719 96.8279 65.6625C96.759 64.7326 96.6848 63.8127 96.6051 62.9061C96.0473 56.5602 95.1087 49.62 94.0981 43.1529C93.9537 42.2291 93.8079 41.3149 93.6615 40.4134C92.6478 34.1726 92.0776 30.6622 90.4172 27.6085C90.18 27.1723 89.9205 26.7453 89.6343 26.3211C87.84 23.6612 84.406 20.8278 81.4472 19.5658C77.672 17.9557 74.215 18.0456 67.301 18.2255C60.9123 18.3916 53.2999 18.7716 44.6577 19.5241Z" clip-rule="evenodd" fill-rule="evenodd"></path>
<path fill="#EA6E55" d="M101.681 100.165C102.383 99.9731 103.072 99.7329 103.773 99.4342C106.731 98.1723 110.165 95.3389 111.96 92.679C114.249 89.2852 114.828 85.719 115.987 78.5866C117.158 71.3751 118.293 63.3465 118.931 56.0939C119.568 48.8414 119.851 40.7386 119.956 33.4342C120.06 26.21 120.111 22.5979 118.449 18.86C117.146 15.9304 114.259 12.5466 111.565 10.7924C108.128 8.55429 104.708 8.04539 97.8674 7.02761C91.5468 6.08716 83.9837 5.1457 75.3415 4.3932C66.6993 3.64069 59.0869 3.26077 52.6983 3.09459C45.7843 2.91474 42.3273 2.82482 38.5521 4.43497C35.5932 5.69695 32.1593 8.53031 30.3649 11.1903C29.3524 12.6912 28.6744 14.2258 28.1328 16.0877C32.9701 15.4629 38.3431 14.8666 44.2027 14.3564C52.9576 13.5941 60.6764 13.2086 67.164 13.0398L67.9092 13.0202C74.1235 12.8552 78.6621 12.7347 83.4994 14.7978C87.3823 16.4539 91.606 19.9389 93.9608 23.4296C96.8951 27.7793 97.6453 32.4151 98.6761 38.7844L98.8059 39.5856C99.987 46.8573 101.143 55.0241 101.797 62.4539C102.45 69.8838 102.736 78.1264 102.841 85.4918L102.853 86.3031C102.936 91.8225 102.999 96.0566 101.681 100.165Z"></path>
<path fill="white" d="M28.8549 97.7806C45.4584 96.2805 59.0393 94.6771 76.0302 92.2392C82.5817 91.2992 85.8576 90.8291 86.7107 88.4948C87.5639 86.1606 85.3829 83.7341 81.0207 78.8812C77.2021 74.6331 73.6072 70.8691 69.4236 66.7283C66.2435 63.5806 64.6535 62.0068 62.7037 62.193C60.754 62.3792 59.483 64.2409 56.9411 67.9642C53.7288 72.6695 50.9782 76.6919 47.5385 81.1393C45.5491 83.7116 44.5544 84.9977 42.8493 85.2235C41.1443 85.4493 39.9519 84.5467 37.5671 82.7414C37.0689 82.3643 36.5903 81.9915 36.1164 81.6224L36.1155 81.6218C35.3269 81.0076 34.5513 80.4036 33.721 79.8071C31.5043 78.2146 30.3959 77.4184 28.7562 77.6316C27.1164 77.8448 26.1031 79.0775 24.0764 81.5427L21.7606 84.3597C16.4605 90.8068 13.8105 94.0304 15.1098 96.4677C16.4092 98.905 20.5577 98.5302 28.8549 97.7806Z"></path>
<path fill="white" d="M35.7725 63.73C28.1903 63.4488 21.8656 57.096 22.2869 49.6074C22.6474 43.1978 28.1498 37.8644 34.4884 38.2659C39.7881 38.6017 44.0972 43.1248 43.6228 48.2511C43.2383 52.4068 39.5837 55.7125 35.6425 55.2564C32.5745 54.9013 30.3106 52.1944 30.7871 49.499C30.9439 48.6119 31.4714 47.7476 32.1837 47.1936C32.8694 46.6604 33.6216 46.4812 34.3604 46.6819C34.4452 46.705 34.5457 46.7446 34.6529 46.8027C33.6527 47.0144 32.9169 47.9179 32.9536 48.9673C32.9823 49.7889 33.328 50.7538 34.2828 51.3191C35.1041 51.8053 35.9571 51.7341 36.451 51.63C36.9899 51.5165 37.4833 51.2885 37.8804 51.0319C38.2512 50.7923 38.7271 50.406 39.0538 49.8513C40.0762 48.1158 39.6925 46.3223 38.8881 45.0712C38.1191 43.8753 36.8581 42.9531 35.5118 42.5873C33.2627 41.9762 31.1405 42.6385 29.5738 43.8569C28.0338 45.0546 26.9309 46.8521 26.5877 48.7938C25.5966 54.4011 30.1844 58.9008 35.119 59.4719C41.8442 60.2502 47.3018 54.7376 47.8689 48.6092C48.592 40.794 42.1408 34.4962 34.7908 34.0306C25.8089 33.4616 18.5075 40.9034 18.0295 49.4016C17.4625 59.4814 25.1479 66.6318 34.8621 66.9921C40.0429 67.1842 47.7345 63.9069 50 55.5044C47.1499 60.5157 41.7805 63.9528 35.7725 63.73Z"></path>
<path fill="#49494A" d="M502.256 86.6109C502.025 86.9807 501.749 87.3505 501.426 87.7203C501.15 88.0438 500.827 88.3674 500.458 88.6909C499.813 89.3843 499.053 90.0083 498.177 90.5629C497.716 90.7941 497.232 91.0252 496.725 91.2563C496.264 91.4874 495.78 91.6723 495.273 91.8109C494.997 91.9034 494.72 91.9496 494.444 91.9496L493.614 92.0883H492.646C492.415 92.0883 492.07 92.0421 491.609 91.9496C491.24 91.8572 490.872 91.7416 490.503 91.6029C490.18 91.4643 489.858 91.3025 489.535 91.1176C488.797 90.6554 488.267 90.2163 487.945 89.8003C487.576 89.3843 487.23 88.922 486.908 88.4136C486.723 88.1825 486.562 87.9514 486.424 87.7203C486.332 87.4891 486.216 87.258 486.078 87.0269C485.617 86.01 485.272 85.0856 485.041 84.2536C484.764 83.4678 484.557 82.6127 484.419 81.6882C484.188 80.81 484.027 79.9549 483.935 79.1229C483.843 78.2447 483.75 77.3896 483.658 76.5576L483.52 74.8936C483.52 74.3389 483.497 73.8073 483.451 73.2989C483.359 73.4838 483.22 73.8073 483.036 74.2695C482.806 74.6393 482.598 75.0322 482.414 75.4482C482.276 75.818 482.091 76.1878 481.861 76.5576C481.63 76.9736 481.423 77.3896 481.239 77.8056C481.054 78.1753 480.847 78.5451 480.616 78.9149C480.386 79.2847 480.155 79.6776 479.925 80.0936C479.741 80.4633 479.533 80.8331 479.303 81.2029C478.934 81.9425 478.473 82.682 477.92 83.4216C477.69 83.7914 477.436 84.1611 477.16 84.5309C476.929 84.9007 476.676 85.2705 476.399 85.6403C476.122 86.01 475.823 86.3798 475.5 86.7496C475.224 87.0731 474.924 87.4198 474.601 87.7896C474.233 88.1594 473.864 88.5061 473.495 88.8296C473.173 89.1532 472.804 89.4767 472.389 89.8003C472.159 89.9852 471.928 90.1469 471.698 90.2856L471.006 90.7016C470.545 90.979 469.969 91.1869 469.278 91.3256C469.186 91.3718 469.094 91.3949 469.001 91.3949C468.955 91.3949 468.886 91.4181 468.794 91.4643H468.517L468.379 91.5336H467.273C466.582 91.5336 465.89 91.3949 465.199 91.1176C464.554 90.8403 463.931 90.4474 463.332 89.9389L462.641 89.2456C462.41 89.0145 462.203 88.7603 462.019 88.4829C461.604 87.9283 461.304 87.3967 461.12 86.8883C460.982 86.6571 460.843 86.4029 460.705 86.1256C460.613 85.8482 460.521 85.594 460.429 85.3629C460.29 84.8545 460.175 84.346 460.083 83.8376C459.945 83.2829 459.829 82.7514 459.737 82.2429C459.645 81.7345 459.599 81.2491 459.599 80.7869L459.461 79.2616V77.8056C459.461 77.5744 459.484 77.3433 459.53 77.1122V76.3495L459.532 76.3282C459.452 76.4745 459.395 76.5971 459.362 76.6962C459.132 77.2047 458.878 77.69 458.602 78.1522C458.325 78.6144 458.049 79.0998 457.772 79.6082C457.45 80.1167 457.15 80.602 456.873 81.0642C456.597 81.5265 456.297 81.9887 455.975 82.4509C455.79 82.682 455.629 82.9131 455.491 83.1442C455.352 83.3754 455.191 83.6065 455.007 83.8376L454.454 84.5309C454.315 84.762 454.154 84.9931 453.97 85.2242L452.864 86.6109C452.541 87.0269 452.172 87.466 451.757 87.9283C450.882 88.8989 449.96 89.7309 448.992 90.4243C448.715 90.6554 448.439 90.8634 448.162 91.0483C447.886 91.2332 447.586 91.418 447.264 91.6029C446.941 91.7416 446.595 91.8803 446.226 92.0189C445.858 92.2038 445.466 92.3425 445.051 92.4349L444.36 92.5736C444.129 92.6198 443.899 92.643 443.668 92.643H442.908C442.77 92.643 442.631 92.6198 442.493 92.5736C442.355 92.5736 442.194 92.5505 442.009 92.5043C441.871 92.4581 441.71 92.4118 441.525 92.3656C441.387 92.3656 441.249 92.3194 441.11 92.2269L440.557 91.9496C440.419 91.9034 440.258 91.8341 440.073 91.7416C439.889 91.6029 439.612 91.3487 439.244 90.9789C439.105 90.8865 438.967 90.7478 438.829 90.5629L438.552 90.1469C438.184 89.5461 437.93 89.0145 437.792 88.5523C437.7 88.2749 437.631 88.0438 437.584 87.8589L437.446 87.1656C437.354 86.7034 437.308 86.2874 437.308 85.9176V84.8082C437.354 84.4385 437.377 84.0918 437.377 83.7682C437.377 83.4447 437.4 83.1211 437.446 82.7976C437.492 82.474 437.538 82.1736 437.584 81.8962C437.631 81.5727 437.677 81.2722 437.723 80.9949C437.815 80.3478 437.907 79.7469 437.999 79.1922L439.244 74.2002L440.073 71.0109C440.396 69.9477 440.696 68.8846 440.972 67.8215C441.11 67.3131 441.226 66.8046 441.318 66.2962L441.733 64.7708C441.871 64.2624 441.986 63.7771 442.078 63.3148C442.217 62.8064 442.332 62.3211 442.424 61.8588C442.47 61.6277 442.539 61.3273 442.631 60.9575C442.539 60.9575 442.47 60.9806 442.424 61.0268H442.355C442.078 61.1193 441.871 61.2117 441.733 61.3042C441.502 61.3966 441.295 61.5122 441.11 61.6508C440.926 61.7433 440.719 61.8357 440.488 61.9282C440.073 62.1593 439.659 62.4135 439.244 62.6908C438.829 62.9682 438.437 63.2917 438.068 63.6615C437.884 63.8002 437.7 63.962 437.515 64.1468L436.409 65.2562C436.271 65.4411 436.11 65.626 435.925 65.8108C435.28 66.5966 434.635 67.4286 433.989 68.3069C433.39 69.1389 432.791 69.994 432.192 70.8722C431.961 71.2882 431.662 71.7504 431.293 72.2589L430.463 73.6455C430.233 74.1078 429.979 74.57 429.703 75.0322C429.426 75.4482 429.173 75.9104 428.942 76.4189L427.421 79.3309C426.961 80.3016 426.523 81.2722 426.108 82.2429C425.877 82.7514 425.67 83.2598 425.486 83.7682C425.301 84.2305 425.094 84.7158 424.863 85.2242C424.771 85.4554 424.679 85.7096 424.587 85.9869C424.495 86.2643 424.402 86.5185 424.31 86.7496C424.218 86.9807 424.126 87.2349 424.034 87.5123C423.988 87.7896 423.919 88.0438 423.826 88.2749C423.78 88.2749 423.757 88.298 423.757 88.3443L423.619 89.0376C423.388 90.3781 422.72 91.418 421.614 92.1576C420.554 92.9434 419.356 93.2207 418.019 92.9896C416.682 92.7585 415.645 92.0883 414.908 90.9789C414.17 89.8696 413.917 88.6447 414.147 87.3043C414.147 87.1194 414.17 86.9807 414.216 86.8883L414.66 85.2722C414.332 85.8193 413.987 86.358 413.626 86.8883C413.119 87.7203 412.427 88.5754 411.551 89.4536C411.09 90.0083 410.63 90.4243 410.169 90.7016C409.938 90.9327 409.662 91.1407 409.339 91.3256C409.016 91.5105 408.671 91.6723 408.302 91.8109C407.887 91.9958 407.495 92.1114 407.127 92.1576C407.081 92.2038 407.035 92.2269 406.988 92.2269H406.643V92.2963H406.228C406.182 92.3425 406.113 92.3656 406.021 92.3656C405.375 92.458 404.684 92.458 403.946 92.3656C403.578 92.3194 403.209 92.2501 402.84 92.1576C402.472 92.1114 402.08 91.9958 401.665 91.8109C400.928 91.5336 400.213 91.0945 399.522 90.4936C398.83 89.8927 398.3 89.2687 397.932 88.6216C397.471 87.9745 397.148 87.3043 396.964 86.6109C396.687 86.01 396.48 85.386 396.341 84.7389C396.249 84.4154 396.18 84.1149 396.134 83.8376C396.134 83.514 396.111 83.1905 396.065 82.8669L395.927 82.0349V81.2029C395.834 81.434 395.742 81.642 395.65 81.8269L395.374 82.3816C395.189 82.7514 395.005 83.1442 394.82 83.5602C394.636 83.93 394.429 84.2998 394.198 84.6696C393.83 85.4091 393.369 86.1487 392.816 86.8883C392.539 87.258 392.262 87.6047 391.986 87.9283C391.709 88.298 391.387 88.6678 391.018 89.0376C390.834 89.2225 390.649 89.3843 390.465 89.5229C390.281 89.6616 390.073 89.8234 389.843 90.0083C389.428 90.2856 388.944 90.5629 388.391 90.8403C388.16 90.9327 387.907 91.0252 387.63 91.1176C387.354 91.2101 387.054 91.2794 386.732 91.3256H386.593C386.593 91.3718 386.547 91.3949 386.455 91.3949H385.833C385.648 91.4412 385.487 91.4412 385.349 91.3949H384.865C384.588 91.3487 384.289 91.2794 383.966 91.1869C383.643 91.1407 383.321 91.0483 382.998 90.9096C382.353 90.6323 381.8 90.2625 381.339 89.8003C380.832 89.3843 380.44 88.922 380.164 88.4136C379.979 88.1825 379.818 87.9283 379.68 87.6509C379.541 87.3736 379.426 87.1194 379.334 86.8883C379.104 86.3798 378.942 85.8945 378.85 85.4323C378.712 84.97 378.597 84.4847 378.504 83.9763C378.412 83.514 378.366 83.0518 378.366 82.5896L378.228 81.2029V79.8856C378.228 79.4233 378.251 78.9611 378.297 78.4989C378.315 78.1569 378.34 77.8183 378.372 77.4833C378.046 77.8873 377.701 78.2721 377.336 78.6376C376.138 80.0242 374.732 81.3878 373.119 82.7282C370.123 85.178 366.735 87.1194 362.956 88.5523C362.034 88.922 361.089 89.2456 360.121 89.5229C359.199 89.8465 358.254 90.1238 357.287 90.3549C356.365 90.5861 355.397 90.7941 354.383 90.9789C353.415 91.1638 352.447 91.3025 351.479 91.3949C351.249 91.4412 350.995 91.4643 350.719 91.4643C350.442 91.5105 350.189 91.5567 349.958 91.6029H349.198C349.059 91.6492 348.806 91.6723 348.437 91.6723C347.93 91.7185 347.4 91.7416 346.847 91.7416C346.34 91.7416 345.81 91.6954 345.257 91.6029C344.197 91.5105 343.114 91.3718 342.008 91.1869C341.454 91.0483 340.901 90.8865 340.348 90.7016C339.841 90.5629 339.311 90.3781 338.758 90.1469C338.251 89.9158 337.721 89.6847 337.168 89.4536C336.661 89.2225 336.154 88.9452 335.647 88.6216C335.14 88.298 334.656 87.9745 334.195 87.6509C333.734 87.2812 333.296 86.8883 332.882 86.4723C332.421 86.1025 331.983 85.7096 331.568 85.2936C331.199 84.8776 330.83 84.4154 330.462 83.9069C330.093 83.4447 329.747 82.9825 329.425 82.5202C329.102 82.058 328.803 81.5727 328.526 81.0642C327.973 80.0473 327.489 79.0073 327.074 77.9442C326.705 76.8811 326.383 75.818 326.106 74.7549C325.83 73.6918 325.622 72.6287 325.484 71.5655C325.346 70.5024 325.23 69.4393 325.138 68.3762C325.042 67.2677 324.996 66.1718 325 65.0885C325.004 64.0938 325.05 63.1097 325.138 62.1362C325.323 60.0562 325.622 57.9762 326.037 55.8961C326.267 54.8793 326.498 53.8855 326.728 52.9148C326.959 51.9441 327.258 50.9735 327.627 50.0028C327.904 49.0321 328.249 48.0614 328.664 47.0908C328.987 46.2125 329.379 45.2881 329.84 44.3174C330.254 43.393 330.692 42.4916 331.153 41.6134C331.614 40.689 332.098 39.7876 332.605 38.9094C333.112 38.0312 333.642 37.1761 334.195 36.3441C334.748 35.4658 335.347 34.6338 335.993 33.8481C337.237 32.0916 338.551 30.52 339.933 29.1334C340.625 28.44 341.362 27.7698 342.146 27.1227C342.929 26.4294 343.736 25.7823 344.566 25.1814C345.395 24.5805 346.248 24.0258 347.124 23.5174C347.999 23.0089 348.898 22.5467 349.82 22.1307C350.281 21.8996 350.719 21.6916 351.133 21.5067C351.594 21.3218 352.078 21.1138 352.585 20.8827C353.046 20.6978 353.507 20.536 353.968 20.3973C354.429 20.2587 354.913 20.12 355.42 19.9813C356.388 19.704 357.356 19.4729 358.324 19.288C359.292 19.0569 360.259 18.8951 361.227 18.8027C362.195 18.664 363.186 18.5947 364.2 18.5947C365.168 18.5484 366.136 18.5484 367.104 18.5947L368.625 18.7333C369.132 18.7333 369.639 18.7796 370.146 18.872C370.653 18.9644 371.137 19.0569 371.598 19.1493C372.105 19.1956 372.612 19.288 373.119 19.4267C374.179 19.704 375.193 20.0738 376.161 20.536C376.668 20.7671 377.152 21.0213 377.613 21.2987C378.074 21.576 378.534 21.8996 378.995 22.2694C379.871 22.9627 380.678 23.8178 381.415 24.8347C381.784 25.3431 382.106 25.8747 382.383 26.4294C382.66 26.9378 382.913 27.4694 383.143 28.024C383.512 29.1334 383.743 30.3583 383.835 31.6987C383.835 32.3458 383.812 32.9698 383.766 33.5707C383.72 34.1716 383.627 34.7725 383.489 35.3734C383.259 36.6676 382.89 37.8232 382.383 38.8401C381.876 40.0419 381.3 41.0819 380.655 41.9601C380.009 42.8845 379.272 43.7628 378.442 44.5948C377.659 45.4268 376.829 46.1894 375.953 46.8828C374.248 48.2232 372.381 49.3557 370.353 50.2801C369.846 50.5112 369.339 50.7192 368.832 50.9041C368.371 51.089 367.887 51.297 367.38 51.5281C367.15 51.6206 366.897 51.713 366.62 51.8055C366.343 51.8517 366.09 51.921 365.859 52.0135L365.445 52.1521C365.352 52.1521 365.237 52.1752 365.099 52.2215L364.684 52.2908L364.338 52.4295C363.14 52.7068 362.011 52.545 360.951 51.9441C359.937 51.297 359.292 50.3726 359.015 49.1708C358.692 48.0152 358.831 46.929 359.43 45.9121C360.029 44.8952 360.882 44.2019 361.988 43.8321H362.057L362.679 43.6241L363.301 43.4854C363.486 43.393 363.67 43.3236 363.855 43.2774C364.039 43.2312 364.246 43.1619 364.477 43.0694L366.758 42.2374C367.127 42.0525 367.473 41.8908 367.795 41.7521L368.901 41.1974C369.27 41.0125 369.616 40.8276 369.938 40.6428C370.261 40.4579 370.607 40.2499 370.976 40.0188C371.621 39.6027 372.22 39.1636 372.773 38.7014C373.326 38.193 373.833 37.6614 374.294 37.1067C375.216 36.0436 375.93 34.865 376.437 33.5707C376.668 32.9236 376.806 32.2765 376.852 31.6294C376.944 30.9823 376.944 30.3352 376.852 29.688C376.76 28.9485 376.622 28.2783 376.437 27.6774C376.253 26.984 375.93 26.3138 375.469 25.6667C375.008 24.9734 374.525 24.3725 374.018 23.864C373.695 23.5405 373.372 23.2631 373.05 23.032C372.727 22.8009 372.381 22.5698 372.013 22.3387C371.229 21.8765 370.422 21.5298 369.593 21.2987C368.763 21.0213 367.887 20.8365 366.966 20.744C366.044 20.6978 365.145 20.6978 364.269 20.744L362.887 20.8827C362.472 20.9289 362.034 20.9982 361.573 21.0907C359.776 21.4605 358.093 22.0151 356.526 22.7547L355.282 23.448L354.175 24.1414C353.392 24.6498 352.678 25.1583 352.032 25.6667C351.341 26.2676 350.673 26.8685 350.027 27.4694C349.428 28.0703 348.829 28.6943 348.23 29.3414C347.031 30.6818 345.925 32.0685 344.911 33.5014C344.404 34.1947 343.92 34.9112 343.459 35.6507C342.998 36.3441 342.538 37.0836 342.077 37.8694C341.155 39.3947 340.348 40.9663 339.657 42.5841C338.966 44.2019 338.343 45.8197 337.79 47.4374L337.375 48.6854C337.237 49.1015 337.122 49.5406 337.03 50.0028L336.615 51.2508L336.338 52.4988C336.108 53.377 335.923 54.2321 335.785 55.0641C335.647 55.8961 335.509 56.7513 335.37 57.6295C335.232 58.4615 335.117 59.3166 335.025 60.1948L334.886 62.6908C334.748 64.4011 334.748 66.0882 334.886 67.7522C334.979 69.4162 335.186 71.0109 335.509 72.5362C335.693 73.322 335.877 74.0847 336.062 74.8242C336.292 75.5638 336.546 76.2802 336.822 76.9736C337.375 78.4064 338.067 79.7007 338.896 80.8562C339.68 82.0118 340.694 83.0518 341.938 83.9763C342.261 84.2074 342.584 84.4154 342.906 84.6003C343.229 84.7851 343.575 84.9469 343.943 85.0856C344.312 85.2705 344.681 85.4323 345.049 85.5709C345.418 85.7096 345.81 85.8483 346.225 85.9869C346.594 86.0794 346.985 86.1718 347.4 86.2643C347.815 86.3105 348.23 86.3798 348.645 86.4723C348.737 86.4723 348.829 86.4954 348.921 86.5416H349.267L349.612 86.6109H349.958C350.189 86.6572 350.396 86.6803 350.58 86.6803H351.272C352.194 86.7727 353.092 86.8189 353.968 86.8189C354.844 86.7727 355.743 86.7034 356.664 86.6109C358.416 86.426 360.167 86.0794 361.919 85.5709C363.67 85.0625 365.352 84.4154 366.966 83.6296C368.579 82.7976 370.123 81.85 371.598 80.7869C373.119 79.6313 374.455 78.4065 375.608 77.1122C375.93 76.7424 376.23 76.3958 376.506 76.0722C376.829 75.7024 377.106 75.3327 377.336 74.9629C377.382 74.8704 377.497 74.7087 377.682 74.4775L378.235 73.7842C378.465 73.5069 378.673 73.2527 378.857 73.0215C378.965 72.8596 379.049 72.7291 379.109 72.6302C379.229 72.0211 379.373 71.412 379.541 70.8029L380.233 68.3069C380.832 66.5504 381.454 64.9095 382.099 63.3842C382.468 62.5984 382.86 61.8126 383.275 61.0268C383.69 60.241 384.15 59.4553 384.657 58.6695C385.118 57.9299 385.671 57.1673 386.317 56.3815C386.639 56.0117 386.962 55.665 387.285 55.3415C387.607 54.9717 387.953 54.6019 388.322 54.2321C388.967 53.585 389.797 52.9379 390.811 52.2908C391.686 51.6899 392.746 51.2046 393.991 50.8348C394.59 50.6037 395.212 50.465 395.858 50.4188C396.503 50.3263 397.148 50.2801 397.793 50.2801C399.038 50.3726 400.282 50.6268 401.527 51.0428C402.541 51.4126 403.578 51.9441 404.638 52.6375C404.868 52.8224 405.076 53.0072 405.26 53.1921C405.491 53.3308 405.698 53.4926 405.882 53.6775C406.159 53.8624 406.366 54.0241 406.504 54.1628C406.643 54.209 406.735 54.3015 406.781 54.4401L407.058 54.6481C408.025 55.5726 408.532 56.6819 408.579 57.9762C408.625 59.2704 408.21 60.4028 407.334 61.3735C406.412 62.2979 405.306 62.8064 404.016 62.8988C402.725 62.9451 401.619 62.5059 400.697 61.5815C400.605 61.5353 400.536 61.4891 400.49 61.4428C400.49 61.3966 400.444 61.3504 400.351 61.3042L400.282 61.1655L400.075 60.9575C400.029 60.8651 399.983 60.8188 399.937 60.8188L399.245 60.1255C399.015 59.9406 398.807 59.8019 398.623 59.7095C398.485 59.5708 398.323 59.4553 398.139 59.3628C397.955 59.2704 397.793 59.201 397.655 59.1548C397.517 59.1086 397.379 59.0855 397.24 59.0855C396.918 59.0393 396.595 59.0393 396.272 59.0855C395.858 59.0855 395.443 59.2242 395.028 59.5015C394.797 59.5939 394.567 59.7095 394.337 59.8482C394.106 59.9868 393.876 60.1486 393.645 60.3335C393.138 60.7033 392.654 61.1424 392.193 61.6508C391.778 62.1131 391.341 62.5984 390.88 63.1068C390.465 63.6615 390.05 64.2393 389.635 64.8402C389.267 65.3948 388.898 65.9957 388.529 66.6428C388.16 67.29 387.815 67.9602 387.492 68.6535C387.216 69.3006 386.916 69.9478 386.593 70.5949C385.994 72.0278 385.51 73.4375 385.141 74.8242C384.911 75.5176 384.704 76.234 384.519 76.9736C384.381 77.6669 384.266 78.3833 384.174 79.1229C384.081 79.4927 384.012 79.8393 383.966 80.1629C383.966 80.4864 383.943 80.8331 383.897 81.2029V82.2429C383.897 82.5665 383.92 82.9131 383.966 83.2829C383.966 83.6065 383.989 83.93 384.035 84.2536C384.081 84.5309 384.15 84.7851 384.243 85.0163L384.381 85.4323L384.657 85.9869C384.704 86.0331 384.75 86.1025 384.796 86.1949C384.888 86.2411 385.003 86.3336 385.141 86.4723L385.556 86.6109C385.602 86.6109 385.625 86.634 385.625 86.6803H386.109C386.248 86.6803 386.455 86.634 386.732 86.5416C387.192 86.4491 387.676 86.1949 388.183 85.7789C388.414 85.5478 388.644 85.3398 388.875 85.1549C389.151 84.9238 389.405 84.6696 389.635 84.3923L390.327 83.5602C390.557 83.2829 390.788 82.9825 391.018 82.6589L392.262 80.7869C392.631 80.1398 393 79.4696 393.369 78.7762C393.737 78.0829 394.106 77.3664 394.475 76.6269C395.12 75.3327 395.742 73.8998 396.341 72.3282L396.618 71.6349C396.71 71.3575 396.802 71.1033 396.895 70.8722C396.987 70.41 397.079 70.0633 397.171 69.8322L397.309 69.1389C397.355 68.8615 397.425 68.5842 397.517 68.3069C397.563 68.1682 397.632 67.914 397.724 67.5442L397.862 67.1282C397.909 67.0357 397.932 66.9664 397.932 66.9202C397.932 66.874 397.955 66.8046 398.001 66.7122V66.5735C398.462 65.3255 399.268 64.4011 400.421 63.8002C401.619 63.1993 402.863 63.1068 404.154 63.5228C405.444 63.9388 406.389 64.7477 406.988 65.9495C407.588 67.1051 407.68 68.33 407.265 69.6242C407.173 69.8091 407.127 69.9477 407.127 70.0402L406.85 70.5949L406.643 71.2189C406.551 71.45 406.458 71.658 406.366 71.8429C406.32 72.0278 406.251 72.2358 406.159 72.4669L405.744 73.7149C405.606 74.1309 405.467 74.57 405.329 75.0322C405.237 75.4482 405.122 75.8642 404.984 76.2802C404.845 76.6962 404.73 77.1353 404.638 77.5976C404.592 77.8287 404.546 78.0367 404.5 78.2216C404.453 78.4064 404.407 78.6145 404.361 78.8456L404.154 80.0936C404.062 80.5096 403.993 80.9256 403.946 81.3416C403.9 81.7114 403.877 82.0811 403.877 82.4509C403.785 82.8207 403.785 83.1673 403.877 83.4909C403.877 83.9531 403.9 84.2767 403.946 84.4616C403.946 84.6465 403.993 84.8776 404.085 85.1549C404.177 85.3398 404.223 85.4785 404.223 85.5709C404.269 85.6634 404.361 85.7789 404.5 85.9176C404.546 85.9638 404.707 86.0563 404.984 86.1949C405.26 86.2874 405.537 86.3336 405.813 86.3336C405.905 86.3336 405.974 86.3567 406.021 86.4029H406.366C406.458 86.3567 406.574 86.3336 406.712 86.3336C406.85 86.2874 406.988 86.218 407.127 86.1256L407.542 85.8483C407.68 85.7558 407.841 85.6634 408.025 85.5709C408.348 85.3398 408.648 85.0856 408.924 84.8082C409.247 84.5309 409.546 84.2074 409.823 83.8376C410.468 83.1905 411.067 82.5202 411.621 81.8269L412.45 80.7176C412.773 80.3016 413.049 79.9087 413.28 79.5389L413.695 78.9842C413.833 78.7993 413.971 78.5913 414.109 78.3602C414.432 77.9904 414.686 77.5976 414.87 77.1816C415.008 76.9504 415.147 76.7424 415.285 76.5576C415.423 76.3727 415.538 76.1647 415.63 75.9335C415.953 75.5638 416.207 75.1709 416.391 74.7549C416.529 74.5238 416.644 74.3158 416.737 74.1309C416.875 73.946 417.013 73.738 417.151 73.5069L417.843 72.2589V72.1895C417.99 72.0055 418.166 71.8654 418.371 71.7693L423.342 53.6775C423.573 52.7992 424.08 52.1521 424.863 51.7361C425.647 51.2739 426.477 51.1584 427.352 51.3895C428.182 51.6206 428.827 52.1059 429.288 52.8455C429.749 53.5388 429.91 54.3015 429.772 55.1335L426.177 74.8936L426.73 73.5069C426.914 73.0446 427.099 72.5593 427.283 72.0509C427.375 71.8198 427.468 71.5655 427.56 71.2882C427.698 71.0109 427.813 70.7566 427.905 70.5255C427.998 70.2482 428.113 69.994 428.251 69.7629C428.389 69.4855 428.505 69.2082 428.597 68.9309L429.979 65.8802C430.486 64.8633 431.016 63.8464 431.57 62.8295C431.662 62.5984 431.777 62.3673 431.915 62.1362C432.1 61.8588 432.261 61.5815 432.399 61.3042L433.229 59.7788C433.551 59.2704 433.851 58.7619 434.128 58.2535C434.45 57.6988 434.796 57.1441 435.165 56.5895C435.349 56.3584 435.533 56.1041 435.718 55.8268L436.271 54.9948C436.501 54.7637 436.732 54.5095 436.962 54.2321C437.193 53.9548 437.423 53.7006 437.654 53.4695C438.114 53.0072 438.668 52.5219 439.313 52.0135C439.82 51.5512 440.488 51.1352 441.318 50.7655C441.686 50.5806 442.055 50.4188 442.424 50.2801C442.839 50.0952 443.254 49.9566 443.668 49.8641C443.899 49.8179 444.106 49.7717 444.291 49.7255L444.982 49.5868C445.305 49.5868 445.535 49.5637 445.673 49.5175H446.918C447.148 49.5175 447.333 49.5406 447.471 49.5868C447.701 49.5868 447.909 49.6099 448.093 49.6561L448.784 49.7948C449.245 49.9335 449.706 50.1415 450.167 50.4188C450.536 50.6037 450.974 50.9041 451.481 51.3201C451.711 51.505 451.896 51.6899 452.034 51.8748L452.587 52.4295C452.725 52.6606 452.84 52.8686 452.933 53.0535C453.071 53.2384 453.186 53.4464 453.278 53.6775C453.509 54.0472 453.67 54.417 453.762 54.7868L454.039 55.7575C454.177 56.4046 454.246 56.9593 454.246 57.4215C454.338 57.9299 454.338 58.3922 454.246 58.8082C454.246 59.6402 454.177 60.4028 454.039 61.0962C453.947 61.4197 453.878 61.7433 453.831 62.0668C453.785 62.3904 453.716 62.7139 453.624 63.0375C453.532 63.3611 453.44 63.6615 453.348 63.9388C453.255 64.2162 453.163 64.5166 453.071 64.8402L452.518 66.5042C452.333 67.0589 452.126 67.5904 451.896 68.0989C451.665 68.6535 451.435 69.1851 451.204 69.6935C451.02 70.202 450.813 70.7104 450.582 71.2189C450.121 72.282 449.66 73.2989 449.199 74.2695L446.71 80.0936C446.342 80.9718 445.973 81.9193 445.604 82.9362C445.328 83.7682 445.189 84.346 445.189 84.6696C445.235 84.9931 445.374 85.1549 445.604 85.1549C445.881 85.1087 446.249 84.97 446.71 84.7389C447.171 84.5078 447.678 84.2767 448.231 84.0456C448.462 83.9069 448.669 83.7682 448.854 83.6296C449.038 83.4447 449.222 83.2829 449.407 83.1442L450.651 82.1042C451.435 81.4109 452.195 80.6945 452.933 79.9549C453.67 79.2153 454.408 78.4527 455.145 77.6669C455.514 77.2971 455.859 76.9042 456.182 76.4882L457.288 75.2402C457.473 75.0553 457.772 74.6624 458.187 74.0615C458.602 73.4144 458.901 72.9753 459.086 72.7442L459.639 72.1202L460.123 71.4962H460.192C460.219 71.4534 460.247 71.4138 460.275 71.3776C460.324 71.1629 460.375 70.9482 460.429 70.7335C460.659 69.8091 460.913 68.8846 461.189 67.9602C461.281 67.7291 461.35 67.498 461.396 67.2669L461.673 66.5735C461.765 66.2962 461.857 66.0882 461.95 65.9495L462.226 65.2562C462.457 64.794 462.664 64.3548 462.848 63.9388L463.54 62.5522C464.6 60.7495 465.798 59.1548 467.135 57.7681L468.172 56.7281C468.541 56.3584 468.932 56.0117 469.347 55.6881C469.531 55.5033 469.716 55.3415 469.9 55.2028C470.085 55.0641 470.292 54.9024 470.522 54.7175C470.753 54.5788 470.96 54.4401 471.145 54.3015L471.836 53.8855C472.113 53.7006 472.343 53.5619 472.527 53.4695C472.758 53.377 472.988 53.2615 473.219 53.1228L473.91 52.8455C474.187 52.7068 474.463 52.5912 474.74 52.4988C474.97 52.4064 475.224 52.337 475.5 52.2908C475.777 52.1983 476.076 52.1059 476.399 52.0135C476.676 51.921 476.952 51.8748 477.229 51.8748C477.505 51.8286 477.828 51.7824 478.197 51.7361C478.519 51.6899 478.819 51.6899 479.095 51.7361C479.418 51.7361 479.764 51.7592 480.132 51.8055C480.87 51.9441 481.538 52.1521 482.137 52.4295C482.46 52.6144 482.76 52.8224 483.036 53.0535C483.359 53.2384 483.635 53.4464 483.866 53.6775C484.142 53.8624 484.35 54.1166 484.488 54.4401C484.626 54.5788 484.788 54.7868 484.972 55.0641C485.433 52.1521 485.986 49.2632 486.631 46.3974C487.276 43.5317 488.06 40.689 488.982 37.8694C489.489 36.2978 490.019 34.7494 490.572 33.2241C491.171 31.6525 491.839 30.104 492.577 28.5787L493.683 26.36C494.098 25.6205 494.559 24.8809 495.066 24.1414C495.296 23.7716 495.527 23.4249 495.757 23.1014C496.034 22.7778 496.31 22.4311 496.587 22.0613C497.186 21.3218 497.808 20.6285 498.453 19.9813L499.007 19.5653C499.191 19.3804 499.375 19.2187 499.56 19.08C499.79 18.8951 499.997 18.7333 500.182 18.5947C500.366 18.456 500.574 18.3173 500.804 18.1787L501.495 17.7627C501.772 17.624 502.025 17.5084 502.256 17.416C502.809 17.2311 503.408 17.0924 504.053 17H505.505C505.598 17.0462 505.667 17.0693 505.713 17.0693C505.805 17.0693 505.897 17.0924 505.989 17.1387C506.358 17.1849 506.727 17.3235 507.095 17.5547C507.418 17.7396 507.718 18.0169 507.994 18.3867C508.225 18.6178 508.409 18.9182 508.547 19.288C508.732 19.6578 508.847 19.9351 508.893 20.12C508.939 20.2587 508.962 20.3973 508.962 20.536C508.962 20.6747 508.985 20.8133 509.031 20.952V22.3387C509.031 22.5698 509.008 22.8009 508.962 23.032C508.962 23.2631 508.939 23.4942 508.893 23.7254C508.893 23.9102 508.87 24.1182 508.824 24.3494L508.547 25.5974C508.455 26.0134 508.363 26.4063 508.271 26.776C508.179 27.192 508.063 27.608 507.925 28.024C507.833 28.3938 507.718 28.7636 507.579 29.1334C507.579 29.272 507.533 29.48 507.441 29.7574L507.234 30.312C507.142 30.5432 507.072 30.7512 507.026 30.9361C507.026 31.0747 506.98 31.2596 506.888 31.4907C506.658 32.2303 506.404 32.9698 506.128 33.7094C505.851 34.4489 505.574 35.2116 505.298 35.9974C505.067 36.7832 504.814 37.5459 504.537 38.2854C504.261 38.9787 503.984 39.7183 503.708 40.5041C503.109 41.9832 502.532 43.4854 501.979 45.0108C501.426 46.4899 500.827 47.969 500.182 49.4481L499.214 51.6668C498.937 52.3601 498.615 53.0997 498.246 53.8855L497.278 56.1041C496.955 56.7975 496.61 57.537 496.241 58.3228L495.135 60.5415C494.812 61.2348 494.467 61.9744 494.098 62.7602L492.992 64.9788L492.369 66.0882L492.093 66.6428C492.093 66.9202 492.07 67.1282 492.024 67.2669C491.932 68.0526 491.862 68.8153 491.816 69.5549C491.816 70.2944 491.77 71.034 491.678 71.7735C491.632 72.5593 491.586 73.322 491.54 74.0615C491.54 74.8011 491.517 75.5407 491.471 76.2802V78.4989C491.471 79.1922 491.517 79.8856 491.609 80.5789C491.609 81.3185 491.678 81.9887 491.816 82.5896C491.909 83.3291 492.047 83.93 492.231 84.3923C492.369 84.9931 492.554 85.4091 492.784 85.6403L492.923 85.9176L493.13 86.1256H494.029C494.49 86.0794 494.997 85.9407 495.55 85.7096C496.057 85.4785 496.541 85.178 497.002 84.8082C497.509 84.4385 498.016 83.9994 498.523 83.4909C499.03 82.9825 499.49 82.4509 499.905 81.8962C500.366 81.3416 500.781 80.7407 501.15 80.0936C501.979 78.8456 502.74 77.5282 503.431 76.1416C503.616 75.7718 503.777 75.4251 503.915 75.1015C504.053 74.778 504.215 74.4313 504.399 74.0615C504.491 73.8767 504.56 73.7149 504.607 73.5762L504.883 73.0215L505.04 72.6535L505.187 71.7735C505.233 71.5886 505.256 71.4038 505.256 71.2189L505.394 70.6642C505.532 69.786 505.694 69.0233 505.878 68.3762C506.108 67.5442 506.339 66.8046 506.569 66.1575C506.662 65.7877 506.754 65.4411 506.846 65.1175C506.984 64.794 507.122 64.4473 507.261 64.0775C507.399 63.7077 507.537 63.3611 507.676 63.0375C507.814 62.7139 507.929 62.3673 508.021 61.9975C508.16 61.6277 508.298 61.3042 508.436 61.0268C508.62 60.7033 508.782 60.3566 508.92 59.9868C509.519 58.5539 510.141 57.2597 510.787 56.1041C510.879 55.9193 510.971 55.7575 511.063 55.6188C511.155 55.4339 511.248 55.2721 511.34 55.1335C511.432 54.9486 511.501 54.7868 511.547 54.6481C511.639 54.5095 511.732 54.3477 511.824 54.1628L512.1 53.7468C512.192 53.5619 512.285 53.4001 512.377 53.2615L512.653 52.7761L512.792 52.4988L512.999 52.2215C513.368 51.6206 513.829 51.1352 514.382 50.7655C514.935 50.3957 515.534 50.1415 516.179 50.0028C516.825 49.8179 517.47 49.7948 518.115 49.9335C518.806 50.0259 519.452 50.257 520.051 50.6268C521.249 51.4126 521.987 52.4757 522.263 53.8161C522.586 55.1104 522.402 56.3584 521.71 57.5602L521.641 57.6988L521.226 58.4615L520.742 59.2935L520.189 60.1255L519.705 60.9575C519.383 61.5584 519.06 62.1362 518.737 62.6908C518.461 63.2455 518.161 63.8002 517.839 64.3548C517.654 64.6784 517.493 64.9788 517.355 65.2562L516.94 66.0882C516.801 66.3655 516.64 66.666 516.456 66.9895L515.626 68.6535C515.488 68.9309 515.373 69.2082 515.281 69.4855C515.142 69.8091 515.004 70.1095 514.866 70.3869C514.727 70.6642 514.612 70.9415 514.52 71.2189L514.105 72.0509L513.829 72.8829C513.736 73.2527 513.644 73.53 513.552 73.7149L513.345 74.5469C513.253 74.8242 513.183 75.1015 513.137 75.3789L512.999 76.0722C512.907 76.3033 512.861 76.5344 512.861 76.7656C512.861 76.9504 512.838 77.1584 512.792 77.3896V77.8749C512.838 77.9673 512.861 78.0598 512.861 78.1522V78.5682C512.861 78.7069 512.93 78.7993 513.068 78.8456C513.114 78.938 513.229 79.0305 513.414 79.1229C513.598 79.2616 513.806 79.354 514.036 79.4002C514.082 79.4464 514.128 79.4696 514.174 79.4696C514.22 79.4696 514.29 79.4927 514.382 79.5389H514.52V79.6082H514.727C515.234 79.7007 515.741 79.7469 516.248 79.7469C516.755 79.7007 517.262 79.5851 517.769 79.4002C518.323 79.2153 518.83 79.0073 519.29 78.7762L519.982 78.3602C520.258 78.1753 520.512 77.9904 520.742 77.8056C521.664 77.066 522.54 76.1416 523.369 75.0322C524.107 74.0153 524.798 72.906 525.444 71.7042C525.536 71.6118 525.582 71.5193 525.582 71.4269C525.628 71.2882 525.697 71.1726 525.789 71.0802L525.858 70.7335C526.227 69.3469 526.55 67.9833 526.826 66.6428L527.794 62.4828C527.979 61.7895 528.14 61.0962 528.278 60.4028C528.416 59.7095 528.578 59.0162 528.762 58.3228L529.177 56.3121L529.592 54.2321H529.661C529.937 52.8917 530.629 51.8517 531.735 51.1121C532.841 50.3726 534.039 50.1415 535.33 50.4188C536.667 50.6961 537.704 51.3895 538.441 52.4988C539.179 53.6081 539.409 54.833 539.132 56.1735L539.063 56.2428L538.856 57.3521L538.649 58.3922L538.095 60.4722C537.957 61.2117 537.796 61.9282 537.612 62.6215L537.058 64.7015C536.69 66.0882 536.321 67.498 535.952 68.9309L534.293 75.1709L532.426 81.4109C532.196 82.1505 532.011 82.7976 531.873 83.3522C532.979 82.5665 534.062 81.7345 535.123 80.8562C536.229 79.978 537.312 79.0767 538.372 78.1522C539.386 77.274 540.354 76.3033 541.276 75.2402C541.506 74.9629 541.737 74.7087 541.967 74.4775L542.658 73.6455C542.889 73.3682 543.188 72.9753 543.557 72.4669C543.926 71.9122 544.226 71.4962 544.456 71.2189C544.594 70.9878 544.779 70.8722 545.009 70.8722C545.24 70.826 545.447 70.8722 545.631 71.0109C545.862 71.1495 545.977 71.3344 545.977 71.5655C546.023 71.7504 546 71.9353 545.908 72.1202C545.723 72.4438 545.447 72.906 545.078 73.5069C544.756 74.0615 544.479 74.5007 544.249 74.8242C543.926 75.4251 543.534 76.026 543.073 76.6269L541.691 78.4296C541.276 78.9842 540.815 79.5389 540.308 80.0936C538.326 82.266 536.229 84.2998 534.016 86.1949C533.325 86.7958 532.611 87.3736 531.873 87.9283C531.182 88.5292 530.49 89.1069 529.799 89.6616H529.73C529.269 91.0483 528.785 92.4349 528.278 93.8216C527.771 95.2083 527.264 96.5718 526.757 97.9123C526.204 99.2527 525.628 100.593 525.029 101.934C524.429 103.32 523.807 104.684 523.162 106.024C522.793 106.718 522.425 107.388 522.056 108.035C521.733 108.728 521.388 109.399 521.019 110.046C520.65 110.739 520.235 111.409 519.774 112.056C519.36 112.75 518.899 113.42 518.392 114.067C518.161 114.391 517.908 114.691 517.631 114.968C517.355 115.292 517.055 115.639 516.732 116.008C516.041 116.702 515.327 117.326 514.589 117.88L513.898 118.296C513.713 118.435 513.506 118.574 513.276 118.712C512.907 118.897 512.63 119.013 512.446 119.059C512.4 119.105 512.285 119.175 512.1 119.267H511.893C511.847 119.313 511.801 119.336 511.755 119.336C510.695 119.706 509.68 119.914 508.713 119.96C507.652 120.053 506.615 119.983 505.601 119.752C505.094 119.66 504.587 119.521 504.08 119.336C503.573 119.151 503.066 118.897 502.559 118.574C502.052 118.296 501.568 117.95 501.108 117.534C500.877 117.303 500.67 117.071 500.485 116.84C500.301 116.655 500.094 116.424 499.863 116.147C499.679 115.916 499.517 115.662 499.379 115.384C499.195 115.107 499.057 114.807 498.964 114.483C498.872 114.159 498.78 113.859 498.688 113.582C498.596 113.304 498.527 113.004 498.48 112.68C498.434 112.357 498.411 112.056 498.411 111.779V110.947L498.55 110.115C498.55 109.838 498.573 109.583 498.619 109.352C498.895 108.382 499.241 107.457 499.656 106.579C499.84 106.163 500.048 105.77 500.278 105.4L500.969 104.291C501.062 104.106 501.177 103.944 501.315 103.806L501.522 103.528L501.592 103.39L501.73 103.251L502.145 102.696L502.559 102.28C502.882 101.957 503.205 101.656 503.527 101.379C503.804 101.102 504.104 100.824 504.426 100.547L506.293 99.091C506.892 98.6287 507.491 98.1896 508.09 97.7736C508.69 97.4039 509.312 97.011 509.957 96.595C512.446 95.0696 514.935 93.6136 517.424 92.2269L520.327 90.5629C520.558 89.962 520.742 89.3611 520.881 88.7602C521.065 88.2056 521.249 87.6047 521.434 86.9576C521.664 86.3105 521.872 85.6634 522.056 85.0163L522.609 82.9362C522.747 82.474 522.886 82.0349 523.024 81.6189C523.162 81.1567 523.277 80.6945 523.369 80.2322L523.3 80.3016C523.07 80.6251 522.816 80.9256 522.54 81.2029L521.71 82.0349C521.065 82.5896 520.397 83.098 519.705 83.5602C519.336 83.7914 518.945 83.9994 518.53 84.1843C518.161 84.3691 517.769 84.5309 517.355 84.6696C516.433 84.9931 515.58 85.178 514.797 85.2242H514.451V85.2936H514.174C514.036 85.2936 513.898 85.3167 513.76 85.3629H512.722C512.492 85.3629 512.262 85.3398 512.031 85.2936C511.801 85.2474 511.547 85.2011 511.271 85.1549C510.994 85.1087 510.718 85.0394 510.441 84.9469C509.888 84.8082 509.358 84.554 508.851 84.1843C508.39 83.9531 507.883 83.5602 507.33 83.0056C507.099 82.7745 506.892 82.5434 506.708 82.3122C506.569 82.0349 506.408 81.7807 506.224 81.5496L505.809 80.7176C505.79 80.6606 505.771 80.6045 505.752 80.5495C505.733 80.4934 505.713 80.4383 505.694 80.3843L504.883 82.1736C504.56 82.8669 504.169 83.6065 503.708 84.3923C503.247 85.2243 502.763 85.9638 502.256 86.6109ZM497.14 40.2961L496.034 44.7334C495.711 46.2125 495.365 47.6917 494.997 49.1708L494.858 50.0028C494.812 50.2339 494.743 50.4881 494.651 50.7655C495.02 50.257 495.342 49.7486 495.619 49.2401C495.942 48.6854 496.287 48.1539 496.656 47.6454C497.439 46.305 498.177 44.9414 498.868 43.5548C499.606 42.1681 500.297 40.7583 500.942 39.3254C501.588 37.8925 502.21 36.4596 502.809 35.0267C503.408 33.5938 503.961 32.1378 504.468 30.6587C504.56 30.4738 504.63 30.2889 504.676 30.104C504.722 29.9192 504.791 29.7343 504.883 29.5494C504.975 29.272 505.021 29.0872 505.021 28.9947C505.067 28.9023 505.091 28.8098 505.091 28.7174L505.229 28.44C505.321 28.0703 505.39 27.7005 505.436 27.3307L505.713 26.2214C505.805 25.8516 505.874 25.4818 505.92 25.112C505.966 24.7422 505.989 24.3725 505.989 24.0027V22.9627C505.989 22.6854 505.943 22.3618 505.851 21.992C505.851 21.8996 505.828 21.8302 505.782 21.784V21.5067C505.69 21.3218 505.644 21.2062 505.644 21.16L505.436 20.952C505.436 20.9058 505.413 20.8827 505.367 20.8827C505.321 20.8827 505.298 20.9058 505.298 20.952V21.0213H505.229L505.16 21.0907H505.091L505.021 21.16C504.975 21.16 504.929 21.1831 504.883 21.2293C504.791 21.2756 504.653 21.3911 504.468 21.576L503.915 22.1307C503.777 22.3618 503.616 22.616 503.431 22.8934C503.293 23.1245 503.132 23.3787 502.947 23.656L502.118 25.528L501.288 27.4694C501.058 28.1627 500.804 28.856 500.528 29.5494C500.251 30.2427 499.997 30.9361 499.767 31.6294C499.26 33.0161 498.776 34.449 498.315 35.9281C497.9 37.361 497.509 38.817 497.14 40.2961ZM483.313 68.5842C483.359 68.4917 483.382 68.4224 483.382 68.3762C483.428 68.2837 483.497 68.1913 483.589 68.0989V67.3362C483.589 67.0589 483.612 66.8046 483.658 66.5735C483.658 66.25 483.681 65.9957 483.727 65.8108C483.635 65.1637 483.681 64.6091 483.866 64.1468C483.912 63.7308 483.935 63.3379 483.935 62.9682L484.073 61.7202C483.981 61.6277 483.935 61.5584 483.935 61.5122L483.658 60.9575C483.566 60.8651 483.497 60.7726 483.451 60.6802C483.451 60.5877 483.428 60.4953 483.382 60.4028C483.29 60.1717 483.174 59.9868 483.036 59.8482C482.944 59.7095 482.852 59.5477 482.76 59.3628C482.299 58.6695 481.861 58.1842 481.446 57.9068C481.262 57.8144 481.146 57.7681 481.1 57.7681C481.054 57.7219 481.008 57.6988 480.962 57.6988C480.916 57.6988 480.87 57.6757 480.824 57.6295H480.271C480.178 57.6757 480.086 57.6988 479.994 57.6988C479.948 57.6988 479.879 57.7219 479.787 57.7681C479.51 57.8606 479.303 57.953 479.164 58.0455C479.072 58.0917 478.957 58.1379 478.819 58.1841C478.727 58.2304 478.611 58.2997 478.473 58.3922C478.381 58.4846 478.266 58.577 478.127 58.6695C477.989 58.7157 477.874 58.785 477.782 58.8775C477.505 59.0162 477.252 59.201 477.021 59.4322L476.814 59.6402C476.768 59.6402 476.699 59.6864 476.606 59.7788C476.514 59.825 476.445 59.8713 476.399 59.9175C476.399 59.9637 476.353 60.0331 476.261 60.1255C475.754 60.5877 475.27 61.073 474.809 61.5815C474.348 62.0899 473.887 62.6446 473.426 63.2455C473.196 63.5228 472.988 63.8002 472.804 64.0775C472.62 64.3548 472.412 64.6553 472.182 64.9788C471.951 65.2562 471.767 65.5566 471.629 65.8802C471.536 66.0651 471.444 66.2268 471.352 66.3655C471.26 66.5042 471.168 66.666 471.075 66.8508L470.522 67.8215C470.384 68.0989 470.246 68.3993 470.108 68.7229L469.969 69.0002L469.9 69.2775L469.693 69.7629C469.508 70.0402 469.347 70.41 469.209 70.8722C468.656 72.2126 468.172 73.6455 467.757 75.1709C467.342 76.7424 466.996 78.2216 466.72 79.6082L466.582 80.7176C466.536 81.0873 466.513 81.4571 466.513 81.8269C466.466 82.1967 466.443 82.5434 466.443 82.8669C466.489 83.1905 466.513 83.514 466.513 83.8376C466.605 84.4847 466.743 85.0163 466.927 85.4323C467.02 85.7096 467.089 85.8945 467.135 85.9869L467.411 86.2643C467.55 86.4029 467.688 86.4723 467.826 86.4723C467.826 86.5185 467.872 86.5416 467.964 86.5416H468.241C468.241 86.5878 468.287 86.6109 468.379 86.6109C468.794 86.6109 469.324 86.426 469.969 86.0563C470.569 85.7327 471.168 85.3167 471.767 84.8082C472.043 84.5771 472.32 84.3229 472.597 84.0456C472.919 83.7682 473.219 83.4909 473.495 83.2136C473.772 82.89 474.048 82.5896 474.325 82.3122C474.601 82.0349 474.855 81.7114 475.085 81.3416C475.592 80.7407 476.099 80.0936 476.606 79.4002C476.883 79.0304 477.136 78.6838 477.367 78.3602C477.643 78.0367 477.897 77.69 478.127 77.3202C478.358 76.9504 478.588 76.6038 478.819 76.2802C479.049 75.9567 479.28 75.61 479.51 75.2402C479.741 74.8704 479.948 74.5007 480.132 74.1309L480.824 73.0215C481.054 72.6518 481.262 72.3051 481.446 71.9815C481.63 71.6118 481.838 71.242 482.068 70.8722L483.313 68.5842ZM516.732 100.478C516.456 101.217 516.179 101.934 515.903 102.627C515.626 103.274 515.327 103.875 515.004 104.43L514.174 106.232C513.852 106.833 513.529 107.388 513.206 107.896C512.93 108.451 512.607 108.983 512.239 109.491L511.685 110.184C511.547 110.415 511.386 110.647 511.201 110.878L510.164 111.918C510.072 112.01 509.98 112.056 509.888 112.056L509.75 112.195C509.704 112.241 509.634 112.264 509.542 112.264C509.496 112.311 509.45 112.334 509.404 112.334C509.404 112.38 509.358 112.403 509.266 112.403C508.805 112.588 508.436 112.68 508.159 112.68C507.745 112.773 507.353 112.773 506.984 112.68C506.569 112.634 506.247 112.542 506.016 112.403C505.74 112.218 505.578 112.103 505.532 112.056C505.394 111.918 505.325 111.756 505.325 111.571C505.279 111.386 505.279 111.086 505.325 110.67C505.371 110.346 505.486 109.93 505.671 109.422C505.855 108.959 506.131 108.474 506.5 107.966L506.708 107.55L506.846 107.411L506.915 107.203C507.007 107.111 507.076 106.995 507.122 106.856L507.399 106.579L507.952 105.886C508.183 105.701 508.413 105.493 508.643 105.262C508.874 105.031 509.104 104.823 509.335 104.638C509.565 104.453 509.796 104.245 510.026 104.014C510.533 103.551 511.063 103.112 511.616 102.696L514.935 100.2C515.488 99.7843 516.064 99.3914 516.663 99.0216C516.848 98.9292 517.009 98.8136 517.147 98.675C517.285 98.5363 517.447 98.4207 517.631 98.3283C517.355 99.0679 517.055 99.7843 516.732 100.478Z" clip-rule="evenodd" fill-rule="evenodd"></path>
<path fill="#49494A" d="M154 91.7227V28.9023H167.32V91.7227H154Z"></path>
<path fill="#49494A" d="M209.73 91.7227L194.605 42.4375H194.219C194.763 52.4635 195.035 59.1523 195.035 62.5039V91.7227H183.133V28.9023H201.266L216.133 76.9414H216.391L232.16 28.9023H250.293V91.7227H237.875V61.9883C237.875 60.5846 237.889 58.9661 237.918 57.1328C237.975 55.2995 238.176 50.4297 238.52 42.5234H238.133L221.934 91.7227H209.73Z"></path>
<path fill="#49494A" d="M284.883 56.4453H309.805V89.0156C305.766 90.3333 301.956 91.25 298.375 91.7656C294.823 92.3099 291.185 92.582 287.461 92.582C277.979 92.582 270.732 89.8034 265.719 84.2461C260.734 78.6602 258.242 70.6536 258.242 60.2266C258.242 50.0859 261.135 42.1797 266.922 36.5078C272.737 30.8359 280.786 28 291.07 28C297.516 28 303.732 29.2891 309.719 31.8672L305.293 42.5234C300.71 40.2318 295.94 39.0859 290.984 39.0859C285.227 39.0859 280.615 41.0195 277.148 44.8867C273.682 48.7539 271.949 53.9531 271.949 60.4844C271.949 67.3021 273.339 72.5156 276.117 76.125C278.924 79.7057 282.992 81.4961 288.32 81.4961C291.099 81.4961 293.921 81.2096 296.785 80.6367V67.5312H284.883V56.4453Z"></path>
</svg>

