<svg viewBox="0.00 0.00 32.00 32.00" version="1.1" xmlns="http://www.w3.org/2000/svg">
<path d="M 20.89 9.10
  L 25.43 7.94
  A 0.38 0.38 0.0 0 1 25.87 8.15
  L 27.88 12.59
  A 0.38 0.38 0.0 0 1 27.78 13.04
  L 24.09 16.22
  A 0.38 0.38 0.0 0 0 24.02 16.72
  L 27.35 21.66
  A 0.38 0.38 0.0 0 1 27.35 22.08
  L 24.56 26.22
  A 0.38 0.38 0.0 0 1 24.01 26.30
  L 19.55 22.63
  A 0.38 0.38 0.0 0 0 18.98 22.74
  L 15.29 29.34
  A 0.38 0.38 0.0 0 1 14.81 29.51
  L 9.08 27.13
  A 0.38 0.38 0.0 0 1 8.86 26.65
  L 11.52 18.80
  A 0.38 0.38 0.0 0 0 11.28 18.32
  L 3.36 15.72
  A 0.38 0.38 0.0 0 1 3.11 15.28
  L 4.52 8.69
  A 0.38 0.38 0.0 0 1 4.94 8.40
  L 12.59 9.42
  A 0.38 0.38 0.0 0 0 13.02 9.04
  L 12.90 2.45
  A 0.38 0.38 0.0 0 1 13.30 2.06
  L 18.32 2.34
  A 0.38 0.38 0.0 0 1 18.66 2.62
  L 20.43 8.83
  A 0.38 0.38 0.0 0 0 20.89 9.10
  Z
  M 15.4254 9.4035
  A 1.22 1.06 84.1 0 0 16.3544 8.0810
  A 1.22 1.06 84.1 0 0 15.1746 6.9765
  A 1.22 1.06 84.1 0 0 14.2456 8.2990
  A 1.22 1.06 84.1 0 0 15.4254 9.4035
  Z
  M 18.9434 9.1290
  A 1.18 0.97 55.2 0 0 19.0665 7.6064
  A 1.18 0.97 55.2 0 0 17.5966 7.1910
  A 1.18 0.97 55.2 0 0 17.4735 8.7136
  A 1.18 0.97 55.2 0 0 18.9434 9.1290
  Z" fill="#5b5afe"></path>
</svg>
