<svg viewBox="0.00 0.00 256.00 256.00" version="1.1" xmlns="http://www.w3.org/2000/svg">
<g stroke-linecap="butt" fill="none" stroke-width="2.00">
<path d="M 54.04 227.02
  L 56.92 28.10" stroke="#752c06"></path>
<path d="M 99.88 87.99
  L 133.56 121.67
  A 0.61 0.61 0.0 0 1 133.56 122.53
  Q 113.43 142.71 93.48 162.60
  C 87.16 168.90 89.10 171.19 94.85 176.99
  Q 99.10 181.28 103.41 185.53
  C 107.33 189.40 110.49 188.64 114.26 184.87
  Q 136.31 162.77 158.48 140.79" stroke="#7d3a0b"></path>
<path d="M 158.48 140.79
  Q 165.41 134.63 171.88 127.91
  C 176.69 122.91 175.14 119.70 170.67 115.25
  Q 164.16 108.76 157.49 102.44" stroke="#7d451b"></path>
<path d="M 157.49 102.44
  L 121.88 66.91" stroke="#7d3a0b"></path>
<path d="M 121.88 66.91
  Q 117.99 62.87 113.94 59.00
  C 110.96 56.14 107.33 54.73 104.16 57.91
  Q 98.32 63.76 92.48 69.61
  C 89.68 72.42 88.08 76.04 91.09 79.14
  Q 95.46 83.64 99.88 87.99" stroke="#752c06"></path>
<path d="M 121.88 66.91
  Q 120.93 67.31 120.28 67.17
  Q 120.00 67.11 119.97 67.38
  Q 119.93 67.67 119.53 67.87
  Q 118.52 68.37 117.99 69.57
  Q 117.82 69.96 117.47 70.22
  Q 116.29 71.13 114.98 72.75
  Q 114.64 73.17 113.82 73.13
  Q 113.33 73.11 113.23 73.59
  Q 112.91 75.20 111.44 76.11
  Q 111.07 76.35 111.12 76.78
  Q 111.20 77.51 110.57 77.90
  Q 110.14 78.17 109.99 77.68
  Q 109.87 77.30 109.55 77.05
  A 0.10 0.10 0.0 0 0 109.42 77.06
  Q 109.33 77.17 109.21 77.27
  A 0.35 0.35 0.0 0 0 109.41 77.88
  Q 109.67 77.90 109.85 78.10
  Q 110.16 78.44 109.78 78.69
  Q 109.27 79.04 108.67 79.14
  Q 108.28 79.20 108.06 79.54
  Q 107.11 80.96 105.46 81.26
  Q 105.12 81.33 105.11 81.67
  Q 105.11 81.86 105.12 82.05
  Q 105.13 82.64 104.66 82.99
  Q 102.96 84.30 102.06 86.19
  Q 101.86 86.62 101.41 86.76
  Q 100.38 87.11 99.88 87.99" stroke="#f26611"></path>
<path d="M 157.49 102.44
  Q 157.15 102.31 156.56 102.72
  Q 156.26 102.93 156.03 102.65
  Q 155.80 102.37 155.46 102.26
  Q 154.92 102.10 155.18 102.59
  L 155.39 102.97
  Q 155.55 103.27 155.33 103.52
  L 152.49 106.74
  Q 152.34 106.90 152.53 107.01
  Q 152.70 107.12 152.60 107.33
  Q 152.42 107.68 152.05 107.80
  Q 150.20 108.40 149.81 110.24
  Q 149.71 110.72 149.23 110.81
  Q 147.18 111.24 146.80 113.34
  Q 146.69 113.90 146.13 113.86
  Q 145.04 113.79 144.72 114.80
  Q 144.54 115.34 144.04 115.61
  L 143.17 116.08
  A 0.68 0.68 0.0 0 0 142.85 116.89
  Q 143.01 117.40 142.75 117.79
  Q 142.30 118.45 142.16 117.67
  Q 142.10 117.33 141.85 117.09
  Q 141.43 116.66 141.07 117.15
  Q 140.81 117.52 140.87 117.98
  Q 140.93 118.49 140.55 118.84
  C 139.45 119.88 137.10 121.87 136.81 123.32
  Q 136.76 123.58 136.49 123.63
  Q 136.33 123.67 136.25 123.50
  A 0.14 0.14 0.0 0 0 136.00 123.51
  Q 135.89 123.81 136.04 123.96
  Q 139.58 127.63 147.70 135.75
  C 151.65 139.70 153.25 142.25 158.48 140.79" stroke="#f97f26"></path>
</g>
<path d="M 54.04 227.02
  L 56.92 28.10
  Q 65.33 25.71 76.25 25.59
  Q 129.36 25.02 182.48 25.62
  C 206.01 25.89 224.65 38.41 229.44 62.27
  C 230.57 67.90 230.76 75.11 230.76 81.93
  Q 230.77 129.84 230.77 177.75
  C 230.78 199.98 224.72 216.83 203.75 226.54
  Q 197.84 229.27 187.00 230.71
  Q 180.95 231.51 166.25 231.51
  Q 124.25 231.51 82.25 231.46
  Q 77.77 231.46 68.51 230.80
  Q 62.90 230.40 54.04 227.02
  Z
  M 99.88 87.99
  L 133.56 121.67
  A 0.61 0.61 0.0 0 1 133.56 122.53
  Q 113.43 142.71 93.48 162.60
  C 87.16 168.90 89.10 171.19 94.85 176.99
  Q 99.10 181.28 103.41 185.53
  C 107.33 189.40 110.49 188.64 114.26 184.87
  Q 136.31 162.77 158.48 140.79
  Q 165.41 134.63 171.88 127.91
  C 176.69 122.91 175.14 119.70 170.67 115.25
  Q 164.16 108.76 157.49 102.44
  L 121.88 66.91
  Q 117.99 62.87 113.94 59.00
  C 110.96 56.14 107.33 54.73 104.16 57.91
  Q 98.32 63.76 92.48 69.61
  C 89.68 72.42 88.08 76.04 91.09 79.14
  Q 95.46 83.64 99.88 87.99
  Z" fill="#000000"></path>
<path d="M 56.92 28.10
  L 54.04 227.02
  C 39.75 221.78 29.79 209.40 26.76 194.76
  C 25.79 190.06 25.54 184.59 25.49 179.05
  C 25.20 144.07 24.72 108.97 25.63 74.00
  C 26.13 54.69 33.09 39.36 50.74 30.43
  Q 53.12 29.22 56.92 28.10
  Z" fill="#ea580c"></path>
<path d="M 121.88 66.91
  Q 120.93 67.31 120.28 67.17
  Q 120.00 67.11 119.97 67.38
  Q 119.93 67.67 119.53 67.87
  Q 118.52 68.37 117.99 69.57
  Q 117.82 69.96 117.47 70.22
  Q 116.29 71.13 114.98 72.75
  Q 114.64 73.17 113.82 73.13
  Q 113.33 73.11 113.23 73.59
  Q 112.91 75.20 111.44 76.11
  Q 111.07 76.35 111.12 76.78
  Q 111.20 77.51 110.57 77.90
  Q 110.14 78.17 109.99 77.68
  Q 109.87 77.30 109.55 77.05
  A 0.10 0.10 0.0 0 0 109.42 77.06
  Q 109.33 77.17 109.21 77.27
  A 0.35 0.35 0.0 0 0 109.41 77.88
  Q 109.67 77.90 109.85 78.10
  Q 110.16 78.44 109.78 78.69
  Q 109.27 79.04 108.67 79.14
  Q 108.28 79.20 108.06 79.54
  Q 107.11 80.96 105.46 81.26
  Q 105.12 81.33 105.11 81.67
  Q 105.11 81.86 105.12 82.05
  Q 105.13 82.64 104.66 82.99
  Q 102.96 84.30 102.06 86.19
  Q 101.86 86.62 101.41 86.76
  Q 100.38 87.11 99.88 87.99
  Q 95.46 83.64 91.09 79.14
  C 88.08 76.04 89.68 72.42 92.48 69.61
  Q 98.32 63.76 104.16 57.91
  C 107.33 54.73 110.96 56.14 113.94 59.00
  Q 117.99 62.87 121.88 66.91
  Z" fill="#ea580c"></path>
<path d="M 121.88 66.91
  L 157.49 102.44
  Q 157.15 102.31 156.56 102.72
  Q 156.26 102.93 156.03 102.65
  Q 155.80 102.37 155.46 102.26
  Q 154.92 102.10 155.18 102.59
  L 155.39 102.97
  Q 155.55 103.27 155.33 103.52
  L 152.49 106.74
  Q 152.34 106.90 152.53 107.01
  Q 152.70 107.12 152.60 107.33
  Q 152.42 107.68 152.05 107.80
  Q 150.20 108.40 149.81 110.24
  Q 149.71 110.72 149.23 110.81
  Q 147.18 111.24 146.80 113.34
  Q 146.69 113.90 146.13 113.86
  Q 145.04 113.79 144.72 114.80
  Q 144.54 115.34 144.04 115.61
  L 143.17 116.08
  A 0.68 0.68 0.0 0 0 142.85 116.89
  Q 143.01 117.40 142.75 117.79
  Q 142.30 118.45 142.16 117.67
  Q 142.10 117.33 141.85 117.09
  Q 141.43 116.66 141.07 117.15
  Q 140.81 117.52 140.87 117.98
  Q 140.93 118.49 140.55 118.84
  C 139.45 119.88 137.10 121.87 136.81 123.32
  Q 136.76 123.58 136.49 123.63
  Q 136.33 123.67 136.25 123.50
  A 0.14 0.14 0.0 0 0 136.00 123.51
  Q 135.89 123.81 136.04 123.96
  Q 139.58 127.63 147.70 135.75
  C 151.65 139.70 153.25 142.25 158.48 140.79
  Q 136.31 162.77 114.26 184.87
  C 110.49 188.64 107.33 189.40 103.41 185.53
  Q 99.10 181.28 94.85 176.99
  C 89.10 171.19 87.16 168.90 93.48 162.60
  Q 113.43 142.71 133.56 122.53
  A 0.61 0.61 0.0 0 0 133.56 121.67
  L 99.88 87.99
  Q 100.38 87.11 101.41 86.76
  Q 101.86 86.62 102.06 86.19
  Q 102.96 84.30 104.66 82.99
  Q 105.13 82.64 105.12 82.05
  Q 105.11 81.86 105.11 81.67
  Q 105.12 81.33 105.46 81.26
  Q 107.11 80.96 108.06 79.54
  Q 108.28 79.20 108.67 79.14
  Q 109.27 79.04 109.78 78.69
  Q 110.16 78.44 109.85 78.10
  Q 109.67 77.90 109.41 77.88
  A 0.35 0.35 0.0 0 1 109.21 77.27
  Q 109.33 77.17 109.42 77.06
  A 0.10 0.10 0.0 0 1 109.55 77.05
  Q 109.87 77.30 109.99 77.68
  Q 110.14 78.17 110.57 77.90
  Q 111.20 77.51 111.12 76.78
  Q 111.07 76.35 111.44 76.11
  Q 112.91 75.20 113.23 73.59
  Q 113.33 73.11 113.82 73.13
  Q 114.64 73.17 114.98 72.75
  Q 116.29 71.13 117.47 70.22
  Q 117.82 69.96 117.99 69.57
  Q 118.52 68.37 119.53 67.87
  Q 119.93 67.67 119.97 67.38
  Q 120.00 67.11 120.28 67.17
  Q 120.93 67.31 121.88 66.91
  Z" fill="#f97316"></path>
<path d="M 157.49 102.44
  Q 164.16 108.76 170.67 115.25
  C 175.14 119.70 176.69 122.91 171.88 127.91
  Q 165.41 134.63 158.48 140.79
  C 153.25 142.25 151.65 139.70 147.70 135.75
  Q 139.58 127.63 136.04 123.96
  Q 135.89 123.81 136.00 123.51
  A 0.14 0.14 0.0 0 1 136.25 123.50
  Q 136.33 123.67 136.49 123.63
  Q 136.76 123.58 136.81 123.32
  C 137.10 121.87 139.45 119.88 140.55 118.84
  Q 140.93 118.49 140.87 117.98
  Q 140.81 117.52 141.07 117.15
  Q 141.43 116.66 141.85 117.09
  Q 142.10 117.33 142.16 117.67
  Q 142.30 118.45 142.75 117.79
  Q 143.01 117.40 142.85 116.89
  A 0.68 0.68 0.0 0 1 143.17 116.08
  L 144.04 115.61
  Q 144.54 115.34 144.72 114.80
  Q 145.04 113.79 146.13 113.86
  Q 146.69 113.90 146.80 113.34
  Q 147.18 111.24 149.23 110.81
  Q 149.71 110.72 149.81 110.24
  Q 150.20 108.40 152.05 107.80
  Q 152.42 107.68 152.60 107.33
  Q 152.70 107.12 152.53 107.01
  Q 152.34 106.90 152.49 106.74
  L 155.33 103.52
  Q 155.55 103.27 155.39 102.97
  L 155.18 102.59
  Q 154.92 102.10 155.46 102.26
  Q 155.80 102.37 156.03 102.65
  Q 156.26 102.93 156.56 102.72
  Q 157.15 102.31 157.49 102.44
  Z" fill="#f98a35"></path>
</svg>
