<svg viewBox="0.00 0.00 256.00 256.00" version="1.1" xmlns="http://www.w3.org/2000/svg">
<g stroke-linecap="butt" fill="none" stroke-width="2.00">
<path d="M 17.03 0.00
  Q 17.12 1.93 16.05 3.06
  Q 15.68 3.46 15.88 3.97
  Q 16.42 5.31 16.39 6.77
  Q 16.39 7.29 16.73 7.68
  Q 17.33 8.34 17.17 9.26
  Q 17.09 9.75 17.56 9.90
  Q 17.80 9.98 17.94 10.23
  Q 18.17 10.65 17.80 10.96
  L 17.38 11.30
  Q 17.12 11.51 17.12 11.85
  L 17.12 16.24
  Q 17.12 16.65 17.49 16.86
  Q 18.38 17.36 18.12 18.40
  Q 18.01 18.84 17.61 19.04
  Q 16.79 19.45 17.15 20.50
  A 0.63 0.62 -87.9 0 0 17.49 20.87
  Q 17.75 20.98 17.92 21.19
  Q 18.12 21.42 18.12 21.89
  Q 18.13 23.08 18.12 24.30
  Q 18.11 24.76 18.55 24.90
  Q 18.75 24.96 18.87 25.13
  A 1.14 0.71 36.3 0 1 19.12 25.75
  L 19.12 27.96
  Q 19.12 28.39 19.42 28.70
  Q 20.51 29.81 20.10 31.40
  Q 19.98 31.88 20.47 31.88
  L 21.61 31.88
  Q 22.52 31.88 21.91 32.57
  L 20.34 34.34
  Q 20.12 34.59 20.12 34.92
  L 20.12 35.22
  A 0.70 0.69 67.2 0 1 19.93 35.70
  L 18.52 37.14
  Q 18.41 37.25 18.15 38.00
  Q 17.91 38.69 18.52 38.90
  Q 19.12 39.11 19.12 39.75
  L 19.12 41.97
  Q 19.12 42.45 19.49 42.77
  Q 20.37 43.52 20.17 44.68
  Q 20.09 45.16 20.39 45.56
  Q 21.55 47.05 21.08 48.97
  Q 20.95 49.50 21.40 49.81
  Q 22.60 50.67 22.05 52.27
  A 0.42 0.41 -68.9 0 0 22.27 52.78
  L 22.79 53.03
  Q 23.12 53.18 23.12 53.55
  L 23.12 56.26
  Q 23.12 56.74 23.57 56.91
  Q 23.75 56.97 23.87 57.13
  A 1.14 0.71 36.3 0 1 24.12 57.75
  L 24.12 59.99
  Q 24.12 60.52 24.56 60.82
  Q 25.31 61.36 25.12 62.22
  Q 25.01 62.71 25.48 62.88
  Q 26.17 63.13 26.14 63.83
  Q 26.11 64.28 25.82 64.63
  L 24.55 66.18
  Q 24.35 66.42 24.15 67.00
  Q 23.91 67.69 24.52 67.90
  Q 25.12 68.11 25.12 68.75
  L 25.12 69.91
  Q 25.12 70.34 25.41 70.66
  Q 27.01 72.46 25.49 74.23
  Q 25.11 74.68 25.62 74.96
  Q 26.28 75.32 26.14 76.09
  Q 26.03 76.69 26.56 76.98
  Q 28.57 78.04 28.06 80.30
  Q 27.95 80.79 27.52 81.05
  Q 27.33 81.17 27.20 81.37
  Q 27.03 81.64 27.05 81.96
  L 27.15 83.83
  Q 27.17 84.30 27.47 84.66
  Q 28.54 85.98 28.07 87.74
  A 0.85 0.82 30.3 0 0 28.30 88.56
  Q 28.80 89.04 28.44 89.32
  A 1.50 1.44 -48.4 0 0 28.53 91.76
  Q 30.22 92.74 30.16 94.84
  Q 30.15 95.36 30.51 94.99
  L 31.43 94.08
  A 0.40 0.40 0.0 0 1 32.12 94.36
  L 32.12 95.21
  Q 32.12 95.58 32.42 95.78
  C 33.92 96.80 32.59 98.31 33.21 99.58
  Q 33.54 100.25 33.92 99.61
  Q 34.28 99.02 34.79 98.94
  Q 35.02 98.91 35.11 98.70
  Q 35.61 97.56 36.59 96.84
  A 0.37 0.37 0.0 0 1 37.16 97.25
  Q 36.74 98.51 37.67 99.00
  Q 38.12 99.24 38.12 99.76
  L 38.12 102.77
  Q 38.12 103.36 38.53 102.93
  L 39.25 102.17
  Q 39.65 101.75 39.83 101.19
  Q 40.14 100.19 39.33 100.02
  A 0.72 0.71 15.5 0 1 38.80 99.09
  Q 39.32 97.59 38.32 96.98
  Q 37.88 96.72 37.88 96.21
  L 37.88 89.71
  A 1.02 1.02 0.0 0 1 39.42 88.83
  Q 40.47 89.43 40.08 90.76
  Q 39.91 91.32 40.33 91.74
  Q 41.59 92.98 41.05 94.89
  Q 40.87 95.54 41.45 95.89
  Q 42.43 96.48 41.95 97.82
  A 0.86 0.81 50.0 0 0 41.92 98.34
  Q 42.06 98.89 42.44 99.02
  Q 42.96 99.20 42.96 99.75
  L 42.96 102.50
  A 0.44 0.03 54.7 0 0 43.17 102.84
  Q 43.27 102.97 43.42 103.02
  Q 43.97 103.19 43.97 103.75
  L 44.16 117.28
  Q 44.17 117.75 44.60 117.93
  Q 44.79 118.00 44.92 118.18
  Q 45.13 118.49 45.13 118.86
  L 45.13 137.46
  A 0.56 0.55 -15.0 0 1 44.85 137.94
  Q 44.67 138.04 44.49 138.12
  Q 44.12 138.29 44.12 138.70
  L 44.12 157.92
  Q 44.12 158.38 44.44 158.70
  L 44.80 159.05
  Q 45.12 159.37 45.12 159.82
  L 45.12 163.50
  Q 45.12 163.84 45.46 163.87
  Q 45.63 163.89 45.76 164.02
  Q 46.06 164.33 46.07 164.77
  Q 46.15 167.51 46.07 170.24
  Q 45.92 176.15 46.32 182.07
  Q 46.36 182.70 46.93 184.35
  Q 47.33 185.50 47.06 186.82
  A 0.82 0.82 0.0 0 0 47.38 187.64
  Q 48.44 188.43 48.09 189.77
  A 0.85 0.84 25.9 0 0 48.40 190.65
  Q 49.44 191.45 49.10 192.78
  Q 48.93 193.44 49.47 193.86
  Q 50.57 194.73 50.05 196.28
  A 0.42 0.41 22.1 0 0 50.27 196.79
  L 50.79 197.03
  Q 51.12 197.18 51.12 197.55
  L 51.12 203.26
  Q 51.12 203.72 51.55 203.90
  Q 52.18 204.18 52.15 204.87
  Q 52.12 205.43 52.52 205.83
  Q 53.52 206.82 53.07 208.27
  A 0.46 0.46 0.0 0 0 53.38 208.86
  Q 54.35 209.15 54.11 210.21
  A 0.58 0.58 0.0 0 0 54.46 210.87
  Q 54.62 210.94 54.78 211.02
  A 0.68 0.66 -75.8 0 1 55.12 211.61
  L 55.12 213.98
  Q 55.12 214.51 55.52 214.86
  Q 56.38 215.58 56.16 216.72
  Q 56.06 217.22 56.39 217.61
  Q 57.55 218.98 57.07 220.77
  Q 56.93 221.32 57.35 221.70
  Q 58.57 222.81 58.08 224.52
  Q 57.92 225.07 58.31 225.50
  Q 59.61 226.95 59.06 228.97
  A 0.78 0.76 -66.3 0 0 59.38 229.81
  Q 60.52 230.55 60.10 231.94
  Q 59.96 232.43 60.37 232.74
  Q 61.48 233.55 61.11 234.93
  Q 60.96 235.51 61.45 235.86
  Q 62.54 236.62 62.07 238.03
  A 0.69 0.68 -72.0 0 0 62.50 238.89
  Q 62.67 238.95 62.80 239.05
  Q 63.12 239.29 62.98 239.67
  Q 62.86 239.99 62.58 240.09
  Q 62.12 240.25 62.12 240.74
  L 62.12 244.14
  Q 62.12 244.50 61.93 244.80
  Q 61.80 245.00 61.60 245.08
  Q 61.11 245.27 61.12 245.80
  Q 61.13 248.18 61.12 250.56
  Q 61.12 250.78 61.02 250.93
  Q 60.90 251.10 60.74 251.24
  Q 60.38 251.54 60.50 251.99
  C 61.41 255.20 57.52 255.53 55.48 255.36
  Q 55.35 255.35 55.37 255.38
  Q 55.46 255.47 55.55 255.55
  Q 55.60 255.60 55.67 255.60
  Q 57.58 255.45 59.20 256.00" stroke="#6154ee"></path>
<path d="M 40.69 256.00
  L 38.28 255.16
  Q 37.78 254.99 38.22 254.71
  L 38.74 254.38
  Q 38.80 254.34 38.77 254.27
  Q 38.70 254.14 38.65 254.00
  Q 38.60 253.88 38.65 253.77
  Q 39.13 252.45 39.16 251.10
  Q 39.17 250.62 39.42 250.21
  Q 40.27 248.82 39.79 247.09
  A 0.89 0.87 -36.9 0 1 39.90 246.39
  Q 40.14 246.02 40.50 245.89
  Q 40.97 245.73 40.90 245.24
  Q 40.64 243.38 41.61 241.82
  Q 41.85 241.42 41.86 240.95
  Q 41.96 231.49 41.83 228.75
  Q 41.82 228.42 41.34 228.11
  A 0.95 0.95 0.0 0 1 40.89 227.30
  C 40.88 223.10 40.14 220.40 39.91 217.03
  Q 39.77 214.99 39.20 212.60
  C 38.68 210.39 39.07 208.46 38.38 206.20
  C 37.57 203.56 38.29 201.10 37.65 198.67
  C 36.94 195.98 36.87 194.53 36.68 192.16
  Q 36.64 191.69 36.81 191.39
  Q 37.02 191.04 37.34 190.85
  Q 37.77 190.61 37.90 190.14
  Q 38.24 188.95 37.81 187.77
  A 1.39 1.36 -46.3 0 1 37.80 186.90
  Q 38.20 185.69 37.47 184.93
  Q 37.11 184.54 37.13 184.02
  C 37.22 182.02 36.41 180.10 36.16 178.47
  Q 35.70 175.50 34.88 172.61
  Q 34.74 172.15 34.36 171.87
  Q 34.16 171.72 33.97 171.56
  Q 33.62 171.28 33.46 170.81
  Q 33.02 169.57 32.60 168.28
  Q 32.57 168.19 32.48 168.20
  Q 32.35 168.23 32.22 168.30
  Q 31.96 168.45 31.96 168.15
  C 31.89 165.55 30.79 163.59 30.85 161.23
  Q 30.87 160.73 30.68 160.27
  C 29.91 158.42 29.99 156.32 29.57 154.58
  C 29.13 152.77 28.97 151.07 28.47 149.17
  Q 28.06 147.59 27.94 145.94
  C 27.80 144.02 26.90 142.29 26.94 140.24
  Q 26.96 139.44 26.42 138.86
  Q 26.08 138.50 26.12 138.01
  Q 26.31 135.27 24.12 133.73
  Q 24.02 133.66 23.97 133.76
  L 23.82 134.03
  Q 23.47 134.68 23.39 133.95
  L 22.80 128.75
  Q 22.75 128.24 22.38 127.87
  L 22.10 127.59
  A 0.93 0.92 27.5 0 1 21.84 126.78
  Q 22.17 124.82 21.59 123.04
  A 0.48 0.48 0.0 0 0 20.89 122.77
  Q 19.96 123.30 19.96 124.25
  Q 19.96 124.49 19.79 124.66
  L 18.27 126.11
  Q 18.12 126.24 18.12 126.04
  L 18.12 122.86
  Q 18.12 122.52 17.95 122.23
  Q 17.80 121.99 17.60 121.91
  Q 16.90 121.64 17.08 120.91
  Q 17.52 119.10 16.52 117.71
  Q 16.22 117.30 16.15 116.79
  Q 16.03 115.91 15.18 115.76
  A 0.79 0.71 -48.0 0 0 14.80 115.80
  L 14.35 115.96
  A 0.92 0.92 0.0 0 1 13.12 115.10
  L 13.12 109.46
  A 0.72 0.71 3.1 0 0 12.48 108.75
  Q 12.07 108.71 12.10 108.36
  Q 12.17 107.71 11.54 107.89
  Q 10.62 108.15 10.84 109.26
  Q 11.12 110.62 10.33 111.14
  Q 9.88 111.44 9.88 111.98
  L 9.88 113.24
  Q 9.88 113.65 9.51 113.86
  Q 8.58 114.38 8.91 115.50
  Q 8.92 115.55 8.73 115.59
  L 8.72 115.59
  Q 8.55 115.63 8.52 115.46
  Q 8.13 113.40 8.10 111.32
  Q 8.07 109.50 7.49 107.27
  C 6.94 105.15 7.18 103.23 6.59 101.02
  Q 6.05 98.99 5.90 96.24
  Q 5.85 95.42 4.89 95.14
  Q 4.34 94.98 4.38 94.41
  Q 4.43 93.69 3.72 94.16
  Q 3.34 94.41 3.15 94.83
  L 2.82 95.55
  Q 2.77 95.67 2.74 95.54
  L 1.08 86.31
  Q 1.02 85.97 1.12 85.64
  Q 1.30 85.05 0.77 84.58
  Q 0.46 84.30 0.42 84.71
  Q 0.35 85.34 0.00 85.13" stroke="#635ef0"></path>
<path d="M 71.11 0.00
  Q 71.17 0.46 71.68 0.87
  Q 72.02 1.14 71.91 1.57
  Q 71.62 2.64 72.54 3.16
  Q 72.89 3.35 72.89 3.75
  L 72.92 8.49
  A 0.51 0.51 0.0 0 0 73.26 8.97
  L 73.62 9.10
  Q 73.89 9.19 73.89 9.47
  L 73.93 12.49
  A 0.51 0.51 0.0 0 0 74.27 12.97
  L 74.62 13.10
  Q 74.89 13.19 74.89 13.47
  L 74.92 17.49
  A 0.51 0.51 0.0 0 0 75.26 17.97
  L 75.62 18.10
  Q 75.89 18.19 75.89 18.47
  L 75.92 22.49
  A 0.51 0.51 0.0 0 0 76.26 22.97
  L 76.63 23.10
  Q 76.89 23.19 76.89 23.47
  L 76.92 28.49
  A 0.51 0.51 0.0 0 0 77.26 28.97
  L 77.63 29.10
  Q 77.89 29.19 77.89 29.47
  L 77.92 34.49
  A 0.51 0.51 0.0 0 0 78.26 34.97
  L 78.63 35.10
  Q 78.89 35.19 78.89 35.47
  L 78.92 39.49
  A 0.51 0.51 0.0 0 0 79.26 39.97
  L 79.62 40.10
  Q 79.89 40.19 79.89 40.47
  L 79.93 45.48
  A 0.51 0.51 0.0 0 0 80.22 45.94
  Q 80.36 46.01 80.49 46.06
  Q 80.93 46.24 80.93 46.71
  L 80.93 49.03
  Q 80.94 49.62 81.40 49.98
  Q 82.34 50.71 81.87 52.04
  A 0.69 0.68 22.9 0 0 82.21 52.87
  Q 83.40 53.49 82.86 55.05
  A 0.67 0.66 -68.3 0 0 83.21 55.88
  Q 84.38 56.42 83.86 57.84
  A 0.84 0.82 44.5 0 0 83.87 58.46
  Q 84.07 58.92 84.49 59.06
  Q 85.19 59.28 84.97 59.97
  Q 84.55 61.38 85.62 62.24
  Q 85.97 62.52 85.90 62.96
  Q 85.79 63.80 86.57 64.09
  Q 87.08 64.28 86.94 64.81
  Q 86.58 66.26 87.52 67.24
  Q 87.93 67.68 87.93 68.28
  L 87.93 70.49
  A 0.51 0.50 13.4 0 0 88.21 70.94
  Q 88.36 71.01 88.51 71.07
  Q 88.90 71.23 88.92 71.64
  Q 88.97 72.84 89.45 73.95" stroke="#4c4ff4"></path>
<path d="M 89.45 73.95
  C 82.05 85.62 81.03 101.98 88.38 113.90
  C 95.75 125.86 108.20 129.92 121.03 133.34
  C 132.88 136.50 152.40 138.06 153.49 153.49
  C 154.87 173.15 131.47 177.07 117.49 172.27
  C 108.12 169.04 103.46 160.23 102.96 150.77
  A 0.97 0.97 0.0 0 0 102.22 149.88
  L 73.96 142.81
  Q 73.41 142.67 73.27 143.21
  C 67.01 167.17 84.66 188.36 106.02 195.91
  Q 119.66 200.74 134.13 199.87
  C 167.19 197.91 196.15 167.69 179.20 133.77" stroke="#afa7f6"></path>
<path d="M 179.20 133.77
  Q 179.91 133.68 180.12 133.00
  Q 180.19 132.78 180.08 132.59
  Q 179.92 132.32 180.23 132.37
  Q 180.67 132.45 181.01 132.23
  Q 181.52 131.90 181.89 132.38
  Q 182.22 132.81 182.55 132.45
  Q 182.86 132.12 183.31 132.12
  L 187.97 132.12
  Q 188.43 132.12 188.80 132.39
  C 190.73 133.75 197.74 133.12 200.30 133.12
  Q 200.76 133.11 200.90 133.56
  Q 200.97 133.75 201.13 133.87
  A 1.14 0.71 53.7 0 0 201.75 134.12
  L 211.76 134.12
  Q 212.32 134.12 212.76 134.49
  Q 214.53 135.99 216.32 134.47
  Q 216.74 134.12 217.29 134.12
  L 219.47 134.12
  A 0.55 0.54 -74.5 0 0 219.94 133.85
  Q 220.04 133.68 220.12 133.49
  Q 220.29 133.12 220.70 133.12
  L 239.16 133.12
  Q 239.52 133.12 239.82 132.92
  Q 240.01 132.79 240.09 132.58
  Q 240.25 132.12 240.74 132.12
  L 251.14 132.12
  Q 251.50 132.12 251.80 131.93
  Q 252.00 131.81 252.08 131.60
  Q 252.27 131.11 252.80 131.11
  L 256.00 131.13" stroke="#4c4ff4"></path>
<path d="M 179.20 133.77
  Q 169.63 118.16 151.51 113.59
  C 141.46 111.05 130.52 109.25 121.06 104.92
  C 113.49 101.46 111.72 92.24 116.49 85.50
  C 121.85 77.92 134.23 78.41 139.95 85.51
  C 141.19 87.05 142.06 89.19 143.05 91.09
  A 1.04 1.04 0.0 0 0 143.73 91.62
  L 171.73 98.45
  Q 172.07 98.54 172.10 98.19
  C 173.38 82.00 166.81 69.09 152.28 61.80
  C 131.83 51.54 103.67 54.05 89.45 73.95" stroke="#9ca7fd"></path>
</g>
<path d="M 6.65 0.00
  L 17.03 0.00
  Q 17.12 1.93 16.05 3.06
  Q 15.68 3.46 15.88 3.97
  Q 16.42 5.31 16.39 6.77
  Q 16.39 7.29 16.73 7.68
  Q 17.33 8.34 17.17 9.26
  Q 17.09 9.75 17.56 9.90
  Q 17.80 9.98 17.94 10.23
  Q 18.17 10.65 17.80 10.96
  L 17.38 11.30
  Q 17.12 11.51 17.12 11.85
  L 17.12 16.24
  Q 17.12 16.65 17.49 16.86
  Q 18.38 17.36 18.12 18.40
  Q 18.01 18.84 17.61 19.04
  Q 16.79 19.45 17.15 20.50
  A 0.63 0.62 -87.9 0 0 17.49 20.87
  Q 17.75 20.98 17.92 21.19
  Q 18.12 21.42 18.12 21.89
  Q 18.13 23.08 18.12 24.30
  Q 18.11 24.76 18.55 24.90
  Q 18.75 24.96 18.87 25.13
  A 1.14 0.71 36.3 0 1 19.12 25.75
  L 19.12 27.96
  Q 19.12 28.39 19.42 28.70
  Q 20.51 29.81 20.10 31.40
  Q 19.98 31.88 20.47 31.88
  L 21.61 31.88
  Q 22.52 31.88 21.91 32.57
  L 20.34 34.34
  Q 20.12 34.59 20.12 34.92
  L 20.12 35.22
  A 0.70 0.69 67.2 0 1 19.93 35.70
  L 18.52 37.14
  Q 18.41 37.25 18.15 38.00
  Q 17.91 38.69 18.52 38.90
  Q 19.12 39.11 19.12 39.75
  L 19.12 41.97
  Q 19.12 42.45 19.49 42.77
  Q 20.37 43.52 20.17 44.68
  Q 20.09 45.16 20.39 45.56
  Q 21.55 47.05 21.08 48.97
  Q 20.95 49.50 21.40 49.81
  Q 22.60 50.67 22.05 52.27
  A 0.42 0.41 -68.9 0 0 22.27 52.78
  L 22.79 53.03
  Q 23.12 53.18 23.12 53.55
  L 23.12 56.26
  Q 23.12 56.74 23.57 56.91
  Q 23.75 56.97 23.87 57.13
  A 1.14 0.71 36.3 0 1 24.12 57.75
  L 24.12 59.99
  Q 24.12 60.52 24.56 60.82
  Q 25.31 61.36 25.12 62.22
  Q 25.01 62.71 25.48 62.88
  Q 26.17 63.13 26.14 63.83
  Q 26.11 64.28 25.82 64.63
  L 24.55 66.18
  Q 24.35 66.42 24.15 67.00
  Q 23.91 67.69 24.52 67.90
  Q 25.12 68.11 25.12 68.75
  L 25.12 69.91
  Q 25.12 70.34 25.41 70.66
  Q 27.01 72.46 25.49 74.23
  Q 25.11 74.68 25.62 74.96
  Q 26.28 75.32 26.14 76.09
  Q 26.03 76.69 26.56 76.98
  Q 28.57 78.04 28.06 80.30
  Q 27.95 80.79 27.52 81.05
  Q 27.33 81.17 27.20 81.37
  Q 27.03 81.64 27.05 81.96
  L 27.15 83.83
  Q 27.17 84.30 27.47 84.66
  Q 28.54 85.98 28.07 87.74
  A 0.85 0.82 30.3 0 0 28.30 88.56
  Q 28.80 89.04 28.44 89.32
  A 1.50 1.44 -48.4 0 0 28.53 91.76
  Q 30.22 92.74 30.16 94.84
  Q 30.15 95.36 30.51 94.99
  L 31.43 94.08
  A 0.40 0.40 0.0 0 1 32.12 94.36
  L 32.12 95.21
  Q 32.12 95.58 32.42 95.78
  C 33.92 96.80 32.59 98.31 33.21 99.58
  Q 33.54 100.25 33.92 99.61
  Q 34.28 99.02 34.79 98.94
  Q 35.02 98.91 35.11 98.70
  Q 35.61 97.56 36.59 96.84
  A 0.37 0.37 0.0 0 1 37.16 97.25
  Q 36.74 98.51 37.67 99.00
  Q 38.12 99.24 38.12 99.76
  L 38.12 102.77
  Q 38.12 103.36 38.53 102.93
  L 39.25 102.17
  Q 39.65 101.75 39.83 101.19
  Q 40.14 100.19 39.33 100.02
  A 0.72 0.71 15.5 0 1 38.80 99.09
  Q 39.32 97.59 38.32 96.98
  Q 37.88 96.72 37.88 96.21
  L 37.88 89.71
  A 1.02 1.02 0.0 0 1 39.42 88.83
  Q 40.47 89.43 40.08 90.76
  Q 39.91 91.32 40.33 91.74
  Q 41.59 92.98 41.05 94.89
  Q 40.87 95.54 41.45 95.89
  Q 42.43 96.48 41.95 97.82
  A 0.86 0.81 50.0 0 0 41.92 98.34
  Q 42.06 98.89 42.44 99.02
  Q 42.96 99.20 42.96 99.75
  L 42.96 102.50
  A 0.44 0.03 54.7 0 0 43.17 102.84
  Q 43.27 102.97 43.42 103.02
  Q 43.97 103.19 43.97 103.75
  L 44.16 117.28
  Q 44.17 117.75 44.60 117.93
  Q 44.79 118.00 44.92 118.18
  Q 45.13 118.49 45.13 118.86
  L 45.13 137.46
  A 0.56 0.55 -15.0 0 1 44.85 137.94
  Q 44.67 138.04 44.49 138.12
  Q 44.12 138.29 44.12 138.70
  L 44.12 157.92
  Q 44.12 158.38 44.44 158.70
  L 44.80 159.05
  Q 45.12 159.37 45.12 159.82
  L 45.12 163.50
  Q 45.12 163.84 45.46 163.87
  Q 45.63 163.89 45.76 164.02
  Q 46.06 164.33 46.07 164.77
  Q 46.15 167.51 46.07 170.24
  Q 45.92 176.15 46.32 182.07
  Q 46.36 182.70 46.93 184.35
  Q 47.33 185.50 47.06 186.82
  A 0.82 0.82 0.0 0 0 47.38 187.64
  Q 48.44 188.43 48.09 189.77
  A 0.85 0.84 25.9 0 0 48.40 190.65
  Q 49.44 191.45 49.10 192.78
  Q 48.93 193.44 49.47 193.86
  Q 50.57 194.73 50.05 196.28
  A 0.42 0.41 22.1 0 0 50.27 196.79
  L 50.79 197.03
  Q 51.12 197.18 51.12 197.55
  L 51.12 203.26
  Q 51.12 203.72 51.55 203.90
  Q 52.18 204.18 52.15 204.87
  Q 52.12 205.43 52.52 205.83
  Q 53.52 206.82 53.07 208.27
  A 0.46 0.46 0.0 0 0 53.38 208.86
  Q 54.35 209.15 54.11 210.21
  A 0.58 0.58 0.0 0 0 54.46 210.87
  Q 54.62 210.94 54.78 211.02
  A 0.68 0.66 -75.8 0 1 55.12 211.61
  L 55.12 213.98
  Q 55.12 214.51 55.52 214.86
  Q 56.38 215.58 56.16 216.72
  Q 56.06 217.22 56.39 217.61
  Q 57.55 218.98 57.07 220.77
  Q 56.93 221.32 57.35 221.70
  Q 58.57 222.81 58.08 224.52
  Q 57.92 225.07 58.31 225.50
  Q 59.61 226.95 59.06 228.97
  A 0.78 0.76 -66.3 0 0 59.38 229.81
  Q 60.52 230.55 60.10 231.94
  Q 59.96 232.43 60.37 232.74
  Q 61.48 233.55 61.11 234.93
  Q 60.96 235.51 61.45 235.86
  Q 62.54 236.62 62.07 238.03
  A 0.69 0.68 -72.0 0 0 62.50 238.89
  Q 62.67 238.95 62.80 239.05
  Q 63.12 239.29 62.98 239.67
  Q 62.86 239.99 62.58 240.09
  Q 62.12 240.25 62.12 240.74
  L 62.12 244.14
  Q 62.12 244.50 61.93 244.80
  Q 61.80 245.00 61.60 245.08
  Q 61.11 245.27 61.12 245.80
  Q 61.13 248.18 61.12 250.56
  Q 61.12 250.78 61.02 250.93
  Q 60.90 251.10 60.74 251.24
  Q 60.38 251.54 60.50 251.99
  C 61.41 255.20 57.52 255.53 55.48 255.36
  Q 55.35 255.35 55.37 255.38
  Q 55.46 255.47 55.55 255.55
  Q 55.60 255.60 55.67 255.60
  Q 57.58 255.45 59.20 256.00
  L 40.69 256.00
  L 38.28 255.16
  Q 37.78 254.99 38.22 254.71
  L 38.74 254.38
  Q 38.80 254.34 38.77 254.27
  Q 38.70 254.14 38.65 254.00
  Q 38.60 253.88 38.65 253.77
  Q 39.13 252.45 39.16 251.10
  Q 39.17 250.62 39.42 250.21
  Q 40.27 248.82 39.79 247.09
  A 0.89 0.87 -36.9 0 1 39.90 246.39
  Q 40.14 246.02 40.50 245.89
  Q 40.97 245.73 40.90 245.24
  Q 40.64 243.38 41.61 241.82
  Q 41.85 241.42 41.86 240.95
  Q 41.96 231.49 41.83 228.75
  Q 41.82 228.42 41.34 228.11
  A 0.95 0.95 0.0 0 1 40.89 227.30
  C 40.88 223.10 40.14 220.40 39.91 217.03
  Q 39.77 214.99 39.20 212.60
  C 38.68 210.39 39.07 208.46 38.38 206.20
  C 37.57 203.56 38.29 201.10 37.65 198.67
  C 36.94 195.98 36.87 194.53 36.68 192.16
  Q 36.64 191.69 36.81 191.39
  Q 37.02 191.04 37.34 190.85
  Q 37.77 190.61 37.90 190.14
  Q 38.24 188.95 37.81 187.77
  A 1.39 1.36 -46.3 0 1 37.80 186.90
  Q 38.20 185.69 37.47 184.93
  Q 37.11 184.54 37.13 184.02
  C 37.22 182.02 36.41 180.10 36.16 178.47
  Q 35.70 175.50 34.88 172.61
  Q 34.74 172.15 34.36 171.87
  Q 34.16 171.72 33.97 171.56
  Q 33.62 171.28 33.46 170.81
  Q 33.02 169.57 32.60 168.28
  Q 32.57 168.19 32.48 168.20
  Q 32.35 168.23 32.22 168.30
  Q 31.96 168.45 31.96 168.15
  C 31.89 165.55 30.79 163.59 30.85 161.23
  Q 30.87 160.73 30.68 160.27
  C 29.91 158.42 29.99 156.32 29.57 154.58
  C 29.13 152.77 28.97 151.07 28.47 149.17
  Q 28.06 147.59 27.94 145.94
  C 27.80 144.02 26.90 142.29 26.94 140.24
  Q 26.96 139.44 26.42 138.86
  Q 26.08 138.50 26.12 138.01
  Q 26.31 135.27 24.12 133.73
  Q 24.02 133.66 23.97 133.76
  L 23.82 134.03
  Q 23.47 134.68 23.39 133.95
  L 22.80 128.75
  Q 22.75 128.24 22.38 127.87
  L 22.10 127.59
  A 0.93 0.92 27.5 0 1 21.84 126.78
  Q 22.17 124.82 21.59 123.04
  A 0.48 0.48 0.0 0 0 20.89 122.77
  Q 19.96 123.30 19.96 124.25
  Q 19.96 124.49 19.79 124.66
  L 18.27 126.11
  Q 18.12 126.24 18.12 126.04
  L 18.12 122.86
  Q 18.12 122.52 17.95 122.23
  Q 17.80 121.99 17.60 121.91
  Q 16.90 121.64 17.08 120.91
  Q 17.52 119.10 16.52 117.71
  Q 16.22 117.30 16.15 116.79
  Q 16.03 115.91 15.18 115.76
  A 0.79 0.71 -48.0 0 0 14.80 115.80
  L 14.35 115.96
  A 0.92 0.92 0.0 0 1 13.12 115.10
  L 13.12 109.46
  A 0.72 0.71 3.1 0 0 12.48 108.75
  Q 12.07 108.71 12.10 108.36
  Q 12.17 107.71 11.54 107.89
  Q 10.62 108.15 10.84 109.26
  Q 11.12 110.62 10.33 111.14
  Q 9.88 111.44 9.88 111.98
  L 9.88 113.24
  Q 9.88 113.65 9.51 113.86
  Q 8.58 114.38 8.91 115.50
  Q 8.92 115.55 8.73 115.59
  L 8.72 115.59
  Q 8.55 115.63 8.52 115.46
  Q 8.13 113.40 8.10 111.32
  Q 8.07 109.50 7.49 107.27
  C 6.94 105.15 7.18 103.23 6.59 101.02
  Q 6.05 98.99 5.90 96.24
  Q 5.85 95.42 4.89 95.14
  Q 4.34 94.98 4.38 94.41
  Q 4.43 93.69 3.72 94.16
  Q 3.34 94.41 3.15 94.83
  L 2.82 95.55
  Q 2.77 95.67 2.74 95.54
  L 1.08 86.31
  Q 1.02 85.97 1.12 85.64
  Q 1.30 85.05 0.77 84.58
  Q 0.46 84.30 0.42 84.71
  Q 0.35 85.34 0.00 85.13
  L 0.00 6.77
  Q 1.38 1.35 6.65 0.00
  Z" fill="#6359ef"></path>
<path d="M 17.03 0.00
  L 71.11 0.00
  Q 71.17 0.46 71.68 0.87
  Q 72.02 1.14 71.91 1.57
  Q 71.62 2.64 72.54 3.16
  Q 72.89 3.35 72.89 3.75
  L 72.92 8.49
  A 0.51 0.51 0.0 0 0 73.26 8.97
  L 73.62 9.10
  Q 73.89 9.19 73.89 9.47
  L 73.93 12.49
  A 0.51 0.51 0.0 0 0 74.27 12.97
  L 74.62 13.10
  Q 74.89 13.19 74.89 13.47
  L 74.92 17.49
  A 0.51 0.51 0.0 0 0 75.26 17.97
  L 75.62 18.10
  Q 75.89 18.19 75.89 18.47
  L 75.92 22.49
  A 0.51 0.51 0.0 0 0 76.26 22.97
  L 76.63 23.10
  Q 76.89 23.19 76.89 23.47
  L 76.92 28.49
  A 0.51 0.51 0.0 0 0 77.26 28.97
  L 77.63 29.10
  Q 77.89 29.19 77.89 29.47
  L 77.92 34.49
  A 0.51 0.51 0.0 0 0 78.26 34.97
  L 78.63 35.10
  Q 78.89 35.19 78.89 35.47
  L 78.92 39.49
  A 0.51 0.51 0.0 0 0 79.26 39.97
  L 79.62 40.10
  Q 79.89 40.19 79.89 40.47
  L 79.93 45.48
  A 0.51 0.51 0.0 0 0 80.22 45.94
  Q 80.36 46.01 80.49 46.06
  Q 80.93 46.24 80.93 46.71
  L 80.93 49.03
  Q 80.94 49.62 81.40 49.98
  Q 82.34 50.71 81.87 52.04
  A 0.69 0.68 22.9 0 0 82.21 52.87
  Q 83.40 53.49 82.86 55.05
  A 0.67 0.66 -68.3 0 0 83.21 55.88
  Q 84.38 56.42 83.86 57.84
  A 0.84 0.82 44.5 0 0 83.87 58.46
  Q 84.07 58.92 84.49 59.06
  Q 85.19 59.28 84.97 59.97
  Q 84.55 61.38 85.62 62.24
  Q 85.97 62.52 85.90 62.96
  Q 85.79 63.80 86.57 64.09
  Q 87.08 64.28 86.94 64.81
  Q 86.58 66.26 87.52 67.24
  Q 87.93 67.68 87.93 68.28
  L 87.93 70.49
  A 0.51 0.50 13.4 0 0 88.21 70.94
  Q 88.36 71.01 88.51 71.07
  Q 88.90 71.23 88.92 71.64
  Q 88.97 72.84 89.45 73.95
  C 82.05 85.62 81.03 101.98 88.38 113.90
  C 95.75 125.86 108.20 129.92 121.03 133.34
  C 132.88 136.50 152.40 138.06 153.49 153.49
  C 154.87 173.15 131.47 177.07 117.49 172.27
  C 108.12 169.04 103.46 160.23 102.96 150.77
  A 0.97 0.97 0.0 0 0 102.22 149.88
  L 73.96 142.81
  Q 73.41 142.67 73.27 143.21
  C 67.01 167.17 84.66 188.36 106.02 195.91
  Q 119.66 200.74 134.13 199.87
  C 167.19 197.91 196.15 167.69 179.20 133.77
  Q 179.91 133.68 180.12 133.00
  Q 180.19 132.78 180.08 132.59
  Q 179.92 132.32 180.23 132.37
  Q 180.67 132.45 181.01 132.23
  Q 181.52 131.90 181.89 132.38
  Q 182.22 132.81 182.55 132.45
  Q 182.86 132.12 183.31 132.12
  L 187.97 132.12
  Q 188.43 132.12 188.80 132.39
  C 190.73 133.75 197.74 133.12 200.30 133.12
  Q 200.76 133.11 200.90 133.56
  Q 200.97 133.75 201.13 133.87
  A 1.14 0.71 53.7 0 0 201.75 134.12
  L 211.76 134.12
  Q 212.32 134.12 212.76 134.49
  Q 214.53 135.99 216.32 134.47
  Q 216.74 134.12 217.29 134.12
  L 219.47 134.12
  A 0.55 0.54 -74.5 0 0 219.94 133.85
  Q 220.04 133.68 220.12 133.49
  Q 220.29 133.12 220.70 133.12
  L 239.16 133.12
  Q 239.52 133.12 239.82 132.92
  Q 240.01 132.79 240.09 132.58
  Q 240.25 132.12 240.74 132.12
  L 251.14 132.12
  Q 251.50 132.12 251.80 131.93
  Q 252.00 131.81 252.08 131.60
  Q 252.27 131.11 252.80 131.11
  L 256.00 131.13
  L 256.00 249.23
  Q 254.63 254.62 249.37 256.00
  L 59.20 256.00
  Q 57.58 255.45 55.67 255.60
  Q 55.60 255.60 55.55 255.55
  Q 55.46 255.47 55.37 255.38
  Q 55.35 255.35 55.48 255.36
  C 57.52 255.53 61.41 255.20 60.50 251.99
  Q 60.38 251.54 60.74 251.24
  Q 60.90 251.10 61.02 250.93
  Q 61.12 250.78 61.12 250.56
  Q 61.13 248.18 61.12 245.80
  Q 61.11 245.27 61.60 245.08
  Q 61.80 245.00 61.93 244.80
  Q 62.12 244.50 62.12 244.14
  L 62.12 240.74
  Q 62.12 240.25 62.58 240.09
  Q 62.86 239.99 62.98 239.67
  Q 63.12 239.29 62.80 239.05
  Q 62.67 238.95 62.50 238.89
  A 0.69 0.68 -72.0 0 1 62.07 238.03
  Q 62.54 236.62 61.45 235.86
  Q 60.96 235.51 61.11 234.93
  Q 61.48 233.55 60.37 232.74
  Q 59.96 232.43 60.10 231.94
  Q 60.52 230.55 59.38 229.81
  A 0.78 0.76 -66.3 0 1 59.06 228.97
  Q 59.61 226.95 58.31 225.50
  Q 57.92 225.07 58.08 224.52
  Q 58.57 222.81 57.35 221.70
  Q 56.93 221.32 57.07 220.77
  Q 57.55 218.98 56.39 217.61
  Q 56.06 217.22 56.16 216.72
  Q 56.38 215.58 55.52 214.86
  Q 55.12 214.51 55.12 213.98
  L 55.12 211.61
  A 0.68 0.66 -75.8 0 0 54.78 211.02
  Q 54.62 210.94 54.46 210.87
  A 0.58 0.58 0.0 0 1 54.11 210.21
  Q 54.35 209.15 53.38 208.86
  A 0.46 0.46 0.0 0 1 53.07 208.27
  Q 53.52 206.82 52.52 205.83
  Q 52.12 205.43 52.15 204.87
  Q 52.18 204.18 51.55 203.90
  Q 51.12 203.72 51.12 203.26
  L 51.12 197.55
  Q 51.12 197.18 50.79 197.03
  L 50.27 196.79
  A 0.42 0.41 22.1 0 1 50.05 196.28
  Q 50.57 194.73 49.47 193.86
  Q 48.93 193.44 49.10 192.78
  Q 49.44 191.45 48.40 190.65
  A 0.85 0.84 25.9 0 1 48.09 189.77
  Q 48.44 188.43 47.38 187.64
  A 0.82 0.82 0.0 0 1 47.06 186.82
  Q 47.33 185.50 46.93 184.35
  Q 46.36 182.70 46.32 182.07
  Q 45.92 176.15 46.07 170.24
  Q 46.15 167.51 46.07 164.77
  Q 46.06 164.33 45.76 164.02
  Q 45.63 163.89 45.46 163.87
  Q 45.12 163.84 45.12 163.50
  L 45.12 159.82
  Q 45.12 159.37 44.80 159.05
  L 44.44 158.70
  Q 44.12 158.38 44.12 157.92
  L 44.12 138.70
  Q 44.12 138.29 44.49 138.12
  Q 44.67 138.04 44.85 137.94
  A 0.56 0.55 -15.0 0 0 45.13 137.46
  L 45.13 118.86
  Q 45.13 118.49 44.92 118.18
  Q 44.79 118.00 44.60 117.93
  Q 44.17 117.75 44.16 117.28
  L 43.97 103.75
  Q 43.97 103.19 43.42 103.02
  Q 43.27 102.97 43.17 102.84
  A 0.44 0.03 54.7 0 1 42.96 102.50
  L 42.96 99.75
  Q 42.96 99.20 42.44 99.02
  Q 42.06 98.89 41.92 98.34
  A 0.86 0.81 50.0 0 1 41.95 97.82
  Q 42.43 96.48 41.45 95.89
  Q 40.87 95.54 41.05 94.89
  Q 41.59 92.98 40.33 91.74
  Q 39.91 91.32 40.08 90.76
  Q 40.47 89.43 39.42 88.83
  A 1.02 1.02 0.0 0 0 37.88 89.71
  L 37.88 96.21
  Q 37.88 96.72 38.32 96.98
  Q 39.32 97.59 38.80 99.09
  A 0.72 0.71 15.5 0 0 39.33 100.02
  Q 40.14 100.19 39.83 101.19
  Q 39.65 101.75 39.25 102.17
  L 38.53 102.93
  Q 38.12 103.36 38.12 102.77
  L 38.12 99.76
  Q 38.12 99.24 37.67 99.00
  Q 36.74 98.51 37.16 97.25
  A 0.37 0.37 0.0 0 0 36.59 96.84
  Q 35.61 97.56 35.11 98.70
  Q 35.02 98.91 34.79 98.94
  Q 34.28 99.02 33.92 99.61
  Q 33.54 100.25 33.21 99.58
  C 32.59 98.31 33.92 96.80 32.42 95.78
  Q 32.12 95.58 32.12 95.21
  L 32.12 94.36
  A 0.40 0.40 0.0 0 0 31.43 94.08
  L 30.51 94.99
  Q 30.15 95.36 30.16 94.84
  Q 30.22 92.74 28.53 91.76
  A 1.50 1.44 -48.4 0 1 28.44 89.32
  Q 28.80 89.04 28.30 88.56
  A 0.85 0.82 30.3 0 1 28.07 87.74
  Q 28.54 85.98 27.47 84.66
  Q 27.17 84.30 27.15 83.83
  L 27.05 81.96
  Q 27.03 81.64 27.20 81.37
  Q 27.33 81.17 27.52 81.05
  Q 27.95 80.79 28.06 80.30
  Q 28.57 78.04 26.56 76.98
  Q 26.03 76.69 26.14 76.09
  Q 26.28 75.32 25.62 74.96
  Q 25.11 74.68 25.49 74.23
  Q 27.01 72.46 25.41 70.66
  Q 25.12 70.34 25.12 69.91
  L 25.12 68.75
  Q 25.12 68.11 24.52 67.90
  Q 23.91 67.69 24.15 67.00
  Q 24.35 66.42 24.55 66.18
  L 25.82 64.63
  Q 26.11 64.28 26.14 63.83
  Q 26.17 63.13 25.48 62.88
  Q 25.01 62.71 25.12 62.22
  Q 25.31 61.36 24.56 60.82
  Q 24.12 60.52 24.12 59.99
  L 24.12 57.75
  A 1.14 0.71 36.3 0 0 23.87 57.13
  Q 23.75 56.97 23.57 56.91
  Q 23.12 56.74 23.12 56.26
  L 23.12 53.55
  Q 23.12 53.18 22.79 53.03
  L 22.27 52.78
  A 0.42 0.41 -68.9 0 1 22.05 52.27
  Q 22.60 50.67 21.40 49.81
  Q 20.95 49.50 21.08 48.97
  Q 21.55 47.05 20.39 45.56
  Q 20.09 45.16 20.17 44.68
  Q 20.37 43.52 19.49 42.77
  Q 19.12 42.45 19.12 41.97
  L 19.12 39.75
  Q 19.12 39.11 18.52 38.90
  Q 17.91 38.69 18.15 38.00
  Q 18.41 37.25 18.52 37.14
  L 19.93 35.70
  A 0.70 0.69 67.2 0 0 20.12 35.22
  L 20.12 34.92
  Q 20.12 34.59 20.34 34.34
  L 21.91 32.57
  Q 22.52 31.88 21.61 31.88
  L 20.47 31.88
  Q 19.98 31.88 20.10 31.40
  Q 20.51 29.81 19.42 28.70
  Q 19.12 28.39 19.12 27.96
  L 19.12 25.75
  A 1.14 0.71 36.3 0 0 18.87 25.13
  Q 18.75 24.96 18.55 24.90
  Q 18.11 24.76 18.12 24.30
  Q 18.13 23.08 18.12 21.89
  Q 18.12 21.42 17.92 21.19
  Q 17.75 20.98 17.49 20.87
  A 0.63 0.62 -87.9 0 1 17.15 20.50
  Q 16.79 19.45 17.61 19.04
  Q 18.01 18.84 18.12 18.40
  Q 18.38 17.36 17.49 16.86
  Q 17.12 16.65 17.12 16.24
  L 17.12 11.85
  Q 17.12 11.51 17.38 11.30
  L 17.80 10.96
  Q 18.17 10.65 17.94 10.23
  Q 17.80 9.98 17.56 9.90
  Q 17.09 9.75 17.17 9.26
  Q 17.33 8.34 16.73 7.68
  Q 16.39 7.29 16.39 6.77
  Q 16.42 5.31 15.88 3.97
  Q 15.68 3.46 16.05 3.06
  Q 17.12 1.93 17.03 0.00
  Z" fill="#5e4fed"></path>
<path d="M 71.11 0.00
  L 249.26 0.00
  Q 254.63 1.39 256.00 6.63
  L 256.00 131.13
  L 252.80 131.11
  Q 252.27 131.11 252.08 131.60
  Q 252.00 131.81 251.80 131.93
  Q 251.50 132.12 251.14 132.12
  L 240.74 132.12
  Q 240.25 132.12 240.09 132.58
  Q 240.01 132.79 239.82 132.92
  Q 239.52 133.12 239.16 133.12
  L 220.70 133.12
  Q 220.29 133.12 220.12 133.49
  Q 220.04 133.68 219.94 133.85
  A 0.55 0.54 -74.5 0 1 219.47 134.12
  L 217.29 134.12
  Q 216.74 134.12 216.32 134.47
  Q 214.53 135.99 212.76 134.49
  Q 212.32 134.12 211.76 134.12
  L 201.75 134.12
  A 1.14 0.71 53.7 0 1 201.13 133.87
  Q 200.97 133.75 200.90 133.56
  Q 200.76 133.11 200.30 133.12
  C 197.74 133.12 190.73 133.75 188.80 132.39
  Q 188.43 132.12 187.97 132.12
  L 183.31 132.12
  Q 182.86 132.12 182.55 132.45
  Q 182.22 132.81 181.89 132.38
  Q 181.52 131.90 181.01 132.23
  Q 180.67 132.45 180.23 132.37
  Q 179.92 132.32 180.08 132.59
  Q 180.19 132.78 180.12 133.00
  Q 179.91 133.68 179.20 133.77
  Q 169.63 118.16 151.51 113.59
  C 141.46 111.05 130.52 109.25 121.06 104.92
  C 113.49 101.46 111.72 92.24 116.49 85.50
  C 121.85 77.92 134.23 78.41 139.95 85.51
  C 141.19 87.05 142.06 89.19 143.05 91.09
  A 1.04 1.04 0.0 0 0 143.73 91.62
  L 171.73 98.45
  Q 172.07 98.54 172.10 98.19
  C 173.38 82.00 166.81 69.09 152.28 61.80
  C 131.83 51.54 103.67 54.05 89.45 73.95
  Q 88.97 72.84 88.92 71.64
  Q 88.90 71.23 88.51 71.07
  Q 88.36 71.01 88.21 70.94
  A 0.51 0.50 13.4 0 1 87.93 70.49
  L 87.93 68.28
  Q 87.93 67.68 87.52 67.24
  Q 86.58 66.26 86.94 64.81
  Q 87.08 64.28 86.57 64.09
  Q 85.79 63.80 85.90 62.96
  Q 85.97 62.52 85.62 62.24
  Q 84.55 61.38 84.97 59.97
  Q 85.19 59.28 84.49 59.06
  Q 84.07 58.92 83.87 58.46
  A 0.84 0.82 44.5 0 1 83.86 57.84
  Q 84.38 56.42 83.21 55.88
  A 0.67 0.66 -68.3 0 1 82.86 55.05
  Q 83.40 53.49 82.21 52.87
  A 0.69 0.68 22.9 0 1 81.87 52.04
  Q 82.34 50.71 81.40 49.98
  Q 80.94 49.62 80.93 49.03
  L 80.93 46.71
  Q 80.93 46.24 80.49 46.06
  Q 80.36 46.01 80.22 45.94
  A 0.51 0.51 0.0 0 1 79.93 45.48
  L 79.89 40.47
  Q 79.89 40.19 79.62 40.10
  L 79.26 39.97
  A 0.51 0.51 0.0 0 1 78.92 39.49
  L 78.89 35.47
  Q 78.89 35.19 78.63 35.10
  L 78.26 34.97
  A 0.51 0.51 0.0 0 1 77.92 34.49
  L 77.89 29.47
  Q 77.89 29.19 77.63 29.10
  L 77.26 28.97
  A 0.51 0.51 0.0 0 1 76.92 28.49
  L 76.89 23.47
  Q 76.89 23.19 76.63 23.10
  L 76.26 22.97
  A 0.51 0.51 0.0 0 1 75.92 22.49
  L 75.89 18.47
  Q 75.89 18.19 75.62 18.10
  L 75.26 17.97
  A 0.51 0.51 0.0 0 1 74.92 17.49
  L 74.89 13.47
  Q 74.89 13.19 74.62 13.10
  L 74.27 12.97
  A 0.51 0.51 0.0 0 1 73.93 12.49
  L 73.89 9.47
  Q 73.89 9.19 73.62 9.10
  L 73.26 8.97
  A 0.51 0.51 0.0 0 1 72.92 8.49
  L 72.89 3.75
  Q 72.89 3.35 72.54 3.16
  Q 71.62 2.64 71.91 1.57
  Q 72.02 1.14 71.68 0.87
  Q 71.17 0.46 71.11 0.00
  Z" fill="#394ffb"></path>
<path d="M 179.20 133.77
  C 196.15 167.69 167.19 197.91 134.13 199.87
  Q 119.66 200.74 106.02 195.91
  C 84.66 188.36 67.01 167.17 73.27 143.21
  Q 73.41 142.67 73.96 142.81
  L 102.22 149.88
  A 0.97 0.97 0.0 0 1 102.96 150.77
  C 103.46 160.23 108.12 169.04 117.49 172.27
  C 131.47 177.07 154.87 173.15 153.49 153.49
  C 152.40 138.06 132.88 136.50 121.03 133.34
  C 108.20 129.92 95.75 125.86 88.38 113.90
  C 81.03 101.98 82.05 85.62 89.45 73.95
  C 103.67 54.05 131.83 51.54 152.28 61.80
  C 166.81 69.09 173.38 82.00 172.10 98.19
  Q 172.07 98.54 171.73 98.45
  L 143.73 91.62
  A 1.04 1.04 0.0 0 1 143.05 91.09
  C 142.06 89.19 141.19 87.05 139.95 85.51
  C 134.23 78.41 121.85 77.92 116.49 85.50
  C 111.72 92.24 113.49 101.46 121.06 104.92
  C 130.52 109.25 141.46 111.05 151.51 113.59
  Q 169.63 118.16 179.20 133.77
  Z" fill="#ffffff"></path>
<path d="M 40.69 256.00
  L 6.78 256.00
  Q 1.38 254.65 0.00 249.37
  L 0.00 85.13
  Q 0.35 85.34 0.42 84.71
  Q 0.46 84.30 0.77 84.58
  Q 1.30 85.05 1.12 85.64
  Q 1.02 85.97 1.08 86.31
  L 2.74 95.54
  Q 2.77 95.67 2.82 95.55
  L 3.15 94.83
  Q 3.34 94.41 3.72 94.16
  Q 4.43 93.69 4.38 94.41
  Q 4.34 94.98 4.89 95.14
  Q 5.85 95.42 5.90 96.24
  Q 6.05 98.99 6.59 101.02
  C 7.18 103.23 6.94 105.15 7.49 107.27
  Q 8.07 109.50 8.10 111.32
  Q 8.13 113.40 8.52 115.46
  Q 8.55 115.63 8.72 115.59
  L 8.73 115.59
  Q 8.92 115.55 8.91 115.50
  Q 8.58 114.38 9.51 113.86
  Q 9.88 113.65 9.88 113.24
  L 9.88 111.98
  Q 9.88 111.44 10.33 111.14
  Q 11.12 110.62 10.84 109.26
  Q 10.62 108.15 11.54 107.89
  Q 12.17 107.71 12.10 108.36
  Q 12.07 108.71 12.48 108.75
  A 0.72 0.71 3.1 0 1 13.12 109.46
  L 13.12 115.10
  A 0.92 0.92 0.0 0 0 14.35 115.96
  L 14.80 115.80
  A 0.79 0.71 -48.0 0 1 15.18 115.76
  Q 16.03 115.91 16.15 116.79
  Q 16.22 117.30 16.52 117.71
  Q 17.52 119.10 17.08 120.91
  Q 16.90 121.64 17.60 121.91
  Q 17.80 121.99 17.95 122.23
  Q 18.12 122.52 18.12 122.86
  L 18.12 126.04
  Q 18.12 126.24 18.27 126.11
  L 19.79 124.66
  Q 19.96 124.49 19.96 124.25
  Q 19.96 123.30 20.89 122.77
  A 0.48 0.48 0.0 0 1 21.59 123.04
  Q 22.17 124.82 21.84 126.78
  A 0.93 0.92 27.5 0 0 22.10 127.59
  L 22.38 127.87
  Q 22.75 128.24 22.80 128.75
  L 23.39 133.95
  Q 23.47 134.68 23.82 134.03
  L 23.97 133.76
  Q 24.02 133.66 24.12 133.73
  Q 26.31 135.27 26.12 138.01
  Q 26.08 138.50 26.42 138.86
  Q 26.96 139.44 26.94 140.24
  C 26.90 142.29 27.80 144.02 27.94 145.94
  Q 28.06 147.59 28.47 149.17
  C 28.97 151.07 29.13 152.77 29.57 154.58
  C 29.99 156.32 29.91 158.42 30.68 160.27
  Q 30.87 160.73 30.85 161.23
  C 30.79 163.59 31.89 165.55 31.96 168.15
  Q 31.96 168.45 32.22 168.30
  Q 32.35 168.23 32.48 168.20
  Q 32.57 168.19 32.60 168.28
  Q 33.02 169.57 33.46 170.81
  Q 33.62 171.28 33.97 171.56
  Q 34.16 171.72 34.36 171.87
  Q 34.74 172.15 34.88 172.61
  Q 35.70 175.50 36.16 178.47
  C 36.41 180.10 37.22 182.02 37.13 184.02
  Q 37.11 184.54 37.47 184.93
  Q 38.20 185.69 37.80 186.90
  A 1.39 1.36 -46.3 0 0 37.81 187.77
  Q 38.24 188.95 37.90 190.14
  Q 37.77 190.61 37.34 190.85
  Q 37.02 191.04 36.81 191.39
  Q 36.64 191.69 36.68 192.16
  C 36.87 194.53 36.94 195.98 37.65 198.67
  C 38.29 201.10 37.57 203.56 38.38 206.20
  C 39.07 208.46 38.68 210.39 39.20 212.60
  Q 39.77 214.99 39.91 217.03
  C 40.14 220.40 40.88 223.10 40.89 227.30
  A 0.95 0.95 0.0 0 0 41.34 228.11
  Q 41.82 228.42 41.83 228.75
  Q 41.96 231.49 41.86 240.95
  Q 41.85 241.42 41.61 241.82
  Q 40.64 243.38 40.90 245.24
  Q 40.97 245.73 40.50 245.89
  Q 40.14 246.02 39.90 246.39
  A 0.89 0.87 -36.9 0 0 39.79 247.09
  Q 40.27 248.82 39.42 250.21
  Q 39.17 250.62 39.16 251.10
  Q 39.13 252.45 38.65 253.77
  Q 38.60 253.88 38.65 254.00
  Q 38.70 254.14 38.77 254.27
  Q 38.80 254.34 38.74 254.38
  L 38.22 254.71
  Q 37.78 254.99 38.28 255.16
  L 40.69 256.00
  Z" fill="#6362f1"></path>
</svg>
