<svg viewBox="0.00 0.00 180.00 180.00" version="1.1" xmlns="http://www.w3.org/2000/svg">
<path d="M 180.00 88.37
  L 180.00 92.02
  C 177.10 101.30 168.56 107.84 160.48 112.62
  Q 160.02 112.89 160.24 113.38
  C 163.37 120.56 166.08 129.34 165.10 137.12
  C 163.37 150.80 143.52 150.95 133.83 149.78
  A 0.76 0.76 0.0 0 0 133.00 150.41
  C 131.66 158.32 127.16 170.59 120.22 174.77
  C 111.11 180.24 97.20 170.57 90.46 164.22
  Q 90.07 163.86 89.68 164.21
  C 83.81 169.46 76.78 174.41 68.98 176.14
  C 55.04 179.23 48.89 160.33 46.89 150.39
  Q 46.78 149.84 46.23 149.90
  C 38.48 150.62 31.12 150.43 23.71 147.82
  C 9.22 142.72 15.40 123.07 19.82 113.33
  A 0.63 0.62 -64.3 0 0 19.54 112.52
  Q 5.59 105.04 0.00 92.40
  L 0.00 88.24
  C 2.63 78.98 11.47 72.16 19.54 67.42
  Q 19.99 67.15 19.78 66.67
  C 15.98 58.05 10.13 40.57 20.39 33.89
  C 27.20 29.46 38.39 29.35 46.16 30.21
  Q 46.68 30.26 46.80 29.76
  C 49.27 19.50 54.91 1.02 68.86 3.94
  C 76.63 5.57 83.78 10.59 89.62 15.77
  Q 90.00 16.11 90.39 15.76
  C 97.96 9.03 113.80 -2.59 123.34 7.91
  C 128.65 13.76 131.56 22.18 133.11 29.79
  Q 133.22 30.31 133.74 30.26
  C 144.23 29.38 163.90 29.23 165.15 43.75
  C 165.82 51.53 163.33 59.79 160.17 66.82
  Q 159.95 67.32 160.42 67.58
  C 168.68 72.14 177.61 79.39 180.00 88.37
  Z
  M 76.95 54.84
  A 5.82 5.82 0.0 0 0 68.00 59.74
  L 68.00 120.24
  A 5.82 5.82 0.0 0 0 76.95 125.14
  L 124.29 94.89
  A 5.82 5.82 0.0 0 0 124.29 85.09
  L 76.95 54.84
  Z" fill="#e91e63"></path>
</svg>
