<svg viewBox="0.00 0.00 274.00 304.00" version="1.1" xmlns="http://www.w3.org/2000/svg">
<path d="M 168.53 95.26
  L 192.57 95.25
  A 0.46 0.46 0.0 0 1 193.01 95.84
  L 189.02 108.59
  Q 188.89 109.00 188.46 109.00
  L 164.01 109.00
  A 0.46 0.46 0.0 0 0 163.57 109.33
  Q 149.49 155.62 135.22 201.74
  Q 127.04 228.19 118.31 248.01
  C 111.96 262.42 99.52 278.91 85.32 286.60
  C 73.45 293.02 58.96 294.56 45.77 292.20
  C 34.16 290.13 20.86 280.83 22.38 267.62
  C 23.47 258.16 30.93 251.76 40.60 252.37
  C 54.45 253.26 53.73 263.03 55.69 273.73
  C 56.52 278.27 60.49 280.42 64.92 279.99
  C 75.63 278.93 81.07 263.04 84.34 252.32
  Q 106.19 180.86 128.13 109.24
  A 0.19 0.18 -81.5 0 0 127.96 109.00
  L 102.42 109.00
  Q 101.83 109.00 102.00 108.43
  L 105.86 95.74
  Q 106.01 95.25 106.52 95.25
  L 131.97 95.25
  Q 132.43 95.25 132.55 94.81
  C 140.46 67.03 148.39 38.25 171.32 21.06
  C 181.63 13.33 196.03 10.01 208.65 11.40
  C 217.74 12.40 229.03 16.91 232.72 26.25
  C 236.84 36.63 230.87 48.61 219.02 48.86
  C 206.92 49.12 205.86 36.45 202.05 28.24
  C 199.64 23.05 192.73 23.11 189.57 27.55
  Q 188.48 29.09 187.05 33.68
  Q 177.50 64.19 168.17 94.76
  Q 168.02 95.26 168.53 95.26
  Z" fill="#f04c04"></path>
<path d="M 184.78 210.47
  C 171.92 204.03 174.45 188.72 185.11 181.58
  C 193.52 175.95 207.67 174.79 216.61 181.63
  Q 217.03 181.96 217.43 181.60
  C 220.92 178.51 224.16 175.82 228.89 177.35
  C 233.95 178.98 232.66 187.25 226.57 185.42
  C 225.17 185.00 224.00 183.49 221.94 183.94
  A 1.67 1.67 0.0 0 0 220.91 186.50
  C 226.19 194.43 221.59 205.69 213.94 209.95
  C 205.91 214.42 198.48 213.97 190.00 214.33
  C 186.33 214.49 181.48 216.39 183.14 221.05
  A 1.26 1.22 4.8 0 0 183.74 221.74
  C 185.06 222.43 186.31 223.15 187.72 223.54
  C 199.69 226.87 223.16 230.46 219.48 246.51
  C 217.44 255.40 206.33 259.49 198.26 260.63
  C 187.07 262.21 173.12 261.84 163.25 256.48
  C 155.80 252.44 155.58 242.48 162.53 237.83
  Q 164.89 236.25 167.58 236.78
  A 1.72 1.71 16.9 0 1 168.83 239.11
  Q 168.49 239.94 167.78 240.71
  C 164.91 243.85 164.92 248.36 167.53 251.06
  Q 169.58 253.17 174.49 254.43
  C 182.53 256.51 195.59 257.09 202.62 252.18
  C 207.70 248.63 205.77 243.61 200.45 241.83
  Q 190.59 238.53 180.74 235.20
  C 172.64 232.46 166.72 224.61 173.21 216.73
  C 175.74 213.66 181.02 212.01 184.72 211.06
  Q 185.54 210.85 184.78 210.47
  Z
  M 196.38 208.82
  C 204.80 208.75 207.92 200.07 209.35 193.26
  C 210.62 187.19 207.96 180.30 201.21 181.72
  C 191.61 183.76 183.36 208.92 196.38 208.82
  Z" fill="#f04c04"></path>
</svg>
