<svg viewBox="0.00 0.00 256.00 256.00" version="1.1" xmlns="http://www.w3.org/2000/svg">
<path d="M 120.72 61.92
  Q 120.51 102.97 120.67 144.02
  Q 120.70 150.25 119.61 152.84
  C 115.78 161.98 101.64 161.28 98.38 151.70
  Q 97.73 149.78 97.73 145.23
  Q 97.73 102.87 97.74 60.50
  C 97.74 51.04 101.15 42.93 110.24 38.93
  Q 118.82 35.15 128.03 39.44
  Q 184.76 65.83 219.51 82.29
  C 227.84 86.23 234.41 91.25 235.36 101.13
  C 236.76 115.71 225.59 121.45 213.30 126.08
  Q 200.44 130.92 187.59 135.77
  Q 183.06 137.48 180.72 137.41
  C 171.02 137.09 165.97 124.46 173.10 117.75
  Q 174.91 116.05 179.58 114.26
  Q 194.18 108.66 208.67 103.12
  A 0.31 0.30 -43.1 0 0 208.69 102.56
  L 121.27 61.57
  Q 120.72 61.31 120.72 61.92
  Z" fill="#623ef4"></path>
<path d="M 47.53 152.88
  A 0.33 0.33 0.0 0 0 47.51 153.49
  L 134.49 194.27
  A 0.56 0.56 0.0 0 0 135.29 193.76
  Q 135.25 153.21 135.28 112.51
  Q 135.28 105.94 136.19 103.59
  C 140.63 92.15 158.17 95.50 158.21 108.25
  Q 158.34 152.37 158.24 196.49
  C 158.21 213.79 143.12 223.65 127.24 216.26
  Q 82.83 195.58 38.49 174.73
  C 27.57 169.59 18.83 163.44 20.93 149.53
  C 22.40 139.81 29.22 135.28 37.75 131.97
  Q 52.61 126.19 67.52 120.50
  Q 72.98 118.42 75.71 118.60
  C 85.33 119.21 89.98 131.92 82.67 138.51
  Q 80.93 140.08 76.46 141.77
  Q 61.84 147.32 47.53 152.88
  Z" fill="#000000"></path>
</svg>
