<svg viewBox="0.00 0.00 96.00 96.00" version="1.1" xmlns="http://www.w3.org/2000/svg">
<path d="M 25.18 90.30
  C 29.45 67.34 38.86 43.41 56.70 27.26
  A 1.08 1.07 47.4 0 1 58.22 27.33
  L 58.56 27.68
  A 1.10 1.09 -43.6 0 1 58.52 29.19
  Q 43.59 44.04 35.64 63.59
  A 0.61 0.60 -78.1 0 0 36.18 64.42
  Q 43.35 64.67 49.72 61.41
  Q 50.26 61.13 50.26 60.52
  Q 50.24 59.39 49.82 58.31
  A 1.35 1.34 -12.1 0 1 51.01 56.48
  C 52.91 56.40 53.92 55.70 55.10 54.14
  C 63.36 43.21 72.58 28.65 73.29 14.60
  A 0.82 0.81 -1.5 0 0 72.39 13.75
  C 55.34 15.64 41.67 26.53 33.81 41.71
  C 33.20 42.90 33.27 43.84 33.61 45.05
  A 1.49 1.49 0.0 0 1 32.54 46.89
  L 30.73 47.35
  A 1.62 1.62 0.0 0 0 29.51 48.92
  Q 29.52 53.96 30.99 58.79
  A 1.99 1.99 0.0 0 1 30.93 60.13
  Q 25.42 73.68 22.56 88.58" stroke-linecap="butt" fill="none" stroke-width="2.00" stroke="#8b80f2"></path>
<path d="M 44.41 0.00
  L 51.46 0.00
  C 75.72 2.72 93.63 19.98 96.00 44.40
  L 96.00 51.46
  C 93.45 75.76 75.65 93.85 51.36 96.00
  L 44.52 96.00
  Q 34.20 94.96 25.18 90.30
  C 29.45 67.34 38.86 43.41 56.70 27.26
  A 1.08 1.07 47.4 0 1 58.22 27.33
  L 58.56 27.68
  A 1.10 1.09 -43.6 0 1 58.52 29.19
  Q 43.59 44.04 35.64 63.59
  A 0.61 0.60 -78.1 0 0 36.18 64.42
  Q 43.35 64.67 49.72 61.41
  Q 50.26 61.13 50.26 60.52
  Q 50.24 59.39 49.82 58.31
  A 1.35 1.34 -12.1 0 1 51.01 56.48
  C 52.91 56.40 53.92 55.70 55.10 54.14
  C 63.36 43.21 72.58 28.65 73.29 14.60
  A 0.82 0.81 -1.5 0 0 72.39 13.75
  C 55.34 15.64 41.67 26.53 33.81 41.71
  C 33.20 42.90 33.27 43.84 33.61 45.05
  A 1.49 1.49 0.0 0 1 32.54 46.89
  L 30.73 47.35
  A 1.62 1.62 0.0 0 0 29.51 48.92
  Q 29.52 53.96 30.99 58.79
  A 1.99 1.99 0.0 0 1 30.93 60.13
  Q 25.42 73.68 22.56 88.58
  C 9.40 80.71 1.51 66.65 0.00 51.61
  L 0.00 44.52
  C 2.40 19.93 20.03 2.96 44.41 0.00
  Z" fill="#1600e5"></path>
<path d="M 25.18 90.30
  L 22.56 88.58
  Q 25.42 73.68 30.93 60.13
  A 1.99 1.99 0.0 0 0 30.99 58.79
  Q 29.52 53.96 29.51 48.92
  A 1.62 1.62 0.0 0 1 30.73 47.35
  L 32.54 46.89
  A 1.49 1.49 0.0 0 0 33.61 45.05
  C 33.27 43.84 33.20 42.90 33.81 41.71
  C 41.67 26.53 55.34 15.64 72.39 13.75
  A 0.82 0.81 -1.5 0 1 73.29 14.60
  C 72.58 28.65 63.36 43.21 55.10 54.14
  C 53.92 55.70 52.91 56.40 51.01 56.48
  A 1.35 1.34 -12.1 0 0 49.82 58.31
  Q 50.24 59.39 50.26 60.52
  Q 50.26 61.13 49.72 61.41
  Q 43.35 64.67 36.18 64.42
  A 0.61 0.60 -78.1 0 1 35.64 63.59
  Q 43.59 44.04 58.52 29.19
  A 1.10 1.09 -43.6 0 0 58.56 27.68
  L 58.22 27.33
  A 1.08 1.07 47.4 0 0 56.70 27.26
  C 38.86 43.41 29.45 67.34 25.18 90.30
  Z" fill="#ffffff"></path>
</svg>
