<svg viewBox="0.00 0.00 32.00 32.00" version="1.1" xmlns="http://www.w3.org/2000/svg">
<g stroke-linecap="butt" fill="none" stroke-width="2.00">
<path d="M 11.06 0.00
  L 23.66 4.87" stroke="#a92257"></path>
<path d="M 23.66 4.87
  Q 23.83 6.15 24.88 7.25" stroke="#e6577e"></path>
<path d="M 24.88 7.25
  Q 24.66 6.99 24.27 6.97
  Q 23.97 6.95 23.90 7.24
  Q 23.78 7.68 24.14 7.70" stroke="#fd94ac"></path>
<path d="M 24.14 7.70
  Q 23.91 7.70 23.69 7.69" stroke="#be417c"></path>
<path d="M 23.69 7.69
  Q 22.33 4.70 19.67 3.72" stroke="#942152"></path>
<path d="M 19.67 3.72
  Q 17.55 3.00 15.44 3.05
  C 13.93 3.08 12.94 4.07 11.53 4.61" stroke="#ad2940"></path>
<path d="M 11.53 4.61
  Q 11.65 4.29 11.63 4.07
  Q 11.58 3.44 11.03 3.75
  Q 8.80 5.01 7.50 7.35" stroke="#f68491"></path>
<path d="M 7.50 7.35
  L 0.25 5.27" stroke="#ff4c57"></path>
<path d="M 32.00 13.11
  Q 30.19 11.35 28.87 9.25
  Q 28.06 7.96 23.66 4.87" stroke="#903e64"></path>
<path d="M 19.67 3.72
  Q 9.80 3.55 11.30 11.52" stroke="#430f21"></path>
<path d="M 11.30 11.52
  Q 10.45 11.92 10.43 13.15
  C 10.39 14.67 11.47 15.61 11.34 17.50
  Q 11.11 20.86 12.68 23.79
  Q 12.90 24.20 12.85 24.50
  Q 12.79 24.84 12.61 25.24" stroke="#2f0c08"></path>
<path d="M 12.61 25.24
  Q 12.23 25.29 11.49 24.80" stroke="#76402e"></path>
<path d="M 11.49 24.80
  Q 9.04 20.54 8.74 15.49
  C 8.46 10.69 7.93 7.35 11.53 4.61" stroke="#a57260"></path>
<path d="M 11.49 24.80
  C 11.12 27.55 14.05 30.26 9.75 32.00" stroke="#bf9b7f"></path>
<path d="M 7.00 32.00
  Q 7.66 31.20 8.78 30.90
  Q 9.30 30.75 9.70 30.38
  Q 11.22 28.95 11.34 26.85
  Q 11.37 26.38 11.15 25.95
  L 8.43 20.78" stroke="#f7bc79"></path>
<path d="M 8.43 20.78
  L 6.98 14.15" stroke="#786758"></path>
<path d="M 6.98 14.15
  L 6.87 12.16" stroke="#f7ac6b"></path>
<path d="M 6.87 12.16
  Q 6.83 9.37 7.50 7.35" stroke="#f79576"></path>
<path d="M 23.69 7.69
  C 23.57 11.58 24.31 15.49 23.17 19.01
  Q 22.00 22.63 19.70 25.46" stroke="#54275c"></path>
<path d="M 19.70 25.46
  L 21.56 14.70
  Q 21.64 14.23 21.45 13.79
  C 20.13 10.66 22.66 4.97 17.24 4.66
  Q 10.99 4.29 11.30 11.52" stroke="#160419"></path>
<path d="M 19.70 25.46
  L 17.99 27.34" stroke="#402443"></path>
<path d="M 17.99 27.34
  L 15.17 27.54" stroke="#140808"></path>
<path d="M 15.17 27.54
  L 12.61 25.24" stroke="#493427"></path>
<path d="M 6.87 12.16
  Q 3.73 10.21 0.00 9.43" stroke="#ff7431"></path>
<path d="M 32.00 18.56
  C 31.12 20.54 30.53 22.21 28.76 23.65
  C 26.32 25.64 25.06 27.02 21.51 28.36" stroke="#95454d"></path>
<path d="M 21.51 28.36
  Q 25.34 25.16 28.47 21.80
  Q 30.42 19.72 30.69 17.65
  C 31.36 12.51 28.05 10.51 24.88 7.25" stroke="#e5afb9"></path>
<path d="M 21.51 28.36
  Q 19.88 30.13 23.61 31.48
  Q 23.80 31.55 23.83 31.74
  Q 23.85 31.90 23.73 32.00" stroke="#ac827b"></path>
<path d="M 21.49 32.00
  Q 21.37 31.21 20.71 30.84" stroke="#917e7b"></path>
<path d="M 20.71 30.84
  Q 19.65 27.72 20.36 25.86
  Q 21.43 23.08 24.20 20.76" stroke="#bd9ab6"></path>
<path d="M 24.20 20.76
  Q 26.45 18.88 27.04 15.74
  A 1.49 1.40 25.4 0 0 26.49 14.34
  Q 26.09 14.02 25.22 14.44" stroke="#7f7673"></path>
<path d="M 25.22 14.44
  L 24.14 7.70" stroke="#bd9ab6"></path>
<path d="M 25.22 14.44
  L 24.20 20.76" stroke="#402443"></path>
<path d="M 20.71 30.84
  L 19.68 30.23
  Q 19.25 29.98 19.10 29.51
  Q 18.68 28.24 17.99 27.34" stroke="#522c4b"></path>
<path d="M 6.98 14.15
  Q 5.67 14.26 5.36 15.17
  Q 5.14 15.79 5.62 16.76
  Q 6.66 18.85 8.28 20.98" stroke="#804513"></path>
<path d="M 8.28 20.98
  L 7.26 21.22
  Q 6.83 21.32 6.78 21.76
  Q 6.69 22.58 6.07 22.84
  Q 5.66 23.01 4.96 22.81
  Q 2.44 22.05 0.00 21.25" stroke="#ff9a34"></path>
<path d="M 8.43 20.78
  Q 8.35 20.88 8.28 20.98" stroke="#805521"></path>
<path d="M 15.17 27.54
  Q 12.42 26.85 12.88 32.00" stroke="#5b3c2e"></path>
</g>
<path d="M 5.95 0.00
  L 11.06 0.00
  L 23.66 4.87
  Q 23.83 6.15 24.88 7.25
  Q 24.66 6.99 24.27 6.97
  Q 23.97 6.95 23.90 7.24
  Q 23.78 7.68 24.14 7.70
  Q 23.91 7.70 23.69 7.69
  Q 22.33 4.70 19.67 3.72
  Q 17.55 3.00 15.44 3.05
  C 13.93 3.08 12.94 4.07 11.53 4.61
  Q 11.65 4.29 11.63 4.07
  Q 11.58 3.44 11.03 3.75
  Q 8.80 5.01 7.50 7.35
  L 0.25 5.27
  Q 1.56 1.24 5.95 0.00
  Z" fill="#fe3b71"></path>
<path d="M 11.06 0.00
  L 25.71 0.00
  Q 31.06 1.37 32.00 6.62
  L 32.00 13.11
  Q 30.19 11.35 28.87 9.25
  Q 28.06 7.96 23.66 4.87
  L 11.06 0.00
  Z" fill="#53093c"></path>
<path d="M 19.67 3.72
  Q 9.80 3.55 11.30 11.52
  Q 10.45 11.92 10.43 13.15
  C 10.39 14.67 11.47 15.61 11.34 17.50
  Q 11.11 20.86 12.68 23.79
  Q 12.90 24.20 12.85 24.50
  Q 12.79 24.84 12.61 25.24
  Q 12.23 25.29 11.49 24.80
  Q 9.04 20.54 8.74 15.49
  C 8.46 10.69 7.93 7.35 11.53 4.61
  C 12.94 4.07 13.93 3.08 15.44 3.05
  Q 17.55 3.00 19.67 3.72
  Z" fill="#5c170f"></path>
<path d="M 11.53 4.61
  C 7.93 7.35 8.46 10.69 8.74 15.49
  Q 9.04 20.54 11.49 24.80
  C 11.12 27.55 14.05 30.26 9.75 32.00
  L 7.00 32.00
  Q 7.66 31.20 8.78 30.90
  Q 9.30 30.75 9.70 30.38
  Q 11.22 28.95 11.34 26.85
  Q 11.37 26.38 11.15 25.95
  L 8.43 20.78
  L 6.98 14.15
  L 6.87 12.16
  Q 6.83 9.37 7.50 7.35
  Q 8.80 5.01 11.03 3.75
  Q 11.58 3.44 11.63 4.07
  Q 11.65 4.29 11.53 4.61
  Z" fill="#eecdb0"></path>
<path d="M 19.67 3.72
  Q 22.33 4.70 23.69 7.69
  C 23.57 11.58 24.31 15.49 23.17 19.01
  Q 22.00 22.63 19.70 25.46
  L 21.56 14.70
  Q 21.64 14.23 21.45 13.79
  C 20.13 10.66 22.66 4.97 17.24 4.66
  Q 10.99 4.29 11.30 11.52
  Q 9.80 3.55 19.67 3.72
  Z" fill="#2a0732"></path>
<path d="M 19.70 25.46
  L 17.99 27.34
  L 15.17 27.54
  L 12.61 25.24
  Q 12.79 24.84 12.85 24.50
  Q 12.90 24.20 12.68 23.79
  Q 11.11 20.86 11.34 17.50
  C 11.47 15.61 10.39 14.67 10.43 13.15
  Q 10.45 11.92 11.30 11.52
  Q 10.99 4.29 17.24 4.66
  C 22.66 4.97 20.13 10.66 21.45 13.79
  Q 21.64 14.23 21.56 14.70
  L 19.70 25.46
  Z" fill="#010000"></path>
<path d="M 0.25 5.27
  L 7.50 7.35
  Q 6.83 9.37 6.87 12.16
  Q 3.73 10.21 0.00 9.43
  L 0.00 5.75
  Q 0.36 5.89 0.25 5.27
  Z" fill="#ff5d3c"></path>
<path d="M 23.66 4.87
  Q 28.06 7.96 28.87 9.25
  Q 30.19 11.35 32.00 13.11
  L 32.00 18.56
  C 31.12 20.54 30.53 22.21 28.76 23.65
  C 26.32 25.64 25.06 27.02 21.51 28.36
  Q 25.34 25.16 28.47 21.80
  Q 30.42 19.72 30.69 17.65
  C 31.36 12.51 28.05 10.51 24.88 7.25
  Q 23.83 6.15 23.66 4.87
  Z" fill="#cd728b"></path>
<path d="M 24.88 7.25
  C 28.05 10.51 31.36 12.51 30.69 17.65
  Q 30.42 19.72 28.47 21.80
  Q 25.34 25.16 21.51 28.36
  Q 19.88 30.13 23.61 31.48
  Q 23.80 31.55 23.83 31.74
  Q 23.85 31.90 23.73 32.00
  L 21.49 32.00
  Q 21.37 31.21 20.71 30.84
  Q 19.65 27.72 20.36 25.86
  Q 21.43 23.08 24.20 20.76
  Q 26.45 18.88 27.04 15.74
  A 1.49 1.40 25.4 0 0 26.49 14.34
  Q 26.09 14.02 25.22 14.44
  L 24.14 7.70
  Q 23.78 7.68 23.90 7.24
  Q 23.97 6.95 24.27 6.97
  Q 24.66 6.99 24.88 7.25
  Z" fill="#fcece6"></path>
<path d="M 23.69 7.69
  Q 23.91 7.70 24.14 7.70
  L 25.22 14.44
  L 24.20 20.76
  Q 21.43 23.08 20.36 25.86
  Q 19.65 27.72 20.71 30.84
  L 19.68 30.23
  Q 19.25 29.98 19.10 29.51
  Q 18.68 28.24 17.99 27.34
  L 19.70 25.46
  Q 22.00 22.63 23.17 19.01
  C 24.31 15.49 23.57 11.58 23.69 7.69
  Z" fill="#7e4786"></path>
<path d="M 0.00 9.43
  Q 3.73 10.21 6.87 12.16
  L 6.98 14.15
  Q 5.67 14.26 5.36 15.17
  Q 5.14 15.79 5.62 16.76
  Q 6.66 18.85 8.28 20.98
  L 7.26 21.22
  Q 6.83 21.32 6.78 21.76
  Q 6.69 22.58 6.07 22.84
  Q 5.66 23.01 4.96 22.81
  Q 2.44 22.05 0.00 21.25
  L 0.00 9.43
  Z" fill="#ff8a26"></path>
<path d="M 6.98 14.15
  L 8.43 20.78
  Q 8.35 20.88 8.28 20.98
  Q 6.66 18.85 5.62 16.76
  Q 5.14 15.79 5.36 15.17
  Q 5.67 14.26 6.98 14.15
  Z" fill="#010000"></path>
<path d="M 25.22 14.44
  Q 26.09 14.02 26.49 14.34
  A 1.49 1.40 25.4 0 1 27.04 15.74
  Q 26.45 18.88 24.20 20.76
  L 25.22 14.44
  Z" fill="#010000"></path>
<path d="M 32.00 18.56
  L 32.00 25.52
  Q 30.86 30.93 25.46 32.00
  L 23.73 32.00
  Q 23.85 31.90 23.83 31.74
  Q 23.80 31.55 23.61 31.48
  Q 19.88 30.13 21.51 28.36
  C 25.06 27.02 26.32 25.64 28.76 23.65
  C 30.53 22.21 31.12 20.54 32.00 18.56
  Z" fill="#5c170f"></path>
<path d="M 8.28 20.98
  Q 8.35 20.88 8.43 20.78
  L 11.15 25.95
  Q 11.37 26.38 11.34 26.85
  Q 11.22 28.95 9.70 30.38
  Q 9.30 30.75 8.78 30.90
  Q 7.66 31.20 7.00 32.00
  L 5.80 32.00
  Q 1.29 30.59 0.00 26.11
  L 0.00 21.25
  Q 2.44 22.05 4.96 22.81
  Q 5.66 23.01 6.07 22.84
  Q 6.69 22.58 6.78 21.76
  Q 6.83 21.32 7.26 21.22
  L 8.28 20.98
  Z" fill="#ffaa42"></path>
<path d="M 11.49 24.80
  Q 12.23 25.29 12.61 25.24
  L 15.17 27.54
  Q 12.42 26.85 12.88 32.00
  L 9.75 32.00
  C 14.05 30.26 11.12 27.55 11.49 24.80
  Z" fill="#90684d"></path>
<path d="M 15.17 27.54
  L 17.99 27.34
  Q 18.68 28.24 19.10 29.51
  Q 19.25 29.98 19.68 30.23
  L 20.71 30.84
  Q 21.37 31.21 21.49 32.00
  L 12.88 32.00
  Q 12.42 26.85 15.17 27.54
  Z" fill="#26100f"></path>
</svg>
