<svg viewBox="0.00 0.00 152.00 152.00" version="1.1" xmlns="http://www.w3.org/2000/svg">
<g stroke-linecap="butt" fill="none" stroke-width="2.00">
<path d="M 82.13 0.00
  Q 81.15 0.63 80.04 0.90
  Q 79.96 0.92 80.00 1.00
  Q 80.06 1.12 80.12 1.25
  Q 80.21 1.43 80.07 1.56
  L 76.67 4.97
  Q 76.51 5.13 76.29 5.12
  Q 76.08 5.12 75.88 5.16
  Q 75.39 5.25 75.04 5.60
  L 72.67 7.97
  Q 72.52 8.13 72.30 8.12
  Q 72.07 8.12 71.84 8.16
  Q 71.38 8.25 71.04 8.59
  L 66.67 12.96
  Q 66.51 13.12 66.27 13.12
  Q 66.05 13.12 65.84 13.16
  Q 65.38 13.25 65.05 13.58
  L 59.60 19.03
  Q 59.48 19.15 59.31 19.13
  Q 59.17 19.11 59.06 19.05
  Q 58.80 18.89 58.59 19.12
  Q 58.37 19.38 58.28 19.74" stroke="#36d3fc"></path>
<path d="M 58.28 19.74
  C 50.11 14.87 38.60 11.52 29.78 15.62
  C 15.38 22.31 15.30 41.50 28.40 49.67
  A 0.63 0.62 -63.7 0 1 28.65 50.42
  Q 27.25 54.16 27.23 57.95" stroke="#9dedfe"></path>
<path d="M 27.23 57.95
  Q 26.11 57.51 25.55 58.60
  Q 25.32 59.04 24.95 58.82
  Q 24.65 58.65 24.40 58.90
  L 20.72 62.69
  Q 20.54 62.88 20.27 62.88
  L 19.93 62.88
  Q 19.50 62.88 19.20 63.19
  L 14.69 67.70
  Q 14.51 67.88 14.25 67.88
  L 13.93 67.88
  Q 13.50 67.88 13.20 68.19
  L 8.69 72.70
  Q 8.51 72.88 8.26 72.88
  Q 8.08 72.88 7.89 72.90
  Q 7.39 72.95 7.04 73.31
  L 3.86 76.63
  A 1.74 1.71 13.2 0 1 3.12 77.08
  Q 1.15 77.66 0.00 80.53" stroke="#36d3fc"></path>
<path d="M 110.13 0.00
  Q 110.00 0.16 109.93 0.31
  Q 109.86 0.48 110.04 0.42
  Q 110.46 0.27 110.74 0.50
  A 0.30 0.30 0.0 0 1 110.76 0.94
  L 107.64 3.96
  Q 107.47 4.12 107.24 4.12
  Q 107.06 4.12 106.89 4.15
  Q 106.42 4.24 106.08 4.57
  L 102.78 7.82
  Q 102.47 8.12 102.04 8.12
  L 101.52 8.12
  Q 100.99 8.12 101.10 8.64
  Q 101.23 9.25 100.98 9.80
  Q 100.84 10.12 100.48 10.12
  L 100.03 10.12
  Q 99.51 10.12 99.15 10.49
  L 96.67 12.97
  Q 96.52 13.13 96.30 13.12
  Q 96.06 13.12 95.83 13.17
  Q 95.37 13.26 95.05 13.59
  L 89.68 18.96
  Q 89.51 19.13 89.27 19.12
  Q 89.06 19.12 88.86 19.16
  Q 88.38 19.25 88.04 19.59
  L 84.67 22.96
  Q 84.51 23.13 84.28 23.12
  Q 84.06 23.12 83.83 23.16
  Q 83.38 23.26 83.04 23.59
  L 78.69 27.94
  Q 78.51 28.12 78.25 28.12
  L 77.94 28.12
  Q 77.48 28.12 77.19 28.48
  Q 75.69 30.37 74.09 30.40" stroke="#30c5fd"></path>
<path d="M 74.09 30.40
  Q 66.44 24.36 58.28 19.74" stroke="#99e5fe"></path>
<path d="M 149.45 18.20
  L 142.69 24.70
  Q 142.50 24.88 142.24 24.88
  L 141.93 24.88
  Q 141.50 24.88 141.20 25.19
  L 137.69 28.70
  Q 137.51 28.88 137.25 28.88
  L 136.93 28.88
  Q 136.50 28.88 136.20 29.19
  L 131.69 33.70
  Q 131.51 33.88 131.26 33.88
  Q 131.08 33.88 130.90 33.90
  Q 130.40 33.96 130.05 34.32
  C 128.85 35.52 126.43 38.53 124.90 39.01
  A 0.54 0.53 -15.1 0 0 124.54 39.63
  Q 124.71 40.38 124.55 41.04" stroke="#29b5fe"></path>
<path d="M 124.55 41.04
  Q 120.56 30.47 109.93 27.26
  A 1.88 1.87 -13.5 0 1 109.12 26.77
  Q 105.33 22.84 101.45 25.33
  C 95.23 29.32 100.55 38.09 107.02 35.01
  A 1.35 1.30 40.0 0 1 108.00 34.94
  Q 113.65 36.69 116.32 41.93
  Q 116.57 42.40 116.03 42.42
  Q 103.82 42.66 97.85 53.09
  Q 97.46 53.77 96.95 53.17
  Q 86.18 40.73 74.09 30.40" stroke="#96dffe"></path>
<path d="M 124.55 41.04
  L 125.31 44.38
  Q 125.42 44.89 125.86 45.16
  Q 131.07 48.41 134.13 54.40" stroke="#92d5ff"></path>
<path d="M 134.13 54.40
  Q 136.27 59.70 135.37 65.28
  C 133.47 77.17 122.78 83.43 110.94 81.52
  Q 110.42 81.44 110.30 81.95
  C 105.05 103.26 79.99 103.40 67.04 116.29
  C 62.67 120.63 61.15 130.71 60.43 136.57
  A 1.96 1.96 0.0 0 1 58.46 138.30
  C 56.02 138.27 56.43 135.89 56.09 134.27" stroke="#8fceff"></path>
<path d="M 56.09 134.27
  L 53.64 110.25" stroke="#92d5ff"></path>
<path d="M 53.64 110.25
  Q 51.84 101.19 51.43 90.99" stroke="#93d9ff"></path>
<path d="M 51.43 90.99
  Q 50.77 80.84 54.76 71.74
  Q 55.00 71.18 54.42 71.37
  C 47.68 73.55 43.51 74.94 37.32 72.81" stroke="#96dffe"></path>
<path d="M 37.32 72.81
  Q 27.72 68.29 27.23 57.95" stroke="#99e5fe"></path>
<path d="M 34.17 43.58
  C 45.19 35.74 66.00 38.94 77.33 43.83
  Q 79.21 44.64 77.68 43.29
  C 68.68 35.36 42.33 12.50 29.87 24.14
  C 23.43 30.15 25.20 38.95 32.48 43.62
  A 1.51 1.51 0.0 0 0 34.17 43.58" stroke="#9dedfe"></path>
<path d="M 84.02 55.03
  C 72.43 47.68 59.08 44.87 45.49 46.96
  Q 39.06 47.95 36.40 53.19
  C 32.17 61.55 40.56 68.43 48.50 65.49
  Q 59.96 61.26 71.52 57.37
  Q 77.80 55.26 83.84 55.59
  Q 85.01 55.66 84.02 55.03" stroke="#99e5fe"></path>
<path d="M 127.9909 62.6745
  A 12.36 12.15 2.2 0 0 116.1064 50.0590
  A 12.36 12.15 2.2 0 0 103.2891 61.7255
  A 12.36 12.15 2.2 0 0 115.1736 74.3410
  A 12.36 12.15 2.2 0 0 127.9909 62.6745" stroke="#92d5ff"></path>
<path d="M 60.17 102.30
  L 61.61 110.92
  Q 61.67 111.27 61.94 111.05
  Q 70.88 104.05 81.29 99.28
  C 90.57 95.03 99.15 91.99 103.06 81.52
  Q 103.62 80.03 103.54 78.44
  A 1.09 1.09 0.0 0 0 103.14 77.64
  Q 99.49 74.65 97.41 70.59" stroke="#92d5ff"></path>
<path d="M 97.41 70.59
  L 95.76 64.85
  A 0.74 0.72 89.8 0 0 95.26 64.34
  Q 82.47 60.55 71.72 64.75
  C 57.92 70.14 58.11 90.25 60.17 102.30" stroke="#93d9ff"></path>
<path d="M 97.41 70.59
  Q 95.85 71.48 94.71 72.80
  Q 94.54 73.00 94.27 73.00
  Q 94.07 73.00 93.88 73.03
  Q 93.50 73.10 93.22 73.37
  L 89.74 76.76
  Q 89.51 76.98 89.19 76.99
  Q 89.01 77.00 88.84 77.03
  Q 88.54 77.08 88.28 77.33
  Q 85.99 79.58 83.69 81.82
  Q 83.51 81.99 83.27 81.99
  Q 83.14 81.99 83.01 82.01
  Q 82.77 82.03 82.57 82.22
  Q 80.11 84.43 77.75 86.76
  Q 77.52 86.99 77.19 86.99
  Q 77.02 87.00 76.84 87.03
  Q 76.54 87.07 76.27 87.33
  Q 74.11 89.39 71.99 91.50
  Q 71.66 91.82 71.21 91.91
  Q 70.72 92.00 70.23 92.48
  Q 67.08 95.56 61.59 99.93
  Q 61.50 100.00 61.40 100.02
  Q 61.25 100.04 61.11 100.06
  Q 60.85 100.11 60.77 100.36
  L 60.17 102.30" stroke="#26aefe"></path>
<path d="M 152.00 42.36
  L 151.84 44.36
  Q 151.79 45.00 151.34 44.55
  Q 150.95 44.17 150.89 43.61
  Q 150.88 43.48 150.93 43.38
  Q 150.99 43.25 151.09 43.18
  Q 151.18 43.12 151.10 43.06
  Q 150.97 42.97 150.92 42.74
  Q 150.84 42.39 151.06 42.18
  Q 151.12 42.12 151.04 42.12
  Q 150.83 42.12 150.63 42.13
  Q 150.39 42.13 150.23 42.30
  L 147.71 44.96
  Q 147.55 45.13 147.32 45.12
  Q 147.09 45.11 146.86 45.16
  Q 146.38 45.25 146.04 45.59
  L 142.70 48.94
  Q 142.52 49.12 142.26 49.12
  L 141.94 49.12
  Q 141.48 49.12 141.18 49.47
  Q 137.93 53.28 134.13 54.40" stroke="#21a4ff"></path>
<path d="M 152.00 70.11
  Q 151.78 70.38 151.72 70.99
  A 0.09 0.09 0.0 0 1 151.57 71.04
  Q 151.48 70.95 151.37 70.86
  Q 151.08 70.64 150.81 70.88
  Q 149.25 72.23 147.89 73.80
  Q 147.71 74.00 147.48 74.06
  Q 147.25 74.13 147.01 74.14
  Q 146.49 74.16 146.12 74.52
  L 142.78 77.81
  Q 142.47 78.11 142.05 78.11
  L 141.63 78.12
  Q 141.12 78.12 141.12 78.62
  L 141.11 79.07
  Q 141.10 79.71 140.50 79.89
  Q 138.09 80.63 136.75 82.89
  Q 136.61 83.14 136.32 83.12
  Q 136.07 83.10 135.83 83.16
  Q 135.36 83.27 135.02 83.61
  L 130.67 87.95
  Q 130.51 88.12 130.28 88.11
  Q 130.10 88.11 129.92 88.14
  Q 129.41 88.22 129.05 88.59
  L 126.67 90.97
  Q 126.51 91.12 126.30 91.11
  Q 126.12 91.11 125.94 91.14
  Q 125.44 91.22 125.09 91.57
  L 119.66 96.95
  Q 119.49 97.11 119.26 97.11
  Q 119.06 97.11 118.87 97.15
  Q 118.39 97.24 118.05 97.58
  L 113.67 101.95
  Q 113.51 102.12 113.28 102.11
  Q 113.07 102.11 112.87 102.15
  Q 112.39 102.24 112.05 102.58
  L 107.67 106.95
  Q 107.51 107.12 107.28 107.11
  Q 107.08 107.11 106.89 107.15
  Q 106.40 107.23 106.05 107.58
  L 102.78 110.83
  Q 102.48 111.13 102.04 111.11
  Q 101.57 111.08 101.26 111.37
  Q 100.07 112.49 96.71 115.93
  Q 96.53 116.11 96.27 116.11
  Q 96.03 116.11 95.78 116.17
  Q 95.35 116.26 95.03 116.57
  L 91.31 120.14
  Q 91.11 120.32 91.11 120.60
  Q 91.10 120.80 91.10 120.99
  Q 91.10 121.60 90.50 121.60
  L 88.49 121.62
  Q 88.03 121.62 87.69 121.95
  L 82.69 126.95
  Q 82.52 127.12 82.28 127.12
  Q 82.09 127.12 81.90 127.15
  Q 81.48 127.24 81.17 127.54
  L 76.65 131.95
  Q 76.48 132.12 76.25 132.12
  Q 76.06 132.12 75.87 132.16
  Q 75.39 132.24 75.04 132.59
  L 71.67 135.96
  Q 71.51 136.12 71.28 136.12
  Q 71.07 136.12 70.87 136.16
  Q 70.39 136.25 70.04 136.59
  L 66.70 139.94
  Q 66.52 140.12 66.26 140.12
  L 65.92 140.12
  Q 65.53 140.12 65.26 140.39
  L 55.07 150.47
  A 0.09 0.09 0.0 0 0 55.14 150.63
  Q 55.32 150.63 55.43 150.79
  Q 55.64 151.08 55.33 151.25
  Q 54.94 151.47 54.88 152.00" stroke="#2099ff"></path>
<path d="M 35.98 152.00
  Q 34.52 151.47 32.70 151.63
  Q 32.57 151.64 32.52 151.53
  Q 32.46 151.41 32.39 151.28
  Q 32.26 151.01 32.56 150.98
  C 34.62 150.75 36.81 147.44 38.37 146.01
  Q 38.52 145.88 38.72 145.88
  Q 38.93 145.88 39.14 145.84
  Q 39.61 145.75 39.96 145.41
  L 43.33 142.04
  Q 43.49 141.87 43.72 141.88
  Q 43.94 141.88 44.16 141.84
  Q 44.62 141.75 44.96 141.41
  L 49.33 137.04
  Q 49.49 136.88 49.73 136.88
  Q 49.93 136.88 50.13 136.84
  Q 50.60 136.76 50.94 136.42
  L 54.21 133.17
  Q 54.55 132.83 54.91 133.16
  L 56.09 134.27" stroke="#21a4ff"></path>
<path d="M 37.32 72.81
  L 31.69 77.94
  Q 31.50 78.11 31.24 78.11
  Q 31.06 78.11 30.87 78.15
  Q 30.39 78.23 30.05 78.58
  L 25.67 82.95
  Q 25.51 83.12 25.28 83.11
  Q 25.07 83.11 24.86 83.15
  Q 24.39 83.24 24.04 83.58
  L 19.67 87.95
  Q 19.51 88.12 19.28 88.11
  Q 19.08 88.11 18.88 88.15
  Q 18.39 88.23 18.04 88.59
  L 14.67 91.96
  Q 14.51 92.12 14.29 92.11
  Q 14.09 92.11 13.89 92.14
  Q 13.41 92.23 13.07 92.56
  L 8.87 96.73
  Q 8.55 97.05 8.10 97.11
  Q 7.35 97.23 6.82 97.83
  Q 4.78 100.13 2.43 102.04
  A 0.85 0.84 61.9 0 1 1.09 101.63
  Q 0.85 100.86 0.00 101.41" stroke="#30c5fd"></path>
<path d="M 152.00 87.84
  Q 151.52 88.51 151.65 89.62
  Q 151.65 89.64 151.64 89.64
  Q 151.62 89.64 151.63 89.62
  Q 151.64 89.60 151.64 89.59
  Q 151.45 88.88 150.95 88.36
  Q 150.57 87.98 150.19 88.35
  L 145.67 92.72
  Q 145.50 92.88 145.26 92.89
  Q 145.12 92.89 144.98 92.91
  Q 144.58 92.95 144.29 93.23
  L 139.72 97.68
  Q 139.52 97.88 139.24 97.89
  Q 139.03 97.89 138.82 97.93
  Q 138.52 97.98 138.26 98.23
  Q 136.47 99.99 134.66 101.74
  Q 134.51 101.89 134.30 101.89
  Q 134.14 101.89 133.98 101.91
  Q 133.58 101.95 133.29 102.23
  L 128.68 106.71
  Q 128.51 106.88 128.27 106.89
  Q 128.12 106.89 127.98 106.91
  Q 127.58 106.95 127.29 107.23
  L 122.68 111.71
  Q 122.51 111.88 122.27 111.89
  Q 122.12 111.89 121.98 111.91
  Q 121.58 111.95 121.29 112.23
  L 116.72 116.68
  Q 116.52 116.88 116.24 116.89
  Q 116.03 116.89 115.82 116.93
  Q 115.52 116.98 115.26 117.23
  Q 113.47 118.99 111.66 120.74
  Q 111.51 120.89 111.30 120.89
  Q 111.10 120.89 110.90 120.91
  A 0.97 0.94 18.3 0 0 110.34 121.18
  L 105.75 125.70
  Q 105.56 125.89 105.29 125.89
  Q 105.06 125.89 104.83 125.92
  Q 104.52 125.97 104.25 126.24
  Q 101.47 129.02 98.64 131.75
  Q 98.49 131.89 98.29 131.89
  Q 98.12 131.89 97.95 131.91
  Q 97.61 131.95 97.36 132.18
  L 94.70 134.72
  Q 94.53 134.89 94.29 134.89
  Q 94.09 134.89 93.90 134.91
  A 0.89 0.88 -70.6 0 0 93.34 135.18
  L 88.80 139.66
  Q 88.61 139.84 88.35 139.87
  L 87.76 139.94
  A 0.55 0.52 -68.4 0 0 87.46 140.08
  L 81.93 145.47
  Q 81.55 145.83 81.03 145.88
  C 80.18 145.95 78.14 148.38 76.92 148.95
  C 75.61 149.56 74.99 150.39 74.12 151.43
  Q 73.90 151.69 74.20 151.54
  Q 74.32 151.48 74.44 151.42
  Q 74.73 151.28 74.86 151.57
  Q 74.94 151.74 74.88 152.00" stroke="#2790ff"></path>
<path d="M 51.43 90.99
  Q 50.95 89.77 50.92 88.72
  Q 50.91 88.31 50.56 88.52
  Q 47.82 90.23 45.84 92.77
  A 0.64 0.63 18.9 0 1 45.34 93.01
  Q 45.19 93.00 45.03 93.02
  Q 44.46 93.06 44.05 93.47
  L 40.63 96.89
  Q 40.51 97.01 40.34 97.01
  Q 40.15 97.00 39.97 97.02
  Q 39.44 97.08 39.06 97.46
  L 34.63 101.89
  Q 34.51 102.01 34.33 102.01
  Q 34.15 102.00 33.97 102.02
  Q 33.44 102.08 33.06 102.46
  L 28.63 106.89
  Q 28.51 107.01 28.33 107.01
  Q 28.15 107.00 27.97 107.02
  Q 27.44 107.08 27.06 107.45
  L 23.63 110.89
  Q 23.51 111.01 23.34 111.01
  Q 23.15 111.00 22.97 111.02
  Q 22.44 111.08 22.06 111.46
  L 17.63 115.89
  Q 17.51 116.01 17.33 116.01
  Q 17.15 116.00 16.97 116.02
  Q 16.44 116.08 16.06 116.46
  L 11.63 120.89
  Q 11.51 121.01 11.33 121.01
  Q 11.17 121.00 11.02 121.02
  Q 10.50 121.06 10.13 121.42
  L 6.91 124.55
  Q 6.53 124.92 6.03 125.10
  Q 4.96 125.46 4.09 126.80
  Q 3.34 127.94 0.95 129.03" stroke="#2ab9fe"></path>
<path d="M 152.00 105.94
  Q 149.18 108.16 146.89 110.79
  Q 146.71 111.00 146.48 111.06
  Q 146.24 111.12 146.00 111.13
  Q 145.47 111.15 145.10 111.53
  L 141.66 114.96
  Q 141.51 115.11 141.29 115.11
  Q 141.12 115.10 140.95 115.13
  Q 140.45 115.20 140.09 115.55
  L 136.77 118.81
  Q 136.47 119.10 136.05 119.11
  L 135.52 119.11
  Q 134.99 119.12 135.09 119.64
  Q 135.20 120.23 134.98 120.77
  Q 134.85 121.11 134.49 121.11
  L 134.06 121.11
  Q 133.53 121.11 133.16 121.47
  L 130.63 123.97
  Q 130.50 124.10 130.31 124.11
  Q 130.15 124.11 129.99 124.10
  Q 129.57 124.09 129.28 124.37
  L 124.64 128.96
  Q 124.49 129.11 124.27 129.11
  Q 124.08 129.10 123.89 129.14
  Q 123.40 129.22 123.05 129.57
  L 118.63 133.99
  Q 118.50 134.11 118.32 134.11
  Q 118.16 134.10 118.00 134.12
  Q 117.48 134.19 117.11 134.55
  L 114.82 136.75
  Q 114.51 137.05 114.08 137.11
  Q 113.04 137.24 112.49 137.86
  Q 109.83 140.93 106.89 143.69
  Q 106.53 144.03 106.04 144.15
  C 104.79 144.46 103.95 145.84 103.25 146.37
  Q 101.22 147.86 98.23 149.22
  A 0.86 0.85 44.8 0 0 98.24 150.78
  Q 99.18 151.20 98.63 152.00" stroke="#3186ff"></path>
<path d="M 53.64 110.25
  L 46.95 116.48
  Q 46.52 116.88 45.93 116.88
  L 44.95 116.88
  A 1.11 1.09 22.0 0 0 44.17 117.20
  L 35.69 125.69
  Q 35.51 125.88 35.25 125.88
  L 34.93 125.88
  Q 34.50 125.88 34.20 126.18
  L 28.69 131.70
  Q 28.50 131.88 28.25 131.88
  L 27.93 131.88
  Q 27.50 131.88 27.20 132.18
  L 23.69 135.70
  Q 23.51 135.88 23.25 135.88
  L 22.93 135.88
  Q 22.50 135.88 22.20 136.18
  L 18.69 139.70
  Q 18.51 139.88 18.25 139.88
  L 17.97 139.88
  Q 17.54 139.88 17.24 140.18
  L 12.46 144.85
  Q 12.35 144.96 12.21 144.89
  L 11.99 144.76
  Q 11.77 144.65 11.68 144.87
  Q 11.58 145.12 11.68 145.54" stroke="#26aefe"></path>
</g>
<path d="M 27.85 0.00
  L 82.13 0.00
  Q 81.15 0.63 80.04 0.90
  Q 79.96 0.92 80.00 1.00
  Q 80.06 1.12 80.12 1.25
  Q 80.21 1.43 80.07 1.56
  L 76.67 4.97
  Q 76.51 5.13 76.29 5.12
  Q 76.08 5.12 75.88 5.16
  Q 75.39 5.25 75.04 5.60
  L 72.67 7.97
  Q 72.52 8.13 72.30 8.12
  Q 72.07 8.12 71.84 8.16
  Q 71.38 8.25 71.04 8.59
  L 66.67 12.96
  Q 66.51 13.12 66.27 13.12
  Q 66.05 13.12 65.84 13.16
  Q 65.38 13.25 65.05 13.58
  L 59.60 19.03
  Q 59.48 19.15 59.31 19.13
  Q 59.17 19.11 59.06 19.05
  Q 58.80 18.89 58.59 19.12
  Q 58.37 19.38 58.28 19.74
  C 50.11 14.87 38.60 11.52 29.78 15.62
  C 15.38 22.31 15.30 41.50 28.40 49.67
  A 0.63 0.62 -63.7 0 1 28.65 50.42
  Q 27.25 54.16 27.23 57.95
  Q 26.11 57.51 25.55 58.60
  Q 25.32 59.04 24.95 58.82
  Q 24.65 58.65 24.40 58.90
  L 20.72 62.69
  Q 20.54 62.88 20.27 62.88
  L 19.93 62.88
  Q 19.50 62.88 19.20 63.19
  L 14.69 67.70
  Q 14.51 67.88 14.25 67.88
  L 13.93 67.88
  Q 13.50 67.88 13.20 68.19
  L 8.69 72.70
  Q 8.51 72.88 8.26 72.88
  Q 8.08 72.88 7.89 72.90
  Q 7.39 72.95 7.04 73.31
  L 3.86 76.63
  A 1.74 1.71 13.2 0 1 3.12 77.08
  Q 1.15 77.66 0.00 80.53
  L 0.00 27.51
  Q 4.09 3.71 27.85 0.00
  Z" fill="#3adbfc"></path>
<path d="M 82.13 0.00
  L 110.13 0.00
  Q 110.00 0.16 109.93 0.31
  Q 109.86 0.48 110.04 0.42
  Q 110.46 0.27 110.74 0.50
  A 0.30 0.30 0.0 0 1 110.76 0.94
  L 107.64 3.96
  Q 107.47 4.12 107.24 4.12
  Q 107.06 4.12 106.89 4.15
  Q 106.42 4.24 106.08 4.57
  L 102.78 7.82
  Q 102.47 8.12 102.04 8.12
  L 101.52 8.12
  Q 100.99 8.12 101.10 8.64
  Q 101.23 9.25 100.98 9.80
  Q 100.84 10.12 100.48 10.12
  L 100.03 10.12
  Q 99.51 10.12 99.15 10.49
  L 96.67 12.97
  Q 96.52 13.13 96.30 13.12
  Q 96.06 13.12 95.83 13.17
  Q 95.37 13.26 95.05 13.59
  L 89.68 18.96
  Q 89.51 19.13 89.27 19.12
  Q 89.06 19.12 88.86 19.16
  Q 88.38 19.25 88.04 19.59
  L 84.67 22.96
  Q 84.51 23.13 84.28 23.12
  Q 84.06 23.12 83.83 23.16
  Q 83.38 23.26 83.04 23.59
  L 78.69 27.94
  Q 78.51 28.12 78.25 28.12
  L 77.94 28.12
  Q 77.48 28.12 77.19 28.48
  Q 75.69 30.37 74.09 30.40
  Q 66.44 24.36 58.28 19.74
  Q 58.37 19.38 58.59 19.12
  Q 58.80 18.89 59.06 19.05
  Q 59.17 19.11 59.31 19.13
  Q 59.48 19.15 59.60 19.03
  L 65.05 13.58
  Q 65.38 13.25 65.84 13.16
  Q 66.05 13.12 66.27 13.12
  Q 66.51 13.12 66.67 12.96
  L 71.04 8.59
  Q 71.38 8.25 71.84 8.16
  Q 72.07 8.12 72.30 8.12
  Q 72.52 8.13 72.67 7.97
  L 75.04 5.60
  Q 75.39 5.25 75.88 5.16
  Q 76.08 5.12 76.29 5.12
  Q 76.51 5.13 76.67 4.97
  L 80.07 1.56
  Q 80.21 1.43 80.12 1.25
  Q 80.06 1.12 80.00 1.00
  Q 79.96 0.92 80.04 0.90
  Q 81.15 0.63 82.13 0.00
  Z" fill="#32cbfc"></path>
<path d="M 110.13 0.00
  L 124.25 0.00
  Q 142.10 2.52 149.45 18.20
  L 142.69 24.70
  Q 142.50 24.88 142.24 24.88
  L 141.93 24.88
  Q 141.50 24.88 141.20 25.19
  L 137.69 28.70
  Q 137.51 28.88 137.25 28.88
  L 136.93 28.88
  Q 136.50 28.88 136.20 29.19
  L 131.69 33.70
  Q 131.51 33.88 131.26 33.88
  Q 131.08 33.88 130.90 33.90
  Q 130.40 33.96 130.05 34.32
  C 128.85 35.52 126.43 38.53 124.90 39.01
  A 0.54 0.53 -15.1 0 0 124.54 39.63
  Q 124.71 40.38 124.55 41.04
  Q 120.56 30.47 109.93 27.26
  A 1.88 1.87 -13.5 0 1 109.12 26.77
  Q 105.33 22.84 101.45 25.33
  C 95.23 29.32 100.55 38.09 107.02 35.01
  A 1.35 1.30 40.0 0 1 108.00 34.94
  Q 113.65 36.69 116.32 41.93
  Q 116.57 42.40 116.03 42.42
  Q 103.82 42.66 97.85 53.09
  Q 97.46 53.77 96.95 53.17
  Q 86.18 40.73 74.09 30.40
  Q 75.69 30.37 77.19 28.48
  Q 77.48 28.12 77.94 28.12
  L 78.25 28.12
  Q 78.51 28.12 78.69 27.94
  L 83.04 23.59
  Q 83.38 23.26 83.83 23.16
  Q 84.06 23.12 84.28 23.12
  Q 84.51 23.13 84.67 22.96
  L 88.04 19.59
  Q 88.38 19.25 88.86 19.16
  Q 89.06 19.12 89.27 19.12
  Q 89.51 19.13 89.68 18.96
  L 95.05 13.59
  Q 95.37 13.26 95.83 13.17
  Q 96.06 13.12 96.30 13.12
  Q 96.52 13.13 96.67 12.97
  L 99.15 10.49
  Q 99.51 10.12 100.03 10.12
  L 100.48 10.12
  Q 100.84 10.12 100.98 9.80
  Q 101.23 9.25 101.10 8.64
  Q 100.99 8.12 101.52 8.12
  L 102.04 8.12
  Q 102.47 8.12 102.78 7.82
  L 106.08 4.57
  Q 106.42 4.24 106.89 4.15
  Q 107.06 4.12 107.24 4.12
  Q 107.47 4.12 107.64 3.96
  L 110.76 0.94
  A 0.30 0.30 0.0 0 0 110.74 0.50
  Q 110.46 0.27 110.04 0.42
  Q 109.86 0.48 109.93 0.31
  Q 110.00 0.16 110.13 0.00
  Z" fill="#2dbffd"></path>
<path d="M 58.28 19.74
  Q 66.44 24.36 74.09 30.40
  Q 86.18 40.73 96.95 53.17
  Q 97.46 53.77 97.85 53.09
  Q 103.82 42.66 116.03 42.42
  Q 116.57 42.40 116.32 41.93
  Q 113.65 36.69 108.00 34.94
  A 1.35 1.30 40.0 0 0 107.02 35.01
  C 100.55 38.09 95.23 29.32 101.45 25.33
  Q 105.33 22.84 109.12 26.77
  A 1.88 1.87 -13.5 0 0 109.93 27.26
  Q 120.56 30.47 124.55 41.04
  L 125.31 44.38
  Q 125.42 44.89 125.86 45.16
  Q 131.07 48.41 134.13 54.40
  Q 136.27 59.70 135.37 65.28
  C 133.47 77.17 122.78 83.43 110.94 81.52
  Q 110.42 81.44 110.30 81.95
  C 105.05 103.26 79.99 103.40 67.04 116.29
  C 62.67 120.63 61.15 130.71 60.43 136.57
  A 1.96 1.96 0.0 0 1 58.46 138.30
  C 56.02 138.27 56.43 135.89 56.09 134.27
  L 53.64 110.25
  Q 51.84 101.19 51.43 90.99
  Q 50.77 80.84 54.76 71.74
  Q 55.00 71.18 54.42 71.37
  C 47.68 73.55 43.51 74.94 37.32 72.81
  Q 27.72 68.29 27.23 57.95
  Q 27.25 54.16 28.65 50.42
  A 0.63 0.62 -63.7 0 0 28.40 49.67
  C 15.30 41.50 15.38 22.31 29.78 15.62
  C 38.60 11.52 50.11 14.87 58.28 19.74
  Z
  M 34.17 43.58
  C 45.19 35.74 66.00 38.94 77.33 43.83
  Q 79.21 44.64 77.68 43.29
  C 68.68 35.36 42.33 12.50 29.87 24.14
  C 23.43 30.15 25.20 38.95 32.48 43.62
  A 1.51 1.51 0.0 0 0 34.17 43.58
  Z
  M 84.02 55.03
  C 72.43 47.68 59.08 44.87 45.49 46.96
  Q 39.06 47.95 36.40 53.19
  C 32.17 61.55 40.56 68.43 48.50 65.49
  Q 59.96 61.26 71.52 57.37
  Q 77.80 55.26 83.84 55.59
  Q 85.01 55.66 84.02 55.03
  Z
  M 127.9909 62.6745
  A 12.36 12.15 2.2 0 0 116.1064 50.0590
  A 12.36 12.15 2.2 0 0 103.2891 61.7255
  A 12.36 12.15 2.2 0 0 115.1736 74.3410
  A 12.36 12.15 2.2 0 0 127.9909 62.6745
  Z
  M 60.17 102.30
  L 61.61 110.92
  Q 61.67 111.27 61.94 111.05
  Q 70.88 104.05 81.29 99.28
  C 90.57 95.03 99.15 91.99 103.06 81.52
  Q 103.62 80.03 103.54 78.44
  A 1.09 1.09 0.0 0 0 103.14 77.64
  Q 99.49 74.65 97.41 70.59
  L 95.76 64.85
  A 0.74 0.72 89.8 0 0 95.26 64.34
  Q 82.47 60.55 71.72 64.75
  C 57.92 70.14 58.11 90.25 60.17 102.30
  Z" fill="#ffffff"></path>
<path d="M 149.45 18.20
  L 152.00 27.90
  L 152.00 42.36
  L 151.84 44.36
  Q 151.79 45.00 151.34 44.55
  Q 150.95 44.17 150.89 43.61
  Q 150.88 43.48 150.93 43.38
  Q 150.99 43.25 151.09 43.18
  Q 151.18 43.12 151.10 43.06
  Q 150.97 42.97 150.92 42.74
  Q 150.84 42.39 151.06 42.18
  Q 151.12 42.12 151.04 42.12
  Q 150.83 42.12 150.63 42.13
  Q 150.39 42.13 150.23 42.30
  L 147.71 44.96
  Q 147.55 45.13 147.32 45.12
  Q 147.09 45.11 146.86 45.16
  Q 146.38 45.25 146.04 45.59
  L 142.70 48.94
  Q 142.52 49.12 142.26 49.12
  L 141.94 49.12
  Q 141.48 49.12 141.18 49.47
  Q 137.93 53.28 134.13 54.40
  Q 131.07 48.41 125.86 45.16
  Q 125.42 44.89 125.31 44.38
  L 124.55 41.04
  Q 124.71 40.38 124.54 39.63
  A 0.54 0.53 -15.1 0 1 124.90 39.01
  C 126.43 38.53 128.85 35.52 130.05 34.32
  Q 130.40 33.96 130.90 33.90
  Q 131.08 33.88 131.26 33.88
  Q 131.51 33.88 131.69 33.70
  L 136.20 29.19
  Q 136.50 28.88 136.93 28.88
  L 137.25 28.88
  Q 137.51 28.88 137.69 28.70
  L 141.20 25.19
  Q 141.50 24.88 141.93 24.88
  L 142.24 24.88
  Q 142.50 24.88 142.69 24.70
  L 149.45 18.20
  Z" fill="#24aafe"></path>
<path d="M 77.33 43.83
  C 66.00 38.94 45.19 35.74 34.17 43.58
  A 1.51 1.51 0.0 0 1 32.48 43.62
  C 25.20 38.95 23.43 30.15 29.87 24.14
  C 42.33 12.50 68.68 35.36 77.68 43.29
  Q 79.21 44.64 77.33 43.83
  Z" fill="#3adbfc"></path>
<path d="M 152.00 42.36
  L 152.00 70.11
  Q 151.78 70.38 151.72 70.99
  A 0.09 0.09 0.0 0 1 151.57 71.04
  Q 151.48 70.95 151.37 70.86
  Q 151.08 70.64 150.81 70.88
  Q 149.25 72.23 147.89 73.80
  Q 147.71 74.00 147.48 74.06
  Q 147.25 74.13 147.01 74.14
  Q 146.49 74.16 146.12 74.52
  L 142.78 77.81
  Q 142.47 78.11 142.05 78.11
  L 141.63 78.12
  Q 141.12 78.12 141.12 78.62
  L 141.11 79.07
  Q 141.10 79.71 140.50 79.89
  Q 138.09 80.63 136.75 82.89
  Q 136.61 83.14 136.32 83.12
  Q 136.07 83.10 135.83 83.16
  Q 135.36 83.27 135.02 83.61
  L 130.67 87.95
  Q 130.51 88.12 130.28 88.11
  Q 130.10 88.11 129.92 88.14
  Q 129.41 88.22 129.05 88.59
  L 126.67 90.97
  Q 126.51 91.12 126.30 91.11
  Q 126.12 91.11 125.94 91.14
  Q 125.44 91.22 125.09 91.57
  L 119.66 96.95
  Q 119.49 97.11 119.26 97.11
  Q 119.06 97.11 118.87 97.15
  Q 118.39 97.24 118.05 97.58
  L 113.67 101.95
  Q 113.51 102.12 113.28 102.11
  Q 113.07 102.11 112.87 102.15
  Q 112.39 102.24 112.05 102.58
  L 107.67 106.95
  Q 107.51 107.12 107.28 107.11
  Q 107.08 107.11 106.89 107.15
  Q 106.40 107.23 106.05 107.58
  L 102.78 110.83
  Q 102.48 111.13 102.04 111.11
  Q 101.57 111.08 101.26 111.37
  Q 100.07 112.49 96.71 115.93
  Q 96.53 116.11 96.27 116.11
  Q 96.03 116.11 95.78 116.17
  Q 95.35 116.26 95.03 116.57
  L 91.31 120.14
  Q 91.11 120.32 91.11 120.60
  Q 91.10 120.80 91.10 120.99
  Q 91.10 121.60 90.50 121.60
  L 88.49 121.62
  Q 88.03 121.62 87.69 121.95
  L 82.69 126.95
  Q 82.52 127.12 82.28 127.12
  Q 82.09 127.12 81.90 127.15
  Q 81.48 127.24 81.17 127.54
  L 76.65 131.95
  Q 76.48 132.12 76.25 132.12
  Q 76.06 132.12 75.87 132.16
  Q 75.39 132.24 75.04 132.59
  L 71.67 135.96
  Q 71.51 136.12 71.28 136.12
  Q 71.07 136.12 70.87 136.16
  Q 70.39 136.25 70.04 136.59
  L 66.70 139.94
  Q 66.52 140.12 66.26 140.12
  L 65.92 140.12
  Q 65.53 140.12 65.26 140.39
  L 55.07 150.47
  A 0.09 0.09 0.0 0 0 55.14 150.63
  Q 55.32 150.63 55.43 150.79
  Q 55.64 151.08 55.33 151.25
  Q 54.94 151.47 54.88 152.00
  L 35.98 152.00
  Q 34.52 151.47 32.70 151.63
  Q 32.57 151.64 32.52 151.53
  Q 32.46 151.41 32.39 151.28
  Q 32.26 151.01 32.56 150.98
  C 34.62 150.75 36.81 147.44 38.37 146.01
  Q 38.52 145.88 38.72 145.88
  Q 38.93 145.88 39.14 145.84
  Q 39.61 145.75 39.96 145.41
  L 43.33 142.04
  Q 43.49 141.87 43.72 141.88
  Q 43.94 141.88 44.16 141.84
  Q 44.62 141.75 44.96 141.41
  L 49.33 137.04
  Q 49.49 136.88 49.73 136.88
  Q 49.93 136.88 50.13 136.84
  Q 50.60 136.76 50.94 136.42
  L 54.21 133.17
  Q 54.55 132.83 54.91 133.16
  L 56.09 134.27
  C 56.43 135.89 56.02 138.27 58.46 138.30
  A 1.96 1.96 0.0 0 0 60.43 136.57
  C 61.15 130.71 62.67 120.63 67.04 116.29
  C 79.99 103.40 105.05 103.26 110.30 81.95
  Q 110.42 81.44 110.94 81.52
  C 122.78 83.43 133.47 77.17 135.37 65.28
  Q 136.27 59.70 134.13 54.40
  Q 137.93 53.28 141.18 49.47
  Q 141.48 49.12 141.94 49.12
  L 142.26 49.12
  Q 142.52 49.12 142.70 48.94
  L 146.04 45.59
  Q 146.38 45.25 146.86 45.16
  Q 147.09 45.11 147.32 45.12
  Q 147.55 45.13 147.71 44.96
  L 150.23 42.30
  Q 150.39 42.13 150.63 42.13
  Q 150.83 42.12 151.04 42.12
  Q 151.12 42.12 151.06 42.18
  Q 150.84 42.39 150.92 42.74
  Q 150.97 42.97 151.10 43.06
  Q 151.18 43.12 151.09 43.18
  Q 150.99 43.25 150.93 43.38
  Q 150.88 43.48 150.89 43.61
  Q 150.95 44.17 151.34 44.55
  Q 151.79 45.00 151.84 44.36
  L 152.00 42.36
  Z" fill="#1e9dff"></path>
<path d="M 45.49 46.96
  C 59.08 44.87 72.43 47.68 84.02 55.03
  Q 85.01 55.66 83.84 55.59
  Q 77.80 55.26 71.52 57.37
  Q 59.96 61.26 48.50 65.49
  C 40.56 68.43 32.17 61.55 36.40 53.19
  Q 39.06 47.95 45.49 46.96
  Z" fill="#32cbfc"></path>
<ellipse ry="12.15" rx="12.36" transform="translate(115.64,62.20) rotate(2.2)" cy="0.00" cx="0.00" fill="#24aafe"></ellipse>
<path d="M 27.23 57.95
  Q 27.72 68.29 37.32 72.81
  L 31.69 77.94
  Q 31.50 78.11 31.24 78.11
  Q 31.06 78.11 30.87 78.15
  Q 30.39 78.23 30.05 78.58
  L 25.67 82.95
  Q 25.51 83.12 25.28 83.11
  Q 25.07 83.11 24.86 83.15
  Q 24.39 83.24 24.04 83.58
  L 19.67 87.95
  Q 19.51 88.12 19.28 88.11
  Q 19.08 88.11 18.88 88.15
  Q 18.39 88.23 18.04 88.59
  L 14.67 91.96
  Q 14.51 92.12 14.29 92.11
  Q 14.09 92.11 13.89 92.14
  Q 13.41 92.23 13.07 92.56
  L 8.87 96.73
  Q 8.55 97.05 8.10 97.11
  Q 7.35 97.23 6.82 97.83
  Q 4.78 100.13 2.43 102.04
  A 0.85 0.84 61.9 0 1 1.09 101.63
  Q 0.85 100.86 0.00 101.41
  L 0.00 80.53
  Q 1.15 77.66 3.12 77.08
  A 1.74 1.71 13.2 0 0 3.86 76.63
  L 7.04 73.31
  Q 7.39 72.95 7.89 72.90
  Q 8.08 72.88 8.26 72.88
  Q 8.51 72.88 8.69 72.70
  L 13.20 68.19
  Q 13.50 67.88 13.93 67.88
  L 14.25 67.88
  Q 14.51 67.88 14.69 67.70
  L 19.20 63.19
  Q 19.50 62.88 19.93 62.88
  L 20.27 62.88
  Q 20.54 62.88 20.72 62.69
  L 24.40 58.90
  Q 24.65 58.65 24.95 58.82
  Q 25.32 59.04 25.55 58.60
  Q 26.11 57.51 27.23 57.95
  Z" fill="#32cbfc"></path>
<path d="M 97.41 70.59
  Q 95.85 71.48 94.71 72.80
  Q 94.54 73.00 94.27 73.00
  Q 94.07 73.00 93.88 73.03
  Q 93.50 73.10 93.22 73.37
  L 89.74 76.76
  Q 89.51 76.98 89.19 76.99
  Q 89.01 77.00 88.84 77.03
  Q 88.54 77.08 88.28 77.33
  Q 85.99 79.58 83.69 81.82
  Q 83.51 81.99 83.27 81.99
  Q 83.14 81.99 83.01 82.01
  Q 82.77 82.03 82.57 82.22
  Q 80.11 84.43 77.75 86.76
  Q 77.52 86.99 77.19 86.99
  Q 77.02 87.00 76.84 87.03
  Q 76.54 87.07 76.27 87.33
  Q 74.11 89.39 71.99 91.50
  Q 71.66 91.82 71.21 91.91
  Q 70.72 92.00 70.23 92.48
  Q 67.08 95.56 61.59 99.93
  Q 61.50 100.00 61.40 100.02
  Q 61.25 100.04 61.11 100.06
  Q 60.85 100.11 60.77 100.36
  L 60.17 102.30
  C 58.11 90.25 57.92 70.14 71.72 64.75
  Q 82.47 60.55 95.26 64.34
  A 0.74 0.72 89.8 0 1 95.76 64.85
  L 97.41 70.59
  Z" fill="#27b2fe"></path>
<path d="M 152.00 70.11
  L 152.00 87.84
  Q 151.52 88.51 151.65 89.62
  Q 151.65 89.64 151.64 89.64
  Q 151.62 89.64 151.63 89.62
  Q 151.64 89.60 151.64 89.59
  Q 151.45 88.88 150.95 88.36
  Q 150.57 87.98 150.19 88.35
  L 145.67 92.72
  Q 145.50 92.88 145.26 92.89
  Q 145.12 92.89 144.98 92.91
  Q 144.58 92.95 144.29 93.23
  L 139.72 97.68
  Q 139.52 97.88 139.24 97.89
  Q 139.03 97.89 138.82 97.93
  Q 138.52 97.98 138.26 98.23
  Q 136.47 99.99 134.66 101.74
  Q 134.51 101.89 134.30 101.89
  Q 134.14 101.89 133.98 101.91
  Q 133.58 101.95 133.29 102.23
  L 128.68 106.71
  Q 128.51 106.88 128.27 106.89
  Q 128.12 106.89 127.98 106.91
  Q 127.58 106.95 127.29 107.23
  L 122.68 111.71
  Q 122.51 111.88 122.27 111.89
  Q 122.12 111.89 121.98 111.91
  Q 121.58 111.95 121.29 112.23
  L 116.72 116.68
  Q 116.52 116.88 116.24 116.89
  Q 116.03 116.89 115.82 116.93
  Q 115.52 116.98 115.26 117.23
  Q 113.47 118.99 111.66 120.74
  Q 111.51 120.89 111.30 120.89
  Q 111.10 120.89 110.90 120.91
  A 0.97 0.94 18.3 0 0 110.34 121.18
  L 105.75 125.70
  Q 105.56 125.89 105.29 125.89
  Q 105.06 125.89 104.83 125.92
  Q 104.52 125.97 104.25 126.24
  Q 101.47 129.02 98.64 131.75
  Q 98.49 131.89 98.29 131.89
  Q 98.12 131.89 97.95 131.91
  Q 97.61 131.95 97.36 132.18
  L 94.70 134.72
  Q 94.53 134.89 94.29 134.89
  Q 94.09 134.89 93.90 134.91
  A 0.89 0.88 -70.6 0 0 93.34 135.18
  L 88.80 139.66
  Q 88.61 139.84 88.35 139.87
  L 87.76 139.94
  A 0.55 0.52 -68.4 0 0 87.46 140.08
  L 81.93 145.47
  Q 81.55 145.83 81.03 145.88
  C 80.18 145.95 78.14 148.38 76.92 148.95
  C 75.61 149.56 74.99 150.39 74.12 151.43
  Q 73.90 151.69 74.20 151.54
  Q 74.32 151.48 74.44 151.42
  Q 74.73 151.28 74.86 151.57
  Q 74.94 151.74 74.88 152.00
  L 54.88 152.00
  Q 54.94 151.47 55.33 151.25
  Q 55.64 151.08 55.43 150.79
  Q 55.32 150.63 55.14 150.63
  A 0.09 0.09 0.0 0 1 55.07 150.47
  L 65.26 140.39
  Q 65.53 140.12 65.92 140.12
  L 66.26 140.12
  Q 66.52 140.12 66.70 139.94
  L 70.04 136.59
  Q 70.39 136.25 70.87 136.16
  Q 71.07 136.12 71.28 136.12
  Q 71.51 136.12 71.67 135.96
  L 75.04 132.59
  Q 75.39 132.24 75.87 132.16
  Q 76.06 132.12 76.25 132.12
  Q 76.48 132.12 76.65 131.95
  L 81.17 127.54
  Q 81.48 127.24 81.90 127.15
  Q 82.09 127.12 82.28 127.12
  Q 82.52 127.12 82.69 126.95
  L 87.69 121.95
  Q 88.03 121.62 88.49 121.62
  L 90.50 121.60
  Q 91.10 121.60 91.10 120.99
  Q 91.10 120.80 91.11 120.60
  Q 91.11 120.32 91.31 120.14
  L 95.03 116.57
  Q 95.35 116.26 95.78 116.17
  Q 96.03 116.11 96.27 116.11
  Q 96.53 116.11 96.71 115.93
  Q 100.07 112.49 101.26 111.37
  Q 101.57 111.08 102.04 111.11
  Q 102.48 111.13 102.78 110.83
  L 106.05 107.58
  Q 106.40 107.23 106.89 107.15
  Q 107.08 107.11 107.28 107.11
  Q 107.51 107.12 107.67 106.95
  L 112.05 102.58
  Q 112.39 102.24 112.87 102.15
  Q 113.07 102.11 113.28 102.11
  Q 113.51 102.12 113.67 101.95
  L 118.05 97.58
  Q 118.39 97.24 118.87 97.15
  Q 119.06 97.11 119.26 97.11
  Q 119.49 97.11 119.66 96.95
  L 125.09 91.57
  Q 125.44 91.22 125.94 91.14
  Q 126.12 91.11 126.30 91.11
  Q 126.51 91.12 126.67 90.97
  L 129.05 88.59
  Q 129.41 88.22 129.92 88.14
  Q 130.10 88.11 130.28 88.11
  Q 130.51 88.12 130.67 87.95
  L 135.02 83.61
  Q 135.36 83.27 135.83 83.16
  Q 136.07 83.10 136.32 83.12
  Q 136.61 83.14 136.75 82.89
  Q 138.09 80.63 140.50 79.89
  Q 141.10 79.71 141.11 79.07
  L 141.12 78.62
  Q 141.12 78.12 141.63 78.12
  L 142.05 78.11
  Q 142.47 78.11 142.78 77.81
  L 146.12 74.52
  Q 146.49 74.16 147.01 74.14
  Q 147.25 74.13 147.48 74.06
  Q 147.71 74.00 147.89 73.80
  Q 149.25 72.23 150.81 70.88
  Q 151.08 70.64 151.37 70.86
  Q 151.48 70.95 151.57 71.04
  A 0.09 0.09 0.0 0 0 151.72 70.99
  Q 151.78 70.38 152.00 70.11
  Z" fill="#2294ff"></path>
<path d="M 97.41 70.59
  Q 99.49 74.65 103.14 77.64
  A 1.09 1.09 0.0 0 1 103.54 78.44
  Q 103.62 80.03 103.06 81.52
  C 99.15 91.99 90.57 95.03 81.29 99.28
  Q 70.88 104.05 61.94 111.05
  Q 61.67 111.27 61.61 110.92
  L 60.17 102.30
  L 60.77 100.36
  Q 60.85 100.11 61.11 100.06
  Q 61.25 100.04 61.40 100.02
  Q 61.50 100.00 61.59 99.93
  Q 67.08 95.56 70.23 92.48
  Q 70.72 92.00 71.21 91.91
  Q 71.66 91.82 71.99 91.50
  Q 74.11 89.39 76.27 87.33
  Q 76.54 87.07 76.84 87.03
  Q 77.02 87.00 77.19 86.99
  Q 77.52 86.99 77.75 86.76
  Q 80.11 84.43 82.57 82.22
  Q 82.77 82.03 83.01 82.01
  Q 83.14 81.99 83.27 81.99
  Q 83.51 81.99 83.69 81.82
  Q 85.99 79.58 88.28 77.33
  Q 88.54 77.08 88.84 77.03
  Q 89.01 77.00 89.19 76.99
  Q 89.51 76.98 89.74 76.76
  L 93.22 73.37
  Q 93.50 73.10 93.88 73.03
  Q 94.07 73.00 94.27 73.00
  Q 94.54 73.00 94.71 72.80
  Q 95.85 71.48 97.41 70.59
  Z" fill="#24aafe"></path>
<path d="M 51.43 90.99
  Q 50.95 89.77 50.92 88.72
  Q 50.91 88.31 50.56 88.52
  Q 47.82 90.23 45.84 92.77
  A 0.64 0.63 18.9 0 1 45.34 93.01
  Q 45.19 93.00 45.03 93.02
  Q 44.46 93.06 44.05 93.47
  L 40.63 96.89
  Q 40.51 97.01 40.34 97.01
  Q 40.15 97.00 39.97 97.02
  Q 39.44 97.08 39.06 97.46
  L 34.63 101.89
  Q 34.51 102.01 34.33 102.01
  Q 34.15 102.00 33.97 102.02
  Q 33.44 102.08 33.06 102.46
  L 28.63 106.89
  Q 28.51 107.01 28.33 107.01
  Q 28.15 107.00 27.97 107.02
  Q 27.44 107.08 27.06 107.45
  L 23.63 110.89
  Q 23.51 111.01 23.34 111.01
  Q 23.15 111.00 22.97 111.02
  Q 22.44 111.08 22.06 111.46
  L 17.63 115.89
  Q 17.51 116.01 17.33 116.01
  Q 17.15 116.00 16.97 116.02
  Q 16.44 116.08 16.06 116.46
  L 11.63 120.89
  Q 11.51 121.01 11.33 121.01
  Q 11.17 121.00 11.02 121.02
  Q 10.50 121.06 10.13 121.42
  L 6.91 124.55
  Q 6.53 124.92 6.03 125.10
  Q 4.96 125.46 4.09 126.80
  Q 3.34 127.94 0.95 129.03
  L 0.00 124.11
  L 0.00 101.41
  Q 0.85 100.86 1.09 101.63
  A 0.85 0.84 61.9 0 0 2.43 102.04
  Q 4.78 100.13 6.82 97.83
  Q 7.35 97.23 8.10 97.11
  Q 8.55 97.05 8.87 96.73
  L 13.07 92.56
  Q 13.41 92.23 13.89 92.14
  Q 14.09 92.11 14.29 92.11
  Q 14.51 92.12 14.67 91.96
  L 18.04 88.59
  Q 18.39 88.23 18.88 88.15
  Q 19.08 88.11 19.28 88.11
  Q 19.51 88.12 19.67 87.95
  L 24.04 83.58
  Q 24.39 83.24 24.86 83.15
  Q 25.07 83.11 25.28 83.11
  Q 25.51 83.12 25.67 82.95
  L 30.05 78.58
  Q 30.39 78.23 30.87 78.15
  Q 31.06 78.11 31.24 78.11
  Q 31.50 78.11 31.69 77.94
  L 37.32 72.81
  C 43.51 74.94 47.68 73.55 54.42 71.37
  Q 55.00 71.18 54.76 71.74
  Q 50.77 80.84 51.43 90.99
  Z" fill="#2dbffd"></path>
<path d="M 152.00 87.84
  L 152.00 105.94
  Q 149.18 108.16 146.89 110.79
  Q 146.71 111.00 146.48 111.06
  Q 146.24 111.12 146.00 111.13
  Q 145.47 111.15 145.10 111.53
  L 141.66 114.96
  Q 141.51 115.11 141.29 115.11
  Q 141.12 115.10 140.95 115.13
  Q 140.45 115.20 140.09 115.55
  L 136.77 118.81
  Q 136.47 119.10 136.05 119.11
  L 135.52 119.11
  Q 134.99 119.12 135.09 119.64
  Q 135.20 120.23 134.98 120.77
  Q 134.85 121.11 134.49 121.11
  L 134.06 121.11
  Q 133.53 121.11 133.16 121.47
  L 130.63 123.97
  Q 130.50 124.10 130.31 124.11
  Q 130.15 124.11 129.99 124.10
  Q 129.57 124.09 129.28 124.37
  L 124.64 128.96
  Q 124.49 129.11 124.27 129.11
  Q 124.08 129.10 123.89 129.14
  Q 123.40 129.22 123.05 129.57
  L 118.63 133.99
  Q 118.50 134.11 118.32 134.11
  Q 118.16 134.10 118.00 134.12
  Q 117.48 134.19 117.11 134.55
  L 114.82 136.75
  Q 114.51 137.05 114.08 137.11
  Q 113.04 137.24 112.49 137.86
  Q 109.83 140.93 106.89 143.69
  Q 106.53 144.03 106.04 144.15
  C 104.79 144.46 103.95 145.84 103.25 146.37
  Q 101.22 147.86 98.23 149.22
  A 0.86 0.85 44.8 0 0 98.24 150.78
  Q 99.18 151.20 98.63 152.00
  L 74.88 152.00
  Q 74.94 151.74 74.86 151.57
  Q 74.73 151.28 74.44 151.42
  Q 74.32 151.48 74.20 151.54
  Q 73.90 151.69 74.12 151.43
  C 74.99 150.39 75.61 149.56 76.92 148.95
  C 78.14 148.38 80.18 145.95 81.03 145.88
  Q 81.55 145.83 81.93 145.47
  L 87.46 140.08
  A 0.55 0.52 -68.4 0 1 87.76 139.94
  L 88.35 139.87
  Q 88.61 139.84 88.80 139.66
  L 93.34 135.18
  A 0.89 0.88 -70.6 0 1 93.90 134.91
  Q 94.09 134.89 94.29 134.89
  Q 94.53 134.89 94.70 134.72
  L 97.36 132.18
  Q 97.61 131.95 97.95 131.91
  Q 98.12 131.89 98.29 131.89
  Q 98.49 131.89 98.64 131.75
  Q 101.47 129.02 104.25 126.24
  Q 104.52 125.97 104.83 125.92
  Q 105.06 125.89 105.29 125.89
  Q 105.56 125.89 105.75 125.70
  L 110.34 121.18
  A 0.97 0.94 18.3 0 1 110.90 120.91
  Q 111.10 120.89 111.30 120.89
  Q 111.51 120.89 111.66 120.74
  Q 113.47 118.99 115.26 117.23
  Q 115.52 116.98 115.82 116.93
  Q 116.03 116.89 116.24 116.89
  Q 116.52 116.88 116.72 116.68
  L 121.29 112.23
  Q 121.58 111.95 121.98 111.91
  Q 122.12 111.89 122.27 111.89
  Q 122.51 111.88 122.68 111.71
  L 127.29 107.23
  Q 127.58 106.95 127.98 106.91
  Q 128.12 106.89 128.27 106.89
  Q 128.51 106.88 128.68 106.71
  L 133.29 102.23
  Q 133.58 101.95 133.98 101.91
  Q 134.14 101.89 134.30 101.89
  Q 134.51 101.89 134.66 101.74
  Q 136.47 99.99 138.26 98.23
  Q 138.52 97.98 138.82 97.93
  Q 139.03 97.89 139.24 97.89
  Q 139.52 97.88 139.72 97.68
  L 144.29 93.23
  Q 144.58 92.95 144.98 92.91
  Q 145.12 92.89 145.26 92.89
  Q 145.50 92.88 145.67 92.72
  L 150.19 88.35
  Q 150.57 87.98 150.95 88.36
  Q 151.45 88.88 151.64 89.59
  Q 151.64 89.60 151.63 89.62
  Q 151.62 89.64 151.64 89.64
  Q 151.65 89.64 151.65 89.62
  Q 151.52 88.51 152.00 87.84
  Z" fill="#2b8bff"></path>
<path d="M 51.43 90.99
  Q 51.84 101.19 53.64 110.25
  L 46.95 116.48
  Q 46.52 116.88 45.93 116.88
  L 44.95 116.88
  A 1.11 1.09 22.0 0 0 44.17 117.20
  L 35.69 125.69
  Q 35.51 125.88 35.25 125.88
  L 34.93 125.88
  Q 34.50 125.88 34.20 126.18
  L 28.69 131.70
  Q 28.50 131.88 28.25 131.88
  L 27.93 131.88
  Q 27.50 131.88 27.20 132.18
  L 23.69 135.70
  Q 23.51 135.88 23.25 135.88
  L 22.93 135.88
  Q 22.50 135.88 22.20 136.18
  L 18.69 139.70
  Q 18.51 139.88 18.25 139.88
  L 17.97 139.88
  Q 17.54 139.88 17.24 140.18
  L 12.46 144.85
  Q 12.35 144.96 12.21 144.89
  L 11.99 144.76
  Q 11.77 144.65 11.68 144.87
  Q 11.58 145.12 11.68 145.54
  Q 3.51 139.02 0.95 129.03
  Q 3.34 127.94 4.09 126.80
  Q 4.96 125.46 6.03 125.10
  Q 6.53 124.92 6.91 124.55
  L 10.13 121.42
  Q 10.50 121.06 11.02 121.02
  Q 11.17 121.00 11.33 121.01
  Q 11.51 121.01 11.63 120.89
  L 16.06 116.46
  Q 16.44 116.08 16.97 116.02
  Q 17.15 116.00 17.33 116.01
  Q 17.51 116.01 17.63 115.89
  L 22.06 111.46
  Q 22.44 111.08 22.97 111.02
  Q 23.15 111.00 23.34 111.01
  Q 23.51 111.01 23.63 110.89
  L 27.06 107.45
  Q 27.44 107.08 27.97 107.02
  Q 28.15 107.00 28.33 107.01
  Q 28.51 107.01 28.63 106.89
  L 33.06 102.46
  Q 33.44 102.08 33.97 102.02
  Q 34.15 102.00 34.33 102.01
  Q 34.51 102.01 34.63 101.89
  L 39.06 97.46
  Q 39.44 97.08 39.97 97.02
  Q 40.15 97.00 40.34 97.01
  Q 40.51 97.01 40.63 96.89
  L 44.05 93.47
  Q 44.46 93.06 45.03 93.02
  Q 45.19 93.00 45.34 93.01
  A 0.64 0.63 18.9 0 0 45.84 92.77
  Q 47.82 90.23 50.56 88.52
  Q 50.91 88.31 50.92 88.72
  Q 50.95 89.77 51.43 90.99
  Z" fill="#27b2fe"></path>
<path d="M 152.00 105.94
  L 152.00 124.25
  Q 148.11 148.24 124.14 152.00
  L 98.63 152.00
  Q 99.18 151.20 98.24 150.78
  A 0.86 0.85 44.8 0 1 98.23 149.22
  Q 101.22 147.86 103.25 146.37
  C 103.95 145.84 104.79 144.46 106.04 144.15
  Q 106.53 144.03 106.89 143.69
  Q 109.83 140.93 112.49 137.86
  Q 113.04 137.24 114.08 137.11
  Q 114.51 137.05 114.82 136.75
  L 117.11 134.55
  Q 117.48 134.19 118.00 134.12
  Q 118.16 134.10 118.32 134.11
  Q 118.50 134.11 118.63 133.99
  L 123.05 129.57
  Q 123.40 129.22 123.89 129.14
  Q 124.08 129.10 124.27 129.11
  Q 124.49 129.11 124.64 128.96
  L 129.28 124.37
  Q 129.57 124.09 129.99 124.10
  Q 130.15 124.11 130.31 124.11
  Q 130.50 124.10 130.63 123.97
  L 133.16 121.47
  Q 133.53 121.11 134.06 121.11
  L 134.49 121.11
  Q 134.85 121.11 134.98 120.77
  Q 135.20 120.23 135.09 119.64
  Q 134.99 119.12 135.52 119.11
  L 136.05 119.11
  Q 136.47 119.10 136.77 118.81
  L 140.09 115.55
  Q 140.45 115.20 140.95 115.13
  Q 141.12 115.10 141.29 115.11
  Q 141.51 115.11 141.66 114.96
  L 145.10 111.53
  Q 145.47 111.15 146.00 111.13
  Q 146.24 111.12 146.48 111.06
  Q 146.71 111.00 146.89 110.79
  Q 149.18 108.16 152.00 105.94
  Z" fill="#3781ff"></path>
<path d="M 53.64 110.25
  L 56.09 134.27
  L 54.91 133.16
  Q 54.55 132.83 54.21 133.17
  L 50.94 136.42
  Q 50.60 136.76 50.13 136.84
  Q 49.93 136.88 49.73 136.88
  Q 49.49 136.88 49.33 137.04
  L 44.96 141.41
  Q 44.62 141.75 44.16 141.84
  Q 43.94 141.88 43.72 141.88
  Q 43.49 141.87 43.33 142.04
  L 39.96 145.41
  Q 39.61 145.75 39.14 145.84
  Q 38.93 145.88 38.72 145.88
  Q 38.52 145.88 38.37 146.01
  C 36.81 147.44 34.62 150.75 32.56 150.98
  Q 32.26 151.01 32.39 151.28
  Q 32.46 151.41 32.52 151.53
  Q 32.57 151.64 32.70 151.63
  Q 34.52 151.47 35.98 152.00
  L 27.80 152.00
  Q 18.64 150.88 11.68 145.54
  Q 11.58 145.12 11.68 144.87
  Q 11.77 144.65 11.99 144.76
  L 12.21 144.89
  Q 12.35 144.96 12.46 144.85
  L 17.24 140.18
  Q 17.54 139.88 17.97 139.88
  L 18.25 139.88
  Q 18.51 139.88 18.69 139.70
  L 22.20 136.18
  Q 22.50 135.88 22.93 135.88
  L 23.25 135.88
  Q 23.51 135.88 23.69 135.70
  L 27.20 132.18
  Q 27.50 131.88 27.93 131.88
  L 28.25 131.88
  Q 28.50 131.88 28.69 131.70
  L 34.20 126.18
  Q 34.50 125.88 34.93 125.88
  L 35.25 125.88
  Q 35.51 125.88 35.69 125.69
  L 44.17 117.20
  A 1.11 1.09 22.0 0 1 44.95 116.88
  L 45.93 116.88
  Q 46.52 116.88 46.95 116.48
  L 53.64 110.25
  Z" fill="#24aafe"></path>
</svg>
