<svg viewBox="0.00 0.00 192.00 192.00" version="1.1" xmlns="http://www.w3.org/2000/svg">
<g stroke-linecap="butt" fill="none" stroke-width="2.00">
<path d="M 118.03 64.72
  A 17.35 17.35 0.0 0 0 100.68 47.37
  A 17.35 17.35 0.0 0 0 83.33 64.72
  A 17.35 17.35 0.0 0 0 100.68 82.07
  A 17.35 17.35 0.0 0 0 118.03 64.72" stroke="#6d8d85"></path>
<path d="M 82.01 91.30
  A 17.35 17.35 0.0 0 0 64.66 73.95
  A 17.35 17.35 0.0 0 0 47.31 91.30
  A 17.35 17.35 0.0 0 0 64.66 108.65
  A 17.35 17.35 0.0 0 0 82.01 91.30" stroke="#9494bb"></path>
<path d="M 144.51 100.77
  A 17.34 17.34 0.0 0 0 127.17 83.43
  A 17.34 17.34 0.0 0 0 109.83 100.77
  A 17.34 17.34 0.0 0 0 127.17 118.11
  A 17.34 17.34 0.0 0 0 144.51 100.77" stroke="#9494bb"></path>
<path d="M 108.46 127.27
  A 17.34 17.34 0.0 0 0 91.12 109.93
  A 17.34 17.34 0.0 0 0 73.78 127.27
  A 17.34 17.34 0.0 0 0 91.12 144.61
  A 17.34 17.34 0.0 0 0 108.46 127.27" stroke="#6d8d85"></path>
</g>
<path d="M 168.59 96.00
  A 72.59 72.59 0.0 0 1 96.00 168.59
  A 72.59 72.59 0.0 0 1 23.41 96.00
  A 72.59 72.59 0.0 0 1 96.00 23.41
  A 72.59 72.59 0.0 0 1 168.59 96.00
  Z
  M 118.03 64.72
  A 17.35 17.35 0.0 0 0 100.68 47.37
  A 17.35 17.35 0.0 0 0 83.33 64.72
  A 17.35 17.35 0.0 0 0 100.68 82.07
  A 17.35 17.35 0.0 0 0 118.03 64.72
  Z
  M 82.01 91.30
  A 17.35 17.35 0.0 0 0 64.66 73.95
  A 17.35 17.35 0.0 0 0 47.31 91.30
  A 17.35 17.35 0.0 0 0 64.66 108.65
  A 17.35 17.35 0.0 0 0 82.01 91.30
  Z
  M 144.51 100.77
  A 17.34 17.34 0.0 0 0 127.17 83.43
  A 17.34 17.34 0.0 0 0 109.83 100.77
  A 17.34 17.34 0.0 0 0 127.17 118.11
  A 17.34 17.34 0.0 0 0 144.51 100.77
  Z
  M 108.46 127.27
  A 17.34 17.34 0.0 0 0 91.12 109.93
  A 17.34 17.34 0.0 0 0 73.78 127.27
  A 17.34 17.34 0.0 0 0 91.12 144.61
  A 17.34 17.34 0.0 0 0 108.46 127.27
  Z" fill="#282876"></path>
<circle r="17.35" cy="64.72" cx="100.68" fill="#b1f193"></circle>
<circle r="17.35" cy="91.30" cx="64.66" fill="#ffffff"></circle>
<circle r="17.34" cy="100.77" cx="127.17" fill="#ffffff"></circle>
<circle r="17.34" cy="127.27" cx="91.12" fill="#b1f193"></circle>
</svg>
