<svg viewBox="0.00 0.00 512.00 512.00" version="1.1" xmlns="http://www.w3.org/2000/svg">
<g stroke-linecap="butt" fill="none" stroke-width="2.00">
<path d="M 293.31 247.56
  A 0.63 0.63 0.0 0 1 293.72 246.54
  C 315.77 243.56 338.31 234.81 355.51 220.76
  Q 375.00 204.84 382.10 180.58
  C 387.77 161.21 386.52 139.75 377.33 121.63
  C 365.55 98.39 343.59 83.95 318.68 76.54
  Q 291.17 68.35 262.12 68.25
  Q 192.17 68.02 131.57 68.17
  Q 131.00 68.17 131.00 68.74
  L 131.00 443.55
  A 0.51 0.51 0.0 0 0 131.51 444.06
  Q 211.31 443.76 292.02 443.24
  Q 299.05 443.19 305.80 441.90
  C 325.17 438.19 345.67 432.18 362.46 422.17
  Q 386.59 407.78 397.85 382.92
  C 411.60 352.57 410.12 315.36 389.55 288.41
  C 380.25 276.22 366.66 266.85 352.56 260.94
  Q 325.69 249.68 295.18 248.34
  Q 293.89 248.29 293.31 247.56" stroke="#8d8d8f"></path>
<path d="M 253.60 277.03
  L 253.49 224.48
  Q 253.48 223.80 254.17 223.78
  Q 262.80 223.53 272.48 222.50
  C 289.90 220.64 306.74 212.77 314.80 197.11
  C 322.45 182.23 322.05 164.39 315.33 149.21
  C 306.21 128.63 281.53 123.37 261.08 123.44
  Q 227.59 123.56 195.81 123.45
  Q 195.22 123.45 195.22 124.04
  L 195.02 388.47
  A 0.67 0.67 0.0 0 0 195.69 389.14
  Q 234.91 389.17 272.70 389.16
  Q 290.01 389.15 305.13 385.04
  Q 329.26 378.47 337.97 355.00
  C 348.87 325.60 336.22 293.28 305.49 283.08
  Q 299.57 281.12 290.34 280.20
  Q 272.92 278.45 254.40 277.85
  Q 253.60 277.83 253.60 277.03" stroke="#8d8d8f"></path>
</g>
<path d="M 57.11 0.00
  L 455.00 0.00
  C 486.31 2.92 509.59 25.99 512.00 57.33
  L 512.00 454.82
  Q 509.23 485.33 484.68 501.92
  Q 471.66 510.71 454.72 512.00
  L 57.16 512.00
  C 25.90 509.12 2.50 486.18 0.00 454.88
  L 0.00 56.98
  C 2.59 25.75 25.89 2.89 57.11 0.00
  Z
  M 293.31 247.56
  A 0.63 0.63 0.0 0 1 293.72 246.54
  C 315.77 243.56 338.31 234.81 355.51 220.76
  Q 375.00 204.84 382.10 180.58
  C 387.77 161.21 386.52 139.75 377.33 121.63
  C 365.55 98.39 343.59 83.95 318.68 76.54
  Q 291.17 68.35 262.12 68.25
  Q 192.17 68.02 131.57 68.17
  Q 131.00 68.17 131.00 68.74
  L 131.00 443.55
  A 0.51 0.51 0.0 0 0 131.51 444.06
  Q 211.31 443.76 292.02 443.24
  Q 299.05 443.19 305.80 441.90
  C 325.17 438.19 345.67 432.18 362.46 422.17
  Q 386.59 407.78 397.85 382.92
  C 411.60 352.57 410.12 315.36 389.55 288.41
  C 380.25 276.22 366.66 266.85 352.56 260.94
  Q 325.69 249.68 295.18 248.34
  Q 293.89 248.29 293.31 247.56
  Z" fill="#1a1b1e"></path>
<path d="M 293.31 247.56
  Q 293.89 248.29 295.18 248.34
  Q 325.69 249.68 352.56 260.94
  C 366.66 266.85 380.25 276.22 389.55 288.41
  C 410.12 315.36 411.60 352.57 397.85 382.92
  Q 386.59 407.78 362.46 422.17
  C 345.67 432.18 325.17 438.19 305.80 441.90
  Q 299.05 443.19 292.02 443.24
  Q 211.31 443.76 131.51 444.06
  A 0.51 0.51 0.0 0 1 131.00 443.55
  L 131.00 68.74
  Q 131.00 68.17 131.57 68.17
  Q 192.17 68.02 262.12 68.25
  Q 291.17 68.35 318.68 76.54
  C 343.59 83.95 365.55 98.39 377.33 121.63
  C 386.52 139.75 387.77 161.21 382.10 180.58
  Q 375.00 204.84 355.51 220.76
  C 338.31 234.81 315.77 243.56 293.72 246.54
  A 0.63 0.63 0.0 0 0 293.31 247.56
  Z
  M 253.60 277.03
  L 253.49 224.48
  Q 253.48 223.80 254.17 223.78
  Q 262.80 223.53 272.48 222.50
  C 289.90 220.64 306.74 212.77 314.80 197.11
  C 322.45 182.23 322.05 164.39 315.33 149.21
  C 306.21 128.63 281.53 123.37 261.08 123.44
  Q 227.59 123.56 195.81 123.45
  Q 195.22 123.45 195.22 124.04
  L 195.02 388.47
  A 0.67 0.67 0.0 0 0 195.69 389.14
  Q 234.91 389.17 272.70 389.16
  Q 290.01 389.15 305.13 385.04
  Q 329.26 378.47 337.97 355.00
  C 348.87 325.60 336.22 293.28 305.49 283.08
  Q 299.57 281.12 290.34 280.20
  Q 272.92 278.45 254.40 277.85
  Q 253.60 277.83 253.60 277.03
  Z" fill="#ffffff"></path>
<path d="M 254.40 277.85
  Q 272.92 278.45 290.34 280.20
  Q 299.57 281.12 305.49 283.08
  C 336.22 293.28 348.87 325.60 337.97 355.00
  Q 329.26 378.47 305.13 385.04
  Q 290.01 389.15 272.70 389.16
  Q 234.91 389.17 195.69 389.14
  A 0.67 0.67 0.0 0 1 195.02 388.47
  L 195.22 124.04
  Q 195.22 123.45 195.81 123.45
  Q 227.59 123.56 261.08 123.44
  C 281.53 123.37 306.21 128.63 315.33 149.21
  C 322.05 164.39 322.45 182.23 314.80 197.11
  C 306.74 212.77 289.90 220.64 272.48 222.50
  Q 262.80 223.53 254.17 223.78
  Q 253.48 223.80 253.49 224.48
  L 253.60 277.03
  Q 253.60 277.83 254.40 277.85
  Z" fill="#1a1b1e"></path>
</svg>
