<svg viewBox="0.00 0.00 28.00 28.00" version="1.1" xmlns="http://www.w3.org/2000/svg">
<path d="M 15.90 0.00
  L 18.24 0.00
  C 29.12 2.39 31.09 16.15 20.78 20.82
  Q 20.35 21.02 20.13 21.44
  C 15.00 31.35 2.37 28.55 0.00 18.06
  L 0.00 15.55
  C 1.73 7.38 10.10 2.70 16.87 8.25
  Q 21.09 11.71 21.27 19.13
  Q 21.27 19.25 21.37 19.18
  C 32.52 11.32 21.94 -4.94 10.20 4.21
  A 0.56 0.55 -43.6 0 1 9.50 4.20
  L 9.27 4.01
  A 0.43 0.43 0.0 0 1 9.24 3.38
  Q 11.97 0.64 15.90 0.00
  Z
  M 7.04 10.05
  A 0.52 0.51 -6.6 0 1 7.64 10.52
  Q 8.28 19.35 17.04 20.32
  A 2.30 2.29 -80.2 0 0 19.52 18.57
  C 20.73 13.56 17.30 8.49 12.38 7.49
  C 0.17 5.01 -2.90 24.25 9.17 25.91
  Q 13.59 26.52 17.81 22.84
  Q 18.96 21.83 17.43 21.73
  Q 7.29 21.03 6.29 10.67
  Q 6.24 10.18 6.72 10.10
  L 7.04 10.05
  Z" fill="#6919cc"></path>
</svg>
