<svg viewBox="0.00 0.00 65.00 65.00" version="1.1" xmlns="http://www.w3.org/2000/svg">
<g stroke-linecap="butt" fill="none" stroke-width="2.00">
<path d="M 0.98 0.62
  Q 1.01 31.65 0.88 63.50
  Q 0.88 63.90 1.36 64.46" stroke-opacity="0.549" stroke="#832eeb"></path>
<path d="M 65.00 0.67
  L 0.98 0.62" stroke-opacity="0.808" stroke="#792bdb"></path>
<path d="M 65.00 63.93
  Q 28.82 64.22 3.00 63.99
  Q 1.85 63.98 1.36 64.46" stroke-opacity="0.769" stroke="#7a2adb"></path>
<path d="M 27.72 23.66
  C 34.58 17.66 30.50 7.59 21.48 7.48
  Q 14.59 7.40 7.70 7.55
  A 0.72 0.71 -0.8 0 0 7.00 8.26
  L 7.00 37.75
  Q 7.00 39.25 8.50 39.25
  L 12.50 39.25
  Q 14.00 39.25 14.00 37.75
  L 14.00 30.25
  Q 14.00 27.75 16.50 27.75
  L 20.50 27.75
  Q 23.25 27.76 23.25 30.50
  L 23.25 38.25
  Q 23.25 39.25 24.25 39.25
  L 29.06 39.24
  Q 29.99 39.24 30.00 38.31
  Q 30.03 33.36 29.97 28.00
  C 29.95 26.14 29.17 25.33 27.76 24.36
  Q 27.29 24.03 27.72 23.66" stroke="#c296ff"></path>
<path d="M 48.98 50.26
  A 1.24 1.24 0.0 0 1 50.18 51.19
  L 51.46 56.31
  A 1.24 1.24 0.0 0 0 52.66 57.24
  L 57.41 57.26
  A 1.24 1.24 0.0 0 0 58.61 55.70
  L 50.77 25.92
  A 1.24 1.24 0.0 0 0 49.57 24.99
  L 40.28 25.00
  A 1.24 1.24 0.0 0 0 39.08 25.92
  L 31.26 55.70
  A 1.24 1.24 0.0 0 0 32.46 57.25
  L 37.23 57.25
  A 1.24 1.24 0.0 0 0 38.43 56.31
  L 39.71 51.17
  A 1.24 1.24 0.0 0 1 40.91 50.23
  L 48.98 50.26" stroke="#c296ff"></path>
<path d="M 13.98 15.64
  L 13.98 19.74
  A 1.64 1.64 0.0 0 0 15.62 21.38
  L 20.22 21.38
  A 3.78 3.28 -0.0 0 0 24.00 18.10
  L 24.00 17.28
  A 3.78 3.28 0.0 0 0 20.22 14.00
  L 15.62 14.00
  A 1.64 1.64 0.0 0 0 13.98 15.64" stroke="#c296ff"></path>
<path d="M 41.65 43.35
  A 0.30 0.30 0.0 0 0 41.94 43.72
  L 47.91 43.74
  A 0.30 0.30 0.0 0 0 48.20 43.37
  L 45.26 31.37
  A 0.30 0.30 0.0 0 0 44.68 31.36
  L 41.65 43.35" stroke="#c296ff"></path>
</g>
<path d="M 0.00 0.00
  L 1.29 0.00
  Q 1.14 0.31 0.98 0.62
  Q 1.01 31.65 0.88 63.50
  Q 0.88 63.90 1.36 64.46
  Q 1.44 64.79 1.25 65.00
  L 0.00 65.00
  L 0.00 0.00
  Z" fill-opacity="0.094" fill="#0c0317"></path>
<path d="M 1.29 0.00
  L 65.00 0.00
  L 65.00 0.67
  L 0.98 0.62
  Q 1.14 0.31 1.29 0.00
  Z" fill-opacity="0.616" fill="#571fa0"></path>
<path d="M 0.98 0.62
  L 65.00 0.67
  L 65.00 63.93
  Q 28.82 64.22 3.00 63.99
  Q 1.85 63.98 1.36 64.46
  Q 0.88 63.90 0.88 63.50
  Q 1.01 31.65 0.98 0.62
  Z
  M 27.72 23.66
  C 34.58 17.66 30.50 7.59 21.48 7.48
  Q 14.59 7.40 7.70 7.55
  A 0.72 0.71 -0.8 0 0 7.00 8.26
  L 7.00 37.75
  Q 7.00 39.25 8.50 39.25
  L 12.50 39.25
  Q 14.00 39.25 14.00 37.75
  L 14.00 30.25
  Q 14.00 27.75 16.50 27.75
  L 20.50 27.75
  Q 23.25 27.76 23.25 30.50
  L 23.25 38.25
  Q 23.25 39.25 24.25 39.25
  L 29.06 39.24
  Q 29.99 39.24 30.00 38.31
  Q 30.03 33.36 29.97 28.00
  C 29.95 26.14 29.17 25.33 27.76 24.36
  Q 27.29 24.03 27.72 23.66
  Z
  M 48.98 50.26
  A 1.24 1.24 0.0 0 1 50.18 51.19
  L 51.46 56.31
  A 1.24 1.24 0.0 0 0 52.66 57.24
  L 57.41 57.26
  A 1.24 1.24 0.0 0 0 58.61 55.70
  L 50.77 25.92
  A 1.24 1.24 0.0 0 0 49.57 24.99
  L 40.28 25.00
  A 1.24 1.24 0.0 0 0 39.08 25.92
  L 31.26 55.70
  A 1.24 1.24 0.0 0 0 32.46 57.25
  L 37.23 57.25
  A 1.24 1.24 0.0 0 0 38.43 56.31
  L 39.71 51.17
  A 1.24 1.24 0.0 0 1 40.91 50.23
  L 48.98 50.26
  Z" fill="#8e32ff"></path>
<path d="M 27.76 24.36
  C 29.17 25.33 29.95 26.14 29.97 28.00
  Q 30.03 33.36 30.00 38.31
  Q 29.99 39.24 29.06 39.24
  L 24.25 39.25
  Q 23.25 39.25 23.25 38.25
  L 23.25 30.50
  Q 23.25 27.76 20.50 27.75
  L 16.50 27.75
  Q 14.00 27.75 14.00 30.25
  L 14.00 37.75
  Q 14.00 39.25 12.50 39.25
  L 8.50 39.25
  Q 7.00 39.25 7.00 37.75
  L 7.00 8.26
  A 0.72 0.71 -0.8 0 1 7.70 7.55
  Q 14.59 7.40 21.48 7.48
  C 30.50 7.59 34.58 17.66 27.72 23.66
  Q 27.29 24.03 27.76 24.36
  Z
  M 13.98 15.64
  L 13.98 19.74
  A 1.64 1.64 0.0 0 0 15.62 21.38
  L 20.22 21.38
  A 3.78 3.28 -0.0 0 0 24.00 18.10
  L 24.00 17.28
  A 3.78 3.28 0.0 0 0 20.22 14.00
  L 15.62 14.00
  A 1.64 1.64 0.0 0 0 13.98 15.64
  Z" fill="#f5f9ff"></path>
<path d="M 13.98 15.64
  A 1.64 1.64 0.0 0 1 15.62 14.00
  L 20.22 14.00
  A 3.78 3.28 0.0 0 1 24.00 17.28
  L 24.00 18.10
  A 3.78 3.28 0.0 0 1 20.22 21.38
  L 15.62 21.38
  A 1.64 1.64 0.0 0 1 13.98 19.74
  L 13.98 15.64
  Z" fill="#8e32ff"></path>
<path d="M 48.98 50.26
  L 40.91 50.23
  A 1.24 1.24 0.0 0 0 39.71 51.17
  L 38.43 56.31
  A 1.24 1.24 0.0 0 1 37.23 57.25
  L 32.46 57.25
  A 1.24 1.24 0.0 0 1 31.26 55.70
  L 39.08 25.92
  A 1.24 1.24 0.0 0 1 40.28 25.00
  L 49.57 24.99
  A 1.24 1.24 0.0 0 1 50.77 25.92
  L 58.61 55.70
  A 1.24 1.24 0.0 0 1 57.41 57.26
  L 52.66 57.24
  A 1.24 1.24 0.0 0 1 51.46 56.31
  L 50.18 51.19
  A 1.24 1.24 0.0 0 0 48.98 50.26
  Z
  M 41.65 43.35
  A 0.30 0.30 0.0 0 0 41.94 43.72
  L 47.91 43.74
  A 0.30 0.30 0.0 0 0 48.20 43.37
  L 45.26 31.37
  A 0.30 0.30 0.0 0 0 44.68 31.36
  L 41.65 43.35
  Z" fill="#f5f9ff"></path>
<path d="M 41.65 43.35
  L 44.68 31.36
  A 0.30 0.30 0.0 0 1 45.26 31.37
  L 48.20 43.37
  A 0.30 0.30 0.0 0 1 47.91 43.74
  L 41.94 43.72
  A 0.30 0.30 0.0 0 1 41.65 43.35
  Z" fill="#8e32ff"></path>
<path d="M 65.00 63.93
  L 65.00 65.00
  L 1.25 65.00
  Q 1.44 64.79 1.36 64.46
  Q 1.85 63.98 3.00 63.99
  Q 28.82 64.22 65.00 63.93
  Z" fill-opacity="0.537" fill="#541c99"></path>
</svg>
