<svg viewBox="0.00 0.00 48.00 48.00" version="1.1" xmlns="http://www.w3.org/2000/svg">
<path d="M 5.21 20.29
  C 4.94 17.26 5.43 13.04 9.76 14.52
  Q 11.43 15.09 11.51 17.26
  Q 11.83 26.21 11.75 35.05
  Q 11.74 36.22 12.91 36.19
  L 13.33 36.18
  A 0.76 0.76 0.0 0 0 14.07 35.42
  L 14.03 8.42
  Q 14.02 5.10 17.33 5.23
  L 18.11 5.26
  A 2.61 2.61 0.0 0 1 20.62 7.86
  L 20.71 27.74
  A 0.77 0.77 0.0 0 0 21.49 28.51
  L 21.87 28.51
  Q 22.98 28.50 22.98 27.38
  L 22.95 11.28
  A 2.54 2.54 0.0 0 1 25.47 8.74
  L 26.30 8.73
  Q 29.65 8.70 29.64 12.05
  L 29.53 39.64
  A 0.97 0.97 0.0 0 0 30.39 40.60
  L 30.76 40.65
  A 1.02 1.01 -86.5 0 0 31.89 39.64
  L 31.90 8.81
  Q 31.90 5.51 35.19 5.84
  L 35.87 5.91
  A 2.72 2.71 2.9 0 1 38.31 8.61
  L 38.33 30.53
  A 1.28 1.28 0.0 0 0 39.32 31.78
  L 39.74 31.88
  A 0.81 0.81 0.0 0 0 40.73 31.09
  L 40.73 21.99
  A 1.02 1.02 0.0 0 1 41.75 20.97
  L 46.52 20.96
  A 0.95 0.95 0.0 0 1 47.47 21.97
  L 47.45 22.34
  A 0.66 0.65 3.0 0 1 46.75 22.96
  L 43.49 22.73
  A 0.54 0.53 -87.5 0 0 42.92 23.26
  L 42.81 31.51
  A 2.46 2.46 0.0 0 1 40.51 33.93
  L 39.71 33.98
  A 3.29 3.28 88.2 0 1 36.22 30.70
  L 36.22 8.84
  Q 36.22 7.69 35.07 7.87
  L 34.69 7.93
  A 0.88 0.88 0.0 0 0 33.95 8.80
  L 33.99 40.20
  A 2.58 2.57 -1.5 0 1 31.55 42.77
  L 30.76 42.81
  A 3.31 3.31 0.0 0 1 27.27 39.50
  L 27.36 11.79
  A 0.98 0.98 0.0 0 0 26.53 10.82
  L 26.23 10.78
  A 0.99 0.99 0.0 0 0 25.08 11.76
  L 25.08 27.91
  A 2.59 2.59 0.0 0 1 22.59 30.51
  L 21.82 30.54
  Q 18.46 30.68 18.47 27.32
  L 18.48 8.25
  A 0.90 0.89 0.0 0 0 17.58 7.36
  L 17.27 7.37
  Q 16.12 7.38 16.12 8.53
  L 16.11 35.02
  Q 16.11 38.18 12.95 38.22
  L 12.09 38.23
  A 2.52 2.52 0.0 0 1 9.53 35.69
  L 9.65 17.51
  A 1.13 1.13 0.0 0 0 8.53 16.38
  L 8.25 16.38
  A 0.93 0.93 0.0 0 0 7.31 17.30
  L 7.23 22.32
  A 0.57 0.57 0.0 0 1 6.66 22.88
  L 1.49 22.88
  Q 0.41 22.88 0.50 21.81
  L 0.52 21.52
  A 0.71 0.71 0.0 0 1 1.25 20.86
  L 4.61 20.93
  A 0.59 0.58 -2.1 0 0 5.21 20.29
  Z" fill="#0a80d6"></path>
</svg>
