<svg viewBox="0.00 0.00 196.00 196.00" version="1.1" xmlns="http://www.w3.org/2000/svg">
<g stroke-linecap="butt" fill="none" stroke-width="2.00">
<path d="M 108.5809 43.9520
  A 0.37 0.37 0.0 0 0 108.0577 43.9511
  L 103.3260 48.6663
  A 0.37 0.37 0.0 0 0 103.3251 49.1896
  L 110.2991 56.1880
  A 0.37 0.37 0.0 0 0 110.8223 56.1889
  L 115.5540 51.4737
  A 0.37 0.37 0.0 0 0 115.5549 50.9504
  L 108.5809 43.9520" stroke="#808080"></path>
<path d="M 135.1656 46.7916
  A 0.32 0.32 0.0 0 0 134.7131 46.7916
  L 129.7916 51.7131
  A 0.32 0.32 0.0 0 0 129.7916 52.1656
  L 136.8344 59.2084
  A 0.32 0.32 0.0 0 0 137.2869 59.2084
  L 142.2084 54.2869
  A 0.32 0.32 0.0 0 0 142.2084 53.8344
  L 135.1656 46.7916" stroke="#808080"></path>
<path d="M 67.47 136.63
  C 59.32 130.02 56.50 117.55 60.88 108.32
  Q 62.89 104.10 71.59 95.41
  Q 88.21 78.81 104.81 62.18
  Q 105.18 61.81 104.81 61.44
  L 97.95 54.58
  A 0.38 0.37 -44.4 0 0 97.42 54.58
  Q 79.61 72.38 61.75 90.26
  Q 55.05 96.97 52.60 101.39
  C 45.44 114.30 47.22 130.11 56.92 141.11
  C 69.92 155.87 93.11 156.71 107.05 142.81
  Q 122.02 127.88 136.87 113.00
  A 0.45 0.45 0.0 0 0 136.87 112.36
  L 129.86 105.37
  A 0.44 0.42 -45.0 0 0 129.25 105.38
  Q 115.61 119.01 101.94 132.69
  Q 96.53 138.10 92.81 139.85
  C 84.41 143.82 74.65 142.44 67.47 136.63" stroke="#808080"></path>
<path d="M 124.5381 57.4191
  A 0.32 0.32 0.0 0 0 124.0855 57.4191
  L 97.9791 83.5255
  A 0.32 0.32 0.0 0 0 97.9791 83.9781
  L 105.0219 91.0209
  A 0.32 0.32 0.0 0 0 105.4745 91.0209
  L 131.5809 64.9145
  A 0.32 0.32 0.0 0 0 131.5809 64.4619
  L 124.5381 57.4191" stroke="#808080"></path>
<path d="M 147.5407 75.5785
  A 0.40 0.40 0.0 0 0 147.5397 75.0128
  L 140.5555 68.0529
  A 0.40 0.40 0.0 0 0 139.9898 68.0539
  L 135.1193 72.9415
  A 0.40 0.40 0.0 0 0 135.1203 73.5072
  L 142.1045 80.4671
  A 0.40 0.40 0.0 0 0 142.6702 80.4661
  L 147.5407 75.5785" stroke="#808080"></path>
<path d="M 136.8184 86.3110
  A 0.35 0.35 0.0 0 0 136.8184 85.8161
  L 129.8039 78.8016
  A 0.35 0.35 0.0 0 0 129.3090 78.8016
  L 103.3016 104.8090
  A 0.35 0.35 0.0 0 0 103.3016 105.3039
  L 110.3161 112.3184
  A 0.35 0.35 0.0 0 0 110.8110 112.3184
  L 136.8184 86.3110" stroke="#808080"></path>
<path d="M 140.5253 94.6389
  A 0.38 0.38 0.0 0 0 139.9879 94.6380
  L 135.1428 99.4661
  A 0.38 0.38 0.0 0 0 135.1419 100.0035
  L 142.2147 107.1011
  A 0.38 0.38 0.0 0 0 142.7521 107.1020
  L 147.5972 102.2739
  A 0.38 0.38 0.0 0 0 147.5981 101.7365
  L 140.5253 94.6389" stroke="#808080"></path>
<path d="M 96.18 118.17
  A 13.29 13.29 0.0 0 0 82.89 104.88
  A 13.29 13.29 0.0 0 0 69.60 118.17
  A 13.29 13.29 0.0 0 0 82.89 131.46
  A 13.29 13.29 0.0 0 0 96.18 118.17" stroke="#808080"></path>
</g>
<path d="M 20.56 0.00
  L 175.56 0.00
  Q 192.99 3.24 196.00 20.58
  L 196.00 175.57
  Q 192.75 192.99 175.41 196.00
  L 20.43 196.00
  Q 3.01 192.75 0.00 175.42
  L 0.00 20.44
  Q 3.24 3.03 20.56 0.00
  Z
  M 108.5809 43.9520
  A 0.37 0.37 0.0 0 0 108.0577 43.9511
  L 103.3260 48.6663
  A 0.37 0.37 0.0 0 0 103.3251 49.1896
  L 110.2991 56.1880
  A 0.37 0.37 0.0 0 0 110.8223 56.1889
  L 115.5540 51.4737
  A 0.37 0.37 0.0 0 0 115.5549 50.9504
  L 108.5809 43.9520
  Z
  M 135.1656 46.7916
  A 0.32 0.32 0.0 0 0 134.7131 46.7916
  L 129.7916 51.7131
  A 0.32 0.32 0.0 0 0 129.7916 52.1656
  L 136.8344 59.2084
  A 0.32 0.32 0.0 0 0 137.2869 59.2084
  L 142.2084 54.2869
  A 0.32 0.32 0.0 0 0 142.2084 53.8344
  L 135.1656 46.7916
  Z
  M 67.47 136.63
  C 59.32 130.02 56.50 117.55 60.88 108.32
  Q 62.89 104.10 71.59 95.41
  Q 88.21 78.81 104.81 62.18
  Q 105.18 61.81 104.81 61.44
  L 97.95 54.58
  A 0.38 0.37 -44.4 0 0 97.42 54.58
  Q 79.61 72.38 61.75 90.26
  Q 55.05 96.97 52.60 101.39
  C 45.44 114.30 47.22 130.11 56.92 141.11
  C 69.92 155.87 93.11 156.71 107.05 142.81
  Q 122.02 127.88 136.87 113.00
  A 0.45 0.45 0.0 0 0 136.87 112.36
  L 129.86 105.37
  A 0.44 0.42 -45.0 0 0 129.25 105.38
  Q 115.61 119.01 101.94 132.69
  Q 96.53 138.10 92.81 139.85
  C 84.41 143.82 74.65 142.44 67.47 136.63
  Z
  M 124.5381 57.4191
  A 0.32 0.32 0.0 0 0 124.0855 57.4191
  L 97.9791 83.5255
  A 0.32 0.32 0.0 0 0 97.9791 83.9781
  L 105.0219 91.0209
  A 0.32 0.32 0.0 0 0 105.4745 91.0209
  L 131.5809 64.9145
  A 0.32 0.32 0.0 0 0 131.5809 64.4619
  L 124.5381 57.4191
  Z
  M 147.5407 75.5785
  A 0.40 0.40 0.0 0 0 147.5397 75.0128
  L 140.5555 68.0529
  A 0.40 0.40 0.0 0 0 139.9898 68.0539
  L 135.1193 72.9415
  A 0.40 0.40 0.0 0 0 135.1203 73.5072
  L 142.1045 80.4671
  A 0.40 0.40 0.0 0 0 142.6702 80.4661
  L 147.5407 75.5785
  Z
  M 136.8184 86.3110
  A 0.35 0.35 0.0 0 0 136.8184 85.8161
  L 129.8039 78.8016
  A 0.35 0.35 0.0 0 0 129.3090 78.8016
  L 103.3016 104.8090
  A 0.35 0.35 0.0 0 0 103.3016 105.3039
  L 110.3161 112.3184
  A 0.35 0.35 0.0 0 0 110.8110 112.3184
  L 136.8184 86.3110
  Z
  M 140.5253 94.6389
  A 0.38 0.38 0.0 0 0 139.9879 94.6380
  L 135.1428 99.4661
  A 0.38 0.38 0.0 0 0 135.1419 100.0035
  L 142.2147 107.1011
  A 0.38 0.38 0.0 0 0 142.7521 107.1020
  L 147.5972 102.2739
  A 0.38 0.38 0.0 0 0 147.5981 101.7365
  L 140.5253 94.6389
  Z
  M 96.18 118.17
  A 13.29 13.29 0.0 0 0 82.89 104.88
  A 13.29 13.29 0.0 0 0 69.60 118.17
  A 13.29 13.29 0.0 0 0 82.89 131.46
  A 13.29 13.29 0.0 0 0 96.18 118.17
  Z" fill="#000000"></path>
<rect rx="0.37" height="10.62" width="7.42" transform="translate(109.44,50.07) rotate(-44.9)" y="-5.31" x="-3.71" fill="#ffffff"></rect>
<rect rx="0.32" height="10.60" width="7.60" transform="translate(136.00,53.00) rotate(-45.0)" y="-5.30" x="-3.80" fill="#ffffff"></rect>
<path d="M 67.47 136.63
  C 74.65 142.44 84.41 143.82 92.81 139.85
  Q 96.53 138.10 101.94 132.69
  Q 115.61 119.01 129.25 105.38
  A 0.44 0.42 -45.0 0 1 129.86 105.37
  L 136.87 112.36
  A 0.45 0.45 0.0 0 1 136.87 113.00
  Q 122.02 127.88 107.05 142.81
  C 93.11 156.71 69.92 155.87 56.92 141.11
  C 47.22 130.11 45.44 114.30 52.60 101.39
  Q 55.05 96.97 61.75 90.26
  Q 79.61 72.38 97.42 54.58
  A 0.38 0.37 -44.4 0 1 97.95 54.58
  L 104.81 61.44
  Q 105.18 61.81 104.81 62.18
  Q 88.21 78.81 71.59 95.41
  Q 62.89 104.10 60.88 108.32
  C 56.50 117.55 59.32 130.02 67.47 136.63
  Z" fill="#ffffff"></path>
<rect rx="0.32" height="10.60" width="37.56" transform="translate(114.78,74.22) rotate(-45.0)" y="-5.30" x="-18.78" fill="#ffffff"></rect>
<rect rx="0.40" height="7.70" width="10.66" transform="translate(141.33,74.26) rotate(44.9)" y="-3.85" x="-5.33" fill="#ffffff"></rect>
<rect rx="0.35" height="37.48" width="10.62" transform="translate(120.06,95.56) rotate(45.0)" y="-18.74" x="-5.31" fill="#ffffff"></rect>
<rect rx="0.38" height="10.78" width="7.60" transform="translate(141.37,100.87) rotate(-44.9)" y="-5.39" x="-3.80" fill="#ffffff"></rect>
<circle r="13.29" cy="118.17" cx="82.89" fill="#ffffff"></circle>
</svg>
