<svg viewBox="0.00 0.00 40.00 40.00" version="1.1" xmlns="http://www.w3.org/2000/svg">
<g stroke-linecap="butt" fill="none" stroke-width="2.00">
<path d="M 37.27 10.04
  L 27.53 15.92" stroke="#b4d670"></path>
<path d="M 27.53 15.92
  L 20.89 19.82
  Q 20.27 20.18 20.28 20.89
  L 20.34 31.62" stroke="#a9d15b"></path>
<path d="M 20.34 31.62
  Q 20.12 31.63 19.95 31.62
  A 0.99 0.98 -21.8 0 1 19.24 31.32
  C 16.12 27.94 11.77 24.92 11.97 19.66
  C 12.01 18.51 12.48 17.44 12.76 16.24
  Q 12.88 15.74 12.43 15.48
  L 3.25 10.05" stroke="#a0cb5a"></path>
<path d="M 20.34 31.62
  Q 20.47 31.91 20.29 32.26" stroke="#b2d368"></path>
<path d="M 20.29 32.26
  L 20.24 39.93" stroke="#bdd87c"></path>
<path d="M 20.29 32.26
  Q 20.46 32.08 20.50 31.88
  A 0.37 0.36 -15.7 0 1 20.63 31.65
  Q 24.45 28.38 26.55 25.78
  Q 30.30 21.11 27.53 15.92" stroke="#c6de7e"></path>
</g>
<path d="M 37.27 10.04
  L 27.53 15.92
  L 20.89 19.82
  Q 20.27 20.18 20.28 20.89
  L 20.34 31.62
  Q 20.12 31.63 19.95 31.62
  A 0.99 0.98 -21.8 0 1 19.24 31.32
  C 16.12 27.94 11.77 24.92 11.97 19.66
  C 12.01 18.51 12.48 17.44 12.76 16.24
  Q 12.88 15.74 12.43 15.48
  L 3.25 10.05
  L 19.76 0.42
  Q 20.23 0.14 20.71 0.42
  L 37.27 10.04
  Z" fill="#97c94d"></path>
<path d="M 3.25 10.05
  L 12.43 15.48
  Q 12.88 15.74 12.76 16.24
  C 12.48 17.44 12.01 18.51 11.97 19.66
  C 11.77 24.92 16.12 27.94 19.24 31.32
  A 0.99 0.98 -21.8 0 0 19.95 31.62
  Q 20.12 31.63 20.34 31.62
  Q 20.47 31.91 20.29 32.26
  L 20.24 39.93
  Q 20.17 39.97 20.10 40.00
  Q 20.12 40.00 20.14 40.00
  L 3.63 30.30
  Q 3.21 30.05 3.21 29.55
  L 3.25 10.05
  Z" fill="#a9cd66"></path>
<path d="M 37.27 10.04
  L 37.31 29.50
  Q 37.31 30.01 36.86 30.27
  L 20.24 39.93
  L 20.29 32.26
  Q 20.46 32.08 20.50 31.88
  A 0.37 0.36 -15.7 0 1 20.63 31.65
  Q 24.45 28.38 26.55 25.78
  Q 30.30 21.11 27.53 15.92
  L 37.27 10.04
  Z" fill="#d1e392"></path>
<path d="M 27.53 15.92
  Q 30.30 21.11 26.55 25.78
  Q 24.45 28.38 20.63 31.65
  A 0.37 0.36 -15.7 0 0 20.50 31.88
  Q 20.46 32.08 20.29 32.26
  Q 20.47 31.91 20.34 31.62
  L 20.28 20.89
  Q 20.27 20.18 20.89 19.82
  L 27.53 15.92
  Z" fill="#bad869"></path>
</svg>
