<svg viewBox="0.00 0.00 256.00 256.00" version="1.1" xmlns="http://www.w3.org/2000/svg">
<g stroke-linecap="butt" fill="none" stroke-width="2.00">
<path d="M 77.05 87.00
  L 47.74 87.00
  Q 47.17 87.00 47.17 87.58
  Q 47.13 113.04 47.13 138.50
  Q 47.13 152.38 48.48 158.41
  C 52.85 177.96 68.75 193.91 88.36 198.32
  Q 94.29 199.65 108.26 199.64
  Q 119.96 199.63 131.66 199.64
  Q 139.47 199.65 142.75 198.75
  C 153.17 195.90 160.28 186.82 160.91 175.99
  Q 161.08 172.93 161.18 169.67
  Q 161.20 169.14 161.74 169.14
  L 226.71 169.13
  Q 227.36 169.13 226.89 168.67
  L 210.37 152.55
  Q 209.97 152.16 210.38 151.77
  L 226.81 135.84
  Q 227.54 135.13 226.52 135.13
  L 181.22 135.12
  Q 180.17 135.12 181.02 134.52
  C 210.95 113.36 201.82 66.63 166.53 57.72
  Q 161.00 56.32 149.75 56.34
  Q 113.87 56.39 78.02 56.36
  A 0.39 0.39 0.0 0 0 77.63 56.75
  L 77.61 86.45
  A 0.56 0.55 -0.0 0 1 77.05 87.00" stroke="#80a8a4"></path>
<path d="M 159.44 102.41
  C 156.23 93.66 147.39 87.03 137.75 87.02
  Q 107.77 86.99 77.97 87.00
  Q 77.62 87.00 77.62 87.35
  Q 77.63 116.29 77.65 144.83
  C 77.66 155.18 84.01 164.50 93.71 167.80
  Q 97.60 169.12 106.92 169.12
  Q 133.83 169.13 160.66 169.12
  A 0.49 0.48 -0.0 0 0 161.15 168.64
  Q 161.10 142.25 160.98 115.78
  Q 160.94 106.50 159.44 102.41" stroke="#80a8a4"></path>
<path d="M 144.57 118.33
  A 16.49 16.49 0.0 0 0 128.08 101.84
  A 16.49 16.49 0.0 0 0 111.59 118.33
  A 16.49 16.49 0.0 0 0 128.08 134.82
  A 16.49 16.49 0.0 0 0 144.57 118.33" stroke="#80a8a4"></path>
</g>
<path d="M 0.00 0.00
  L 256.00 0.00
  L 256.00 256.00
  L 0.00 256.00
  L 0.00 0.00
  Z
  M 77.05 87.00
  L 47.74 87.00
  Q 47.17 87.00 47.17 87.58
  Q 47.13 113.04 47.13 138.50
  Q 47.13 152.38 48.48 158.41
  C 52.85 177.96 68.75 193.91 88.36 198.32
  Q 94.29 199.65 108.26 199.64
  Q 119.96 199.63 131.66 199.64
  Q 139.47 199.65 142.75 198.75
  C 153.17 195.90 160.28 186.82 160.91 175.99
  Q 161.08 172.93 161.18 169.67
  Q 161.20 169.14 161.74 169.14
  L 226.71 169.13
  Q 227.36 169.13 226.89 168.67
  L 210.37 152.55
  Q 209.97 152.16 210.38 151.77
  L 226.81 135.84
  Q 227.54 135.13 226.52 135.13
  L 181.22 135.12
  Q 180.17 135.12 181.02 134.52
  C 210.95 113.36 201.82 66.63 166.53 57.72
  Q 161.00 56.32 149.75 56.34
  Q 113.87 56.39 78.02 56.36
  A 0.39 0.39 0.0 0 0 77.63 56.75
  L 77.61 86.45
  A 0.56 0.55 -0.0 0 1 77.05 87.00
  Z" fill="#ffffff"></path>
<path d="M 77.61 86.45
  L 77.63 56.75
  A 0.39 0.39 0.0 0 1 78.02 56.36
  Q 113.87 56.39 149.75 56.34
  Q 161.00 56.32 166.53 57.72
  C 201.82 66.63 210.95 113.36 181.02 134.52
  Q 180.17 135.12 181.22 135.12
  L 226.52 135.13
  Q 227.54 135.13 226.81 135.84
  L 210.38 151.77
  Q 209.97 152.16 210.37 152.55
  L 226.89 168.67
  Q 227.36 169.13 226.71 169.13
  L 161.74 169.14
  Q 161.20 169.14 161.18 169.67
  Q 161.08 172.93 160.91 175.99
  C 160.28 186.82 153.17 195.90 142.75 198.75
  Q 139.47 199.65 131.66 199.64
  Q 119.96 199.63 108.26 199.64
  Q 94.29 199.65 88.36 198.32
  C 68.75 193.91 52.85 177.96 48.48 158.41
  Q 47.13 152.38 47.13 138.50
  Q 47.13 113.04 47.17 87.58
  Q 47.17 87.00 47.74 87.00
  L 77.05 87.00
  A 0.56 0.55 0.0 0 0 77.61 86.45
  Z
  M 159.44 102.41
  C 156.23 93.66 147.39 87.03 137.75 87.02
  Q 107.77 86.99 77.97 87.00
  Q 77.62 87.00 77.62 87.35
  Q 77.63 116.29 77.65 144.83
  C 77.66 155.18 84.01 164.50 93.71 167.80
  Q 97.60 169.12 106.92 169.12
  Q 133.83 169.13 160.66 169.12
  A 0.49 0.48 -0.0 0 0 161.15 168.64
  Q 161.10 142.25 160.98 115.78
  Q 160.94 106.50 159.44 102.41
  Z" fill="#005149"></path>
<path d="M 137.75 87.02
  C 147.39 87.03 156.23 93.66 159.44 102.41
  Q 160.94 106.50 160.98 115.78
  Q 161.10 142.25 161.15 168.64
  A 0.49 0.48 -0.0 0 1 160.66 169.12
  Q 133.83 169.13 106.92 169.12
  Q 97.60 169.12 93.71 167.80
  C 84.01 164.50 77.66 155.18 77.65 144.83
  Q 77.63 116.29 77.62 87.35
  Q 77.62 87.00 77.97 87.00
  Q 107.77 86.99 137.75 87.02
  Z
  M 144.57 118.33
  A 16.49 16.49 0.0 0 0 128.08 101.84
  A 16.49 16.49 0.0 0 0 111.59 118.33
  A 16.49 16.49 0.0 0 0 128.08 134.82
  A 16.49 16.49 0.0 0 0 144.57 118.33
  Z" fill="#ffffff"></path>
<circle r="16.49" cy="118.33" cx="128.08" fill="#005149"></circle>
</svg>
