<svg viewBox="0.00 0.00 300.00 300.00" version="1.1" xmlns="http://www.w3.org/2000/svg">
<g stroke-linecap="butt" fill="none" stroke-width="2.00">
<path d="M 159.08 28.83
  C 158.58 24.57 155.96 20.09 151.81 18.66
  C 149.31 17.80 144.20 17.91 142.43 20.44
  C 139.63 24.40 138.98 28.14 139.00 33.38
  Q 139.04 45.57 139.05 57.75
  C 139.07 66.31 143.82 73.53 153.55 69.63
  C 157.29 68.13 158.51 64.16 158.70 60.50
  Q 159.34 47.97 159.18 35.42
  Q 159.10 28.98 159.08 28.83" stroke="#1e7ca7"></path>
<path d="M 67.31 70.75
  Q 73.64 76.98 80.28 82.76
  C 86.78 88.42 91.17 84.00 95.35 78.20
  C 95.78 77.61 95.84 76.80 95.45 76.24" stroke="#8290b6"></path>
<path d="M 95.45 76.24
  Q 92.96 70.53 90.71 68.29
  Q 80.05 57.71 69.42 47.09
  C 67.70 45.37 63.34 41.26 60.34 42.73
  Q 57.39 44.18 54.45 45.62
  C 51.35 47.13 52.00 51.99 52.56 54.61
  Q 53.01 56.69 55.03 58.67
  Q 61.21 64.73 67.31 70.75" stroke="#1e7ca7"></path>
<path d="M 95.45 76.24
  Q 95.28 76.49 95.00 76.25
  Q 94.85 76.13 94.74 75.96
  Q 94.62 75.79 94.62 76.00
  L 94.62 76.98
  A 1.31 1.27 -23.5 0 1 94.25 77.88
  Q 88.89 83.38 81.54 79.45
  Q 75.50 76.22 71.90 72.94
  A 1.47 1.41 72.7 0 0 71.28 72.60
  C 69.67 72.16 69.46 71.03 68.34 70.68
  Q 67.67 70.47 67.31 70.75" stroke="#9cebf0"></path>
<path d="M 243.43 58.93
  Q 244.68 57.65 244.83 55.25
  C 245.02 52.11 245.82 46.08 243.00 44.78
  Q 241.62 44.15 237.49 42.73
  C 234.94 41.85 229.77 46.13 228.33 47.58
  Q 217.23 58.72 206.20 69.94
  C 203.19 73.01 204.37 79.31 205.50 82.93
  C 206.53 86.26 213.30 85.90 215.69 85.02
  Q 218.36 84.04 222.26 80.21
  Q 232.98 69.69 243.43 58.93" stroke="#1e7ca7"></path>
<path d="M 222.93 151.70
  L 222.53 146.30" stroke="#1e7ca7"></path>
<path d="M 222.53 146.30
  Q 221.31 138.05 220.28 135.01
  Q 207.83 98.38 170.82 87.04
  Q 165.59 85.44 158.75 84.96
  C 147.22 84.15 135.70 84.36 124.82 88.04
  Q 116.64 90.82 114.17 92.15
  C 84.46 108.20 70.90 139.49 75.91 172.31
  C 78.65 190.24 87.41 205.68 101.15 216.78
  C 103.19 218.43 105.17 220.50 107.54 221.69
  C 110.37 223.12 112.91 225.01 116.20 226.36
  Q 119.70 227.80 123.72 229.31
  C 135.63 233.82 145.79 233.22 160.25 233.05
  Q 164.10 233.00 175.55 229.49
  C 175.79 229.41 176.09 229.15 176.27 228.98
  Q 176.62 228.64 177.11 228.65
  C 179.30 228.69 179.61 226.84 181.75 227.14
  Q 182.26 227.21 182.72 226.98
  C 186.91 224.94 190.73 222.24 194.55 219.58
  C 198.43 216.88 201.46 213.08 204.98 209.74
  Q 209.76 205.19 215.24 194.97
  Q 215.99 193.58 216.51 192.05
  Q 216.67 191.58 216.56 191.10
  Q 216.43 190.56 216.78 190.37
  Q 217.17 190.16 217.25 189.72
  C 217.71 187.36 219.25 185.82 219.89 183.85
  C 223.18 173.70 223.61 162.95 222.93 151.70" stroke="#8290b6"></path>
<path d="M 222.53 146.30
  L 222.93 151.70" stroke="#9cebf0"></path>
<path d="M 162.98 258.40
  Q 162.09 257.59 163.11 256.96
  C 166.04 255.15 169.86 255.29 173.15 254.81
  C 175.34 254.50 176.31 253.74 176.59 251.56
  C 176.97 248.50 177.65 241.33 173.76 240.24
  C 163.83 237.45 150.65 238.66 139.75 238.57
  Q 133.98 238.53 128.54 240.29
  C 124.54 241.58 124.98 248.13 125.46 251.51
  C 126.33 257.76 134.92 253.68 138.88 256.84
  A 1.19 1.19 0.0 0 1 138.77 258.77
  Q 135.90 260.58 134.46 263.63
  Q 134.23 264.11 134.37 264.62
  C 135.49 268.90 135.24 271.77 140.76 271.89
  Q 151.63 272.13 162.50 271.80
  Q 163.74 271.76 164.84 271.31
  Q 165.36 271.09 165.58 270.58
  Q 168.60 263.48 162.98 258.40" stroke="#1e7ca7"></path>
<path d="M 141.74 204.61
  C 143.18 204.65 144.67 205.25 146.25 205.28
  C 150.43 205.37 156.08 205.79 160.08 204.67
  C 162.80 203.90 165.33 203.32 167.82 201.99
  C 174.81 198.24 179.37 195.08 183.70 189.06
  C 198.21 168.95 196.08 135.23 174.65 120.35
  C 171.99 118.51 167.78 115.96 164.15 114.97
  Q 153.45 112.06 142.35 113.18
  C 138.98 113.53 132.62 114.56 129.80 116.54
  Q 128.14 117.71 126.81 118.52
  C 105.92 131.17 101.00 158.44 109.72 179.85
  C 114.77 192.24 128.27 204.20 141.74 204.61" stroke="#8290b6"></path>
</g>
<path d="M 0.00 0.00
  L 300.00 0.00
  L 300.00 300.00
  L 0.00 300.00
  L 0.00 0.00
  Z
  M 159.08 28.83
  C 158.58 24.57 155.96 20.09 151.81 18.66
  C 149.31 17.80 144.20 17.91 142.43 20.44
  C 139.63 24.40 138.98 28.14 139.00 33.38
  Q 139.04 45.57 139.05 57.75
  C 139.07 66.31 143.82 73.53 153.55 69.63
  C 157.29 68.13 158.51 64.16 158.70 60.50
  Q 159.34 47.97 159.18 35.42
  Q 159.10 28.98 159.08 28.83
  Z
  M 67.31 70.75
  Q 73.64 76.98 80.28 82.76
  C 86.78 88.42 91.17 84.00 95.35 78.20
  C 95.78 77.61 95.84 76.80 95.45 76.24
  Q 92.96 70.53 90.71 68.29
  Q 80.05 57.71 69.42 47.09
  C 67.70 45.37 63.34 41.26 60.34 42.73
  Q 57.39 44.18 54.45 45.62
  C 51.35 47.13 52.00 51.99 52.56 54.61
  Q 53.01 56.69 55.03 58.67
  Q 61.21 64.73 67.31 70.75
  Z
  M 243.43 58.93
  Q 244.68 57.65 244.83 55.25
  C 245.02 52.11 245.82 46.08 243.00 44.78
  Q 241.62 44.15 237.49 42.73
  C 234.94 41.85 229.77 46.13 228.33 47.58
  Q 217.23 58.72 206.20 69.94
  C 203.19 73.01 204.37 79.31 205.50 82.93
  C 206.53 86.26 213.30 85.90 215.69 85.02
  Q 218.36 84.04 222.26 80.21
  Q 232.98 69.69 243.43 58.93
  Z
  M 222.93 151.70
  L 222.53 146.30
  Q 221.31 138.05 220.28 135.01
  Q 207.83 98.38 170.82 87.04
  Q 165.59 85.44 158.75 84.96
  C 147.22 84.15 135.70 84.36 124.82 88.04
  Q 116.64 90.82 114.17 92.15
  C 84.46 108.20 70.90 139.49 75.91 172.31
  C 78.65 190.24 87.41 205.68 101.15 216.78
  C 103.19 218.43 105.17 220.50 107.54 221.69
  C 110.37 223.12 112.91 225.01 116.20 226.36
  Q 119.70 227.80 123.72 229.31
  C 135.63 233.82 145.79 233.22 160.25 233.05
  Q 164.10 233.00 175.55 229.49
  C 175.79 229.41 176.09 229.15 176.27 228.98
  Q 176.62 228.64 177.11 228.65
  C 179.30 228.69 179.61 226.84 181.75 227.14
  Q 182.26 227.21 182.72 226.98
  C 186.91 224.94 190.73 222.24 194.55 219.58
  C 198.43 216.88 201.46 213.08 204.98 209.74
  Q 209.76 205.19 215.24 194.97
  Q 215.99 193.58 216.51 192.05
  Q 216.67 191.58 216.56 191.10
  Q 216.43 190.56 216.78 190.37
  Q 217.17 190.16 217.25 189.72
  C 217.71 187.36 219.25 185.82 219.89 183.85
  C 223.18 173.70 223.61 162.95 222.93 151.70
  Z
  M 162.98 258.40
  Q 162.09 257.59 163.11 256.96
  C 166.04 255.15 169.86 255.29 173.15 254.81
  C 175.34 254.50 176.31 253.74 176.59 251.56
  C 176.97 248.50 177.65 241.33 173.76 240.24
  C 163.83 237.45 150.65 238.66 139.75 238.57
  Q 133.98 238.53 128.54 240.29
  C 124.54 241.58 124.98 248.13 125.46 251.51
  C 126.33 257.76 134.92 253.68 138.88 256.84
  A 1.19 1.19 0.0 0 1 138.77 258.77
  Q 135.90 260.58 134.46 263.63
  Q 134.23 264.11 134.37 264.62
  C 135.49 268.90 135.24 271.77 140.76 271.89
  Q 151.63 272.13 162.50 271.80
  Q 163.74 271.76 164.84 271.31
  Q 165.36 271.09 165.58 270.58
  Q 168.60 263.48 162.98 258.40
  Z" fill="#04206c"></path>
<path d="M 159.18 35.42
  Q 159.34 47.97 158.70 60.50
  C 158.51 64.16 157.29 68.13 153.55 69.63
  C 143.82 73.53 139.07 66.31 139.05 57.75
  Q 139.04 45.57 139.00 33.38
  C 138.98 28.14 139.63 24.40 142.43 20.44
  C 144.20 17.91 149.31 17.80 151.81 18.66
  C 155.96 20.09 158.58 24.57 159.08 28.83
  Q 159.10 28.98 159.18 35.42
  Z" fill="#38d7e1"></path>
<path d="M 95.45 76.24
  Q 95.28 76.49 95.00 76.25
  Q 94.85 76.13 94.74 75.96
  Q 94.62 75.79 94.62 76.00
  L 94.62 76.98
  A 1.31 1.27 -23.5 0 1 94.25 77.88
  Q 88.89 83.38 81.54 79.45
  Q 75.50 76.22 71.90 72.94
  A 1.47 1.41 72.7 0 0 71.28 72.60
  C 69.67 72.16 69.46 71.03 68.34 70.68
  Q 67.67 70.47 67.31 70.75
  Q 61.21 64.73 55.03 58.67
  Q 53.01 56.69 52.56 54.61
  C 52.00 51.99 51.35 47.13 54.45 45.62
  Q 57.39 44.18 60.34 42.73
  C 63.34 41.26 67.70 45.37 69.42 47.09
  Q 80.05 57.71 90.71 68.29
  Q 92.96 70.53 95.45 76.24
  Z" fill="#38d7e1"></path>
<path d="M 243.43 58.93
  Q 232.98 69.69 222.26 80.21
  Q 218.36 84.04 215.69 85.02
  C 213.30 85.90 206.53 86.26 205.50 82.93
  C 204.37 79.31 203.19 73.01 206.20 69.94
  Q 217.23 58.72 228.33 47.58
  C 229.77 46.13 234.94 41.85 237.49 42.73
  Q 241.62 44.15 243.00 44.78
  C 245.82 46.08 245.02 52.11 244.83 55.25
  Q 244.68 57.65 243.43 58.93
  Z" fill="#38d7e1"></path>
<path d="M 95.45 76.24
  C 95.84 76.80 95.78 77.61 95.35 78.20
  C 91.17 84.00 86.78 88.42 80.28 82.76
  Q 73.64 76.98 67.31 70.75
  Q 67.67 70.47 68.34 70.68
  C 69.46 71.03 69.67 72.16 71.28 72.60
  A 1.47 1.41 72.7 0 1 71.90 72.94
  Q 75.50 76.22 81.54 79.45
  Q 88.89 83.38 94.25 77.88
  A 1.31 1.27 -23.5 0 0 94.62 76.98
  L 94.62 76.00
  Q 94.62 75.79 94.74 75.96
  Q 94.85 76.13 95.00 76.25
  Q 95.28 76.49 95.45 76.24
  Z" fill="#ffffff"></path>
<path d="M 222.53 146.30
  L 222.93 151.70
  C 223.61 162.95 223.18 173.70 219.89 183.85
  C 219.25 185.82 217.71 187.36 217.25 189.72
  Q 217.17 190.16 216.78 190.37
  Q 216.43 190.56 216.56 191.10
  Q 216.67 191.58 216.51 192.05
  Q 215.99 193.58 215.24 194.97
  Q 209.76 205.19 204.98 209.74
  C 201.46 213.08 198.43 216.88 194.55 219.58
  C 190.73 222.24 186.91 224.94 182.72 226.98
  Q 182.26 227.21 181.75 227.14
  C 179.61 226.84 179.30 228.69 177.11 228.65
  Q 176.62 228.64 176.27 228.98
  C 176.09 229.15 175.79 229.41 175.55 229.49
  Q 164.10 233.00 160.25 233.05
  C 145.79 233.22 135.63 233.82 123.72 229.31
  Q 119.70 227.80 116.20 226.36
  C 112.91 225.01 110.37 223.12 107.54 221.69
  C 105.17 220.50 103.19 218.43 101.15 216.78
  C 87.41 205.68 78.65 190.24 75.91 172.31
  C 70.90 139.49 84.46 108.20 114.17 92.15
  Q 116.64 90.82 124.82 88.04
  C 135.70 84.36 147.22 84.15 158.75 84.96
  Q 165.59 85.44 170.82 87.04
  Q 207.83 98.38 220.28 135.01
  Q 221.31 138.05 222.53 146.30
  Z
  M 141.74 204.61
  C 143.18 204.65 144.67 205.25 146.25 205.28
  C 150.43 205.37 156.08 205.79 160.08 204.67
  C 162.80 203.90 165.33 203.32 167.82 201.99
  C 174.81 198.24 179.37 195.08 183.70 189.06
  C 198.21 168.95 196.08 135.23 174.65 120.35
  C 171.99 118.51 167.78 115.96 164.15 114.97
  Q 153.45 112.06 142.35 113.18
  C 138.98 113.53 132.62 114.56 129.80 116.54
  Q 128.14 117.71 126.81 118.52
  C 105.92 131.17 101.00 158.44 109.72 179.85
  C 114.77 192.24 128.27 204.20 141.74 204.61
  Z" fill="#ffffff"></path>
<path d="M 141.74 204.61
  C 128.27 204.20 114.77 192.24 109.72 179.85
  C 101.00 158.44 105.92 131.17 126.81 118.52
  Q 128.14 117.71 129.80 116.54
  C 132.62 114.56 138.98 113.53 142.35 113.18
  Q 153.45 112.06 164.15 114.97
  C 167.78 115.96 171.99 118.51 174.65 120.35
  C 196.08 135.23 198.21 168.95 183.70 189.06
  C 179.37 195.08 174.81 198.24 167.82 201.99
  C 165.33 203.32 162.80 203.90 160.08 204.67
  C 156.08 205.79 150.43 205.37 146.25 205.28
  C 144.67 205.25 143.18 204.65 141.74 204.61
  Z" fill="#04206c"></path>
<path d="M 222.53 146.30
  L 222.93 151.70
  L 222.53 146.30
  Z" fill="#38d7e1"></path>
<path d="M 162.98 258.40
  Q 168.60 263.48 165.58 270.58
  Q 165.36 271.09 164.84 271.31
  Q 163.74 271.76 162.50 271.80
  Q 151.63 272.13 140.76 271.89
  C 135.24 271.77 135.49 268.90 134.37 264.62
  Q 134.23 264.11 134.46 263.63
  Q 135.90 260.58 138.77 258.77
  A 1.19 1.19 0.0 0 0 138.88 256.84
  C 134.92 253.68 126.33 257.76 125.46 251.51
  C 124.98 248.13 124.54 241.58 128.54 240.29
  Q 133.98 238.53 139.75 238.57
  C 150.65 238.66 163.83 237.45 173.76 240.24
  C 177.65 241.33 176.97 248.50 176.59 251.56
  C 176.31 253.74 175.34 254.50 173.15 254.81
  C 169.86 255.29 166.04 255.15 163.11 256.96
  Q 162.09 257.59 162.98 258.40
  Z" fill="#38d7e1"></path>
</svg>
