<svg viewBox="0.00 0.00 32.00 32.00" version="1.1" xmlns="http://www.w3.org/2000/svg">
<path d="M 23.83 4.18
  L 21.27 5.08
  A 1.54 1.53 -45.3 0 1 20.29 5.09
  Q 15.86 3.57 11.51 5.20
  Q 11.04 5.38 10.57 5.19
  C 8.69 4.41 4.74 2.50 4.05 6.00
  Q 3.75 7.54 5.16 10.23
  Q 5.40 10.69 5.21 11.17
  C 1.54 20.51 9.58 30.79 19.50 27.51
  C 26.32 25.27 29.87 18.11 27.02 11.40
  A 1.41 1.40 41.3 0 1 26.96 10.48
  L 27.75 7.69" stroke-linecap="butt" fill="none" stroke-width="2.00" stroke-opacity="0.584" stroke="#df2d68"></path>
<path d="M 23.83 4.18
  L 21.27 5.08
  A 1.54 1.53 -45.3 0 1 20.29 5.09
  Q 15.86 3.57 11.51 5.20
  Q 11.04 5.38 10.57 5.19
  C 8.69 4.41 4.74 2.50 4.05 6.00
  Q 3.75 7.54 5.16 10.23
  Q 5.40 10.69 5.21 11.17
  C 1.54 20.51 9.58 30.79 19.50 27.51
  C 26.32 25.27 29.87 18.11 27.02 11.40
  A 1.41 1.40 41.3 0 1 26.96 10.48
  L 27.75 7.69
  C 29.36 9.45 28.94 10.91 29.34 13.06
  C 30.91 21.37 26.55 27.66 18.50 29.61
  Q 15.52 30.33 12.23 29.26
  Q 3.71 26.47 2.55 18.07
  Q 2.37 16.76 2.58 12.91
  C 2.85 7.86 0.97 2.02 8.75 2.51
  C 13.30 2.80 17.69 2.19 22.24 2.87
  Q 23.58 3.07 23.83 4.18
  Z" fill-opacity="0.169" fill="#20080f"></path>
<path d="M 23.83 4.18
  Q 25.39 3.79 27.01 4.13
  Q 27.53 4.24 27.75 4.73
  Q 28.27 5.88 27.75 7.69
  L 26.96 10.48
  A 1.41 1.40 41.3 0 0 27.02 11.40
  C 29.87 18.11 26.32 25.27 19.50 27.51
  C 9.58 30.79 1.54 20.51 5.21 11.17
  Q 5.40 10.69 5.16 10.23
  Q 3.75 7.54 4.05 6.00
  C 4.74 2.50 8.69 4.41 10.57 5.19
  Q 11.04 5.38 11.51 5.20
  Q 15.86 3.57 20.29 5.09
  A 1.54 1.53 -45.3 0 0 21.27 5.08
  L 23.83 4.18
  Z" fill="#ff3377"></path>
</svg>
