<svg viewBox="0.00 0.00 180.00 180.00" version="1.1" xmlns="http://www.w3.org/2000/svg">
<g stroke-linecap="butt" fill="none" stroke-width="2.00">
<path d="M 50.18 48.93
  Q 49.42 50.38 50.79 51.28
  Q 60.98 57.89 72.53 62.38
  Q 74.72 63.23 73.52 65.36
  Q 73.30 65.75 72.85 65.78
  C 56.29 66.61 39.36 66.04 22.75 66.02
  Q 21.26 66.02 20.56 66.38
  A 1.75 1.75 0.0 0 0 20.01 69.04
  C 24.70 74.80 31.40 79.41 37.61 83.40
  Q 52.30 92.85 67.97 100.36
  A 1.62 1.62 0.0 0 1 68.37 103.01
  Q 67.44 103.86 65.75 103.84
  Q 54.25 103.72 43.02 103.69
  A 1.49 1.49 0.0 0 0 41.52 105.26
  Q 41.59 106.52 42.75 107.49
  C 69.93 129.98 140.12 150.61 157.32 103.72
  C 165.94 80.23 153.27 55.39 128.73 49.56
  Q 121.37 47.82 116.50 47.81
  Q 84.50 47.78 52.50 47.59
  Q 50.89 47.58 50.18 48.93" stroke="#ffb296"></path>
<path d="M 146.84 89.58
  A 28.57 28.57 0.0 0 0 118.27 61.01
  A 28.57 28.57 0.0 0 0 89.70 89.58
  A 28.57 28.57 0.0 0 0 118.27 118.15
  A 28.57 28.57 0.0 0 0 146.84 89.58" stroke="#ffb296"></path>
<path d="M 118.57 67.51
  A 2.37 2.37 0.0 0 0 115.92 69.58
  L 115.54 72.86
  A 2.72 2.70 10.4 0 0 117.58 75.80
  C 119.71 76.33 121.87 76.50 123.72 77.41
  C 129.28 80.16 130.90 84.71 131.78 90.55
  A 1.95 1.95 0.0 0 0 133.31 92.17
  Q 136.34 92.80 139.34 91.97
  Q 140.42 91.67 140.54 90.56
  Q 140.94 86.99 139.72 83.27
  Q 135.23 69.60 118.57 67.51" stroke="#ffb296"></path>
</g>
<path d="M 0.00 0.00
  L 180.00 0.00
  L 180.00 180.00
  L 0.00 180.00
  L 0.00 0.00
  Z
  M 50.18 48.93
  Q 49.42 50.38 50.79 51.28
  Q 60.98 57.89 72.53 62.38
  Q 74.72 63.23 73.52 65.36
  Q 73.30 65.75 72.85 65.78
  C 56.29 66.61 39.36 66.04 22.75 66.02
  Q 21.26 66.02 20.56 66.38
  A 1.75 1.75 0.0 0 0 20.01 69.04
  C 24.70 74.80 31.40 79.41 37.61 83.40
  Q 52.30 92.85 67.97 100.36
  A 1.62 1.62 0.0 0 1 68.37 103.01
  Q 67.44 103.86 65.75 103.84
  Q 54.25 103.72 43.02 103.69
  A 1.49 1.49 0.0 0 0 41.52 105.26
  Q 41.59 106.52 42.75 107.49
  C 69.93 129.98 140.12 150.61 157.32 103.72
  C 165.94 80.23 153.27 55.39 128.73 49.56
  Q 121.37 47.82 116.50 47.81
  Q 84.50 47.78 52.50 47.59
  Q 50.89 47.58 50.18 48.93
  Z" fill="#ffffff"></path>
<path d="M 50.18 48.93
  Q 50.89 47.58 52.50 47.59
  Q 84.50 47.78 116.50 47.81
  Q 121.37 47.82 128.73 49.56
  C 153.27 55.39 165.94 80.23 157.32 103.72
  C 140.12 150.61 69.93 129.98 42.75 107.49
  Q 41.59 106.52 41.52 105.26
  A 1.49 1.49 0.0 0 1 43.02 103.69
  Q 54.25 103.72 65.75 103.84
  Q 67.44 103.86 68.37 103.01
  A 1.62 1.62 0.0 0 0 67.97 100.36
  Q 52.30 92.85 37.61 83.40
  C 31.40 79.41 24.70 74.80 20.01 69.04
  A 1.75 1.75 0.0 0 1 20.56 66.38
  Q 21.26 66.02 22.75 66.02
  C 39.36 66.04 56.29 66.61 72.85 65.78
  Q 73.30 65.75 73.52 65.36
  Q 74.72 63.23 72.53 62.38
  Q 60.98 57.89 50.79 51.28
  Q 49.42 50.38 50.18 48.93
  Z
  M 146.84 89.58
  A 28.57 28.57 0.0 0 0 118.27 61.01
  A 28.57 28.57 0.0 0 0 89.70 89.58
  A 28.57 28.57 0.0 0 0 118.27 118.15
  A 28.57 28.57 0.0 0 0 146.84 89.58
  Z" fill="#ff642d"></path>
<path d="M 146.84 89.58
  A 28.57 28.57 0.0 0 1 118.27 118.15
  A 28.57 28.57 0.0 0 1 89.70 89.58
  A 28.57 28.57 0.0 0 1 118.27 61.01
  A 28.57 28.57 0.0 0 1 146.84 89.58
  Z
  M 118.57 67.51
  A 2.37 2.37 0.0 0 0 115.92 69.58
  L 115.54 72.86
  A 2.72 2.70 10.4 0 0 117.58 75.80
  C 119.71 76.33 121.87 76.50 123.72 77.41
  C 129.28 80.16 130.90 84.71 131.78 90.55
  A 1.95 1.95 0.0 0 0 133.31 92.17
  Q 136.34 92.80 139.34 91.97
  Q 140.42 91.67 140.54 90.56
  Q 140.94 86.99 139.72 83.27
  Q 135.23 69.60 118.57 67.51
  Z" fill="#ffffff"></path>
<path d="M 118.57 67.51
  Q 135.23 69.60 139.72 83.27
  Q 140.94 86.99 140.54 90.56
  Q 140.42 91.67 139.34 91.97
  Q 136.34 92.80 133.31 92.17
  A 1.95 1.95 0.0 0 1 131.78 90.55
  C 130.90 84.71 129.28 80.16 123.72 77.41
  C 121.87 76.50 119.71 76.33 117.58 75.80
  A 2.72 2.70 10.4 0 1 115.54 72.86
  L 115.92 69.58
  A 2.37 2.37 0.0 0 1 118.57 67.51
  Z" fill="#ff642d"></path>
</svg>
