<svg viewBox="0.00 0.00 128.00 128.00" version="1.1" xmlns="http://www.w3.org/2000/svg">
<path d="M 118.50 9.49
  L 12.48 9.48
  Q 10.19 9.48 10.18 11.77
  L 10.08 54.27
  A 3.56 3.55 10.2 0 0 12.41 57.62
  L 39.00 67.32
  Q 41.84 68.35 41.60 71.36
  L 41.57 71.68
  Q 41.33 74.71 38.47 73.69
  C 27.22 69.67 15.60 66.13 5.26 61.25
  A 2.71 2.70 12.6 0 1 3.70 58.80
  Q 3.68 33.63 3.89 8.25
  Q 3.91 5.76 4.26 3.88
  A 1.13 1.13 0.0 0 1 5.37 2.97
  L 124.86 3.05
  A 1.00 0.99 89.1 0 1 125.85 4.02
  Q 126.66 29.77 126.01 55.53
  Q 125.96 57.30 124.21 57.04
  L 121.62 56.65
  Q 119.78 56.38 119.78 54.52
  L 119.82 10.91
  A 1.42 1.32 90.0 0 0 118.50 9.49
  Z" fill="#000000"></path>
<rect rx="1.94" height="5.68" width="5.68" transform="translate(66.42,48.94) rotate(6.6)" y="-2.84" x="-2.84" fill="#000000"></rect>
<path d="M 78.23 52.72
  Q 76.73 52.90 76.23 54.39
  Q 76.07 54.87 75.58 55.02
  Q 74.23 55.43 73.10 54.68
  Q 72.64 54.38 72.53 53.84
  L 71.64 49.48
  A 0.33 0.33 0.0 0 1 71.95 49.08
  Q 74.84 48.96 77.38 50.25
  Q 81.14 52.18 85.06 53.75
  C 88.64 55.19 92.16 54.82 95.66 56.12
  Q 110.00 61.43 124.23 66.69
  Q 126.24 67.44 126.24 69.58
  L 126.13 123.93
  A 1.26 1.26 0.0 0 1 124.87 125.19
  Q 67.88 125.25 10.75 125.19
  Q 7.63 125.19 4.71 124.82
  A 1.07 1.07 0.0 0 1 3.78 123.76
  L 3.69 72.55
  Q 3.69 71.25 4.96 71.46
  L 8.91 72.10
  A 1.57 1.55 5.0 0 1 10.22 73.64
  L 10.11 116.44
  Q 10.11 119.03 12.69 119.03
  L 118.02 119.05
  A 1.76 1.75 -89.8 0 0 119.77 117.30
  Q 119.84 97.74 119.80 78.93
  C 119.79 75.81 120.90 71.89 116.98 70.51
  Q 97.76 63.74 91.77 61.43
  C 89.48 60.55 86.24 56.30 83.89 58.12
  A 1.16 1.12 29.3 0 1 83.02 58.35
  C 80.00 57.92 80.80 54.91 79.07 53.03
  Q 78.73 52.65 78.23 52.72
  Z" fill="#000000"></path>
<path d="M 45.03 70.00
  L 48.15 70.62
  A 1.30 1.30 0.0 0 1 49.18 72.13
  L 48.63 75.10
  A 1.30 1.30 0.0 0 1 47.00 76.11
  L 44.35 75.38
  A 1.30 1.30 0.0 0 1 43.39 74.09
  L 43.48 71.23
  A 1.30 1.30 0.0 0 1 45.03 70.00
  Z" fill="#000000"></path>
<path d="M 57.57 76.66
  Q 56.64 77.34 56.21 78.44
  Q 56.03 78.91 55.54 79.02
  Q 53.97 79.38 52.64 78.38
  Q 52.23 78.06 52.19 77.55
  L 51.92 73.68
  Q 51.88 73.11 52.44 73.12
  C 55.37 73.13 57.45 74.85 59.39 75.58
  Q 61.96 76.55 64.55 77.48
  C 68.72 78.98 65.99 83.88 62.47 82.21
  C 60.69 81.36 60.12 78.58 58.81 76.85
  A 0.89 0.89 0.0 0 0 57.57 76.66
  Z" fill="#000000"></path>
</svg>
