<svg viewBox="0.00 0.00 256.00 256.00" version="1.1" xmlns="http://www.w3.org/2000/svg">
<g stroke-linecap="butt" fill="none" stroke-width="2.00">
<path d="M 112.01 160.49
  Q 125.51 160.49 139.00 160.54
  C 155.59 160.60 174.26 158.42 187.86 147.90
  C 206.48 133.49 210.80 108.45 206.10 86.44
  C 200.03 58.09 176.11 47.30 149.25 47.28
  Q 102.36 47.26 55.51 47.28
  A 0.23 0.23 0.0 0 0 55.28 47.51
  L 55.28 226.26
  A 0.49 0.48 90.0 0 0 55.76 226.75
  L 111.25 226.75
  A 0.25 0.25 0.0 0 0 111.50 226.50
  L 111.50 161.00
  Q 111.50 160.49 112.01 160.49" stroke="#808080"></path>
<path d="M 151.42 95.29
  C 147.42 86.43 138.20 84.33 129.49 84.28
  Q 120.76 84.22 111.97 84.29
  Q 111.50 84.29 111.50 84.76
  L 111.50 122.97
  Q 111.50 123.37 111.90 123.38
  C 124.04 123.71 133.61 124.45 142.35 120.89
  C 152.48 116.77 155.78 104.94 151.42 95.29" stroke="#808080"></path>
</g>
<path d="M 59.83 0.00
  L 196.28 0.00
  C 228.79 2.99 253.40 27.25 256.00 59.86
  L 256.00 196.26
  C 253.24 228.85 228.71 253.14 196.16 256.00
  L 59.70 256.00
  C 27.17 252.95 2.64 228.78 0.00 196.17
  L 0.00 59.69
  C 2.49 31.05 21.41 8.89 49.11 1.67
  C 52.54 0.78 56.22 0.39 59.83 0.00
  Z
  M 112.01 160.49
  Q 125.51 160.49 139.00 160.54
  C 155.59 160.60 174.26 158.42 187.86 147.90
  C 206.48 133.49 210.80 108.45 206.10 86.44
  C 200.03 58.09 176.11 47.30 149.25 47.28
  Q 102.36 47.26 55.51 47.28
  A 0.23 0.23 0.0 0 0 55.28 47.51
  L 55.28 226.26
  A 0.49 0.48 90.0 0 0 55.76 226.75
  L 111.25 226.75
  A 0.25 0.25 0.0 0 0 111.50 226.50
  L 111.50 161.00
  Q 111.50 160.49 112.01 160.49
  Z" fill="#000000"></path>
<path d="M 111.50 161.00
  L 111.50 226.50
  A 0.25 0.25 0.0 0 1 111.25 226.75
  L 55.76 226.75
  A 0.49 0.48 -90.0 0 1 55.28 226.26
  L 55.28 47.51
  A 0.23 0.23 0.0 0 1 55.51 47.28
  Q 102.36 47.26 149.25 47.28
  C 176.11 47.30 200.03 58.09 206.10 86.44
  C 210.80 108.45 206.48 133.49 187.86 147.90
  C 174.26 158.42 155.59 160.60 139.00 160.54
  Q 125.51 160.49 112.01 160.49
  Q 111.50 160.49 111.50 161.00
  Z
  M 151.42 95.29
  C 147.42 86.43 138.20 84.33 129.49 84.28
  Q 120.76 84.22 111.97 84.29
  Q 111.50 84.29 111.50 84.76
  L 111.50 122.97
  Q 111.50 123.37 111.90 123.38
  C 124.04 123.71 133.61 124.45 142.35 120.89
  C 152.48 116.77 155.78 104.94 151.42 95.29
  Z" fill="#ffffff"></path>
<path d="M 129.49 84.28
  C 138.20 84.33 147.42 86.43 151.42 95.29
  C 155.78 104.94 152.48 116.77 142.35 120.89
  C 133.61 124.45 124.04 123.71 111.90 123.38
  Q 111.50 123.37 111.50 122.97
  L 111.50 84.76
  Q 111.50 84.29 111.97 84.29
  Q 120.76 84.22 129.49 84.28
  Z" fill="#000000"></path>
</svg>
