<svg viewBox="0.00 0.00 384.00 384.00" version="1.1" xmlns="http://www.w3.org/2000/svg">
<g stroke-linecap="butt" fill="none" stroke-width="2.00">
<path d="M 273.28 50.71
  L 262.89 59.94" stroke="#c369fa"></path>
<path d="M 252.38 66.62
  Q 247.05 71.02 243.81 76.78" stroke="#c369fa"></path>
<path d="M 198.09 107.00
  Q 195.07 107.68 192.87 110.88
  Q 191.40 113.02 190.07 113.91
  Q 189.67 114.17 189.45 114.59
  C 188.62 116.07 187.13 116.52 186.26 118.31
  Q 186.04 118.76 185.54 118.82
  Q 184.47 118.94 184.30 119.95" stroke="#c369fa"></path>
<path d="M 104.92 200.05
  Q 102.82 199.62 101.30 202.44
  A 0.83 0.82 -74.0 0 1 100.53 202.87
  Q 99.00 202.78 98.85 204.12
  Q 98.79 204.64 98.38 204.96
  Q 94.12 208.31 90.69 213.03" stroke="#c369fa"></path>
<path d="M 59.25 256.94
  L 49.40 265.72" stroke="#c369fa"></path>
<path d="M 39.30 265.15
  Q 34.09 268.91 29.17 274.40" stroke="#c369fa"></path>
<path d="M 317.85 84.04
  Q 313.69 88.85 308.13 92.51" stroke="#c27dff"></path>
<path d="M 278.18 119.62
  L 269.04 128.26
  Q 268.70 128.58 268.52 129.02
  Q 268.43 129.25 268.26 129.42
  Q 267.90 129.78 267.42 129.61
  Q 266.43 129.25 265.28 129.30" stroke="#c974fe"></path>
<path d="M 232.07 190.11
  Q 227.54 193.65 223.58 197.63
  C 222.90 198.32 222.61 199.43 221.30 199.91
  Q 220.82 200.09 220.49 200.47
  Q 217.50 203.86 214.25 206.99
  C 204.94 215.95 195.88 225.14 186.75 234.28
  C 186.26 234.76 185.84 235.65 185.29 236.18
  Q 180.85 240.41 176.29 244.55
  Q 175.51 245.26 174.46 246.11" stroke="#c974fe"></path>
<path d="M 114.13 279.74
  L 101.24 291.12
  Q 101.18 291.17 101.21 291.21
  Q 101.30 291.30 101.35 291.43
  Q 101.38 291.50 101.34 291.57
  Q 101.17 291.93 100.78 292.07" stroke="#c27dff"></path>
<path d="M 366.70 196.96
  L 366.55 196.22
  Q 366.45 195.70 365.95 195.89
  Q 365.83 195.94 365.72 196.08
  Q 365.60 196.21 365.59 196.46
  Q 365.57 196.98 365.45 197.49
  Q 365.43 197.60 365.37 197.50
  Q 365.30 197.38 365.24 197.26
  Q 365.09 196.98 364.81 197.13
  Q 363.99 197.59 362.40 199.38
  Q 360.84 201.15 359.07 202.68
  Q 356.91 204.56 355.31 207.05
  A 1.50 1.50 0.0 0 1 354.60 207.64
  C 353.14 208.22 352.47 209.57 351.51 210.27
  Q 350.29 211.17 349.01 211.99
  Q 348.84 212.11 348.70 211.96
  L 348.48 211.74
  Q 348.32 211.59 348.12 211.69
  Q 348.00 211.76 347.94 211.86
  Q 347.87 211.97 347.82 211.85
  Q 347.72 211.65 347.45 211.64
  A 0.56 0.55 -80.8 0 0 346.89 212.05
  Q 346.76 212.51 347.22 213.02" stroke="#a06bfb"></path>
<path d="M 284.21 277.92
  L 284.03 278.55
  Q 283.90 279.04 283.47 279.31
  Q 282.92 279.65 282.88 280.19
  Q 282.85 280.66 282.51 280.98
  L 279.07 284.25
  Q 278.88 284.43 278.88 284.69
  L 278.88 285.23
  Q 278.88 285.63 278.50 285.75
  Q 275.82 286.61 274.81 289.26
  Q 274.65 289.70 274.20 289.84
  Q 272.34 290.41 271.80 292.31
  Q 271.66 292.82 271.14 292.87
  Q 269.99 292.98 269.89 294.23
  Q 269.84 294.83 269.25 294.86
  Q 268.06 294.92 267.95 296.15
  Q 267.90 296.70 267.36 296.82
  Q 265.57 297.22 264.74 298.75
  Q 264.46 299.27 264.28 298.70
  Q 263.43 295.97 263.26 297.83" stroke="#a06bfb"></path>
<path d="M 198.04 364.03
  Q 194.00 367.12 191.27 371.01
  Q 190.76 371.74 189.94 371.87
  Q 189.48 371.95 189.19 372.31
  L 187.58 374.39
  Q 187.32 374.71 186.94 374.88
  C 185.20 375.64 182.73 379.18 181.23 380.66
  Q 181.10 380.78 181.21 380.93
  Q 181.28 381.04 181.40 381.10
  Q 182.12 381.47 181.10 381.53
  Q 180.05 381.59 179.00 382.12" stroke="#a06bfb"></path>
<path d="M 73.10 336.69
  L 82.43 327.72" stroke="#c27dff"></path>
<path d="M 185.23 287.03
  Q 185.95 287.33 186.17 286.66
  A 0.34 0.34 0.0 0 0 185.96 286.24
  L 185.63 286.12
  A 0.22 0.22 0.0 0 1 185.68 285.70
  Q 186.49 285.60 186.39 284.77
  Q 188.97 280.60 192.90 277.72
  C 193.45 277.31 194.04 277.32 194.70 277.10
  Q 195.21 276.92 195.55 276.50
  L 197.64 273.90
  A 0.71 0.62 -25.8 0 0 197.79 273.55
  L 197.99 271.78" stroke="#b468fe"></path>
<path d="M 278.30 215.27
  Q 279.65 214.87 279.43 215.51
  A 0.03 0.03 0.0 0 1 279.38 215.50
  L 279.38 213.89
  Q 279.38 213.41 279.86 213.37
  Q 280.07 213.35 280.23 213.51
  Q 280.63 213.93 281.11 213.61
  Q 285.95 210.37 288.79 205.29
  A 1.53 1.53 0.0 0 1 289.44 204.67
  Q 290.43 204.17 290.71 203.14
  Q 290.84 202.68 291.18 202.34
  L 293.40 200.16" stroke="#b468fe"></path>
<path d="M 319.70 153.27
  L 326.29 146.21
  Q 326.63 145.84 327.12 145.75
  Q 328.55 145.49 329.97 144.60" stroke="#b468fe"></path>
<path d="M 363.80 242.92
  Q 362.66 244.15 361.10 245.19
  Q 359.50 246.27 358.52 247.48
  Q 355.59 251.11 352.18 254.32
  Q 351.94 254.55 351.93 254.89
  Q 351.93 255.06 351.91 255.25
  Q 351.84 255.71 351.49 256.03
  Q 350.94 256.51 350.13 257.64
  Q 348.33 260.18 345.62 260.38" stroke="#8a5af5"></path>
<path d="M 248.75 359.44
  Q 245.83 361.28 244.96 363.36
  Q 244.76 363.82 244.40 364.16
  Q 237.89 370.11 235.47 373.22
  Q 234.69 374.24 233.94 377.48" stroke="#8a5af5"></path>
</g>
<path d="M 273.28 50.71
  L 262.89 59.94
  Q 250.99 54.11 238.65 50.47
  Q 237.80 50.22 238.42 50.85
  Q 241.95 54.47 245.43 58.07
  Q 247.20 59.90 252.38 66.62
  Q 247.05 71.02 243.81 76.78
  Q 241.04 72.97 237.65 68.85
  C 227.76 56.80 214.67 47.09 199.04 44.14
  Q 198.04 43.95 198.04 44.97
  L 198.09 107.00
  Q 195.07 107.68 192.87 110.88
  Q 191.40 113.02 190.07 113.91
  Q 189.67 114.17 189.45 114.59
  C 188.62 116.07 187.13 116.52 186.26 118.31
  Q 186.04 118.76 185.54 118.82
  Q 184.47 118.94 184.30 119.95
  Q 149.51 120.68 115.98 129.84
  A 1.63 1.63 0.0 0 0 114.84 130.99
  Q 105.65 164.48 104.92 200.05
  Q 102.82 199.62 101.30 202.44
  A 0.83 0.82 -74.0 0 1 100.53 202.87
  Q 99.00 202.78 98.85 204.12
  Q 98.79 204.64 98.38 204.96
  Q 94.12 208.31 90.69 213.03
  L 30.31 213.04
  Q 28.86 213.04 29.16 214.46
  Q 31.73 226.72 38.83 236.67
  Q 47.00 248.11 59.25 256.94
  L 49.40 265.72
  L 36.12 253.66
  Q 34.96 252.60 35.47 254.08
  L 39.30 265.15
  Q 34.09 268.91 29.17 274.40
  Q 20.86 254.38 17.72 233.68
  Q 16.50 225.68 16.50 213.76
  C 16.49 202.74 16.02 191.21 17.54 180.82
  C 24.17 135.60 48.21 95.08 84.43 67.20
  C 138.57 25.54 212.45 18.73 273.28 50.71
  Z
  M 120.39 115.39
  C 141.31 110.19 162.85 107.51 184.50 106.97
  A 0.71 0.71 0.0 0 0 185.19 106.26
  L 185.14 44.53
  A 0.48 0.48 0.0 0 0 184.58 44.06
  C 151.57 50.06 130.42 85.89 120.06 115.03
  A 0.28 0.28 0.0 0 0 120.39 115.39
  Z
  M 142.57 50.96
  C 91.06 67.38 50.80 108.31 35.27 160.09
  Q 35.22 160.28 35.36 160.14
  Q 49.48 146.23 64.15 137.66
  Q 83.18 126.54 104.03 120.07
  A 1.58 1.55 -89.5 0 0 105.06 119.04
  C 112.43 95.35 124.19 72.32 141.45 54.20
  Q 143.15 52.41 144.75 51.19
  Q 145.73 50.45 144.51 50.52
  Q 143.84 50.56 142.57 50.96
  Z
  M 91.99 199.53
  C 92.48 178.08 95.10 156.28 100.38 135.37
  A 0.25 0.25 0.0 0 0 100.06 135.07
  C 70.90 145.43 35.61 166.11 29.07 199.36
  Q 28.90 200.20 29.75 200.20
  L 91.35 200.16
  A 0.65 0.64 -89.1 0 0 91.99 199.53
  Z" fill="#ae4af4"></path>
<path d="M 273.28 50.71
  Q 298.08 63.78 317.85 84.04
  Q 313.69 88.85 308.13 92.51
  Q 288.12 72.22 262.89 59.94
  L 273.28 50.71
  Z" fill="#d788ff"></path>
<path d="M 252.38 66.62
  Q 269.78 90.96 278.18 119.62
  L 269.04 128.26
  Q 268.70 128.58 268.52 129.02
  Q 268.43 129.25 268.26 129.42
  Q 267.90 129.78 267.42 129.61
  Q 266.43 129.25 265.28 129.30
  Q 235.59 121.41 203.24 120.07
  Q 200.21 119.95 198.57 119.97
  Q 198.00 119.98 198.00 120.56
  Q 198.10 133.53 198.30 146.50
  Q 198.31 147.48 198.70 148.42
  Q 209.20 174.06 232.07 190.11
  Q 227.54 193.65 223.58 197.63
  C 222.90 198.32 222.61 199.43 221.30 199.91
  Q 220.82 200.09 220.49 200.47
  Q 217.50 203.86 214.25 206.99
  C 204.94 215.95 195.88 225.14 186.75 234.28
  C 186.26 234.76 185.84 235.65 185.29 236.18
  Q 180.85 240.41 176.29 244.55
  Q 175.51 245.26 174.46 246.11
  Q 158.49 223.98 133.45 213.70
  Q 132.39 213.27 131.25 213.25
  Q 118.50 213.02 105.51 213.07
  A 0.59 0.58 -0.9 0 0 104.92 213.67
  Q 105.69 247.68 114.13 279.74
  L 101.24 291.12
  Q 101.18 291.17 101.21 291.21
  Q 101.30 291.30 101.35 291.43
  Q 101.38 291.50 101.34 291.57
  Q 101.17 291.93 100.78 292.07
  Q 72.52 282.93 49.40 265.72
  L 59.25 256.94
  Q 78.48 270.62 99.84 278.07
  Q 100.43 278.28 100.28 277.67
  Q 92.72 246.33 92.03 214.00
  Q 92.00 212.79 90.69 213.03
  Q 94.12 208.31 98.38 204.96
  Q 98.79 204.64 98.85 204.12
  Q 99.00 202.78 100.53 202.87
  A 0.83 0.82 -74.0 0 0 101.30 202.44
  Q 102.82 199.62 104.92 200.05
  Q 117.81 200.27 130.75 200.00
  Q 133.20 199.95 135.44 198.94
  C 157.08 189.20 176.13 170.96 184.65 148.43
  A 8.22 8.11 -35.0 0 0 185.18 145.54
  Q 185.26 132.60 185.14 120.38
  Q 185.14 119.82 184.30 119.95
  Q 184.47 118.94 185.54 118.82
  Q 186.04 118.76 186.26 118.31
  C 187.13 116.52 188.62 116.07 189.45 114.59
  Q 189.67 114.17 190.07 113.91
  Q 191.40 113.02 192.87 110.88
  Q 195.07 107.68 198.09 107.00
  Q 231.13 107.66 262.82 115.30
  A 0.28 0.28 0.0 0 0 263.15 114.94
  Q 256.05 94.93 243.81 76.78
  Q 247.05 71.02 252.38 66.62
  Z" fill="#d788ff"></path>
<path d="M 317.85 84.04
  Q 356.93 124.69 365.76 180.74
  Q 367.04 188.81 366.70 196.96
  L 366.55 196.22
  Q 366.45 195.70 365.95 195.89
  Q 365.83 195.94 365.72 196.08
  Q 365.60 196.21 365.59 196.46
  Q 365.57 196.98 365.45 197.49
  Q 365.43 197.60 365.37 197.50
  Q 365.30 197.38 365.24 197.26
  Q 365.09 196.98 364.81 197.13
  Q 363.99 197.59 362.40 199.38
  Q 360.84 201.15 359.07 202.68
  Q 356.91 204.56 355.31 207.05
  A 1.50 1.50 0.0 0 1 354.60 207.64
  C 353.14 208.22 352.47 209.57 351.51 210.27
  Q 350.29 211.17 349.01 211.99
  Q 348.84 212.11 348.70 211.96
  L 348.48 211.74
  Q 348.32 211.59 348.12 211.69
  Q 348.00 211.76 347.94 211.86
  Q 347.87 211.97 347.82 211.85
  Q 347.72 211.65 347.45 211.64
  A 0.56 0.55 -80.8 0 0 346.89 212.05
  Q 346.76 212.51 347.22 213.02
  L 291.91 213.04
  A 0.72 0.72 0.0 0 0 291.19 213.75
  Q 290.58 246.16 282.95 277.66
  Q 282.82 278.19 283.36 278.19
  Q 283.76 278.18 284.21 277.92
  L 284.03 278.55
  Q 283.90 279.04 283.47 279.31
  Q 282.92 279.65 282.88 280.19
  Q 282.85 280.66 282.51 280.98
  L 279.07 284.25
  Q 278.88 284.43 278.88 284.69
  L 278.88 285.23
  Q 278.88 285.63 278.50 285.75
  Q 275.82 286.61 274.81 289.26
  Q 274.65 289.70 274.20 289.84
  Q 272.34 290.41 271.80 292.31
  Q 271.66 292.82 271.14 292.87
  Q 269.99 292.98 269.89 294.23
  Q 269.84 294.83 269.25 294.86
  Q 268.06 294.92 267.95 296.15
  Q 267.90 296.70 267.36 296.82
  Q 265.57 297.22 264.74 298.75
  Q 264.46 299.27 264.28 298.70
  Q 263.43 295.97 263.26 297.83
  Q 231.41 305.53 198.67 306.21
  A 0.66 0.65 -0.4 0 0 198.02 306.86
  L 198.04 364.03
  Q 194.00 367.12 191.27 371.01
  Q 190.76 371.74 189.94 371.87
  Q 189.48 371.95 189.19 372.31
  L 187.58 374.39
  Q 187.32 374.71 186.94 374.88
  C 185.20 375.64 182.73 379.18 181.23 380.66
  Q 181.10 380.78 181.21 380.93
  Q 181.28 381.04 181.40 381.10
  Q 182.12 381.47 181.10 381.53
  Q 180.05 381.59 179.00 382.12
  C 139.09 379.15 102.79 363.42 73.10 336.69
  L 82.43 327.72
  C 100.79 343.97 121.54 355.90 144.95 362.88
  Q 145.56 363.06 145.10 362.62
  C 125.87 344.26 113.00 319.65 105.13 294.47
  A 2.09 2.08 -89.5 0 0 103.82 293.13
  L 100.78 292.07
  Q 101.17 291.93 101.34 291.57
  Q 101.38 291.50 101.35 291.43
  Q 101.30 291.30 101.21 291.21
  Q 101.18 291.17 101.24 291.12
  L 114.13 279.74
  L 114.98 282.57
  Q 115.14 283.07 115.64 283.23
  C 136.57 289.56 159.69 292.56 181.50 293.27
  Q 183.06 293.32 184.73 293.23
  Q 185.23 293.21 185.23 292.71
  L 185.23 287.03
  Q 185.95 287.33 186.17 286.66
  A 0.34 0.34 0.0 0 0 185.96 286.24
  L 185.63 286.12
  A 0.22 0.22 0.0 0 1 185.68 285.70
  Q 186.49 285.60 186.39 284.77
  Q 188.97 280.60 192.90 277.72
  C 193.45 277.31 194.04 277.32 194.70 277.10
  Q 195.21 276.92 195.55 276.50
  L 197.64 273.90
  A 0.71 0.62 -25.8 0 0 197.79 273.55
  L 197.99 271.78
  L 198.04 292.81
  A 0.55 0.55 0.0 0 0 198.60 293.36
  Q 233.75 292.57 267.20 283.30
  Q 268.27 283.00 268.66 281.49
  Q 277.39 247.99 278.30 215.27
  Q 279.65 214.87 279.43 215.51
  A 0.03 0.03 0.0 0 1 279.38 215.50
  L 279.38 213.89
  Q 279.38 213.41 279.86 213.37
  Q 280.07 213.35 280.23 213.51
  Q 280.63 213.93 281.11 213.61
  Q 285.95 210.37 288.79 205.29
  A 1.53 1.53 0.0 0 1 289.44 204.67
  Q 290.43 204.17 290.71 203.14
  Q 290.84 202.68 291.18 202.34
  L 293.40 200.16
  L 353.56 200.18
  A 0.62 0.61 -5.4 0 0 354.17 199.45
  C 350.39 179.84 336.74 164.56 319.70 153.27
  L 326.29 146.21
  Q 326.63 145.84 327.12 145.75
  Q 328.55 145.49 329.97 144.60
  Q 339.60 151.65 347.51 159.98
  Q 348.09 160.58 347.85 159.78
  Q 336.29 121.54 308.13 92.51
  Q 313.69 88.85 317.85 84.04
  Z
  M 185.17 307.04
  Q 185.17 306.17 184.30 306.15
  Q 152.46 305.65 121.01 297.99
  Q 120.63 297.90 120.29 298.03
  Q 120.01 298.14 120.11 298.42
  C 130.60 327.78 150.84 361.92 184.04 369.17
  Q 185.17 369.42 185.17 368.26
  L 185.17 307.04
  Z" fill="#ad71fe"></path>
<path d="M 278.18 119.62
  Q 306.14 128.32 329.97 144.60
  Q 328.55 145.49 327.12 145.75
  Q 326.63 145.84 326.29 146.21
  L 319.70 153.27
  Q 303.36 142.38 283.98 135.31
  Q 283.55 135.16 283.24 135.27
  A 0.39 0.39 0.0 0 0 282.99 135.74
  Q 290.57 167.14 291.19 199.47
  Q 291.20 199.99 291.68 200.20
  Q 292.32 200.47 293.40 200.16
  L 291.18 202.34
  Q 290.84 202.68 290.71 203.14
  Q 290.43 204.17 289.44 204.67
  A 1.53 1.53 0.0 0 0 288.79 205.29
  Q 285.95 210.37 281.11 213.61
  Q 280.63 213.93 280.23 213.51
  Q 280.07 213.35 279.86 213.37
  Q 279.38 213.41 279.38 213.89
  L 279.38 215.50
  A 0.03 0.03 0.0 0 0 279.43 215.51
  Q 279.65 214.87 278.30 215.27
  L 278.34 213.59
  Q 278.36 213.03 277.80 213.04
  Q 265.28 213.05 252.75 213.24
  Q 250.22 213.28 248.51 214.04
  Q 213.72 229.50 198.63 264.47
  Q 197.73 266.54 197.99 271.78
  L 197.79 273.55
  A 0.71 0.62 -25.8 0 1 197.64 273.90
  L 195.55 276.50
  Q 195.21 276.92 194.70 277.10
  C 194.04 277.32 193.45 277.31 192.90 277.72
  Q 188.97 280.60 186.39 284.77
  Q 186.49 285.60 185.68 285.70
  A 0.22 0.22 0.0 0 0 185.63 286.12
  L 185.96 286.24
  A 0.34 0.34 0.0 0 1 186.17 286.66
  Q 185.95 287.33 185.23 287.03
  Q 185.16 278.29 185.19 269.53
  C 185.22 262.04 178.42 251.77 174.46 246.11
  Q 175.51 245.26 176.29 244.55
  Q 180.85 240.41 185.29 236.18
  C 185.84 235.65 186.26 234.76 186.75 234.28
  C 195.88 225.14 204.94 215.95 214.25 206.99
  Q 217.50 203.86 220.49 200.47
  Q 220.82 200.09 221.30 199.91
  C 222.61 199.43 222.90 198.32 223.58 197.63
  Q 227.54 193.65 232.07 190.11
  C 236.73 193.31 247.08 200.03 252.75 200.09
  Q 265.23 200.20 277.69 200.18
  Q 278.33 200.18 278.32 199.54
  Q 277.59 164.54 268.35 130.82
  Q 268.22 130.35 267.80 130.11
  Q 266.67 129.49 265.28 129.30
  Q 266.43 129.25 267.42 129.61
  Q 267.90 129.78 268.26 129.42
  Q 268.43 129.25 268.52 129.02
  Q 268.70 128.58 269.04 128.26
  L 278.18 119.62
  Z" fill="#ba5ffd"></path>
<path d="M 366.70 196.96
  C 366.93 216.45 367.25 226.97 363.80 242.92
  Q 362.66 244.15 361.10 245.19
  Q 359.50 246.27 358.52 247.48
  Q 355.59 251.11 352.18 254.32
  Q 351.94 254.55 351.93 254.89
  Q 351.93 255.06 351.91 255.25
  Q 351.84 255.71 351.49 256.03
  Q 350.94 256.51 350.13 257.64
  Q 348.33 260.18 345.62 260.38
  L 347.92 253.63
  Q 348.33 252.41 347.45 253.34
  C 329.11 272.47 304.43 285.36 279.39 293.11
  A 1.97 1.94 -89.6 0 0 278.10 294.40
  C 270.48 318.92 256.71 346.04 238.19 362.49
  Q 237.25 363.32 238.44 362.92
  L 248.75 359.44
  Q 245.83 361.28 244.96 363.36
  Q 244.76 363.82 244.40 364.16
  Q 237.89 370.11 235.47 373.22
  Q 234.69 374.24 233.94 377.48
  Q 206.96 384.08 179.00 382.12
  Q 180.05 381.59 181.10 381.53
  Q 182.12 381.47 181.40 381.10
  Q 181.28 381.04 181.21 380.93
  Q 181.10 380.78 181.23 380.66
  C 182.73 379.18 185.20 375.64 186.94 374.88
  Q 187.32 374.71 187.58 374.39
  L 189.19 372.31
  Q 189.48 371.95 189.94 371.87
  Q 190.76 371.74 191.27 371.01
  Q 194.00 367.12 198.04 364.03
  L 197.99 368.31
  A 0.89 0.88 -5.5 0 0 199.06 369.19
  C 232.35 362.19 253.03 327.27 263.26 297.83
  Q 263.43 295.97 264.28 298.70
  Q 264.46 299.27 264.74 298.75
  Q 265.57 297.22 267.36 296.82
  Q 267.90 296.70 267.95 296.15
  Q 268.06 294.92 269.25 294.86
  Q 269.84 294.83 269.89 294.23
  Q 269.99 292.98 271.14 292.87
  Q 271.66 292.82 271.80 292.31
  Q 272.34 290.41 274.20 289.84
  Q 274.65 289.70 274.81 289.26
  Q 275.82 286.61 278.50 285.75
  Q 278.88 285.63 278.88 285.23
  L 278.88 284.69
  Q 278.88 284.43 279.07 284.25
  L 282.51 280.98
  Q 282.85 280.66 282.88 280.19
  Q 282.92 279.65 283.47 279.31
  Q 283.90 279.04 284.03 278.55
  L 284.21 277.92
  C 312.78 267.00 348.41 246.70 354.09 213.83
  A 0.71 0.70 4.8 0 0 353.39 213.01
  L 347.22 213.02
  Q 346.76 212.51 346.89 212.05
  A 0.56 0.55 -80.8 0 1 347.45 211.64
  Q 347.72 211.65 347.82 211.85
  Q 347.87 211.97 347.94 211.86
  Q 348.00 211.76 348.12 211.69
  Q 348.32 211.59 348.48 211.74
  L 348.70 211.96
  Q 348.84 212.11 349.01 211.99
  Q 350.29 211.17 351.51 210.27
  C 352.47 209.57 353.14 208.22 354.60 207.64
  A 1.50 1.50 0.0 0 0 355.31 207.05
  Q 356.91 204.56 359.07 202.68
  Q 360.84 201.15 362.40 199.38
  Q 363.99 197.59 364.81 197.13
  Q 365.09 196.98 365.24 197.26
  Q 365.30 197.38 365.37 197.50
  Q 365.43 197.60 365.45 197.49
  Q 365.57 196.98 365.59 196.46
  Q 365.60 196.21 365.72 196.08
  Q 365.83 195.94 365.95 195.89
  Q 366.45 195.70 366.55 196.22
  L 366.70 196.96
  Z" fill="#9264f8"></path>
<path d="M 363.80 242.92
  C 354.55 284.42 332.95 319.29 299.85 345.36
  Q 270.80 368.24 233.94 377.48
  Q 234.69 374.24 235.47 373.22
  Q 237.89 370.11 244.40 364.16
  Q 244.76 363.82 244.96 363.36
  Q 245.83 361.28 248.75 359.44
  C 294.16 342.19 329.48 306.19 345.62 260.38
  Q 348.33 260.18 350.13 257.64
  Q 350.94 256.51 351.49 256.03
  Q 351.84 255.71 351.91 255.25
  Q 351.93 255.06 351.93 254.89
  Q 351.94 254.55 352.18 254.32
  Q 355.59 251.11 358.52 247.48
  Q 359.50 246.27 361.10 245.19
  Q 362.66 244.15 363.80 242.92
  Z" fill="#824ff2"></path>
<path d="M 39.30 265.15
  Q 53.96 302.07 82.43 327.72
  L 73.10 336.69
  Q 44.23 310.10 29.17 274.40
  Q 34.09 268.91 39.30 265.15
  Z" fill="#d788ff"></path>
</svg>
