<svg viewBox="0.00 0.00 256.00 256.00" version="1.1" xmlns="http://www.w3.org/2000/svg">
<g stroke-linecap="butt" fill="none" stroke-width="2.00">
<path d="M 134.44 57.20
  L 130.20 48.60
  A 1.14 1.14 0.0 0 0 128.24 48.46
  L 121.86 57.58
  A 1.92 1.91 50.2 0 0 121.69 59.48
  L 124.63 65.91
  Q 124.85 66.41 124.54 66.85
  Q 121.68 70.87 118.87 74.95
  C 117.49 76.94 117.73 78.63 118.04 80.88
  Q 118.09 81.29 118.50 81.28
  Q 122.43 81.25 123.86 79.10
  Q 126.74 74.77 129.84 70.51
  Q 130.17 70.06 130.71 70.11
  L 137.24 70.63
  Q 138.80 70.76 139.69 69.48
  L 145.91 60.55
  A 1.00 1.00 0.0 0 0 145.20 58.98
  L 135.45 57.91
  A 1.27 1.26 79.7 0 1 134.44 57.20" stroke="#8e8b95"></path>
<path d="M 152.93 116.18
  L 159.32 111.05
  A 3.04 3.04 0.0 0 0 159.63 106.59
  L 159.08 106.01
  A 2.51 2.50 -40.7 0 0 155.70 105.76
  L 148.82 111.20
  A 0.42 0.41 -37.6 0 1 148.24 111.13
  L 140.76 101.80
  Q 140.55 101.54 140.77 101.27
  Q 150.54 89.34 147.00 74.06
  A 2.85 2.85 0.0 0 0 143.30 72.00
  L 142.51 72.26
  A 2.61 2.61 0.0 0 0 140.80 75.28
  Q 143.63 88.50 135.90 97.14
  C 125.02 109.32 104.46 107.67 97.06 92.69
  C 89.37 77.13 99.09 60.41 116.38 58.08
  A 2.43 2.42 81.4 0 0 118.45 55.27
  L 118.31 54.47
  Q 117.78 51.38 114.68 51.90
  Q 99.39 54.47 92.33 66.31
  C 82.52 82.77 90.12 103.64 108.13 110.03
  Q 122.02 114.95 135.44 106.24
  Q 135.86 105.96 136.18 106.36
  L 152.89 127.22
  A 2.13 2.12 -38.6 0 0 155.87 127.55
  L 166.10 119.36
  A 2.92 2.92 0.0 0 0 166.42 115.10
  L 165.78 114.41
  A 2.53 2.53 0.0 0 0 162.35 114.15
  L 155.52 119.58
  A 0.43 0.42 -38.7 0 1 154.93 119.52
  L 152.85 116.90
  A 0.51 0.51 0.0 0 1 152.93 116.18" stroke="#aa96ff"></path>
<path d="M 108.07 77.78
  Q 109.36 73.94 115.87 70.81
  A 3.02 3.01 65.8 0 0 117.34 66.92
  L 117.14 66.47
  A 2.47 2.46 70.9 0 0 114.22 65.04
  C 97.89 69.51 95.83 91.48 112.02 97.90
  Q 116.52 99.68 120.94 98.72
  Q 135.53 95.54 135.06 79.61
  A 2.29 2.29 0.0 0 0 132.61 77.39
  L 131.95 77.44
  Q 128.97 77.66 128.86 80.64
  C 128.20 99.13 102.65 93.91 108.07 77.78" stroke="#aa96ff"></path>
<path d="M 54.72 155.02
  L 54.73 144.49
  Q 54.73 144.00 54.24 144.00
  L 48.50 144.00
  Q 48.00 144.00 48.00 144.50
  L 48.00 171.52
  A 0.27 0.26 89.0 0 0 48.27 171.79
  L 54.48 171.76
  A 0.24 0.24 0.0 0 0 54.72 171.52
  Q 54.76 168.26 54.70 164.70
  C 54.67 162.80 55.49 161.77 56.92 160.78
  Q 57.43 160.43 57.80 160.93
  L 65.69 171.60
  A 0.41 0.40 -17.4 0 0 66.02 171.77
  L 73.48 171.79
  A 0.20 0.20 0.0 0 0 73.64 171.47
  L 62.35 156.17
  A 0.41 0.41 0.0 0 1 62.38 155.65
  L 72.73 144.49
  A 0.29 0.29 0.0 0 0 72.52 144.01
  L 65.94 143.99
  A 1.18 1.14 -68.3 0 0 65.08 144.38
  L 55.22 155.21
  Q 54.72 155.77 54.72 155.02" stroke="#8e8b95"></path>
<path d="M 201.92 169.27
  L 202.02 171.29
  Q 202.04 171.79 202.54 171.79
  L 207.69 171.77
  Q 208.41 171.77 208.41 171.05
  L 208.41 144.21
  Q 208.41 144.01 208.21 144.01
  L 202.26 144.00
  Q 202.01 144.00 202.01 144.24
  L 201.99 154.51
  Q 201.99 155.36 201.47 154.68
  C 197.37 149.35 189.33 151.43 187.38 157.63
  Q 185.95 162.21 187.40 166.34
  C 189.62 172.61 196.98 174.75 201.48 169.12
  Q 201.89 168.61 201.92 169.27" stroke="#8e8b95"></path>
<path d="M 80.27 163.41
  L 92.46 163.43
  Q 92.82 163.43 92.87 163.08
  C 94.89 149.87 76.29 147.50 73.15 159.31
  C 69.59 172.70 88.75 177.33 92.75 166.08
  Q 93.01 165.35 92.24 165.27
  L 88.73 164.94
  Q 87.92 164.86 87.46 165.53
  Q 85.37 168.59 81.21 166.87
  Q 80.04 166.38 79.46 165.26
  L 79.31 164.97
  Q 78.51 163.41 80.27 163.41" stroke="#8e8b95"></path>
<path d="M 169.2399 161.9528
  A 10.65 10.41 -0.2 0 0 158.5537 151.5801
  A 10.65 10.41 -0.2 0 0 147.9401 162.0272
  A 10.65 10.41 -0.2 0 0 158.6263 172.3999
  A 10.65 10.41 -0.2 0 0 169.2399 161.9528" stroke="#8e8b95"></path>
<path d="M 177.56 155.02
  L 177.75 153.02
  Q 177.82 152.21 177.01 152.22
  L 172.18 152.23
  Q 171.34 152.23 171.34 153.07
  L 171.32 171.54
  Q 171.32 171.77 171.54 171.77
  L 177.46 171.78
  Q 177.71 171.78 177.71 171.53
  C 177.73 168.38 177.08 161.66 178.48 159.39
  Q 180.13 156.72 184.92 158.16
  Q 185.46 158.32 185.50 157.75
  L 185.81 152.79
  Q 185.85 152.20 185.27 152.04
  Q 180.25 150.69 177.97 155.14
  A 0.22 0.22 0.0 0 1 177.56 155.02" stroke="#8e8b95"></path>
<path d="M 105.07 163.81
  A 0.35 0.35 0.0 0 1 104.42 163.81
  L 100.03 152.43
  A 0.35 0.35 0.0 0 0 99.70 152.21
  L 93.77 152.23
  A 0.35 0.35 0.0 0 0 93.44 152.71
  L 101.21 171.84
  A 0.35 0.35 0.0 0 1 101.21 172.10
  L 98.59 178.46
  A 0.35 0.35 0.0 0 0 98.91 178.94
  L 104.42 178.96
  A 0.35 0.35 0.0 0 0 104.74 178.74
  L 115.69 152.71
  A 0.35 0.35 0.0 0 0 115.36 152.22
  L 109.87 152.23
  A 0.35 0.35 0.0 0 0 109.54 152.45
  L 105.07 163.81" stroke="#8e8b95"></path>
<path d="M 128.95 171.78
  A 0.34 0.34 0.0 0 0 129.28 171.53
  L 132.10 160.81
  A 0.34 0.34 0.0 0 1 132.76 160.81
  L 135.61 171.52
  A 0.34 0.34 0.0 0 0 135.94 171.77
  L 141.66 171.79
  A 0.34 0.34 0.0 0 0 141.99 171.55
  L 147.99 152.64
  A 0.34 0.34 0.0 0 0 147.66 152.19
  L 142.56 152.25
  A 0.34 0.34 0.0 0 0 142.24 152.49
  L 138.87 163.32
  A 0.34 0.34 0.0 0 1 138.22 163.30
  L 135.37 152.48
  A 0.34 0.34 0.0 0 0 135.04 152.23
  L 130.42 152.22
  A 0.34 0.34 0.0 0 0 130.09 152.47
  L 127.27 163.33
  A 0.34 0.34 0.0 0 1 126.62 163.35
  L 123.21 152.49
  A 0.34 0.34 0.0 0 0 122.89 152.25
  L 117.24 152.18
  A 0.34 0.34 0.0 0 0 116.91 152.62
  L 122.90 171.54
  A 0.34 0.34 0.0 0 0 123.23 171.78
  L 128.95 171.78" stroke="#8e8b95"></path>
<path d="M 79.83 197.99
  A 2.27 2.27 0.0 0 1 79.33 201.61
  C 75.94 203.45 69.39 202.54 69.24 197.52
  Q 69.23 197.15 68.87 197.16
  L 63.47 197.31
  Q 63.07 197.32 63.07 197.72
  C 63.30 210.95 87.46 211.21 86.94 198.64
  C 86.48 187.29 68.95 192.76 70.43 186.18
  Q 70.54 185.69 70.95 185.38
  C 74.08 183.03 79.85 184.04 80.24 188.61
  Q 80.28 189.04 80.71 189.03
  L 86.04 188.87
  A 0.41 0.40 88.6 0 0 86.43 188.45
  C 86.07 175.98 64.86 175.86 63.74 186.75
  C 62.83 195.54 71.87 195.90 77.94 197.15
  Q 79.24 197.41 79.83 197.99" stroke="#aa96ff"></path>
<path d="M 179.19 189.76
  L 179.24 179.74
  Q 179.24 179.49 178.99 179.49
  L 173.04 179.49
  Q 172.83 179.49 172.83 179.71
  L 172.83 207.02
  Q 172.83 207.24 173.05 207.25
  L 178.97 207.26
  A 0.24 0.24 0.0 0 0 179.21 207.02
  L 179.25 195.69
  A 3.50 3.50 0.0 0 1 182.81 192.20
  L 183.73 192.22
  A 2.52 2.52 0.0 0 1 186.21 194.72
  L 186.30 206.78
  Q 186.31 207.25 186.78 207.25
  L 192.22 207.26
  Q 192.64 207.26 192.64 206.85
  Q 192.75 200.86 192.72 194.41
  C 192.68 186.86 184.32 184.85 179.66 189.94
  Q 179.19 190.45 179.19 189.76" stroke="#aa96ff"></path>
<path d="M 95.80 198.83
  L 108.79 198.83
  A 0.49 0.48 -88.0 0 0 109.26 198.39
  C 110.06 188.91 100.47 183.73 93.12 189.21
  C 86.19 194.37 88.10 205.82 97.00 207.52
  C 102.03 208.49 107.43 206.76 109.02 201.41
  Q 109.19 200.82 108.58 200.76
  L 104.75 200.36
  Q 104.26 200.31 103.96 200.71
  C 101.63 203.83 95.82 203.85 95.33 199.36
  Q 95.27 198.83 95.80 198.83" stroke="#aa96ff"></path>
<path d="M 124.00 204.88
  Q 126.99 209.40 132.17 206.73
  Q 132.54 206.54 132.57 206.13
  L 132.75 203.73
  Q 132.79 203.18 132.23 203.21
  L 130.81 203.29
  Q 129.77 203.35 129.78 202.31
  C 129.80 199.05 130.29 193.75 129.02 191.15
  C 127.11 187.25 122.27 186.71 118.44 187.43
  Q 112.97 188.45 111.69 193.80
  A 0.37 0.37 0.0 0 0 112.02 194.25
  L 117.15 194.66
  Q 117.56 194.69 117.67 194.29
  C 118.65 190.85 123.75 191.20 123.43 194.83
  Q 123.38 195.30 122.92 195.36
  C 117.73 196.03 109.91 196.65 111.26 203.69
  C 112.39 209.56 120.66 208.07 123.55 204.85
  Q 123.79 204.58 124.00 204.88" stroke="#aa96ff"></path>
<path d="M 141.20 190.23
  L 141.25 188.48
  Q 141.27 187.69 140.48 187.69
  L 135.72 187.70
  Q 134.89 187.71 134.89 188.53
  L 134.89 206.95
  Q 134.89 207.25 135.20 207.25
  L 140.99 207.26
  A 0.28 0.28 0.0 0 0 141.27 206.97
  Q 141.20 202.99 141.26 198.69
  C 141.33 193.72 143.68 192.15 148.45 193.63
  Q 148.98 193.80 149.02 193.24
  L 149.38 188.37
  A 0.78 0.77 -79.5 0 0 148.84 187.58
  Q 143.98 186.06 141.71 190.37
  Q 141.17 191.39 141.20 190.23" stroke="#aa96ff"></path>
<path d="M 157.39 199.80
  C 155.18 192.24 163.84 188.56 165.35 195.73
  Q 165.42 196.03 165.73 196.01
  L 170.43 195.68
  A 0.26 0.26 0.0 0 0 170.67 195.39
  C 169.42 183.39 151.31 184.90 150.62 196.88
  C 149.89 209.58 169.07 212.07 170.59 199.67
  Q 170.64 199.25 170.22 199.21
  L 165.99 198.85
  Q 165.51 198.81 165.35 199.27
  C 163.85 203.60 158.81 204.63 157.39 199.80" stroke="#aa96ff"></path>
<path d="M 197.5600 167.4600
  A 5.45 4.52 90.0 0 0 202.0800 162.0100
  A 5.45 4.52 90.0 0 0 197.5600 156.5600
  A 5.45 4.52 90.0 0 0 193.0400 162.0100
  A 5.45 4.52 90.0 0 0 197.5600 167.4600" stroke="#8e8b95"></path>
<path d="M 79.35 160.00
  L 86.71 159.98
  A 0.15 0.15 0.0 0 0 86.86 159.83
  L 86.86 159.73
  A 3.70 3.41 -0.2 0 0 83.14 156.33
  L 82.88 156.33
  A 3.70 3.41 -0.2 0 0 79.20 159.75
  L 79.20 159.85
  A 0.15 0.15 0.0 0 0 79.35 160.00" stroke="#8e8b95"></path>
<path d="M 158.5898 167.6200
  A 5.63 4.19 89.9 0 0 162.7700 161.9827
  A 5.63 4.19 89.9 0 0 158.5702 156.3600
  A 5.63 4.19 89.9 0 0 154.3900 161.9973
  A 5.63 4.19 89.9 0 0 158.5898 167.6200" stroke="#8e8b95"></path>
<path d="M 95.62 195.50
  L 102.96 195.48
  A 0.15 0.15 0.0 0 0 103.11 195.33
  L 103.11 195.22
  A 3.71 3.44 -0.2 0 0 99.38 191.79
  L 99.16 191.79
  A 3.71 3.44 -0.2 0 0 95.47 195.24
  L 95.47 195.35
  A 0.15 0.15 0.0 0 0 95.62 195.50" stroke="#aa96ff"></path>
<path d="M 122.97 198.71
  C 121.20 198.96 117.18 199.29 117.12 201.61
  A 1.84 1.83 89.9 0 0 119.00 203.49
  Q 123.16 203.37 123.52 199.23
  Q 123.57 198.62 122.97 198.71" stroke="#aa96ff"></path>
</g>
<path d="M 0.00 0.00
  L 256.00 0.00
  L 256.00 256.00
  L 0.00 256.00
  L 0.00 0.00
  Z
  M 134.44 57.20
  L 130.20 48.60
  A 1.14 1.14 0.0 0 0 128.24 48.46
  L 121.86 57.58
  A 1.92 1.91 50.2 0 0 121.69 59.48
  L 124.63 65.91
  Q 124.85 66.41 124.54 66.85
  Q 121.68 70.87 118.87 74.95
  C 117.49 76.94 117.73 78.63 118.04 80.88
  Q 118.09 81.29 118.50 81.28
  Q 122.43 81.25 123.86 79.10
  Q 126.74 74.77 129.84 70.51
  Q 130.17 70.06 130.71 70.11
  L 137.24 70.63
  Q 138.80 70.76 139.69 69.48
  L 145.91 60.55
  A 1.00 1.00 0.0 0 0 145.20 58.98
  L 135.45 57.91
  A 1.27 1.26 79.7 0 1 134.44 57.20
  Z
  M 152.93 116.18
  L 159.32 111.05
  A 3.04 3.04 0.0 0 0 159.63 106.59
  L 159.08 106.01
  A 2.51 2.50 -40.7 0 0 155.70 105.76
  L 148.82 111.20
  A 0.42 0.41 -37.6 0 1 148.24 111.13
  L 140.76 101.80
  Q 140.55 101.54 140.77 101.27
  Q 150.54 89.34 147.00 74.06
  A 2.85 2.85 0.0 0 0 143.30 72.00
  L 142.51 72.26
  A 2.61 2.61 0.0 0 0 140.80 75.28
  Q 143.63 88.50 135.90 97.14
  C 125.02 109.32 104.46 107.67 97.06 92.69
  C 89.37 77.13 99.09 60.41 116.38 58.08
  A 2.43 2.42 81.4 0 0 118.45 55.27
  L 118.31 54.47
  Q 117.78 51.38 114.68 51.90
  Q 99.39 54.47 92.33 66.31
  C 82.52 82.77 90.12 103.64 108.13 110.03
  Q 122.02 114.95 135.44 106.24
  Q 135.86 105.96 136.18 106.36
  L 152.89 127.22
  A 2.13 2.12 -38.6 0 0 155.87 127.55
  L 166.10 119.36
  A 2.92 2.92 0.0 0 0 166.42 115.10
  L 165.78 114.41
  A 2.53 2.53 0.0 0 0 162.35 114.15
  L 155.52 119.58
  A 0.43 0.42 -38.7 0 1 154.93 119.52
  L 152.85 116.90
  A 0.51 0.51 0.0 0 1 152.93 116.18
  Z
  M 108.07 77.78
  Q 109.36 73.94 115.87 70.81
  A 3.02 3.01 65.8 0 0 117.34 66.92
  L 117.14 66.47
  A 2.47 2.46 70.9 0 0 114.22 65.04
  C 97.89 69.51 95.83 91.48 112.02 97.90
  Q 116.52 99.68 120.94 98.72
  Q 135.53 95.54 135.06 79.61
  A 2.29 2.29 0.0 0 0 132.61 77.39
  L 131.95 77.44
  Q 128.97 77.66 128.86 80.64
  C 128.20 99.13 102.65 93.91 108.07 77.78
  Z
  M 54.72 155.02
  L 54.73 144.49
  Q 54.73 144.00 54.24 144.00
  L 48.50 144.00
  Q 48.00 144.00 48.00 144.50
  L 48.00 171.52
  A 0.27 0.26 89.0 0 0 48.27 171.79
  L 54.48 171.76
  A 0.24 0.24 0.0 0 0 54.72 171.52
  Q 54.76 168.26 54.70 164.70
  C 54.67 162.80 55.49 161.77 56.92 160.78
  Q 57.43 160.43 57.80 160.93
  L 65.69 171.60
  A 0.41 0.40 -17.4 0 0 66.02 171.77
  L 73.48 171.79
  A 0.20 0.20 0.0 0 0 73.64 171.47
  L 62.35 156.17
  A 0.41 0.41 0.0 0 1 62.38 155.65
  L 72.73 144.49
  A 0.29 0.29 0.0 0 0 72.52 144.01
  L 65.94 143.99
  A 1.18 1.14 -68.3 0 0 65.08 144.38
  L 55.22 155.21
  Q 54.72 155.77 54.72 155.02
  Z
  M 201.92 169.27
  L 202.02 171.29
  Q 202.04 171.79 202.54 171.79
  L 207.69 171.77
  Q 208.41 171.77 208.41 171.05
  L 208.41 144.21
  Q 208.41 144.01 208.21 144.01
  L 202.26 144.00
  Q 202.01 144.00 202.01 144.24
  L 201.99 154.51
  Q 201.99 155.36 201.47 154.68
  C 197.37 149.35 189.33 151.43 187.38 157.63
  Q 185.95 162.21 187.40 166.34
  C 189.62 172.61 196.98 174.75 201.48 169.12
  Q 201.89 168.61 201.92 169.27
  Z
  M 80.27 163.41
  L 92.46 163.43
  Q 92.82 163.43 92.87 163.08
  C 94.89 149.87 76.29 147.50 73.15 159.31
  C 69.59 172.70 88.75 177.33 92.75 166.08
  Q 93.01 165.35 92.24 165.27
  L 88.73 164.94
  Q 87.92 164.86 87.46 165.53
  Q 85.37 168.59 81.21 166.87
  Q 80.04 166.38 79.46 165.26
  L 79.31 164.97
  Q 78.51 163.41 80.27 163.41
  Z
  M 169.2399 161.9528
  A 10.65 10.41 -0.2 0 0 158.5537 151.5801
  A 10.65 10.41 -0.2 0 0 147.9401 162.0272
  A 10.65 10.41 -0.2 0 0 158.6263 172.3999
  A 10.65 10.41 -0.2 0 0 169.2399 161.9528
  Z
  M 177.56 155.02
  L 177.75 153.02
  Q 177.82 152.21 177.01 152.22
  L 172.18 152.23
  Q 171.34 152.23 171.34 153.07
  L 171.32 171.54
  Q 171.32 171.77 171.54 171.77
  L 177.46 171.78
  Q 177.71 171.78 177.71 171.53
  C 177.73 168.38 177.08 161.66 178.48 159.39
  Q 180.13 156.72 184.92 158.16
  Q 185.46 158.32 185.50 157.75
  L 185.81 152.79
  Q 185.85 152.20 185.27 152.04
  Q 180.25 150.69 177.97 155.14
  A 0.22 0.22 0.0 0 1 177.56 155.02
  Z
  M 105.07 163.81
  A 0.35 0.35 0.0 0 1 104.42 163.81
  L 100.03 152.43
  A 0.35 0.35 0.0 0 0 99.70 152.21
  L 93.77 152.23
  A 0.35 0.35 0.0 0 0 93.44 152.71
  L 101.21 171.84
  A 0.35 0.35 0.0 0 1 101.21 172.10
  L 98.59 178.46
  A 0.35 0.35 0.0 0 0 98.91 178.94
  L 104.42 178.96
  A 0.35 0.35 0.0 0 0 104.74 178.74
  L 115.69 152.71
  A 0.35 0.35 0.0 0 0 115.36 152.22
  L 109.87 152.23
  A 0.35 0.35 0.0 0 0 109.54 152.45
  L 105.07 163.81
  Z
  M 128.95 171.78
  A 0.34 0.34 0.0 0 0 129.28 171.53
  L 132.10 160.81
  A 0.34 0.34 0.0 0 1 132.76 160.81
  L 135.61 171.52
  A 0.34 0.34 0.0 0 0 135.94 171.77
  L 141.66 171.79
  A 0.34 0.34 0.0 0 0 141.99 171.55
  L 147.99 152.64
  A 0.34 0.34 0.0 0 0 147.66 152.19
  L 142.56 152.25
  A 0.34 0.34 0.0 0 0 142.24 152.49
  L 138.87 163.32
  A 0.34 0.34 0.0 0 1 138.22 163.30
  L 135.37 152.48
  A 0.34 0.34 0.0 0 0 135.04 152.23
  L 130.42 152.22
  A 0.34 0.34 0.0 0 0 130.09 152.47
  L 127.27 163.33
  A 0.34 0.34 0.0 0 1 126.62 163.35
  L 123.21 152.49
  A 0.34 0.34 0.0 0 0 122.89 152.25
  L 117.24 152.18
  A 0.34 0.34 0.0 0 0 116.91 152.62
  L 122.90 171.54
  A 0.34 0.34 0.0 0 0 123.23 171.78
  L 128.95 171.78
  Z
  M 79.83 197.99
  A 2.27 2.27 0.0 0 1 79.33 201.61
  C 75.94 203.45 69.39 202.54 69.24 197.52
  Q 69.23 197.15 68.87 197.16
  L 63.47 197.31
  Q 63.07 197.32 63.07 197.72
  C 63.30 210.95 87.46 211.21 86.94 198.64
  C 86.48 187.29 68.95 192.76 70.43 186.18
  Q 70.54 185.69 70.95 185.38
  C 74.08 183.03 79.85 184.04 80.24 188.61
  Q 80.28 189.04 80.71 189.03
  L 86.04 188.87
  A 0.41 0.40 88.6 0 0 86.43 188.45
  C 86.07 175.98 64.86 175.86 63.74 186.75
  C 62.83 195.54 71.87 195.90 77.94 197.15
  Q 79.24 197.41 79.83 197.99
  Z
  M 179.19 189.76
  L 179.24 179.74
  Q 179.24 179.49 178.99 179.49
  L 173.04 179.49
  Q 172.83 179.49 172.83 179.71
  L 172.83 207.02
  Q 172.83 207.24 173.05 207.25
  L 178.97 207.26
  A 0.24 0.24 0.0 0 0 179.21 207.02
  L 179.25 195.69
  A 3.50 3.50 0.0 0 1 182.81 192.20
  L 183.73 192.22
  A 2.52 2.52 0.0 0 1 186.21 194.72
  L 186.30 206.78
  Q 186.31 207.25 186.78 207.25
  L 192.22 207.26
  Q 192.64 207.26 192.64 206.85
  Q 192.75 200.86 192.72 194.41
  C 192.68 186.86 184.32 184.85 179.66 189.94
  Q 179.19 190.45 179.19 189.76
  Z
  M 95.80 198.83
  L 108.79 198.83
  A 0.49 0.48 -88.0 0 0 109.26 198.39
  C 110.06 188.91 100.47 183.73 93.12 189.21
  C 86.19 194.37 88.10 205.82 97.00 207.52
  C 102.03 208.49 107.43 206.76 109.02 201.41
  Q 109.19 200.82 108.58 200.76
  L 104.75 200.36
  Q 104.26 200.31 103.96 200.71
  C 101.63 203.83 95.82 203.85 95.33 199.36
  Q 95.27 198.83 95.80 198.83
  Z
  M 124.00 204.88
  Q 126.99 209.40 132.17 206.73
  Q 132.54 206.54 132.57 206.13
  L 132.75 203.73
  Q 132.79 203.18 132.23 203.21
  L 130.81 203.29
  Q 129.77 203.35 129.78 202.31
  C 129.80 199.05 130.29 193.75 129.02 191.15
  C 127.11 187.25 122.27 186.71 118.44 187.43
  Q 112.97 188.45 111.69 193.80
  A 0.37 0.37 0.0 0 0 112.02 194.25
  L 117.15 194.66
  Q 117.56 194.69 117.67 194.29
  C 118.65 190.85 123.75 191.20 123.43 194.83
  Q 123.38 195.30 122.92 195.36
  C 117.73 196.03 109.91 196.65 111.26 203.69
  C 112.39 209.56 120.66 208.07 123.55 204.85
  Q 123.79 204.58 124.00 204.88
  Z
  M 141.20 190.23
  L 141.25 188.48
  Q 141.27 187.69 140.48 187.69
  L 135.72 187.70
  Q 134.89 187.71 134.89 188.53
  L 134.89 206.95
  Q 134.89 207.25 135.20 207.25
  L 140.99 207.26
  A 0.28 0.28 0.0 0 0 141.27 206.97
  Q 141.20 202.99 141.26 198.69
  C 141.33 193.72 143.68 192.15 148.45 193.63
  Q 148.98 193.80 149.02 193.24
  L 149.38 188.37
  A 0.78 0.77 -79.5 0 0 148.84 187.58
  Q 143.98 186.06 141.71 190.37
  Q 141.17 191.39 141.20 190.23
  Z
  M 157.39 199.80
  C 155.18 192.24 163.84 188.56 165.35 195.73
  Q 165.42 196.03 165.73 196.01
  L 170.43 195.68
  A 0.26 0.26 0.0 0 0 170.67 195.39
  C 169.42 183.39 151.31 184.90 150.62 196.88
  C 149.89 209.58 169.07 212.07 170.59 199.67
  Q 170.64 199.25 170.22 199.21
  L 165.99 198.85
  Q 165.51 198.81 165.35 199.27
  C 163.85 203.60 158.81 204.63 157.39 199.80
  Z" fill="#f7f5ff"></path>
<path d="M 134.44 57.20
  A 1.27 1.26 79.7 0 0 135.45 57.91
  L 145.20 58.98
  A 1.00 1.00 0.0 0 1 145.91 60.55
  L 139.69 69.48
  Q 138.80 70.76 137.24 70.63
  L 130.71 70.11
  Q 130.17 70.06 129.84 70.51
  Q 126.74 74.77 123.86 79.10
  Q 122.43 81.25 118.50 81.28
  Q 118.09 81.29 118.04 80.88
  C 117.73 78.63 117.49 76.94 118.87 74.95
  Q 121.68 70.87 124.54 66.85
  Q 124.85 66.41 124.63 65.91
  L 121.69 59.48
  A 1.92 1.91 50.2 0 1 121.86 57.58
  L 128.24 48.46
  A 1.14 1.14 0.0 0 1 130.20 48.60
  L 134.44 57.20
  Z" fill="#25212b"></path>
<path d="M 152.93 116.18
  A 0.51 0.51 0.0 0 0 152.85 116.90
  L 154.93 119.52
  A 0.43 0.42 -38.7 0 0 155.52 119.58
  L 162.35 114.15
  A 2.53 2.53 0.0 0 1 165.78 114.41
  L 166.42 115.10
  A 2.92 2.92 0.0 0 1 166.10 119.36
  L 155.87 127.55
  A 2.13 2.12 -38.6 0 1 152.89 127.22
  L 136.18 106.36
  Q 135.86 105.96 135.44 106.24
  Q 122.02 114.95 108.13 110.03
  C 90.12 103.64 82.52 82.77 92.33 66.31
  Q 99.39 54.47 114.68 51.90
  Q 117.78 51.38 118.31 54.47
  L 118.45 55.27
  A 2.43 2.42 81.4 0 1 116.38 58.08
  C 99.09 60.41 89.37 77.13 97.06 92.69
  C 104.46 107.67 125.02 109.32 135.90 97.14
  Q 143.63 88.50 140.80 75.28
  A 2.61 2.61 0.0 0 1 142.51 72.26
  L 143.30 72.00
  A 2.85 2.85 0.0 0 1 147.00 74.06
  Q 150.54 89.34 140.77 101.27
  Q 140.55 101.54 140.76 101.80
  L 148.24 111.13
  A 0.42 0.41 -37.6 0 0 148.82 111.20
  L 155.70 105.76
  A 2.51 2.50 -40.7 0 1 159.08 106.01
  L 159.63 106.59
  A 3.04 3.04 0.0 0 1 159.32 111.05
  L 152.93 116.18
  Z" fill="#5c36ff"></path>
<path d="M 108.07 77.78
  C 102.65 93.91 128.20 99.13 128.86 80.64
  Q 128.97 77.66 131.95 77.44
  L 132.61 77.39
  A 2.29 2.29 0.0 0 1 135.06 79.61
  Q 135.53 95.54 120.94 98.72
  Q 116.52 99.68 112.02 97.90
  C 95.83 91.48 97.89 69.51 114.22 65.04
  A 2.47 2.46 70.9 0 1 117.14 66.47
  L 117.34 66.92
  A 3.02 3.01 65.8 0 1 115.87 70.81
  Q 109.36 73.94 108.07 77.78
  Z" fill="#5c36ff"></path>
<path d="M 55.22 155.21
  L 65.08 144.38
  A 1.18 1.14 -68.3 0 1 65.94 143.99
  L 72.52 144.01
  A 0.29 0.29 0.0 0 1 72.73 144.49
  L 62.38 155.65
  A 0.41 0.41 0.0 0 0 62.35 156.17
  L 73.64 171.47
  A 0.20 0.20 0.0 0 1 73.48 171.79
  L 66.02 171.77
  A 0.41 0.40 -17.4 0 1 65.69 171.60
  L 57.80 160.93
  Q 57.43 160.43 56.92 160.78
  C 55.49 161.77 54.67 162.80 54.70 164.70
  Q 54.76 168.26 54.72 171.52
  A 0.24 0.24 0.0 0 1 54.48 171.76
  L 48.27 171.79
  A 0.27 0.26 89.0 0 1 48.00 171.52
  L 48.00 144.50
  Q 48.00 144.00 48.50 144.00
  L 54.24 144.00
  Q 54.73 144.00 54.73 144.49
  L 54.72 155.02
  Q 54.72 155.77 55.22 155.21
  Z" fill="#25212b"></path>
<path d="M 201.48 169.12
  C 196.98 174.75 189.62 172.61 187.40 166.34
  Q 185.95 162.21 187.38 157.63
  C 189.33 151.43 197.37 149.35 201.47 154.68
  Q 201.99 155.36 201.99 154.51
  L 202.01 144.24
  Q 202.01 144.00 202.26 144.00
  L 208.21 144.01
  Q 208.41 144.01 208.41 144.21
  L 208.41 171.05
  Q 208.41 171.77 207.69 171.77
  L 202.54 171.79
  Q 202.04 171.79 202.02 171.29
  L 201.92 169.27
  Q 201.89 168.61 201.48 169.12
  Z
  M 197.5600 167.4600
  A 5.45 4.52 90.0 0 0 202.0800 162.0100
  A 5.45 4.52 90.0 0 0 197.5600 156.5600
  A 5.45 4.52 90.0 0 0 193.0400 162.0100
  A 5.45 4.52 90.0 0 0 197.5600 167.4600
  Z" fill="#25212b"></path>
<path d="M 80.27 163.41
  Q 78.51 163.41 79.31 164.97
  L 79.46 165.26
  Q 80.04 166.38 81.21 166.87
  Q 85.37 168.59 87.46 165.53
  Q 87.92 164.86 88.73 164.94
  L 92.24 165.27
  Q 93.01 165.35 92.75 166.08
  C 88.75 177.33 69.59 172.70 73.15 159.31
  C 76.29 147.50 94.89 149.87 92.87 163.08
  Q 92.82 163.43 92.46 163.43
  L 80.27 163.41
  Z
  M 79.35 160.00
  L 86.71 159.98
  A 0.15 0.15 0.0 0 0 86.86 159.83
  L 86.86 159.73
  A 3.70 3.41 -0.2 0 0 83.14 156.33
  L 82.88 156.33
  A 3.70 3.41 -0.2 0 0 79.20 159.75
  L 79.20 159.85
  A 0.15 0.15 0.0 0 0 79.35 160.00
  Z" fill="#25212b"></path>
<path d="M 169.2399 161.9528
  A 10.65 10.41 -0.2 0 1 158.6263 172.3999
  A 10.65 10.41 -0.2 0 1 147.9401 162.0272
  A 10.65 10.41 -0.2 0 1 158.5537 151.5801
  A 10.65 10.41 -0.2 0 1 169.2399 161.9528
  Z
  M 158.5898 167.6200
  A 5.63 4.19 89.9 0 0 162.7700 161.9827
  A 5.63 4.19 89.9 0 0 158.5702 156.3600
  A 5.63 4.19 89.9 0 0 154.3900 161.9973
  A 5.63 4.19 89.9 0 0 158.5898 167.6200
  Z" fill="#25212b"></path>
<path d="M 177.97 155.14
  Q 180.25 150.69 185.27 152.04
  Q 185.85 152.20 185.81 152.79
  L 185.50 157.75
  Q 185.46 158.32 184.92 158.16
  Q 180.13 156.72 178.48 159.39
  C 177.08 161.66 177.73 168.38 177.71 171.53
  Q 177.71 171.78 177.46 171.78
  L 171.54 171.77
  Q 171.32 171.77 171.32 171.54
  L 171.34 153.07
  Q 171.34 152.23 172.18 152.23
  L 177.01 152.22
  Q 177.82 152.21 177.75 153.02
  L 177.56 155.02
  A 0.22 0.22 0.0 0 0 177.97 155.14
  Z" fill="#25212b"></path>
<path d="M 105.07 163.81
  L 109.54 152.45
  A 0.35 0.35 0.0 0 1 109.87 152.23
  L 115.36 152.22
  A 0.35 0.35 0.0 0 1 115.69 152.71
  L 104.74 178.74
  A 0.35 0.35 0.0 0 1 104.42 178.96
  L 98.91 178.94
  A 0.35 0.35 0.0 0 1 98.59 178.46
  L 101.21 172.10
  A 0.35 0.35 0.0 0 0 101.21 171.84
  L 93.44 152.71
  A 0.35 0.35 0.0 0 1 93.77 152.23
  L 99.70 152.21
  A 0.35 0.35 0.0 0 1 100.03 152.43
  L 104.42 163.81
  A 0.35 0.35 0.0 0 0 105.07 163.81
  Z" fill="#25212b"></path>
<path d="M 128.95 171.78
  L 123.23 171.78
  A 0.34 0.34 0.0 0 1 122.90 171.54
  L 116.91 152.62
  A 0.34 0.34 0.0 0 1 117.24 152.18
  L 122.89 152.25
  A 0.34 0.34 0.0 0 1 123.21 152.49
  L 126.62 163.35
  A 0.34 0.34 0.0 0 0 127.27 163.33
  L 130.09 152.47
  A 0.34 0.34 0.0 0 1 130.42 152.22
  L 135.04 152.23
  A 0.34 0.34 0.0 0 1 135.37 152.48
  L 138.22 163.30
  A 0.34 0.34 0.0 0 0 138.87 163.32
  L 142.24 152.49
  A 0.34 0.34 0.0 0 1 142.56 152.25
  L 147.66 152.19
  A 0.34 0.34 0.0 0 1 147.99 152.64
  L 141.99 171.55
  A 0.34 0.34 0.0 0 1 141.66 171.79
  L 135.94 171.77
  A 0.34 0.34 0.0 0 1 135.61 171.52
  L 132.76 160.81
  A 0.34 0.34 0.0 0 0 132.10 160.81
  L 129.28 171.53
  A 0.34 0.34 0.0 0 1 128.95 171.78
  Z" fill="#25212b"></path>
<path d="M 79.35 160.00
  A 0.15 0.15 0.0 0 1 79.20 159.85
  L 79.20 159.75
  A 3.70 3.41 -0.2 0 1 82.88 156.33
  L 83.14 156.33
  A 3.70 3.41 -0.2 0 1 86.86 159.73
  L 86.86 159.83
  A 0.15 0.15 0.0 0 1 86.71 159.98
  L 79.35 160.00
  Z" fill="#f7f5ff"></path>
<ellipse ry="4.19" rx="5.63" transform="translate(158.58,161.99) rotate(89.9)" cy="0.00" cx="0.00" fill="#f7f5ff"></ellipse>
<ellipse ry="4.52" rx="5.45" transform="translate(197.56,162.01) rotate(90.0)" cy="0.00" cx="0.00" fill="#f7f5ff"></ellipse>
<path d="M 79.83 197.99
  Q 79.24 197.41 77.94 197.15
  C 71.87 195.90 62.83 195.54 63.74 186.75
  C 64.86 175.86 86.07 175.98 86.43 188.45
  A 0.41 0.40 88.6 0 1 86.04 188.87
  L 80.71 189.03
  Q 80.28 189.04 80.24 188.61
  C 79.85 184.04 74.08 183.03 70.95 185.38
  Q 70.54 185.69 70.43 186.18
  C 68.95 192.76 86.48 187.29 86.94 198.64
  C 87.46 211.21 63.30 210.95 63.07 197.72
  Q 63.07 197.32 63.47 197.31
  L 68.87 197.16
  Q 69.23 197.15 69.24 197.52
  C 69.39 202.54 75.94 203.45 79.33 201.61
  A 2.27 2.27 0.0 0 0 79.83 197.99
  Z" fill="#5c36ff"></path>
<path d="M 179.66 189.94
  C 184.32 184.85 192.68 186.86 192.72 194.41
  Q 192.75 200.86 192.64 206.85
  Q 192.64 207.26 192.22 207.26
  L 186.78 207.25
  Q 186.31 207.25 186.30 206.78
  L 186.21 194.72
  A 2.52 2.52 0.0 0 0 183.73 192.22
  L 182.81 192.20
  A 3.50 3.50 0.0 0 0 179.25 195.69
  L 179.21 207.02
  A 0.24 0.24 0.0 0 1 178.97 207.26
  L 173.05 207.25
  Q 172.83 207.24 172.83 207.02
  L 172.83 179.71
  Q 172.83 179.49 173.04 179.49
  L 178.99 179.49
  Q 179.24 179.49 179.24 179.74
  L 179.19 189.76
  Q 179.19 190.45 179.66 189.94
  Z" fill="#5c36ff"></path>
<path d="M 95.33 199.36
  C 95.82 203.85 101.63 203.83 103.96 200.71
  Q 104.26 200.31 104.75 200.36
  L 108.58 200.76
  Q 109.19 200.82 109.02 201.41
  C 107.43 206.76 102.03 208.49 97.00 207.52
  C 88.10 205.82 86.19 194.37 93.12 189.21
  C 100.47 183.73 110.06 188.91 109.26 198.39
  A 0.49 0.48 -88.0 0 1 108.79 198.83
  L 95.80 198.83
  Q 95.27 198.83 95.33 199.36
  Z
  M 95.62 195.50
  L 102.96 195.48
  A 0.15 0.15 0.0 0 0 103.11 195.33
  L 103.11 195.22
  A 3.71 3.44 -0.2 0 0 99.38 191.79
  L 99.16 191.79
  A 3.71 3.44 -0.2 0 0 95.47 195.24
  L 95.47 195.35
  A 0.15 0.15 0.0 0 0 95.62 195.50
  Z" fill="#5c36ff"></path>
<path d="M 123.55 204.85
  C 120.66 208.07 112.39 209.56 111.26 203.69
  C 109.91 196.65 117.73 196.03 122.92 195.36
  Q 123.38 195.30 123.43 194.83
  C 123.75 191.20 118.65 190.85 117.67 194.29
  Q 117.56 194.69 117.15 194.66
  L 112.02 194.25
  A 0.37 0.37 0.0 0 1 111.69 193.80
  Q 112.97 188.45 118.44 187.43
  C 122.27 186.71 127.11 187.25 129.02 191.15
  C 130.29 193.75 129.80 199.05 129.78 202.31
  Q 129.77 203.35 130.81 203.29
  L 132.23 203.21
  Q 132.79 203.18 132.75 203.73
  L 132.57 206.13
  Q 132.54 206.54 132.17 206.73
  Q 126.99 209.40 124.00 204.88
  Q 123.79 204.58 123.55 204.85
  Z
  M 122.97 198.71
  C 121.20 198.96 117.18 199.29 117.12 201.61
  A 1.84 1.83 89.9 0 0 119.00 203.49
  Q 123.16 203.37 123.52 199.23
  Q 123.57 198.62 122.97 198.71
  Z" fill="#5c36ff"></path>
<path d="M 141.71 190.37
  Q 143.98 186.06 148.84 187.58
  A 0.78 0.77 -79.5 0 1 149.38 188.37
  L 149.02 193.24
  Q 148.98 193.80 148.45 193.63
  C 143.68 192.15 141.33 193.72 141.26 198.69
  Q 141.20 202.99 141.27 206.97
  A 0.28 0.28 0.0 0 1 140.99 207.26
  L 135.20 207.25
  Q 134.89 207.25 134.89 206.95
  L 134.89 188.53
  Q 134.89 187.71 135.72 187.70
  L 140.48 187.69
  Q 141.27 187.69 141.25 188.48
  L 141.20 190.23
  Q 141.17 191.39 141.71 190.37
  Z" fill="#5c36ff"></path>
<path d="M 165.35 195.73
  C 163.84 188.56 155.18 192.24 157.39 199.80
  C 158.81 204.63 163.85 203.60 165.35 199.27
  Q 165.51 198.81 165.99 198.85
  L 170.22 199.21
  Q 170.64 199.25 170.59 199.67
  C 169.07 212.07 149.89 209.58 150.62 196.88
  C 151.31 184.90 169.42 183.39 170.67 195.39
  A 0.26 0.26 0.0 0 1 170.43 195.68
  L 165.73 196.01
  Q 165.42 196.03 165.35 195.73
  Z" fill="#5c36ff"></path>
<path d="M 95.62 195.50
  A 0.15 0.15 0.0 0 1 95.47 195.35
  L 95.47 195.24
  A 3.71 3.44 -0.2 0 1 99.16 191.79
  L 99.38 191.79
  A 3.71 3.44 -0.2 0 1 103.11 195.22
  L 103.11 195.33
  A 0.15 0.15 0.0 0 1 102.96 195.48
  L 95.62 195.50
  Z" fill="#f7f5ff"></path>
<path d="M 117.12 201.61
  C 117.18 199.29 121.20 198.96 122.97 198.71
  Q 123.57 198.62 123.52 199.23
  Q 123.16 203.37 119.00 203.49
  A 1.84 1.83 89.9 0 1 117.12 201.61
  Z" fill="#f7f5ff"></path>
</svg>
