<svg viewBox="0.00 0.00 32.00 32.00" version="1.1" xmlns="http://www.w3.org/2000/svg">
<g stroke-linecap="butt" fill="none" stroke-width="2.00">
<path d="M 4.16 11.19
  Q 0.92 24.03 13.20 28.09" stroke="#9ec9ff"></path>
<path d="M 13.20 28.09
  Q 21.48 29.20 25.75 22.65" stroke="#afdffe"></path>
<path d="M 25.75 22.65
  Q 27.67 19.72 27.91 16.58
  Q 27.93 16.37 27.72 16.42
  L 22.85 17.48
  Q 22.60 17.54 22.56 17.79
  Q 21.98 21.06 18.25 22.80" stroke="#d8d1fa"></path>
<path d="M 18.25 22.80
  Q 15.93 23.58 13.19 22.91" stroke="#afdffe"></path>
<path d="M 13.19 22.91
  C 7.89 20.63 6.37 14.03 11.02 10.21" stroke="#9ec9ff"></path>
<path d="M 11.02 10.21
  Q 14.42 7.90 18.10 9.07
  Q 18.59 9.22 18.93 8.84
  L 21.23 6.32" stroke="#afdffe"></path>
<path d="M 21.23 6.32
  Q 21.70 6.32 21.95 6.05
  Q 22.30 5.66 21.84 5.40
  C 15.00 1.61 7.66 4.33 4.16 11.19" stroke="#beb9f9"></path>
<path d="M 21.23 6.32
  C 18.74 4.27 13.73 5.71 11.00 7.20" stroke="#6e99f8"></path>
<path d="M 11.00 7.20
  Q 8.02 8.89 6.16 11.69
  Q 5.89 12.09 5.47 11.87
  L 4.16 11.19" stroke="#5c83f9"></path>
<path d="M 11.02 10.21
  Q 11.19 9.70 11.08 9.31
  Q 10.99 9.00 11.14 8.71
  Q 11.52 7.97 11.00 7.20" stroke="#4ea9fe"></path>
<path d="M 13.19 22.91
  Q 13.80 25.64 13.20 28.09" stroke="#4ea9fe"></path>
<path d="M 25.75 22.65
  Q 24.43 21.80 24.08 20.86
  Q 23.99 20.62 23.75 20.62
  Q 23.60 20.62 23.45 20.62
  Q 23.10 20.64 23.03 20.98
  Q 22.39 24.30 19.85 26.49
  A 0.68 0.68 0.0 0 1 18.77 25.73
  Q 19.28 24.37 18.25 22.80" stroke="#88b1f9"></path>
<path d="M 22.94 7.23
  C 17.17 9.48 19.90 17.37 25.98 15.52
  Q 28.03 14.90 28.46 12.51" stroke="#a8daff"></path>
<path d="M 28.46 12.51
  C 29.18 9.07 26.32 6.17 22.94 7.23" stroke="#d6dffc"></path>
<path d="M 28.46 12.51
  Q 23.52 11.59 22.94 7.23" stroke="#7fb9fc"></path>
</g>
<path d="M 14.13 0.00
  L 18.00 0.00
  Q 29.67 2.37 32.00 14.13
  L 32.00 18.00
  Q 29.62 29.67 17.87 32.00
  L 14.00 32.00
  Q 2.32 29.63 0.00 17.87
  L 0.00 14.01
  Q 2.39 2.32 14.13 0.00
  Z
  M 4.16 11.19
  Q 0.92 24.03 13.20 28.09
  Q 21.48 29.20 25.75 22.65
  Q 27.67 19.72 27.91 16.58
  Q 27.93 16.37 27.72 16.42
  L 22.85 17.48
  Q 22.60 17.54 22.56 17.79
  Q 21.98 21.06 18.25 22.80
  Q 15.93 23.58 13.19 22.91
  C 7.89 20.63 6.37 14.03 11.02 10.21
  Q 14.42 7.90 18.10 9.07
  Q 18.59 9.22 18.93 8.84
  L 21.23 6.32
  Q 21.70 6.32 21.95 6.05
  Q 22.30 5.66 21.84 5.40
  C 15.00 1.61 7.66 4.33 4.16 11.19
  Z
  M 22.94 7.23
  C 17.17 9.48 19.90 17.37 25.98 15.52
  Q 28.03 14.90 28.46 12.51
  C 29.18 9.07 26.32 6.17 22.94 7.23
  Z" fill="#ffffff"></path>
<path d="M 21.23 6.32
  C 18.74 4.27 13.73 5.71 11.00 7.20
  Q 8.02 8.89 6.16 11.69
  Q 5.89 12.09 5.47 11.87
  L 4.16 11.19
  C 7.66 4.33 15.00 1.61 21.84 5.40
  Q 22.30 5.66 21.95 6.05
  Q 21.70 6.32 21.23 6.32
  Z" fill="#7c73f2"></path>
<path d="M 21.23 6.32
  L 18.93 8.84
  Q 18.59 9.22 18.10 9.07
  Q 14.42 7.90 11.02 10.21
  Q 11.19 9.70 11.08 9.31
  Q 10.99 9.00 11.14 8.71
  Q 11.52 7.97 11.00 7.20
  C 13.73 5.71 18.74 4.27 21.23 6.32
  Z" fill="#5fbffd"></path>
<path d="M 11.00 7.20
  Q 11.52 7.97 11.14 8.71
  Q 10.99 9.00 11.08 9.31
  Q 11.19 9.70 11.02 10.21
  C 6.37 14.03 7.89 20.63 13.19 22.91
  Q 13.80 25.64 13.20 28.09
  Q 0.92 24.03 4.16 11.19
  L 5.47 11.87
  Q 5.89 12.09 6.16 11.69
  Q 8.02 8.89 11.00 7.20
  Z" fill="#3c92ff"></path>
<path d="M 28.46 12.51
  Q 23.52 11.59 22.94 7.23
  C 26.32 6.17 29.18 9.07 28.46 12.51
  Z" fill="#adbef9"></path>
<path d="M 22.94 7.23
  Q 23.52 11.59 28.46 12.51
  Q 28.03 14.90 25.98 15.52
  C 19.90 17.37 17.17 9.48 22.94 7.23
  Z" fill="#50b4fe"></path>
<path d="M 25.75 22.65
  Q 24.43 21.80 24.08 20.86
  Q 23.99 20.62 23.75 20.62
  Q 23.60 20.62 23.45 20.62
  Q 23.10 20.64 23.03 20.98
  Q 22.39 24.30 19.85 26.49
  A 0.68 0.68 0.0 0 1 18.77 25.73
  Q 19.28 24.37 18.25 22.80
  Q 21.98 21.06 22.56 17.79
  Q 22.60 17.54 22.85 17.48
  L 27.72 16.42
  Q 27.93 16.37 27.91 16.58
  Q 27.67 19.72 25.75 22.65
  Z" fill="#b0a2f5"></path>
<path d="M 25.75 22.65
  Q 21.48 29.20 13.20 28.09
  Q 13.80 25.64 13.19 22.91
  Q 15.93 23.58 18.25 22.80
  Q 19.28 24.37 18.77 25.73
  A 0.68 0.68 0.0 0 0 19.85 26.49
  Q 22.39 24.30 23.03 20.98
  Q 23.10 20.64 23.45 20.62
  Q 23.60 20.62 23.75 20.62
  Q 23.99 20.62 24.08 20.86
  Q 24.43 21.80 25.75 22.65
  Z" fill="#5fbffd"></path>
</svg>
