<svg viewBox="0.00 0.00 32.00 32.00" version="1.1" xmlns="http://www.w3.org/2000/svg">
<path d="M 15.34 0.00
  L 16.91 0.00
  L 32.00 15.06
  L 32.00 17.29
  L 17.26 32.00
  L 15.06 32.00
  L 0.00 16.86
  L 0.00 15.22
  L 9.73 5.45
  A 0.76 0.76 0.0 0 1 10.81 5.45
  L 13.43 8.08
  Q 13.81 8.46 13.76 9.00
  Q 13.63 10.63 14.88 11.72
  Q 15.24 12.03 15.24 12.51
  L 15.24 20.02
  A 1.19 1.18 68.8 0 1 14.86 20.89
  C 11.43 24.02 16.91 27.63 18.46 23.87
  C 18.95 22.69 18.49 21.79 17.61 21.00
  Q 17.27 20.70 17.27 20.24
  L 17.26 12.80
  Q 17.25 11.93 17.87 12.55
  L 20.04 14.74
  Q 20.69 15.38 20.50 16.28
  Q 20.20 17.72 21.77 18.48
  C 25.35 20.23 27.24 13.79 22.60 13.93
  Q 22.05 13.94 21.67 13.56
  L 19.06 10.97
  A 1.22 1.22 0.0 0 1 18.69 10.07
  Q 18.75 7.12 15.83 7.20
  A 1.16 1.15 66.6 0 1 14.99 6.86
  L 12.16 4.02
  Q 11.71 3.58 12.16 3.13
  L 15.34 0.00
  Z" fill="#000000"></path>
</svg>
