<svg viewBox="0.00 0.00 92.00 123.00" version="1.1" xmlns="http://www.w3.org/2000/svg">
<path d="M 50.18 122.54
  Q 59.46 120.20 65.03 114.12
  C 71.74 106.80 72.44 96.68 68.55 87.70
  Q 68.26 87.04 68.13 87.75
  C 67.13 93.19 66.02 98.05 62.90 102.59
  Q 61.67 104.38 62.03 102.23
  C 64.27 89.13 56.34 80.59 49.22 70.82
  Q 43.45 62.91 43.17 53.31
  A 0.40 0.40 0.0 0 0 42.56 52.98
  C 29.97 60.93 28.83 78.92 33.41 91.31
  Q 34.06 93.05 32.74 91.75
  Q 28.17 87.22 26.04 81.18
  Q 25.85 80.62 25.50 81.10
  C 16.51 93.47 22.09 112.72 35.27 119.71
  Q 37.05 120.66 38.77 121.77" stroke-linecap="butt" fill="none" stroke-width="2.00" stroke="#f3a05b"></path>
<path d="M 92.00 69.67
  L 92.00 76.67
  C 90.52 100.51 75.73 121.70 50.18 122.54
  Q 59.46 120.20 65.03 114.12
  C 71.74 106.80 72.44 96.68 68.55 87.70
  Q 68.26 87.04 68.13 87.75
  C 67.13 93.19 66.02 98.05 62.90 102.59
  Q 61.67 104.38 62.03 102.23
  C 64.27 89.13 56.34 80.59 49.22 70.82
  Q 43.45 62.91 43.17 53.31
  A 0.40 0.40 0.0 0 0 42.56 52.98
  C 29.97 60.93 28.83 78.92 33.41 91.31
  Q 34.06 93.05 32.74 91.75
  Q 28.17 87.22 26.04 81.18
  Q 25.85 80.62 25.50 81.10
  C 16.51 93.47 22.09 112.72 35.27 119.71
  Q 37.05 120.66 38.77 121.77
  C 15.91 117.35 1.88 95.12 0.00 73.00
  L 0.00 67.24
  Q 1.55 51.33 11.67 38.56
  A 0.21 0.21 0.0 0 1 12.05 38.67
  C 12.44 43.87 13.65 50.98 17.89 54.54
  Q 18.38 54.94 18.41 54.32
  Q 18.53 51.87 18.46 49.50
  C 17.72 24.32 36.68 8.28 58.49 0.65
  Q 59.18 0.40 58.76 1.00
  C 50.26 12.85 55.21 25.55 61.45 37.04
  C 67.15 47.52 74.06 58.19 75.95 70.09
  Q 76.09 70.98 76.50 70.18
  C 81.19 61.02 81.99 52.55 83.10 42.47
  Q 83.18 41.79 83.53 42.38
  Q 90.91 54.90 92.00 69.67
  Z" fill="#ec6f59"></path>
<path d="M 50.18 122.54
  L 48.36 123.00
  L 45.76 123.00
  L 38.77 121.77
  Q 37.05 120.66 35.27 119.71
  C 22.09 112.72 16.51 93.47 25.50 81.10
  Q 25.85 80.62 26.04 81.18
  Q 28.17 87.22 32.74 91.75
  Q 34.06 93.05 33.41 91.31
  C 28.83 78.92 29.97 60.93 42.56 52.98
  A 0.40 0.40 0.0 0 1 43.17 53.31
  Q 43.45 62.91 49.22 70.82
  C 56.34 80.59 64.27 89.13 62.03 102.23
  Q 61.67 104.38 62.90 102.59
  C 66.02 98.05 67.13 93.19 68.13 87.75
  Q 68.26 87.04 68.55 87.70
  C 72.44 96.68 71.74 106.80 65.03 114.12
  Q 59.46 120.20 50.18 122.54
  Z" fill="#fad15c"></path>
</svg>
