<svg viewBox="0.00 0.00 150.00 150.00" version="1.1" xmlns="http://www.w3.org/2000/svg">
<g stroke-linecap="butt" fill="none" stroke-width="2.00">
<path d="M 100.93 0.00
  Q 100.69 1.90 98.84 2.18
  Q 98.39 2.24 98.07 2.56
  L 95.67 4.97
  Q 95.52 5.12 95.30 5.12
  Q 95.10 5.11 94.91 5.14
  Q 94.41 5.23 94.05 5.59
  L 91.67 7.96
  Q 91.52 8.11 91.30 8.11
  Q 91.12 8.10 90.94 8.13
  Q 90.42 8.21 90.06 8.58
  L 87.67 10.96
  Q 87.52 11.11 87.30 11.11
  Q 87.12 11.10 86.94 11.13
  Q 86.42 11.21 86.06 11.58
  L 83.67 13.96
  Q 83.52 14.11 83.30 14.11
  Q 83.12 14.10 82.94 14.13
  Q 82.42 14.21 82.06 14.58
  L 79.67 16.96
  Q 79.52 17.11 79.30 17.11
  Q 79.17 17.10 79.04 17.12
  Q 78.53 17.17 78.16 17.52
  L 75.66 19.87
  Q 75.41 20.10 75.06 20.11
  L 74.80 20.11
  Q 74.33 20.11 74.07 20.50
  Q 73.22 21.75 71.73 22.23
  Q 71.26 22.37 70.91 22.72
  L 68.67 24.97
  Q 68.51 25.12 68.30 25.12
  Q 68.10 25.11 67.90 25.14
  Q 67.40 25.23 67.04 25.59
  L 64.67 27.97
  Q 64.52 28.12 64.30 28.12
  Q 64.03 28.11 63.76 28.17
  Q 63.38 28.27 63.10 28.55
  L 61.71 29.94
  A 0.63 0.62 23.0 0 1 61.28 30.11
  L 60.50 30.11
  Q 60.11 30.11 60.12 30.51
  Q 60.14 30.86 59.90 30.99
  Q 59.25 31.36 59.18 31.42
  L 56.69 33.96
  Q 56.53 34.12 56.30 34.12
  Q 56.11 34.11 55.92 34.14
  Q 55.41 34.22 55.04 34.59
  L 53.54 36.12
  Q 53.22 36.45 52.77 36.34
  Q 51.83 36.09 51.29 36.88" stroke="#341745"></path>
<path d="M 51.29 36.88
  L 46.95 32.53
  A 0.96 0.96 0.0 0 0 45.62 32.50
  L 45.37 32.73
  Q 44.42 33.61 45.34 34.52
  L 51.21 40.27" stroke="#806f8b"></path>
<path d="M 51.21 40.27
  Q 48.53 41.39 46.70 43.68
  Q 46.53 43.90 46.25 43.90
  L 45.92 43.90
  Q 45.50 43.90 45.20 44.20
  L 42.70 46.71
  Q 42.51 46.90 42.25 46.90
  L 41.92 46.90
  Q 41.50 46.90 41.20 47.20
  L 38.70 49.71
  Q 38.51 49.90 38.25 49.90
  L 37.92 49.90
  Q 37.50 49.90 37.20 50.20
  L 34.70 52.71
  Q 34.51 52.90 34.25 52.90
  L 33.92 52.90
  Q 33.50 52.90 33.20 53.20
  L 30.70 55.71
  Q 30.51 55.90 30.25 55.90
  L 29.92 55.90
  Q 29.50 55.90 29.20 56.20
  L 26.70 58.71
  Q 26.51 58.90 26.25 58.90
  L 25.92 58.90
  Q 25.50 58.90 25.20 59.20
  L 22.70 61.71
  Q 22.51 61.90 22.25 61.90
  L 21.91 61.90
  Q 21.48 61.90 21.18 62.20
  L 19.72 63.70
  Q 19.53 63.90 19.27 63.90
  L 18.92 63.90
  Q 18.50 63.90 18.20 64.20
  L 15.70 66.71
  Q 15.51 66.90 15.25 66.90
  L 14.92 66.90
  Q 14.50 66.90 14.20 67.20
  L 11.70 69.71
  Q 11.51 69.90 11.25 69.90
  L 10.92 69.90
  Q 10.50 69.90 10.20 70.20
  L 7.70 72.71
  Q 7.51 72.90 7.25 72.90
  L 6.92 72.90
  Q 6.50 72.90 6.20 73.20
  L 3.70 75.71
  Q 3.51 75.90 3.25 75.90
  L 2.76 75.90
  A 0.82 0.79 -67.6 0 0 2.18 76.15
  Q 0.62 77.79 0.73 80.09
  Q 0.77 81.03 0.40 80.16
  L 0.00 79.23" stroke="#341745"></path>
<path d="M 142.12 13.43
  Q 141.46 14.09 141.04 13.79
  Q 140.82 13.63 141.05 13.48
  Q 141.24 13.35 141.03 13.06
  A 0.22 0.21 61.2 0 0 140.77 12.98
  Q 140.15 13.26 139.90 12.52
  Q 139.73 12.01 139.32 12.36
  Q 138.01 13.47 136.90 14.79
  Q 136.71 15.02 136.48 15.08
  Q 136.27 15.13 136.05 15.14
  Q 135.50 15.16 135.11 15.55
  L 133.66 16.96
  Q 133.50 17.12 133.27 17.12
  Q 133.08 17.12 132.89 17.15
  Q 132.40 17.24 132.04 17.60
  L 129.67 19.97
  Q 129.52 20.12 129.30 20.12
  Q 129.09 20.12 128.89 20.15
  Q 128.40 20.24 128.04 20.60
  L 125.67 22.97
  Q 125.52 23.12 125.30 23.12
  Q 125.09 23.12 124.89 23.15
  Q 124.40 23.24 124.04 23.60
  L 121.67 25.97
  Q 121.52 26.12 121.30 26.12
  Q 121.09 26.12 120.89 26.15
  Q 120.40 26.24 120.04 26.60
  L 117.67 28.97
  Q 117.52 29.12 117.30 29.12
  Q 117.11 29.12 116.92 29.15
  Q 116.42 29.23 116.07 29.58
  L 113.74 31.88
  Q 113.50 32.12 113.15 32.12
  L 112.77 32.12
  Q 112.37 32.12 112.12 32.44
  Q 110.23 34.92 107.30 35.94
  Q 106.92 36.07 106.89 35.68
  Q 106.86 35.27 106.67 35.03" stroke="#3d1f4f"></path>
<path d="M 106.67 35.03
  Q 108.24 33.81 107.15 32.65
  A 1.17 1.16 45.5 0 0 105.48 32.63
  L 102.03 36.13" stroke="#8f7e99"></path>
<path d="M 102.03 36.13
  Q 100.27 37.60 98.58 39.74
  Q 98.36 40.02 98.38 40.23
  Q 98.40 40.49 98.61 40.78" stroke="#6f5a7d"></path>
<path d="M 98.61 40.78
  Q 98.70 41.46 98.51 42.00
  Q 98.43 42.21 98.24 42.11
  Q 98.12 42.06 98.00 41.98
  Q 97.77 41.85 97.58 42.04
  L 94.06 45.53
  Q 93.74 45.85 93.47 45.49
  Q 93.02 44.88 91.80 45.31" stroke="#3d1f4f"></path>
<path d="M 91.80 45.31
  C 76.89 35.82 58.20 40.56 51.62 57.39" stroke="#8f7e99"></path>
<path d="M 51.62 57.39
  C 49.85 61.71 49.97 66.85 49.24 70.71" stroke="#84728f"></path>
<path d="M 49.24 70.71
  L 45.89 79.81" stroke="#786484"></path>
<path d="M 45.89 79.81
  L 44.47 82.75" stroke="#6f5a7d"></path>
<path d="M 44.47 82.75
  Q 42.44 83.74 39.91 86.84
  Q 39.68 87.11 39.32 87.12
  Q 39.16 87.12 39.00 87.13
  Q 38.49 87.18 38.12 87.54
  L 35.76 89.82
  Q 35.46 90.12 35.04 90.12
  L 34.77 90.12
  Q 34.39 90.12 34.21 90.45
  Q 33.80 91.20 33.11 91.14
  Q 32.54 91.10 32.13 91.50
  L 27.67 95.96
  Q 27.51 96.12 27.28 96.12
  Q 27.08 96.12 26.89 96.15
  Q 26.39 96.24 26.04 96.60
  L 23.67 98.97
  Q 23.52 99.12 23.30 99.12
  Q 23.02 99.11 22.75 99.18
  Q 22.32 99.29 22.01 99.61
  L 20.70 100.96
  Q 20.53 101.13 20.30 101.12
  Q 20.09 101.12 19.89 101.15
  Q 19.39 101.24 19.04 101.60
  L 16.67 103.97
  Q 16.52 104.12 16.30 104.12
  Q 16.09 104.12 15.89 104.15
  Q 15.40 104.24 15.04 104.60
  L 12.67 106.97
  Q 12.52 107.12 12.30 107.12
  Q 12.09 107.12 11.89 107.15
  Q 11.40 107.24 11.04 107.60
  L 8.67 109.97
  Q 8.52 110.12 8.30 110.12
  Q 8.09 110.12 7.89 110.15
  Q 7.40 110.24 7.04 110.60
  L 4.67 112.97
  Q 4.52 113.12 4.30 113.12
  Q 3.99 113.11 3.71 113.17
  Q 3.33 113.25 3.06 113.53
  L 0.83 115.85
  A 0.72 0.71 -34.5 0 0 0.68 116.62
  Q 0.98 117.34 0.86 118.04
  Q 0.74 118.75 0.36 118.13
  L 0.15 117.78" stroke="#3d1f4f"></path>
<path d="M 51.21 40.27
  Q 51.75 40.30 52.44 41.25
  A 0.66 0.65 -40.7 0 0 53.43 41.32
  L 53.80 40.95
  A 0.96 0.95 -43.9 0 0 53.83 39.63
  L 51.29 36.88" stroke="#84728f"></path>
<path d="M 76.37 28.20
  Q 75.94 30.07 76.44 32.07
  A 0.71 0.71 0.0 0 0 77.03 32.61
  Q 78.26 32.82 78.58 31.76
  Q 79.15 29.90 78.59 25.22" stroke="#644d73"></path>
<path d="M 78.59 25.22
  L 78.61 22.66
  A 0.95 0.94 88.3 0 0 77.61 21.71
  L 77.27 21.74
  Q 76.05 21.81 76.11 23.03
  L 76.37 28.20" stroke="#8f7e99"></path>
<path d="M 78.59 25.22
  Q 77.37 28.63 76.37 28.20" stroke="#bcb1c2"></path>
<path d="M 45.4099 63.3004
  A 1.18 1.18 0.0 0 0 44.2279 62.1225
  L 35.5879 62.1375
  A 1.18 1.18 0.0 0 0 34.4099 63.3196
  L 34.4101 63.3996
  A 1.18 1.18 0.0 0 0 35.5921 64.5775
  L 44.2321 64.5625
  A 1.18 1.18 0.0 0 0 45.4101 63.3804
  L 45.4099 63.3004" stroke="#84728f"></path>
<path d="M 150.00 64.63
  L 149.69 63.81
  Q 149.38 62.98 149.17 63.79
  Q 149.02 64.40 148.37 63.93
  A 0.75 0.74 -50.6 0 0 147.39 64.03
  L 145.69 65.86
  Q 145.57 66.00 145.38 66.02
  L 144.91 66.06
  Q 144.49 66.09 144.18 66.39
  L 141.67 68.81
  Q 141.45 69.02 141.15 69.04
  L 140.85 69.06
  Q 140.50 69.08 140.25 69.32
  L 137.66 71.83
  Q 137.48 72.00 137.23 72.00
  Q 137.05 72.00 136.88 72.02
  Q 136.45 72.08 136.15 72.38
  L 133.68 74.82
  Q 133.50 75.00 133.25 75.00
  Q 133.06 75.00 132.88 75.02
  Q 132.45 75.08 132.15 75.38
  L 129.68 77.82
  Q 129.50 78.00 129.25 78.00
  Q 129.06 78.00 128.88 78.02
  Q 128.45 78.08 128.15 78.38
  L 125.68 80.82
  Q 125.50 81.00 125.25 81.00
  Q 125.06 81.00 124.88 81.02
  Q 124.45 81.08 124.15 81.38
  L 121.68 83.82
  Q 121.50 84.00 121.24 84.00
  Q 121.08 84.00 120.91 84.02
  Q 120.50 84.07 120.19 84.36
  L 117.71 86.74
  Q 117.51 86.93 117.23 86.94
  Q 117.07 86.94 116.92 86.96
  Q 116.52 87.00 116.24 87.28
  L 113.73 89.74
  Q 113.53 89.93 113.25 89.94
  Q 113.08 89.94 112.92 89.96
  Q 112.52 90.00 112.24 90.28
  L 109.68 92.78
  Q 109.52 92.94 109.30 92.94
  Q 109.15 92.94 109.00 92.95
  Q 108.48 93.00 108.13 93.37
  L 106.66 94.87
  Q 106.53 95.00 106.35 95.02
  L 106.03 95.05
  Q 105.49 95.09 105.10 95.47
  L 102.67 97.81
  Q 102.45 98.02 102.14 98.04
  L 101.85 98.06
  Q 101.50 98.08 101.25 98.32
  L 98.66 100.83
  Q 98.48 101.00 98.23 101.00
  Q 98.05 101.00 97.88 101.02
  Q 97.45 101.08 97.15 101.38
  L 94.68 103.82
  Q 94.50 104.00 94.25 104.00
  Q 94.06 104.00 93.88 104.02
  Q 93.45 104.08 93.15 104.38
  L 90.71 106.79
  Q 90.50 107.00 90.20 107.00
  L 89.92 107.00
  Q 89.47 107.00 89.13 107.31
  Q 88.13 108.25 87.51 109.48" stroke="#462859"></path>
<path d="M 87.51 109.48
  L 65.50 109.49
  A 0.27 0.27 0.0 0 0 65.23 109.76
  L 65.25 114.29
  Q 65.25 114.58 65.54 114.58
  L 79.99 114.59
  A 1.03 1.03 0.0 0 1 81.02 115.66
  L 81.01 115.93
  Q 80.96 117.14 79.76 117.14
  L 65.53 117.17
  A 0.39 0.38 86.7 0 0 65.15 117.60
  Q 65.44 120.03 67.71 120.58" stroke="#6a5279"></path>
<path d="M 67.71 120.58
  Q 68.46 121.07 69.56 121.26
  Q 70.44 121.41 69.69 121.91
  Q 68.54 122.68 67.77 123.83
  Q 67.66 123.99 67.47 124.01
  L 67.03 124.05
  Q 66.49 124.09 66.10 124.47
  L 63.67 126.81
  Q 63.45 127.02 63.14 127.04
  L 62.85 127.06
  Q 62.50 127.08 62.25 127.32
  L 59.66 129.83
  Q 59.48 130.00 59.23 130.00
  Q 59.05 130.00 58.88 130.02
  Q 58.45 130.08 58.15 130.38
  L 55.68 132.82
  Q 55.50 133.00 55.25 133.00
  Q 55.06 133.00 54.88 133.02
  Q 54.45 133.08 54.15 133.38
  L 51.68 135.82
  Q 51.50 136.00 51.25 136.00
  Q 51.06 136.00 50.88 136.02
  Q 50.45 136.08 50.15 136.38
  L 47.68 138.82
  Q 47.50 139.00 47.24 139.00
  Q 47.08 139.00 46.91 139.02
  Q 46.50 139.07 46.19 139.36
  L 43.71 141.74
  Q 43.51 141.93 43.23 141.94
  Q 43.07 141.94 42.92 141.96
  Q 42.52 142.00 42.24 142.28
  L 39.73 144.74
  Q 39.53 144.93 39.25 144.94
  Q 39.08 144.94 38.92 144.96
  Q 38.52 145.00 38.24 145.28
  L 35.67 147.80
  Q 35.52 147.94 35.32 147.94
  Q 35.17 147.94 35.04 147.95
  Q 34.52 147.99 34.26 148.44
  Q 33.69 149.41 32.14 149.70" stroke="#462859"></path>
<path d="M 44.47 82.75
  Q 48.23 84.02 52.51 83.39
  A 1.33 1.32 -4.3 0 1 54.03 84.69
  L 54.08 92.27" stroke="#755f83"></path>
<path d="M 54.08 92.27
  Q 53.47 96.48 56.57 98.40
  C 58.43 99.54 60.82 98.73 62.45 99.33
  C 65.63 100.50 65.35 103.34 65.23 106.44
  Q 65.22 106.75 65.53 106.76
  L 69.52 106.80
  Q 69.88 106.80 69.88 106.44
  L 69.90 92.32" stroke="#6a5279"></path>
<path d="M 69.90 92.32
  L 69.78 86.32
  A 2.29 2.29 0.0 0 0 67.60 84.09
  Q 63.46 83.90 62.01 80.40" stroke="#755f83"></path>
<path d="M 62.01 80.40
  L 61.73 78.33
  Q 61.67 77.86 61.24 77.67
  Q 56.82 75.71 57.89 70.81" stroke="#7d698a"></path>
<path d="M 57.89 70.81
  C 60.07 66.36 65.40 65.96 67.82 70.28" stroke="#897795"></path>
<path d="M 67.82 70.28
  Q 69.50 75.42 64.79 77.67
  Q 64.33 77.88 64.34 78.39
  C 64.38 80.41 65.38 80.97 67.34 81.33
  Q 73.37 82.43 72.49 89.61" stroke="#7d698a"></path>
<path d="M 72.49 89.61
  L 72.48 106.25
  Q 72.48 106.72 72.94 106.75
  L 74.50 106.87
  A 0.44 0.44 0.0 0 0 74.98 106.43
  L 74.97 89.32" stroke="#6a5279"></path>
<path d="M 74.97 89.32
  L 74.98 70.69" stroke="#7d698a"></path>
<path d="M 74.98 70.69
  L 74.95 65.46
  A 0.87 0.87 0.0 0 0 74.47 64.68
  Q 69.93 62.39 71.45 57.38" stroke="#897795"></path>
<path d="M 71.45 57.38
  C 73.99 52.96 80.05 53.28 81.61 58.30" stroke="#94839f"></path>
<path d="M 81.61 58.30
  Q 82.32 62.88 78.18 64.69
  Q 77.70 64.90 77.70 65.42
  L 77.66 70.69" stroke="#897795"></path>
<path d="M 77.66 70.69
  L 77.74 100.56" stroke="#7d698a"></path>
<path d="M 77.74 100.56
  L 77.66 106.49
  A 0.32 0.32 0.0 0 0 77.99 106.81
  L 80.04 106.76
  Q 80.41 106.75 80.41 106.39
  L 80.40 99.18" stroke="#6a5279"></path>
<path d="M 80.40 99.18
  Q 80.32 93.18 80.45 87.13
  C 80.62 79.50 88.58 83.29 88.60 78.41
  A 0.80 0.79 -78.1 0 0 88.13 77.68
  Q 83.83 75.72 84.71 71.10" stroke="#7d698a"></path>
<path d="M 84.71 71.10
  C 87.83 63.86 97.74 67.56 94.50 75.50" stroke="#897795"></path>
<path d="M 94.50 75.50
  Q 93.28 76.83 91.63 77.63
  Q 91.19 77.85 91.15 78.34
  Q 90.71 83.75 85.23 84.10
  A 2.38 2.38 0.0 0 0 83.00 86.49
  L 83.05 106.50
  Q 83.05 106.83 83.38 106.82
  L 87.24 106.69
  Q 87.50 106.68 87.48 106.42
  C 87.17 100.50 87.63 95.42 90.66 90.58
  Q 91.18 89.75 95.50 85.04
  Q 99.11 81.10 101.10 76.03" stroke="#755f83"></path>
<path d="M 101.10 76.03
  Q 104.18 67.16 101.48 58.73" stroke="#897795"></path>
<path d="M 101.48 58.73
  Q 98.63 50.33 91.80 45.31" stroke="#94839f"></path>
<path d="M 98.61 40.78
  Q 99.12 40.84 99.27 41.05
  Q 99.76 41.71 100.36 41.13
  L 104.86 36.78" stroke="#755f83"></path>
<path d="M 104.86 36.78
  L 106.67 35.03" stroke="#94839f"></path>
<path d="M 79.05 59.54
  A 2.65 2.65 0.0 0 0 76.40 56.89
  A 2.65 2.65 0.0 0 0 73.75 59.54
  A 2.65 2.65 0.0 0 0 76.40 62.19
  A 2.65 2.65 0.0 0 0 79.05 59.54" stroke="#897795"></path>
<path d="M 118.2099 63.3005
  A 1.19 1.19 0.0 0 0 117.0178 62.1125
  L 108.4579 62.1275
  A 1.19 1.19 0.0 0 0 107.2699 63.3195
  L 107.2701 63.3995
  A 1.19 1.19 0.0 0 0 108.4622 64.5875
  L 117.0221 64.5725
  A 1.19 1.19 0.0 0 0 118.2101 63.3805
  L 118.2099 63.3005" stroke="#897795"></path>
<path d="M 65.63 72.49
  A 2.68 2.68 0.0 0 0 62.95 69.81
  A 2.68 2.68 0.0 0 0 60.27 72.49
  A 2.68 2.68 0.0 0 0 62.95 75.17
  A 2.68 2.68 0.0 0 0 65.63 72.49" stroke="#897795"></path>
<path d="M 92.58 72.49
  A 2.68 2.68 0.0 0 0 89.90 69.81
  A 2.68 2.68 0.0 0 0 87.22 72.49
  A 2.68 2.68 0.0 0 0 89.90 75.17
  A 2.68 2.68 0.0 0 0 92.58 72.49" stroke="#897795"></path>
<path d="M 104.86 36.78
  L 102.03 36.13" stroke="#c7becc"></path>
<path d="M 101.48 58.73
  C 95.19 58.91 87.68 59.54 81.61 58.30" stroke="#dbd6df"></path>
<path d="M 71.45 57.38
  Q 68.64 57.98 65.90 57.86
  C 61.08 57.65 56.42 57.69 51.62 57.39" stroke="#dbd6df"></path>
<path d="M 74.98 70.69
  Q 71.28 71.62 67.82 70.28" stroke="#c4bcca"></path>
<path d="M 57.89 70.81
  L 49.24 70.71" stroke="#c4bcca"></path>
<path d="M 101.10 76.03
  Q 97.86 74.73 94.50 75.50" stroke="#bcb2c3"></path>
<path d="M 84.71 71.10
  Q 81.51 71.74 77.66 70.69" stroke="#c4bcca"></path>
<path d="M 67.71 120.58
  L 84.88 120.56
  A 2.31 2.31 0.0 0 0 86.96 119.25
  L 87.41 118.33
  A 0.81 0.81 0.0 0 0 86.70 117.17
  L 84.01 117.11
  Q 83.03 117.09 83.05 116.11
  L 83.06 115.60
  A 1.00 1.00 0.0 0 1 84.04 114.62
  L 87.02 114.54
  A 0.47 0.47 0.0 0 0 87.48 114.08
  L 87.51 109.48" stroke="#6d557c"></path>
<path d="M 77.5326 122.6920
  A 0.73 0.73 0.0 0 0 76.8039 121.9608
  L 75.9239 121.9592
  A 0.73 0.73 0.0 0 0 75.1926 122.6880
  L 75.1874 125.6480
  A 0.73 0.73 0.0 0 0 75.9161 126.3792
  L 76.7961 126.3808
  A 0.73 0.73 0.0 0 0 77.5274 125.6520
  L 77.5326 122.6920" stroke="#6d557c"></path>
<path d="M 74.97 89.32
  Q 73.73 89.05 72.49 89.61" stroke="#a596ad"></path>
<path d="M 62.01 80.40
  Q 58.96 81.16 55.73 80.88
  Q 50.91 80.45 45.89 79.81" stroke="#b0a4b7"></path>
<path d="M 80.40 99.18
  L 80.14 99.71
  Q 79.93 100.14 79.46 100.11
  Q 78.51 100.05 77.74 100.56" stroke="#a596ad"></path>
<path d="M 69.90 92.32
  Q 61.97 93.65 54.08 92.27" stroke="#9c8da6"></path>
</g>
<path d="M 33.64 0.00
  L 100.93 0.00
  Q 100.69 1.90 98.84 2.18
  Q 98.39 2.24 98.07 2.56
  L 95.67 4.97
  Q 95.52 5.12 95.30 5.12
  Q 95.10 5.11 94.91 5.14
  Q 94.41 5.23 94.05 5.59
  L 91.67 7.96
  Q 91.52 8.11 91.30 8.11
  Q 91.12 8.10 90.94 8.13
  Q 90.42 8.21 90.06 8.58
  L 87.67 10.96
  Q 87.52 11.11 87.30 11.11
  Q 87.12 11.10 86.94 11.13
  Q 86.42 11.21 86.06 11.58
  L 83.67 13.96
  Q 83.52 14.11 83.30 14.11
  Q 83.12 14.10 82.94 14.13
  Q 82.42 14.21 82.06 14.58
  L 79.67 16.96
  Q 79.52 17.11 79.30 17.11
  Q 79.17 17.10 79.04 17.12
  Q 78.53 17.17 78.16 17.52
  L 75.66 19.87
  Q 75.41 20.10 75.06 20.11
  L 74.80 20.11
  Q 74.33 20.11 74.07 20.50
  Q 73.22 21.75 71.73 22.23
  Q 71.26 22.37 70.91 22.72
  L 68.67 24.97
  Q 68.51 25.12 68.30 25.12
  Q 68.10 25.11 67.90 25.14
  Q 67.40 25.23 67.04 25.59
  L 64.67 27.97
  Q 64.52 28.12 64.30 28.12
  Q 64.03 28.11 63.76 28.17
  Q 63.38 28.27 63.10 28.55
  L 61.71 29.94
  A 0.63 0.62 23.0 0 1 61.28 30.11
  L 60.50 30.11
  Q 60.11 30.11 60.12 30.51
  Q 60.14 30.86 59.90 30.99
  Q 59.25 31.36 59.18 31.42
  L 56.69 33.96
  Q 56.53 34.12 56.30 34.12
  Q 56.11 34.11 55.92 34.14
  Q 55.41 34.22 55.04 34.59
  L 53.54 36.12
  Q 53.22 36.45 52.77 36.34
  Q 51.83 36.09 51.29 36.88
  L 46.95 32.53
  A 0.96 0.96 0.0 0 0 45.62 32.50
  L 45.37 32.73
  Q 44.42 33.61 45.34 34.52
  L 51.21 40.27
  Q 48.53 41.39 46.70 43.68
  Q 46.53 43.90 46.25 43.90
  L 45.92 43.90
  Q 45.50 43.90 45.20 44.20
  L 42.70 46.71
  Q 42.51 46.90 42.25 46.90
  L 41.92 46.90
  Q 41.50 46.90 41.20 47.20
  L 38.70 49.71
  Q 38.51 49.90 38.25 49.90
  L 37.92 49.90
  Q 37.50 49.90 37.20 50.20
  L 34.70 52.71
  Q 34.51 52.90 34.25 52.90
  L 33.92 52.90
  Q 33.50 52.90 33.20 53.20
  L 30.70 55.71
  Q 30.51 55.90 30.25 55.90
  L 29.92 55.90
  Q 29.50 55.90 29.20 56.20
  L 26.70 58.71
  Q 26.51 58.90 26.25 58.90
  L 25.92 58.90
  Q 25.50 58.90 25.20 59.20
  L 22.70 61.71
  Q 22.51 61.90 22.25 61.90
  L 21.91 61.90
  Q 21.48 61.90 21.18 62.20
  L 19.72 63.70
  Q 19.53 63.90 19.27 63.90
  L 18.92 63.90
  Q 18.50 63.90 18.20 64.20
  L 15.70 66.71
  Q 15.51 66.90 15.25 66.90
  L 14.92 66.90
  Q 14.50 66.90 14.20 67.20
  L 11.70 69.71
  Q 11.51 69.90 11.25 69.90
  L 10.92 69.90
  Q 10.50 69.90 10.20 70.20
  L 7.70 72.71
  Q 7.51 72.90 7.25 72.90
  L 6.92 72.90
  Q 6.50 72.90 6.20 73.20
  L 3.70 75.71
  Q 3.51 75.90 3.25 75.90
  L 2.76 75.90
  A 0.82 0.79 -67.6 0 0 2.18 76.15
  Q 0.62 77.79 0.73 80.09
  Q 0.77 81.03 0.40 80.16
  L 0.00 79.23
  L 0.00 33.28
  C 1.84 15.07 15.38 1.55 33.64 0.00
  Z" fill="#301341"></path>
<path d="M 100.93 0.00
  L 116.48 0.00
  Q 132.21 1.49 142.12 13.43
  Q 141.46 14.09 141.04 13.79
  Q 140.82 13.63 141.05 13.48
  Q 141.24 13.35 141.03 13.06
  A 0.22 0.21 61.2 0 0 140.77 12.98
  Q 140.15 13.26 139.90 12.52
  Q 139.73 12.01 139.32 12.36
  Q 138.01 13.47 136.90 14.79
  Q 136.71 15.02 136.48 15.08
  Q 136.27 15.13 136.05 15.14
  Q 135.50 15.16 135.11 15.55
  L 133.66 16.96
  Q 133.50 17.12 133.27 17.12
  Q 133.08 17.12 132.89 17.15
  Q 132.40 17.24 132.04 17.60
  L 129.67 19.97
  Q 129.52 20.12 129.30 20.12
  Q 129.09 20.12 128.89 20.15
  Q 128.40 20.24 128.04 20.60
  L 125.67 22.97
  Q 125.52 23.12 125.30 23.12
  Q 125.09 23.12 124.89 23.15
  Q 124.40 23.24 124.04 23.60
  L 121.67 25.97
  Q 121.52 26.12 121.30 26.12
  Q 121.09 26.12 120.89 26.15
  Q 120.40 26.24 120.04 26.60
  L 117.67 28.97
  Q 117.52 29.12 117.30 29.12
  Q 117.11 29.12 116.92 29.15
  Q 116.42 29.23 116.07 29.58
  L 113.74 31.88
  Q 113.50 32.12 113.15 32.12
  L 112.77 32.12
  Q 112.37 32.12 112.12 32.44
  Q 110.23 34.92 107.30 35.94
  Q 106.92 36.07 106.89 35.68
  Q 106.86 35.27 106.67 35.03
  Q 108.24 33.81 107.15 32.65
  A 1.17 1.16 45.5 0 0 105.48 32.63
  L 102.03 36.13
  Q 100.27 37.60 98.58 39.74
  Q 98.36 40.02 98.38 40.23
  Q 98.40 40.49 98.61 40.78
  Q 98.70 41.46 98.51 42.00
  Q 98.43 42.21 98.24 42.11
  Q 98.12 42.06 98.00 41.98
  Q 97.77 41.85 97.58 42.04
  L 94.06 45.53
  Q 93.74 45.85 93.47 45.49
  Q 93.02 44.88 91.80 45.31
  C 76.89 35.82 58.20 40.56 51.62 57.39
  C 49.85 61.71 49.97 66.85 49.24 70.71
  L 45.89 79.81
  L 44.47 82.75
  Q 42.44 83.74 39.91 86.84
  Q 39.68 87.11 39.32 87.12
  Q 39.16 87.12 39.00 87.13
  Q 38.49 87.18 38.12 87.54
  L 35.76 89.82
  Q 35.46 90.12 35.04 90.12
  L 34.77 90.12
  Q 34.39 90.12 34.21 90.45
  Q 33.80 91.20 33.11 91.14
  Q 32.54 91.10 32.13 91.50
  L 27.67 95.96
  Q 27.51 96.12 27.28 96.12
  Q 27.08 96.12 26.89 96.15
  Q 26.39 96.24 26.04 96.60
  L 23.67 98.97
  Q 23.52 99.12 23.30 99.12
  Q 23.02 99.11 22.75 99.18
  Q 22.32 99.29 22.01 99.61
  L 20.70 100.96
  Q 20.53 101.13 20.30 101.12
  Q 20.09 101.12 19.89 101.15
  Q 19.39 101.24 19.04 101.60
  L 16.67 103.97
  Q 16.52 104.12 16.30 104.12
  Q 16.09 104.12 15.89 104.15
  Q 15.40 104.24 15.04 104.60
  L 12.67 106.97
  Q 12.52 107.12 12.30 107.12
  Q 12.09 107.12 11.89 107.15
  Q 11.40 107.24 11.04 107.60
  L 8.67 109.97
  Q 8.52 110.12 8.30 110.12
  Q 8.09 110.12 7.89 110.15
  Q 7.40 110.24 7.04 110.60
  L 4.67 112.97
  Q 4.52 113.12 4.30 113.12
  Q 3.99 113.11 3.71 113.17
  Q 3.33 113.25 3.06 113.53
  L 0.83 115.85
  A 0.72 0.71 -34.5 0 0 0.68 116.62
  Q 0.98 117.34 0.86 118.04
  Q 0.74 118.75 0.36 118.13
  L 0.15 117.78
  Q 0.35 117.06 0.00 116.63
  L 0.00 79.23
  L 0.40 80.16
  Q 0.77 81.03 0.73 80.09
  Q 0.62 77.79 2.18 76.15
  A 0.82 0.79 -67.6 0 1 2.76 75.90
  L 3.25 75.90
  Q 3.51 75.90 3.70 75.71
  L 6.20 73.20
  Q 6.50 72.90 6.92 72.90
  L 7.25 72.90
  Q 7.51 72.90 7.70 72.71
  L 10.20 70.20
  Q 10.50 69.90 10.92 69.90
  L 11.25 69.90
  Q 11.51 69.90 11.70 69.71
  L 14.20 67.20
  Q 14.50 66.90 14.92 66.90
  L 15.25 66.90
  Q 15.51 66.90 15.70 66.71
  L 18.20 64.20
  Q 18.50 63.90 18.92 63.90
  L 19.27 63.90
  Q 19.53 63.90 19.72 63.70
  L 21.18 62.20
  Q 21.48 61.90 21.91 61.90
  L 22.25 61.90
  Q 22.51 61.90 22.70 61.71
  L 25.20 59.20
  Q 25.50 58.90 25.92 58.90
  L 26.25 58.90
  Q 26.51 58.90 26.70 58.71
  L 29.20 56.20
  Q 29.50 55.90 29.92 55.90
  L 30.25 55.90
  Q 30.51 55.90 30.70 55.71
  L 33.20 53.20
  Q 33.50 52.90 33.92 52.90
  L 34.25 52.90
  Q 34.51 52.90 34.70 52.71
  L 37.20 50.20
  Q 37.50 49.90 37.92 49.90
  L 38.25 49.90
  Q 38.51 49.90 38.70 49.71
  L 41.20 47.20
  Q 41.50 46.90 41.92 46.90
  L 42.25 46.90
  Q 42.51 46.90 42.70 46.71
  L 45.20 44.20
  Q 45.50 43.90 45.92 43.90
  L 46.25 43.90
  Q 46.53 43.90 46.70 43.68
  Q 48.53 41.39 51.21 40.27
  Q 51.75 40.30 52.44 41.25
  A 0.66 0.65 -40.7 0 0 53.43 41.32
  L 53.80 40.95
  A 0.96 0.95 -43.9 0 0 53.83 39.63
  L 51.29 36.88
  Q 51.83 36.09 52.77 36.34
  Q 53.22 36.45 53.54 36.12
  L 55.04 34.59
  Q 55.41 34.22 55.92 34.14
  Q 56.11 34.11 56.30 34.12
  Q 56.53 34.12 56.69 33.96
  L 59.18 31.42
  Q 59.25 31.36 59.90 30.99
  Q 60.14 30.86 60.12 30.51
  Q 60.11 30.11 60.50 30.11
  L 61.28 30.11
  A 0.63 0.62 23.0 0 0 61.71 29.94
  L 63.10 28.55
  Q 63.38 28.27 63.76 28.17
  Q 64.03 28.11 64.30 28.12
  Q 64.52 28.12 64.67 27.97
  L 67.04 25.59
  Q 67.40 25.23 67.90 25.14
  Q 68.10 25.11 68.30 25.12
  Q 68.51 25.12 68.67 24.97
  L 70.91 22.72
  Q 71.26 22.37 71.73 22.23
  Q 73.22 21.75 74.07 20.50
  Q 74.33 20.11 74.80 20.11
  L 75.06 20.11
  Q 75.41 20.10 75.66 19.87
  L 78.16 17.52
  Q 78.53 17.17 79.04 17.12
  Q 79.17 17.10 79.30 17.11
  Q 79.52 17.11 79.67 16.96
  L 82.06 14.58
  Q 82.42 14.21 82.94 14.13
  Q 83.12 14.10 83.30 14.11
  Q 83.52 14.11 83.67 13.96
  L 86.06 11.58
  Q 86.42 11.21 86.94 11.13
  Q 87.12 11.10 87.30 11.11
  Q 87.52 11.11 87.67 10.96
  L 90.06 8.58
  Q 90.42 8.21 90.94 8.13
  Q 91.12 8.10 91.30 8.11
  Q 91.52 8.11 91.67 7.96
  L 94.05 5.59
  Q 94.41 5.23 94.91 5.14
  Q 95.10 5.11 95.30 5.12
  Q 95.52 5.12 95.67 4.97
  L 98.07 2.56
  Q 98.39 2.24 98.84 2.18
  Q 100.69 1.90 100.93 0.00
  Z
  M 76.37 28.20
  Q 75.94 30.07 76.44 32.07
  A 0.71 0.71 0.0 0 0 77.03 32.61
  Q 78.26 32.82 78.58 31.76
  Q 79.15 29.90 78.59 25.22
  L 78.61 22.66
  A 0.95 0.94 88.3 0 0 77.61 21.71
  L 77.27 21.74
  Q 76.05 21.81 76.11 23.03
  L 76.37 28.20
  Z
  M 45.4099 63.3004
  A 1.18 1.18 0.0 0 0 44.2279 62.1225
  L 35.5879 62.1375
  A 1.18 1.18 0.0 0 0 34.4099 63.3196
  L 34.4101 63.3996
  A 1.18 1.18 0.0 0 0 35.5921 64.5775
  L 44.2321 64.5625
  A 1.18 1.18 0.0 0 0 45.4101 63.3804
  L 45.4099 63.3004
  Z" fill="#371a49"></path>
<path d="M 142.12 13.43
  Q 149.00 22.25 150.00 33.65
  L 150.00 64.63
  L 149.69 63.81
  Q 149.38 62.98 149.17 63.79
  Q 149.02 64.40 148.37 63.93
  A 0.75 0.74 -50.6 0 0 147.39 64.03
  L 145.69 65.86
  Q 145.57 66.00 145.38 66.02
  L 144.91 66.06
  Q 144.49 66.09 144.18 66.39
  L 141.67 68.81
  Q 141.45 69.02 141.15 69.04
  L 140.85 69.06
  Q 140.50 69.08 140.25 69.32
  L 137.66 71.83
  Q 137.48 72.00 137.23 72.00
  Q 137.05 72.00 136.88 72.02
  Q 136.45 72.08 136.15 72.38
  L 133.68 74.82
  Q 133.50 75.00 133.25 75.00
  Q 133.06 75.00 132.88 75.02
  Q 132.45 75.08 132.15 75.38
  L 129.68 77.82
  Q 129.50 78.00 129.25 78.00
  Q 129.06 78.00 128.88 78.02
  Q 128.45 78.08 128.15 78.38
  L 125.68 80.82
  Q 125.50 81.00 125.25 81.00
  Q 125.06 81.00 124.88 81.02
  Q 124.45 81.08 124.15 81.38
  L 121.68 83.82
  Q 121.50 84.00 121.24 84.00
  Q 121.08 84.00 120.91 84.02
  Q 120.50 84.07 120.19 84.36
  L 117.71 86.74
  Q 117.51 86.93 117.23 86.94
  Q 117.07 86.94 116.92 86.96
  Q 116.52 87.00 116.24 87.28
  L 113.73 89.74
  Q 113.53 89.93 113.25 89.94
  Q 113.08 89.94 112.92 89.96
  Q 112.52 90.00 112.24 90.28
  L 109.68 92.78
  Q 109.52 92.94 109.30 92.94
  Q 109.15 92.94 109.00 92.95
  Q 108.48 93.00 108.13 93.37
  L 106.66 94.87
  Q 106.53 95.00 106.35 95.02
  L 106.03 95.05
  Q 105.49 95.09 105.10 95.47
  L 102.67 97.81
  Q 102.45 98.02 102.14 98.04
  L 101.85 98.06
  Q 101.50 98.08 101.25 98.32
  L 98.66 100.83
  Q 98.48 101.00 98.23 101.00
  Q 98.05 101.00 97.88 101.02
  Q 97.45 101.08 97.15 101.38
  L 94.68 103.82
  Q 94.50 104.00 94.25 104.00
  Q 94.06 104.00 93.88 104.02
  Q 93.45 104.08 93.15 104.38
  L 90.71 106.79
  Q 90.50 107.00 90.20 107.00
  L 89.92 107.00
  Q 89.47 107.00 89.13 107.31
  Q 88.13 108.25 87.51 109.48
  L 65.50 109.49
  A 0.27 0.27 0.0 0 0 65.23 109.76
  L 65.25 114.29
  Q 65.25 114.58 65.54 114.58
  L 79.99 114.59
  A 1.03 1.03 0.0 0 1 81.02 115.66
  L 81.01 115.93
  Q 80.96 117.14 79.76 117.14
  L 65.53 117.17
  A 0.39 0.38 86.7 0 0 65.15 117.60
  Q 65.44 120.03 67.71 120.58
  Q 68.46 121.07 69.56 121.26
  Q 70.44 121.41 69.69 121.91
  Q 68.54 122.68 67.77 123.83
  Q 67.66 123.99 67.47 124.01
  L 67.03 124.05
  Q 66.49 124.09 66.10 124.47
  L 63.67 126.81
  Q 63.45 127.02 63.14 127.04
  L 62.85 127.06
  Q 62.50 127.08 62.25 127.32
  L 59.66 129.83
  Q 59.48 130.00 59.23 130.00
  Q 59.05 130.00 58.88 130.02
  Q 58.45 130.08 58.15 130.38
  L 55.68 132.82
  Q 55.50 133.00 55.25 133.00
  Q 55.06 133.00 54.88 133.02
  Q 54.45 133.08 54.15 133.38
  L 51.68 135.82
  Q 51.50 136.00 51.25 136.00
  Q 51.06 136.00 50.88 136.02
  Q 50.45 136.08 50.15 136.38
  L 47.68 138.82
  Q 47.50 139.00 47.24 139.00
  Q 47.08 139.00 46.91 139.02
  Q 46.50 139.07 46.19 139.36
  L 43.71 141.74
  Q 43.51 141.93 43.23 141.94
  Q 43.07 141.94 42.92 141.96
  Q 42.52 142.00 42.24 142.28
  L 39.73 144.74
  Q 39.53 144.93 39.25 144.94
  Q 39.08 144.94 38.92 144.96
  Q 38.52 145.00 38.24 145.28
  L 35.67 147.80
  Q 35.52 147.94 35.32 147.94
  Q 35.17 147.94 35.04 147.95
  Q 34.52 147.99 34.26 148.44
  Q 33.69 149.41 32.14 149.70
  C 14.75 148.45 2.55 134.26 0.15 117.78
  L 0.36 118.13
  Q 0.74 118.75 0.86 118.04
  Q 0.98 117.34 0.68 116.62
  A 0.72 0.71 -34.5 0 1 0.83 115.85
  L 3.06 113.53
  Q 3.33 113.25 3.71 113.17
  Q 3.99 113.11 4.30 113.12
  Q 4.52 113.12 4.67 112.97
  L 7.04 110.60
  Q 7.40 110.24 7.89 110.15
  Q 8.09 110.12 8.30 110.12
  Q 8.52 110.12 8.67 109.97
  L 11.04 107.60
  Q 11.40 107.24 11.89 107.15
  Q 12.09 107.12 12.30 107.12
  Q 12.52 107.12 12.67 106.97
  L 15.04 104.60
  Q 15.40 104.24 15.89 104.15
  Q 16.09 104.12 16.30 104.12
  Q 16.52 104.12 16.67 103.97
  L 19.04 101.60
  Q 19.39 101.24 19.89 101.15
  Q 20.09 101.12 20.30 101.12
  Q 20.53 101.13 20.70 100.96
  L 22.01 99.61
  Q 22.32 99.29 22.75 99.18
  Q 23.02 99.11 23.30 99.12
  Q 23.52 99.12 23.67 98.97
  L 26.04 96.60
  Q 26.39 96.24 26.89 96.15
  Q 27.08 96.12 27.28 96.12
  Q 27.51 96.12 27.67 95.96
  L 32.13 91.50
  Q 32.54 91.10 33.11 91.14
  Q 33.80 91.20 34.21 90.45
  Q 34.39 90.12 34.77 90.12
  L 35.04 90.12
  Q 35.46 90.12 35.76 89.82
  L 38.12 87.54
  Q 38.49 87.18 39.00 87.13
  Q 39.16 87.12 39.32 87.12
  Q 39.68 87.11 39.91 86.84
  Q 42.44 83.74 44.47 82.75
  Q 48.23 84.02 52.51 83.39
  A 1.33 1.32 -4.3 0 1 54.03 84.69
  L 54.08 92.27
  Q 53.47 96.48 56.57 98.40
  C 58.43 99.54 60.82 98.73 62.45 99.33
  C 65.63 100.50 65.35 103.34 65.23 106.44
  Q 65.22 106.75 65.53 106.76
  L 69.52 106.80
  Q 69.88 106.80 69.88 106.44
  L 69.90 92.32
  L 69.78 86.32
  A 2.29 2.29 0.0 0 0 67.60 84.09
  Q 63.46 83.90 62.01 80.40
  L 61.73 78.33
  Q 61.67 77.86 61.24 77.67
  Q 56.82 75.71 57.89 70.81
  C 60.07 66.36 65.40 65.96 67.82 70.28
  Q 69.50 75.42 64.79 77.67
  Q 64.33 77.88 64.34 78.39
  C 64.38 80.41 65.38 80.97 67.34 81.33
  Q 73.37 82.43 72.49 89.61
  L 72.48 106.25
  Q 72.48 106.72 72.94 106.75
  L 74.50 106.87
  A 0.44 0.44 0.0 0 0 74.98 106.43
  L 74.97 89.32
  L 74.98 70.69
  L 74.95 65.46
  A 0.87 0.87 0.0 0 0 74.47 64.68
  Q 69.93 62.39 71.45 57.38
  C 73.99 52.96 80.05 53.28 81.61 58.30
  Q 82.32 62.88 78.18 64.69
  Q 77.70 64.90 77.70 65.42
  L 77.66 70.69
  L 77.74 100.56
  L 77.66 106.49
  A 0.32 0.32 0.0 0 0 77.99 106.81
  L 80.04 106.76
  Q 80.41 106.75 80.41 106.39
  L 80.40 99.18
  Q 80.32 93.18 80.45 87.13
  C 80.62 79.50 88.58 83.29 88.60 78.41
  A 0.80 0.79 -78.1 0 0 88.13 77.68
  Q 83.83 75.72 84.71 71.10
  C 87.83 63.86 97.74 67.56 94.50 75.50
  Q 93.28 76.83 91.63 77.63
  Q 91.19 77.85 91.15 78.34
  Q 90.71 83.75 85.23 84.10
  A 2.38 2.38 0.0 0 0 83.00 86.49
  L 83.05 106.50
  Q 83.05 106.83 83.38 106.82
  L 87.24 106.69
  Q 87.50 106.68 87.48 106.42
  C 87.17 100.50 87.63 95.42 90.66 90.58
  Q 91.18 89.75 95.50 85.04
  Q 99.11 81.10 101.10 76.03
  Q 104.18 67.16 101.48 58.73
  Q 98.63 50.33 91.80 45.31
  Q 93.02 44.88 93.47 45.49
  Q 93.74 45.85 94.06 45.53
  L 97.58 42.04
  Q 97.77 41.85 98.00 41.98
  Q 98.12 42.06 98.24 42.11
  Q 98.43 42.21 98.51 42.00
  Q 98.70 41.46 98.61 40.78
  Q 99.12 40.84 99.27 41.05
  Q 99.76 41.71 100.36 41.13
  L 104.86 36.78
  L 106.67 35.03
  Q 106.86 35.27 106.89 35.68
  Q 106.92 36.07 107.30 35.94
  Q 110.23 34.92 112.12 32.44
  Q 112.37 32.12 112.77 32.12
  L 113.15 32.12
  Q 113.50 32.12 113.74 31.88
  L 116.07 29.58
  Q 116.42 29.23 116.92 29.15
  Q 117.11 29.12 117.30 29.12
  Q 117.52 29.12 117.67 28.97
  L 120.04 26.60
  Q 120.40 26.24 120.89 26.15
  Q 121.09 26.12 121.30 26.12
  Q 121.52 26.12 121.67 25.97
  L 124.04 23.60
  Q 124.40 23.24 124.89 23.15
  Q 125.09 23.12 125.30 23.12
  Q 125.52 23.12 125.67 22.97
  L 128.04 20.60
  Q 128.40 20.24 128.89 20.15
  Q 129.09 20.12 129.30 20.12
  Q 129.52 20.12 129.67 19.97
  L 132.04 17.60
  Q 132.40 17.24 132.89 17.15
  Q 133.08 17.12 133.27 17.12
  Q 133.50 17.12 133.66 16.96
  L 135.11 15.55
  Q 135.50 15.16 136.05 15.14
  Q 136.27 15.13 136.48 15.08
  Q 136.71 15.02 136.90 14.79
  Q 138.01 13.47 139.32 12.36
  Q 139.73 12.01 139.90 12.52
  Q 140.15 13.26 140.77 12.98
  A 0.22 0.21 61.2 0 1 141.03 13.06
  Q 141.24 13.35 141.05 13.48
  Q 140.82 13.63 141.04 13.79
  Q 141.46 14.09 142.12 13.43
  Z
  M 79.05 59.54
  A 2.65 2.65 0.0 0 0 76.40 56.89
  A 2.65 2.65 0.0 0 0 73.75 59.54
  A 2.65 2.65 0.0 0 0 76.40 62.19
  A 2.65 2.65 0.0 0 0 79.05 59.54
  Z
  M 118.2099 63.3005
  A 1.19 1.19 0.0 0 0 117.0178 62.1125
  L 108.4579 62.1275
  A 1.19 1.19 0.0 0 0 107.2699 63.3195
  L 107.2701 63.3995
  A 1.19 1.19 0.0 0 0 108.4622 64.5875
  L 117.0221 64.5725
  A 1.19 1.19 0.0 0 0 118.2101 63.3805
  L 118.2099 63.3005
  Z
  M 65.63 72.49
  A 2.68 2.68 0.0 0 0 62.95 69.81
  A 2.68 2.68 0.0 0 0 60.27 72.49
  A 2.68 2.68 0.0 0 0 62.95 75.17
  A 2.68 2.68 0.0 0 0 65.63 72.49
  Z
  M 92.58 72.49
  A 2.68 2.68 0.0 0 0 89.90 69.81
  A 2.68 2.68 0.0 0 0 87.22 72.49
  A 2.68 2.68 0.0 0 0 89.90 75.17
  A 2.68 2.68 0.0 0 0 92.58 72.49
  Z" fill="#422455"></path>
<path d="M 78.59 25.22
  Q 77.37 28.63 76.37 28.20
  L 76.11 23.03
  Q 76.05 21.81 77.27 21.74
  L 77.61 21.71
  A 0.95 0.94 88.3 0 1 78.61 22.66
  L 78.59 25.22
  Z" fill="#e6e2e8"></path>
<path d="M 78.59 25.22
  Q 79.15 29.90 78.58 31.76
  Q 78.26 32.82 77.03 32.61
  A 0.71 0.71 0.0 0 1 76.44 32.07
  Q 75.94 30.07 76.37 28.20
  Q 77.37 28.63 78.59 25.22
  Z" fill="#917f9c"></path>
<path d="M 51.29 36.88
  L 53.83 39.63
  A 0.96 0.95 -43.9 0 1 53.80 40.95
  L 53.43 41.32
  A 0.66 0.65 -40.7 0 1 52.44 41.25
  Q 51.75 40.30 51.21 40.27
  L 45.34 34.52
  Q 44.42 33.61 45.37 32.73
  L 45.62 32.50
  A 0.96 0.96 0.0 0 1 46.95 32.53
  L 51.29 36.88
  Z" fill="#d0cad5"></path>
<path d="M 106.67 35.03
  L 104.86 36.78
  L 102.03 36.13
  L 105.48 32.63
  A 1.17 1.16 45.5 0 1 107.15 32.65
  Q 108.24 33.81 106.67 35.03
  Z" fill="#e6e2e8"></path>
<path d="M 102.03 36.13
  L 104.86 36.78
  L 100.36 41.13
  Q 99.76 41.71 99.27 41.05
  Q 99.12 40.84 98.61 40.78
  Q 98.40 40.49 98.38 40.23
  Q 98.36 40.02 98.58 39.74
  Q 100.27 37.60 102.03 36.13
  Z" fill="#a79ab0"></path>
<path d="M 91.80 45.31
  Q 98.63 50.33 101.48 58.73
  C 95.19 58.91 87.68 59.54 81.61 58.30
  C 80.05 53.28 73.99 52.96 71.45 57.38
  Q 68.64 57.98 65.90 57.86
  C 61.08 57.65 56.42 57.69 51.62 57.39
  C 58.20 40.56 76.89 35.82 91.80 45.31
  Z" fill="#e6e2e8"></path>
<circle r="2.65" cy="59.54" cx="76.40" fill="#d0cad5"></circle>
<path d="M 51.62 57.39
  C 56.42 57.69 61.08 57.65 65.90 57.86
  Q 68.64 57.98 71.45 57.38
  Q 69.93 62.39 74.47 64.68
  A 0.87 0.87 0.0 0 1 74.95 65.46
  L 74.98 70.69
  Q 71.28 71.62 67.82 70.28
  C 65.40 65.96 60.07 66.36 57.89 70.81
  L 49.24 70.71
  C 49.97 66.85 49.85 61.71 51.62 57.39
  Z" fill="#d0cad5"></path>
<path d="M 81.61 58.30
  C 87.68 59.54 95.19 58.91 101.48 58.73
  Q 104.18 67.16 101.10 76.03
  Q 97.86 74.73 94.50 75.50
  C 97.74 67.56 87.83 63.86 84.71 71.10
  Q 81.51 71.74 77.66 70.69
  L 77.70 65.42
  Q 77.70 64.90 78.18 64.69
  Q 82.32 62.88 81.61 58.30
  Z" fill="#d0cad5"></path>
<rect rx="1.18" height="2.44" width="11.00" transform="translate(39.91,63.35) rotate(-0.1)" y="-1.22" x="-5.50" fill="#d0cad5"></rect>
<rect rx="1.19" height="2.46" width="10.94" transform="translate(112.74,63.35) rotate(-0.1)" y="-1.23" x="-5.47" fill="#d0cad5"></rect>
<path d="M 150.00 64.63
  L 150.00 116.27
  C 147.83 135.31 135.48 147.78 116.37 150.00
  L 33.50 150.00
  Q 33.51 149.63 32.14 149.70
  Q 33.69 149.41 34.26 148.44
  Q 34.52 147.99 35.04 147.95
  Q 35.17 147.94 35.32 147.94
  Q 35.52 147.94 35.67 147.80
  L 38.24 145.28
  Q 38.52 145.00 38.92 144.96
  Q 39.08 144.94 39.25 144.94
  Q 39.53 144.93 39.73 144.74
  L 42.24 142.28
  Q 42.52 142.00 42.92 141.96
  Q 43.07 141.94 43.23 141.94
  Q 43.51 141.93 43.71 141.74
  L 46.19 139.36
  Q 46.50 139.07 46.91 139.02
  Q 47.08 139.00 47.24 139.00
  Q 47.50 139.00 47.68 138.82
  L 50.15 136.38
  Q 50.45 136.08 50.88 136.02
  Q 51.06 136.00 51.25 136.00
  Q 51.50 136.00 51.68 135.82
  L 54.15 133.38
  Q 54.45 133.08 54.88 133.02
  Q 55.06 133.00 55.25 133.00
  Q 55.50 133.00 55.68 132.82
  L 58.15 130.38
  Q 58.45 130.08 58.88 130.02
  Q 59.05 130.00 59.23 130.00
  Q 59.48 130.00 59.66 129.83
  L 62.25 127.32
  Q 62.50 127.08 62.85 127.06
  L 63.14 127.04
  Q 63.45 127.02 63.67 126.81
  L 66.10 124.47
  Q 66.49 124.09 67.03 124.05
  L 67.47 124.01
  Q 67.66 123.99 67.77 123.83
  Q 68.54 122.68 69.69 121.91
  Q 70.44 121.41 69.56 121.26
  Q 68.46 121.07 67.71 120.58
  L 84.88 120.56
  A 2.31 2.31 0.0 0 0 86.96 119.25
  L 87.41 118.33
  A 0.81 0.81 0.0 0 0 86.70 117.17
  L 84.01 117.11
  Q 83.03 117.09 83.05 116.11
  L 83.06 115.60
  A 1.00 1.00 0.0 0 1 84.04 114.62
  L 87.02 114.54
  A 0.47 0.47 0.0 0 0 87.48 114.08
  L 87.51 109.48
  Q 88.13 108.25 89.13 107.31
  Q 89.47 107.00 89.92 107.00
  L 90.20 107.00
  Q 90.50 107.00 90.71 106.79
  L 93.15 104.38
  Q 93.45 104.08 93.88 104.02
  Q 94.06 104.00 94.25 104.00
  Q 94.50 104.00 94.68 103.82
  L 97.15 101.38
  Q 97.45 101.08 97.88 101.02
  Q 98.05 101.00 98.23 101.00
  Q 98.48 101.00 98.66 100.83
  L 101.25 98.32
  Q 101.50 98.08 101.85 98.06
  L 102.14 98.04
  Q 102.45 98.02 102.67 97.81
  L 105.10 95.47
  Q 105.49 95.09 106.03 95.05
  L 106.35 95.02
  Q 106.53 95.00 106.66 94.87
  L 108.13 93.37
  Q 108.48 93.00 109.00 92.95
  Q 109.15 92.94 109.30 92.94
  Q 109.52 92.94 109.68 92.78
  L 112.24 90.28
  Q 112.52 90.00 112.92 89.96
  Q 113.08 89.94 113.25 89.94
  Q 113.53 89.93 113.73 89.74
  L 116.24 87.28
  Q 116.52 87.00 116.92 86.96
  Q 117.07 86.94 117.23 86.94
  Q 117.51 86.93 117.71 86.74
  L 120.19 84.36
  Q 120.50 84.07 120.91 84.02
  Q 121.08 84.00 121.24 84.00
  Q 121.50 84.00 121.68 83.82
  L 124.15 81.38
  Q 124.45 81.08 124.88 81.02
  Q 125.06 81.00 125.25 81.00
  Q 125.50 81.00 125.68 80.82
  L 128.15 78.38
  Q 128.45 78.08 128.88 78.02
  Q 129.06 78.00 129.25 78.00
  Q 129.50 78.00 129.68 77.82
  L 132.15 75.38
  Q 132.45 75.08 132.88 75.02
  Q 133.06 75.00 133.25 75.00
  Q 133.50 75.00 133.68 74.82
  L 136.15 72.38
  Q 136.45 72.08 136.88 72.02
  Q 137.05 72.00 137.23 72.00
  Q 137.48 72.00 137.66 71.83
  L 140.25 69.32
  Q 140.50 69.08 140.85 69.06
  L 141.15 69.04
  Q 141.45 69.02 141.67 68.81
  L 144.18 66.39
  Q 144.49 66.09 144.91 66.06
  L 145.38 66.02
  Q 145.57 66.00 145.69 65.86
  L 147.39 64.03
  A 0.75 0.74 -50.6 0 1 148.37 63.93
  Q 149.02 64.40 149.17 63.79
  Q 149.38 62.98 149.69 63.81
  L 150.00 64.63
  Z
  M 77.5326 122.6920
  A 0.73 0.73 0.0 0 0 76.8039 121.9608
  L 75.9239 121.9592
  A 0.73 0.73 0.0 0 0 75.1926 122.6880
  L 75.1874 125.6480
  A 0.73 0.73 0.0 0 0 75.9161 126.3792
  L 76.7961 126.3808
  A 0.73 0.73 0.0 0 0 77.5274 125.6520
  L 77.5326 122.6920
  Z" fill="#492b5c"></path>
<circle r="2.68" cy="72.49" cx="62.95" fill="#d0cad5"></circle>
<circle r="2.68" cy="72.49" cx="89.90" fill="#d0cad5"></circle>
<path d="M 67.82 70.28
  Q 71.28 71.62 74.98 70.69
  L 74.97 89.32
  Q 73.73 89.05 72.49 89.61
  Q 73.37 82.43 67.34 81.33
  C 65.38 80.97 64.38 80.41 64.34 78.39
  Q 64.33 77.88 64.79 77.67
  Q 69.50 75.42 67.82 70.28
  Z" fill="#b8adbe"></path>
<path d="M 49.24 70.71
  L 57.89 70.81
  Q 56.82 75.71 61.24 77.67
  Q 61.67 77.86 61.73 78.33
  L 62.01 80.40
  Q 58.96 81.16 55.73 80.88
  Q 50.91 80.45 45.89 79.81
  L 49.24 70.71
  Z" fill="#b8adbe"></path>
<path d="M 77.66 70.69
  Q 81.51 71.74 84.71 71.10
  Q 83.83 75.72 88.13 77.68
  A 0.80 0.79 -78.1 0 1 88.60 78.41
  C 88.58 83.29 80.62 79.50 80.45 87.13
  Q 80.32 93.18 80.40 99.18
  L 80.14 99.71
  Q 79.93 100.14 79.46 100.11
  Q 78.51 100.05 77.74 100.56
  L 77.66 70.69
  Z" fill="#b8adbe"></path>
<path d="M 101.10 76.03
  Q 99.11 81.10 95.50 85.04
  Q 91.18 89.75 90.66 90.58
  C 87.63 95.42 87.17 100.50 87.48 106.42
  Q 87.50 106.68 87.24 106.69
  L 83.38 106.82
  Q 83.05 106.83 83.05 106.50
  L 83.00 86.49
  A 2.38 2.38 0.0 0 1 85.23 84.10
  Q 90.71 83.75 91.15 78.34
  Q 91.19 77.85 91.63 77.63
  Q 93.28 76.83 94.50 75.50
  Q 97.86 74.73 101.10 76.03
  Z" fill="#a79ab0"></path>
<path d="M 45.89 79.81
  Q 50.91 80.45 55.73 80.88
  Q 58.96 81.16 62.01 80.40
  Q 63.46 83.90 67.60 84.09
  A 2.29 2.29 0.0 0 1 69.78 86.32
  L 69.90 92.32
  Q 61.97 93.65 54.08 92.27
  L 54.03 84.69
  A 1.33 1.32 -4.3 0 0 52.51 83.39
  Q 48.23 84.02 44.47 82.75
  L 45.89 79.81
  Z" fill="#a79ab0"></path>
<path d="M 74.97 89.32
  L 74.98 106.43
  A 0.44 0.44 0.0 0 1 74.50 106.87
  L 72.94 106.75
  Q 72.48 106.72 72.48 106.25
  L 72.49 89.61
  Q 73.73 89.05 74.97 89.32
  Z" fill="#917f9c"></path>
<path d="M 54.08 92.27
  Q 61.97 93.65 69.90 92.32
  L 69.88 106.44
  Q 69.88 106.80 69.52 106.80
  L 65.53 106.76
  Q 65.22 106.75 65.23 106.44
  C 65.35 103.34 65.63 100.50 62.45 99.33
  C 60.82 98.73 58.43 99.54 56.57 98.40
  Q 53.47 96.48 54.08 92.27
  Z" fill="#917f9c"></path>
<path d="M 80.40 99.18
  L 80.41 106.39
  Q 80.41 106.75 80.04 106.76
  L 77.99 106.81
  A 0.32 0.32 0.0 0 1 77.66 106.49
  L 77.74 100.56
  Q 78.51 100.05 79.46 100.11
  Q 79.93 100.14 80.14 99.71
  L 80.40 99.18
  Z" fill="#917f9c"></path>
<path d="M 87.51 109.48
  L 87.48 114.08
  A 0.47 0.47 0.0 0 1 87.02 114.54
  L 84.04 114.62
  A 1.00 1.00 0.0 0 0 83.06 115.60
  L 83.05 116.11
  Q 83.03 117.09 84.01 117.11
  L 86.70 117.17
  A 0.81 0.81 0.0 0 1 87.41 118.33
  L 86.96 119.25
  A 2.31 2.31 0.0 0 1 84.88 120.56
  L 67.71 120.58
  Q 65.44 120.03 65.15 117.60
  A 0.39 0.38 86.7 0 1 65.53 117.17
  L 79.76 117.14
  Q 80.96 117.14 81.01 115.93
  L 81.02 115.66
  A 1.03 1.03 0.0 0 0 79.99 114.59
  L 65.54 114.58
  Q 65.25 114.58 65.25 114.29
  L 65.23 109.76
  A 0.27 0.27 0.0 0 1 65.50 109.49
  L 87.51 109.48
  Z" fill="#917f9c"></path>
<rect rx="0.73" height="4.42" width="2.34" transform="translate(76.36,124.17) rotate(0.1)" y="-2.21" x="-1.17" fill="#917f9c"></rect>
</svg>
