<svg viewBox="0.00 0.00 500.00 500.00" version="1.1" xmlns="http://www.w3.org/2000/svg">
<g stroke-linecap="butt" fill="none" stroke-width="2.00">
<path d="M 360.67 299.94
  C 342.65 340.42 302.70 368.07 257.99 371.12
  C 255.04 371.32 249.71 370.81 247.08 371.56
  C 238.08 374.15 233.93 383.85 239.02 391.96
  Q 242.81 397.99 248.76 398.17
  Q 273.64 398.92 298.71 390.16
  C 365.12 366.95 405.94 300.65 396.80 231.12
  C 387.24 158.45 326.08 103.38 252.54 102.32
  Q 247.83 102.26 245.55 103.09
  C 234.64 107.09 233.84 122.79 244.10 127.79
  Q 246.51 128.97 251.57 129.08
  Q 297.38 130.08 330.63 159.74
  C 370.09 194.94 382.16 251.67 360.67 299.94" stroke="#fddbe7"></path>
<path d="M 183.20 122.46
  C 179.92 131.08 185.86 140.29 194.94 140.68
  Q 197.84 140.81 203.32 138.62
  Q 211.59 135.32 220.10 132.74
  C 233.97 128.54 232.78 108.75 218.58 106.70
  Q 215.21 106.21 209.43 107.83
  Q 200.01 110.45 191.13 114.57
  C 187.04 116.47 184.73 118.44 183.20 122.46" stroke="#fddbe7"></path>
<path d="M 118.36 184.93
  C 116.78 196.73 131.01 204.34 140.16 196.78
  Q 142.09 195.19 145.42 189.49
  Q 153.85 175.08 165.73 163.36
  C 170.34 158.82 173.58 154.55 171.94 148.49
  C 169.85 140.71 161.87 135.96 154.33 138.78
  Q 151.26 139.93 146.83 144.25
  C 136.78 154.07 127.14 166.17 120.65 178.74
  Q 118.68 182.55 118.36 184.93" stroke="#fddbe7"></path>
<path d="M 251.35 184.21
  Q 230.58 171.87 208.40 178.40
  C 179.57 186.88 162.66 217.31 172.00 246.24
  Q 176.07 258.83 186.36 269.14
  Q 212.53 295.38 238.72 321.62
  Q 244.36 327.28 247.78 328.59
  Q 255.21 331.44 261.70 324.94
  Q 289.93 296.67 318.05 268.30
  Q 334.43 251.77 334.19 229.50
  C 333.73 187.66 287.99 162.68 252.22 184.21
  Q 251.79 184.47 251.35 184.21" stroke="#fddbe7"></path>
<path d="M 108.14 282.08
  C 117.43 290.63 132.69 283.00 130.77 270.50
  Q 128.03 252.68 129.98 235.75
  Q 130.96 227.24 130.38 224.73
  C 128.47 216.44 117.64 212.10 110.46 216.70
  Q 105.38 219.95 104.47 224.49
  Q 99.73 248.18 104.32 275.22
  Q 104.99 279.18 108.14 282.08" stroke="#fddbe7"></path>
<path d="M 140.61 304.12
  C 129.55 294.04 112.99 307.10 120.10 320.89
  Q 129.10 338.35 145.30 354.94
  Q 150.33 360.08 153.68 361.34
  C 161.49 364.25 168.58 361.06 171.40 353.39
  C 174.05 346.19 170.71 341.76 165.34 336.50
  Q 154.00 325.41 145.95 311.80
  Q 142.34 305.70 140.61 304.12" stroke="#fddbe7"></path>
<path d="M 206.50 363.31
  C 204.32 362.45 200.04 360.16 197.01 359.79
  C 190.46 359.00 183.40 364.02 182.42 370.83
  C 181.69 375.85 183.93 382.28 188.54 384.70
  Q 197.79 389.56 213.76 393.48
  C 230.78 397.66 236.66 372.00 219.96 367.68
  Q 213.09 365.91 206.50 363.31" stroke="#fddbe7"></path>
<path d="M 298.24 250.17
  C 307.18 241.16 310.19 229.05 304.23 217.61
  C 296.54 202.85 277.85 198.90 264.56 208.59
  C 258.82 212.76 254.95 216.90 247.45 214.20
  Q 245.49 213.49 241.46 210.20
  C 231.82 202.33 220.27 200.78 209.32 207.17
  C 197.80 213.89 192.64 229.88 199.15 242.16
  Q 201.03 245.70 206.83 251.55
  Q 229.13 274.04 251.48 296.34
  Q 251.88 296.74 252.28 296.34
  Q 275.27 273.35 298.24 250.17" stroke="#fddbe7"></path>
</g>
<path d="M 323.59 21.60
  C 408.44 49.08 470.92 118.37 488.61 205.61
  Q 491.74 221.03 491.98 228.00
  C 492.50 243.08 493.67 256.14 492.52 273.01
  Q 491.79 283.76 490.23 292.86
  C 472.14 398.40 389.89 479.52 283.43 494.57
  C 273.38 495.99 263.23 496.21 253.13 496.66
  C 244.71 497.02 236.81 496.56 228.60 496.03
  C 225.45 495.82 221.64 495.22 217.76 494.80
  Q 214.21 494.42 200.54 491.58
  Q 140.60 479.13 93.79 439.90
  C 45.63 399.53 15.38 342.34 8.04 279.99
  C 6.21 264.45 7.47 248.22 8.00 232.51
  Q 8.08 230.04 8.58 225.53
  C 8.93 222.41 8.91 219.11 9.40 216.18
  C 26.51 113.37 103.66 33.27 206.76 14.02
  C 219.07 11.72 232.68 10.68 247.81 10.25
  C 255.78 10.02 263.93 10.64 272.03 11.01
  C 274.66 11.14 277.55 11.85 280.40 11.98
  Q 282.25 12.06 284.05 12.52
  Q 285.86 12.98 287.71 13.25
  Q 306.01 15.91 323.59 21.60
  Z
  M 360.67 299.94
  C 342.65 340.42 302.70 368.07 257.99 371.12
  C 255.04 371.32 249.71 370.81 247.08 371.56
  C 238.08 374.15 233.93 383.85 239.02 391.96
  Q 242.81 397.99 248.76 398.17
  Q 273.64 398.92 298.71 390.16
  C 365.12 366.95 405.94 300.65 396.80 231.12
  C 387.24 158.45 326.08 103.38 252.54 102.32
  Q 247.83 102.26 245.55 103.09
  C 234.64 107.09 233.84 122.79 244.10 127.79
  Q 246.51 128.97 251.57 129.08
  Q 297.38 130.08 330.63 159.74
  C 370.09 194.94 382.16 251.67 360.67 299.94
  Z
  M 183.20 122.46
  C 179.92 131.08 185.86 140.29 194.94 140.68
  Q 197.84 140.81 203.32 138.62
  Q 211.59 135.32 220.10 132.74
  C 233.97 128.54 232.78 108.75 218.58 106.70
  Q 215.21 106.21 209.43 107.83
  Q 200.01 110.45 191.13 114.57
  C 187.04 116.47 184.73 118.44 183.20 122.46
  Z
  M 118.36 184.93
  C 116.78 196.73 131.01 204.34 140.16 196.78
  Q 142.09 195.19 145.42 189.49
  Q 153.85 175.08 165.73 163.36
  C 170.34 158.82 173.58 154.55 171.94 148.49
  C 169.85 140.71 161.87 135.96 154.33 138.78
  Q 151.26 139.93 146.83 144.25
  C 136.78 154.07 127.14 166.17 120.65 178.74
  Q 118.68 182.55 118.36 184.93
  Z
  M 251.35 184.21
  Q 230.58 171.87 208.40 178.40
  C 179.57 186.88 162.66 217.31 172.00 246.24
  Q 176.07 258.83 186.36 269.14
  Q 212.53 295.38 238.72 321.62
  Q 244.36 327.28 247.78 328.59
  Q 255.21 331.44 261.70 324.94
  Q 289.93 296.67 318.05 268.30
  Q 334.43 251.77 334.19 229.50
  C 333.73 187.66 287.99 162.68 252.22 184.21
  Q 251.79 184.47 251.35 184.21
  Z
  M 108.14 282.08
  C 117.43 290.63 132.69 283.00 130.77 270.50
  Q 128.03 252.68 129.98 235.75
  Q 130.96 227.24 130.38 224.73
  C 128.47 216.44 117.64 212.10 110.46 216.70
  Q 105.38 219.95 104.47 224.49
  Q 99.73 248.18 104.32 275.22
  Q 104.99 279.18 108.14 282.08
  Z
  M 140.61 304.12
  C 129.55 294.04 112.99 307.10 120.10 320.89
  Q 129.10 338.35 145.30 354.94
  Q 150.33 360.08 153.68 361.34
  C 161.49 364.25 168.58 361.06 171.40 353.39
  C 174.05 346.19 170.71 341.76 165.34 336.50
  Q 154.00 325.41 145.95 311.80
  Q 142.34 305.70 140.61 304.12
  Z
  M 206.50 363.31
  C 204.32 362.45 200.04 360.16 197.01 359.79
  C 190.46 359.00 183.40 364.02 182.42 370.83
  C 181.69 375.85 183.93 382.28 188.54 384.70
  Q 197.79 389.56 213.76 393.48
  C 230.78 397.66 236.66 372.00 219.96 367.68
  Q 213.09 365.91 206.50 363.31
  Z" fill="#fbb6ce"></path>
<path d="M 360.67 299.94
  C 382.16 251.67 370.09 194.94 330.63 159.74
  Q 297.38 130.08 251.57 129.08
  Q 246.51 128.97 244.10 127.79
  C 233.84 122.79 234.64 107.09 245.55 103.09
  Q 247.83 102.26 252.54 102.32
  C 326.08 103.38 387.24 158.45 396.80 231.12
  C 405.94 300.65 365.12 366.95 298.71 390.16
  Q 273.64 398.92 248.76 398.17
  Q 242.81 397.99 239.02 391.96
  C 233.93 383.85 238.08 374.15 247.08 371.56
  C 249.71 370.81 255.04 371.32 257.99 371.12
  C 302.70 368.07 342.65 340.42 360.67 299.94
  Z" fill="#ffffff"></path>
<path d="M 183.20 122.46
  C 184.73 118.44 187.04 116.47 191.13 114.57
  Q 200.01 110.45 209.43 107.83
  Q 215.21 106.21 218.58 106.70
  C 232.78 108.75 233.97 128.54 220.10 132.74
  Q 211.59 135.32 203.32 138.62
  Q 197.84 140.81 194.94 140.68
  C 185.86 140.29 179.92 131.08 183.20 122.46
  Z" fill="#ffffff"></path>
<path d="M 120.65 178.74
  C 127.14 166.17 136.78 154.07 146.83 144.25
  Q 151.26 139.93 154.33 138.78
  C 161.87 135.96 169.85 140.71 171.94 148.49
  C 173.58 154.55 170.34 158.82 165.73 163.36
  Q 153.85 175.08 145.42 189.49
  Q 142.09 195.19 140.16 196.78
  C 131.01 204.34 116.78 196.73 118.36 184.93
  Q 118.68 182.55 120.65 178.74
  Z" fill="#ffffff"></path>
<path d="M 252.22 184.21
  C 287.99 162.68 333.73 187.66 334.19 229.50
  Q 334.43 251.77 318.05 268.30
  Q 289.93 296.67 261.70 324.94
  Q 255.21 331.44 247.78 328.59
  Q 244.36 327.28 238.72 321.62
  Q 212.53 295.38 186.36 269.14
  Q 176.07 258.83 172.00 246.24
  C 162.66 217.31 179.57 186.88 208.40 178.40
  Q 230.58 171.87 251.35 184.21
  Q 251.79 184.47 252.22 184.21
  Z
  M 298.24 250.17
  C 307.18 241.16 310.19 229.05 304.23 217.61
  C 296.54 202.85 277.85 198.90 264.56 208.59
  C 258.82 212.76 254.95 216.90 247.45 214.20
  Q 245.49 213.49 241.46 210.20
  C 231.82 202.33 220.27 200.78 209.32 207.17
  C 197.80 213.89 192.64 229.88 199.15 242.16
  Q 201.03 245.70 206.83 251.55
  Q 229.13 274.04 251.48 296.34
  Q 251.88 296.74 252.28 296.34
  Q 275.27 273.35 298.24 250.17
  Z" fill="#ffffff"></path>
<path d="M 304.23 217.61
  C 310.19 229.05 307.18 241.16 298.24 250.17
  Q 275.27 273.35 252.28 296.34
  Q 251.88 296.74 251.48 296.34
  Q 229.13 274.04 206.83 251.55
  Q 201.03 245.70 199.15 242.16
  C 192.64 229.88 197.80 213.89 209.32 207.17
  C 220.27 200.78 231.82 202.33 241.46 210.20
  Q 245.49 213.49 247.45 214.20
  C 254.95 216.90 258.82 212.76 264.56 208.59
  C 277.85 198.90 296.54 202.85 304.23 217.61
  Z" fill="#fbb6ce"></path>
<path d="M 130.77 270.50
  C 132.69 283.00 117.43 290.63 108.14 282.08
  Q 104.99 279.18 104.32 275.22
  Q 99.73 248.18 104.47 224.49
  Q 105.38 219.95 110.46 216.70
  C 117.64 212.10 128.47 216.44 130.38 224.73
  Q 130.96 227.24 129.98 235.75
  Q 128.03 252.68 130.77 270.50
  Z" fill="#ffffff"></path>
<path d="M 120.10 320.89
  C 112.99 307.10 129.55 294.04 140.61 304.12
  Q 142.34 305.70 145.95 311.80
  Q 154.00 325.41 165.34 336.50
  C 170.71 341.76 174.05 346.19 171.40 353.39
  C 168.58 361.06 161.49 364.25 153.68 361.34
  Q 150.33 360.08 145.30 354.94
  Q 129.10 338.35 120.10 320.89
  Z" fill="#ffffff"></path>
<path d="M 206.50 363.31
  Q 213.09 365.91 219.96 367.68
  C 236.66 372.00 230.78 397.66 213.76 393.48
  Q 197.79 389.56 188.54 384.70
  C 183.93 382.28 181.69 375.85 182.42 370.83
  C 183.40 364.02 190.46 359.00 197.01 359.79
  C 200.04 360.16 204.32 362.45 206.50 363.31
  Z" fill="#ffffff"></path>
</svg>
