<svg viewBox="0.00 0.00 256.00 256.00" version="1.1" xmlns="http://www.w3.org/2000/svg">
<g stroke-linecap="butt" fill="none" stroke-width="2.00">
<path d="M 174.10 113.52
  A 0.75 0.75 0.0 0 1 173.35 112.77
  L 173.34 86.03
  A 0.75 0.75 0.0 0 1 174.09 85.28
  L 215.72 85.29
  A 0.75 0.75 0.0 0 0 216.47 84.54
  L 216.46 67.75
  A 0.75 0.75 0.0 0 0 215.71 67.00
  L 151.45 67.01
  A 0.75 0.75 0.0 0 0 150.70 67.76
  L 150.73 179.50
  A 0.75 0.75 0.0 0 0 151.48 180.25
  L 215.72 180.25
  A 0.75 0.75 0.0 0 0 216.47 179.50
  L 216.47 162.46
  A 0.75 0.75 0.0 0 0 215.72 161.71
  L 174.09 161.73
  A 0.75 0.75 0.0 0 1 173.34 160.98
  L 173.34 132.53
  A 0.75 0.75 0.0 0 1 174.09 131.78
  L 210.97 131.77
  A 0.75 0.75 0.0 0 0 211.72 131.02
  L 211.72 114.25
  A 0.75 0.75 0.0 0 0 210.97 113.50
  L 174.10 113.52" stroke="#878798"></path>
<path d="M 69.72 136.07
  L 78.90 136.15
  Q 80.14 136.16 80.75 137.24
  L 104.86 179.81
  Q 105.11 180.25 105.61 180.25
  L 130.77 180.25
  A 0.36 0.35 74.7 0 0 131.07 179.71
  L 104.60 134.94
  A 0.50 0.49 -23.5 0 1 104.89 134.21
  C 138.04 124.81 138.85 79.93 106.21 69.53
  Q 98.93 67.21 94.50 67.20
  Q 70.84 67.16 47.50 67.23
  A 0.80 0.79 -90.0 0 0 46.71 68.03
  L 46.70 179.72
  Q 46.70 180.25 47.22 180.25
  L 68.71 180.25
  Q 69.42 180.25 69.42 179.54
  L 69.42 136.38
  A 0.31 0.30 -90.0 0 1 69.72 136.07" stroke="#878798"></path>
<path d="M 69.48 86.17
  L 69.36 118.73
  A 0.28 0.28 0.0 0 0 69.64 119.01
  L 91.06 119.08
  A 15.42 14.51 0.2 0 0 106.53 104.62
  L 106.55 100.52
  A 15.42 14.51 0.2 0 0 91.18 85.96
  L 69.76 85.89
  A 0.28 0.28 0.0 0 0 69.48 86.17" stroke="#878798"></path>
</g>
<path d="M 123.89 0.00
  L 134.04 0.00
  Q 153.99 1.14 170.01 6.79
  C 243.93 32.84 278.13 119.31 238.51 188.54
  C 214.32 230.80 168.54 255.67 119.70 252.09
  C 25.25 245.17 -28.22 140.14 21.83 59.45
  C 37.64 33.96 62.31 14.92 90.76 5.81
  Q 105.61 1.06 123.89 0.00
  Z
  M 174.10 113.52
  A 0.75 0.75 0.0 0 1 173.35 112.77
  L 173.34 86.03
  A 0.75 0.75 0.0 0 1 174.09 85.28
  L 215.72 85.29
  A 0.75 0.75 0.0 0 0 216.47 84.54
  L 216.46 67.75
  A 0.75 0.75 0.0 0 0 215.71 67.00
  L 151.45 67.01
  A 0.75 0.75 0.0 0 0 150.70 67.76
  L 150.73 179.50
  A 0.75 0.75 0.0 0 0 151.48 180.25
  L 215.72 180.25
  A 0.75 0.75 0.0 0 0 216.47 179.50
  L 216.47 162.46
  A 0.75 0.75 0.0 0 0 215.72 161.71
  L 174.09 161.73
  A 0.75 0.75 0.0 0 1 173.34 160.98
  L 173.34 132.53
  A 0.75 0.75 0.0 0 1 174.09 131.78
  L 210.97 131.77
  A 0.75 0.75 0.0 0 0 211.72 131.02
  L 211.72 114.25
  A 0.75 0.75 0.0 0 0 210.97 113.50
  L 174.10 113.52
  Z
  M 69.72 136.07
  L 78.90 136.15
  Q 80.14 136.16 80.75 137.24
  L 104.86 179.81
  Q 105.11 180.25 105.61 180.25
  L 130.77 180.25
  A 0.36 0.35 74.7 0 0 131.07 179.71
  L 104.60 134.94
  A 0.50 0.49 -23.5 0 1 104.89 134.21
  C 138.04 124.81 138.85 79.93 106.21 69.53
  Q 98.93 67.21 94.50 67.20
  Q 70.84 67.16 47.50 67.23
  A 0.80 0.79 -90.0 0 0 46.71 68.03
  L 46.70 179.72
  Q 46.70 180.25 47.22 180.25
  L 68.71 180.25
  Q 69.42 180.25 69.42 179.54
  L 69.42 136.38
  A 0.31 0.30 -90.0 0 1 69.72 136.07
  Z" fill="#0f0f31"></path>
<path d="M 174.10 113.52
  L 210.97 113.50
  A 0.75 0.75 0.0 0 1 211.72 114.25
  L 211.72 131.02
  A 0.75 0.75 0.0 0 1 210.97 131.77
  L 174.09 131.78
  A 0.75 0.75 0.0 0 0 173.34 132.53
  L 173.34 160.98
  A 0.75 0.75 0.0 0 0 174.09 161.73
  L 215.72 161.71
  A 0.75 0.75 0.0 0 1 216.47 162.46
  L 216.47 179.50
  A 0.75 0.75 0.0 0 1 215.72 180.25
  L 151.48 180.25
  A 0.75 0.75 0.0 0 1 150.73 179.50
  L 150.70 67.76
  A 0.75 0.75 0.0 0 1 151.45 67.01
  L 215.71 67.00
  A 0.75 0.75 0.0 0 1 216.46 67.75
  L 216.47 84.54
  A 0.75 0.75 0.0 0 1 215.72 85.29
  L 174.09 85.28
  A 0.75 0.75 0.0 0 0 173.34 86.03
  L 173.35 112.77
  A 0.75 0.75 0.0 0 0 174.10 113.52
  Z" fill="#ffffff"></path>
<path d="M 69.72 136.07
  A 0.31 0.30 -90.0 0 0 69.42 136.38
  L 69.42 179.54
  Q 69.42 180.25 68.71 180.25
  L 47.22 180.25
  Q 46.70 180.25 46.70 179.72
  L 46.71 68.03
  A 0.80 0.79 90.0 0 1 47.50 67.23
  Q 70.84 67.16 94.50 67.20
  Q 98.93 67.21 106.21 69.53
  C 138.85 79.93 138.04 124.81 104.89 134.21
  A 0.50 0.49 -23.5 0 0 104.60 134.94
  L 131.07 179.71
  A 0.36 0.35 74.7 0 1 130.77 180.25
  L 105.61 180.25
  Q 105.11 180.25 104.86 179.81
  L 80.75 137.24
  Q 80.14 136.16 78.90 136.15
  L 69.72 136.07
  Z
  M 69.48 86.17
  L 69.36 118.73
  A 0.28 0.28 0.0 0 0 69.64 119.01
  L 91.06 119.08
  A 15.42 14.51 0.2 0 0 106.53 104.62
  L 106.55 100.52
  A 15.42 14.51 0.2 0 0 91.18 85.96
  L 69.76 85.89
  A 0.28 0.28 0.0 0 0 69.48 86.17
  Z" fill="#ffffff"></path>
<path d="M 69.48 86.17
  A 0.28 0.28 0.0 0 1 69.76 85.89
  L 91.18 85.96
  A 15.42 14.51 0.2 0 1 106.55 100.52
  L 106.53 104.62
  A 15.42 14.51 0.2 0 1 91.06 119.08
  L 69.64 119.01
  A 0.28 0.28 0.0 0 1 69.36 118.73
  L 69.48 86.17
  Z" fill="#0f0f31"></path>
</svg>
