<svg viewBox="0.00 0.00 256.00 256.00" version="1.1" xmlns="http://www.w3.org/2000/svg">
<path d="M 95.92 122.53
  C 87.86 130.43 75.36 134.89 64.37 135.90
  Q 64.00 135.94 64.00 136.31
  L 64.00 170.50
  Q 64.00 171.00 64.50 171.01
  Q 65.93 171.06 68.25 170.77
  C 91.06 167.94 111.51 159.52 127.54 143.02
  Q 129.93 140.56 134.22 135.40
  Q 134.30 135.31 134.39 135.38
  L 134.67 135.58
  Q 134.78 135.66 134.72 135.77
  L 116.75 170.53
  A 0.32 0.32 0.0 0 0 117.03 171.00
  L 157.49 171.00
  Q 158.05 171.00 158.31 170.50
  L 201.79 85.50
  A 0.34 0.34 0.0 0 0 201.49 85.00
  L 161.51 85.00
  Q 161.06 85.00 160.85 85.40
  Q 154.54 97.46 148.39 109.60
  Q 146.92 112.49 145.59 114.52
  Q 144.64 115.98 144.64 114.24
  L 144.64 85.70
  Q 144.64 85.00 143.95 85.00
  L 117.02 85.00
  Q 116.46 85.00 116.20 85.51
  Q 109.16 99.78 102.16 114.07
  Q 101.71 114.99 101.24 115.14
  Q 100.57 115.35 100.57 114.65
  L 100.57 85.54
  A 0.54 0.53 90.0 0 0 100.04 85.00
  L 64.50 85.00
  A 0.50 0.50 0.0 0 0 64.00 85.50
  L 64.00 121.50
  Q 64.00 122.01 64.50 122.01
  L 95.72 122.03
  Q 96.44 122.03 95.92 122.53" stroke-linecap="butt" fill="none" stroke-width="2.00" stroke="#919598"></path>
<path d="M 7.86 0.00
  L 248.30 0.00
  Q 254.33 1.82 256.00 7.82
  L 256.00 248.30
  Q 254.19 254.28 248.19 256.00
  L 7.71 256.00
  Q 1.65 254.15 0.00 248.18
  L 0.00 7.74
  Q 1.80 1.65 7.86 0.00
  Z
  M 95.92 122.53
  C 87.86 130.43 75.36 134.89 64.37 135.90
  Q 64.00 135.94 64.00 136.31
  L 64.00 170.50
  Q 64.00 171.00 64.50 171.01
  Q 65.93 171.06 68.25 170.77
  C 91.06 167.94 111.51 159.52 127.54 143.02
  Q 129.93 140.56 134.22 135.40
  Q 134.30 135.31 134.39 135.38
  L 134.67 135.58
  Q 134.78 135.66 134.72 135.77
  L 116.75 170.53
  A 0.32 0.32 0.0 0 0 117.03 171.00
  L 157.49 171.00
  Q 158.05 171.00 158.31 170.50
  L 201.79 85.50
  A 0.34 0.34 0.0 0 0 201.49 85.00
  L 161.51 85.00
  Q 161.06 85.00 160.85 85.40
  Q 154.54 97.46 148.39 109.60
  Q 146.92 112.49 145.59 114.52
  Q 144.64 115.98 144.64 114.24
  L 144.64 85.70
  Q 144.64 85.00 143.95 85.00
  L 117.02 85.00
  Q 116.46 85.00 116.20 85.51
  Q 109.16 99.78 102.16 114.07
  Q 101.71 114.99 101.24 115.14
  Q 100.57 115.35 100.57 114.65
  L 100.57 85.54
  A 0.54 0.53 90.0 0 0 100.04 85.00
  L 64.50 85.00
  A 0.50 0.50 0.0 0 0 64.00 85.50
  L 64.00 121.50
  Q 64.00 122.01 64.50 122.01
  L 95.72 122.03
  Q 96.44 122.03 95.92 122.53
  Z" fill="#2b3239"></path>
<path d="M 95.72 122.03
  L 64.50 122.01
  Q 64.00 122.01 64.00 121.50
  L 64.00 85.50
  A 0.50 0.50 0.0 0 1 64.50 85.00
  L 100.04 85.00
  A 0.54 0.53 -90.0 0 1 100.57 85.54
  L 100.57 114.65
  Q 100.57 115.35 101.24 115.14
  Q 101.71 114.99 102.16 114.07
  Q 109.16 99.78 116.20 85.51
  Q 116.46 85.00 117.02 85.00
  L 143.95 85.00
  Q 144.64 85.00 144.64 85.70
  L 144.64 114.24
  Q 144.64 115.98 145.59 114.52
  Q 146.92 112.49 148.39 109.60
  Q 154.54 97.46 160.85 85.40
  Q 161.06 85.00 161.51 85.00
  L 201.49 85.00
  A 0.34 0.34 0.0 0 1 201.79 85.50
  L 158.31 170.50
  Q 158.05 171.00 157.49 171.00
  L 117.03 171.00
  A 0.32 0.32 0.0 0 1 116.75 170.53
  L 134.72 135.77
  Q 134.78 135.66 134.67 135.58
  L 134.39 135.38
  Q 134.30 135.31 134.22 135.40
  Q 129.93 140.56 127.54 143.02
  C 111.51 159.52 91.06 167.94 68.25 170.77
  Q 65.93 171.06 64.50 171.01
  Q 64.00 171.00 64.00 170.50
  L 64.00 136.31
  Q 64.00 135.94 64.37 135.90
  C 75.36 134.89 87.86 130.43 95.92 122.53
  Q 96.44 122.03 95.72 122.03
  Z" fill="#f7f7f7"></path>
</svg>
