<svg viewBox="0.00 0.00 512.00 512.00" version="1.1" xmlns="http://www.w3.org/2000/svg">
<g stroke-linecap="butt" fill="none" stroke-width="2.00">
<path d="M 64.54 273.49
  C 68.45 283.79 80.75 290.53 91.50 286.84
  Q 107.61 281.30 107.39 263.49
  Q 107.15 243.98 107.14 224.47
  Q 107.14 218.55 106.54 216.13
  C 103.98 205.80 94.38 199.31 83.96 199.80
  C 71.18 200.41 63.07 210.63 63.01 223.00
  Q 62.93 242.39 63.04 261.74
  Q 63.08 269.66 64.54 273.49" stroke="#7b3132"></path>
<path d="M 228.31 286.33
  Q 243.21 280.22 243.15 263.48
  Q 243.09 246.34 243.01 229.21
  Q 242.96 218.34 241.39 213.99
  C 233.24 191.43 199.02 196.95 198.95 221.49
  Q 198.88 244.25 198.86 267.00
  C 198.85 281.50 215.26 291.68 228.31 286.33" stroke="#7f612d"></path>
<path d="M 335.63 273.51
  C 339.70 284.30 352.30 290.65 363.50 286.51
  Q 373.16 282.94 376.80 273.83
  Q 378.06 270.67 378.08 265.49
  Q 378.16 243.23 378.08 220.97
  C 377.99 196.73 343.68 191.92 335.62 214.01
  Q 334.03 218.36 334.00 229.19
  Q 333.96 244.49 334.03 259.77
  Q 334.08 269.41 335.63 273.51" stroke="#2a3d60"></path>
<path d="M 64.19 292.50
  Q 56.86 286.18 54.05 276.42
  C 51.64 268.00 54.44 258.92 52.21 250.49
  C 50.12 242.54 44.38 237.20 35.75 237.11
  Q 23.85 236.97 11.81 237.03
  Q 10.89 237.04 11.07 237.94
  L 11.15 238.34
  A 0.57 0.56 -5.5 0 0 11.71 238.79
  Q 23.90 238.77 36.22 239.03
  Q 43.98 239.20 47.67 244.83
  C 53.13 253.16 50.46 265.04 51.19 271.75
  Q 52.30 281.97 58.90 289.75
  C 77.29 311.45 112.30 304.02 119.51 276.33
  C 121.81 267.49 120.71 254.66 120.86 244.39
  Q 120.96 238.25 122.31 234.27
  C 132.17 205.30 172.55 203.72 184.30 232.26
  Q 186.60 237.84 186.63 243.00
  Q 186.69 255.50 186.78 268.00
  Q 186.87 281.12 194.82 290.20
  C 213.10 311.09 246.49 304.11 254.76 277.54
  Q 255.98 273.63 255.98 267.81
  Q 256.00 255.91 256.00 244.02
  C 256.00 241.95 256.54 240.06 256.91 238.02
  C 260.05 220.67 277.21 209.36 294.26 211.97
  C 306.81 213.89 316.95 222.92 320.67 234.76
  Q 321.98 238.90 322.00 245.91
  Q 322.03 255.10 322.08 264.29
  Q 322.12 272.68 323.43 277.21
  C 333.02 310.25 379.88 310.77 390.22 278.02
  C 393.02 269.17 392.05 255.55 392.02 244.91
  Q 392.01 238.57 393.22 234.77
  C 397.73 220.68 410.67 211.08 425.74 211.83
  C 428.11 211.95 430.43 211.86 432.69 212.50
  C 447.01 216.57 457.75 228.84 457.78 244.29
  Q 457.80 257.77 457.83 271.25
  C 457.85 278.01 459.05 284.24 465.50 287.07
  Q 468.39 288.34 476.12 288.15
  Q 482.97 287.99 489.63 287.99
  Q 490.29 287.99 490.21 287.33
  L 490.18 287.05
  A 0.95 0.94 -3.4 0 0 489.24 286.22
  Q 480.31 286.19 471.75 286.27
  C 463.28 286.34 459.86 281.21 459.72 273.25
  Q 459.54 262.69 459.50 252.13
  Q 459.45 239.51 458.03 234.51
  C 454.57 222.38 444.32 213.26 431.87 210.45
  C 427.64 209.50 420.87 209.66 416.82 210.64
  C 404.45 213.64 394.42 223.09 391.10 235.46
  Q 390.03 239.47 390.02 247.15
  C 390.01 256.74 391.02 268.76 388.53 277.07
  C 379.15 308.43 334.32 308.19 325.31 276.96
  Q 323.99 272.37 323.99 263.88
  Q 324.00 255.08 323.98 246.27
  Q 323.97 239.63 322.71 235.37
  Q 317.04 216.15 297.01 210.59
  C 292.64 209.38 285.04 209.67 280.84 210.75
  C 265.05 214.84 254.52 228.47 254.26 244.75
  Q 254.17 250.00 254.22 268.69
  C 254.24 279.95 247.66 290.40 238.43 295.88
  C 215.69 309.39 188.52 292.86 188.37 266.99
  Q 188.30 254.37 188.03 241.75
  C 187.69 226.20 175.54 214.16 161.32 210.59
  C 158.22 209.81 155.07 209.98 151.82 209.98
  C 136.68 209.97 124.43 221.34 120.17 235.00
  Q 119.01 238.74 119.02 244.14
  C 119.04 254.88 120.08 268.73 117.33 277.67
  C 110.38 300.23 82.05 307.90 64.19 292.50" stroke="#525252"></path>
<path d="M 132.00 289.91
  C 130.99 310.31 155.55 320.06 169.57 306.34
  Q 176.06 300.00 176.01 289.83" stroke="#7f4d2c"></path>
<path d="M 176.01 289.83
  Q 176.03 269.89 175.97 250.19
  Q 175.94 242.50 174.63 238.98
  C 168.46 222.39 146.79 220.14 136.38 233.60
  Q 132.06 239.19 132.04 244.25
  Q 131.97 267.14 132.00 289.91" stroke="#7f402c"></path>
<path d="M 176.01 289.83
  L 132.00 289.91" stroke="#f2804b"></path>
<path d="M 309.29 300.29
  Q 311.58 295.88 311.64 291.75
  Q 311.80 280.51 311.66 250.14
  Q 311.63 244.33 311.06 241.86
  C 309.24 233.95 303.10 227.68 295.32 225.48
  C 291.74 224.47 285.80 224.68 282.39 225.94
  Q 272.30 229.64 268.95 239.05
  Q 267.44 243.30 267.46 253.60
  Q 267.49 272.62 267.48 291.65
  C 267.47 292.82 267.87 293.82 267.98 295.01
  C 268.62 301.71 274.42 307.96 279.87 310.56
  C 291.21 315.96 303.46 311.50 309.29 300.29" stroke="#164a30"></path>
<path d="M 434.55 226.95
  C 430.51 224.96 427.95 224.82 423.45 224.97
  C 414.58 225.29 407.28 231.27 404.33 239.29
  Q 403.01 242.90 403.01 249.37
  Q 403.00 268.74 402.99 288.12
  Q 402.99 293.35 403.56 295.84
  C 408.40 317.19 438.12 318.61 445.81 298.15
  Q 447.04 294.87 447.05 289.67
  Q 447.06 270.84 447.07 252.01
  Q 447.08 242.60 445.58 238.66
  Q 442.65 230.96 434.55 226.95" stroke="#473057"></path>
</g>
<path d="M 94.27 0.00
  L 418.35 0.00
  Q 429.85 0.81 436.99 2.28
  C 451.13 5.17 465.09 11.85 476.48 21.01
  Q 506.72 45.30 512.00 85.53
  L 512.00 426.58
  C 507.98 458.81 490.19 486.08 461.70 501.20
  Q 449.27 507.79 435.26 510.62
  C 432.04 511.28 428.68 511.31 425.40 512.00
  L 87.39 512.00
  Q 77.33 510.77 69.62 508.63
  C 31.52 498.05 3.63 463.87 0.73 424.43
  Q 0.40 419.97 0.40 412.55
  Q 0.37 252.40 0.41 92.25
  Q 0.41 83.79 2.86 73.68
  C 11.43 38.39 39.44 9.71 75.56 2.33
  Q 82.88 0.83 94.27 0.00
  Z
  M 64.54 273.49
  C 68.45 283.79 80.75 290.53 91.50 286.84
  Q 107.61 281.30 107.39 263.49
  Q 107.15 243.98 107.14 224.47
  Q 107.14 218.55 106.54 216.13
  C 103.98 205.80 94.38 199.31 83.96 199.80
  C 71.18 200.41 63.07 210.63 63.01 223.00
  Q 62.93 242.39 63.04 261.74
  Q 63.08 269.66 64.54 273.49
  Z
  M 228.31 286.33
  Q 243.21 280.22 243.15 263.48
  Q 243.09 246.34 243.01 229.21
  Q 242.96 218.34 241.39 213.99
  C 233.24 191.43 199.02 196.95 198.95 221.49
  Q 198.88 244.25 198.86 267.00
  C 198.85 281.50 215.26 291.68 228.31 286.33
  Z
  M 335.63 273.51
  C 339.70 284.30 352.30 290.65 363.50 286.51
  Q 373.16 282.94 376.80 273.83
  Q 378.06 270.67 378.08 265.49
  Q 378.16 243.23 378.08 220.97
  C 377.99 196.73 343.68 191.92 335.62 214.01
  Q 334.03 218.36 334.00 229.19
  Q 333.96 244.49 334.03 259.77
  Q 334.08 269.41 335.63 273.51
  Z
  M 64.19 292.50
  Q 56.86 286.18 54.05 276.42
  C 51.64 268.00 54.44 258.92 52.21 250.49
  C 50.12 242.54 44.38 237.20 35.75 237.11
  Q 23.85 236.97 11.81 237.03
  Q 10.89 237.04 11.07 237.94
  L 11.15 238.34
  A 0.57 0.56 -5.5 0 0 11.71 238.79
  Q 23.90 238.77 36.22 239.03
  Q 43.98 239.20 47.67 244.83
  C 53.13 253.16 50.46 265.04 51.19 271.75
  Q 52.30 281.97 58.90 289.75
  C 77.29 311.45 112.30 304.02 119.51 276.33
  C 121.81 267.49 120.71 254.66 120.86 244.39
  Q 120.96 238.25 122.31 234.27
  C 132.17 205.30 172.55 203.72 184.30 232.26
  Q 186.60 237.84 186.63 243.00
  Q 186.69 255.50 186.78 268.00
  Q 186.87 281.12 194.82 290.20
  C 213.10 311.09 246.49 304.11 254.76 277.54
  Q 255.98 273.63 255.98 267.81
  Q 256.00 255.91 256.00 244.02
  C 256.00 241.95 256.54 240.06 256.91 238.02
  C 260.05 220.67 277.21 209.36 294.26 211.97
  C 306.81 213.89 316.95 222.92 320.67 234.76
  Q 321.98 238.90 322.00 245.91
  Q 322.03 255.10 322.08 264.29
  Q 322.12 272.68 323.43 277.21
  C 333.02 310.25 379.88 310.77 390.22 278.02
  C 393.02 269.17 392.05 255.55 392.02 244.91
  Q 392.01 238.57 393.22 234.77
  C 397.73 220.68 410.67 211.08 425.74 211.83
  C 428.11 211.95 430.43 211.86 432.69 212.50
  C 447.01 216.57 457.75 228.84 457.78 244.29
  Q 457.80 257.77 457.83 271.25
  C 457.85 278.01 459.05 284.24 465.50 287.07
  Q 468.39 288.34 476.12 288.15
  Q 482.97 287.99 489.63 287.99
  Q 490.29 287.99 490.21 287.33
  L 490.18 287.05
  A 0.95 0.94 -3.4 0 0 489.24 286.22
  Q 480.31 286.19 471.75 286.27
  C 463.28 286.34 459.86 281.21 459.72 273.25
  Q 459.54 262.69 459.50 252.13
  Q 459.45 239.51 458.03 234.51
  C 454.57 222.38 444.32 213.26 431.87 210.45
  C 427.64 209.50 420.87 209.66 416.82 210.64
  C 404.45 213.64 394.42 223.09 391.10 235.46
  Q 390.03 239.47 390.02 247.15
  C 390.01 256.74 391.02 268.76 388.53 277.07
  C 379.15 308.43 334.32 308.19 325.31 276.96
  Q 323.99 272.37 323.99 263.88
  Q 324.00 255.08 323.98 246.27
  Q 323.97 239.63 322.71 235.37
  Q 317.04 216.15 297.01 210.59
  C 292.64 209.38 285.04 209.67 280.84 210.75
  C 265.05 214.84 254.52 228.47 254.26 244.75
  Q 254.17 250.00 254.22 268.69
  C 254.24 279.95 247.66 290.40 238.43 295.88
  C 215.69 309.39 188.52 292.86 188.37 266.99
  Q 188.30 254.37 188.03 241.75
  C 187.69 226.20 175.54 214.16 161.32 210.59
  C 158.22 209.81 155.07 209.98 151.82 209.98
  C 136.68 209.97 124.43 221.34 120.17 235.00
  Q 119.01 238.74 119.02 244.14
  C 119.04 254.88 120.08 268.73 117.33 277.67
  C 110.38 300.23 82.05 307.90 64.19 292.50
  Z
  M 132.00 289.91
  C 130.99 310.31 155.55 320.06 169.57 306.34
  Q 176.06 300.00 176.01 289.83
  Q 176.03 269.89 175.97 250.19
  Q 175.94 242.50 174.63 238.98
  C 168.46 222.39 146.79 220.14 136.38 233.60
  Q 132.06 239.19 132.04 244.25
  Q 131.97 267.14 132.00 289.91
  Z
  M 309.29 300.29
  Q 311.58 295.88 311.64 291.75
  Q 311.80 280.51 311.66 250.14
  Q 311.63 244.33 311.06 241.86
  C 309.24 233.95 303.10 227.68 295.32 225.48
  C 291.74 224.47 285.80 224.68 282.39 225.94
  Q 272.30 229.64 268.95 239.05
  Q 267.44 243.30 267.46 253.60
  Q 267.49 272.62 267.48 291.65
  C 267.47 292.82 267.87 293.82 267.98 295.01
  C 268.62 301.71 274.42 307.96 279.87 310.56
  C 291.21 315.96 303.46 311.50 309.29 300.29
  Z
  M 434.55 226.95
  C 430.51 224.96 427.95 224.82 423.45 224.97
  C 414.58 225.29 407.28 231.27 404.33 239.29
  Q 403.01 242.90 403.01 249.37
  Q 403.00 268.74 402.99 288.12
  Q 402.99 293.35 403.56 295.84
  C 408.40 317.19 438.12 318.61 445.81 298.15
  Q 447.04 294.87 447.05 289.67
  Q 447.06 270.84 447.07 252.01
  Q 447.08 242.60 445.58 238.66
  Q 442.65 230.96 434.55 226.95
  Z" fill="#0c0d0d"></path>
<path d="M 91.50 286.84
  C 80.75 290.53 68.45 283.79 64.54 273.49
  Q 63.08 269.66 63.04 261.74
  Q 62.93 242.39 63.01 223.00
  C 63.07 210.63 71.18 200.41 83.96 199.80
  C 94.38 199.31 103.98 205.80 106.54 216.13
  Q 107.14 218.55 107.14 224.47
  Q 107.15 243.98 107.39 263.49
  Q 107.61 281.30 91.50 286.84
  Z" fill="#ea5457"></path>
<path d="M 228.31 286.33
  C 215.26 291.68 198.85 281.50 198.86 267.00
  Q 198.88 244.25 198.95 221.49
  C 199.02 196.95 233.24 191.43 241.39 213.99
  Q 242.96 218.34 243.01 229.21
  Q 243.09 246.34 243.15 263.48
  Q 243.21 280.22 228.31 286.33
  Z" fill="#f1b44c"></path>
<path d="M 363.50 286.51
  C 352.30 290.65 339.70 284.30 335.63 273.51
  Q 334.08 269.41 334.03 259.77
  Q 333.96 244.49 334.00 229.19
  Q 334.03 218.36 335.62 214.01
  C 343.68 191.92 377.99 196.73 378.08 220.97
  Q 378.16 243.23 378.08 265.49
  Q 378.06 270.67 376.80 273.83
  Q 373.16 282.94 363.50 286.51
  Z" fill="#476cb3"></path>
<path d="M 64.19 292.50
  C 82.05 307.90 110.38 300.23 117.33 277.67
  C 120.08 268.73 119.04 254.88 119.02 244.14
  Q 119.01 238.74 120.17 235.00
  C 124.43 221.34 136.68 209.97 151.82 209.98
  C 155.07 209.98 158.22 209.81 161.32 210.59
  C 175.54 214.16 187.69 226.20 188.03 241.75
  Q 188.30 254.37 188.37 266.99
  C 188.52 292.86 215.69 309.39 238.43 295.88
  C 247.66 290.40 254.24 279.95 254.22 268.69
  Q 254.17 250.00 254.26 244.75
  C 254.52 228.47 265.05 214.84 280.84 210.75
  C 285.04 209.67 292.64 209.38 297.01 210.59
  Q 317.04 216.15 322.71 235.37
  Q 323.97 239.63 323.98 246.27
  Q 324.00 255.08 323.99 263.88
  Q 323.99 272.37 325.31 276.96
  C 334.32 308.19 379.15 308.43 388.53 277.07
  C 391.02 268.76 390.01 256.74 390.02 247.15
  Q 390.03 239.47 391.10 235.46
  C 394.42 223.09 404.45 213.64 416.82 210.64
  C 420.87 209.66 427.64 209.50 431.87 210.45
  C 444.32 213.26 454.57 222.38 458.03 234.51
  Q 459.45 239.51 459.50 252.13
  Q 459.54 262.69 459.72 273.25
  C 459.86 281.21 463.28 286.34 471.75 286.27
  Q 480.31 286.19 489.24 286.22
  A 0.95 0.94 -3.4 0 1 490.18 287.05
  L 490.21 287.33
  Q 490.29 287.99 489.63 287.99
  Q 482.97 287.99 476.12 288.15
  Q 468.39 288.34 465.50 287.07
  C 459.05 284.24 457.85 278.01 457.83 271.25
  Q 457.80 257.77 457.78 244.29
  C 457.75 228.84 447.01 216.57 432.69 212.50
  C 430.43 211.86 428.11 211.95 425.74 211.83
  C 410.67 211.08 397.73 220.68 393.22 234.77
  Q 392.01 238.57 392.02 244.91
  C 392.05 255.55 393.02 269.17 390.22 278.02
  C 379.88 310.77 333.02 310.25 323.43 277.21
  Q 322.12 272.68 322.08 264.29
  Q 322.03 255.10 322.00 245.91
  Q 321.98 238.90 320.67 234.76
  C 316.95 222.92 306.81 213.89 294.26 211.97
  C 277.21 209.36 260.05 220.67 256.91 238.02
  C 256.54 240.06 256.00 241.95 256.00 244.02
  Q 256.00 255.91 255.98 267.81
  Q 255.98 273.63 254.76 277.54
  C 246.49 304.11 213.10 311.09 194.82 290.20
  Q 186.87 281.12 186.78 268.00
  Q 186.69 255.50 186.63 243.00
  Q 186.60 237.84 184.30 232.26
  C 172.55 203.72 132.17 205.30 122.31 234.27
  Q 120.96 238.25 120.86 244.39
  C 120.71 254.66 121.81 267.49 119.51 276.33
  C 112.30 304.02 77.29 311.45 58.90 289.75
  Q 52.30 281.97 51.19 271.75
  C 50.46 265.04 53.13 253.16 47.67 244.83
  Q 43.98 239.20 36.22 239.03
  Q 23.90 238.77 11.71 238.79
  A 0.57 0.56 -5.5 0 1 11.15 238.34
  L 11.07 237.94
  Q 10.89 237.04 11.81 237.03
  Q 23.85 236.97 35.75 237.11
  C 44.38 237.20 50.12 242.54 52.21 250.49
  C 54.44 258.92 51.64 268.00 54.05 276.42
  Q 56.86 286.18 64.19 292.50
  Z" fill="#979797"></path>
<path d="M 176.01 289.83
  L 132.00 289.91
  Q 131.97 267.14 132.04 244.25
  Q 132.06 239.19 136.38 233.60
  C 146.79 220.14 168.46 222.39 174.63 238.98
  Q 175.94 242.50 175.97 250.19
  Q 176.03 269.89 176.01 289.83
  Z" fill="#f2724a"></path>
<path d="M 309.29 300.29
  C 303.46 311.50 291.21 315.96 279.87 310.56
  C 274.42 307.96 268.62 301.71 267.98 295.01
  C 267.87 293.82 267.47 292.82 267.48 291.65
  Q 267.49 272.62 267.46 253.60
  Q 267.44 243.30 268.95 239.05
  Q 272.30 229.64 282.39 225.94
  C 285.80 224.68 291.74 224.47 295.32 225.48
  C 303.10 227.68 309.24 233.95 311.06 241.86
  Q 311.63 244.33 311.66 250.14
  Q 311.80 280.51 311.64 291.75
  Q 311.58 295.88 309.29 300.29
  Z" fill="#208653"></path>
<path d="M 434.55 226.95
  Q 442.65 230.96 445.58 238.66
  Q 447.08 242.60 447.07 252.01
  Q 447.06 270.84 447.05 289.67
  Q 447.04 294.87 445.81 298.15
  C 438.12 318.61 408.40 317.19 403.56 295.84
  Q 402.99 293.35 402.99 288.12
  Q 403.00 268.74 403.01 249.37
  Q 403.01 242.90 404.33 239.29
  C 407.28 231.27 414.58 225.29 423.45 224.97
  C 427.95 224.82 430.51 224.96 434.55 226.95
  Z" fill="#8153a0"></path>
<path d="M 176.01 289.83
  Q 176.06 300.00 169.57 306.34
  C 155.55 320.06 130.99 310.31 132.00 289.91
  L 176.01 289.83
  Z" fill="#f18d4b"></path>
</svg>
