<svg viewBox="0.00 0.00 256.00 256.00" version="1.1" xmlns="http://www.w3.org/2000/svg">
<g stroke-linecap="butt" fill="none" stroke-width="2.00">
<path d="M 66.22 66.28
  Q 62.64 64.16 61.01 63.75
  C 54.33 62.08 49.94 65.46 49.36 71.87
  C 48.83 77.73 52.24 84.45 55.61 88.93
  A 0.33 0.32 82.7 0 1 55.23 89.43
  C 50.85 87.55 45.80 86.93 43.01 91.55
  C 39.53 97.33 42.36 104.82 46.00 109.94
  Q 46.88 111.16 45.56 110.44
  C 42.05 108.51 38.29 109.88 35.95 112.96
  C 31.30 119.08 34.84 126.69 38.89 132.12
  Q 39.30 132.67 38.61 132.62
  C 37.02 132.50 35.68 131.66 34.21 131.82
  C 30.65 132.20 28.47 134.44 27.45 137.73
  C 25.51 143.95 29.85 150.70 33.44 155.56
  Q 33.81 156.06 33.20 155.96
  C 28.05 155.14 23.79 154.93 22.09 160.40
  C 19.31 169.33 28.11 177.90 33.57 183.58
  Q 33.93 183.96 33.78 184.46
  Q 30.12 196.06 29.76 202.77
  C 28.99 217.01 42.58 226.55 54.47 231.15
  Q 81.75 241.73 110.98 238.78
  C 121.45 237.72 134.57 236.24 132.67 222.15
  A 0.39 0.39 0.0 0 1 133.27 221.77
  C 147.01 230.64 163.65 232.48 179.49 228.97
  C 197.93 224.89 215.27 215.83 226.34 200.12
  C 242.27 177.52 238.63 143.91 216.12 126.55
  C 210.19 121.98 201.55 118.39 194.21 114.69
  C 189.14 112.13 184.07 108.86 179.05 105.97
  Q 178.79 105.82 178.62 106.07
  L 175.28 110.93
  Q 175.14 111.13 175.35 111.27
  Q 187.11 119.23 199.59 124.02
  C 200.63 124.41 201.61 125.43 202.51 125.82
  Q 218.95 132.89 225.70 148.56
  C 235.44 171.20 227.36 196.81 207.10 210.62
  C 185.67 225.24 155.37 230.90 133.08 214.10
  Q 128.36 210.54 123.95 204.38
  C 110.95 186.22 99.39 162.11 98.51 139.45
  A 0.47 0.46 15.7 0 1 99.23 139.05
  Q 100.76 140.04 100.77 140.05
  Q 103.96 143.05 103.55 138.69
  Q 103.34 136.53 100.42 134.82
  C 94.23 131.20 88.37 135.68 86.82 141.79
  Q 86.43 143.33 87.43 144.33
  Q 87.81 144.70 87.47 145.12
  C 78.95 155.60 75.44 169.21 74.79 182.50
  C 74.43 189.74 75.36 201.22 80.28 206.73
  C 84.26 211.19 90.20 210.43 93.55 205.72
  C 97.73 199.85 100.92 193.26 106.02 188.51
  Q 106.79 187.80 107.26 188.74
  Q 114.28 202.82 124.56 215.44
  Q 126.29 217.55 130.27 219.90
  Q 130.73 220.17 130.78 220.70
  Q 131.49 227.35 125.22 229.41
  C 103.05 236.68 77.29 233.41 56.54 225.15
  C 47.93 221.72 37.81 215.73 36.29 205.73
  Q 35.60 201.19 38.00 191.91
  Q 40.65 181.65 44.66 171.88
  A 0.22 0.22 0.0 0 1 45.06 171.85
  C 46.22 173.86 49.66 179.30 51.93 179.91
  A 1.15 1.14 83.8 0 0 53.24 178.28
  Q 49.74 171.41 47.86 163.91
  Q 47.74 163.42 47.91 162.95
  L 50.82 155.02
  Q 51.03 154.44 51.37 154.95
  C 53.98 158.83 55.15 161.64 59.41 165.09
  Q 59.83 165.42 60.28 165.15
  Q 60.83 164.81 61.14 164.22
  Q 61.39 163.75 61.11 163.30
  C 57.97 158.10 55.13 151.50 55.20 145.91
  C 55.24 143.68 56.64 141.64 57.44 139.64
  Q 58.06 138.08 58.66 139.65
  Q 60.94 145.65 65.67 150.80
  Q 66.00 151.16 66.34 151.17
  Q 67.28 151.21 67.50 149.71
  A 1.62 1.61 41.4 0 0 67.45 148.98
  C 65.91 144.19 61.60 130.98 63.75 126.52
  Q 64.82 124.29 65.82 122.21
  Q 66.62 120.53 67.27 122.27
  Q 69.44 128.12 73.52 132.79
  Q 73.85 133.16 74.34 133.25
  Q 75.36 133.44 75.80 132.75
  Q 76.15 132.22 75.83 131.22
  Q 72.94 121.91 71.51 112.23
  A 1.49 1.48 -34.3 0 1 71.69 111.29
  L 75.61 104.34
  A 0.47 0.47 0.0 0 1 76.45 104.37
  Q 79.08 109.99 83.14 114.74
  C 83.94 115.69 85.17 115.91 85.94 114.91
  A 0.96 0.94 -36.4 0 0 86.08 114.02
  Q 83.02 105.57 81.26 96.75
  C 80.80 94.46 84.52 90.08 85.78 88.09
  A 0.48 0.48 0.0 0 1 86.62 88.14
  Q 88.87 93.06 92.26 97.45
  Q 93.49 99.05 94.86 98.34
  A 1.53 1.52 -21.9 0 0 95.62 96.57
  Q 93.85 90.53 92.66 85.00
  Q 92.15 82.67 92.15 80.29
  Q 92.15 79.77 92.44 79.35
  C 97.95 71.43 107.91 66.13 117.22 64.62
  Q 120.80 64.04 122.03 64.63
  Q 132.42 69.61 138.14 79.56
  Q 138.51 80.20 138.94 80.39
  Q 139.81 80.78 140.58 79.90
  A 0.64 0.63 -27.2 0 0 140.73 79.44
  L 140.14 71.56
  Q 140.10 71.12 139.85 70.75
  Q 139.48 70.21 139.47 69.56
  Q 139.47 68.89 140.03 69.25
  C 147.42 73.94 149.88 80.67 153.80 87.50
  A 0.64 0.63 -34.2 0 1 153.64 88.31
  C 148.40 92.43 147.33 99.39 149.76 105.27
  C 152.81 112.65 161.88 113.56 168.38 111.29
  Q 168.52 111.24 168.57 111.16
  Q 168.64 111.05 168.61 110.91
  Q 168.55 110.67 168.30 110.68
  C 161.26 111.13 153.71 110.65 151.99 102.74
  C 148.78 87.97 167.96 81.19 175.68 92.57
  Q 175.79 92.72 175.94 92.62
  L 175.95 92.61
  Q 176.11 92.51 176.01 92.34
  C 173.02 87.10 167.13 84.27 161.06 85.51
  Q 159.99 85.73 159.42 84.79
  L 156.82 80.49
  Q 156.36 79.73 157.22 79.51
  Q 161.14 78.51 164.91 79.89
  A 2.51 2.50 -78.1 0 0 168.27 77.70
  C 168.63 72.05 157.58 73.52 154.67 74.73
  A 0.90 0.90 0.0 0 1 153.54 74.36
  Q 150.72 69.71 146.50 66.31
  Q 146.01 65.91 146.58 65.64
  C 155.79 61.21 172.50 57.42 172.53 43.76
  C 172.57 32.35 159.30 28.87 150.82 33.70
  A 0.67 0.67 0.0 0 1 149.85 33.33
  C 146.89 24.63 138.79 24.36 132.06 29.03
  Q 131.58 29.37 131.50 28.79
  C 128.98 10.60 108.91 14.39 103.13 27.71
  A 0.34 0.33 39.7 0 1 102.54 27.76
  C 101.02 25.51 99.40 22.82 96.49 22.49
  C 84.80 21.18 82.06 34.97 83.05 43.57
  Q 83.13 44.23 82.65 43.76
  C 79.53 40.70 77.75 37.52 72.77 36.73
  Q 69.75 36.25 67.19 38.28
  C 59.53 44.36 63.55 58.41 66.61 65.94
  Q 66.92 66.69 66.22 66.28" stroke="#828284"></path>
<path d="M 119.74 81.70
  C 122.17 79.66 125.01 78.97 128.20 79.40
  C 129.34 79.56 130.23 80.29 131.45 80.51
  A 0.78 0.78 0.0 0 0 132.24 80.17
  L 133.00 78.99
  A 2.02 2.01 27.5 0 0 132.07 76.04
  Q 124.06 72.77 117.57 78.22
  Q 116.38 79.22 117.05 80.63
  L 117.30 81.17
  Q 118.18 83.00 119.74 81.70" stroke="#828284"></path>
<path d="M 113.88 93.78
  C 109.40 98.68 108.85 106.47 111.23 112.51
  C 114.96 121.98 127.49 122.78 135.57 119.43
  A 0.28 0.27 69.1 0 0 135.72 119.09
  L 135.63 118.85
  Q 135.56 118.66 135.37 118.72
  C 127.48 121.28 114.79 119.51 113.45 109.50
  C 112.40 101.63 113.97 94.95 121.85 91.66
  C 129.46 88.49 136.39 89.10 141.93 95.67
  Q 142.04 95.79 142.16 95.69
  L 142.17 95.69
  Q 142.30 95.59 142.21 95.46
  Q 138.38 89.17 131.01 88.41
  C 124.87 87.77 118.06 89.22 113.88 93.78" stroke="#828284"></path>
<path d="M 158.85 103.76
  Q 158.02 103.85 157.21 103.60
  A 0.43 0.43 0.0 0 0 156.67 104.15
  C 157.16 105.58 157.85 107.07 159.46 107.48
  C 166.80 109.35 166.46 96.76 158.56 99.89
  A 0.30 0.30 0.0 0 0 158.56 100.45
  Q 160.54 101.25 159.64 103.19
  Q 159.40 103.70 158.85 103.76" stroke="#828284"></path>
<path d="M 123.15 107.20
  Q 124.04 107.81 123.66 108.81
  Q 122.63 111.56 120.15 110.28
  Q 119.61 110.00 119.66 110.61
  C 120.17 117.40 129.48 116.98 129.63 110.00
  C 129.71 105.91 125.45 103.63 122.01 105.81
  Q 121.53 106.11 122.00 106.42
  L 123.15 107.20" stroke="#828284"></path>
<path d="M 200.52 125.04
  Q 200.54 124.92 200.42 124.89
  Q 191.41 122.78 183.45 123.93
  C 174.92 125.16 165.93 128.36 158.35 132.77
  Q 131.63 148.29 125.41 179.20
  C 123.50 188.69 124.16 200.88 129.49 209.07
  Q 130.17 210.12 129.71 208.95
  Q 125.63 198.51 127.40 187.00
  Q 132.81 151.81 163.55 134.29
  C 174.53 128.04 187.25 123.73 200.02 125.62
  A 0.40 0.39 -80.3 0 0 200.47 125.30
  L 200.52 125.04" stroke="#828284"></path>
<path d="M 202.82 143.48
  A 3.25 3.25 0.0 0 0 199.57 140.23
  A 3.25 3.25 0.0 0 0 196.32 143.48
  A 3.25 3.25 0.0 0 0 199.57 146.73
  A 3.25 3.25 0.0 0 0 202.82 143.48" stroke="#828284"></path>
<path d="M 176.1595 153.4855
  A 3.34 3.15 68.4 0 0 177.8588 149.2204
  A 3.34 3.15 68.4 0 0 173.7005 147.2745
  A 3.34 3.15 68.4 0 0 172.0012 151.5396
  A 3.34 3.15 68.4 0 0 176.1595 153.4855" stroke="#828284"></path>
<path d="M 96.44 208.65
  C 89.69 217.85 80.86 216.09 75.33 206.99
  Q 75.17 206.73 74.97 206.65
  Q 74.73 206.56 74.49 206.58
  A 0.52 0.52 0.0 0 0 74.04 207.18
  C 75.21 214.05 80.79 219.32 87.86 218.28
  C 92.24 217.64 97.06 213.57 97.66 209.14
  Q 98.03 206.48 96.44 208.65" stroke="#828284"></path>
<path d="M 115.26 36.57
  C 119.25 37.31 118.93 44.33 118.12 46.63
  Q 116.46 51.36 115.19 57.77
  Q 115.00 58.75 116.00 58.75
  L 116.76 58.75
  Q 117.72 58.74 118.01 57.83
  Q 120.45 50.13 123.50 43.16
  C 124.94 39.85 126.25 36.13 126.38 33.14
  C 126.68 26.49 122.86 19.88 115.13 23.48
  C 103.61 28.85 104.60 51.11 106.31 61.08
  Q 106.35 61.28 106.53 61.21
  L 108.92 60.40
  Q 109.16 60.32 109.12 60.07
  C 108.42 55.69 106.41 34.92 115.26 36.57" stroke="#828284"></path>
<path d="M 92.34 51.25
  Q 91.27 43.70 91.49 36.07
  Q 91.59 32.78 90.77 35.97
  Q 88.72 43.91 92.04 51.33
  A 0.16 0.15 29.4 0 0 92.34 51.25" stroke="#828284"></path>
<path d="M 136.53 60.73
  A 0.75 0.74 19.6 0 0 137.35 60.34
  C 139.48 56.08 148.54 42.39 154.65 47.11
  A 2.75 2.73 -66.3 0 1 155.67 49.76
  Q 155.04 53.27 152.17 55.42
  Q 147.19 59.14 142.42 62.98
  Q 142.23 63.14 142.42 63.30
  L 144.00 64.55
  Q 144.20 64.71 144.41 64.55
  Q 150.93 59.52 156.98 56.48
  C 161.65 54.13 168.10 48.44 166.34 42.57
  Q 165.27 39.02 161.92 37.96
  C 150.96 34.49 139.15 52.13 135.65 59.99
  Q 135.43 60.49 135.96 60.61
  L 136.53 60.73" stroke="#828284"></path>
<path d="M 135.2702 48.1057
  A 2.96 0.20 121.8 0 0 137.0000 45.6954
  A 2.96 0.20 121.8 0 0 138.3898 43.0743
  A 2.96 0.20 121.8 0 0 136.6600 45.4846
  A 2.96 0.20 121.8 0 0 135.2702 48.1057" stroke="#828284"></path>
<path d="M 70.80 52.59
  Q 70.18 50.31 69.97 52.67
  Q 69.56 57.21 72.26 62.73
  Q 73.07 64.37 73.95 65.47
  A 0.17 0.17 0.0 0 0 74.24 65.32
  L 70.80 52.59" stroke="#828284"></path>
<path d="M 62.30 86.71
  C 59.59 82.67 57.64 79.28 56.24 74.69
  A 0.19 0.19 0.0 0 0 55.87 74.74
  Q 55.66 82.56 61.70 87.27
  A 0.42 0.41 -87.9 0 0 62.30 86.71" stroke="#828284"></path>
<path d="M 48.21 101.20
  Q 48.98 106.34 53.33 109.14
  Q 53.73 109.40 53.49 108.98
  L 48.20 99.85
  Q 47.90 99.34 47.74 99.91
  Q 47.65 100.24 47.90 100.54
  Q 48.15 100.83 48.21 101.20" stroke="#828284"></path>
<path d="M 44.80 130.77
  L 40.16 122.74
  Q 39.61 121.80 39.73 122.88
  Q 40.32 128.20 44.38 131.16
  Q 45.50 131.98 44.80 130.77" stroke="#828284"></path>
<path d="M 33.75 144.33
  L 33.50 144.44
  Q 33.27 144.53 33.35 144.77
  Q 34.56 148.19 36.92 150.83
  Q 36.97 150.89 37.04 150.84
  L 37.25 150.68
  Q 37.35 150.60 37.29 150.49
  L 33.90 144.39
  Q 33.85 144.29 33.75 144.33" stroke="#828284"></path>
<path d="M 30.2274 171.5026
  A 2.68 0.34 63.7 0 0 29.3448 168.9494
  A 2.68 0.34 63.7 0 0 27.8526 166.6974
  A 2.68 0.34 63.7 0 0 28.7352 169.2506
  A 2.68 0.34 63.7 0 0 30.2274 171.5026" stroke="#828284"></path>
<path d="M 87.65 192.94
  Q 87.92 191.67 88.56 189.25
  C 90.02 183.78 83.10 178.09 81.51 185.98
  Q 80.09 193.01 83.94 198.82
  C 89.21 206.78 94.89 191.67 96.16 188.77
  A 1.60 1.59 -71.7 0 0 95.06 186.57
  L 94.45 186.42
  Q 92.07 185.87 90.88 188.00
  L 88.02 193.08
  A 0.20 0.20 0.0 0 1 87.65 192.94" stroke="#828284"></path>
</g>
<path d="M 0.00 0.00
  L 256.00 0.00
  L 256.00 256.00
  L 0.00 256.00
  L 0.00 0.00
  Z
  M 66.22 66.28
  Q 62.64 64.16 61.01 63.75
  C 54.33 62.08 49.94 65.46 49.36 71.87
  C 48.83 77.73 52.24 84.45 55.61 88.93
  A 0.33 0.32 82.7 0 1 55.23 89.43
  C 50.85 87.55 45.80 86.93 43.01 91.55
  C 39.53 97.33 42.36 104.82 46.00 109.94
  Q 46.88 111.16 45.56 110.44
  C 42.05 108.51 38.29 109.88 35.95 112.96
  C 31.30 119.08 34.84 126.69 38.89 132.12
  Q 39.30 132.67 38.61 132.62
  C 37.02 132.50 35.68 131.66 34.21 131.82
  C 30.65 132.20 28.47 134.44 27.45 137.73
  C 25.51 143.95 29.85 150.70 33.44 155.56
  Q 33.81 156.06 33.20 155.96
  C 28.05 155.14 23.79 154.93 22.09 160.40
  C 19.31 169.33 28.11 177.90 33.57 183.58
  Q 33.93 183.96 33.78 184.46
  Q 30.12 196.06 29.76 202.77
  C 28.99 217.01 42.58 226.55 54.47 231.15
  Q 81.75 241.73 110.98 238.78
  C 121.45 237.72 134.57 236.24 132.67 222.15
  A 0.39 0.39 0.0 0 1 133.27 221.77
  C 147.01 230.64 163.65 232.48 179.49 228.97
  C 197.93 224.89 215.27 215.83 226.34 200.12
  C 242.27 177.52 238.63 143.91 216.12 126.55
  C 210.19 121.98 201.55 118.39 194.21 114.69
  C 189.14 112.13 184.07 108.86 179.05 105.97
  Q 178.79 105.82 178.62 106.07
  L 175.28 110.93
  Q 175.14 111.13 175.35 111.27
  Q 187.11 119.23 199.59 124.02
  C 200.63 124.41 201.61 125.43 202.51 125.82
  Q 218.95 132.89 225.70 148.56
  C 235.44 171.20 227.36 196.81 207.10 210.62
  C 185.67 225.24 155.37 230.90 133.08 214.10
  Q 128.36 210.54 123.95 204.38
  C 110.95 186.22 99.39 162.11 98.51 139.45
  A 0.47 0.46 15.7 0 1 99.23 139.05
  Q 100.76 140.04 100.77 140.05
  Q 103.96 143.05 103.55 138.69
  Q 103.34 136.53 100.42 134.82
  C 94.23 131.20 88.37 135.68 86.82 141.79
  Q 86.43 143.33 87.43 144.33
  Q 87.81 144.70 87.47 145.12
  C 78.95 155.60 75.44 169.21 74.79 182.50
  C 74.43 189.74 75.36 201.22 80.28 206.73
  C 84.26 211.19 90.20 210.43 93.55 205.72
  C 97.73 199.85 100.92 193.26 106.02 188.51
  Q 106.79 187.80 107.26 188.74
  Q 114.28 202.82 124.56 215.44
  Q 126.29 217.55 130.27 219.90
  Q 130.73 220.17 130.78 220.70
  Q 131.49 227.35 125.22 229.41
  C 103.05 236.68 77.29 233.41 56.54 225.15
  C 47.93 221.72 37.81 215.73 36.29 205.73
  Q 35.60 201.19 38.00 191.91
  Q 40.65 181.65 44.66 171.88
  A 0.22 0.22 0.0 0 1 45.06 171.85
  C 46.22 173.86 49.66 179.30 51.93 179.91
  A 1.15 1.14 83.8 0 0 53.24 178.28
  Q 49.74 171.41 47.86 163.91
  Q 47.74 163.42 47.91 162.95
  L 50.82 155.02
  Q 51.03 154.44 51.37 154.95
  C 53.98 158.83 55.15 161.64 59.41 165.09
  Q 59.83 165.42 60.28 165.15
  Q 60.83 164.81 61.14 164.22
  Q 61.39 163.75 61.11 163.30
  C 57.97 158.10 55.13 151.50 55.20 145.91
  C 55.24 143.68 56.64 141.64 57.44 139.64
  Q 58.06 138.08 58.66 139.65
  Q 60.94 145.65 65.67 150.80
  Q 66.00 151.16 66.34 151.17
  Q 67.28 151.21 67.50 149.71
  A 1.62 1.61 41.4 0 0 67.45 148.98
  C 65.91 144.19 61.60 130.98 63.75 126.52
  Q 64.82 124.29 65.82 122.21
  Q 66.62 120.53 67.27 122.27
  Q 69.44 128.12 73.52 132.79
  Q 73.85 133.16 74.34 133.25
  Q 75.36 133.44 75.80 132.75
  Q 76.15 132.22 75.83 131.22
  Q 72.94 121.91 71.51 112.23
  A 1.49 1.48 -34.3 0 1 71.69 111.29
  L 75.61 104.34
  A 0.47 0.47 0.0 0 1 76.45 104.37
  Q 79.08 109.99 83.14 114.74
  C 83.94 115.69 85.17 115.91 85.94 114.91
  A 0.96 0.94 -36.4 0 0 86.08 114.02
  Q 83.02 105.57 81.26 96.75
  C 80.80 94.46 84.52 90.08 85.78 88.09
  A 0.48 0.48 0.0 0 1 86.62 88.14
  Q 88.87 93.06 92.26 97.45
  Q 93.49 99.05 94.86 98.34
  A 1.53 1.52 -21.9 0 0 95.62 96.57
  Q 93.85 90.53 92.66 85.00
  Q 92.15 82.67 92.15 80.29
  Q 92.15 79.77 92.44 79.35
  C 97.95 71.43 107.91 66.13 117.22 64.62
  Q 120.80 64.04 122.03 64.63
  Q 132.42 69.61 138.14 79.56
  Q 138.51 80.20 138.94 80.39
  Q 139.81 80.78 140.58 79.90
  A 0.64 0.63 -27.2 0 0 140.73 79.44
  L 140.14 71.56
  Q 140.10 71.12 139.85 70.75
  Q 139.48 70.21 139.47 69.56
  Q 139.47 68.89 140.03 69.25
  C 147.42 73.94 149.88 80.67 153.80 87.50
  A 0.64 0.63 -34.2 0 1 153.64 88.31
  C 148.40 92.43 147.33 99.39 149.76 105.27
  C 152.81 112.65 161.88 113.56 168.38 111.29
  Q 168.52 111.24 168.57 111.16
  Q 168.64 111.05 168.61 110.91
  Q 168.55 110.67 168.30 110.68
  C 161.26 111.13 153.71 110.65 151.99 102.74
  C 148.78 87.97 167.96 81.19 175.68 92.57
  Q 175.79 92.72 175.94 92.62
  L 175.95 92.61
  Q 176.11 92.51 176.01 92.34
  C 173.02 87.10 167.13 84.27 161.06 85.51
  Q 159.99 85.73 159.42 84.79
  L 156.82 80.49
  Q 156.36 79.73 157.22 79.51
  Q 161.14 78.51 164.91 79.89
  A 2.51 2.50 -78.1 0 0 168.27 77.70
  C 168.63 72.05 157.58 73.52 154.67 74.73
  A 0.90 0.90 0.0 0 1 153.54 74.36
  Q 150.72 69.71 146.50 66.31
  Q 146.01 65.91 146.58 65.64
  C 155.79 61.21 172.50 57.42 172.53 43.76
  C 172.57 32.35 159.30 28.87 150.82 33.70
  A 0.67 0.67 0.0 0 1 149.85 33.33
  C 146.89 24.63 138.79 24.36 132.06 29.03
  Q 131.58 29.37 131.50 28.79
  C 128.98 10.60 108.91 14.39 103.13 27.71
  A 0.34 0.33 39.7 0 1 102.54 27.76
  C 101.02 25.51 99.40 22.82 96.49 22.49
  C 84.80 21.18 82.06 34.97 83.05 43.57
  Q 83.13 44.23 82.65 43.76
  C 79.53 40.70 77.75 37.52 72.77 36.73
  Q 69.75 36.25 67.19 38.28
  C 59.53 44.36 63.55 58.41 66.61 65.94
  Q 66.92 66.69 66.22 66.28
  Z
  M 119.74 81.70
  C 122.17 79.66 125.01 78.97 128.20 79.40
  C 129.34 79.56 130.23 80.29 131.45 80.51
  A 0.78 0.78 0.0 0 0 132.24 80.17
  L 133.00 78.99
  A 2.02 2.01 27.5 0 0 132.07 76.04
  Q 124.06 72.77 117.57 78.22
  Q 116.38 79.22 117.05 80.63
  L 117.30 81.17
  Q 118.18 83.00 119.74 81.70
  Z
  M 113.88 93.78
  C 109.40 98.68 108.85 106.47 111.23 112.51
  C 114.96 121.98 127.49 122.78 135.57 119.43
  A 0.28 0.27 69.1 0 0 135.72 119.09
  L 135.63 118.85
  Q 135.56 118.66 135.37 118.72
  C 127.48 121.28 114.79 119.51 113.45 109.50
  C 112.40 101.63 113.97 94.95 121.85 91.66
  C 129.46 88.49 136.39 89.10 141.93 95.67
  Q 142.04 95.79 142.16 95.69
  L 142.17 95.69
  Q 142.30 95.59 142.21 95.46
  Q 138.38 89.17 131.01 88.41
  C 124.87 87.77 118.06 89.22 113.88 93.78
  Z
  M 158.85 103.76
  Q 158.02 103.85 157.21 103.60
  A 0.43 0.43 0.0 0 0 156.67 104.15
  C 157.16 105.58 157.85 107.07 159.46 107.48
  C 166.80 109.35 166.46 96.76 158.56 99.89
  A 0.30 0.30 0.0 0 0 158.56 100.45
  Q 160.54 101.25 159.64 103.19
  Q 159.40 103.70 158.85 103.76
  Z
  M 123.15 107.20
  Q 124.04 107.81 123.66 108.81
  Q 122.63 111.56 120.15 110.28
  Q 119.61 110.00 119.66 110.61
  C 120.17 117.40 129.48 116.98 129.63 110.00
  C 129.71 105.91 125.45 103.63 122.01 105.81
  Q 121.53 106.11 122.00 106.42
  L 123.15 107.20
  Z
  M 200.52 125.04
  Q 200.54 124.92 200.42 124.89
  Q 191.41 122.78 183.45 123.93
  C 174.92 125.16 165.93 128.36 158.35 132.77
  Q 131.63 148.29 125.41 179.20
  C 123.50 188.69 124.16 200.88 129.49 209.07
  Q 130.17 210.12 129.71 208.95
  Q 125.63 198.51 127.40 187.00
  Q 132.81 151.81 163.55 134.29
  C 174.53 128.04 187.25 123.73 200.02 125.62
  A 0.40 0.39 -80.3 0 0 200.47 125.30
  L 200.52 125.04
  Z
  M 202.82 143.48
  A 3.25 3.25 0.0 0 0 199.57 140.23
  A 3.25 3.25 0.0 0 0 196.32 143.48
  A 3.25 3.25 0.0 0 0 199.57 146.73
  A 3.25 3.25 0.0 0 0 202.82 143.48
  Z
  M 176.1595 153.4855
  A 3.34 3.15 68.4 0 0 177.8588 149.2204
  A 3.34 3.15 68.4 0 0 173.7005 147.2745
  A 3.34 3.15 68.4 0 0 172.0012 151.5396
  A 3.34 3.15 68.4 0 0 176.1595 153.4855
  Z
  M 96.44 208.65
  C 89.69 217.85 80.86 216.09 75.33 206.99
  Q 75.17 206.73 74.97 206.65
  Q 74.73 206.56 74.49 206.58
  A 0.52 0.52 0.0 0 0 74.04 207.18
  C 75.21 214.05 80.79 219.32 87.86 218.28
  C 92.24 217.64 97.06 213.57 97.66 209.14
  Q 98.03 206.48 96.44 208.65
  Z" fill="#ffffff"></path>
<path d="M 66.61 65.94
  C 63.55 58.41 59.53 44.36 67.19 38.28
  Q 69.75 36.25 72.77 36.73
  C 77.75 37.52 79.53 40.70 82.65 43.76
  Q 83.13 44.23 83.05 43.57
  C 82.06 34.97 84.80 21.18 96.49 22.49
  C 99.40 22.82 101.02 25.51 102.54 27.76
  A 0.34 0.33 39.7 0 0 103.13 27.71
  C 108.91 14.39 128.98 10.60 131.50 28.79
  Q 131.58 29.37 132.06 29.03
  C 138.79 24.36 146.89 24.63 149.85 33.33
  A 0.67 0.67 0.0 0 0 150.82 33.70
  C 159.30 28.87 172.57 32.35 172.53 43.76
  C 172.50 57.42 155.79 61.21 146.58 65.64
  Q 146.01 65.91 146.50 66.31
  Q 150.72 69.71 153.54 74.36
  A 0.90 0.90 0.0 0 0 154.67 74.73
  C 157.58 73.52 168.63 72.05 168.27 77.70
  A 2.51 2.50 -78.1 0 1 164.91 79.89
  Q 161.14 78.51 157.22 79.51
  Q 156.36 79.73 156.82 80.49
  L 159.42 84.79
  Q 159.99 85.73 161.06 85.51
  C 167.13 84.27 173.02 87.10 176.01 92.34
  Q 176.11 92.51 175.95 92.61
  L 175.94 92.62
  Q 175.79 92.72 175.68 92.57
  C 167.96 81.19 148.78 87.97 151.99 102.74
  C 153.71 110.65 161.26 111.13 168.30 110.68
  Q 168.55 110.67 168.61 110.91
  Q 168.64 111.05 168.57 111.16
  Q 168.52 111.24 168.38 111.29
  C 161.88 113.56 152.81 112.65 149.76 105.27
  C 147.33 99.39 148.40 92.43 153.64 88.31
  A 0.64 0.63 -34.2 0 0 153.80 87.50
  C 149.88 80.67 147.42 73.94 140.03 69.25
  Q 139.47 68.89 139.47 69.56
  Q 139.48 70.21 139.85 70.75
  Q 140.10 71.12 140.14 71.56
  L 140.73 79.44
  A 0.64 0.63 -27.2 0 1 140.58 79.90
  Q 139.81 80.78 138.94 80.39
  Q 138.51 80.20 138.14 79.56
  Q 132.42 69.61 122.03 64.63
  Q 120.80 64.04 117.22 64.62
  C 107.91 66.13 97.95 71.43 92.44 79.35
  Q 92.15 79.77 92.15 80.29
  Q 92.15 82.67 92.66 85.00
  Q 93.85 90.53 95.62 96.57
  A 1.53 1.52 -21.9 0 1 94.86 98.34
  Q 93.49 99.05 92.26 97.45
  Q 88.87 93.06 86.62 88.14
  A 0.48 0.48 0.0 0 0 85.78 88.09
  C 84.52 90.08 80.80 94.46 81.26 96.75
  Q 83.02 105.57 86.08 114.02
  A 0.96 0.94 -36.4 0 1 85.94 114.91
  C 85.17 115.91 83.94 115.69 83.14 114.74
  Q 79.08 109.99 76.45 104.37
  A 0.47 0.47 0.0 0 0 75.61 104.34
  L 71.69 111.29
  A 1.49 1.48 -34.3 0 0 71.51 112.23
  Q 72.94 121.91 75.83 131.22
  Q 76.15 132.22 75.80 132.75
  Q 75.36 133.44 74.34 133.25
  Q 73.85 133.16 73.52 132.79
  Q 69.44 128.12 67.27 122.27
  Q 66.62 120.53 65.82 122.21
  Q 64.82 124.29 63.75 126.52
  C 61.60 130.98 65.91 144.19 67.45 148.98
  A 1.62 1.61 41.4 0 1 67.50 149.71
  Q 67.28 151.21 66.34 151.17
  Q 66.00 151.16 65.67 150.80
  Q 60.94 145.65 58.66 139.65
  Q 58.06 138.08 57.44 139.64
  C 56.64 141.64 55.24 143.68 55.20 145.91
  C 55.13 151.50 57.97 158.10 61.11 163.30
  Q 61.39 163.75 61.14 164.22
  Q 60.83 164.81 60.28 165.15
  Q 59.83 165.42 59.41 165.09
  C 55.15 161.64 53.98 158.83 51.37 154.95
  Q 51.03 154.44 50.82 155.02
  L 47.91 162.95
  Q 47.74 163.42 47.86 163.91
  Q 49.74 171.41 53.24 178.28
  A 1.15 1.14 83.8 0 1 51.93 179.91
  C 49.66 179.30 46.22 173.86 45.06 171.85
  A 0.22 0.22 0.0 0 0 44.66 171.88
  Q 40.65 181.65 38.00 191.91
  Q 35.60 201.19 36.29 205.73
  C 37.81 215.73 47.93 221.72 56.54 225.15
  C 77.29 233.41 103.05 236.68 125.22 229.41
  Q 131.49 227.35 130.78 220.70
  Q 130.73 220.17 130.27 219.90
  Q 126.29 217.55 124.56 215.44
  Q 114.28 202.82 107.26 188.74
  Q 106.79 187.80 106.02 188.51
  C 100.92 193.26 97.73 199.85 93.55 205.72
  C 90.20 210.43 84.26 211.19 80.28 206.73
  C 75.36 201.22 74.43 189.74 74.79 182.50
  C 75.44 169.21 78.95 155.60 87.47 145.12
  Q 87.81 144.70 87.43 144.33
  Q 86.43 143.33 86.82 141.79
  C 88.37 135.68 94.23 131.20 100.42 134.82
  Q 103.34 136.53 103.55 138.69
  Q 103.96 143.05 100.77 140.05
  Q 100.76 140.04 99.23 139.05
  A 0.47 0.46 15.7 0 0 98.51 139.45
  C 99.39 162.11 110.95 186.22 123.95 204.38
  Q 128.36 210.54 133.08 214.10
  C 155.37 230.90 185.67 225.24 207.10 210.62
  C 227.36 196.81 235.44 171.20 225.70 148.56
  Q 218.95 132.89 202.51 125.82
  C 201.61 125.43 200.63 124.41 199.59 124.02
  Q 187.11 119.23 175.35 111.27
  Q 175.14 111.13 175.28 110.93
  L 178.62 106.07
  Q 178.79 105.82 179.05 105.97
  C 184.07 108.86 189.14 112.13 194.21 114.69
  C 201.55 118.39 210.19 121.98 216.12 126.55
  C 238.63 143.91 242.27 177.52 226.34 200.12
  C 215.27 215.83 197.93 224.89 179.49 228.97
  C 163.65 232.48 147.01 230.64 133.27 221.77
  A 0.39 0.39 0.0 0 0 132.67 222.15
  C 134.57 236.24 121.45 237.72 110.98 238.78
  Q 81.75 241.73 54.47 231.15
  C 42.58 226.55 28.99 217.01 29.76 202.77
  Q 30.12 196.06 33.78 184.46
  Q 33.93 183.96 33.57 183.58
  C 28.11 177.90 19.31 169.33 22.09 160.40
  C 23.79 154.93 28.05 155.14 33.20 155.96
  Q 33.81 156.06 33.44 155.56
  C 29.85 150.70 25.51 143.95 27.45 137.73
  C 28.47 134.44 30.65 132.20 34.21 131.82
  C 35.68 131.66 37.02 132.50 38.61 132.62
  Q 39.30 132.67 38.89 132.12
  C 34.84 126.69 31.30 119.08 35.95 112.96
  C 38.29 109.88 42.05 108.51 45.56 110.44
  Q 46.88 111.16 46.00 109.94
  C 42.36 104.82 39.53 97.33 43.01 91.55
  C 45.80 86.93 50.85 87.55 55.23 89.43
  A 0.33 0.32 82.7 0 0 55.61 88.93
  C 52.24 84.45 48.83 77.73 49.36 71.87
  C 49.94 65.46 54.33 62.08 61.01 63.75
  Q 62.64 64.16 66.22 66.28
  Q 66.92 66.69 66.61 65.94
  Z
  M 115.26 36.57
  C 119.25 37.31 118.93 44.33 118.12 46.63
  Q 116.46 51.36 115.19 57.77
  Q 115.00 58.75 116.00 58.75
  L 116.76 58.75
  Q 117.72 58.74 118.01 57.83
  Q 120.45 50.13 123.50 43.16
  C 124.94 39.85 126.25 36.13 126.38 33.14
  C 126.68 26.49 122.86 19.88 115.13 23.48
  C 103.61 28.85 104.60 51.11 106.31 61.08
  Q 106.35 61.28 106.53 61.21
  L 108.92 60.40
  Q 109.16 60.32 109.12 60.07
  C 108.42 55.69 106.41 34.92 115.26 36.57
  Z
  M 92.34 51.25
  Q 91.27 43.70 91.49 36.07
  Q 91.59 32.78 90.77 35.97
  Q 88.72 43.91 92.04 51.33
  A 0.16 0.15 29.4 0 0 92.34 51.25
  Z
  M 136.53 60.73
  A 0.75 0.74 19.6 0 0 137.35 60.34
  C 139.48 56.08 148.54 42.39 154.65 47.11
  A 2.75 2.73 -66.3 0 1 155.67 49.76
  Q 155.04 53.27 152.17 55.42
  Q 147.19 59.14 142.42 62.98
  Q 142.23 63.14 142.42 63.30
  L 144.00 64.55
  Q 144.20 64.71 144.41 64.55
  Q 150.93 59.52 156.98 56.48
  C 161.65 54.13 168.10 48.44 166.34 42.57
  Q 165.27 39.02 161.92 37.96
  C 150.96 34.49 139.15 52.13 135.65 59.99
  Q 135.43 60.49 135.96 60.61
  L 136.53 60.73
  Z
  M 135.2702 48.1057
  A 2.96 0.20 121.8 0 0 137.0000 45.6954
  A 2.96 0.20 121.8 0 0 138.3898 43.0743
  A 2.96 0.20 121.8 0 0 136.6600 45.4846
  A 2.96 0.20 121.8 0 0 135.2702 48.1057
  Z
  M 70.80 52.59
  Q 70.18 50.31 69.97 52.67
  Q 69.56 57.21 72.26 62.73
  Q 73.07 64.37 73.95 65.47
  A 0.17 0.17 0.0 0 0 74.24 65.32
  L 70.80 52.59
  Z
  M 62.30 86.71
  C 59.59 82.67 57.64 79.28 56.24 74.69
  A 0.19 0.19 0.0 0 0 55.87 74.74
  Q 55.66 82.56 61.70 87.27
  A 0.42 0.41 -87.9 0 0 62.30 86.71
  Z
  M 48.21 101.20
  Q 48.98 106.34 53.33 109.14
  Q 53.73 109.40 53.49 108.98
  L 48.20 99.85
  Q 47.90 99.34 47.74 99.91
  Q 47.65 100.24 47.90 100.54
  Q 48.15 100.83 48.21 101.20
  Z
  M 44.80 130.77
  L 40.16 122.74
  Q 39.61 121.80 39.73 122.88
  Q 40.32 128.20 44.38 131.16
  Q 45.50 131.98 44.80 130.77
  Z
  M 33.75 144.33
  L 33.50 144.44
  Q 33.27 144.53 33.35 144.77
  Q 34.56 148.19 36.92 150.83
  Q 36.97 150.89 37.04 150.84
  L 37.25 150.68
  Q 37.35 150.60 37.29 150.49
  L 33.90 144.39
  Q 33.85 144.29 33.75 144.33
  Z
  M 30.2274 171.5026
  A 2.68 0.34 63.7 0 0 29.3448 168.9494
  A 2.68 0.34 63.7 0 0 27.8526 166.6974
  A 2.68 0.34 63.7 0 0 28.7352 169.2506
  A 2.68 0.34 63.7 0 0 30.2274 171.5026
  Z
  M 87.65 192.94
  Q 87.92 191.67 88.56 189.25
  C 90.02 183.78 83.10 178.09 81.51 185.98
  Q 80.09 193.01 83.94 198.82
  C 89.21 206.78 94.89 191.67 96.16 188.77
  A 1.60 1.59 -71.7 0 0 95.06 186.57
  L 94.45 186.42
  Q 92.07 185.87 90.88 188.00
  L 88.02 193.08
  A 0.20 0.20 0.0 0 1 87.65 192.94
  Z" fill="#050409"></path>
<path d="M 115.26 36.57
  C 106.41 34.92 108.42 55.69 109.12 60.07
  Q 109.16 60.32 108.92 60.40
  L 106.53 61.21
  Q 106.35 61.28 106.31 61.08
  C 104.60 51.11 103.61 28.85 115.13 23.48
  C 122.86 19.88 126.68 26.49 126.38 33.14
  C 126.25 36.13 124.94 39.85 123.50 43.16
  Q 120.45 50.13 118.01 57.83
  Q 117.72 58.74 116.76 58.75
  L 116.00 58.75
  Q 115.00 58.75 115.19 57.77
  Q 116.46 51.36 118.12 46.63
  C 118.93 44.33 119.25 37.31 115.26 36.57
  Z" fill="#ffffff"></path>
<path d="M 92.34 51.25
  A 0.16 0.15 29.4 0 1 92.04 51.33
  Q 88.72 43.91 90.77 35.97
  Q 91.59 32.78 91.49 36.07
  Q 91.27 43.70 92.34 51.25
  Z" fill="#ffffff"></path>
<path d="M 136.53 60.73
  L 135.96 60.61
  Q 135.43 60.49 135.65 59.99
  C 139.15 52.13 150.96 34.49 161.92 37.96
  Q 165.27 39.02 166.34 42.57
  C 168.10 48.44 161.65 54.13 156.98 56.48
  Q 150.93 59.52 144.41 64.55
  Q 144.20 64.71 144.00 64.55
  L 142.42 63.30
  Q 142.23 63.14 142.42 62.98
  Q 147.19 59.14 152.17 55.42
  Q 155.04 53.27 155.67 49.76
  A 2.75 2.73 -66.3 0 0 154.65 47.11
  C 148.54 42.39 139.48 56.08 137.35 60.34
  A 0.75 0.74 19.6 0 1 136.53 60.73
  Z" fill="#ffffff"></path>
<ellipse ry="0.20" rx="2.96" transform="translate(136.83,45.59) rotate(121.8)" cy="0.00" cx="0.00" fill="#ffffff"></ellipse>
<path d="M 70.80 52.59
  L 74.24 65.32
  A 0.17 0.17 0.0 0 1 73.95 65.47
  Q 73.07 64.37 72.26 62.73
  Q 69.56 57.21 69.97 52.67
  Q 70.18 50.31 70.80 52.59
  Z" fill="#ffffff"></path>
<path d="M 56.24 74.69
  C 57.64 79.28 59.59 82.67 62.30 86.71
  A 0.42 0.41 -87.9 0 1 61.70 87.27
  Q 55.66 82.56 55.87 74.74
  A 0.19 0.19 0.0 0 1 56.24 74.69
  Z" fill="#ffffff"></path>
<path d="M 128.20 79.40
  C 125.01 78.97 122.17 79.66 119.74 81.70
  Q 118.18 83.00 117.30 81.17
  L 117.05 80.63
  Q 116.38 79.22 117.57 78.22
  Q 124.06 72.77 132.07 76.04
  A 2.02 2.01 27.5 0 1 133.00 78.99
  L 132.24 80.17
  A 0.78 0.78 0.0 0 1 131.45 80.51
  C 130.23 80.29 129.34 79.56 128.20 79.40
  Z" fill="#050409"></path>
<path d="M 111.23 112.51
  C 108.85 106.47 109.40 98.68 113.88 93.78
  C 118.06 89.22 124.87 87.77 131.01 88.41
  Q 138.38 89.17 142.21 95.46
  Q 142.30 95.59 142.17 95.69
  L 142.16 95.69
  Q 142.04 95.79 141.93 95.67
  C 136.39 89.10 129.46 88.49 121.85 91.66
  C 113.97 94.95 112.40 101.63 113.45 109.50
  C 114.79 119.51 127.48 121.28 135.37 118.72
  Q 135.56 118.66 135.63 118.85
  L 135.72 119.09
  A 0.28 0.27 69.1 0 1 135.57 119.43
  C 127.49 122.78 114.96 121.98 111.23 112.51
  Z" fill="#050409"></path>
<path d="M 47.90 100.54
  Q 47.65 100.24 47.74 99.91
  Q 47.90 99.34 48.20 99.85
  L 53.49 108.98
  Q 53.73 109.40 53.33 109.14
  Q 48.98 106.34 48.21 101.20
  Q 48.15 100.83 47.90 100.54
  Z" fill="#ffffff"></path>
<path d="M 159.64 103.19
  Q 160.54 101.25 158.56 100.45
  A 0.30 0.30 0.0 0 1 158.56 99.89
  C 166.46 96.76 166.80 109.35 159.46 107.48
  C 157.85 107.07 157.16 105.58 156.67 104.15
  A 0.43 0.43 0.0 0 1 157.21 103.60
  Q 158.02 103.85 158.85 103.76
  Q 159.40 103.70 159.64 103.19
  Z" fill="#050409"></path>
<path d="M 123.15 107.20
  L 122.00 106.42
  Q 121.53 106.11 122.01 105.81
  C 125.45 103.63 129.71 105.91 129.63 110.00
  C 129.48 116.98 120.17 117.40 119.66 110.61
  Q 119.61 110.00 120.15 110.28
  Q 122.63 111.56 123.66 108.81
  Q 124.04 107.81 123.15 107.20
  Z" fill="#050409"></path>
<path d="M 40.16 122.74
  L 44.80 130.77
  Q 45.50 131.98 44.38 131.16
  Q 40.32 128.20 39.73 122.88
  Q 39.61 121.80 40.16 122.74
  Z" fill="#ffffff"></path>
<path d="M 200.52 125.04
  L 200.47 125.30
  A 0.40 0.39 -80.3 0 1 200.02 125.62
  C 187.25 123.73 174.53 128.04 163.55 134.29
  Q 132.81 151.81 127.40 187.00
  Q 125.63 198.51 129.71 208.95
  Q 130.17 210.12 129.49 209.07
  C 124.16 200.88 123.50 188.69 125.41 179.20
  Q 131.63 148.29 158.35 132.77
  C 165.93 128.36 174.92 125.16 183.45 123.93
  Q 191.41 122.78 200.42 124.89
  Q 200.54 124.92 200.52 125.04
  Z" fill="#050409"></path>
<circle r="3.25" cy="143.48" cx="199.57" fill="#050409"></circle>
<path d="M 33.90 144.39
  L 37.29 150.49
  Q 37.35 150.60 37.25 150.68
  L 37.04 150.84
  Q 36.97 150.89 36.92 150.83
  Q 34.56 148.19 33.35 144.77
  Q 33.27 144.53 33.50 144.44
  L 33.75 144.33
  Q 33.85 144.29 33.90 144.39
  Z" fill="#ffffff"></path>
<ellipse ry="3.15" rx="3.34" transform="translate(174.93,150.38) rotate(68.4)" cy="0.00" cx="0.00" fill="#050409"></ellipse>
<ellipse ry="0.34" rx="2.68" transform="translate(29.04,169.10) rotate(63.7)" cy="0.00" cx="0.00" fill="#ffffff"></ellipse>
<path d="M 88.02 193.08
  L 90.88 188.00
  Q 92.07 185.87 94.45 186.42
  L 95.06 186.57
  A 1.60 1.59 -71.7 0 1 96.16 188.77
  C 94.89 191.67 89.21 206.78 83.94 198.82
  Q 80.09 193.01 81.51 185.98
  C 83.10 178.09 90.02 183.78 88.56 189.25
  Q 87.92 191.67 87.65 192.94
  A 0.20 0.20 0.0 0 0 88.02 193.08
  Z" fill="#ffffff"></path>
<path d="M 75.33 206.99
  C 80.86 216.09 89.69 217.85 96.44 208.65
  Q 98.03 206.48 97.66 209.14
  C 97.06 213.57 92.24 217.64 87.86 218.28
  C 80.79 219.32 75.21 214.05 74.04 207.18
  A 0.52 0.52 0.0 0 1 74.49 206.58
  Q 74.73 206.56 74.97 206.65
  Q 75.17 206.73 75.33 206.99
  Z" fill="#050409"></path>
</svg>
