<svg viewBox="0.00 0.00 180.00 180.00" version="1.1" xmlns="http://www.w3.org/2000/svg">
<path d="M 90.36 0.00
  L 92.01 0.00
  Q 107.26 4.74 122.47 9.41
  C 131.61 12.23 137.01 15.70 137.55 25.65
  C 137.68 28.20 137.56 32.32 139.83 33.70
  Q 155.18 42.98 170.50 52.26
  Q 179.64 57.80 179.64 69.51
  Q 179.64 87.75 179.45 106.00
  C 179.27 122.98 156.70 122.36 157.25 136.50
  Q 157.48 142.46 157.11 144.00
  C 154.88 153.09 148.54 155.26 140.87 158.40
  C 134.80 160.88 135.04 166.51 131.18 170.96
  Q 126.28 176.61 118.75 177.52
  Q 111.59 178.38 93.96 179.60
  C 89.76 179.89 86.24 178.97 82.26 178.01
  Q 71.47 175.41 60.60 173.06
  Q 60.09 172.95 59.65 173.24
  Q 59.26 173.50 58.90 173.81
  C 53.38 178.43 44.72 176.69 42.42 169.62
  C 40.91 165.00 43.66 160.02 47.98 158.26
  C 53.84 155.87 59.22 158.46 61.80 164.18
  Q 62.24 165.16 63.28 165.40
  L 86.68 170.74
  A 0.20 0.19 -83.1 0 0 86.92 170.55
  L 86.91 132.55
  A 0.36 0.36 0.0 0 0 86.55 132.19
  L 55.98 132.18
  Q 55.31 132.18 54.78 132.58
  L 36.62 146.31
  Q 36.22 146.60 36.23 147.10
  C 36.24 148.68 36.44 150.07 35.98 151.48
  C 31.86 164.31 11.77 157.74 16.95 145.62
  C 19.20 140.34 24.68 138.55 30.18 140.44
  Q 30.67 140.62 31.09 140.30
  L 51.56 124.80
  Q 52.22 124.30 53.05 124.30
  L 86.56 124.31
  A 0.37 0.37 0.0 0 0 86.93 123.94
  L 86.91 108.61
  Q 86.91 108.07 86.36 108.07
  L 48.50 108.06
  A 1.71 1.66 -61.3 0 0 47.56 108.35
  L 30.31 120.14
  Q 29.86 120.45 29.80 120.99
  C 29.69 122.07 29.93 123.34 29.70 124.26
  C 27.10 134.34 12.19 134.39 10.05 123.98
  Q 9.32 120.39 11.20 117.49
  Q 15.79 110.43 24.38 113.84
  A 0.93 0.92 38.2 0 0 25.26 113.74
  L 44.11 100.84
  Q 44.99 100.23 46.06 100.23
  L 86.70 100.24
  Q 86.92 100.24 86.92 100.02
  L 86.92 90.70
  Q 86.92 90.48 86.70 90.48
  L 19.71 90.48
  A 1.07 1.05 16.2 0 0 18.82 90.96
  C 13.65 98.81 2.32 97.25 0.00 87.90
  L 0.00 84.96
  C 2.63 75.83 13.91 73.83 18.86 82.04
  A 0.79 0.78 74.2 0 0 19.53 82.42
  L 86.45 82.41
  Q 86.81 82.41 86.81 82.05
  L 86.84 72.78
  Q 86.84 72.46 86.52 72.46
  L 52.03 72.48
  A 5.35 5.19 51.9 0 1 50.63 72.29
  L 29.53 66.33
  A 0.97 0.96 34.9 0 0 28.72 66.47
  Q 27.44 67.40 26.07 68.18
  C 20.24 71.49 12.15 67.65 11.42 60.94
  C 10.90 56.01 14.52 51.28 19.49 50.57
  C 26.14 49.63 28.93 52.72 31.49 58.20
  Q 31.70 58.65 32.18 58.78
  C 39.72 60.72 46.21 63.16 54.71 64.08
  C 64.97 65.19 76.00 64.55 86.42 64.58
  A 0.41 0.41 0.0 0 0 86.83 64.17
  L 86.83 54.70
  Q 86.83 54.10 86.23 54.10
  Q 71.35 54.12 56.52 54.09
  Q 54.22 54.08 52.17 53.05
  Q 41.62 47.76 31.15 42.42
  Q 30.71 42.20 30.28 42.44
  C 24.48 45.72 15.88 43.70 14.93 36.23
  C 13.10 21.83 34.71 21.66 34.57 34.54
  A 0.94 0.91 13.8 0 0 35.08 35.36
  Q 44.85 40.28 54.49 45.16
  Q 56.48 46.17 58.71 46.17
  Q 72.61 46.18 86.40 46.17
  A 0.42 0.41 -0.0 0 0 86.82 45.76
  L 86.82 10.21
  Q 86.82 9.62 86.26 9.80
  L 61.23 17.78
  Q 60.64 17.96 60.51 18.56
  C 58.77 26.25 50.10 28.70 44.09 24.12
  C 40.22 21.17 39.63 15.53 42.21 11.72
  C 45.73 6.53 52.89 6.35 57.71 10.17
  A 0.63 0.63 0.0 0 0 58.31 10.28
  L 90.36 0.00
  Z
  M 114.58 140.23
  A 2.98 2.98 0.0 0 1 114.22 144.52
  L 95.91 159.34
  Q 95.50 159.67 95.50 160.20
  L 95.50 170.96
  Q 95.50 171.68 96.22 171.61
  Q 106.49 170.59 116.09 169.66
  C 125.93 168.71 125.18 163.58 129.31 157.31
  C 132.79 152.03 138.57 151.00 144.02 148.28
  C 146.66 146.96 148.72 144.86 148.74 141.99
  Q 148.79 134.49 149.17 131.11
  Q 149.23 130.56 148.79 130.23
  L 129.93 115.87
  A 2.85 2.84 -50.5 0 1 129.53 111.71
  L 130.31 110.83
  A 4.24 4.24 0.0 0 1 136.03 110.28
  L 153.04 123.23
  A 0.64 0.63 -49.4 0 0 153.87 123.16
  C 157.54 119.28 163.15 115.98 167.50 112.79
  Q 168.96 111.72 169.82 110.50
  C 172.38 106.92 171.36 97.41 171.28 92.92
  Q 171.27 92.36 170.82 92.01
  L 151.20 77.07
  A 3.11 3.10 -52.3 0 1 150.64 72.67
  L 151.19 71.97
  A 4.16 4.15 37.8 0 1 156.98 71.24
  L 170.62 81.63
  Q 171.18 82.06 171.21 81.35
  Q 171.54 74.91 171.28 68.47
  C 171.09 63.79 169.38 60.79 165.51 58.53
  Q 159.90 55.26 154.08 51.74
  A 0.83 0.83 0.0 0 0 153.07 51.86
  C 146.67 58.04 138.15 63.62 137.63 73.50
  C 137.45 76.80 137.05 84.12 139.08 85.67
  Q 147.34 91.94 156.29 98.84
  A 3.08 3.08 0.0 0 1 156.78 103.24
  L 156.21 103.93
  A 4.17 4.17 0.0 0 1 150.47 104.59
  L 134.10 92.13
  A 0.55 0.54 -48.4 0 0 133.39 92.18
  Q 126.46 98.99 119.71 105.95
  C 115.00 110.81 115.80 118.63 120.84 122.89
  Q 128.07 129.00 136.52 136.13
  A 3.23 3.22 37.3 0 1 137.10 140.41
  L 136.59 141.15
  A 3.84 3.84 0.0 0 1 131.02 141.98
  Q 122.66 135.29 115.40 129.09
  C 108.32 123.05 105.86 113.19 110.21 104.96
  Q 111.71 102.11 116.88 96.97
  Q 122.86 91.03 128.89 85.11
  Q 129.26 84.75 129.24 84.24
  Q 128.91 75.48 129.10 73.11
  C 130.04 60.71 137.71 55.23 145.87 47.42
  Q 146.26 47.05 145.80 46.77
  C 140.82 43.81 135.58 41.31 131.73 36.86
  Q 131.30 36.37 130.79 36.76
  L 113.39 50.12
  A 4.01 4.00 52.1 0 1 107.81 49.42
  L 107.15 48.59
  A 3.12 3.11 52.1 0 1 107.69 44.19
  L 128.50 28.23
  A 1.44 1.39 76.6 0 0 129.04 27.32
  C 129.91 21.17 126.41 19.03 120.94 17.34
  Q 108.45 13.49 95.94 9.69
  A 0.34 0.34 0.0 0 0 95.50 10.01
  L 95.50 77.28
  A 0.32 0.32 0.0 0 0 96.02 77.53
  L 113.57 63.84
  A 4.00 4.00 0.0 0 1 119.17 64.53
  L 119.78 65.31
  A 3.18 3.18 0.0 0 1 119.23 69.78
  L 95.91 87.93
  A 1.05 1.03 71.7 0 0 95.50 88.76
  L 95.50 148.40
  A 0.37 0.37 0.0 0 0 96.10 148.69
  L 108.15 138.93
  A 4.13 4.13 0.0 0 1 113.85 139.41
  L 114.58 140.23
  Z
  M 55.4279 17.1021
  A 4.79 4.45 1.7 0 0 50.7720 12.5120
  A 4.79 4.45 1.7 0 0 45.8521 16.8179
  A 4.79 4.45 1.7 0 0 50.5080 21.4080
  A 4.79 4.45 1.7 0 0 55.4279 17.1021
  Z
  M 29.3991 34.4788
  A 4.75 4.51 -1.1 0 0 24.5634 30.0608
  A 4.75 4.51 -1.1 0 0 19.9009 34.6612
  A 4.75 4.51 -1.1 0 0 24.7366 39.0792
  A 4.75 4.51 -1.1 0 0 29.3991 34.4788
  Z
  M 26.1597 59.8894
  A 4.72 4.50 0.6 0 0 21.4871 55.3402
  A 4.72 4.50 0.6 0 0 16.7203 59.7906
  A 4.72 4.50 0.6 0 0 21.3929 64.3398
  A 4.72 4.50 0.6 0 0 26.1597 59.8894
  Z
  M 14.69 86.44
  A 4.64 4.64 0.0 0 0 10.05 81.80
  A 4.64 4.64 0.0 0 0 5.41 86.44
  A 4.64 4.64 0.0 0 0 10.05 91.08
  A 4.64 4.64 0.0 0 0 14.69 86.44
  Z
  M 24.6265 122.1380
  A 4.74 4.53 -2.2 0 0 19.7161 117.7933
  A 4.74 4.53 -2.2 0 0 15.1535 122.5020
  A 4.74 4.53 -2.2 0 0 20.0639 126.8467
  A 4.74 4.53 -2.2 0 0 24.6265 122.1380
  Z
  M 30.9699 149.0851
  A 4.75 4.43 -0.3 0 0 26.1968 144.6801
  A 4.75 4.43 -0.3 0 0 21.4701 149.1349
  A 4.75 4.43 -0.3 0 0 26.2432 153.5399
  A 4.75 4.43 -0.3 0 0 30.9699 149.0851
  Z
  M 56.67 166.93
  A 4.63 4.63 0.0 0 0 52.04 162.30
  A 4.63 4.63 0.0 0 0 47.41 166.93
  A 4.63 4.63 0.0 0 0 52.04 171.56
  A 4.63 4.63 0.0 0 0 56.67 166.93
  Z" fill="#000000"></path>
</svg>
