<svg viewBox="0.00 0.00 512.00 512.00" version="1.1" xmlns="http://www.w3.org/2000/svg">
<g stroke-linecap="butt" fill="none" stroke-width="2.00">
<path d="M 124.83 200.00
  A 0.47 0.47 0.0 0 0 125.30 199.53
  L 125.29 125.77
  A 0.47 0.47 0.0 0 1 125.76 125.30
  L 199.54 125.30
  A 0.47 0.47 0.0 0 0 200.01 124.83
  L 199.98 88.50
  A 0.47 0.47 0.0 0 0 199.51 88.03
  L 88.47 87.99
  A 0.47 0.47 0.0 0 0 88.00 88.46
  L 88.00 199.53
  A 0.47 0.47 0.0 0 0 88.47 200.00
  L 124.83 200.00" stroke="#2a8051"></path>
<path d="M 312.00 124.82
  A 0.48 0.48 0.0 0 0 312.48 125.30
  L 386.22 125.30
  A 0.48 0.48 0.0 0 1 386.70 125.78
  L 386.69 199.52
  A 0.48 0.48 0.0 0 0 387.17 200.00
  L 423.52 199.99
  A 0.48 0.48 0.0 0 0 424.00 199.51
  L 423.99 88.51
  A 0.48 0.48 0.0 0 0 423.51 88.03
  L 312.48 87.99
  A 0.48 0.48 0.0 0 0 312.00 88.47
  L 312.00 124.82" stroke="#2a8051"></path>
<path d="M 312.10 256.00
  A 56.11 56.11 0.0 0 0 255.99 199.89
  A 56.11 56.11 0.0 0 0 199.88 256.00
  A 56.11 56.11 0.0 0 0 255.99 312.11
  A 56.11 56.11 0.0 0 0 312.10 256.00" stroke="#2a8051"></path>
<path d="M 200.00 387.09
  A 0.40 0.40 0.0 0 0 199.60 386.69
  L 125.69 386.70
  A 0.40 0.40 0.0 0 1 125.29 386.30
  L 125.30 312.41
  A 0.40 0.40 0.0 0 0 124.90 312.01
  L 88.40 312.00
  A 0.40 0.40 0.0 0 0 88.00 312.40
  L 88.00 423.60
  A 0.40 0.40 0.0 0 0 88.40 424.00
  L 199.60 423.99
  A 0.40 0.40 0.0 0 0 200.00 423.59
  L 200.00 387.09" stroke="#2a8051"></path>
<path d="M 387.18 311.98
  A 0.48 0.48 0.0 0 0 386.70 312.46
  L 386.70 386.22
  A 0.48 0.48 0.0 0 1 386.22 386.70
  L 312.48 386.69
  A 0.48 0.48 0.0 0 0 312.00 387.17
  L 312.00 423.52
  A 0.48 0.48 0.0 0 0 312.48 424.00
  L 423.52 424.00
  A 0.48 0.48 0.0 0 0 424.00 423.52
  L 423.99 312.53
  A 0.48 0.48 0.0 0 0 423.51 312.05
  L 387.18 311.98" stroke="#2a8051"></path>
</g>
<path d="M 0.00 0.00
  L 512.00 0.00
  L 512.00 512.00
  L 0.00 512.00
  L 0.00 0.00
  Z
  M 124.83 200.00
  A 0.47 0.47 0.0 0 0 125.30 199.53
  L 125.29 125.77
  A 0.47 0.47 0.0 0 1 125.76 125.30
  L 199.54 125.30
  A 0.47 0.47 0.0 0 0 200.01 124.83
  L 199.98 88.50
  A 0.47 0.47 0.0 0 0 199.51 88.03
  L 88.47 87.99
  A 0.47 0.47 0.0 0 0 88.00 88.46
  L 88.00 199.53
  A 0.47 0.47 0.0 0 0 88.47 200.00
  L 124.83 200.00
  Z
  M 312.00 124.82
  A 0.48 0.48 0.0 0 0 312.48 125.30
  L 386.22 125.30
  A 0.48 0.48 0.0 0 1 386.70 125.78
  L 386.69 199.52
  A 0.48 0.48 0.0 0 0 387.17 200.00
  L 423.52 199.99
  A 0.48 0.48 0.0 0 0 424.00 199.51
  L 423.99 88.51
  A 0.48 0.48 0.0 0 0 423.51 88.03
  L 312.48 87.99
  A 0.48 0.48 0.0 0 0 312.00 88.47
  L 312.00 124.82
  Z
  M 312.10 256.00
  A 56.11 56.11 0.0 0 0 255.99 199.89
  A 56.11 56.11 0.0 0 0 199.88 256.00
  A 56.11 56.11 0.0 0 0 255.99 312.11
  A 56.11 56.11 0.0 0 0 312.10 256.00
  Z
  M 200.00 387.09
  A 0.40 0.40 0.0 0 0 199.60 386.69
  L 125.69 386.70
  A 0.40 0.40 0.0 0 1 125.29 386.30
  L 125.30 312.41
  A 0.40 0.40 0.0 0 0 124.90 312.01
  L 88.40 312.00
  A 0.40 0.40 0.0 0 0 88.00 312.40
  L 88.00 423.60
  A 0.40 0.40 0.0 0 0 88.40 424.00
  L 199.60 423.99
  A 0.40 0.40 0.0 0 0 200.00 423.59
  L 200.00 387.09
  Z
  M 387.18 311.98
  A 0.48 0.48 0.0 0 0 386.70 312.46
  L 386.70 386.22
  A 0.48 0.48 0.0 0 1 386.22 386.70
  L 312.48 386.69
  A 0.48 0.48 0.0 0 0 312.00 387.17
  L 312.00 423.52
  A 0.48 0.48 0.0 0 0 312.48 424.00
  L 423.52 424.00
  A 0.48 0.48 0.0 0 0 424.00 423.52
  L 423.99 312.53
  A 0.48 0.48 0.0 0 0 423.51 312.05
  L 387.18 311.98
  Z" fill="#000000"></path>
<path d="M 124.83 200.00
  L 88.47 200.00
  A 0.47 0.47 0.0 0 1 88.00 199.53
  L 88.00 88.46
  A 0.47 0.47 0.0 0 1 88.47 87.99
  L 199.51 88.03
  A 0.47 0.47 0.0 0 1 199.98 88.50
  L 200.01 124.83
  A 0.47 0.47 0.0 0 1 199.54 125.30
  L 125.76 125.30
  A 0.47 0.47 0.0 0 0 125.29 125.77
  L 125.30 199.53
  A 0.47 0.47 0.0 0 1 124.83 200.00
  Z" fill="#53ffa2"></path>
<path d="M 312.00 124.82
  L 312.00 88.47
  A 0.48 0.48 0.0 0 1 312.48 87.99
  L 423.51 88.03
  A 0.48 0.48 0.0 0 1 423.99 88.51
  L 424.00 199.51
  A 0.48 0.48 0.0 0 1 423.52 199.99
  L 387.17 200.00
  A 0.48 0.48 0.0 0 1 386.69 199.52
  L 386.70 125.78
  A 0.48 0.48 0.0 0 0 386.22 125.30
  L 312.48 125.30
  A 0.48 0.48 0.0 0 1 312.00 124.82
  Z" fill="#53ffa2"></path>
<circle r="56.11" cy="256.00" cx="255.99" fill="#53ffa2"></circle>
<path d="M 200.00 387.09
  L 200.00 423.59
  A 0.40 0.40 0.0 0 1 199.60 423.99
  L 88.40 424.00
  A 0.40 0.40 0.0 0 1 88.00 423.60
  L 88.00 312.40
  A 0.40 0.40 0.0 0 1 88.40 312.00
  L 124.90 312.01
  A 0.40 0.40 0.0 0 1 125.30 312.41
  L 125.29 386.30
  A 0.40 0.40 0.0 0 0 125.69 386.70
  L 199.60 386.69
  A 0.40 0.40 0.0 0 1 200.00 387.09
  Z" fill="#53ffa2"></path>
<path d="M 387.18 311.98
  L 423.51 312.05
  A 0.48 0.48 0.0 0 1 423.99 312.53
  L 424.00 423.52
  A 0.48 0.48 0.0 0 1 423.52 424.00
  L 312.48 424.00
  A 0.48 0.48 0.0 0 1 312.00 423.52
  L 312.00 387.17
  A 0.48 0.48 0.0 0 1 312.48 386.69
  L 386.22 386.70
  A 0.48 0.48 0.0 0 0 386.70 386.22
  L 386.70 312.46
  A 0.48 0.48 0.0 0 1 387.18 311.98
  Z" fill="#53ffa2"></path>
</svg>
