<svg viewBox="0.00 0.00 50.00 44.00" version="1.1" xmlns="http://www.w3.org/2000/svg">
<g stroke-linecap="butt" fill="none" stroke-width="2.00">
<path d="M 29.29 12.42
  L 30.82 17.80
  Q 31.04 18.59 30.38 18.11
  L 25.51 14.54
  Q 25.03 14.19 24.55 14.55
  L 19.92 18.01
  Q 19.14 18.59 19.43 17.66
  L 21.01 12.47" stroke="#b6b1d1"></path>
<path d="M 19.28 12.32
  Q 18.79 12.61 17.69 12.49
  Q 16.58 12.38 16.58 13.49
  L 16.55 19.77
  Q 16.55 20.75 17.52 20.74
  L 32.97 20.74
  Q 33.43 20.74 33.43 20.28
  L 33.43 13.25
  A 0.76 0.76 0.0 0 0 32.55 12.50
  Q 31.15 12.72 30.90 12.25" stroke="#948588"></path>
<path d="M 8.94 28.86
  L 9.15 20.84
  A 0.46 0.46 0.0 0 0 8.71 20.37
  L 8.40 20.36
  A 1.82 1.71 -88.5 0 0 6.64 22.14
  L 6.50 27.44
  A 1.82 1.71 -88.5 0 0 8.16 29.30
  L 8.47 29.31
  A 0.46 0.46 0.0 0 0 8.94 28.86" stroke="#948588"></path>
<path d="M 41.70 20.40
  A 0.45 0.45 0.0 0 0 41.10 20.83
  L 41.23 28.93
  A 0.45 0.45 0.0 0 0 41.79 29.35
  L 43.05 29.04
  A 0.45 0.45 0.0 0 0 43.39 28.61
  L 43.38 21.29
  A 0.45 0.45 0.0 0 0 43.08 20.87
  L 41.70 20.40" stroke="#948588"></path>
<path d="M 39.42 25.95
  Q 38.91 22.39 35.32 22.39
  L 15.16 22.37
  Q 11.73 22.37 10.76 25.65
  L 10.60 26.18
  Q 9.65 29.38 12.99 29.38
  L 36.76 29.36
  Q 39.91 29.36 39.46 26.24
  L 39.42 25.95" stroke="#948588"></path>
<path d="M 39.13 31.13
  Q 24.94 31.14 10.75 31.00
  C 5.84 30.95 3.08 37.44 3.33 41.53
  A 0.92 0.91 -1.6 0 0 4.25 42.39
  L 45.75 42.37
  A 0.96 0.95 0.9 0 0 46.71 41.45
  C 46.82 37.06 44.43 31.12 39.13 31.13" stroke="#948588"></path>
<path d="M 6.62 40.51
  L 43.36 40.51
  A 1.72 1.72 0.0 0 0 45.08 38.79
  L 45.08 38.56
  A 7.04 6.69 -0.0 0 0 38.04 31.87
  L 11.94 31.87
  A 7.04 6.69 0.0 0 0 4.90 38.56
  L 4.90 38.79
  A 1.72 1.72 0.0 0 0 6.62 40.51" stroke="#948588"></path>
<path d="M 17.7602 34.2082
  A 0.79 0.79 0.0 0 0 16.9743 33.4141
  L 11.5944 33.3859
  A 0.79 0.79 0.0 0 0 10.8003 34.1718
  L 10.7998 34.2518
  A 0.79 0.79 0.0 0 0 11.5857 35.0459
  L 16.9656 35.0741
  A 0.79 0.79 0.0 0 0 17.7597 34.2882
  L 17.7602 34.2082" stroke="#817287"></path>
<path d="M 28.7497 34.1740
  A 0.77 0.77 0.0 0 0 27.9743 33.4094
  L 22.0745 33.4506
  A 0.77 0.77 0.0 0 0 21.3099 34.2260
  L 21.3103 34.2860
  A 0.77 0.77 0.0 0 0 22.0857 35.0506
  L 27.9855 35.0094
  A 0.77 0.77 0.0 0 0 28.7501 34.2340
  L 28.7497 34.1740" stroke="#817287"></path>
<path d="M 39.1994 34.1737
  A 0.82 0.82 0.0 0 0 38.3708 33.3623
  L 33.0711 33.4178
  A 0.82 0.82 0.0 0 0 32.2598 34.2463
  L 32.2606 34.3263
  A 0.82 0.82 0.0 0 0 33.0892 35.1377
  L 38.3889 35.0822
  A 0.82 0.82 0.0 0 0 39.2002 34.2537
  L 39.1994 34.1737" stroke="#817287"></path>
<path d="M 43.64 37.17
  A 0.84 0.84 0.0 0 0 42.80 36.33
  L 7.24 36.33
  A 0.84 0.84 0.0 0 0 6.40 37.17
  L 6.40 37.45
  A 0.84 0.84 0.0 0 0 7.24 38.29
  L 42.80 38.29
  A 0.84 0.84 0.0 0 0 43.64 37.45
  L 43.64 37.17" stroke="#817287"></path>
</g>
<path d="M 29.29 12.42
  L 30.82 17.80
  Q 31.04 18.59 30.38 18.11
  L 25.51 14.54
  Q 25.03 14.19 24.55 14.55
  L 19.92 18.01
  Q 19.14 18.59 19.43 17.66
  L 21.01 12.47
  Q 21.24 12.24 21.29 11.91
  A 0.71 0.70 -67.9 0 0 21.01 11.24
  L 15.89 7.56
  Q 15.10 6.99 16.07 7.01
  L 22.06 7.14
  Q 22.79 7.16 23.01 6.45
  L 24.81 0.50
  A 0.23 0.22 44.8 0 1 25.24 0.50
  L 27.22 6.77
  A 0.56 0.54 -9.0 0 0 27.76 7.15
  L 33.94 7.01
  Q 34.88 6.99 34.12 7.55
  L 28.97 11.35
  A 0.56 0.56 0.0 0 0 28.78 12.02
  Q 28.95 12.42 29.29 12.42
  Z" fill="#7776bc"></path>
<path d="M 19.28 12.32
  Q 18.79 12.61 17.69 12.49
  Q 16.58 12.38 16.58 13.49
  L 16.55 19.77
  Q 16.55 20.75 17.52 20.74
  L 32.97 20.74
  Q 33.43 20.74 33.43 20.28
  L 33.43 13.25
  A 0.76 0.76 0.0 0 0 32.55 12.50
  Q 31.15 12.72 30.90 12.25
  Q 32.31 10.55 34.36 11.17
  Q 34.94 11.35 34.94 11.95
  L 34.96 19.30
  Q 34.96 20.28 35.85 20.70
  L 38.61 22.03
  Q 39.36 22.38 39.40 21.56
  L 39.51 19.05
  A 0.60 0.60 0.0 0 1 40.11 18.48
  C 46.29 18.41 45.01 24.39 45.00 28.33
  Q 45.00 28.84 44.77 29.29
  Q 44.41 29.99 43.77 30.37
  Q 43.27 30.67 43.71 31.06
  Q 48.34 35.21 48.27 41.50
  Q 48.24 44.06 45.92 44.00
  L 2.88 44.00
  C -0.34 40.57 3.36 33.74 6.23 31.08
  A 0.51 0.51 0.0 0 0 6.20 30.30
  L 5.45 29.70
  Q 5.10 29.42 5.08 28.98
  C 4.90 25.14 3.60 18.15 9.95 18.51
  Q 10.47 18.54 10.52 19.07
  L 10.75 21.50
  Q 10.81 22.21 11.47 21.93
  L 14.23 20.72
  Q 15.03 20.37 15.03 19.49
  L 15.05 11.87
  A 0.85 0.84 -7.4 0 1 15.67 11.07
  Q 17.86 10.47 19.28 12.32
  Z
  M 8.94 28.86
  L 9.15 20.84
  A 0.46 0.46 0.0 0 0 8.71 20.37
  L 8.40 20.36
  A 1.82 1.71 -88.5 0 0 6.64 22.14
  L 6.50 27.44
  A 1.82 1.71 -88.5 0 0 8.16 29.30
  L 8.47 29.31
  A 0.46 0.46 0.0 0 0 8.94 28.86
  Z
  M 41.70 20.40
  A 0.45 0.45 0.0 0 0 41.10 20.83
  L 41.23 28.93
  A 0.45 0.45 0.0 0 0 41.79 29.35
  L 43.05 29.04
  A 0.45 0.45 0.0 0 0 43.39 28.61
  L 43.38 21.29
  A 0.45 0.45 0.0 0 0 43.08 20.87
  L 41.70 20.40
  Z
  M 39.42 25.95
  Q 38.91 22.39 35.32 22.39
  L 15.16 22.37
  Q 11.73 22.37 10.76 25.65
  L 10.60 26.18
  Q 9.65 29.38 12.99 29.38
  L 36.76 29.36
  Q 39.91 29.36 39.46 26.24
  L 39.42 25.95
  Z
  M 39.13 31.13
  Q 24.94 31.14 10.75 31.00
  C 5.84 30.95 3.08 37.44 3.33 41.53
  A 0.92 0.91 -1.6 0 0 4.25 42.39
  L 45.75 42.37
  A 0.96 0.95 0.9 0 0 46.71 41.45
  C 46.82 37.06 44.43 31.12 39.13 31.13
  Z" fill-opacity="0.996" fill="#331f29"></path>
<path d="M 19.28 12.32
  Q 19.94 12.55 21.01 12.47
  L 19.43 17.66
  Q 19.14 18.59 19.92 18.01
  L 24.55 14.55
  Q 25.03 14.19 25.51 14.54
  L 30.38 18.11
  Q 31.04 18.59 30.82 17.80
  L 29.29 12.42
  Q 30.32 12.55 30.90 12.25
  Q 31.15 12.72 32.55 12.50
  A 0.76 0.76 0.0 0 1 33.43 13.25
  L 33.43 20.28
  Q 33.43 20.74 32.97 20.74
  L 17.52 20.74
  Q 16.55 20.75 16.55 19.77
  L 16.58 13.49
  Q 16.58 12.38 17.69 12.49
  Q 18.79 12.61 19.28 12.32
  Z" fill="#f5ebe6"></path>
<path d="M 8.94 28.86
  A 0.46 0.46 0.0 0 1 8.47 29.31
  L 8.16 29.30
  A 1.82 1.71 -88.5 0 1 6.50 27.44
  L 6.64 22.14
  A 1.82 1.71 -88.5 0 1 8.40 20.36
  L 8.71 20.37
  A 0.46 0.46 0.0 0 1 9.15 20.84
  L 8.94 28.86
  Z" fill="#f5ebe6"></path>
<path d="M 41.70 20.40
  L 43.08 20.87
  A 0.45 0.45 0.0 0 1 43.38 21.29
  L 43.39 28.61
  A 0.45 0.45 0.0 0 1 43.05 29.04
  L 41.79 29.35
  A 0.45 0.45 0.0 0 1 41.23 28.93
  L 41.10 20.83
  A 0.45 0.45 0.0 0 1 41.70 20.40
  Z" fill="#f5ebe6"></path>
<path d="M 39.42 25.95
  L 39.46 26.24
  Q 39.91 29.36 36.76 29.36
  L 12.99 29.38
  Q 9.65 29.38 10.60 26.18
  L 10.76 25.65
  Q 11.73 22.37 15.16 22.37
  L 35.32 22.39
  Q 38.91 22.39 39.42 25.95
  Z" fill="#f5ebe6"></path>
<path d="M 39.13 31.13
  C 44.43 31.12 46.82 37.06 46.71 41.45
  A 0.96 0.95 0.9 0 1 45.75 42.37
  L 4.25 42.39
  A 0.92 0.91 -1.6 0 1 3.33 41.53
  C 3.08 37.44 5.84 30.95 10.75 31.00
  Q 24.94 31.14 39.13 31.13
  Z
  M 6.62 40.51
  L 43.36 40.51
  A 1.72 1.72 0.0 0 0 45.08 38.79
  L 45.08 38.56
  A 7.04 6.69 -0.0 0 0 38.04 31.87
  L 11.94 31.87
  A 7.04 6.69 0.0 0 0 4.90 38.56
  L 4.90 38.79
  A 1.72 1.72 0.0 0 0 6.62 40.51
  Z" fill="#f5ebe6"></path>
<path d="M 6.62 40.51
  A 1.72 1.72 0.0 0 1 4.90 38.79
  L 4.90 38.56
  A 7.04 6.69 0.0 0 1 11.94 31.87
  L 38.04 31.87
  A 7.04 6.69 -0.0 0 1 45.08 38.56
  L 45.08 38.79
  A 1.72 1.72 0.0 0 1 43.36 40.51
  L 6.62 40.51
  Z
  M 17.7602 34.2082
  A 0.79 0.79 0.0 0 0 16.9743 33.4141
  L 11.5944 33.3859
  A 0.79 0.79 0.0 0 0 10.8003 34.1718
  L 10.7998 34.2518
  A 0.79 0.79 0.0 0 0 11.5857 35.0459
  L 16.9656 35.0741
  A 0.79 0.79 0.0 0 0 17.7597 34.2882
  L 17.7602 34.2082
  Z
  M 28.7497 34.1740
  A 0.77 0.77 0.0 0 0 27.9743 33.4094
  L 22.0745 33.4506
  A 0.77 0.77 0.0 0 0 21.3099 34.2260
  L 21.3103 34.2860
  A 0.77 0.77 0.0 0 0 22.0857 35.0506
  L 27.9855 35.0094
  A 0.77 0.77 0.0 0 0 28.7501 34.2340
  L 28.7497 34.1740
  Z
  M 39.1994 34.1737
  A 0.82 0.82 0.0 0 0 38.3708 33.3623
  L 33.0711 33.4178
  A 0.82 0.82 0.0 0 0 32.2598 34.2463
  L 32.2606 34.3263
  A 0.82 0.82 0.0 0 0 33.0892 35.1377
  L 38.3889 35.0822
  A 0.82 0.82 0.0 0 0 39.2002 34.2537
  L 39.1994 34.1737
  Z
  M 43.64 37.17
  A 0.84 0.84 0.0 0 0 42.80 36.33
  L 7.24 36.33
  A 0.84 0.84 0.0 0 0 6.40 37.17
  L 6.40 37.45
  A 0.84 0.84 0.0 0 0 7.24 38.29
  L 42.80 38.29
  A 0.84 0.84 0.0 0 0 43.64 37.45
  L 43.64 37.17
  Z" fill-opacity="0.996" fill="#331f29"></path>
<rect rx="0.79" height="1.66" width="6.96" transform="translate(14.28,34.23) rotate(0.3)" y="-0.83" x="-3.48" fill="#cfc4e5"></rect>
<rect rx="0.77" height="1.60" width="7.44" transform="translate(25.03,34.23) rotate(-0.4)" y="-0.80" x="-3.72" fill="#cfc4e5"></rect>
<rect rx="0.82" height="1.72" width="6.94" transform="translate(35.73,34.25) rotate(-0.6)" y="-0.86" x="-3.47" fill="#cfc4e5"></rect>
<rect rx="0.84" height="1.96" width="37.24" y="36.33" x="6.40" fill="#cfc4e5"></rect>
</svg>
