<svg viewBox="0.00 0.00 32.00 32.00" version="1.1" xmlns="http://www.w3.org/2000/svg">
<g stroke-linecap="butt" fill="none" stroke-width="2.00">
<path d="M 15.71 2.50
  A 0.76 0.65 -40.3 0 0 15.42 2.50
  L 4.41 4.93
  Q 4.25 4.97 4.26 5.13
  L 4.29 5.41
  Q 4.31 5.62 4.51 5.61
  Q 15.21 5.39 25.81 5.62
  Q 25.98 5.62 26.08 5.54
  Q 26.19 5.44 26.20 5.28
  Q 26.21 4.96 25.90 4.89
  L 15.71 2.50" stroke="#808080"></path>
<path d="M 26.44 6.99
  A 0.49 0.49 0.0 0 0 25.95 6.50
  L 4.49 6.50
  A 0.49 0.49 0.0 0 0 4.00 6.99
  L 4.00 8.27
  A 0.49 0.49 0.0 0 0 4.49 8.76
  L 25.95 8.76
  A 0.49 0.49 0.0 0 0 26.44 8.27
  L 26.44 6.99" stroke="#808080"></path>
<path d="M 7.7508 10.6224
  A 0.90 0.90 0.0 0 0 6.8524 9.7208
  L 5.9324 9.7192
  A 0.90 0.90 0.0 0 0 5.0308 10.6176
  L 5.0092 22.9776
  A 0.90 0.90 0.0 0 0 5.9076 23.8792
  L 6.8276 23.8808
  A 0.90 0.90 0.0 0 0 7.7292 22.9824
  L 7.7508 10.6224" stroke="#808080"></path>
<path d="M 13.4507 10.6725
  A 0.96 0.96 0.0 0 0 12.4924 9.7108
  L 11.5324 9.7092
  A 0.96 0.96 0.0 0 0 10.5707 10.6675
  L 10.5493 22.9075
  A 0.96 0.96 0.0 0 0 11.5076 23.8692
  L 12.4676 23.8708
  A 0.96 0.96 0.0 0 0 13.4293 22.9125
  L 13.4507 10.6725" stroke="#808080"></path>
<path d="M 19.74 10.54
  A 0.82 0.82 0.0 0 0 18.92 9.72
  L 17.84 9.72
  A 0.82 0.82 0.0 0 0 17.02 10.54
  L 17.02 23.04
  A 0.82 0.82 0.0 0 0 17.84 23.86
  L 18.92 23.86
  A 0.82 0.82 0.0 0 0 19.74 23.04
  L 19.74 10.54" stroke="#808080"></path>
<path d="M 25.43 10.66
  A 0.95 0.95 0.0 0 0 24.48 9.71
  L 23.52 9.71
  A 0.95 0.95 0.0 0 0 22.57 10.66
  L 22.57 22.92
  A 0.95 0.95 0.0 0 0 23.52 23.87
  L 24.48 23.87
  A 0.95 0.95 0.0 0 0 25.43 22.92
  L 25.43 10.66" stroke="#808080"></path>
<path d="M 26.45 25.45
  A 0.65 0.65 0.0 0 0 25.80 24.80
  L 4.62 24.80
  A 0.65 0.65 0.0 0 0 3.97 25.45
  L 3.97 25.63
  A 0.65 0.65 0.0 0 0 4.62 26.28
  L 25.80 26.28
  A 0.65 0.65 0.0 0 0 26.45 25.63
  L 26.45 25.45" stroke="#808080"></path>
<path d="M 27.24 27.86
  A 0.62 0.62 0.0 0 0 26.62 27.24
  L 3.70 27.24
  A 0.62 0.62 0.0 0 0 3.08 27.86
  L 3.08 28.24
  A 0.62 0.62 0.0 0 0 3.70 28.86
  L 26.62 28.86
  A 0.62 0.62 0.0 0 0 27.24 28.24
  L 27.24 27.86" stroke="#808080"></path>
</g>
<path d="M 0.00 0.00
  L 32.00 0.00
  L 32.00 32.00
  L 0.00 32.00
  L 0.00 0.00
  Z
  M 15.71 2.50
  A 0.76 0.65 -40.3 0 0 15.42 2.50
  L 4.41 4.93
  Q 4.25 4.97 4.26 5.13
  L 4.29 5.41
  Q 4.31 5.62 4.51 5.61
  Q 15.21 5.39 25.81 5.62
  Q 25.98 5.62 26.08 5.54
  Q 26.19 5.44 26.20 5.28
  Q 26.21 4.96 25.90 4.89
  L 15.71 2.50
  Z
  M 26.44 6.99
  A 0.49 0.49 0.0 0 0 25.95 6.50
  L 4.49 6.50
  A 0.49 0.49 0.0 0 0 4.00 6.99
  L 4.00 8.27
  A 0.49 0.49 0.0 0 0 4.49 8.76
  L 25.95 8.76
  A 0.49 0.49 0.0 0 0 26.44 8.27
  L 26.44 6.99
  Z
  M 7.7508 10.6224
  A 0.90 0.90 0.0 0 0 6.8524 9.7208
  L 5.9324 9.7192
  A 0.90 0.90 0.0 0 0 5.0308 10.6176
  L 5.0092 22.9776
  A 0.90 0.90 0.0 0 0 5.9076 23.8792
  L 6.8276 23.8808
  A 0.90 0.90 0.0 0 0 7.7292 22.9824
  L 7.7508 10.6224
  Z
  M 13.4507 10.6725
  A 0.96 0.96 0.0 0 0 12.4924 9.7108
  L 11.5324 9.7092
  A 0.96 0.96 0.0 0 0 10.5707 10.6675
  L 10.5493 22.9075
  A 0.96 0.96 0.0 0 0 11.5076 23.8692
  L 12.4676 23.8708
  A 0.96 0.96 0.0 0 0 13.4293 22.9125
  L 13.4507 10.6725
  Z
  M 19.74 10.54
  A 0.82 0.82 0.0 0 0 18.92 9.72
  L 17.84 9.72
  A 0.82 0.82 0.0 0 0 17.02 10.54
  L 17.02 23.04
  A 0.82 0.82 0.0 0 0 17.84 23.86
  L 18.92 23.86
  A 0.82 0.82 0.0 0 0 19.74 23.04
  L 19.74 10.54
  Z
  M 25.43 10.66
  A 0.95 0.95 0.0 0 0 24.48 9.71
  L 23.52 9.71
  A 0.95 0.95 0.0 0 0 22.57 10.66
  L 22.57 22.92
  A 0.95 0.95 0.0 0 0 23.52 23.87
  L 24.48 23.87
  A 0.95 0.95 0.0 0 0 25.43 22.92
  L 25.43 10.66
  Z
  M 26.45 25.45
  A 0.65 0.65 0.0 0 0 25.80 24.80
  L 4.62 24.80
  A 0.65 0.65 0.0 0 0 3.97 25.45
  L 3.97 25.63
  A 0.65 0.65 0.0 0 0 4.62 26.28
  L 25.80 26.28
  A 0.65 0.65 0.0 0 0 26.45 25.63
  L 26.45 25.45
  Z
  M 27.24 27.86
  A 0.62 0.62 0.0 0 0 26.62 27.24
  L 3.70 27.24
  A 0.62 0.62 0.0 0 0 3.08 27.86
  L 3.08 28.24
  A 0.62 0.62 0.0 0 0 3.70 28.86
  L 26.62 28.86
  A 0.62 0.62 0.0 0 0 27.24 28.24
  L 27.24 27.86
  Z" fill="#000000"></path>
<path d="M 15.71 2.50
  L 25.90 4.89
  Q 26.21 4.96 26.20 5.28
  Q 26.19 5.44 26.08 5.54
  Q 25.98 5.62 25.81 5.62
  Q 15.21 5.39 4.51 5.61
  Q 4.31 5.62 4.29 5.41
  L 4.26 5.13
  Q 4.25 4.97 4.41 4.93
  L 15.42 2.50
  A 0.76 0.65 -40.3 0 1 15.71 2.50
  Z" fill="#ffffff"></path>
<rect rx="0.49" height="2.26" width="22.44" y="6.50" x="4.00" fill="#ffffff"></rect>
<rect rx="0.90" height="14.16" width="2.72" transform="translate(6.38,16.80) rotate(0.1)" y="-7.08" x="-1.36" fill="#ffffff"></rect>
<rect rx="0.96" height="14.16" width="2.88" transform="translate(12.00,16.79) rotate(0.1)" y="-7.08" x="-1.44" fill="#ffffff"></rect>
<rect rx="0.82" height="14.14" width="2.72" y="9.72" x="17.02" fill="#ffffff"></rect>
<rect rx="0.95" height="14.16" width="2.86" y="9.71" x="22.57" fill="#ffffff"></rect>
<rect rx="0.65" height="1.48" width="22.48" y="24.80" x="3.97" fill="#ffffff"></rect>
<rect rx="0.62" height="1.62" width="24.16" y="27.24" x="3.08" fill="#ffffff"></rect>
</svg>
