<svg viewBox="0 0 246 246" xmlns="http://www.w3.org/2000/svg"><g fill="none" stroke-width="2"><path d="M51.16 86.14c-8.3 15.31-10.47 33.28-8.11 50.32" stroke="#4d4374"/><path d="M43.05 136.46q3.05 19.59 13.99 34.26c22.65 30.4 62.84 41.97 98.01 26.67" stroke="#2b566d"/><path d="M155.05 197.39c33.43-14.95 52.46-46.01 49.09-82.93" stroke="#455c5b"/><path d="M204.14 114.46c-.54-4.54-1.08-9.25-2.33-13.53-6.29-21.42-21.54-39.96-41.53-50.38" stroke="#7f714d"/><path d="M160.28 50.55q-23.97-12.24-49.64-8.28c-25.31 3.89-47.61 21.5-59.48 43.87" stroke="#7f576d"/><path d="M160.28 50.55q-1.04.36-.43 1.37" stroke="#f5bdab"/><path d="m159.85 51.92-10.49-4.22" stroke="#f0948b"/><path d="m149.36 47.7-10.16-2.82" stroke="#ee799b"/><path d="M139.2 44.88c-5.78-1.74-11.56-1.62-18.04-1.69q-6.15-.05-11.74 1.01c-4.72.89-9.78 1.69-14.16 3.72-2.34 1.09-5.33 1.79-6.68 3.46q-.32.4-.78.6-2.12.92-4.2 1.91c-3.44 1.63-6.59 4.27-9.66 6.53a.92.83-64.5 0 1-.39.16q-.3.03-.54.19-.17.11-.14.41a.17.14-27.1 0 1-.05.11l-4.51 4.5q-.31.31-.72.49-.52.23-.71.47-3 3.74-6.07 7.41-1.78 2.13-3.27 4.34" stroke="#e880b8"/><path d="M57.54 78.5q-1.45 1.4-2.26 3.06c-1.2 2.44-1.99 3.77-2.91 5.68q-.2.41-.7.47-.54.06-.53-.48l.02-1.09" stroke="#c38fd2"/><path d="M139.2 44.88q-6.13-.91-12.45-1.14c-5.01-.18-9.77-.67-12.24.78-2.15 1.26-5.79 1.03-8.26 1.12-2.79.09-4.85 1.94-6.61 2.7q-4.69 2.01-9.23 4.36-.11.05-3.14 1.46-2.08.97-3.62 2.33" stroke="#e15688"/><path d="M83.65 56.49q-2.57 1.97-5.62 3.47-2.21 1.08-3.54 2.53-1.46 1.59-2.89 3.2-.32.36-.73.59-.91.52-1.39 1.46-.23.44-.64.71-2.22 1.44-3.78 3.66" stroke="#b74883"/><path d="M65.06 72.11c-1.65.79-1.1 2.64-3.11 3.34q-.46.16-.7.59-1.05 1.91-2.87 3.09a1.04 1.02-16 0 0-.48.85c-.03 1.31-1 2.44-1.38 3.38-1 2.53-3.07 3.53-4.07 5.96q-.18.45-.59.69-.48.3-.46.9.02.5-.25.91l-1.58 2.43" stroke="#9d51aa"/><path d="m49.57 94.25 2.32-5.5q.22-.52.71-.79.8-.45.98-1.46a1.18 1.16-13.6 0 1 .46-.74c1.44-1.08 1.19-2.33 2.09-3.62q1.18-1.66 1.41-3.64" stroke="#b66cbf"/><path d="m44.4 134.17-1.35 2.29" stroke="#6f8ed1"/><path d="m204.14 114.46-.06 1.67q-.02.71-.67.42l-.74-.33" stroke="#bac199"/><path d="m202.67 116.22-.65-4.5" stroke="#bea563"/><path d="m149.36 47.7-2.59.34q-.88.11-.08.49L158.38 54v.06q0 .06-.05.02-.45-.44-1.09-.02" stroke="#e96a5a"/><path d="M157.24 54.06q-10.94-5.17-23.01-6.95-9.84-1.45-19.72-.09-4.83.67-9.46 1.17" stroke="#923c49"/><path d="M105.05 48.19q-2.5.24-4.68 1.16-2.48 1.04-4.47 1.56-2.77.73-5.25 2.27-3.21 1.99-7 3.31" stroke="#be4166"/><path d="M159.85 51.92c3.44 2.2 6.8 4.22 9.98 6.81q4.1 3.33 8.21 6.66.38.31.52.78.15.48.66.48c3.99 3.7 6.82 7.81 10.15 12.03q1.74 2.19 3.26 4.55a3.56 2.22 55.9 0 1 .26.43q2.1 3.91 3.97 7.92 4.5 9.59 5.16 20.14" stroke="#efad6b"/><path d="m202.02 111.72-1.68-7.65q-.1-.48-.35-.91-.63-1.13-.9-3.14-.3-2.19-2.13-5.11-.74-1.19-1.61-3.58-.71-1.95-2.21-3.47-.34-.35-.36-.84c-.07-1.61-1.37-1.81-2.08-2.65-3-3.54-5.09-7.79-8.46-10.95q-1.42-1.32-3.16-3.57-1.44-1.85-3.4-3.19-.39-.26-.5-.71-.26-1.01-1.28-1.26-.48-.12-.8-.5c-.46-.56-.66-.94-1.28-1.34q-2.49-1.61-4.55-3.75-1.07-1.11-3.87-1.78" stroke="#b97c42"/><path d="M47.16 118.9q-.36 8.05.03 12.84.06.73.83 1.34M48.34 135.24q-.95 4.37.84 6.05M51.36 148.99l.72 3.07q.11.49.58.69.77.34.84.99.28 2.31 1.76 3.42a1.37 1.3 11.8 0 1 .5.72q.47 1.68 1.46 3.02M61.43 167l-.01.4a.63.63 0 0 0 .51.63q.47.1.9.63 1.47 1.79 2.99 3.98M68.01 175.3l10.34 9.25" stroke="#464084"/><path d="M78.35 184.55q-5.05-1.88-8.38-6.15-.33-.43-.9-.55-.51-.11-.81-.54-.79-1.15-1.87-1.98-.47-.35-.75-.87-.99-1.78-2.62-3.04-.41-.31-.53-.81-.17-.71-1.02-.92a.4.39-12.7 0 1-.2-.12q-.99-1.12-2.25-1.84-.44-.25-.71-.67l-4.51-6.97q-.29-.45-.18-.98.21-.99-.76-1.21a.33.33 0 0 1-.24-.43q.12-.39-.17-.58-.3-.2-.16.13.15.34.3.67.03.05-.01.09-.11.14-.25.15-.19.02-.25-.16c-.93-2.42-1.41-4.9-2.36-7.36q-2.04-5.29-3.68-10.71-.41-1.36-.15-3.94.22-2.16-.32-7.86 0-.02.02-.02h.01l.03-.01-.03 5.9q0 .17-.17.17l-.25-.01q-.25 0-.25-.25 0-2.69-.33-5.29v-.01q.01 0 .02-.01.03 0 .03.03l-.25 5.77" stroke="#5673bc"/><path d="M44.4 134.17q-1.04-6.31-.85-8.17.79-7.71.59-10.75-.16-2.39.53-4.7.49-1.63 1.03-3.24 1.06-3.16 1.64-6.47c.41-2.41 1.85-4.14 2.23-6.59" stroke="#7960c3"/><path d="M90.21 54.25q-7.76 3.66-14.32 9.22-.38.32-.86.43-.4.09-.59.28-2.73 2.79-5.41 5.1" stroke="#642e44"/><path d="M69.03 69.28q-1.91.8-3.97 2.83" stroke="#7a3c88"/><path d="m78.35 184.55 1.86 1.55" stroke="#3c6e92"/><path d="M80.21 186.1q-.27.83.55 1.15 3.33 1.28 5.19 3.34.32.35.76.51c1.11.41 1.66 1.53 3.08 1.22" stroke="#5673bc"/><path d="m89.79 192.32 9.97 3.76" stroke="#3c6e92"/><path d="m99.76 196.08 7.91 2.23" stroke="#5673bc"/><path d="M107.67 198.31c10.19 2.66 20.9 2.34 31.65.67q.22-.03.31-.23.13-.28.38-.3 3.29-.21 6.49-.93.51-.12 1.05-.81.06-.08-.04-.09-.12-.02-.24-.11a.08.08 0 0 1-.03-.08q.05-.18.42-.47" stroke="#3c6e92"/><path d="m147.66 195.96 4.08-1.18" stroke="#50858d"/><path d="m202.67 116.22-.16 12.22" stroke="#849071"/><path d="M202.51 128.44q.3-6.24-.3-12.45-.04-.43-.39-.54-.32-.11-.41-.44l-.73-2.52q-.15-.52-.57-.85-.39-.32-.31-.84.08-.48-.04-.96-.4-1.47-1.25-2.57" stroke="#6d6e45"/><path d="M155.05 197.39q-.85-.12-1.13-1.15-.14-.53-.59-.21-1.29.89-2.84.26-.45-.18.02-.33l1.34-.42q.57-.17 0-.35-.64-.21-1.26.2-.05.04-.11-.02-.04-.04-.13 0 .21-.03.37-.13.19-.12.42-.13.6-.03.6-.33" stroke="#66a7b9"/><path d="M151.74 194.78q1.18-.2 2.03-.73M153.77 194.05l.96-.03a1.23 1.2 19.7 0 0 .85-.39q1.85-1.98 4.25-3.11a.72.72 0 0 0 .38-.45q.14-.51.58-.4a2.99 2.29-62.7 0 0 2.72-1.28c.82-1.15 2.04-1.14 2.98-1.73q2.59-1.6 3.66-2 2.24-.84 2.97-2.58.13-.29.41-.43.3-.15.42-.46.08-.21-.14-.2-.15.01-.3.03-.49.08-.1-.22l1.3-.99M174.71 179.81q.8.05 1.02-.31c.96-1.61 3.17-2.16 4.58-3.75q1.42-1.6 2.23-2.4 1.57-1.57 2.93-3.31 1.43-1.83 2.8-3.87" stroke="#6a8a7b"/><path d="m188.27 166.17 3.58-3.64q.09-.1-.04-.14-.15-.05-.24-.1-.05-.03-.02-.08l3.21-7.67" stroke="#567380"/><path d="m157.24 54.06 6.16 3.26" stroke="#945739"/><path d="M163.4 57.32q10.66 7.98 19.23 17.84c1.51 1.74 2.76 4.17 4 5.71q3.57 4.42 5.51 8.44" stroke="#624f31"/><path d="M192.14 89.31q-2.08-.31-2.35-2.56-.05-.44-.47-.57-.69-.22-.65-1.06a1.06 1.06 0 0 0-.9-1.1l-3.74-.57q-.16-.03-.16-.19v-.33q.01-.39-.3-.62-1.35-1.03-1.8-2.65-.14-.52-.6-.8c-1.49-.89-1.29-2.79-2.5-4.24a1.24.19 81.1 0 1-.28-.87q-.1-.51.11-.98.19-.44-.29-.39-.24.03-.48-.13a1.42.4 31.6 0 1-.91-.99q.18-.73-.55-1-.37-.13-.56-.48-.78-1.42-2.07-1.52-.92-.08-.94-.09-.3-.16-.66.11-.15.11-.14.3 0 .13.01.26.06.51-.33.18c-1.79-1.46-4.15-2.17-5.65-3.77-1.81-1.94-3.05-3.9-6.17-2.88-2.25.74-5.27-1-7.7-.99q-2.52.01-5.05 0-.18 0-.09-.15.16-.26.52-.27a.54.53-14.2 0 0 .46-.76l-1.08-2.26q-.12-.25-.38-.32-.73-.21-1.22-.79-.31-.36-.78-.4-1.05-.08-2.1-.19-.94-.1-1.65.05-3.8.78-7.7.8-.68.01-1.11-.43-.35-.35-.83-.47-1.89-.44-3.61-1.39-.48-.26-1.02-.28l-2.64-.08q-.57-.02-.82-.54-1.23-2.65-3.96-2.01a.92.92 0 0 1-1-.41q-1-1.64-2.94-1.68-.44-.01-.86.12l-1.82.56q-.36.11-.58.4l-1.06 1.37q-.31.4-.81.29-1.61-.38-3.27-.06-.5.1-.98-.07-1.71-.56-3.51.19-.52.22-1.07.1-1.5-.33-2.83.45a1.05 1.05 0 0 1-1 .04q-1-.48-1.65.23-.35.39-.88.44l-4.53.39" stroke="#382927"/><path d="m90.21 54.25 2.67-.93q.43-.15.78-.43.77-.63 1.7-.9c2.34-.68 4.08-1.78 6.64-2.33q1.44-.31 3.05-1.47" stroke="#692e44"/><path d="M81.91 185.78q-1.2.05-1.53-.52-.26-.43-.54-.67-.31-.29-.16.11l.53 1.4" stroke="#464084"/><path d="M200.05 126.46q.27 5.12-1.11 10" stroke="#3d473a"/><path d="M198.94 136.46q-1.7 4.48-3.08 9.09c-.2.68-1 1.89-1.41 2.52q-.47.73-.8 1.98-.35 1.36-1.12 2.55-.27.42-.31.91-.36 3.79-2.83 6.59c-.95 1.09-1.28 2.22-1.75 3.5a.42.41 10.1 0 1-.39.27h-.28q-.14 0-.24.09-1.46 1.3-1.78 2.98a1.33 1.28 78.7 0 1-.53.83q-1.84 1.33-2.4 3.45" stroke="#2a303f"/><path d="M182.02 171.22c-1.61.15-2.03.93-3.34 1.95q-.17.13-.12.28.1.3.34.08.17-.17.38-.22.33-.09.2.23l-.21.53" stroke="#2a303f"/><path d="m179.27 174.07-4.56 5.74M174.71 179.81l-.93-.07" stroke="#3d473a"/><path d="M173.78 179.74q-1.56-.39-2.85 2.06" stroke="#2a303f"/><path d="M170.93 181.8q-1.37.46-2.28 1.98" stroke="#3d473a"/><path d="M168.65 183.78q-2.59.03-3.13 1.98M165.52 185.76l-8.36 2.36q-.47.13-.74.53l-.51.74q-.3.43-.83.45-1.73.07-2.37 1.6a.73.72-78 0 1-.68.45q-1.56-.04-2.63 1.15-.3.32-.73.4l-4.45.81a.41.4 84.2 0 0-.33.41q0 .31-.27.47-.55.34-.74.35-5.27.23-10.54.62c-6.09.44-12.21-.03-18.39.02-1.78.02-6.04-.61-7.58-1.47-1.96-1.1-5.37-1.08-7.6-1.25a.63.62 76.2 0 1-.5-.31l-.16-.29q-.25-.44-.75-.46-2.49-.1-4.53-1.47-.4-.27-.68-.67c-.82-1.14-1.66-1.71-3.17-1.95q-2.17-.35-4.26-1.03-.24-.07-.14.15.05.14.22.2.1.04-.01.05-.15.01-.29.01-.11.01-.16-.1-.85-1.76-2.74-1.79" stroke="#2a303f"/><path d="m81.6 185.74.31.04" stroke="#443569"/><path d="M81.91 185.78c-1.27-1.26-3.4-3.54-4.95-4.17q-.4-.16-.6-.67-.14-.35-.43-.61-.56-.5-1.32-.61-.54-.08-.87-.51-2.27-2.93-5.73-3.91" stroke="#2a303f"/><path d="m68.01 175.3-2.19-2.66" stroke="#443569"/><path d="M65.82 172.64q.15-1.83-1.05-2.7-.35-.26-.59-.63l-3.04-4.67a.61.6 72.9 0 0-.5-.27q-.17 0-.33-.01-.58-.03.16.65.77.71.96 1.99" stroke="#2a303f"/><path d="M61.43 167q-.83.13-1.22-.73-.73-1.61-1.7-2.44-.38-.32-.54-.79l-.75-2.14" stroke="#443569"/><path d="M57.22 160.9q-.57-3.07-2.37-4.88-.4-.4-.43-.97-.16-2.78-1.92-5a.64.62-65.6 0 1-.12-.34q-.02-.59.02-1.14.01-.07 0 0-.06.32-.15.46-.12.2-.16-.03-.4-2.63-1.65-5-.02-.04-.05-.01l-.29.24q-.12.11-.03.25 1.31 2.1 1.29 4.51" stroke="#2a303f"/><path d="m51.36 148.99-2.18-7.7" stroke="#443569"/><path d="m49.18 141.29.31.14q.42.19.31-.26l-1.46-5.93" stroke="#2a303f"/><path d="M48.34 135.24q-.82-.5-.32-2.16" stroke="#443569"/><path d="m48.02 133.08-.86-14.18" stroke="#2a303f"/><path d="M47.16 118.9q.49-7.23 1.9-14.42.05-.25.19-.44.15-.2.31-.4.31-.38.33-.87.04-1.42.5-2.77 1.73-5.08 4.15-9.85 1.09-2.14 1.86-4.37 1.03-2.93 5.04-7.74" stroke="#443569"/><path d="M192.14 89.31q4.48 8.32 6.37 17.96" stroke="#5d4f30"/><path d="M198.51 107.27q2.22 9.41 1.54 19.19" stroke="#43493b"/><path d="M200.05 126.46q-.36-8.05-1.63-16.05c-.14-.91-.51-1.39-.63-2.26q-.84-6.13-4.4-10.78a2.58 2.58 0 0 0-1.66-.99q-3.7-.59-6.99-2.34-.5-.27-.36-.82.2-.86-.59-.97-.56-.88-1.09-1.78-.05-.09-.13-.02-.05.04-.11.06-.22.06-.32-.26-.09-.28-.35-.46-.1-.07-.22-.04l-.43.11q-.36.09-.3.45.18 1.11 1.24 1.63.34.17-.01.3-1.33.52-2.07-.39-4.59-5.64-8.06-8.56-.38-.33-.88-.25l-1.85.3q-.49.07-.93-.16-4.66-2.49-8.78-5.81-2.1-1.7-7.81-4.38c-1.69-.79-3.8-.79-5.66-1.65q-.44-.2-.91-.21c-1.65-.02-2.52-.86-4.27-.75q-.45.03-.67-.37c-.53-.99-1.45-1.25-2.5-.96q-.48.13-.93-.17-.41-.29-.92-.23-1.19.12-2.17.71-.37.22-.75.02-1.98-1.04-3.76-.02-.46.26-.99.26h-1.91a2.09 2.04-31.6 0 1-.89-.2c-1.27-.6-3.54-.27-4.26-.81q-.38-.28-.84-.32l-11.75-.84a.98.93-54.7 0 0-.5.1c-1.22.59-2.51.03-3.5.11q-1.6.14-3.19.23-.12.01-.19.12l-.29.45q-.22.34-.6.5-2.17.93-4.5 1.36c-3.05.57-3.4 2.3-5.12 4.39q-.25.31-.25.7v.34a.97.14-14.5 0 1-.87.36q-.3.08-.55-.16-.07-.07-.08.04 0 .15-.01.3a.24.24 0 0 1-.41.17q-.66-.63-1.17-.03-.34.4-.86.45l-4.85.51q-.38.04-.71.27-.97.67-1.71-.04-.03-.04-.03.01v.36q-.01.44-.42.28-1.91-.71-2.81.66-.23.34-.61.21-.41-.14-.58-.53-.19-.42-.61-.59-1.48-.61-1.86-2.3-.21-.9.05-.96a.97.87-36.6 0 0 .34-1.69q-.54-.28-.51-1 .02-.53-.38-.19c-2.56 2.15-4.52 4.02-7.37 4.54q-.46.08-.81.4-.95.87-2.11 1.22" stroke="#2d2725"/><path d="M61.44 78.04q.84-1.06 1.68-2.04c1.28-1.48 1.4-3.43 3.63-4.36q.46-.19.78-.58l1.5-1.78" stroke="#4a376a"/><path d="M81.6 185.74q2.33 2.08 4.56 3.71c1.21.88 2.75.88 3.63 2.87" stroke="#464084"/><path d="m153.77 194.05-5.51.88" stroke="#405154"/><path d="M148.26 194.93q-1.46-.24-2.75.95-.14.13.05.14.31.01.41-.1" stroke="#464084"/><path d="M145.97 195.92q.83.27 1.69.04" stroke="#405154"/><path d="m107.67 198.31 6.16.72q.05.01.05-.05v-.05q0-.05-.13-.08l-7.49-1.27a.22.22 0 0 1 0-.43q.75-.12 1.45.1.16.05.06-.08-.19-.26-.4-.3-3.8-.66-7.61-.79" stroke="#464084"/><path d="M145.97 195.92q1.56-.38 2.29-.99" stroke="#5a577f"/><path d="M202.51 128.44q-1 7.58-2.38 15.06-.22 1.21-.78 1.53a.55.55 0 0 0-.27.6q.29 1.28-.28 2.32-.25.46-.17.97.16 1.12-.63 1.95-.3.32-.22-.12l.57-3.11q.06-.35-.18-.09l-.45.49q-.37.39-.34.94.07 1-.63 1.82-.29.34-.35.79-.21 1.74-1.64 2.95" stroke="#6a8a7b"/><path d="M194.76 154.54q-.8 1.86-2.1 3.06-.56.53-.29-.19 1.74-4.61 3.67-9.16c.36-.85.31-2.24.74-3.05q.9-1.73.98-2.03.88-3.26 1.18-6.71M153.77 194.05q1.06-1.79 2.99-2.52c1.44-.54 2.27-1.24 3.45-1.99 1.79-1.13 3.19-2.81 5.31-3.78M165.52 185.76q1.83-.13 3.13-1.98M188.27 166.17q1.94-3.3 3.78-6.7.19-.35.02-.54-.3-.34-.51.06-1.18 2.18-2.52 4.24c-.61.94-1.65 1.4-2.16 2.15q-1.84 2.69-3.71 5.33-.39.55-1.15.51M179.27 174.07q2.05-.61 2.75-2.85M173.78 179.74q-1.02 1.77-2.85 2.06" stroke="#405154"/><path d="m93.13 101.96.07 34.54" stroke="#5f5b5e"/><path d="m93.2 136.5-.26 27" stroke="#626765"/><path d="M92.94 163.5q-2.28 5.9 3.02 8.26 1.87.83 5.02 1.76c3.19.95 6.87.57 9.43.69l8.32.36c1.29.05 2.71.88 4.02.65q3.47-.6 7-.89c2.75-.22 5.07-1.35 7.82-1.85q.4-.07.52-.46.09-.32.48-.15a.81.79-43.5 0 0 .63.01q1.23-.5 2.49-.98.88-.34 1.43-.17.84.25 1.06 1.27.09.42.48.6 1.43.65 1.27 2.11-.06.56.49.67 1.52.32 2.93-.09.49-.14.95.06 2.47 1.04 5.19.75.34-.04.48-.35.31-.73 1.16-.86.57-.09.23-.56-.66-.89-1.56-.62" stroke="#18181a"/><path d="M155.8 173.71q2.31-1.18 3.77-3.24" stroke="#7f6f6d"/><path d="M159.57 170.47q3.03.04 2.53-5.48-.19-2.17-2.09-4.71-.26-.36-.71-.42c-2.48-.35-2.8-2.3-3.79-4.08q-.2-.37-.06-.76l.83-2.19q.16-.42.12-.87-.17-2.28-.26-4.58c-.05-1-.44-1.39-.77-2.29q-.17-.49.01-.97c1.2-3.2-.26-8.43-1.05-11.03a1.14.12 71.7 0 1-.2-.9q.11-.64-.39-.7-.81-1.17-1.57-2.39-.27-.45-.28-.97l-.04-3.32q0-.58-.55-.78-.34-.13-.6-.37-.32-.3-.39-.92c-.18-1.7-.18-2.68-1.05-4.31-.74-1.38-1.98-4.99-.26-6.12q.4-.26.65-.65 1.42-2.22.52-3.51" stroke="#18181a"/><path d="M150.17 108.15q7.86-20.64-9.47-32.08-4.19-2.77-10.22-2.86" stroke="#817a78"/><path d="m130.48 73.21-4.74.04" stroke="#604c4b"/><path d="M125.74 73.25q-12.39-.09-24.28.32c-5.23.18-8.75 1.12-8.62 7.06q.23 10.66.29 21.33" stroke="#534546"/><path d="M125.74 73.25q-2.87 1.38-5.82 1.99c-1.16.24-1.77.88-2.49 1.69q-.28.3-.68.21-.48-.12-.77.32-4.3 1.82-8.87 2.9-.25.06-.11.27.1.13.21.26.26.3.67.32l14.08.65" stroke="#8c6c6c"/><path d="m121.96 81.86-18.75-.03a.74.74 0 0 0-.74.74l-.03 14.62" stroke="#503c3e"/><path d="m102.44 97.19-6.59 1.07a2.19 2.18 18.5 0 0-1.13.56q-1.4 1.35-1.59 3.14" stroke="#8b7b7f"/><path d="M130.48 73.21q-2.3 4.43-1.1 8.77" stroke="#baa09f"/><path d="m129.38 81.98-7.42-.12" stroke="#5d4343"/><path d="m124.74 114.65-4.4-.18q-.71-.03-.11-.4 1.16-.7 2.54-.38a1.54 1.5 42.6 0 0 .73-.02l7.51-2.04q.44-.12.59-.55.24-.65.87-.7.36-.02.64-.25l2.97-2.58q.37-.32.63-.73l2.11-3.34q.23-.36.26-.8.05-.88.49-1.57.27-.42.3-.92.15-2.8-.37-5.56c-.17-.94-.69-1.39-1.22-2.14q-.29-.42-.18-.91.25-1.19-.37-2.13-.11-.18-.11.03 0 .17.01.33.02.42-.34.22l-.76-.42q-.43-.23-.92-.17c-1.33.16-2.61.13-3.87.43q-2.55.61-5.14 1.04c-1.76.3-3.02 1.24-4.82 1.68q-.48.12-.85.44-1.75 1.5-4.93 1.87-3.17.38-8.51 2.94-.42.2-.61.62-.63 1.34-2.1 1.17-.49-.06-.88.26-.6.5-1.36.64" stroke="#241c1d"/><path d="m102.54 100.53-.1-3.34" stroke="#5c5256"/><path d="m102.49 120.83-.1 20.13" stroke="#58565e"/><path d="m102.39 140.96-.16-17.57q-.01-.5-.51-.5l-.41.01q-.53.01-.43.53.35 1.77-1.09 2.65a1.1 1.05-2.1 0 0-.35.36l-1.54 2.77q-.22.4-.64.6-1.43.68-1.62 2.31 0 .02-.01.02h-.35q-.32-.01-.47.27c-.88 1.54-.8 2-.96 3.73q-.14-.01.17-1.33a.38.37 7.4 0 0-.36-.46h-.07q-.07 0-.06.06.17 1.37-.33 2.09" stroke="#999c9f"/><path d="M150.17 108.15q-3.93 6.83-10.35 10.68a.4.4 0 0 0 .03.7c14.96 7.61 18.34 24.79 8.92 38.3" stroke="#726d6e"/><path d="M148.77 157.83q-.66-.45-.44-1.38.12-.53.04.05-.16 1.01-.67 1.87-.3.49-.87.5-.53 0-.46.6.04.4-.36.4h-.38a.34.34 0 0 1-.29-.51l1.7-2.74q.21-.33.16-.73-.14-1.18.96-1.68.39-.18.49-.6l1.13-4.66q.11-.46.46-.79 1.5-1.4.77-3.56-.08-.23.16-.27l.25-.04a.14.14 0 0 1 .16.13q.25 2.59-.52 5.06-.04.11.03.15.07.04.05.02l-.03-.05q.63-1.58.69-2.09.56-5.35.13-10.68a1.73 1.71 15.6 0 0-.73-1.28q-1.36-.97-2.27-2.43-.24-.39-.69-.46c-2.03-.3-3.38-1.62-5.37-.55q-.45.25-.21.7l1.77 3.3a.79.78-51.5 0 1 .06.59q-.27.9-.9.51" stroke="#bbbbb9"/><path d="M143.59 137.21c-4.68-10.24-12.7-12.45-23.37-12.52" stroke="#7a7579"/><path d="M120.22 124.69c-4.43-.25-.15-6.9-2.96-8.97q-.37-.27-.01-.55.3-.24.71-.33" stroke="#adbdba"/><path d="m117.96 114.84 6.78-.19" stroke="#817a78"/><path d="M124.74 114.65q7.09-.69 12.53-5.38c10.68-9.2 5.74-24.85-7.89-27.29" stroke="#7e7171"/><path d="M117.96 114.84c-3.93-.33-9.82-1.09-10.3 3.99" stroke="#546966"/><path d="M107.66 118.83q-2.02.04-4-.7-.58-.21-.7.39l-.47 2.31" stroke="#212025"/><path d="m102.49 120.83.05-20.3" stroke="#5f5b5e"/><path d="M143.59 137.21q2.47 8.48-2.24 14.62-4.51 5.88-10.6 5.9-13.75.04-27.11.01a1.21 1.21 0 0 1-1.21-1.2l-.04-15.58M143.74 162.7q-6.14 4.72-12.49 5.06-6.52.34-21.16.21" stroke="#5b6266"/><path d="M159.57 170.47q1.96-5.03-1.4-8.39c-5.59-5.6-14.51 1.42-10.77 8.3 1.55 2.86 5.16 4.65 8.4 3.33" stroke="#706263"/><path d="M92.94 163.5q1.28 4.16 4.81 4.25 9.27.24 12.34.22" stroke="#535a5b"/><path d="m110.09 167.97-1.04.77q-.37.28-.81.43-1.07.35-1.13 1.5a1.01 1 84.2 0 0 1.26 1.03q.86-.23 1.57.15.45.23.95.31c6.65 1.03 14.76 1.84 21.35.32 3.84-.89 7.55-2.48 11.44-3.04a.71.7 83 0 0 .59-.76l-.53-5.98" stroke="#12131a"/><path d="m143.74 162.7 5.03-4.87" stroke="#535a5b"/><path d="M120.22 124.69c-5.35.16-13.54 1.76-12.56-5.86" stroke="#4d6466"/><path d="m48.45 144.91-.75-2.19q-.06-.17-.04-.36.01-.17-.09-.29-.4-.47-.19.17l2.62 7.85q.01.04-.17.05-.01 0 .05-.01.03-.01.03-.02-.3-1.68-.41-3.35-.05-.73-.53-1.12-.36-.29-.52-.73" stroke="#5673bc"/></g><path d="M0 0h246v246H0V0Zm51.16 86.14c-8.3 15.31-10.47 33.28-8.11 50.32q3.05 19.59 13.99 34.26c22.65 30.4 62.84 41.97 98.01 26.67 33.43-14.95 52.46-46.01 49.09-82.93-.54-4.54-1.08-9.25-2.33-13.53-6.29-21.42-21.54-39.96-41.53-50.38q-23.97-12.24-49.64-8.28c-25.31 3.89-47.61 21.5-59.48 43.87Z" fill="#090b0f"/><path d="M160.28 50.55q-1.04.36-.43 1.37l-10.49-4.22-10.16-2.82c-5.78-1.74-11.56-1.62-18.04-1.69q-6.15-.05-11.74 1.01c-4.72.89-9.78 1.69-14.16 3.72-2.34 1.09-5.33 1.79-6.68 3.46q-.32.4-.78.6-2.12.92-4.2 1.91c-3.44 1.63-6.59 4.27-9.66 6.53a.92.83-64.5 0 1-.39.16q-.3.03-.54.19-.17.11-.14.41a.17.14-27.1 0 1-.05.11l-4.51 4.5q-.31.31-.72.49-.52.23-.71.47-3 3.74-6.07 7.41-1.78 2.13-3.27 4.34-1.45 1.4-2.26 3.06c-1.2 2.44-1.99 3.77-2.91 5.68q-.2.41-.7.47-.54.06-.53-.48l.02-1.09c11.87-22.37 34.17-39.98 59.48-43.87q25.67-3.96 49.64 8.28Z" fill="#f5a3cb"/><path d="M139.2 44.88q-6.13-.91-12.45-1.14c-5.01-.18-9.77-.67-12.24.78-2.15 1.26-5.79 1.03-8.26 1.12-2.79.09-4.85 1.94-6.61 2.7q-4.69 2.01-9.23 4.36-.11.05-3.14 1.46-2.08.97-3.62 2.33-2.57 1.97-5.62 3.47-2.21 1.08-3.54 2.53-1.46 1.59-2.89 3.2-.32.36-.73.59-.91.52-1.39 1.46-.23.44-.64.71-2.22 1.44-3.78 3.66c-1.65.79-1.1 2.64-3.11 3.34q-.46.16-.7.59-1.05 1.91-2.87 3.09a1.04 1.02-16 0 0-.48.85c-.03 1.31-1 2.44-1.38 3.38-1 2.53-3.07 3.53-4.07 5.96q-.18.45-.59.69-.48.3-.46.9.02.5-.25.91l-1.58 2.43 2.32-5.5q.22-.52.71-.79.8-.45.98-1.46a1.18 1.16-13.6 0 1 .46-.74c1.44-1.08 1.19-2.33 2.09-3.62q1.18-1.66 1.41-3.64 1.49-2.21 3.27-4.34 3.07-3.67 6.07-7.41.19-.24.71-.47.41-.18.72-.49l4.51-4.5a.17.14-27.1 0 0 .05-.11q-.03-.3.14-.41.24-.16.54-.19a.92.83-64.5 0 0 .39-.16c3.07-2.26 6.22-4.9 9.66-6.53q2.08-.99 4.2-1.91.46-.2.78-.6c1.35-1.67 4.34-2.37 6.68-3.46 4.38-2.03 9.44-2.83 14.16-3.72q5.59-1.06 11.74-1.01c6.48.07 12.26-.05 18.04 1.69Z" fill="#da5da5"/><path d="m139.2 44.88 10.16 2.82-2.59.34q-.88.11-.08.49L158.38 54v.06q0 .06-.05.02-.45-.44-1.09-.02-10.94-5.17-23.01-6.95-9.84-1.45-19.72-.09-4.83.67-9.46 1.17-2.5.24-4.68 1.16-2.48 1.04-4.47 1.56-2.77.73-5.25 2.27-3.21 1.99-7 3.31 1.54-1.36 3.62-2.33 3.03-1.41 3.14-1.46 4.54-2.35 9.23-4.36c1.76-.76 3.82-2.61 6.61-2.7 2.47-.09 6.11.14 8.26-1.12 2.47-1.45 7.23-.96 12.24-.78q6.32.23 12.45 1.14Z" fill="#e74f6a"/><path d="m157.24 54.06 6.16 3.26q10.66 7.98 19.23 17.84c1.51 1.74 2.76 4.17 4 5.71q3.57 4.42 5.51 8.44-2.08-.31-2.35-2.56-.05-.44-.47-.57-.69-.22-.65-1.06a1.06 1.06 0 0 0-.9-1.1l-3.74-.57q-.16-.03-.16-.19v-.33q.01-.39-.3-.62-1.35-1.03-1.8-2.65-.14-.52-.6-.8c-1.49-.89-1.29-2.79-2.5-4.24a1.24.19 81.1 0 1-.28-.87q-.1-.51.11-.98.19-.44-.29-.39-.24.03-.48-.13a1.42.4 31.6 0 1-.91-.99q.18-.73-.55-1-.37-.13-.56-.48-.78-1.42-2.07-1.52-.92-.08-.94-.09-.3-.16-.66.11-.15.11-.14.3 0 .13.01.26.06.51-.33.18c-1.79-1.46-4.15-2.17-5.65-3.77-1.81-1.94-3.05-3.9-6.17-2.88-2.25.74-5.27-1-7.7-.99q-2.52.01-5.05 0-.18 0-.09-.15.16-.26.52-.27a.54.53-14.2 0 0 .46-.76l-1.08-2.26q-.12-.25-.38-.32-.73-.21-1.22-.79-.31-.36-.78-.4-1.05-.08-2.1-.19-.94-.1-1.65.05-3.8.78-7.7.8-.68.01-1.11-.43-.35-.35-.83-.47-1.89-.44-3.61-1.39-.48-.26-1.02-.28l-2.64-.08q-.57-.02-.82-.54-1.23-2.65-3.96-2.01a.92.92 0 0 1-1-.41q-1-1.64-2.94-1.68-.44-.01-.86.12l-1.82.56q-.36.11-.58.4l-1.06 1.37q-.31.4-.81.29-1.61-.38-3.27-.06-.5.1-.98-.07-1.71-.56-3.51.19-.52.22-1.07.1-1.5-.33-2.83.45a1.05 1.05 0 0 1-1 .04q-1-.48-1.65.23-.35.39-.88.44l-4.53.39 2.67-.93q.43-.15.78-.43.77-.63 1.7-.9c2.34-.68 4.08-1.78 6.64-2.33q1.44-.31 3.05-1.47 4.63-.5 9.46-1.17 9.88-1.36 19.72.09 12.07 1.78 23.01 6.95Z" fill="#3d2927"/><path d="m149.36 47.7 10.49 4.22c3.44 2.2 6.8 4.22 9.98 6.81q4.1 3.33 8.21 6.66.38.31.52.78.15.48.66.48c3.99 3.7 6.82 7.81 10.15 12.03q1.74 2.19 3.26 4.55a3.56 2.22 55.9 0 1 .26.43q2.1 3.91 3.97 7.92 4.5 9.59 5.16 20.14l-1.68-7.65q-.1-.48-.35-.91-.63-1.13-.9-3.14-.3-2.19-2.13-5.11-.74-1.19-1.61-3.58-.71-1.95-2.21-3.47-.34-.35-.36-.84c-.07-1.61-1.37-1.81-2.08-2.65-3-3.54-5.09-7.79-8.46-10.95q-1.42-1.32-3.16-3.57-1.44-1.85-3.4-3.19-.39-.26-.5-.71-.26-1.01-1.28-1.26-.48-.12-.8-.5c-.46-.56-.66-.94-1.28-1.34q-2.49-1.61-4.55-3.75-1.07-1.11-3.87-1.78l-6.16-3.26q.64-.42 1.09.02.05.04.05-.02V54l-11.69-5.47q-.8-.38.08-.49l2.59-.34Z" fill="#ea844a"/><path d="M105.05 48.19q-1.61 1.16-3.05 1.47c-2.56.55-4.3 1.65-6.64 2.33q-.93.27-1.7.9-.35.28-.78.43l-2.67.93q-7.76 3.66-14.32 9.22-.38.32-.86.43-.4.09-.59.28-2.73 2.79-5.41 5.1-1.91.8-3.97 2.83 1.56-2.22 3.78-3.66.41-.27.64-.71.48-.94 1.39-1.46.41-.23.73-.59 1.43-1.61 2.89-3.2 1.33-1.45 3.54-2.53 3.05-1.5 5.62-3.47 3.79-1.32 7-3.31 2.48-1.54 5.25-2.27 1.99-.52 4.47-1.56 2.18-.92 4.68-1.16Z" fill="#943261"/><path d="M192.14 89.31q4.48 8.32 6.37 17.96 2.22 9.41 1.54 19.19-.36-8.05-1.63-16.05c-.14-.91-.51-1.39-.63-2.26q-.84-6.13-4.4-10.78a2.58 2.58 0 0 0-1.66-.99q-3.7-.59-6.99-2.34-.5-.27-.36-.82.2-.86-.59-.97-.56-.88-1.09-1.78-.05-.09-.13-.02-.05.04-.11.06-.22.06-.32-.26-.09-.28-.35-.46-.1-.07-.22-.04l-.43.11q-.36.09-.3.45.18 1.11 1.24 1.63.34.17-.01.3-1.33.52-2.07-.39-4.59-5.64-8.06-8.56-.38-.33-.88-.25l-1.85.3q-.49.07-.93-.16-4.66-2.49-8.78-5.81-2.1-1.7-7.81-4.38c-1.69-.79-3.8-.79-5.66-1.65q-.44-.2-.91-.21c-1.65-.02-2.52-.86-4.27-.75q-.45.03-.67-.37c-.53-.99-1.45-1.25-2.5-.96q-.48.13-.93-.17-.41-.29-.92-.23-1.19.12-2.17.71-.37.22-.75.02-1.98-1.04-3.76-.02-.46.26-.99.26h-1.91a2.09 2.04-31.6 0 1-.89-.2c-1.27-.6-3.54-.27-4.26-.81q-.38-.28-.84-.32l-11.75-.84a.98.93-54.7 0 0-.5.1c-1.22.59-2.51.03-3.5.11q-1.6.14-3.19.23-.12.01-.19.12l-.29.45q-.22.34-.6.5-2.17.93-4.5 1.36c-3.05.57-3.4 2.3-5.12 4.39q-.25.31-.25.7v.34a.97.14-14.5 0 1-.87.36q-.3.08-.55-.16-.07-.07-.08.04 0 .15-.01.3a.24.24 0 0 1-.41.17q-.66-.63-1.17-.03-.34.4-.86.45l-4.85.51q-.38.04-.71.27-.97.67-1.71-.04-.03-.04-.03.01v.36q-.01.44-.42.28-1.91-.71-2.81.66-.23.34-.61.21-.41-.14-.58-.53-.19-.42-.61-.59-1.48-.61-1.86-2.3-.21-.9.05-.96a.97.87-36.6 0 0 .34-1.69q-.54-.28-.51-1 .02-.53-.38-.19c-2.56 2.15-4.52 4.02-7.37 4.54q-.46.08-.81.4-.95.87-2.11 1.22.84-1.06 1.68-2.04c1.28-1.48 1.4-3.43 3.63-4.36q.46-.19.78-.58l1.5-1.78q2.68-2.31 5.41-5.1.19-.19.59-.28.48-.11.86-.43 6.56-5.56 14.32-9.22l4.53-.39q.53-.05.88-.44.65-.71 1.65-.23a1.05 1.05 0 0 0 1-.04q1.33-.78 2.83-.45.55.12 1.07-.1 1.8-.75 3.51-.19.48.17.98.07 1.66-.32 3.27.06.5.11.81-.29l1.06-1.37q.22-.29.58-.4l1.82-.56q.42-.13.86-.12 1.94.04 2.94 1.68a.92.92 0 0 0 1 .41q2.73-.64 3.96 2.01.25.52.82.54l2.64.08q.54.02 1.02.28 1.72.95 3.61 1.39.48.12.83.47.43.44 1.11.43 3.9-.02 7.7-.8.71-.15 1.65-.05 1.05.11 2.1.19.47.04.78.4.49.58 1.22.79.26.07.38.32l1.08 2.26a.54.53-14.2 0 1-.46.76q-.36.01-.52.27-.09.15.09.15 2.53.01 5.05 0c2.43-.01 5.45 1.73 7.7.99 3.12-1.02 4.36.94 6.17 2.88 1.5 1.6 3.86 2.31 5.65 3.77q.39.33.33-.18-.01-.13-.01-.26-.01-.19.14-.3.36-.27.66-.11.02.01.94.09 1.29.1 2.07 1.52.19.35.56.48.73.27.55 1a1.42.4 31.6 0 0 .91.99q.24.16.48.13.48-.05.29.39-.21.47-.11.98a1.24.19 81.1 0 0 .28.87c1.21 1.45 1.01 3.35 2.5 4.24q.46.28.6.8.45 1.62 1.8 2.65.31.23.3.62v.33q0 .16.16.19l3.74.57a1.06 1.06 0 0 1 .9 1.1q-.04.84.65 1.06.42.13.47.57.27 2.25 2.35 2.56Z" fill="#332926"/><path d="M160.28 50.55c19.99 10.42 35.24 28.96 41.53 50.38 1.25 4.28 1.79 8.99 2.33 13.53l-.06 1.67q-.02.71-.67.42l-.74-.33-.65-4.5q-.66-10.55-5.16-20.14-1.87-4.01-3.97-7.92a3.56 2.22 55.9 0 0-.26-.43q-1.52-2.36-3.26-4.55c-3.33-4.22-6.16-8.33-10.15-12.03q-.51 0-.66-.48-.14-.47-.52-.78-4.11-3.33-8.21-6.66c-3.18-2.59-6.54-4.61-9.98-6.81q-.61-1.01.43-1.37Z" fill="#f4d68b"/><path d="M163.4 57.32q2.8.67 3.87 1.78 2.06 2.14 4.55 3.75c.62.4.82.78 1.28 1.34q.32.38.8.5 1.02.25 1.28 1.26.11.45.5.71 1.96 1.34 3.4 3.19 1.74 2.25 3.16 3.57c3.37 3.16 5.46 7.41 8.46 10.95.71.84 2.01 1.04 2.08 2.65q.02.49.36.84 1.5 1.52 2.21 3.47.87 2.39 1.61 3.58 1.83 2.92 2.13 5.11.27 2.01.9 3.14.25.43.35.91l1.68 7.65.65 4.5-.16 12.22q.3-6.24-.3-12.45-.04-.43-.39-.54-.32-.11-.41-.44l-.73-2.52q-.15-.52-.57-.85-.39-.32-.31-.84.08-.48-.04-.96-.4-1.47-1.25-2.57-1.89-9.64-6.37-17.96-1.94-4.02-5.51-8.44c-1.24-1.54-2.49-3.97-4-5.71q-8.57-9.86-19.23-17.84Z" fill="#87743a"/><path d="M200.05 126.46q.27 5.12-1.11 10-1.7 4.48-3.08 9.09c-.2.68-1 1.89-1.41 2.52q-.47.73-.8 1.98-.35 1.36-1.12 2.55-.27.42-.31.91-.36 3.79-2.83 6.59c-.95 1.09-1.28 2.22-1.75 3.5a.42.41 10.1 0 1-.39.27h-.28q-.14 0-.24.09-1.46 1.3-1.78 2.98a1.33 1.28 78.7 0 1-.53.83q-1.84 1.33-2.4 3.45c-1.61.15-2.03.93-3.34 1.95q-.17.13-.12.28.1.3.34.08.17-.17.38-.22.33-.09.2.23l-.21.53-4.56 5.74-.93-.07q-1.56-.39-2.85 2.06-1.37.46-2.28 1.98-2.59.03-3.13 1.98l-8.36 2.36q-.47.13-.74.53l-.51.74q-.3.43-.83.45-1.73.07-2.37 1.6a.73.72-78 0 1-.68.45q-1.56-.04-2.63 1.15-.3.32-.73.4l-4.45.81a.41.4 84.2 0 0-.33.41q0 .31-.27.47-.55.34-.74.35-5.27.23-10.54.62c-6.09.44-12.21-.03-18.39.02-1.78.02-6.04-.61-7.58-1.47-1.96-1.1-5.37-1.08-7.6-1.25a.63.62 76.2 0 1-.5-.31l-.16-.29q-.25-.44-.75-.46-2.49-.1-4.53-1.47-.4-.27-.68-.67c-.82-1.14-1.66-1.71-3.17-1.95q-2.17-.35-4.26-1.03-.24-.07-.14.15.05.14.22.2.1.04-.01.05-.15.01-.29.01-.11.01-.16-.1-.85-1.76-2.74-1.79l.31.04c-1.27-1.26-3.4-3.54-4.95-4.17q-.4-.16-.6-.67-.14-.35-.43-.61-.56-.5-1.32-.61-.54-.08-.87-.51-2.27-2.93-5.73-3.91l-2.19-2.66q.15-1.83-1.05-2.7-.35-.26-.59-.63l-3.04-4.67a.61.6 72.9 0 0-.5-.27q-.17 0-.33-.01-.58-.03.16.65.77.71.96 1.99-.83.13-1.22-.73-.73-1.61-1.7-2.44-.38-.32-.54-.79l-.75-2.14q-.57-3.07-2.37-4.88-.4-.4-.43-.97-.16-2.78-1.92-5a.64.62-65.6 0 1-.12-.34q-.02-.59.02-1.14.01-.07 0 0-.06.32-.15.46-.12.2-.16-.03-.4-2.63-1.65-5-.02-.04-.05-.01l-.29.24q-.12.11-.03.25 1.31 2.1 1.29 4.51l-2.18-7.7.31.14q.42.19.31-.26l-1.46-5.93q-.82-.5-.32-2.16l-.86-14.18q.49-7.23 1.9-14.42.05-.25.19-.44.15-.2.31-.4.31-.38.33-.87.04-1.42.5-2.77 1.73-5.08 4.15-9.85 1.09-2.14 1.86-4.37 1.03-2.93 5.04-7.74 1.16-.35 2.11-1.22.35-.32.81-.4c2.85-.52 4.81-2.39 7.37-4.54q.4-.34.38.19-.03.72.51 1a.97.87-36.6 0 1-.34 1.69q-.26.06-.05.96.38 1.69 1.86 2.3.42.17.61.59.17.39.58.53.38.13.61-.21.9-1.37 2.81-.66.41.16.42-.28v-.36q0-.05.03-.01.74.71 1.71.04.33-.23.71-.27l4.85-.51q.52-.05.86-.45.51-.6 1.17.03a.24.24 0 0 0 .41-.17q.01-.15.01-.3.01-.11.08-.04.25.24.55.16a.97.14-14.5 0 0 .87-.36v-.34q0-.39.25-.7c1.72-2.09 2.07-3.82 5.12-4.39q2.33-.43 4.5-1.36.38-.16.6-.5l.29-.45q.07-.11.19-.12 1.59-.09 3.19-.23c.99-.08 2.28.48 3.5-.11a.98.93-54.7 0 1 .5-.1l11.75.84q.46.04.84.32c.72.54 2.99.21 4.26.81a2.09 2.04-31.6 0 0 .89.2h1.91q.53 0 .99-.26 1.78-1.02 3.76.02.38.2.75-.02.98-.59 2.17-.71.51-.06.92.23.45.3.93.17c1.05-.29 1.97-.03 2.5.96q.22.4.67.37c1.75-.11 2.62.73 4.27.75q.47.01.91.21c1.86.86 3.97.86 5.66 1.65q5.71 2.68 7.81 4.38 4.12 3.32 8.78 5.81.44.23.93.16l1.85-.3q.5-.08.88.25 3.47 2.92 8.06 8.56.74.91 2.07.39.35-.13.01-.3-1.06-.52-1.24-1.63-.06-.36.3-.45l.43-.11q.12-.03.22.04.26.18.35.46.1.32.32.26.06-.02.11-.06.08-.07.13.02.53.9 1.09 1.78.79.11.59.97-.14.55.36.82 3.29 1.75 6.99 2.34a2.58 2.58 0 0 1 1.66.99q3.56 4.65 4.4 10.78c.12.87.49 1.35.63 2.26q1.27 8 1.63 16.05Zm-106.92-24.5.07 34.54-.26 27q-2.28 5.9 3.02 8.26 1.87.83 5.02 1.76c3.19.95 6.87.57 9.43.69l8.32.36c1.29.05 2.71.88 4.02.65q3.47-.6 7-.89c2.75-.22 5.07-1.35 7.82-1.85q.4-.07.52-.46.09-.32.48-.15a.81.79-43.5 0 0 .63.01q1.23-.5 2.49-.98.88-.34 1.43-.17.84.25 1.06 1.27.09.42.48.6 1.43.65 1.27 2.11-.06.56.49.67 1.52.32 2.93-.09.49-.14.95.06 2.47 1.04 5.19.75.34-.04.48-.35.31-.73 1.16-.86.57-.09.23-.56-.66-.89-1.56-.62 2.31-1.18 3.77-3.24 3.03.04 2.53-5.48-.19-2.17-2.09-4.71-.26-.36-.71-.42c-2.48-.35-2.8-2.3-3.79-4.08q-.2-.37-.06-.76l.83-2.19q.16-.42.12-.87-.17-2.28-.26-4.58c-.05-1-.44-1.39-.77-2.29q-.17-.49.01-.97c1.2-3.2-.26-8.43-1.05-11.03a1.14.12 71.7 0 1-.2-.9q.11-.64-.39-.7-.81-1.17-1.57-2.39-.27-.45-.28-.97l-.04-3.32q0-.58-.55-.78-.34-.13-.6-.37-.32-.3-.39-.92c-.18-1.7-.18-2.68-1.05-4.31-.74-1.38-1.98-4.99-.26-6.12q.4-.26.65-.65 1.42-2.22.52-3.51 7.86-20.64-9.47-32.08-4.19-2.77-10.22-2.86l-4.74.04q-12.39-.09-24.28.32c-5.23.18-8.75 1.12-8.62 7.06q.23 10.66.29 21.33Z" fill="#272524"/><path d="m69.03 69.28-1.5 1.78q-.32.39-.78.58c-2.23.93-2.35 2.88-3.63 4.36q-.84.98-1.68 2.04-4.01 4.81-5.04 7.74-.77 2.23-1.86 4.37-2.42 4.77-4.15 9.85-.46 1.35-.5 2.77-.02.49-.33.87-.16.2-.31.4-.14.19-.19.44-1.41 7.19-1.9 14.42-.36 8.05.03 12.84.06.73.83 1.34-.5 1.66.32 2.16-.95 4.37.84 6.05l2.18 7.7.72 3.07q.11.49.58.69.77.34.84.99.28 2.31 1.76 3.42a1.37 1.3 11.8 0 1 .5.72q.47 1.68 1.46 3.02l.75 2.14q.16.47.54.79.97.83 1.7 2.44.39.86 1.22.73l-.01.4a.63.63 0 0 0 .51.63q.47.1.9.63 1.47 1.79 2.99 3.98l2.19 2.66 10.34 9.25q-5.05-1.88-8.38-6.15-.33-.43-.9-.55-.51-.11-.81-.54-.79-1.15-1.87-1.98-.47-.35-.75-.87-.99-1.78-2.62-3.04-.41-.31-.53-.81-.17-.71-1.02-.92a.4.39-12.7 0 1-.2-.12q-.99-1.12-2.25-1.84-.44-.25-.71-.67l-4.51-6.97q-.29-.45-.18-.98.21-.99-.76-1.21a.33.33 0 0 1-.24-.43q.12-.39-.17-.58-.3-.2-.16.13.15.34.3.67.03.05-.01.09-.11.14-.25.15-.19.02-.25-.16c-.93-2.42-1.41-4.9-2.36-7.36q-2.04-5.29-3.68-10.71-.41-1.36-.15-3.94.22-2.16-.32-7.86 0-.02.02-.02h.01l.03-.01-.03 5.9q0 .17-.17.17l-.25-.01q-.25 0-.25-.25 0-2.69-.33-5.29v-.01q.01 0 .02-.01.03 0 .03.03l-.25 5.77q-1.04-6.31-.85-8.17.79-7.71.59-10.75-.16-2.39.53-4.7.49-1.63 1.03-3.24 1.06-3.16 1.64-6.47c.41-2.41 1.85-4.14 2.23-6.59l1.58-2.43q.27-.41.25-.91-.02-.6.46-.9.41-.24.59-.69c1-2.43 3.07-3.43 4.07-5.96.38-.94 1.35-2.07 1.38-3.38a1.04 1.02-16 0 1 .48-.85q1.82-1.18 2.87-3.09.24-.43.7-.59c2.01-.7 1.46-2.55 3.11-3.34q2.06-2.03 3.97-2.83Zm-20.58 75.63-.75-2.19q-.06-.17-.04-.36.01-.17-.09-.29-.4-.47-.19.17l2.62 7.85q.01.04-.17.05-.01 0 .05-.01.03-.01.03-.02-.3-1.68-.41-3.35-.05-.73-.53-1.12-.36-.29-.52-.73Z" fill="#6045ae"/><path d="M125.74 73.25q-2.87 1.38-5.82 1.99c-1.16.24-1.77.88-2.49 1.69q-.28.3-.68.21-.48-.12-.77.32-4.3 1.82-8.87 2.9-.25.06-.11.27.1.13.21.26.26.3.67.32l14.08.65-18.75-.03a.74.74 0 0 0-.74.74l-.03 14.62-6.59 1.07a2.19 2.18 18.5 0 0-1.13.56q-1.4 1.35-1.59 3.14-.06-10.67-.29-21.33c-.13-5.94 3.39-6.88 8.62-7.06q11.89-.41 24.28-.32Z" fill="#7f6567"/><path d="m125.74 73.25 4.74-.04q-2.3 4.43-1.1 8.77l-7.42-.12-14.08-.65q-.41-.02-.67-.32-.11-.13-.21-.26-.14-.21.11-.27 4.57-1.08 8.87-2.9.29-.44.77-.32.4.09.68-.21c.72-.81 1.33-1.45 2.49-1.69q2.95-.61 5.82-1.99Z" fill="#997271"/><path d="M130.48 73.21q6.03.09 10.22 2.86 17.33 11.44 9.47 32.08-3.93 6.83-10.35 10.68a.4.4 0 0 0 .03.7c14.96 7.61 18.34 24.79 8.92 38.3q-.66-.45-.44-1.38.12-.53.04.05-.16 1.01-.67 1.87-.3.49-.87.5-.53 0-.46.6.04.4-.36.4h-.38a.34.34 0 0 1-.29-.51l1.7-2.74q.21-.33.16-.73-.14-1.18.96-1.68.39-.18.49-.6l1.13-4.66q.11-.46.46-.79 1.5-1.4.77-3.56-.08-.23.16-.27l.25-.04a.14.14 0 0 1 .16.13q.25 2.59-.52 5.06-.04.11.03.15.07.04.05.02l-.03-.05q.63-1.58.69-2.09.56-5.35.13-10.68a1.73 1.71 15.6 0 0-.73-1.28q-1.36-.97-2.27-2.43-.24-.39-.69-.46c-2.03-.3-3.38-1.62-5.37-.55q-.45.25-.21.7l1.77 3.3a.79.78-51.5 0 1 .06.59q-.27.9-.9.51c-4.68-10.24-12.7-12.45-23.37-12.52-4.43-.25-.15-6.9-2.96-8.97q-.37-.27-.01-.55.3-.24.71-.33l6.78-.19q7.09-.69 12.53-5.38c10.68-9.2 5.74-24.85-7.89-27.29q-1.2-4.34 1.1-8.77Z" fill="#dacecc"/><path d="M57.54 78.5q-.23 1.98-1.41 3.64c-.9 1.29-.65 2.54-2.09 3.62a1.18 1.16-13.6 0 0-.46.74q-.18 1.01-.98 1.46-.49.27-.71.79l-2.32 5.5c-.38 2.45-1.82 4.18-2.23 6.59q-.58 3.31-1.64 6.47-.54 1.61-1.03 3.24-.69 2.31-.53 4.7.2 3.04-.59 10.75-.19 1.86.85 8.17l-1.35 2.29c-2.36-17.04-.19-35.01 8.11-50.32l-.02 1.09q-.01.54.53.48.5-.06.7-.47c.92-1.91 1.71-3.24 2.91-5.68q.81-1.66 2.26-3.06Z" fill="#917bd8"/><path d="m121.96 81.86 7.42.12c13.63 2.44 18.57 18.09 7.89 27.29q-5.44 4.69-12.53 5.38l-4.4-.18q-.71-.03-.11-.4 1.16-.7 2.54-.38a1.54 1.5 42.6 0 0 .73-.02l7.51-2.04q.44-.12.59-.55.24-.65.87-.7.36-.02.64-.25l2.97-2.58q.37-.32.63-.73l2.11-3.34q.23-.36.26-.8.05-.88.49-1.57.27-.42.3-.92.15-2.8-.37-5.56c-.17-.94-.69-1.39-1.22-2.14q-.29-.42-.18-.91.25-1.19-.37-2.13-.11-.18-.11.03 0 .17.01.33.02.42-.34.22l-.76-.42q-.43-.23-.92-.17c-1.33.16-2.61.13-3.87.43q-2.55.61-5.14 1.04c-1.76.3-3.02 1.24-4.82 1.68q-.48.12-.85.44-1.75 1.5-4.93 1.87-3.17.38-8.51 2.94-.42.2-.61.62-.63 1.34-2.1 1.17-.49-.06-.88.26-.6.5-1.36.64l-.1-3.34.03-14.62a.74.74 0 0 1 .74-.74l18.75.03Z" fill="#211315"/><path d="m124.74 114.65-6.78.19c-3.93-.33-9.82-1.09-10.3 3.99q-2.02.04-4-.7-.58-.21-.7.39l-.47 2.31.05-20.3q.76-.14 1.36-.64.39-.32.88-.26 1.47.17 2.1-1.17.19-.42.61-.62 5.34-2.56 8.51-2.94 3.18-.37 4.93-1.87.37-.32.85-.44c1.8-.44 3.06-1.38 4.82-1.68q2.59-.43 5.14-1.04c1.26-.3 2.54-.27 3.87-.43q.49-.06.92.17l.76.42q.36.2.34-.22-.01-.16-.01-.33 0-.21.11-.03.62.94.37 2.13-.11.49.18.91c.53.75 1.05 1.2 1.22 2.14q.52 2.76.37 5.56-.03.5-.3.92-.44.69-.49 1.57-.03.44-.26.8l-2.11 3.34q-.26.41-.63.73l-2.97 2.58q-.28.23-.64.25-.63.05-.87.7-.15.43-.59.55l-7.51 2.04a1.54 1.5 42.6 0 1-.73.02q-1.38-.32-2.54.38-.6.37.11.4l4.4.18Z" fill="#272524"/><path d="m102.44 97.19.1 3.34-.05 20.3-.1 20.13-.16-17.57q-.01-.5-.51-.5l-.41.01q-.53.01-.43.53.35 1.77-1.09 2.65a1.1 1.05-2.1 0 0-.35.36l-1.54 2.77q-.22.4-.64.6-1.43.68-1.62 2.31 0 .02-.01.02h-.35q-.32-.01-.47.27c-.88 1.54-.8 2-.96 3.73q-.14-.01.17-1.33a.38.37 7.4 0 0-.36-.46h-.07q-.07 0-.06.06.17 1.37-.33 2.09l-.07-34.54q.19-1.79 1.59-3.14a2.19 2.18 18.5 0 1 1.13-.56l6.59-1.07Z" fill="#969097"/><path d="M198.51 107.27q.85 1.1 1.25 2.57.12.48.04.96-.08.52.31.84.42.33.57.85l.73 2.52q.09.33.41.44.35.11.39.54.6 6.21.3 12.45-1 7.58-2.38 15.06-.22 1.21-.78 1.53a.55.55 0 0 0-.27.6q.29 1.28-.28 2.32-.25.46-.17.97.16 1.12-.63 1.95-.3.32-.22-.12l.57-3.11q.06-.35-.18-.09l-.45.49q-.37.39-.34.94.07 1-.63 1.82-.29.34-.35.79-.21 1.74-1.64 2.95-.8 1.86-2.1 3.06-.56.53-.29-.19 1.74-4.61 3.67-9.16c.36-.85.31-2.24.74-3.05q.9-1.73.98-2.03.88-3.26 1.18-6.71 1.38-4.88 1.11-10 .68-9.78-1.54-19.19Z" fill="#53684f"/><path d="M150.17 108.15q.9 1.29-.52 3.51-.25.39-.65.65c-1.72 1.13-.48 4.74.26 6.12.87 1.63.87 2.61 1.05 4.31q.07.62.39.92.26.24.6.37.55.2.55.78l.04 3.32q.01.52.28.97.76 1.22 1.57 2.39.5.06.39.7a1.14.12 71.7 0 0 .2.9c.79 2.6 2.25 7.83 1.05 11.03q-.18.48-.01.97c.33.9.72 1.29.77 2.29q.09 2.3.26 4.58.04.45-.12.87l-.83 2.19q-.14.39.06.76c.99 1.78 1.31 3.73 3.79 4.08q.45.06.71.42 1.9 2.54 2.09 4.71.5 5.52-2.53 5.48 1.96-5.03-1.4-8.39c-5.59-5.6-14.51 1.42-10.77 8.3 1.55 2.86 5.16 4.65 8.4 3.33q.9-.27 1.56.62.34.47-.23.56-.85.13-1.16.86-.14.31-.48.35-2.72.29-5.19-.75-.46-.2-.95-.06-1.41.41-2.93.09-.55-.11-.49-.67.16-1.46-1.27-2.11-.39-.18-.48-.6-.22-1.02-1.06-1.27-.55-.17-1.43.17-1.26.48-2.49.98a.81.79-43.5 0 1-.63-.01q-.39-.17-.48.15-.12.39-.52.46c-2.75.5-5.07 1.63-7.82 1.85q-3.53.29-7 .89c-1.31.23-2.73-.6-4.02-.65l-8.32-.36c-2.56-.12-6.24.26-9.43-.69q-3.15-.93-5.02-1.76-5.3-2.36-3.02-8.26 1.28 4.16 4.81 4.25 9.27.24 12.34.22l-1.04.77q-.37.28-.81.43-1.07.35-1.13 1.5a1.01 1 84.2 0 0 1.26 1.03q.86-.23 1.57.15.45.23.95.31c6.65 1.03 14.76 1.84 21.35.32 3.84-.89 7.55-2.48 11.44-3.04a.71.7 83 0 0 .59-.76l-.53-5.98 5.03-4.87c9.42-13.51 6.04-30.69-8.92-38.3a.4.4 0 0 1-.03-.7q6.42-3.85 10.35-10.68Z" fill="#090b0f"/><path d="M204.14 114.46c3.37 36.92-15.66 67.98-49.09 82.93q-.85-.12-1.13-1.15-.14-.53-.59-.21-1.29.89-2.84.26-.45-.18.02-.33l1.34-.42q.57-.17 0-.35-.64-.21-1.26.2-.05.04-.11-.02-.04-.04-.13 0 .21-.03.37-.13.19-.12.42-.13.6-.03.6-.33 1.18-.2 2.03-.73l.96-.03a1.23 1.2 19.7 0 0 .85-.39q1.85-1.98 4.25-3.11a.72.72 0 0 0 .38-.45q.14-.51.58-.4a2.99 2.29-62.7 0 0 2.72-1.28c.82-1.15 2.04-1.14 2.98-1.73q2.59-1.6 3.66-2 2.24-.84 2.97-2.58.13-.29.41-.43.3-.15.42-.46.08-.21-.14-.2-.15.01-.3.03-.49.08-.1-.22l1.3-.99q.8.05 1.02-.31c.96-1.61 3.17-2.16 4.58-3.75q1.42-1.6 2.23-2.4 1.57-1.57 2.93-3.31 1.43-1.83 2.8-3.87l3.58-3.64q.09-.1-.04-.14-.15-.05-.24-.1-.05-.03-.02-.08l3.21-7.67q1.43-1.21 1.64-2.95.06-.45.35-.79.7-.82.63-1.82-.03-.55.34-.94l.45-.49q.24-.26.18.09l-.57 3.11q-.08.44.22.12.79-.83.63-1.95-.08-.51.17-.97.57-1.04.28-2.32a.55.55 0 0 1 .27-.6q.56-.32.78-1.53 1.38-7.48 2.38-15.06l.16-12.22.74.33q.65.29.67-.42l.06-1.67ZM117.96 114.84q-.41.09-.71.33-.36.28.01.55c2.81 2.07-1.47 8.72 2.96 8.97-5.35.16-13.54 1.76-12.56-5.86.48-5.08 6.37-4.32 10.3-3.99Z" fill="#80aca7"/><path d="M107.66 118.83c-.98 7.62 7.21 6.02 12.56 5.86 10.67.07 18.69 2.28 23.37 12.52q2.47 8.48-2.24 14.62-4.51 5.88-10.6 5.9-13.75.04-27.11.01a1.21 1.21 0 0 1-1.21-1.2l-.04-15.58.1-20.13.47-2.31q.12-.6.7-.39 1.98.74 4 .7Z" fill="#1a1b25"/><path d="m47.16 118.9.86 14.18q-.77-.61-.83-1.34-.39-4.79-.03-12.84Z" fill="#2c3a59"/><path d="m102.39 140.96.04 15.58a1.21 1.21 0 0 0 1.21 1.2q13.36.03 27.11-.01 6.09-.02 10.6-5.9 4.71-6.14 2.24-14.62.63.39.9-.51a.79.78-51.5 0 0-.06-.59l-1.77-3.3q-.24-.45.21-.7c1.99-1.07 3.34.25 5.37.55q.45.07.69.46.91 1.46 2.27 2.43a1.73 1.71 15.6 0 1 .73 1.28q.43 5.33-.13 10.68-.06.51-.69 2.09l.03.05q.02.02-.05-.02t-.03-.15q.77-2.47.52-5.06a.14.14 0 0 0-.16-.13l-.25.04q-.24.04-.16.27.73 2.16-.77 3.56-.35.33-.46.79l-1.13 4.66q-.1.42-.49.6-1.1.5-.96 1.68.05.4-.16.73l-1.7 2.74a.34.34 0 0 0 .29.51h.38q.4 0 .36-.4-.07-.6.46-.6.57-.01.87-.5.51-.86.67-1.87.08-.58-.04-.05-.22.93.44 1.38l-5.03 4.87q-6.14 4.72-12.49 5.06-6.52.34-21.16.21-3.07.02-12.34-.22-3.53-.09-4.81-4.25l.26-27q.5-.72.33-2.09-.01-.06.06-.06h.07a.38.37 7.4 0 1 .36.46q-.31 1.32-.17 1.33c.16-1.73.08-2.19.96-3.73q.15-.28.47-.27h.35q.01 0 .01-.02.19-1.63 1.62-2.31.42-.2.64-.6l1.54-2.77a1.1 1.05-2.1 0 1 .35-.36q1.44-.88 1.09-2.65-.1-.52.43-.53l.41-.01q.5 0 .51.5l.16 17.57Z" fill="#9ca8a6"/><path d="m78.35 184.55 1.86 1.55q-.27.83.55 1.15 3.33 1.28 5.19 3.34.32.35.76.51c1.11.41 1.66 1.53 3.08 1.22l9.97 3.76 7.91 2.23c10.19 2.66 20.9 2.34 31.65.67q.22-.03.31-.23.13-.28.38-.3 3.29-.21 6.49-.93.51-.12 1.05-.81.06-.08-.04-.09-.12-.02-.24-.11a.08.08 0 0 1-.03-.08q.05-.18.42-.47l4.08-1.18q0 .3-.6.33-.23.01-.42.13-.16.1-.37.13.09-.04.13 0 .06.06.11.02.62-.41 1.26-.2.57.18 0 .35l-1.34.42q-.47.15-.02.33 1.55.63 2.84-.26.45-.32.59.21.28 1.03 1.13 1.15c-35.17 15.3-75.36 3.73-98.01-26.67q-10.94-14.67-13.99-34.26l1.35-2.29.25-5.77q0-.03-.03-.03-.01.01-.02.01v.01q.33 2.6.33 5.29 0 .25.25.25l.25.01q.17 0 .17-.17l.03-5.9-.03.01h-.01q-.02 0-.02.02.54 5.7.32 7.86-.26 2.58.15 3.94 1.64 5.42 3.68 10.71c.95 2.46 1.43 4.94 2.36 7.36q.06.18.25.16.14-.01.25-.15.04-.04.01-.09-.15-.33-.3-.67-.14-.33.16-.13.29.19.17.58a.33.33 0 0 0 .24.43q.97.22.76 1.21-.11.53.18.98l4.51 6.97q.27.42.71.67 1.26.72 2.25 1.84a.4.39-12.7 0 0 .2.12q.85.21 1.02.92.12.5.53.81 1.63 1.26 2.62 3.04.28.52.75.87 1.08.83 1.87 1.98.3.43.81.54.57.12.9.55 3.33 4.27 8.38 6.15Z" fill="#4ca1ca"/><path d="m48.34 135.24 1.46 5.93q.11.45-.31.26l-.31-.14q-1.79-1.68-.84-6.05ZM198.94 136.46q-.3 3.45-1.18 6.71-.08.3-.98 2.03c-.43.81-.38 2.2-.74 3.05q-1.93 4.55-3.67 9.16-.27.72.29.19 1.3-1.2 2.1-3.06l-3.21 7.67q-.03.05.02.08.09.05.24.1.13.04.04.14l-3.58 3.64q1.94-3.3 3.78-6.7.19-.35.02-.54-.3-.34-.51.06-1.18 2.18-2.52 4.24c-.61.94-1.65 1.4-2.16 2.15q-1.84 2.69-3.71 5.33-.39.55-1.15.51.56-2.12 2.4-3.45a1.33 1.28 78.7 0 0 .53-.83q.32-1.68 1.78-2.98.1-.09.24-.09h.28a.42.41 10.1 0 0 .39-.27c.47-1.28.8-2.41 1.75-3.5q2.47-2.8 2.83-6.59.04-.49.31-.91.77-1.19 1.12-2.55.33-1.25.8-1.98c.41-.63 1.21-1.84 1.41-2.52q1.38-4.61 3.08-9.09Z" fill="#2c3a59"/><path d="M48.97 145.64q.48.39.53 1.12.11 1.67.41 3.35 0 .01-.03.02-.06.01-.05.01.18-.01.17-.05l-2.62-7.85q-.21-.64.19-.17.1.12.09.29-.02.19.04.36l.75 2.19q.16.44.52.73Z" fill="#4ca1ca"/><path d="M57.22 160.9q-.99-1.34-1.46-3.02a1.37 1.3 11.8 0 0-.5-.72q-1.48-1.11-1.76-3.42-.07-.65-.84-.99-.47-.2-.58-.69l-.72-3.07q.02-2.41-1.29-4.51-.09-.14.03-.25l.29-.24q.03-.03.05.01 1.25 2.37 1.65 5 .04.23.16.03.09-.14.15-.46.01-.07 0 0-.04.55-.02 1.14a.64.62-65.6 0 0 .12.34q1.76 2.22 1.92 5 .03.57.43.97 1.8 1.81 2.37 4.88Z" fill="#2c3a59"/><path d="M188.27 166.17q-1.37 2.04-2.8 3.87-1.36 1.74-2.93 3.31-.81.8-2.23 2.4c-1.41 1.59-3.62 2.14-4.58 3.75q-.22.36-1.02.31l4.56-5.74q2.05-.61 2.75-2.85.76.04 1.15-.51 1.87-2.64 3.71-5.33c.51-.75 1.55-1.21 2.16-2.15q1.34-2.06 2.52-4.24.21-.4.51-.06.17.19-.02.54-1.84 3.4-3.78 6.7Z" fill="#53684f"/><path d="M159.57 170.47q-1.46 2.06-3.77 3.24c-3.24 1.32-6.85-.47-8.4-3.33-3.74-6.88 5.18-13.9 10.77-8.3q3.36 3.36 1.4 8.39Z" fill="#d7b9b6"/><path d="m143.74 162.7.53 5.98a.71.7 83 0 1-.59.76c-3.89.56-7.6 2.15-11.44 3.04-6.59 1.52-14.7.71-21.35-.32q-.5-.08-.95-.31-.71-.38-1.57-.15a1.01 1 84.2 0 1-1.26-1.03q.06-1.15 1.13-1.5.44-.15.81-.43l1.04-.77q14.64.13 21.16-.21 6.35-.34 12.49-5.06Z" fill="#1a1b25"/><path d="M65.82 172.64q-1.52-2.19-2.99-3.98-.43-.53-.9-.63a.63.63 0 0 1-.51-.63l.01-.4q-.19-1.28-.96-1.99-.74-.68-.16-.65.16.01.33.01a.61.6 72.9 0 1 .5.27l3.04 4.67q.24.37.59.63 1.2.87 1.05 2.7ZM182.02 171.22q-.7 2.24-2.75 2.85l.21-.53q.13-.32-.2-.23-.21.05-.38.22-.24.22-.34-.08-.05-.15.12-.28c1.31-1.02 1.73-1.8 3.34-1.95ZM68.01 175.3q3.46.98 5.73 3.91.33.43.87.51.76.11 1.32.61.29.26.43.61.2.51.6.67c1.55.63 3.68 2.91 4.95 4.17q-1.2.05-1.53-.52-.26-.43-.54-.67-.31-.29-.16.11l.53 1.4-1.86-1.55-10.34-9.25ZM173.78 179.74q-1.02 1.77-2.85 2.06 1.29-2.45 2.85-2.06Z" fill="#2c3a59"/><path d="m173.78 179.74.93.07-1.3.99q-.39.3.1.22.15-.02.3-.03.22-.01.14.2-.12.31-.42.46-.28.14-.41.43-.73 1.74-2.97 2.58-1.07.4-3.66 2c-.94.59-2.16.58-2.98 1.73a2.99 2.29-62.7 0 1-2.72 1.28q-.44-.11-.58.4a.72.72 0 0 1-.38.45q-2.4 1.13-4.25 3.11a1.23 1.2 19.7 0 1-.85.39l-.96.03q1.06-1.79 2.99-2.52c1.44-.54 2.27-1.24 3.45-1.99 1.79-1.13 3.19-2.81 5.31-3.78q1.83-.13 3.13-1.98.91-1.52 2.28-1.98 1.83-.29 2.85-2.06Z" fill="#53684f"/><path d="M168.65 183.78q-1.3 1.85-3.13 1.98.54-1.95 3.13-1.98Z" fill="#2c3a59"/><path d="m81.91 185.78-.31-.04q2.33 2.08 4.56 3.71c1.21.88 2.75.88 3.63 2.87-1.42.31-1.97-.81-3.08-1.22q-.44-.16-.76-.51-1.86-2.06-5.19-3.34-.82-.32-.55-1.15l-.53-1.4q-.15-.4.16-.11.28.24.54.67.33.57 1.53.52Z" fill="#6045ae"/><path d="M81.6 185.74q1.89.03 2.74 1.79.05.11.16.1.14 0 .29-.01.11-.01.01-.05-.17-.06-.22-.2-.1-.22.14-.15 2.09.68 4.26 1.03c1.51.24 2.35.81 3.17 1.95q.28.4.68.67 2.04 1.37 4.53 1.47.5.02.75.46l.16.29a.63.62 76.2 0 0 .5.31c2.23.17 5.64.15 7.6 1.25 1.54.86 5.8 1.49 7.58 1.47 6.18-.05 12.3.42 18.39-.02q5.27-.39 10.54-.62.19-.01.74-.35.27-.16.27-.47a.41.4 84.2 0 1 .33-.41l4.45-.81q.43-.08.73-.4 1.07-1.19 2.63-1.15a.73.72-78 0 0 .68-.45q.64-1.53 2.37-1.6.53-.02.83-.45l.51-.74q.27-.4.74-.53l8.36-2.36c-2.12.97-3.52 2.65-5.31 3.78-1.18.75-2.01 1.45-3.45 1.99q-1.93.73-2.99 2.52l-5.51.88q-1.46-.24-2.75.95-.14.13.05.14.31.01.41-.1.83.27 1.69.04-.37.29-.42.47a.08.08 0 0 0 .03.08q.12.09.24.11.1.01.04.09-.54.69-1.05.81-3.2.72-6.49.93-.25.02-.38.3-.09.2-.31.23c-10.75 1.67-21.46 1.99-31.65-.67l6.16.72q.05.01.05-.05v-.05q0-.05-.13-.08l-7.49-1.27a.22.22 0 0 1 0-.43q.75-.12 1.45.1.16.05.06-.08-.19-.26-.4-.3-3.8-.66-7.61-.79l-9.97-3.76c-.88-1.99-2.42-1.99-3.63-2.87q-2.23-1.63-4.56-3.71Z" fill="#2c3a59"/><path d="M153.77 194.05q-.85.53-2.03.73l-4.08 1.18q-.86.23-1.69-.04 1.56-.38 2.29-.99l5.51-.88Z" fill="#53684f"/><path d="M148.26 194.93q-.73.61-2.29.99-.1.11-.41.1-.19-.01-.05-.14 1.29-1.19 2.75-.95ZM99.76 196.08q3.81.13 7.61.79.21.04.4.3.1.13-.06.08-.7-.22-1.45-.1a.22.22 0 0 0 0 .43l7.49 1.27q.13.03.13.08v.05q0 .06-.05.05l-6.16-.72-7.91-2.23Z" fill="#6045ae"/></svg>