<svg viewBox="0.00 0.00 32.00 32.00" version="1.1" xmlns="http://www.w3.org/2000/svg">
<g stroke-linecap="butt" fill="none" stroke-width="2.00">
<path d="M 22.05 1.01
  Q 21.61 3.04 17.68 4.74" stroke="#7386e4"></path>
<path d="M 17.68 4.74
  Q 15.25 4.40 12.78 5.39
  C 10.89 6.15 9.41 7.85 7.75 9.21
  A 0.95 0.93 -21.0 0 0 7.40 9.98
  C 7.53 14.37 6.31 19.12 9.45 23.45" stroke="#c7c0f4"></path>
<path d="M 9.45 23.45
  Q 8.63 23.91 7.80 24.39
  C 6.66 25.05 5.49 24.93 4.26 25.51
  Q 3.83 25.71 3.37 25.75
  Q 1.82 25.87 0.56 27.53" stroke="#7386e4"></path>
<path d="M 9.45 23.45
  C 13.40 28.19 18.89 27.38 24.17 27.23
  A 0.52 0.51 -0.6 0 0 24.67 26.73
  Q 24.91 19.08 24.53 11.40
  C 24.49 10.70 24.66 10.50 24.86 9.88
  A 0.57 0.56 -70.7 0 0 24.53 9.18
  C 22.01 8.18 21.03 5.84 17.68 4.74" stroke="#abc5ef"></path>
<path d="M 18.23 6.76
  L 13.69 6.72
  A 0.10 0.10 0.0 0 0 13.59 6.82
  L 13.59 6.87
  A 2.20 1.33 0.6 0 0 15.77 8.22
  L 16.11 8.22
  A 2.20 1.33 0.6 0 0 18.33 6.91
  L 18.33 6.86
  A 0.10 0.10 0.0 0 0 18.23 6.76" stroke="#c7c0f4"></path>
<path d="M 16.63 14.87
  L 16.30 15.08
  A 0.28 0.28 0.0 0 0 16.46 15.60
  C 18.04 15.51 20.05 15.80 21.28 14.82
  C 24.33 12.38 20.94 7.79 17.25 10.05
  A 1.34 1.29 -86.6 0 0 16.89 10.38
  L 16.44 10.95
  Q 16.02 11.49 15.62 10.94
  C 11.83 5.74 4.44 15.16 15.02 15.73
  Q 16.09 15.79 15.46 14.93
  Q 14.99 14.29 15.23 13.56
  Q 15.40 13.04 15.95 12.98
  Q 16.79 12.90 16.98 14.12
  A 0.74 0.73 -20.4 0 1 16.63 14.87" stroke="#b0b6f0"></path>
<path d="M 22.26 16.46
  C 19.27 18.10 15.51 17.55 12.17 17.50
  Q 11.76 17.49 11.39 17.32
  L 9.87 16.62
  A 0.47 0.47 0.0 0 0 9.20 17.08
  Q 9.80 25.10 18.00 25.23
  Q 20.05 25.26 22.20 25.30
  Q 22.75 25.32 22.75 24.76
  L 22.74 16.75
  A 0.33 0.32 75.9 0 0 22.26 16.46" stroke="#b1c2f0"></path>
<path d="M 20.30 12.56
  A 1.26 1.26 0.0 0 0 19.04 11.30
  A 1.26 1.26 0.0 0 0 17.78 12.56
  A 1.26 1.26 0.0 0 0 19.04 13.82
  A 1.26 1.26 0.0 0 0 20.30 12.56" stroke="#b0b6f0"></path>
<path d="M 14.3385 12.3723
  A 1.38 1.22 -7.4 0 0 12.8129 11.3402
  A 1.38 1.22 -7.4 0 0 11.6015 12.7277
  A 1.38 1.22 -7.4 0 0 13.1271 13.7598
  A 1.38 1.22 -7.4 0 0 14.3385 12.3723" stroke="#b0b6f0"></path>
</g>
<path d="M 22.05 1.01
  Q 21.61 3.04 17.68 4.74
  Q 15.25 4.40 12.78 5.39
  C 10.89 6.15 9.41 7.85 7.75 9.21
  A 0.95 0.93 -21.0 0 0 7.40 9.98
  C 7.53 14.37 6.31 19.12 9.45 23.45
  Q 8.63 23.91 7.80 24.39
  C 6.66 25.05 5.49 24.93 4.26 25.51
  Q 3.83 25.71 3.37 25.75
  Q 1.82 25.87 0.56 27.53
  L 0.54 3.74
  A 2.74 2.73 -89.9 0 1 3.28 1.00
  L 22.05 1.01
  Z" fill="#8f81e9"></path>
<path d="M 22.05 1.01
  L 28.74 1.00
  A 2.69 2.69 0.0 0 1 31.44 3.69
  L 31.44 28.25
  A 2.67 2.67 0.0 0 1 28.76 30.92
  Q 15.99 30.87 3.25 30.93
  Q 0.34 30.95 0.56 27.53
  Q 1.82 25.87 3.37 25.75
  Q 3.83 25.71 4.26 25.51
  C 5.49 24.93 6.66 25.05 7.80 24.39
  Q 8.63 23.91 9.45 23.45
  C 13.40 28.19 18.89 27.38 24.17 27.23
  A 0.52 0.51 -0.6 0 0 24.67 26.73
  Q 24.91 19.08 24.53 11.40
  C 24.49 10.70 24.66 10.50 24.86 9.88
  A 0.57 0.56 -70.7 0 0 24.53 9.18
  C 22.01 8.18 21.03 5.84 17.68 4.74
  Q 21.61 3.04 22.05 1.01
  Z" fill="#568bdf"></path>
<path d="M 17.68 4.74
  C 21.03 5.84 22.01 8.18 24.53 9.18
  A 0.57 0.56 -70.7 0 1 24.86 9.88
  C 24.66 10.50 24.49 10.70 24.53 11.40
  Q 24.91 19.08 24.67 26.73
  A 0.52 0.51 -0.6 0 1 24.17 27.23
  C 18.89 27.38 13.40 28.19 9.45 23.45
  C 6.31 19.12 7.53 14.37 7.40 9.98
  A 0.95 0.93 -21.0 0 1 7.75 9.21
  C 9.41 7.85 10.89 6.15 12.78 5.39
  Q 15.25 4.40 17.68 4.74
  Z
  M 18.23 6.76
  L 13.69 6.72
  A 0.10 0.10 0.0 0 0 13.59 6.82
  L 13.59 6.87
  A 2.20 1.33 0.6 0 0 15.77 8.22
  L 16.11 8.22
  A 2.20 1.33 0.6 0 0 18.33 6.91
  L 18.33 6.86
  A 0.10 0.10 0.0 0 0 18.23 6.76
  Z
  M 16.63 14.87
  L 16.30 15.08
  A 0.28 0.28 0.0 0 0 16.46 15.60
  C 18.04 15.51 20.05 15.80 21.28 14.82
  C 24.33 12.38 20.94 7.79 17.25 10.05
  A 1.34 1.29 -86.6 0 0 16.89 10.38
  L 16.44 10.95
  Q 16.02 11.49 15.62 10.94
  C 11.83 5.74 4.44 15.16 15.02 15.73
  Q 16.09 15.79 15.46 14.93
  Q 14.99 14.29 15.23 13.56
  Q 15.40 13.04 15.95 12.98
  Q 16.79 12.90 16.98 14.12
  A 0.74 0.73 -20.4 0 1 16.63 14.87
  Z
  M 22.26 16.46
  C 19.27 18.10 15.51 17.55 12.17 17.50
  Q 11.76 17.49 11.39 17.32
  L 9.87 16.62
  A 0.47 0.47 0.0 0 0 9.20 17.08
  Q 9.80 25.10 18.00 25.23
  Q 20.05 25.26 22.20 25.30
  Q 22.75 25.32 22.75 24.76
  L 22.74 16.75
  A 0.33 0.32 75.9 0 0 22.26 16.46
  Z" fill="#fffefe"></path>
<path d="M 18.23 6.76
  A 0.10 0.10 0.0 0 1 18.33 6.86
  L 18.33 6.91
  A 2.20 1.33 0.6 0 1 16.11 8.22
  L 15.77 8.22
  A 2.20 1.33 0.6 0 1 13.59 6.87
  L 13.59 6.82
  A 0.10 0.10 0.0 0 1 13.69 6.72
  L 18.23 6.76
  Z" fill="#8f81e9"></path>
<path d="M 16.63 14.87
  A 0.74 0.73 -20.4 0 0 16.98 14.12
  Q 16.79 12.90 15.95 12.98
  Q 15.40 13.04 15.23 13.56
  Q 14.99 14.29 15.46 14.93
  Q 16.09 15.79 15.02 15.73
  C 4.44 15.16 11.83 5.74 15.62 10.94
  Q 16.02 11.49 16.44 10.95
  L 16.89 10.38
  A 1.34 1.29 -86.6 0 1 17.25 10.05
  C 20.94 7.79 24.33 12.38 21.28 14.82
  C 20.05 15.80 18.04 15.51 16.46 15.60
  A 0.28 0.28 0.0 0 1 16.30 15.08
  L 16.63 14.87
  Z
  M 20.30 12.56
  A 1.26 1.26 0.0 0 0 19.04 11.30
  A 1.26 1.26 0.0 0 0 17.78 12.56
  A 1.26 1.26 0.0 0 0 19.04 13.82
  A 1.26 1.26 0.0 0 0 20.30 12.56
  Z
  M 14.3385 12.3723
  A 1.38 1.22 -7.4 0 0 12.8129 11.3402
  A 1.38 1.22 -7.4 0 0 11.6015 12.7277
  A 1.38 1.22 -7.4 0 0 13.1271 13.7598
  A 1.38 1.22 -7.4 0 0 14.3385 12.3723
  Z" fill="#606ee2"></path>
<circle r="1.26" cy="12.56" cx="19.04" fill="#fffefe"></circle>
<ellipse ry="1.22" rx="1.38" transform="translate(12.97,12.55) rotate(-7.4)" cy="0.00" cx="0.00" fill="#fffefe"></ellipse>
<path d="M 22.26 16.46
  A 0.33 0.32 75.9 0 1 22.74 16.75
  L 22.75 24.76
  Q 22.75 25.32 22.20 25.30
  Q 20.05 25.26 18.00 25.23
  Q 9.80 25.10 9.20 17.08
  A 0.47 0.47 0.0 0 1 9.87 16.62
  L 11.39 17.32
  Q 11.76 17.49 12.17 17.50
  C 15.51 17.55 19.27 18.10 22.26 16.46
  Z" fill="#6386e1"></path>
</svg>
