<svg viewBox="0.00 0.00 192.00 192.00" version="1.1" xmlns="http://www.w3.org/2000/svg">
<path d="M 160.86 0.71
  C 160.47 12.86 155.29 24.48 144.25 30.44
  Q 142.21 31.55 139.50 31.55
  Q 101.91 31.57 64.31 31.54
  Q 63.83 31.54 63.84 31.06
  C 64.12 18.94 69.37 7.32 80.20 1.40
  Q 82.19 0.31 84.77 0.31
  Q 122.64 0.29 160.47 0.31
  Q 160.87 0.31 160.86 0.71
  Z" fill="#2d15e6"></path>
<path d="M 187.68 40.78
  C 187.29 53.00 182.10 64.60 171.02 70.53
  Q 168.96 71.63 166.24 71.63
  Q 99.12 71.62 32.00 71.63
  A 0.54 0.54 0.0 0 1 31.46 71.05
  C 32.37 57.99 36.94 47.75 48.22 41.32
  Q 50.10 40.25 52.51 40.25
  Q 119.86 40.24 187.17 40.25
  Q 187.70 40.25 187.68 40.78
  Z" fill="#2d15e6"></path>
<path d="M 1.75 111.19
  C 1.92 98.93 7.40 87.35 18.39 81.38
  Q 20.39 80.29 22.99 80.29
  Q 60.58 80.27 98.20 80.29
  Q 98.71 80.29 98.70 80.80
  C 98.45 93.01 93.06 104.79 82.04 110.63
  Q 79.96 111.73 77.24 111.73
  Q 39.76 111.75 2.29 111.73
  Q 1.75 111.73 1.75 111.19
  Z" fill="#2d15e6"></path>
<path d="M 190.51 120.89
  C 190.01 133.21 184.98 144.58 173.90 150.66
  Q 171.93 151.74 169.35 151.75
  Q 102.09 151.79 34.87 151.75
  Q 34.41 151.75 34.42 151.29
  C 34.66 139.07 40.00 127.27 50.98 121.47
  Q 53.05 120.37 55.77 120.37
  Q 123.02 120.37 190.02 120.37
  Q 190.54 120.37 190.51 120.89
  Z" fill="#2d15e6"></path>
<path d="M 158.34 160.76
  C 157.99 172.96 152.88 184.60 141.82 190.61
  Q 139.82 191.70 137.21 191.70
  Q 99.50 191.70 61.79 191.69
  Q 61.26 191.69 61.28 191.16
  C 61.68 178.95 66.88 167.58 77.85 161.54
  Q 79.82 160.46 82.41 160.45
  Q 120.09 160.43 158.04 160.45
  Q 158.35 160.45 158.34 160.76
  Z" fill="#2d15e6"></path>
</svg>
