<svg viewBox="0.00 0.00 128.00 128.00" version="1.1" xmlns="http://www.w3.org/2000/svg">
<path d="M 51.87 81.43
  C 55.66 90.02 63.62 105.14 71.84 87.51
  C 74.98 80.78 77.48 74.12 79.52 66.66
  Q 86.70 40.46 89.92 13.44
  A 0.54 0.53 -83.2 0 1 90.52 12.96
  L 107.48 14.94
  A 0.60 0.59 -82.9 0 1 108.00 15.61
  Q 104.56 42.92 97.90 68.24
  C 94.88 79.75 90.98 91.29 84.78 101.52
  C 75.23 117.26 58.19 119.85 45.71 105.52
  C 39.03 97.85 35.08 89.26 31.73 79.94
  Q 23.68 57.53 19.99 33.94
  A 0.61 0.61 0.0 0 1 20.50 33.24
  L 37.22 30.76
  A 0.67 0.66 80.8 0 1 37.97 31.31
  C 40.68 48.33 44.88 65.56 51.87 81.43
  Z" fill="#ff3e97"></path>
</svg>
