<svg viewBox="0.00 0.00 492.00 254.00" version="1.1" xmlns="http://www.w3.org/2000/svg">
<g stroke-linecap="butt" fill="none" stroke-width="2.00">
<path d="M 205.79 71.26
  L 205.78 100.71
  Q 205.78 101.63 206.43 102.29
  L 227.83 123.67
  A 3.66 3.66 0.0 0 1 227.83 128.84
  L 206.31 150.35
  A 1.81 1.78 -22.9 0 0 205.78 151.62
  L 205.79 182.75" stroke="#2568a1"></path>
<path d="M 96.48 148.18
  Q 96.67 147.66 97.24 147.66
  L 129.53 147.65
  A 0.76 0.76 0.0 0 1 130.25 148.16
  Q 132.76 155.12 135.36 162.16
  C 136.58 165.46 137.84 167.67 141.75 167.66
  Q 147.20 167.64 152.52 167.68
  A 0.32 0.31 -10.4 0 0 152.82 167.25
  L 121.30 87.00
  A 0.60 0.59 79.0 0 0 120.75 86.62
  L 106.01 86.62
  Q 105.55 86.62 105.37 87.05
  L 73.78 167.45
  A 0.13 0.13 0.0 0 0 73.89 167.62
  Q 79.27 167.69 84.77 167.72
  Q 89.09 167.75 90.63 163.72
  Q 93.64 155.82 96.48 148.18" stroke="#9193b0"></path>
<path d="M 178.20 86.88
  A 0.26 0.26 0.0 0 0 177.94 86.62
  L 163.26 86.62
  A 0.26 0.26 0.0 0 0 163.00 86.88
  L 163.00 167.40
  A 0.26 0.26 0.0 0 0 163.26 167.66
  L 177.94 167.66
  A 0.26 0.26 0.0 0 0 178.20 167.40
  L 178.20 86.88" stroke="#9193b0"></path>
<path d="M 399.13 99.15
  L 391.58 94.64
  Q 391.24 94.44 391.04 94.78
  L 388.90 98.47
  Q 388.72 98.79 389.03 98.97
  L 396.48 103.33
  Q 397.00 103.63 396.47 103.93
  L 389.09 108.07
  A 0.47 0.46 60.2 0 0 388.92 108.72
  L 391.10 112.34
  Q 391.32 112.70 391.68 112.48
  L 399.06 108.03
  Q 399.49 107.78 399.49 108.27
  L 399.49 117.01
  A 0.27 0.27 0.0 0 0 399.76 117.28
  L 404.25 117.28
  A 0.28 0.28 0.0 0 0 404.53 117.00
  L 404.46 108.45
  Q 404.45 107.91 404.92 108.19
  L 412.22 112.50
  A 0.42 0.42 0.0 0 0 412.80 112.35
  L 414.92 108.68
  Q 415.10 108.36 414.79 108.18
  L 407.28 103.82
  Q 406.84 103.57 407.28 103.31
  L 414.64 99.13
  Q 415.10 98.87 414.83 98.41
  L 412.85 95.02
  Q 412.54 94.49 412.02 94.80
  L 404.86 99.04
  Q 404.40 99.31 404.41 98.78
  L 404.55 90.02
  Q 404.56 89.74 404.27 89.73
  L 399.77 89.70
  Q 399.49 89.70 399.49 89.98
  L 399.49 98.94
  Q 399.49 99.36 399.13 99.15" stroke="#94d4f0"></path>
<path d="M 380.28 91.38
  A 0.38 0.38 0.0 0 0 379.90 91.00
  L 370.38 91.00
  A 0.38 0.38 0.0 0 0 370.00 91.38
  L 370.00 150.34
  A 0.38 0.38 0.0 0 0 370.38 150.72
  L 379.90 150.72
  A 0.38 0.38 0.0 0 0 380.28 150.34
  L 380.28 91.38" stroke="#94d4f0"></path>
<path d="M 255.69 142.14
  A 0.18 0.18 0.0 0 1 255.52 141.83
  Q 263.04 134.43 270.48 126.74
  Q 273.91 123.19 276.45 118.98
  C 284.83 105.03 275.23 90.62 259.25 92.09
  Q 244.66 93.44 241.51 107.44
  Q 241.09 109.27 242.96 109.47
  L 248.61 110.06
  A 2.60 2.60 0.0 0 0 251.38 108.19
  Q 253.35 101.27 259.57 100.68
  C 264.43 100.22 268.73 102.84 269.01 108.01
  C 269.41 115.18 264.43 120.75 259.62 125.62
  Q 251.44 133.89 243.22 142.14
  C 240.66 144.70 239.81 146.86 240.32 150.35
  Q 240.38 150.75 240.79 150.75
  L 278.59 150.75
  Q 280.44 150.75 280.36 148.90
  L 280.11 143.56
  A 2.31 2.30 -0.5 0 0 277.87 141.37
  C 270.55 141.16 262.30 140.43 255.69 142.14" stroke="#94d4f0"></path>
<path d="M 305.92 137.81
  C 308.35 142.21 302.44 144.62 298.98 144.27
  Q 295.89 143.95 291.33 141.23
  A 2.70 2.70 0.0 0 0 287.71 142.03
  L 286.17 144.30
  Q 284.48 146.79 287.18 148.12
  C 294.15 151.56 300.68 152.74 307.56 150.19
  C 315.22 147.36 319.41 136.88 313.09 130.50
  Q 310.42 127.79 306.47 126.69
  C 304.20 126.05 297.96 124.72 296.75 122.51
  Q 294.76 118.87 298.20 117.14
  C 302.81 114.82 306.86 117.65 311.21 118.87
  A 1.71 1.70 -65.8 0 0 313.09 118.15
  L 315.43 114.52
  Q 315.72 114.06 315.34 113.68
  C 308.12 106.33 290.51 106.79 286.82 117.75
  C 284.10 125.83 289.63 131.28 296.88 133.41
  C 299.63 134.21 304.51 135.26 305.92 137.81" stroke="#94d4f0"></path>
<path d="M 348.73 146.77
  L 348.73 163.75
  Q 348.73 164.26 349.25 164.27
  L 358.49 164.28
  Q 359.00 164.28 359.00 163.76
  L 359.00 110.01
  Q 359.00 109.53 358.52 109.51
  C 355.79 109.43 349.77 108.29 349.83 112.70
  A 0.33 0.33 0.0 0 1 349.28 112.95
  Q 345.41 109.46 341.42 108.89
  C 330.11 107.27 322.29 115.51 321.20 126.17
  C 320.23 135.70 321.95 149.02 333.52 151.09
  Q 340.51 152.34 346.08 148.03
  Q 347.13 147.22 348.32 146.53
  Q 348.73 146.29 348.73 146.77" stroke="#94d4f0"></path>
<path d="M 113.15 102.29
  L 100.75 136.47
  A 0.25 0.25 0.0 0 0 100.98 136.80
  L 125.50 136.80
  A 0.44 0.43 79.6 0 0 125.90 136.21
  Q 120.29 121.03 114.84 105.73
  Q 114.12 103.72 113.77 102.30
  Q 113.52 101.28 113.15 102.29" stroke="#9193b0"></path>
<path d="M 332.16 124.07
  C 330.40 130.48 330.63 144.80 341.02 143.23
  Q 345.48 142.56 348.45 138.76
  Q 348.73 138.41 348.73 137.97
  L 348.74 120.74
  A 1.46 1.46 0.0 0 0 348.39 119.79
  C 342.97 113.47 334.28 116.35 332.16 124.07" stroke="#94d4f0"></path>
</g>
<path d="M 205.79 71.26
  L 205.78 100.71
  Q 205.78 101.63 206.43 102.29
  L 227.83 123.67
  A 3.66 3.66 0.0 0 1 227.83 128.84
  L 206.31 150.35
  A 1.81 1.78 -22.9 0 0 205.78 151.62
  L 205.79 182.75
  Q 205.72 188.82 205.75 194.89
  Q 205.78 199.58 204.49 201.88
  C 201.88 206.52 197.77 206.99 192.37 206.99
  Q 126.15 207.01 59.94 206.99
  C 51.50 206.99 46.25 204.84 46.25 195.77
  Q 46.25 132.22 46.25 68.68
  Q 46.25 63.23 47.51 60.01
  Q 50.75 51.76 58.96 48.56
  Q 62.32 47.25 68.22 47.25
  Q 130.96 47.24 193.71 47.26
  Q 198.71 47.26 201.03 48.64
  C 204.62 50.79 205.75 53.93 205.74 58.28
  Q 205.73 64.80 205.79 71.26
  Z
  M 96.48 148.18
  Q 96.67 147.66 97.24 147.66
  L 129.53 147.65
  A 0.76 0.76 0.0 0 1 130.25 148.16
  Q 132.76 155.12 135.36 162.16
  C 136.58 165.46 137.84 167.67 141.75 167.66
  Q 147.20 167.64 152.52 167.68
  A 0.32 0.31 -10.4 0 0 152.82 167.25
  L 121.30 87.00
  A 0.60 0.59 79.0 0 0 120.75 86.62
  L 106.01 86.62
  Q 105.55 86.62 105.37 87.05
  L 73.78 167.45
  A 0.13 0.13 0.0 0 0 73.89 167.62
  Q 79.27 167.69 84.77 167.72
  Q 89.09 167.75 90.63 163.72
  Q 93.64 155.82 96.48 148.18
  Z
  M 178.20 86.88
  A 0.26 0.26 0.0 0 0 177.94 86.62
  L 163.26 86.62
  A 0.26 0.26 0.0 0 0 163.00 86.88
  L 163.00 167.40
  A 0.26 0.26 0.0 0 0 163.26 167.66
  L 177.94 167.66
  A 0.26 0.26 0.0 0 0 178.20 167.40
  L 178.20 86.88
  Z" fill="#222661"></path>
<path d="M 205.79 71.26
  Q 319.09 71.24 432.27 71.26
  C 442.17 71.26 446.25 74.00 446.25 83.99
  Q 446.24 126.28 446.26 168.58
  C 446.26 174.80 445.95 179.37 440.31 181.84
  Q 438.22 182.75 434.04 182.75
  Q 319.98 182.74 205.79 182.75
  L 205.78 151.62
  A 1.81 1.78 -22.9 0 1 206.31 150.35
  L 227.83 128.84
  A 3.66 3.66 0.0 0 0 227.83 123.67
  L 206.43 102.29
  Q 205.78 101.63 205.78 100.71
  L 205.79 71.26
  Z
  M 399.13 99.15
  L 391.58 94.64
  Q 391.24 94.44 391.04 94.78
  L 388.90 98.47
  Q 388.72 98.79 389.03 98.97
  L 396.48 103.33
  Q 397.00 103.63 396.47 103.93
  L 389.09 108.07
  A 0.47 0.46 60.2 0 0 388.92 108.72
  L 391.10 112.34
  Q 391.32 112.70 391.68 112.48
  L 399.06 108.03
  Q 399.49 107.78 399.49 108.27
  L 399.49 117.01
  A 0.27 0.27 0.0 0 0 399.76 117.28
  L 404.25 117.28
  A 0.28 0.28 0.0 0 0 404.53 117.00
  L 404.46 108.45
  Q 404.45 107.91 404.92 108.19
  L 412.22 112.50
  A 0.42 0.42 0.0 0 0 412.80 112.35
  L 414.92 108.68
  Q 415.10 108.36 414.79 108.18
  L 407.28 103.82
  Q 406.84 103.57 407.28 103.31
  L 414.64 99.13
  Q 415.10 98.87 414.83 98.41
  L 412.85 95.02
  Q 412.54 94.49 412.02 94.80
  L 404.86 99.04
  Q 404.40 99.31 404.41 98.78
  L 404.55 90.02
  Q 404.56 89.74 404.27 89.73
  L 399.77 89.70
  Q 399.49 89.70 399.49 89.98
  L 399.49 98.94
  Q 399.49 99.36 399.13 99.15
  Z
  M 380.28 91.38
  A 0.38 0.38 0.0 0 0 379.90 91.00
  L 370.38 91.00
  A 0.38 0.38 0.0 0 0 370.00 91.38
  L 370.00 150.34
  A 0.38 0.38 0.0 0 0 370.38 150.72
  L 379.90 150.72
  A 0.38 0.38 0.0 0 0 380.28 150.34
  L 380.28 91.38
  Z
  M 255.69 142.14
  A 0.18 0.18 0.0 0 1 255.52 141.83
  Q 263.04 134.43 270.48 126.74
  Q 273.91 123.19 276.45 118.98
  C 284.83 105.03 275.23 90.62 259.25 92.09
  Q 244.66 93.44 241.51 107.44
  Q 241.09 109.27 242.96 109.47
  L 248.61 110.06
  A 2.60 2.60 0.0 0 0 251.38 108.19
  Q 253.35 101.27 259.57 100.68
  C 264.43 100.22 268.73 102.84 269.01 108.01
  C 269.41 115.18 264.43 120.75 259.62 125.62
  Q 251.44 133.89 243.22 142.14
  C 240.66 144.70 239.81 146.86 240.32 150.35
  Q 240.38 150.75 240.79 150.75
  L 278.59 150.75
  Q 280.44 150.75 280.36 148.90
  L 280.11 143.56
  A 2.31 2.30 -0.5 0 0 277.87 141.37
  C 270.55 141.16 262.30 140.43 255.69 142.14
  Z
  M 305.92 137.81
  C 308.35 142.21 302.44 144.62 298.98 144.27
  Q 295.89 143.95 291.33 141.23
  A 2.70 2.70 0.0 0 0 287.71 142.03
  L 286.17 144.30
  Q 284.48 146.79 287.18 148.12
  C 294.15 151.56 300.68 152.74 307.56 150.19
  C 315.22 147.36 319.41 136.88 313.09 130.50
  Q 310.42 127.79 306.47 126.69
  C 304.20 126.05 297.96 124.72 296.75 122.51
  Q 294.76 118.87 298.20 117.14
  C 302.81 114.82 306.86 117.65 311.21 118.87
  A 1.71 1.70 -65.8 0 0 313.09 118.15
  L 315.43 114.52
  Q 315.72 114.06 315.34 113.68
  C 308.12 106.33 290.51 106.79 286.82 117.75
  C 284.10 125.83 289.63 131.28 296.88 133.41
  C 299.63 134.21 304.51 135.26 305.92 137.81
  Z
  M 348.73 146.77
  L 348.73 163.75
  Q 348.73 164.26 349.25 164.27
  L 358.49 164.28
  Q 359.00 164.28 359.00 163.76
  L 359.00 110.01
  Q 359.00 109.53 358.52 109.51
  C 355.79 109.43 349.77 108.29 349.83 112.70
  A 0.33 0.33 0.0 0 1 349.28 112.95
  Q 345.41 109.46 341.42 108.89
  C 330.11 107.27 322.29 115.51 321.20 126.17
  C 320.23 135.70 321.95 149.02 333.52 151.09
  Q 340.51 152.34 346.08 148.03
  Q 347.13 147.22 348.32 146.53
  Q 348.73 146.29 348.73 146.77
  Z" fill="#28a9e0"></path>
<path d="M 96.48 148.18
  Q 93.64 155.82 90.63 163.72
  Q 89.09 167.75 84.77 167.72
  Q 79.27 167.69 73.89 167.62
  A 0.13 0.13 0.0 0 1 73.78 167.45
  L 105.37 87.05
  Q 105.55 86.62 106.01 86.62
  L 120.75 86.62
  A 0.60 0.59 79.0 0 1 121.30 87.00
  L 152.82 167.25
  A 0.32 0.31 -10.4 0 1 152.52 167.68
  Q 147.20 167.64 141.75 167.66
  C 137.84 167.67 136.58 165.46 135.36 162.16
  Q 132.76 155.12 130.25 148.16
  A 0.76 0.76 0.0 0 0 129.53 147.65
  L 97.24 147.66
  Q 96.67 147.66 96.48 148.18
  Z
  M 113.15 102.29
  L 100.75 136.47
  A 0.25 0.25 0.0 0 0 100.98 136.80
  L 125.50 136.80
  A 0.44 0.43 79.6 0 0 125.90 136.21
  Q 120.29 121.03 114.84 105.73
  Q 114.12 103.72 113.77 102.30
  Q 113.52 101.28 113.15 102.29
  Z" fill="#ffffff"></path>
<rect rx="0.26" height="81.04" width="15.20" y="86.62" x="163.00" fill="#ffffff"></rect>
<path d="M 399.49 98.94
  L 399.49 89.98
  Q 399.49 89.70 399.77 89.70
  L 404.27 89.73
  Q 404.56 89.74 404.55 90.02
  L 404.41 98.78
  Q 404.40 99.31 404.86 99.04
  L 412.02 94.80
  Q 412.54 94.49 412.85 95.02
  L 414.83 98.41
  Q 415.10 98.87 414.64 99.13
  L 407.28 103.31
  Q 406.84 103.57 407.28 103.82
  L 414.79 108.18
  Q 415.10 108.36 414.92 108.68
  L 412.80 112.35
  A 0.42 0.42 0.0 0 1 412.22 112.50
  L 404.92 108.19
  Q 404.45 107.91 404.46 108.45
  L 404.53 117.00
  A 0.28 0.28 0.0 0 1 404.25 117.28
  L 399.76 117.28
  A 0.27 0.27 0.0 0 1 399.49 117.01
  L 399.49 108.27
  Q 399.49 107.78 399.06 108.03
  L 391.68 112.48
  Q 391.32 112.70 391.10 112.34
  L 388.92 108.72
  A 0.47 0.46 60.2 0 1 389.09 108.07
  L 396.47 103.93
  Q 397.00 103.63 396.48 103.33
  L 389.03 98.97
  Q 388.72 98.79 388.90 98.47
  L 391.04 94.78
  Q 391.24 94.44 391.58 94.64
  L 399.13 99.15
  Q 399.49 99.36 399.49 98.94
  Z" fill="#ffffff"></path>
<rect rx="0.38" height="59.72" width="10.28" y="91.00" x="370.00" fill="#ffffff"></rect>
<path d="M 255.69 142.14
  C 262.30 140.43 270.55 141.16 277.87 141.37
  A 2.31 2.30 -0.5 0 1 280.11 143.56
  L 280.36 148.90
  Q 280.44 150.75 278.59 150.75
  L 240.79 150.75
  Q 240.38 150.75 240.32 150.35
  C 239.81 146.86 240.66 144.70 243.22 142.14
  Q 251.44 133.89 259.62 125.62
  C 264.43 120.75 269.41 115.18 269.01 108.01
  C 268.73 102.84 264.43 100.22 259.57 100.68
  Q 253.35 101.27 251.38 108.19
  A 2.60 2.60 0.0 0 1 248.61 110.06
  L 242.96 109.47
  Q 241.09 109.27 241.51 107.44
  Q 244.66 93.44 259.25 92.09
  C 275.23 90.62 284.83 105.03 276.45 118.98
  Q 273.91 123.19 270.48 126.74
  Q 263.04 134.43 255.52 141.83
  A 0.18 0.18 0.0 0 0 255.69 142.14
  Z" fill="#ffffff"></path>
<path d="M 100.75 136.47
  L 113.15 102.29
  Q 113.52 101.28 113.77 102.30
  Q 114.12 103.72 114.84 105.73
  Q 120.29 121.03 125.90 136.21
  A 0.44 0.43 79.6 0 1 125.50 136.80
  L 100.98 136.80
  A 0.25 0.25 0.0 0 1 100.75 136.47
  Z" fill="#222661"></path>
<path d="M 305.92 137.81
  C 304.51 135.26 299.63 134.21 296.88 133.41
  C 289.63 131.28 284.10 125.83 286.82 117.75
  C 290.51 106.79 308.12 106.33 315.34 113.68
  Q 315.72 114.06 315.43 114.52
  L 313.09 118.15
  A 1.71 1.70 -65.8 0 1 311.21 118.87
  C 306.86 117.65 302.81 114.82 298.20 117.14
  Q 294.76 118.87 296.75 122.51
  C 297.96 124.72 304.20 126.05 306.47 126.69
  Q 310.42 127.79 313.09 130.50
  C 319.41 136.88 315.22 147.36 307.56 150.19
  C 300.68 152.74 294.15 151.56 287.18 148.12
  Q 284.48 146.79 286.17 144.30
  L 287.71 142.03
  A 2.70 2.70 0.0 0 1 291.33 141.23
  Q 295.89 143.95 298.98 144.27
  C 302.44 144.62 308.35 142.21 305.92 137.81
  Z" fill="#ffffff"></path>
<path d="M 348.32 146.53
  Q 347.13 147.22 346.08 148.03
  Q 340.51 152.34 333.52 151.09
  C 321.95 149.02 320.23 135.70 321.20 126.17
  C 322.29 115.51 330.11 107.27 341.42 108.89
  Q 345.41 109.46 349.28 112.95
  A 0.33 0.33 0.0 0 0 349.83 112.70
  C 349.77 108.29 355.79 109.43 358.52 109.51
  Q 359.00 109.53 359.00 110.01
  L 359.00 163.76
  Q 359.00 164.28 358.49 164.28
  L 349.25 164.27
  Q 348.73 164.26 348.73 163.75
  L 348.73 146.77
  Q 348.73 146.29 348.32 146.53
  Z
  M 332.16 124.07
  C 330.40 130.48 330.63 144.80 341.02 143.23
  Q 345.48 142.56 348.45 138.76
  Q 348.73 138.41 348.73 137.97
  L 348.74 120.74
  A 1.46 1.46 0.0 0 0 348.39 119.79
  C 342.97 113.47 334.28 116.35 332.16 124.07
  Z" fill="#ffffff"></path>
<path d="M 341.02 143.23
  C 330.63 144.80 330.40 130.48 332.16 124.07
  C 334.28 116.35 342.97 113.47 348.39 119.79
  A 1.46 1.46 0.0 0 1 348.74 120.74
  L 348.73 137.97
  Q 348.73 138.41 348.45 138.76
  Q 345.48 142.56 341.02 143.23
  Z" fill="#28a9e0"></path>
</svg>
