<svg viewBox="0.00 0.00 192.00 192.00" version="1.1" xmlns="http://www.w3.org/2000/svg">
<g stroke-linecap="butt" fill="none" stroke-width="2.00">
<path d="M 163.14 164.73
  L 149.53 151.11" stroke="#733d3a"></path>
<path d="M 41.82 150.45
  L 28.32 164.11" stroke="#733d3a"></path>
<path d="M 0.61 108.30
  Q 1.00 105.21 0.00 102.35" stroke="#733d3a"></path>
<path d="M 0.00 88.04
  Q 1.30 85.25 0.82 81.73" stroke="#733d3a"></path>
<path d="M 135.85 137.54
  L 122.41 123.94" stroke="#733d3a"></path>
<path d="M 69.02 123.32
  L 55.39 136.95" stroke="#733d3a"></path>
</g>
<path d="M 91.07 0.00
  L 99.32 0.00
  C 102.30 0.41 105.51 0.31 108.19 0.69
  C 152.12 6.96 185.47 40.24 191.37 84.26
  C 191.58 85.82 191.50 88.17 192.00 90.13
  L 192.00 101.30
  C 189.65 126.21 180.91 147.12 163.14 164.73
  L 149.53 151.11
  Q 171.31 129.61 172.75 99.75
  C 174.59 61.66 147.85 27.45 110.26 20.50
  C 64.99 12.14 21.93 45.10 19.42 91.43
  Q 17.59 125.35 41.82 150.45
  L 28.32 164.11
  Q 8.51 144.37 2.29 116.75
  Q 1.83 114.71 0.61 108.30
  Q 1.00 105.21 0.00 102.35
  L 0.00 88.04
  Q 1.30 85.25 0.82 81.73
  C 2.04 76.53 3.08 70.89 4.70 66.13
  C 16.79 30.77 45.98 6.37 82.99 0.74
  C 85.37 0.38 88.37 0.53 91.07 0.00
  Z" fill="#201f1f"></path>
<path d="M 135.85 137.54
  L 122.41 123.94
  C 134.90 111.39 138.08 93.50 129.88 77.93
  C 119.09 57.42 92.22 51.38 73.54 64.80
  C 54.25 78.66 52.24 106.52 69.02 123.32
  L 55.39 136.95
  C 32.93 113.96 32.61 77.57 55.62 54.87
  C 81.34 29.52 123.33 34.13 143.68 63.62
  C 159.65 86.76 155.96 117.83 135.85 137.54
  Z" fill="#201f1f"></path>
<circle r="19.23" cy="96.01" cx="96.02" fill="#c55b54"></circle>
<path d="M 0.82 81.73
  Q 1.30 85.25 0.00 88.04
  L 0.00 82.21
  L 0.82 81.73
  Z" fill="#c55b54"></path>
<path d="M 0.00 102.35
  Q 1.00 105.21 0.61 108.30
  Q 0.27 108.10 0.00 107.67
  L 0.00 102.35
  Z" fill="#c55b54"></path>
<path d="M 69.02 123.32
  C 84.38 138.05 106.67 137.77 122.41 123.94
  L 135.85 137.54
  C 112.88 159.32 78.15 158.86 55.39 136.95
  L 69.02 123.32
  Z" fill="#c55b54"></path>
<path d="M 41.82 150.45
  C 72.31 179.69 118.70 180.51 149.53 151.11
  L 163.14 164.73
  C 147.26 179.98 126.29 190.19 104.20 191.54
  Q 102.63 191.63 101.12 192.00
  L 90.52 192.00
  C 66.06 189.52 46.01 181.49 28.32 164.11
  L 41.82 150.45
  Z" fill="#c55b54"></path>
</svg>
