<svg viewBox="0.00 0.00 192.00 192.00" version="1.1" xmlns="http://www.w3.org/2000/svg">
<g stroke-linecap="butt" fill="none" stroke-width="2.00">
<path d="M 192.00 39.75
  Q 191.53 39.70 191.64 40.85
  Q 191.65 40.90 191.61 40.87
  L 191.38 40.64
  A 0.50 0.49 49.8 0 0 190.74 40.58
  Q 190.00 41.10 188.99 40.93
  Q 181.29 39.60 173.52 40.06
  Q 170.32 40.25 167.12 40.09
  Q 166.65 40.07 166.25 40.30
  Q 164.99 41.01 163.67 40.38
  Q 163.21 40.17 162.71 40.29
  C 159.35 41.16 155.71 40.46 152.24 40.73
  C 149.10 40.98 144.85 40.83 141.47 40.13
  A 0.89 0.89 0.0 0 0 140.65 40.38
  L 138.78 42.28
  Q 138.32 42.76 138.38 43.43
  Q 138.59 45.64 139.51 49.99
  Q 140.21 53.32 140.16 63.25
  C 140.15 66.75 139.91 70.82 139.15 74.21
  Q 139.12 74.37 138.99 74.50
  Q 138.93 74.57 138.88 74.64
  Q 138.78 74.76 138.75 74.93
  Q 137.83 80.26 135.94 85.22" stroke="#5870c6"></path>
<path d="M 135.94 85.22
  Q 134.11 89.05 132.11 92.75
  Q 130.79 95.19 128.10 98.16
  C 126.39 100.04 122.58 104.26 122.35 106.75
  Q 122.16 108.76 122.82 113.15
  C 122.92 113.78 123.21 113.86 123.35 114.51
  Q 125.20 122.98 127.75 131.26
  A 0.52 0.50 6.8 0 0 127.99 131.55
  Q 128.14 131.63 128.16 131.74
  Q 129.92 138.81 131.11 146.00
  Q 132.12 152.14 128.40 158.04
  Q 128.14 158.44 127.74 158.69
  C 126.51 159.46 126.32 161.00 124.60 161.64
  C 123.47 162.06 123.15 162.51 122.45 163.38
  Q 122.15 163.76 121.69 163.90
  C 117.22 165.27 113.79 165.92 109.41 164.83
  C 108.28 164.55 107.66 163.77 106.51 163.34
  Q 106.05 163.17 105.72 162.80
  Q 103.13 159.87 100.56 156.93
  Q 98.64 154.74 95.88 154.60
  C 93.83 154.50 92.48 156.18 91.52 157.78
  Q 91.28 158.19 90.88 158.44
  Q 89.98 159.02 89.52 160.01
  Q 89.31 160.45 88.91 160.74
  C 87.31 161.87 86.57 162.91 84.57 163.53
  Q 82.62 164.12 80.85 165.15
  Q 80.45 165.38 79.98 165.38
  L 74.92 165.38
  A 4.54 4.51 -25.4 0 1 72.08 164.38
  C 70.19 162.86 66.49 161.00 66.85 158.02" stroke="#556cc2"></path>
<path d="M 66.85 158.02
  Q 69.67 161.26 73.84 162.99" stroke="#aebae6"></path>
<path d="M 73.84 162.99
  Q 79.06 165.15 84.92 162.45
  Q 86.19 161.86 85.72 161.04" stroke="#6b81ce"></path>
<path d="M 85.72 161.04
  L 86.08 160.83" stroke="#aebae6"></path>
<path d="M 86.08 160.83
  Q 88.43 160.10 90.05 157.53
  A 1.32 0.11 -74.6 0 0 90.36 156.69
  Q 90.57 156.01 91.13 155.77
  Q 92.09 155.34 92.44 154.67
  Q 92.63 154.29 92.94 154.00
  L 94.28 152.74
  A 2.64 2.63 -50.6 0 1 97.50 152.42
  L 99.60 153.74
  Q 99.99 153.98 100.19 154.38
  Q 102.26 158.50 105.86 161.39
  Q 106.18 161.65 106.56 161.63
  Q 107.04 161.62 107.43 161.91
  Q 113.98 166.83 120.00 162.20" stroke="#6b81ce"></path>
<path d="M 120.00 162.20
  L 124.60 159.42" stroke="#aebae6"></path>
<path d="M 124.60 159.42
  Q 130.60 155.57 129.80 146.98
  Q 129.23 140.94 128.34 138.75
  Q 127.42 136.48 127.25 135.23
  Q 127.18 134.76 126.94 134.36
  Q 126.29 133.24 126.09 131.75
  C 125.54 127.73 123.95 123.91 123.34 119.82
  C 122.66 115.28 120.78 112.92 120.93 107.99
  Q 121.08 103.27 123.64 100.16
  Q 125.30 98.14 125.96 97.07
  C 126.74 95.80 128.26 94.28 128.76 92.97
  C 129.13 92.01 129.98 91.52 130.37 90.78
  C 131.63 88.40 132.36 85.78 133.56 83.42
  C 134.22 82.13 134.16 80.61 134.40 79.68
  C 137.50 67.84 136.04 57.84 132.75 45.82
  Q 132.62 45.34 132.22 45.04
  C 129.71 43.16 128.57 39.98 126.22 37.50
  C 124.96 36.18 123.91 34.98 122.44 33.71
  C 119.77 31.39 118.06 28.78 114.63 26.51
  C 113.44 25.72 111.98 25.59 110.66 24.94
  Q 109.02 24.13 107.67 23.93
  C 105.78 23.64 103.85 23.03 102.09 22.81
  Q 91.70 21.53 81.25 22.55
  Q 79.45 22.72 75.75 22.65
  C 73.24 22.59 71.54 23.83 69.06 24.24
  Q 68.57 24.33 68.22 24.67
  Q 65.13 27.67 64.12 30.88
  Q 63.39 33.17 64.67 36.63" stroke="#6b81ce"></path>
<path d="M 64.67 36.63
  L 63.47 44.73" stroke="#aebae6"></path>
<path d="M 63.47 44.73
  L 63.12 42.41
  Q 63.02 41.79 62.40 41.90
  Q 62.09 41.96 62.05 41.71
  Q 61.94 41.04 61.26 41.05
  Q 56.88 41.09 52.50 41.17
  Q 49.66 41.21 46.82 41.07
  C 40.17 40.75 33.49 41.38 26.80 41.13
  C 22.12 40.95 16.70 41.35 11.64 40.94
  C 8.13 40.65 3.87 41.07 0.00 40.26" stroke="#5870c6"></path>
<path d="M 124.60 159.42
  Q 129.41 153.17 127.53 146.01
  C 123.76 131.67 119.20 117.61 115.33 103.33
  A 0.72 0.71 68.1 0 1 115.68 102.50
  C 127.15 96.32 132.11 82.96 132.35 70.61
  C 132.72 51.73 127.51 35.86 107.65 29.97
  C 98.98 27.40 89.46 27.79 80.50 27.67
  C 73.70 27.58 66.50 29.08 64.67 36.63" stroke="#bdc6e8"></path>
<path d="M 120.00 162.20
  Q 104.75 165.64 101.11 151.83
  C 99.79 146.83 98.42 140.10 96.54 133.92
  Q 93.60 124.28 91.52 114.44
  A 0.05 0.05 0.0 0 0 91.42 114.45
  C 91.14 118.10 91.89 122.01 91.88 125.19
  Q 91.83 137.09 91.70 149.01
  Q 91.62 155.87 86.08 160.83" stroke="#bdc6e8"></path>
<path d="M 85.72 161.04
  Q 80.76 164.03 73.84 162.99" stroke="#bdc6e8"></path>
<path d="M 66.85 158.02
  L 64.36 153.65" stroke="#a6b2db"></path>
<path d="M 64.36 153.65
  L 63.66 126.20" stroke="#bdc6e8"></path>
<path d="M 63.66 126.20
  L 63.45 101.72" stroke="#a0abd2"></path>
<path d="M 63.45 101.72
  L 63.45 85.71" stroke="#a3aed7"></path>
<path d="M 63.45 85.71
  L 63.50 61.78" stroke="#a6b2db"></path>
<path d="M 63.50 61.78
  L 63.47 44.73" stroke="#a9b5e0"></path>
<path d="M 95.26 87.01
  Q 102.18 85.12 104.08 79.29
  C 107.07 70.12 106.52 56.88 95.08 54.09
  A 1.64 1.64 0.0 0 0 93.08 55.37
  Q 90.71 67.38 91.78 79.75
  Q 92.09 83.27 93.02 85.84
  A 1.86 1.86 0.0 0 0 95.26 87.01" stroke="#bdc6e8"></path>
<path d="M 192.00 56.74
  Q 191.65 56.72 191.66 57.49
  Q 191.67 57.89 191.38 57.61
  L 191.13 57.36
  Q 190.82 57.06 190.42 57.24
  C 188.78 57.98 187.21 57.38 185.94 57.37
  Q 181.09 57.36 176.23 57.37
  C 174.87 57.37 173.68 56.94 172.37 56.63
  Q 172.23 56.60 172.13 56.64
  Q 172.00 56.70 171.90 56.83
  Q 171.70 57.10 171.36 57.09
  Q 164.15 57.07 156.96 57.38
  C 155.65 57.43 154.13 57.94 152.64 57.86
  C 149.90 57.71 147.38 57.75 144.97 57.12
  A 1.36 1.36 0.0 0 0 143.28 58.23
  C 142.54 63.03 141.92 66.09 140.84 72.22
  Q 138.99 82.68 133.87 92.05
  Q 133.76 92.25 133.56 92.15
  L 133.55 92.14
  Q 133.37 92.05 133.45 91.84
  L 135.94 85.22" stroke="#5068bc"></path>
<path d="M 63.50 61.78
  Q 62.82 61.30 62.86 60.27
  Q 62.87 59.86 62.47 59.93
  L 61.77 60.05
  A 0.12 0.12 0.0 0 1 61.67 59.84
  Q 61.77 59.74 61.88 59.63
  A 0.43 0.29 -6.8 0 0 61.23 59.30
  Q 60.30 59.96 59.80 59.08
  Q 59.51 58.57 58.93 58.66
  C 56.03 59.11 53.24 58.34 50.63 58.48
  C 45.82 58.72 40.91 58.62 36.15 59.00
  Q 31.92 59.34 27.33 59.21
  Q 23.00 59.08 18.67 59.36
  C 12.51 59.76 6.18 58.33 0.00 58.66" stroke="#5068bc"></path>
<path d="M 192.00 80.21
  Q 191.50 82.88 188.64 81.88
  A 1.17 1.15 -50.4 0 0 187.66 81.98
  L 186.98 82.41
  Q 186.50 82.71 186.08 82.33
  Q 185.58 81.89 185.17 82.33
  Q 184.83 82.71 184.31 82.69
  C 179.30 82.44 175.25 82.56 169.25 82.53
  C 164.08 82.50 159.62 83.14 153.85 82.69
  C 153.04 82.63 152.48 83.03 151.52 82.53
  Q 151.07 82.29 150.56 82.38
  Q 147.05 83.00 143.88 81.20
  Q 143.45 80.96 143.16 81.35
  Q 140.76 84.54 139.53 88.40
  Q 139.41 88.78 139.07 89.00
  Q 138.61 89.29 138.30 89.78
  Q 136.35 92.89 134.42 96.02
  C 133.03 98.25 130.95 99.56 129.26 101.66
  C 128.76 102.28 127.67 102.64 127.36 103.11
  Q 124.56 107.30 125.70 112.24
  Q 127.33 119.35 129.13 126.48" stroke="#4a61b3"></path>
<path d="M 129.13 126.48
  L 132.56 142.39
  Q 132.58 142.49 132.66 142.50
  Q 132.72 142.51 132.76 142.49
  Q 132.84 142.44 132.85 142.51
  C 133.56 146.92 133.53 154.66 130.56 158.30
  C 129.16 160.03 128.62 161.37 126.31 162.68
  Q 126.13 162.78 126.13 162.99
  Q 126.13 163.13 126.13 163.27
  A 0.39 0.38 77.9 0 1 125.88 163.66
  C 123.97 164.38 122.19 165.78 120.42 166.33
  C 113.11 168.62 105.56 166.77 100.81 160.81
  C 99.09 158.66 94.67 157.03 93.07 160.09
  Q 92.86 160.49 92.46 160.68
  C 89.28 162.20 86.89 165.74 84.27 166.34
  Q 73.91 168.72 65.78 162.23
  Q 65.37 161.90 65.27 161.39
  L 64.21 155.96" stroke="#475dae"></path>
<path d="M 64.21 155.96
  Q 63.29 154.91 63.76 152.79" stroke="#4258a8"></path>
<path d="M 63.76 152.79
  Q 64.21 153.89 64.36 153.65" stroke="#6479c4"></path>
<path d="M 63.45 85.71
  L 62.85 78.56
  Q 62.81 78.09 62.36 77.99
  Q 61.86 77.86 61.86 77.15
  A 0.33 0.33 0.0 0 0 61.38 76.85
  Q 61.12 76.99 60.98 77.24
  A 0.58 0.58 0.0 0 1 60.00 77.30
  Q 59.43 76.51 58.55 77.04
  Q 58.11 77.30 57.60 77.28
  Q 44.93 76.83 32.24 77.06
  Q 30.23 77.10 27.26 76.94
  C 19.90 76.56 12.38 76.95 5.00 76.89
  Q 4.22 76.89 2.54 77.18
  Q 0.80 77.48 0.00 76.77" stroke="#4a61b3"></path>
<path d="M 63.45 101.72
  L 62.87 95.98
  A 0.57 0.57 0.0 0 0 62.55 95.52
  Q 61.89 95.20 61.67 94.89
  Q 61.43 94.58 61.09 94.77
  Q 60.31 95.19 59.50 94.73
  Q 59.17 94.55 58.86 94.76
  Q 58.70 94.87 58.52 94.97
  Q 58.20 95.14 57.77 95.11
  Q 50.60 94.56 43.42 94.65
  Q 29.31 94.84 29.08 94.84
  Q 14.54 94.74 0.00 95.01" stroke="#435aaa"></path>
<path d="M 192.00 82.86
  C 191.63 86.40 192.63 91.79 187.49 92.06
  Q 178.87 92.50 170.25 92.47
  Q 164.89 92.45 159.54 92.53
  C 156.40 92.58 152.77 92.20 149.39 92.27
  C 146.41 92.33 143.73 91.72 140.81 91.53
  Q 140.33 91.50 139.96 91.81
  Q 137.72 93.68 136.38 96.27
  Q 136.15 96.73 135.73 97.04
  C 134.76 97.77 134.21 99.02 133.54 99.70
  C 131.47 101.79 128.19 104.38 127.27 106.97
  C 125.81 111.14 127.85 115.57 128.11 119.82
  Q 128.22 121.63 128.77 123.40
  Q 129.24 124.90 129.13 126.48" stroke="#435aaa"></path>
<path d="M 192.00 147.88
  Q 191.60 147.10 191.82 146.00" stroke="#354a96"></path>
<path d="M 191.82 146.00
  C 191.92 138.94 191.77 132.91 191.32 125.01
  Q 191.07 120.74 191.14 114.75
  Q 191.17 112.15 188.54 110.97
  Q 188.07 110.75 187.59 110.95
  Q 186.54 111.37 185.62 110.67
  Q 185.27 110.40 184.86 110.55
  Q 184.31 110.74 183.74 110.69
  C 180.14 110.35 176.69 109.85 173.07 109.97
  Q 159.59 110.40 146.09 110.39
  C 143.76 110.39 141.27 109.94 138.82 109.84
  Q 138.32 109.82 137.98 109.46
  Q 137.22 108.66 136.46 109.52
  A 0.13 0.13 0.0 0 1 136.24 109.48
  L 136.12 109.16
  Q 136.00 108.82 135.65 108.90
  Q 133.70 109.33 131.75 108.71
  Q 131.64 108.68 131.64 108.79
  Q 131.64 108.93 131.59 109.07
  Q 131.52 109.27 131.30 109.34
  Q 131.15 109.39 130.99 109.39
  Q 130.72 109.39 130.63 109.63
  C 129.31 113.00 130.15 115.55 130.41 118.92
  C 130.73 123.21 131.86 127.66 132.57 131.92
  Q 132.63 132.28 132.91 132.52
  Q 133.31 132.85 133.09 133.50
  Q 135.41 142.93 134.25 152.51
  C 133.90 155.42 131.78 159.54 129.60 161.50
  C 124.72 165.88 119.85 168.60 113.38 168.45
  Q 109.63 168.37 106.36 166.72
  Q 103.22 165.13 100.27 162.59
  C 97.72 160.39 94.97 160.41 92.29 162.70
  Q 88.32 166.10 84.49 167.51
  C 76.94 170.29 69.84 167.46 63.99 162.26" stroke="#3b519f"></path>
<path d="M 63.99 162.26
  Q 63.93 162.31 63.77 162.14
  Q 63.72 162.08 63.72 162.00
  L 63.39 155.25
  Q 63.36 154.67 63.57 155.01
  Q 63.71 155.23 63.60 155.52
  Q 63.47 155.87 63.84 155.93
  Q 63.99 155.95 64.21 155.96" stroke="#3b519f"></path>
<path d="M 63.66 126.20
  Q 63.30 126.88 63.65 126.69" stroke="#5d72bb"></path>
<path d="M 63.65 126.69
  Q 63.41 126.77 63.23 126.85
  Q 63.06 126.94 63.05 126.75
  L 62.64 114.54
  A 1.29 1.29 0.0 0 0 61.03 113.34
  Q 60.01 113.60 59.63 112.75
  Q 59.62 112.74 59.62 112.75
  Q 59.55 112.89 59.49 113.02
  Q 59.39 113.21 59.18 113.16
  Q 55.62 112.26 53.13 112.38
  Q 46.60 112.71 41.75 112.23
  C 40.21 112.07 38.65 112.60 37.26 112.49
  Q 31.44 112.02 25.66 112.74
  A 0.70 0.69 55.4 0 1 25.28 112.67
  C 24.28 112.14 23.21 112.42 22.34 112.39
  C 20.41 112.30 16.71 111.81 14.97 112.61
  Q 14.53 112.81 14.09 112.63
  C 11.50 111.57 9.44 112.73 6.26 111.63
  Q 3.94 110.84 1.00 113.15
  Q 0.63 113.45 0.57 113.91
  L 0.00 118.05" stroke="#3b519f"></path>
<path d="M 191.82 146.00
  L 190.97 145.61
  Q 190.58 145.43 190.18 145.58
  Q 188.54 146.21 186.50 146.16
  Q 171.46 145.75 152.24 145.84
  C 149.19 145.86 145.19 146.79 141.25 145.59
  A 1.29 1.28 16.2 0 0 139.64 146.47
  L 137.31 154.88
  Q 137.21 155.24 137.06 154.90
  L 136.90 154.55
  Q 136.75 154.22 136.66 154.57
  Q 136.40 155.57 135.73 156.30
  Q 135.40 156.67 135.24 157.14
  Q 133.66 161.82 129.71 164.77
  C 128.68 165.54 127.86 166.64 126.40 167.41
  Q 112.47 174.71 99.80 165.76
  Q 98.88 165.11 97.77 164.89
  C 94.49 164.24 94.10 164.51 91.44 166.69
  Q 89.97 167.90 85.22 169.96
  Q 82.47 171.15 75.75 170.54
  Q 73.54 170.34 72.66 169.47
  Q 72.32 169.12 71.85 168.98
  Q 68.88 168.06 66.77 166.32" stroke="#30458f"></path>
<path d="M 66.77 166.32
  L 64.29 163.41
  Q 63.98 163.04 63.99 162.57
  L 63.99 162.26" stroke="#364c98"></path>
<path d="M 63.65 126.69
  Q 62.98 137.75 62.89 148.75
  Q 62.87 150.89 63.76 152.79" stroke="#586db4"></path>
<path d="M 66.77 166.32
  C 62.97 164.76 62.09 161.65 62.41 157.90
  C 62.72 154.36 62.28 151.28 62.17 147.90
  C 62.08 145.10 61.35 142.50 60.98 139.71
  Q 60.84 138.70 59.83 138.57
  Q 58.74 138.42 58.19 139.04
  Q 57.85 139.43 57.39 139.18
  C 54.37 137.55 51.65 138.29 48.76 137.36
  Q 48.31 137.22 47.85 137.28
  C 44.10 137.78 39.42 137.83 35.18 138.06
  Q 31.95 138.23 27.84 138.11
  Q 18.90 137.84 10.00 138.47
  Q 8.41 138.59 5.02 138.39
  Q 2.55 138.24 0.00 138.61" stroke="#30458f"></path>
<path d="M 192.00 173.10
  L 183.36 173.06
  A 0.47 0.46 -86.5 0 0 182.90 173.47
  Q 182.86 173.86 182.47 173.90
  A 0.24 0.23 77.3 0 1 182.21 173.73
  Q 181.98 172.96 181.00 172.96
  Q 164.06 173.00 156.00 173.17
  Q 154.69 173.20 153.88 172.64
  Q 153.51 172.39 153.15 172.64
  Q 152.95 172.78 152.72 172.88
  C 151.14 173.53 149.57 172.56 147.51 173.75
  Q 147.37 173.83 147.23 173.75
  Q 147.09 173.68 147.10 173.54
  Q 147.13 173.14 146.74 173.05
  Q 145.96 172.87 145.87 173.70
  A 0.31 0.30 -59.9 0 1 145.32 173.85
  L 145.10 173.55
  Q 144.71 173.01 144.04 173.01
  L 129.04 173.01
  Q 128.60 173.01 128.27 173.32
  Q 126.96 174.57 124.83 173.43
  Q 124.43 173.22 124.10 173.53
  Q 123.17 174.40 121.88 174.16
  Q 121.36 174.06 121.05 174.49
  Q 120.67 175.01 120.03 174.88
  Q 119.60 174.79 119.27 174.51
  Q 118.45 173.80 117.24 174.07
  Q 115.46 174.45 113.66 174.34
  C 109.86 174.11 107.37 174.37 103.04 173.07
  Q 102.55 172.92 102.02 173.32
  Q 101.70 173.56 101.45 173.24
  Q 100.94 172.60 100.11 172.92
  A 1.33 1.30 40.6 0 1 99.35 172.97
  Q 97.64 172.58 96.67 173.75
  Q 96.48 173.98 96.26 173.79
  Q 96.12 173.68 96.10 173.52
  Q 96.03 173.18 95.71 173.10
  Q 93.55 172.57 91.57 173.52
  Q 91.18 173.71 90.75 173.73
  L 87.69 173.90
  Q 87.45 173.92 87.25 174.05
  Q 87.12 174.14 87.00 174.26
  Q 86.65 174.59 86.24 174.34
  Q 85.59 173.94 85.00 174.26
  Q 84.57 174.50 84.10 174.36
  Q 82.93 174.02 81.73 174.15
  Q 75.99 174.76 70.29 173.92
  Q 66.54 173.36 63.75 173.22
  Q 62.91 173.18 61.94 173.62
  Q 61.52 173.81 61.05 173.76
  Q 56.91 173.34 52.75 173.22
  Q 52.48 173.22 52.28 173.34
  Q 52.05 173.48 51.82 173.66
  Q 51.39 174.00 51.06 173.56
  Q 50.67 173.03 50.01 173.45
  Q 49.61 173.70 49.14 173.61
  Q 46.22 173.06 43.26 173.08
  Q 39.88 173.10 36.50 173.09
  Q 36.20 173.09 36.00 172.77
  Q 35.71 172.32 35.25 172.58
  Q 33.72 173.41 32.00 172.94
  A 0.98 0.96 -56.8 0 0 31.13 173.13
  Q 30.94 173.28 30.90 173.48
  A 0.37 0.37 0.0 0 1 30.25 173.63
  C 28.99 172.02 27.81 172.98 26.38 172.99
  Q 13.19 173.07 0.00 172.92" stroke="#263b82"></path>
</g>
<path d="M 0.00 0.00
  L 192.00 0.00
  L 192.00 39.75
  Q 191.53 39.70 191.64 40.85
  Q 191.65 40.90 191.61 40.87
  L 191.38 40.64
  A 0.50 0.49 49.8 0 0 190.74 40.58
  Q 190.00 41.10 188.99 40.93
  Q 181.29 39.60 173.52 40.06
  Q 170.32 40.25 167.12 40.09
  Q 166.65 40.07 166.25 40.30
  Q 164.99 41.01 163.67 40.38
  Q 163.21 40.17 162.71 40.29
  C 159.35 41.16 155.71 40.46 152.24 40.73
  C 149.10 40.98 144.85 40.83 141.47 40.13
  A 0.89 0.89 0.0 0 0 140.65 40.38
  L 138.78 42.28
  Q 138.32 42.76 138.38 43.43
  Q 138.59 45.64 139.51 49.99
  Q 140.21 53.32 140.16 63.25
  C 140.15 66.75 139.91 70.82 139.15 74.21
  Q 139.12 74.37 138.99 74.50
  Q 138.93 74.57 138.88 74.64
  Q 138.78 74.76 138.75 74.93
  Q 137.83 80.26 135.94 85.22
  Q 134.11 89.05 132.11 92.75
  Q 130.79 95.19 128.10 98.16
  C 126.39 100.04 122.58 104.26 122.35 106.75
  Q 122.16 108.76 122.82 113.15
  C 122.92 113.78 123.21 113.86 123.35 114.51
  Q 125.20 122.98 127.75 131.26
  A 0.52 0.50 6.8 0 0 127.99 131.55
  Q 128.14 131.63 128.16 131.74
  Q 129.92 138.81 131.11 146.00
  Q 132.12 152.14 128.40 158.04
  Q 128.14 158.44 127.74 158.69
  C 126.51 159.46 126.32 161.00 124.60 161.64
  C 123.47 162.06 123.15 162.51 122.45 163.38
  Q 122.15 163.76 121.69 163.90
  C 117.22 165.27 113.79 165.92 109.41 164.83
  C 108.28 164.55 107.66 163.77 106.51 163.34
  Q 106.05 163.17 105.72 162.80
  Q 103.13 159.87 100.56 156.93
  Q 98.64 154.74 95.88 154.60
  C 93.83 154.50 92.48 156.18 91.52 157.78
  Q 91.28 158.19 90.88 158.44
  Q 89.98 159.02 89.52 160.01
  Q 89.31 160.45 88.91 160.74
  C 87.31 161.87 86.57 162.91 84.57 163.53
  Q 82.62 164.12 80.85 165.15
  Q 80.45 165.38 79.98 165.38
  L 74.92 165.38
  A 4.54 4.51 -25.4 0 1 72.08 164.38
  C 70.19 162.86 66.49 161.00 66.85 158.02
  Q 69.67 161.26 73.84 162.99
  Q 79.06 165.15 84.92 162.45
  Q 86.19 161.86 85.72 161.04
  L 86.08 160.83
  Q 88.43 160.10 90.05 157.53
  A 1.32 0.11 -74.6 0 0 90.36 156.69
  Q 90.57 156.01 91.13 155.77
  Q 92.09 155.34 92.44 154.67
  Q 92.63 154.29 92.94 154.00
  L 94.28 152.74
  A 2.64 2.63 -50.6 0 1 97.50 152.42
  L 99.60 153.74
  Q 99.99 153.98 100.19 154.38
  Q 102.26 158.50 105.86 161.39
  Q 106.18 161.65 106.56 161.63
  Q 107.04 161.62 107.43 161.91
  Q 113.98 166.83 120.00 162.20
  L 124.60 159.42
  Q 130.60 155.57 129.80 146.98
  Q 129.23 140.94 128.34 138.75
  Q 127.42 136.48 127.25 135.23
  Q 127.18 134.76 126.94 134.36
  Q 126.29 133.24 126.09 131.75
  C 125.54 127.73 123.95 123.91 123.34 119.82
  C 122.66 115.28 120.78 112.92 120.93 107.99
  Q 121.08 103.27 123.64 100.16
  Q 125.30 98.14 125.96 97.07
  C 126.74 95.80 128.26 94.28 128.76 92.97
  C 129.13 92.01 129.98 91.52 130.37 90.78
  C 131.63 88.40 132.36 85.78 133.56 83.42
  C 134.22 82.13 134.16 80.61 134.40 79.68
  C 137.50 67.84 136.04 57.84 132.75 45.82
  Q 132.62 45.34 132.22 45.04
  C 129.71 43.16 128.57 39.98 126.22 37.50
  C 124.96 36.18 123.91 34.98 122.44 33.71
  C 119.77 31.39 118.06 28.78 114.63 26.51
  C 113.44 25.72 111.98 25.59 110.66 24.94
  Q 109.02 24.13 107.67 23.93
  C 105.78 23.64 103.85 23.03 102.09 22.81
  Q 91.70 21.53 81.25 22.55
  Q 79.45 22.72 75.75 22.65
  C 73.24 22.59 71.54 23.83 69.06 24.24
  Q 68.57 24.33 68.22 24.67
  Q 65.13 27.67 64.12 30.88
  Q 63.39 33.17 64.67 36.63
  L 63.47 44.73
  L 63.12 42.41
  Q 63.02 41.79 62.40 41.90
  Q 62.09 41.96 62.05 41.71
  Q 61.94 41.04 61.26 41.05
  Q 56.88 41.09 52.50 41.17
  Q 49.66 41.21 46.82 41.07
  C 40.17 40.75 33.49 41.38 26.80 41.13
  C 22.12 40.95 16.70 41.35 11.64 40.94
  C 8.13 40.65 3.87 41.07 0.00 40.26
  L 0.00 0.00
  Z" fill="#5c74cc"></path>
<path d="M 124.60 159.42
  Q 129.41 153.17 127.53 146.01
  C 123.76 131.67 119.20 117.61 115.33 103.33
  A 0.72 0.71 68.1 0 1 115.68 102.50
  C 127.15 96.32 132.11 82.96 132.35 70.61
  C 132.72 51.73 127.51 35.86 107.65 29.97
  C 98.98 27.40 89.46 27.79 80.50 27.67
  C 73.70 27.58 66.50 29.08 64.67 36.63
  Q 63.39 33.17 64.12 30.88
  Q 65.13 27.67 68.22 24.67
  Q 68.57 24.33 69.06 24.24
  C 71.54 23.83 73.24 22.59 75.75 22.65
  Q 79.45 22.72 81.25 22.55
  Q 91.70 21.53 102.09 22.81
  C 103.85 23.03 105.78 23.64 107.67 23.93
  Q 109.02 24.13 110.66 24.94
  C 111.98 25.59 113.44 25.72 114.63 26.51
  C 118.06 28.78 119.77 31.39 122.44 33.71
  C 123.91 34.98 124.96 36.18 126.22 37.50
  C 128.57 39.98 129.71 43.16 132.22 45.04
  Q 132.62 45.34 132.75 45.82
  C 136.04 57.84 137.50 67.84 134.40 79.68
  C 134.16 80.61 134.22 82.13 133.56 83.42
  C 132.36 85.78 131.63 88.40 130.37 90.78
  C 129.98 91.52 129.13 92.01 128.76 92.97
  C 128.26 94.28 126.74 95.80 125.96 97.07
  Q 125.30 98.14 123.64 100.16
  Q 121.08 103.27 120.93 107.99
  C 120.78 112.92 122.66 115.28 123.34 119.82
  C 123.95 123.91 125.54 127.73 126.09 131.75
  Q 126.29 133.24 126.94 134.36
  Q 127.18 134.76 127.25 135.23
  Q 127.42 136.48 128.34 138.75
  Q 129.23 140.94 129.80 146.98
  Q 130.60 155.57 124.60 159.42
  Z" fill="#7a8dd0"></path>
<path d="M 124.60 159.42
  L 120.00 162.20
  Q 104.75 165.64 101.11 151.83
  C 99.79 146.83 98.42 140.10 96.54 133.92
  Q 93.60 124.28 91.52 114.44
  A 0.05 0.05 0.0 0 0 91.42 114.45
  C 91.14 118.10 91.89 122.01 91.88 125.19
  Q 91.83 137.09 91.70 149.01
  Q 91.62 155.87 86.08 160.83
  L 85.72 161.04
  Q 80.76 164.03 73.84 162.99
  Q 69.67 161.26 66.85 158.02
  L 64.36 153.65
  L 63.66 126.20
  L 63.45 101.72
  L 63.45 85.71
  L 63.50 61.78
  L 63.47 44.73
  L 64.67 36.63
  C 66.50 29.08 73.70 27.58 80.50 27.67
  C 89.46 27.79 98.98 27.40 107.65 29.97
  C 127.51 35.86 132.72 51.73 132.35 70.61
  C 132.11 82.96 127.15 96.32 115.68 102.50
  A 0.72 0.71 68.1 0 0 115.33 103.33
  C 119.20 117.61 123.76 131.67 127.53 146.01
  Q 129.41 153.17 124.60 159.42
  Z
  M 95.26 87.01
  Q 102.18 85.12 104.08 79.29
  C 107.07 70.12 106.52 56.88 95.08 54.09
  A 1.64 1.64 0.0 0 0 93.08 55.37
  Q 90.71 67.38 91.78 79.75
  Q 92.09 83.27 93.02 85.84
  A 1.86 1.86 0.0 0 0 95.26 87.01
  Z" fill="#ffffff"></path>
<path d="M 192.00 39.75
  L 192.00 56.74
  Q 191.65 56.72 191.66 57.49
  Q 191.67 57.89 191.38 57.61
  L 191.13 57.36
  Q 190.82 57.06 190.42 57.24
  C 188.78 57.98 187.21 57.38 185.94 57.37
  Q 181.09 57.36 176.23 57.37
  C 174.87 57.37 173.68 56.94 172.37 56.63
  Q 172.23 56.60 172.13 56.64
  Q 172.00 56.70 171.90 56.83
  Q 171.70 57.10 171.36 57.09
  Q 164.15 57.07 156.96 57.38
  C 155.65 57.43 154.13 57.94 152.64 57.86
  C 149.90 57.71 147.38 57.75 144.97 57.12
  A 1.36 1.36 0.0 0 0 143.28 58.23
  C 142.54 63.03 141.92 66.09 140.84 72.22
  Q 138.99 82.68 133.87 92.05
  Q 133.76 92.25 133.56 92.15
  L 133.55 92.14
  Q 133.37 92.05 133.45 91.84
  L 135.94 85.22
  Q 137.83 80.26 138.75 74.93
  Q 138.78 74.76 138.88 74.64
  Q 138.93 74.57 138.99 74.50
  Q 139.12 74.37 139.15 74.21
  C 139.91 70.82 140.15 66.75 140.16 63.25
  Q 140.21 53.32 139.51 49.99
  Q 138.59 45.64 138.38 43.43
  Q 138.32 42.76 138.78 42.28
  L 140.65 40.38
  A 0.89 0.89 0.0 0 1 141.47 40.13
  C 144.85 40.83 149.10 40.98 152.24 40.73
  C 155.71 40.46 159.35 41.16 162.71 40.29
  Q 163.21 40.17 163.67 40.38
  Q 164.99 41.01 166.25 40.30
  Q 166.65 40.07 167.12 40.09
  Q 170.32 40.25 173.52 40.06
  Q 181.29 39.60 188.99 40.93
  Q 190.00 41.10 190.74 40.58
  A 0.50 0.49 49.8 0 1 191.38 40.64
  L 191.61 40.87
  Q 191.65 40.90 191.64 40.85
  Q 191.53 39.70 192.00 39.75
  Z" fill="#536bc0"></path>
<path d="M 0.00 40.26
  C 3.87 41.07 8.13 40.65 11.64 40.94
  C 16.70 41.35 22.12 40.95 26.80 41.13
  C 33.49 41.38 40.17 40.75 46.82 41.07
  Q 49.66 41.21 52.50 41.17
  Q 56.88 41.09 61.26 41.05
  Q 61.94 41.04 62.05 41.71
  Q 62.09 41.96 62.40 41.90
  Q 63.02 41.79 63.12 42.41
  L 63.47 44.73
  L 63.50 61.78
  Q 62.82 61.30 62.86 60.27
  Q 62.87 59.86 62.47 59.93
  L 61.77 60.05
  A 0.12 0.12 0.0 0 1 61.67 59.84
  Q 61.77 59.74 61.88 59.63
  A 0.43 0.29 -6.8 0 0 61.23 59.30
  Q 60.30 59.96 59.80 59.08
  Q 59.51 58.57 58.93 58.66
  C 56.03 59.11 53.24 58.34 50.63 58.48
  C 45.82 58.72 40.91 58.62 36.15 59.00
  Q 31.92 59.34 27.33 59.21
  Q 23.00 59.08 18.67 59.36
  C 12.51 59.76 6.18 58.33 0.00 58.66
  L 0.00 40.26
  Z" fill="#536bc0"></path>
<path d="M 95.26 87.01
  A 1.86 1.86 0.0 0 1 93.02 85.84
  Q 92.09 83.27 91.78 79.75
  Q 90.71 67.38 93.08 55.37
  A 1.64 1.64 0.0 0 1 95.08 54.09
  C 106.52 56.88 107.07 70.12 104.08 79.29
  Q 102.18 85.12 95.26 87.01
  Z" fill="#7a8dd0"></path>
<path d="M 192.00 56.74
  L 192.00 80.21
  Q 191.50 82.88 188.64 81.88
  A 1.17 1.15 -50.4 0 0 187.66 81.98
  L 186.98 82.41
  Q 186.50 82.71 186.08 82.33
  Q 185.58 81.89 185.17 82.33
  Q 184.83 82.71 184.31 82.69
  C 179.30 82.44 175.25 82.56 169.25 82.53
  C 164.08 82.50 159.62 83.14 153.85 82.69
  C 153.04 82.63 152.48 83.03 151.52 82.53
  Q 151.07 82.29 150.56 82.38
  Q 147.05 83.00 143.88 81.20
  Q 143.45 80.96 143.16 81.35
  Q 140.76 84.54 139.53 88.40
  Q 139.41 88.78 139.07 89.00
  Q 138.61 89.29 138.30 89.78
  Q 136.35 92.89 134.42 96.02
  C 133.03 98.25 130.95 99.56 129.26 101.66
  C 128.76 102.28 127.67 102.64 127.36 103.11
  Q 124.56 107.30 125.70 112.24
  Q 127.33 119.35 129.13 126.48
  L 132.56 142.39
  Q 132.58 142.49 132.66 142.50
  Q 132.72 142.51 132.76 142.49
  Q 132.84 142.44 132.85 142.51
  C 133.56 146.92 133.53 154.66 130.56 158.30
  C 129.16 160.03 128.62 161.37 126.31 162.68
  Q 126.13 162.78 126.13 162.99
  Q 126.13 163.13 126.13 163.27
  A 0.39 0.38 77.9 0 1 125.88 163.66
  C 123.97 164.38 122.19 165.78 120.42 166.33
  C 113.11 168.62 105.56 166.77 100.81 160.81
  C 99.09 158.66 94.67 157.03 93.07 160.09
  Q 92.86 160.49 92.46 160.68
  C 89.28 162.20 86.89 165.74 84.27 166.34
  Q 73.91 168.72 65.78 162.23
  Q 65.37 161.90 65.27 161.39
  L 64.21 155.96
  Q 63.29 154.91 63.76 152.79
  Q 64.21 153.89 64.36 153.65
  L 66.85 158.02
  C 66.49 161.00 70.19 162.86 72.08 164.38
  A 4.54 4.51 -25.4 0 0 74.92 165.38
  L 79.98 165.38
  Q 80.45 165.38 80.85 165.15
  Q 82.62 164.12 84.57 163.53
  C 86.57 162.91 87.31 161.87 88.91 160.74
  Q 89.31 160.45 89.52 160.01
  Q 89.98 159.02 90.88 158.44
  Q 91.28 158.19 91.52 157.78
  C 92.48 156.18 93.83 154.50 95.88 154.60
  Q 98.64 154.74 100.56 156.93
  Q 103.13 159.87 105.72 162.80
  Q 106.05 163.17 106.51 163.34
  C 107.66 163.77 108.28 164.55 109.41 164.83
  C 113.79 165.92 117.22 165.27 121.69 163.90
  Q 122.15 163.76 122.45 163.38
  C 123.15 162.51 123.47 162.06 124.60 161.64
  C 126.32 161.00 126.51 159.46 127.74 158.69
  Q 128.14 158.44 128.40 158.04
  Q 132.12 152.14 131.11 146.00
  Q 129.92 138.81 128.16 131.74
  Q 128.14 131.63 127.99 131.55
  A 0.52 0.50 6.8 0 1 127.75 131.26
  Q 125.20 122.98 123.35 114.51
  C 123.21 113.86 122.92 113.78 122.82 113.15
  Q 122.16 108.76 122.35 106.75
  C 122.58 104.26 126.39 100.04 128.10 98.16
  Q 130.79 95.19 132.11 92.75
  Q 134.11 89.05 135.94 85.22
  L 133.45 91.84
  Q 133.37 92.05 133.55 92.14
  L 133.56 92.15
  Q 133.76 92.25 133.87 92.05
  Q 138.99 82.68 140.84 72.22
  C 141.92 66.09 142.54 63.03 143.28 58.23
  A 1.36 1.36 0.0 0 1 144.97 57.12
  C 147.38 57.75 149.90 57.71 152.64 57.86
  C 154.13 57.94 155.65 57.43 156.96 57.38
  Q 164.15 57.07 171.36 57.09
  Q 171.70 57.10 171.90 56.83
  Q 172.00 56.70 172.13 56.64
  Q 172.23 56.60 172.37 56.63
  C 173.68 56.94 174.87 57.37 176.23 57.37
  Q 181.09 57.36 185.94 57.37
  C 187.21 57.38 188.78 57.98 190.42 57.24
  Q 190.82 57.06 191.13 57.36
  L 191.38 57.61
  Q 191.67 57.89 191.66 57.49
  Q 191.65 56.72 192.00 56.74
  Z" fill="#4d64b7"></path>
<path d="M 63.50 61.78
  L 63.45 85.71
  L 62.85 78.56
  Q 62.81 78.09 62.36 77.99
  Q 61.86 77.86 61.86 77.15
  A 0.33 0.33 0.0 0 0 61.38 76.85
  Q 61.12 76.99 60.98 77.24
  A 0.58 0.58 0.0 0 1 60.00 77.30
  Q 59.43 76.51 58.55 77.04
  Q 58.11 77.30 57.60 77.28
  Q 44.93 76.83 32.24 77.06
  Q 30.23 77.10 27.26 76.94
  C 19.90 76.56 12.38 76.95 5.00 76.89
  Q 4.22 76.89 2.54 77.18
  Q 0.80 77.48 0.00 76.77
  L 0.00 58.66
  C 6.18 58.33 12.51 59.76 18.67 59.36
  Q 23.00 59.08 27.33 59.21
  Q 31.92 59.34 36.15 59.00
  C 40.91 58.62 45.82 58.72 50.63 58.48
  C 53.24 58.34 56.03 59.11 58.93 58.66
  Q 59.51 58.57 59.80 59.08
  Q 60.30 59.96 61.23 59.30
  A 0.43 0.29 -6.8 0 1 61.88 59.63
  Q 61.77 59.74 61.67 59.84
  A 0.12 0.12 0.0 0 0 61.77 60.05
  L 62.47 59.93
  Q 62.87 59.86 62.86 60.27
  Q 62.82 61.30 63.50 61.78
  Z" fill="#4d64b7"></path>
<path d="M 63.45 85.71
  L 63.45 101.72
  L 62.87 95.98
  A 0.57 0.57 0.0 0 0 62.55 95.52
  Q 61.89 95.20 61.67 94.89
  Q 61.43 94.58 61.09 94.77
  Q 60.31 95.19 59.50 94.73
  Q 59.17 94.55 58.86 94.76
  Q 58.70 94.87 58.52 94.97
  Q 58.20 95.14 57.77 95.11
  Q 50.60 94.56 43.42 94.65
  Q 29.31 94.84 29.08 94.84
  Q 14.54 94.74 0.00 95.01
  L 0.00 76.77
  Q 0.80 77.48 2.54 77.18
  Q 4.22 76.89 5.00 76.89
  C 12.38 76.95 19.90 76.56 27.26 76.94
  Q 30.23 77.10 32.24 77.06
  Q 44.93 76.83 57.60 77.28
  Q 58.11 77.30 58.55 77.04
  Q 59.43 76.51 60.00 77.30
  A 0.58 0.58 0.0 0 0 60.98 77.24
  Q 61.12 76.99 61.38 76.85
  A 0.33 0.33 0.0 0 1 61.86 77.15
  Q 61.86 77.86 62.36 77.99
  Q 62.81 78.09 62.85 78.56
  L 63.45 85.71
  Z" fill="#465dae"></path>
<path d="M 192.00 80.21
  L 192.00 82.86
  C 191.63 86.40 192.63 91.79 187.49 92.06
  Q 178.87 92.50 170.25 92.47
  Q 164.89 92.45 159.54 92.53
  C 156.40 92.58 152.77 92.20 149.39 92.27
  C 146.41 92.33 143.73 91.72 140.81 91.53
  Q 140.33 91.50 139.96 91.81
  Q 137.72 93.68 136.38 96.27
  Q 136.15 96.73 135.73 97.04
  C 134.76 97.77 134.21 99.02 133.54 99.70
  C 131.47 101.79 128.19 104.38 127.27 106.97
  C 125.81 111.14 127.85 115.57 128.11 119.82
  Q 128.22 121.63 128.77 123.40
  Q 129.24 124.90 129.13 126.48
  Q 127.33 119.35 125.70 112.24
  Q 124.56 107.30 127.36 103.11
  C 127.67 102.64 128.76 102.28 129.26 101.66
  C 130.95 99.56 133.03 98.25 134.42 96.02
  Q 136.35 92.89 138.30 89.78
  Q 138.61 89.29 139.07 89.00
  Q 139.41 88.78 139.53 88.40
  Q 140.76 84.54 143.16 81.35
  Q 143.45 80.96 143.88 81.20
  Q 147.05 83.00 150.56 82.38
  Q 151.07 82.29 151.52 82.53
  C 152.48 83.03 153.04 82.63 153.85 82.69
  C 159.62 83.14 164.08 82.50 169.25 82.53
  C 175.25 82.56 179.30 82.44 184.31 82.69
  Q 184.83 82.71 185.17 82.33
  Q 185.58 81.89 186.08 82.33
  Q 186.50 82.71 186.98 82.41
  L 187.66 81.98
  A 1.17 1.15 -50.4 0 1 188.64 81.88
  Q 191.50 82.88 192.00 80.21
  Z" fill="#465dae"></path>
<path d="M 192.00 82.86
  L 192.00 147.88
  Q 191.60 147.10 191.82 146.00
  C 191.92 138.94 191.77 132.91 191.32 125.01
  Q 191.07 120.74 191.14 114.75
  Q 191.17 112.15 188.54 110.97
  Q 188.07 110.75 187.59 110.95
  Q 186.54 111.37 185.62 110.67
  Q 185.27 110.40 184.86 110.55
  Q 184.31 110.74 183.74 110.69
  C 180.14 110.35 176.69 109.85 173.07 109.97
  Q 159.59 110.40 146.09 110.39
  C 143.76 110.39 141.27 109.94 138.82 109.84
  Q 138.32 109.82 137.98 109.46
  Q 137.22 108.66 136.46 109.52
  A 0.13 0.13 0.0 0 1 136.24 109.48
  L 136.12 109.16
  Q 136.00 108.82 135.65 108.90
  Q 133.70 109.33 131.75 108.71
  Q 131.64 108.68 131.64 108.79
  Q 131.64 108.93 131.59 109.07
  Q 131.52 109.27 131.30 109.34
  Q 131.15 109.39 130.99 109.39
  Q 130.72 109.39 130.63 109.63
  C 129.31 113.00 130.15 115.55 130.41 118.92
  C 130.73 123.21 131.86 127.66 132.57 131.92
  Q 132.63 132.28 132.91 132.52
  Q 133.31 132.85 133.09 133.50
  Q 135.41 142.93 134.25 152.51
  C 133.90 155.42 131.78 159.54 129.60 161.50
  C 124.72 165.88 119.85 168.60 113.38 168.45
  Q 109.63 168.37 106.36 166.72
  Q 103.22 165.13 100.27 162.59
  C 97.72 160.39 94.97 160.41 92.29 162.70
  Q 88.32 166.10 84.49 167.51
  C 76.94 170.29 69.84 167.46 63.99 162.26
  Q 63.93 162.31 63.77 162.14
  Q 63.72 162.08 63.72 162.00
  L 63.39 155.25
  Q 63.36 154.67 63.57 155.01
  Q 63.71 155.23 63.60 155.52
  Q 63.47 155.87 63.84 155.93
  Q 63.99 155.95 64.21 155.96
  L 65.27 161.39
  Q 65.37 161.90 65.78 162.23
  Q 73.91 168.72 84.27 166.34
  C 86.89 165.74 89.28 162.20 92.46 160.68
  Q 92.86 160.49 93.07 160.09
  C 94.67 157.03 99.09 158.66 100.81 160.81
  C 105.56 166.77 113.11 168.62 120.42 166.33
  C 122.19 165.78 123.97 164.38 125.88 163.66
  A 0.39 0.38 77.9 0 0 126.13 163.27
  Q 126.13 163.13 126.13 162.99
  Q 126.13 162.78 126.31 162.68
  C 128.62 161.37 129.16 160.03 130.56 158.30
  C 133.53 154.66 133.56 146.92 132.85 142.51
  Q 132.84 142.44 132.76 142.49
  Q 132.72 142.51 132.66 142.50
  Q 132.58 142.49 132.56 142.39
  L 129.13 126.48
  Q 129.24 124.90 128.77 123.40
  Q 128.22 121.63 128.11 119.82
  C 127.85 115.57 125.81 111.14 127.27 106.97
  C 128.19 104.38 131.47 101.79 133.54 99.70
  C 134.21 99.02 134.76 97.77 135.73 97.04
  Q 136.15 96.73 136.38 96.27
  Q 137.72 93.68 139.96 91.81
  Q 140.33 91.50 140.81 91.53
  C 143.73 91.72 146.41 92.33 149.39 92.27
  C 152.77 92.20 156.40 92.58 159.54 92.53
  Q 164.89 92.45 170.25 92.47
  Q 178.87 92.50 187.49 92.06
  C 192.63 91.79 191.63 86.40 192.00 82.86
  Z" fill="#4056a5"></path>
<path d="M 63.45 101.72
  L 63.66 126.20
  Q 63.30 126.88 63.65 126.69
  Q 63.41 126.77 63.23 126.85
  Q 63.06 126.94 63.05 126.75
  L 62.64 114.54
  A 1.29 1.29 0.0 0 0 61.03 113.34
  Q 60.01 113.60 59.63 112.75
  Q 59.62 112.74 59.62 112.75
  Q 59.55 112.89 59.49 113.02
  Q 59.39 113.21 59.18 113.16
  Q 55.62 112.26 53.13 112.38
  Q 46.60 112.71 41.75 112.23
  C 40.21 112.07 38.65 112.60 37.26 112.49
  Q 31.44 112.02 25.66 112.74
  A 0.70 0.69 55.4 0 1 25.28 112.67
  C 24.28 112.14 23.21 112.42 22.34 112.39
  C 20.41 112.30 16.71 111.81 14.97 112.61
  Q 14.53 112.81 14.09 112.63
  C 11.50 111.57 9.44 112.73 6.26 111.63
  Q 3.94 110.84 1.00 113.15
  Q 0.63 113.45 0.57 113.91
  L 0.00 118.05
  L 0.00 95.01
  Q 14.54 94.74 29.08 94.84
  Q 29.31 94.84 43.42 94.65
  Q 50.60 94.56 57.77 95.11
  Q 58.20 95.14 58.52 94.97
  Q 58.70 94.87 58.86 94.76
  Q 59.17 94.55 59.50 94.73
  Q 60.31 95.19 61.09 94.77
  Q 61.43 94.58 61.67 94.89
  Q 61.89 95.20 62.55 95.52
  A 0.57 0.57 0.0 0 1 62.87 95.98
  L 63.45 101.72
  Z" fill="#4056a5"></path>
<path d="M 191.82 146.00
  L 190.97 145.61
  Q 190.58 145.43 190.18 145.58
  Q 188.54 146.21 186.50 146.16
  Q 171.46 145.75 152.24 145.84
  C 149.19 145.86 145.19 146.79 141.25 145.59
  A 1.29 1.28 16.2 0 0 139.64 146.47
  L 137.31 154.88
  Q 137.21 155.24 137.06 154.90
  L 136.90 154.55
  Q 136.75 154.22 136.66 154.57
  Q 136.40 155.57 135.73 156.30
  Q 135.40 156.67 135.24 157.14
  Q 133.66 161.82 129.71 164.77
  C 128.68 165.54 127.86 166.64 126.40 167.41
  Q 112.47 174.71 99.80 165.76
  Q 98.88 165.11 97.77 164.89
  C 94.49 164.24 94.10 164.51 91.44 166.69
  Q 89.97 167.90 85.22 169.96
  Q 82.47 171.15 75.75 170.54
  Q 73.54 170.34 72.66 169.47
  Q 72.32 169.12 71.85 168.98
  Q 68.88 168.06 66.77 166.32
  L 64.29 163.41
  Q 63.98 163.04 63.99 162.57
  L 63.99 162.26
  C 69.84 167.46 76.94 170.29 84.49 167.51
  Q 88.32 166.10 92.29 162.70
  C 94.97 160.41 97.72 160.39 100.27 162.59
  Q 103.22 165.13 106.36 166.72
  Q 109.63 168.37 113.38 168.45
  C 119.85 168.60 124.72 165.88 129.60 161.50
  C 131.78 159.54 133.90 155.42 134.25 152.51
  Q 135.41 142.93 133.09 133.50
  Q 133.31 132.85 132.91 132.52
  Q 132.63 132.28 132.57 131.92
  C 131.86 127.66 130.73 123.21 130.41 118.92
  C 130.15 115.55 129.31 113.00 130.63 109.63
  Q 130.72 109.39 130.99 109.39
  Q 131.15 109.39 131.30 109.34
  Q 131.52 109.27 131.59 109.07
  Q 131.64 108.93 131.64 108.79
  Q 131.64 108.68 131.75 108.71
  Q 133.70 109.33 135.65 108.90
  Q 136.00 108.82 136.12 109.16
  L 136.24 109.48
  A 0.13 0.13 0.0 0 0 136.46 109.52
  Q 137.22 108.66 137.98 109.46
  Q 138.32 109.82 138.82 109.84
  C 141.27 109.94 143.76 110.39 146.09 110.39
  Q 159.59 110.40 173.07 109.97
  C 176.69 109.85 180.14 110.35 183.74 110.69
  Q 184.31 110.74 184.86 110.55
  Q 185.27 110.40 185.62 110.67
  Q 186.54 111.37 187.59 110.95
  Q 188.07 110.75 188.54 110.97
  Q 191.17 112.15 191.14 114.75
  Q 191.07 120.74 191.32 125.01
  C 191.77 132.91 191.92 138.94 191.82 146.00
  Z" fill="#364c98"></path>
<path d="M 63.65 126.69
  Q 62.98 137.75 62.89 148.75
  Q 62.87 150.89 63.76 152.79
  Q 63.29 154.91 64.21 155.96
  Q 63.99 155.95 63.84 155.93
  Q 63.47 155.87 63.60 155.52
  Q 63.71 155.23 63.57 155.01
  Q 63.36 154.67 63.39 155.25
  L 63.72 162.00
  Q 63.72 162.08 63.77 162.14
  Q 63.93 162.31 63.99 162.26
  L 63.99 162.57
  Q 63.98 163.04 64.29 163.41
  L 66.77 166.32
  C 62.97 164.76 62.09 161.65 62.41 157.90
  C 62.72 154.36 62.28 151.28 62.17 147.90
  C 62.08 145.10 61.35 142.50 60.98 139.71
  Q 60.84 138.70 59.83 138.57
  Q 58.74 138.42 58.19 139.04
  Q 57.85 139.43 57.39 139.18
  C 54.37 137.55 51.65 138.29 48.76 137.36
  Q 48.31 137.22 47.85 137.28
  C 44.10 137.78 39.42 137.83 35.18 138.06
  Q 31.95 138.23 27.84 138.11
  Q 18.90 137.84 10.00 138.47
  Q 8.41 138.59 5.02 138.39
  Q 2.55 138.24 0.00 138.61
  L 0.00 118.05
  L 0.57 113.91
  Q 0.63 113.45 1.00 113.15
  Q 3.94 110.84 6.26 111.63
  C 9.44 112.73 11.50 111.57 14.09 112.63
  Q 14.53 112.81 14.97 112.61
  C 16.71 111.81 20.41 112.30 22.34 112.39
  C 23.21 112.42 24.28 112.14 25.28 112.67
  A 0.70 0.69 55.4 0 0 25.66 112.74
  Q 31.44 112.02 37.26 112.49
  C 38.65 112.60 40.21 112.07 41.75 112.23
  Q 46.60 112.71 53.13 112.38
  Q 55.62 112.26 59.18 113.16
  Q 59.39 113.21 59.49 113.02
  Q 59.55 112.89 59.62 112.75
  Q 59.62 112.74 59.63 112.75
  Q 60.01 113.60 61.03 113.34
  A 1.29 1.29 0.0 0 1 62.64 114.54
  L 63.05 126.75
  Q 63.06 126.94 63.23 126.85
  Q 63.41 126.77 63.65 126.69
  Z" fill="#364c98"></path>
<path d="M 120.00 162.20
  Q 113.98 166.83 107.43 161.91
  Q 107.04 161.62 106.56 161.63
  Q 106.18 161.65 105.86 161.39
  Q 102.26 158.50 100.19 154.38
  Q 99.99 153.98 99.60 153.74
  L 97.50 152.42
  A 2.64 2.63 -50.6 0 0 94.28 152.74
  L 92.94 154.00
  Q 92.63 154.29 92.44 154.67
  Q 92.09 155.34 91.13 155.77
  Q 90.57 156.01 90.36 156.69
  A 1.32 0.11 -74.6 0 1 90.05 157.53
  Q 88.43 160.10 86.08 160.83
  Q 91.62 155.87 91.70 149.01
  Q 91.83 137.09 91.88 125.19
  C 91.89 122.01 91.14 118.10 91.42 114.45
  A 0.05 0.05 0.0 0 1 91.52 114.44
  Q 93.60 124.28 96.54 133.92
  C 98.42 140.10 99.79 146.83 101.11 151.83
  Q 104.75 165.64 120.00 162.20
  Z" fill="#7a8dd0"></path>
<path d="M 63.66 126.20
  L 64.36 153.65
  Q 64.21 153.89 63.76 152.79
  Q 62.87 150.89 62.89 148.75
  Q 62.98 137.75 63.65 126.69
  Q 63.30 126.88 63.66 126.20
  Z" fill="#7a8dd0"></path>
<path d="M 66.77 166.32
  Q 68.88 168.06 71.85 168.98
  Q 72.32 169.12 72.66 169.47
  Q 73.54 170.34 75.75 170.54
  Q 82.47 171.15 85.22 169.96
  Q 89.97 167.90 91.44 166.69
  C 94.10 164.51 94.49 164.24 97.77 164.89
  Q 98.88 165.11 99.80 165.76
  Q 112.47 174.71 126.40 167.41
  C 127.86 166.64 128.68 165.54 129.71 164.77
  Q 133.66 161.82 135.24 157.14
  Q 135.40 156.67 135.73 156.30
  Q 136.40 155.57 136.66 154.57
  Q 136.75 154.22 136.90 154.55
  L 137.06 154.90
  Q 137.21 155.24 137.31 154.88
  L 139.64 146.47
  A 1.29 1.28 16.2 0 1 141.25 145.59
  C 145.19 146.79 149.19 145.86 152.24 145.84
  Q 171.46 145.75 186.50 146.16
  Q 188.54 146.21 190.18 145.58
  Q 190.58 145.43 190.97 145.61
  L 191.82 146.00
  Q 191.60 147.10 192.00 147.88
  L 192.00 173.10
  L 183.36 173.06
  A 0.47 0.46 -86.5 0 0 182.90 173.47
  Q 182.86 173.86 182.47 173.90
  A 0.24 0.23 77.3 0 1 182.21 173.73
  Q 181.98 172.96 181.00 172.96
  Q 164.06 173.00 156.00 173.17
  Q 154.69 173.20 153.88 172.64
  Q 153.51 172.39 153.15 172.64
  Q 152.95 172.78 152.72 172.88
  C 151.14 173.53 149.57 172.56 147.51 173.75
  Q 147.37 173.83 147.23 173.75
  Q 147.09 173.68 147.10 173.54
  Q 147.13 173.14 146.74 173.05
  Q 145.96 172.87 145.87 173.70
  A 0.31 0.30 -59.9 0 1 145.32 173.85
  L 145.10 173.55
  Q 144.71 173.01 144.04 173.01
  L 129.04 173.01
  Q 128.60 173.01 128.27 173.32
  Q 126.96 174.57 124.83 173.43
  Q 124.43 173.22 124.10 173.53
  Q 123.17 174.40 121.88 174.16
  Q 121.36 174.06 121.05 174.49
  Q 120.67 175.01 120.03 174.88
  Q 119.60 174.79 119.27 174.51
  Q 118.45 173.80 117.24 174.07
  Q 115.46 174.45 113.66 174.34
  C 109.86 174.11 107.37 174.37 103.04 173.07
  Q 102.55 172.92 102.02 173.32
  Q 101.70 173.56 101.45 173.24
  Q 100.94 172.60 100.11 172.92
  A 1.33 1.30 40.6 0 1 99.35 172.97
  Q 97.64 172.58 96.67 173.75
  Q 96.48 173.98 96.26 173.79
  Q 96.12 173.68 96.10 173.52
  Q 96.03 173.18 95.71 173.10
  Q 93.55 172.57 91.57 173.52
  Q 91.18 173.71 90.75 173.73
  L 87.69 173.90
  Q 87.45 173.92 87.25 174.05
  Q 87.12 174.14 87.00 174.26
  Q 86.65 174.59 86.24 174.34
  Q 85.59 173.94 85.00 174.26
  Q 84.57 174.50 84.10 174.36
  Q 82.93 174.02 81.73 174.15
  Q 75.99 174.76 70.29 173.92
  Q 66.54 173.36 63.75 173.22
  Q 62.91 173.18 61.94 173.62
  Q 61.52 173.81 61.05 173.76
  Q 56.91 173.34 52.75 173.22
  Q 52.48 173.22 52.28 173.34
  Q 52.05 173.48 51.82 173.66
  Q 51.39 174.00 51.06 173.56
  Q 50.67 173.03 50.01 173.45
  Q 49.61 173.70 49.14 173.61
  Q 46.22 173.06 43.26 173.08
  Q 39.88 173.10 36.50 173.09
  Q 36.20 173.09 36.00 172.77
  Q 35.71 172.32 35.25 172.58
  Q 33.72 173.41 32.00 172.94
  A 0.98 0.96 -56.8 0 0 31.13 173.13
  Q 30.94 173.28 30.90 173.48
  A 0.37 0.37 0.0 0 1 30.25 173.63
  C 28.99 172.02 27.81 172.98 26.38 172.99
  Q 13.19 173.07 0.00 172.92
  L 0.00 138.61
  Q 2.55 138.24 5.02 138.39
  Q 8.41 138.59 10.00 138.47
  Q 18.90 137.84 27.84 138.11
  Q 31.95 138.23 35.18 138.06
  C 39.42 137.83 44.10 137.78 47.85 137.28
  Q 48.31 137.22 48.76 137.36
  C 51.65 138.29 54.37 137.55 57.39 139.18
  Q 57.85 139.43 58.19 139.04
  Q 58.74 138.42 59.83 138.57
  Q 60.84 138.70 60.98 139.71
  C 61.35 142.50 62.08 145.10 62.17 147.90
  C 62.28 151.28 62.72 154.36 62.41 157.90
  C 62.09 161.65 62.97 164.76 66.77 166.32
  Z" fill="#293e86"></path>
<path d="M 85.72 161.04
  Q 86.19 161.86 84.92 162.45
  Q 79.06 165.15 73.84 162.99
  Q 80.76 164.03 85.72 161.04
  Z" fill="#7a8dd0"></path>
<path d="M 192.00 173.10
  L 192.00 192.00
  L 0.00 192.00
  L 0.00 172.92
  Q 13.19 173.07 26.38 172.99
  C 27.81 172.98 28.99 172.02 30.25 173.63
  A 0.37 0.37 0.0 0 0 30.90 173.48
  Q 30.94 173.28 31.13 173.13
  A 0.98 0.96 -56.8 0 1 32.00 172.94
  Q 33.72 173.41 35.25 172.58
  Q 35.71 172.32 36.00 172.77
  Q 36.20 173.09 36.50 173.09
  Q 39.88 173.10 43.26 173.08
  Q 46.22 173.06 49.14 173.61
  Q 49.61 173.70 50.01 173.45
  Q 50.67 173.03 51.06 173.56
  Q 51.39 174.00 51.82 173.66
  Q 52.05 173.48 52.28 173.34
  Q 52.48 173.22 52.75 173.22
  Q 56.91 173.34 61.05 173.76
  Q 61.52 173.81 61.94 173.62
  Q 62.91 173.18 63.75 173.22
  Q 66.54 173.36 70.29 173.92
  Q 75.99 174.76 81.73 174.15
  Q 82.93 174.02 84.10 174.36
  Q 84.57 174.50 85.00 174.26
  Q 85.59 173.94 86.24 174.34
  Q 86.65 174.59 87.00 174.26
  Q 87.12 174.14 87.25 174.05
  Q 87.45 173.92 87.69 173.90
  L 90.75 173.73
  Q 91.18 173.71 91.57 173.52
  Q 93.55 172.57 95.71 173.10
  Q 96.03 173.18 96.10 173.52
  Q 96.12 173.68 96.26 173.79
  Q 96.48 173.98 96.67 173.75
  Q 97.64 172.58 99.35 172.97
  A 1.33 1.30 40.6 0 0 100.11 172.92
  Q 100.94 172.60 101.45 173.24
  Q 101.70 173.56 102.02 173.32
  Q 102.55 172.92 103.04 173.07
  C 107.37 174.37 109.86 174.11 113.66 174.34
  Q 115.46 174.45 117.24 174.07
  Q 118.45 173.80 119.27 174.51
  Q 119.60 174.79 120.03 174.88
  Q 120.67 175.01 121.05 174.49
  Q 121.36 174.06 121.88 174.16
  Q 123.17 174.40 124.10 173.53
  Q 124.43 173.22 124.83 173.43
  Q 126.96 174.57 128.27 173.32
  Q 128.60 173.01 129.04 173.01
  L 144.04 173.01
  Q 144.71 173.01 145.10 173.55
  L 145.32 173.85
  A 0.31 0.30 -59.9 0 0 145.87 173.70
  Q 145.96 172.87 146.74 173.05
  Q 147.13 173.14 147.10 173.54
  Q 147.09 173.68 147.23 173.75
  Q 147.37 173.83 147.51 173.75
  C 149.57 172.56 151.14 173.53 152.72 172.88
  Q 152.95 172.78 153.15 172.64
  Q 153.51 172.39 153.88 172.64
  Q 154.69 173.20 156.00 173.17
  Q 164.06 173.00 181.00 172.96
  Q 181.98 172.96 182.21 173.73
  A 0.24 0.23 77.3 0 0 182.47 173.90
  Q 182.86 173.86 182.90 173.47
  A 0.47 0.46 -86.5 0 1 183.36 173.06
  L 192.00 173.10
  Z" fill="#23377d"></path>
</svg>
