<svg viewBox="0.00 0.00 32.00 32.00" version="1.1" xmlns="http://www.w3.org/2000/svg">
<path d="M 25.23 10.08
  A 0.23 0.23 0.0 0 0 25.05 9.70
  L 19.75 9.74
  Q 19.33 9.74 19.06 10.05
  L 18.78 10.37
  Q 18.49 10.69 18.07 10.70
  Q 17.22 10.72 17.18 10.45
  A 2.11 2.10 85.4 0 1 19.25 8.01
  L 28.54 8.00
  Q 29.30 8.00 28.81 8.58
  L 16.19 23.53
  A 0.49 0.49 0.0 0 1 15.44 23.52
  L 2.99 8.32
  A 0.18 0.18 0.0 0 1 3.13 8.03
  L 12.48 7.99
  A 0.71 0.70 68.7 0 1 13.00 8.22
  L 19.69 15.69
  A 0.59 0.58 44.1 0 0 20.57 15.68
  L 25.23 10.08
  Z
  M 14.16 15.73
  L 13.18 16.90
  Q 12.72 17.45 13.17 18.00
  L 15.45 20.79
  Q 15.87 21.30 16.29 20.79
  L 18.69 17.92
  A 0.68 0.67 44.0 0 0 18.67 17.03
  L 12.72 10.51
  Q 12.02 9.74 10.99 9.74
  L 7.30 9.71
  Q 6.28 9.70 6.94 10.49
  L 11.25 15.61
  Q 11.74 16.19 12.18 15.57
  L 12.92 14.51
  Q 13.23 14.08 13.71 14.30
  Q 14.06 14.46 14.25 14.81
  Q 14.52 15.30 14.16 15.73
  Z" fill="#efc875"></path>
</svg>
