<svg viewBox="0.00 0.00 32.00 32.00" version="1.1" xmlns="http://www.w3.org/2000/svg">
<g stroke-linecap="butt" fill="none" stroke-width="2.00">
<path d="M 18.63 0.60
  Q 21.64 2.75 24.88 4.55
  C 26.25 5.31 27.70 5.60 29.23 6.04" stroke="#2872f8"></path>
<path d="M 28.16 27.34
  Q 26.35 24.69 25.38 25.63" stroke="#0c57ed"></path>
<path d="M 25.38 25.63
  C 24.69 19.89 17.43 21.93 13.45 21.68
  Q 12.75 21.63 13.24 21.13
  Q 17.92 16.37 22.82 11.82
  Q 24.88 9.90 23.69 7.47
  A 2.21 2.21 0.0 0 0 21.71 6.24
  L 8.01 6.25
  Q 6.03 6.25 6.98 7.99
  L 7.24 8.48
  Q 8.21 10.26 10.23 10.25
  L 17.27 10.24
  Q 18.11 10.24 17.52 10.83
  L 7.58 20.72" stroke="#87affe"></path>
<path d="M 7.58 20.72
  Q 4.46 17.88 0.60 16.33" stroke="#0c57ed"></path>
<path d="M 25.38 25.63
  Q 17.79 25.84 10.24 25.75
  C 6.98 25.72 5.58 23.53 7.58 20.72" stroke="#84a7ee"></path>
</g>
<path d="M 18.63 0.60
  Q 21.64 2.75 24.88 4.55
  C 26.25 5.31 27.70 5.60 29.23 6.04
  C 32.88 11.28 32.50 22.48 28.16 27.34
  Q 26.35 24.69 25.38 25.63
  C 24.69 19.89 17.43 21.93 13.45 21.68
  Q 12.75 21.63 13.24 21.13
  Q 17.92 16.37 22.82 11.82
  Q 24.88 9.90 23.69 7.47
  A 2.21 2.21 0.0 0 0 21.71 6.24
  L 8.01 6.25
  Q 6.03 6.25 6.98 7.99
  L 7.24 8.48
  Q 8.21 10.26 10.23 10.25
  L 17.27 10.24
  Q 18.11 10.24 17.52 10.83
  L 7.58 20.72
  Q 4.46 17.88 0.60 16.33
  C -0.65 4.22 8.06 -0.61 18.63 0.60
  Z" fill="#0e5efd"></path>
<path d="M 18.63 0.60
  Q 25.42 0.67 29.23 6.04
  C 27.70 5.60 26.25 5.31 24.88 4.55
  Q 21.64 2.75 18.63 0.60
  Z" fill="#4286f3"></path>
<path d="M 25.38 25.63
  Q 17.79 25.84 10.24 25.75
  C 6.98 25.72 5.58 23.53 7.58 20.72
  L 17.52 10.83
  Q 18.11 10.24 17.27 10.24
  L 10.23 10.25
  Q 8.21 10.26 7.24 8.48
  L 6.98 7.99
  Q 6.03 6.25 8.01 6.25
  L 21.71 6.24
  A 2.21 2.21 0.0 0 1 23.69 7.47
  Q 24.88 9.90 22.82 11.82
  Q 17.92 16.37 13.24 21.13
  Q 12.75 21.63 13.45 21.68
  C 17.43 21.93 24.69 19.89 25.38 25.63
  Z" fill="#ffffff"></path>
<path d="M 0.60 16.33
  Q 4.46 17.88 7.58 20.72
  C 5.58 23.53 6.98 25.72 10.24 25.75
  Q 17.79 25.84 25.38 25.63
  Q 26.35 24.69 28.16 27.34
  C 24.18 31.68 18.00 32.00 12.49 31.36
  C 4.40 30.43 -0.06 24.64 0.60 16.33
  Z" fill="#094fdd"></path>
</svg>
