<svg viewBox="0.00 0.00 512.00 512.00" version="1.1" xmlns="http://www.w3.org/2000/svg">
<g stroke-linecap="butt" fill="none" stroke-width="2.00">
<path d="M 128.20 318.26
  Q 129.45 321.74 130.62 325.21
  C 140.05 353.10 158.54 387.45 189.21 396.43
  C 200.28 399.67 224.03 403.97 227.27 388.62
  C 228.80 381.36 225.15 374.10 219.90 368.85
  C 204.80 353.74 185.55 337.33 183.09 314.50
  Q 181.71 301.60 184.83 287.96
  C 192.83 252.96 224.24 243.61 255.75 243.29
  Q 270.03 243.15 284.95 246.68
  C 316.13 254.04 329.45 277.64 329.49 308.26
  C 329.52 334.18 310.04 351.32 293.03 368.03
  Q 289.11 371.88 287.26 375.24
  C 280.74 387.08 286.44 399.41 300.75 399.52
  C 337.82 399.80 358.25 375.96 373.30 345.26
  C 377.94 335.78 380.83 327.15 383.97 318.47
  A 0.33 0.33 0.0 0 1 384.60 318.50
  L 388.00 331.69
  A 0.32 0.32 0.0 0 0 388.58 331.78
  C 409.54 296.54 419.34 250.65 388.63 217.12
  Q 385.72 213.95 382.57 210.85
  Q 382.20 210.49 382.64 210.21
  Q 398.37 200.47 410.03 186.31
  Q 414.53 180.84 416.16 175.94
  C 419.97 164.48 416.49 151.23 410.17 141.08
  C 403.19 129.85 387.89 117.32 374.09 115.72
  C 354.40 113.44 340.28 137.26 331.83 151.81
  Q 330.08 154.82 327.51 157.23
  Q 327.12 157.59 326.59 157.53
  Q 317.68 156.42 314.99 156.33
  Q 256.57 154.38 198.14 156.37
  C 194.28 156.50 190.30 157.00 186.59 157.38
  Q 184.10 157.64 182.74 155.54
  C 173.52 141.25 161.69 116.74 141.89 115.69
  Q 136.00 115.37 128.53 118.61
  C 107.72 127.63 88.30 152.40 96.22 176.46
  Q 97.48 180.31 98.98 182.27
  Q 111.79 199.09 129.81 210.43
  Q 130.06 210.59 129.84 210.78
  C 92.77 243.00 100.31 293.58 123.19 330.85
  Q 124.14 332.39 124.58 330.64
  L 127.72 318.28
  Q 127.92 317.49 128.20 318.26" stroke="#a68eca"></path>
<path d="M 244.01 328.70
  C 263.41 338.16 283.72 321.77 291.91 305.22
  C 307.52 273.67 256.72 276.04 241.76 277.35
  C 225.14 278.81 210.42 287.94 221.14 307.08
  Q 229.20 321.48 244.01 328.70" stroke="#a68eca"></path>
<path d="M 168.63 169.10
  C 162.60 156.00 151.48 131.19 133.08 134.28
  C 122.42 136.08 108.82 150.46 107.72 161.29
  C 106.10 177.24 125.57 193.30 137.56 200.61
  Q 137.95 200.85 138.27 200.52
  L 168.47 169.99
  Q 168.86 169.60 168.63 169.10" stroke="#a68eca"></path>
<path d="M 372.73 134.43
  C 357.50 137.62 349.42 156.68 343.62 169.07
  Q 343.37 169.61 343.78 170.03
  L 373.64 200.31
  Q 374.25 200.93 374.98 200.46
  C 388.77 191.58 413.83 171.13 401.20 152.05
  C 395.29 143.13 384.86 131.89 372.73 134.43" stroke="#a68eca"></path>
<path d="M 196.46 224.80
  A 7.40 7.40 0.0 0 0 189.06 217.40
  A 7.40 7.40 0.0 0 0 181.66 224.80
  A 7.40 7.40 0.0 0 0 189.06 232.20
  A 7.40 7.40 0.0 0 0 196.46 224.80" stroke="#a68eca"></path>
<path d="M 336.11 224.80
  A 7.41 7.41 0.0 0 0 328.70 217.39
  A 7.41 7.41 0.0 0 0 321.29 224.80
  A 7.41 7.41 0.0 0 0 328.70 232.21
  A 7.41 7.41 0.0 0 0 336.11 224.80" stroke="#a68eca"></path>
</g>
<path d="M 504.42 255.99
  A 248.43 248.43 0.0 0 1 255.99 504.42
  A 248.43 248.43 0.0 0 1 7.56 255.99
  A 248.43 248.43 0.0 0 1 255.99 7.56
  A 248.43 248.43 0.0 0 1 504.42 255.99
  Z
  M 128.20 318.26
  Q 129.45 321.74 130.62 325.21
  C 140.05 353.10 158.54 387.45 189.21 396.43
  C 200.28 399.67 224.03 403.97 227.27 388.62
  C 228.80 381.36 225.15 374.10 219.90 368.85
  C 204.80 353.74 185.55 337.33 183.09 314.50
  Q 181.71 301.60 184.83 287.96
  C 192.83 252.96 224.24 243.61 255.75 243.29
  Q 270.03 243.15 284.95 246.68
  C 316.13 254.04 329.45 277.64 329.49 308.26
  C 329.52 334.18 310.04 351.32 293.03 368.03
  Q 289.11 371.88 287.26 375.24
  C 280.74 387.08 286.44 399.41 300.75 399.52
  C 337.82 399.80 358.25 375.96 373.30 345.26
  C 377.94 335.78 380.83 327.15 383.97 318.47
  A 0.33 0.33 0.0 0 1 384.60 318.50
  L 388.00 331.69
  A 0.32 0.32 0.0 0 0 388.58 331.78
  C 409.54 296.54 419.34 250.65 388.63 217.12
  Q 385.72 213.95 382.57 210.85
  Q 382.20 210.49 382.64 210.21
  Q 398.37 200.47 410.03 186.31
  Q 414.53 180.84 416.16 175.94
  C 419.97 164.48 416.49 151.23 410.17 141.08
  C 403.19 129.85 387.89 117.32 374.09 115.72
  C 354.40 113.44 340.28 137.26 331.83 151.81
  Q 330.08 154.82 327.51 157.23
  Q 327.12 157.59 326.59 157.53
  Q 317.68 156.42 314.99 156.33
  Q 256.57 154.38 198.14 156.37
  C 194.28 156.50 190.30 157.00 186.59 157.38
  Q 184.10 157.64 182.74 155.54
  C 173.52 141.25 161.69 116.74 141.89 115.69
  Q 136.00 115.37 128.53 118.61
  C 107.72 127.63 88.30 152.40 96.22 176.46
  Q 97.48 180.31 98.98 182.27
  Q 111.79 199.09 129.81 210.43
  Q 130.06 210.59 129.84 210.78
  C 92.77 243.00 100.31 293.58 123.19 330.85
  Q 124.14 332.39 124.58 330.64
  L 127.72 318.28
  Q 127.92 317.49 128.20 318.26
  Z
  M 244.01 328.70
  C 263.41 338.16 283.72 321.77 291.91 305.22
  C 307.52 273.67 256.72 276.04 241.76 277.35
  C 225.14 278.81 210.42 287.94 221.14 307.08
  Q 229.20 321.48 244.01 328.70
  Z" fill="#4c1d95"></path>
<path d="M 127.72 318.28
  L 124.58 330.64
  Q 124.14 332.39 123.19 330.85
  C 100.31 293.58 92.77 243.00 129.84 210.78
  Q 130.06 210.59 129.81 210.43
  Q 111.79 199.09 98.98 182.27
  Q 97.48 180.31 96.22 176.46
  C 88.30 152.40 107.72 127.63 128.53 118.61
  Q 136.00 115.37 141.89 115.69
  C 161.69 116.74 173.52 141.25 182.74 155.54
  Q 184.10 157.64 186.59 157.38
  C 190.30 157.00 194.28 156.50 198.14 156.37
  Q 256.57 154.38 314.99 156.33
  Q 317.68 156.42 326.59 157.53
  Q 327.12 157.59 327.51 157.23
  Q 330.08 154.82 331.83 151.81
  C 340.28 137.26 354.40 113.44 374.09 115.72
  C 387.89 117.32 403.19 129.85 410.17 141.08
  C 416.49 151.23 419.97 164.48 416.16 175.94
  Q 414.53 180.84 410.03 186.31
  Q 398.37 200.47 382.64 210.21
  Q 382.20 210.49 382.57 210.85
  Q 385.72 213.95 388.63 217.12
  C 419.34 250.65 409.54 296.54 388.58 331.78
  A 0.32 0.32 0.0 0 1 388.00 331.69
  L 384.60 318.50
  A 0.33 0.33 0.0 0 0 383.97 318.47
  C 380.83 327.15 377.94 335.78 373.30 345.26
  C 358.25 375.96 337.82 399.80 300.75 399.52
  C 286.44 399.41 280.74 387.08 287.26 375.24
  Q 289.11 371.88 293.03 368.03
  C 310.04 351.32 329.52 334.18 329.49 308.26
  C 329.45 277.64 316.13 254.04 284.95 246.68
  Q 270.03 243.15 255.75 243.29
  C 224.24 243.61 192.83 252.96 184.83 287.96
  Q 181.71 301.60 183.09 314.50
  C 185.55 337.33 204.80 353.74 219.90 368.85
  C 225.15 374.10 228.80 381.36 227.27 388.62
  C 224.03 403.97 200.28 399.67 189.21 396.43
  C 158.54 387.45 140.05 353.10 130.62 325.21
  Q 129.45 321.74 128.20 318.26
  Q 127.92 317.49 127.72 318.28
  Z
  M 168.63 169.10
  C 162.60 156.00 151.48 131.19 133.08 134.28
  C 122.42 136.08 108.82 150.46 107.72 161.29
  C 106.10 177.24 125.57 193.30 137.56 200.61
  Q 137.95 200.85 138.27 200.52
  L 168.47 169.99
  Q 168.86 169.60 168.63 169.10
  Z
  M 372.73 134.43
  C 357.50 137.62 349.42 156.68 343.62 169.07
  Q 343.37 169.61 343.78 170.03
  L 373.64 200.31
  Q 374.25 200.93 374.98 200.46
  C 388.77 191.58 413.83 171.13 401.20 152.05
  C 395.29 143.13 384.86 131.89 372.73 134.43
  Z
  M 196.46 224.80
  A 7.40 7.40 0.0 0 0 189.06 217.40
  A 7.40 7.40 0.0 0 0 181.66 224.80
  A 7.40 7.40 0.0 0 0 189.06 232.20
  A 7.40 7.40 0.0 0 0 196.46 224.80
  Z
  M 336.11 224.80
  A 7.41 7.41 0.0 0 0 328.70 217.39
  A 7.41 7.41 0.0 0 0 321.29 224.80
  A 7.41 7.41 0.0 0 0 328.70 232.21
  A 7.41 7.41 0.0 0 0 336.11 224.80
  Z" fill="#ffffff"></path>
<path d="M 133.08 134.28
  C 151.48 131.19 162.60 156.00 168.63 169.10
  Q 168.86 169.60 168.47 169.99
  L 138.27 200.52
  Q 137.95 200.85 137.56 200.61
  C 125.57 193.30 106.10 177.24 107.72 161.29
  C 108.82 150.46 122.42 136.08 133.08 134.28
  Z" fill="#4c1d95"></path>
<path d="M 343.62 169.07
  C 349.42 156.68 357.50 137.62 372.73 134.43
  C 384.86 131.89 395.29 143.13 401.20 152.05
  C 413.83 171.13 388.77 191.58 374.98 200.46
  Q 374.25 200.93 373.64 200.31
  L 343.78 170.03
  Q 343.37 169.61 343.62 169.07
  Z" fill="#4c1d95"></path>
<circle r="7.40" cy="224.80" cx="189.06" fill="#4c1d95"></circle>
<circle r="7.41" cy="224.80" cx="328.70" fill="#4c1d95"></circle>
<path d="M 244.01 328.70
  Q 229.20 321.48 221.14 307.08
  C 210.42 287.94 225.14 278.81 241.76 277.35
  C 256.72 276.04 307.52 273.67 291.91 305.22
  C 283.72 321.77 263.41 338.16 244.01 328.70
  Z" fill="#ffffff"></path>
</svg>
