<svg viewBox="0.00 0.00 32.00 32.00" version="1.1" xmlns="http://www.w3.org/2000/svg">
<g stroke-linecap="butt" fill="none" stroke-width="2.00">
<path d="M 16.16 12.53
  L 16.32 14.54
  Q 16.36 15.09 16.91 15.07
  L 19.28 14.96
  A 0.65 0.64 85.6 0 1 19.94 15.53
  L 19.99 15.98
  Q 20.03 16.32 19.70 16.38
  Q 18.39 16.65 17.09 16.38
  Q 16.82 16.33 16.79 16.60
  L 16.75 17.03
  Q 16.71 17.35 17.03 17.35
  L 20.46 17.39
  Q 21.05 17.39 21.06 16.79
  L 21.08 12.08
  Q 21.08 11.64 20.66 11.56
  Q 18.60 11.14 16.58 11.66
  Q 15.98 11.82 15.94 11.21
  L 15.85 9.71
  Q 15.78 8.64 14.71 8.63
  L 12.10 8.61
  Q 10.89 8.60 10.90 9.82
  L 10.95 14.83
  Q 10.96 15.21 11.33 15.10
  L 11.80 14.95
  Q 12.10 14.86 12.01 14.56
  Q 11.70 13.50 12.14 13.03
  C 12.57 12.59 14.89 12.77 15.84 12.34
  Q 16.13 12.21 16.16 12.53" stroke="#3e4546"></path>
<path d="M 9.00 20.30
  L 8.98 20.86
  A 0.18 0.18 0.0 0 0 9.16 21.04
  L 17.51 21.23
  A 1.55 0.46 1.3 0 0 19.07 20.80
  L 19.07 20.80
  A 1.55 0.46 1.3 0 0 17.53 20.31
  L 9.18 20.12
  A 0.18 0.18 0.0 0 0 9.00 20.30" stroke="#20324f"></path>
<path d="M 20.68 20.52
  A 0.35 0.35 0.0 0 0 20.79 21.19
  L 22.19 21.31
  Q 22.96 21.38 22.86 20.62
  Q 22.81 20.15 22.25 20.12
  Q 21.63 20.09 20.68 20.52" stroke="#20324f"></path>
<path d="M 14.8329 10.4947
  A 0.93 0.93 0.0 0 0 13.8632 9.6061
  L 12.7243 9.6559
  A 0.93 0.93 0.0 0 0 11.8358 10.6256
  L 11.8471 10.8853
  A 0.93 0.93 0.0 0 0 12.8168 11.7739
  L 13.9557 11.7241
  A 0.93 0.93 0.0 0 0 14.8442 10.7544
  L 14.8329 10.4947" stroke="#3e4546"></path>
<path d="M 20.3184 13.4615
  A 1.64 1.03 2.5 0 0 18.7249 12.3610
  A 1.64 1.03 2.5 0 0 17.0416 13.3185
  A 1.64 1.03 2.5 0 0 18.6351 14.4190
  A 1.64 1.03 2.5 0 0 20.3184 13.4615" stroke="#3e4546"></path>
</g>
<path d="M 0.00 0.00
  L 32.00 0.00
  L 32.00 32.00
  L 0.00 32.00
  L 0.00 0.00
  Z
  M 16.16 12.53
  L 16.32 14.54
  Q 16.36 15.09 16.91 15.07
  L 19.28 14.96
  A 0.65 0.64 85.6 0 1 19.94 15.53
  L 19.99 15.98
  Q 20.03 16.32 19.70 16.38
  Q 18.39 16.65 17.09 16.38
  Q 16.82 16.33 16.79 16.60
  L 16.75 17.03
  Q 16.71 17.35 17.03 17.35
  L 20.46 17.39
  Q 21.05 17.39 21.06 16.79
  L 21.08 12.08
  Q 21.08 11.64 20.66 11.56
  Q 18.60 11.14 16.58 11.66
  Q 15.98 11.82 15.94 11.21
  L 15.85 9.71
  Q 15.78 8.64 14.71 8.63
  L 12.10 8.61
  Q 10.89 8.60 10.90 9.82
  L 10.95 14.83
  Q 10.96 15.21 11.33 15.10
  L 11.80 14.95
  Q 12.10 14.86 12.01 14.56
  Q 11.70 13.50 12.14 13.03
  C 12.57 12.59 14.89 12.77 15.84 12.34
  Q 16.13 12.21 16.16 12.53
  Z
  M 9.00 20.30
  L 8.98 20.86
  A 0.18 0.18 0.0 0 0 9.16 21.04
  L 17.51 21.23
  A 1.55 0.46 1.3 0 0 19.07 20.80
  L 19.07 20.80
  A 1.55 0.46 1.3 0 0 17.53 20.31
  L 9.18 20.12
  A 0.18 0.18 0.0 0 0 9.00 20.30
  Z
  M 20.68 20.52
  A 0.35 0.35 0.0 0 0 20.79 21.19
  L 22.19 21.31
  Q 22.96 21.38 22.86 20.62
  Q 22.81 20.15 22.25 20.12
  Q 21.63 20.09 20.68 20.52
  Z" fill="#011637"></path>
<path d="M 15.84 12.34
  C 14.89 12.77 12.57 12.59 12.14 13.03
  Q 11.70 13.50 12.01 14.56
  Q 12.10 14.86 11.80 14.95
  L 11.33 15.10
  Q 10.96 15.21 10.95 14.83
  L 10.90 9.82
  Q 10.89 8.60 12.10 8.61
  L 14.71 8.63
  Q 15.78 8.64 15.85 9.71
  L 15.94 11.21
  Q 15.98 11.82 16.58 11.66
  Q 18.60 11.14 20.66 11.56
  Q 21.08 11.64 21.08 12.08
  L 21.06 16.79
  Q 21.05 17.39 20.46 17.39
  L 17.03 17.35
  Q 16.71 17.35 16.75 17.03
  L 16.79 16.60
  Q 16.82 16.33 17.09 16.38
  Q 18.39 16.65 19.70 16.38
  Q 20.03 16.32 19.99 15.98
  L 19.94 15.53
  A 0.65 0.64 85.6 0 0 19.28 14.96
  L 16.91 15.07
  Q 16.36 15.09 16.32 14.54
  L 16.16 12.53
  Q 16.13 12.21 15.84 12.34
  Z
  M 14.8329 10.4947
  A 0.93 0.93 0.0 0 0 13.8632 9.6061
  L 12.7243 9.6559
  A 0.93 0.93 0.0 0 0 11.8358 10.6256
  L 11.8471 10.8853
  A 0.93 0.93 0.0 0 0 12.8168 11.7739
  L 13.9557 11.7241
  A 0.93 0.93 0.0 0 0 14.8442 10.7544
  L 14.8329 10.4947
  Z
  M 20.3184 13.4615
  A 1.64 1.03 2.5 0 0 18.7249 12.3610
  A 1.64 1.03 2.5 0 0 17.0416 13.3185
  A 1.64 1.03 2.5 0 0 18.6351 14.4190
  A 1.64 1.03 2.5 0 0 20.3184 13.4615
  Z" fill="#7b7355"></path>
<rect rx="0.93" height="2.12" width="3.00" transform="translate(13.34,10.69) rotate(-2.5)" y="-1.06" x="-1.50" fill="#011637"></rect>
<ellipse ry="1.03" rx="1.64" transform="translate(18.68,13.39) rotate(2.5)" cy="0.00" cx="0.00" fill="#011637"></ellipse>
<path d="M 9.00 20.30
  A 0.18 0.18 0.0 0 1 9.18 20.12
  L 17.53 20.31
  A 1.55 0.46 1.3 0 1 19.07 20.80
  L 19.07 20.80
  A 1.55 0.46 1.3 0 1 17.51 21.23
  L 9.16 21.04
  A 0.18 0.18 0.0 0 1 8.98 20.86
  L 9.00 20.30
  Z" fill="#3f4d67"></path>
<path d="M 20.68 20.52
  Q 21.63 20.09 22.25 20.12
  Q 22.81 20.15 22.86 20.62
  Q 22.96 21.38 22.19 21.31
  L 20.79 21.19
  A 0.35 0.35 0.0 0 1 20.68 20.52
  Z" fill="#3f4d67"></path>
</svg>
