<svg viewBox="0.00 0.00 24.00 24.00" version="1.1" xmlns="http://www.w3.org/2000/svg">
<path d="M 17.25 11.27
  L 17.45 11.73
  Q 17.64 12.16 17.34 12.51
  Q 12.99 17.65 6.38 18.92
  A 0.97 0.96 1.8 0 0 5.61 19.64
  L 5.22 21.25
  Q 5.03 22.01 4.25 22.00
  L 3.71 21.99
  Q 2.86 21.98 3.13 21.17
  C 4.15 18.09 3.93 14.41 4.59 11.95
  C 6.73 3.93 14.21 1.29 21.87 2.07
  A 0.47 0.47 0.0 0 1 22.26 2.71
  L 19.32 10.06
  A 0.63 0.62 9.8 0 1 18.75 10.46
  L 17.73 10.50
  A 0.55 0.55 0.0 0 0 17.25 11.27
  Z
  M 13.94 9.19
  L 17.28 8.64
  Q 17.77 8.56 17.97 8.10
  L 19.64 4.27
  A 0.17 0.16 13.0 0 0 19.49 4.04
  Q 10.17 3.39 6.65 11.67
  A 0.43 0.43 0.0 0 0 7.36 12.12
  L 10.04 9.13
  A 0.65 0.65 0.0 0 1 11.02 9.15
  L 11.51 9.74
  A 0.68 0.67 49.6 0 1 11.44 10.68
  Q 8.75 13.08 7.08 16.28
  A 0.23 0.23 0.0 0 0 7.34 16.61
  Q 11.57 15.48 14.61 12.37
  Q 15.22 11.76 14.66 11.10
  L 13.66 9.92
  Q 13.15 9.32 13.94 9.19
  Z" fill="#046ff9"></path>
</svg>
