<svg viewBox="0.00 0.00 300.00 300.00" version="1.1" xmlns="http://www.w3.org/2000/svg">
<g stroke-linecap="butt" fill="none" stroke-width="2.00">
<path d="M 133.63 274.06
  L 131.85 279.17
  A 2.49 2.47 21.6 0 0 133.19 282.25
  L 133.68 282.47
  Q 136.23 283.59 137.55 281.15
  Q 167.65 225.44 197.95 168.97
  C 200.48 164.26 197.05 163.49 193.26 163.51
  A 0.42 0.41 14.4 0 1 192.89 162.89
  C 194.99 159.25 196.67 154.79 192.33 152.12
  C 190.02 150.69 186.31 151.20 183.49 151.15
  A 0.53 0.53 0.0 0 1 183.03 150.37
  Q 195.20 127.92 207.16 105.49
  C 209.77 100.59 206.14 100.16 202.45 100.11
  A 0.40 0.40 0.0 0 1 202.11 99.50
  C 203.23 97.60 204.49 95.59 204.28 93.34
  Q 203.76 87.72 197.50 87.70
  Q 182.43 87.63 167.52 87.64
  A 0.34 0.33 13.8 0 1 167.22 87.15
  Q 181.46 59.96 195.85 32.77
  C 197.87 28.96 197.68 26.09 192.16 26.65
  Q 190.81 26.79 191.38 25.55
  C 192.10 24.01 193.29 22.37 193.43 20.62
  C 193.81 15.84 190.48 14.26 186.12 14.26
  Q 166.01 14.24 145.89 14.27
  C 142.60 14.28 141.03 14.94 139.52 17.74
  Q 115.19 62.99 90.87 108.25
  C 86.23 116.87 90.83 119.93 99.30 119.51
  Q 99.93 119.47 99.74 120.08
  Q 99.61 120.49 99.42 120.82
  C 97.25 124.54 100.08 125.94 103.28 125.93
  Q 116.83 125.91 130.22 125.85
  A 0.49 0.49 0.0 0 1 130.65 126.58
  Q 120.46 145.10 110.39 163.48
  C 108.43 167.06 107.48 170.52 111.09 173.16
  C 113.28 174.77 116.39 174.57 119.09 174.45
  Q 119.80 174.42 119.47 175.05
  C 119.05 175.85 118.62 176.25 118.48 177.09
  Q 117.84 180.77 121.49 180.76
  Q 137.08 180.72 152.29 180.76
  Q 152.89 180.76 152.69 181.32
  Q 137.51 224.95 122.64 267.78
  C 120.14 275.00 128.50 279.47 133.22 273.82
  A 0.24 0.24 0.0 0 1 133.63 274.06" stroke="#237b43"></path>
<path d="M 155.77 86.35
  L 190.09 21.07
  A 1.94 1.93 60.4 0 0 190.31 20.26
  Q 190.46 17.20 186.25 17.23
  Q 165.97 17.37 144.82 17.38
  A 2.50 2.50 0.0 0 0 142.62 18.69
  L 92.47 112.02
  A 2.92 2.92 0.0 0 0 95.04 116.32
  L 134.53 116.29
  A 3.22 3.22 0.0 0 1 137.36 121.06
  Q 124.97 143.60 112.27 166.53
  C 110.92 168.96 112.57 171.26 115.00 171.26
  Q 135.25 171.24 155.29 171.25
  A 3.07 3.07 0.0 0 1 158.19 175.32
  Q 142.64 220.11 127.04 264.81
  C 126.36 266.75 124.17 270.68 126.25 272.32
  C 130.12 275.36 131.31 270.11 132.82 267.77
  C 135.51 263.61 138.08 257.94 139.78 254.78
  Q 165.85 206.63 191.57 158.51
  A 2.88 2.87 14.1 0 0 189.04 154.28
  L 173.76 154.26
  Q 173.15 154.26 172.66 153.88
  C 170.19 151.96 171.61 149.49 172.97 147.21
  Q 173.83 145.77 174.54 144.17
  Q 176.50 139.72 179.17 135.65
  Q 179.29 135.46 179.34 135.07
  Q 179.39 134.58 179.65 134.16
  Q 181.06 131.90 184.36 125.76
  Q 196.48 103.24 200.31 96.00
  Q 200.65 95.36 201.13 94.07
  Q 201.29 93.63 201.17 93.18
  Q 200.51 90.74 198.50 90.75
  Q 178.71 90.76 158.37 90.69
  A 2.96 2.96 0.0 0 1 155.77 86.35" stroke="#807500"></path>
</g>
<path d="M 142.15 0.00
  L 157.96 0.00
  Q 203.90 2.92 238.91 29.09
  Q 294.60 70.73 300.00 142.12
  L 300.00 157.96
  Q 297.02 204.59 270.17 239.92
  Q 228.54 294.70 157.88 300.00
  L 142.03 300.00
  C 64.85 295.07 4.75 235.09 0.00 157.85
  L 0.00 142.03
  C 4.79 64.82 65.01 4.82 142.15 0.00
  Z
  M 133.63 274.06
  L 131.85 279.17
  A 2.49 2.47 21.6 0 0 133.19 282.25
  L 133.68 282.47
  Q 136.23 283.59 137.55 281.15
  Q 167.65 225.44 197.95 168.97
  C 200.48 164.26 197.05 163.49 193.26 163.51
  A 0.42 0.41 14.4 0 1 192.89 162.89
  C 194.99 159.25 196.67 154.79 192.33 152.12
  C 190.02 150.69 186.31 151.20 183.49 151.15
  A 0.53 0.53 0.0 0 1 183.03 150.37
  Q 195.20 127.92 207.16 105.49
  C 209.77 100.59 206.14 100.16 202.45 100.11
  A 0.40 0.40 0.0 0 1 202.11 99.50
  C 203.23 97.60 204.49 95.59 204.28 93.34
  Q 203.76 87.72 197.50 87.70
  Q 182.43 87.63 167.52 87.64
  A 0.34 0.33 13.8 0 1 167.22 87.15
  Q 181.46 59.96 195.85 32.77
  C 197.87 28.96 197.68 26.09 192.16 26.65
  Q 190.81 26.79 191.38 25.55
  C 192.10 24.01 193.29 22.37 193.43 20.62
  C 193.81 15.84 190.48 14.26 186.12 14.26
  Q 166.01 14.24 145.89 14.27
  C 142.60 14.28 141.03 14.94 139.52 17.74
  Q 115.19 62.99 90.87 108.25
  C 86.23 116.87 90.83 119.93 99.30 119.51
  Q 99.93 119.47 99.74 120.08
  Q 99.61 120.49 99.42 120.82
  C 97.25 124.54 100.08 125.94 103.28 125.93
  Q 116.83 125.91 130.22 125.85
  A 0.49 0.49 0.0 0 1 130.65 126.58
  Q 120.46 145.10 110.39 163.48
  C 108.43 167.06 107.48 170.52 111.09 173.16
  C 113.28 174.77 116.39 174.57 119.09 174.45
  Q 119.80 174.42 119.47 175.05
  C 119.05 175.85 118.62 176.25 118.48 177.09
  Q 117.84 180.77 121.49 180.76
  Q 137.08 180.72 152.29 180.76
  Q 152.89 180.76 152.69 181.32
  Q 137.51 224.95 122.64 267.78
  C 120.14 275.00 128.50 279.47 133.22 273.82
  A 0.24 0.24 0.0 0 1 133.63 274.06
  Z" fill="#46f585"></path>
<path d="M 133.22 273.82
  C 128.50 279.47 120.14 275.00 122.64 267.78
  Q 137.51 224.95 152.69 181.32
  Q 152.89 180.76 152.29 180.76
  Q 137.08 180.72 121.49 180.76
  Q 117.84 180.77 118.48 177.09
  C 118.62 176.25 119.05 175.85 119.47 175.05
  Q 119.80 174.42 119.09 174.45
  C 116.39 174.57 113.28 174.77 111.09 173.16
  C 107.48 170.52 108.43 167.06 110.39 163.48
  Q 120.46 145.10 130.65 126.58
  A 0.49 0.49 0.0 0 0 130.22 125.85
  Q 116.83 125.91 103.28 125.93
  C 100.08 125.94 97.25 124.54 99.42 120.82
  Q 99.61 120.49 99.74 120.08
  Q 99.93 119.47 99.30 119.51
  C 90.83 119.93 86.23 116.87 90.87 108.25
  Q 115.19 62.99 139.52 17.74
  C 141.03 14.94 142.60 14.28 145.89 14.27
  Q 166.01 14.24 186.12 14.26
  C 190.48 14.26 193.81 15.84 193.43 20.62
  C 193.29 22.37 192.10 24.01 191.38 25.55
  Q 190.81 26.79 192.16 26.65
  C 197.68 26.09 197.87 28.96 195.85 32.77
  Q 181.46 59.96 167.22 87.15
  A 0.34 0.33 13.8 0 0 167.52 87.64
  Q 182.43 87.63 197.50 87.70
  Q 203.76 87.72 204.28 93.34
  C 204.49 95.59 203.23 97.60 202.11 99.50
  A 0.40 0.40 0.0 0 0 202.45 100.11
  C 206.14 100.16 209.77 100.59 207.16 105.49
  Q 195.20 127.92 183.03 150.37
  A 0.53 0.53 0.0 0 0 183.49 151.15
  C 186.31 151.20 190.02 150.69 192.33 152.12
  C 196.67 154.79 194.99 159.25 192.89 162.89
  A 0.42 0.41 14.4 0 0 193.26 163.51
  C 197.05 163.49 200.48 164.26 197.95 168.97
  Q 167.65 225.44 137.55 281.15
  Q 136.23 283.59 133.68 282.47
  L 133.19 282.25
  A 2.49 2.47 21.6 0 1 131.85 279.17
  L 133.63 274.06
  A 0.24 0.24 0.0 0 0 133.22 273.82
  Z
  M 155.77 86.35
  L 190.09 21.07
  A 1.94 1.93 60.4 0 0 190.31 20.26
  Q 190.46 17.20 186.25 17.23
  Q 165.97 17.37 144.82 17.38
  A 2.50 2.50 0.0 0 0 142.62 18.69
  L 92.47 112.02
  A 2.92 2.92 0.0 0 0 95.04 116.32
  L 134.53 116.29
  A 3.22 3.22 0.0 0 1 137.36 121.06
  Q 124.97 143.60 112.27 166.53
  C 110.92 168.96 112.57 171.26 115.00 171.26
  Q 135.25 171.24 155.29 171.25
  A 3.07 3.07 0.0 0 1 158.19 175.32
  Q 142.64 220.11 127.04 264.81
  C 126.36 266.75 124.17 270.68 126.25 272.32
  C 130.12 275.36 131.31 270.11 132.82 267.77
  C 135.51 263.61 138.08 257.94 139.78 254.78
  Q 165.85 206.63 191.57 158.51
  A 2.88 2.87 14.1 0 0 189.04 154.28
  L 173.76 154.26
  Q 173.15 154.26 172.66 153.88
  C 170.19 151.96 171.61 149.49 172.97 147.21
  Q 173.83 145.77 174.54 144.17
  Q 176.50 139.72 179.17 135.65
  Q 179.29 135.46 179.34 135.07
  Q 179.39 134.58 179.65 134.16
  Q 181.06 131.90 184.36 125.76
  Q 196.48 103.24 200.31 96.00
  Q 200.65 95.36 201.13 94.07
  Q 201.29 93.63 201.17 93.18
  Q 200.51 90.74 198.50 90.75
  Q 178.71 90.76 158.37 90.69
  A 2.96 2.96 0.0 0 1 155.77 86.35
  Z" fill="#000000"></path>
<path d="M 190.09 21.07
  L 155.77 86.35
  A 2.96 2.96 0.0 0 0 158.37 90.69
  Q 178.71 90.76 198.50 90.75
  Q 200.51 90.74 201.17 93.18
  Q 201.29 93.63 201.13 94.07
  Q 200.65 95.36 200.31 96.00
  Q 196.48 103.24 184.36 125.76
  Q 181.06 131.90 179.65 134.16
  Q 179.39 134.58 179.34 135.07
  Q 179.29 135.46 179.17 135.65
  Q 176.50 139.72 174.54 144.17
  Q 173.83 145.77 172.97 147.21
  C 171.61 149.49 170.19 151.96 172.66 153.88
  Q 173.15 154.26 173.76 154.26
  L 189.04 154.28
  A 2.88 2.87 14.1 0 1 191.57 158.51
  Q 165.85 206.63 139.78 254.78
  C 138.08 257.94 135.51 263.61 132.82 267.77
  C 131.31 270.11 130.12 275.36 126.25 272.32
  C 124.17 270.68 126.36 266.75 127.04 264.81
  Q 142.64 220.11 158.19 175.32
  A 3.07 3.07 0.0 0 0 155.29 171.25
  Q 135.25 171.24 115.00 171.26
  C 112.57 171.26 110.92 168.96 112.27 166.53
  Q 124.97 143.60 137.36 121.06
  A 3.22 3.22 0.0 0 0 134.53 116.29
  L 95.04 116.32
  A 2.92 2.92 0.0 0 1 92.47 112.02
  L 142.62 18.69
  A 2.50 2.50 0.0 0 1 144.82 17.38
  Q 165.97 17.37 186.25 17.23
  Q 190.46 17.20 190.31 20.26
  A 1.94 1.93 60.4 0 1 190.09 21.07
  Z" fill="#ffea00"></path>
</svg>
