<svg viewBox="0.00 0.00 166.00 166.00" version="1.1" xmlns="http://www.w3.org/2000/svg">
<g stroke-linecap="butt" fill="none" stroke-width="2.00">
<path d="M 57.53 21.45
  L 57.11 15.77" stroke="#4a8cf6"></path>
<path d="M 56.81 128.91
  Q 57.15 130.02 56.68 130.88
  Q 56.46 131.30 56.46 131.77
  L 56.57 137.96" stroke="#4492f7"></path>
<path d="M 103.99 153.09
  L 103.64 145.92" stroke="#7561f4"></path>
<path d="M 72.97 150.23
  L 73.13 141.74" stroke="#5383f6"></path>
</g>
<path d="M 57.53 21.45
  L 57.11 15.77
  Q 75.18 5.30 80.37 2.38
  Q 82.88 0.96 85.60 2.43
  Q 92.31 6.04 98.85 9.97
  Q 99.36 10.27 98.78 10.43
  L 57.53 21.45
  Z" fill="#597cf5"></path>
<path d="M 62.25 24.11
  Q 79.87 19.20 99.76 14.05
  A 3.60 3.58 -29.8 0 1 103.20 14.97
  L 111.30 22.97
  Q 112.55 24.21 110.80 24.20
  Q 87.11 24.08 62.14 24.11
  Q 62.13 24.11 62.12 24.12
  Q 62.12 24.12 62.12 24.12
  Q 62.12 24.12 62.13 24.12
  Q 62.19 24.12 62.25 24.11
  Z" fill="#6571f5"></path>
<path d="M 57.11 15.77
  L 57.53 21.45
  L 39.28 26.32
  Q 38.34 26.57 39.18 26.09
  L 57.11 15.77
  Z" fill="#3b9bf7"></path>
<path d="M 149.58 39.17
  C 152.77 41.01 154.22 41.79 154.27 45.90
  Q 154.36 53.05 154.29 60.18
  Q 154.28 60.69 153.93 60.33
  L 110.64 17.12
  Q 109.70 16.19 110.85 16.85
  Q 130.05 27.88 149.58 39.17
  Z" fill="#a82bf2"></path>
<path d="M 32.55 59.83
  Q 44.06 39.82 49.56 30.53
  C 51.95 26.49 60.78 27.76 64.82 27.80
  Q 65.15 27.80 64.92 28.03
  L 32.72 60.16
  A 0.18 0.14 -18.1 0 1 32.42 60.06
  Q 32.43 60.04 32.55 59.83
  Z" fill="#3b9bf7"></path>
<path d="M 121.89 40.21
  Q 98.84 33.76 77.04 28.19
  Q 75.50 27.80 77.09 27.80
  Q 93.88 27.79 111.00 27.77
  Q 114.84 27.76 116.70 31.05
  Q 119.31 35.65 121.92 40.18
  Q 121.94 40.22 121.89 40.21
  Z" fill="#8451f3"></path>
<path d="M 45.82 29.59
  L 22.45 70.00
  Q 21.18 72.20 21.84 69.75
  L 31.37 34.29
  A 3.90 3.88 -0.2 0 1 34.10 31.56
  L 45.04 28.59
  Q 46.65 28.15 45.82 29.59
  Z" fill="#2aadf8"></path>
<path d="M 78.44 33.19
  L 47.80 50.84
  Q 46.57 51.55 47.58 50.55
  L 67.30 30.89
  A 2.81 2.79 -60.3 0 1 69.97 30.15
  L 78.31 32.23
  Q 79.56 32.54 78.44 33.19
  Z" fill="#4d89f6"></path>
<path d="M 28.03 32.57
  L 11.99 92.22
  Q 11.69 93.33 11.70 92.18
  Q 11.72 69.08 11.67 45.25
  C 11.67 42.48 12.98 41.20 15.41 39.79
  Q 21.71 36.14 27.98 32.53
  Q 28.05 32.49 28.03 32.57
  Z" fill="#21b7f8"></path>
<path d="M 123.84 36.12
  Q 123.01 34.68 124.19 35.85
  L 151.15 62.79
  A 3.77 3.77 0.0 0 1 152.14 66.42
  L 149.19 77.56
  Q 148.76 79.22 147.90 77.73
  L 123.84 36.12
  Z" fill="#a82bf2"></path>
<path d="M 60.65 47.61
  Q 70.31 42.03 81.51 35.76
  A 2.56 2.56 0.0 0 1 83.98 35.74
  L 90.80 39.44
  Q 91.78 39.96 90.71 40.25
  L 60.00 48.44
  Q 59.52 48.57 59.86 48.17
  Q 60.05 47.96 60.65 47.61
  Z" fill="#597cf5"></path>
<path d="M 93.08 36.24
  Q 105.33 39.31 117.49 42.74
  C 123.32 44.39 123.25 49.24 124.54 54.28
  Q 124.67 54.78 124.22 54.52
  L 92.97 36.51
  Q 92.08 35.99 93.08 36.24
  Z" fill="#8451f3"></path>
<path d="M 76.73 47.76
  L 91.41 43.84
  A 3.90 3.88 -31.5 0 1 95.00 44.69
  L 97.42 46.85
  Q 98.74 48.02 96.98 48.02
  L 76.77 48.02
  Q 75.75 48.02 76.73 47.76
  Z" fill="#6571f5"></path>
<path d="M 102.00 45.96
  L 122.63 57.85
  A 3.11 3.10 -75.8 0 1 124.18 60.47
  L 124.33 67.11
  Q 124.36 68.62 123.30 67.55
  L 101.87 46.13
  Q 101.27 45.53 102.00 45.96
  Z" fill="#8451f3"></path>
<path d="M 127.14 49.26
  Q 136.03 64.47 144.80 79.76
  C 146.25 82.28 145.98 83.98 144.49 86.56
  Q 141.99 90.88 139.56 95.23
  Q 139.42 95.48 139.35 95.20
  L 127.04 49.27
  A 0.11 0.02 72.5 0 1 127.03 49.15
  Q 127.05 49.14 127.07 49.14
  Q 127.13 49.12 127.13 49.19
  Q 127.13 49.21 127.13 49.23
  Q 127.13 49.25 127.14 49.26
  Z" fill="#a82bf2"></path>
<path d="M 61.12 57.90
  C 63.14 54.47 64.65 51.04 69.55 51.80
  Q 70.03 51.87 69.69 52.21
  L 58.17 63.71
  Q 57.34 64.54 57.91 63.52
  Q 59.38 60.85 61.12 57.90
  Z" fill="#4d89f6"></path>
<path d="M 103.02 56.08
  L 87.73 52.03
  Q 86.65 51.75 87.76 51.75
  L 99.08 51.76
  A 2.97 2.96 70.6 0 1 101.39 52.87
  L 103.44 55.43
  A 0.41 0.41 0.0 0 1 103.02 56.08
  Z" fill="#8451f3"></path>
<path d="M 49.88 69.89
  Q 49.25 70.96 49.57 69.76
  L 53.23 56.14
  A 3.74 3.73 88.4 0 1 55.68 53.54
  L 58.82 52.51
  Q 60.30 52.02 59.52 53.37
  L 49.88 69.89
  Z" fill="#3b9bf7"></path>
<path d="M 78.55 53.92
  L 67.24 60.46
  Q 66.01 61.17 67.00 60.15
  C 69.81 57.27 73.65 51.65 78.50 53.41
  Q 79.07 53.62 78.55 53.92
  Z" fill="#597cf5"></path>
<path d="M 49.81 54.66
  L 41.85 84.28
  Q 41.23 86.58 41.23 84.20
  L 41.27 60.55
  A 2.67 2.67 0.0 0 1 42.55 58.27
  L 49.20 54.20
  Q 50.08 53.67 49.81 54.66
  Z" fill="#3b9bf7"></path>
<path d="M 94.00 57.76
  Q 93.87 57.69 93.91 57.60
  L 94.01 57.36
  Q 94.04 57.28 94.13 57.30
  Q 98.31 58.75 102.63 59.86
  Q 105.73 60.66 106.18 64.29
  Q 106.24 64.82 105.77 64.55
  L 94.00 57.76
  Z" fill="#8451f3"></path>
<path d="M 120.52 77.52
  L 110.62 60.58
  Q 109.88 59.30 110.92 60.35
  L 120.97 70.42
  Q 122.30 71.75 122.10 73.62
  L 121.70 77.27
  Q 121.49 79.19 120.52 77.52
  Z" fill="#8451f3"></path>
<path d="M 37.13 60.94
  Q 37.53 60.53 37.53 61.10
  L 37.52 96.77
  Q 37.52 98.16 37.16 96.82
  Q 33.75 84.24 30.30 71.26
  C 29.30 67.49 34.71 63.41 37.13 60.94
  Z" fill="#2aadf8"></path>
<path d="M 134.86 97.99
  L 128.78 104.30
  Q 128.00 105.11 128.00 103.99
  L 128.00 68.27
  Q 128.00 67.12 128.29 68.23
  L 135.55 95.35
  A 2.78 2.76 59.8 0 1 134.86 97.99
  Z" fill="#a82bf2"></path>
<path d="M 112.29 70.82
  Q 114.83 75.02 117.24 79.32
  C 118.90 82.29 118.94 84.61 116.80 87.13
  Q 116.40 87.61 116.24 87.01
  L 111.93 70.97
  Q 111.56 69.60 112.29 70.82
  Z" fill="#8451f3"></path>
<path d="M 37.69 114.78
  L 20.31 84.70
  A 3.53 3.52 44.9 0 1 20.30 81.18
  L 25.58 71.94
  Q 26.31 70.66 26.69 72.08
  L 38.10 114.62
  Q 38.54 116.24 37.69 114.78
  Z" fill="#21b7f8"></path>
<path d="M 55.15 85.03
  L 52.91 76.43
  A 2.48 2.48 0.0 0 1 53.28 74.38
  L 54.95 72.00
  A 0.37 0.37 0.0 0 1 55.63 72.21
  L 55.64 84.97
  Q 55.64 86.88 55.15 85.03
  Z" fill="#3b9bf7"></path>
<path d="M 138.09 133.45
  A 0.06 0.06 0.0 0 1 138.00 133.38
  L 153.92 74.19
  Q 154.29 72.79 154.29 74.24
  Q 154.30 97.78 154.29 121.75
  Q 154.29 124.12 151.33 125.85
  Q 147.20 128.26 138.09 133.45
  Z" fill="#a82bf2"></path>
<path d="M 53.93 95.49
  L 47.63 84.70
  A 3.18 3.17 -48.0 0 1 47.48 81.80
  L 48.77 78.97
  Q 49.36 77.66 49.74 79.05
  L 54.14 95.41
  Q 54.35 96.21 53.93 95.49
  Z" fill="#3b9bf7"></path>
<path d="M 112.51 91.43
  L 110.84 93.87
  A 0.33 0.32 62.6 0 1 110.25 93.68
  L 110.25 80.91
  Q 110.25 78.75 110.80 80.84
  L 112.93 89.03
  A 2.93 2.91 55.1 0 1 112.51 91.43
  Z" fill="#8451f3"></path>
<path d="M 124.29 82.27
  L 124.28 104.56
  A 3.62 3.61 74.5 0 1 122.55 107.63
  L 117.54 110.66
  Q 116.21 111.46 116.61 109.96
  L 124.06 82.23
  Q 124.29 81.36 124.29 82.27
  Z" fill="#8451f3"></path>
<path d="M 18.14 88.33
  L 42.25 130.01
  Q 42.91 131.14 41.98 130.22
  L 14.86 103.20
  A 3.75 3.73 30.0 0 1 13.88 99.58
  L 16.80 88.51
  Q 17.25 86.80 18.14 88.33
  Z" fill="#21b7f8"></path>
<path d="M 45.51 88.46
  L 55.48 105.52
  Q 56.03 106.47 55.25 105.69
  L 45.11 95.60
  Q 43.76 94.25 43.96 92.35
  L 44.33 88.71
  Q 44.53 86.79 45.51 88.46
  Z" fill="#3b9bf7"></path>
<path d="M 119.40 137.41
  L 144.41 94.14
  Q 145.03 93.07 144.71 94.26
  Q 139.79 112.59 134.76 131.26
  C 133.68 135.27 123.34 136.84 119.67 137.77
  A 0.24 0.24 0.0 0 1 119.40 137.41
  Z" fill="#a82bf2"></path>
<path d="M 116.69 95.38
  Q 115.11 101.42 113.44 107.48
  C 112.32 111.59 110.37 113.44 106.20 113.59
  Q 105.73 113.61 105.97 113.20
  L 116.45 95.28
  Q 116.95 94.43 116.69 95.38
  Z" fill="#8451f3"></path>
<path d="M 47.09 110.24
  C 40.41 106.52 41.20 104.53 41.22 97.47
  Q 41.22 96.93 41.61 97.31
  L 63.28 118.97
  Q 64.17 119.86 63.08 119.24
  Q 55.30 114.80 47.09 110.24
  Z" fill="#3b9bf7"></path>
<path d="M 59.74 100.97
  L 71.38 107.64
  Q 72.41 108.22 71.26 107.96
  Q 66.46 106.85 61.80 105.27
  A 1.36 1.36 0.0 0 1 61.02 104.59
  L 59.39 101.31
  A 0.26 0.25 -88.7 0 1 59.74 100.97
  Z" fill="#3b9bf7"></path>
<path d="M 108.08 102.25
  L 102.41 111.88
  A 3.77 2.51 -71.5 0 1 100.06 113.71
  L 96.45 114.13
  A 0.36 0.36 0.0 0 1 96.15 113.51
  L 107.75 102.00
  Q 108.91 100.84 108.08 102.25
  Z" fill="#8451f3"></path>
<path d="M 132.42 107.62
  Q 124.32 121.55 116.21 135.47
  C 114.05 139.19 105.35 138.03 101.69 137.99
  Q 100.14 137.98 101.24 136.88
  L 133.99 104.22
  A 0.12 0.12 0.0 0 1 134.18 104.36
  Q 133.39 105.96 132.42 107.62
  Z" fill="#8451f3"></path>
<path d="M 87.26 111.84
  L 99.07 105.05
  Q 99.95 104.55 99.23 105.27
  C 96.24 108.27 92.31 114.06 87.30 112.28
  Q 86.80 112.10 87.26 111.84
  Z" fill="#6571f5"></path>
<path d="M 15.18 126.08
  C 12.77 124.70 11.78 123.52 11.74 120.55
  Q 11.65 112.91 11.71 105.30
  Q 11.71 105.24 11.75 105.28
  L 55.50 148.95
  Q 56.38 149.82 55.31 149.20
  Q 35.41 137.75 15.18 126.08
  Z" fill="#21b7f8"></path>
<path d="M 63.08 109.65
  L 78.27 113.71
  Q 79.46 114.03 78.23 114.03
  L 66.73 114.01
  A 2.93 2.93 0.0 0 1 64.41 112.87
  L 62.55 110.46
  Q 61.62 109.26 63.08 109.65
  Z" fill="#4d89f6"></path>
<path d="M 42.43 111.61
  L 72.40 128.87
  A 0.20 0.20 0.0 0 1 72.25 129.24
  L 46.24 122.24
  Q 43.85 121.60 43.19 119.21
  L 41.34 112.46
  Q 40.85 110.70 42.43 111.61
  Z" fill="#3b9bf7"></path>
<path d="M 87.47 132.19
  L 117.77 114.75
  Q 119.01 114.03 118.00 115.04
  L 98.54 134.36
  A 3.65 3.64 29.8 0 1 95.06 135.30
  L 87.63 133.38
  Q 86.09 132.99 87.47 132.19
  Z" fill="#8451f3"></path>
<path d="M 90.04 118.11
  L 74.53 122.18
  A 3.81 3.80 -30.8 0 1 70.97 121.28
  L 68.36 118.84
  Q 67.18 117.75 68.79 117.75
  L 89.99 117.75
  Q 91.41 117.75 90.04 118.11
  Z" fill="#597cf5"></path>
<path d="M 75.94 126.70
  Q 74.64 125.98 76.07 125.60
  L 103.89 118.18
  Q 104.85 117.93 103.99 118.42
  L 84.57 129.60
  A 3.42 3.42 0.0 0 1 81.23 129.63
  L 75.94 126.70
  Z" fill="#6571f5"></path>
<path d="M 56.81 128.91
  Q 57.15 130.02 56.68 130.88
  Q 56.46 131.30 56.46 131.77
  L 56.57 137.96
  Q 53.82 138.40 51.73 137.27
  C 48.94 135.76 45.74 128.69 44.08 125.83
  Q 43.82 125.39 44.32 125.52
  L 56.81 128.91
  Z" fill="#3b9bf7"></path>
<path d="M 56.81 128.91
  L 87.93 137.25
  Q 90.65 137.98 87.83 137.98
  L 56.57 137.96
  L 56.46 131.77
  Q 56.46 131.30 56.68 130.88
  Q 57.15 130.02 56.81 128.91
  Z" fill="#4d89f6"></path>
<path d="M 103.99 153.09
  L 103.64 145.92
  L 126.80 139.67
  Q 127.72 139.42 126.89 139.90
  L 103.99 153.09
  Z" fill="#8451f3"></path>
<path d="M 72.97 150.23
  L 73.13 141.74
  L 103.85 141.73
  Q 104.86 141.73 103.88 141.99
  L 72.97 150.23
  Z" fill="#597cf5"></path>
<path d="M 73.13 141.74
  L 72.97 150.23
  C 69.49 151.27 65.56 153.02 62.86 150.65
  Q 58.23 146.59 53.92 142.20
  Q 53.48 141.75 54.11 141.75
  L 73.13 141.74
  Z" fill="#4d89f6"></path>
<path d="M 103.64 145.92
  L 103.99 153.09
  Q 90.43 161.03 85.50 163.71
  C 83.58 164.76 81.63 164.34 79.66 163.21
  Q 73.36 159.61 67.07 155.98
  Q 66.65 155.74 67.12 155.62
  L 103.64 145.92
  Z" fill="#6571f5"></path>
</svg>
