<svg viewBox="0.00 0.00 256.00 256.00" version="1.1" xmlns="http://www.w3.org/2000/svg">
<path d="M 17.68 189.16
  C 18.40 182.89 20.11 174.88 23.78 169.53
  A 0.78 0.78 0.0 0 1 25.00 169.45
  Q 27.69 172.43 29.60 176.13
  C 34.83 186.24 38.09 196.94 44.05 206.72
  C 51.10 218.29 62.61 216.59 65.18 202.74
  C 68.05 187.24 65.92 171.21 66.61 155.50
  C 66.93 148.20 67.67 139.51 70.67 132.77
  A 0.55 0.55 0.0 0 1 71.55 132.59
  C 76.49 137.13 80.12 143.88 83.08 149.83
  Q 90.81 165.32 97.23 181.39
  C 103.44 196.90 109.77 212.74 118.99 226.74
  Q 123.14 233.05 126.34 235.17
  C 137.79 242.79 144.42 233.01 146.22 223.00
  C 148.75 208.95 148.21 193.48 147.05 179.01
  Q 143.58 135.70 142.87 92.25
  C 142.56 73.96 142.42 53.80 146.94 36.03
  A 0.63 0.63 0.0 0 1 148.07 35.83
  Q 151.65 41.07 154.38 47.11
  C 162.68 65.53 168.90 84.92 174.68 104.26
  Q 184.35 136.64 192.80 169.40
  Q 192.95 169.98 193.53 169.83
  L 204.47 167.02
  A 0.21 0.21 0.0 0 0 204.62 166.77
  Q 192.37 117.60 176.32 69.50
  Q 170.64 52.48 162.70 36.44
  C 159.51 30.01 152.39 18.67 143.39 22.23
  C 133.57 26.10 132.14 46.79 131.57 55.50
  C 129.84 82.17 130.69 109.08 132.14 135.75
  Q 133.52 161.02 135.23 186.26
  C 136.05 198.39 136.66 212.34 133.32 224.14
  A 0.50 0.50 0.0 0 1 132.45 224.33
  Q 128.50 219.50 125.61 214.21
  C 115.59 195.89 108.62 176.48 100.29 157.41
  C 95.77 147.05 90.63 136.38 83.47 127.55
  Q 79.72 122.92 77.00 121.51
  C 50.27 107.70 53.84 173.23 54.34 183.51
  Q 54.69 190.90 53.79 197.52
  Q 53.57 199.14 52.82 197.69
  C 47.66 187.75 44.43 177.03 38.63 167.35
  C 28.80 150.97 15.80 154.24 9.52 170.74" stroke-linecap="butt" fill="none" stroke-width="2.00" stroke="#97c5ab"></path>
<path d="M 124.08 0.00
  L 136.22 0.00
  C 196.81 3.68 244.61 46.43 256.00 105.87
  L 256.00 150.22
  C 244.61 209.96 196.16 252.58 135.36 256.00
  L 124.52 256.00
  C 79.21 253.61 39.58 228.77 17.68 189.16
  C 18.40 182.89 20.11 174.88 23.78 169.53
  A 0.78 0.78 0.0 0 1 25.00 169.45
  Q 27.69 172.43 29.60 176.13
  C 34.83 186.24 38.09 196.94 44.05 206.72
  C 51.10 218.29 62.61 216.59 65.18 202.74
  C 68.05 187.24 65.92 171.21 66.61 155.50
  C 66.93 148.20 67.67 139.51 70.67 132.77
  A 0.55 0.55 0.0 0 1 71.55 132.59
  C 76.49 137.13 80.12 143.88 83.08 149.83
  Q 90.81 165.32 97.23 181.39
  C 103.44 196.90 109.77 212.74 118.99 226.74
  Q 123.14 233.05 126.34 235.17
  C 137.79 242.79 144.42 233.01 146.22 223.00
  C 148.75 208.95 148.21 193.48 147.05 179.01
  Q 143.58 135.70 142.87 92.25
  C 142.56 73.96 142.42 53.80 146.94 36.03
  A 0.63 0.63 0.0 0 1 148.07 35.83
  Q 151.65 41.07 154.38 47.11
  C 162.68 65.53 168.90 84.92 174.68 104.26
  Q 184.35 136.64 192.80 169.40
  Q 192.95 169.98 193.53 169.83
  L 204.47 167.02
  A 0.21 0.21 0.0 0 0 204.62 166.77
  Q 192.37 117.60 176.32 69.50
  Q 170.64 52.48 162.70 36.44
  C 159.51 30.01 152.39 18.67 143.39 22.23
  C 133.57 26.10 132.14 46.79 131.57 55.50
  C 129.84 82.17 130.69 109.08 132.14 135.75
  Q 133.52 161.02 135.23 186.26
  C 136.05 198.39 136.66 212.34 133.32 224.14
  A 0.50 0.50 0.0 0 1 132.45 224.33
  Q 128.50 219.50 125.61 214.21
  C 115.59 195.89 108.62 176.48 100.29 157.41
  C 95.77 147.05 90.63 136.38 83.47 127.55
  Q 79.72 122.92 77.00 121.51
  C 50.27 107.70 53.84 173.23 54.34 183.51
  Q 54.69 190.90 53.79 197.52
  Q 53.57 199.14 52.82 197.69
  C 47.66 187.75 44.43 177.03 38.63 167.35
  C 28.80 150.97 15.80 154.24 9.52 170.74
  C -5.16 128.67 2.57 81.83 30.86 47.35
  Q 66.30 4.17 124.08 0.00
  Z" fill="#2e8b57"></path>
<path d="M 17.68 189.16
  L 6.19 187.59
  Q 5.43 187.48 5.61 186.74
  L 9.52 170.74
  C 15.80 154.24 28.80 150.97 38.63 167.35
  C 44.43 177.03 47.66 187.75 52.82 197.69
  Q 53.57 199.14 53.79 197.52
  Q 54.69 190.90 54.34 183.51
  C 53.84 173.23 50.27 107.70 77.00 121.51
  Q 79.72 122.92 83.47 127.55
  C 90.63 136.38 95.77 147.05 100.29 157.41
  C 108.62 176.48 115.59 195.89 125.61 214.21
  Q 128.50 219.50 132.45 224.33
  A 0.50 0.50 0.0 0 0 133.32 224.14
  C 136.66 212.34 136.05 198.39 135.23 186.26
  Q 133.52 161.02 132.14 135.75
  C 130.69 109.08 129.84 82.17 131.57 55.50
  C 132.14 46.79 133.57 26.10 143.39 22.23
  C 152.39 18.67 159.51 30.01 162.70 36.44
  Q 170.64 52.48 176.32 69.50
  Q 192.37 117.60 204.62 166.77
  A 0.21 0.21 0.0 0 1 204.47 167.02
  L 193.53 169.83
  Q 192.95 169.98 192.80 169.40
  Q 184.35 136.64 174.68 104.26
  C 168.90 84.92 162.68 65.53 154.38 47.11
  Q 151.65 41.07 148.07 35.83
  A 0.63 0.63 0.0 0 0 146.94 36.03
  C 142.42 53.80 142.56 73.96 142.87 92.25
  Q 143.58 135.70 147.05 179.01
  C 148.21 193.48 148.75 208.95 146.22 223.00
  C 144.42 233.01 137.79 242.79 126.34 235.17
  Q 123.14 233.05 118.99 226.74
  C 109.77 212.74 103.44 196.90 97.23 181.39
  Q 90.81 165.32 83.08 149.83
  C 80.12 143.88 76.49 137.13 71.55 132.59
  A 0.55 0.55 0.0 0 0 70.67 132.77
  C 67.67 139.51 66.93 148.20 66.61 155.50
  C 65.92 171.21 68.05 187.24 65.18 202.74
  C 62.61 216.59 51.10 218.29 44.05 206.72
  C 38.09 196.94 34.83 186.24 29.60 176.13
  Q 27.69 172.43 25.00 169.45
  A 0.78 0.78 0.0 0 0 23.78 169.53
  C 20.11 174.88 18.40 182.89 17.68 189.16
  Z" fill="#ffffff"></path>
</svg>
