<svg viewBox="0.00 0.00 128.00 128.00" version="1.1" xmlns="http://www.w3.org/2000/svg">
<g stroke-linecap="butt" fill="none" stroke-width="2.00">
<path d="M 112.68 23.00
  Q 110.30 21.77 108.12 20.88
  Q 107.96 20.81 107.85 20.57
  Q 107.70 20.25 107.36 20.14
  C 104.88 19.32 102.94 18.11 100.26 17.74
  Q 99.98 17.70 99.84 17.51
  Q 99.66 17.23 99.34 17.16
  Q 92.31 15.54 87.75 15.12
  Q 85.79 14.94 83.37 15.40
  Q 81.29 15.79 79.08 16.09
  Q 73.29 16.86 69.36 20.43" stroke="#4f46f7"></path>
<path d="M 69.36 20.43
  Q 57.21 19.36 45.15 23.36" stroke="#a8adfd"></path>
<path d="M 45.15 23.36
  C 44.80 21.48 41.68 20.36 40.11 19.67
  Q 40.00 19.62 39.89 19.68
  Q 39.75 19.74 39.65 19.85
  Q 39.62 19.88 39.63 19.84
  Q 39.66 19.58 39.56 19.38
  Q 39.51 19.27 39.37 19.20
  Q 33.08 15.95 30.60 15.41
  Q 26.61 14.53 25.11 13.68" stroke="#4f46f7"></path>
<path d="M 45.15 23.36
  Q 32.37 27.82 23.62 37.48" stroke="#a699f9"></path>
<path d="M 23.62 37.48
  L 23.65 36.20
  Q 23.67 35.66 23.20 35.38
  Q 22.04 34.68 21.86 33.40
  Q 21.78 32.80 21.19 32.89
  Q 20.23 33.03 20.02 31.89
  A 0.82 0.75 -73.2 0 0 19.84 31.51
  L 13.94 24.63" stroke="#6335ef"></path>
<path d="M 126.27 49.70
  Q 122.85 50.80 120.80 53.49
  Q 120.68 53.64 120.61 53.46
  Q 120.49 53.19 120.31 53.26
  Q 116.91 54.58 114.32 56.98" stroke="#4850eb"></path>
<path d="M 114.32 56.98
  C 109.42 35.59 90.64 22.63 69.36 20.43" stroke="#a699f9"></path>
<path d="M 114.32 56.98
  Q 117.49 75.40 105.64 90.30" stroke="#a2b6f1"></path>
<path d="M 105.64 90.30
  Q 90.44 107.86 66.14 108.99" stroke="#9cc8f3"></path>
<path d="M 66.14 108.99
  L 55.07 108.40" stroke="#a8adfd"></path>
<path d="M 55.07 108.40
  Q 48.44 107.28 41.68 104.57" stroke="#b0a8fb"></path>
<path d="M 41.68 104.57
  Q 35.44 101.91 30.30 97.92" stroke="#c2a6f6"></path>
<path d="M 30.30 97.92
  Q 15.10 86.16 13.04 67.76" stroke="#cda5f3"></path>
<path d="M 13.04 67.76
  Q 12.19 50.37 23.62 37.48" stroke="#bd9bf5"></path>
<path d="M 48.69 59.88
  A 7.29 7.29 0.0 0 0 41.40 52.59
  L 40.60 52.59
  A 7.29 7.29 0.0 0 0 33.31 59.88
  L 33.31 74.12
  A 7.29 7.29 0.0 0 0 40.60 81.41
  L 41.40 81.41
  A 7.29 7.29 0.0 0 0 48.69 74.12
  L 48.69 59.88" stroke="#8f8f8f"></path>
<path d="M 88.80 66.69
  C 91.66 63.90 98.18 58.90 93.90 54.36
  Q 89.86 50.08 85.46 54.71
  Q 79.94 60.53 74.69 65.77
  A 3.99 3.99 0.0 0 0 75.42 71.99
  Q 82.60 76.40 90.06 80.91
  C 96.27 84.65 101.67 75.17 95.51 71.51
  Q 91.20 68.96 88.88 67.48
  Q 88.34 67.14 88.80 66.69" stroke="#8f8f8f"></path>
<path d="M 13.04 67.76
  Q 6.11 66.26 0.00 66.95" stroke="#8b41e8"></path>
<path d="M 127.30 73.58
  Q 123.46 73.84 120.51 76.52
  Q 117.43 79.32 115.51 82.75
  Q 113.84 85.73 112.50 87.02
  Q 110.58 88.86 108.43 90.44
  Q 108.19 90.62 107.93 90.46
  Q 107.75 90.34 107.47 90.35
  A 1.48 0.06 -16.0 0 0 106.26 90.64
  Q 105.93 90.73 105.64 90.30" stroke="#3f7fe5"></path>
<path d="M 30.30 97.92
  Q 29.63 98.87 28.90 99.42
  Q 28.55 99.68 28.41 100.09
  L 23.41 114.03" stroke="#904be9"></path>
<path d="M 126.46 78.42
  Q 120.75 82.05 117.61 87.73
  C 117.01 88.83 115.37 90.17 114.22 91.77
  C 113.41 92.88 112.08 93.56 111.28 94.31
  Q 109.22 96.25 107.23 98.27
  C 106.24 99.27 106.01 100.63 104.91 101.68
  C 103.91 102.63 103.59 103.44 102.99 104.56
  C 102.10 106.20 100.59 107.62 99.62 109.34
  Q 98.68 111.00 97.91 112.03
  Q 94.58 116.44 92.33 121.85" stroke="#33a3e2"></path>
<path d="M 73.75 127.66
  Q 66.96 118.92 66.14 108.99" stroke="#4576f1"></path>
<path d="M 41.68 104.57
  L 35.53 121.89" stroke="#734ff1"></path>
<path d="M 55.07 108.40
  L 57.96 118.33
  Q 58.09 118.79 58.52 119.01
  Q 60.06 119.79 60.55 121.58
  Q 61.05 123.43 61.07 123.51
  Q 61.67 125.32 61.46 125.99
  Q 61.20 126.80 61.95 127.10
  Q 62.25 127.22 62.40 127.52
  L 62.64 128.00" stroke="#5956f8"></path>
</g>
<path d="M 112.68 23.00
  Q 110.30 21.77 108.12 20.88
  Q 107.96 20.81 107.85 20.57
  Q 107.70 20.25 107.36 20.14
  C 104.88 19.32 102.94 18.11 100.26 17.74
  Q 99.98 17.70 99.84 17.51
  Q 99.66 17.23 99.34 17.16
  Q 92.31 15.54 87.75 15.12
  Q 85.79 14.94 83.37 15.40
  Q 81.29 15.79 79.08 16.09
  Q 73.29 16.86 69.36 20.43
  Q 57.21 19.36 45.15 23.36
  C 44.80 21.48 41.68 20.36 40.11 19.67
  Q 40.00 19.62 39.89 19.68
  Q 39.75 19.74 39.65 19.85
  Q 39.62 19.88 39.63 19.84
  Q 39.66 19.58 39.56 19.38
  Q 39.51 19.27 39.37 19.20
  Q 33.08 15.95 30.60 15.41
  Q 26.61 14.53 25.11 13.68
  C 52.73 -6.84 90.08 -3.07 112.68 23.00
  Z" fill="#515afa"></path>
<path d="M 25.11 13.68
  Q 26.61 14.53 30.60 15.41
  Q 33.08 15.95 39.37 19.20
  Q 39.51 19.27 39.56 19.38
  Q 39.66 19.58 39.63 19.84
  Q 39.62 19.88 39.65 19.85
  Q 39.75 19.74 39.89 19.68
  Q 40.00 19.62 40.11 19.67
  C 41.68 20.36 44.80 21.48 45.15 23.36
  Q 32.37 27.82 23.62 37.48
  L 23.65 36.20
  Q 23.67 35.66 23.20 35.38
  Q 22.04 34.68 21.86 33.40
  Q 21.78 32.80 21.19 32.89
  Q 20.23 33.03 20.02 31.89
  A 0.82 0.75 -73.2 0 0 19.84 31.51
  L 13.94 24.63
  Q 18.95 18.37 25.11 13.68
  Z" fill="#4c32f3"></path>
<path d="M 112.68 23.00
  Q 122.57 34.61 126.27 49.70
  Q 122.85 50.80 120.80 53.49
  Q 120.68 53.64 120.61 53.46
  Q 120.49 53.19 120.31 53.26
  Q 116.91 54.58 114.32 56.98
  C 109.42 35.59 90.64 22.63 69.36 20.43
  Q 73.29 16.86 79.08 16.09
  Q 81.29 15.79 83.37 15.40
  Q 85.79 14.94 87.75 15.12
  Q 92.31 15.54 99.34 17.16
  Q 99.66 17.23 99.84 17.51
  Q 99.98 17.70 100.26 17.74
  C 102.94 18.11 104.88 19.32 107.36 20.14
  Q 107.70 20.25 107.85 20.57
  Q 107.96 20.81 108.12 20.88
  Q 110.30 21.77 112.68 23.00
  Z" fill="#4c32f3"></path>
<path d="M 69.36 20.43
  C 90.64 22.63 109.42 35.59 114.32 56.98
  Q 117.49 75.40 105.64 90.30
  Q 90.44 107.86 66.14 108.99
  L 55.07 108.40
  Q 48.44 107.28 41.68 104.57
  Q 35.44 101.91 30.30 97.92
  Q 15.10 86.16 13.04 67.76
  Q 12.19 50.37 23.62 37.48
  Q 32.37 27.82 45.15 23.36
  Q 57.21 19.36 69.36 20.43
  Z
  M 48.69 59.88
  A 7.29 7.29 0.0 0 0 41.40 52.59
  L 40.60 52.59
  A 7.29 7.29 0.0 0 0 33.31 59.88
  L 33.31 74.12
  A 7.29 7.29 0.0 0 0 40.60 81.41
  L 41.40 81.41
  A 7.29 7.29 0.0 0 0 48.69 74.12
  L 48.69 59.88
  Z
  M 88.80 66.69
  C 91.66 63.90 98.18 58.90 93.90 54.36
  Q 89.86 50.08 85.46 54.71
  Q 79.94 60.53 74.69 65.77
  A 3.99 3.99 0.0 0 0 75.42 71.99
  Q 82.60 76.40 90.06 80.91
  C 96.27 84.65 101.67 75.17 95.51 71.51
  Q 91.20 68.96 88.88 67.48
  Q 88.34 67.14 88.80 66.69
  Z" fill="#ffffff"></path>
<path d="M 13.94 24.63
  L 19.84 31.51
  A 0.82 0.75 -73.2 0 1 20.02 31.89
  Q 20.23 33.03 21.19 32.89
  Q 21.78 32.80 21.86 33.40
  Q 22.04 34.68 23.20 35.38
  Q 23.67 35.66 23.65 36.20
  L 23.62 37.48
  Q 12.19 50.37 13.04 67.76
  Q 6.11 66.26 0.00 66.95
  L 0.00 60.56
  Q 1.67 40.22 13.94 24.63
  Z" fill="#7a37ea"></path>
<path d="M 126.27 49.70
  L 128.00 60.64
  L 128.00 68.49
  L 127.30 73.58
  Q 123.46 73.84 120.51 76.52
  Q 117.43 79.32 115.51 82.75
  Q 113.84 85.73 112.50 87.02
  Q 110.58 88.86 108.43 90.44
  Q 108.19 90.62 107.93 90.46
  Q 107.75 90.34 107.47 90.35
  A 1.48 0.06 -16.0 0 0 106.26 90.64
  Q 105.93 90.73 105.64 90.30
  Q 117.49 75.40 114.32 56.98
  Q 116.91 54.58 120.31 53.26
  Q 120.49 53.19 120.61 53.46
  Q 120.68 53.64 120.80 53.49
  Q 122.85 50.80 126.27 49.70
  Z" fill="#446de3"></path>
<rect rx="7.29" height="28.82" width="15.38" y="52.59" x="33.31" fill="#1e1e1e"></rect>
<path d="M 88.88 67.48
  Q 91.20 68.96 95.51 71.51
  C 101.67 75.17 96.27 84.65 90.06 80.91
  Q 82.60 76.40 75.42 71.99
  A 3.99 3.99 0.0 0 1 74.69 65.77
  Q 79.94 60.53 85.46 54.71
  Q 89.86 50.08 93.90 54.36
  C 98.18 58.90 91.66 63.90 88.80 66.69
  Q 88.34 67.14 88.88 67.48
  Z" fill="#1e1e1e"></path>
<path d="M 13.04 67.76
  Q 15.10 86.16 30.30 97.92
  Q 29.63 98.87 28.90 99.42
  Q 28.55 99.68 28.41 100.09
  L 23.41 114.03
  Q 2.30 95.99 0.00 68.33
  L 0.00 66.95
  Q 6.11 66.26 13.04 67.76
  Z" fill="#9b4ae6"></path>
<path d="M 127.30 73.58
  L 126.46 78.42
  Q 120.75 82.05 117.61 87.73
  C 117.01 88.83 115.37 90.17 114.22 91.77
  C 113.41 92.88 112.08 93.56 111.28 94.31
  Q 109.22 96.25 107.23 98.27
  C 106.24 99.27 106.01 100.63 104.91 101.68
  C 103.91 102.63 103.59 103.44 102.99 104.56
  C 102.10 106.20 100.59 107.62 99.62 109.34
  Q 98.68 111.00 97.91 112.03
  Q 94.58 116.44 92.33 121.85
  Q 82.98 126.48 73.75 127.66
  Q 66.96 118.92 66.14 108.99
  Q 90.44 107.86 105.64 90.30
  Q 105.93 90.73 106.26 90.64
  A 1.48 0.06 -16.0 0 1 107.47 90.35
  Q 107.75 90.34 107.93 90.46
  Q 108.19 90.62 108.43 90.44
  Q 110.58 88.86 112.50 87.02
  Q 113.84 85.73 115.51 82.75
  Q 117.43 79.32 120.51 76.52
  Q 123.46 73.84 127.30 73.58
  Z" fill="#3991e7"></path>
<path d="M 126.46 78.42
  Q 119.30 108.02 92.33 121.85
  Q 94.58 116.44 97.91 112.03
  Q 98.68 111.00 99.62 109.34
  C 100.59 107.62 102.10 106.20 102.99 104.56
  C 103.59 103.44 103.91 102.63 104.91 101.68
  C 106.01 100.63 106.24 99.27 107.23 98.27
  Q 109.22 96.25 111.28 94.31
  C 112.08 93.56 113.41 92.88 114.22 91.77
  C 115.37 90.17 117.01 88.83 117.61 87.73
  Q 120.75 82.05 126.46 78.42
  Z" fill="#2db5dd"></path>
<path d="M 30.30 97.92
  Q 35.44 101.91 41.68 104.57
  L 35.53 121.89
  L 23.41 114.03
  L 28.41 100.09
  Q 28.55 99.68 28.90 99.42
  Q 29.63 98.87 30.30 97.92
  Z" fill="#844cec"></path>
<path d="M 41.68 104.57
  Q 48.44 107.28 55.07 108.40
  L 57.96 118.33
  Q 58.09 118.79 58.52 119.01
  Q 60.06 119.79 60.55 121.58
  Q 61.05 123.43 61.07 123.51
  Q 61.67 125.32 61.46 125.99
  Q 61.20 126.80 61.95 127.10
  Q 62.25 127.22 62.40 127.52
  L 62.64 128.00
  L 55.26 128.00
  Q 44.79 126.29 35.53 121.89
  L 41.68 104.57
  Z" fill="#6151f6"></path>
<path d="M 55.07 108.40
  L 66.14 108.99
  Q 66.96 118.92 73.75 127.66
  Q 73.31 127.83 72.88 128.00
  L 62.64 128.00
  L 62.40 127.52
  Q 62.25 127.22 61.95 127.10
  Q 61.20 126.80 61.46 125.99
  Q 61.67 125.32 61.07 123.51
  Q 61.05 123.43 60.55 121.58
  Q 60.06 119.79 58.52 119.01
  Q 58.09 118.79 57.96 118.33
  L 55.07 108.40
  Z" fill="#515afa"></path>
</svg>
