<svg viewBox="0.00 0.00 97.00 97.00" version="1.1" xmlns="http://www.w3.org/2000/svg">
<g stroke-linecap="butt" fill="none" stroke-width="2.00">
<path d="M 77.52 53.06
  Q 68.80 52.63 59.61 53.80" stroke="#2aa2fe"></path>
<path d="M 23.27 67.31
  L 36.13 53.94" stroke="#46d1f4"></path>
<path d="M 65.80 76.23
  Q 63.24 73.45 60.86 70.64
  Q 58.31 67.63 56.24 64.26
  Q 55.66 63.31 54.43 64.24" stroke="#2fa7fd"></path>
</g>
<path d="M 42.75 18.44
  C 49.40 16.81 57.42 17.58 63.57 21.24
  Q 64.08 21.54 63.79 22.06
  L 52.06 42.54
  Q 51.77 43.05 51.22 42.85
  Q 50.15 42.47 49.02 42.50
  Q 48.50 42.51 48.37 42.00
  L 42.29 19.22
  Q 42.12 18.60 42.75 18.44
  Z" fill="#0ca8f2"></path>
<path d="M 27.69 34.99
  Q 32.43 26.91 41.44 24.27
  A 0.28 0.28 0.0 0 1 41.79 24.47
  L 46.60 42.38
  Q 46.74 42.93 46.23 43.19
  Q 45.13 43.73 44.26 44.62
  Q 43.82 45.06 43.28 44.75
  L 27.86 35.66
  A 0.49 0.49 0.0 0 1 27.69 34.99
  Z" fill="#007cff"></path>
<path d="M 24.01 35.65
  L 42.42 46.28
  Q 42.89 46.55 42.72 47.06
  Q 42.31 48.35 42.41 49.70
  Q 42.45 50.19 41.97 50.32
  L 21.30 55.85
  Q 20.79 55.99 20.68 55.46
  Q 18.67 45.09 23.53 35.79
  A 0.35 0.35 0.0 0 1 24.01 35.65
  Z" fill="#53c7fc"></path>
<path d="M 55.14 45.91
  L 54.05 44.45
  A 1.43 1.43 0.0 0 1 53.96 42.88
  L 57.27 37.16
  A 1.43 1.43 0.0 0 1 59.63 36.99
  L 63.93 42.45
  A 1.43 1.43 0.0 0 1 63.17 44.72
  L 56.66 46.44
  A 1.43 1.43 0.0 0 1 55.14 45.91
  Z" fill="#18dfe5"></path>
<path d="M 77.52 53.06
  Q 68.80 52.63 59.61 53.80
  L 55.98 51.93
  A 0.63 0.62 18.5 0 1 55.65 51.28
  L 56.03 48.97
  Q 56.10 48.53 56.53 48.42
  L 76.74 43.04
  Q 77.03 42.97 77.10 43.26
  Q 78.24 47.97 77.52 53.06
  Z" fill="#53c7fc"></path>
<path d="M 23.27 67.31
  L 36.13 53.94
  L 41.83 52.42
  A 2.23 2.23 0.0 0 1 44.34 55.69
  L 32.93 75.51
  Q 32.67 75.96 32.21 75.70
  Q 26.68 72.45 23.27 67.31
  Z" fill="#0ca8f2"></path>
<path d="M 77.52 53.06
  Q 77.07 57.82 74.61 61.93
  Q 74.33 62.39 73.87 62.12
  L 59.61 53.80
  Q 68.80 52.63 77.52 53.06
  Z" fill="#007cff"></path>
<path d="M 65.80 76.23
  Q 63.24 73.45 60.86 70.64
  Q 58.31 67.63 56.24 64.26
  Q 55.66 63.31 54.43 64.24
  L 52.39 56.58
  A 2.27 2.27 0.0 0 1 55.71 54.03
  L 75.71 65.53
  A 0.33 0.32 -60.4 0 1 75.83 65.98
  Q 72.00 72.67 65.80 76.23
  Z" fill="#5dd1fb"></path>
<path d="M 36.13 53.94
  L 23.27 67.31
  Q 20.47 63.28 19.27 58.82
  A 0.38 0.37 -15.3 0 1 19.54 58.36
  L 36.13 53.94
  Z" fill="#80faf6"></path>
<path d="M 46.09 55.83
  Q 46.31 55.44 46.73 55.57
  Q 48.18 56.03 49.70 55.97
  Q 50.21 55.96 50.34 56.45
  L 54.06 70.49
  A 0.51 0.51 0.0 0 1 53.66 71.12
  Q 46.26 72.49 39.58 69.14
  Q 39.01 68.86 39.32 68.29
  L 46.09 55.83
  Z" fill="#0028b0"></path>
<path d="M 65.80 76.23
  Q 62.29 78.39 58.98 79.13
  Q 58.43 79.25 58.29 78.71
  L 54.43 64.24
  Q 55.66 63.31 56.24 64.26
  Q 58.31 67.63 60.86 70.64
  Q 63.24 73.45 65.80 76.23
  Z" fill="#007cff"></path>
</svg>
