<svg viewBox="0.00 0.00 96.00 96.00" version="1.1" xmlns="http://www.w3.org/2000/svg">
<g stroke-linecap="butt" fill="none" stroke-width="2.00">
<path d="M 47.59 49.14
  L 38.13 67.57" stroke="#a4c1fa"></path>
<path d="M 38.13 67.57
  Q 36.90 69.94 35.50 72.71
  Q 33.88 75.94 33.84 77.67
  C 33.74 83.36 41.65 85.65 45.61 82.63
  C 47.88 80.90 49.13 77.53 50.47 74.80" stroke="#95cff5"></path>
<path d="M 50.47 74.80
  C 54.95 66.44 59.01 57.22 64.66 49.44
  A 0.57 0.57 0.0 0 0 64.46 48.59
  L 59.91 46.33
  Q 59.34 46.04 59.05 46.62
  L 44.98 74.67" stroke="#a4c1fa"></path>
<path d="M 44.98 74.67
  L 43.07 78.08
  A 2.29 2.28 -63.6 0 1 40.18 79.06
  L 39.85 78.91
  A 1.54 1.53 -65.0 0 1 39.09 76.80
  L 43.39 68.41" stroke="#95cff5"></path>
<path d="M 43.39 68.41
  L 52.38 50.71" stroke="#a4c1fa"></path>
<path d="M 52.38 50.71
  Q 58.05 39.90 63.50 28.67
  C 67.86 19.67 54.56 15.01 50.86 22.95
  C 47.10 31.01 42.44 39.28 37.96 48.21
  Q 36.21 51.70 32.61 50.17
  L 31.75 49.80
  A 2.93 2.93 0.0 0 1 30.29 45.78
  Q 36.10 34.40 41.88 23.39
  Q 43.66 20.01 43.74 18.20
  C 43.97 13.28 37.46 10.13 33.54 12.38
  Q 31.55 13.53 29.38 17.41
  Q 25.70 23.98 22.02 30.68
  A 1.92 1.91 -62.6 0 0 22.85 33.32
  L 23.31 33.54
  Q 25.57 34.65 26.79 32.44
  L 35.10 17.47
  Q 35.98 15.88 37.59 16.73
  L 37.98 16.94
  A 1.43 1.42 28.0 0 1 38.57 18.85
  Q 32.53 30.49 26.64 41.92
  Q 25.23 44.66 25.08 46.38
  C 24.44 53.87 33.47 58.16 39.23 54.05
  Q 41.35 52.54 43.64 48.10
  Q 49.46 36.86 55.57 24.70
  Q 56.42 23.00 58.15 23.77
  L 58.65 24.00
  A 1.39 1.39 0.0 0 1 59.33 25.89
  L 47.59 49.14" stroke="#b4b3fe"></path>
<path d="M 52.38 50.71
  Q 52.00 49.05 47.59 49.14" stroke="#5974f9"></path>
<path d="M 43.39 68.41
  L 38.13 67.57" stroke="#3a90ef"></path>
<path d="M 50.47 74.80
  L 44.98 74.67" stroke="#3a90ef"></path>
<path d="M 61.39 38.28
  L 71.19 42.71
  A 0.41 0.41 0.0 0 0 71.74 42.50
  L 71.78 42.41
  A 5.71 5.67 -65.7 0 0 68.96 34.87
  L 68.74 34.78
  A 5.71 5.67 -65.7 0 0 61.22 37.65
  L 61.18 37.74
  A 0.41 0.41 0.0 0 0 61.39 38.28" stroke="#b4b3fe"></path>
<path d="M 66.21 47.14
  L 70.30 44.54
  A 0.19 0.19 0.0 0 0 70.26 44.20
  Q 65.18 42.46 60.53 39.79
  A 0.10 0.10 0.0 0 0 60.39 39.88
  L 60.65 44.36
  Q 60.66 44.60 60.88 44.71
  L 65.85 47.16
  Q 66.04 47.25 66.21 47.14" stroke="#b4b3fe"></path>
</g>
<path d="M 43.70 0.00
  L 50.75 0.00
  Q 73.84 2.47 86.43 20.38
  C 103.68 44.93 93.92 78.52 66.92 90.80
  C 51.32 97.89 33.34 95.89 19.51 85.81
  Q 2.46 73.38 0.00 50.66
  L 0.00 44.54
  C 1.99 20.61 19.84 2.52 43.70 0.00
  Z
  M 47.59 49.14
  L 38.13 67.57
  Q 36.90 69.94 35.50 72.71
  Q 33.88 75.94 33.84 77.67
  C 33.74 83.36 41.65 85.65 45.61 82.63
  C 47.88 80.90 49.13 77.53 50.47 74.80
  C 54.95 66.44 59.01 57.22 64.66 49.44
  A 0.57 0.57 0.0 0 0 64.46 48.59
  L 59.91 46.33
  Q 59.34 46.04 59.05 46.62
  L 44.98 74.67
  L 43.07 78.08
  A 2.29 2.28 -63.6 0 1 40.18 79.06
  L 39.85 78.91
  A 1.54 1.53 -65.0 0 1 39.09 76.80
  L 43.39 68.41
  L 52.38 50.71
  Q 58.05 39.90 63.50 28.67
  C 67.86 19.67 54.56 15.01 50.86 22.95
  C 47.10 31.01 42.44 39.28 37.96 48.21
  Q 36.21 51.70 32.61 50.17
  L 31.75 49.80
  A 2.93 2.93 0.0 0 1 30.29 45.78
  Q 36.10 34.40 41.88 23.39
  Q 43.66 20.01 43.74 18.20
  C 43.97 13.28 37.46 10.13 33.54 12.38
  Q 31.55 13.53 29.38 17.41
  Q 25.70 23.98 22.02 30.68
  A 1.92 1.91 -62.6 0 0 22.85 33.32
  L 23.31 33.54
  Q 25.57 34.65 26.79 32.44
  L 35.10 17.47
  Q 35.98 15.88 37.59 16.73
  L 37.98 16.94
  A 1.43 1.42 28.0 0 1 38.57 18.85
  Q 32.53 30.49 26.64 41.92
  Q 25.23 44.66 25.08 46.38
  C 24.44 53.87 33.47 58.16 39.23 54.05
  Q 41.35 52.54 43.64 48.10
  Q 49.46 36.86 55.57 24.70
  Q 56.42 23.00 58.15 23.77
  L 58.65 24.00
  A 1.39 1.39 0.0 0 1 59.33 25.89
  L 47.59 49.14
  Z
  M 61.39 38.28
  L 71.19 42.71
  A 0.41 0.41 0.0 0 0 71.74 42.50
  L 71.78 42.41
  A 5.71 5.67 -65.7 0 0 68.96 34.87
  L 68.74 34.78
  A 5.71 5.67 -65.7 0 0 61.22 37.65
  L 61.18 37.74
  A 0.41 0.41 0.0 0 0 61.39 38.28
  Z
  M 66.21 47.14
  L 70.30 44.54
  A 0.19 0.19 0.0 0 0 70.26 44.20
  Q 65.18 42.46 60.53 39.79
  A 0.10 0.10 0.0 0 0 60.39 39.88
  L 60.65 44.36
  Q 60.66 44.60 60.88 44.71
  L 65.85 47.16
  Q 66.04 47.25 66.21 47.14
  Z" fill="#ffffff"></path>
<path d="M 52.38 50.71
  Q 52.00 49.05 47.59 49.14
  L 59.33 25.89
  A 1.39 1.39 0.0 0 0 58.65 24.00
  L 58.15 23.77
  Q 56.42 23.00 55.57 24.70
  Q 49.46 36.86 43.64 48.10
  Q 41.35 52.54 39.23 54.05
  C 33.47 58.16 24.44 53.87 25.08 46.38
  Q 25.23 44.66 26.64 41.92
  Q 32.53 30.49 38.57 18.85
  A 1.43 1.42 28.0 0 0 37.98 16.94
  L 37.59 16.73
  Q 35.98 15.88 35.10 17.47
  L 26.79 32.44
  Q 25.57 34.65 23.31 33.54
  L 22.85 33.32
  A 1.92 1.91 -62.6 0 1 22.02 30.68
  Q 25.70 23.98 29.38 17.41
  Q 31.55 13.53 33.54 12.38
  C 37.46 10.13 43.97 13.28 43.74 18.20
  Q 43.66 20.01 41.88 23.39
  Q 36.10 34.40 30.29 45.78
  A 2.93 2.93 0.0 0 0 31.75 49.80
  L 32.61 50.17
  Q 36.21 51.70 37.96 48.21
  C 42.44 39.28 47.10 31.01 50.86 22.95
  C 54.56 15.01 67.86 19.67 63.50 28.67
  Q 58.05 39.90 52.38 50.71
  Z" fill="#6966fd"></path>
<path d="M 61.39 38.28
  A 0.41 0.41 0.0 0 1 61.18 37.74
  L 61.22 37.65
  A 5.71 5.67 -65.7 0 1 68.74 34.78
  L 68.96 34.87
  A 5.71 5.67 -65.7 0 1 71.78 42.41
  L 71.74 42.50
  A 0.41 0.41 0.0 0 1 71.19 42.71
  L 61.39 38.28
  Z" fill="#6966fd"></path>
<path d="M 66.21 47.14
  Q 66.04 47.25 65.85 47.16
  L 60.88 44.71
  Q 60.66 44.60 60.65 44.36
  L 60.39 39.88
  A 0.10 0.10 0.0 0 1 60.53 39.79
  Q 65.18 42.46 70.26 44.20
  A 0.19 0.19 0.0 0 1 70.30 44.54
  L 66.21 47.14
  Z" fill="#6966fd"></path>
<path d="M 50.47 74.80
  L 44.98 74.67
  L 59.05 46.62
  Q 59.34 46.04 59.91 46.33
  L 64.46 48.59
  A 0.57 0.57 0.0 0 1 64.66 49.44
  C 59.01 57.22 54.95 66.44 50.47 74.80
  Z" fill="#4982f4"></path>
<path d="M 47.59 49.14
  Q 52.00 49.05 52.38 50.71
  L 43.39 68.41
  L 38.13 67.57
  L 47.59 49.14
  Z" fill="#4982f4"></path>
<path d="M 38.13 67.57
  L 43.39 68.41
  L 39.09 76.80
  A 1.54 1.53 -65.0 0 0 39.85 78.91
  L 40.18 79.06
  A 2.29 2.28 -63.6 0 0 43.07 78.08
  L 44.98 74.67
  L 50.47 74.80
  C 49.13 77.53 47.88 80.90 45.61 82.63
  C 41.65 85.65 33.74 83.36 33.84 77.67
  Q 33.88 75.94 35.50 72.71
  Q 36.90 69.94 38.13 67.57
  Z" fill="#2a9eea"></path>
</svg>
