<svg viewBox="0.00 0.00 512.00 512.00" version="1.1" xmlns="http://www.w3.org/2000/svg">
<g stroke-linecap="butt" fill="none" stroke-width="2.00">
<path d="M 164.06 264.38
  Q 160.93 265.79 160.02 270.72
  Q 158.90 276.80 163.18 279.37
  Q 165.52 280.78 171.06 280.76
  Q 187.83 280.71 204.76 280.83" stroke="#4b576b"></path>
<path d="M 204.76 280.83
  Q 175.27 346.16 145.91 411.15
  Q 144.00 415.37 144.08 417.60
  Q 144.25 421.71 148.30 423.71" stroke="#62acb3"></path>
<path d="M 148.30 423.71
  Q 144.62 427.35 144.02 432.00
  Q 143.20 438.30 149.86 440.33
  Q 153.94 441.58 156.20 439.70
  Q 251.25 360.49 346.30 281.28
  Q 349.97 278.22 350.92 275.66
  Q 353.13 269.72 347.23 264.53" stroke="#4b576b"></path>
<path d="M 347.23 264.53
  C 353.95 259.46 352.52 247.85 343.26 247.89
  Q 324.14 247.98 306.16 248.03" stroke="#62acb3"></path>
<path d="M 306.16 248.03
  Q 339.25 199.92 372.54 151.50
  Q 375.60 147.05 375.94 144.50
  Q 376.59 139.58 371.65 136.81" stroke="#4b576b"></path>
<path d="M 371.65 136.81
  C 375.00 132.25 379.26 125.39 372.57 121.33
  Q 370.37 120.00 365.66 120.00
  Q 299.61 120.00 233.56 120.00
  C 229.36 120.00 226.67 120.91 224.83 124.60
  Q 193.44 187.51 161.99 250.39
  Q 159.69 255.00 159.93 257.47
  Q 160.31 261.28 164.06 264.38" stroke="#62acb3"></path>
<path d="M 371.65 136.81
  L 295.56 247.48
  A 0.34 0.33 17.1 0 0 295.84 248.00
  L 306.16 248.03" stroke="#5ea6ab"></path>
<path d="M 347.23 264.53
  Q 251.85 344.00 156.62 423.37
  Q 153.25 426.17 148.30 423.71" stroke="#5ea6ab"></path>
<path d="M 204.76 280.83
  L 211.68 265.49
  A 0.56 0.56 0.0 0 0 211.17 264.70
  L 164.06 264.38" stroke="#5ea6ab"></path>
</g>
<path d="M 247.39 0.00
  L 264.51 0.00
  C 332.30 3.14 394.72 30.20 441.13 79.27
  Q 507.32 149.25 512.00 247.62
  L 512.00 264.73
  C 506.44 400.48 399.81 506.16 264.62 512.00
  L 247.26 512.00
  C 111.38 506.57 5.80 399.54 0.00 264.62
  L 0.00 247.25
  Q 4.16 155.78 62.88 87.88
  C 108.98 34.56 176.11 2.78 247.39 0.00
  Z
  M 164.06 264.38
  Q 160.93 265.79 160.02 270.72
  Q 158.90 276.80 163.18 279.37
  Q 165.52 280.78 171.06 280.76
  Q 187.83 280.71 204.76 280.83
  Q 175.27 346.16 145.91 411.15
  Q 144.00 415.37 144.08 417.60
  Q 144.25 421.71 148.30 423.71
  Q 144.62 427.35 144.02 432.00
  Q 143.20 438.30 149.86 440.33
  Q 153.94 441.58 156.20 439.70
  Q 251.25 360.49 346.30 281.28
  Q 349.97 278.22 350.92 275.66
  Q 353.13 269.72 347.23 264.53
  C 353.95 259.46 352.52 247.85 343.26 247.89
  Q 324.14 247.98 306.16 248.03
  Q 339.25 199.92 372.54 151.50
  Q 375.60 147.05 375.94 144.50
  Q 376.59 139.58 371.65 136.81
  C 375.00 132.25 379.26 125.39 372.57 121.33
  Q 370.37 120.00 365.66 120.00
  Q 299.61 120.00 233.56 120.00
  C 229.36 120.00 226.67 120.91 224.83 124.60
  Q 193.44 187.51 161.99 250.39
  Q 159.69 255.00 159.93 257.47
  Q 160.31 261.28 164.06 264.38
  Z" fill="#4f5d73"></path>
<path d="M 371.65 136.81
  L 295.56 247.48
  A 0.34 0.33 17.1 0 0 295.84 248.00
  L 306.16 248.03
  Q 324.14 247.98 343.26 247.89
  C 352.52 247.85 353.95 259.46 347.23 264.53
  Q 251.85 344.00 156.62 423.37
  Q 153.25 426.17 148.30 423.71
  Q 144.25 421.71 144.08 417.60
  Q 144.00 415.37 145.91 411.15
  Q 175.27 346.16 204.76 280.83
  L 211.68 265.49
  A 0.56 0.56 0.0 0 0 211.17 264.70
  L 164.06 264.38
  Q 160.31 261.28 159.93 257.47
  Q 159.69 255.00 161.99 250.39
  Q 193.44 187.51 224.83 124.60
  C 226.67 120.91 229.36 120.00 233.56 120.00
  Q 299.61 120.00 365.66 120.00
  Q 370.37 120.00 372.57 121.33
  C 379.26 125.39 375.00 132.25 371.65 136.81
  Z" fill="#75fbf3"></path>
<path d="M 371.65 136.81
  Q 376.59 139.58 375.94 144.50
  Q 375.60 147.05 372.54 151.50
  Q 339.25 199.92 306.16 248.03
  L 295.84 248.00
  A 0.34 0.33 17.1 0 1 295.56 247.48
  L 371.65 136.81
  Z" fill="#465162"></path>
<path d="M 164.06 264.38
  L 211.17 264.70
  A 0.56 0.56 0.0 0 1 211.68 265.49
  L 204.76 280.83
  Q 187.83 280.71 171.06 280.76
  Q 165.52 280.78 163.18 279.37
  Q 158.90 276.80 160.02 270.72
  Q 160.93 265.79 164.06 264.38
  Z" fill="#465162"></path>
<path d="M 347.23 264.53
  Q 353.13 269.72 350.92 275.66
  Q 349.97 278.22 346.30 281.28
  Q 251.25 360.49 156.20 439.70
  Q 153.94 441.58 149.86 440.33
  Q 143.20 438.30 144.02 432.00
  Q 144.62 427.35 148.30 423.71
  Q 153.25 426.17 156.62 423.37
  Q 251.85 344.00 347.23 264.53
  Z" fill="#465162"></path>
</svg>
