<svg viewBox="0.00 0.00 256.00 256.00" version="1.1" xmlns="http://www.w3.org/2000/svg">
<g stroke-linecap="butt" fill="none" stroke-width="2.00">
<path d="M 115.67 141.89
  Q 115.99 142.22 115.98 143.07
  Q 115.78 159.38 115.75 175.99
  A 1.89 1.89 0.0 0 0 117.63 177.88
  L 132.64 177.92
  A 2.99 2.99 0.0 0 0 135.60 175.42
  Q 138.55 157.91 141.71 140.72
  Q 142.10 138.57 143.96 137.47
  Q 157.02 129.68 170.08 121.89
  Q 171.79 120.87 173.48 121.34
  Q 186.52 124.91 200.74 129.93
  C 208.73 132.75 214.67 134.17 220.27 127.48
  C 221.26 126.30 222.32 125.73 223.44 124.86
  A 1.49 1.49 0.0 0 0 223.33 122.42
  L 167.34 86.72
  A 8.43 8.38 -25.7 0 0 163.65 85.44
  L 72.17 76.10
  A 4.05 4.03 20.0 0 0 68.43 77.83
  Q 56.67 94.94 44.13 112.27
  C 41.81 115.48 39.32 119.65 39.30 123.00
  Q 39.20 142.96 38.75 162.91
  Q 38.60 169.36 38.82 175.36
  A 2.08 2.07 89.7 0 0 40.84 177.36
  L 53.90 177.65
  A 3.53 3.52 -83.0 0 0 57.41 174.91
  L 65.06 141.38
  A 2.60 2.60 0.0 0 1 67.69 139.36
  L 113.90 141.17
  A 2.78 2.16 -15.8 0 1 115.67 141.89" stroke="#80d2c3"></path>
<path d="M 152.28 157.49
  Q 154.84 163.93 157.47 170.32
  C 159.83 176.03 160.69 179.56 166.98 179.66
  Q 171.06 179.73 175.03 179.44
  A 1.75 1.75 0.0 0 0 176.64 177.48
  L 170.39 128.49
  A 0.22 0.22 0.0 0 0 170.00 128.38
  Q 161.30 138.45 152.33 148.33
  C 149.21 151.76 150.58 153.20 152.28 157.49" stroke="#80d2c3"></path>
<path d="M 95.68 143.02
  Q 95.51 142.19 95.00 142.86
  C 91.86 146.99 88.52 151.08 84.74 154.76
  C 81.54 157.87 80.68 160.07 81.12 164.24
  C 82.00 172.46 84.77 176.61 93.43 176.79
  C 95.81 176.84 98.00 177.79 100.43 177.76
  A 1.92 1.91 84.0 0 0 102.28 175.47
  L 95.68 143.02" stroke="#80d2c3"></path>
</g>
<path d="M 26.06 0.00
  L 230.07 0.00
  Q 251.78 4.37 256.00 26.08
  L 256.00 230.05
  Q 251.64 251.78 229.93 256.00
  L 25.97 256.00
  Q 4.20 251.64 0.00 229.92
  L 0.00 25.98
  Q 4.32 4.25 26.06 0.00
  Z
  M 115.67 141.89
  Q 115.99 142.22 115.98 143.07
  Q 115.78 159.38 115.75 175.99
  A 1.89 1.89 0.0 0 0 117.63 177.88
  L 132.64 177.92
  A 2.99 2.99 0.0 0 0 135.60 175.42
  Q 138.55 157.91 141.71 140.72
  Q 142.10 138.57 143.96 137.47
  Q 157.02 129.68 170.08 121.89
  Q 171.79 120.87 173.48 121.34
  Q 186.52 124.91 200.74 129.93
  C 208.73 132.75 214.67 134.17 220.27 127.48
  C 221.26 126.30 222.32 125.73 223.44 124.86
  A 1.49 1.49 0.0 0 0 223.33 122.42
  L 167.34 86.72
  A 8.43 8.38 -25.7 0 0 163.65 85.44
  L 72.17 76.10
  A 4.05 4.03 20.0 0 0 68.43 77.83
  Q 56.67 94.94 44.13 112.27
  C 41.81 115.48 39.32 119.65 39.30 123.00
  Q 39.20 142.96 38.75 162.91
  Q 38.60 169.36 38.82 175.36
  A 2.08 2.07 89.7 0 0 40.84 177.36
  L 53.90 177.65
  A 3.53 3.52 -83.0 0 0 57.41 174.91
  L 65.06 141.38
  A 2.60 2.60 0.0 0 1 67.69 139.36
  L 113.90 141.17
  A 2.78 2.16 -15.8 0 1 115.67 141.89
  Z
  M 152.28 157.49
  Q 154.84 163.93 157.47 170.32
  C 159.83 176.03 160.69 179.56 166.98 179.66
  Q 171.06 179.73 175.03 179.44
  A 1.75 1.75 0.0 0 0 176.64 177.48
  L 170.39 128.49
  A 0.22 0.22 0.0 0 0 170.00 128.38
  Q 161.30 138.45 152.33 148.33
  C 149.21 151.76 150.58 153.20 152.28 157.49
  Z
  M 95.68 143.02
  Q 95.51 142.19 95.00 142.86
  C 91.86 146.99 88.52 151.08 84.74 154.76
  C 81.54 157.87 80.68 160.07 81.12 164.24
  C 82.00 172.46 84.77 176.61 93.43 176.79
  C 95.81 176.84 98.00 177.79 100.43 177.76
  A 1.92 1.91 84.0 0 0 102.28 175.47
  L 95.68 143.02
  Z" fill="#00a587"></path>
<path d="M 115.67 141.89
  A 2.78 2.16 -15.8 0 0 113.90 141.17
  L 67.69 139.36
  A 2.60 2.60 0.0 0 0 65.06 141.38
  L 57.41 174.91
  A 3.53 3.52 -83.0 0 1 53.90 177.65
  L 40.84 177.36
  A 2.08 2.07 89.7 0 1 38.82 175.36
  Q 38.60 169.36 38.75 162.91
  Q 39.20 142.96 39.30 123.00
  C 39.32 119.65 41.81 115.48 44.13 112.27
  Q 56.67 94.94 68.43 77.83
  A 4.05 4.03 20.0 0 1 72.17 76.10
  L 163.65 85.44
  A 8.43 8.38 -25.7 0 1 167.34 86.72
  L 223.33 122.42
  A 1.49 1.49 0.0 0 1 223.44 124.86
  C 222.32 125.73 221.26 126.30 220.27 127.48
  C 214.67 134.17 208.73 132.75 200.74 129.93
  Q 186.52 124.91 173.48 121.34
  Q 171.79 120.87 170.08 121.89
  Q 157.02 129.68 143.96 137.47
  Q 142.10 138.57 141.71 140.72
  Q 138.55 157.91 135.60 175.42
  A 2.99 2.99 0.0 0 1 132.64 177.92
  L 117.63 177.88
  A 1.89 1.89 0.0 0 1 115.75 175.99
  Q 115.78 159.38 115.98 143.07
  Q 115.99 142.22 115.67 141.89
  Z" fill="#ffffff"></path>
<path d="M 152.28 157.49
  C 150.58 153.20 149.21 151.76 152.33 148.33
  Q 161.30 138.45 170.00 128.38
  A 0.22 0.22 0.0 0 1 170.39 128.49
  L 176.64 177.48
  A 1.75 1.75 0.0 0 1 175.03 179.44
  Q 171.06 179.73 166.98 179.66
  C 160.69 179.56 159.83 176.03 157.47 170.32
  Q 154.84 163.93 152.28 157.49
  Z" fill="#ffffff"></path>
<path d="M 95.68 143.02
  L 102.28 175.47
  A 1.92 1.91 84.0 0 1 100.43 177.76
  C 98.00 177.79 95.81 176.84 93.43 176.79
  C 84.77 176.61 82.00 172.46 81.12 164.24
  C 80.68 160.07 81.54 157.87 84.74 154.76
  C 88.52 151.08 91.86 146.99 95.00 142.86
  Q 95.51 142.19 95.68 143.02
  Z" fill="#ffffff"></path>
</svg>
