<svg viewBox="0.00 0.00 192.00 192.00" version="1.1" xmlns="http://www.w3.org/2000/svg">
<path d="M 125.04 10.03
  L 130.03 11.35
  Q 130.73 11.54 130.73 12.26
  L 130.71 13.99
  A 0.85 0.85 0.0 0 1 129.74 14.81
  L 125.44 14.18
  Q 124.37 14.02 124.52 12.95
  Q 124.69 11.75 124.47 10.56
  A 0.46 0.46 0.0 0 1 125.04 10.03
  Z" fill="#1c203d"></path>
<path d="M 135.25 12.46
  L 141.32 14.98
  Q 141.78 15.17 141.41 15.50
  Q 140.55 16.29 140.45 17.51
  Q 140.39 18.33 139.62 18.03
  L 134.01 15.81
  Q 133.85 15.74 133.90 15.58
  L 134.88 12.63
  Q 134.97 12.34 135.25 12.46
  Z" fill="#1c203d"></path>
<rect rx="0.74" height="3.58" width="6.84" transform="translate(146.98,19.90) rotate(30.1)" y="-1.79" x="-3.42" fill="#1c203d"></rect>
<rect rx="0.52" height="3.54" width="7.00" transform="translate(155.33,26.18) rotate(42.9)" y="-1.77" x="-3.50" fill="#1c203d"></rect>
<rect rx="0.27" height="6.98" width="3.58" transform="translate(162.25,33.81) rotate(-39.7)" y="-3.49" x="-1.79" fill="#1c203d"></rect>
<rect rx="0.26" height="92.52" width="8.78" y="38.92" x="82.94" fill="#1c203d"></rect>
<path d="M 168.24 45.98
  L 165.37 40.94
  A 0.57 0.57 0.0 0 1 165.55 40.18
  L 167.37 39.00
  A 0.57 0.57 0.0 0 1 168.15 39.16
  L 171.24 43.75
  A 0.57 0.57 0.0 0 1 171.12 44.51
  L 169.09 46.14
  A 0.57 0.57 0.0 0 1 168.24 45.98
  Z" fill="#1c203d"></path>
<path d="M 149.00 47.82
  C 152.34 52.92 153.40 59.09 153.41 64.64
  Q 153.44 84.94 153.20 105.25
  Q 153.16 108.50 152.74 111.74
  C 151.60 120.57 146.67 128.26 138.09 130.55
  Q 135.16 131.34 129.32 131.39
  Q 118.81 131.49 108.37 131.41
  A 0.43 0.43 0.0 0 1 107.94 130.98
  L 107.94 39.27
  Q 107.94 38.95 108.26 38.95
  Q 117.94 38.86 127.65 38.96
  C 136.80 39.05 142.55 39.95 148.30 46.43
  C 148.71 46.90 148.69 47.36 149.00 47.82
  Z
  M 132.91 124.43
  C 142.89 123.15 144.29 112.75 144.29 104.75
  Q 144.30 83.97 144.27 63.19
  C 144.23 44.44 132.64 45.00 117.09 45.91
  Q 116.72 45.93 116.72 46.30
  L 116.72 124.48
  Q 116.72 124.94 117.18 124.94
  Q 123.27 124.93 129.35 124.95
  C 130.56 124.96 131.68 124.59 132.91 124.43
  Z" fill="#1c203d"></path>
<path d="M 22.60 39.62
  C 40.41 39.74 45.63 51.91 45.68 67.45
  Q 45.79 96.39 45.71 104.75
  Q 45.67 109.16 44.44 115.00
  Q 40.98 131.42 24.50 132.04
  Q 19.07 132.24 0.79 132.01
  Q 0.28 132.00 0.28 131.50
  L 0.28 40.02
  Q 0.28 39.58 0.72 39.58
  Q 11.68 39.54 22.60 39.62
  Z
  M 24.63 125.34
  C 34.71 123.67 36.59 114.86 36.58 106.00
  Q 36.56 86.47 36.58 66.93
  C 36.58 59.32 35.93 50.94 28.69 47.74
  C 23.98 45.66 15.32 46.37 9.40 46.41
  A 0.33 0.32 90.0 0 0 9.08 46.74
  L 9.07 125.08
  Q 9.07 125.59 9.58 125.59
  L 21.86 125.57
  Q 23.25 125.57 24.63 125.34
  Z" fill="#1c203d"></path>
<path d="M 172.81 55.35
  Q 172.63 55.48 172.40 55.53
  A 0.16 0.15 -14.5 0 1 172.22 55.43
  L 171.40 52.85
  A 0.43 0.32 -82.0 0 0 171.35 52.76
  Q 169.35 49.78 172.38 48.39
  Q 173.06 48.08 173.37 48.77
  L 175.41 53.26
  Q 176.27 55.14 174.20 55.06
  L 173.78 55.05
  Q 173.24 55.03 172.81 55.35
  Z" fill="#1c203d"></path>
<path d="M 173.38 59.63
  L 173.12 59.49
  A 0.46 0.45 55.3 0 1 173.27 58.64
  L 176.27 58.24
  Q 176.76 58.18 176.84 58.67
  L 177.79 64.27
  A 0.81 0.80 -84.7 0 1 176.72 65.16
  L 175.01 64.52
  Q 174.06 64.17 173.93 63.16
  L 173.47 59.75
  Q 173.46 59.67 173.38 59.63
  Z" fill="#1c203d"></path>
<path d="M 177.72 69.14
  L 176.92 75.18
  A 0.57 0.57 0.0 0 1 176.17 75.65
  L 173.82 74.85
  A 0.57 0.57 0.0 0 1 173.44 74.23
  L 174.16 69.20
  A 0.57 0.57 0.0 0 1 174.67 68.71
  L 177.10 68.50
  A 0.57 0.57 0.0 0 1 177.72 69.14
  Z" fill="#1c203d"></path>
<path d="M 171.39 77.51
  A 0.14 0.14 0.0 0 1 171.55 77.39
  L 171.59 77.40
  A 3.24 3.09 7.6 0 1 174.39 80.89
  L 173.96 84.12
  A 3.24 3.09 7.6 0 1 170.34 86.76
  L 170.30 86.75
  A 0.14 0.14 0.0 0 1 170.18 86.59
  L 171.39 77.51
  Z" fill="#1c203d"></path>
<rect rx="0.59" height="5.14" width="18.78" transform="translate(63.34,81.85) rotate(-0.2)" y="-2.57" x="-9.39" fill="#1c203d"></rect>
<rect rx="0.49" height="7.32" width="3.70" transform="translate(176.50,93.00) rotate(-33.5)" y="-3.66" x="-1.85" fill="#1c203d"></rect>
<rect rx="0.27" height="6.96" width="3.62" transform="translate(182.82,101.74) rotate(-37.3)" y="-3.48" x="-1.81" fill="#1c203d"></rect>
<path d="M 192.00 111.08
  L 192.00 113.06
  C 189.07 118.81 183.76 118.84 178.51 120.32
  A 1.40 1.37 -82.1 0 0 177.72 120.93
  C 175.57 124.42 180.05 127.43 179.19 131.72
  C 178.84 133.46 177.34 134.62 176.67 136.44
  Q 176.49 136.94 176.66 137.43
  C 177.67 140.50 175.95 143.81 175.01 146.66
  C 174.01 149.66 174.66 152.30 175.18 155.27
  C 176.43 162.42 173.37 167.83 166.22 169.32
  Q 152.94 172.09 139.41 172.81
  Q 138.91 172.84 138.48 173.08
  C 137.60 173.57 137.04 173.25 136.18 173.60
  Q 131.59 175.45 129.38 179.63
  A 0.27 0.27 0.0 0 1 128.98 179.72
  L 126.60 178.08
  Q 126.39 177.94 126.52 177.72
  Q 131.21 169.91 139.50 169.31
  Q 156.55 168.08 163.50 166.96
  C 168.36 166.18 172.67 162.51 171.96 157.24
  C 171.36 152.73 170.40 149.44 171.68 145.32
  C 172.52 142.59 174.14 139.98 172.71 137.01
  Q 172.48 136.54 172.65 136.04
  Q 173.34 134.09 175.17 132.19
  C 177.35 129.92 174.45 127.11 173.89 124.81
  C 172.86 120.55 175.85 116.79 180.04 116.08
  Q 184.15 115.39 186.36 114.74
  Q 186.86 114.59 187.05 114.11
  C 187.99 111.83 186.59 110.78 186.07 108.91
  Q 185.91 108.32 186.43 107.99
  L 188.04 106.97
  Q 188.56 106.64 188.87 107.18
  Q 190.17 109.44 192.00 111.08
  Z" fill="#1c203d"></path>
</svg>
