<svg viewBox="0.00 0.00 256.00 256.00" version="1.1" xmlns="http://www.w3.org/2000/svg">
<g stroke-linecap="butt" fill="none" stroke-width="2.00">
<path d="M 130.21 77.95
  Q 128.99 78.95 129.42 79.75
  A 0.78 0.77 -12.3 0 1 128.69 80.88
  Q 123.89 80.63 119.09 81.18
  C 111.94 82.00 104.78 82.98 97.65 82.97
  Q 94.37 82.97 91.33 83.19
  A 4.39 0.03 -4.1 0 0 87.42 83.50
  Q 84.02 84.03 79.25 83.71
  Q 78.84 83.68 77.89 84.15
  A 1.90 1.88 33.6 0 1 76.96 84.33
  Q 73.31 84.09 69.76 84.82
  C 68.10 85.15 66.45 85.17 64.77 85.53
  Q 64.42 85.60 64.24 85.30
  Q 63.70 84.41 61.37 83.77" stroke="#b963f5"></path>
<path d="M 254.46 66.47
  Q 254.13 66.65 253.61 66.46
  Q 253.31 66.35 253.41 66.66
  Q 253.50 66.92 253.73 67.06
  Q 254.14 67.30 253.68 67.42
  L 247.15 69.21
  Q 246.53 69.38 246.07 68.92
  Q 245.49 68.33 244.89 68.96
  A 0.54 0.53 -68.0 0 1 244.50 69.13
  L 238.98 69.20
  A 1.15 1.11 20.8 0 0 238.19 69.54
  Q 237.54 70.20 236.79 69.63
  A 0.45 0.44 35.0 0 0 236.14 69.74
  L 235.87 70.16
  Q 235.52 70.69 235.11 70.21
  Q 234.63 69.66 233.96 69.99
  Q 233.51 70.23 233.14 69.87
  Q 232.45 69.21 232.00 69.94
  A 0.69 0.68 -64.8 0 1 231.19 70.24
  Q 230.00 69.85 229.04 70.30
  Q 228.66 70.49 228.26 70.35
  Q 226.55 69.77 224.87 70.32
  Q 224.47 70.45 224.06 70.36
  Q 223.45 70.23 223.13 70.60
  A 0.58 0.57 -61.6 0 1 222.54 70.78
  Q 222.00 70.62 221.39 70.63
  Q 220.94 70.64 220.51 70.74
  Q 219.37 71.01 218.20 71.10
  C 216.15 71.27 214.08 72.13 211.90 72.05
  Q 211.46 72.03 211.06 72.23
  C 209.31 73.07 206.62 72.96 204.64 73.52
  Q 204.19 73.64 204.20 73.18
  Q 204.21 72.12 202.90 71.72" stroke="#b963f5"></path>
<path d="M 248.63 93.25
  Q 241.73 93.92 235.25 94.03
  C 234.24 94.04 233.31 94.35 232.40 94.34
  C 228.83 94.28 225.58 95.03 222.10 95.15
  C 213.98 95.45 205.96 96.59 197.83 96.96
  C 196.17 97.03 194.34 96.47 192.45 96.81
  Q 192.23 96.85 192.10 96.98
  Q 191.94 97.14 191.87 97.32
  Q 191.73 97.72 191.31 97.74
  L 174.57 98.47
  Q 174.04 98.49 173.58 98.73
  Q 172.82 99.11 171.92 98.74
  Q 171.46 98.54 170.96 98.64
  L 165.72 99.64
  Q 165.22 99.73 164.77 99.51
  Q 163.45 98.86 161.99 99.19
  Q 161.63 99.28 161.33 99.06
  Q 160.35 98.32 159.96 97.45" stroke="#a853ee"></path>
<path d="M 127.84 89.56
  Q 127.20 89.52 127.24 90.17
  Q 127.27 90.47 127.11 90.21
  Q 126.99 90.00 126.89 89.77
  A 0.21 0.19 74.8 0 0 126.68 89.64
  C 120.52 90.38 114.36 90.44 108.23 91.26
  C 103.89 91.84 100.55 91.52 96.00 91.86
  Q 85.61 92.66 69.85 93.17
  C 68.22 93.22 66.31 93.64 64.48 93.64
  Q 64.19 93.64 64.09 93.91
  Q 64.01 94.15 63.75 94.15
  Q 58.80 94.09 56.02 94.51
  Q 52.15 95.10 48.25 95.66
  Q 47.74 95.73 47.29 95.48
  Q 46.56 95.06 45.77 95.36
  Q 45.28 95.55 44.79 95.35
  Q 44.08 95.06 43.44 94.47" stroke="#a853ee"></path>
<path d="M 125.21 110.31
  Q 118.78 111.98 116.00 111.75
  Q 112.76 111.48 109.50 111.64
  Q 87.73 112.69 65.98 114.32
  C 65.02 114.39 64.05 114.08 63.02 114.37
  Q 60.69 115.02 58.35 114.43
  Q 57.87 114.30 57.39 114.44
  Q 52.27 115.87 50.01 115.74
  Q 46.86 115.56 44.71 115.98
  Q 41.04 116.69 40.40 116.69
  C 38.09 116.69 35.92 116.24 33.63 116.74
  Q 32.83 116.92 32.01 116.95
  L 28.83 117.06
  Q 28.47 117.08 28.20 117.31
  Q 27.90 117.58 27.59 117.32
  Q 27.32 117.09 26.97 117.09
  L 21.21 117.10
  Q 20.64 117.10 20.22 117.49
  Q 19.15 118.48 17.96 117.52
  A 0.62 0.62 0.0 0 0 17.06 117.65
  Q 16.50 118.45 15.95 117.66
  A 0.62 0.61 50.8 0 0 15.03 117.56
  Q 14.52 118.03 14.02 117.61
  Q 13.59 117.24 13.14 117.58
  Q 12.20 118.31 11.17 117.82
  Q 10.74 117.62 10.26 117.69
  L 8.19 117.99
  Q 7.71 118.06 7.34 117.73
  L 6.24 116.76" stroke="#9241e7"></path>
<path d="M 247.06 105.41
  Q 246.05 106.46 246.13 107.72
  A 1.15 1.15 0.0 0 1 244.23 108.67
  Q 243.53 108.06 242.59 108.37
  Q 241.46 108.73 241.11 108.76
  Q 235.31 109.13 229.51 109.60
  Q 222.60 110.16 215.67 110.58
  C 210.39 110.90 201.29 112.09 193.95 111.85
  A 1.89 1.88 -58.6 0 0 193.01 112.08
  C 191.97 112.64 190.75 112.20 189.85 112.33
  Q 185.98 112.91 183.00 112.76
  C 181.84 112.70 177.67 113.48 177.37 113.33
  Q 176.90 113.10 176.37 113.13
  L 151.52 114.88
  A 0.98 0.92 20.2 0 0 150.91 115.14
  Q 150.46 115.56 150.09 115.33
  Q 149.76 115.13 149.39 115.18
  C 147.33 115.46 144.98 115.29 143.26 115.43
  Q 138.13 115.87 133.00 116.38
  Q 131.53 116.53 130.41 115.10" stroke="#9241e7"></path>
<path d="M 246.15 119.96
  Q 245.61 120.18 245.62 120.80
  Q 245.62 121.10 245.34 121.05
  Q 245.15 121.02 244.98 121.07
  Q 244.87 121.10 244.87 121.01
  Q 244.87 120.90 244.87 120.76
  Q 244.87 120.68 244.80 120.69
  Q 239.65 120.97 234.50 120.96
  Q 232.33 120.95 230.24 121.58
  Q 229.47 121.81 228.91 121.55
  Q 228.48 121.35 228.02 121.48
  Q 225.55 122.17 223.07 121.92
  Q 222.59 121.88 222.24 122.19
  Q 221.75 122.63 221.15 122.57
  Q 220.43 122.51 220.33 122.52
  Q 211.10 123.19 201.85 123.50
  Q 201.36 123.51 200.92 123.74
  Q 200.56 123.92 200.18 123.88
  C 197.51 123.58 193.97 124.23 191.26 124.54
  Q 187.84 124.93 183.20 125.16
  C 179.24 125.37 175.74 125.82 171.26 126.15
  Q 167.81 126.40 163.51 127.12
  Q 161.87 127.40 159.82 126.96
  Q 159.37 126.86 158.97 127.11
  Q 157.39 128.11 155.78 127.30
  Q 155.30 127.06 154.78 127.21
  Q 151.00 128.34 147.02 127.79
  A 1.39 1.34 -56.1 0 0 146.10 127.99
  Q 144.88 128.79 143.57 128.18
  Q 143.09 127.96 142.76 128.38
  Q 142.39 128.88 142.05 128.32
  A 0.59 0.58 47.9 0 0 141.08 128.27
  Q 140.26 129.39 139.06 128.40
  Q 138.71 128.11 138.31 128.31
  Q 136.81 129.03 135.22 129.10
  Q 133.32 129.18 132.30 129.27
  Q 130.78 129.41 129.01 129.07
  Q 128.39 128.95 127.92 129.34
  Q 127.58 129.62 127.15 129.67
  Q 116.65 130.88 106.09 131.32
  Q 105.40 131.35 104.44 131.14
  C 102.96 130.82 101.77 131.72 100.39 131.63
  C 96.92 131.41 93.47 131.99 90.00 132.15
  Q 88.97 132.20 86.82 132.87
  Q 86.31 133.03 85.83 132.80
  Q 84.72 132.27 84.37 133.32
  Q 84.19 133.86 83.66 133.66
  Q 82.74 133.33 82.01 133.76
  A 1.37 1.27 24.6 0 1 81.46 133.94
  L 13.17 140.10" stroke="#7a30e1"></path>
<path d="M 246.02 128.08
  L 244.52 128.46
  Q 244.07 128.57 243.78 128.94
  Q 243.22 129.68 242.39 129.28
  Q 241.95 129.07 241.47 129.11
  Q 229.39 130.13 224.99 130.72
  Q 221.60 131.17 218.97 131.15
  A 1.61 1.61 0.0 0 0 218.25 131.32
  Q 217.37 131.77 216.47 131.50
  Q 215.94 131.34 215.41 131.48
  C 212.60 132.27 209.88 132.10 206.86 132.41
  Q 204.95 132.61 203.00 132.29
  Q 201.91 132.12 201.18 132.61
  Q 200.78 132.89 200.29 132.98
  Q 197.55 133.50 194.79 133.49
  Q 193.11 133.49 190.84 134.05
  Q 188.90 134.52 186.85 134.35
  Q 186.32 134.30 185.84 134.52
  Q 184.89 134.95 184.03 134.72
  Q 183.55 134.59 183.09 134.76
  C 180.82 135.58 178.40 135.46 176.18 135.69
  Q 174.36 135.89 172.50 135.82
  Q 172.25 135.81 172.01 135.85
  C 171.14 136.02 170.68 135.31 170.26 135.35
  Q 170.08 135.37 170.02 135.64
  Q 169.95 135.92 169.67 135.88
  Q 167.95 135.69 166.36 136.30
  Q 165.87 136.48 165.37 136.36
  C 163.52 135.89 161.69 136.55 160.25 136.65
  Q 156.70 136.91 150.50 137.87
  Q 143.10 139.01 131.98 138.84" stroke="#6824df"></path>
<path d="M 124.94 138.25
  Q 124.57 138.35 124.50 138.73
  A 0.13 0.13 0.0 0 1 124.26 138.77
  Q 124.21 138.65 124.16 138.53
  Q 124.05 138.26 123.85 138.47
  Q 123.38 138.96 122.50 139.13
  Q 117.72 140.05 114.28 140.38
  Q 105.56 141.23 96.82 141.82
  Q 96.45 141.85 96.17 142.08
  Q 95.98 142.24 95.74 142.29
  C 92.19 142.97 88.86 142.66 85.17 143.47
  C 84.13 143.69 83.52 143.31 82.44 143.54
  Q 81.02 143.86 80.49 143.85
  Q 75.79 143.81 71.14 144.50
  C 68.85 144.84 66.57 144.86 64.25 145.13
  Q 64.08 145.15 64.00 144.99
  Q 63.94 144.86 63.88 144.73
  A 0.39 0.37 75.6 0 0 63.49 144.49
  Q 57.54 145.18 51.56 145.13
  C 50.01 145.12 48.50 145.86 46.87 145.81
  C 41.16 145.64 35.53 146.31 31.00 146.39
  Q 30.48 146.40 30.09 146.57
  Q 29.67 146.74 29.22 146.69
  Q 27.73 146.51 26.28 146.98
  Q 26.05 147.06 26.22 147.23
  Q 26.32 147.33 26.43 147.43
  Q 26.69 147.69 26.36 147.86
  L 26.06 148.01" stroke="#6824df"></path>
<path d="M 246.90 146.38
  Q 245.63 146.42 244.46 146.99
  A 1.07 1.07 0.0 0 1 243.52 146.99
  Q 242.54 146.52 241.87 147.19
  Q 241.34 147.71 240.83 147.19
  Q 240.50 146.86 239.95 147.35
  Q 239.52 147.74 239.11 147.33
  Q 238.99 147.19 238.81 147.13
  Q 238.57 147.03 238.41 147.24
  Q 237.25 148.75 235.43 148.37
  Q 234.91 148.26 234.43 148.50
  Q 231.38 150.00 228.04 149.70
  Q 227.58 149.66 227.18 149.90
  Q 226.44 150.34 225.76 149.98
  A 0.89 0.85 -43.2 0 0 224.98 149.97
  C 223.21 150.83 221.43 150.34 220.01 150.48
  Q 211.81 151.32 203.53 151.70
  Q 203.02 151.72 202.62 152.03
  Q 201.56 152.84 199.78 152.66
  Q 196.67 152.36 190.76 153.80
  Q 190.49 153.87 190.24 153.76
  Q 189.92 153.62 189.58 153.67
  Q 179.67 155.08 169.65 155.42
  Q 169.25 155.43 168.88 155.61
  Q 168.24 155.92 167.75 155.61
  Q 167.29 155.32 166.78 155.52
  C 165.55 156.01 163.69 156.08 162.99 157.29" stroke="#5318dc"></path>
<path d="M 128.05 164.76
  Q 125.20 166.01 121.60 166.01
  Q 119.37 166.01 116.97 166.51
  Q 114.36 167.06 111.69 166.84
  C 110.04 166.70 108.69 167.35 106.95 167.09
  A 0.92 0.92 0.0 0 0 106.13 167.39
  Q 105.32 168.30 104.16 167.73
  Q 103.65 167.48 103.18 167.79
  Q 101.78 168.74 100.20 168.08
  A 0.90 0.90 0.0 0 0 99.21 168.27
  Q 98.74 168.76 98.25 168.53
  Q 97.74 168.29 97.21 168.46
  C 95.30 169.03 91.97 168.76 90.58 169.76
  Q 90.44 169.86 90.30 169.78
  Q 90.16 169.71 90.02 169.67
  Q 89.74 169.59 89.46 169.64
  L 80.94 171.13
  Q 80.79 171.16 80.64 171.19
  Q 78.97 171.53 77.30 171.14
  A 0.85 0.85 0.0 0 0 76.71 171.22
  C 75.59 171.81 74.68 171.36 73.77 171.43
  Q 69.89 171.72 65.97 171.92" stroke="#5318dc"></path>
</g>
<path d="M 130.21 77.95
  Q 128.99 78.95 129.42 79.75
  A 0.78 0.77 -12.3 0 1 128.69 80.88
  Q 123.89 80.63 119.09 81.18
  C 111.94 82.00 104.78 82.98 97.65 82.97
  Q 94.37 82.97 91.33 83.19
  A 4.39 0.03 -4.1 0 0 87.42 83.50
  Q 84.02 84.03 79.25 83.71
  Q 78.84 83.68 77.89 84.15
  A 1.90 1.88 33.6 0 1 76.96 84.33
  Q 73.31 84.09 69.76 84.82
  C 68.10 85.15 66.45 85.17 64.77 85.53
  Q 64.42 85.60 64.24 85.30
  Q 63.70 84.41 61.37 83.77
  Q 90.44 66.34 119.20 49.16
  C 124.66 45.89 132.94 49.75 134.29 56.11
  Q 134.84 58.65 133.61 63.81
  Q 131.93 70.89 130.21 77.95
  Z" fill="#c26cf9"></path>
<path d="M 256.00 56.88
  L 256.00 60.24
  L 254.46 66.47
  Q 254.13 66.65 253.61 66.46
  Q 253.31 66.35 253.41 66.66
  Q 253.50 66.92 253.73 67.06
  Q 254.14 67.30 253.68 67.42
  L 247.15 69.21
  Q 246.53 69.38 246.07 68.92
  Q 245.49 68.33 244.89 68.96
  A 0.54 0.53 -68.0 0 1 244.50 69.13
  L 238.98 69.20
  A 1.15 1.11 20.8 0 0 238.19 69.54
  Q 237.54 70.20 236.79 69.63
  A 0.45 0.44 35.0 0 0 236.14 69.74
  L 235.87 70.16
  Q 235.52 70.69 235.11 70.21
  Q 234.63 69.66 233.96 69.99
  Q 233.51 70.23 233.14 69.87
  Q 232.45 69.21 232.00 69.94
  A 0.69 0.68 -64.8 0 1 231.19 70.24
  Q 230.00 69.85 229.04 70.30
  Q 228.66 70.49 228.26 70.35
  Q 226.55 69.77 224.87 70.32
  Q 224.47 70.45 224.06 70.36
  Q 223.45 70.23 223.13 70.60
  A 0.58 0.57 -61.6 0 1 222.54 70.78
  Q 222.00 70.62 221.39 70.63
  Q 220.94 70.64 220.51 70.74
  Q 219.37 71.01 218.20 71.10
  C 216.15 71.27 214.08 72.13 211.90 72.05
  Q 211.46 72.03 211.06 72.23
  C 209.31 73.07 206.62 72.96 204.64 73.52
  Q 204.19 73.64 204.20 73.18
  Q 204.21 72.12 202.90 71.72
  Q 221.74 60.48 240.49 49.26
  C 246.91 45.41 254.26 50.21 256.00 56.88
  Z" fill="#c26cf9"></path>
<path d="M 254.46 66.47
  L 248.63 93.25
  Q 241.73 93.92 235.25 94.03
  C 234.24 94.04 233.31 94.35 232.40 94.34
  C 228.83 94.28 225.58 95.03 222.10 95.15
  C 213.98 95.45 205.96 96.59 197.83 96.96
  C 196.17 97.03 194.34 96.47 192.45 96.81
  Q 192.23 96.85 192.10 96.98
  Q 191.94 97.14 191.87 97.32
  Q 191.73 97.72 191.31 97.74
  L 174.57 98.47
  Q 174.04 98.49 173.58 98.73
  Q 172.82 99.11 171.92 98.74
  Q 171.46 98.54 170.96 98.64
  L 165.72 99.64
  Q 165.22 99.73 164.77 99.51
  Q 163.45 98.86 161.99 99.19
  Q 161.63 99.28 161.33 99.06
  Q 160.35 98.32 159.96 97.45
  L 202.90 71.72
  Q 204.21 72.12 204.20 73.18
  Q 204.19 73.64 204.64 73.52
  C 206.62 72.96 209.31 73.07 211.06 72.23
  Q 211.46 72.03 211.90 72.05
  C 214.08 72.13 216.15 71.27 218.20 71.10
  Q 219.37 71.01 220.51 70.74
  Q 220.94 70.64 221.39 70.63
  Q 222.00 70.62 222.54 70.78
  A 0.58 0.57 -61.6 0 0 223.13 70.60
  Q 223.45 70.23 224.06 70.36
  Q 224.47 70.45 224.87 70.32
  Q 226.55 69.77 228.26 70.35
  Q 228.66 70.49 229.04 70.30
  Q 230.00 69.85 231.19 70.24
  A 0.69 0.68 -64.8 0 0 232.00 69.94
  Q 232.45 69.21 233.14 69.87
  Q 233.51 70.23 233.96 69.99
  Q 234.63 69.66 235.11 70.21
  Q 235.52 70.69 235.87 70.16
  L 236.14 69.74
  A 0.45 0.44 35.0 0 1 236.79 69.63
  Q 237.54 70.20 238.19 69.54
  A 1.15 1.11 20.8 0 1 238.98 69.20
  L 244.50 69.13
  A 0.54 0.53 -68.0 0 0 244.89 68.96
  Q 245.49 68.33 246.07 68.92
  Q 246.53 69.38 247.15 69.21
  L 253.68 67.42
  Q 254.14 67.30 253.73 67.06
  Q 253.50 66.92 253.41 66.66
  Q 253.31 66.35 253.61 66.46
  Q 254.13 66.65 254.46 66.47
  Z" fill="#af5af1"></path>
<path d="M 130.21 77.95
  L 127.84 89.56
  Q 127.20 89.52 127.24 90.17
  Q 127.27 90.47 127.11 90.21
  Q 126.99 90.00 126.89 89.77
  A 0.21 0.19 74.8 0 0 126.68 89.64
  C 120.52 90.38 114.36 90.44 108.23 91.26
  C 103.89 91.84 100.55 91.52 96.00 91.86
  Q 85.61 92.66 69.85 93.17
  C 68.22 93.22 66.31 93.64 64.48 93.64
  Q 64.19 93.64 64.09 93.91
  Q 64.01 94.15 63.75 94.15
  Q 58.80 94.09 56.02 94.51
  Q 52.15 95.10 48.25 95.66
  Q 47.74 95.73 47.29 95.48
  Q 46.56 95.06 45.77 95.36
  Q 45.28 95.55 44.79 95.35
  Q 44.08 95.06 43.44 94.47
  L 61.37 83.77
  Q 63.70 84.41 64.24 85.30
  Q 64.42 85.60 64.77 85.53
  C 66.45 85.17 68.10 85.15 69.76 84.82
  Q 73.31 84.09 76.96 84.33
  A 1.90 1.88 33.6 0 0 77.89 84.15
  Q 78.84 83.68 79.25 83.71
  Q 84.02 84.03 87.42 83.50
  A 4.39 0.03 -4.1 0 1 91.33 83.19
  Q 94.37 82.97 97.65 82.97
  C 104.78 82.98 111.94 82.00 119.09 81.18
  Q 123.89 80.63 128.69 80.88
  A 0.78 0.77 -12.3 0 0 129.42 79.75
  Q 128.99 78.95 130.21 77.95
  Z" fill="#af5af1"></path>
<path d="M 127.84 89.56
  L 125.21 110.31
  Q 118.78 111.98 116.00 111.75
  Q 112.76 111.48 109.50 111.64
  Q 87.73 112.69 65.98 114.32
  C 65.02 114.39 64.05 114.08 63.02 114.37
  Q 60.69 115.02 58.35 114.43
  Q 57.87 114.30 57.39 114.44
  Q 52.27 115.87 50.01 115.74
  Q 46.86 115.56 44.71 115.98
  Q 41.04 116.69 40.40 116.69
  C 38.09 116.69 35.92 116.24 33.63 116.74
  Q 32.83 116.92 32.01 116.95
  L 28.83 117.06
  Q 28.47 117.08 28.20 117.31
  Q 27.90 117.58 27.59 117.32
  Q 27.32 117.09 26.97 117.09
  L 21.21 117.10
  Q 20.64 117.10 20.22 117.49
  Q 19.15 118.48 17.96 117.52
  A 0.62 0.62 0.0 0 0 17.06 117.65
  Q 16.50 118.45 15.95 117.66
  A 0.62 0.61 50.8 0 0 15.03 117.56
  Q 14.52 118.03 14.02 117.61
  Q 13.59 117.24 13.14 117.58
  Q 12.20 118.31 11.17 117.82
  Q 10.74 117.62 10.26 117.69
  L 8.19 117.99
  Q 7.71 118.06 7.34 117.73
  L 6.24 116.76
  L 43.44 94.47
  Q 44.08 95.06 44.79 95.35
  Q 45.28 95.55 45.77 95.36
  Q 46.56 95.06 47.29 95.48
  Q 47.74 95.73 48.25 95.66
  Q 52.15 95.10 56.02 94.51
  Q 58.80 94.09 63.75 94.15
  Q 64.01 94.15 64.09 93.91
  Q 64.19 93.64 64.48 93.64
  C 66.31 93.64 68.22 93.22 69.85 93.17
  Q 85.61 92.66 96.00 91.86
  C 100.55 91.52 103.89 91.84 108.23 91.26
  C 114.36 90.44 120.52 90.38 126.68 89.64
  A 0.21 0.19 74.8 0 1 126.89 89.77
  Q 126.99 90.00 127.11 90.21
  Q 127.27 90.47 127.24 90.17
  Q 127.20 89.52 127.84 89.56
  Z" fill="#a14ceb"></path>
<path d="M 248.63 93.25
  L 247.06 105.41
  Q 246.05 106.46 246.13 107.72
  A 1.15 1.15 0.0 0 1 244.23 108.67
  Q 243.53 108.06 242.59 108.37
  Q 241.46 108.73 241.11 108.76
  Q 235.31 109.13 229.51 109.60
  Q 222.60 110.16 215.67 110.58
  C 210.39 110.90 201.29 112.09 193.95 111.85
  A 1.89 1.88 -58.6 0 0 193.01 112.08
  C 191.97 112.64 190.75 112.20 189.85 112.33
  Q 185.98 112.91 183.00 112.76
  C 181.84 112.70 177.67 113.48 177.37 113.33
  Q 176.90 113.10 176.37 113.13
  L 151.52 114.88
  A 0.98 0.92 20.2 0 0 150.91 115.14
  Q 150.46 115.56 150.09 115.33
  Q 149.76 115.13 149.39 115.18
  C 147.33 115.46 144.98 115.29 143.26 115.43
  Q 138.13 115.87 133.00 116.38
  Q 131.53 116.53 130.41 115.10
  L 159.96 97.45
  Q 160.35 98.32 161.33 99.06
  Q 161.63 99.28 161.99 99.19
  Q 163.45 98.86 164.77 99.51
  Q 165.22 99.73 165.72 99.64
  L 170.96 98.64
  Q 171.46 98.54 171.92 98.74
  Q 172.82 99.11 173.58 98.73
  Q 174.04 98.49 174.57 98.47
  L 191.31 97.74
  Q 191.73 97.72 191.87 97.32
  Q 191.94 97.14 192.10 96.98
  Q 192.23 96.85 192.45 96.81
  C 194.34 96.47 196.17 97.03 197.83 96.96
  C 205.96 96.59 213.98 95.45 222.10 95.15
  C 225.58 95.03 228.83 94.28 232.40 94.34
  C 233.31 94.35 234.24 94.04 235.25 94.03
  Q 241.73 93.92 248.63 93.25
  Z" fill="#a14ceb"></path>
<path d="M 247.06 105.41
  L 246.15 119.96
  Q 245.61 120.18 245.62 120.80
  Q 245.62 121.10 245.34 121.05
  Q 245.15 121.02 244.98 121.07
  Q 244.87 121.10 244.87 121.01
  Q 244.87 120.90 244.87 120.76
  Q 244.87 120.68 244.80 120.69
  Q 239.65 120.97 234.50 120.96
  Q 232.33 120.95 230.24 121.58
  Q 229.47 121.81 228.91 121.55
  Q 228.48 121.35 228.02 121.48
  Q 225.55 122.17 223.07 121.92
  Q 222.59 121.88 222.24 122.19
  Q 221.75 122.63 221.15 122.57
  Q 220.43 122.51 220.33 122.52
  Q 211.10 123.19 201.85 123.50
  Q 201.36 123.51 200.92 123.74
  Q 200.56 123.92 200.18 123.88
  C 197.51 123.58 193.97 124.23 191.26 124.54
  Q 187.84 124.93 183.20 125.16
  C 179.24 125.37 175.74 125.82 171.26 126.15
  Q 167.81 126.40 163.51 127.12
  Q 161.87 127.40 159.82 126.96
  Q 159.37 126.86 158.97 127.11
  Q 157.39 128.11 155.78 127.30
  Q 155.30 127.06 154.78 127.21
  Q 151.00 128.34 147.02 127.79
  A 1.39 1.34 -56.1 0 0 146.10 127.99
  Q 144.88 128.79 143.57 128.18
  Q 143.09 127.96 142.76 128.38
  Q 142.39 128.88 142.05 128.32
  A 0.59 0.58 47.9 0 0 141.08 128.27
  Q 140.26 129.39 139.06 128.40
  Q 138.71 128.11 138.31 128.31
  Q 136.81 129.03 135.22 129.10
  Q 133.32 129.18 132.30 129.27
  Q 130.78 129.41 129.01 129.07
  Q 128.39 128.95 127.92 129.34
  Q 127.58 129.62 127.15 129.67
  Q 116.65 130.88 106.09 131.32
  Q 105.40 131.35 104.44 131.14
  C 102.96 130.82 101.77 131.72 100.39 131.63
  C 96.92 131.41 93.47 131.99 90.00 132.15
  Q 88.97 132.20 86.82 132.87
  Q 86.31 133.03 85.83 132.80
  Q 84.72 132.27 84.37 133.32
  Q 84.19 133.86 83.66 133.66
  Q 82.74 133.33 82.01 133.76
  A 1.37 1.27 24.6 0 1 81.46 133.94
  L 13.17 140.10
  Q 9.53 138.41 4.73 135.23
  Q 0.90 132.69 0.00 127.86
  L 0.00 124.77
  Q 1.35 119.13 6.24 116.76
  L 7.34 117.73
  Q 7.71 118.06 8.19 117.99
  L 10.26 117.69
  Q 10.74 117.62 11.17 117.82
  Q 12.20 118.31 13.14 117.58
  Q 13.59 117.24 14.02 117.61
  Q 14.52 118.03 15.03 117.56
  A 0.62 0.61 50.8 0 1 15.95 117.66
  Q 16.50 118.45 17.06 117.65
  A 0.62 0.62 0.0 0 1 17.96 117.52
  Q 19.15 118.48 20.22 117.49
  Q 20.64 117.10 21.21 117.10
  L 26.97 117.09
  Q 27.32 117.09 27.59 117.32
  Q 27.90 117.58 28.20 117.31
  Q 28.47 117.08 28.83 117.06
  L 32.01 116.95
  Q 32.83 116.92 33.63 116.74
  C 35.92 116.24 38.09 116.69 40.40 116.69
  Q 41.04 116.69 44.71 115.98
  Q 46.86 115.56 50.01 115.74
  Q 52.27 115.87 57.39 114.44
  Q 57.87 114.30 58.35 114.43
  Q 60.69 115.02 63.02 114.37
  C 64.05 114.08 65.02 114.39 65.98 114.32
  Q 87.73 112.69 109.50 111.64
  Q 112.76 111.48 116.00 111.75
  Q 118.78 111.98 125.21 110.31
  L 124.81 117.96
  Q 124.79 118.52 125.26 118.23
  L 130.41 115.10
  Q 131.53 116.53 133.00 116.38
  Q 138.13 115.87 143.26 115.43
  C 144.98 115.29 147.33 115.46 149.39 115.18
  Q 149.76 115.13 150.09 115.33
  Q 150.46 115.56 150.91 115.14
  A 0.98 0.92 20.2 0 1 151.52 114.88
  L 176.37 113.13
  Q 176.90 113.10 177.37 113.33
  C 177.67 113.48 181.84 112.70 183.00 112.76
  Q 185.98 112.91 189.85 112.33
  C 190.75 112.20 191.97 112.64 193.01 112.08
  A 1.89 1.88 -58.6 0 1 193.95 111.85
  C 201.29 112.09 210.39 110.90 215.67 110.58
  Q 222.60 110.16 229.51 109.60
  Q 235.31 109.13 241.11 108.76
  Q 241.46 108.73 242.59 108.37
  Q 243.53 108.06 244.23 108.67
  A 1.15 1.15 0.0 0 0 246.13 107.72
  Q 246.05 106.46 247.06 105.41
  Z" fill="#8236e2"></path>
<path d="M 246.15 119.96
  L 246.02 128.08
  L 244.52 128.46
  Q 244.07 128.57 243.78 128.94
  Q 243.22 129.68 242.39 129.28
  Q 241.95 129.07 241.47 129.11
  Q 229.39 130.13 224.99 130.72
  Q 221.60 131.17 218.97 131.15
  A 1.61 1.61 0.0 0 0 218.25 131.32
  Q 217.37 131.77 216.47 131.50
  Q 215.94 131.34 215.41 131.48
  C 212.60 132.27 209.88 132.10 206.86 132.41
  Q 204.95 132.61 203.00 132.29
  Q 201.91 132.12 201.18 132.61
  Q 200.78 132.89 200.29 132.98
  Q 197.55 133.50 194.79 133.49
  Q 193.11 133.49 190.84 134.05
  Q 188.90 134.52 186.85 134.35
  Q 186.32 134.30 185.84 134.52
  Q 184.89 134.95 184.03 134.72
  Q 183.55 134.59 183.09 134.76
  C 180.82 135.58 178.40 135.46 176.18 135.69
  Q 174.36 135.89 172.50 135.82
  Q 172.25 135.81 172.01 135.85
  C 171.14 136.02 170.68 135.31 170.26 135.35
  Q 170.08 135.37 170.02 135.64
  Q 169.95 135.92 169.67 135.88
  Q 167.95 135.69 166.36 136.30
  Q 165.87 136.48 165.37 136.36
  C 163.52 135.89 161.69 136.55 160.25 136.65
  Q 156.70 136.91 150.50 137.87
  Q 143.10 139.01 131.98 138.84
  L 125.28 134.74
  Q 124.77 134.43 124.80 135.02
  L 124.94 138.25
  Q 124.57 138.35 124.50 138.73
  A 0.13 0.13 0.0 0 1 124.26 138.77
  Q 124.21 138.65 124.16 138.53
  Q 124.05 138.26 123.85 138.47
  Q 123.38 138.96 122.50 139.13
  Q 117.72 140.05 114.28 140.38
  Q 105.56 141.23 96.82 141.82
  Q 96.45 141.85 96.17 142.08
  Q 95.98 142.24 95.74 142.29
  C 92.19 142.97 88.86 142.66 85.17 143.47
  C 84.13 143.69 83.52 143.31 82.44 143.54
  Q 81.02 143.86 80.49 143.85
  Q 75.79 143.81 71.14 144.50
  C 68.85 144.84 66.57 144.86 64.25 145.13
  Q 64.08 145.15 64.00 144.99
  Q 63.94 144.86 63.88 144.73
  A 0.39 0.37 75.6 0 0 63.49 144.49
  Q 57.54 145.18 51.56 145.13
  C 50.01 145.12 48.50 145.86 46.87 145.81
  C 41.16 145.64 35.53 146.31 31.00 146.39
  Q 30.48 146.40 30.09 146.57
  Q 29.67 146.74 29.22 146.69
  Q 27.73 146.51 26.28 146.98
  Q 26.05 147.06 26.22 147.23
  Q 26.32 147.33 26.43 147.43
  Q 26.69 147.69 26.36 147.86
  L 26.06 148.01
  L 13.17 140.10
  L 81.46 133.94
  A 1.37 1.27 24.6 0 0 82.01 133.76
  Q 82.74 133.33 83.66 133.66
  Q 84.19 133.86 84.37 133.32
  Q 84.72 132.27 85.83 132.80
  Q 86.31 133.03 86.82 132.87
  Q 88.97 132.20 90.00 132.15
  C 93.47 131.99 96.92 131.41 100.39 131.63
  C 101.77 131.72 102.96 130.82 104.44 131.14
  Q 105.40 131.35 106.09 131.32
  Q 116.65 130.88 127.15 129.67
  Q 127.58 129.62 127.92 129.34
  Q 128.39 128.95 129.01 129.07
  Q 130.78 129.41 132.30 129.27
  Q 133.32 129.18 135.22 129.10
  Q 136.81 129.03 138.31 128.31
  Q 138.71 128.11 139.06 128.40
  Q 140.26 129.39 141.08 128.27
  A 0.59 0.58 47.9 0 1 142.05 128.32
  Q 142.39 128.88 142.76 128.38
  Q 143.09 127.96 143.57 128.18
  Q 144.88 128.79 146.10 127.99
  A 1.39 1.34 -56.1 0 1 147.02 127.79
  Q 151.00 128.34 154.78 127.21
  Q 155.30 127.06 155.78 127.30
  Q 157.39 128.11 158.97 127.11
  Q 159.37 126.86 159.82 126.96
  Q 161.87 127.40 163.51 127.12
  Q 167.81 126.40 171.26 126.15
  C 175.74 125.82 179.24 125.37 183.20 125.16
  Q 187.84 124.93 191.26 124.54
  C 193.97 124.23 197.51 123.58 200.18 123.88
  Q 200.56 123.92 200.92 123.74
  Q 201.36 123.51 201.85 123.50
  Q 211.10 123.19 220.33 122.52
  Q 220.43 122.51 221.15 122.57
  Q 221.75 122.63 222.24 122.19
  Q 222.59 121.88 223.07 121.92
  Q 225.55 122.17 228.02 121.48
  Q 228.48 121.35 228.91 121.55
  Q 229.47 121.81 230.24 121.58
  Q 232.33 120.95 234.50 120.96
  Q 239.65 120.97 244.80 120.69
  Q 244.87 120.68 244.87 120.76
  Q 244.87 120.90 244.87 121.01
  Q 244.87 121.10 244.98 121.07
  Q 245.15 121.02 245.34 121.05
  Q 245.62 121.10 245.62 120.80
  Q 245.61 120.18 246.15 119.96
  Z" fill="#712adf"></path>
<path d="M 246.02 128.08
  L 246.90 146.38
  Q 245.63 146.42 244.46 146.99
  A 1.07 1.07 0.0 0 1 243.52 146.99
  Q 242.54 146.52 241.87 147.19
  Q 241.34 147.71 240.83 147.19
  Q 240.50 146.86 239.95 147.35
  Q 239.52 147.74 239.11 147.33
  Q 238.99 147.19 238.81 147.13
  Q 238.57 147.03 238.41 147.24
  Q 237.25 148.75 235.43 148.37
  Q 234.91 148.26 234.43 148.50
  Q 231.38 150.00 228.04 149.70
  Q 227.58 149.66 227.18 149.90
  Q 226.44 150.34 225.76 149.98
  A 0.89 0.85 -43.2 0 0 224.98 149.97
  C 223.21 150.83 221.43 150.34 220.01 150.48
  Q 211.81 151.32 203.53 151.70
  Q 203.02 151.72 202.62 152.03
  Q 201.56 152.84 199.78 152.66
  Q 196.67 152.36 190.76 153.80
  Q 190.49 153.87 190.24 153.76
  Q 189.92 153.62 189.58 153.67
  Q 179.67 155.08 169.65 155.42
  Q 169.25 155.43 168.88 155.61
  Q 168.24 155.92 167.75 155.61
  Q 167.29 155.32 166.78 155.52
  C 165.55 156.01 163.69 156.08 162.99 157.29
  L 131.98 138.84
  Q 143.10 139.01 150.50 137.87
  Q 156.70 136.91 160.25 136.65
  C 161.69 136.55 163.52 135.89 165.37 136.36
  Q 165.87 136.48 166.36 136.30
  Q 167.95 135.69 169.67 135.88
  Q 169.95 135.92 170.02 135.64
  Q 170.08 135.37 170.26 135.35
  C 170.68 135.31 171.14 136.02 172.01 135.85
  Q 172.25 135.81 172.50 135.82
  Q 174.36 135.89 176.18 135.69
  C 178.40 135.46 180.82 135.58 183.09 134.76
  Q 183.55 134.59 184.03 134.72
  Q 184.89 134.95 185.84 134.52
  Q 186.32 134.30 186.85 134.35
  Q 188.90 134.52 190.84 134.05
  Q 193.11 133.49 194.79 133.49
  Q 197.55 133.50 200.29 132.98
  Q 200.78 132.89 201.18 132.61
  Q 201.91 132.12 203.00 132.29
  Q 204.95 132.61 206.86 132.41
  C 209.88 132.10 212.60 132.27 215.41 131.48
  Q 215.94 131.34 216.47 131.50
  Q 217.37 131.77 218.25 131.32
  A 1.61 1.61 0.0 0 1 218.97 131.15
  Q 221.60 131.17 224.99 130.72
  Q 229.39 130.13 241.47 129.11
  Q 241.95 129.07 242.39 129.28
  Q 243.22 129.68 243.78 128.94
  Q 244.07 128.57 244.52 128.46
  L 246.02 128.08
  Z" fill="#5f1ede"></path>
<path d="M 124.94 138.25
  Q 125.69 151.20 128.05 164.76
  Q 125.20 166.01 121.60 166.01
  Q 119.37 166.01 116.97 166.51
  Q 114.36 167.06 111.69 166.84
  C 110.04 166.70 108.69 167.35 106.95 167.09
  A 0.92 0.92 0.0 0 0 106.13 167.39
  Q 105.32 168.30 104.16 167.73
  Q 103.65 167.48 103.18 167.79
  Q 101.78 168.74 100.20 168.08
  A 0.90 0.90 0.0 0 0 99.21 168.27
  Q 98.74 168.76 98.25 168.53
  Q 97.74 168.29 97.21 168.46
  C 95.30 169.03 91.97 168.76 90.58 169.76
  Q 90.44 169.86 90.30 169.78
  Q 90.16 169.71 90.02 169.67
  Q 89.74 169.59 89.46 169.64
  L 80.94 171.13
  Q 80.79 171.16 80.64 171.19
  Q 78.97 171.53 77.30 171.14
  A 0.85 0.85 0.0 0 0 76.71 171.22
  C 75.59 171.81 74.68 171.36 73.77 171.43
  Q 69.89 171.72 65.97 171.92
  L 26.06 148.01
  L 26.36 147.86
  Q 26.69 147.69 26.43 147.43
  Q 26.32 147.33 26.22 147.23
  Q 26.05 147.06 26.28 146.98
  Q 27.73 146.51 29.22 146.69
  Q 29.67 146.74 30.09 146.57
  Q 30.48 146.40 31.00 146.39
  C 35.53 146.31 41.16 145.64 46.87 145.81
  C 48.50 145.86 50.01 145.12 51.56 145.13
  Q 57.54 145.18 63.49 144.49
  A 0.39 0.37 75.6 0 1 63.88 144.73
  Q 63.94 144.86 64.00 144.99
  Q 64.08 145.15 64.25 145.13
  C 66.57 144.86 68.85 144.84 71.14 144.50
  Q 75.79 143.81 80.49 143.85
  Q 81.02 143.86 82.44 143.54
  C 83.52 143.31 84.13 143.69 85.17 143.47
  C 88.86 142.66 92.19 142.97 95.74 142.29
  Q 95.98 142.24 96.17 142.08
  Q 96.45 141.85 96.82 141.82
  Q 105.56 141.23 114.28 140.38
  Q 117.72 140.05 122.50 139.13
  Q 123.38 138.96 123.85 138.47
  Q 124.05 138.26 124.16 138.53
  Q 124.21 138.65 124.26 138.77
  A 0.13 0.13 0.0 0 0 124.50 138.73
  Q 124.57 138.35 124.94 138.25
  Z" fill="#5f1ede"></path>
<path d="M 246.90 146.38
  Q 249.60 169.69 256.00 192.60
  L 256.00 196.22
  C 254.55 201.35 250.13 205.28 244.81 204.86
  Q 242.25 204.66 237.72 201.96
  Q 200.31 179.70 162.99 157.29
  C 163.69 156.08 165.55 156.01 166.78 155.52
  Q 167.29 155.32 167.75 155.61
  Q 168.24 155.92 168.88 155.61
  Q 169.25 155.43 169.65 155.42
  Q 179.67 155.08 189.58 153.67
  Q 189.92 153.62 190.24 153.76
  Q 190.49 153.87 190.76 153.80
  Q 196.67 152.36 199.78 152.66
  Q 201.56 152.84 202.62 152.03
  Q 203.02 151.72 203.53 151.70
  Q 211.81 151.32 220.01 150.48
  C 221.43 150.34 223.21 150.83 224.98 149.97
  A 0.89 0.85 -43.2 0 1 225.76 149.98
  Q 226.44 150.34 227.18 149.90
  Q 227.58 149.66 228.04 149.70
  Q 231.38 150.00 234.43 148.50
  Q 234.91 148.26 235.43 148.37
  Q 237.25 148.75 238.41 147.24
  Q 238.57 147.03 238.81 147.13
  Q 238.99 147.19 239.11 147.33
  Q 239.52 147.74 239.95 147.35
  Q 240.50 146.86 240.83 147.19
  Q 241.34 147.71 241.87 147.19
  Q 242.54 146.52 243.52 146.99
  A 1.07 1.07 0.0 0 0 244.46 146.99
  Q 245.63 146.42 246.90 146.38
  Z" fill="#4712da"></path>
<path d="M 128.05 164.76
  Q 130.51 176.58 133.56 188.87
  Q 134.86 194.13 134.29 196.72
  C 133.13 201.95 127.33 205.84 122.00 204.72
  Q 120.09 204.32 115.75 201.72
  Q 90.89 186.81 65.97 171.92
  Q 69.89 171.72 73.77 171.43
  C 74.68 171.36 75.59 171.81 76.71 171.22
  A 0.85 0.85 0.0 0 1 77.30 171.14
  Q 78.97 171.53 80.64 171.19
  Q 80.79 171.16 80.94 171.13
  L 89.46 169.64
  Q 89.74 169.59 90.02 169.67
  Q 90.16 169.71 90.30 169.78
  Q 90.44 169.86 90.58 169.76
  C 91.97 168.76 95.30 169.03 97.21 168.46
  Q 97.74 168.29 98.25 168.53
  Q 98.74 168.76 99.21 168.27
  A 0.90 0.90 0.0 0 1 100.20 168.08
  Q 101.78 168.74 103.18 167.79
  Q 103.65 167.48 104.16 167.73
  Q 105.32 168.30 106.13 167.39
  A 0.92 0.92 0.0 0 1 106.95 167.09
  C 108.69 167.35 110.04 166.70 111.69 166.84
  Q 114.36 167.06 116.97 166.51
  Q 119.37 166.01 121.60 166.01
  Q 125.20 166.01 128.05 164.76
  Z" fill="#4712da"></path>
</svg>
