<svg viewBox="0.00 0.00 180.00 180.00" version="1.1" xmlns="http://www.w3.org/2000/svg">
<g stroke-linecap="butt" fill="none" stroke-width="2.00">
<path d="M 162.31 68.79
  A 5.54 5.54 0.0 0 0 156.77 63.25
  A 5.54 5.54 0.0 0 0 151.23 68.79
  A 5.54 5.54 0.0 0 0 156.77 74.33
  A 5.54 5.54 0.0 0 0 162.31 68.79" stroke="#9dbbfd"></path>
<path d="M 52.99 104.62
  L 55.91 112.20
  A 1.23 1.22 -10.3 0 0 57.06 112.99
  L 67.26 113.00
  A 0.51 0.51 0.0 0 0 67.73 112.28
  Q 58.18 90.75 48.61 69.30
  C 47.99 67.91 47.70 66.36 45.98 66.09
  Q 43.07 65.62 38.86 66.17
  Q 38.37 66.23 38.17 66.68
  L 17.99 112.07
  A 0.67 0.66 11.9 0 0 18.60 113.00
  L 28.48 112.99
  A 1.45 1.44 10.2 0 0 29.83 112.06
  L 32.28 105.44
  A 2.18 2.16 10.0 0 1 34.32 104.02
  L 52.11 104.01
  A 0.94 0.94 0.0 0 1 52.99 104.62" stroke="#9dbbfd"></path>
<path d="M 137.97 110.02
  L 138.02 112.01
  Q 138.04 112.98 139.01 112.98
  L 146.32 113.00
  Q 147.15 113.00 147.15 112.18
  L 147.18 66.85
  Q 147.18 66.00 146.33 66.00
  L 138.52 66.01
  Q 137.81 66.01 137.81 66.73
  L 137.84 79.48
  Q 137.84 80.27 137.15 79.89
  C 135.90 79.21 134.76 78.34 133.55 77.94
  C 113.06 71.21 99.11 98.46 117.15 110.64
  C 120.42 112.85 122.84 113.01 126.75 113.10
  C 131.79 113.21 134.21 113.18 137.51 109.83
  Q 137.96 109.37 137.97 110.02" stroke="#9dbbfd"></path>
<path d="M 89.46 86.00
  C 93.76 86.55 96.31 89.51 96.65 93.69
  Q 97.27 101.24 96.94 112.39
  Q 96.92 112.99 97.53 112.99
  L 105.80 113.00
  Q 106.46 113.00 106.47 112.34
  Q 106.65 103.92 106.34 94.65
  C 106.02 85.42 100.38 78.66 91.46 77.05
  Q 86.51 76.16 82.05 77.81
  C 67.68 83.12 69.86 98.07 70.02 112.25
  Q 70.03 113.00 70.78 113.00
  L 79.21 113.00
  Q 79.99 113.00 79.99 112.23
  Q 80.01 105.52 79.98 98.41
  C 79.95 91.55 80.98 84.92 89.46 86.00" stroke="#9dbbfd"></path>
<path d="M 161.94 78.61
  A 0.62 0.62 0.0 0 0 161.32 77.99
  L 152.60 77.99
  A 0.62 0.62 0.0 0 0 151.98 78.61
  L 151.98 112.37
  A 0.62 0.62 0.0 0 0 152.60 112.99
  L 161.32 112.99
  A 0.62 0.62 0.0 0 0 161.94 112.37
  L 161.94 78.61" stroke="#9dbbfd"></path>
<path d="M 36.49 95.60
  A 0.32 0.32 0.0 0 0 36.79 96.04
  L 48.88 96.06
  A 0.32 0.32 0.0 0 0 49.17 95.62
  L 43.15 80.65
  A 0.32 0.32 0.0 0 0 42.56 80.65
  L 36.49 95.60" stroke="#9dbbfd"></path>
<path d="M 120.37 102.17
  L 119.15 104.69
  Q 118.84 105.34 119.54 105.17
  L 123.41 104.23
  A 1.40 1.38 47.5 0 1 124.24 104.27
  C 138.60 109.54 143.49 88.02 129.99 86.01
  C 120.62 84.62 116.44 92.99 120.37 101.13
  A 1.20 1.20 0.0 0 1 120.37 102.17" stroke="#9dbbfd"></path>
</g>
<path d="M 0.00 0.00
  L 180.00 0.00
  L 180.00 180.00
  L 0.00 180.00
  L 0.00 0.00
  Z
  M 162.31 68.79
  A 5.54 5.54 0.0 0 0 156.77 63.25
  A 5.54 5.54 0.0 0 0 151.23 68.79
  A 5.54 5.54 0.0 0 0 156.77 74.33
  A 5.54 5.54 0.0 0 0 162.31 68.79
  Z
  M 52.99 104.62
  L 55.91 112.20
  A 1.23 1.22 -10.3 0 0 57.06 112.99
  L 67.26 113.00
  A 0.51 0.51 0.0 0 0 67.73 112.28
  Q 58.18 90.75 48.61 69.30
  C 47.99 67.91 47.70 66.36 45.98 66.09
  Q 43.07 65.62 38.86 66.17
  Q 38.37 66.23 38.17 66.68
  L 17.99 112.07
  A 0.67 0.66 11.9 0 0 18.60 113.00
  L 28.48 112.99
  A 1.45 1.44 10.2 0 0 29.83 112.06
  L 32.28 105.44
  A 2.18 2.16 10.0 0 1 34.32 104.02
  L 52.11 104.01
  A 0.94 0.94 0.0 0 1 52.99 104.62
  Z
  M 137.97 110.02
  L 138.02 112.01
  Q 138.04 112.98 139.01 112.98
  L 146.32 113.00
  Q 147.15 113.00 147.15 112.18
  L 147.18 66.85
  Q 147.18 66.00 146.33 66.00
  L 138.52 66.01
  Q 137.81 66.01 137.81 66.73
  L 137.84 79.48
  Q 137.84 80.27 137.15 79.89
  C 135.90 79.21 134.76 78.34 133.55 77.94
  C 113.06 71.21 99.11 98.46 117.15 110.64
  C 120.42 112.85 122.84 113.01 126.75 113.10
  C 131.79 113.21 134.21 113.18 137.51 109.83
  Q 137.96 109.37 137.97 110.02
  Z
  M 89.46 86.00
  C 93.76 86.55 96.31 89.51 96.65 93.69
  Q 97.27 101.24 96.94 112.39
  Q 96.92 112.99 97.53 112.99
  L 105.80 113.00
  Q 106.46 113.00 106.47 112.34
  Q 106.65 103.92 106.34 94.65
  C 106.02 85.42 100.38 78.66 91.46 77.05
  Q 86.51 76.16 82.05 77.81
  C 67.68 83.12 69.86 98.07 70.02 112.25
  Q 70.03 113.00 70.78 113.00
  L 79.21 113.00
  Q 79.99 113.00 79.99 112.23
  Q 80.01 105.52 79.98 98.41
  C 79.95 91.55 80.98 84.92 89.46 86.00
  Z
  M 161.94 78.61
  A 0.62 0.62 0.0 0 0 161.32 77.99
  L 152.60 77.99
  A 0.62 0.62 0.0 0 0 151.98 78.61
  L 151.98 112.37
  A 0.62 0.62 0.0 0 0 152.60 112.99
  L 161.32 112.99
  A 0.62 0.62 0.0 0 0 161.94 112.37
  L 161.94 78.61
  Z" fill="#ffffff"></path>
<circle r="5.54" cy="68.79" cx="156.77" fill="#3a76fa"></circle>
<path d="M 52.11 104.01
  L 34.32 104.02
  A 2.18 2.16 10.0 0 0 32.28 105.44
  L 29.83 112.06
  A 1.45 1.44 10.2 0 1 28.48 112.99
  L 18.60 113.00
  A 0.67 0.66 11.9 0 1 17.99 112.07
  L 38.17 66.68
  Q 38.37 66.23 38.86 66.17
  Q 43.07 65.62 45.98 66.09
  C 47.70 66.36 47.99 67.91 48.61 69.30
  Q 58.18 90.75 67.73 112.28
  A 0.51 0.51 0.0 0 1 67.26 113.00
  L 57.06 112.99
  A 1.23 1.22 -10.3 0 1 55.91 112.20
  L 52.99 104.62
  A 0.94 0.94 0.0 0 0 52.11 104.01
  Z
  M 36.49 95.60
  A 0.32 0.32 0.0 0 0 36.79 96.04
  L 48.88 96.06
  A 0.32 0.32 0.0 0 0 49.17 95.62
  L 43.15 80.65
  A 0.32 0.32 0.0 0 0 42.56 80.65
  L 36.49 95.60
  Z" fill="#3a76fa"></path>
<path d="M 137.51 109.83
  C 134.21 113.18 131.79 113.21 126.75 113.10
  C 122.84 113.01 120.42 112.85 117.15 110.64
  C 99.11 98.46 113.06 71.21 133.55 77.94
  C 134.76 78.34 135.90 79.21 137.15 79.89
  Q 137.84 80.27 137.84 79.48
  L 137.81 66.73
  Q 137.81 66.01 138.52 66.01
  L 146.33 66.00
  Q 147.18 66.00 147.18 66.85
  L 147.15 112.18
  Q 147.15 113.00 146.32 113.00
  L 139.01 112.98
  Q 138.04 112.98 138.02 112.01
  L 137.97 110.02
  Q 137.96 109.37 137.51 109.83
  Z
  M 120.37 102.17
  L 119.15 104.69
  Q 118.84 105.34 119.54 105.17
  L 123.41 104.23
  A 1.40 1.38 47.5 0 1 124.24 104.27
  C 138.60 109.54 143.49 88.02 129.99 86.01
  C 120.62 84.62 116.44 92.99 120.37 101.13
  A 1.20 1.20 0.0 0 1 120.37 102.17
  Z" fill="#3a76fa"></path>
<path d="M 89.46 86.00
  C 80.98 84.92 79.95 91.55 79.98 98.41
  Q 80.01 105.52 79.99 112.23
  Q 79.99 113.00 79.21 113.00
  L 70.78 113.00
  Q 70.03 113.00 70.02 112.25
  C 69.86 98.07 67.68 83.12 82.05 77.81
  Q 86.51 76.16 91.46 77.05
  C 100.38 78.66 106.02 85.42 106.34 94.65
  Q 106.65 103.92 106.47 112.34
  Q 106.46 113.00 105.80 113.00
  L 97.53 112.99
  Q 96.92 112.99 96.94 112.39
  Q 97.27 101.24 96.65 93.69
  C 96.31 89.51 93.76 86.55 89.46 86.00
  Z" fill="#3a76fa"></path>
<rect rx="0.62" height="35.00" width="9.96" y="77.99" x="151.98" fill="#3a76fa"></rect>
<path d="M 36.49 95.60
  L 42.56 80.65
  A 0.32 0.32 0.0 0 1 43.15 80.65
  L 49.17 95.62
  A 0.32 0.32 0.0 0 1 48.88 96.06
  L 36.79 96.04
  A 0.32 0.32 0.0 0 1 36.49 95.60
  Z" fill="#ffffff"></path>
<path d="M 120.37 101.13
  C 116.44 92.99 120.62 84.62 129.99 86.01
  C 143.49 88.02 138.60 109.54 124.24 104.27
  A 1.40 1.38 47.5 0 0 123.41 104.23
  L 119.54 105.17
  Q 118.84 105.34 119.15 104.69
  L 120.37 102.17
  A 1.20 1.20 0.0 0 0 120.37 101.13
  Z" fill="#ffffff"></path>
</svg>
