<svg viewBox="0.00 0.00 256.00 256.00" version="1.1" xmlns="http://www.w3.org/2000/svg">
<path d="M 187.83 138.06
  Q 187.90 137.37 188.59 137.38
  Q 203.12 137.42 217.00 137.32
  C 225.00 137.26 229.06 128.64 223.65 122.59
  Q 220.98 119.62 218.25 119.62
  Q 200.25 119.60 182.25 119.61
  Q 175.38 119.61 173.42 125.49
  Q 164.47 152.27 155.61 178.98
  Q 155.14 180.39 154.67 178.98
  Q 132.58 112.79 110.24 45.97
  C 107.36 37.35 96.21 37.82 93.37 46.28
  Q 81.19 82.61 69.07 119.04
  Q 68.91 119.52 68.40 119.53
  Q 54.20 119.74 40.00 119.69
  C 27.81 119.65 27.92 137.46 40.25 137.44
  Q 57.63 137.41 75.00 137.26
  Q 81.68 137.20 83.67 131.22
  Q 92.55 104.59 101.46 77.98
  Q 101.58 77.61 101.75 77.50
  Q 102.06 77.28 102.19 77.64
  Q 124.44 144.28 146.74 210.98
  C 149.63 219.63 160.80 219.22 163.64 210.73
  Q 175.66 174.82 187.61 138.87
  Q 187.81 138.26 187.83 138.06" stroke-linecap="butt" fill="none" stroke-width="2.00" stroke="#808080"></path>
<path d="M 0.00 0.00
  L 256.00 0.00
  L 256.00 256.00
  L 0.00 256.00
  L 0.00 0.00
  Z
  M 187.83 138.06
  Q 187.90 137.37 188.59 137.38
  Q 203.12 137.42 217.00 137.32
  C 225.00 137.26 229.06 128.64 223.65 122.59
  Q 220.98 119.62 218.25 119.62
  Q 200.25 119.60 182.25 119.61
  Q 175.38 119.61 173.42 125.49
  Q 164.47 152.27 155.61 178.98
  Q 155.14 180.39 154.67 178.98
  Q 132.58 112.79 110.24 45.97
  C 107.36 37.35 96.21 37.82 93.37 46.28
  Q 81.19 82.61 69.07 119.04
  Q 68.91 119.52 68.40 119.53
  Q 54.20 119.74 40.00 119.69
  C 27.81 119.65 27.92 137.46 40.25 137.44
  Q 57.63 137.41 75.00 137.26
  Q 81.68 137.20 83.67 131.22
  Q 92.55 104.59 101.46 77.98
  Q 101.58 77.61 101.75 77.50
  Q 102.06 77.28 102.19 77.64
  Q 124.44 144.28 146.74 210.98
  C 149.63 219.63 160.80 219.22 163.64 210.73
  Q 175.66 174.82 187.61 138.87
  Q 187.81 138.26 187.83 138.06
  Z" fill="#ffffff"></path>
<path d="M 187.83 138.06
  Q 187.81 138.26 187.61 138.87
  Q 175.66 174.82 163.64 210.73
  C 160.80 219.22 149.63 219.63 146.74 210.98
  Q 124.44 144.28 102.19 77.64
  Q 102.06 77.28 101.75 77.50
  Q 101.58 77.61 101.46 77.98
  Q 92.55 104.59 83.67 131.22
  Q 81.68 137.20 75.00 137.26
  Q 57.63 137.41 40.25 137.44
  C 27.92 137.46 27.81 119.65 40.00 119.69
  Q 54.20 119.74 68.40 119.53
  Q 68.91 119.52 69.07 119.04
  Q 81.19 82.61 93.37 46.28
  C 96.21 37.82 107.36 37.35 110.24 45.97
  Q 132.58 112.79 154.67 178.98
  Q 155.14 180.39 155.61 178.98
  Q 164.47 152.27 173.42 125.49
  Q 175.38 119.61 182.25 119.61
  Q 200.25 119.60 218.25 119.62
  Q 220.98 119.62 223.65 122.59
  C 229.06 128.64 225.00 137.26 217.00 137.32
  Q 203.12 137.42 188.59 137.38
  Q 187.90 137.37 187.83 138.06
  Z" fill="#000000"></path>
</svg>
