<svg viewBox="0.00 0.00 256.00 256.00" version="1.1" xmlns="http://www.w3.org/2000/svg">
<g stroke-linecap="butt" fill="none" stroke-width="2.00">
<path d="M 75.36 154.77
  A 0.75 0.75 0.0 0 1 76.09 154.21
  L 103.94 154.18
  A 0.75 0.75 0.0 0 1 104.67 154.74
  L 110.61 177.34
  A 0.75 0.75 0.0 0 0 111.34 177.90
  L 129.01 177.94
  A 0.75 0.75 0.0 0 0 129.73 176.97
  L 100.73 79.79
  A 0.75 0.75 0.0 0 0 100.01 79.25
  L 80.00 79.34
  A 0.75 0.75 0.0 0 0 79.28 79.87
  L 50.32 176.91
  A 0.75 0.75 0.0 0 0 51.03 177.87
  L 68.66 177.96
  A 0.75 0.75 0.0 0 0 69.39 177.40
  L 75.36 154.77" stroke="#80b8f9"></path>
<path d="M 176.16 114.96
  C 172.44 107.78 166.00 102.84 157.24 102.99
  C 133.66 103.39 130.46 132.82 132.64 150.01
  C 134.70 166.30 145.33 180.77 163.74 176.00
  C 170.15 174.34 172.72 171.13 176.43 166.06
  Q 177.02 165.25 176.98 166.25
  C 176.69 174.35 178.22 184.49 168.47 187.59
  C 162.52 189.48 154.44 187.66 151.25 181.91
  A 1.41 1.40 -14.4 0 0 150.02 181.19
  L 134.29 181.22
  Q 133.80 181.22 133.86 181.71
  C 137.32 207.22 177.41 209.54 189.79 191.27
  Q 194.28 184.66 194.29 177.75
  Q 194.38 141.50 194.32 105.09
  A 0.56 0.56 0.0 0 0 193.76 104.53
  L 177.25 104.49
  Q 176.73 104.49 176.74 105.00
  L 176.90 114.77
  Q 176.92 116.44 176.16 114.96" stroke="#80b8f9"></path>
<path d="M 79.90 137.78
  A 0.33 0.33 0.0 0 0 80.22 138.20
  L 99.82 138.20
  A 0.33 0.33 0.0 0 0 100.14 137.78
  L 90.34 100.74
  A 0.33 0.33 0.0 0 0 89.70 100.74
  L 79.90 137.78" stroke="#80b8f9"></path>
<path d="M 163.3600 161.8200
  A 20.88 13.57 90.0 0 0 176.9300 140.9400
  A 20.88 13.57 90.0 0 0 163.3600 120.0600
  A 20.88 13.57 90.0 0 0 149.7900 140.9400
  A 20.88 13.57 90.0 0 0 163.3600 161.8200" stroke="#80b8f9"></path>
</g>
<path d="M 0.00 0.00
  L 256.00 0.00
  L 256.00 256.00
  L 0.00 256.00
  L 0.00 0.00
  Z
  M 75.36 154.77
  A 0.75 0.75 0.0 0 1 76.09 154.21
  L 103.94 154.18
  A 0.75 0.75 0.0 0 1 104.67 154.74
  L 110.61 177.34
  A 0.75 0.75 0.0 0 0 111.34 177.90
  L 129.01 177.94
  A 0.75 0.75 0.0 0 0 129.73 176.97
  L 100.73 79.79
  A 0.75 0.75 0.0 0 0 100.01 79.25
  L 80.00 79.34
  A 0.75 0.75 0.0 0 0 79.28 79.87
  L 50.32 176.91
  A 0.75 0.75 0.0 0 0 51.03 177.87
  L 68.66 177.96
  A 0.75 0.75 0.0 0 0 69.39 177.40
  L 75.36 154.77
  Z
  M 176.16 114.96
  C 172.44 107.78 166.00 102.84 157.24 102.99
  C 133.66 103.39 130.46 132.82 132.64 150.01
  C 134.70 166.30 145.33 180.77 163.74 176.00
  C 170.15 174.34 172.72 171.13 176.43 166.06
  Q 177.02 165.25 176.98 166.25
  C 176.69 174.35 178.22 184.49 168.47 187.59
  C 162.52 189.48 154.44 187.66 151.25 181.91
  A 1.41 1.40 -14.4 0 0 150.02 181.19
  L 134.29 181.22
  Q 133.80 181.22 133.86 181.71
  C 137.32 207.22 177.41 209.54 189.79 191.27
  Q 194.28 184.66 194.29 177.75
  Q 194.38 141.50 194.32 105.09
  A 0.56 0.56 0.0 0 0 193.76 104.53
  L 177.25 104.49
  Q 176.73 104.49 176.74 105.00
  L 176.90 114.77
  Q 176.92 116.44 176.16 114.96
  Z" fill="#ffffff"></path>
<path d="M 75.36 154.77
  L 69.39 177.40
  A 0.75 0.75 0.0 0 1 68.66 177.96
  L 51.03 177.87
  A 0.75 0.75 0.0 0 1 50.32 176.91
  L 79.28 79.87
  A 0.75 0.75 0.0 0 1 80.00 79.34
  L 100.01 79.25
  A 0.75 0.75 0.0 0 1 100.73 79.79
  L 129.73 176.97
  A 0.75 0.75 0.0 0 1 129.01 177.94
  L 111.34 177.90
  A 0.75 0.75 0.0 0 1 110.61 177.34
  L 104.67 154.74
  A 0.75 0.75 0.0 0 0 103.94 154.18
  L 76.09 154.21
  A 0.75 0.75 0.0 0 0 75.36 154.77
  Z
  M 79.90 137.78
  A 0.33 0.33 0.0 0 0 80.22 138.20
  L 99.82 138.20
  A 0.33 0.33 0.0 0 0 100.14 137.78
  L 90.34 100.74
  A 0.33 0.33 0.0 0 0 89.70 100.74
  L 79.90 137.78
  Z" fill="#0070f3"></path>
<path d="M 79.90 137.78
  L 89.70 100.74
  A 0.33 0.33 0.0 0 1 90.34 100.74
  L 100.14 137.78
  A 0.33 0.33 0.0 0 1 99.82 138.20
  L 80.22 138.20
  A 0.33 0.33 0.0 0 1 79.90 137.78
  Z" fill="#ffffff"></path>
<path d="M 176.16 114.96
  Q 176.92 116.44 176.90 114.77
  L 176.74 105.00
  Q 176.73 104.49 177.25 104.49
  L 193.76 104.53
  A 0.56 0.56 0.0 0 1 194.32 105.09
  Q 194.38 141.50 194.29 177.75
  Q 194.28 184.66 189.79 191.27
  C 177.41 209.54 137.32 207.22 133.86 181.71
  Q 133.80 181.22 134.29 181.22
  L 150.02 181.19
  A 1.41 1.40 -14.4 0 1 151.25 181.91
  C 154.44 187.66 162.52 189.48 168.47 187.59
  C 178.22 184.49 176.69 174.35 176.98 166.25
  Q 177.02 165.25 176.43 166.06
  C 172.72 171.13 170.15 174.34 163.74 176.00
  C 145.33 180.77 134.70 166.30 132.64 150.01
  C 130.46 132.82 133.66 103.39 157.24 102.99
  C 166.00 102.84 172.44 107.78 176.16 114.96
  Z
  M 163.3600 161.8200
  A 20.88 13.57 90.0 0 0 176.9300 140.9400
  A 20.88 13.57 90.0 0 0 163.3600 120.0600
  A 20.88 13.57 90.0 0 0 149.7900 140.9400
  A 20.88 13.57 90.0 0 0 163.3600 161.8200
  Z" fill="#0070f3"></path>
<ellipse ry="13.57" rx="20.88" transform="translate(163.36,140.94) rotate(90.0)" cy="0.00" cx="0.00" fill="#ffffff"></ellipse>
</svg>
