<svg viewBox="0.00 0.00 48.00 48.00" version="1.1" xmlns="http://www.w3.org/2000/svg">
<g stroke-linecap="butt" fill="none" stroke-width="2.00">
<path d="M 27.28 0.00
  Q 25.87 0.04 25.09 0.45
  A 0.23 0.22 -63.9 0 0 25.23 0.87
  Q 26.45 0.63 27.58 1.02
  Q 28.04 1.18 28.18 1.64
  L 28.55 2.92
  A 0.42 0.42 0.0 0 0 29.34 2.98
  L 30.75 0.00" stroke="#787575"></path>
<path d="M 35.31 0.00
  Q 33.31 1.68 32.26 3.92
  A 0.68 0.68 0.0 0 0 32.54 4.81
  L 32.81 4.96
  Q 33.03 5.09 33.18 4.88
  L 35.49 1.47
  A 0.39 0.38 33.5 0 1 36.03 1.37
  L 36.24 1.51
  Q 36.37 1.60 36.28 1.73
  L 25.50 18.01
  Q 25.09 18.63 25.79 18.90
  L 26.08 19.01
  A 0.42 0.42 0.0 0 0 26.59 18.85
  L 37.36 2.75
  A 1.34 1.34 0.0 0 0 36.99 0.90
  Q 36.40 0.51 36.23 0.00" stroke="#787575"></path>
<path d="M 33.37 48.00
  Q 34.23 47.52 35.84 47.27
  A 1.06 1.05 -4.5 0 0 36.74 46.23
  L 36.75 21.00
  Q 36.75 20.46 37.27 20.37
  C 39.69 19.94 42.36 19.88 44.30 18.17
  C 46.05 16.63 45.21 14.38 43.25 13.68
  Q 38.71 12.06 32.64 11.62
  Q 31.93 11.57 31.69 12.24
  L 31.59 12.50
  A 0.52 0.52 0.0 0 0 32.08 13.20
  Q 37.67 13.20 42.83 15.12
  A 1.13 1.13 0.0 0 1 43.14 17.06
  C 39.44 20.02 28.46 19.90 23.77 19.70
  Q 23.21 19.67 23.52 19.20
  L 32.04 6.43
  Q 32.40 5.88 31.79 5.64
  L 31.54 5.54
  Q 31.15 5.38 30.91 5.73
  L 21.73 19.26
  Q 21.44 19.69 20.92 19.70
  C 15.62 19.85 8.57 19.62 3.68 17.31
  A 1.00 1.00 0.0 0 1 3.55 15.57
  C 8.06 12.54 19.43 12.72 24.86 12.64
  Q 25.55 12.63 25.86 12.01
  L 25.98 11.76
  Q 26.28 11.18 25.63 11.16
  Q 14.29 10.74 4.06 13.52
  Q 1.32 14.27 1.58 16.88
  A 1.35 1.32 -71.7 0 0 1.99 17.72
  C 3.99 19.58 6.90 19.97 9.52 20.40
  Q 10.02 20.48 10.02 20.99
  L 10.01 46.58
  Q 10.01 47.13 10.52 47.33
  L 12.27 48.00" stroke="#787575"></path>
<path d="M 14.20 5.99
  Q 14.70 6.73 15.45 7.23
  A 0.39 0.39 0.0 0 0 16.03 6.78
  Q 15.30 4.62 16.85 3.11
  Q 18.46 1.55 16.51 1.88
  Q 14.58 2.20 13.46 0.80
  Q 12.41 -0.52 12.45 1.00
  Q 12.52 3.28 10.78 4.67
  Q 10.11 5.22 10.97 5.27
  L 13.15 5.39
  Q 13.83 5.43 14.20 5.99" stroke="#787575"></path>
<path d="M 23.6851 15.1555
  A 0.61 0.61 0.0 0 0 23.0233 14.6021
  L 11.1305 15.6635
  A 0.61 0.61 0.0 0 0 10.5772 16.3253
  L 10.5949 16.5245
  A 0.61 0.61 0.0 0 0 11.2567 17.0779
  L 23.1495 16.0165
  A 0.61 0.61 0.0 0 0 23.7028 15.3547
  L 23.6851 15.1555" stroke="#787575"></path>
<path d="M 36.0548 16.3948
  A 0.44 0.44 0.0 0 0 35.6900 15.8908
  L 30.0420 14.9861
  A 0.44 0.44 0.0 0 0 29.5379 15.3510
  L 29.4652 15.8052
  A 0.44 0.44 0.0 0 0 29.8300 16.3092
  L 35.4780 17.2139
  A 0.44 0.44 0.0 0 0 35.9821 16.8490
  L 36.0548 16.3948" stroke="#787575"></path>
<path d="M 34.66 20.73
  Q 23.25 21.80 11.84 20.71
  Q 11.30 20.66 11.35 21.20
  L 11.45 22.23
  A 0.61 0.60 -89.5 0 0 11.97 22.77
  Q 23.31 24.37 34.67 22.87
  A 0.67 0.66 -4.4 0 0 35.25 22.20
  L 35.24 21.25
  Q 35.24 20.67 34.66 20.73" stroke="#787575"></path>
<path d="M 35.24 45.49
  L 35.17 24.85
  Q 35.17 24.32 34.64 24.40
  Q 23.30 25.95 11.96 24.43
  Q 11.44 24.36 11.43 24.89
  L 11.36 46.00
  A 0.47 0.46 3.5 0 0 11.77 46.46
  Q 23.13 47.87 34.49 46.35
  A 0.87 0.86 86.2 0 0 35.24 45.49" stroke="#787575"></path>
<path d="M 33.8122 26.3926
  A 0.71 0.71 0.0 0 0 33.1047 25.6801
  L 33.0647 25.6800
  A 0.71 0.71 0.0 0 0 32.3522 26.3875
  L 32.3078 39.1074
  A 0.71 0.71 0.0 0 0 33.0153 39.8199
  L 33.0553 39.8200
  A 0.71 0.71 0.0 0 0 33.7678 39.1125
  L 33.8122 26.3926" stroke="#787575"></path>
</g>
<path d="M 0.00 0.00
  L 27.28 0.00
  Q 25.87 0.04 25.09 0.45
  A 0.23 0.22 -63.9 0 0 25.23 0.87
  Q 26.45 0.63 27.58 1.02
  Q 28.04 1.18 28.18 1.64
  L 28.55 2.92
  A 0.42 0.42 0.0 0 0 29.34 2.98
  L 30.75 0.00
  L 35.31 0.00
  Q 33.31 1.68 32.26 3.92
  A 0.68 0.68 0.0 0 0 32.54 4.81
  L 32.81 4.96
  Q 33.03 5.09 33.18 4.88
  L 35.49 1.47
  A 0.39 0.38 33.5 0 1 36.03 1.37
  L 36.24 1.51
  Q 36.37 1.60 36.28 1.73
  L 25.50 18.01
  Q 25.09 18.63 25.79 18.90
  L 26.08 19.01
  A 0.42 0.42 0.0 0 0 26.59 18.85
  L 37.36 2.75
  A 1.34 1.34 0.0 0 0 36.99 0.90
  Q 36.40 0.51 36.23 0.00
  L 48.00 0.00
  L 48.00 48.00
  L 33.37 48.00
  Q 34.23 47.52 35.84 47.27
  A 1.06 1.05 -4.5 0 0 36.74 46.23
  L 36.75 21.00
  Q 36.75 20.46 37.27 20.37
  C 39.69 19.94 42.36 19.88 44.30 18.17
  C 46.05 16.63 45.21 14.38 43.25 13.68
  Q 38.71 12.06 32.64 11.62
  Q 31.93 11.57 31.69 12.24
  L 31.59 12.50
  A 0.52 0.52 0.0 0 0 32.08 13.20
  Q 37.67 13.20 42.83 15.12
  A 1.13 1.13 0.0 0 1 43.14 17.06
  C 39.44 20.02 28.46 19.90 23.77 19.70
  Q 23.21 19.67 23.52 19.20
  L 32.04 6.43
  Q 32.40 5.88 31.79 5.64
  L 31.54 5.54
  Q 31.15 5.38 30.91 5.73
  L 21.73 19.26
  Q 21.44 19.69 20.92 19.70
  C 15.62 19.85 8.57 19.62 3.68 17.31
  A 1.00 1.00 0.0 0 1 3.55 15.57
  C 8.06 12.54 19.43 12.72 24.86 12.64
  Q 25.55 12.63 25.86 12.01
  L 25.98 11.76
  Q 26.28 11.18 25.63 11.16
  Q 14.29 10.74 4.06 13.52
  Q 1.32 14.27 1.58 16.88
  A 1.35 1.32 -71.7 0 0 1.99 17.72
  C 3.99 19.58 6.90 19.97 9.52 20.40
  Q 10.02 20.48 10.02 20.99
  L 10.01 46.58
  Q 10.01 47.13 10.52 47.33
  L 12.27 48.00
  L 0.00 48.00
  L 0.00 0.00
  Z
  M 14.20 5.99
  Q 14.70 6.73 15.45 7.23
  A 0.39 0.39 0.0 0 0 16.03 6.78
  Q 15.30 4.62 16.85 3.11
  Q 18.46 1.55 16.51 1.88
  Q 14.58 2.20 13.46 0.80
  Q 12.41 -0.52 12.45 1.00
  Q 12.52 3.28 10.78 4.67
  Q 10.11 5.22 10.97 5.27
  L 13.15 5.39
  Q 13.83 5.43 14.20 5.99
  Z
  M 23.6851 15.1555
  A 0.61 0.61 0.0 0 0 23.0233 14.6021
  L 11.1305 15.6635
  A 0.61 0.61 0.0 0 0 10.5772 16.3253
  L 10.5949 16.5245
  A 0.61 0.61 0.0 0 0 11.2567 17.0779
  L 23.1495 16.0165
  A 0.61 0.61 0.0 0 0 23.7028 15.3547
  L 23.6851 15.1555
  Z
  M 36.0548 16.3948
  A 0.44 0.44 0.0 0 0 35.6900 15.8908
  L 30.0420 14.9861
  A 0.44 0.44 0.0 0 0 29.5379 15.3510
  L 29.4652 15.8052
  A 0.44 0.44 0.0 0 0 29.8300 16.3092
  L 35.4780 17.2139
  A 0.44 0.44 0.0 0 0 35.9821 16.8490
  L 36.0548 16.3948
  Z" fill="#030101"></path>
<path d="M 27.28 0.00
  L 30.75 0.00
  L 29.34 2.98
  A 0.42 0.42 0.0 0 1 28.55 2.92
  L 28.18 1.64
  Q 28.04 1.18 27.58 1.02
  Q 26.45 0.63 25.23 0.87
  A 0.23 0.22 -63.9 0 1 25.09 0.45
  Q 25.87 0.04 27.28 0.00
  Z" fill="#ece9e8"></path>
<path d="M 35.31 0.00
  L 36.23 0.00
  Q 36.40 0.51 36.99 0.90
  A 1.34 1.34 0.0 0 1 37.36 2.75
  L 26.59 18.85
  A 0.42 0.42 0.0 0 1 26.08 19.01
  L 25.79 18.90
  Q 25.09 18.63 25.50 18.01
  L 36.28 1.73
  Q 36.37 1.60 36.24 1.51
  L 36.03 1.37
  A 0.39 0.38 33.5 0 0 35.49 1.47
  L 33.18 4.88
  Q 33.03 5.09 32.81 4.96
  L 32.54 4.81
  A 0.68 0.68 0.0 0 1 32.26 3.92
  Q 33.31 1.68 35.31 0.00
  Z" fill="#ece9e8"></path>
<path d="M 13.15 5.39
  L 10.97 5.27
  Q 10.11 5.22 10.78 4.67
  Q 12.52 3.28 12.45 1.00
  Q 12.41 -0.52 13.46 0.80
  Q 14.58 2.20 16.51 1.88
  Q 18.46 1.55 16.85 3.11
  Q 15.30 4.62 16.03 6.78
  A 0.39 0.39 0.0 0 1 15.45 7.23
  Q 14.70 6.73 14.20 5.99
  Q 13.83 5.43 13.15 5.39
  Z" fill="#ece9e8"></path>
<path d="M 33.37 48.00
  L 12.27 48.00
  L 10.52 47.33
  Q 10.01 47.13 10.01 46.58
  L 10.02 20.99
  Q 10.02 20.48 9.52 20.40
  C 6.90 19.97 3.99 19.58 1.99 17.72
  A 1.35 1.32 -71.7 0 1 1.58 16.88
  Q 1.32 14.27 4.06 13.52
  Q 14.29 10.74 25.63 11.16
  Q 26.28 11.18 25.98 11.76
  L 25.86 12.01
  Q 25.55 12.63 24.86 12.64
  C 19.43 12.72 8.06 12.54 3.55 15.57
  A 1.00 1.00 0.0 0 0 3.68 17.31
  C 8.57 19.62 15.62 19.85 20.92 19.70
  Q 21.44 19.69 21.73 19.26
  L 30.91 5.73
  Q 31.15 5.38 31.54 5.54
  L 31.79 5.64
  Q 32.40 5.88 32.04 6.43
  L 23.52 19.20
  Q 23.21 19.67 23.77 19.70
  C 28.46 19.90 39.44 20.02 43.14 17.06
  A 1.13 1.13 0.0 0 0 42.83 15.12
  Q 37.67 13.20 32.08 13.20
  A 0.52 0.52 0.0 0 1 31.59 12.50
  L 31.69 12.24
  Q 31.93 11.57 32.64 11.62
  Q 38.71 12.06 43.25 13.68
  C 45.21 14.38 46.05 16.63 44.30 18.17
  C 42.36 19.88 39.69 19.94 37.27 20.37
  Q 36.75 20.46 36.75 21.00
  L 36.74 46.23
  A 1.06 1.05 -4.5 0 1 35.84 47.27
  Q 34.23 47.52 33.37 48.00
  Z
  M 34.66 20.73
  Q 23.25 21.80 11.84 20.71
  Q 11.30 20.66 11.35 21.20
  L 11.45 22.23
  A 0.61 0.60 -89.5 0 0 11.97 22.77
  Q 23.31 24.37 34.67 22.87
  A 0.67 0.66 -4.4 0 0 35.25 22.20
  L 35.24 21.25
  Q 35.24 20.67 34.66 20.73
  Z
  M 35.24 45.49
  L 35.17 24.85
  Q 35.17 24.32 34.64 24.40
  Q 23.30 25.95 11.96 24.43
  Q 11.44 24.36 11.43 24.89
  L 11.36 46.00
  A 0.47 0.46 3.5 0 0 11.77 46.46
  Q 23.13 47.87 34.49 46.35
  A 0.87 0.86 86.2 0 0 35.24 45.49
  Z" fill="#ece9e8"></path>
<rect rx="0.61" height="1.42" width="13.16" transform="translate(17.14,15.84) rotate(-5.1)" y="-0.71" x="-6.58" fill="#ece9e8"></rect>
<rect rx="0.44" height="1.34" width="6.60" transform="translate(32.76,16.10) rotate(9.1)" y="-0.67" x="-3.30" fill="#ece9e8"></rect>
<path d="M 34.66 20.73
  Q 35.24 20.67 35.24 21.25
  L 35.25 22.20
  A 0.67 0.66 -4.4 0 1 34.67 22.87
  Q 23.31 24.37 11.97 22.77
  A 0.61 0.60 -89.5 0 1 11.45 22.23
  L 11.35 21.20
  Q 11.30 20.66 11.84 20.71
  Q 23.25 21.80 34.66 20.73
  Z" fill="#030101"></path>
<path d="M 35.17 24.85
  L 35.24 45.49
  A 0.87 0.86 86.2 0 1 34.49 46.35
  Q 23.13 47.87 11.77 46.46
  A 0.47 0.46 3.5 0 1 11.36 46.00
  L 11.43 24.89
  Q 11.44 24.36 11.96 24.43
  Q 23.30 25.95 34.64 24.40
  Q 35.17 24.32 35.17 24.85
  Z
  M 33.8122 26.3926
  A 0.71 0.71 0.0 0 0 33.1047 25.6801
  L 33.0647 25.6800
  A 0.71 0.71 0.0 0 0 32.3522 26.3875
  L 32.3078 39.1074
  A 0.71 0.71 0.0 0 0 33.0153 39.8199
  L 33.0553 39.8200
  A 0.71 0.71 0.0 0 0 33.7678 39.1125
  L 33.8122 26.3926
  Z" fill="#030101"></path>
<rect rx="0.71" height="14.14" width="1.46" transform="translate(33.06,32.75) rotate(0.2)" y="-7.07" x="-0.73" fill="#ece9e8"></rect>
</svg>
