<svg viewBox="0.00 0.00 64.00 64.00" version="1.1" xmlns="http://www.w3.org/2000/svg">
<g stroke-linecap="butt" fill="none" stroke-width="2.00">
<path d="M 54.74 53.06
  Q 54.40 52.22 54.75 51.44
  Q 54.98 50.91 55.38 51.33
  C 56.77 52.81 58.93 55.92 60.82 56.53
  A 0.89 0.89 0.0 0 0 61.92 55.34
  L 54.68 37.87
  A 0.53 0.47 46.4 0 1 54.67 37.52
  Q 55.09 36.46 55.72 35.51
  Q 60.45 28.38 56.14 21.96
  Q 55.15 20.48 55.23 22.27
  Q 55.41 26.11 53.53 29.65" stroke="#8d92b8"></path>
<path d="M 53.53 29.65
  C 48.31 36.31 38.47 36.03 32.87 30.42
  Q 32.51 30.06 32.09 30.37
  Q 31.13 31.09 30.63 32.25" stroke="#687eb6"></path>
<path d="M 30.63 32.25
  L 23.31 38.52
  Q 22.90 38.88 23.20 39.34
  C 24.01 40.61 25.14 41.77 25.77 42.96
  Q 28.35 47.87 30.41 53.04
  Q 30.74 53.85 31.29 54.16
  A 0.60 0.59 -76.5 0 0 32.17 53.62
  L 32.10 50.01
  Q 32.10 49.64 32.47 49.63
  Q 32.61 49.62 32.78 49.60
  Q 33.17 49.55 33.27 49.94
  Q 34.25 53.78 36.66 56.92
  A 0.78 0.78 0.0 0 0 38.05 56.51
  L 38.73 47.72
  A 0.84 0.84 0.0 0 1 39.29 46.99
  C 41.28 46.31 45.82 45.63 47.23 47.51
  Q 49.64 50.72 52.62 54.22" stroke="#8d92b8"></path>
<path d="M 30.63 32.25
  Q 31.61 33.16 32.58 34.02
  C 37.84 38.63 53.00 39.35 53.53 29.65" stroke="#daebfe"></path>
<path d="M 18.31 15.58
  A 0.83 0.83 0.0 0 0 19.28 16.59
  L 22.04 16.06
  A 0.83 0.83 0.0 0 0 22.63 14.88
  L 20.88 11.23
  A 0.83 0.83 0.0 0 0 19.32 11.39
  L 18.31 15.58" stroke="#8d92b8"></path>
<path d="M 29.20 29.42
  Q 30.90 28.14 30.44 27.25
  Q 27.54 21.75 27.30 15.55" stroke="#687eb6"></path>
<path d="M 27.30 15.55
  L 27.42 11.70
  Q 27.49 9.65 26.31 11.33
  L 22.70 16.50
  A 2.78 2.78 0.0 0 1 19.47 17.53
  C 14.34 15.68 10.18 23.49 3.91 21.19
  A 0.67 0.67 0.0 0 0 3.02 21.91
  C 3.80 27.74 4.65 31.08 11.50 31.34
  Q 16.87 31.54 18.40 27.65
  Q 19.48 24.92 19.15 27.83
  C 18.72 31.59 14.23 33.45 10.61 32.44
  Q 7.52 31.58 9.93 33.71
  Q 10.10 33.86 11.70 34.33
  Q 16.07 35.61 20.50 36.74
  A 1.20 1.18 36.6 0 0 21.42 36.61
  Q 26.25 33.75 29.20 29.42" stroke="#8d92b8"></path>
<path d="M 27.30 15.55
  L 27.10 20.50
  Q 27.09 20.83 26.78 20.97
  Q 26.51 21.10 26.74 21.47
  Q 26.05 26.21 29.20 29.42" stroke="#daebfe"></path>
</g>
<path d="M 54.74 53.06
  Q 54.40 52.22 54.75 51.44
  Q 54.98 50.91 55.38 51.33
  C 56.77 52.81 58.93 55.92 60.82 56.53
  A 0.89 0.89 0.0 0 0 61.92 55.34
  L 54.68 37.87
  A 0.53 0.47 46.4 0 1 54.67 37.52
  Q 55.09 36.46 55.72 35.51
  Q 60.45 28.38 56.14 21.96
  Q 55.15 20.48 55.23 22.27
  Q 55.41 26.11 53.53 29.65
  C 48.31 36.31 38.47 36.03 32.87 30.42
  Q 32.51 30.06 32.09 30.37
  Q 31.13 31.09 30.63 32.25
  L 23.31 38.52
  Q 22.90 38.88 23.20 39.34
  C 24.01 40.61 25.14 41.77 25.77 42.96
  Q 28.35 47.87 30.41 53.04
  Q 30.74 53.85 31.29 54.16
  A 0.60 0.59 -76.5 0 0 32.17 53.62
  L 32.10 50.01
  Q 32.10 49.64 32.47 49.63
  Q 32.61 49.62 32.78 49.60
  Q 33.17 49.55 33.27 49.94
  Q 34.25 53.78 36.66 56.92
  A 0.78 0.78 0.0 0 0 38.05 56.51
  L 38.73 47.72
  A 0.84 0.84 0.0 0 1 39.29 46.99
  C 41.28 46.31 45.82 45.63 47.23 47.51
  Q 49.64 50.72 52.62 54.22
  Q 33.43 66.37 16.56 52.95
  Q 8.60 46.63 6.92 35.50
  C 6.30 31.36 4.27 32.01 2.55 29.14
  Q -0.44 24.19 1.56 18.73
  Q 1.75 18.21 2.27 18.39
  C 4.18 19.05 8.79 20.01 10.12 17.89
  Q 19.62 2.75 36.47 3.32
  C 48.32 3.73 59.01 11.34 62.62 22.76
  C 64.59 28.99 63.88 37.69 61.26 43.63
  A 1.39 1.36 -42.7 0 0 61.21 44.58
  C 62.50 48.79 64.04 53.30 63.31 57.73
  Q 63.23 58.23 62.73 58.30
  C 59.81 58.70 56.67 55.19 54.74 53.06
  Z
  M 18.31 15.58
  A 0.83 0.83 0.0 0 0 19.28 16.59
  L 22.04 16.06
  A 0.83 0.83 0.0 0 0 22.63 14.88
  L 20.88 11.23
  A 0.83 0.83 0.0 0 0 19.32 11.39
  L 18.31 15.58
  Z
  M 29.20 29.42
  Q 30.90 28.14 30.44 27.25
  Q 27.54 21.75 27.30 15.55
  L 27.42 11.70
  Q 27.49 9.65 26.31 11.33
  L 22.70 16.50
  A 2.78 2.78 0.0 0 1 19.47 17.53
  C 14.34 15.68 10.18 23.49 3.91 21.19
  A 0.67 0.67 0.0 0 0 3.02 21.91
  C 3.80 27.74 4.65 31.08 11.50 31.34
  Q 16.87 31.54 18.40 27.65
  Q 19.48 24.92 19.15 27.83
  C 18.72 31.59 14.23 33.45 10.61 32.44
  Q 7.52 31.58 9.93 33.71
  Q 10.10 33.86 11.70 34.33
  Q 16.07 35.61 20.50 36.74
  A 1.20 1.18 36.6 0 0 21.42 36.61
  Q 26.25 33.75 29.20 29.42
  Z" fill="#1a2570"></path>
<path d="M 18.31 15.58
  L 19.32 11.39
  A 0.83 0.83 0.0 0 1 20.88 11.23
  L 22.63 14.88
  A 0.83 0.83 0.0 0 1 22.04 16.06
  L 19.28 16.59
  A 0.83 0.83 0.0 0 1 18.31 15.58
  Z" fill="#ffffff"></path>
<path d="M 27.30 15.55
  L 27.10 20.50
  Q 27.09 20.83 26.78 20.97
  Q 26.51 21.10 26.74 21.47
  Q 26.05 26.21 29.20 29.42
  Q 26.25 33.75 21.42 36.61
  A 1.20 1.18 36.6 0 1 20.50 36.74
  Q 16.07 35.61 11.70 34.33
  Q 10.10 33.86 9.93 33.71
  Q 7.52 31.58 10.61 32.44
  C 14.23 33.45 18.72 31.59 19.15 27.83
  Q 19.48 24.92 18.40 27.65
  Q 16.87 31.54 11.50 31.34
  C 4.65 31.08 3.80 27.74 3.02 21.91
  A 0.67 0.67 0.0 0 1 3.91 21.19
  C 10.18 23.49 14.34 15.68 19.47 17.53
  A 2.78 2.78 0.0 0 0 22.70 16.50
  L 26.31 11.33
  Q 27.49 9.65 27.42 11.70
  L 27.30 15.55
  Z" fill="#ffffff"></path>
<path d="M 27.30 15.55
  Q 27.54 21.75 30.44 27.25
  Q 30.90 28.14 29.20 29.42
  Q 26.05 26.21 26.74 21.47
  Q 26.51 21.10 26.78 20.97
  Q 27.09 20.83 27.10 20.50
  L 27.30 15.55
  Z" fill="#b5d6fc"></path>
<path d="M 54.74 53.06
  Q 53.00 53.73 52.62 54.22
  Q 49.64 50.72 47.23 47.51
  C 45.82 45.63 41.28 46.31 39.29 46.99
  A 0.84 0.84 0.0 0 0 38.73 47.72
  L 38.05 56.51
  A 0.78 0.78 0.0 0 1 36.66 56.92
  Q 34.25 53.78 33.27 49.94
  Q 33.17 49.55 32.78 49.60
  Q 32.61 49.62 32.47 49.63
  Q 32.10 49.64 32.10 50.01
  L 32.17 53.62
  A 0.60 0.59 -76.5 0 1 31.29 54.16
  Q 30.74 53.85 30.41 53.04
  Q 28.35 47.87 25.77 42.96
  C 25.14 41.77 24.01 40.61 23.20 39.34
  Q 22.90 38.88 23.31 38.52
  L 30.63 32.25
  Q 31.61 33.16 32.58 34.02
  C 37.84 38.63 53.00 39.35 53.53 29.65
  Q 55.41 26.11 55.23 22.27
  Q 55.15 20.48 56.14 21.96
  Q 60.45 28.38 55.72 35.51
  Q 55.09 36.46 54.67 37.52
  A 0.53 0.47 46.4 0 0 54.68 37.87
  L 61.92 55.34
  A 0.89 0.89 0.0 0 1 60.82 56.53
  C 58.93 55.92 56.77 52.81 55.38 51.33
  Q 54.98 50.91 54.75 51.44
  Q 54.40 52.22 54.74 53.06
  Z" fill="#ffffff"></path>
<path d="M 53.53 29.65
  C 53.00 39.35 37.84 38.63 32.58 34.02
  Q 31.61 33.16 30.63 32.25
  Q 31.13 31.09 32.09 30.37
  Q 32.51 30.06 32.87 30.42
  C 38.47 36.03 48.31 36.31 53.53 29.65
  Z" fill="#b5d6fc"></path>
</svg>
