<svg viewBox="0.00 0.00 48.00 48.00" version="1.1" xmlns="http://www.w3.org/2000/svg">
<g stroke-linecap="butt" fill="none" stroke-width="2.00">
<path d="M 47.30 37.28
  Q 45.71 36.65 44.91 35.58
  A 0.65 0.61 83.5 0 0 44.72 35.42
  L 43.41 34.70
  Q 43.04 34.50 42.74 34.21
  Q 39.34 30.89 37.61 34.71" stroke="#121212"></path>
<path d="M 37.61 34.71
  Q 39.10 30.65 38.50 27.95
  C 37.42 23.14 33.71 22.60 29.48 21.73
  Q 25.17 20.85 20.88 19.98
  Q 19.43 19.69 19.51 18.54
  A 1.55 1.55 0.0 0 1 20.77 17.12
  C 23.23 16.68 27.27 16.33 28.46 19.08
  Q 28.66 19.55 29.17 19.62
  L 37.10 20.71
  Q 37.63 20.79 37.65 20.25
  C 38.15 7.99 22.69 7.06 14.68 10.38
  Q 8.15 13.09 10.21 21.67" stroke="#868686"></path>
<path d="M 10.21 21.67
  Q 8.50 20.53 9.02 17.82
  A 1.69 1.69 0.0 0 0 6.93 15.87
  Q 5.41 16.28 4.94 15.43
  Q 4.71 15.00 4.22 15.00
  L 3.75 15.00
  Q 3.20 15.00 3.00 14.49
  Q 2.75 13.84 2.00 14.00
  A 0.64 0.64 0.0 0 1 1.29 13.67
  Q 0.95 13.03 0.18 12.96" stroke="#121212"></path>
<path d="M 37.61 34.71
  L 36.00 36.37" stroke="#7d7d7d"></path>
<path d="M 36.00 36.37
  L 32.77 38.01" stroke="#868686"></path>
<path d="M 32.77 38.01
  C 24.03 40.93 9.44 40.38 9.22 27.95
  Q 9.20 27.12 10.02 27.26
  L 17.52 28.56
  Q 18.45 28.72 18.60 29.65
  Q 18.81 30.86 20.76 31.16
  Q 23.64 31.60 26.71 31.16
  A 1.81 1.79 10.3 0 0 28.01 30.27
  Q 29.07 28.43 26.74 28.01
  C 21.85 27.12 12.56 26.70 10.21 21.67" stroke="#7d7d7d"></path>
<path d="M 32.77 38.01
  Q 34.67 38.33 36.00 36.37" stroke="#121212"></path>
</g>
<path d="M 13.60 0.00
  L 34.55 0.00
  Q 45.90 2.13 48.00 13.54
  L 48.00 34.57
  L 47.30 37.28
  Q 45.71 36.65 44.91 35.58
  A 0.65 0.61 83.5 0 0 44.72 35.42
  L 43.41 34.70
  Q 43.04 34.50 42.74 34.21
  Q 39.34 30.89 37.61 34.71
  Q 39.10 30.65 38.50 27.95
  C 37.42 23.14 33.71 22.60 29.48 21.73
  Q 25.17 20.85 20.88 19.98
  Q 19.43 19.69 19.51 18.54
  A 1.55 1.55 0.0 0 1 20.77 17.12
  C 23.23 16.68 27.27 16.33 28.46 19.08
  Q 28.66 19.55 29.17 19.62
  L 37.10 20.71
  Q 37.63 20.79 37.65 20.25
  C 38.15 7.99 22.69 7.06 14.68 10.38
  Q 8.15 13.09 10.21 21.67
  Q 8.50 20.53 9.02 17.82
  A 1.69 1.69 0.0 0 0 6.93 15.87
  Q 5.41 16.28 4.94 15.43
  Q 4.71 15.00 4.22 15.00
  L 3.75 15.00
  Q 3.20 15.00 3.00 14.49
  Q 2.75 13.84 2.00 14.00
  A 0.64 0.64 0.0 0 1 1.29 13.67
  Q 0.95 13.03 0.18 12.96
  Q 2.28 2.04 13.60 0.00
  Z" fill="#1b1b1b"></path>
<path d="M 37.61 34.71
  L 36.00 36.37
  L 32.77 38.01
  C 24.03 40.93 9.44 40.38 9.22 27.95
  Q 9.20 27.12 10.02 27.26
  L 17.52 28.56
  Q 18.45 28.72 18.60 29.65
  Q 18.81 30.86 20.76 31.16
  Q 23.64 31.60 26.71 31.16
  A 1.81 1.79 10.3 0 0 28.01 30.27
  Q 29.07 28.43 26.74 28.01
  C 21.85 27.12 12.56 26.70 10.21 21.67
  Q 8.15 13.09 14.68 10.38
  C 22.69 7.06 38.15 7.99 37.65 20.25
  Q 37.63 20.79 37.10 20.71
  L 29.17 19.62
  Q 28.66 19.55 28.46 19.08
  C 27.27 16.33 23.23 16.68 20.77 17.12
  A 1.55 1.55 0.0 0 0 19.51 18.54
  Q 19.43 19.69 20.88 19.98
  Q 25.17 20.85 29.48 21.73
  C 33.71 22.60 37.42 23.14 38.50 27.95
  Q 39.10 30.65 37.61 34.71
  Z" fill="#f1f1f1"></path>
<path d="M 0.18 12.96
  Q 0.95 13.03 1.29 13.67
  A 0.64 0.64 0.0 0 0 2.00 14.00
  Q 2.75 13.84 3.00 14.49
  Q 3.20 15.00 3.75 15.00
  L 4.22 15.00
  Q 4.71 15.00 4.94 15.43
  Q 5.41 16.28 6.93 15.87
  A 1.69 1.69 0.0 0 1 9.02 17.82
  Q 8.50 20.53 10.21 21.67
  C 12.56 26.70 21.85 27.12 26.74 28.01
  Q 29.07 28.43 28.01 30.27
  A 1.81 1.79 10.3 0 1 26.71 31.16
  Q 23.64 31.60 20.76 31.16
  Q 18.81 30.86 18.60 29.65
  Q 18.45 28.72 17.52 28.56
  L 10.02 27.26
  Q 9.20 27.12 9.22 27.95
  C 9.44 40.38 24.03 40.93 32.77 38.01
  Q 34.67 38.33 36.00 36.37
  L 37.61 34.71
  Q 39.34 30.89 42.74 34.21
  Q 43.04 34.50 43.41 34.70
  L 44.72 35.42
  A 0.65 0.61 83.5 0 1 44.91 35.58
  Q 45.71 36.65 47.30 37.28
  Q 44.31 46.29 34.41 48.00
  L 13.40 48.00
  Q 2.05 45.83 0.00 34.46
  L 0.00 13.25
  Q 0.79 13.25 0.18 12.96
  Z" fill="#080808"></path>
<path d="M 36.00 36.37
  Q 34.67 38.33 32.77 38.01
  L 36.00 36.37
  Z" fill="#1b1b1b"></path>
</svg>
