<svg viewBox="0.00 0.00 200.00 200.00" version="1.1" xmlns="http://www.w3.org/2000/svg">
<g stroke-linecap="butt" fill="none" stroke-width="2.00">
<path d="M 59.58 36.30
  C 38.87 49.32 23.77 71.20 22.29 96.33
  A 0.83 0.83 0.0 0 0 23.15 97.21
  C 43.91 96.36 62.41 103.49 78.68 116.08
  Q 87.90 123.22 97.08 130.41
  C 114.95 144.39 134.89 153.32 157.78 154.70
  Q 158.51 154.75 158.99 154.20
  C 167.45 144.39 176.54 127.95 176.65 114.49
  A 0.48 0.47 3.4 0 0 176.23 114.02
  Q 139.15 110.05 108.14 130.10
  A 0.87 0.87 0.0 0 1 107.16 130.07
  L 98.33 123.46
  A 0.73 0.73 0.0 0 1 98.32 122.29
  C 122.12 103.79 146.46 94.04 177.07 97.98
  A 0.62 0.61 0.8 0 0 177.76 97.32
  C 173.23 44.85 121.51 12.45 72.22 30.25
  Q 71.74 30.42 71.38 30.05
  C 68.56 27.14 67.21 23.39 65.54 19.81
  A 0.77 0.77 0.0 0 0 64.63 19.40
  Q 64.37 19.48 64.14 19.86
  C 61.00 25.03 60.90 29.76 60.08 35.52
  Q 60.01 36.03 59.58 36.30" stroke="#808080"></path>
<path d="M 141.52 168.32
  C 131.43 165.57 119.48 160.63 111.52 155.47
  C 99.24 147.52 86.03 135.42 72.26 126.69
  Q 50.24 112.73 23.36 113.51
  Q 22.69 113.53 22.80 114.18
  L 23.62 119.09
  Q 23.74 119.77 24.42 119.75
  C 46.61 119.20 64.64 127.36 81.68 140.82
  Q 95.23 151.52 103.40 157.30
  Q 116.99 166.93 133.66 172.71
  Q 134.98 173.17 136.20 172.48
  L 141.65 169.41
  Q 142.92 168.70 141.52 168.32" stroke="#808080"></path>
<path d="M 29.77 136.99
  C 45.27 168.48 78.81 186.21 113.59 180.09
  Q 114.39 179.95 113.72 179.49
  Q 101.35 170.98 89.48 161.56
  C 71.06 146.93 53.81 136.94 29.78 135.84
  Q 29.56 135.83 29.56 136.05
  Q 29.55 136.54 29.77 136.99" stroke="#808080"></path>
<path d="M 113.96 49.35
  C 119.59 48.78 126.50 48.84 131.43 52.56
  C 139.99 59.01 148.47 65.61 159.83 64.98
  A 0.49 0.49 0.0 0 0 160.21 64.22
  C 142.15 36.86 110.21 25.53 78.74 34.50
  A 0.28 0.27 -24.1 0 0 78.58 34.91
  Q 78.73 35.16 79.15 35.33
  Q 83.20 37.00 87.55 37.58
  C 98.54 39.05 106.48 39.25 113.13 48.96
  A 0.90 0.90 0.0 0 0 113.96 49.35" stroke="#808080"></path>
<path d="M 109.85 55.86
  C 105.38 45.02 96.41 45.19 86.25 43.85
  Q 75.21 42.41 67.07 34.69
  A 0.32 0.31 -65.3 0 0 66.54 34.89
  C 65.26 46.74 69.15 57.56 79.36 64.19
  C 83.23 66.70 87.12 69.44 91.47 71.07
  C 94.50 72.21 93.61 75.88 91.80 77.83
  C 84.71 85.49 77.02 93.82 72.15 103.12
  Q 71.90 103.60 72.34 103.92
  L 92.38 118.52
  A 0.43 0.42 44.2 0 0 92.89 118.52
  L 105.60 109.17
  A 0.71 0.71 0.0 0 0 105.87 108.43
  C 104.02 100.36 103.57 93.80 105.52 85.66
  C 106.61 81.11 108.62 77.90 113.81 79.41
  C 130.10 84.17 147.15 87.05 158.85 71.77
  A 0.26 0.25 -71.3 0 0 158.65 71.35
  C 148.43 71.41 140.89 67.11 132.87 61.40
  C 124.81 55.67 120.86 53.76 111.23 56.52
  Q 110.24 56.81 109.85 55.86" stroke="#808080"></path>
<path d="M 30.25 90.98
  C 42.66 91.49 54.80 94.66 65.82 100.51
  Q 66.37 100.80 66.65 100.24
  C 71.13 91.39 78.37 83.19 85.04 75.96
  A 0.53 0.53 0.0 0 0 84.93 75.15
  C 72.39 67.32 61.89 60.48 60.48 44.19
  A 0.59 0.59 0.0 0 0 59.55 43.76
  Q 35.32 60.66 29.29 89.75
  Q 29.05 90.93 30.25 90.98" stroke="#808080"></path>
<path d="M 129.84 89.35
  Q 120.99 88.17 112.53 85.48
  A 0.41 0.41 0.0 0 0 112.01 85.76
  Q 109.43 95.05 111.22 104.53
  A 0.74 0.74 0.0 0 0 112.33 105.03
  Q 138.96 89.38 170.04 91.09
  A 0.49 0.49 0.0 0 0 170.55 90.51
  Q 169.03 82.34 165.84 74.66
  A 0.56 0.55 53.2 0 0 164.90 74.52
  Q 162.58 77.30 159.99 79.75
  Q 147.39 91.70 129.84 89.35" stroke="#808080"></path>
<path d="M 114.22 134.79
  L 128.51 142.05
  A 0.51 0.51 0.0 0 0 128.92 142.07
  Q 145.40 136.02 162.96 135.85
  Q 163.95 135.84 164.38 134.95
  Q 167.70 128.02 169.59 120.56
  A 0.60 0.60 0.0 0 0 169.04 119.82
  Q 139.34 118.28 114.18 133.75
  A 0.60 0.59 -47.3 0 0 114.22 134.79" stroke="#808080"></path>
<path d="M 159.53 142.19
  Q 150.00 142.66 140.74 144.93
  Q 138.56 145.46 140.76 145.92
  Q 147.90 147.43 155.16 148.24
  Q 155.83 148.32 156.23 147.77
  L 159.86 142.81
  A 0.39 0.39 0.0 0 0 159.53 142.19" stroke="#808080"></path>
<path d="M 41.13 144.41
  C 53.14 162.08 73.67 173.52 95.15 174.84
  Q 96.39 174.92 95.42 174.13
  C 78.89 160.67 63.39 148.30 41.79 143.43
  Q 40.22 143.08 41.13 144.41" stroke="#808080"></path>
</g>
<path d="M 95.04 0.00
  L 104.99 0.00
  C 157.12 3.33 196.46 43.02 200.00 95.03
  L 200.00 105.01
  C 196.53 157.02 157.03 196.59 104.99 200.00
  L 94.98 200.00
  Q 48.64 196.65 20.84 161.17
  Q 1.97 137.09 0.00 104.96
  L 0.00 95.02
  C 3.19 42.80 43.05 3.76 95.04 0.00
  Z
  M 59.58 36.30
  C 38.87 49.32 23.77 71.20 22.29 96.33
  A 0.83 0.83 0.0 0 0 23.15 97.21
  C 43.91 96.36 62.41 103.49 78.68 116.08
  Q 87.90 123.22 97.08 130.41
  C 114.95 144.39 134.89 153.32 157.78 154.70
  Q 158.51 154.75 158.99 154.20
  C 167.45 144.39 176.54 127.95 176.65 114.49
  A 0.48 0.47 3.4 0 0 176.23 114.02
  Q 139.15 110.05 108.14 130.10
  A 0.87 0.87 0.0 0 1 107.16 130.07
  L 98.33 123.46
  A 0.73 0.73 0.0 0 1 98.32 122.29
  C 122.12 103.79 146.46 94.04 177.07 97.98
  A 0.62 0.61 0.8 0 0 177.76 97.32
  C 173.23 44.85 121.51 12.45 72.22 30.25
  Q 71.74 30.42 71.38 30.05
  C 68.56 27.14 67.21 23.39 65.54 19.81
  A 0.77 0.77 0.0 0 0 64.63 19.40
  Q 64.37 19.48 64.14 19.86
  C 61.00 25.03 60.90 29.76 60.08 35.52
  Q 60.01 36.03 59.58 36.30
  Z
  M 141.52 168.32
  C 131.43 165.57 119.48 160.63 111.52 155.47
  C 99.24 147.52 86.03 135.42 72.26 126.69
  Q 50.24 112.73 23.36 113.51
  Q 22.69 113.53 22.80 114.18
  L 23.62 119.09
  Q 23.74 119.77 24.42 119.75
  C 46.61 119.20 64.64 127.36 81.68 140.82
  Q 95.23 151.52 103.40 157.30
  Q 116.99 166.93 133.66 172.71
  Q 134.98 173.17 136.20 172.48
  L 141.65 169.41
  Q 142.92 168.70 141.52 168.32
  Z
  M 29.77 136.99
  C 45.27 168.48 78.81 186.21 113.59 180.09
  Q 114.39 179.95 113.72 179.49
  Q 101.35 170.98 89.48 161.56
  C 71.06 146.93 53.81 136.94 29.78 135.84
  Q 29.56 135.83 29.56 136.05
  Q 29.55 136.54 29.77 136.99
  Z" fill="#000000"></path>
<path d="M 60.08 35.52
  C 60.90 29.76 61.00 25.03 64.14 19.86
  Q 64.37 19.48 64.63 19.40
  A 0.77 0.77 0.0 0 1 65.54 19.81
  C 67.21 23.39 68.56 27.14 71.38 30.05
  Q 71.74 30.42 72.22 30.25
  C 121.51 12.45 173.23 44.85 177.76 97.32
  A 0.62 0.61 0.8 0 1 177.07 97.98
  C 146.46 94.04 122.12 103.79 98.32 122.29
  A 0.73 0.73 0.0 0 0 98.33 123.46
  L 107.16 130.07
  A 0.87 0.87 0.0 0 0 108.14 130.10
  Q 139.15 110.05 176.23 114.02
  A 0.48 0.47 3.4 0 1 176.65 114.49
  C 176.54 127.95 167.45 144.39 158.99 154.20
  Q 158.51 154.75 157.78 154.70
  C 134.89 153.32 114.95 144.39 97.08 130.41
  Q 87.90 123.22 78.68 116.08
  C 62.41 103.49 43.91 96.36 23.15 97.21
  A 0.83 0.83 0.0 0 1 22.29 96.33
  C 23.77 71.20 38.87 49.32 59.58 36.30
  Q 60.01 36.03 60.08 35.52
  Z
  M 113.96 49.35
  C 119.59 48.78 126.50 48.84 131.43 52.56
  C 139.99 59.01 148.47 65.61 159.83 64.98
  A 0.49 0.49 0.0 0 0 160.21 64.22
  C 142.15 36.86 110.21 25.53 78.74 34.50
  A 0.28 0.27 -24.1 0 0 78.58 34.91
  Q 78.73 35.16 79.15 35.33
  Q 83.20 37.00 87.55 37.58
  C 98.54 39.05 106.48 39.25 113.13 48.96
  A 0.90 0.90 0.0 0 0 113.96 49.35
  Z
  M 109.85 55.86
  C 105.38 45.02 96.41 45.19 86.25 43.85
  Q 75.21 42.41 67.07 34.69
  A 0.32 0.31 -65.3 0 0 66.54 34.89
  C 65.26 46.74 69.15 57.56 79.36 64.19
  C 83.23 66.70 87.12 69.44 91.47 71.07
  C 94.50 72.21 93.61 75.88 91.80 77.83
  C 84.71 85.49 77.02 93.82 72.15 103.12
  Q 71.90 103.60 72.34 103.92
  L 92.38 118.52
  A 0.43 0.42 44.2 0 0 92.89 118.52
  L 105.60 109.17
  A 0.71 0.71 0.0 0 0 105.87 108.43
  C 104.02 100.36 103.57 93.80 105.52 85.66
  C 106.61 81.11 108.62 77.90 113.81 79.41
  C 130.10 84.17 147.15 87.05 158.85 71.77
  A 0.26 0.25 -71.3 0 0 158.65 71.35
  C 148.43 71.41 140.89 67.11 132.87 61.40
  C 124.81 55.67 120.86 53.76 111.23 56.52
  Q 110.24 56.81 109.85 55.86
  Z
  M 30.25 90.98
  C 42.66 91.49 54.80 94.66 65.82 100.51
  Q 66.37 100.80 66.65 100.24
  C 71.13 91.39 78.37 83.19 85.04 75.96
  A 0.53 0.53 0.0 0 0 84.93 75.15
  C 72.39 67.32 61.89 60.48 60.48 44.19
  A 0.59 0.59 0.0 0 0 59.55 43.76
  Q 35.32 60.66 29.29 89.75
  Q 29.05 90.93 30.25 90.98
  Z
  M 129.84 89.35
  Q 120.99 88.17 112.53 85.48
  A 0.41 0.41 0.0 0 0 112.01 85.76
  Q 109.43 95.05 111.22 104.53
  A 0.74 0.74 0.0 0 0 112.33 105.03
  Q 138.96 89.38 170.04 91.09
  A 0.49 0.49 0.0 0 0 170.55 90.51
  Q 169.03 82.34 165.84 74.66
  A 0.56 0.55 53.2 0 0 164.90 74.52
  Q 162.58 77.30 159.99 79.75
  Q 147.39 91.70 129.84 89.35
  Z
  M 114.22 134.79
  L 128.51 142.05
  A 0.51 0.51 0.0 0 0 128.92 142.07
  Q 145.40 136.02 162.96 135.85
  Q 163.95 135.84 164.38 134.95
  Q 167.70 128.02 169.59 120.56
  A 0.60 0.60 0.0 0 0 169.04 119.82
  Q 139.34 118.28 114.18 133.75
  A 0.60 0.59 -47.3 0 0 114.22 134.79
  Z
  M 159.53 142.19
  Q 150.00 142.66 140.74 144.93
  Q 138.56 145.46 140.76 145.92
  Q 147.90 147.43 155.16 148.24
  Q 155.83 148.32 156.23 147.77
  L 159.86 142.81
  A 0.39 0.39 0.0 0 0 159.53 142.19
  Z" fill="#ffffff"></path>
<path d="M 131.43 52.56
  C 126.50 48.84 119.59 48.78 113.96 49.35
  A 0.90 0.90 0.0 0 1 113.13 48.96
  C 106.48 39.25 98.54 39.05 87.55 37.58
  Q 83.20 37.00 79.15 35.33
  Q 78.73 35.16 78.58 34.91
  A 0.28 0.27 -24.1 0 1 78.74 34.50
  C 110.21 25.53 142.15 36.86 160.21 64.22
  A 0.49 0.49 0.0 0 1 159.83 64.98
  C 148.47 65.61 139.99 59.01 131.43 52.56
  Z" fill="#000000"></path>
<path d="M 109.85 55.86
  Q 110.24 56.81 111.23 56.52
  C 120.86 53.76 124.81 55.67 132.87 61.40
  C 140.89 67.11 148.43 71.41 158.65 71.35
  A 0.26 0.25 -71.3 0 1 158.85 71.77
  C 147.15 87.05 130.10 84.17 113.81 79.41
  C 108.62 77.90 106.61 81.11 105.52 85.66
  C 103.57 93.80 104.02 100.36 105.87 108.43
  A 0.71 0.71 0.0 0 1 105.60 109.17
  L 92.89 118.52
  A 0.43 0.42 44.2 0 1 92.38 118.52
  L 72.34 103.92
  Q 71.90 103.60 72.15 103.12
  C 77.02 93.82 84.71 85.49 91.80 77.83
  C 93.61 75.88 94.50 72.21 91.47 71.07
  C 87.12 69.44 83.23 66.70 79.36 64.19
  C 69.15 57.56 65.26 46.74 66.54 34.89
  A 0.32 0.31 -65.3 0 1 67.07 34.69
  Q 75.21 42.41 86.25 43.85
  C 96.41 45.19 105.38 45.02 109.85 55.86
  Z" fill="#000000"></path>
<path d="M 65.82 100.51
  C 54.80 94.66 42.66 91.49 30.25 90.98
  Q 29.05 90.93 29.29 89.75
  Q 35.32 60.66 59.55 43.76
  A 0.59 0.59 0.0 0 1 60.48 44.19
  C 61.89 60.48 72.39 67.32 84.93 75.15
  A 0.53 0.53 0.0 0 1 85.04 75.96
  C 78.37 83.19 71.13 91.39 66.65 100.24
  Q 66.37 100.80 65.82 100.51
  Z" fill="#000000"></path>
<path d="M 129.84 89.35
  Q 147.39 91.70 159.99 79.75
  Q 162.58 77.30 164.90 74.52
  A 0.56 0.55 53.2 0 1 165.84 74.66
  Q 169.03 82.34 170.55 90.51
  A 0.49 0.49 0.0 0 1 170.04 91.09
  Q 138.96 89.38 112.33 105.03
  A 0.74 0.74 0.0 0 1 111.22 104.53
  Q 109.43 95.05 112.01 85.76
  A 0.41 0.41 0.0 0 1 112.53 85.48
  Q 120.99 88.17 129.84 89.35
  Z" fill="#000000"></path>
<path d="M 111.52 155.47
  C 119.48 160.63 131.43 165.57 141.52 168.32
  Q 142.92 168.70 141.65 169.41
  L 136.20 172.48
  Q 134.98 173.17 133.66 172.71
  Q 116.99 166.93 103.40 157.30
  Q 95.23 151.52 81.68 140.82
  C 64.64 127.36 46.61 119.20 24.42 119.75
  Q 23.74 119.77 23.62 119.09
  L 22.80 114.18
  Q 22.69 113.53 23.36 113.51
  Q 50.24 112.73 72.26 126.69
  C 86.03 135.42 99.24 147.52 111.52 155.47
  Z" fill="#ffffff"></path>
<path d="M 128.51 142.05
  L 114.22 134.79
  A 0.60 0.59 -47.3 0 1 114.18 133.75
  Q 139.34 118.28 169.04 119.82
  A 0.60 0.60 0.0 0 1 169.59 120.56
  Q 167.70 128.02 164.38 134.95
  Q 163.95 135.84 162.96 135.85
  Q 145.40 136.02 128.92 142.07
  A 0.51 0.51 0.0 0 1 128.51 142.05
  Z" fill="#000000"></path>
<path d="M 113.59 180.09
  C 78.81 186.21 45.27 168.48 29.77 136.99
  Q 29.55 136.54 29.56 136.05
  Q 29.56 135.83 29.78 135.84
  C 53.81 136.94 71.06 146.93 89.48 161.56
  Q 101.35 170.98 113.72 179.49
  Q 114.39 179.95 113.59 180.09
  Z
  M 41.13 144.41
  C 53.14 162.08 73.67 173.52 95.15 174.84
  Q 96.39 174.92 95.42 174.13
  C 78.89 160.67 63.39 148.30 41.79 143.43
  Q 40.22 143.08 41.13 144.41
  Z" fill="#ffffff"></path>
<path d="M 159.53 142.19
  A 0.39 0.39 0.0 0 1 159.86 142.81
  L 156.23 147.77
  Q 155.83 148.32 155.16 148.24
  Q 147.90 147.43 140.76 145.92
  Q 138.56 145.46 140.74 144.93
  Q 150.00 142.66 159.53 142.19
  Z" fill="#000000"></path>
<path d="M 95.15 174.84
  C 73.67 173.52 53.14 162.08 41.13 144.41
  Q 40.22 143.08 41.79 143.43
  C 63.39 148.30 78.89 160.67 95.42 174.13
  Q 96.39 174.92 95.15 174.84
  Z" fill="#000000"></path>
</svg>
