<svg viewBox="0.00 0.00 128.00 128.00" version="1.1" xmlns="http://www.w3.org/2000/svg">
<path d="M 64.82 1.08
  A 0.45 0.45 0.0 0 1 65.27 1.53
  L 65.27 23.78
  A 1.12 1.11 -90.0 0 1 64.16 24.90
  L 63.98 24.90
  A 1.12 1.11 -90.0 0 1 62.87 23.78
  L 62.87 1.53
  A 0.45 0.45 0.0 0 1 63.32 1.08
  L 64.82 1.08
  Z" fill="#231b26"></path>
<rect rx="1.17" height="23.22" width="2.60" transform="translate(52.05,14.22) rotate(-15.2)" y="-11.61" x="-1.30" fill="#231b26"></rect>
<rect rx="1.08" height="24.26" width="2.50" transform="translate(76.02,14.66) rotate(15.0)" y="-12.13" x="-1.25" fill="#231b26"></rect>
<rect rx="1.20" height="24.24" width="2.46" transform="translate(41.03,19.16) rotate(-30.3)" y="-12.12" x="-1.23" fill="#231b26"></rect>
<rect rx="1.27" height="22.70" width="2.60" transform="translate(87.57,18.49) rotate(30.4)" y="-11.35" x="-1.30" fill="#231b26"></rect>
<rect rx="1.12" height="26.22" width="2.40" transform="translate(32.15,27.16) rotate(-44.8)" y="-13.11" x="-1.20" fill="#231b26"></rect>
<rect rx="1.13" height="21.82" width="2.48" transform="translate(97.69,25.64) rotate(44.9)" y="-10.91" x="-1.24" fill="#231b26"></rect>
<rect rx="1.11" height="2.50" width="29.34" transform="translate(26.29,37.27) rotate(29.9)" y="-1.25" x="-14.67" fill="#231b26"></rect>
<rect rx="1.25" height="2.58" width="22.74" transform="translate(104.73,35.65) rotate(-29.9)" y="-1.29" x="-11.37" fill="#231b26"></rect>
<path d="M 51.07 109.28
  A 0.14 0.13 -88.6 0 0 51.22 109.13
  L 50.73 103.00
  Q 50.71 102.70 50.42 102.62
  Q 43.21 100.83 39.57 94.67
  Q 36.28 89.11 37.55 82.21
  Q 40.62 65.47 43.69 48.73
  C 45.39 39.43 47.87 32.82 57.20 30.66
  Q 60.68 29.86 66.78 30.89
  C 77.50 32.70 87.69 33.44 90.51 45.72
  Q 91.24 48.86 90.37 53.78
  Q 87.17 72.02 83.96 90.24
  C 82.45 98.86 76.98 104.13 68.34 105.02
  C 65.01 105.37 63.27 109.08 63.28 112.07
  Q 63.29 112.62 63.79 112.84
  L 64.34 113.07
  Q 64.73 113.24 64.75 113.67
  L 65.30 126.56
  A 0.12 0.12 0.0 0 1 65.18 126.69
  Q 53.93 127.09 43.23 123.62
  A 1.00 0.99 10.9 0 1 42.54 122.61
  L 43.42 108.54
  Q 43.46 108.00 43.99 108.09
  L 51.07 109.28
  Z
  M 80.07 79.09
  Q 81.56 79.23 82.83 80.04
  Q 83.08 80.19 83.13 79.91
  L 83.58 77.38
  Q 83.64 77.05 83.34 76.91
  L 80.34 75.45
  A 0.72 0.71 -65.1 0 1 80.00 74.51
  L 80.29 73.85
  A 0.75 0.74 21.8 0 1 81.23 73.45
  L 83.31 74.18
  Q 84.02 74.43 84.18 73.70
  L 84.58 71.88
  Q 84.74 71.13 84.05 70.78
  L 81.54 69.50
  Q 80.72 69.08 81.13 68.26
  L 81.34 67.85
  A 0.90 0.89 -64.2 0 1 82.51 67.44
  L 84.57 68.38
  Q 85.12 68.63 85.23 68.03
  L 85.57 66.30
  Q 85.70 65.58 85.03 65.30
  L 82.90 64.42
  Q 81.93 64.01 82.40 63.07
  L 82.55 62.76
  Q 82.96 61.94 83.80 62.28
  L 85.49 62.94
  Q 86.13 63.19 86.28 62.51
  L 86.66 60.70
  Q 86.82 59.96 86.10 59.72
  Q 85.34 59.47 84.20 58.98
  Q 83.61 58.72 83.45 58.31
  Q 83.17 57.61 83.80 56.86
  A 0.83 0.82 29.6 0 1 84.73 56.61
  L 86.50 57.30
  Q 86.98 57.48 87.10 56.99
  L 87.70 54.74
  Q 87.90 53.97 87.14 53.75
  Q 85.35 53.21 84.82 52.67
  Q 83.80 51.63 85.15 50.56
  A 0.68 0.68 0.0 0 1 85.84 50.47
  L 87.77 51.30
  Q 88.24 51.50 88.29 51.00
  Q 89.02 43.35 83.48 38.26
  Q 83.10 37.91 82.61 37.83
  C 79.70 37.37 74.02 37.02 72.56 39.32
  Q 71.40 41.15 70.09 42.88
  Q 69.23 44.01 68.18 43.07
  A 0.61 0.61 0.0 0 1 67.99 42.45
  Q 69.17 38.08 72.94 35.75
  Q 73.28 35.54 72.88 35.49
  C 68.55 35.05 66.71 38.42 64.77 42.00
  Q 64.17 43.10 63.26 42.24
  L 62.95 41.94
  A 1.17 1.15 -51.5 0 1 62.79 40.45
  L 66.50 34.94
  Q 66.77 34.53 66.29 34.63
  C 62.94 35.35 61.24 38.43 59.97 41.20
  A 0.90 0.90 0.0 0 1 58.84 41.67
  L 58.56 41.56
  Q 57.43 41.14 57.84 40.00
  Q 58.98 36.88 61.28 34.49
  Q 62.02 33.72 61.00 34.02
  C 58.01 34.90 56.59 37.90 55.51 40.60
  A 0.90 0.89 22.5 0 1 54.32 41.09
  L 53.92 40.92
  Q 52.74 40.40 53.36 39.26
  L 56.23 34.00
  Q 56.33 33.82 56.30 33.80
  L 56.10 33.64
  A 0.28 0.28 0.0 0 0 55.73 33.67
  Q 53.38 36.14 52.25 39.21
  Q 51.88 40.20 51.37 40.61
  Q 49.96 41.72 49.50 39.38
  Q 49.27 38.24 48.79 39.29
  L 47.58 41.92
  Q 47.10 42.96 48.24 43.00
  Q 65.40 43.53 81.61 49.10
  A 0.90 0.90 0.0 0 1 82.17 50.24
  L 82.08 50.49
  A 1.26 1.25 18.7 0 1 80.49 51.27
  Q 64.34 45.83 47.27 45.48
  A 0.61 0.60 4.9 0 0 46.66 45.99
  L 46.24 48.54
  Q 46.14 49.17 46.79 49.18
  Q 64.15 49.42 80.55 55.11
  A 0.91 0.91 0.0 0 1 81.13 56.18
  L 81.05 56.52
  Q 80.73 57.84 79.44 57.41
  Q 63.40 52.01 46.45 51.56
  Q 45.69 51.54 45.54 52.29
  L 45.19 53.99
  Q 45.04 54.74 45.80 54.73
  C 51.68 54.71 59.72 55.21 66.31 57.16
  C 70.88 58.51 75.25 59.03 79.58 60.84
  A 0.87 0.86 -65.8 0 1 80.02 62.01
  L 79.91 62.25
  Q 79.42 63.27 78.35 62.91
  Q 62.33 57.51 45.42 57.00
  Q 44.78 56.98 44.62 57.60
  L 44.16 59.40
  Q 44.03 59.88 44.53 59.89
  Q 61.79 60.38 78.16 65.84
  A 1.00 0.99 -75.8 0 1 78.82 66.96
  L 78.76 67.32
  Q 78.54 68.61 77.30 68.19
  Q 61.30 62.76 44.38 62.41
  Q 43.82 62.40 43.73 62.95
  L 43.34 65.22
  Q 43.24 65.83 43.85 65.85
  Q 53.02 66.19 62.04 67.84
  C 63.57 68.12 65.10 68.89 66.74 69.18
  C 70.36 69.83 73.33 70.63 76.75 71.63
  A 1.38 1.37 -77.1 0 1 77.72 73.19
  L 77.65 73.54
  A 0.86 0.86 0.0 0 1 76.54 74.21
  Q 61.76 69.44 46.25 68.37
  Q 45.31 68.31 43.08 68.44
  Q 42.79 68.46 42.74 68.75
  L 42.30 71.25
  A 0.21 0.21 0.0 0 0 42.50 71.50
  Q 59.72 72.05 76.03 77.51
  Q 76.95 77.82 76.69 78.75
  L 76.62 79.01
  Q 76.32 80.09 75.25 79.73
  Q 59.17 74.38 42.20 73.97
  Q 41.63 73.95 41.55 74.52
  L 41.24 76.70
  A 0.49 0.48 -85.8 0 0 41.71 77.25
  Q 58.58 77.76 74.52 83.23
  Q 75.54 83.58 75.09 84.55
  L 74.98 84.79
  A 1.41 1.41 0.0 0 1 73.24 85.52
  Q 57.70 80.11 41.24 79.78
  Q 40.73 79.77 40.65 80.27
  L 40.28 82.55
  A 0.54 0.54 0.0 0 0 40.78 83.18
  C 53.41 84.02 61.64 85.44 73.64 89.24
  A 0.96 0.95 -68.4 0 1 74.21 90.57
  L 74.08 90.85
  Q 73.56 91.92 72.44 91.55
  Q 57.69 86.70 42.19 85.86
  Q 41.63 85.83 41.53 86.38
  Q 40.78 90.19 41.95 93.89
  Q 42.00 94.03 42.08 94.10
  Q 42.18 94.19 42.29 94.25
  Q 42.49 94.36 42.50 94.14
  L 42.77 88.93
  A 1.00 0.99 -86.5 0 1 43.82 87.99
  L 44.37 88.02
  A 1.16 1.15 8.6 0 1 45.42 89.44
  Q 44.52 93.22 45.54 96.95
  A 2.17 2.14 10.6 0 0 46.37 98.14
  L 47.26 98.77
  Q 48.15 99.41 47.85 98.36
  Q 46.78 94.65 47.05 90.80
  Q 47.15 89.38 48.55 89.65
  L 48.90 89.72
  A 0.89 0.89 0.0 0 1 49.62 90.66
  Q 49.31 94.92 50.62 98.91
  A 2.12 2.11 -2.5 0 0 52.15 100.31
  L 53.26 100.57
  Q 54.06 100.76 53.73 100.00
  Q 52.08 96.24 52.36 92.14
  A 1.40 1.39 -88.0 0 1 53.75 90.84
  L 54.04 90.84
  A 0.94 0.94 0.0 0 1 54.98 91.83
  C 54.75 96.89 55.91 101.47 61.75 101.98
  Q 62.40 102.04 61.99 101.54
  Q 59.21 98.13 58.85 93.75
  Q 58.75 92.53 59.90 92.08
  L 60.18 91.97
  A 0.84 0.84 0.0 0 1 61.31 92.60
  C 61.74 94.81 61.96 97.17 63.24 99.00
  C 68.27 106.24 76.54 100.81 79.82 94.89
  Q 80.11 94.36 79.55 94.13
  L 77.09 93.14
  A 1.02 1.01 -73.7 0 1 76.47 92.00
  L 76.55 91.62
  A 1.15 1.15 0.0 0 1 78.15 90.79
  L 80.49 91.82
  Q 81.08 92.09 81.15 91.44
  L 81.38 89.27
  Q 81.46 88.52 80.77 88.23
  L 78.14 87.13
  A 1.24 1.24 0.0 0 1 77.47 85.50
  L 77.64 85.09
  A 0.82 0.80 16.6 0 1 78.55 84.61
  Q 80.01 84.91 81.19 85.81
  Q 81.84 86.30 82.04 85.52
  L 82.64 83.28
  Q 82.78 82.75 82.28 82.54
  L 79.50 81.34
  A 1.18 1.17 59.2 0 1 80.07 79.09
  Z
  M 60.06 111.47
  A 0.34 0.34 0.0 0 0 60.47 111.26
  L 62.70 105.20
  A 0.34 0.34 0.0 0 0 62.44 104.75
  L 53.43 103.17
  A 0.34 0.34 0.0 0 0 53.03 103.55
  L 53.87 109.64
  A 0.34 0.34 0.0 0 0 54.12 109.93
  L 60.06 111.47
  Z
  M 61.56 124.61
  A 1.02 1.02 0.0 0 0 62.74 123.54
  L 62.22 115.58
  A 1.02 1.02 0.0 0 0 61.45 114.66
  L 46.98 110.93
  A 1.02 1.02 0.0 0 0 45.71 111.88
  L 45.35 121.14
  A 1.02 1.02 0.0 0 0 46.21 122.19
  L 61.56 124.61
  Z" fill="#231b26"></path>
<rect rx="1.18" height="2.52" width="31.08" transform="translate(22.74,47.95) rotate(15.0)" y="-1.26" x="-15.54" fill="#231b26"></rect>
<rect rx="1.21" height="2.48" width="24.94" transform="translate(108.36,47.19) rotate(-14.9)" y="-1.24" x="-12.47" fill="#231b26"></rect>
<rect rx="1.13" height="2.56" width="30.58" transform="translate(21.26,58.99) rotate(0.1)" y="-1.28" x="-15.29" fill="#231b26"></rect>
<rect rx="1.14" height="2.52" width="27.52" y="57.71" x="94.80" fill="#231b26"></rect>
<rect rx="1.22" height="2.52" width="28.12" transform="translate(21.46,70.41) rotate(-14.9)" y="-1.26" x="-14.06" fill="#231b26"></rect>
<rect rx="1.13" height="2.50" width="27.86" transform="translate(106.84,70.39) rotate(14.9)" y="-1.25" x="-13.93" fill="#231b26"></rect>
<rect rx="1.07" height="2.50" width="25.96" transform="translate(103.26,81.55) rotate(29.9)" y="-1.25" x="-12.98" fill="#231b26"></rect>
<rect rx="1.19" height="2.58" width="22.42" transform="translate(23.43,82.41) rotate(-30.1)" y="-1.29" x="-11.21" fill="#231b26"></rect>
<rect rx="1.23" height="21.16" width="2.54" transform="translate(97.79,92.57) rotate(-44.8)" y="-10.58" x="-1.27" fill="#231b26"></rect>
<rect rx="1.09" height="13.04" width="2.58" transform="translate(27.55,95.42) rotate(44.2)" y="-6.52" x="-1.29" fill="#231b26"></rect>
<rect rx="1.06" height="12.46" width="2.52" transform="translate(90.12,103.83) rotate(-29.3)" y="-6.23" x="-1.26" fill="#231b26"></rect>
<rect rx="1.15" height="7.80" width="2.56" transform="translate(36.89,105.89) rotate(30.1)" y="-3.90" x="-1.28" fill="#231b26"></rect>
<rect rx="1.20" height="7.02" width="2.52" transform="translate(78.22,111.63) rotate(-15.6)" y="-3.51" x="-1.26" fill="#231b26"></rect>
</svg>
