<svg viewBox="0.00 0.00 48.00 48.00" version="1.1" xmlns="http://www.w3.org/2000/svg">
<g stroke-linecap="butt" fill="none" stroke-width="2.00">
<path d="M 41.28 23.88
  Q 39.95 24.04 39.03 25.26
  Q 38.74 25.63 38.27 25.63
  L 37.46 25.63
  Q 36.88 25.63 36.51 26.07
  Q 35.38 27.41 33.67 27.29
  Q 33.16 27.25 32.93 27.39
  Q 32.52 27.62 32.32 28.11
  Q 32.14 28.55 31.69 28.44
  Q 30.16 28.07 29.04 28.83
  Q 27.60 29.81 27.50 29.86
  Q 25.90 30.67 24.25 31.50
  Q 23.83 31.71 23.37 31.62
  Q 22.31 31.41 21.63 32.11
  A 1.15 1.15 0.0 0 1 20.77 32.47
  Q 19.49 32.44 18.63 33.29
  Q 18.29 33.62 17.81 33.58
  Q 17.11 33.51 16.69 34.08
  Q 16.37 34.50 15.85 34.57
  L 13.87 34.87
  Q 13.36 34.95 13.12 35.41
  Q 12.70 36.21 11.83 36.16
  Q 11.28 36.14 10.82 36.46
  Q 9.76 37.19 8.54 37.23
  Q 8.08 37.24 8.13 36.78
  Q 8.20 36.23 7.76 36.14
  A 0.15 0.15 0.0 0 1 7.74 35.86
  Q 7.87 35.81 8.00 35.75
  A 0.13 0.13 0.0 0 0 8.04 35.55
  Q 6.40 33.65 6.64 30.52" stroke="#00b083"></path>
<path d="M 16.74 10.22
  A 1.99 1.99 0.0 0 1 18.83 11.70
  L 19.01 12.42
  Q 19.10 12.77 19.44 12.89
  Q 19.73 12.99 20.23 12.74
  A 0.90 0.90 0.0 0 0 20.57 11.41
  Q 17.43 6.98 14.01 10.19
  A 1.41 1.40 -24.3 0 0 13.57 11.34
  Q 13.76 13.68 14.50 12.82
  Q 14.63 12.66 14.67 12.36
  Q 14.97 10.37 16.74 10.22" stroke="#78d8c0"></path>
<path d="M 28.46 12.57
  C 28.83 10.67 30.48 9.31 32.19 10.84
  Q 32.54 11.15 32.62 11.62
  Q 32.68 12.04 32.73 12.14
  Q 33.64 14.27 34.10 12.00
  C 34.83 8.49 26.96 7.27 27.30 12.38
  Q 27.33 12.80 27.74 12.90
  Q 27.89 12.93 28.05 12.93
  Q 28.39 12.91 28.46 12.57" stroke="#78d8c0"></path>
<path d="M 28.64 19.14
  C 28.12 25.71 19.36 25.10 19.17 19.17
  Q 19.15 18.52 18.53 18.73
  L 18.29 18.81
  Q 17.67 19.02 17.79 19.65
  C 19.15 27.25 29.48 26.87 30.01 19.39
  A 0.59 0.59 0.0 0 0 29.48 18.76
  L 29.14 18.73
  Q 28.68 18.68 28.64 19.14" stroke="#78d8c0"></path>
</g>
<path d="M 9.64 0.00
  L 28.81 0.00
  L 40.37 8.65
  A 2.30 2.27 18.8 0 1 41.28 10.47
  L 41.28 23.88
  Q 39.95 24.04 39.03 25.26
  Q 38.74 25.63 38.27 25.63
  L 37.46 25.63
  Q 36.88 25.63 36.51 26.07
  Q 35.38 27.41 33.67 27.29
  Q 33.16 27.25 32.93 27.39
  Q 32.52 27.62 32.32 28.11
  Q 32.14 28.55 31.69 28.44
  Q 30.16 28.07 29.04 28.83
  Q 27.60 29.81 27.50 29.86
  Q 25.90 30.67 24.25 31.50
  Q 23.83 31.71 23.37 31.62
  Q 22.31 31.41 21.63 32.11
  A 1.15 1.15 0.0 0 1 20.77 32.47
  Q 19.49 32.44 18.63 33.29
  Q 18.29 33.62 17.81 33.58
  Q 17.11 33.51 16.69 34.08
  Q 16.37 34.50 15.85 34.57
  L 13.87 34.87
  Q 13.36 34.95 13.12 35.41
  Q 12.70 36.21 11.83 36.16
  Q 11.28 36.14 10.82 36.46
  Q 9.76 37.19 8.54 37.23
  Q 8.08 37.24 8.13 36.78
  Q 8.20 36.23 7.76 36.14
  A 0.15 0.15 0.0 0 1 7.74 35.86
  Q 7.87 35.81 8.00 35.75
  A 0.13 0.13 0.0 0 0 8.04 35.55
  Q 6.40 33.65 6.64 30.52
  Q 6.61 17.28 6.62 4.00
  Q 6.63 0.57 9.64 0.00
  Z
  M 16.74 10.22
  A 1.99 1.99 0.0 0 1 18.83 11.70
  L 19.01 12.42
  Q 19.10 12.77 19.44 12.89
  Q 19.73 12.99 20.23 12.74
  A 0.90 0.90 0.0 0 0 20.57 11.41
  Q 17.43 6.98 14.01 10.19
  A 1.41 1.40 -24.3 0 0 13.57 11.34
  Q 13.76 13.68 14.50 12.82
  Q 14.63 12.66 14.67 12.36
  Q 14.97 10.37 16.74 10.22
  Z
  M 28.46 12.57
  C 28.83 10.67 30.48 9.31 32.19 10.84
  Q 32.54 11.15 32.62 11.62
  Q 32.68 12.04 32.73 12.14
  Q 33.64 14.27 34.10 12.00
  C 34.83 8.49 26.96 7.27 27.30 12.38
  Q 27.33 12.80 27.74 12.90
  Q 27.89 12.93 28.05 12.93
  Q 28.39 12.91 28.46 12.57
  Z
  M 28.64 19.14
  C 28.12 25.71 19.36 25.10 19.17 19.17
  Q 19.15 18.52 18.53 18.73
  L 18.29 18.81
  Q 17.67 19.02 17.79 19.65
  C 19.15 27.25 29.48 26.87 30.01 19.39
  A 0.59 0.59 0.0 0 0 29.48 18.76
  L 29.14 18.73
  Q 28.68 18.68 28.64 19.14
  Z" fill="#00b587"></path>
<path d="M 16.74 10.22
  Q 14.97 10.37 14.67 12.36
  Q 14.63 12.66 14.50 12.82
  Q 13.76 13.68 13.57 11.34
  A 1.41 1.40 -24.3 0 1 14.01 10.19
  Q 17.43 6.98 20.57 11.41
  A 0.90 0.90 0.0 0 1 20.23 12.74
  Q 19.73 12.99 19.44 12.89
  Q 19.10 12.77 19.01 12.42
  L 18.83 11.70
  A 1.99 1.99 0.0 0 0 16.74 10.22
  Z" fill-opacity="0.996" fill="#f1fcf9"></path>
<path d="M 32.19 10.84
  C 30.48 9.31 28.83 10.67 28.46 12.57
  Q 28.39 12.91 28.05 12.93
  Q 27.89 12.93 27.74 12.90
  Q 27.33 12.80 27.30 12.38
  C 26.96 7.27 34.83 8.49 34.10 12.00
  Q 33.64 14.27 32.73 12.14
  Q 32.68 12.04 32.62 11.62
  Q 32.54 11.15 32.19 10.84
  Z" fill-opacity="0.996" fill="#f1fcf9"></path>
<path d="M 19.17 19.17
  C 19.36 25.10 28.12 25.71 28.64 19.14
  Q 28.68 18.68 29.14 18.73
  L 29.48 18.76
  A 0.59 0.59 0.0 0 1 30.01 19.39
  C 29.48 26.87 19.15 27.25 17.79 19.65
  Q 17.67 19.02 18.29 18.81
  L 18.53 18.73
  Q 19.15 18.52 19.17 19.17
  Z" fill-opacity="0.996" fill="#f1fcf9"></path>
<path d="M 41.28 23.88
  Q 41.47 41.01 41.24 45.75
  Q 41.17 47.31 38.90 48.00
  L 9.01 48.00
  Q 6.63 47.13 6.62 44.00
  Q 6.61 37.28 6.64 30.52
  Q 6.40 33.65 8.04 35.55
  A 0.13 0.13 0.0 0 1 8.00 35.75
  Q 7.87 35.81 7.74 35.86
  A 0.15 0.15 0.0 0 0 7.76 36.14
  Q 8.20 36.23 8.13 36.78
  Q 8.08 37.24 8.54 37.23
  Q 9.76 37.19 10.82 36.46
  Q 11.28 36.14 11.83 36.16
  Q 12.70 36.21 13.12 35.41
  Q 13.36 34.95 13.87 34.87
  L 15.85 34.57
  Q 16.37 34.50 16.69 34.08
  Q 17.11 33.51 17.81 33.58
  Q 18.29 33.62 18.63 33.29
  Q 19.49 32.44 20.77 32.47
  A 1.15 1.15 0.0 0 0 21.63 32.11
  Q 22.31 31.41 23.37 31.62
  Q 23.83 31.71 24.25 31.50
  Q 25.90 30.67 27.50 29.86
  Q 27.60 29.81 29.04 28.83
  Q 30.16 28.07 31.69 28.44
  Q 32.14 28.55 32.32 28.11
  Q 32.52 27.62 32.93 27.39
  Q 33.16 27.25 33.67 27.29
  Q 35.38 27.41 36.51 26.07
  Q 36.88 25.63 37.46 25.63
  L 38.27 25.63
  Q 38.74 25.63 39.03 25.26
  Q 39.95 24.04 41.28 23.88
  Z" fill="#00aa7f"></path>
</svg>
