<svg viewBox="0.00 0.00 192.00 192.00" version="1.1" xmlns="http://www.w3.org/2000/svg">
<g stroke-linecap="butt" fill="none" stroke-width="2.00">
<path d="M 48.39 47.81
  Q 48.50 47.22 49.12 46.58
  Q 52.58 43.07 55.87 39.39
  C 60.42 34.30 62.96 25.69 64.44 19.05
  A 0.34 0.34 0.0 0 0 63.93 18.69
  C 54.58 24.55 46.88 32.60 46.43 44.01
  Q 46.32 46.71 46.29 49.50
  Q 46.28 50.01 45.91 50.36
  Q 41.86 54.24 38.12 58.36
  Q 33.78 63.13 36.43 57.25
  C 40.61 47.97 42.44 39.00 43.31 28.94
  Q 43.43 27.57 42.49 28.58
  C 33.77 38.05 28.28 49.59 34.89 62.27
  Q 35.15 62.77 34.90 63.27
  Q 30.44 71.94 28.54 81.52
  Q 28.26 82.90 27.35 81.70
  Q 27.03 81.28 26.93 79.99
  Q 25.67 64.92 19.70 51.27
  Q 19.30 50.37 18.95 51.29
  Q 15.76 59.62 16.82 69.01
  C 17.66 76.51 23.26 81.06 27.32 86.77
  A 3.72 3.72 0.0 0 1 28.01 89.02
  Q 27.87 95.02 28.14 101.50
  Q 28.18 102.49 28.15 102.60
  Q 27.63 104.62 27.00 102.63
  C 23.45 91.42 17.33 83.54 9.42 75.11
  Q 8.50 74.12 8.59 75.47
  C 9.19 84.91 12.53 96.09 21.23 101.48
  C 23.63 102.96 29.04 106.18 29.59 108.98
  Q 30.20 112.13 31.32 115.17
  A 0.07 0.07 0.0 0 0 31.46 115.14
  L 29.13 102.86
  A 1.35 1.35 0.0 0 1 29.81 101.43
  C 32.99 99.69 36.72 98.10 39.47 95.90
  C 45.00 91.48 49.03 82.64 51.47 76.24
  Q 51.76 75.48 51.04 75.87
  C 42.11 80.83 34.46 86.71 30.71 96.97
  Q 30.36 97.93 30.07 98.29
  Q 29.09 99.51 29.12 97.87
  C 29.26 91.22 28.97 85.35 31.05 78.30
  Q 31.58 76.50 33.74 76.54
  C 44.34 76.74 51.43 71.15 59.67 65.20
  Q 60.62 64.51 59.45 64.39
  C 54.86 63.91 50.01 63.72 45.70 65.37
  Q 38.33 68.20 33.33 74.59
  Q 32.86 75.19 32.26 75.17
  A 0.33 0.33 0.0 0 1 31.95 74.74
  Q 34.42 66.71 39.50 60.05
  A 0.91 0.89 -68.9 0 1 40.29 59.69
  C 44.60 60.05 49.31 61.42 53.00 61.41
  C 60.29 61.40 67.98 57.69 74.13 53.33
  Q 74.61 52.99 74.02 52.93
  Q 67.40 52.25 60.76 51.68
  C 53.25 51.03 48.35 53.75 41.95 58.01
  Q 41.59 58.25 41.32 57.90
  L 41.15 57.68
  A 0.76 0.75 -40.3 0 1 41.24 56.67
  Q 49.89 48.57 60.46 42.77
  C 62.68 41.54 64.84 43.50 67.19 45.04
  C 74.13 49.61 81.00 48.57 88.39 45.97
  Q 89.56 45.56 88.43 45.04
  C 80.85 41.57 74.49 37.93 65.25 40.50
  Q 64.58 40.69 64.34 40.04
  L 64.25 39.78
  A 0.47 0.46 -22.5 0 1 64.50 39.19
  Q 73.10 35.42 78.07 27.65
  C 80.27 24.22 81.85 19.49 83.35 15.40
  Q 83.86 14.02 82.54 14.67
  C 73.20 19.31 63.49 29.35 62.14 40.44
  Q 62.04 41.20 61.37 41.56
  L 48.94 48.22
  A 0.38 0.38 0.0 0 1 48.39 47.81" stroke="#8086a4"></path>
<path d="M 161.97 120.05
  Q 159.78 122.79 160.92 119.48
  Q 163.34 112.47 164.39 105.15
  A 0.86 0.86 0.0 0 1 164.94 104.46
  C 177.62 99.76 183.61 86.97 183.43 73.97
  A 0.24 0.23 -22.9 0 0 183.03 73.81
  Q 171.89 84.86 165.91 99.37
  Q 165.82 99.58 165.68 99.70
  Q 165.47 99.89 165.32 99.88
  A 0.63 0.59 -89.1 0 1 164.75 99.25
  L 164.80 86.76
  A 5.28 5.26 63.5 0 1 165.83 83.66
  C 168.36 80.24 172.74 75.23 173.54 71.05
  Q 175.51 60.78 171.94 50.84
  A 0.61 0.61 0.0 0 0 171.23 50.45
  Q 170.78 50.55 170.53 51.05
  Q 163.59 65.16 164.03 80.90
  Q 164.05 81.41 163.58 81.22
  Q 163.16 81.05 163.04 80.58
  Q 160.36 70.39 155.29 61.85
  A 1.14 1.13 -51.5 0 1 155.19 60.92
  C 157.30 54.42 159.73 47.70 156.42 41.07
  C 153.85 35.91 150.45 31.62 146.43 27.52
  Q 145.84 26.91 145.91 27.76
  Q 146.56 35.43 148.30 42.91
  C 149.55 48.30 151.94 53.35 154.38 58.37
  Q 154.58 58.77 154.53 58.91
  A 0.58 0.54 -58.4 0 1 153.62 59.16
  L 143.54 49.28
  A 1.29 1.29 0.0 0 1 143.15 48.38
  Q 142.94 42.60 142.35 39.72
  C 140.59 31.15 134.27 24.70 127.34 19.83
  Q 126.30 19.11 126.52 20.35
  Q 127.64 26.61 130.10 32.88
  C 132.72 39.54 137.31 42.53 141.57 46.70
  Q 142.02 47.14 141.92 47.89
  Q 141.85 48.39 141.39 48.17
  L 128.67 42.29
  Q 128.19 42.07 128.03 41.56
  C 127.00 38.42 126.15 35.14 124.68 32.38
  Q 118.71 21.15 107.79 14.74
  A 0.49 0.49 0.0 0 0 107.06 15.26
  Q 108.41 22.00 111.40 27.59
  C 115.15 34.61 120.00 36.70 126.04 40.20
  Q 126.83 40.66 126.89 41.20
  A 0.54 0.54 0.0 0 1 126.21 41.78
  C 121.01 40.39 116.63 39.16 111.31 40.91
  Q 106.18 42.60 101.26 44.78
  Q 100.23 45.24 101.31 45.57
  C 108.31 47.77 114.18 49.60 121.31 46.24
  C 123.52 45.20 127.38 42.27 129.80 43.38
  Q 138.78 47.53 145.56 53.52
  Q 148.27 55.91 144.84 54.68
  C 140.79 53.21 138.38 51.08 133.00 51.26
  Q 124.85 51.53 117.28 52.85
  Q 116.30 53.02 117.15 53.53
  Q 122.41 56.67 127.86 58.81
  Q 132.46 60.62 137.14 60.60
  Q 142.87 60.58 148.50 59.27
  Q 150.65 58.77 151.81 60.71
  Q 155.73 67.25 157.64 71.77
  Q 157.88 72.34 157.71 72.74
  A 0.43 0.42 32.2 0 1 157.04 72.89
  C 153.69 69.90 150.97 66.99 146.77 65.11
  C 142.02 62.99 136.20 63.41 131.06 64.33
  A 0.45 0.45 0.0 0 0 130.89 65.14
  C 139.01 70.78 146.45 76.26 157.28 76.99
  C 159.12 77.11 160.89 77.64 161.39 79.42
  Q 163.87 88.28 163.73 97.45
  A 0.58 0.58 0.0 0 1 163.03 98.01
  Q 162.75 97.96 162.57 97.47
  C 158.52 86.37 149.87 79.40 138.98 75.52
  A 0.29 0.29 0.0 0 0 138.64 75.96
  Q 143.64 82.80 148.54 90.00
  C 152.79 96.24 156.70 97.63 162.76 99.93
  A 1.15 1.14 -77.0 0 1 163.49 101.11
  Q 161.43 123.65 146.62 140.36
  Q 143.72 143.64 140.77 145.43
  Q 139.17 146.40 140.04 144.74
  Q 141.27 142.42 142.77 139.59
  Q 148.67 128.44 145.18 115.08
  Q 144.55 112.66 143.64 114.99
  C 140.33 123.44 134.75 130.60 136.44 140.77
  C 136.76 142.70 137.53 144.53 138.19 146.48
  Q 138.36 146.97 137.99 147.34
  C 134.11 151.24 126.85 154.65 121.67 156.76
  A 0.33 0.33 0.0 0 1 121.27 156.62
  L 121.12 156.38
  A 0.57 0.56 59.3 0 1 121.32 155.59
  Q 131.52 149.75 132.75 138.32
  C 132.93 136.57 132.59 134.10 133.03 132.12
  Q 133.38 130.58 132.24 131.67
  Q 126.71 136.95 122.33 142.79
  C 119.24 146.92 118.18 151.73 116.47 156.49
  C 115.64 158.81 114.38 158.93 112.24 159.47
  Q 107.29 160.72 103.47 161.30
  Q 97.89 162.14 103.05 159.83
  C 112.70 155.52 115.85 151.86 119.41 141.49
  Q 119.83 140.27 118.67 140.85
  C 110.04 145.24 99.13 150.17 96.41 160.39
  A 0.70 0.70 0.0 0 1 95.14 160.58
  C 92.76 156.76 90.51 152.74 86.96 150.04
  Q 80.56 145.16 72.21 140.43
  A 0.36 0.36 0.0 0 0 71.71 140.89
  C 75.94 150.11 79.59 157.69 90.13 160.21
  Q 93.85 161.10 90.07 161.70
  C 87.19 162.16 79.19 159.67 75.20 158.63
  Q 74.18 158.37 73.84 157.37
  C 72.11 152.34 70.52 146.96 67.63 142.57
  Q 64.08 137.17 59.65 132.49
  Q 59.02 131.84 59.06 132.74
  C 59.50 141.62 59.89 148.07 66.86 154.36
  A 0.49 0.49 0.0 0 1 66.65 155.19
  Q 66.12 155.32 65.63 155.07
  Q 59.01 151.67 52.95 147.41
  C 46.00 142.51 39.19 133.32 35.56 125.77
  A 1.32 1.32 0.0 0 1 35.88 124.21
  Q 39.76 120.77 42.26 116.23
  C 45.48 110.38 46.08 101.94 46.79 95.03
  Q 46.85 94.45 46.40 94.82
  C 41.60 98.78 37.96 102.85 36.28 108.62
  C 35.16 112.44 35.29 117.07 35.15 121.35
  A 0.69 0.69 0.0 0 1 34.79 121.94
  Q 33.95 122.41 33.53 121.19
  Q 32.73 118.84 32.02 116.46
  Q 31.96 116.27 31.77 116.33
  L 31.48 116.42
  A 0.04 0.04 0.0 0 0 31.46 116.48
  Q 32.52 119.41 32.70 121.48
  Q 32.92 123.86 31.46 121.97
  C 29.17 118.97 27.42 115.78 24.46 112.63
  C 19.73 107.61 13.37 103.63 7.24 100.56
  A 0.38 0.38 0.0 0 0 6.77 100.67
  Q 6.69 100.78 6.75 100.97
  C 9.34 108.45 15.13 118.53 22.73 121.06
  C 26.13 122.20 32.53 123.56 34.57 126.68
  Q 37.17 130.65 39.62 134.72
  Q 41.70 138.17 44.29 140.61
  Q 48.68 144.75 53.08 148.38
  Q 54.82 149.81 52.58 149.61
  Q 52.52 149.61 51.85 149.55
  Q 51.49 149.52 51.15 149.39
  C 41.96 145.86 32.52 145.91 22.98 146.41
  Q 21.31 146.50 22.67 147.46
  C 29.10 152.02 38.58 156.10 46.64 153.54
  C 48.95 152.81 54.80 150.39 56.77 151.51
  Q 62.55 154.79 68.50 157.84
  A 0.55 0.55 0.0 0 1 68.60 158.75
  Q 68.13 159.14 67.25 159.12
  Q 52.49 158.82 38.95 163.30
  Q 37.34 163.84 38.91 164.48
  C 45.01 166.99 56.13 168.40 61.88 164.13
  Q 65.35 161.55 69.06 159.29
  Q 70.47 158.42 71.28 158.70
  Q 82.66 162.59 94.58 163.42
  A 0.26 0.25 -86.7 0 1 94.82 163.70
  L 94.79 163.97
  Q 94.73 164.48 94.22 164.51
  Q 84.87 165.02 78.99 167.74
  Q 70.93 171.47 62.83 175.51
  Q 62.10 175.88 62.86 176.18
  C 75.61 181.38 87.39 172.92 95.95 164.22
  A 3.15 3.14 20.2 0 1 97.93 163.31
  Q 108.35 162.56 118.27 159.27
  Q 118.76 159.11 119.24 159.32
  C 124.00 161.48 129.18 165.22 133.44 166.28
  C 140.11 167.93 148.68 165.53 154.88 162.82
  Q 156.64 162.05 154.79 161.51
  C 145.06 158.65 134.61 158.53 124.73 158.38
  Q 121.25 158.33 124.45 156.97
  Q 128.20 155.39 132.27 153.10
  C 138.33 149.70 143.88 153.19 150.13 153.50
  C 157.93 153.89 165.98 150.08 171.77 145.06
  Q 172.56 144.38 171.52 144.33
  Q 156.55 143.48 142.50 148.58
  Q 138.69 149.96 141.64 147.18
  L 150.05 139.23
  A 2.52 2.50 -65.7 0 1 151.85 138.54
  C 158.23 138.72 163.62 138.85 169.61 135.09
  Q 175.76 131.24 182.10 123.47
  Q 182.80 122.62 181.71 122.80
  Q 174.36 124.00 166.93 126.91
  C 161.34 129.10 158.15 132.23 153.32 136.83
  Q 152.91 137.23 152.52 137.19
  A 0.41 0.40 -71.7 0 1 152.21 136.57
  Q 155.88 130.83 159.34 125.04
  Q 160.71 122.76 162.25 122.28
  C 166.35 121.00 171.28 119.76 174.56 117.54
  C 180.10 113.78 184.08 106.15 186.18 99.97
  A 0.47 0.47 0.0 0 0 185.53 99.39
  C 180.20 101.99 174.59 105.03 170.23 109.00
  C 166.34 112.55 164.65 116.70 161.97 120.05" stroke="#8086a4"></path>
<path d="M 157.00 121.94
  C 158.81 110.08 155.56 98.36 144.18 92.77
  A 0.16 0.16 0.0 0 0 143.95 92.95
  Q 145.33 99.16 146.71 105.45
  C 148.37 112.99 150.90 117.54 156.57 122.11
  Q 156.93 122.40 157.00 121.94" stroke="#8086a4"></path>
<path d="M 55.42 132.25
  C 54.00 126.48 50.83 120.40 48.93 115.53
  A 0.33 0.32 43.7 0 0 48.32 115.54
  Q 44.33 127.78 49.95 139.25
  Q 51.36 142.12 52.96 145.22
  A 0.48 0.48 0.0 0 0 53.84 145.17
  C 55.42 141.03 56.50 136.69 55.42 132.25" stroke="#8086a4"></path>
<path d="M 11.09 125.21
  C 17.83 135.03 27.41 141.18 39.67 138.88
  A 0.42 0.42 0.0 0 0 39.86 138.15
  C 34.61 133.73 29.39 129.49 22.76 127.45
  Q 17.10 125.71 11.41 124.71
  A 0.32 0.32 0.0 0 0 11.09 125.21" stroke="#8086a4"></path>
<path d="M 98.16 166.40
  C 103.12 176.89 119.24 178.85 128.89 176.63
  Q 129.77 176.42 128.99 175.96
  Q 115.11 167.64 99.07 165.17
  Q 97.46 164.93 98.16 166.40" stroke="#8086a4"></path>
</g>
<path d="M 189.13 182.72
  A 6.43 6.43 0.0 0 1 182.70 189.15
  L 9.94 189.15
  A 6.43 6.43 0.0 0 1 3.51 182.72
  L 3.51 9.94
  A 6.43 6.43 0.0 0 1 9.94 3.51
  L 182.70 3.51
  A 6.43 6.43 0.0 0 1 189.13 9.94
  L 189.13 182.72
  Z
  M 48.39 47.81
  Q 48.50 47.22 49.12 46.58
  Q 52.58 43.07 55.87 39.39
  C 60.42 34.30 62.96 25.69 64.44 19.05
  A 0.34 0.34 0.0 0 0 63.93 18.69
  C 54.58 24.55 46.88 32.60 46.43 44.01
  Q 46.32 46.71 46.29 49.50
  Q 46.28 50.01 45.91 50.36
  Q 41.86 54.24 38.12 58.36
  Q 33.78 63.13 36.43 57.25
  C 40.61 47.97 42.44 39.00 43.31 28.94
  Q 43.43 27.57 42.49 28.58
  C 33.77 38.05 28.28 49.59 34.89 62.27
  Q 35.15 62.77 34.90 63.27
  Q 30.44 71.94 28.54 81.52
  Q 28.26 82.90 27.35 81.70
  Q 27.03 81.28 26.93 79.99
  Q 25.67 64.92 19.70 51.27
  Q 19.30 50.37 18.95 51.29
  Q 15.76 59.62 16.82 69.01
  C 17.66 76.51 23.26 81.06 27.32 86.77
  A 3.72 3.72 0.0 0 1 28.01 89.02
  Q 27.87 95.02 28.14 101.50
  Q 28.18 102.49 28.15 102.60
  Q 27.63 104.62 27.00 102.63
  C 23.45 91.42 17.33 83.54 9.42 75.11
  Q 8.50 74.12 8.59 75.47
  C 9.19 84.91 12.53 96.09 21.23 101.48
  C 23.63 102.96 29.04 106.18 29.59 108.98
  Q 30.20 112.13 31.32 115.17
  A 0.07 0.07 0.0 0 0 31.46 115.14
  L 29.13 102.86
  A 1.35 1.35 0.0 0 1 29.81 101.43
  C 32.99 99.69 36.72 98.10 39.47 95.90
  C 45.00 91.48 49.03 82.64 51.47 76.24
  Q 51.76 75.48 51.04 75.87
  C 42.11 80.83 34.46 86.71 30.71 96.97
  Q 30.36 97.93 30.07 98.29
  Q 29.09 99.51 29.12 97.87
  C 29.26 91.22 28.97 85.35 31.05 78.30
  Q 31.58 76.50 33.74 76.54
  C 44.34 76.74 51.43 71.15 59.67 65.20
  Q 60.62 64.51 59.45 64.39
  C 54.86 63.91 50.01 63.72 45.70 65.37
  Q 38.33 68.20 33.33 74.59
  Q 32.86 75.19 32.26 75.17
  A 0.33 0.33 0.0 0 1 31.95 74.74
  Q 34.42 66.71 39.50 60.05
  A 0.91 0.89 -68.9 0 1 40.29 59.69
  C 44.60 60.05 49.31 61.42 53.00 61.41
  C 60.29 61.40 67.98 57.69 74.13 53.33
  Q 74.61 52.99 74.02 52.93
  Q 67.40 52.25 60.76 51.68
  C 53.25 51.03 48.35 53.75 41.95 58.01
  Q 41.59 58.25 41.32 57.90
  L 41.15 57.68
  A 0.76 0.75 -40.3 0 1 41.24 56.67
  Q 49.89 48.57 60.46 42.77
  C 62.68 41.54 64.84 43.50 67.19 45.04
  C 74.13 49.61 81.00 48.57 88.39 45.97
  Q 89.56 45.56 88.43 45.04
  C 80.85 41.57 74.49 37.93 65.25 40.50
  Q 64.58 40.69 64.34 40.04
  L 64.25 39.78
  A 0.47 0.46 -22.5 0 1 64.50 39.19
  Q 73.10 35.42 78.07 27.65
  C 80.27 24.22 81.85 19.49 83.35 15.40
  Q 83.86 14.02 82.54 14.67
  C 73.20 19.31 63.49 29.35 62.14 40.44
  Q 62.04 41.20 61.37 41.56
  L 48.94 48.22
  A 0.38 0.38 0.0 0 1 48.39 47.81
  Z
  M 161.97 120.05
  Q 159.78 122.79 160.92 119.48
  Q 163.34 112.47 164.39 105.15
  A 0.86 0.86 0.0 0 1 164.94 104.46
  C 177.62 99.76 183.61 86.97 183.43 73.97
  A 0.24 0.23 -22.9 0 0 183.03 73.81
  Q 171.89 84.86 165.91 99.37
  Q 165.82 99.58 165.68 99.70
  Q 165.47 99.89 165.32 99.88
  A 0.63 0.59 -89.1 0 1 164.75 99.25
  L 164.80 86.76
  A 5.28 5.26 63.5 0 1 165.83 83.66
  C 168.36 80.24 172.74 75.23 173.54 71.05
  Q 175.51 60.78 171.94 50.84
  A 0.61 0.61 0.0 0 0 171.23 50.45
  Q 170.78 50.55 170.53 51.05
  Q 163.59 65.16 164.03 80.90
  Q 164.05 81.41 163.58 81.22
  Q 163.16 81.05 163.04 80.58
  Q 160.36 70.39 155.29 61.85
  A 1.14 1.13 -51.5 0 1 155.19 60.92
  C 157.30 54.42 159.73 47.70 156.42 41.07
  C 153.85 35.91 150.45 31.62 146.43 27.52
  Q 145.84 26.91 145.91 27.76
  Q 146.56 35.43 148.30 42.91
  C 149.55 48.30 151.94 53.35 154.38 58.37
  Q 154.58 58.77 154.53 58.91
  A 0.58 0.54 -58.4 0 1 153.62 59.16
  L 143.54 49.28
  A 1.29 1.29 0.0 0 1 143.15 48.38
  Q 142.94 42.60 142.35 39.72
  C 140.59 31.15 134.27 24.70 127.34 19.83
  Q 126.30 19.11 126.52 20.35
  Q 127.64 26.61 130.10 32.88
  C 132.72 39.54 137.31 42.53 141.57 46.70
  Q 142.02 47.14 141.92 47.89
  Q 141.85 48.39 141.39 48.17
  L 128.67 42.29
  Q 128.19 42.07 128.03 41.56
  C 127.00 38.42 126.15 35.14 124.68 32.38
  Q 118.71 21.15 107.79 14.74
  A 0.49 0.49 0.0 0 0 107.06 15.26
  Q 108.41 22.00 111.40 27.59
  C 115.15 34.61 120.00 36.70 126.04 40.20
  Q 126.83 40.66 126.89 41.20
  A 0.54 0.54 0.0 0 1 126.21 41.78
  C 121.01 40.39 116.63 39.16 111.31 40.91
  Q 106.18 42.60 101.26 44.78
  Q 100.23 45.24 101.31 45.57
  C 108.31 47.77 114.18 49.60 121.31 46.24
  C 123.52 45.20 127.38 42.27 129.80 43.38
  Q 138.78 47.53 145.56 53.52
  Q 148.27 55.91 144.84 54.68
  C 140.79 53.21 138.38 51.08 133.00 51.26
  Q 124.85 51.53 117.28 52.85
  Q 116.30 53.02 117.15 53.53
  Q 122.41 56.67 127.86 58.81
  Q 132.46 60.62 137.14 60.60
  Q 142.87 60.58 148.50 59.27
  Q 150.65 58.77 151.81 60.71
  Q 155.73 67.25 157.64 71.77
  Q 157.88 72.34 157.71 72.74
  A 0.43 0.42 32.2 0 1 157.04 72.89
  C 153.69 69.90 150.97 66.99 146.77 65.11
  C 142.02 62.99 136.20 63.41 131.06 64.33
  A 0.45 0.45 0.0 0 0 130.89 65.14
  C 139.01 70.78 146.45 76.26 157.28 76.99
  C 159.12 77.11 160.89 77.64 161.39 79.42
  Q 163.87 88.28 163.73 97.45
  A 0.58 0.58 0.0 0 1 163.03 98.01
  Q 162.75 97.96 162.57 97.47
  C 158.52 86.37 149.87 79.40 138.98 75.52
  A 0.29 0.29 0.0 0 0 138.64 75.96
  Q 143.64 82.80 148.54 90.00
  C 152.79 96.24 156.70 97.63 162.76 99.93
  A 1.15 1.14 -77.0 0 1 163.49 101.11
  Q 161.43 123.65 146.62 140.36
  Q 143.72 143.64 140.77 145.43
  Q 139.17 146.40 140.04 144.74
  Q 141.27 142.42 142.77 139.59
  Q 148.67 128.44 145.18 115.08
  Q 144.55 112.66 143.64 114.99
  C 140.33 123.44 134.75 130.60 136.44 140.77
  C 136.76 142.70 137.53 144.53 138.19 146.48
  Q 138.36 146.97 137.99 147.34
  C 134.11 151.24 126.85 154.65 121.67 156.76
  A 0.33 0.33 0.0 0 1 121.27 156.62
  L 121.12 156.38
  A 0.57 0.56 59.3 0 1 121.32 155.59
  Q 131.52 149.75 132.75 138.32
  C 132.93 136.57 132.59 134.10 133.03 132.12
  Q 133.38 130.58 132.24 131.67
  Q 126.71 136.95 122.33 142.79
  C 119.24 146.92 118.18 151.73 116.47 156.49
  C 115.64 158.81 114.38 158.93 112.24 159.47
  Q 107.29 160.72 103.47 161.30
  Q 97.89 162.14 103.05 159.83
  C 112.70 155.52 115.85 151.86 119.41 141.49
  Q 119.83 140.27 118.67 140.85
  C 110.04 145.24 99.13 150.17 96.41 160.39
  A 0.70 0.70 0.0 0 1 95.14 160.58
  C 92.76 156.76 90.51 152.74 86.96 150.04
  Q 80.56 145.16 72.21 140.43
  A 0.36 0.36 0.0 0 0 71.71 140.89
  C 75.94 150.11 79.59 157.69 90.13 160.21
  Q 93.85 161.10 90.07 161.70
  C 87.19 162.16 79.19 159.67 75.20 158.63
  Q 74.18 158.37 73.84 157.37
  C 72.11 152.34 70.52 146.96 67.63 142.57
  Q 64.08 137.17 59.65 132.49
  Q 59.02 131.84 59.06 132.74
  C 59.50 141.62 59.89 148.07 66.86 154.36
  A 0.49 0.49 0.0 0 1 66.65 155.19
  Q 66.12 155.32 65.63 155.07
  Q 59.01 151.67 52.95 147.41
  C 46.00 142.51 39.19 133.32 35.56 125.77
  A 1.32 1.32 0.0 0 1 35.88 124.21
  Q 39.76 120.77 42.26 116.23
  C 45.48 110.38 46.08 101.94 46.79 95.03
  Q 46.85 94.45 46.40 94.82
  C 41.60 98.78 37.96 102.85 36.28 108.62
  C 35.16 112.44 35.29 117.07 35.15 121.35
  A 0.69 0.69 0.0 0 1 34.79 121.94
  Q 33.95 122.41 33.53 121.19
  Q 32.73 118.84 32.02 116.46
  Q 31.96 116.27 31.77 116.33
  L 31.48 116.42
  A 0.04 0.04 0.0 0 0 31.46 116.48
  Q 32.52 119.41 32.70 121.48
  Q 32.92 123.86 31.46 121.97
  C 29.17 118.97 27.42 115.78 24.46 112.63
  C 19.73 107.61 13.37 103.63 7.24 100.56
  A 0.38 0.38 0.0 0 0 6.77 100.67
  Q 6.69 100.78 6.75 100.97
  C 9.34 108.45 15.13 118.53 22.73 121.06
  C 26.13 122.20 32.53 123.56 34.57 126.68
  Q 37.17 130.65 39.62 134.72
  Q 41.70 138.17 44.29 140.61
  Q 48.68 144.75 53.08 148.38
  Q 54.82 149.81 52.58 149.61
  Q 52.52 149.61 51.85 149.55
  Q 51.49 149.52 51.15 149.39
  C 41.96 145.86 32.52 145.91 22.98 146.41
  Q 21.31 146.50 22.67 147.46
  C 29.10 152.02 38.58 156.10 46.64 153.54
  C 48.95 152.81 54.80 150.39 56.77 151.51
  Q 62.55 154.79 68.50 157.84
  A 0.55 0.55 0.0 0 1 68.60 158.75
  Q 68.13 159.14 67.25 159.12
  Q 52.49 158.82 38.95 163.30
  Q 37.34 163.84 38.91 164.48
  C 45.01 166.99 56.13 168.40 61.88 164.13
  Q 65.35 161.55 69.06 159.29
  Q 70.47 158.42 71.28 158.70
  Q 82.66 162.59 94.58 163.42
  A 0.26 0.25 -86.7 0 1 94.82 163.70
  L 94.79 163.97
  Q 94.73 164.48 94.22 164.51
  Q 84.87 165.02 78.99 167.74
  Q 70.93 171.47 62.83 175.51
  Q 62.10 175.88 62.86 176.18
  C 75.61 181.38 87.39 172.92 95.95 164.22
  A 3.15 3.14 20.2 0 1 97.93 163.31
  Q 108.35 162.56 118.27 159.27
  Q 118.76 159.11 119.24 159.32
  C 124.00 161.48 129.18 165.22 133.44 166.28
  C 140.11 167.93 148.68 165.53 154.88 162.82
  Q 156.64 162.05 154.79 161.51
  C 145.06 158.65 134.61 158.53 124.73 158.38
  Q 121.25 158.33 124.45 156.97
  Q 128.20 155.39 132.27 153.10
  C 138.33 149.70 143.88 153.19 150.13 153.50
  C 157.93 153.89 165.98 150.08 171.77 145.06
  Q 172.56 144.38 171.52 144.33
  Q 156.55 143.48 142.50 148.58
  Q 138.69 149.96 141.64 147.18
  L 150.05 139.23
  A 2.52 2.50 -65.7 0 1 151.85 138.54
  C 158.23 138.72 163.62 138.85 169.61 135.09
  Q 175.76 131.24 182.10 123.47
  Q 182.80 122.62 181.71 122.80
  Q 174.36 124.00 166.93 126.91
  C 161.34 129.10 158.15 132.23 153.32 136.83
  Q 152.91 137.23 152.52 137.19
  A 0.41 0.40 -71.7 0 1 152.21 136.57
  Q 155.88 130.83 159.34 125.04
  Q 160.71 122.76 162.25 122.28
  C 166.35 121.00 171.28 119.76 174.56 117.54
  C 180.10 113.78 184.08 106.15 186.18 99.97
  A 0.47 0.47 0.0 0 0 185.53 99.39
  C 180.20 101.99 174.59 105.03 170.23 109.00
  C 166.34 112.55 164.65 116.70 161.97 120.05
  Z
  M 157.00 121.94
  C 158.81 110.08 155.56 98.36 144.18 92.77
  A 0.16 0.16 0.0 0 0 143.95 92.95
  Q 145.33 99.16 146.71 105.45
  C 148.37 112.99 150.90 117.54 156.57 122.11
  Q 156.93 122.40 157.00 121.94
  Z
  M 55.42 132.25
  C 54.00 126.48 50.83 120.40 48.93 115.53
  A 0.33 0.32 43.7 0 0 48.32 115.54
  Q 44.33 127.78 49.95 139.25
  Q 51.36 142.12 52.96 145.22
  A 0.48 0.48 0.0 0 0 53.84 145.17
  C 55.42 141.03 56.50 136.69 55.42 132.25
  Z
  M 11.09 125.21
  C 17.83 135.03 27.41 141.18 39.67 138.88
  A 0.42 0.42 0.0 0 0 39.86 138.15
  C 34.61 133.73 29.39 129.49 22.76 127.45
  Q 17.10 125.71 11.41 124.71
  A 0.32 0.32 0.0 0 0 11.09 125.21
  Z
  M 98.16 166.40
  C 103.12 176.89 119.24 178.85 128.89 176.63
  Q 129.77 176.42 128.99 175.96
  Q 115.11 167.64 99.07 165.17
  Q 97.46 164.93 98.16 166.40
  Z" fill="#000c48"></path>
<path d="M 48.39 47.81
  A 0.38 0.38 0.0 0 0 48.94 48.22
  L 61.37 41.56
  Q 62.04 41.20 62.14 40.44
  C 63.49 29.35 73.20 19.31 82.54 14.67
  Q 83.86 14.02 83.35 15.40
  C 81.85 19.49 80.27 24.22 78.07 27.65
  Q 73.10 35.42 64.50 39.19
  A 0.47 0.46 -22.5 0 0 64.25 39.78
  L 64.34 40.04
  Q 64.58 40.69 65.25 40.50
  C 74.49 37.93 80.85 41.57 88.43 45.04
  Q 89.56 45.56 88.39 45.97
  C 81.00 48.57 74.13 49.61 67.19 45.04
  C 64.84 43.50 62.68 41.54 60.46 42.77
  Q 49.89 48.57 41.24 56.67
  A 0.76 0.75 -40.3 0 0 41.15 57.68
  L 41.32 57.90
  Q 41.59 58.25 41.95 58.01
  C 48.35 53.75 53.25 51.03 60.76 51.68
  Q 67.40 52.25 74.02 52.93
  Q 74.61 52.99 74.13 53.33
  C 67.98 57.69 60.29 61.40 53.00 61.41
  C 49.31 61.42 44.60 60.05 40.29 59.69
  A 0.91 0.89 -68.9 0 0 39.50 60.05
  Q 34.42 66.71 31.95 74.74
  A 0.33 0.33 0.0 0 0 32.26 75.17
  Q 32.86 75.19 33.33 74.59
  Q 38.33 68.20 45.70 65.37
  C 50.01 63.72 54.86 63.91 59.45 64.39
  Q 60.62 64.51 59.67 65.20
  C 51.43 71.15 44.34 76.74 33.74 76.54
  Q 31.58 76.50 31.05 78.30
  C 28.97 85.35 29.26 91.22 29.12 97.87
  Q 29.09 99.51 30.07 98.29
  Q 30.36 97.93 30.71 96.97
  C 34.46 86.71 42.11 80.83 51.04 75.87
  Q 51.76 75.48 51.47 76.24
  C 49.03 82.64 45.00 91.48 39.47 95.90
  C 36.72 98.10 32.99 99.69 29.81 101.43
  A 1.35 1.35 0.0 0 0 29.13 102.86
  L 31.46 115.14
  A 0.07 0.07 0.0 0 1 31.32 115.17
  Q 30.20 112.13 29.59 108.98
  C 29.04 106.18 23.63 102.96 21.23 101.48
  C 12.53 96.09 9.19 84.91 8.59 75.47
  Q 8.50 74.12 9.42 75.11
  C 17.33 83.54 23.45 91.42 27.00 102.63
  Q 27.63 104.62 28.15 102.60
  Q 28.18 102.49 28.14 101.50
  Q 27.87 95.02 28.01 89.02
  A 3.72 3.72 0.0 0 0 27.32 86.77
  C 23.26 81.06 17.66 76.51 16.82 69.01
  Q 15.76 59.62 18.95 51.29
  Q 19.30 50.37 19.70 51.27
  Q 25.67 64.92 26.93 79.99
  Q 27.03 81.28 27.35 81.70
  Q 28.26 82.90 28.54 81.52
  Q 30.44 71.94 34.90 63.27
  Q 35.15 62.77 34.89 62.27
  C 28.28 49.59 33.77 38.05 42.49 28.58
  Q 43.43 27.57 43.31 28.94
  C 42.44 39.00 40.61 47.97 36.43 57.25
  Q 33.78 63.13 38.12 58.36
  Q 41.86 54.24 45.91 50.36
  Q 46.28 50.01 46.29 49.50
  Q 46.32 46.71 46.43 44.01
  C 46.88 32.60 54.58 24.55 63.93 18.69
  A 0.34 0.34 0.0 0 1 64.44 19.05
  C 62.96 25.69 60.42 34.30 55.87 39.39
  Q 52.58 43.07 49.12 46.58
  Q 48.50 47.22 48.39 47.81
  Z" fill="#ffffff"></path>
<path d="M 161.97 120.05
  C 164.65 116.70 166.34 112.55 170.23 109.00
  C 174.59 105.03 180.20 101.99 185.53 99.39
  A 0.47 0.47 0.0 0 1 186.18 99.97
  C 184.08 106.15 180.10 113.78 174.56 117.54
  C 171.28 119.76 166.35 121.00 162.25 122.28
  Q 160.71 122.76 159.34 125.04
  Q 155.88 130.83 152.21 136.57
  A 0.41 0.40 -71.7 0 0 152.52 137.19
  Q 152.91 137.23 153.32 136.83
  C 158.15 132.23 161.34 129.10 166.93 126.91
  Q 174.36 124.00 181.71 122.80
  Q 182.80 122.62 182.10 123.47
  Q 175.76 131.24 169.61 135.09
  C 163.62 138.85 158.23 138.72 151.85 138.54
  A 2.52 2.50 -65.7 0 0 150.05 139.23
  L 141.64 147.18
  Q 138.69 149.96 142.50 148.58
  Q 156.55 143.48 171.52 144.33
  Q 172.56 144.38 171.77 145.06
  C 165.98 150.08 157.93 153.89 150.13 153.50
  C 143.88 153.19 138.33 149.70 132.27 153.10
  Q 128.20 155.39 124.45 156.97
  Q 121.25 158.33 124.73 158.38
  C 134.61 158.53 145.06 158.65 154.79 161.51
  Q 156.64 162.05 154.88 162.82
  C 148.68 165.53 140.11 167.93 133.44 166.28
  C 129.18 165.22 124.00 161.48 119.24 159.32
  Q 118.76 159.11 118.27 159.27
  Q 108.35 162.56 97.93 163.31
  A 3.15 3.14 20.2 0 0 95.95 164.22
  C 87.39 172.92 75.61 181.38 62.86 176.18
  Q 62.10 175.88 62.83 175.51
  Q 70.93 171.47 78.99 167.74
  Q 84.87 165.02 94.22 164.51
  Q 94.73 164.48 94.79 163.97
  L 94.82 163.70
  A 0.26 0.25 -86.7 0 0 94.58 163.42
  Q 82.66 162.59 71.28 158.70
  Q 70.47 158.42 69.06 159.29
  Q 65.35 161.55 61.88 164.13
  C 56.13 168.40 45.01 166.99 38.91 164.48
  Q 37.34 163.84 38.95 163.30
  Q 52.49 158.82 67.25 159.12
  Q 68.13 159.14 68.60 158.75
  A 0.55 0.55 0.0 0 0 68.50 157.84
  Q 62.55 154.79 56.77 151.51
  C 54.80 150.39 48.95 152.81 46.64 153.54
  C 38.58 156.10 29.10 152.02 22.67 147.46
  Q 21.31 146.50 22.98 146.41
  C 32.52 145.91 41.96 145.86 51.15 149.39
  Q 51.49 149.52 51.85 149.55
  Q 52.52 149.61 52.58 149.61
  Q 54.82 149.81 53.08 148.38
  Q 48.68 144.75 44.29 140.61
  Q 41.70 138.17 39.62 134.72
  Q 37.17 130.65 34.57 126.68
  C 32.53 123.56 26.13 122.20 22.73 121.06
  C 15.13 118.53 9.34 108.45 6.75 100.97
  Q 6.69 100.78 6.77 100.67
  A 0.38 0.38 0.0 0 1 7.24 100.56
  C 13.37 103.63 19.73 107.61 24.46 112.63
  C 27.42 115.78 29.17 118.97 31.46 121.97
  Q 32.92 123.86 32.70 121.48
  Q 32.52 119.41 31.46 116.48
  A 0.04 0.04 0.0 0 1 31.48 116.42
  L 31.77 116.33
  Q 31.96 116.27 32.02 116.46
  Q 32.73 118.84 33.53 121.19
  Q 33.95 122.41 34.79 121.94
  A 0.69 0.69 0.0 0 0 35.15 121.35
  C 35.29 117.07 35.16 112.44 36.28 108.62
  C 37.96 102.85 41.60 98.78 46.40 94.82
  Q 46.85 94.45 46.79 95.03
  C 46.08 101.94 45.48 110.38 42.26 116.23
  Q 39.76 120.77 35.88 124.21
  A 1.32 1.32 0.0 0 0 35.56 125.77
  C 39.19 133.32 46.00 142.51 52.95 147.41
  Q 59.01 151.67 65.63 155.07
  Q 66.12 155.32 66.65 155.19
  A 0.49 0.49 0.0 0 0 66.86 154.36
  C 59.89 148.07 59.50 141.62 59.06 132.74
  Q 59.02 131.84 59.65 132.49
  Q 64.08 137.17 67.63 142.57
  C 70.52 146.96 72.11 152.34 73.84 157.37
  Q 74.18 158.37 75.20 158.63
  C 79.19 159.67 87.19 162.16 90.07 161.70
  Q 93.85 161.10 90.13 160.21
  C 79.59 157.69 75.94 150.11 71.71 140.89
  A 0.36 0.36 0.0 0 1 72.21 140.43
  Q 80.56 145.16 86.96 150.04
  C 90.51 152.74 92.76 156.76 95.14 160.58
  A 0.70 0.70 0.0 0 0 96.41 160.39
  C 99.13 150.17 110.04 145.24 118.67 140.85
  Q 119.83 140.27 119.41 141.49
  C 115.85 151.86 112.70 155.52 103.05 159.83
  Q 97.89 162.14 103.47 161.30
  Q 107.29 160.72 112.24 159.47
  C 114.38 158.93 115.64 158.81 116.47 156.49
  C 118.18 151.73 119.24 146.92 122.33 142.79
  Q 126.71 136.95 132.24 131.67
  Q 133.38 130.58 133.03 132.12
  C 132.59 134.10 132.93 136.57 132.75 138.32
  Q 131.52 149.75 121.32 155.59
  A 0.57 0.56 59.3 0 0 121.12 156.38
  L 121.27 156.62
  A 0.33 0.33 0.0 0 0 121.67 156.76
  C 126.85 154.65 134.11 151.24 137.99 147.34
  Q 138.36 146.97 138.19 146.48
  C 137.53 144.53 136.76 142.70 136.44 140.77
  C 134.75 130.60 140.33 123.44 143.64 114.99
  Q 144.55 112.66 145.18 115.08
  Q 148.67 128.44 142.77 139.59
  Q 141.27 142.42 140.04 144.74
  Q 139.17 146.40 140.77 145.43
  Q 143.72 143.64 146.62 140.36
  Q 161.43 123.65 163.49 101.11
  A 1.15 1.14 -77.0 0 0 162.76 99.93
  C 156.70 97.63 152.79 96.24 148.54 90.00
  Q 143.64 82.80 138.64 75.96
  A 0.29 0.29 0.0 0 1 138.98 75.52
  C 149.87 79.40 158.52 86.37 162.57 97.47
  Q 162.75 97.96 163.03 98.01
  A 0.58 0.58 0.0 0 0 163.73 97.45
  Q 163.87 88.28 161.39 79.42
  C 160.89 77.64 159.12 77.11 157.28 76.99
  C 146.45 76.26 139.01 70.78 130.89 65.14
  A 0.45 0.45 0.0 0 1 131.06 64.33
  C 136.20 63.41 142.02 62.99 146.77 65.11
  C 150.97 66.99 153.69 69.90 157.04 72.89
  A 0.43 0.42 32.2 0 0 157.71 72.74
  Q 157.88 72.34 157.64 71.77
  Q 155.73 67.25 151.81 60.71
  Q 150.65 58.77 148.50 59.27
  Q 142.87 60.58 137.14 60.60
  Q 132.46 60.62 127.86 58.81
  Q 122.41 56.67 117.15 53.53
  Q 116.30 53.02 117.28 52.85
  Q 124.85 51.53 133.00 51.26
  C 138.38 51.08 140.79 53.21 144.84 54.68
  Q 148.27 55.91 145.56 53.52
  Q 138.78 47.53 129.80 43.38
  C 127.38 42.27 123.52 45.20 121.31 46.24
  C 114.18 49.60 108.31 47.77 101.31 45.57
  Q 100.23 45.24 101.26 44.78
  Q 106.18 42.60 111.31 40.91
  C 116.63 39.16 121.01 40.39 126.21 41.78
  A 0.54 0.54 0.0 0 0 126.89 41.20
  Q 126.83 40.66 126.04 40.20
  C 120.00 36.70 115.15 34.61 111.40 27.59
  Q 108.41 22.00 107.06 15.26
  A 0.49 0.49 0.0 0 1 107.79 14.74
  Q 118.71 21.15 124.68 32.38
  C 126.15 35.14 127.00 38.42 128.03 41.56
  Q 128.19 42.07 128.67 42.29
  L 141.39 48.17
  Q 141.85 48.39 141.92 47.89
  Q 142.02 47.14 141.57 46.70
  C 137.31 42.53 132.72 39.54 130.10 32.88
  Q 127.64 26.61 126.52 20.35
  Q 126.30 19.11 127.34 19.83
  C 134.27 24.70 140.59 31.15 142.35 39.72
  Q 142.94 42.60 143.15 48.38
  A 1.29 1.29 0.0 0 0 143.54 49.28
  L 153.62 59.16
  A 0.58 0.54 -58.4 0 0 154.53 58.91
  Q 154.58 58.77 154.38 58.37
  C 151.94 53.35 149.55 48.30 148.30 42.91
  Q 146.56 35.43 145.91 27.76
  Q 145.84 26.91 146.43 27.52
  C 150.45 31.62 153.85 35.91 156.42 41.07
  C 159.73 47.70 157.30 54.42 155.19 60.92
  A 1.14 1.13 -51.5 0 0 155.29 61.85
  Q 160.36 70.39 163.04 80.58
  Q 163.16 81.05 163.58 81.22
  Q 164.05 81.41 164.03 80.90
  Q 163.59 65.16 170.53 51.05
  Q 170.78 50.55 171.23 50.45
  A 0.61 0.61 0.0 0 1 171.94 50.84
  Q 175.51 60.78 173.54 71.05
  C 172.74 75.23 168.36 80.24 165.83 83.66
  A 5.28 5.26 63.5 0 0 164.80 86.76
  L 164.75 99.25
  A 0.63 0.59 -89.1 0 0 165.32 99.88
  Q 165.47 99.89 165.68 99.70
  Q 165.82 99.58 165.91 99.37
  Q 171.89 84.86 183.03 73.81
  A 0.24 0.23 -22.9 0 1 183.43 73.97
  C 183.61 86.97 177.62 99.76 164.94 104.46
  A 0.86 0.86 0.0 0 0 164.39 105.15
  Q 163.34 112.47 160.92 119.48
  Q 159.78 122.79 161.97 120.05
  Z" fill="#ffffff"></path>
<path d="M 144.18 92.77
  C 155.56 98.36 158.81 110.08 157.00 121.94
  Q 156.93 122.40 156.57 122.11
  C 150.90 117.54 148.37 112.99 146.71 105.45
  Q 145.33 99.16 143.95 92.95
  A 0.16 0.16 0.0 0 1 144.18 92.77
  Z" fill="#ffffff"></path>
<path d="M 48.93 115.53
  C 50.83 120.40 54.00 126.48 55.42 132.25
  C 56.50 136.69 55.42 141.03 53.84 145.17
  A 0.48 0.48 0.0 0 1 52.96 145.22
  Q 51.36 142.12 49.95 139.25
  Q 44.33 127.78 48.32 115.54
  A 0.33 0.32 43.7 0 1 48.93 115.53
  Z" fill="#ffffff"></path>
<path d="M 39.67 138.88
  C 27.41 141.18 17.83 135.03 11.09 125.21
  A 0.32 0.32 0.0 0 1 11.41 124.71
  Q 17.10 125.71 22.76 127.45
  C 29.39 129.49 34.61 133.73 39.86 138.15
  A 0.42 0.42 0.0 0 1 39.67 138.88
  Z" fill="#ffffff"></path>
<path d="M 128.89 176.63
  C 119.24 178.85 103.12 176.89 98.16 166.40
  Q 97.46 164.93 99.07 165.17
  Q 115.11 167.64 128.99 175.96
  Q 129.77 176.42 128.89 176.63
  Z" fill="#ffffff"></path>
</svg>
