<svg viewBox="0 0 256 256" xmlns="http://www.w3.org/2000/svg"><g fill="none" stroke-width="2"><path d="M238.45 192.71q-1.32.25-1.73 1.76-.11.42-.55.44-1.93.12-3.7.98.16-.03.26-.13.24-.24.02-.49-.1-.12-.27-.15v-.01q.52-.11.66-.73a.37.36-68.8 0 0-.16-.38q-.17-.11-.37-.15-.52-.1-.38-.61.17-.61.78-.35a.29.29 0 0 0 .36-.41q-.41-.76-1.23-.62-.51.08-.89-.27l-2.21-2.08q-.25-.24-.18-.57l.09-.4q.07-.37-.3-.41-.7-.07-.65-.85a.41.41 0 0 0-.74-.28q-.53.69-.35 1.56.03.12-.09.13-.14.02-.27.03-.14.01-.21-.11-.86-1.58.13-2.92.38-.52-.26-.59l-1.76-.22q-.51-.06-.39-.55.26-1.04-.71-1.51-.49-.23-.11-.61l.35-.35q.33-.33.01-.66-.92-.95-2.14-1.33-.48-.15-.38-.65.14-.69-.3-1.15a.48.48 0 0 0-.81.19q-.26.89-1.23.67-.47-.11-.59-.58-.22-.87.41-1.43.45-.4-.04-.75-.38-.28-.82-.29-.67-.02-.58-.68.06-.47-.13-.85-.21-.41-.67-.42l-.96-.02a.33.33 0 0 1-.11-.64q.91-.33.89-1.17-.01-.64-.61-.88l-2.04-.82q-.45-.18-.41-.65l.03-.4a.32.32 0 0 0-.26-.34l-4.4-.84q-1.33-.26-.16-.94.76-.44 1.15-1.34.18-.39-.15-.67-.45-.37-.35-.93.14-.72-.48-1.02a.34.34 0 0 0-.44.48q.28.49-.09 1.02-.64.93-.83-.17-.1-.58-.7-.7a.39.39 0 0 1-.19-.67l.4-.35q.38-.35.03-.73-.3-.32-.73-.22a.75.74 63.1 0 1-.75-.25q-.82-.97-1.99-1.33a.39.39 0 0 1-.25-.52q.87-2.14-1.39-1.9a.42.41-70.2 0 1-.33-.71l.28-.28q.3-.3.12-.68-.5-1.08-1.58-1.41-.39-.11-.7-.37-.89-.74-2.01-.66a.23.22-83.1 0 1-.23-.3q.22-.63.03-1.15a.72.72 0 0 0-.64-.46l-.97-.03a.38.37-66.6 0 1-.25-.64l.37-.38a.49.48-40.5 0 0 .06-.61q-.9-1.28-2.41-1.76a.66.64 13.2 0 1-.45-.71q.06-.5-.34-.79-.56-.39-.52.3.01.28-.16.47-.39.41-.61-.12-.37-.9-2.39-1.4" stroke="#f46400"/><path d="M188.8 146.24c6.53-3.96 7.59-9.77 7.37-16.5q-.06-1.67-1.13-2.5a2.06 2.05-42.7 0 0-2.39-.09l-24.59 16.29" stroke="#fbb27f"/><path d="M168.06 143.44q-.11-.09-.2-.2-.19-.22.02-.43.18-.2.21-.4.06-.43-.26-.13-.27.24-.52.15-.64-.24-.68-.24-1.41-.02-2.83-.26-.5-.09-.76-.53l-1.16-2.04q-.19-.32-.52-.52-2.12-1.28-1.75-3.6a.2.2 0 0 0-.34-.18l-.29.26q-.11.1-.19-.03t-.2-.18q-.43-.2-.19.21.1.17.14.36.07.35-.29.41l-2.56.4" stroke="#ef6000"/><path d="M155.69 136.49q15.65-10.52 31.18-20.89c2.39-1.59 2.1-4.02-.19-5.55q-35.4-23.56-70.65-46.95" stroke="#fbb27f"/><path d="M116.03 63.1q2.42-1.11-.92-3-.69-.39-1.33-.88-.41-.32-.48-.84l-.4-2.94a.26.25 10.2 0 0-.13-.18l-.32-.16a.33.33 0 0 0-.46.21q-.17.55-.66.84a.28.28 0 0 1-.41-.34q.26-.7-.48-1.01a.54.03 22 0 0-.44-.15q-.12 0-.25.01-.49.05-.1-.49.22-.31.1-.63-.16-.42-.6-.39-.39.02-.56-.34-.17-.35-.52-.17-.25.13-.46.03-.47-.22.04-.34.39-.09.71-.42.47-.47-.14-.74-2.64-1.18-2.82-4.06a1.19 1.16 14.2 0 0-.56-.92q-.68-.41-1.45-.22a.46.46 0 0 0 .08.9q.41.02.46.49.06.65-.51.32-.68-.38-1.11-1.04-.3-.45.23-.54.35-.07.32-.55-.03-.3-.25-.52l-3.53-3.44a.81.8 36.4 0 1-.15-.97q.28-.53.1-1.09-.2-.64-.84-.43-.29.1-.57-.19-.14-.14-.21.04-.3.71-.83.79-.49.08-.48-.42l.02-.82q.01-.69-.67-.57-.39.07-.37-.17.01-.08-.64-.81-.73-.81-.23-2.02.2-.47-.24-.73l-.7-.4a.82.81 15.7 0 1-.4-.7l-.01-.58q0-.59-.59-.6h-1.91a.17.16-88.3 0 1-.16-.18q.2-3-1.43-2.99-.51.01-.87-.36l-1.69-1.73q-.28-.3-.03-.62l.16-.2q.4-.48-.21-.64-.67-.17-1.13-.62-.04-.03-.49-1.01-.4-.86-1.97-.53a.34.34 0 0 1-.41-.27q-.14-.71.17-1.01.32-.31.03-.64-.32-.36-.84-.61-.29-.15-.53.08-.26.24-.55.41-.22.13-.47.13h-.31a.11.1 15.9 0 1-.09-.16q.52-.77-.05-1.22-.36-.3-.38-.77l-.06-1.47a.46.45-5.2 0 0-.52-.43q-1.97.3-2.98-1.16-.36-.52-.23-1.13.2-1.02-.63-1.59-.4-.27-.13-.68.35-.53.17-.91" stroke="#f46400"/><path d="M116.03 63.1c-3.44-2.35-7.37-5.4-11.15-6.26-4.63-1.05-9.04.98-12.72 3.12a2.22 2.22 0 0 0-.11 3.77l71.16 47.34a2.21 2.21 0 0 1 0 3.68l-22.95 15.31" stroke="#f6af7f"/><path d="M140.26 130.06q-.22-.74-.92-1.07-.38-.17-.47-.59l-.31-1.43q-.09-.44-.52-.57-.65-.2-.99.28-.46.66-.76-.09-.2-.51.19-.98.38-.47-.19-.27-.21.07-.27.28-.19.57-.76.38-.51-.18-.7-.66a.1.1 0 0 0-.19.03l-.01.4q0 .37-.24.09-.91-1.05-2.28-1.53-.7-.25-.15-.74.32-.29.49-.68.11-.26-.17-.28-.18-.01-.35-.01a.5.5 0 0 1-.51-.46q-.07-1.02-1.18-.77-.49.11-.59-.38-.05-.22.1-.52" stroke="#ea5d00"/><path d="M129.48 120.49q1.17.55 2.18-.1 4.55-2.89 8.63-5.68a2.2 2.2 0 0 0-.03-3.65Q113.74 93.53 87.35 75.9q-1.33-.89-3.23-.11" stroke="#f6af7f"/><path d="M84.12 75.79q-3.66.14-3.2-2.87a.65.64-76.6 0 0-.43-.71q-.29-.1-.64.01-.1.03-.15.13-.02.05-.03.09-.03.06-.05.05-.37-.33-.14-.49a.72.57 40.8 0 0-.21-1.08q-.18-.1-.27-.28-.12-.26-.39-.36-2.49-.9-2.24-2.51.07-.42-.25-.69-.39-.33-.83.04-.29.23-.41-.11-.07-.2.17-.28a.33.33 0 0 0-.04-.63q-1.31-.3-1.07-1.42a.56.56 0 0 0-.5-.67l-1.49-.09q-.11-.01-.09-.13l.06-.27q.01-.07-.04-.11l-1.6-1.52q-.37-.35-.21-.83.11-.34.01-.64a.55.54 80 0 0-.51-.36q-.47.01-.68.64a.37.36-59.8 0 1-.59.16l-.21-.19q-.23-.21.05-.35.36-.2.59-.49.36-.45-.15-.72-1.98-1.01-1.65-3.22.09-.59-.45-.84-.43-.2-.59-.66a.42.42 0 0 0-.77-.04q-.2.44-.63.54-.44.1-.44-.36v-.39q0-.44-.29-.77-.53-.59-.99-.47-.52.13-.78-.34-.43-.77-1.35-.66-.59.08-.67.67-.03.2-.18.37a.21.2 42.3 0 1-.3.01l-.21-.21q-.24-.24.03-.45l1.4-1.1q.2-.16.2-.4 0-.17.02-.36a.42.41 62.1 0 0-.77-.24l-.33.58a.25.25 0 0 1-.26.12q-.28-.06-.5-.24-.17-.15-.03-.31.91-1.11-.3-2.11-.49-.41-1.04-.22-.38.13-.33-.26.02-.25.26-.38a1.05.18-82.6 0 0 .27-.87q.09-.56-.2-1.03a.37.37 0 0 0-.64.02l-.21.38a.39.39 0 0 1-.72-.08q-.17-.64-.79-.83a.57.57 0 0 1-.4-.53q-.04-1.46-1.38-2.22-.2-.11-.32.07-.18.25-.08.56.01.04-.03.04h-.28a.16.15 16.7 0 1-.13-.24q.46-.68.19-1.62-.07-.27-.33-.15-.37.17-.96 0-.54-.16-.89-.58l-.76-.88q-.31-.37-.79-.31-.55.07-.89-.33-.37-.45.13-.75.92-.57.32-1.93-.2-.45-.69-.45H46.8a.33.32-13.4 0 1-.29-.17q-.2-.4.15-.64a.52.52 0 0 0 .21-.49l-.08-.66a.44.43-26.2 0 0-.74-.25l-.19.19q-.36.36-.59-.09-.5-.97-.44-2.82" stroke="#ea5d00"/><path d="M84.12 75.79q-1.25 1.12-1.25 2.45-.04 42.84-.02 85.75" stroke="#f1ab7f"/><path d="M82.85 163.99q-.78-1.45-.72-3.17.02-.51-.38-.83-.81-.65-1.09-1.68-.14-.49-.61-.67-.43-.16-.92-.03-.51.14-.72-.35-.67-1.56-2.05-2.47-.29-.2-.13-.52.06-.11.12-.23a.29.29 0 0 0-.32-.42q-1.14.24-2.3-.01-.39-.09-.01-.22.18-.06.37-.09.71-.13.14-.56-.2-.16-.51-.13-.44.05-.6-.36-.18-.49-.62-.37a.34.34 0 0 1-.38-.5q.22-.37.57-.21a.35.35 0 0 0 .49-.34q-.04-.69-.63-.9-.46-.16-.95-.14-.48.03-.96-.13-.17-.05-.24-.17-.1-.16-.07-.34.06-.32.38-.24.57.13.83-.32.17-.29.04-.67-.28-.82-.94-1.44-.32-.3-.63.01l-.4.4a.21.2-24.5 0 1-.35-.13q-.15-2.11-1.71-3.57-.37-.34-.4-.85-.03-.42-.27-.78-.3-.46-.85-.42-.84.07-1.23-.82a1.05 1.03-.5 0 0-.57-.55q-1.01-.41-1.22-1.44-.08-.45-.54-.45h-.58q-.4 0-.51-.39-.15-.53.18-.7.47-.25.1-.63l-.31-.31q-.15-.15-.35-.19-1.39-.28-2.08-1.45a.49.48-28.7 0 0-.65-.18q-.34.2-.39.47-.03.17-.17.27-.37.27-.49-.08-.11-.33.15-.55.17-.15.29-.42a2.73 1.28 48.6 0 0-.64-2.2q-.44-.61-1.13-.68-.49-.06-.85-.4l-3.02-2.98q-.34-.33.13-.35.3-.02.46-.21.28-.37-.05-.7l-2.18-2.12q-.36-.35-.27-.83.18-1.07-.86-1.11-1.48-.06-1.47-1.43.01-.51-.51-.54-.25-.02-.5.23-.86-.12-1.51-.71-.34-.31-.06-.67.13-.15.3-.14 1.08.08-.04-.68l-1.93-1.3q-.41-.28-.64-.71-1.88-3.57-4.72-6.43-.3-.3-.3-.71v-.33a.31.31 0 0 0-.5-.24q-.77.63-1.88.39a.42.42 0 0 1-.13-.77q1.22-.76.53-2-.06-.1-.17-.1h-.3q-.06 0-.11-.05l-3.44-3.57q-.37-.39-.66.08-.17.28-.71.2-.69-.11-.09-.46 1.18-.71.55-2.02-.14-.3-.48-.3h-.44q-.54 0-.94-.37-1.17-1.09-2.13-2.35-.51-.68-1.27-.43-.44.15-.61-.29-.16-.44-.6-.49a1.35.97 20.9 0 1-1.15-1.74l.39-.39q.29-.3 0-.59l-.21-.2q-.34-.35-.38-.83-.09-1.26-1.55-1.26-.47 0-.47-.47v-1.28q0-.18-.17-.22l-.36-.09q-.39-.1-.46-.49-.11-.63-.38-1.2-.17-.37-.5-.6-.9-.64-1.39.03-.39.54-.73-.04-.47-.83-1.24-1.41-.33-.26-.46-.65-.44-1.39-1.88-1.72-.07-.01-.04-.08.02-.04.02-.07a.25.2 82.7 0 0-.28-.27q-.15.07-.3.15-.26.13-.42-.12l-2.52-4.03" stroke="#de5500"/><path d="M155.69 136.49 140.1 146.8a2.16 2.16 0 0 1-3.35-1.8v-11.84q0-.55.44-.87l3.07-2.23M129.48 120.49q-14.47-9.66-28.97-19.28c-1.77-1.18-3.75.11-3.74 2.12q.07 23.35.1 46.72" stroke="#f1ab7f"/><path d="M96.87 150.05q.01 22.09.04 44.2 0 2.33-1.97 2.67a1.67 1.66 53.6 0 1-1.03-.16c-5.79-2.99-10.56-6.73-10.8-14.01q-.31-9.42-.26-18.76" stroke="#eba77f"/><path d="m96.87 150.05.48-7.41q.01-.24.27-.51.09-.1.23-.17.22-.12.33.11.58 1.19 1.68 1.73.51.25.73.77l1.57 3.66a.16.15 42.6 0 1 .01.12q-.23 1.02.43 1.02.62 0 .87.56.54 1.19 1.75 1.66.45.18.52.67.17 1.19 1.21 1.7.45.23.86-.06.4-.26.59-.7.06-.14.2-.08.14.05.23.18.09.14.06.41-.09.73-.22 1.46-.08.49.38.31.63-.26.59-.72-.1-1.39.07-2.72" stroke="#de5500"/><path d="m109.71 152.04.02 42.59a2.15 2.14 8.1 0 0 1.55 2.06c1.44.41 2.41-.51 3.57-1.2q4.75-2.86 8.98-6.19" stroke="#eba77f"/><path d="M123.83 189.3q.39-.63.55-1.5a.41.41 0 0 1 .74-.16q.15.21.32.25.66.14.52.8l-.13.54q-.13.61.49.67.41.04.74.29.48.36-.05.64l-.25.13q-.66.35.01.68c.92.44 1.74-.01 2.46.3q.25.1.39.32.29.45-.22.63-.36.13-.71.28-.81.34.05.52.74.15 1.2.64.27.29.62.47 1.85.95 3.32 2.4.38.37.2.87-.25.71.49.93.39.12.46.53l.1.63q.11.63.74.75.79.14 1.22-.49a.37.37 0 0 1 .64.06q.24.52.8.79.6.3.01.63-.83.48-.2 1.31.11.16.31.17.17.01.33.1.17.1.27.39.59 1.68 1.96 2.86.42.35.74-.09l.19-.27a.45.44-42.3 0 1 .74.03q.45.76 1.36.81.28.01.4.19.25.34-.17.41l-1.98.34a.35.35 0 0 0-.18.6q.52.5 1.2.35c1.77-.39 3.51.04 3.61 2.04q.03.46.33.8.74.82 1.72 1.18.73.28.09.73-.24.16-.5.22-.88.18-.24.81l1.54 1.52q.08.08.01.16-.09.12-.14.24-.12.29.2.32 1.22.11 1.99-.72.36-.39.75-.03.44.42.16 1.02c-.15.32-.53.5-.72.79q-.28.44.17.69.9.5.62 1.56-.06.24.15.35l.28.15a.24.24 0 0 0 .35-.22q-.02-.48.42-.67.41-.18.8.05.18.12.43.03a.29.29 0 0 1 .25.52q-.99.62-.55 1.74.17.41.54.67.24.16.35.42.12.26.39.37.74.3.68.97a.85.85 0 0 0 .39.8q.98.61 1.35-.04.28-.49.83-.35.35.09.35.54v3.69q0 .03.13.31.08.15.23.13.24-.03.33-.25.46-1.01 1.43-.74 1.84.52.09 1.15-.16.06-.78.06-.85.01-.18.54.58.45 1.34.19a.28.28 0 0 0 .19-.25v-.32q.01-.35.35-.38.81-.07 1.48.36a.31.31 0 0 1 .05.48q-.21.19-.48.12a.35.35 0 0 0-.36.56q.68.84 1.76.86a.03.02-75.1 0 1 .02.04l-.16.3q-.08.16.06.27.65.5.51 1.28-.1.5.36.72.85.41.62 1.31a.43.42-21.6 0 0 .77.33l.25-.4q.32-.49.7-.05.32.38.3.88-.02.57.39.97l2.58 2.55q.38.37.91.43c.58.06.89.28 1.28.79q.57.76 1.28 1.41.31.29.23.7-.3 1.58 1.61 2.29" stroke="#de5500"/><path d="M139.54 255.45q-2.03-1.25-3.97-2.61-.07-.06-1.96-1.9-1.19-1.16-3.02-1.2-.66-.01-.19-.48.29-.3.82-.18.49.11.64-.37.22-.72-1.08-1.74a.69.68 54.7 0 0-.61-.11q-.3.1-.42-.1-.2-.32-.11-.4.17-.17.26-.36.18-.36-.11-.64l-3.43-3.33q-.41-.4-.46-.97-.12-1.3-1.7-1.81-.22-.07-.44-.01-.41.11-.73-.68a.81.78 43.9 0 1-.02-.52q.3-.96-.27-1.56-.19-.19-1.11-.43-.98-.25-.82-1.5a.41.41 0 0 0-.5-.45q-1.16.29-1.54-.66a.43.43 0 0 0-.41-.27q-.36.01-.38.34a.47.47 0 0 1-.75.35q-.6-.44-.24-1.15a.45.44-71.8 0 0-.32-.64q-.29-.05-.54-.19-.45-.27-.28-.76.18-.5-.21-.74-.41-.27-.56.2-.09.3-.49.28-.32-.01-.44-.3-.05-.13-.01-.28.06-.19.39-.42.6-.41 1.07-1.11.36-.54-.29-.6-2.66-.26-2.05-2.69.17-.7-.52-.53l-.8.18a.86.85 68.2 0 1-.94-.41q-.25-.44-.07-.91.22-.55-.36-.69-.43-.1-.62-.47-.27-.51-.84-.5-1.47.03-2.48-.86-.34-.29-.53-.7-.53-1.13.16-1.56.5-.31.47-.89-.07-1.34-1.47-1.07-1 .2-1.44-.51-.29-.48-.85-.41-.78.09-1.08-.6a.38.37-19.6 0 1 .25-.51q.67-.19 1.37-.13a.39.39 0 0 0 .11-.77q-.62-.12-.74-.72-.12-.56-.53-.16-.38.38-.07.55a.13.13 0 0 1-.04.24l-.74.11a.43.42-5.5 0 1-.49-.4l-.02-1.01q-.01-.47-.48-.5-1.49-.1-2.36-1.51-.24-.39.09-.7l.27-.26q.24-.23.02-.49-.16-.19-.15-.42.04-.7-.66-.73-.54-.03-.75-.44-.2-.42-.66-.38-.9.07-1.68.51-.15.08-.27.08-.17-.01-.29-.09-.27-.19.07-.67.11-.16.31-.23.51-.15.31-.65-.21-.53-.67-.85-.21-.15-.03-.34l.26-.26a.32.32 0 0 0-.13-.53q-2.21-.69-3.31-2.8-.23-.44-.72-.32-.91.24-1.28-.52-.13-.28-.35-.5L86.45 198q-.43-.43-.52-1.02l-.19-1.24a.62.61-89.4 0 0-.49-.51l-1.79-.35q-.26-.05-.32-.31-.04-.16-.02-.32.03-.28.31-.33.43-.07.5-.72a.31.31 0 0 0-.49-.28q-.35.24-.34.53.02.32-.29.39-.37.08-.68-.04-.36-.15-.21-.5l.22-.49q.21-.46-.18-.78-.1-.08-.21-.15-.39-.25-.81-.06-.35.16-.67.01-.55-.25-.17-.72.23-.29.61-.35a.27.27 0 0 0-.02-.54q-1.73-.2-1.8-1.09-.05-.49-.51-.65-.32-.12-.55-.39-.15-.18.07-.24l.26-.08q.18-.05.08-.2l-1.39-2.06q-.32-.48-.88-.38-.59.1-.97-.4-.2-.26.03-.49l.25-.28q.37-.38.06-.82-.86-1.25-2.09-2.1-.34-.24-.37-.66-.05-.74-.71-1.14-.25-.15-.28.13-.01.14 0 .29.02.46-.42.35-.49-.12-.58-.54-.03-.14.1-.21l.31-.15q.58-.29-.01-.57-.7-.33-.36-.97a.17.16 19.1 0 0-.12-.24q-.2-.04-.39-.07a.26.26 0 0 0-.28.36q.29.68-.28 1.25-.36.37-.73 0-.4-.39-.22-1 .14-.48-.29-.74-.33-.2-.66-.01a.57.56-38.7 0 1-.68-.07q-.6-.56-.34-1.23.21-.53-.3-.78-1.1-.53-.74-1.74.09-.3-.12-.51-.26-.26-.55-.08-.39.23-.19.63.18.39-.33.63a.57.57 0 0 1-.82-.51v-2.47q0-.51-.42-.8-.68-.46-.6-1.08.07-.54-.31-.94-1.32-1.36-3.11-.88a.19.18-74.5 0 1-.17-.31l.23-.23q.35-.35-.08-.6-.62-.37-.55-1.08.04-.47-.37-.71-1.88-1.11-3.97-1.46-.52-.08-.58-.61l-.25-2.3q-.05-.52-.5-.79-.74-.47-.49-1.28a.45.44 20.5 0 0-.25-.54q-.43-.18-.91-.13-.55.06-.63-.48l-.18-1.07q-.08-.52-.51-.22-.83.56-1.4 1.4-.45.68-.76-.08-.22-.57-.75-.83-.5-.24-.24-.73.34-.64 1.05-.62.46.02.49-.44.05-.63-.13-1.21-.14-.42-.54-.64-.52-.3-1.16-.27-.26.02-.16-.22l.15-.34q.06-.14-.8-.2-.67-.04-.97.58a.44.44 0 0 1-.56.22q-.18-.07-.32-.22-.42-.44.06-.81.78-.6.33-1.58-.08-.18-.17 0-.06.13-.12.25-.11.2-.34.21l-2.23.12q-.4.02-.48-.37l-.07-.31a.34.34 0 0 1 .25-.4l1.38-.34q.63-.15 0-.3l-1.29-.3a.6.59 27.6 0 1-.31-.98q.24-.28.62-.32a.17.17 0 0 0 .04-.33q-1.13-.47-.79-1.72.11-.38-.28-.43-1-.12-1.06-1.23-.03-.53-.41-.92-.68-.7-1.6-.96-.17-.04-.29 0-.28.11-.28.39a.32.31-88.2 0 0 .3.33q.45.01.6.55.06.2-.07.36l-.17.2a.36.35-28.1 0 1-.63-.19q-.06-.76-.75-.9-.56-.12-.32-.64.07-.16.18-.24.57-.45.07-.98l-2.11-2.22q-.44-.47.08-.83.26-.19.38-.5a.36.36 0 0 0-.4-.48l-.72.11q-.46.08-.59-.37-.26-.98-1.23-.62-.5.18-.76.64-.29.49-.92.15a.6.59-53 0 1-.13-.94q1.45-1.43.55-3.15-.06-.11-.01-.23.05-.1.11-.23.07-.15-.1-.13-.49.05-.95-.1a.41.41 0 0 0-.54.35q-.06.7-.77.61a.35.35 0 0 1-.31-.36q.01-.15 0-.29-.02-.4-.42-.34-.91.13-1.32-.58a.39.39 0 0 1 .09-.5q.15-.13.32-.14 1-.1.34-.86-.74-.85-1.81-1.06-.16-.03-.11-.18.04-.13.08-.28.05-.15-.1-.22-.62-.27-1.3-.15a.67.67 0 0 1-.78-.72l.07-.72a.69.69 0 0 0-.47-.72q-.84-.28-.58-1.19a.54.54 0 0 0-.35-.66q-.81-.28-.66-1.14.09-.53-.4-.74-.38-.16-.8-.15a.6.6 0 0 0-.59.6v.8q0 .59-.59.61-.55.01-1.09-.14a.47.47 0 0 1-.16-.81l.33-.26q.4-.31.31-.81-.11-.65.26-1.26.22-.37.02-.76l-.81-1.59q-.2-.38-.63-.38l-1.22.01q-.93.01-.53-.83.61-1.28-.47-2.38a.72.71-35 0 0-.83-.14q-1.23.58-1.83-.2-.51-.66-.72-.86-.36-.33-.24-.92.1-.5-.38-.67-.61-.22-.64-.8-.03-.5-.35-.88l-.88-1.09q-.12-.15-.32-.11-.3.07-.33.47-.01.17-.17.17l-.5.02q-.56.01-.36-.52.37-.93-.58-1.23-.57-.18-.53-.78.1-1.32-1.09-1.28-.55.02-.66-.52-.1-.48 0-.95.11-.47.05-.68-.12-.41-.49-.56-.15-.06-.25.07-.1.14-.2.22-.13.1-.18-.05l-.32-.89" stroke="#d34e00"/><path d="m168.06 143.44-30.5 20.32a1.79 1.79 0 0 0-.81 1.5V177a2.11 2.11 0 0 0 3.28 1.76L153 170.1" stroke="#f1ab7f"/><path d="M153 170.1q.51 0 .77.16a.14.14 0 0 1-.03.25l-.32.12a.05.05 0 0 0-.01.1q1.06.46.66 1.51a.47.47 0 0 0 .44.64h.99q.62 0 .62.62v2.17a.31.31 0 0 0 .57.16l.43-.7q.33-.56.66 0 .34.59.87 1.01.51.41-.05.76-.8.5-.32 1.47.22.46.6.79.49.42.77 1.06.19.45.66.58.55.16 1.12.08.69-.1.69.6v.97q0 .2.2.18.23-.02.44-.16.58-.39.41.29l-.34 1.29a.85.85 0 0 0 .31.89l2.02 1.52q.5.37.94-.08.28-.3.77-.25.1.01.13.1l.09.26a.37.37 0 0 0 .65.09c1.29-1.85 4.14-.31 4.43 1.61q.06.42.42.66.42.28.52.68.14.53.58.21.23-.16.43-.42.34-.43.52.09.43 1.2-.55 1.93a.16.15-43.8 0 0-.01.24q.09.08.17.2.23.31.6.21 2.67-.74 4.06 1.28.27.4-.12.67-.17.12-.34.25-.59.48.12.74.48.17.54.65.04.46.44.68 1.39.79 2.4 2.01.32.38.78.58 1.71.73 1.36 2.5-.11.53.43.53h.98q.62 0 .62.62v.76q0 .59.55.79.77.28 1.59-.04.46-.18.74.24.32.49-.11.86-.33.28-.63-.04-.2-.22-.48-.17-.48.08-.54.44-.1.59.49.54.81-.07 1.25.62.26.41.75.37.58-.05 1.05.3.34.24.34.65v3.45a.42.42 0 0 0 .81.13q.08-.26.36-.35.52-.18.73.32.23.53.08 1.15a.32.31-5.3 0 0 .44.36q.34-.15.53-.47a.53.53 0 0 1 .91-.02q.42.69.41 1.53-.01.56.53.7l1.32.35q.45.13.58.58.41 1.4 1.65 2.32.37.28.82.24.25-.01.45.13a.37.37 0 0 1-.08.64q-.3.13-.51.32-.37.33.07.56 1.47.76 1.87 2.32a2.46 2.44 82.7 0 0 2.35 1.83q1.69.01 1.75 1.53a.61.6 6.8 0 0 .44.55q.74.2.77.81.01.09-.24.82-.16.45.07.9" stroke="#ea5d00"/><path d="m123.83 189.3.04-55.93a2.49 2.48 16.9 0 0-1.11-2.07l-9.52-6.29a2.25 2.25 0 0 0-3.5 1.87l-.03 25.16" stroke="#f1ab7f"/><path d="M188.8 146.24 153 170.1M194.64 174.544a6.9 6.64.2 0 0-6.877-6.664 6.9 6.64.2 0 0-6.923 6.616 6.9 6.64.2 0 0 6.877 6.664 6.9 6.64.2 0 0 6.923-6.616" stroke="#f6af7f"/><path d="M193.14 174.53a5.4 5.4 0 0 0-5.4-5.4 5.4 5.4 0 0 0-5.4 5.4 5.4 5.4 0 0 0 5.4 5.4 5.4 5.4 0 0 0 5.4-5.4" stroke="#f6af7f"/><path d="M189.85 175.2q.99-.93.58-2.26-.45-1.47-1.99-1.53l-2.37-.1a.68.68 0 0 0-.71.67q-.04 2.63.03 4.77.01.54.41.73.6.29.83-.34l.32-.89a.59.59 0 0 1 1.1-.02q.43 1.06 1.52 1.21.62.08.53-.54-.07-.47-.34-.85a.65.64 51.4 0 1 .09-.85" stroke="#f6af7f"/><path d="M188.626 174.23a1.07.95 39.5 0 0-.222-1.413 1.07.95 39.5 0 0-1.43.052 1.07.95 39.5 0 0 .222 1.414 1.07.95 39.5 0 0 1.43-.052" stroke="#f6af7f"/></g><path d="M121.63 0h11.1C199.55 3.05 252.01 54.86 256 121.91v12.33q-.62 5.89-1.42 11.74-3.45 25.01-16.13 46.73-1.32.25-1.73 1.76-.11.42-.55.44-1.93.12-3.7.98.16-.03.26-.13.24-.24.02-.49-.1-.12-.27-.15v-.01q.52-.11.66-.73a.37.36-68.8 0 0-.16-.38q-.17-.11-.37-.15-.52-.1-.38-.61.17-.61.78-.35a.29.29 0 0 0 .36-.41q-.41-.76-1.23-.62-.51.08-.89-.27l-2.21-2.08q-.25-.24-.18-.57l.09-.4q.07-.37-.3-.41-.7-.07-.65-.85a.41.41 0 0 0-.74-.28q-.53.69-.35 1.56.03.12-.09.13-.14.02-.27.03-.14.01-.21-.11-.86-1.58.13-2.92.38-.52-.26-.59l-1.76-.22q-.51-.06-.39-.55.26-1.04-.71-1.51-.49-.23-.11-.61l.35-.35q.33-.33.01-.66-.92-.95-2.14-1.33-.48-.15-.38-.65.14-.69-.3-1.15a.48.48 0 0 0-.81.19q-.26.89-1.23.67-.47-.11-.59-.58-.22-.87.41-1.43.45-.4-.04-.75-.38-.28-.82-.29-.67-.02-.58-.68.06-.47-.13-.85-.21-.41-.67-.42l-.96-.02a.33.33 0 0 1-.11-.64q.91-.33.89-1.17-.01-.64-.61-.88l-2.04-.82q-.45-.18-.41-.65l.03-.4a.32.32 0 0 0-.26-.34l-4.4-.84q-1.33-.26-.16-.94.76-.44 1.15-1.34.18-.39-.15-.67-.45-.37-.35-.93.14-.72-.48-1.02a.34.34 0 0 0-.44.48q.28.49-.09 1.02-.64.93-.83-.17-.1-.58-.7-.7a.39.39 0 0 1-.19-.67l.4-.35q.38-.35.03-.73-.3-.32-.73-.22a.75.74 63.1 0 1-.75-.25q-.82-.97-1.99-1.33a.39.39 0 0 1-.25-.52q.87-2.14-1.39-1.9a.42.41-70.2 0 1-.33-.71l.28-.28q.3-.3.12-.68-.5-1.08-1.58-1.41-.39-.11-.7-.37-.89-.74-2.01-.66a.23.22-83.1 0 1-.23-.3q.22-.63.03-1.15a.72.72 0 0 0-.64-.46l-.97-.03a.38.37-66.6 0 1-.25-.64l.37-.38a.49.48-40.5 0 0 .06-.61q-.9-1.28-2.41-1.76a.66.64 13.2 0 1-.45-.71q.06-.5-.34-.79-.56-.39-.52.3.01.28-.16.47-.39.41-.61-.12-.37-.9-2.39-1.4c6.53-3.96 7.59-9.77 7.37-16.5q-.06-1.67-1.13-2.5a2.06 2.05-42.7 0 0-2.39-.09l-24.59 16.29q-.11-.09-.2-.2-.19-.22.02-.43.18-.2.21-.4.06-.43-.26-.13-.27.24-.52.15-.64-.24-.68-.24-1.41-.02-2.83-.26-.5-.09-.76-.53l-1.16-2.04q-.19-.32-.52-.52-2.12-1.28-1.75-3.6a.2.2 0 0 0-.34-.18l-.29.26q-.11.1-.19-.03t-.2-.18q-.43-.2-.19.21.1.17.14.36.07.35-.29.41l-2.56.4q15.65-10.52 31.18-20.89c2.39-1.59 2.1-4.02-.19-5.55q-35.4-23.56-70.65-46.95 2.42-1.11-.92-3-.69-.39-1.33-.88-.41-.32-.48-.84l-.4-2.94a.26.25 10.2 0 0-.13-.18l-.32-.16a.33.33 0 0 0-.46.21q-.17.55-.66.84a.28.28 0 0 1-.41-.34q.26-.7-.48-1.01a.54.03 22 0 0-.44-.15q-.12 0-.25.01-.49.05-.1-.49.22-.31.1-.63-.16-.42-.6-.39-.39.02-.56-.34-.17-.35-.52-.17-.25.13-.46.03-.47-.22.04-.34.39-.09.71-.42.47-.47-.14-.74-2.64-1.18-2.82-4.06a1.19 1.16 14.2 0 0-.56-.92q-.68-.41-1.45-.22a.46.46 0 0 0 .08.9q.41.02.46.49.06.65-.51.32-.68-.38-1.11-1.04-.3-.45.23-.54.35-.07.32-.55-.03-.3-.25-.52l-3.53-3.44a.81.8 36.4 0 1-.15-.97q.28-.53.1-1.09-.2-.64-.84-.43-.29.1-.57-.19-.14-.14-.21.04-.3.71-.83.79-.49.08-.48-.42l.02-.82q.01-.69-.67-.57-.39.07-.37-.17.01-.08-.64-.81-.73-.81-.23-2.02.2-.47-.24-.73l-.7-.4a.82.81 15.7 0 1-.4-.7l-.01-.58q0-.59-.59-.6h-1.91a.17.16-88.3 0 1-.16-.18q.2-3-1.43-2.99-.51.01-.87-.36l-1.69-1.73q-.28-.3-.03-.62l.16-.2q.4-.48-.21-.64-.67-.17-1.13-.62-.04-.03-.49-1.01-.4-.86-1.97-.53a.34.34 0 0 1-.41-.27q-.14-.71.17-1.01.32-.31.03-.64-.32-.36-.84-.61-.29-.15-.53.08-.26.24-.55.41-.22.13-.47.13h-.31a.11.1 15.9 0 1-.09-.16q.52-.77-.05-1.22-.36-.3-.38-.77l-.06-1.47a.46.45-5.2 0 0-.52-.43q-1.97.3-2.98-1.16-.36-.52-.23-1.13.2-1.02-.63-1.59-.4-.27-.13-.68.35-.53.17-.91Q93.59 2.99 114.26.89q3.7-.38 7.37-.89Z" fill="#f96700"/><path d="M74.73 11.61q.18.38-.17.91-.27.41.13.68.83.57.63 1.59-.13.61.23 1.13 1.01 1.46 2.98 1.16a.46.45-5.2 0 1 .52.43l.06 1.47q.02.47.38.77.57.45.05 1.22a.11.1 15.9 0 0 .09.16h.31q.25 0 .47-.13.29-.17.55-.41.24-.23.53-.08.52.25.84.61.29.33-.03.64-.31.3-.17 1.01a.34.34 0 0 0 .41.27q1.57-.33 1.97.53.45.98.49 1.01.46.45 1.13.62.61.16.21.64l-.16.2q-.25.32.03.62l1.69 1.73q.36.37.87.36 1.63-.01 1.43 2.99a.17.16-88.3 0 0 .16.18h1.91q.59.01.59.6l.01.58a.82.81 15.7 0 0 .4.7l.7.4q.44.26.24.73-.5 1.21.23 2.02.65.73.64.81-.02.24.37.17.68-.12.67.57l-.02.82q-.01.5.48.42.53-.08.83-.79.07-.18.21-.04.28.29.57.19.64-.21.84.43.18.56-.1 1.09a.81.8 36.4 0 0 .15.97l3.53 3.44q.22.22.25.52.03.48-.32.55-.53.09-.23.54.43.66 1.11 1.04.57.33.51-.32-.05-.47-.46-.49a.46.46 0 0 1-.08-.9q.77-.19 1.45.22a1.19 1.16 14.2 0 1 .56.92q.18 2.88 2.82 4.06.61.27.14.74-.32.33-.71.42-.51.12-.04.34.21.1.46-.03.35-.18.52.17.17.36.56.34.44-.03.6.39.12.32-.1.63-.39.54.1.49.13-.01.25-.01a.54.03 22 0 1 .44.15q.74.31.48 1.01a.28.28 0 0 0 .41.34q.49-.29.66-.84a.33.33 0 0 1 .46-.21l.32.16a.26.25 10.2 0 1 .13.18l.4 2.94q.07.52.48.84.64.49 1.33.88 3.34 1.89.92 3c-3.44-2.35-7.37-5.4-11.15-6.26-4.63-1.05-9.04.98-12.72 3.12a2.22 2.22 0 0 0-.11 3.77l71.16 47.34a2.21 2.21 0 0 1 0 3.68l-22.95 15.31q-.22-.74-.92-1.07-.38-.17-.47-.59l-.31-1.43q-.09-.44-.52-.57-.65-.2-.99.28-.46.66-.76-.09-.2-.51.19-.98.38-.47-.19-.27-.21.07-.27.28-.19.57-.76.38-.51-.18-.7-.66a.1.1 0 0 0-.19.03l-.01.4q0 .37-.24.09-.91-1.05-2.28-1.53-.7-.25-.15-.74.32-.29.49-.68.11-.26-.17-.28-.18-.01-.35-.01a.5.5 0 0 1-.51-.46q-.07-1.02-1.18-.77-.49.11-.59-.38-.05-.22.1-.52 1.17.55 2.18-.1 4.55-2.89 8.63-5.68a2.2 2.2 0 0 0-.03-3.65Q113.74 93.53 87.35 75.9q-1.33-.89-3.23-.11-3.66.14-3.2-2.87a.65.64-76.6 0 0-.43-.71q-.29-.1-.64.01-.1.03-.15.13-.02.05-.03.09-.03.06-.05.05-.37-.33-.14-.49a.72.57 40.8 0 0-.21-1.08q-.18-.1-.27-.28-.12-.26-.39-.36-2.49-.9-2.24-2.51.07-.42-.25-.69-.39-.33-.83.04-.29.23-.41-.11-.07-.2.17-.28a.33.33 0 0 0-.04-.63q-1.31-.3-1.07-1.42a.56.56 0 0 0-.5-.67l-1.49-.09q-.11-.01-.09-.13l.06-.27q.01-.07-.04-.11l-1.6-1.52q-.37-.35-.21-.83.11-.34.01-.64a.55.54 80 0 0-.51-.36q-.47.01-.68.64a.37.36-59.8 0 1-.59.16l-.21-.19q-.23-.21.05-.35.36-.2.59-.49.36-.45-.15-.72-1.98-1.01-1.65-3.22.09-.59-.45-.84-.43-.2-.59-.66a.42.42 0 0 0-.77-.04q-.2.44-.63.54-.44.1-.44-.36v-.39q0-.44-.29-.77-.53-.59-.99-.47-.52.13-.78-.34-.43-.77-1.35-.66-.59.08-.67.67-.03.2-.18.37a.21.2 42.3 0 1-.3.01l-.21-.21q-.24-.24.03-.45l1.4-1.1q.2-.16.2-.4 0-.17.02-.36a.42.41 62.1 0 0-.77-.24l-.33.58a.25.25 0 0 1-.26.12q-.28-.06-.5-.24-.17-.15-.03-.31.91-1.11-.3-2.11-.49-.41-1.04-.22-.38.13-.33-.26.02-.25.26-.38a1.05.18-82.6 0 0 .27-.87q.09-.56-.2-1.03a.37.37 0 0 0-.64.02l-.21.38a.39.39 0 0 1-.72-.08q-.17-.64-.79-.83a.57.57 0 0 1-.4-.53q-.04-1.46-1.38-2.22-.2-.11-.32.07-.18.25-.08.56.01.04-.03.04h-.28a.16.15 16.7 0 1-.13-.24q.46-.68.19-1.62-.07-.27-.33-.15-.37.17-.96 0-.54-.16-.89-.58l-.76-.88q-.31-.37-.79-.31-.55.07-.89-.33-.37-.45.13-.75.92-.57.32-1.93-.2-.45-.69-.45H46.8a.33.32-13.4 0 1-.29-.17q-.2-.4.15-.64a.52.52 0 0 0 .21-.49l-.08-.66a.44.43-26.2 0 0-.74-.25l-.19.19q-.36.36-.59-.09-.5-.97-.44-2.82 13.51-11.56 29.9-19.1Z" fill="#ef6000"/><path d="M44.83 30.71q-.06 1.85.44 2.82.23.45.59.09l.19-.19a.44.43-26.2 0 1 .74.25l.08.66a.52.52 0 0 1-.21.49q-.35.24-.15.64a.33.32-13.4 0 0 .29.17h1.25q.49 0 .69.45.6 1.36-.32 1.93-.5.3-.13.75.34.4.89.33.48-.06.79.31l.76.88q.35.42.89.58.59.17.96 0 .26-.12.33.15.27.94-.19 1.62a.16.15 16.7 0 0 .13.24h.28q.04 0 .03-.04-.1-.31.08-.56.12-.18.32-.07 1.34.76 1.38 2.22a.57.57 0 0 0 .4.53q.62.19.79.83a.39.39 0 0 0 .72.08l.21-.38a.37.37 0 0 1 .64-.02q.29.47.2 1.03a1.05.18-82.6 0 1-.27.87q-.24.13-.26.38-.05.39.33.26.55-.19 1.04.22 1.21 1 .3 2.11-.14.16.03.31.22.18.5.24a.25.25 0 0 0 .26-.12l.33-.58a.42.41 62.1 0 1 .77.24q-.02.19-.02.36 0 .24-.2.4l-1.4 1.1q-.27.21-.03.45l.21.21a.21.2 42.3 0 0 .3-.01q.15-.17.18-.37.08-.59.67-.67.92-.11 1.35.66.26.47.78.34.46-.12.99.47.29.33.29.77v.39q0 .46.44.36.43-.1.63-.54a.42.42 0 0 1 .77.04q.16.46.59.66.54.25.45.84-.33 2.21 1.65 3.22.51.27.15.72-.23.29-.59.49-.28.14-.05.35l.21.19a.37.36-59.8 0 0 .59-.16q.21-.63.68-.64a.55.54 80 0 1 .51.36q.1.3-.01.64-.16.48.21.83l1.6 1.52q.05.04.04.11l-.06.27q-.02.12.09.13l1.49.09a.56.56 0 0 1 .5.67q-.24 1.12 1.07 1.42a.33.33 0 0 1 .04.63q-.24.08-.17.28.12.34.41.11.44-.37.83-.04.32.27.25.69-.25 1.61 2.24 2.51.27.1.39.36.09.18.27.28a.72.57 40.8 0 1 .21 1.08q-.23.16.14.49.02.01.05-.05.01-.04.03-.09.05-.1.15-.13.35-.11.64-.01a.65.64-76.6 0 1 .43.71q-.46 3.01 3.2 2.87-1.25 1.12-1.25 2.45-.04 42.84-.02 85.75-.78-1.45-.72-3.17.02-.51-.38-.83-.81-.65-1.09-1.68-.14-.49-.61-.67-.43-.16-.92-.03-.51.14-.72-.35-.67-1.56-2.05-2.47-.29-.2-.13-.52.06-.11.12-.23a.29.29 0 0 0-.32-.42q-1.14.24-2.3-.01-.39-.09-.01-.22.18-.06.37-.09.71-.13.14-.56-.2-.16-.51-.13-.44.05-.6-.36-.18-.49-.62-.37a.34.34 0 0 1-.38-.5q.22-.37.57-.21a.35.35 0 0 0 .49-.34q-.04-.69-.63-.9-.46-.16-.95-.14-.48.03-.96-.13-.17-.05-.24-.17-.1-.16-.07-.34.06-.32.38-.24.57.13.83-.32.17-.29.04-.67-.28-.82-.94-1.44-.32-.3-.63.01l-.4.4a.21.2-24.5 0 1-.35-.13q-.15-2.11-1.71-3.57-.37-.34-.4-.85-.03-.42-.27-.78-.3-.46-.85-.42-.84.07-1.23-.82a1.05 1.03-.5 0 0-.57-.55q-1.01-.41-1.22-1.44-.08-.45-.54-.45h-.58q-.4 0-.51-.39-.15-.53.18-.7.47-.25.1-.63l-.31-.31q-.15-.15-.35-.19-1.39-.28-2.08-1.45a.49.48-28.7 0 0-.65-.18q-.34.2-.39.47-.03.17-.17.27-.37.27-.49-.08-.11-.33.15-.55.17-.15.29-.42a2.73 1.28 48.6 0 0-.64-2.2q-.44-.61-1.13-.68-.49-.06-.85-.4l-3.02-2.98q-.34-.33.13-.35.3-.02.46-.21.28-.37-.05-.7l-2.18-2.12q-.36-.35-.27-.83.18-1.07-.86-1.11-1.48-.06-1.47-1.43.01-.51-.51-.54-.25-.02-.5.23-.86-.12-1.51-.71-.34-.31-.06-.67.13-.15.3-.14 1.08.08-.04-.68l-1.93-1.3q-.41-.28-.64-.71-1.88-3.57-4.72-6.43-.3-.3-.3-.71v-.33a.31.31 0 0 0-.5-.24q-.77.63-1.88.39a.42.42 0 0 1-.13-.77q1.22-.76.53-2-.06-.1-.17-.1h-.3q-.06 0-.11-.05l-3.44-3.57q-.37-.39-.66.08-.17.28-.71.2-.69-.11-.09-.46 1.18-.71.55-2.02-.14-.3-.48-.3h-.44q-.54 0-.94-.37-1.17-1.09-2.13-2.35-.51-.68-1.27-.43-.44.15-.61-.29-.16-.44-.6-.49a1.35.97 20.9 0 1-1.15-1.74l.39-.39q.29-.3 0-.59l-.21-.2q-.34-.35-.38-.83-.09-1.26-1.55-1.26-.47 0-.47-.47v-1.28q0-.18-.17-.22l-.36-.09q-.39-.1-.46-.49-.11-.63-.38-1.2-.17-.37-.5-.6-.9-.64-1.39.03-.39.54-.73-.04-.47-.83-1.24-1.41-.33-.26-.46-.65-.44-1.39-1.88-1.72-.07-.01-.04-.08.02-.04.02-.07a.25.2 82.7 0 0-.28-.27q-.15.07-.3.15-.26.13-.42-.12l-2.52-4.03q11.64-27.66 34.82-47.67Z" fill="#e45900"/><path d="M116.03 63.1q35.25 23.39 70.65 46.95c2.29 1.53 2.58 3.96.19 5.55q-15.53 10.37-31.18 20.89L140.1 146.8a2.16 2.16 0 0 1-3.35-1.8v-11.84q0-.55.44-.87l3.07-2.23 22.95-15.31a2.21 2.21 0 0 0 0-3.68L92.05 63.73a2.22 2.22 0 0 1 .11-3.77c3.68-2.14 8.09-4.17 12.72-3.12 3.78.86 7.71 3.91 11.15 6.26Z" fill="#fdfdfd"/><path d="M129.48 120.49q-14.47-9.66-28.97-19.28c-1.77-1.18-3.75.11-3.74 2.12q.07 23.35.1 46.72.01 22.09.04 44.2 0 2.33-1.97 2.67a1.67 1.66 53.6 0 1-1.03-.16c-5.79-2.99-10.56-6.73-10.8-14.01q-.31-9.42-.26-18.76-.02-42.91.02-85.75 0-1.33 1.25-2.45 1.9-.78 3.23.11 26.39 17.63 52.91 35.16a2.2 2.2 0 0 1 .03 3.65q-4.08 2.79-8.63 5.68-1.01.65-2.18.1Z" fill="#fdfdfd"/><path d="m10.01 78.38 2.52 4.03q.16.25.42.12.15-.08.3-.15a.25.2 82.7 0 1 .28.27q0 .03-.02.07-.03.07.04.08 1.44.33 1.88 1.72.13.39.46.65.77.58 1.24 1.41.34.58.73.04.49-.67 1.39-.03.33.23.5.6.27.57.38 1.2.07.39.46.49l.36.09q.17.04.17.22v1.28q0 .47.47.47 1.46 0 1.55 1.26.04.48.38.83l.21.2q.29.29 0 .59l-.39.39a1.35.97 20.9 0 0 1.15 1.74q.44.05.6.49.17.44.61.29.76-.25 1.27.43.96 1.26 2.13 2.35.4.37.94.37h.44q.34 0 .48.3.63 1.31-.55 2.02-.6.35.09.46.54.08.71-.2.29-.47.66-.08l3.44 3.57q.05.05.11.05h.3q.11 0 .17.1.69 1.24-.53 2a.42.42 0 0 0 .13.77q1.11.24 1.88-.39a.31.31 0 0 1 .5.24v.33q0 .41.3.71 2.84 2.86 4.72 6.43.23.43.64.71l1.93 1.3q1.12.76.04.68-.17-.01-.3.14-.28.36.06.67.65.59 1.51.71.25-.25.5-.23.52.03.51.54-.01 1.37 1.47 1.43 1.04.04.86 1.11-.09.48.27.83l2.18 2.12q.33.33.05.7-.16.19-.46.21-.47.02-.13.35l3.02 2.98q.36.34.85.4.69.07 1.13.68a2.73 1.28 48.6 0 1 .64 2.2q-.12.27-.29.42-.26.22-.15.55.12.35.49.08.14-.1.17-.27.05-.27.39-.47a.49.48-28.7 0 1 .65.18q.69 1.17 2.08 1.45.2.04.35.19l.31.31q.37.38-.1.63-.33.17-.18.7.11.39.51.39h.58q.46 0 .54.45.21 1.03 1.22 1.44a1.05 1.03-.5 0 1 .57.55q.39.89 1.23.82.55-.04.85.42.24.36.27.78.03.51.4.85 1.56 1.46 1.71 3.57a.21.2-24.5 0 0 .35.13l.4-.4q.31-.31.63-.01.66.62.94 1.44.13.38-.04.67-.26.45-.83.32-.32-.08-.38.24-.03.18.07.34.07.12.24.17.48.16.96.13.49-.02.95.14.59.21.63.9a.35.35 0 0 1-.49.34q-.35-.16-.57.21a.34.34 0 0 0 .38.5q.44-.12.62.37.16.41.6.36.31-.03.51.13.57.43-.14.56-.19.03-.37.09-.38.13.01.22 1.16.25 2.3.01a.29.29 0 0 1 .32.42q-.06.12-.12.23-.16.32.13.52 1.38.91 2.05 2.47.21.49.72.35.49-.13.92.03.47.18.61.67.28 1.03 1.09 1.68.4.32.38.83-.06 1.72.72 3.17-.05 9.34.26 18.76c.24 7.28 5.01 11.02 10.8 14.01a1.67 1.66 53.6 0 0 1.03.16q1.97-.34 1.97-2.67-.03-22.11-.04-44.2l.48-7.41q.01-.24.27-.51.09-.1.23-.17.22-.12.33.11.58 1.19 1.68 1.73.51.25.73.77l1.57 3.66a.16.15 42.6 0 1 .01.12q-.23 1.02.43 1.02.62 0 .87.56.54 1.19 1.75 1.66.45.18.52.67.17 1.19 1.21 1.7.45.23.86-.06.4-.26.59-.7.06-.14.2-.08.14.05.23.18.09.14.06.41-.09.73-.22 1.46-.08.49.38.31.63-.26.59-.72-.1-1.39.07-2.72l.02 42.59a2.15 2.14 8.1 0 0 1.55 2.06c1.44.41 2.41-.51 3.57-1.2q4.75-2.86 8.98-6.19.39-.63.55-1.5a.41.41 0 0 1 .74-.16q.15.21.32.25.66.14.52.8l-.13.54q-.13.61.49.67.41.04.74.29.48.36-.05.64l-.25.13q-.66.35.01.68c.92.44 1.74-.01 2.46.3q.25.1.39.32.29.45-.22.63-.36.13-.71.28-.81.34.05.52.74.15 1.2.64.27.29.62.47 1.85.95 3.32 2.4.38.37.2.87-.25.71.49.93.39.12.46.53l.1.63q.11.63.74.75.79.14 1.22-.49a.37.37 0 0 1 .64.06q.24.52.8.79.6.3.01.63-.83.48-.2 1.31.11.16.31.17.17.01.33.1.17.1.27.39.59 1.68 1.96 2.86.42.35.74-.09l.19-.27a.45.44-42.3 0 1 .74.03q.45.76 1.36.81.28.01.4.19.25.34-.17.41l-1.98.34a.35.35 0 0 0-.18.6q.52.5 1.2.35c1.77-.39 3.51.04 3.61 2.04q.03.46.33.8.74.82 1.72 1.18.73.28.09.73-.24.16-.5.22-.88.18-.24.81l1.54 1.52q.08.08.01.16-.09.12-.14.24-.12.29.2.32 1.22.11 1.99-.72.36-.39.75-.03.44.42.16 1.02c-.15.32-.53.5-.72.79q-.28.44.17.69.9.5.62 1.56-.06.24.15.35l.28.15a.24.24 0 0 0 .35-.22q-.02-.48.42-.67.41-.18.8.05.18.12.43.03a.29.29 0 0 1 .25.52q-.99.62-.55 1.74.17.41.54.67.24.16.35.42.12.26.39.37.74.3.68.97a.85.85 0 0 0 .39.8q.98.61 1.35-.04.28-.49.83-.35.35.09.35.54v3.69q0 .03.13.31.08.15.23.13.24-.03.33-.25.46-1.01 1.43-.74 1.84.52.09 1.15-.16.06-.78.06-.85.01-.18.54.58.45 1.34.19a.28.28 0 0 0 .19-.25v-.32q.01-.35.35-.38.81-.07 1.48.36a.31.31 0 0 1 .05.48q-.21.19-.48.12a.35.35 0 0 0-.36.56q.68.84 1.76.86a.03.02-75.1 0 1 .02.04l-.16.3q-.08.16.06.27.65.5.51 1.28-.1.5.36.72.85.41.62 1.31a.43.42-21.6 0 0 .77.33l.25-.4q.32-.49.7-.05.32.38.3.88-.02.57.39.97l2.58 2.55q.38.37.91.43c.58.06.89.28 1.28.79q.57.76 1.28 1.41.31.29.23.7-.3 1.58 1.61 2.29-18.28 7.64-37.86 9.36-2.03-1.25-3.97-2.61-.07-.06-1.96-1.9-1.19-1.16-3.02-1.2-.66-.01-.19-.48.29-.3.82-.18.49.11.64-.37.22-.72-1.08-1.74a.69.68 54.7 0 0-.61-.11q-.3.1-.42-.1-.2-.32-.11-.4.17-.17.26-.36.18-.36-.11-.64l-3.43-3.33q-.41-.4-.46-.97-.12-1.3-1.7-1.81-.22-.07-.44-.01-.41.11-.73-.68a.81.78 43.9 0 1-.02-.52q.3-.96-.27-1.56-.19-.19-1.11-.43-.98-.25-.82-1.5a.41.41 0 0 0-.5-.45q-1.16.29-1.54-.66a.43.43 0 0 0-.41-.27q-.36.01-.38.34a.47.47 0 0 1-.75.35q-.6-.44-.24-1.15a.45.44-71.8 0 0-.32-.64q-.29-.05-.54-.19-.45-.27-.28-.76.18-.5-.21-.74-.41-.27-.56.2-.09.3-.49.28-.32-.01-.44-.3-.05-.13-.01-.28.06-.19.39-.42.6-.41 1.07-1.11.36-.54-.29-.6-2.66-.26-2.05-2.69.17-.7-.52-.53l-.8.18a.86.85 68.2 0 1-.94-.41q-.25-.44-.07-.91.22-.55-.36-.69-.43-.1-.62-.47-.27-.51-.84-.5-1.47.03-2.48-.86-.34-.29-.53-.7-.53-1.13.16-1.56.5-.31.47-.89-.07-1.34-1.47-1.07-1 .2-1.44-.51-.29-.48-.85-.41-.78.09-1.08-.6a.38.37-19.6 0 1 .25-.51q.67-.19 1.37-.13a.39.39 0 0 0 .11-.77q-.62-.12-.74-.72-.12-.56-.53-.16-.38.38-.07.55a.13.13 0 0 1-.04.24l-.74.11a.43.42-5.5 0 1-.49-.4l-.02-1.01q-.01-.47-.48-.5-1.49-.1-2.36-1.51-.24-.39.09-.7l.27-.26q.24-.23.02-.49-.16-.19-.15-.42.04-.7-.66-.73-.54-.03-.75-.44-.2-.42-.66-.38-.9.07-1.68.51-.15.08-.27.08-.17-.01-.29-.09-.27-.19.07-.67.11-.16.31-.23.51-.15.31-.65-.21-.53-.67-.85-.21-.15-.03-.34l.26-.26a.32.32 0 0 0-.13-.53q-2.21-.69-3.31-2.8-.23-.44-.72-.32-.91.24-1.28-.52-.13-.28-.35-.5L86.45 198q-.43-.43-.52-1.02l-.19-1.24a.62.61-89.4 0 0-.49-.51l-1.79-.35q-.26-.05-.32-.31-.04-.16-.02-.32.03-.28.31-.33.43-.07.5-.72a.31.31 0 0 0-.49-.28q-.35.24-.34.53.02.32-.29.39-.37.08-.68-.04-.36-.15-.21-.5l.22-.49q.21-.46-.18-.78-.1-.08-.21-.15-.39-.25-.81-.06-.35.16-.67.01-.55-.25-.17-.72.23-.29.61-.35a.27.27 0 0 0-.02-.54q-1.73-.2-1.8-1.09-.05-.49-.51-.65-.32-.12-.55-.39-.15-.18.07-.24l.26-.08q.18-.05.08-.2l-1.39-2.06q-.32-.48-.88-.38-.59.1-.97-.4-.2-.26.03-.49l.25-.28q.37-.38.06-.82-.86-1.25-2.09-2.1-.34-.24-.37-.66-.05-.74-.71-1.14-.25-.15-.28.13-.01.14 0 .29.02.46-.42.35-.49-.12-.58-.54-.03-.14.1-.21l.31-.15q.58-.29-.01-.57-.7-.33-.36-.97a.17.16 19.1 0 0-.12-.24q-.2-.04-.39-.07a.26.26 0 0 0-.28.36q.29.68-.28 1.25-.36.37-.73 0-.4-.39-.22-1 .14-.48-.29-.74-.33-.2-.66-.01a.57.56-38.7 0 1-.68-.07q-.6-.56-.34-1.23.21-.53-.3-.78-1.1-.53-.74-1.74.09-.3-.12-.51-.26-.26-.55-.08-.39.23-.19.63.18.39-.33.63a.57.57 0 0 1-.82-.51v-2.47q0-.51-.42-.8-.68-.46-.6-1.08.07-.54-.31-.94-1.32-1.36-3.11-.88a.19.18-74.5 0 1-.17-.31l.23-.23q.35-.35-.08-.6-.62-.37-.55-1.08.04-.47-.37-.71-1.88-1.11-3.97-1.46-.52-.08-.58-.61l-.25-2.3q-.05-.52-.5-.79-.74-.47-.49-1.28a.45.44 20.5 0 0-.25-.54q-.43-.18-.91-.13-.55.06-.63-.48l-.18-1.07q-.08-.52-.51-.22-.83.56-1.4 1.4-.45.68-.76-.08-.22-.57-.75-.83-.5-.24-.24-.73.34-.64 1.05-.62.46.02.49-.44.05-.63-.13-1.21-.14-.42-.54-.64-.52-.3-1.16-.27-.26.02-.16-.22l.15-.34q.06-.14-.8-.2-.67-.04-.97.58a.44.44 0 0 1-.56.22q-.18-.07-.32-.22-.42-.44.06-.81.78-.6.33-1.58-.08-.18-.17 0-.06.13-.12.25-.11.2-.34.21l-2.23.12q-.4.02-.48-.37l-.07-.31a.34.34 0 0 1 .25-.4l1.38-.34q.63-.15 0-.3l-1.29-.3a.6.59 27.6 0 1-.31-.98q.24-.28.62-.32a.17.17 0 0 0 .04-.33q-1.13-.47-.79-1.72.11-.38-.28-.43-1-.12-1.06-1.23-.03-.53-.41-.92-.68-.7-1.6-.96-.17-.04-.29 0-.28.11-.28.39a.32.31-88.2 0 0 .3.33q.45.01.6.55.06.2-.07.36l-.17.2a.36.35-28.1 0 1-.63-.19q-.06-.76-.75-.9-.56-.12-.32-.64.07-.16.18-.24.57-.45.07-.98l-2.11-2.22q-.44-.47.08-.83.26-.19.38-.5a.36.36 0 0 0-.4-.48l-.72.11q-.46.08-.59-.37-.26-.98-1.23-.62-.5.18-.76.64-.29.49-.92.15a.6.59-53 0 1-.13-.94q1.45-1.43.55-3.15-.06-.11-.01-.23.05-.1.11-.23.07-.15-.1-.13-.49.05-.95-.1a.41.41 0 0 0-.54.35q-.06.7-.77.61a.35.35 0 0 1-.31-.36q.01-.15 0-.29-.02-.4-.42-.34-.91.13-1.32-.58a.39.39 0 0 1 .09-.5q.15-.13.32-.14 1-.1.34-.86-.74-.85-1.81-1.06-.16-.03-.11-.18.04-.13.08-.28.05-.15-.1-.22-.62-.27-1.3-.15a.67.67 0 0 1-.78-.72l.07-.72a.69.69 0 0 0-.47-.72q-.84-.28-.58-1.19a.54.54 0 0 0-.35-.66q-.81-.28-.66-1.14.09-.53-.4-.74-.38-.16-.8-.15a.6.6 0 0 0-.59.6v.8q0 .59-.59.61-.55.01-1.09-.14a.47.47 0 0 1-.16-.81l.33-.26q.4-.31.31-.81-.11-.65.26-1.26.22-.37.02-.76l-.81-1.59q-.2-.38-.63-.38l-1.22.01q-.93.01-.53-.83.61-1.28-.47-2.38a.72.71-35 0 0-.83-.14q-1.23.58-1.83-.2-.51-.66-.72-.86-.36-.33-.24-.92.1-.5-.38-.67-.61-.22-.64-.8-.03-.5-.35-.88l-.88-1.09q-.12-.15-.32-.11-.3.07-.33.47-.01.17-.17.17l-.5.02q-.56.01-.36-.52.37-.93-.58-1.23-.57-.18-.53-.78.1-1.32-1.09-1.28-.55.02-.66-.52-.1-.48 0-.95.11-.47.05-.68-.12-.41-.49-.56-.15-.06-.25.07-.1.14-.2.22-.13.1-.18-.05l-.32-.89q2.44-11.82 7.29-23.34Z" fill="#d85100"/><path d="M129.48 120.49q-.15.3-.1.52.1.49.59.38 1.11-.25 1.18.77a.5.5 0 0 0 .51.46q.17 0 .35.01.28.02.17.28-.17.39-.49.68-.55.49.15.74 1.37.48 2.28 1.53.24.28.24-.09l.01-.4a.1.1 0 0 1 .19-.03q.19.48.7.66.57.19.76-.38.06-.21.27-.28.57-.2.19.27-.39.47-.19.98.3.75.76.09.34-.48.99-.28.43.13.52.57l.31 1.43q.09.42.47.59.7.33.92 1.07l-3.07 2.23q-.44.32-.44.87V145a2.16 2.16 0 0 0 3.35 1.8l15.59-10.31 2.56-.4q.36-.06.29-.41-.04-.19-.14-.36-.24-.41.19-.21.12.05.2.18.08.13.19.03l.29-.26a.2.2 0 0 1 .34.18q-.37 2.32 1.75 3.6.33.2.52.52l1.16 2.04q.26.44.76.53 1.42.24 2.83.26.04 0 .68.24.25.09.52-.15.32-.3.26.13-.03.2-.21.4-.21.21-.02.43.09.11.2.2l-30.5 20.32a1.79 1.79 0 0 0-.81 1.5V177a2.11 2.11 0 0 0 3.28 1.76L153 170.1q.51 0 .77.16a.14.14 0 0 1-.03.25l-.32.12a.05.05 0 0 0-.01.1q1.06.46.66 1.51a.47.47 0 0 0 .44.64h.99q.62 0 .62.62v2.17a.31.31 0 0 0 .57.16l.43-.7q.33-.56.66 0 .34.59.87 1.01.51.41-.05.76-.8.5-.32 1.47.22.46.6.79.49.42.77 1.06.19.45.66.58.55.16 1.12.08.69-.1.69.6v.97q0 .2.2.18.23-.02.44-.16.58-.39.41.29l-.34 1.29a.85.85 0 0 0 .31.89l2.02 1.52q.5.37.94-.08.28-.3.77-.25.1.01.13.1l.09.26a.37.37 0 0 0 .65.09c1.29-1.85 4.14-.31 4.43 1.61q.06.42.42.66.42.28.52.68.14.53.58.21.23-.16.43-.42.34-.43.52.09.43 1.2-.55 1.93a.16.15-43.8 0 0-.01.24q.09.08.17.2.23.31.6.21 2.67-.74 4.06 1.28.27.4-.12.67-.17.12-.34.25-.59.48.12.74.48.17.54.65.04.46.44.68 1.39.79 2.4 2.01.32.38.78.58 1.71.73 1.36 2.5-.11.53.43.53h.98q.62 0 .62.62v.76q0 .59.55.79.77.28 1.59-.04.46-.18.74.24.32.49-.11.86-.33.28-.63-.04-.2-.22-.48-.17-.48.08-.54.44-.1.59.49.54.81-.07 1.25.62.26.41.75.37.58-.05 1.05.3.34.24.34.65v3.45a.42.42 0 0 0 .81.13q.08-.26.36-.35.52-.18.73.32.23.53.08 1.15a.32.31-5.3 0 0 .44.36q.34-.15.53-.47a.53.53 0 0 1 .91-.02q.42.69.41 1.53-.01.56.53.7l1.32.35q.45.13.58.58.41 1.4 1.65 2.32.37.28.82.24.25-.01.45.13a.37.37 0 0 1-.08.64q-.3.13-.51.32-.37.33.07.56 1.47.76 1.87 2.32a2.46 2.44 82.7 0 0 2.35 1.83q1.69.01 1.75 1.53a.61.6 6.8 0 0 .44.55q.74.2.77.81.01.09-.24.82-.16.45.07.9-13.76 10.82-29.83 17.57-1.91-.71-1.61-2.29.08-.41-.23-.7-.71-.65-1.28-1.41c-.39-.51-.7-.73-1.28-.79q-.53-.06-.91-.43l-2.58-2.55q-.41-.4-.39-.97.02-.5-.3-.88-.38-.44-.7.05l-.25.4a.43.42-21.6 0 1-.77-.33q.23-.9-.62-1.31-.46-.22-.36-.72.14-.78-.51-1.28-.14-.11-.06-.27l.16-.3a.03.02-75.1 0 0-.02-.04q-1.08-.02-1.76-.86a.35.35 0 0 1 .36-.56q.27.07.48-.12a.31.31 0 0 0-.05-.48q-.67-.43-1.48-.36-.34.03-.35.38v.32a.28.28 0 0 1-.19.25q-.76.26-1.34-.19-.67-.53.18-.54.62 0 .78-.06 1.75-.63-.09-1.15-.97-.27-1.43.74-.09.22-.33.25-.15.02-.23-.13-.13-.28-.13-.31v-3.69q0-.45-.35-.54-.55-.14-.83.35-.37.65-1.35.04a.85.85 0 0 1-.39-.8q.06-.67-.68-.97-.27-.11-.39-.37-.11-.26-.35-.42-.37-.26-.54-.67-.44-1.12.55-1.74a.29.29 0 0 0-.25-.52q-.25.09-.43-.03-.39-.23-.8-.05-.44.19-.42.67a.24.24 0 0 1-.35.22l-.28-.15q-.21-.11-.15-.35.28-1.06-.62-1.56-.45-.25-.17-.69c.19-.29.57-.47.72-.79q.28-.6-.16-1.02-.39-.36-.75.03-.77.83-1.99.72-.32-.03-.2-.32.05-.12.14-.24.07-.08-.01-.16l-1.54-1.52q-.64-.63.24-.81.26-.06.5-.22.64-.45-.09-.73-.98-.36-1.72-1.18-.3-.34-.33-.8c-.1-2-1.84-2.43-3.61-2.04q-.68.15-1.2-.35a.35.35 0 0 1 .18-.6l1.98-.34q.42-.07.17-.41-.12-.18-.4-.19-.91-.05-1.36-.81a.45.44-42.3 0 0-.74-.03l-.19.27q-.32.44-.74.09-1.37-1.18-1.96-2.86-.1-.29-.27-.39-.16-.09-.33-.1-.2-.01-.31-.17-.63-.83.2-1.31.59-.33-.01-.63-.56-.27-.8-.79a.37.37 0 0 0-.64-.06q-.43.63-1.22.49-.63-.12-.74-.75l-.1-.63q-.07-.41-.46-.53-.74-.22-.49-.93.18-.5-.2-.87-1.47-1.45-3.32-2.4-.35-.18-.62-.47-.46-.49-1.2-.64-.86-.18-.05-.52.35-.15.71-.28.51-.18.22-.63-.14-.22-.39-.32c-.72-.31-1.54.14-2.46-.3q-.67-.33-.01-.68l.25-.13q.53-.28.05-.64-.33-.25-.74-.29-.62-.06-.49-.67l.13-.54q.14-.66-.52-.8-.17-.04-.32-.25a.41.41 0 0 0-.74.16q-.16.87-.55 1.5l.04-55.93a2.49 2.48 16.9 0 0-1.11-2.07l-9.52-6.29a2.25 2.25 0 0 0-3.5 1.87l-.03 25.16q-.17 1.33-.07 2.72.04.46-.59.72-.46.18-.38-.31.13-.73.22-1.46.03-.27-.06-.41-.09-.13-.23-.18-.14-.06-.2.08-.19.44-.59.7-.41.29-.86.06-1.04-.51-1.21-1.7-.07-.49-.52-.67-1.21-.47-1.75-1.66-.25-.56-.87-.56-.66 0-.43-1.02a.16.15 42.6 0 0-.01-.12l-1.57-3.66q-.22-.52-.73-.77-1.1-.54-1.68-1.73-.11-.23-.33-.11-.14.07-.23.17-.26.27-.27.51l-.48 7.41q-.03-23.37-.1-46.72c-.01-2.01 1.97-3.3 3.74-2.12q14.5 9.62 28.97 19.28Z" fill="#e45900"/><path d="m2.72 101.72.32.89q.05.15.18.05.1-.08.2-.22.1-.13.25-.07.37.15.49.56.06.21-.05.68-.1.47 0 .95.11.54.66.52 1.19-.04 1.09 1.28-.04.6.53.78.95.3.58 1.23-.2.53.36.52l.5-.02q.16 0 .17-.17.03-.4.33-.47.2-.04.32.11l.88 1.09q.32.38.35.88.03.58.64.8.48.17.38.67-.12.59.24.92.21.2.72.86.6.78 1.83.2a.72.71-35 0 1 .83.14q1.08 1.1.47 2.38-.4.84.53.83l1.22-.01q.43 0 .63.38l.81 1.59q.2.39-.02.76-.37.61-.26 1.26.09.5-.31.81l-.33.26a.47.47 0 0 0 .16.81q.54.15 1.09.14.59-.02.59-.61v-.8a.6.6 0 0 1 .59-.6q.42-.01.8.15.49.21.4.74-.15.86.66 1.14a.54.54 0 0 1 .35.66q-.26.91.58 1.19a.69.69 0 0 1 .47.72l-.07.72a.67.67 0 0 0 .78.72q.68-.12 1.3.15.15.07.1.22-.04.15-.08.28-.05.15.11.18 1.07.21 1.81 1.06.66.76-.34.86-.17.01-.32.14a.39.39 0 0 0-.09.5q.41.71 1.32.58.4-.06.42.34.01.14 0 .29a.35.35 0 0 0 .31.36q.71.09.77-.61a.41.41 0 0 1 .54-.35q.46.15.95.1.17-.02.1.13-.06.13-.11.23-.05.12.01.23.9 1.72-.55 3.15a.6.59-53 0 0 .13.94q.63.34.92-.15.26-.46.76-.64.97-.36 1.23.62.13.45.59.37l.72-.11a.36.36 0 0 1 .4.48q-.12.31-.38.5-.52.36-.08.83l2.11 2.22q.5.53-.07.98-.11.08-.18.24-.24.52.32.64.69.14.75.9a.36.35-28.1 0 0 .63.19l.17-.2q.13-.16.07-.36-.15-.54-.6-.55a.32.31-88.2 0 1-.3-.33q0-.28.28-.39.12-.04.29 0 .92.26 1.6.96.38.39.41.92.06 1.11 1.06 1.23.39.05.28.43-.34 1.25.79 1.72a.17.17 0 0 1-.04.33q-.38.04-.62.32a.6.59 27.6 0 0 .31.98l1.29.3q.63.15 0 .3l-1.38.34a.34.34 0 0 0-.25.4l.07.31q.08.39.48.37l2.23-.12q.23-.01.34-.21.06-.12.12-.25.09-.18.17 0 .45.98-.33 1.58-.48.37-.06.81.14.15.32.22a.44.44 0 0 0 .56-.22q.3-.62.97-.58.86.06.8.2l-.15.34q-.1.24.16.22.64-.03 1.16.27.4.22.54.64.18.58.13 1.21-.03.46-.49.44-.71-.02-1.05.62-.26.49.24.73.53.26.75.83.31.76.76.08.57-.84 1.4-1.4.43-.3.51.22l.18 1.07q.08.54.63.48.48-.05.91.13a.45.44 20.5 0 1 .25.54q-.25.81.49 1.28.45.27.5.79l.25 2.3q.06.53.58.61 2.09.35 3.97 1.46.41.24.37.71-.07.71.55 1.08.43.25.08.6l-.23.23a.19.18-74.5 0 0 .17.31q1.79-.48 3.11.88.38.4.31.94-.08.62.6 1.08.42.29.42.8v2.47a.57.57 0 0 0 .82.51q.51-.24.33-.63-.2-.4.19-.63.29-.18.55.08.21.21.12.51-.36 1.21.74 1.74.51.25.3.78-.26.67.34 1.23a.57.56-38.7 0 0 .68.07q.33-.19.66.01.43.26.29.74-.18.61.22 1 .37.37.73 0 .57-.57.28-1.25a.26.26 0 0 1 .28-.36q.19.03.39.07a.17.16 19.1 0 1 .12.24q-.34.64.36.97.59.28.01.57l-.31.15q-.13.07-.1.21.09.42.58.54.44.11.42-.35-.01-.15 0-.29.03-.28.28-.13.66.4.71 1.14.03.42.37.66 1.23.85 2.09 2.1.31.44-.06.82l-.25.28q-.23.23-.03.49.38.5.97.4.56-.1.88.38l1.39 2.06q.1.15-.08.2l-.26.08q-.22.06-.07.24.23.27.55.39.46.16.51.65.07.89 1.8 1.09a.27.27 0 0 1 .02.54q-.38.06-.61.35-.38.47.17.72.32.15.67-.01.42-.19.81.06.11.07.21.15.39.32.18.78l-.22.49q-.15.35.21.5.31.12.68.04.31-.07.29-.39-.01-.29.34-.53a.31.31 0 0 1 .49.28q-.07.65-.5.72-.28.05-.31.33-.02.16.02.32.06.26.32.31l1.79.35a.62.61-89.4 0 1 .49.51l.19 1.24q.09.59.52 1.02l2.08 2.13q.22.22.35.5.37.76 1.28.52.49-.12.72.32 1.1 2.11 3.31 2.8a.32.32 0 0 1 .13.53l-.26.26q-.18.19.03.34.46.32.67.85.2.5-.31.65-.2.07-.31.23-.34.48-.07.67.12.08.29.09.12 0 .27-.08.78-.44 1.68-.51.46-.04.66.38.21.41.75.44.7.03.66.73-.01.23.15.42.22.26-.02.49l-.27.26q-.33.31-.09.7.87 1.41 2.36 1.51.47.03.48.5l.02 1.01a.43.42-5.5 0 0 .49.4l.74-.11a.13.13 0 0 0 .04-.24q-.31-.17.07-.55.41-.4.53.16.12.6.74.72a.39.39 0 0 1-.11.77q-.7-.06-1.37.13a.38.37-19.6 0 0-.25.51q.3.69 1.08.6.56-.07.85.41.44.71 1.44.51 1.4-.27 1.47 1.07.03.58-.47.89-.69.43-.16 1.56.19.41.53.7 1.01.89 2.48.86.57-.01.84.5.19.37.62.47.58.14.36.69-.18.47.07.91a.86.85 68.2 0 0 .94.41l.8-.18q.69-.17.52.53-.61 2.43 2.05 2.69.65.06.29.6-.47.7-1.07 1.11-.33.23-.39.42-.04.15.01.28.12.29.44.3.4.02.49-.28.15-.47.56-.2.39.24.21.74-.17.49.28.76.25.14.54.19a.45.44-71.8 0 1 .32.64q-.36.71.24 1.15a.47.47 0 0 0 .75-.35q.02-.33.38-.34a.43.43 0 0 1 .41.27q.38.95 1.54.66a.41.41 0 0 1 .5.45q-.16 1.25.82 1.5.92.24 1.11.43.57.6.27 1.56a.81.78 43.9 0 0 .02.52q.32.79.73.68.22-.06.44.01 1.58.51 1.7 1.81.05.57.46.97l3.43 3.33q.29.28.11.64-.09.19-.26.36-.09.08.11.4.12.2.42.1a.69.68 54.7 0 1 .61.11q1.3 1.02 1.08 1.74-.15.48-.64.37-.53-.12-.82.18-.47.47.19.48 1.83.04 3.02 1.2 1.89 1.84 1.96 1.9 1.94 1.36 3.97 2.61l-6.67.55h-11.08q-42.01-2.59-73.21-27.58Q3.89 192.62 0 133.63v-10.62q.62-10.77 2.72-21.29Z" fill="#ce4b00"/><path d="M123.83 189.3q-4.23 3.33-8.98 6.19c-1.16.69-2.13 1.61-3.57 1.2a2.15 2.14 8.1 0 1-1.55-2.06l-.02-42.59.03-25.16a2.25 2.25 0 0 1 3.5-1.87l9.52 6.29a2.49 2.48 16.9 0 1 1.11 2.07l-.04 55.93ZM188.8 146.24 153 170.1l-12.97 8.66a2.11 2.11 0 0 1-3.28-1.76v-11.74a1.79 1.79 0 0 1 .81-1.5l30.5-20.32 24.59-16.29a2.06 2.05-42.7 0 1 2.39.09q1.07.83 1.13 2.5c.22 6.73-.84 12.54-7.37 16.5Z" fill="#fdfdfd"/><path d="M188.8 146.24q2.02.5 2.39 1.4.22.53.61.12.17-.19.16-.47-.04-.69.52-.3.4.29.34.79a.66.64 13.2 0 0 .45.71q1.51.48 2.41 1.76a.49.48-40.5 0 1-.06.61l-.37.38a.38.37-66.6 0 0 .25.64l.97.03a.72.72 0 0 1 .64.46q.19.52-.03 1.15a.23.22-83.1 0 0 .23.3q1.12-.08 2.01.66.31.26.7.37 1.08.33 1.58 1.41.18.38-.12.68l-.28.28a.42.41-70.2 0 0 .33.71q2.26-.24 1.39 1.9a.39.39 0 0 0 .25.52q1.17.36 1.99 1.33a.75.74 63.1 0 0 .75.25q.43-.1.73.22.35.38-.03.73l-.4.35a.39.39 0 0 0 .19.67q.6.12.7.7.19 1.1.83.17.37-.53.09-1.02a.34.34 0 0 1 .44-.48q.62.3.48 1.02-.1.56.35.93.33.28.15.67-.39.9-1.15 1.34-1.17.68.16.94l4.4.84a.32.32 0 0 1 .26.34l-.03.4q-.04.47.41.65l2.04.82q.6.24.61.88.02.84-.89 1.17a.33.33 0 0 0 .11.64l.96.02q.46.01.67.42.19.38.13.85-.09.66.58.68.44.01.82.29.49.35.04.75-.63.56-.41 1.43.12.47.59.58.97.22 1.23-.67a.48.48 0 0 1 .81-.19q.44.46.3 1.15-.1.5.38.65 1.22.38 2.14 1.33.32.33-.01.66l-.35.35q-.38.38.11.61.97.47.71 1.51-.12.49.39.55l1.76.22q.64.07.26.59-.99 1.34-.13 2.92.07.12.21.11.13-.01.27-.03.12-.01.09-.13-.18-.87.35-1.56a.41.41 0 0 1 .74.28q-.05.78.65.85.37.04.3.41l-.09.4q-.07.33.18.57l2.21 2.08q.38.35.89.27.82-.14 1.23.62a.29.29 0 0 1-.36.41q-.61-.26-.78.35-.14.51.38.61.2.04.37.15a.37.36-68.8 0 1 .16.38q-.14.62-.66.73v.01q.17.03.27.15.22.25-.02.49-.1.1-.26.13 1.77-.86 3.7-.98.44-.02.55-.44.41-1.51 1.73-1.76-12.29 20.84-31.22 35.81-.23-.45-.07-.9.25-.73.24-.82-.03-.61-.77-.81a.61.6 6.8 0 1-.44-.55q-.06-1.52-1.75-1.53a2.46 2.44 82.7 0 1-2.35-1.83q-.4-1.56-1.87-2.32-.44-.23-.07-.56.21-.19.51-.32a.37.37 0 0 0 .08-.64q-.2-.14-.45-.13-.45.04-.82-.24-1.24-.92-1.65-2.32-.13-.45-.58-.58l-1.32-.35q-.54-.14-.53-.7.01-.84-.41-1.53a.53.53 0 0 0-.91.02q-.19.32-.53.47a.32.31-5.3 0 1-.44-.36q.15-.62-.08-1.15-.21-.5-.73-.32-.28.09-.36.35a.42.42 0 0 1-.81-.13v-3.45q0-.41-.34-.65-.47-.35-1.05-.3-.49.04-.75-.37-.44-.69-1.25-.62-.59.05-.49-.54.06-.36.54-.44.28-.05.48.17.3.32.63.04.43-.37.11-.86-.28-.42-.74-.24-.82.32-1.59.04-.55-.2-.55-.79v-.76q0-.62-.62-.62h-.98q-.54 0-.43-.53.35-1.77-1.36-2.5-.46-.2-.78-.58-1.01-1.22-2.4-2.01-.4-.22-.44-.68-.06-.48-.54-.65-.71-.26-.12-.74.17-.13.34-.25.39-.27.12-.67-1.39-2.02-4.06-1.28-.37.1-.6-.21-.08-.12-.17-.2a.16.15-43.8 0 1 .01-.24q.98-.73.55-1.93-.18-.52-.52-.09-.2.26-.43.42-.44.32-.58-.21-.1-.4-.52-.68-.36-.24-.42-.66c-.29-1.92-3.14-3.46-4.43-1.61a.37.37 0 0 1-.65-.09l-.09-.26q-.03-.09-.13-.1-.49-.05-.77.25-.44.45-.94.08l-2.02-1.52a.85.85 0 0 1-.31-.89l.34-1.29q.17-.68-.41-.29-.21.14-.44.16-.2.02-.2-.18v-.97q0-.7-.69-.6-.57.08-1.12-.08-.47-.13-.66-.58-.28-.64-.77-1.06-.38-.33-.6-.79-.48-.97.32-1.47.56-.35.05-.76-.53-.42-.87-1.01-.33-.56-.66 0l-.43.7a.31.31 0 0 1-.57-.16v-2.17q0-.62-.62-.62h-.99a.47.47 0 0 1-.44-.64q.4-1.05-.66-1.51a.05.05 0 0 1 .01-.1l.32-.12a.14.14 0 0 0 .03-.25q-.26-.16-.77-.16l35.8-23.86Zm5.84 28.304a6.9 6.64.2 0 0-6.877-6.664 6.9 6.64.2 0 0-6.923 6.616 6.9 6.64.2 0 0 6.877 6.664 6.9 6.64.2 0 0 6.923-6.616Z" fill="#ef6000"/><path d="M194.64 174.544a6.9 6.64.2 0 1-6.923 6.616 6.9 6.64.2 0 1-6.877-6.664 6.9 6.64.2 0 1 6.923-6.616 6.9 6.64.2 0 1 6.877 6.664Zm-1.5-.014a5.4 5.4 0 0 0-5.4-5.4 5.4 5.4 0 0 0-5.4 5.4 5.4 5.4 0 0 0 5.4 5.4 5.4 5.4 0 0 0 5.4-5.4Z" fill="#fdfdfd"/><path d="M193.14 174.53a5.4 5.4 0 0 1-5.4 5.4 5.4 5.4 0 0 1-5.4-5.4 5.4 5.4 0 0 1 5.4-5.4 5.4 5.4 0 0 1 5.4 5.4Zm-3.29.67q.99-.93.58-2.26-.45-1.47-1.99-1.53l-2.37-.1a.68.68 0 0 0-.71.67q-.04 2.63.03 4.77.01.54.41.73.6.29.83-.34l.32-.89a.59.59 0 0 1 1.1-.02q.43 1.06 1.52 1.21.62.08.53-.54-.07-.47-.34-.85a.65.64 51.4 0 1 .09-.85Z" fill="#ef6000"/><path d="M189.76 176.05q.27.38.34.85.09.62-.53.54-1.09-.15-1.52-1.21a.59.59 0 0 0-1.1.02l-.32.89q-.23.63-.83.34-.4-.19-.41-.73-.07-2.14-.03-4.77a.68.68 0 0 1 .71-.67l2.37.1q1.54.06 1.99 1.53.41 1.33-.58 2.26a.65.64 51.4 0 0-.09.85Zm-1.134-1.82a1.07.95 39.5 0 0-.222-1.413 1.07.95 39.5 0 0-1.43.052 1.07.95 39.5 0 0 .222 1.414 1.07.95 39.5 0 0 1.43-.052Z" fill="#fdfdfd"/><ellipse ry=".95" rx="1.07" transform="rotate(39.5 -147.788 348.308)" fill="#ef6000"/></svg>