<svg viewBox="0.00 0.00 512.00 512.00" version="1.1" xmlns="http://www.w3.org/2000/svg">
<g stroke-linecap="butt" fill="none" stroke-width="2.00">
<path d="M 4.38 0.00
  C 1.78 0.62 0.36 0.16 0.00 3.50" stroke="#192054"></path>
<path d="M 509.75 0.00
  Q 511.19 0.83 512.00 2.38" stroke="#192054"></path>
<path d="M 512.00 444.99
  Q 500.94 412.58 473.26 396.01
  C 460.01 388.08 445.10 384.05 429.70 384.00
  A 0.68 0.68 0.0 0 1 429.02 383.32
  Q 429.00 369.84 429.01 356.39
  Q 429.01 343.77 427.55 338.24
  C 424.34 326.11 415.45 315.82 403.78 311.10
  C 396.01 307.95 388.98 307.92 380.75 308.00
  Q 380.23 308.01 380.22 307.49
  Q 380.03 293.67 379.97 279.83
  Q 379.93 271.38 378.79 267.46
  C 375.65 256.71 366.41 248.66 355.46 246.56
  C 351.29 245.77 346.12 245.95 341.53 246.01
  A 0.53 0.53 0.0 0 1 340.99 245.48
  Q 341.01 235.94 340.99 226.38
  Q 340.98 218.12 340.13 214.68
  C 337.68 204.72 329.43 196.57 319.85 193.53
  Q 315.08 192.02 303.99 192.02
  Q 252.12 191.99 200.25 192.20
  C 186.87 192.26 174.61 200.45 170.52 213.15
  Q 169.00 217.86 169.00 229.00
  Q 169.00 236.91 169.05 245.04
  A 0.99 0.98 -88.9 0 1 168.03 246.03
  C 163.05 245.81 157.80 245.98 153.13 247.61
  Q 137.64 253.04 133.22 268.41
  Q 131.95 272.81 131.98 280.72
  Q 132.04 294.01 131.98 307.09
  A 0.90 0.90 0.0 0 1 131.08 307.98
  C 122.28 307.93 114.79 307.99 106.44 311.22
  C 92.46 316.62 82.02 328.91 78.43 343.37
  Q 77.00 349.12 77.01 360.74
  Q 77.01 372.22 77.02 383.69
  A 0.97 0.97 0.0 0 1 76.18 384.65
  C 45.14 388.50 19.24 407.69 5.56 435.53
  Q 3.64 439.42 0.00 449.63" stroke="#192054"></path>
<path d="M 175.87 243.01
  L 334.19 243.01
  A 0.96 0.96 0.0 0 0 335.15 242.05
  L 335.15 223.06
  A 25.74 25.15 -0.0 0 0 309.41 197.91
  L 200.65 197.91
  A 25.74 25.15 0.0 0 0 174.91 223.06
  L 174.91 242.05
  A 0.96 0.96 0.0 0 0 175.87 243.01" stroke="#136f69"></path>
<path d="M 314.88 307.87
  L 320.30 307.95" stroke="#0e605b"></path>
<path d="M 320.30 307.95
  L 373.48 307.99
  Q 374.09 307.99 374.09 307.38
  Q 373.98 291.62 373.82 275.75
  C 373.71 264.98 366.81 255.87 356.58 252.98
  Q 353.14 252.00 344.31 252.00
  Q 255.34 251.99 166.37 252.00
  Q 159.45 252.00 156.21 252.90
  C 145.40 255.89 138.23 265.19 138.11 276.50
  Q 137.94 291.99 137.96 307.15
  A 0.81 0.81 0.0 0 0 138.77 307.96
  L 314.88 307.87" stroke="#136f69"></path>
<path d="M 320.30 307.95
  Q 319.93 307.75 319.92 307.69
  A 0.42 0.42 0.0 0 1 320.32 307.18
  Q 335.62 306.93 332.89 307.44
  A 0.03 0.02 36.5 0 0 332.90 307.49
  Q 352.89 306.88 372.89 307.28
  A 0.47 0.47 0.0 0 0 373.37 306.80
  L 373.04 291.26
  A 1.28 1.28 0.0 0 0 371.76 290.01
  L 140.02 290.01
  A 1.09 1.09 0.0 0 0 138.93 291.10
  L 138.88 306.31
  A 0.79 0.79 0.0 0 0 139.66 307.10
  C 190.10 307.41 240.55 307.11 290.99 307.20
  Q 291.07 307.20 299.99 307.00
  Q 307.50 306.84 314.88 307.87" stroke="#20a892"></path>
<path d="M 106.04 352.05
  L 106.02 383.53
  A 0.50 0.50 0.0 0 0 106.52 384.03
  L 121.72 384.06
  A 0.27 0.27 0.0 0 0 121.99 383.79
  L 121.98 352.11" stroke="#0e605b"></path>
<path d="M 121.98 352.11
  L 121.99 314.61
  A 0.51 0.51 0.0 0 0 121.46 314.10
  Q 113.67 314.41 106.59 317.63
  Q 106.01 317.89 106.01 318.52
  L 106.04 352.05" stroke="#136f69"></path>
<path d="M 121.98 352.11
  L 106.04 352.05" stroke="#20a892"></path>
<path d="M 128.02 352.12
  L 128.04 383.30
  A 0.70 0.70 0.0 0 0 128.74 384.00
  L 148.49 384.01
  Q 149.02 384.01 149.03 383.48
  L 149.45 352.05" stroke="#0e605b"></path>
<path d="M 149.45 352.05
  L 149.95 314.70
  A 0.70 0.70 0.0 0 0 149.25 313.99
  L 128.50 313.99
  A 0.47 0.47 0.0 0 0 128.03 314.46
  L 128.02 352.12" stroke="#136f69"></path>
<path d="M 149.45 352.05
  L 128.02 352.12" stroke="#20a892"></path>
<path d="M 155.48 352.08
  L 155.10 383.35
  A 0.67 0.66 0.4 0 0 155.77 384.02
  L 174.47 384.02
  Q 174.98 384.02 174.98 383.51
  L 174.98 352.11" stroke="#0e605b"></path>
<path d="M 174.98 352.11
  L 174.98 314.76
  A 0.77 0.76 90.0 0 0 174.22 313.99
  L 156.51 313.99
  Q 155.97 313.99 155.96 314.53
  L 155.48 352.08" stroke="#136f69"></path>
<path d="M 174.98 352.11
  L 155.48 352.08" stroke="#20a892"></path>
<path d="M 181.04 352.17
  L 181.03 383.31
  A 0.69 0.69 0.0 0 0 181.72 384.00
  L 199.52 384.03
  A 0.47 0.47 0.0 0 0 199.99 383.56
  L 199.98 352.12" stroke="#0e605b"></path>
<path d="M 199.98 352.12
  L 199.99 314.59
  A 0.58 0.57 90.0 0 0 199.42 314.01
  L 181.54 313.97
  Q 181.01 313.97 181.01 314.50
  L 181.04 352.17" stroke="#136f69"></path>
<path d="M 199.98 352.12
  L 181.04 352.17" stroke="#20a892"></path>
<path d="M 206.03 351.99
  L 206.01 383.53
  A 0.48 0.48 0.0 0 0 206.49 384.01
  L 225.51 384.03
  A 0.48 0.48 0.0 0 0 225.99 383.55
  L 225.98 352.08" stroke="#0e605b"></path>
<path d="M 225.98 352.08
  L 225.99 314.54
  A 0.53 0.53 0.0 0 0 225.46 314.01
  L 206.53 313.98
  Q 206.01 313.98 206.01 314.49
  L 206.03 351.99" stroke="#136f69"></path>
<path d="M 225.98 352.08
  L 206.03 351.99" stroke="#20a892"></path>
<path d="M 232.03 352.15
  L 232.04 383.29
  A 0.72 0.72 0.0 0 0 232.76 384.01
  L 250.73 384.02
  A 0.26 0.26 0.0 0 0 250.99 383.76
  L 250.98 352.13" stroke="#0e605b"></path>
<path d="M 250.98 352.13
  L 250.98 314.74
  A 0.75 0.74 -0.0 0 0 250.23 314.00
  L 232.52 313.99
  Q 232.02 313.99 232.02 314.49
  L 232.03 352.15" stroke="#136f69"></path>
<path d="M 250.98 352.13
  L 232.03 352.15" stroke="#20a892"></path>
<path d="M 257.03 352.10
  L 257.04 383.29
  A 0.71 0.71 0.0 0 0 257.75 384.00
  L 276.48 384.02
  Q 276.97 384.02 276.97 383.53
  L 276.98 352.10" stroke="#0e605b"></path>
<path d="M 276.98 352.10
  L 276.99 314.97
  Q 276.99 314.00 276.01 314.00
  L 257.49 313.98
  A 0.48 0.48 0.0 0 0 257.01 314.46
  L 257.03 352.10" stroke="#136f69"></path>
<path d="M 276.98 352.10
  L 257.03 352.10" stroke="#20a892"></path>
<path d="M 283.05 351.97
  L 283.03 383.29
  A 0.73 0.72 -90.0 0 0 283.75 384.02
  L 302.47 384.03
  Q 302.98 384.03 302.98 383.52
  L 302.98 352.11" stroke="#0e605b"></path>
<path d="M 302.98 352.11
  L 302.98 314.73
  A 0.74 0.74 0.0 0 0 302.24 313.99
  L 283.49 313.98
  A 0.47 0.47 0.0 0 0 283.02 314.45
  L 283.05 351.97" stroke="#136f69"></path>
<path d="M 302.98 352.11
  L 283.05 351.97" stroke="#20a892"></path>
<path d="M 309.03 352.20
  L 309.03 383.53
  A 0.49 0.49 0.0 0 0 309.52 384.02
  L 325.73 384.05
  A 0.26 0.26 0.0 0 0 325.99 383.79
  L 325.98 352.12" stroke="#0e605b"></path>
<path d="M 325.98 352.12
  L 325.99 314.54
  A 0.53 0.53 0.0 0 0 325.46 314.01
  L 309.53 313.97
  Q 309.00 313.97 309.00 314.50
  L 309.03 352.20" stroke="#136f69"></path>
<path d="M 325.98 352.12
  L 309.03 352.20" stroke="#20a892"></path>
<path d="M 332.03 352.11
  L 332.03 383.30
  A 0.72 0.72 0.0 0 0 332.75 384.02
  L 350.47 384.03
  Q 350.91 384.03 350.90 383.59
  L 350.49 350.28" stroke="#0e605b"></path>
<path d="M 350.49 350.28
  L 350.04 314.59
  A 0.58 0.58 0.0 0 0 349.46 314.01
  L 332.54 313.98
  Q 332.02 313.98 332.02 314.50
  L 332.03 352.11" stroke="#136f69"></path>
<path d="M 350.49 350.28
  Q 350.46 351.91 349.50 351.92
  Q 340.83 352.00 332.03 352.11" stroke="#20a892"></path>
<path d="M 356.54 352.13
  L 356.94 383.41
  Q 356.94 384.00 357.53 384.00
  L 377.51 384.03
  A 0.48 0.47 0.0 0 0 377.99 383.56
  L 377.98 352.12" stroke="#0e605b"></path>
<path d="M 377.98 352.12
  L 377.97 314.71
  A 0.71 0.71 0.0 0 0 377.26 314.00
  L 356.54 313.99
  Q 356.06 313.99 356.06 314.47
  L 356.54 352.13" stroke="#136f69"></path>
<path d="M 377.98 352.12
  L 356.54 352.13" stroke="#20a892"></path>
<path d="M 384.02 352.18
  L 384.04 383.29
  A 0.72 0.72 0.0 0 0 384.76 384.01
  L 402.73 384.02
  A 0.27 0.26 0.0 0 0 403.00 383.76
  L 402.98 352.24" stroke="#0e605b"></path>
<path d="M 402.98 352.24
  L 402.99 317.93
  A 1.10 1.09 11.3 0 0 402.31 316.92
  Q 393.67 313.32 384.28 314.08
  A 0.29 0.28 -2.2 0 0 384.01 314.36
  L 384.02 352.18" stroke="#136f69"></path>
<path d="M 402.98 352.24
  L 384.02 352.18" stroke="#20a892"></path>
<path d="M 409.03 352.28
  L 409.06 383.46" stroke="#0e605b"></path>
<path d="M 409.06 383.46
  Q 409.26 383.62 409.39 383.80
  Q 409.53 383.98 409.77 383.98
  L 422.48 384.00
  A 0.48 0.47 -0.0 0 0 422.96 383.53
  Q 423.12 366.79 423.13 350.25
  Q 423.15 332.25 409.42 321.21
  A 0.25 0.24 -70.3 0 0 409.02 321.40
  L 409.03 352.28" stroke="#136f69"></path>
<path d="M 409.06 383.46
  L 421.24 383.38
  A 1.13 1.13 0.0 0 0 422.36 382.24
  L 422.09 353.49
  Q 422.08 352.00 420.59 352.03
  L 409.03 352.28" stroke="#20a892"></path>
<path d="M 83.05 354.92
  L 83.01 383.30
  Q 83.01 384.06 83.77 384.06
  L 99.48 384.02
  Q 99.98 384.02 99.98 383.52
  L 99.98 352.12" stroke="#0e605b"></path>
<path d="M 99.98 352.12
  L 99.98 322.08
  A 0.27 0.27 0.0 0 0 99.55 321.86
  Q 83.29 334.37 83.05 354.92" stroke="#136f69"></path>
<path d="M 99.98 352.12
  L 85.35 352.04
  A 1.45 1.45 0.0 0 0 83.89 353.48
  L 83.84 356.96
  A 0.28 0.28 0.0 0 1 83.30 357.06
  Q 82.96 356.25 83.05 354.92" stroke="#20a892"></path>
<path d="M 3.03 494.53
  L 2.95 508.02
  A 2.01 2.00 -90.0 0 0 4.96 510.04
  Q 250.63 509.71 496.50 509.44
  Q 501.72 509.43 506.94 509.48
  Q 507.90 509.49 508.47 509.11
  Q 509.64 508.33 508.83 507.29" stroke="#0e605b"></path>
<path d="M 508.83 507.29
  Q 509.13 488.97 509.00 471.25
  Q 508.83 447.03 497.50 428.17
  C 485.49 408.18 465.15 394.79 442.20 391.06
  Q 435.62 389.99 422.25 389.99
  Q 261.25 390.00 100.24 390.00
  Q 83.71 390.00 80.27 390.28
  C 39.20 393.65 4.44 427.80 3.07 470.00
  Q 2.87 476.24 3.03 494.53" stroke="#136f69"></path>
<path d="M 508.83 507.29
  Q 507.22 501.78 508.05 495.89
  A 1.15 1.15 0.0 0 0 506.91 494.58
  L 4.74 492.00
  A 0.83 0.83 0.0 0 0 3.91 492.75
  L 3.74 494.57
  Q 3.70 494.98 3.33 494.80
  Q 3.18 494.73 3.03 494.53" stroke="#20a892"></path>
<path d="M 242.8185 451.5401
  A 26.67 26.67 0.0 0 0 216.1020 424.9167
  L 74.8022 425.1633
  A 26.67 26.67 0.0 0 0 48.1788 451.8799
  L 48.1815 453.4599
  A 26.67 26.67 0.0 0 0 74.8980 480.0833
  L 216.1978 479.8367
  A 26.67 26.67 0.0 0 0 242.8212 453.1201
  L 242.8185 451.5401" stroke="#136f69"></path>
<path d="M 479.8311 451.9438
  A 26.75 26.75 0.0 0 0 453.1279 425.1472
  L 295.9681 424.8729
  A 26.75 26.75 0.0 0 0 269.1715 451.5762
  L 269.1689 453.0562
  A 26.75 26.75 0.0 0 0 295.8721 479.8528
  L 453.0319 480.1271
  A 26.75 26.75 0.0 0 0 479.8285 453.4238
  L 479.8311 451.9438" stroke="#136f69"></path>
<path d="M 67.60 432.49
  C 49.56 439.36 49.55 465.75 67.68 472.58
  Q 71.40 473.99 79.01 473.99
  Q 137.77 474.01 196.54 474.00
  Q 197.59 474.00 196.76 473.35
  C 182.64 462.47 184.12 440.62 199.58 431.76
  Q 200.90 431.00 199.37 431.00
  Q 140.04 431.01 80.59 431.00
  Q 71.51 431.00 67.60 432.49" stroke="#0e605b"></path>
<path d="M 233.0095 453.6397
  A 20.01 19.51 0.4 0 0 213.1362 433.9905
  A 20.01 19.51 0.4 0 0 192.9905 453.3603
  A 20.01 19.51 0.4 0 0 212.8638 473.0095
  A 20.01 19.51 0.4 0 0 233.0095 453.6397" stroke="#136f69"></path>
<path d="M 438.77 431.06
  Q 368.50 430.89 299.06 431.04
  Q 292.36 431.05 289.10 432.22
  C 269.93 439.06 270.58 467.57 290.24 473.16
  Q 293.23 474.00 301.33 474.00
  Q 369.79 474.00 437.98 474.00
  Q 439.96 474.00 438.26 472.99
  C 422.47 463.54 423.87 441.16 438.91 431.54
  Q 439.65 431.06 438.77 431.06" stroke="#0e605b"></path>
<path d="M 470.00 452.50
  A 18.50 18.50 0.0 0 0 451.50 434.00
  A 18.50 18.50 0.0 0 0 433.00 452.50
  A 18.50 18.50 0.0 0 0 451.50 471.00
  A 18.50 18.50 0.0 0 0 470.00 452.50" stroke="#136f69"></path>
</g>
<path d="M 0.00 0.00
  L 4.38 0.00
  C 1.78 0.62 0.36 0.16 0.00 3.50
  L 0.00 0.00
  Z" fill="#012731"></path>
<path d="M 4.38 0.00
  L 509.75 0.00
  Q 511.19 0.83 512.00 2.38
  L 512.00 444.99
  Q 500.94 412.58 473.26 396.01
  C 460.01 388.08 445.10 384.05 429.70 384.00
  A 0.68 0.68 0.0 0 1 429.02 383.32
  Q 429.00 369.84 429.01 356.39
  Q 429.01 343.77 427.55 338.24
  C 424.34 326.11 415.45 315.82 403.78 311.10
  C 396.01 307.95 388.98 307.92 380.75 308.00
  Q 380.23 308.01 380.22 307.49
  Q 380.03 293.67 379.97 279.83
  Q 379.93 271.38 378.79 267.46
  C 375.65 256.71 366.41 248.66 355.46 246.56
  C 351.29 245.77 346.12 245.95 341.53 246.01
  A 0.53 0.53 0.0 0 1 340.99 245.48
  Q 341.01 235.94 340.99 226.38
  Q 340.98 218.12 340.13 214.68
  C 337.68 204.72 329.43 196.57 319.85 193.53
  Q 315.08 192.02 303.99 192.02
  Q 252.12 191.99 200.25 192.20
  C 186.87 192.26 174.61 200.45 170.52 213.15
  Q 169.00 217.86 169.00 229.00
  Q 169.00 236.91 169.05 245.04
  A 0.99 0.98 -88.9 0 1 168.03 246.03
  C 163.05 245.81 157.80 245.98 153.13 247.61
  Q 137.64 253.04 133.22 268.41
  Q 131.95 272.81 131.98 280.72
  Q 132.04 294.01 131.98 307.09
  A 0.90 0.90 0.0 0 1 131.08 307.98
  C 122.28 307.93 114.79 307.99 106.44 311.22
  C 92.46 316.62 82.02 328.91 78.43 343.37
  Q 77.00 349.12 77.01 360.74
  Q 77.01 372.22 77.02 383.69
  A 0.97 0.97 0.0 0 1 76.18 384.65
  C 45.14 388.50 19.24 407.69 5.56 435.53
  Q 3.64 439.42 0.00 449.63
  L 0.00 3.50
  C 0.36 0.16 1.78 0.62 4.38 0.00
  Z" fill="#311976"></path>
<path d="M 509.75 0.00
  L 512.00 0.00
  L 512.00 2.38
  Q 511.19 0.83 509.75 0.00
  Z" fill="#012731"></path>
<path d="M 512.00 444.99
  L 512.00 512.00
  L 0.00 512.00
  L 0.00 449.63
  Q 3.64 439.42 5.56 435.53
  C 19.24 407.69 45.14 388.50 76.18 384.65
  A 0.97 0.97 0.0 0 0 77.02 383.69
  Q 77.01 372.22 77.01 360.74
  Q 77.00 349.12 78.43 343.37
  C 82.02 328.91 92.46 316.62 106.44 311.22
  C 114.79 307.99 122.28 307.93 131.08 307.98
  A 0.90 0.90 0.0 0 0 131.98 307.09
  Q 132.04 294.01 131.98 280.72
  Q 131.95 272.81 133.22 268.41
  Q 137.64 253.04 153.13 247.61
  C 157.80 245.98 163.05 245.81 168.03 246.03
  A 0.99 0.98 -88.9 0 0 169.05 245.04
  Q 169.00 236.91 169.00 229.00
  Q 169.00 217.86 170.52 213.15
  C 174.61 200.45 186.87 192.26 200.25 192.20
  Q 252.12 191.99 303.99 192.02
  Q 315.08 192.02 319.85 193.53
  C 329.43 196.57 337.68 204.72 340.13 214.68
  Q 340.98 218.12 340.99 226.38
  Q 341.01 235.94 340.99 245.48
  A 0.53 0.53 0.0 0 0 341.53 246.01
  C 346.12 245.95 351.29 245.77 355.46 246.56
  C 366.41 248.66 375.65 256.71 378.79 267.46
  Q 379.93 271.38 379.97 279.83
  Q 380.03 293.67 380.22 307.49
  Q 380.23 308.01 380.75 308.00
  C 388.98 307.92 396.01 307.95 403.78 311.10
  C 415.45 315.82 424.34 326.11 427.55 338.24
  Q 429.01 343.77 429.01 356.39
  Q 429.00 369.84 429.02 383.32
  A 0.68 0.68 0.0 0 0 429.70 384.00
  C 445.10 384.05 460.01 388.08 473.26 396.01
  Q 500.94 412.58 512.00 444.99
  Z
  M 175.87 243.01
  L 334.19 243.01
  A 0.96 0.96 0.0 0 0 335.15 242.05
  L 335.15 223.06
  A 25.74 25.15 -0.0 0 0 309.41 197.91
  L 200.65 197.91
  A 25.74 25.15 0.0 0 0 174.91 223.06
  L 174.91 242.05
  A 0.96 0.96 0.0 0 0 175.87 243.01
  Z
  M 314.88 307.87
  L 320.30 307.95
  L 373.48 307.99
  Q 374.09 307.99 374.09 307.38
  Q 373.98 291.62 373.82 275.75
  C 373.71 264.98 366.81 255.87 356.58 252.98
  Q 353.14 252.00 344.31 252.00
  Q 255.34 251.99 166.37 252.00
  Q 159.45 252.00 156.21 252.90
  C 145.40 255.89 138.23 265.19 138.11 276.50
  Q 137.94 291.99 137.96 307.15
  A 0.81 0.81 0.0 0 0 138.77 307.96
  L 314.88 307.87
  Z
  M 106.04 352.05
  L 106.02 383.53
  A 0.50 0.50 0.0 0 0 106.52 384.03
  L 121.72 384.06
  A 0.27 0.27 0.0 0 0 121.99 383.79
  L 121.98 352.11
  L 121.99 314.61
  A 0.51 0.51 0.0 0 0 121.46 314.10
  Q 113.67 314.41 106.59 317.63
  Q 106.01 317.89 106.01 318.52
  L 106.04 352.05
  Z
  M 128.02 352.12
  L 128.04 383.30
  A 0.70 0.70 0.0 0 0 128.74 384.00
  L 148.49 384.01
  Q 149.02 384.01 149.03 383.48
  L 149.45 352.05
  L 149.95 314.70
  A 0.70 0.70 0.0 0 0 149.25 313.99
  L 128.50 313.99
  A 0.47 0.47 0.0 0 0 128.03 314.46
  L 128.02 352.12
  Z
  M 155.48 352.08
  L 155.10 383.35
  A 0.67 0.66 0.4 0 0 155.77 384.02
  L 174.47 384.02
  Q 174.98 384.02 174.98 383.51
  L 174.98 352.11
  L 174.98 314.76
  A 0.77 0.76 90.0 0 0 174.22 313.99
  L 156.51 313.99
  Q 155.97 313.99 155.96 314.53
  L 155.48 352.08
  Z
  M 181.04 352.17
  L 181.03 383.31
  A 0.69 0.69 0.0 0 0 181.72 384.00
  L 199.52 384.03
  A 0.47 0.47 0.0 0 0 199.99 383.56
  L 199.98 352.12
  L 199.99 314.59
  A 0.58 0.57 90.0 0 0 199.42 314.01
  L 181.54 313.97
  Q 181.01 313.97 181.01 314.50
  L 181.04 352.17
  Z
  M 206.03 351.99
  L 206.01 383.53
  A 0.48 0.48 0.0 0 0 206.49 384.01
  L 225.51 384.03
  A 0.48 0.48 0.0 0 0 225.99 383.55
  L 225.98 352.08
  L 225.99 314.54
  A 0.53 0.53 0.0 0 0 225.46 314.01
  L 206.53 313.98
  Q 206.01 313.98 206.01 314.49
  L 206.03 351.99
  Z
  M 232.03 352.15
  L 232.04 383.29
  A 0.72 0.72 0.0 0 0 232.76 384.01
  L 250.73 384.02
  A 0.26 0.26 0.0 0 0 250.99 383.76
  L 250.98 352.13
  L 250.98 314.74
  A 0.75 0.74 -0.0 0 0 250.23 314.00
  L 232.52 313.99
  Q 232.02 313.99 232.02 314.49
  L 232.03 352.15
  Z
  M 257.03 352.10
  L 257.04 383.29
  A 0.71 0.71 0.0 0 0 257.75 384.00
  L 276.48 384.02
  Q 276.97 384.02 276.97 383.53
  L 276.98 352.10
  L 276.99 314.97
  Q 276.99 314.00 276.01 314.00
  L 257.49 313.98
  A 0.48 0.48 0.0 0 0 257.01 314.46
  L 257.03 352.10
  Z
  M 283.05 351.97
  L 283.03 383.29
  A 0.73 0.72 -90.0 0 0 283.75 384.02
  L 302.47 384.03
  Q 302.98 384.03 302.98 383.52
  L 302.98 352.11
  L 302.98 314.73
  A 0.74 0.74 0.0 0 0 302.24 313.99
  L 283.49 313.98
  A 0.47 0.47 0.0 0 0 283.02 314.45
  L 283.05 351.97
  Z
  M 309.03 352.20
  L 309.03 383.53
  A 0.49 0.49 0.0 0 0 309.52 384.02
  L 325.73 384.05
  A 0.26 0.26 0.0 0 0 325.99 383.79
  L 325.98 352.12
  L 325.99 314.54
  A 0.53 0.53 0.0 0 0 325.46 314.01
  L 309.53 313.97
  Q 309.00 313.97 309.00 314.50
  L 309.03 352.20
  Z
  M 332.03 352.11
  L 332.03 383.30
  A 0.72 0.72 0.0 0 0 332.75 384.02
  L 350.47 384.03
  Q 350.91 384.03 350.90 383.59
  L 350.49 350.28
  L 350.04 314.59
  A 0.58 0.58 0.0 0 0 349.46 314.01
  L 332.54 313.98
  Q 332.02 313.98 332.02 314.50
  L 332.03 352.11
  Z
  M 356.54 352.13
  L 356.94 383.41
  Q 356.94 384.00 357.53 384.00
  L 377.51 384.03
  A 0.48 0.47 0.0 0 0 377.99 383.56
  L 377.98 352.12
  L 377.97 314.71
  A 0.71 0.71 0.0 0 0 377.26 314.00
  L 356.54 313.99
  Q 356.06 313.99 356.06 314.47
  L 356.54 352.13
  Z
  M 384.02 352.18
  L 384.04 383.29
  A 0.72 0.72 0.0 0 0 384.76 384.01
  L 402.73 384.02
  A 0.27 0.26 0.0 0 0 403.00 383.76
  L 402.98 352.24
  L 402.99 317.93
  A 1.10 1.09 11.3 0 0 402.31 316.92
  Q 393.67 313.32 384.28 314.08
  A 0.29 0.28 -2.2 0 0 384.01 314.36
  L 384.02 352.18
  Z
  M 409.03 352.28
  L 409.06 383.46
  Q 409.26 383.62 409.39 383.80
  Q 409.53 383.98 409.77 383.98
  L 422.48 384.00
  A 0.48 0.47 -0.0 0 0 422.96 383.53
  Q 423.12 366.79 423.13 350.25
  Q 423.15 332.25 409.42 321.21
  A 0.25 0.24 -70.3 0 0 409.02 321.40
  L 409.03 352.28
  Z
  M 83.05 354.92
  L 83.01 383.30
  Q 83.01 384.06 83.77 384.06
  L 99.48 384.02
  Q 99.98 384.02 99.98 383.52
  L 99.98 352.12
  L 99.98 322.08
  A 0.27 0.27 0.0 0 0 99.55 321.86
  Q 83.29 334.37 83.05 354.92
  Z
  M 3.03 494.53
  L 2.95 508.02
  A 2.01 2.00 -90.0 0 0 4.96 510.04
  Q 250.63 509.71 496.50 509.44
  Q 501.72 509.43 506.94 509.48
  Q 507.90 509.49 508.47 509.11
  Q 509.64 508.33 508.83 507.29
  Q 509.13 488.97 509.00 471.25
  Q 508.83 447.03 497.50 428.17
  C 485.49 408.18 465.15 394.79 442.20 391.06
  Q 435.62 389.99 422.25 389.99
  Q 261.25 390.00 100.24 390.00
  Q 83.71 390.00 80.27 390.28
  C 39.20 393.65 4.44 427.80 3.07 470.00
  Q 2.87 476.24 3.03 494.53
  Z" fill="#012731"></path>
<path d="M 175.87 243.01
  A 0.96 0.96 0.0 0 1 174.91 242.05
  L 174.91 223.06
  A 25.74 25.15 -0.0 0 1 200.65 197.91
  L 309.41 197.91
  A 25.74 25.15 0.0 0 1 335.15 223.06
  L 335.15 242.05
  A 0.96 0.96 0.0 0 1 334.19 243.01
  L 175.87 243.01
  Z" fill="#25b6a0"></path>
<path d="M 320.30 307.95
  Q 319.93 307.75 319.92 307.69
  A 0.42 0.42 0.0 0 1 320.32 307.18
  Q 335.62 306.93 332.89 307.44
  A 0.03 0.02 36.5 0 0 332.90 307.49
  Q 352.89 306.88 372.89 307.28
  A 0.47 0.47 0.0 0 0 373.37 306.80
  L 373.04 291.26
  A 1.28 1.28 0.0 0 0 371.76 290.01
  L 140.02 290.01
  A 1.09 1.09 0.0 0 0 138.93 291.10
  L 138.88 306.31
  A 0.79 0.79 0.0 0 0 139.66 307.10
  C 190.10 307.41 240.55 307.11 290.99 307.20
  Q 291.07 307.20 299.99 307.00
  Q 307.50 306.84 314.88 307.87
  L 138.77 307.96
  A 0.81 0.81 0.0 0 1 137.96 307.15
  Q 137.94 291.99 138.11 276.50
  C 138.23 265.19 145.40 255.89 156.21 252.90
  Q 159.45 252.00 166.37 252.00
  Q 255.34 251.99 344.31 252.00
  Q 353.14 252.00 356.58 252.98
  C 366.81 255.87 373.71 264.98 373.82 275.75
  Q 373.98 291.62 374.09 307.38
  Q 374.09 307.99 373.48 307.99
  L 320.30 307.95
  Z" fill="#25b6a0"></path>
<path d="M 320.30 307.95
  L 314.88 307.87
  Q 307.50 306.84 299.99 307.00
  Q 291.07 307.20 290.99 307.20
  C 240.55 307.11 190.10 307.41 139.66 307.10
  A 0.79 0.79 0.0 0 1 138.88 306.31
  L 138.93 291.10
  A 1.09 1.09 0.0 0 1 140.02 290.01
  L 371.76 290.01
  A 1.28 1.28 0.0 0 1 373.04 291.26
  L 373.37 306.80
  A 0.47 0.47 0.0 0 1 372.89 307.28
  Q 352.89 306.88 332.90 307.49
  A 0.03 0.02 36.5 0 1 332.89 307.44
  Q 335.62 306.93 320.32 307.18
  A 0.42 0.42 0.0 0 0 319.92 307.69
  Q 319.93 307.75 320.30 307.95
  Z" fill="#1b9984"></path>
<path d="M 121.98 352.11
  L 106.04 352.05
  L 106.01 318.52
  Q 106.01 317.89 106.59 317.63
  Q 113.67 314.41 121.46 314.10
  A 0.51 0.51 0.0 0 1 121.99 314.61
  L 121.98 352.11
  Z" fill="#25b6a0"></path>
<path d="M 149.45 352.05
  L 128.02 352.12
  L 128.03 314.46
  A 0.47 0.47 0.0 0 1 128.50 313.99
  L 149.25 313.99
  A 0.70 0.70 0.0 0 1 149.95 314.70
  L 149.45 352.05
  Z" fill="#25b6a0"></path>
<path d="M 174.98 352.11
  L 155.48 352.08
  L 155.96 314.53
  Q 155.97 313.99 156.51 313.99
  L 174.22 313.99
  A 0.77 0.76 90.0 0 1 174.98 314.76
  L 174.98 352.11
  Z" fill="#25b6a0"></path>
<path d="M 199.98 352.12
  L 181.04 352.17
  L 181.01 314.50
  Q 181.01 313.97 181.54 313.97
  L 199.42 314.01
  A 0.58 0.57 90.0 0 1 199.99 314.59
  L 199.98 352.12
  Z" fill="#25b6a0"></path>
<path d="M 225.98 352.08
  L 206.03 351.99
  L 206.01 314.49
  Q 206.01 313.98 206.53 313.98
  L 225.46 314.01
  A 0.53 0.53 0.0 0 1 225.99 314.54
  L 225.98 352.08
  Z" fill="#25b6a0"></path>
<path d="M 250.98 352.13
  L 232.03 352.15
  L 232.02 314.49
  Q 232.02 313.99 232.52 313.99
  L 250.23 314.00
  A 0.75 0.74 -0.0 0 1 250.98 314.74
  L 250.98 352.13
  Z" fill="#25b6a0"></path>
<path d="M 276.98 352.10
  L 257.03 352.10
  L 257.01 314.46
  A 0.48 0.48 0.0 0 1 257.49 313.98
  L 276.01 314.00
  Q 276.99 314.00 276.99 314.97
  L 276.98 352.10
  Z" fill="#25b6a0"></path>
<path d="M 302.98 352.11
  L 283.05 351.97
  L 283.02 314.45
  A 0.47 0.47 0.0 0 1 283.49 313.98
  L 302.24 313.99
  A 0.74 0.74 0.0 0 1 302.98 314.73
  L 302.98 352.11
  Z" fill="#25b6a0"></path>
<path d="M 325.98 352.12
  L 309.03 352.20
  L 309.00 314.50
  Q 309.00 313.97 309.53 313.97
  L 325.46 314.01
  A 0.53 0.53 0.0 0 1 325.99 314.54
  L 325.98 352.12
  Z" fill="#25b6a0"></path>
<path d="M 350.49 350.28
  Q 350.46 351.91 349.50 351.92
  Q 340.83 352.00 332.03 352.11
  L 332.02 314.50
  Q 332.02 313.98 332.54 313.98
  L 349.46 314.01
  A 0.58 0.58 0.0 0 1 350.04 314.59
  L 350.49 350.28
  Z" fill="#25b6a0"></path>
<path d="M 377.98 352.12
  L 356.54 352.13
  L 356.06 314.47
  Q 356.06 313.99 356.54 313.99
  L 377.26 314.00
  A 0.71 0.71 0.0 0 1 377.97 314.71
  L 377.98 352.12
  Z" fill="#25b6a0"></path>
<path d="M 402.98 352.24
  L 384.02 352.18
  L 384.01 314.36
  A 0.29 0.28 -2.2 0 1 384.28 314.08
  Q 393.67 313.32 402.31 316.92
  A 1.10 1.09 11.3 0 1 402.99 317.93
  L 402.98 352.24
  Z" fill="#25b6a0"></path>
<path d="M 409.06 383.46
  L 421.24 383.38
  A 1.13 1.13 0.0 0 0 422.36 382.24
  L 422.09 353.49
  Q 422.08 352.00 420.59 352.03
  L 409.03 352.28
  L 409.02 321.40
  A 0.25 0.24 -70.3 0 1 409.42 321.21
  Q 423.15 332.25 423.13 350.25
  Q 423.12 366.79 422.96 383.53
  A 0.48 0.47 -0.0 0 1 422.48 384.00
  L 409.77 383.98
  Q 409.53 383.98 409.39 383.80
  Q 409.26 383.62 409.06 383.46
  Z" fill="#25b6a0"></path>
<path d="M 99.98 352.12
  L 85.35 352.04
  A 1.45 1.45 0.0 0 0 83.89 353.48
  L 83.84 356.96
  A 0.28 0.28 0.0 0 1 83.30 357.06
  Q 82.96 356.25 83.05 354.92
  Q 83.29 334.37 99.55 321.86
  A 0.27 0.27 0.0 0 1 99.98 322.08
  L 99.98 352.12
  Z" fill="#25b6a0"></path>
<path d="M 350.49 350.28
  L 350.90 383.59
  Q 350.91 384.03 350.47 384.03
  L 332.75 384.02
  A 0.72 0.72 0.0 0 1 332.03 383.30
  L 332.03 352.11
  Q 340.83 352.00 349.50 351.92
  Q 350.46 351.91 350.49 350.28
  Z" fill="#1b9984"></path>
<path d="M 283.05 351.97
  L 302.98 352.11
  L 302.98 383.52
  Q 302.98 384.03 302.47 384.03
  L 283.75 384.02
  A 0.73 0.72 -90.0 0 1 283.03 383.29
  L 283.05 351.97
  Z" fill="#1b9984"></path>
<path d="M 206.03 351.99
  L 225.98 352.08
  L 225.99 383.55
  A 0.48 0.48 0.0 0 1 225.51 384.03
  L 206.49 384.01
  A 0.48 0.48 0.0 0 1 206.01 383.53
  L 206.03 351.99
  Z" fill="#1b9984"></path>
<path d="M 99.98 352.12
  L 99.98 383.52
  Q 99.98 384.02 99.48 384.02
  L 83.77 384.06
  Q 83.01 384.06 83.01 383.30
  L 83.05 354.92
  Q 82.96 356.25 83.30 357.06
  A 0.28 0.28 0.0 0 0 83.84 356.96
  L 83.89 353.48
  A 1.45 1.45 0.0 0 1 85.35 352.04
  L 99.98 352.12
  Z" fill="#1b9984"></path>
<path d="M 106.04 352.05
  L 121.98 352.11
  L 121.99 383.79
  A 0.27 0.27 0.0 0 1 121.72 384.06
  L 106.52 384.03
  A 0.50 0.50 0.0 0 1 106.02 383.53
  L 106.04 352.05
  Z" fill="#1b9984"></path>
<path d="M 149.45 352.05
  L 149.03 383.48
  Q 149.02 384.01 148.49 384.01
  L 128.74 384.00
  A 0.70 0.70 0.0 0 1 128.04 383.30
  L 128.02 352.12
  L 149.45 352.05
  Z" fill="#1b9984"></path>
<path d="M 155.48 352.08
  L 174.98 352.11
  L 174.98 383.51
  Q 174.98 384.02 174.47 384.02
  L 155.77 384.02
  A 0.67 0.66 0.4 0 1 155.10 383.35
  L 155.48 352.08
  Z" fill="#1b9984"></path>
<path d="M 181.04 352.17
  L 199.98 352.12
  L 199.99 383.56
  A 0.47 0.47 0.0 0 1 199.52 384.03
  L 181.72 384.00
  A 0.69 0.69 0.0 0 1 181.03 383.31
  L 181.04 352.17
  Z" fill="#1b9984"></path>
<path d="M 250.98 352.13
  L 250.99 383.76
  A 0.26 0.26 0.0 0 1 250.73 384.02
  L 232.76 384.01
  A 0.72 0.72 0.0 0 1 232.04 383.29
  L 232.03 352.15
  L 250.98 352.13
  Z" fill="#1b9984"></path>
<path d="M 257.03 352.10
  L 276.98 352.10
  L 276.97 383.53
  Q 276.97 384.02 276.48 384.02
  L 257.75 384.00
  A 0.71 0.71 0.0 0 1 257.04 383.29
  L 257.03 352.10
  Z" fill="#1b9984"></path>
<path d="M 309.03 352.20
  L 325.98 352.12
  L 325.99 383.79
  A 0.26 0.26 0.0 0 1 325.73 384.05
  L 309.52 384.02
  A 0.49 0.49 0.0 0 1 309.03 383.53
  L 309.03 352.20
  Z" fill="#1b9984"></path>
<path d="M 377.98 352.12
  L 377.99 383.56
  A 0.48 0.47 -0.0 0 1 377.51 384.03
  L 357.53 384.00
  Q 356.94 384.00 356.94 383.41
  L 356.54 352.13
  L 377.98 352.12
  Z" fill="#1b9984"></path>
<path d="M 402.98 352.24
  L 403.00 383.76
  A 0.27 0.26 -0.0 0 1 402.73 384.02
  L 384.76 384.01
  A 0.72 0.72 0.0 0 1 384.04 383.29
  L 384.02 352.18
  L 402.98 352.24
  Z" fill="#1b9984"></path>
<path d="M 409.06 383.46
  L 409.03 352.28
  L 420.59 352.03
  Q 422.08 352.00 422.09 353.49
  L 422.36 382.24
  A 1.13 1.13 0.0 0 1 421.24 383.38
  L 409.06 383.46
  Z" fill="#1b9984"></path>
<path d="M 508.83 507.29
  Q 507.22 501.78 508.05 495.89
  A 1.15 1.15 0.0 0 0 506.91 494.58
  L 4.74 492.00
  A 0.83 0.83 0.0 0 0 3.91 492.75
  L 3.74 494.57
  Q 3.70 494.98 3.33 494.80
  Q 3.18 494.73 3.03 494.53
  Q 2.87 476.24 3.07 470.00
  C 4.44 427.80 39.20 393.65 80.27 390.28
  Q 83.71 390.00 100.24 390.00
  Q 261.25 390.00 422.25 389.99
  Q 435.62 389.99 442.20 391.06
  C 465.15 394.79 485.49 408.18 497.50 428.17
  Q 508.83 447.03 509.00 471.25
  Q 509.13 488.97 508.83 507.29
  Z
  M 242.8185 451.5401
  A 26.67 26.67 0.0 0 0 216.1020 424.9167
  L 74.8022 425.1633
  A 26.67 26.67 0.0 0 0 48.1788 451.8799
  L 48.1815 453.4599
  A 26.67 26.67 0.0 0 0 74.8980 480.0833
  L 216.1978 479.8367
  A 26.67 26.67 0.0 0 0 242.8212 453.1201
  L 242.8185 451.5401
  Z
  M 479.8311 451.9438
  A 26.75 26.75 0.0 0 0 453.1279 425.1472
  L 295.9681 424.8729
  A 26.75 26.75 0.0 0 0 269.1715 451.5762
  L 269.1689 453.0562
  A 26.75 26.75 0.0 0 0 295.8721 479.8528
  L 453.0319 480.1271
  A 26.75 26.75 0.0 0 0 479.8285 453.4238
  L 479.8311 451.9438
  Z" fill="#25b6a0"></path>
<path d="M 242.8212 453.1201
  A 26.67 26.67 0.0 0 1 216.1978 479.8367
  L 74.8980 480.0833
  A 26.67 26.67 0.0 0 1 48.1815 453.4599
  L 48.1788 451.8799
  A 26.67 26.67 0.0 0 1 74.8022 425.1633
  L 216.1020 424.9167
  A 26.67 26.67 0.0 0 1 242.8185 451.5401
  L 242.8212 453.1201
  Z
  M 67.60 432.49
  C 49.56 439.36 49.55 465.75 67.68 472.58
  Q 71.40 473.99 79.01 473.99
  Q 137.77 474.01 196.54 474.00
  Q 197.59 474.00 196.76 473.35
  C 182.64 462.47 184.12 440.62 199.58 431.76
  Q 200.90 431.00 199.37 431.00
  Q 140.04 431.01 80.59 431.00
  Q 71.51 431.00 67.60 432.49
  Z
  M 233.0095 453.6397
  A 20.01 19.51 0.4 0 0 213.1362 433.9905
  A 20.01 19.51 0.4 0 0 192.9905 453.3603
  A 20.01 19.51 0.4 0 0 212.8638 473.0095
  A 20.01 19.51 0.4 0 0 233.0095 453.6397
  Z" fill="#012731"></path>
<path d="M 479.8285 453.4238
  A 26.75 26.75 0.0 0 1 453.0319 480.1271
  L 295.8721 479.8528
  A 26.75 26.75 0.0 0 1 269.1689 453.0562
  L 269.1715 451.5762
  A 26.75 26.75 0.0 0 1 295.9681 424.8729
  L 453.1279 425.1472
  A 26.75 26.75 0.0 0 1 479.8311 451.9438
  L 479.8285 453.4238
  Z
  M 438.77 431.06
  Q 368.50 430.89 299.06 431.04
  Q 292.36 431.05 289.10 432.22
  C 269.93 439.06 270.58 467.57 290.24 473.16
  Q 293.23 474.00 301.33 474.00
  Q 369.79 474.00 437.98 474.00
  Q 439.96 474.00 438.26 472.99
  C 422.47 463.54 423.87 441.16 438.91 431.54
  Q 439.65 431.06 438.77 431.06
  Z
  M 470.00 452.50
  A 18.50 18.50 0.0 0 0 451.50 434.00
  A 18.50 18.50 0.0 0 0 433.00 452.50
  A 18.50 18.50 0.0 0 0 451.50 471.00
  A 18.50 18.50 0.0 0 0 470.00 452.50
  Z" fill="#012731"></path>
<path d="M 67.68 472.58
  C 49.55 465.75 49.56 439.36 67.60 432.49
  Q 71.51 431.00 80.59 431.00
  Q 140.04 431.01 199.37 431.00
  Q 200.90 431.00 199.58 431.76
  C 184.12 440.62 182.64 462.47 196.76 473.35
  Q 197.59 474.00 196.54 474.00
  Q 137.77 474.01 79.01 473.99
  Q 71.40 473.99 67.68 472.58
  Z" fill="#1b9984"></path>
<path d="M 438.77 431.06
  Q 439.65 431.06 438.91 431.54
  C 423.87 441.16 422.47 463.54 438.26 472.99
  Q 439.96 474.00 437.98 474.00
  Q 369.79 474.00 301.33 474.00
  Q 293.23 474.00 290.24 473.16
  C 270.58 467.57 269.93 439.06 289.10 432.22
  Q 292.36 431.05 299.06 431.04
  Q 368.50 430.89 438.77 431.06
  Z" fill="#1b9984"></path>
<ellipse ry="19.51" rx="20.01" transform="translate(213.00,453.50) rotate(0.4)" cy="0.00" cx="0.00" fill="#25b6a0"></ellipse>
<circle r="18.50" cy="452.50" cx="451.50" fill="#25b6a0"></circle>
<path d="M 508.83 507.29
  Q 509.64 508.33 508.47 509.11
  Q 507.90 509.49 506.94 509.48
  Q 501.72 509.43 496.50 509.44
  Q 250.63 509.71 4.96 510.04
  A 2.01 2.00 -90.0 0 1 2.95 508.02
  L 3.03 494.53
  Q 3.18 494.73 3.33 494.80
  Q 3.70 494.98 3.74 494.57
  L 3.91 492.75
  A 0.83 0.83 0.0 0 1 4.74 492.00
  L 506.91 494.58
  A 1.15 1.15 0.0 0 1 508.05 495.89
  Q 507.22 501.78 508.83 507.29
  Z" fill="#1b9984"></path>
</svg>
