<svg viewBox="0.00 0.00 256.00 256.00" version="1.1" xmlns="http://www.w3.org/2000/svg">
<g stroke-linecap="butt" fill="none" stroke-width="2.00">
<path d="M 236.69 110.51
  Q 235.29 111.04 236.20 114.34
  Q 236.21 114.37 236.18 114.36
  Q 235.32 114.12 236.18 114.39
  A 0.01 0.01 0.0 0 0 236.19 114.38
  Q 235.85 111.80 233.36 112.39
  Q 230.90 112.96 223.54 115.19
  C 222.45 115.52 221.37 115.14 220.31 115.67
  C 216.48 117.59 211.76 118.39 207.60 119.39
  C 200.39 121.11 192.97 123.19 185.59 124.84
  Q 185.07 124.96 180.78 126.32
  Q 178.36 127.09 175.75 127.13
  Q 175.43 127.14 175.02 127.57
  Q 174.69 127.92 174.21 128.04
  Q 167.44 129.62 160.69 131.29
  C 159.53 131.57 158.87 131.17 157.65 131.81
  Q 156.04 132.65 154.22 132.44
  Q 153.74 132.39 153.31 132.62
  C 152.22 133.19 151.50 133.82 150.32 134.15
  Q 145.64 135.43 140.87 136.38
  Q 140.38 136.48 139.90 136.36
  Q 138.63 136.06 137.79 136.89
  Q 137.48 137.19 137.07 137.31
  L 128.22 139.90
  Q 127.76 140.04 127.29 139.92
  Q 126.06 139.60 125.31 140.43
  Q 124.96 140.80 124.47 140.97
  Q 117.30 143.48 109.71 144.47" stroke="#ef5597"></path>
<path d="M 236.73 147.97
  Q 236.67 147.16 236.41 146.78
  Q 236.21 146.49 236.00 146.77
  Q 235.87 146.93 235.88 147.13
  A 0.25 0.25 0.0 0 1 235.63 147.40
  Q 232.22 147.40 229.02 148.78
  Q 228.53 148.99 228.00 148.97
  Q 226.30 148.87 225.16 149.41
  Q 222.23 150.79 219.81 151.02
  Q 219.51 151.05 219.29 151.24
  Q 218.93 151.55 218.34 151.37
  Q 217.87 151.23 217.40 151.38
  Q 213.60 152.62 209.75 153.71
  C 208.59 154.04 207.26 153.45 206.60 154.91
  A 0.06 0.06 0.0 0 1 206.52 154.93
  L 206.24 154.78
  Q 205.86 154.58 205.44 154.68
  L 200.78 155.77
  Q 200.34 155.88 199.98 156.16
  Q 199.23 156.74 198.02 156.46
  Q 196.59 156.13 196.33 157.49
  Q 196.22 158.06 195.67 157.89
  Q 195.49 157.83 195.38 157.65
  Q 195.10 157.17 194.56 157.30
  C 191.08 158.17 189.03 160.15 185.23 159.92
  A 1.56 1.54 -58.9 0 0 184.32 160.15
  C 183.35 160.74 181.99 160.55 181.22 160.71
  Q 176.52 161.71 172.11 163.71
  Q 171.64 163.92 171.13 163.82
  Q 169.08 163.43 167.79 164.86
  A 1.11 1.11 0.0 0 1 166.97 165.22
  Q 161.84 165.21 157.05 166.86
  C 154.96 167.59 152.63 167.84 150.49 168.94
  Q 150.14 169.12 149.88 169.41
  Q 149.52 169.81 148.98 169.67
  C 145.93 168.90 144.93 170.42 142.78 170.97
  Q 137.85 172.22 132.82 173.16
  A 1.10 1.07 -77.8 0 0 132.10 173.64
  Q 131.50 174.58 130.35 174.24
  A 0.85 0.82 42.5 0 0 129.86 174.25
  C 126.58 175.46 123.23 175.90 119.91 177.08
  Q 115.61 178.61 111.00 178.91
  Q 110.50 178.94 110.42 179.44
  Q 110.24 180.54 109.74 181.48" stroke="#e755b4"></path>
<path d="M 128.99 49.98
  Q 128.94 48.37 128.28 48.15
  A 0.31 0.31 0.0 0 0 127.89 48.52
  Q 128.08 49.26 127.29 49.37
  A 0.23 0.23 0.0 0 0 127.12 49.70
  Q 127.18 49.84 127.25 49.97
  Q 127.35 50.18 127.14 50.28
  Q 122.77 52.38 118.07 53.46
  Q 114.80 54.20 112.25 55.44
  Q 108.65 57.18 104.87 58.61
  Q 104.37 58.79 103.85 58.65
  Q 102.33 58.23 101.94 59.57
  A 1.07 1.07 0.0 0 1 101.13 60.32
  Q 97.88 61.01 95.12 62.85
  C 94.48 63.28 93.62 63.36 92.91 63.21
  A 1.54 1.54 0.0 0 0 91.96 63.30
  C 89.08 64.57 86.39 66.80 83.10 67.48
  C 80.26 68.07 78.73 69.11 76.26 70.21
  Q 75.80 70.42 75.32 70.26
  C 73.56 69.70 72.84 71.05 71.68 71.54
  Q 69.67 72.41 67.54 72.92
  C 66.06 73.28 64.97 74.11 63.59 74.72
  Q 63.14 74.91 62.64 74.89
  Q 61.33 74.82 60.53 75.85
  Q 60.26 76.21 59.83 76.32
  L 56.20 77.29
  Q 55.85 77.38 55.49 77.37
  Q 54.54 77.35 54.16 78.25
  A 1.20 1.19 2.1 0 1 53.43 78.92
  L 48.86 80.40
  Q 48.52 80.51 48.16 80.46
  Q 46.71 80.25 45.93 81.40
  Q 45.68 81.79 45.27 82.00
  Q 42.33 83.53 40.51 83.43
  Q 39.48 83.37 39.09 83.88
  Q 38.78 84.28 38.29 84.34
  L 35.75 84.65
  Q 35.29 84.70 35.07 85.11
  C 34.62 85.93 34.54 86.27 33.61 86.67
  Q 28.39 88.90 21.82 89.42
  A 0.11 0.11 0.0 0 0 21.72 89.55
  Q 21.81 90.50 21.19 91.10
  Q 20.81 91.46 20.30 91.39
  C 18.78 91.20 18.13 92.07 17.03 92.33
  Q 14.95 92.82 12.80 93.14
  Q 12.30 93.22 12.00 93.63
  C 9.78 96.68 5.34 95.85 2.00 95.94" stroke="#ef5597"></path>
<path d="M 88.68 117.51
  Q 88.41 117.55 88.38 117.21
  Q 88.34 116.90 88.12 117.12
  L 87.75 117.50
  A 0.18 0.18 0.0 0 1 87.50 117.49
  L 87.26 117.25
  Q 87.09 117.08 86.86 117.14
  Q 75.02 120.42 72.12 122.12
  C 70.51 123.07 69.57 122.50 68.51 122.96
  Q 67.55 123.37 66.36 124.36
  Q 64.27 126.11 57.74 128.11
  Q 57.03 128.33 56.42 129.07
  Q 56.09 129.48 55.57 129.37
  Q 54.89 129.23 54.84 129.87
  Q 54.80 130.29 54.50 129.99
  L 54.30 129.79
  Q 53.99 129.48 53.59 129.66
  L 47.43 132.45
  Q 46.95 132.67 46.85 133.18
  Q 46.73 133.79 45.99 134.03
  A 0.51 0.49 -46.1 0 1 45.73 134.04
  L 44.88 133.83
  Q 44.40 133.72 43.92 133.88
  L 37.46 136.14
  Q 37.30 136.19 37.19 136.33
  Q 37.10 136.44 36.99 136.48
  Q 33.89 137.59 29.13 138.86
  Q 29.02 138.89 28.93 138.82
  Q 28.82 138.72 28.69 138.67
  Q 28.40 138.57 28.24 138.82
  C 26.94 140.88 23.23 140.95 21.00 142.04
  Q 17.31 143.83 13.25 144.60
  Q 10.87 145.05 6.29 147.67
  C 5.40 148.17 4.80 148.05 3.87 148.32
  Q 3.43 148.45 3.54 148.90
  Q 3.62 149.18 3.55 149.48
  Q 3.41 150.10 2.92 150.04
  Q 2.77 150.03 2.74 149.88
  Q 2.71 149.68 2.57 149.62
  Q 2.33 149.53 2.37 149.78
  Q 2.59 151.19 2.02 152.06" stroke="#e755b4"></path>
</g>
<path d="M 94.38 0.00
  L 101.49 0.00
  C 118.69 3.90 128.80 14.38 128.96 32.75
  Q 129.03 41.35 128.99 49.98
  Q 128.94 48.37 128.28 48.15
  A 0.31 0.31 0.0 0 0 127.89 48.52
  Q 128.08 49.26 127.29 49.37
  A 0.23 0.23 0.0 0 0 127.12 49.70
  Q 127.18 49.84 127.25 49.97
  Q 127.35 50.18 127.14 50.28
  Q 122.77 52.38 118.07 53.46
  Q 114.80 54.20 112.25 55.44
  Q 108.65 57.18 104.87 58.61
  Q 104.37 58.79 103.85 58.65
  Q 102.33 58.23 101.94 59.57
  A 1.07 1.07 0.0 0 1 101.13 60.32
  Q 97.88 61.01 95.12 62.85
  C 94.48 63.28 93.62 63.36 92.91 63.21
  A 1.54 1.54 0.0 0 0 91.96 63.30
  C 89.08 64.57 86.39 66.80 83.10 67.48
  C 80.26 68.07 78.73 69.11 76.26 70.21
  Q 75.80 70.42 75.32 70.26
  C 73.56 69.70 72.84 71.05 71.68 71.54
  Q 69.67 72.41 67.54 72.92
  C 66.06 73.28 64.97 74.11 63.59 74.72
  Q 63.14 74.91 62.64 74.89
  Q 61.33 74.82 60.53 75.85
  Q 60.26 76.21 59.83 76.32
  L 56.20 77.29
  Q 55.85 77.38 55.49 77.37
  Q 54.54 77.35 54.16 78.25
  A 1.20 1.19 2.1 0 1 53.43 78.92
  L 48.86 80.40
  Q 48.52 80.51 48.16 80.46
  Q 46.71 80.25 45.93 81.40
  Q 45.68 81.79 45.27 82.00
  Q 42.33 83.53 40.51 83.43
  Q 39.48 83.37 39.09 83.88
  Q 38.78 84.28 38.29 84.34
  L 35.75 84.65
  Q 35.29 84.70 35.07 85.11
  C 34.62 85.93 34.54 86.27 33.61 86.67
  Q 28.39 88.90 21.82 89.42
  A 0.11 0.11 0.0 0 0 21.72 89.55
  Q 21.81 90.50 21.19 91.10
  Q 20.81 91.46 20.30 91.39
  C 18.78 91.20 18.13 92.07 17.03 92.33
  Q 14.95 92.82 12.80 93.14
  Q 12.30 93.22 12.00 93.63
  C 9.78 96.68 5.34 95.85 2.00 95.94
  Q 1.97 76.15 1.99 56.31
  Q 2.00 45.61 3.50 40.85
  C 6.82 30.27 15.61 22.91 26.35 19.98
  Q 30.53 18.83 30.63 18.81
  Q 60.20 9.94 89.79 1.18
  Q 92.05 0.51 94.38 0.00
  Z" fill="#f2558a"></path>
<path d="M 128.99 49.98
  L 129.02 72.78
  Q 129.02 74.24 127.63 74.69
  Q 95.29 85.12 88.68 117.51
  Q 88.41 117.55 88.38 117.21
  Q 88.34 116.90 88.12 117.12
  L 87.75 117.50
  A 0.18 0.18 0.0 0 1 87.50 117.49
  L 87.26 117.25
  Q 87.09 117.08 86.86 117.14
  Q 75.02 120.42 72.12 122.12
  C 70.51 123.07 69.57 122.50 68.51 122.96
  Q 67.55 123.37 66.36 124.36
  Q 64.27 126.11 57.74 128.11
  Q 57.03 128.33 56.42 129.07
  Q 56.09 129.48 55.57 129.37
  Q 54.89 129.23 54.84 129.87
  Q 54.80 130.29 54.50 129.99
  L 54.30 129.79
  Q 53.99 129.48 53.59 129.66
  L 47.43 132.45
  Q 46.95 132.67 46.85 133.18
  Q 46.73 133.79 45.99 134.03
  A 0.51 0.49 -46.1 0 1 45.73 134.04
  L 44.88 133.83
  Q 44.40 133.72 43.92 133.88
  L 37.46 136.14
  Q 37.30 136.19 37.19 136.33
  Q 37.10 136.44 36.99 136.48
  Q 33.89 137.59 29.13 138.86
  Q 29.02 138.89 28.93 138.82
  Q 28.82 138.72 28.69 138.67
  Q 28.40 138.57 28.24 138.82
  C 26.94 140.88 23.23 140.95 21.00 142.04
  Q 17.31 143.83 13.25 144.60
  Q 10.87 145.05 6.29 147.67
  C 5.40 148.17 4.80 148.05 3.87 148.32
  Q 3.43 148.45 3.54 148.90
  Q 3.62 149.18 3.55 149.48
  Q 3.41 150.10 2.92 150.04
  Q 2.77 150.03 2.74 149.88
  Q 2.71 149.68 2.57 149.62
  Q 2.33 149.53 2.37 149.78
  Q 2.59 151.19 2.02 152.06
  L 2.00 95.94
  C 5.34 95.85 9.78 96.68 12.00 93.63
  Q 12.30 93.22 12.80 93.14
  Q 14.95 92.82 17.03 92.33
  C 18.13 92.07 18.78 91.20 20.30 91.39
  Q 20.81 91.46 21.19 91.10
  Q 21.81 90.50 21.72 89.55
  A 0.11 0.11 0.0 0 1 21.82 89.42
  Q 28.39 88.90 33.61 86.67
  C 34.54 86.27 34.62 85.93 35.07 85.11
  Q 35.29 84.70 35.75 84.65
  L 38.29 84.34
  Q 38.78 84.28 39.09 83.88
  Q 39.48 83.37 40.51 83.43
  Q 42.33 83.53 45.27 82.00
  Q 45.68 81.79 45.93 81.40
  Q 46.71 80.25 48.16 80.46
  Q 48.52 80.51 48.86 80.40
  L 53.43 78.92
  A 1.20 1.19 2.1 0 0 54.16 78.25
  Q 54.54 77.35 55.49 77.37
  Q 55.85 77.38 56.20 77.29
  L 59.83 76.32
  Q 60.26 76.21 60.53 75.85
  Q 61.33 74.82 62.64 74.89
  Q 63.14 74.91 63.59 74.72
  C 64.97 74.11 66.06 73.28 67.54 72.92
  Q 69.67 72.41 71.68 71.54
  C 72.84 71.05 73.56 69.70 75.32 70.26
  Q 75.80 70.42 76.26 70.21
  C 78.73 69.11 80.26 68.07 83.10 67.48
  C 86.39 66.80 89.08 64.57 91.96 63.30
  A 1.54 1.54 0.0 0 1 92.91 63.21
  C 93.62 63.36 94.48 63.28 95.12 62.85
  Q 97.88 61.01 101.13 60.32
  A 1.07 1.07 0.0 0 0 101.94 59.57
  Q 102.33 58.23 103.85 58.65
  Q 104.37 58.79 104.87 58.61
  Q 108.65 57.18 112.25 55.44
  Q 114.80 54.20 118.07 53.46
  Q 122.77 52.38 127.14 50.28
  Q 127.35 50.18 127.25 49.97
  Q 127.18 49.84 127.12 49.70
  A 0.23 0.23 0.0 0 1 127.29 49.37
  Q 128.08 49.26 127.89 48.52
  A 0.31 0.31 0.0 0 1 128.28 48.15
  Q 128.94 48.37 128.99 49.98
  Z" fill="#eb55a3"></path>
<path d="M 236.69 110.51
  Q 235.29 111.04 236.20 114.34
  Q 236.21 114.37 236.18 114.36
  Q 235.32 114.12 236.18 114.39
  A 0.01 0.01 0.0 0 0 236.19 114.38
  Q 235.85 111.80 233.36 112.39
  Q 230.90 112.96 223.54 115.19
  C 222.45 115.52 221.37 115.14 220.31 115.67
  C 216.48 117.59 211.76 118.39 207.60 119.39
  C 200.39 121.11 192.97 123.19 185.59 124.84
  Q 185.07 124.96 180.78 126.32
  Q 178.36 127.09 175.75 127.13
  Q 175.43 127.14 175.02 127.57
  Q 174.69 127.92 174.21 128.04
  Q 167.44 129.62 160.69 131.29
  C 159.53 131.57 158.87 131.17 157.65 131.81
  Q 156.04 132.65 154.22 132.44
  Q 153.74 132.39 153.31 132.62
  C 152.22 133.19 151.50 133.82 150.32 134.15
  Q 145.64 135.43 140.87 136.38
  Q 140.38 136.48 139.90 136.36
  Q 138.63 136.06 137.79 136.89
  Q 137.48 137.19 137.07 137.31
  L 128.22 139.90
  Q 127.76 140.04 127.29 139.92
  Q 126.06 139.60 125.31 140.43
  Q 124.96 140.80 124.47 140.97
  Q 117.30 143.48 109.71 144.47
  C 109.76 127.58 107.18 111.08 123.02 100.54
  Q 127.65 97.46 141.56 93.25
  Q 168.03 85.25 194.55 77.42
  C 203.81 74.69 212.22 74.52 220.22 79.03
  Q 238.09 89.11 236.69 110.51
  Z" fill="#f2558a"></path>
<path d="M 236.69 110.51
  L 236.73 147.97
  Q 236.67 147.16 236.41 146.78
  Q 236.21 146.49 236.00 146.77
  Q 235.87 146.93 235.88 147.13
  A 0.25 0.25 0.0 0 1 235.63 147.40
  Q 232.22 147.40 229.02 148.78
  Q 228.53 148.99 228.00 148.97
  Q 226.30 148.87 225.16 149.41
  Q 222.23 150.79 219.81 151.02
  Q 219.51 151.05 219.29 151.24
  Q 218.93 151.55 218.34 151.37
  Q 217.87 151.23 217.40 151.38
  Q 213.60 152.62 209.75 153.71
  C 208.59 154.04 207.26 153.45 206.60 154.91
  A 0.06 0.06 0.0 0 1 206.52 154.93
  L 206.24 154.78
  Q 205.86 154.58 205.44 154.68
  L 200.78 155.77
  Q 200.34 155.88 199.98 156.16
  Q 199.23 156.74 198.02 156.46
  Q 196.59 156.13 196.33 157.49
  Q 196.22 158.06 195.67 157.89
  Q 195.49 157.83 195.38 157.65
  Q 195.10 157.17 194.56 157.30
  C 191.08 158.17 189.03 160.15 185.23 159.92
  A 1.56 1.54 -58.9 0 0 184.32 160.15
  C 183.35 160.74 181.99 160.55 181.22 160.71
  Q 176.52 161.71 172.11 163.71
  Q 171.64 163.92 171.13 163.82
  Q 169.08 163.43 167.79 164.86
  A 1.11 1.11 0.0 0 1 166.97 165.22
  Q 161.84 165.21 157.05 166.86
  C 154.96 167.59 152.63 167.84 150.49 168.94
  Q 150.14 169.12 149.88 169.41
  Q 149.52 169.81 148.98 169.67
  C 145.93 168.90 144.93 170.42 142.78 170.97
  Q 137.85 172.22 132.82 173.16
  A 1.10 1.07 -77.8 0 0 132.10 173.64
  Q 131.50 174.58 130.35 174.24
  A 0.85 0.82 42.5 0 0 129.86 174.25
  C 126.58 175.46 123.23 175.90 119.91 177.08
  Q 115.61 178.61 111.00 178.91
  Q 110.50 178.94 110.42 179.44
  Q 110.24 180.54 109.74 181.48
  L 109.71 144.47
  Q 117.30 143.48 124.47 140.97
  Q 124.96 140.80 125.31 140.43
  Q 126.06 139.60 127.29 139.92
  Q 127.76 140.04 128.22 139.90
  L 137.07 137.31
  Q 137.48 137.19 137.79 136.89
  Q 138.63 136.06 139.90 136.36
  Q 140.38 136.48 140.87 136.38
  Q 145.64 135.43 150.32 134.15
  C 151.50 133.82 152.22 133.19 153.31 132.62
  Q 153.74 132.39 154.22 132.44
  Q 156.04 132.65 157.65 131.81
  C 158.87 131.17 159.53 131.57 160.69 131.29
  Q 167.44 129.62 174.21 128.04
  Q 174.69 127.92 175.02 127.57
  Q 175.43 127.14 175.75 127.13
  Q 178.36 127.09 180.78 126.32
  Q 185.07 124.96 185.59 124.84
  C 192.97 123.19 200.39 121.11 207.60 119.39
  C 211.76 118.39 216.48 117.59 220.31 115.67
  C 221.37 115.14 222.45 115.52 223.54 115.19
  Q 230.90 112.96 233.36 112.39
  Q 235.85 111.80 236.19 114.38
  A 0.01 0.01 0.0 0 1 236.18 114.39
  Q 235.32 114.12 236.18 114.36
  Q 236.21 114.37 236.20 114.34
  Q 235.29 111.04 236.69 110.51
  Z" fill="#eb55a3"></path>
<path d="M 88.68 117.51
  C 88.35 120.84 88.01 124.12 88.01 127.51
  Q 87.97 158.38 88.03 189.25
  Q 88.04 195.75 90.21 203.69
  Q 90.36 204.21 89.83 204.37
  Q 67.05 211.33 44.30 218.11
  C 34.17 221.12 24.95 220.72 16.04 214.90
  Q 6.82 208.86 3.39 198.12
  Q 2.05 193.92 2.02 186.73
  Q 1.93 169.37 2.02 152.06
  Q 2.59 151.19 2.37 149.78
  Q 2.33 149.53 2.57 149.62
  Q 2.71 149.68 2.74 149.88
  Q 2.77 150.03 2.92 150.04
  Q 3.41 150.10 3.55 149.48
  Q 3.62 149.18 3.54 148.90
  Q 3.43 148.45 3.87 148.32
  C 4.80 148.05 5.40 148.17 6.29 147.67
  Q 10.87 145.05 13.25 144.60
  Q 17.31 143.83 21.00 142.04
  C 23.23 140.95 26.94 140.88 28.24 138.82
  Q 28.40 138.57 28.69 138.67
  Q 28.82 138.72 28.93 138.82
  Q 29.02 138.89 29.13 138.86
  Q 33.89 137.59 36.99 136.48
  Q 37.10 136.44 37.19 136.33
  Q 37.30 136.19 37.46 136.14
  L 43.92 133.88
  Q 44.40 133.72 44.88 133.83
  L 45.73 134.04
  A 0.51 0.49 -46.1 0 0 45.99 134.03
  Q 46.73 133.79 46.85 133.18
  Q 46.95 132.67 47.43 132.45
  L 53.59 129.66
  Q 53.99 129.48 54.30 129.79
  L 54.50 129.99
  Q 54.80 130.29 54.84 129.87
  Q 54.89 129.23 55.57 129.37
  Q 56.09 129.48 56.42 129.07
  Q 57.03 128.33 57.74 128.11
  Q 64.27 126.11 66.36 124.36
  Q 67.55 123.37 68.51 122.96
  C 69.57 122.50 70.51 123.07 72.12 122.12
  Q 75.02 120.42 86.86 117.14
  Q 87.09 117.08 87.26 117.25
  L 87.50 117.49
  A 0.18 0.18 0.0 0 0 87.75 117.50
  L 88.12 117.12
  Q 88.34 116.90 88.38 117.21
  Q 88.41 117.55 88.68 117.51
  Z" fill="#e255c4"></path>
<path d="M 236.73 147.97
  C 236.78 166.43 239.62 184.73 222.56 195.50
  Q 218.12 198.29 203.90 202.51
  Q 177.30 210.39 150.70 218.32
  C 131.63 224.01 113.62 213.20 109.96 193.76
  Q 109.42 190.90 109.74 181.48
  Q 110.24 180.54 110.42 179.44
  Q 110.50 178.94 111.00 178.91
  Q 115.61 178.61 119.91 177.08
  C 123.23 175.90 126.58 175.46 129.86 174.25
  A 0.85 0.82 42.5 0 1 130.35 174.24
  Q 131.50 174.58 132.10 173.64
  A 1.10 1.07 -77.8 0 1 132.82 173.16
  Q 137.85 172.22 142.78 170.97
  C 144.93 170.42 145.93 168.90 148.98 169.67
  Q 149.52 169.81 149.88 169.41
  Q 150.14 169.12 150.49 168.94
  C 152.63 167.84 154.96 167.59 157.05 166.86
  Q 161.84 165.21 166.97 165.22
  A 1.11 1.11 0.0 0 0 167.79 164.86
  Q 169.08 163.43 171.13 163.82
  Q 171.64 163.92 172.11 163.71
  Q 176.52 161.71 181.22 160.71
  C 181.99 160.55 183.35 160.74 184.32 160.15
  A 1.56 1.54 -58.9 0 1 185.23 159.92
  C 189.03 160.15 191.08 158.17 194.56 157.30
  Q 195.10 157.17 195.38 157.65
  Q 195.49 157.83 195.67 157.89
  Q 196.22 158.06 196.33 157.49
  Q 196.59 156.13 198.02 156.46
  Q 199.23 156.74 199.98 156.16
  Q 200.34 155.88 200.78 155.77
  L 205.44 154.68
  Q 205.86 154.58 206.24 154.78
  L 206.52 154.93
  A 0.06 0.06 0.0 0 0 206.60 154.91
  C 207.26 153.45 208.59 154.04 209.75 153.71
  Q 213.60 152.62 217.40 151.38
  Q 217.87 151.23 218.34 151.37
  Q 218.93 151.55 219.29 151.24
  Q 219.51 151.05 219.81 151.02
  Q 222.23 150.79 225.16 149.41
  Q 226.30 148.87 228.00 148.97
  Q 228.53 148.99 229.02 148.78
  Q 232.22 147.40 235.63 147.40
  A 0.25 0.25 0.0 0 0 235.88 147.13
  Q 235.87 146.93 236.00 146.77
  Q 236.21 146.49 236.41 146.78
  Q 236.67 147.16 236.73 147.97
  Z" fill="#e255c4"></path>
</svg>
