<svg viewBox="0.00 0.00 256.00 256.00" version="1.1" xmlns="http://www.w3.org/2000/svg">
<g stroke-linecap="butt" fill="none" stroke-width="2.00">
<path d="M 214.10 237.37
  Q 214.25 234.53 215.34 232.32
  Q 215.41 232.19 215.45 231.37
  Q 215.50 230.34 214.75 229.60
  Q 214.57 229.43 214.74 229.25
  L 215.30 228.70
  Q 215.56 228.43 215.66 228.07
  Q 215.84 227.39 215.36 226.85
  Q 215.02 226.48 215.38 226.12
  L 215.63 225.87
  Q 216.15 225.35 215.45 225.12
  Q 215.06 224.99 215.10 224.62
  Q 215.14 224.29 214.87 224.08
  Q 214.09 223.50 214.11 222.62
  Q 214.11 222.29 214.38 222.10
  L 214.76 221.83
  Q 215.17 221.52 214.86 221.11
  Q 214.77 221.00 214.65 220.94
  Q 214.06 220.68 214.47 220.18
  Q 215.27 219.22 215.41 217.97
  C 215.52 217.00 214.76 216.07 215.76 214.93
  Q 216.08 214.57 216.09 214.10
  Q 216.17 210.47 216.84 206.90
  C 217.02 205.93 217.62 205.47 217.69 204.34
  Q 217.77 202.92 217.92 202.44
  Q 219.40 197.67 220.01 192.73
  Q 220.70 187.10 221.42 183.36
  Q 222.84 175.93 222.57 169.50
  Q 222.19 160.58 222.26 155.56
  C 222.30 153.01 221.74 150.10 221.92 147.33
  Q 222.01 145.81 221.61 144.22
  Q 221.22 142.68 221.12 141.09
  Q 220.96 138.55 220.47 136.48
  Q 219.46 132.20 219.62 126.27
  Q 219.72 122.94 217.06 119.44" stroke="#aeed5f"></path>
<path d="M 217.06 119.44
  Q 213.38 101.17 197.95 93.55
  Q 151.95 70.83 105.93 48.14
  C 84.03 37.34 59.67 52.46 57.59 76.20" stroke="#6e8d43"></path>
<path d="M 57.59 76.20
  Q 56.76 79.77 57.17 83.78
  A 2.36 2.36 0.0 0 1 56.04 86.04
  C 55.45 86.39 55.14 86.83 55.03 87.56
  Q 53.90 95.24 52.26 102.82
  C 51.10 108.17 50.90 113.95 50.15 118.75
  Q 49.31 124.13 49.24 127.75
  Q 49.24 127.88 49.11 127.88
  Q 48.98 127.88 48.86 127.88
  Q 48.72 127.88 48.71 128.02
  Q 48.32 133.23 47.74 138.42
  C 47.08 144.30 46.61 149.75 45.67 155.27
  C 45.11 158.57 44.67 163.54 43.17 167.64
  Q 43.12 167.76 43.17 167.86
  Q 43.22 167.98 43.33 168.08
  A 0.21 0.21 0.0 0 1 43.39 168.25
  L 41.71 181.30
  Q 41.65 181.74 41.81 182.16
  Q 42.00 182.68 41.97 183.26
  Q 41.77 187.12 41.64 190.99
  C 41.57 193.18 40.61 195.39 40.92 197.94
  Q 40.98 198.43 40.66 198.79
  Q 40.23 199.27 40.53 199.98
  Q 40.82 200.68 40.27 201.07
  A 0.77 0.77 0.0 0 0 39.94 201.57
  Q 39.72 202.82 39.99 204.04
  Q 40.08 204.42 39.89 204.77
  L 39.77 204.99
  Q 39.54 205.44 39.72 205.91
  Q 40.19 207.10 40.15 208.41
  Q 40.13 208.90 39.98 209.36
  C 39.61 210.46 40.22 211.10 40.35 211.90
  Q 41.02 216.29 40.38 219.12
  Q 39.91 221.18 40.32 222.79
  C 40.71 224.34 40.70 225.41 40.93 226.77
  Q 41.22 228.54 41.35 229.77
  Q 41.78 233.71 43.36 238.22" stroke="#aeed5f"></path>
<path d="M 217.06 119.44
  L 217.67 125.27" stroke="#65853d"></path>
<path d="M 217.67 125.27
  Q 217.65 135.86 212.76 144.71" stroke="#5c7d37"></path>
<path d="M 212.76 144.71
  Q 209.76 149.60 205.74 153.36" stroke="#547632"></path>
<path d="M 205.74 153.36
  Q 201.97 156.63 198.30 158.55
  Q 152.30 182.67 106.22 206.64
  Q 96.81 211.54 87.25 210.22
  Q 70.14 207.86 61.12 191.84" stroke="#4b6e2c"></path>
<path d="M 61.12 191.84
  Q 57.89 184.81 57.56 176.67" stroke="#547632"></path>
<path d="M 57.56 176.67
  L 57.46 111.97" stroke="#5c7d37"></path>
<path d="M 57.46 111.97
  L 57.59 76.20" stroke="#65853d"></path>
<path d="M 79.89 94.04
  L 79.80 108.54" stroke="#90898c"></path>
<path d="M 79.80 108.54
  L 79.78 124.47" stroke="#8d7b86"></path>
<path d="M 79.78 124.47
  L 79.85 163.36" stroke="#8b6e81"></path>
<path d="M 79.85 163.36
  Q 79.54 168.36 79.78 170.75
  C 80.77 180.67 89.40 187.97 99.17 187.19
  C 104.73 186.74 111.06 182.79 116.15 179.78" stroke="#834871"></path>
<path d="M 116.15 179.78
  L 124.58 175.32" stroke="#81516b"></path>
<path d="M 124.58 175.32
  L 145.77 163.90" stroke="#7d5e62"></path>
<path d="M 145.77 163.90
  L 150.92 161.09" stroke="#796a5a"></path>
<path d="M 150.92 161.09
  L 161.03 155.57" stroke="#777156"></path>
<path d="M 161.03 155.57
  L 171.95 149.74" stroke="#747a50"></path>
<path d="M 171.95 149.74
  L 178.37 146.27" stroke="#72814b"></path>
<path d="M 178.37 146.27
  C 184.73 143.49 190.06 140.06 192.29 133.74
  C 195.06 125.91 192.26 116.53 185.04 112.18
  Q 179.64 108.92 157.90 97.65" stroke="#6e8d43"></path>
<path d="M 157.90 97.65
  L 127.07 80.98" stroke="#7f9067"></path>
<path d="M 127.07 80.98
  L 111.22 72.46" stroke="#8b9180"></path>
<path d="M 111.22 72.46
  Q 106.46 69.61 104.53 68.91
  C 94.26 65.19 83.19 70.58 80.36 81.07
  Q 79.70 83.52 79.72 87.52
  Q 79.74 91.09 79.89 94.04" stroke="#90928c"></path>
<path d="M 111.22 72.46
  C 107.19 73.62 103.98 72.03 99.76 74.77
  Q 99.49 74.95 98.74 74.85
  A 0.74 0.74 0.0 0 0 97.99 75.26
  Q 97.64 75.99 96.82 76.14
  A 1.50 1.49 -71.7 0 0 96.07 76.52
  Q 85.32 86.27 91.35 100.06
  Q 92.42 102.51 95.99 105.23" stroke="#f6feea"></path>
<path d="M 95.99 105.23
  Q 96.26 106.10 96.05 106.63
  A 0.60 0.60 0.0 0 1 95.35 107.00
  Q 92.62 106.40 90.02 105.30
  C 88.87 104.81 88.32 103.96 87.29 103.36
  Q 85.79 102.50 85.27 101.95
  Q 82.34 98.91 79.89 94.04" stroke="#fbf5f7"></path>
<path d="M 112.25 113.99
  Q 100.69 125.74 87.77 117.76
  Q 87.31 117.48 86.58 116.85
  C 85.51 115.94 84.52 115.58 83.66 114.51
  Q 81.43 111.71 79.80 108.54" stroke="#f8dff1"></path>
<path d="M 127.07 80.98
  C 123.87 81.06 120.65 80.37 117.72 81.14
  Q 106.56 84.09 103.94 95.11
  C 102.73 100.19 104.38 106.06 107.75 109.99
  Q 108.74 111.13 109.53 112.57" stroke="#e4fcc5"></path>
<path d="M 109.53 112.57
  L 95.99 105.23" stroke="#f6f5eb"></path>
<path d="M 116.06 116.34
  L 115.99 125.08" stroke="#8d7b86"></path>
<path d="M 115.99 125.08
  Q 114.37 126.97 113.38 128.88
  Q 111.84 131.85 110.98 132.74
  Q 107.84 135.96 103.31 137.53
  A 8.99 8.75 -57.7 0 1 101.51 137.96
  Q 89.49 139.55 82.85 129.79
  Q 82.59 129.40 82.54 128.94
  Q 82.48 128.40 82.25 128.12
  A 3.52 0.64 50.0 0 1 80.74 125.47
  Q 80.86 124.88 79.78 124.47" stroke="#f3c4e6"></path>
<path d="M 157.90 97.65
  Q 148.76 95.93 142.45 99.79
  Q 137.81 102.64 135.21 109.03
  C 132.65 115.32 134.25 121.33 138.13 126.71" stroke="#c8f888"></path>
<path d="M 138.13 126.71
  Q 137.26 127.48 136.35 127.21" stroke="#d0db9b"></path>
<path d="M 136.35 127.21
  L 116.06 116.34" stroke="#7f9067"></path>
<path d="M 116.06 116.34
  L 112.25 113.99" stroke="#e7e6cc"></path>
<path d="M 112.25 113.99
  L 109.53 112.57" stroke="#eaf3d2"></path>
<path d="M 116.02 138.74
  L 108.70 142.70" stroke="#e2a7c2"></path>
<path d="M 108.70 142.70
  L 98.83 147.94" stroke="#e69acb"></path>
<path d="M 98.83 147.94
  Q 93.98 150.55 89.26 153.04
  Q 83.84 155.89 79.85 163.36" stroke="#e991d0"></path>
<path d="M 136.35 127.21
  Q 136.20 128.06 134.73 128.69" stroke="#777156"></path>
<path d="M 134.73 128.69
  L 127.53 132.73" stroke="#796a5a"></path>
<path d="M 127.53 132.73
  L 116.02 138.74" stroke="#7d5e62"></path>
<path d="M 116.02 138.74
  L 115.99 125.08" stroke="#8b6e81"></path>
<path d="M 150.92 161.09
  Q 151.13 159.81 152.52 158.74
  Q 152.93 158.43 153.12 157.95
  Q 154.40 154.83 155.70 151.72
  Q 156.51 149.76 155.60 144.04
  Q 154.93 139.84 153.36 137.76
  Q 152.16 136.16 147.42 131.80
  C 146.08 130.58 144.53 130.21 142.86 129.71
  C 140.36 128.97 137.51 129.48 134.73 128.69" stroke="#cbb58f"></path>
<path d="M 178.37 146.27
  Q 179.01 144.36 180.50 142.76
  Q 180.84 142.40 180.85 141.90
  Q 180.86 139.12 182.24 136.72
  Q 182.45 136.35 182.43 135.93
  L 182.07 128.19
  A 1.08 1.07 -66.5 0 0 181.83 127.57
  Q 180.70 126.23 180.02 124.68
  Q 178.37 120.93 174.99 118.75
  Q 174.87 118.67 174.87 118.53
  Q 174.87 118.39 174.87 118.25
  Q 174.87 118.03 174.68 117.93
  Q 173.46 117.29 172.29 116.57
  C 169.00 114.56 165.67 115.16 162.00 115.16
  C 158.96 115.16 156.79 116.74 154.32 118.28" stroke="#bbe96c"></path>
<path d="M 154.32 118.28
  L 144.41 123.47" stroke="#bde271"></path>
<path d="M 144.41 123.47
  L 138.13 126.71" stroke="#c0d977"></path>
<path d="M 116.15 179.78
  Q 121.48 172.85 120.56 163.74
  Q 120.52 163.28 120.33 162.87
  C 120.00 162.13 120.15 161.17 119.97 160.55
  C 119.33 158.34 118.04 156.76 116.88 154.61
  C 115.96 152.92 113.77 151.93 112.65 151.13
  C 108.34 148.04 103.71 149.00 98.83 147.94" stroke="#df74bb"></path>
<path d="M 124.58 175.32
  Q 126.01 172.89 127.36 170.46
  C 128.28 168.83 128.28 167.03 128.78 165.21
  C 129.63 162.08 129.23 159.75 129.07 156.70
  Q 129.04 156.15 128.57 155.84
  Q 128.03 155.49 128.12 154.80
  Q 128.16 154.42 127.89 154.14
  L 127.62 153.88
  Q 127.21 153.46 127.16 152.88
  Q 127.10 152.20 126.57 151.81
  Q 126.20 151.52 126.16 151.05
  C 126.04 149.64 124.41 149.04 123.65 147.87
  Q 123.02 146.90 121.92 146.84
  Q 121.46 146.82 121.16 146.46
  C 120.09 145.18 118.05 144.90 116.54 144.30
  C 114.03 143.31 111.35 143.47 108.70 142.70" stroke="#d889ac"></path>
<path d="M 145.77 163.90
  L 145.63 163.17
  Q 145.54 162.68 145.85 162.30
  C 146.55 161.45 146.58 160.56 147.47 159.88
  Q 147.86 159.59 148.07 159.14
  Q 152.11 150.35 148.41 142.69
  Q 145.59 136.88 139.96 134.41
  Q 134.66 132.09 127.53 132.73" stroke="#d1a29b"></path>
<path d="M 161.03 155.57
  Q 165.45 149.01 166.28 142.49
  C 166.42 141.36 165.88 139.81 165.98 138.31
  Q 166.04 137.47 165.50 136.92
  Q 165.21 136.61 165.09 136.20
  Q 164.92 135.60 164.96 135.00
  Q 165.00 134.50 164.75 134.07
  Q 163.90 132.65 163.11 131.19
  C 159.57 124.65 150.88 124.33 144.41 123.47" stroke="#c6c584"></path>
<path d="M 171.95 149.74
  Q 171.97 148.61 172.82 148.01
  A 1.22 1.20 78.7 0 0 173.30 147.28
  C 173.58 145.88 174.54 144.83 174.96 143.86
  Q 178.64 135.35 174.19 127.48
  C 172.00 123.60 167.11 119.82 162.76 118.97
  Q 160.56 118.54 154.32 118.28" stroke="#c1d679"></path>
<path d="M 57.46 111.97
  Q 57.23 115.21 57.12 118.46
  Q 57.01 121.58 56.20 124.86
  Q 54.82 130.41 54.64 134.26
  Q 54.10 145.52 53.50 156.79
  Q 52.79 169.92 51.45 183.00
  Q 50.75 189.77 52.36 210.24
  C 52.53 212.43 52.83 214.49 53.38 217.49
  Q 55.04 226.67 56.06 230.51
  A 0.80 0.78 8.4 0 0 56.44 231.01
  Q 56.92 231.30 56.82 231.78
  A 0.76 0.04 -78.4 0 0 56.72 232.45
  C 58.32 236.50 59.27 240.72 61.44 244.54
  Q 62.96 247.22 62.33 248.61" stroke="#9cdd53"></path>
<path d="M 57.56 176.67
  Q 57.10 179.41 56.63 182.00
  Q 56.30 183.86 56.92 190.14
  C 57.02 191.12 57.49 192.14 57.38 193.37
  Q 57.33 193.86 57.51 194.32
  C 58.82 197.55 59.05 201.41 59.73 204.15
  C 60.43 206.97 60.73 209.32 62.18 212.07
  Q 63.04 213.72 63.48 215.56
  A 0.82 0.78 20.5 0 0 63.63 215.87
  Q 63.75 216.04 63.95 216.10
  Q 64.35 216.23 64.53 216.59
  C 66.84 221.09 68.92 225.68 72.37 229.25
  Q 78.66 235.76 87.13 240.36
  Q 90.35 242.11 93.40 242.42
  Q 93.79 242.46 94.12 242.65
  Q 94.84 243.06 95.71 242.63
  A 0.66 0.63 -56.0 0 1 95.98 242.57
  L 103.31 242.51
  Q 103.81 242.50 104.25 242.75
  Q 104.64 242.96 105.01 242.87
  Q 108.74 241.91 115.38 239.42
  Q 117.71 238.55 119.68 238.73
  Q 119.81 238.74 119.88 238.63
  L 120.05 238.37
  Q 120.25 238.06 120.62 238.13
  Q 121.44 238.28 122.00 237.77
  Q 122.32 237.47 122.74 237.33
  Q 123.85 236.95 125.02 237.14
  A 0.76 0.76 0.0 0 0 125.69 236.93
  L 127.09 235.57
  Q 127.44 235.23 127.92 235.16
  Q 128.56 235.08 128.94 234.57
  Q 129.22 234.22 129.66 234.17
  Q 131.11 234.00 131.52 232.63
  A 0.88 0.88 0.0 0 1 132.82 232.13
  Q 133.59 232.59 133.93 231.63
  A 0.82 0.75 85.0 0 1 134.23 231.24
  L 137.02 229.42
  Q 137.38 229.19 137.56 228.81
  Q 137.94 228.06 138.91 228.12
  Q 139.41 228.14 139.72 227.76
  Q 140.35 227.01 141.35 226.87
  Q 141.87 226.80 141.93 226.29
  Q 142.04 225.41 142.78 225.15
  Q 143.26 224.99 143.61 224.63
  L 145.74 222.50
  A 1.18 1.17 20.4 0 1 146.49 222.16
  Q 147.85 222.04 148.14 220.71
  A 1.05 1.05 0.0 0 1 148.62 220.02
  Q 151.59 218.13 154.49 216.13
  C 156.54 214.71 157.89 212.59 159.86 210.90
  Q 159.97 210.81 160.36 210.32
  Q 160.81 209.76 161.61 209.77
  A 0.46 0.43 -65.1 0 0 161.91 209.65
  L 178.50 193.23
  A 0.43 0.41 19.7 0 1 178.77 193.11
  Q 179.88 192.98 180.09 191.95
  Q 180.18 191.50 180.45 191.14
  C 182.11 188.92 184.51 187.99 186.19 186.28
  C 189.38 183.03 192.32 181.11 194.42 178.12
  C 195.11 177.14 195.83 176.66 196.58 175.77
  Q 196.90 175.40 197.39 175.41
  Q 198.13 175.42 198.23 174.69
  A 0.99 0.97 -9.2 0 1 198.78 173.94
  Q 199.60 173.56 199.90 172.74
  Q 200.08 172.25 200.46 171.88
  C 201.46 170.92 202.98 170.20 203.29 168.70
  C 203.61 167.12 204.50 166.04 205.35 164.80
  Q 205.62 164.41 205.62 163.93
  Q 205.62 163.25 206.27 162.75
  Q 206.66 162.45 206.66 161.95
  Q 206.64 160.48 207.67 159.61
  Q 208.07 159.26 208.28 158.77
  Q 209.95 154.82 211.78 150.94
  Q 211.87 150.75 211.87 150.56
  Q 211.87 150.36 211.87 150.17
  Q 211.87 149.67 212.15 149.27
  Q 213.60 147.14 212.76 144.71" stroke="#8acd47"></path>
<path d="M 217.67 125.27
  Q 218.57 132.92 218.26 140.83
  Q 218.18 142.82 218.24 144.92
  C 218.33 148.10 217.56 150.40 217.56 152.79
  Q 217.56 153.28 217.38 153.74
  C 216.66 155.63 217.25 157.37 216.85 159.13
  Q 214.91 167.76 212.38 176.25
  C 211.95 177.71 210.78 179.47 210.19 181.16
  C 209.04 184.45 207.04 187.76 205.92 190.52
  Q 204.72 193.46 203.59 196.43
  C 202.82 198.43 201.33 200.23 200.39 202.29
  C 198.79 205.79 197.55 207.92 196.04 210.77
  Q 195.90 211.02 195.88 211.33
  Q 195.84 211.77 195.49 212.03
  Q 194.88 212.47 195.29 213.03
  Q 195.59 213.44 195.12 213.63
  Q 194.89 213.72 194.66 213.83
  Q 194.29 214.01 194.05 214.38
  Q 192.92 216.08 192.19 218.03
  A 1.04 1.03 -89.3 0 1 191.57 218.64
  Q 190.91 218.87 190.81 219.57
  Q 190.73 220.12 190.36 220.53
  L 189.55 221.46
  Q 189.26 221.79 189.35 222.23
  Q 189.44 222.68 189.10 223.00
  Q 188.78 223.30 188.71 223.73
  L 188.50 224.94
  Q 188.41 225.42 188.08 225.78
  Q 186.72 227.22 186.66 229.24
  Q 186.65 229.73 186.35 230.12
  C 185.09 231.76 183.33 232.73 182.89 234.99
  Q 182.79 235.49 182.41 235.84
  Q 181.78 236.42 181.62 237.29
  Q 181.55 237.69 181.25 237.97
  Q 180.83 238.37 180.86 238.87
  Q 180.90 239.46 180.48 239.88
  L 178.20 242.19
  A 0.83 0.80 -19.0 0 0 177.97 242.64
  L 177.61 244.63
  Q 177.54 245.05 177.23 244.75
  Q 177.03 244.55 177.11 244.26
  A 0.31 0.31 0.0 0 0 176.77 243.87
  Q 175.83 243.98 175.76 244.99
  Q 175.74 245.24 175.93 245.40
  Q 176.04 245.49 176.15 245.56
  A 0.08 0.08 0.0 0 1 176.11 245.71
  Q 174.04 245.75 172.94 247.51
  Q 172.69 247.90 172.84 248.34
  Q 173.29 249.70 172.16 250.10
  A 0.42 0.41 79.9 0 0 171.89 250.49
  L 171.89 251.25
  Q 171.89 251.89 171.25 251.89
  L 170.90 251.89
  Q 170.43 251.89 170.08 252.20
  Q 167.84 254.13 168.65 255.20" stroke="#9cdd53"></path>
<path d="M 61.12 191.84
  Q 61.69 199.09 65.32 205.75
  C 65.66 206.39 66.31 206.85 66.57 207.77
  C 67.29 210.33 69.63 212.11 70.92 213.96
  C 72.09 215.64 75.12 219.73 77.37 220.58
  Q 77.66 220.69 77.89 220.91
  Q 79.90 222.78 82.33 224.05
  C 83.01 224.41 83.72 225.27 84.77 225.36
  Q 85.25 225.40 85.65 225.66
  Q 87.05 226.54 88.66 226.37
  Q 89.15 226.32 89.50 226.68
  C 90.84 228.09 92.20 226.65 93.41 227.88
  Q 93.72 228.20 94.17 228.18
  L 99.88 227.93
  Q 100.39 227.91 100.79 227.59
  Q 101.80 226.78 103.17 227.21
  A 1.41 1.36 -43.9 0 0 104.00 227.21
  Q 106.23 226.52 108.45 225.78
  C 110.45 225.11 112.24 223.60 114.36 222.77
  Q 114.83 222.59 114.86 222.09
  Q 114.89 221.71 115.26 221.50
  Q 115.86 221.18 116.24 221.12
  Q 117.21 220.98 117.90 220.38
  A 1.11 1.11 0.0 0 1 118.77 220.13
  Q 119.41 220.22 119.76 219.74
  Q 120.06 219.34 120.56 219.37
  Q 121.17 219.41 121.50 219.26
  Q 124.31 218.00 128.80 215.47
  C 129.54 215.06 130.06 214.22 130.93 213.89
  Q 131.35 213.73 131.71 213.46
  L 137.88 208.74
  Q 138.30 208.43 138.81 208.30
  C 140.05 207.97 141.02 206.27 141.91 206.36
  Q 142.36 206.40 142.73 206.13
  L 159.98 193.24
  Q 160.13 193.14 160.12 192.95
  Q 160.12 192.75 160.13 192.53
  Q 160.14 192.13 160.53 192.19
  Q 161.34 192.29 161.80 191.69
  Q 162.07 191.31 162.49 191.11
  Q 165.11 189.83 166.84 187.48
  Q 167.10 187.13 167.53 187.07
  Q 168.65 186.91 169.03 185.93
  Q 169.23 185.41 169.76 185.25
  Q 172.46 184.45 173.02 183.75
  Q 175.90 180.17 180.17 178.57
  A 1.46 1.44 -83.8 0 0 180.88 177.99
  Q 181.90 176.39 183.67 175.85
  Q 184.11 175.71 184.38 175.33
  L 184.82 174.72
  Q 185.09 174.35 185.53 174.26
  C 187.63 173.79 190.59 171.29 192.13 169.79
  Q 192.49 169.44 192.96 169.27
  Q 194.59 168.71 195.33 167.04
  Q 195.54 166.55 195.98 166.24
  C 199.66 163.67 201.91 160.45 204.73 156.98
  Q 206.18 155.20 205.74 153.36" stroke="#79be3c"></path>
</g>
<path d="M 95.39 0.00
  L 160.75 0.00
  C 213.18 3.40 252.79 43.18 256.00 95.62
  L 256.00 160.75
  C 253.96 192.01 239.43 218.87 214.10 237.37
  Q 214.25 234.53 215.34 232.32
  Q 215.41 232.19 215.45 231.37
  Q 215.50 230.34 214.75 229.60
  Q 214.57 229.43 214.74 229.25
  L 215.30 228.70
  Q 215.56 228.43 215.66 228.07
  Q 215.84 227.39 215.36 226.85
  Q 215.02 226.48 215.38 226.12
  L 215.63 225.87
  Q 216.15 225.35 215.45 225.12
  Q 215.06 224.99 215.10 224.62
  Q 215.14 224.29 214.87 224.08
  Q 214.09 223.50 214.11 222.62
  Q 214.11 222.29 214.38 222.10
  L 214.76 221.83
  Q 215.17 221.52 214.86 221.11
  Q 214.77 221.00 214.65 220.94
  Q 214.06 220.68 214.47 220.18
  Q 215.27 219.22 215.41 217.97
  C 215.52 217.00 214.76 216.07 215.76 214.93
  Q 216.08 214.57 216.09 214.10
  Q 216.17 210.47 216.84 206.90
  C 217.02 205.93 217.62 205.47 217.69 204.34
  Q 217.77 202.92 217.92 202.44
  Q 219.40 197.67 220.01 192.73
  Q 220.70 187.10 221.42 183.36
  Q 222.84 175.93 222.57 169.50
  Q 222.19 160.58 222.26 155.56
  C 222.30 153.01 221.74 150.10 221.92 147.33
  Q 222.01 145.81 221.61 144.22
  Q 221.22 142.68 221.12 141.09
  Q 220.96 138.55 220.47 136.48
  Q 219.46 132.20 219.62 126.27
  Q 219.72 122.94 217.06 119.44
  Q 213.38 101.17 197.95 93.55
  Q 151.95 70.83 105.93 48.14
  C 84.03 37.34 59.67 52.46 57.59 76.20
  Q 56.76 79.77 57.17 83.78
  A 2.36 2.36 0.0 0 1 56.04 86.04
  C 55.45 86.39 55.14 86.83 55.03 87.56
  Q 53.90 95.24 52.26 102.82
  C 51.10 108.17 50.90 113.95 50.15 118.75
  Q 49.31 124.13 49.24 127.75
  Q 49.24 127.88 49.11 127.88
  Q 48.98 127.88 48.86 127.88
  Q 48.72 127.88 48.71 128.02
  Q 48.32 133.23 47.74 138.42
  C 47.08 144.30 46.61 149.75 45.67 155.27
  C 45.11 158.57 44.67 163.54 43.17 167.64
  Q 43.12 167.76 43.17 167.86
  Q 43.22 167.98 43.33 168.08
  A 0.21 0.21 0.0 0 1 43.39 168.25
  L 41.71 181.30
  Q 41.65 181.74 41.81 182.16
  Q 42.00 182.68 41.97 183.26
  Q 41.77 187.12 41.64 190.99
  C 41.57 193.18 40.61 195.39 40.92 197.94
  Q 40.98 198.43 40.66 198.79
  Q 40.23 199.27 40.53 199.98
  Q 40.82 200.68 40.27 201.07
  A 0.77 0.77 0.0 0 0 39.94 201.57
  Q 39.72 202.82 39.99 204.04
  Q 40.08 204.42 39.89 204.77
  L 39.77 204.99
  Q 39.54 205.44 39.72 205.91
  Q 40.19 207.10 40.15 208.41
  Q 40.13 208.90 39.98 209.36
  C 39.61 210.46 40.22 211.10 40.35 211.90
  Q 41.02 216.29 40.38 219.12
  Q 39.91 221.18 40.32 222.79
  C 40.71 224.34 40.70 225.41 40.93 226.77
  Q 41.22 228.54 41.35 229.77
  Q 41.78 233.71 43.36 238.22
  Q 42.99 238.03 42.80 237.95
  A 1.44 0.15 21.8 0 1 42.10 237.58
  Q 3.51 209.12 0.00 160.62
  L 0.00 95.25
  Q 3.69 45.25 43.50 17.46
  Q 66.02 1.73 95.39 0.00
  Z" fill="#b7f564"></path>
<path d="M 217.06 119.44
  L 217.67 125.27
  Q 217.65 135.86 212.76 144.71
  Q 209.76 149.60 205.74 153.36
  Q 201.97 156.63 198.30 158.55
  Q 152.30 182.67 106.22 206.64
  Q 96.81 211.54 87.25 210.22
  Q 70.14 207.86 61.12 191.84
  Q 57.89 184.81 57.56 176.67
  L 57.46 111.97
  L 57.59 76.20
  C 59.67 52.46 84.03 37.34 105.93 48.14
  Q 151.95 70.83 197.95 93.55
  Q 213.38 101.17 217.06 119.44
  Z
  M 79.89 94.04
  L 79.80 108.54
  L 79.78 124.47
  L 79.85 163.36
  Q 79.54 168.36 79.78 170.75
  C 80.77 180.67 89.40 187.97 99.17 187.19
  C 104.73 186.74 111.06 182.79 116.15 179.78
  L 124.58 175.32
  L 145.77 163.90
  L 150.92 161.09
  L 161.03 155.57
  L 171.95 149.74
  L 178.37 146.27
  C 184.73 143.49 190.06 140.06 192.29 133.74
  C 195.06 125.91 192.26 116.53 185.04 112.18
  Q 179.64 108.92 157.90 97.65
  L 127.07 80.98
  L 111.22 72.46
  Q 106.46 69.61 104.53 68.91
  C 94.26 65.19 83.19 70.58 80.36 81.07
  Q 79.70 83.52 79.72 87.52
  Q 79.74 91.09 79.89 94.04
  Z" fill="#252521"></path>
<path d="M 111.22 72.46
  C 107.19 73.62 103.98 72.03 99.76 74.77
  Q 99.49 74.95 98.74 74.85
  A 0.74 0.74 0.0 0 0 97.99 75.26
  Q 97.64 75.99 96.82 76.14
  A 1.50 1.49 -71.7 0 0 96.07 76.52
  Q 85.32 86.27 91.35 100.06
  Q 92.42 102.51 95.99 105.23
  Q 96.26 106.10 96.05 106.63
  A 0.60 0.60 0.0 0 1 95.35 107.00
  Q 92.62 106.40 90.02 105.30
  C 88.87 104.81 88.32 103.96 87.29 103.36
  Q 85.79 102.50 85.27 101.95
  Q 82.34 98.91 79.89 94.04
  Q 79.74 91.09 79.72 87.52
  Q 79.70 83.52 80.36 81.07
  C 83.19 70.58 94.26 65.19 104.53 68.91
  Q 106.46 69.61 111.22 72.46
  Z" fill="#fbfef6"></path>
<path d="M 111.22 72.46
  L 127.07 80.98
  C 123.87 81.06 120.65 80.37 117.72 81.14
  Q 106.56 84.09 103.94 95.11
  C 102.73 100.19 104.38 106.06 107.75 109.99
  Q 108.74 111.13 109.53 112.57
  L 95.99 105.23
  Q 92.42 102.51 91.35 100.06
  Q 85.32 86.27 96.07 76.52
  A 1.50 1.49 -71.7 0 1 96.82 76.14
  Q 97.64 75.99 97.99 75.26
  A 0.74 0.74 0.0 0 1 98.74 74.85
  Q 99.49 74.95 99.76 74.77
  C 103.98 72.03 107.19 73.62 111.22 72.46
  Z" fill="#f0fdde"></path>
<path d="M 57.59 76.20
  L 57.46 111.97
  Q 57.23 115.21 57.12 118.46
  Q 57.01 121.58 56.20 124.86
  Q 54.82 130.41 54.64 134.26
  Q 54.10 145.52 53.50 156.79
  Q 52.79 169.92 51.45 183.00
  Q 50.75 189.77 52.36 210.24
  C 52.53 212.43 52.83 214.49 53.38 217.49
  Q 55.04 226.67 56.06 230.51
  A 0.80 0.78 8.4 0 0 56.44 231.01
  Q 56.92 231.30 56.82 231.78
  A 0.76 0.04 -78.4 0 0 56.72 232.45
  C 58.32 236.50 59.27 240.72 61.44 244.54
  Q 62.96 247.22 62.33 248.61
  Q 51.42 244.26 43.36 238.22
  Q 41.78 233.71 41.35 229.77
  Q 41.22 228.54 40.93 226.77
  C 40.70 225.41 40.71 224.34 40.32 222.79
  Q 39.91 221.18 40.38 219.12
  Q 41.02 216.29 40.35 211.90
  C 40.22 211.10 39.61 210.46 39.98 209.36
  Q 40.13 208.90 40.15 208.41
  Q 40.19 207.10 39.72 205.91
  Q 39.54 205.44 39.77 204.99
  L 39.89 204.77
  Q 40.08 204.42 39.99 204.04
  Q 39.72 202.82 39.94 201.57
  A 0.77 0.77 0.0 0 1 40.27 201.07
  Q 40.82 200.68 40.53 199.98
  Q 40.23 199.27 40.66 198.79
  Q 40.98 198.43 40.92 197.94
  C 40.61 195.39 41.57 193.18 41.64 190.99
  Q 41.77 187.12 41.97 183.26
  Q 42.00 182.68 41.81 182.16
  Q 41.65 181.74 41.71 181.30
  L 43.39 168.25
  A 0.21 0.21 0.0 0 0 43.33 168.08
  Q 43.22 167.98 43.17 167.86
  Q 43.12 167.76 43.17 167.64
  C 44.67 163.54 45.11 158.57 45.67 155.27
  C 46.61 149.75 47.08 144.30 47.74 138.42
  Q 48.32 133.23 48.71 128.02
  Q 48.72 127.88 48.86 127.88
  Q 48.98 127.88 49.11 127.88
  Q 49.24 127.88 49.24 127.75
  Q 49.31 124.13 50.15 118.75
  C 50.90 113.95 51.10 108.17 52.26 102.82
  Q 53.90 95.24 55.03 87.56
  C 55.14 86.83 55.45 86.39 56.04 86.04
  A 2.36 2.36 0.0 0 0 57.17 83.78
  Q 56.76 79.77 57.59 76.20
  Z" fill="#a5e559"></path>
<path d="M 127.07 80.98
  L 157.90 97.65
  Q 148.76 95.93 142.45 99.79
  Q 137.81 102.64 135.21 109.03
  C 132.65 115.32 134.25 121.33 138.13 126.71
  Q 137.26 127.48 136.35 127.21
  L 116.06 116.34
  L 112.25 113.99
  L 109.53 112.57
  Q 108.74 111.13 107.75 109.99
  C 104.38 106.06 102.73 100.19 103.94 95.11
  Q 106.56 84.09 117.72 81.14
  C 120.65 80.37 123.87 81.06 127.07 80.98
  Z" fill="#d8faac"></path>
<path d="M 79.89 94.04
  Q 82.34 98.91 85.27 101.95
  Q 85.79 102.50 87.29 103.36
  C 88.32 103.96 88.87 104.81 90.02 105.30
  Q 92.62 106.40 95.35 107.00
  A 0.60 0.60 0.0 0 0 96.05 106.63
  Q 96.26 106.10 95.99 105.23
  L 109.53 112.57
  L 112.25 113.99
  Q 100.69 125.74 87.77 117.76
  Q 87.31 117.48 86.58 116.85
  C 85.51 115.94 84.52 115.58 83.66 114.51
  Q 81.43 111.71 79.80 108.54
  L 79.89 94.04
  Z" fill="#fbecf7"></path>
<path d="M 157.90 97.65
  Q 179.64 108.92 185.04 112.18
  C 192.26 116.53 195.06 125.91 192.29 133.74
  C 190.06 140.06 184.73 143.49 178.37 146.27
  Q 179.01 144.36 180.50 142.76
  Q 180.84 142.40 180.85 141.90
  Q 180.86 139.12 182.24 136.72
  Q 182.45 136.35 182.43 135.93
  L 182.07 128.19
  A 1.08 1.07 -66.5 0 0 181.83 127.57
  Q 180.70 126.23 180.02 124.68
  Q 178.37 120.93 174.99 118.75
  Q 174.87 118.67 174.87 118.53
  Q 174.87 118.39 174.87 118.25
  Q 174.87 118.03 174.68 117.93
  Q 173.46 117.29 172.29 116.57
  C 169.00 114.56 165.67 115.16 162.00 115.16
  C 158.96 115.16 156.79 116.74 154.32 118.28
  L 144.41 123.47
  L 138.13 126.71
  C 134.25 121.33 132.65 115.32 135.21 109.03
  Q 137.81 102.64 142.45 99.79
  Q 148.76 95.93 157.90 97.65
  Z" fill="#b7f564"></path>
<path d="M 79.80 108.54
  Q 81.43 111.71 83.66 114.51
  C 84.52 115.58 85.51 115.94 86.58 116.85
  Q 87.31 117.48 87.77 117.76
  Q 100.69 125.74 112.25 113.99
  L 116.06 116.34
  L 115.99 125.08
  Q 114.37 126.97 113.38 128.88
  Q 111.84 131.85 110.98 132.74
  Q 107.84 135.96 103.31 137.53
  A 8.99 8.75 -57.7 0 1 101.51 137.96
  Q 89.49 139.55 82.85 129.79
  Q 82.59 129.40 82.54 128.94
  Q 82.48 128.40 82.25 128.12
  A 3.52 0.64 50.0 0 1 80.74 125.47
  Q 80.86 124.88 79.78 124.47
  L 79.80 108.54
  Z" fill="#f5d1eb"></path>
<path d="M 57.46 111.97
  L 57.56 176.67
  Q 57.10 179.41 56.63 182.00
  Q 56.30 183.86 56.92 190.14
  C 57.02 191.12 57.49 192.14 57.38 193.37
  Q 57.33 193.86 57.51 194.32
  C 58.82 197.55 59.05 201.41 59.73 204.15
  C 60.43 206.97 60.73 209.32 62.18 212.07
  Q 63.04 213.72 63.48 215.56
  A 0.82 0.78 20.5 0 0 63.63 215.87
  Q 63.75 216.04 63.95 216.10
  Q 64.35 216.23 64.53 216.59
  C 66.84 221.09 68.92 225.68 72.37 229.25
  Q 78.66 235.76 87.13 240.36
  Q 90.35 242.11 93.40 242.42
  Q 93.79 242.46 94.12 242.65
  Q 94.84 243.06 95.71 242.63
  A 0.66 0.63 -56.0 0 1 95.98 242.57
  L 103.31 242.51
  Q 103.81 242.50 104.25 242.75
  Q 104.64 242.96 105.01 242.87
  Q 108.74 241.91 115.38 239.42
  Q 117.71 238.55 119.68 238.73
  Q 119.81 238.74 119.88 238.63
  L 120.05 238.37
  Q 120.25 238.06 120.62 238.13
  Q 121.44 238.28 122.00 237.77
  Q 122.32 237.47 122.74 237.33
  Q 123.85 236.95 125.02 237.14
  A 0.76 0.76 0.0 0 0 125.69 236.93
  L 127.09 235.57
  Q 127.44 235.23 127.92 235.16
  Q 128.56 235.08 128.94 234.57
  Q 129.22 234.22 129.66 234.17
  Q 131.11 234.00 131.52 232.63
  A 0.88 0.88 0.0 0 1 132.82 232.13
  Q 133.59 232.59 133.93 231.63
  A 0.82 0.75 85.0 0 1 134.23 231.24
  L 137.02 229.42
  Q 137.38 229.19 137.56 228.81
  Q 137.94 228.06 138.91 228.12
  Q 139.41 228.14 139.72 227.76
  Q 140.35 227.01 141.35 226.87
  Q 141.87 226.80 141.93 226.29
  Q 142.04 225.41 142.78 225.15
  Q 143.26 224.99 143.61 224.63
  L 145.74 222.50
  A 1.18 1.17 20.4 0 1 146.49 222.16
  Q 147.85 222.04 148.14 220.71
  A 1.05 1.05 0.0 0 1 148.62 220.02
  Q 151.59 218.13 154.49 216.13
  C 156.54 214.71 157.89 212.59 159.86 210.90
  Q 159.97 210.81 160.36 210.32
  Q 160.81 209.76 161.61 209.77
  A 0.46 0.43 -65.1 0 0 161.91 209.65
  L 178.50 193.23
  A 0.43 0.41 19.7 0 1 178.77 193.11
  Q 179.88 192.98 180.09 191.95
  Q 180.18 191.50 180.45 191.14
  C 182.11 188.92 184.51 187.99 186.19 186.28
  C 189.38 183.03 192.32 181.11 194.42 178.12
  C 195.11 177.14 195.83 176.66 196.58 175.77
  Q 196.90 175.40 197.39 175.41
  Q 198.13 175.42 198.23 174.69
  A 0.99 0.97 -9.2 0 1 198.78 173.94
  Q 199.60 173.56 199.90 172.74
  Q 200.08 172.25 200.46 171.88
  C 201.46 170.92 202.98 170.20 203.29 168.70
  C 203.61 167.12 204.50 166.04 205.35 164.80
  Q 205.62 164.41 205.62 163.93
  Q 205.62 163.25 206.27 162.75
  Q 206.66 162.45 206.66 161.95
  Q 206.64 160.48 207.67 159.61
  Q 208.07 159.26 208.28 158.77
  Q 209.95 154.82 211.78 150.94
  Q 211.87 150.75 211.87 150.56
  Q 211.87 150.36 211.87 150.17
  Q 211.87 149.67 212.15 149.27
  Q 213.60 147.14 212.76 144.71
  Q 217.65 135.86 217.67 125.27
  Q 218.57 132.92 218.26 140.83
  Q 218.18 142.82 218.24 144.92
  C 218.33 148.10 217.56 150.40 217.56 152.79
  Q 217.56 153.28 217.38 153.74
  C 216.66 155.63 217.25 157.37 216.85 159.13
  Q 214.91 167.76 212.38 176.25
  C 211.95 177.71 210.78 179.47 210.19 181.16
  C 209.04 184.45 207.04 187.76 205.92 190.52
  Q 204.72 193.46 203.59 196.43
  C 202.82 198.43 201.33 200.23 200.39 202.29
  C 198.79 205.79 197.55 207.92 196.04 210.77
  Q 195.90 211.02 195.88 211.33
  Q 195.84 211.77 195.49 212.03
  Q 194.88 212.47 195.29 213.03
  Q 195.59 213.44 195.12 213.63
  Q 194.89 213.72 194.66 213.83
  Q 194.29 214.01 194.05 214.38
  Q 192.92 216.08 192.19 218.03
  A 1.04 1.03 -89.3 0 1 191.57 218.64
  Q 190.91 218.87 190.81 219.57
  Q 190.73 220.12 190.36 220.53
  L 189.55 221.46
  Q 189.26 221.79 189.35 222.23
  Q 189.44 222.68 189.10 223.00
  Q 188.78 223.30 188.71 223.73
  L 188.50 224.94
  Q 188.41 225.42 188.08 225.78
  Q 186.72 227.22 186.66 229.24
  Q 186.65 229.73 186.35 230.12
  C 185.09 231.76 183.33 232.73 182.89 234.99
  Q 182.79 235.49 182.41 235.84
  Q 181.78 236.42 181.62 237.29
  Q 181.55 237.69 181.25 237.97
  Q 180.83 238.37 180.86 238.87
  Q 180.90 239.46 180.48 239.88
  L 178.20 242.19
  A 0.83 0.80 -19.0 0 0 177.97 242.64
  L 177.61 244.63
  Q 177.54 245.05 177.23 244.75
  Q 177.03 244.55 177.11 244.26
  A 0.31 0.31 0.0 0 0 176.77 243.87
  Q 175.83 243.98 175.76 244.99
  Q 175.74 245.24 175.93 245.40
  Q 176.04 245.49 176.15 245.56
  A 0.08 0.08 0.0 0 1 176.11 245.71
  Q 174.04 245.75 172.94 247.51
  Q 172.69 247.90 172.84 248.34
  Q 173.29 249.70 172.16 250.10
  A 0.42 0.41 79.9 0 0 171.89 250.49
  L 171.89 251.25
  Q 171.89 251.89 171.25 251.89
  L 170.90 251.89
  Q 170.43 251.89 170.08 252.20
  Q 167.84 254.13 168.65 255.20
  L 160.37 256.00
  L 94.75 256.00
  Q 91.39 255.55 88.01 255.17
  Q 74.47 253.63 62.33 248.61
  Q 62.96 247.22 61.44 244.54
  C 59.27 240.72 58.32 236.50 56.72 232.45
  A 0.76 0.04 -78.4 0 1 56.82 231.78
  Q 56.92 231.30 56.44 231.01
  A 0.80 0.78 8.4 0 1 56.06 230.51
  Q 55.04 226.67 53.38 217.49
  C 52.83 214.49 52.53 212.43 52.36 210.24
  Q 50.75 189.77 51.45 183.00
  Q 52.79 169.92 53.50 156.79
  Q 54.10 145.52 54.64 134.26
  Q 54.82 130.41 56.20 124.86
  Q 57.01 121.58 57.12 118.46
  Q 57.23 115.21 57.46 111.97
  Z" fill="#92d44c"></path>
<path d="M 178.37 146.27
  L 171.95 149.74
  Q 171.97 148.61 172.82 148.01
  A 1.22 1.20 78.7 0 0 173.30 147.28
  C 173.58 145.88 174.54 144.83 174.96 143.86
  Q 178.64 135.35 174.19 127.48
  C 172.00 123.60 167.11 119.82 162.76 118.97
  Q 160.56 118.54 154.32 118.28
  C 156.79 116.74 158.96 115.16 162.00 115.16
  C 165.67 115.16 169.00 114.56 172.29 116.57
  Q 173.46 117.29 174.68 117.93
  Q 174.87 118.03 174.87 118.25
  Q 174.87 118.39 174.87 118.53
  Q 174.87 118.67 174.99 118.75
  Q 178.37 120.93 180.02 124.68
  Q 180.70 126.23 181.83 127.57
  A 1.08 1.07 -66.5 0 1 182.07 128.19
  L 182.43 135.93
  Q 182.45 136.35 182.24 136.72
  Q 180.86 139.12 180.85 141.90
  Q 180.84 142.40 180.50 142.76
  Q 179.01 144.36 178.37 146.27
  Z" fill="#bedd74"></path>
<path d="M 116.06 116.34
  L 136.35 127.21
  Q 136.20 128.06 134.73 128.69
  L 127.53 132.73
  L 116.02 138.74
  L 115.99 125.08
  L 116.06 116.34
  Z" fill="#252521"></path>
<path d="M 154.32 118.28
  Q 160.56 118.54 162.76 118.97
  C 167.11 119.82 172.00 123.60 174.19 127.48
  Q 178.64 135.35 174.96 143.86
  C 174.54 144.83 173.58 145.88 173.30 147.28
  A 1.22 1.20 78.7 0 1 172.82 148.01
  Q 171.97 148.61 171.95 149.74
  L 161.03 155.57
  Q 165.45 149.01 166.28 142.49
  C 166.42 141.36 165.88 139.81 165.98 138.31
  Q 166.04 137.47 165.50 136.92
  Q 165.21 136.61 165.09 136.20
  Q 164.92 135.60 164.96 135.00
  Q 165.00 134.50 164.75 134.07
  Q 163.90 132.65 163.11 131.19
  C 159.57 124.65 150.88 124.33 144.41 123.47
  L 154.32 118.28
  Z" fill="#c3ce7e"></path>
<path d="M 217.06 119.44
  Q 219.72 122.94 219.62 126.27
  Q 219.46 132.20 220.47 136.48
  Q 220.96 138.55 221.12 141.09
  Q 221.22 142.68 221.61 144.22
  Q 222.01 145.81 221.92 147.33
  C 221.74 150.10 222.30 153.01 222.26 155.56
  Q 222.19 160.58 222.57 169.50
  Q 222.84 175.93 221.42 183.36
  Q 220.70 187.10 220.01 192.73
  Q 219.40 197.67 217.92 202.44
  Q 217.77 202.92 217.69 204.34
  C 217.62 205.47 217.02 205.93 216.84 206.90
  Q 216.17 210.47 216.09 214.10
  Q 216.08 214.57 215.76 214.93
  C 214.76 216.07 215.52 217.00 215.41 217.97
  Q 215.27 219.22 214.47 220.18
  Q 214.06 220.68 214.65 220.94
  Q 214.77 221.00 214.86 221.11
  Q 215.17 221.52 214.76 221.83
  L 214.38 222.10
  Q 214.11 222.29 214.11 222.62
  Q 214.09 223.50 214.87 224.08
  Q 215.14 224.29 215.10 224.62
  Q 215.06 224.99 215.45 225.12
  Q 216.15 225.35 215.63 225.87
  L 215.38 226.12
  Q 215.02 226.48 215.36 226.85
  Q 215.84 227.39 215.66 228.07
  Q 215.56 228.43 215.30 228.70
  L 214.74 229.25
  Q 214.57 229.43 214.75 229.60
  Q 215.50 230.34 215.45 231.37
  Q 215.41 232.19 215.34 232.32
  Q 214.25 234.53 214.10 237.37
  Q 193.81 251.83 168.65 255.20
  Q 167.84 254.13 170.08 252.20
  Q 170.43 251.89 170.90 251.89
  L 171.25 251.89
  Q 171.89 251.89 171.89 251.25
  L 171.89 250.49
  A 0.42 0.41 79.9 0 1 172.16 250.10
  Q 173.29 249.70 172.84 248.34
  Q 172.69 247.90 172.94 247.51
  Q 174.04 245.75 176.11 245.71
  A 0.08 0.08 0.0 0 0 176.15 245.56
  Q 176.04 245.49 175.93 245.40
  Q 175.74 245.24 175.76 244.99
  Q 175.83 243.98 176.77 243.87
  A 0.31 0.31 0.0 0 1 177.11 244.26
  Q 177.03 244.55 177.23 244.75
  Q 177.54 245.05 177.61 244.63
  L 177.97 242.64
  A 0.83 0.80 -19.0 0 1 178.20 242.19
  L 180.48 239.88
  Q 180.90 239.46 180.86 238.87
  Q 180.83 238.37 181.25 237.97
  Q 181.55 237.69 181.62 237.29
  Q 181.78 236.42 182.41 235.84
  Q 182.79 235.49 182.89 234.99
  C 183.33 232.73 185.09 231.76 186.35 230.12
  Q 186.65 229.73 186.66 229.24
  Q 186.72 227.22 188.08 225.78
  Q 188.41 225.42 188.50 224.94
  L 188.71 223.73
  Q 188.78 223.30 189.10 223.00
  Q 189.44 222.68 189.35 222.23
  Q 189.26 221.79 189.55 221.46
  L 190.36 220.53
  Q 190.73 220.12 190.81 219.57
  Q 190.91 218.87 191.57 218.64
  A 1.04 1.03 -89.3 0 0 192.19 218.03
  Q 192.92 216.08 194.05 214.38
  Q 194.29 214.01 194.66 213.83
  Q 194.89 213.72 195.12 213.63
  Q 195.59 213.44 195.29 213.03
  Q 194.88 212.47 195.49 212.03
  Q 195.84 211.77 195.88 211.33
  Q 195.90 211.02 196.04 210.77
  C 197.55 207.92 198.79 205.79 200.39 202.29
  C 201.33 200.23 202.82 198.43 203.59 196.43
  Q 204.72 193.46 205.92 190.52
  C 207.04 187.76 209.04 184.45 210.19 181.16
  C 210.78 179.47 211.95 177.71 212.38 176.25
  Q 214.91 167.76 216.85 159.13
  C 217.25 157.37 216.66 155.63 217.38 153.74
  Q 217.56 153.28 217.56 152.79
  C 217.56 150.40 218.33 148.10 218.24 144.92
  Q 218.18 142.82 218.26 140.83
  Q 218.57 132.92 217.67 125.27
  L 217.06 119.44
  Z" fill="#a5e559"></path>
<path d="M 144.41 123.47
  C 150.88 124.33 159.57 124.65 163.11 131.19
  Q 163.90 132.65 164.75 134.07
  Q 165.00 134.50 164.96 135.00
  Q 164.92 135.60 165.09 136.20
  Q 165.21 136.61 165.50 136.92
  Q 166.04 137.47 165.98 138.31
  C 165.88 139.81 166.42 141.36 166.28 142.49
  Q 165.45 149.01 161.03 155.57
  L 150.92 161.09
  Q 151.13 159.81 152.52 158.74
  Q 152.93 158.43 153.12 157.95
  Q 154.40 154.83 155.70 151.72
  Q 156.51 149.76 155.60 144.04
  Q 154.93 139.84 153.36 137.76
  Q 152.16 136.16 147.42 131.80
  C 146.08 130.58 144.53 130.21 142.86 129.71
  C 140.36 128.97 137.51 129.48 134.73 128.69
  Q 136.20 128.06 136.35 127.21
  Q 137.26 127.48 138.13 126.71
  L 144.41 123.47
  Z" fill="#c8bc8a"></path>
<path d="M 79.78 124.47
  Q 80.86 124.88 80.74 125.47
  A 3.52 0.64 50.0 0 0 82.25 128.12
  Q 82.48 128.40 82.54 128.94
  Q 82.59 129.40 82.85 129.79
  Q 89.49 139.55 101.51 137.96
  A 8.99 8.75 -57.7 0 0 103.31 137.53
  Q 107.84 135.96 110.98 132.74
  Q 111.84 131.85 113.38 128.88
  Q 114.37 126.97 115.99 125.08
  L 116.02 138.74
  L 108.70 142.70
  L 98.83 147.94
  Q 93.98 150.55 89.26 153.04
  Q 83.84 155.89 79.85 163.36
  L 79.78 124.47
  Z" fill="#f0b7e0"></path>
<path d="M 134.73 128.69
  C 137.51 129.48 140.36 128.97 142.86 129.71
  C 144.53 130.21 146.08 130.58 147.42 131.80
  Q 152.16 136.16 153.36 137.76
  Q 154.93 139.84 155.60 144.04
  Q 156.51 149.76 155.70 151.72
  Q 154.40 154.83 153.12 157.95
  Q 152.93 158.43 152.52 158.74
  Q 151.13 159.81 150.92 161.09
  L 145.77 163.90
  L 145.63 163.17
  Q 145.54 162.68 145.85 162.30
  C 146.55 161.45 146.58 160.56 147.47 159.88
  Q 147.86 159.59 148.07 159.14
  Q 152.11 150.35 148.41 142.69
  Q 145.59 136.88 139.96 134.41
  Q 134.66 132.09 127.53 132.73
  L 134.73 128.69
  Z" fill="#cdae93"></path>
<path d="M 127.53 132.73
  Q 134.66 132.09 139.96 134.41
  Q 145.59 136.88 148.41 142.69
  Q 152.11 150.35 148.07 159.14
  Q 147.86 159.59 147.47 159.88
  C 146.58 160.56 146.55 161.45 145.85 162.30
  Q 145.54 162.68 145.63 163.17
  L 145.77 163.90
  L 124.58 175.32
  Q 126.01 172.89 127.36 170.46
  C 128.28 168.83 128.28 167.03 128.78 165.21
  C 129.63 162.08 129.23 159.75 129.07 156.70
  Q 129.04 156.15 128.57 155.84
  Q 128.03 155.49 128.12 154.80
  Q 128.16 154.42 127.89 154.14
  L 127.62 153.88
  Q 127.21 153.46 127.16 152.88
  Q 127.10 152.20 126.57 151.81
  Q 126.20 151.52 126.16 151.05
  C 126.04 149.64 124.41 149.04 123.65 147.87
  Q 123.02 146.90 121.92 146.84
  Q 121.46 146.82 121.16 146.46
  C 120.09 145.18 118.05 144.90 116.54 144.30
  C 114.03 143.31 111.35 143.47 108.70 142.70
  L 116.02 138.74
  L 127.53 132.73
  Z" fill="#d496a3"></path>
<path d="M 108.70 142.70
  C 111.35 143.47 114.03 143.31 116.54 144.30
  C 118.05 144.90 120.09 145.18 121.16 146.46
  Q 121.46 146.82 121.92 146.84
  Q 123.02 146.90 123.65 147.87
  C 124.41 149.04 126.04 149.64 126.16 151.05
  Q 126.20 151.52 126.57 151.81
  Q 127.10 152.20 127.16 152.88
  Q 127.21 153.46 127.62 153.88
  L 127.89 154.14
  Q 128.16 154.42 128.12 154.80
  Q 128.03 155.49 128.57 155.84
  Q 129.04 156.15 129.07 156.70
  C 129.23 159.75 129.63 162.08 128.78 165.21
  C 128.28 167.03 128.28 168.83 127.36 170.46
  Q 126.01 172.89 124.58 175.32
  L 116.15 179.78
  Q 121.48 172.85 120.56 163.74
  Q 120.52 163.28 120.33 162.87
  C 120.00 162.13 120.15 161.17 119.97 160.55
  C 119.33 158.34 118.04 156.76 116.88 154.61
  C 115.96 152.92 113.77 151.93 112.65 151.13
  C 108.34 148.04 103.71 149.00 98.83 147.94
  L 108.70 142.70
  Z" fill="#dc7cb5"></path>
<path d="M 212.76 144.71
  Q 213.60 147.14 212.15 149.27
  Q 211.87 149.67 211.87 150.17
  Q 211.87 150.36 211.87 150.56
  Q 211.87 150.75 211.78 150.94
  Q 209.95 154.82 208.28 158.77
  Q 208.07 159.26 207.67 159.61
  Q 206.64 160.48 206.66 161.95
  Q 206.66 162.45 206.27 162.75
  Q 205.62 163.25 205.62 163.93
  Q 205.62 164.41 205.35 164.80
  C 204.50 166.04 203.61 167.12 203.29 168.70
  C 202.98 170.20 201.46 170.92 200.46 171.88
  Q 200.08 172.25 199.90 172.74
  Q 199.60 173.56 198.78 173.94
  A 0.99 0.97 -9.2 0 0 198.23 174.69
  Q 198.13 175.42 197.39 175.41
  Q 196.90 175.40 196.58 175.77
  C 195.83 176.66 195.11 177.14 194.42 178.12
  C 192.32 181.11 189.38 183.03 186.19 186.28
  C 184.51 187.99 182.11 188.92 180.45 191.14
  Q 180.18 191.50 180.09 191.95
  Q 179.88 192.98 178.77 193.11
  A 0.43 0.41 19.7 0 0 178.50 193.23
  L 161.91 209.65
  A 0.46 0.43 -65.1 0 1 161.61 209.77
  Q 160.81 209.76 160.36 210.32
  Q 159.97 210.81 159.86 210.90
  C 157.89 212.59 156.54 214.71 154.49 216.13
  Q 151.59 218.13 148.62 220.02
  A 1.05 1.05 0.0 0 0 148.14 220.71
  Q 147.85 222.04 146.49 222.16
  A 1.18 1.17 20.4 0 0 145.74 222.50
  L 143.61 224.63
  Q 143.26 224.99 142.78 225.15
  Q 142.04 225.41 141.93 226.29
  Q 141.87 226.80 141.35 226.87
  Q 140.35 227.01 139.72 227.76
  Q 139.41 228.14 138.91 228.12
  Q 137.94 228.06 137.56 228.81
  Q 137.38 229.19 137.02 229.42
  L 134.23 231.24
  A 0.82 0.75 85.0 0 0 133.93 231.63
  Q 133.59 232.59 132.82 232.13
  A 0.88 0.88 0.0 0 0 131.52 232.63
  Q 131.11 234.00 129.66 234.17
  Q 129.22 234.22 128.94 234.57
  Q 128.56 235.08 127.92 235.16
  Q 127.44 235.23 127.09 235.57
  L 125.69 236.93
  A 0.76 0.76 0.0 0 1 125.02 237.14
  Q 123.85 236.95 122.74 237.33
  Q 122.32 237.47 122.00 237.77
  Q 121.44 238.28 120.62 238.13
  Q 120.25 238.06 120.05 238.37
  L 119.88 238.63
  Q 119.81 238.74 119.68 238.73
  Q 117.71 238.55 115.38 239.42
  Q 108.74 241.91 105.01 242.87
  Q 104.64 242.96 104.25 242.75
  Q 103.81 242.50 103.31 242.51
  L 95.98 242.57
  A 0.66 0.63 -56.0 0 0 95.71 242.63
  Q 94.84 243.06 94.12 242.65
  Q 93.79 242.46 93.40 242.42
  Q 90.35 242.11 87.13 240.36
  Q 78.66 235.76 72.37 229.25
  C 68.92 225.68 66.84 221.09 64.53 216.59
  Q 64.35 216.23 63.95 216.10
  Q 63.75 216.04 63.63 215.87
  A 0.82 0.78 20.5 0 1 63.48 215.56
  Q 63.04 213.72 62.18 212.07
  C 60.73 209.32 60.43 206.97 59.73 204.15
  C 59.05 201.41 58.82 197.55 57.51 194.32
  Q 57.33 193.86 57.38 193.37
  C 57.49 192.14 57.02 191.12 56.92 190.14
  Q 56.30 183.86 56.63 182.00
  Q 57.10 179.41 57.56 176.67
  Q 57.89 184.81 61.12 191.84
  Q 61.69 199.09 65.32 205.75
  C 65.66 206.39 66.31 206.85 66.57 207.77
  C 67.29 210.33 69.63 212.11 70.92 213.96
  C 72.09 215.64 75.12 219.73 77.37 220.58
  Q 77.66 220.69 77.89 220.91
  Q 79.90 222.78 82.33 224.05
  C 83.01 224.41 83.72 225.27 84.77 225.36
  Q 85.25 225.40 85.65 225.66
  Q 87.05 226.54 88.66 226.37
  Q 89.15 226.32 89.50 226.68
  C 90.84 228.09 92.20 226.65 93.41 227.88
  Q 93.72 228.20 94.17 228.18
  L 99.88 227.93
  Q 100.39 227.91 100.79 227.59
  Q 101.80 226.78 103.17 227.21
  A 1.41 1.36 -43.9 0 0 104.00 227.21
  Q 106.23 226.52 108.45 225.78
  C 110.45 225.11 112.24 223.60 114.36 222.77
  Q 114.83 222.59 114.86 222.09
  Q 114.89 221.71 115.26 221.50
  Q 115.86 221.18 116.24 221.12
  Q 117.21 220.98 117.90 220.38
  A 1.11 1.11 0.0 0 1 118.77 220.13
  Q 119.41 220.22 119.76 219.74
  Q 120.06 219.34 120.56 219.37
  Q 121.17 219.41 121.50 219.26
  Q 124.31 218.00 128.80 215.47
  C 129.54 215.06 130.06 214.22 130.93 213.89
  Q 131.35 213.73 131.71 213.46
  L 137.88 208.74
  Q 138.30 208.43 138.81 208.30
  C 140.05 207.97 141.02 206.27 141.91 206.36
  Q 142.36 206.40 142.73 206.13
  L 159.98 193.24
  Q 160.13 193.14 160.12 192.95
  Q 160.12 192.75 160.13 192.53
  Q 160.14 192.13 160.53 192.19
  Q 161.34 192.29 161.80 191.69
  Q 162.07 191.31 162.49 191.11
  Q 165.11 189.83 166.84 187.48
  Q 167.10 187.13 167.53 187.07
  Q 168.65 186.91 169.03 185.93
  Q 169.23 185.41 169.76 185.25
  Q 172.46 184.45 173.02 183.75
  Q 175.90 180.17 180.17 178.57
  A 1.46 1.44 -83.8 0 0 180.88 177.99
  Q 181.90 176.39 183.67 175.85
  Q 184.11 175.71 184.38 175.33
  L 184.82 174.72
  Q 185.09 174.35 185.53 174.26
  C 187.63 173.79 190.59 171.29 192.13 169.79
  Q 192.49 169.44 192.96 169.27
  Q 194.59 168.71 195.33 167.04
  Q 195.54 166.55 195.98 166.24
  C 199.66 163.67 201.91 160.45 204.73 156.98
  Q 206.18 155.20 205.74 153.36
  Q 209.76 149.60 212.76 144.71
  Z" fill="#82c642"></path>
<path d="M 116.15 179.78
  C 111.06 182.79 104.73 186.74 99.17 187.19
  C 89.40 187.97 80.77 180.67 79.78 170.75
  Q 79.54 168.36 79.85 163.36
  Q 83.84 155.89 89.26 153.04
  Q 93.98 150.55 98.83 147.94
  C 103.71 149.00 108.34 148.04 112.65 151.13
  C 113.77 151.93 115.96 152.92 116.88 154.61
  C 118.04 156.76 119.33 158.34 119.97 160.55
  C 120.15 161.17 120.00 162.13 120.33 162.87
  Q 120.52 163.28 120.56 163.74
  Q 121.48 172.85 116.15 179.78
  Z" fill="#e16bc0"></path>
<path d="M 205.74 153.36
  Q 206.18 155.20 204.73 156.98
  C 201.91 160.45 199.66 163.67 195.98 166.24
  Q 195.54 166.55 195.33 167.04
  Q 194.59 168.71 192.96 169.27
  Q 192.49 169.44 192.13 169.79
  C 190.59 171.29 187.63 173.79 185.53 174.26
  Q 185.09 174.35 184.82 174.72
  L 184.38 175.33
  Q 184.11 175.71 183.67 175.85
  Q 181.90 176.39 180.88 177.99
  A 1.46 1.44 -83.8 0 1 180.17 178.57
  Q 175.90 180.17 173.02 183.75
  Q 172.46 184.45 169.76 185.25
  Q 169.23 185.41 169.03 185.93
  Q 168.65 186.91 167.53 187.07
  Q 167.10 187.13 166.84 187.48
  Q 165.11 189.83 162.49 191.11
  Q 162.07 191.31 161.80 191.69
  Q 161.34 192.29 160.53 192.19
  Q 160.14 192.13 160.13 192.53
  Q 160.12 192.75 160.12 192.95
  Q 160.13 193.14 159.98 193.24
  L 142.73 206.13
  Q 142.36 206.40 141.91 206.36
  C 141.02 206.27 140.05 207.97 138.81 208.30
  Q 138.30 208.43 137.88 208.74
  L 131.71 213.46
  Q 131.35 213.73 130.93 213.89
  C 130.06 214.22 129.54 215.06 128.80 215.47
  Q 124.31 218.00 121.50 219.26
  Q 121.17 219.41 120.56 219.37
  Q 120.06 219.34 119.76 219.74
  Q 119.41 220.22 118.77 220.13
  A 1.11 1.11 0.0 0 0 117.90 220.38
  Q 117.21 220.98 116.24 221.12
  Q 115.86 221.18 115.26 221.50
  Q 114.89 221.71 114.86 222.09
  Q 114.83 222.59 114.36 222.77
  C 112.24 223.60 110.45 225.11 108.45 225.78
  Q 106.23 226.52 104.00 227.21
  A 1.41 1.36 -43.9 0 1 103.17 227.21
  Q 101.80 226.78 100.79 227.59
  Q 100.39 227.91 99.88 227.93
  L 94.17 228.18
  Q 93.72 228.20 93.41 227.88
  C 92.20 226.65 90.84 228.09 89.50 226.68
  Q 89.15 226.32 88.66 226.37
  Q 87.05 226.54 85.65 225.66
  Q 85.25 225.40 84.77 225.36
  C 83.72 225.27 83.01 224.41 82.33 224.05
  Q 79.90 222.78 77.89 220.91
  Q 77.66 220.69 77.37 220.58
  C 75.12 219.73 72.09 215.64 70.92 213.96
  C 69.63 212.11 67.29 210.33 66.57 207.77
  C 66.31 206.85 65.66 206.39 65.32 205.75
  Q 61.69 199.09 61.12 191.84
  Q 70.14 207.86 87.25 210.22
  Q 96.81 211.54 106.22 206.64
  Q 152.30 182.67 198.30 158.55
  Q 201.97 156.63 205.74 153.36
  Z" fill="#70b636"></path>
</svg>
