<svg viewBox="0.00 0.00 192.00 192.00" version="1.1" xmlns="http://www.w3.org/2000/svg">
<g stroke-linecap="butt" fill="none" stroke-width="2.00">
<path d="M 192.00 43.41
  Q 190.94 44.88 190.25 44.88
  Q 145.12 44.76 99.21 45.04" stroke="#7720c8"></path>
<path d="M 99.21 45.04
  L 87.08 31.77
  A 1.68 1.67 -30.4 0 0 85.29 31.31
  Q 77.73 33.91 74.25 41.44" stroke="#862c92"></path>
<path d="M 74.25 41.44
  Q 72.31 42.34 72.69 45.02
  Q 72.70 45.12 72.60 45.13
  Q 72.40 45.14 72.31 45.02
  Q 72.20 44.86 72.01 44.86
  L 35.47 44.89
  A 0.28 0.28 0.0 0 0 35.34 45.42
  Q 35.55 45.52 35.75 45.62
  Q 35.84 45.67 35.82 45.69
  Q 35.73 45.77 35.63 45.87
  Q 35.61 45.88 35.59 45.87
  Q 34.63 44.90 33.77 46.07" stroke="#7720c8"></path>
<path d="M 33.77 46.07
  Q 33.13 46.29 33.50 45.88" stroke="#933190"></path>
<path d="M 33.50 45.88
  Q 28.66 43.31 23.53 41.49
  Q 20.20 40.31 19.76 45.02" stroke="#9c358f"></path>
<path d="M 19.76 45.02
  Q 19.12 45.18 19.38 45.01
  Q 19.42 44.79 19.29 44.58
  Q 19.12 44.29 18.95 44.58
  Q 18.84 44.77 18.87 45.00
  Q 18.95 45.47 18.74 45.24
  Q 18.60 45.09 18.49 45.01
  Q 18.29 44.87 17.98 44.87
  Q 8.99 44.85 0.00 44.94" stroke="#7720c8"></path>
<path d="M 99.21 45.04
  L 102.06 48.27" stroke="#8f328c"></path>
<path d="M 102.06 48.27
  Q 101.71 49.16 100.76 48.73
  A 0.12 0.11 43.0 0 1 100.75 48.52
  Q 100.88 48.46 101.02 48.41
  Q 101.25 48.32 101.07 48.14
  Q 100.78 47.84 100.49 47.89
  C 99.49 48.07 99.19 50.18 96.73 49.56
  Q 96.27 49.45 95.84 49.64
  L 91.09 51.77" stroke="#8b3856"></path>
<path d="M 91.09 51.77
  L 84.83 45.43
  Q 83.90 44.49 84.00 45.81
  C 84.24 49.23 85.39 60.56 82.57 62.84
  C 80.79 64.27 76.73 65.39 75.15 65.99
  C 65.52 69.64 56.32 72.29 46.20 70.59" stroke="#cf9fab"></path>
<path d="M 46.20 70.59
  L 52.46 65.65
  Q 52.92 65.29 52.25 65.38
  Q 51.97 65.42 51.77 65.25
  Q 51.34 64.90 51.84 64.66
  Q 54.34 63.51 57.59 63.21" stroke="#ab4454"></path>
<path d="M 57.59 63.21
  C 61.83 61.84 69.67 59.69 72.56 56.28
  C 74.94 53.47 72.91 50.58 72.94 47.99
  Q 72.97 44.67 74.25 41.44" stroke="#8f328c"></path>
<path d="M 33.50 45.88
  Q 33.00 47.58 31.78 48.45
  Q 31.40 48.71 30.93 48.70
  Q 30.68 48.70 30.45 48.82
  Q 30.01 49.06 29.94 49.55
  Q 29.75 50.91 28.53 51.87
  Q 28.00 51.80 27.77 52.16
  Q 27.63 52.40 27.41 52.57
  Q 27.02 52.87 26.38 53.16
  A 0.90 0.88 80.9 0 0 25.86 53.89
  Q 25.60 56.23 23.65 57.37
  Q 23.17 57.65 23.68 57.85
  Q 24.45 58.15 24.11 59.00
  Q 23.80 59.79 22.71 60.23
  A 0.86 0.85 -11.4 0 0 22.18 61.02
  Q 22.18 62.03 21.46 62.68
  Q 21.14 62.97 20.98 63.36
  Q 20.72 64.00 20.14 64.49
  A 1.29 1.25 -16.7 0 0 19.71 65.26
  Q 19.46 66.89 18.40 68.14
  Q 18.15 68.44 18.30 68.80
  Q 18.40 69.04 18.27 69.25
  Q 18.12 69.49 18.09 69.56
  Q 16.95 72.64 14.93 75.16" stroke="#c14d50"></path>
<path d="M 14.93 75.16
  C 17.10 69.39 20.61 62.93 20.99 57.35
  Q 21.36 52.14 19.75 46.99
  Q 19.61 46.55 19.76 45.02" stroke="#a53c89"></path>
<path d="M 57.59 63.21
  C 55.50 63.25 51.52 63.53 49.87 62.50
  Q 49.21 62.09 48.51 61.75
  C 44.94 60.02 41.98 55.02 40.59 51.46
  C 39.14 47.73 37.14 47.42 33.77 46.07" stroke="#9c388a"></path>
<path d="M 192.00 82.12
  L 143.19 81.93
  Q 142.53 81.93 142.88 82.49
  Q 143.59 83.62 143.24 83.99" stroke="#8a29bb"></path>
<path d="M 143.24 83.99
  L 129.57 73.64" stroke="#6c2a90"></path>
<path d="M 129.57 73.64
  Q 115.22 61.57 102.06 48.27" stroke="#7c2c8c"></path>
<path d="M 14.93 75.16
  L 9.32 92.11" stroke="#9c388a"></path>
<path d="M 9.32 92.11
  L 1.69 117.74" stroke="#8f328c"></path>
<path d="M 1.69 117.74
  Q 0.33 121.55 0.81 125.34" stroke="#7c2c8c"></path>
<path d="M 0.81 125.34
  Q -0.11 125.63 0.00 128.89" stroke="#9b28b0"></path>
<path d="M 91.09 51.77
  L 112.73 72.74" stroke="#bc98ab"></path>
<path d="M 112.73 72.74
  L 114.15 74.03
  Q 114.58 74.43 114.13 74.81
  L 87.87 96.85
  A 0.25 0.24 41.2 0 0 87.90 97.24
  L 95.73 102.04
  Q 95.87 102.13 96.01 102.02
  L 121.43 80.94
  Q 121.63 80.77 121.85 80.93
  L 128.69 86.16
  Q 128.95 86.36 128.70 86.56
  L 104.38 107.20
  Q 104.29 107.27 104.39 107.34
  L 112.04 112.22
  Q 112.28 112.37 112.49 112.19
  L 135.83 92.26
  A 0.56 0.56 0.0 0 1 136.52 92.22
  L 143.00 96.76" stroke="#ac97af"></path>
<path d="M 143.00 96.76
  Q 143.66 97.28 143.32 97.58
  Q 132.12 107.36 121.02 116.93
  Q 120.83 117.09 121.04 117.22
  L 128.37 121.80
  A 0.23 0.21 -47.4 0 0 128.61 121.78
  L 150.76 102.62
  Q 151.51 101.97 152.34 102.51
  L 164.37 110.28" stroke="#9d97ad"></path>
<path d="M 164.37 110.28
  C 169.91 113.54 176.38 116.40 181.41 120.31
  Q 181.79 120.62 181.77 121.10
  Q 181.64 124.15 180.68 127.07
  C 177.85 135.65 154.07 139.36 146.49 140.10
  Q 139.10 140.82 131.72 141.19" stroke="#9896a5"></path>
<path d="M 131.72 141.19
  C 126.67 141.06 124.59 141.60 120.26 138.52
  Q 110.94 131.90 101.51 125.50" stroke="#9d97ad"></path>
<path d="M 101.51 125.50
  L 87.24 115.71" stroke="#ac97af"></path>
<path d="M 87.24 115.71
  L 54.50 92.80" stroke="#bc98ab"></path>
<path d="M 54.50 92.80
  Q 50.62 89.02 45.56 87.41
  Q 36.05 84.38 26.57 81.65" stroke="#cf9fab"></path>
<path d="M 26.57 81.65
  Q 25.04 81.58 25.48 80.49
  Q 29.53 70.54 33.55 60.56
  A 0.35 0.35 0.0 0 1 34.16 60.49
  C 37.44 65.19 40.33 68.99 46.20 70.59" stroke="#dca4a8"></path>
<path d="M 26.57 81.65
  L 24.15 82.33
  Q 23.69 82.46 23.38 82.83
  Q 22.48 83.90 21.20 84.53
  Q 17.41 86.37 14.25 89.14
  Q 12.94 90.29 12.16 90.57
  Q 10.36 91.21 11.23 89.47
  Q 11.50 88.94 11.38 87.94
  Q 11.34 87.53 11.23 87.93
  Q 10.61 90.24 9.32 92.11" stroke="#ab4454"></path>
<path d="M 129.57 73.64
  Q 128.76 74.17 128.60 74.73
  Q 128.57 74.82 128.50 74.75
  L 128.24 74.50
  A 0.17 0.16 -48.2 0 0 127.99 74.52
  Q 127.84 74.72 127.86 74.97
  Q 127.89 75.33 127.53 75.37
  Q 126.69 75.47 126.12 74.87
  A 1.00 0.25 7.2 0 0 125.50 74.63
  Q 125.29 74.59 125.11 74.68
  Q 124.72 74.90 124.31 74.71
  Q 122.95 74.08 121.66 73.33
  Q 121.21 73.07 120.83 73.12
  Q 120.31 73.19 119.96 73.51
  Q 119.62 73.82 119.16 73.70
  L 117.75 73.33
  Q 117.30 73.21 116.97 73.53
  L 116.25 74.26
  Q 116.06 74.44 116.20 74.67
  Q 116.27 74.79 116.38 74.84
  Q 116.42 74.86 116.38 74.87
  Q 116.16 74.89 115.94 74.85
  Q 115.51 74.78 115.45 74.35
  Q 115.22 72.64 112.73 72.74" stroke="#69305a"></path>
<path d="M 143.24 83.99
  L 149.48 88.59" stroke="#772d89"></path>
<path d="M 149.48 88.59
  L 151.14 92.90
  A 0.52 0.52 0.0 0 1 150.73 93.60
  L 148.68 93.96
  A 0.66 0.65 84.2 0 0 148.13 94.64
  Q 148.22 96.09 146.71 95.89
  Q 146.12 95.81 145.85 96.34
  Q 145.52 96.99 145.64 97.72
  Q 145.73 98.22 145.27 98.01
  Q 144.81 97.81 144.29 97.88
  Q 144.17 97.90 144.12 97.78
  Q 144.05 97.57 144.22 97.60
  Q 144.46 97.66 144.54 97.42
  Q 144.67 96.99 144.23 96.77
  Q 143.63 96.47 143.00 96.76" stroke="#4a2e5d"></path>
<path d="M 54.50 92.80
  L 53.32 93.09
  Q 53.26 93.10 53.32 93.12
  Q 53.44 93.17 53.57 93.35
  Q 53.78 93.63 53.50 93.84
  L 46.71 98.85" stroke="#8b3856"></path>
<path d="M 46.71 98.85
  L 22.64 91.89
  Q 22.12 91.74 21.96 92.25
  L 15.24 113.71" stroke="#cf9fab"></path>
<path d="M 15.24 113.71
  Q 14.91 113.49 14.59 113.85
  Q 14.28 114.18 14.38 114.63
  Q 14.40 114.47 14.38 114.32
  Q 14.31 113.97 14.00 114.15
  C 11.96 115.39 9.78 115.93 7.45 117.01
  Q 4.65 118.30 1.69 117.74" stroke="#8b3856"></path>
<path d="M 192.00 126.12
  Q 191.77 125.87 191.74 125.39
  Q 191.70 124.71 191.36 125.30
  L 191.10 125.73" stroke="#a62ba8"></path>
<path d="M 191.10 125.73
  Q 191.12 120.37 188.86 115.81
  Q 187.41 112.88 183.93 110.29
  Q 178.67 106.37 172.96 103.17" stroke="#632c7f"></path>
<path d="M 172.96 103.17
  L 149.48 88.59" stroke="#682d87"></path>
<path d="M 172.96 103.17
  Q 172.33 103.16 172.11 103.69
  Q 171.94 104.10 171.49 104.11
  L 170.73 104.11
  Q 170.29 104.11 170.11 104.51
  Q 169.32 106.16 167.52 105.96
  A 1.31 1.31 0.0 0 0 166.07 107.34
  Q 166.11 108.14 165.50 108.47
  Q 165.10 108.69 164.91 109.10
  L 164.37 110.28" stroke="#362d53"></path>
<path d="M 46.71 98.85
  L 78.10 119.95" stroke="#bc98ab"></path>
<path d="M 78.10 119.95
  L 90.11 128.04" stroke="#ac97af"></path>
<path d="M 90.11 128.04
  L 102.97 137.03
  Q 104.40 138.03 102.67 137.82
  L 53.00 131.71" stroke="#9d97ad"></path>
<path d="M 53.00 131.71
  Q 24.76 128.44 14.99 127.05
  Q 13.91 126.90 12.42 125.71
  Q 12.03 125.40 12.00 124.89
  Q 11.93 123.63 12.48 122.33" stroke="#ac97af"></path>
<path d="M 12.48 122.33
  L 15.24 113.71" stroke="#bc98ab"></path>
<path d="M 87.24 115.71
  Q 84.92 118.69 80.89 119.94
  Q 80.49 120.07 80.20 119.76
  Q 79.20 118.66 78.10 119.95" stroke="#69305a"></path>
<path d="M 191.10 125.73
  C 189.29 133.17 186.15 138.47 179.81 141.04
  C 170.99 144.60 160.94 146.68 149.74 149.22
  Q 138.04 151.88 125.93 151.01" stroke="#742b74"></path>
<path d="M 125.93 151.01
  Q 126.43 149.66 127.54 149.60
  Q 127.88 149.58 127.88 149.24
  L 127.88 148.73
  A 0.42 0.41 81.6 0 1 128.17 148.33
  Q 129.15 148.03 128.87 147.02
  Q 128.72 146.51 129.10 146.14
  Q 129.45 145.80 129.95 145.86
  Q 130.29 145.90 130.18 145.57
  Q 130.05 145.20 130.07 144.79
  Q 130.10 144.28 130.48 143.95
  Q 130.94 143.56 131.24 142.98
  Q 131.33 142.80 131.51 142.89
  Q 131.63 142.94 131.74 143.00
  Q 132.50 143.36 131.98 142.70
  L 131.63 142.26
  Q 131.26 141.79 131.83 141.63
  Q 132.06 141.57 132.28 141.60
  Q 131.66 141.76 131.72 141.19" stroke="#362d53"></path>
<path d="M 12.48 122.33
  Q 11.60 122.25 11.25 122.67
  Q 11.01 122.95 10.64 122.95
  Q 9.38 122.98 8.63 123.90
  Q 8.30 124.30 7.79 124.39
  Q 4.16 124.98 1.41 127.00" stroke="#69305a"></path>
<path d="M 1.41 127.00
  L 0.81 125.34" stroke="#972d7a"></path>
<path d="M 101.51 125.50
  Q 100.47 126.43 101.10 127.34
  Q 101.40 127.77 100.87 127.78
  L 90.11 128.04" stroke="#4a2e5d"></path>
<path d="M 53.00 131.71
  Q 54.23 133.09 53.61 133.99
  A 0.10 0.10 0.0 0 0 53.66 134.14
  L 53.95 134.24
  Q 54.02 134.27 54.04 134.34
  Q 54.43 135.78 53.24 136.20
  A 0.22 0.22 0.0 0 1 52.95 136.01
  Q 52.94 135.85 52.91 135.68
  Q 52.85 135.32 52.50 135.44
  Q 51.17 135.90 50.98 137.10
  Q 50.89 137.64 50.47 138.00
  L 48.70 139.49
  Q 48.35 139.79 47.89 139.82
  Q 47.04 139.87 46.47 140.65" stroke="#4a2e5d"></path>
<path d="M 46.47 140.65
  Q 33.88 139.29 21.25 137.73
  C 13.65 136.79 4.55 134.90 1.41 127.00" stroke="#882c7e"></path>
<path d="M 192.00 155.12
  L 1.08 155.12
  Q 0.58 155.12 0.41 155.58
  Q 0.23 156.09 0.00 156.27" stroke="#bb279a"></path>
<path d="M 46.47 140.65
  C 68.32 143.16 90.12 146.01 112.02 147.95
  Q 113.95 148.12 116.38 149.21
  Q 120.84 151.21 125.93 151.01" stroke="#792c7c"></path>
</g>
<path d="M 0.00 0.00
  L 192.00 0.00
  L 192.00 43.41
  Q 190.94 44.88 190.25 44.88
  Q 145.12 44.76 99.21 45.04
  L 87.08 31.77
  A 1.68 1.67 -30.4 0 0 85.29 31.31
  Q 77.73 33.91 74.25 41.44
  Q 72.31 42.34 72.69 45.02
  Q 72.70 45.12 72.60 45.13
  Q 72.40 45.14 72.31 45.02
  Q 72.20 44.86 72.01 44.86
  L 35.47 44.89
  A 0.28 0.28 0.0 0 0 35.34 45.42
  Q 35.55 45.52 35.75 45.62
  Q 35.84 45.67 35.82 45.69
  Q 35.73 45.77 35.63 45.87
  Q 35.61 45.88 35.59 45.87
  Q 34.63 44.90 33.77 46.07
  Q 33.13 46.29 33.50 45.88
  Q 28.66 43.31 23.53 41.49
  Q 20.20 40.31 19.76 45.02
  Q 19.12 45.18 19.38 45.01
  Q 19.42 44.79 19.29 44.58
  Q 19.12 44.29 18.95 44.58
  Q 18.84 44.77 18.87 45.00
  Q 18.95 45.47 18.74 45.24
  Q 18.60 45.09 18.49 45.01
  Q 18.29 44.87 17.98 44.87
  Q 8.99 44.85 0.00 44.94
  L 0.00 0.00
  Z" fill="#6e19ce"></path>
<path d="M 99.21 45.04
  L 102.06 48.27
  Q 101.71 49.16 100.76 48.73
  A 0.12 0.11 43.0 0 1 100.75 48.52
  Q 100.88 48.46 101.02 48.41
  Q 101.25 48.32 101.07 48.14
  Q 100.78 47.84 100.49 47.89
  C 99.49 48.07 99.19 50.18 96.73 49.56
  Q 96.27 49.45 95.84 49.64
  L 91.09 51.77
  L 84.83 45.43
  Q 83.90 44.49 84.00 45.81
  C 84.24 49.23 85.39 60.56 82.57 62.84
  C 80.79 64.27 76.73 65.39 75.15 65.99
  C 65.52 69.64 56.32 72.29 46.20 70.59
  L 52.46 65.65
  Q 52.92 65.29 52.25 65.38
  Q 51.97 65.42 51.77 65.25
  Q 51.34 64.90 51.84 64.66
  Q 54.34 63.51 57.59 63.21
  C 61.83 61.84 69.67 59.69 72.56 56.28
  C 74.94 53.47 72.91 50.58 72.94 47.99
  Q 72.97 44.67 74.25 41.44
  Q 77.73 33.91 85.29 31.31
  A 1.68 1.67 -30.4 0 1 87.08 31.77
  L 99.21 45.04
  Z" fill="#9e3e56"></path>
<path d="M 33.50 45.88
  Q 33.00 47.58 31.78 48.45
  Q 31.40 48.71 30.93 48.70
  Q 30.68 48.70 30.45 48.82
  Q 30.01 49.06 29.94 49.55
  Q 29.75 50.91 28.53 51.87
  Q 28.00 51.80 27.77 52.16
  Q 27.63 52.40 27.41 52.57
  Q 27.02 52.87 26.38 53.16
  A 0.90 0.88 80.9 0 0 25.86 53.89
  Q 25.60 56.23 23.65 57.37
  Q 23.17 57.65 23.68 57.85
  Q 24.45 58.15 24.11 59.00
  Q 23.80 59.79 22.71 60.23
  A 0.86 0.85 -11.4 0 0 22.18 61.02
  Q 22.18 62.03 21.46 62.68
  Q 21.14 62.97 20.98 63.36
  Q 20.72 64.00 20.14 64.49
  A 1.29 1.25 -16.7 0 0 19.71 65.26
  Q 19.46 66.89 18.40 68.14
  Q 18.15 68.44 18.30 68.80
  Q 18.40 69.04 18.27 69.25
  Q 18.12 69.49 18.09 69.56
  Q 16.95 72.64 14.93 75.16
  C 17.10 69.39 20.61 62.93 20.99 57.35
  Q 21.36 52.14 19.75 46.99
  Q 19.61 46.55 19.76 45.02
  Q 20.20 40.31 23.53 41.49
  Q 28.66 43.31 33.50 45.88
  Z" fill="#ca514f"></path>
<path d="M 74.25 41.44
  Q 72.97 44.67 72.94 47.99
  C 72.91 50.58 74.94 53.47 72.56 56.28
  C 69.67 59.69 61.83 61.84 57.59 63.21
  C 55.50 63.25 51.52 63.53 49.87 62.50
  Q 49.21 62.09 48.51 61.75
  C 44.94 60.02 41.98 55.02 40.59 51.46
  C 39.14 47.73 37.14 47.42 33.77 46.07
  Q 34.63 44.90 35.59 45.87
  Q 35.61 45.88 35.63 45.87
  Q 35.73 45.77 35.82 45.69
  Q 35.84 45.67 35.75 45.62
  Q 35.55 45.52 35.34 45.42
  A 0.28 0.28 0.0 0 1 35.47 44.89
  L 72.01 44.86
  Q 72.20 44.86 72.31 45.02
  Q 72.40 45.14 72.60 45.13
  Q 72.70 45.12 72.69 45.02
  Q 72.31 42.34 74.25 41.44
  Z" fill="#7f26c2"></path>
<path d="M 192.00 43.41
  L 192.00 82.12
  L 143.19 81.93
  Q 142.53 81.93 142.88 82.49
  Q 143.59 83.62 143.24 83.99
  L 129.57 73.64
  Q 115.22 61.57 102.06 48.27
  L 99.21 45.04
  Q 145.12 44.76 190.25 44.88
  Q 190.94 44.88 192.00 43.41
  Z" fill="#7f26c2"></path>
<path d="M 19.76 45.02
  Q 19.61 46.55 19.75 46.99
  Q 21.36 52.14 20.99 57.35
  C 20.61 62.93 17.10 69.39 14.93 75.16
  L 9.32 92.11
  L 1.69 117.74
  Q 0.33 121.55 0.81 125.34
  Q -0.11 125.63 0.00 128.89
  L 0.00 44.94
  Q 8.99 44.85 17.98 44.87
  Q 18.29 44.87 18.49 45.01
  Q 18.60 45.09 18.74 45.24
  Q 18.95 45.47 18.87 45.00
  Q 18.84 44.77 18.95 44.58
  Q 19.12 44.29 19.29 44.58
  Q 19.42 44.79 19.38 45.01
  Q 19.12 45.18 19.76 45.02
  Z" fill="#7f26c2"></path>
<path d="M 91.09 51.77
  L 112.73 72.74
  L 114.15 74.03
  Q 114.58 74.43 114.13 74.81
  L 87.87 96.85
  A 0.25 0.24 41.2 0 0 87.90 97.24
  L 95.73 102.04
  Q 95.87 102.13 96.01 102.02
  L 121.43 80.94
  Q 121.63 80.77 121.85 80.93
  L 128.69 86.16
  Q 128.95 86.36 128.70 86.56
  L 104.38 107.20
  Q 104.29 107.27 104.39 107.34
  L 112.04 112.22
  Q 112.28 112.37 112.49 112.19
  L 135.83 92.26
  A 0.56 0.56 0.0 0 1 136.52 92.22
  L 143.00 96.76
  Q 143.66 97.28 143.32 97.58
  Q 132.12 107.36 121.02 116.93
  Q 120.83 117.09 121.04 117.22
  L 128.37 121.80
  A 0.23 0.21 -47.4 0 0 128.61 121.78
  L 150.76 102.62
  Q 151.51 101.97 152.34 102.51
  L 164.37 110.28
  C 169.91 113.54 176.38 116.40 181.41 120.31
  Q 181.79 120.62 181.77 121.10
  Q 181.64 124.15 180.68 127.07
  C 177.85 135.65 154.07 139.36 146.49 140.10
  Q 139.10 140.82 131.72 141.19
  C 126.67 141.06 124.59 141.60 120.26 138.52
  Q 110.94 131.90 101.51 125.50
  L 87.24 115.71
  L 54.50 92.80
  Q 50.62 89.02 45.56 87.41
  Q 36.05 84.38 26.57 81.65
  Q 25.04 81.58 25.48 80.49
  Q 29.53 70.54 33.55 60.56
  A 0.35 0.35 0.0 0 1 34.16 60.49
  C 37.44 65.19 40.33 68.99 46.20 70.59
  C 56.32 72.29 65.52 69.64 75.15 65.99
  C 76.73 65.39 80.79 64.27 82.57 62.84
  C 85.39 60.56 84.24 49.23 84.00 45.81
  Q 83.90 44.49 84.83 45.43
  L 91.09 51.77
  Z" fill="#ffffff"></path>
<path d="M 33.50 45.88
  Q 33.13 46.29 33.77 46.07
  C 37.14 47.42 39.14 47.73 40.59 51.46
  C 41.98 55.02 44.94 60.02 48.51 61.75
  Q 49.21 62.09 49.87 62.50
  C 51.52 63.53 55.50 63.25 57.59 63.21
  Q 54.34 63.51 51.84 64.66
  Q 51.34 64.90 51.77 65.25
  Q 51.97 65.42 52.25 65.38
  Q 52.92 65.29 52.46 65.65
  L 46.20 70.59
  C 40.33 68.99 37.44 65.19 34.16 60.49
  A 0.35 0.35 0.0 0 0 33.55 60.56
  Q 29.53 70.54 25.48 80.49
  Q 25.04 81.58 26.57 81.65
  L 24.15 82.33
  Q 23.69 82.46 23.38 82.83
  Q 22.48 83.90 21.20 84.53
  Q 17.41 86.37 14.25 89.14
  Q 12.94 90.29 12.16 90.57
  Q 10.36 91.21 11.23 89.47
  Q 11.50 88.94 11.38 87.94
  Q 11.34 87.53 11.23 87.93
  Q 10.61 90.24 9.32 92.11
  L 14.93 75.16
  Q 16.95 72.64 18.09 69.56
  Q 18.12 69.49 18.27 69.25
  Q 18.40 69.04 18.30 68.80
  Q 18.15 68.44 18.40 68.14
  Q 19.46 66.89 19.71 65.26
  A 1.29 1.25 -16.7 0 1 20.14 64.49
  Q 20.72 64.00 20.98 63.36
  Q 21.14 62.97 21.46 62.68
  Q 22.18 62.03 22.18 61.02
  A 0.86 0.85 -11.4 0 1 22.71 60.23
  Q 23.80 59.79 24.11 59.00
  Q 24.45 58.15 23.68 57.85
  Q 23.17 57.65 23.65 57.37
  Q 25.60 56.23 25.86 53.89
  A 0.90 0.88 80.9 0 1 26.38 53.16
  Q 27.02 52.87 27.41 52.57
  Q 27.63 52.40 27.77 52.16
  Q 28.00 51.80 28.53 51.87
  Q 29.75 50.91 29.94 49.55
  Q 30.01 49.06 30.45 48.82
  Q 30.68 48.70 30.93 48.70
  Q 31.40 48.71 31.78 48.45
  Q 33.00 47.58 33.50 45.88
  Z" fill="#b84951"></path>
<path d="M 102.06 48.27
  Q 115.22 61.57 129.57 73.64
  Q 128.76 74.17 128.60 74.73
  Q 128.57 74.82 128.50 74.75
  L 128.24 74.50
  A 0.17 0.16 -48.2 0 0 127.99 74.52
  Q 127.84 74.72 127.86 74.97
  Q 127.89 75.33 127.53 75.37
  Q 126.69 75.47 126.12 74.87
  A 1.00 0.25 7.2 0 0 125.50 74.63
  Q 125.29 74.59 125.11 74.68
  Q 124.72 74.90 124.31 74.71
  Q 122.95 74.08 121.66 73.33
  Q 121.21 73.07 120.83 73.12
  Q 120.31 73.19 119.96 73.51
  Q 119.62 73.82 119.16 73.70
  L 117.75 73.33
  Q 117.30 73.21 116.97 73.53
  L 116.25 74.26
  Q 116.06 74.44 116.20 74.67
  Q 116.27 74.79 116.38 74.84
  Q 116.42 74.86 116.38 74.87
  Q 116.16 74.89 115.94 74.85
  Q 115.51 74.78 115.45 74.35
  Q 115.22 72.64 112.73 72.74
  L 91.09 51.77
  L 95.84 49.64
  Q 96.27 49.45 96.73 49.56
  C 99.19 50.18 99.49 48.07 100.49 47.89
  Q 100.78 47.84 101.07 48.14
  Q 101.25 48.32 101.02 48.41
  Q 100.88 48.46 100.75 48.52
  A 0.12 0.11 43.0 0 0 100.76 48.73
  Q 101.71 49.16 102.06 48.27
  Z" fill="#783156"></path>
<path d="M 112.73 72.74
  Q 115.22 72.64 115.45 74.35
  Q 115.51 74.78 115.94 74.85
  Q 116.16 74.89 116.38 74.87
  Q 116.42 74.86 116.38 74.84
  Q 116.27 74.79 116.20 74.67
  Q 116.06 74.44 116.25 74.26
  L 116.97 73.53
  Q 117.30 73.21 117.75 73.33
  L 119.16 73.70
  Q 119.62 73.82 119.96 73.51
  Q 120.31 73.19 120.83 73.12
  Q 121.21 73.07 121.66 73.33
  Q 122.95 74.08 124.31 74.71
  Q 124.72 74.90 125.11 74.68
  Q 125.29 74.59 125.50 74.63
  A 1.00 0.25 7.2 0 1 126.12 74.87
  Q 126.69 75.47 127.53 75.37
  Q 127.89 75.33 127.86 74.97
  Q 127.84 74.72 127.99 74.52
  A 0.17 0.16 -48.2 0 1 128.24 74.50
  L 128.50 74.75
  Q 128.57 74.82 128.60 74.73
  Q 128.76 74.17 129.57 73.64
  L 143.24 83.99
  L 149.48 88.59
  L 151.14 92.90
  A 0.52 0.52 0.0 0 1 150.73 93.60
  L 148.68 93.96
  A 0.66 0.65 84.2 0 0 148.13 94.64
  Q 148.22 96.09 146.71 95.89
  Q 146.12 95.81 145.85 96.34
  Q 145.52 96.99 145.64 97.72
  Q 145.73 98.22 145.27 98.01
  Q 144.81 97.81 144.29 97.88
  Q 144.17 97.90 144.12 97.78
  Q 144.05 97.57 144.22 97.60
  Q 144.46 97.66 144.54 97.42
  Q 144.67 96.99 144.23 96.77
  Q 143.63 96.47 143.00 96.76
  L 136.52 92.22
  A 0.56 0.56 0.0 0 0 135.83 92.26
  L 112.49 112.19
  Q 112.28 112.37 112.04 112.22
  L 104.39 107.34
  Q 104.29 107.27 104.38 107.20
  L 128.70 86.56
  Q 128.95 86.36 128.69 86.16
  L 121.85 80.93
  Q 121.63 80.77 121.43 80.94
  L 96.01 102.02
  Q 95.87 102.13 95.73 102.04
  L 87.90 97.24
  A 0.25 0.24 41.2 0 1 87.87 96.85
  L 114.13 74.81
  Q 114.58 74.43 114.15 74.03
  L 112.73 72.74
  Z" fill="#592e5e"></path>
<path d="M 26.57 81.65
  Q 36.05 84.38 45.56 87.41
  Q 50.62 89.02 54.50 92.80
  L 53.32 93.09
  Q 53.26 93.10 53.32 93.12
  Q 53.44 93.17 53.57 93.35
  Q 53.78 93.63 53.50 93.84
  L 46.71 98.85
  L 22.64 91.89
  Q 22.12 91.74 21.96 92.25
  L 15.24 113.71
  Q 14.91 113.49 14.59 113.85
  Q 14.28 114.18 14.38 114.63
  Q 14.40 114.47 14.38 114.32
  Q 14.31 113.97 14.00 114.15
  C 11.96 115.39 9.78 115.93 7.45 117.01
  Q 4.65 118.30 1.69 117.74
  L 9.32 92.11
  Q 10.61 90.24 11.23 87.93
  Q 11.34 87.53 11.38 87.94
  Q 11.50 88.94 11.23 89.47
  Q 10.36 91.21 12.16 90.57
  Q 12.94 90.29 14.25 89.14
  Q 17.41 86.37 21.20 84.53
  Q 22.48 83.90 23.38 82.83
  Q 23.69 82.46 24.15 82.33
  L 26.57 81.65
  Z" fill="#9e3e56"></path>
<path d="M 192.00 82.12
  L 192.00 126.12
  Q 191.77 125.87 191.74 125.39
  Q 191.70 124.71 191.36 125.30
  L 191.10 125.73
  Q 191.12 120.37 188.86 115.81
  Q 187.41 112.88 183.93 110.29
  Q 178.67 106.37 172.96 103.17
  L 149.48 88.59
  L 143.24 83.99
  Q 143.59 83.62 142.88 82.49
  Q 142.53 81.93 143.19 81.93
  L 192.00 82.12
  Z" fill="#952cb3"></path>
<path d="M 149.48 88.59
  L 172.96 103.17
  Q 172.33 103.16 172.11 103.69
  Q 171.94 104.10 171.49 104.11
  L 170.73 104.11
  Q 170.29 104.11 170.11 104.51
  Q 169.32 106.16 167.52 105.96
  A 1.31 1.31 0.0 0 0 166.07 107.34
  Q 166.11 108.14 165.50 108.47
  Q 165.10 108.69 164.91 109.10
  L 164.37 110.28
  L 152.34 102.51
  Q 151.51 101.97 150.76 102.62
  L 128.61 121.78
  A 0.23 0.21 -47.4 0 1 128.37 121.80
  L 121.04 117.22
  Q 120.83 117.09 121.02 116.93
  Q 132.12 107.36 143.32 97.58
  Q 143.66 97.28 143.00 96.76
  Q 143.63 96.47 144.23 96.77
  Q 144.67 96.99 144.54 97.42
  Q 144.46 97.66 144.22 97.60
  Q 144.05 97.57 144.12 97.78
  Q 144.17 97.90 144.29 97.88
  Q 144.81 97.81 145.27 98.01
  Q 145.73 98.22 145.64 97.72
  Q 145.52 96.99 145.85 96.34
  Q 146.12 95.81 146.71 95.89
  Q 148.22 96.09 148.13 94.64
  A 0.66 0.65 84.2 0 1 148.68 93.96
  L 150.73 93.60
  A 0.52 0.52 0.0 0 0 151.14 92.90
  L 149.48 88.59
  Z" fill="#3b2e5b"></path>
<path d="M 46.71 98.85
  L 78.10 119.95
  L 90.11 128.04
  L 102.97 137.03
  Q 104.40 138.03 102.67 137.82
  L 53.00 131.71
  Q 24.76 128.44 14.99 127.05
  Q 13.91 126.90 12.42 125.71
  Q 12.03 125.40 12.00 124.89
  Q 11.93 123.63 12.48 122.33
  L 15.24 113.71
  L 21.96 92.25
  Q 22.12 91.74 22.64 91.89
  L 46.71 98.85
  Z" fill="#ffffff"></path>
<path d="M 54.50 92.80
  L 87.24 115.71
  Q 84.92 118.69 80.89 119.94
  Q 80.49 120.07 80.20 119.76
  Q 79.20 118.66 78.10 119.95
  L 46.71 98.85
  L 53.50 93.84
  Q 53.78 93.63 53.57 93.35
  Q 53.44 93.17 53.32 93.12
  Q 53.26 93.10 53.32 93.09
  L 54.50 92.80
  Z" fill="#783156"></path>
<path d="M 172.96 103.17
  Q 178.67 106.37 183.93 110.29
  Q 187.41 112.88 188.86 115.81
  Q 191.12 120.37 191.10 125.73
  C 189.29 133.17 186.15 138.47 179.81 141.04
  C 170.99 144.60 160.94 146.68 149.74 149.22
  Q 138.04 151.88 125.93 151.01
  Q 126.43 149.66 127.54 149.60
  Q 127.88 149.58 127.88 149.24
  L 127.88 148.73
  A 0.42 0.41 81.6 0 1 128.17 148.33
  Q 129.15 148.03 128.87 147.02
  Q 128.72 146.51 129.10 146.14
  Q 129.45 145.80 129.95 145.86
  Q 130.29 145.90 130.18 145.57
  Q 130.05 145.20 130.07 144.79
  Q 130.10 144.28 130.48 143.95
  Q 130.94 143.56 131.24 142.98
  Q 131.33 142.80 131.51 142.89
  Q 131.63 142.94 131.74 143.00
  Q 132.50 143.36 131.98 142.70
  L 131.63 142.26
  Q 131.26 141.79 131.83 141.63
  Q 132.06 141.57 132.28 141.60
  Q 131.66 141.76 131.72 141.19
  Q 139.10 140.82 146.49 140.10
  C 154.07 139.36 177.85 135.65 180.68 127.07
  Q 181.64 124.15 181.77 121.10
  Q 181.79 120.62 181.41 120.31
  C 176.38 116.40 169.91 113.54 164.37 110.28
  L 164.91 109.10
  Q 165.10 108.69 165.50 108.47
  Q 166.11 108.14 166.07 107.34
  A 1.31 1.31 0.0 0 1 167.52 105.96
  Q 169.32 106.16 170.11 104.51
  Q 170.29 104.11 170.73 104.11
  L 171.49 104.11
  Q 171.94 104.10 172.11 103.69
  Q 172.33 103.16 172.96 103.17
  Z" fill="#312c4a"></path>
<path d="M 15.24 113.71
  L 12.48 122.33
  Q 11.60 122.25 11.25 122.67
  Q 11.01 122.95 10.64 122.95
  Q 9.38 122.98 8.63 123.90
  Q 8.30 124.30 7.79 124.39
  Q 4.16 124.98 1.41 127.00
  L 0.81 125.34
  Q 0.33 121.55 1.69 117.74
  Q 4.65 118.30 7.45 117.01
  C 9.78 115.93 11.96 115.39 14.00 114.15
  Q 14.31 113.97 14.38 114.32
  Q 14.40 114.47 14.38 114.63
  Q 14.28 114.18 14.59 113.85
  Q 14.91 113.49 15.24 113.71
  Z" fill="#783156"></path>
<path d="M 87.24 115.71
  L 101.51 125.50
  Q 100.47 126.43 101.10 127.34
  Q 101.40 127.77 100.87 127.78
  L 90.11 128.04
  L 78.10 119.95
  Q 79.20 118.66 80.20 119.76
  Q 80.49 120.07 80.89 119.94
  Q 84.92 118.69 87.24 115.71
  Z" fill="#592e5e"></path>
<path d="M 12.48 122.33
  Q 11.93 123.63 12.00 124.89
  Q 12.03 125.40 12.42 125.71
  Q 13.91 126.90 14.99 127.05
  Q 24.76 128.44 53.00 131.71
  Q 54.23 133.09 53.61 133.99
  A 0.10 0.10 0.0 0 0 53.66 134.14
  L 53.95 134.24
  Q 54.02 134.27 54.04 134.34
  Q 54.43 135.78 53.24 136.20
  A 0.22 0.22 0.0 0 1 52.95 136.01
  Q 52.94 135.85 52.91 135.68
  Q 52.85 135.32 52.50 135.44
  Q 51.17 135.90 50.98 137.10
  Q 50.89 137.64 50.47 138.00
  L 48.70 139.49
  Q 48.35 139.79 47.89 139.82
  Q 47.04 139.87 46.47 140.65
  Q 33.88 139.29 21.25 137.73
  C 13.65 136.79 4.55 134.90 1.41 127.00
  Q 4.16 124.98 7.79 124.39
  Q 8.30 124.30 8.63 123.90
  Q 9.38 122.98 10.64 122.95
  Q 11.01 122.95 11.25 122.67
  Q 11.60 122.25 12.48 122.33
  Z" fill="#592e5e"></path>
<path d="M 192.00 126.12
  L 192.00 155.12
  L 1.08 155.12
  Q 0.58 155.12 0.41 155.58
  Q 0.23 156.09 0.00 156.27
  L 0.00 128.89
  Q -0.11 125.63 0.81 125.34
  L 1.41 127.00
  C 4.55 134.90 13.65 136.79 21.25 137.73
  Q 33.88 139.29 46.47 140.65
  C 68.32 143.16 90.12 146.01 112.02 147.95
  Q 113.95 148.12 116.38 149.21
  Q 120.84 151.21 125.93 151.01
  Q 138.04 151.88 149.74 149.22
  C 160.94 146.68 170.99 144.60 179.81 141.04
  C 186.15 138.47 189.29 133.17 191.10 125.73
  L 191.36 125.30
  Q 191.70 124.71 191.74 125.39
  Q 191.77 125.87 192.00 126.12
  Z" fill="#b6299d"></path>
<path d="M 101.51 125.50
  Q 110.94 131.90 120.26 138.52
  C 124.59 141.60 126.67 141.06 131.72 141.19
  Q 131.66 141.76 132.28 141.60
  Q 132.06 141.57 131.83 141.63
  Q 131.26 141.79 131.63 142.26
  L 131.98 142.70
  Q 132.50 143.36 131.74 143.00
  Q 131.63 142.94 131.51 142.89
  Q 131.33 142.80 131.24 142.98
  Q 130.94 143.56 130.48 143.95
  Q 130.10 144.28 130.07 144.79
  Q 130.05 145.20 130.18 145.57
  Q 130.29 145.90 129.95 145.86
  Q 129.45 145.80 129.10 146.14
  Q 128.72 146.51 128.87 147.02
  Q 129.15 148.03 128.17 148.33
  A 0.42 0.41 81.6 0 0 127.88 148.73
  L 127.88 149.24
  Q 127.88 149.58 127.54 149.60
  Q 126.43 149.66 125.93 151.01
  Q 120.84 151.21 116.38 149.21
  Q 113.95 148.12 112.02 147.95
  C 90.12 146.01 68.32 143.16 46.47 140.65
  Q 47.04 139.87 47.89 139.82
  Q 48.35 139.79 48.70 139.49
  L 50.47 138.00
  Q 50.89 137.64 50.98 137.10
  Q 51.17 135.90 52.50 135.44
  Q 52.85 135.32 52.91 135.68
  Q 52.94 135.85 52.95 136.01
  A 0.22 0.22 0.0 0 0 53.24 136.20
  Q 54.43 135.78 54.04 134.34
  Q 54.02 134.27 53.95 134.24
  L 53.66 134.14
  A 0.10 0.10 0.0 0 1 53.61 133.99
  Q 54.23 133.09 53.00 131.71
  L 102.67 137.82
  Q 104.40 138.03 102.97 137.03
  L 90.11 128.04
  L 100.87 127.78
  Q 101.40 127.77 101.10 127.34
  Q 100.47 126.43 101.51 125.50
  Z" fill="#3b2e5b"></path>
<path d="M 192.00 155.12
  L 192.00 192.00
  L 0.00 192.00
  L 0.00 156.27
  Q 0.23 156.09 0.41 155.58
  Q 0.58 155.12 1.08 155.12
  L 192.00 155.12
  Z" fill="#bf2597"></path>
</svg>
