<svg viewBox="0.00 0.00 65.00 65.00" version="1.1" xmlns="http://www.w3.org/2000/svg">
<g stroke-linecap="butt" fill="none" stroke-width="2.00">
<path d="M 40.90 7.25
  Q 46.86 11.15 50.16 16.96" stroke-opacity="0.545" stroke="#a4e701"></path>
<path d="M 50.16 16.96
  C 60.17 37.32 41.49 58.83 19.99 51.49" stroke-opacity="0.596" stroke="#96d301"></path>
<path d="M 19.99 51.49
  Q 14.13 49.20 9.82 44.40" stroke-opacity="0.545" stroke="#a4e701"></path>
<path d="M 51.96 28.49
  A 23.48 23.48 0.0 0 0 28.48 5.01
  A 23.48 23.48 0.0 0 0 5.00 28.49
  A 23.48 23.48 0.0 0 0 28.48 51.97
  A 23.48 23.48 0.0 0 0 51.96 28.49" stroke="#5e8617"></path>
<path d="M 18.84 18.16
  L 23.59 21.63
  Q 24.13 22.02 23.71 22.54
  C 22.82 23.65 21.81 24.19 21.32 25.52
  Q 19.92 29.29 21.42 33.05
  Q 21.63 33.57 22.02 33.97
  L 23.91 35.91
  A 0.65 0.64 50.9 0 1 23.81 36.89
  L 18.91 40.29
  A 0.72 0.72 0.0 0 1 17.91 40.11
  Q 17.33 39.31 18.35 38.59
  Q 18.97 38.16 19.35 36.95
  Q 19.42 36.75 19.25 36.87
  Q 17.58 38.12 17.45 39.02
  Q 17.06 41.75 19.50 40.47
  Q 22.19 39.07 24.52 37.06
  Q 24.94 36.70 25.45 36.90
  C 29.97 38.69 32.33 37.21 35.65 34.36
  Q 36.07 34.01 36.44 34.41
  Q 38.24 36.34 39.61 38.63
  Q 41.23 41.34 38.44 39.87
  L 37.06 39.14
  Q 36.22 38.70 36.89 39.37
  Q 38.19 40.66 40.02 40.72
  A 0.85 0.85 0.0 0 0 40.76 39.40
  L 36.79 33.44
  Q 36.50 33.01 36.69 32.53
  Q 37.99 29.22 36.77 25.84
  Q 36.61 25.39 36.87 24.99
  Q 37.84 23.50 39.25 22.41
  Q 39.68 22.08 39.86 21.57
  L 41.08 18.09
  A 0.77 0.77 0.0 0 0 40.44 17.06
  C 38.51 16.84 35.70 19.39 34.31 20.65
  Q 34.16 20.78 34.28 20.94
  L 34.44 21.13
  Q 34.45 21.14 34.45 21.14
  Q 36.35 19.77 38.30 18.59
  Q 41.65 16.56 39.21 19.58
  Q 38.85 20.03 37.99 20.95
  A 1.92 1.91 73.7 0 0 37.55 21.76
  Q 37.25 22.96 36.28 23.70
  Q 35.89 23.99 35.50 23.70
  C 34.43 22.90 33.62 21.79 32.41 21.34
  Q 29.18 20.14 25.85 21.21
  Q 25.39 21.36 24.99 21.08
  L 18.90 16.94
  A 1.21 1.21 0.0 0 0 17.03 18.17
  Q 17.21 19.12 17.69 19.84
  Q 17.93 20.22 17.96 20.67
  L 18.05 21.94
  A 0.71 0.71 0.0 0 0 18.71 22.60
  Q 20.05 22.67 20.66 23.92
  A 0.18 0.18 0.0 0 0 21.00 23.81
  Q 20.90 23.30 20.51 23.02
  Q 20.12 22.73 20.29 22.27
  Q 20.61 21.44 19.59 20.61
  A 0.03 0.02 58.3 0 0 19.57 20.60
  Q 18.57 19.87 18.15 18.67
  A 0.45 0.45 0.0 0 1 18.84 18.16" stroke="#838694"></path>
<path d="M 31.75 22.45
  A 0.52 0.52 0.0 0 0 31.46 22.34
  L 27.40 22.09
  A 0.52 0.52 0.0 0 0 27.00 22.97
  L 31.97 27.97
  A 0.52 0.52 0.0 0 0 32.73 27.95
  L 34.82 25.63
  A 0.52 0.52 0.0 0 0 34.76 24.88
  L 31.75 22.45" stroke="#838694"></path>
<path d="M 25.05 23.30
  C 21.48 26.20 20.52 32.63 25.22 34.93
  Q 25.74 35.18 26.15 34.77
  L 31.44 29.49
  A 0.43 0.43 0.0 0 0 31.44 28.87
  L 25.68 23.33
  Q 25.38 23.03 25.05 23.30" stroke="#838694"></path>
<path d="M 34.40 31.87
  L 32.64 30.17
  A 0.47 0.46 44.6 0 0 31.99 30.17
  L 26.75 35.28
  A 0.41 0.40 28.1 0 0 26.96 35.97
  Q 33.33 37.12 35.63 31.33
  Q 36.41 29.36 35.64 27.18
  A 0.42 0.42 0.0 0 0 34.94 27.04
  L 33.42 28.67
  A 0.82 0.81 -45.3 0 0 33.42 29.78
  L 34.82 31.24
  Q 34.97 31.39 34.83 31.56
  L 34.58 31.86
  Q 34.49 31.96 34.40 31.87" stroke="#838694"></path>
</g>
<path d="M 40.90 7.25
  Q 46.86 11.15 50.16 16.96
  C 60.17 37.32 41.49 58.83 19.99 51.49
  Q 14.13 49.20 9.82 44.40
  C -6.93 22.65 16.33 -5.98 40.90 7.25
  Z
  M 51.96 28.49
  A 23.48 23.48 0.0 0 0 28.48 5.01
  A 23.48 23.48 0.0 0 0 5.00 28.49
  A 23.48 23.48 0.0 0 0 28.48 51.97
  A 23.48 23.48 0.0 0 0 51.96 28.49
  Z" fill-opacity="0.996" fill="#b3fc01"></path>
<path d="M 51.96 28.49
  A 23.48 23.48 0.0 0 1 28.48 51.97
  A 23.48 23.48 0.0 0 1 5.00 28.49
  A 23.48 23.48 0.0 0 1 28.48 5.01
  A 23.48 23.48 0.0 0 1 51.96 28.49
  Z
  M 18.84 18.16
  L 23.59 21.63
  Q 24.13 22.02 23.71 22.54
  C 22.82 23.65 21.81 24.19 21.32 25.52
  Q 19.92 29.29 21.42 33.05
  Q 21.63 33.57 22.02 33.97
  L 23.91 35.91
  A 0.65 0.64 50.9 0 1 23.81 36.89
  L 18.91 40.29
  A 0.72 0.72 0.0 0 1 17.91 40.11
  Q 17.33 39.31 18.35 38.59
  Q 18.97 38.16 19.35 36.95
  Q 19.42 36.75 19.25 36.87
  Q 17.58 38.12 17.45 39.02
  Q 17.06 41.75 19.50 40.47
  Q 22.19 39.07 24.52 37.06
  Q 24.94 36.70 25.45 36.90
  C 29.97 38.69 32.33 37.21 35.65 34.36
  Q 36.07 34.01 36.44 34.41
  Q 38.24 36.34 39.61 38.63
  Q 41.23 41.34 38.44 39.87
  L 37.06 39.14
  Q 36.22 38.70 36.89 39.37
  Q 38.19 40.66 40.02 40.72
  A 0.85 0.85 0.0 0 0 40.76 39.40
  L 36.79 33.44
  Q 36.50 33.01 36.69 32.53
  Q 37.99 29.22 36.77 25.84
  Q 36.61 25.39 36.87 24.99
  Q 37.84 23.50 39.25 22.41
  Q 39.68 22.08 39.86 21.57
  L 41.08 18.09
  A 0.77 0.77 0.0 0 0 40.44 17.06
  C 38.51 16.84 35.70 19.39 34.31 20.65
  Q 34.16 20.78 34.28 20.94
  L 34.44 21.13
  Q 34.45 21.14 34.45 21.14
  Q 36.35 19.77 38.30 18.59
  Q 41.65 16.56 39.21 19.58
  Q 38.85 20.03 37.99 20.95
  A 1.92 1.91 73.7 0 0 37.55 21.76
  Q 37.25 22.96 36.28 23.70
  Q 35.89 23.99 35.50 23.70
  C 34.43 22.90 33.62 21.79 32.41 21.34
  Q 29.18 20.14 25.85 21.21
  Q 25.39 21.36 24.99 21.08
  L 18.90 16.94
  A 1.21 1.21 0.0 0 0 17.03 18.17
  Q 17.21 19.12 17.69 19.84
  Q 17.93 20.22 17.96 20.67
  L 18.05 21.94
  A 0.71 0.71 0.0 0 0 18.71 22.60
  Q 20.05 22.67 20.66 23.92
  A 0.18 0.18 0.0 0 0 21.00 23.81
  Q 20.90 23.30 20.51 23.02
  Q 20.12 22.73 20.29 22.27
  Q 20.61 21.44 19.59 20.61
  A 0.03 0.02 58.3 0 0 19.57 20.60
  Q 18.57 19.87 18.15 18.67
  A 0.45 0.45 0.0 0 1 18.84 18.16
  Z" fill="#0a102d"></path>
<path d="M 40.90 7.25
  Q 43.84 8.16 46.75 9.99
  Q 46.85 10.05 47.42 10.59
  Q 47.75 10.91 48.24 10.90
  Q 48.78 10.89 49.14 11.29
  C 52.13 14.55 52.59 17.86 54.32 21.70
  C 55.32 23.92 55.46 26.20 56.16 28.50
  C 57.08 31.56 55.82 35.87 55.61 39.47
  C 55.44 42.53 54.89 44.59 54.21 47.51
  Q 53.78 49.38 52.70 50.61
  Q 51.08 52.47 49.18 54.10
  Q 48.46 54.72 47.58 55.29
  Q 45.82 56.41 43.92 57.24
  Q 42.44 57.90 39.96 58.36
  C 37.41 58.83 34.75 59.68 32.31 59.68
  Q 26.10 59.65 20.50 56.98
  C 19.04 56.29 17.98 54.98 16.41 54.12
  Q 16.01 53.90 15.66 53.59
  L 12.82 51.09
  Q 12.48 50.79 12.22 50.41
  Q 11.44 49.26 9.91 47.50
  Q 9.32 46.82 9.81 45.92
  Q 9.97 45.63 9.64 45.63
  Q 9.51 45.63 9.34 45.71
  Q 9.23 45.76 9.23 45.64
  Q 9.21 44.89 9.82 44.40
  Q 14.13 49.20 19.99 51.49
  Q 19.84 52.66 21.08 52.78
  A 0.92 0.88 -21.4 0 1 21.54 52.97
  C 23.74 54.75 27.28 55.15 30.01 55.53
  Q 31.16 55.70 32.98 55.47
  Q 34.48 55.29 36.00 55.39
  Q 37.73 55.51 42.03 53.63
  C 44.30 52.63 46.15 50.91 48.18 49.41
  Q 52.83 45.99 52.91 40.25
  Q 52.92 39.83 53.14 39.46
  Q 53.78 38.34 53.63 37.09
  Q 53.56 36.57 53.78 36.10
  C 56.38 30.36 54.57 24.36 52.05 19.25
  Q 51.44 18.02 50.16 16.96
  Q 46.86 11.15 40.90 7.25
  Z" fill-opacity="0.090" fill="#000000"></path>
<path d="M 18.15 18.67
  Q 18.57 19.87 19.57 20.60
  A 0.03 0.02 58.3 0 1 19.59 20.61
  Q 20.61 21.44 20.29 22.27
  Q 20.12 22.73 20.51 23.02
  Q 20.90 23.30 21.00 23.81
  A 0.18 0.18 0.0 0 1 20.66 23.92
  Q 20.05 22.67 18.71 22.60
  A 0.71 0.71 0.0 0 1 18.05 21.94
  L 17.96 20.67
  Q 17.93 20.22 17.69 19.84
  Q 17.21 19.12 17.03 18.17
  A 1.21 1.21 0.0 0 1 18.90 16.94
  L 24.99 21.08
  Q 25.39 21.36 25.85 21.21
  Q 29.18 20.14 32.41 21.34
  C 33.62 21.79 34.43 22.90 35.50 23.70
  Q 35.89 23.99 36.28 23.70
  Q 37.25 22.96 37.55 21.76
  A 1.92 1.91 73.7 0 1 37.99 20.95
  Q 38.85 20.03 39.21 19.58
  Q 41.65 16.56 38.30 18.59
  Q 36.35 19.77 34.45 21.14
  Q 34.45 21.14 34.44 21.13
  L 34.28 20.94
  Q 34.16 20.78 34.31 20.65
  C 35.70 19.39 38.51 16.84 40.44 17.06
  A 0.77 0.77 0.0 0 1 41.08 18.09
  L 39.86 21.57
  Q 39.68 22.08 39.25 22.41
  Q 37.84 23.50 36.87 24.99
  Q 36.61 25.39 36.77 25.84
  Q 37.99 29.22 36.69 32.53
  Q 36.50 33.01 36.79 33.44
  L 40.76 39.40
  A 0.85 0.85 0.0 0 1 40.02 40.72
  Q 38.19 40.66 36.89 39.37
  Q 36.22 38.70 37.06 39.14
  L 38.44 39.87
  Q 41.23 41.34 39.61 38.63
  Q 38.24 36.34 36.44 34.41
  Q 36.07 34.01 35.65 34.36
  C 32.33 37.21 29.97 38.69 25.45 36.90
  Q 24.94 36.70 24.52 37.06
  Q 22.19 39.07 19.50 40.47
  Q 17.06 41.75 17.45 39.02
  Q 17.58 38.12 19.25 36.87
  Q 19.42 36.75 19.35 36.95
  Q 18.97 38.16 18.35 38.59
  Q 17.33 39.31 17.91 40.11
  A 0.72 0.72 0.0 0 0 18.91 40.29
  L 23.81 36.89
  A 0.65 0.64 50.9 0 0 23.91 35.91
  L 22.02 33.97
  Q 21.63 33.57 21.42 33.05
  Q 19.92 29.29 21.32 25.52
  C 21.81 24.19 22.82 23.65 23.71 22.54
  Q 24.13 22.02 23.59 21.63
  L 18.84 18.16
  A 0.45 0.45 0.0 0 0 18.15 18.67
  Z
  M 31.75 22.45
  A 0.52 0.52 0.0 0 0 31.46 22.34
  L 27.40 22.09
  A 0.52 0.52 0.0 0 0 27.00 22.97
  L 31.97 27.97
  A 0.52 0.52 0.0 0 0 32.73 27.95
  L 34.82 25.63
  A 0.52 0.52 0.0 0 0 34.76 24.88
  L 31.75 22.45
  Z
  M 25.05 23.30
  C 21.48 26.20 20.52 32.63 25.22 34.93
  Q 25.74 35.18 26.15 34.77
  L 31.44 29.49
  A 0.43 0.43 0.0 0 0 31.44 28.87
  L 25.68 23.33
  Q 25.38 23.03 25.05 23.30
  Z
  M 34.40 31.87
  L 32.64 30.17
  A 0.47 0.46 44.6 0 0 31.99 30.17
  L 26.75 35.28
  A 0.41 0.40 28.1 0 0 26.96 35.97
  Q 33.33 37.12 35.63 31.33
  Q 36.41 29.36 35.64 27.18
  A 0.42 0.42 0.0 0 0 34.94 27.04
  L 33.42 28.67
  A 0.82 0.81 -45.3 0 0 33.42 29.78
  L 34.82 31.24
  Q 34.97 31.39 34.83 31.56
  L 34.58 31.86
  Q 34.49 31.96 34.40 31.87
  Z" fill="#fcfcfb"></path>
<path d="M 50.16 16.96
  Q 51.44 18.02 52.05 19.25
  C 54.57 24.36 56.38 30.36 53.78 36.10
  Q 53.56 36.57 53.63 37.09
  Q 53.78 38.34 53.14 39.46
  Q 52.92 39.83 52.91 40.25
  Q 52.83 45.99 48.18 49.41
  C 46.15 50.91 44.30 52.63 42.03 53.63
  Q 37.73 55.51 36.00 55.39
  Q 34.48 55.29 32.98 55.47
  Q 31.16 55.70 30.01 55.53
  C 27.28 55.15 23.74 54.75 21.54 52.97
  A 0.92 0.88 -21.4 0 0 21.08 52.78
  Q 19.84 52.66 19.99 51.49
  C 41.49 58.83 60.17 37.32 50.16 16.96
  Z" fill-opacity="0.196" fill="#000000"></path>
<path d="M 31.75 22.45
  L 34.76 24.88
  A 0.52 0.52 0.0 0 1 34.82 25.63
  L 32.73 27.95
  A 0.52 0.52 0.0 0 1 31.97 27.97
  L 27.00 22.97
  A 0.52 0.52 0.0 0 1 27.40 22.09
  L 31.46 22.34
  A 0.52 0.52 0.0 0 1 31.75 22.45
  Z" fill="#0a102d"></path>
<path d="M 25.22 34.93
  C 20.52 32.63 21.48 26.20 25.05 23.30
  Q 25.38 23.03 25.68 23.33
  L 31.44 28.87
  A 0.43 0.43 0.0 0 1 31.44 29.49
  L 26.15 34.77
  Q 25.74 35.18 25.22 34.93
  Z" fill="#0a102d"></path>
<path d="M 34.40 31.87
  Q 34.49 31.96 34.58 31.86
  L 34.83 31.56
  Q 34.97 31.39 34.82 31.24
  L 33.42 29.78
  A 0.82 0.81 -45.3 0 1 33.42 28.67
  L 34.94 27.04
  A 0.42 0.42 0.0 0 1 35.64 27.18
  Q 36.41 29.36 35.63 31.33
  Q 33.33 37.12 26.96 35.97
  A 0.41 0.40 28.1 0 1 26.75 35.28
  L 31.99 30.17
  A 0.47 0.46 44.6 0 1 32.64 30.17
  L 34.40 31.87
  Z" fill="#0a102d"></path>
</svg>
