<svg viewBox="0.00 0.00 192.00 192.00" version="1.1" xmlns="http://www.w3.org/2000/svg">
<g stroke-linecap="butt" fill="none" stroke-width="2.00">
<path d="M 98.36 17.85
  Q 97.72 18.18 97.64 18.69
  Q 97.58 19.05 97.87 19.30
  Q 97.90 19.33 97.96 19.33
  Q 98.66 19.31 98.61 20.06
  Q 98.31 24.93 98.42 30.04
  Q 98.63 39.69 98.63 39.97
  Q 98.65 58.60 98.63 77.24
  Q 98.63 78.31 98.41 80.26
  Q 98.25 81.70 98.24 83.28" stroke="#3936c3"></path>
<path d="M 76.89 109.54
  Q 75.09 109.46 75.66 108.26
  Q 75.90 107.76 75.90 107.25
  L 75.85 38.08
  A 0.52 0.48 -61.2 0 0 75.79 37.84
  Q 75.31 36.95 75.68 35.98
  Q 75.85 35.52 75.86 35.02
  L 75.92 32.44
  Q 75.93 32.14 75.63 32.11
  L 74.91 32.02" stroke="#2c1eaf"></path>
<path d="M 74.37 183.29
  Q 72.33 177.52 69.74 171.96
  Q 68.86 170.05 68.55 168.33
  Q 68.17 166.19 67.48 164.59
  Q 66.26 161.75 65.22 158.55
  Q 64.41 156.04 63.31 153.45
  Q 62.27 151.03 61.47 148.53
  Q 60.98 147.00 60.08 145.33
  Q 59.86 144.92 59.84 144.45
  Q 59.83 143.89 59.42 143.62
  Q 59.01 143.35 58.38 143.35
  Q 48.11 143.30 38.17 143.36" stroke="#312cb6"></path>
<path d="M 38.17 143.36
  L 18.81 143.24" stroke="#3b48c2"></path>
<path d="M 18.81 143.24
  L 11.76 143.02" stroke="#435ecd"></path>
<path d="M 118.26 38.19
  Q 117.11 40.82 117.34 43.25
  Q 117.65 46.44 117.54 48.60
  Q 117.37 51.85 117.37 51.89
  Q 117.37 78.45 117.36 105.00
  Q 117.36 107.66 117.90 111.46
  Q 118.34 114.61 118.49 117.92" stroke="#4456d2"></path>
<path d="M 38.17 143.36
  L 52.28 181.08
  A 0.93 0.92 -39.1 0 1 52.19 181.90
  Q 51.70 182.68 52.49 183.42" stroke="#4860d7"></path>
<path d="M 18.81 143.24
  L 26.21 164.22
  Q 26.36 164.67 26.62 165.07
  Q 27.83 166.90 28.11 169.06
  A 1.11 1.11 0.0 0 0 28.54 169.80
  Q 29.39 170.43 29.08 171.51
  Q 28.99 171.80 29.29 171.89
  Q 29.58 171.99 29.67 172.28
  Q 30.41 175.04 31.59 177.79
  Q 32.12 179.01 32.13 180.42
  Q 32.13 181.81 32.07 183.24" stroke="#5992ee"></path>
<path d="M 188.48 101.72
  Q 188.05 101.19 187.72 101.18
  Q 187.53 101.17 187.46 101.35
  L 187.36 101.64
  Q 187.24 101.97 186.89 101.97
  L 155.54 101.93" stroke="#3f47cb"></path>
<path d="M 155.54 101.93
  L 150.70 93.89
  A 0.53 0.53 0.0 0 0 149.76 93.95
  Q 149.25 95.16 150.07 96.02
  Q 150.32 96.28 150.24 96.64
  Q 149.92 97.99 149.92 99.29
  Q 149.90 129.49 149.88 159.68
  C 149.87 163.30 150.41 166.79 150.88 170.37
  Q 151.08 171.92 149.91 171.80" stroke="#527ce4"></path>
<path d="M 155.54 101.93
  Q 171.27 128.97 186.16 154.58
  Q 187.60 157.05 188.40 163.89" stroke="#475cd5"></path>
</g>
<ellipse ry="21.05" rx="22.18" transform="translate(167.79,30.80) rotate(89.8)" cy="0.00" cx="0.00" fill="#61a8f9"></ellipse>
<path d="M 98.36 17.85
  Q 97.72 18.18 97.64 18.69
  Q 97.58 19.05 97.87 19.30
  Q 97.90 19.33 97.96 19.33
  Q 98.66 19.31 98.61 20.06
  Q 98.31 24.93 98.42 30.04
  Q 98.63 39.69 98.63 39.97
  Q 98.65 58.60 98.63 77.24
  Q 98.63 78.31 98.41 80.26
  Q 98.25 81.70 98.24 83.28
  L 95.27 78.38
  Q 95.00 77.94 94.75 78.38
  L 76.89 109.54
  Q 75.09 109.46 75.66 108.26
  Q 75.90 107.76 75.90 107.25
  L 75.85 38.08
  A 0.52 0.48 -61.2 0 0 75.79 37.84
  Q 75.31 36.95 75.68 35.98
  Q 75.85 35.52 75.86 35.02
  L 75.92 32.44
  Q 75.93 32.14 75.63 32.11
  L 74.91 32.02
  Q 82.25 15.91 98.36 17.85
  Z" fill="#3427bc"></path>
<path d="M 98.36 17.85
  C 109.19 20.11 112.70 28.23 118.26 38.19
  Q 117.11 40.82 117.34 43.25
  Q 117.65 46.44 117.54 48.60
  Q 117.37 51.85 117.37 51.89
  Q 117.37 78.45 117.36 105.00
  Q 117.36 107.66 117.90 111.46
  Q 118.34 114.61 118.49 117.92
  L 98.24 83.28
  Q 98.25 81.70 98.41 80.26
  Q 98.63 78.31 98.63 77.24
  Q 98.65 58.60 98.63 39.97
  Q 98.63 39.69 98.42 30.04
  Q 98.31 24.93 98.61 20.06
  Q 98.66 19.31 97.96 19.33
  Q 97.90 19.33 97.87 19.30
  Q 97.58 19.05 97.64 18.69
  Q 97.72 18.18 98.36 17.85
  Z" fill="#3e44ca"></path>
<path d="M 74.91 32.02
  L 75.63 32.11
  Q 75.93 32.14 75.92 32.44
  L 75.86 35.02
  Q 75.85 35.52 75.68 35.98
  Q 75.31 36.95 75.79 37.84
  A 0.52 0.48 -61.2 0 1 75.85 38.08
  L 75.90 107.25
  Q 75.90 107.76 75.66 108.26
  Q 75.09 109.46 76.89 109.54
  L 58.21 142.19
  A 0.53 0.52 15.3 0 0 58.66 142.97
  Q 65.77 143.13 73.04 142.93
  Q 80.98 142.70 85.44 144.61
  C 96.47 149.31 101.05 162.51 95.00 173.10
  Q 88.85 183.86 74.37 183.29
  Q 72.33 177.52 69.74 171.96
  Q 68.86 170.05 68.55 168.33
  Q 68.17 166.19 67.48 164.59
  Q 66.26 161.75 65.22 158.55
  Q 64.41 156.04 63.31 153.45
  Q 62.27 151.03 61.47 148.53
  Q 60.98 147.00 60.08 145.33
  Q 59.86 144.92 59.84 144.45
  Q 59.83 143.89 59.42 143.62
  Q 59.01 143.35 58.38 143.35
  Q 48.11 143.30 38.17 143.36
  L 18.81 143.24
  L 11.76 143.02
  L 74.91 32.02
  Z" fill="#2414a1"></path>
<path d="M 118.26 38.19
  L 146.29 86.16
  Q 147.30 87.88 147.10 85.90
  Q 146.17 76.77 151.09 70.33
  C 159.10 59.82 173.66 59.12 182.85 68.31
  Q 188.05 73.51 188.26 81.50
  Q 188.53 91.61 188.48 101.72
  Q 188.05 101.19 187.72 101.18
  Q 187.53 101.17 187.46 101.35
  L 187.36 101.64
  Q 187.24 101.97 186.89 101.97
  L 155.54 101.93
  L 150.70 93.89
  A 0.53 0.53 0.0 0 0 149.76 93.95
  Q 149.25 95.16 150.07 96.02
  Q 150.32 96.28 150.24 96.64
  Q 149.92 97.99 149.92 99.29
  Q 149.90 129.49 149.88 159.68
  C 149.87 163.30 150.41 166.79 150.88 170.37
  Q 151.08 171.92 149.91 171.80
  L 118.49 117.92
  Q 118.34 114.61 117.90 111.46
  Q 117.36 107.66 117.36 105.00
  Q 117.37 78.45 117.37 51.89
  Q 117.37 51.85 117.54 48.60
  Q 117.65 46.44 117.34 43.25
  Q 117.11 40.82 118.26 38.19
  Z" fill="#4a67da"></path>
<path d="M 155.54 101.93
  Q 171.27 128.97 186.16 154.58
  Q 187.60 157.05 188.40 163.89
  C 186.58 176.45 177.00 184.94 164.33 182.80
  Q 155.21 181.26 149.91 171.80
  Q 151.08 171.92 150.88 170.37
  C 150.41 166.79 149.87 163.30 149.88 159.68
  Q 149.90 129.49 149.92 99.29
  Q 149.92 97.99 150.24 96.64
  Q 150.32 96.28 150.07 96.02
  Q 149.25 95.16 149.76 93.95
  A 0.53 0.53 0.0 0 1 150.70 93.89
  L 155.54 101.93
  Z" fill="#5991ee"></path>
<path d="M 188.48 101.72
  L 188.40 163.89
  Q 187.60 157.05 186.16 154.58
  Q 171.27 128.97 155.54 101.93
  L 186.89 101.97
  Q 187.24 101.97 187.36 101.64
  L 187.46 101.35
  Q 187.53 101.17 187.72 101.18
  Q 188.05 101.19 188.48 101.72
  Z" fill="#3427bc"></path>
<path d="M 11.76 143.02
  L 18.81 143.24
  L 26.21 164.22
  Q 26.36 164.67 26.62 165.07
  Q 27.83 166.90 28.11 169.06
  A 1.11 1.11 0.0 0 0 28.54 169.80
  Q 29.39 170.43 29.08 171.51
  Q 28.99 171.80 29.29 171.89
  Q 29.58 171.99 29.67 172.28
  Q 30.41 175.04 31.59 177.79
  Q 32.12 179.01 32.13 180.42
  Q 32.13 181.81 32.07 183.24
  C 27.81 183.32 23.13 183.61 19.21 182.70
  C 8.98 180.33 1.92 170.94 3.52 160.31
  C 4.38 154.65 8.60 148.20 11.76 143.02
  Z" fill="#61a8f9"></path>
<path d="M 18.81 143.24
  L 38.17 143.36
  L 52.28 181.08
  A 0.93 0.92 -39.1 0 1 52.19 181.90
  Q 51.70 182.68 52.49 183.42
  L 32.07 183.24
  Q 32.13 181.81 32.13 180.42
  Q 32.12 179.01 31.59 177.79
  Q 30.41 175.04 29.67 172.28
  Q 29.58 171.99 29.29 171.89
  Q 28.99 171.80 29.08 171.51
  Q 29.39 170.43 28.54 169.80
  A 1.11 1.11 0.0 0 1 28.11 169.06
  Q 27.83 166.90 26.62 165.07
  Q 26.36 164.67 26.21 164.22
  L 18.81 143.24
  Z" fill="#517be3"></path>
<path d="M 38.17 143.36
  Q 48.11 143.30 58.38 143.35
  Q 59.01 143.35 59.42 143.62
  Q 59.83 143.89 59.84 144.45
  Q 59.86 144.92 60.08 145.33
  Q 60.98 147.00 61.47 148.53
  Q 62.27 151.03 63.31 153.45
  Q 64.41 156.04 65.22 158.55
  Q 66.26 161.75 67.48 164.59
  Q 68.17 166.19 68.55 168.33
  Q 68.86 170.05 69.74 171.96
  Q 72.33 177.52 74.37 183.29
  L 52.49 183.42
  Q 51.70 182.68 52.19 181.90
  A 0.93 0.92 -39.1 0 0 52.28 181.08
  L 38.17 143.36
  Z" fill="#3e44ca"></path>
</svg>
