<svg viewBox="0.00 0.00 32.00 32.00" version="1.1" xmlns="http://www.w3.org/2000/svg">
<g stroke-linecap="butt" fill="none" stroke-width="2.00">
<path d="M 26.30 6.93
  Q 25.41 7.34 24.65 7.13
  Q 24.20 7.01 23.73 7.03
  L 4.50 7.81" stroke="#df2f80"></path>
<path d="M 30.31 12.63
  C 28.22 12.92 26.66 13.74 24.71 12.32" stroke="#cf259a"></path>
<path d="M 24.71 12.32
  Q 25.35 11.38 24.89 10.46
  A 1.48 1.47 -26.3 0 0 22.91 9.80
  Q 21.09 10.70 22.53 12.76" stroke="#eb95c5"></path>
<path d="M 22.53 12.76
  Q 17.76 12.99 13.00 12.87
  Q 11.29 12.82 9.12 15.41
  Q 9.00 15.54 8.83 15.51
  Q 8.70 15.48 8.59 15.58" stroke="#cf259a"></path>
<path d="M 6.78 14.57
  C 6.15 12.57 4.62 12.42 4.57 9.82" stroke-opacity="0.988" stroke="#cf2e78"></path>
<path d="M 3.82 15.44
  Q 2.80 15.82 3.08 15.93" stroke-opacity="0.988" stroke="#c62985"></path>
<path d="M 24.71 12.32
  Q 23.79 13.11 22.53 12.76" stroke="#e390d3"></path>
<path d="M 29.91 20.01
  L 23.79 19.88" stroke="#a128ba"></path>
<path d="M 23.79 19.88
  Q 24.47 18.65 21.00 18.71
  Q 16.87 18.79 12.72 18.37
  Q 12.23 18.32 12.04 18.78
  Q 11.64 19.82 11.91 20.97" stroke="#cc46af"></path>
<path d="M 11.91 20.97
  C 9.66 21.16 7.60 22.37 4.58 22.38" stroke="#a128ba"></path>
<path d="M 23.79 19.88
  Q 22.10 21.77 20.75 22.21" stroke="#a74ec2"></path>
<path d="M 20.75 22.21
  Q 17.18 21.80 13.86 21.66
  C 13.32 21.64 12.95 21.85 12.62 22.22" stroke="#e097ca"></path>
<path d="M 12.62 22.22
  Q 12.08 21.80 11.91 20.97" stroke="#a74ec2"></path>
<path d="M 12.62 22.22
  C 14.76 24.83 18.13 23.86 20.75 22.21" stroke="#b579d5"></path>
</g>
<path d="M 26.30 6.93
  Q 25.41 7.34 24.65 7.13
  Q 24.20 7.01 23.73 7.03
  L 4.50 7.81
  C 6.71 -4.69 20.82 0.78 26.30 6.93
  Z" fill="#e63473"></path>
<path d="M 26.30 6.93
  L 30.31 12.63
  C 28.22 12.92 26.66 13.74 24.71 12.32
  Q 25.35 11.38 24.89 10.46
  A 1.48 1.47 -26.3 0 0 22.91 9.80
  Q 21.09 10.70 22.53 12.76
  Q 17.76 12.99 13.00 12.87
  Q 11.29 12.82 9.12 15.41
  Q 9.00 15.54 8.83 15.51
  Q 8.70 15.48 8.59 15.58
  Q 7.79 14.72 6.78 14.57
  C 6.15 12.57 4.62 12.42 4.57 9.82
  L 4.50 7.81
  L 23.73 7.03
  Q 24.20 7.01 24.65 7.13
  Q 25.41 7.34 26.30 6.93
  Z" fill="#d72a8c"></path>
<path d="M 4.57 9.82
  C 4.62 12.42 6.15 12.57 6.78 14.57
  Q 5.46 14.92 4.00 14.94
  Q 3.56 14.94 3.82 15.44
  Q 2.80 15.82 3.08 15.93
  Q 0.94 15.44 0.00 13.67
  L 0.00 12.04
  Q 1.63 9.87 4.57 9.82
  Z" fill-opacity="0.973" fill="#c73363"></path>
<path d="M 24.71 12.32
  Q 23.79 13.11 22.53 12.76
  Q 21.09 10.70 22.91 9.80
  A 1.48 1.47 -26.3 0 1 24.89 10.46
  Q 25.35 11.38 24.71 12.32
  Z" fill="#fffffe"></path>
<path d="M 24.71 12.32
  C 26.66 13.74 28.22 12.92 30.31 12.63
  L 32.00 15.92
  L 32.00 16.22
  L 29.91 20.01
  L 23.79 19.88
  Q 24.47 18.65 21.00 18.71
  Q 16.87 18.79 12.72 18.37
  Q 12.23 18.32 12.04 18.78
  Q 11.64 19.82 11.91 20.97
  C 9.66 21.16 7.60 22.37 4.58 22.38
  Q 1.25 22.12 0.00 19.68
  L 0.00 18.45
  Q 0.52 16.95 3.08 15.93
  Q 2.80 15.82 3.82 15.44
  L 8.59 15.58
  Q 8.70 15.48 8.83 15.51
  Q 9.00 15.54 9.12 15.41
  Q 11.29 12.82 13.00 12.87
  Q 17.76 12.99 22.53 12.76
  Q 23.79 13.11 24.71 12.32
  Z" fill="#c620a7"></path>
<path d="M 23.79 19.88
  Q 22.10 21.77 20.75 22.21
  Q 17.18 21.80 13.86 21.66
  C 13.32 21.64 12.95 21.85 12.62 22.22
  Q 12.08 21.80 11.91 20.97
  Q 11.64 19.82 12.04 18.78
  Q 12.23 18.32 12.72 18.37
  Q 16.87 18.79 21.00 18.71
  Q 24.47 18.65 23.79 19.88
  Z" fill="#d26bb7"></path>
<path d="M 29.91 20.01
  Q 25.38 28.49 16.87 31.00
  C 10.02 33.01 4.28 30.20 4.58 22.38
  C 7.60 22.37 9.66 21.16 11.91 20.97
  Q 12.08 21.80 12.62 22.22
  C 14.76 24.83 18.13 23.86 20.75 22.21
  Q 22.10 21.77 23.79 19.88
  L 29.91 20.01
  Z" fill="#7c30cd"></path>
<path d="M 20.75 22.21
  C 18.13 23.86 14.76 24.83 12.62 22.22
  C 12.95 21.85 13.32 21.64 13.86 21.66
  Q 17.18 21.80 20.75 22.21
  Z" fill="#eec2dd"></path>
</svg>
