<svg viewBox="0.00 0.00 192.00 192.00" version="1.1" xmlns="http://www.w3.org/2000/svg">
<path d="M 82.36 78.78
  A 1.53 1.53 0.0 0 1 80.76 78.61
  L 75.55 74.61
  A 0.98 0.96 -64.8 0 1 75.20 73.61
  Q 79.46 56.87 83.80 40.04
  C 84.81 36.13 87.61 33.78 91.12 37.02
  Q 102.76 47.79 106.22 63.36
  Q 106.34 63.90 105.90 64.24
  Q 94.88 72.74 82.36 78.78
  Z" fill="#000000"></path>
<path d="M 101.59 136.87
  C 90.01 140.69 72.92 140.74 67.20 127.62
  Q 64.40 121.21 62.01 112.74
  C 58.68 100.97 52.76 94.66 40.01 100.37
  C 36.31 102.03 32.89 100.32 33.63 96.05
  C 34.99 88.26 38.90 79.35 45.96 75.68
  C 56.37 70.27 70.59 79.98 77.92 87.10
  A 2.33 2.33 0.0 0 0 79.98 87.71
  C 89.90 85.84 100.36 78.37 108.50 72.51
  C 124.12 61.26 139.41 49.52 155.62 39.12
  C 159.71 36.49 163.12 37.95 163.11 42.88
  C 163.08 56.45 161.82 70.69 157.09 83.50
  C 150.34 101.77 137.09 110.48 118.19 113.53
  Q 115.35 113.99 117.97 115.17
  Q 131.23 121.14 144.09 117.90
  C 146.11 117.39 147.72 118.67 148.65 120.49
  C 157.88 138.65 138.80 153.82 123.64 158.13
  Q 122.03 158.58 120.31 157.49
  C 112.71 152.64 104.84 146.25 102.26 137.23
  Q 102.11 136.70 101.59 136.87
  Z" fill="#000000"></path>
</svg>
