<svg viewBox="0.00 0.00 512.00 512.00" version="1.1" xmlns="http://www.w3.org/2000/svg">
<g stroke-linecap="butt" fill="none" stroke-width="2.00">
<path d="M 384.58 310.55
  Q 403.57 291.48 422.59 272.47
  Q 432.54 262.52 436.24 257.88
  C 484.70 197.13 451.52 105.89 375.25 90.77
  C 341.47 84.07 306.55 94.36 281.91 118.67
  Q 269.29 131.13 256.77 143.65" stroke="#e18cad"></path>
<path d="M 256.77 143.65
  Q 256.08 143.62 255.81 143.21
  Q 255.60 142.90 255.54 142.84
  Q 243.81 131.02 231.98 119.30
  C 200.06 87.66 151.99 79.59 111.37 99.89
  C 53.28 128.94 35.90 204.23 75.06 255.85
  Q 79.21 261.32 88.50 270.62
  Q 160.44 342.62 232.58 414.42
  C 243.23 425.02 259.71 427.24 272.55 420.34
  Q 277.34 417.76 286.81 408.31
  Q 335.74 359.45 384.58 310.55" stroke="#f48fb1"></path>
<path d="M 256.77 143.65
  L 256.94 144.18
  Q 257.10 144.66 257.46 145.00
  Q 261.15 148.46 264.73 152.03
  Q 321.50 208.88 378.43 265.57
  C 387.81 274.91 391.72 288.03 388.03 300.80
  C 387.26 303.45 385.30 307.05 384.58 310.55" stroke="#d61b5f"></path>
<path d="M 192.93 193.03
  A 34.71 34.71 0.0 0 0 158.22 158.32
  A 34.71 34.71 0.0 0 0 123.51 193.03
  A 34.71 34.71 0.0 0 0 158.22 227.74
  A 34.71 34.71 0.0 0 0 192.93 193.03" stroke="#f48fb1"></path>
</g>
<path d="M 0.00 0.00
  L 512.00 0.00
  L 512.00 512.00
  L 0.00 512.00
  L 0.00 0.00
  Z
  M 384.58 310.55
  Q 403.57 291.48 422.59 272.47
  Q 432.54 262.52 436.24 257.88
  C 484.70 197.13 451.52 105.89 375.25 90.77
  C 341.47 84.07 306.55 94.36 281.91 118.67
  Q 269.29 131.13 256.77 143.65
  Q 256.08 143.62 255.81 143.21
  Q 255.60 142.90 255.54 142.84
  Q 243.81 131.02 231.98 119.30
  C 200.06 87.66 151.99 79.59 111.37 99.89
  C 53.28 128.94 35.90 204.23 75.06 255.85
  Q 79.21 261.32 88.50 270.62
  Q 160.44 342.62 232.58 414.42
  C 243.23 425.02 259.71 427.24 272.55 420.34
  Q 277.34 417.76 286.81 408.31
  Q 335.74 359.45 384.58 310.55
  Z" fill="#ffffff"></path>
<path d="M 256.77 143.65
  L 256.94 144.18
  Q 257.10 144.66 257.46 145.00
  Q 261.15 148.46 264.73 152.03
  Q 321.50 208.88 378.43 265.57
  C 387.81 274.91 391.72 288.03 388.03 300.80
  C 387.26 303.45 385.30 307.05 384.58 310.55
  Q 335.74 359.45 286.81 408.31
  Q 277.34 417.76 272.55 420.34
  C 259.71 427.24 243.23 425.02 232.58 414.42
  Q 160.44 342.62 88.50 270.62
  Q 79.21 261.32 75.06 255.85
  C 35.90 204.23 53.28 128.94 111.37 99.89
  C 151.99 79.59 200.06 87.66 231.98 119.30
  Q 243.81 131.02 255.54 142.84
  Q 255.60 142.90 255.81 143.21
  Q 256.08 143.62 256.77 143.65
  Z
  M 192.93 193.03
  A 34.71 34.71 0.0 0 0 158.22 158.32
  A 34.71 34.71 0.0 0 0 123.51 193.03
  A 34.71 34.71 0.0 0 0 158.22 227.74
  A 34.71 34.71 0.0 0 0 192.93 193.03
  Z" fill="#e91e63"></path>
<path d="M 384.58 310.55
  C 385.30 307.05 387.26 303.45 388.03 300.80
  C 391.72 288.03 387.81 274.91 378.43 265.57
  Q 321.50 208.88 264.73 152.03
  Q 261.15 148.46 257.46 145.00
  Q 257.10 144.66 256.94 144.18
  L 256.77 143.65
  Q 269.29 131.13 281.91 118.67
  C 306.55 94.36 341.47 84.07 375.25 90.77
  C 451.52 105.89 484.70 197.13 436.24 257.88
  Q 432.54 262.52 422.59 272.47
  Q 403.57 291.48 384.58 310.55
  Z" fill="#c2185b"></path>
<circle r="34.71" cy="193.03" cx="158.22" fill="#ffffff"></circle>
</svg>
