<svg viewBox="0.00 0.00 512.00 512.00" version="1.1" xmlns="http://www.w3.org/2000/svg">
<g stroke-linecap="butt" fill="none" stroke-width="2.00">
<path d="M 65.07 88.52
  C 64.34 89.75 63.49 90.69 62.93 92.26
  C 61.50 96.28 61.02 99.40 61.02 103.98
  Q 60.99 183.37 61.05 262.75
  C 61.12 357.36 140.52 421.60 228.51 432.36
  C 296.09 440.62 369.11 417.70 413.70 364.74
  Q 446.88 325.35 450.93 273.73
  Q 451.43 267.29 451.45 253.75
  Q 451.52 179.08 451.46 104.42
  Q 451.46 97.21 450.61 94.15
  C 447.17 81.72 433.95 75.77 422.16 80.42
  Q 411.63 84.57 392.54 92.84
  C 390.50 93.72 387.76 94.56 385.27 95.65
  Q 371.39 101.69 349.81 110.63
  Q 341.82 113.94 334.49 111.23
  Q 314.68 103.90 297.74 100.79
  Q 245.34 91.19 194.42 105.69
  C 185.26 108.30 173.38 114.92 164.26 111.23
  Q 130.32 97.52 96.40 83.78
  Q 86.58 79.80 82.19 79.70
  C 76.19 79.57 68.50 82.71 65.07 88.52" stroke="#ff9090"></path>
<path d="M 216.99 293.96
  A 32.02 32.02 0.0 0 0 184.97 261.94
  A 32.02 32.02 0.0 0 0 152.95 293.96
  A 32.02 32.02 0.0 0 0 184.97 325.98
  A 32.02 32.02 0.0 0 0 216.99 293.96" stroke="#ff9090"></path>
<path d="M 359.55 293.96
  A 32.02 32.02 0.0 0 0 327.53 261.94
  A 32.02 32.02 0.0 0 0 295.51 293.96
  A 32.02 32.02 0.0 0 0 327.53 325.98
  A 32.02 32.02 0.0 0 0 359.55 293.96" stroke="#ff9090"></path>
</g>
<path d="M 109.13 0.00
  L 402.74 0.00
  C 462.43 3.12 508.46 48.88 512.00 108.88
  L 512.00 403.25
  C 511.35 409.61 510.79 416.22 509.48 422.19
  C 499.57 467.33 464.61 500.90 419.24 510.12
  Q 415.75 510.83 403.12 512.00
  L 109.01 512.00
  C 49.36 508.54 2.99 462.78 0.00 402.62
  L 0.00 108.76
  C 3.40 48.98 49.65 3.18 109.13 0.00
  Z
  M 65.07 88.52
  C 64.34 89.75 63.49 90.69 62.93 92.26
  C 61.50 96.28 61.02 99.40 61.02 103.98
  Q 60.99 183.37 61.05 262.75
  C 61.12 357.36 140.52 421.60 228.51 432.36
  C 296.09 440.62 369.11 417.70 413.70 364.74
  Q 446.88 325.35 450.93 273.73
  Q 451.43 267.29 451.45 253.75
  Q 451.52 179.08 451.46 104.42
  Q 451.46 97.21 450.61 94.15
  C 447.17 81.72 433.95 75.77 422.16 80.42
  Q 411.63 84.57 392.54 92.84
  C 390.50 93.72 387.76 94.56 385.27 95.65
  Q 371.39 101.69 349.81 110.63
  Q 341.82 113.94 334.49 111.23
  Q 314.68 103.90 297.74 100.79
  Q 245.34 91.19 194.42 105.69
  C 185.26 108.30 173.38 114.92 164.26 111.23
  Q 130.32 97.52 96.40 83.78
  Q 86.58 79.80 82.19 79.70
  C 76.19 79.57 68.50 82.71 65.07 88.52
  Z" fill="#ff2020"></path>
<path d="M 65.07 88.52
  C 68.50 82.71 76.19 79.57 82.19 79.70
  Q 86.58 79.80 96.40 83.78
  Q 130.32 97.52 164.26 111.23
  C 173.38 114.92 185.26 108.30 194.42 105.69
  Q 245.34 91.19 297.74 100.79
  Q 314.68 103.90 334.49 111.23
  Q 341.82 113.94 349.81 110.63
  Q 371.39 101.69 385.27 95.65
  C 387.76 94.56 390.50 93.72 392.54 92.84
  Q 411.63 84.57 422.16 80.42
  C 433.95 75.77 447.17 81.72 450.61 94.15
  Q 451.46 97.21 451.46 104.42
  Q 451.52 179.08 451.45 253.75
  Q 451.43 267.29 450.93 273.73
  Q 446.88 325.35 413.70 364.74
  C 369.11 417.70 296.09 440.62 228.51 432.36
  C 140.52 421.60 61.12 357.36 61.05 262.75
  Q 60.99 183.37 61.02 103.98
  C 61.02 99.40 61.50 96.28 62.93 92.26
  C 63.49 90.69 64.34 89.75 65.07 88.52
  Z
  M 216.99 293.96
  A 32.02 32.02 0.0 0 0 184.97 261.94
  A 32.02 32.02 0.0 0 0 152.95 293.96
  A 32.02 32.02 0.0 0 0 184.97 325.98
  A 32.02 32.02 0.0 0 0 216.99 293.96
  Z
  M 359.55 293.96
  A 32.02 32.02 0.0 0 0 327.53 261.94
  A 32.02 32.02 0.0 0 0 295.51 293.96
  A 32.02 32.02 0.0 0 0 327.53 325.98
  A 32.02 32.02 0.0 0 0 359.55 293.96
  Z" fill="#ffffff"></path>
<circle r="32.02" cy="293.96" cx="184.97" fill="#ff2020"></circle>
<circle r="32.02" cy="293.96" cx="327.53" fill="#ff2020"></circle>
</svg>
