<svg viewBox="0.00 0.00 192.00 192.00" version="1.1" xmlns="http://www.w3.org/2000/svg">
<circle r="11.08" cy="21.94" cx="161.41" fill="#600cb1"></circle>
<path d="M 133.69 54.00
  A 1.01 1.01 0.0 0 0 133.30 55.33
  C 157.32 101.98 101.41 147.61 60.06 116.99
  C 27.40 92.82 37.48 40.63 77.15 30.73
  Q 83.10 29.24 94.95 29.18
  Q 119.95 29.04 145.15 29.16
  Q 145.51 29.16 145.55 29.52
  Q 147.60 45.93 133.69 54.00
  Z
  M 111.7343 77.3986
  A 22.10 21.88 -1.3 0 0 89.1436 56.0256
  A 22.10 21.88 -1.3 0 0 67.5457 78.4014
  A 22.10 21.88 -1.3 0 0 90.1364 99.7744
  A 22.10 21.88 -1.3 0 0 111.7343 77.3986
  Z" fill="#600cb1"></path>
<path d="M 139.46 131.74
  C 138.60 166.42 103.99 189.60 71.66 176.97
  C 53.19 169.75 40.66 152.12 40.55 131.90
  A 0.67 0.67 0.0 0 1 41.22 131.23
  L 67.42 131.25
  A 0.15 0.14 -2.0 0 1 67.57 131.38
  Q 69.05 147.05 82.18 151.82
  C 96.67 157.09 111.60 147.13 112.00 131.73
  Q 112.02 131.23 112.52 131.23
  L 138.98 131.25
  A 0.48 0.48 0.0 0 1 139.46 131.74
  Z" fill="#600cb1"></path>
</svg>
