<svg viewBox="0.00 0.00 256.00 256.00" version="1.1" xmlns="http://www.w3.org/2000/svg">
<g stroke-linecap="butt" fill="none" stroke-width="2.00">
<path d="M 158.41 67.46
  Q 180.06 88.18 184.25 115.50
  Q 188.67 144.34 173.40 169.90
  Q 169.14 177.02 159.52 187.72" stroke="#a9bcff"></path>
<path d="M 128.71 204.91
  Q 119.40 207.17 114.50 207.71
  Q 84.62 211.01 60.45 195.07
  Q 33.17 177.09 25.48 143.57" stroke="#ffde81"></path>
<path d="M 128.64 50.71
  C 90.20 39.61 51.44 55.91 32.88 91.16
  Q 28.45 99.57 25.39 111.91" stroke="#ffa3ba"></path>
</g>
<path d="M 40.40 0.00
  L 44.24 0.00
  Q 48.54 0.75 51.63 2.62
  Q 87.84 24.53 124.05 46.46
  Q 126.55 47.97 128.64 50.71
  C 90.20 39.61 51.44 55.91 32.88 91.16
  Q 28.45 99.57 25.39 111.91
  Q 24.00 108.79 24.00 107.00
  Q 24.01 64.88 23.99 22.73
  Q 23.99 15.06 25.40 11.45
  Q 29.07 2.12 40.40 0.00
  Z" fill="#ff7b9c"></path>
<path d="M 128.64 50.71
  Q 134.56 58.16 131.56 67.76
  Q 129.61 73.99 123.59 77.62
  Q 88.80 98.64 54.00 119.64
  C 46.73 124.02 40.39 125.39 33.09 121.17
  Q 27.15 117.74 25.39 111.91
  Q 28.45 99.57 32.88 91.16
  C 51.44 55.91 90.20 39.61 128.64 50.71
  Z" fill="#ffcad7"></path>
<path d="M 158.41 67.46
  Q 180.06 88.18 184.25 115.50
  Q 188.67 144.34 173.40 169.90
  Q 169.14 177.02 159.52 187.72
  Q 150.71 192.19 141.96 187.05
  Q 136.48 183.83 134.38 178.20
  Q 133.17 174.98 133.18 167.16
  Q 133.22 130.23 133.18 93.30
  Q 133.17 81.58 133.96 78.78
  Q 136.20 70.89 144.66 67.37
  Q 151.62 64.48 158.41 67.46
  Z" fill="#ced9ff"></path>
<path d="M 158.41 67.46
  Q 193.41 88.33 227.72 109.16
  Q 235.95 114.15 238.37 117.44
  C 244.45 125.71 241.80 137.93 232.71 143.47
  Q 196.49 165.56 159.52 187.72
  Q 169.14 177.02 173.40 169.90
  Q 188.67 144.34 184.25 115.50
  Q 180.06 88.18 158.41 67.46
  Z" fill="#849fff"></path>
<path d="M 128.71 204.91
  Q 119.40 207.17 114.50 207.71
  Q 84.62 211.01 60.45 195.07
  Q 33.17 177.09 25.48 143.57
  Q 28.15 135.62 37.02 132.74
  C 43.11 130.76 47.90 132.30 53.64 135.75
  Q 87.61 156.21 121.50 176.80
  C 128.05 180.78 131.90 184.85 132.46 192.23
  Q 133.03 199.68 128.71 204.91
  Z" fill="#ffecb7"></path>
<path d="M 25.48 143.57
  Q 33.17 177.09 60.45 195.07
  Q 84.62 211.01 114.50 207.71
  Q 119.40 207.17 128.71 204.91
  Q 126.72 207.71 125.15 208.66
  Q 91.61 228.97 58.06 249.26
  Q 48.95 254.77 45.35 255.50
  C 37.03 257.18 27.57 251.63 24.92 243.29
  Q 24.01 240.41 24.01 233.60
  Q 23.98 191.30 24.01 149.00
  Q 24.02 146.94 25.48 143.57
  Z" fill="#ffd04b"></path>
</svg>
