<svg viewBox="0.00 0.00 32.00 32.00" version="1.1" xmlns="http://www.w3.org/2000/svg">
<g stroke-linecap="butt" fill="none" stroke-width="2.00">
<path d="M 5.19 10.77
  Q 2.86 15.75 5.08 20.94" stroke="#fdde82"></path>
<path d="M 5.08 20.94
  C 8.55 28.22 17.50 30.29 23.90 25.19" stroke="#9ad4a9"></path>
<path d="M 23.90 25.19
  Q 28.22 20.81 27.36 14.33
  Q 27.32 14.00 26.99 14.00
  L 16.25 14.00
  A 0.25 0.24 90.0 0 0 16.01 14.25
  L 16.01 17.75
  A 0.24 0.24 0.0 0 0 16.25 17.99
  L 22.49 18.01
  A 0.46 0.45 9.7 0 1 22.92 18.61
  Q 22.28 20.48 20.63 22.32" stroke="#a1c2fa"></path>
<path d="M 20.63 22.32
  Q 12.79 26.19 8.80 18.46" stroke="#9ad4a9"></path>
<path d="M 8.80 18.46
  Q 8.23 15.87 8.86 13.32" stroke="#fdde82"></path>
<path d="M 8.86 13.32
  Q 13.17 5.67 20.42 9.80
  Q 20.96 10.11 21.41 9.67
  L 23.66 7.50
  Q 24.15 7.02 23.59 6.63
  C 17.10 2.04 8.73 3.64 5.19 10.77" stroke="#f5a19a"></path>
<path d="M 8.86 13.32
  L 5.19 10.77" stroke="#f3801d"></path>
<path d="M 8.80 18.46
  Q 6.91 20.60 5.08 20.94" stroke="#98b22c"></path>
<path d="M 23.90 25.19
  L 20.63 22.32" stroke="#3b97a4"></path>
</g>
<path d="M 14.12 0.00
  L 17.99 0.00
  Q 29.69 2.40 32.00 14.13
  L 32.00 17.97
  Q 29.50 29.88 17.64 32.00
  L 14.03 32.00
  Q 2.28 29.57 0.00 17.88
  L 0.00 14.01
  Q 2.39 2.28 14.12 0.00
  Z
  M 5.19 10.77
  Q 2.86 15.75 5.08 20.94
  C 8.55 28.22 17.50 30.29 23.90 25.19
  Q 28.22 20.81 27.36 14.33
  Q 27.32 14.00 26.99 14.00
  L 16.25 14.00
  A 0.25 0.24 90.0 0 0 16.01 14.25
  L 16.01 17.75
  A 0.24 0.24 0.0 0 0 16.25 17.99
  L 22.49 18.01
  A 0.46 0.45 9.7 0 1 22.92 18.61
  Q 22.28 20.48 20.63 22.32
  Q 12.79 26.19 8.80 18.46
  Q 8.23 15.87 8.86 13.32
  Q 13.17 5.67 20.42 9.80
  Q 20.96 10.11 21.41 9.67
  L 23.66 7.50
  Q 24.15 7.02 23.59 6.63
  C 17.10 2.04 8.73 3.64 5.19 10.77
  Z" fill="#ffffff"></path>
<path d="M 8.86 13.32
  L 5.19 10.77
  C 8.73 3.64 17.10 2.04 23.59 6.63
  Q 24.15 7.02 23.66 7.50
  L 21.41 9.67
  Q 20.96 10.11 20.42 9.80
  Q 13.17 5.67 8.86 13.32
  Z" fill="#ea4335"></path>
<path d="M 5.19 10.77
  L 8.86 13.32
  Q 8.23 15.87 8.80 18.46
  Q 6.91 20.60 5.08 20.94
  Q 2.86 15.75 5.19 10.77
  Z" fill="#fbbc05"></path>
<path d="M 23.90 25.19
  L 20.63 22.32
  Q 22.28 20.48 22.92 18.61
  A 0.46 0.45 9.7 0 0 22.49 18.01
  L 16.25 17.99
  A 0.24 0.24 0.0 0 1 16.01 17.75
  L 16.01 14.25
  A 0.25 0.24 90.0 0 1 16.25 14.00
  L 26.99 14.00
  Q 27.32 14.00 27.36 14.33
  Q 28.22 20.81 23.90 25.19
  Z" fill="#4285f4"></path>
<path d="M 8.80 18.46
  Q 12.79 26.19 20.63 22.32
  L 23.90 25.19
  C 17.50 30.29 8.55 28.22 5.08 20.94
  Q 6.91 20.60 8.80 18.46
  Z" fill="#34a853"></path>
</svg>
