<svg viewBox="0.00 0.00 32.00 32.00" version="1.1" xmlns="http://www.w3.org/2000/svg">
<g stroke-linecap="butt" fill="none" stroke-width="2.00">
<path d="M 10.17 26.63
  L 12.03 26.31
  Q 12.59 26.22 12.59 25.65
  L 12.55 18.01
  Q 12.55 17.45 13.10 17.38
  L 13.42 17.33
  A 0.70 0.69 -6.3 0 1 14.21 17.96
  L 14.45 20.72
  A 1.09 1.06 13.8 0 0 14.97 21.56
  Q 15.94 22.15 17.00 21.66
  A 1.29 1.28 -11.3 0 0 17.75 20.54
  Q 17.88 17.63 17.76 15.00
  Q 17.71 13.82 17.75 13.74
  Q 18.99 11.26 19.46 13.99
  Q 19.58 14.70 19.62 15.57
  A 1.76 1.76 0.0 0 0 22.41 16.93
  Q 23.25 16.32 23.25 15.16
  C 23.25 13.13 23.40 11.42 22.66 9.57" stroke="#853360"></path>
<path d="M 22.66 9.57
  Q 21.32 6.65 17.99 5.62" stroke="#80663b"></path>
<path d="M 17.99 5.62
  Q 18.17 5.63 18.34 5.64" stroke="#853360"></path>
<path d="M 18.34 5.64
  Q 12.74 4.66 10.27 8.29
  C 7.86 11.87 8.75 20.39 8.84 25.07
  Q 8.85 25.70 9.15 26.08
  Q 9.63 26.69 10.17 26.63" stroke="#6b2f6d"></path>
<path d="M 18.34 5.64
  Q 16.69 5.73 15.57 6.33
  A 0.51 0.51 0.0 0 0 15.37 7.01
  Q 16.17 8.60 14.82 9.81
  A 0.36 0.36 0.0 0 0 14.72 10.00
  L 14.13 13.31
  Q 14.02 13.90 13.46 14.11
  L 11.57 14.82
  Q 11.10 14.99 10.85 15.42
  Q 7.73 20.72 10.17 26.63" stroke="#d747ad"></path>
<path d="M 17.99 5.62
  Q 17.46 8.93 21.15 11.17
  Q 22.78 12.16 22.12 10.37
  Q 21.60 8.94 22.66 9.57" stroke="#ec7e7b"></path>
</g>
<path d="M 5.82 0.00
  L 26.47 0.00
  L 28.18 0.65
  Q 28.67 0.84 28.96 1.27
  Q 29.70 2.41 30.83 3.20
  Q 31.28 3.52 31.46 4.04
  L 32.00 5.57
  L 32.00 26.58
  L 31.23 28.54
  Q 31.06 28.98 30.65 29.20
  Q 29.61 29.78 28.98 30.78
  A 1.42 1.41 -83.0 0 1 28.23 31.37
  L 26.40 32.00
  L 5.47 32.00
  L 3.43 31.25
  Q 3.08 31.13 3.02 30.76
  Q 2.98 30.56 2.89 30.36
  C 2.13 28.79 0.54 29.03 0.00 26.39
  L 0.00 5.53
  L 0.59 3.97
  A 1.52 1.49 -5.0 0 1 1.25 3.20
  Q 2.48 2.47 3.21 1.24
  Q 3.51 0.73 4.08 0.55
  L 5.82 0.00
  Z
  M 10.17 26.63
  L 12.03 26.31
  Q 12.59 26.22 12.59 25.65
  L 12.55 18.01
  Q 12.55 17.45 13.10 17.38
  L 13.42 17.33
  A 0.70 0.69 -6.3 0 1 14.21 17.96
  L 14.45 20.72
  A 1.09 1.06 13.8 0 0 14.97 21.56
  Q 15.94 22.15 17.00 21.66
  A 1.29 1.28 -11.3 0 0 17.75 20.54
  Q 17.88 17.63 17.76 15.00
  Q 17.71 13.82 17.75 13.74
  Q 18.99 11.26 19.46 13.99
  Q 19.58 14.70 19.62 15.57
  A 1.76 1.76 0.0 0 0 22.41 16.93
  Q 23.25 16.32 23.25 15.16
  C 23.25 13.13 23.40 11.42 22.66 9.57
  Q 21.32 6.65 17.99 5.62
  Q 18.17 5.63 18.34 5.64
  Q 12.74 4.66 10.27 8.29
  C 7.86 11.87 8.75 20.39 8.84 25.07
  Q 8.85 25.70 9.15 26.08
  Q 9.63 26.69 10.17 26.63
  Z" fill="#191b20"></path>
<path d="M 18.34 5.64
  Q 16.69 5.73 15.57 6.33
  A 0.51 0.51 0.0 0 0 15.37 7.01
  Q 16.17 8.60 14.82 9.81
  A 0.36 0.36 0.0 0 0 14.72 10.00
  L 14.13 13.31
  Q 14.02 13.90 13.46 14.11
  L 11.57 14.82
  Q 11.10 14.99 10.85 15.42
  Q 7.73 20.72 10.17 26.63
  Q 9.63 26.69 9.15 26.08
  Q 8.85 25.70 8.84 25.07
  C 8.75 20.39 7.86 11.87 10.27 8.29
  Q 12.74 4.66 18.34 5.64
  Z" fill="#bc43b9"></path>
<path d="M 18.34 5.64
  Q 18.17 5.63 17.99 5.62
  Q 17.46 8.93 21.15 11.17
  Q 22.78 12.16 22.12 10.37
  Q 21.60 8.94 22.66 9.57
  C 23.40 11.42 23.25 13.13 23.25 15.16
  Q 23.25 16.32 22.41 16.93
  A 1.76 1.76 0.0 0 1 19.62 15.57
  Q 19.58 14.70 19.46 13.99
  Q 18.99 11.26 17.75 13.74
  Q 17.71 13.82 17.76 15.00
  Q 17.88 17.63 17.75 20.54
  A 1.29 1.28 -11.3 0 1 17.00 21.66
  Q 15.94 22.15 14.97 21.56
  A 1.09 1.06 13.8 0 1 14.45 20.72
  L 14.21 17.96
  A 0.70 0.69 -6.3 0 0 13.42 17.33
  L 13.10 17.38
  Q 12.55 17.45 12.55 18.01
  L 12.59 25.65
  Q 12.59 26.22 12.03 26.31
  L 10.17 26.63
  Q 7.73 20.72 10.85 15.42
  Q 11.10 14.99 11.57 14.82
  L 13.46 14.11
  Q 14.02 13.90 14.13 13.31
  L 14.72 10.00
  A 0.36 0.36 0.0 0 1 14.82 9.81
  Q 16.17 8.60 15.37 7.01
  A 0.51 0.51 0.0 0 1 15.57 6.33
  Q 16.69 5.73 18.34 5.64
  Z" fill="#f14aa0"></path>
<path d="M 17.99 5.62
  Q 21.32 6.65 22.66 9.57
  Q 21.60 8.94 22.12 10.37
  Q 22.78 12.16 21.15 11.17
  Q 17.46 8.93 17.99 5.62
  Z" fill="#e7b155"></path>
</svg>
