<svg viewBox="0.00 0.00 151.00 154.00" version="1.1" xmlns="http://www.w3.org/2000/svg">
<g stroke-linecap="butt" fill="none" stroke-width="2.00">
<path d="M 41.99 0.52
  Q 41.15 6.70 42.90 8.01" stroke="#b868a7"></path>
<path d="M 42.90 8.01
  Q 19.58 10.21 10.40 31.23
  C 8.94 34.57 7.74 39.70 7.74 43.00
  Q 7.73 72.71 7.76 102.44
  Q 7.77 111.55 9.13 116.43
  C 13.30 131.31 25.87 141.43 41.32 143.27" stroke="#603760"></path>
<path d="M 41.32 143.27
  Q 40.95 143.76 39.67 143.88
  Q 39.07 143.94 38.98 144.54
  Q 38.52 147.71 39.43 150.74" stroke="#a66cab"></path>
<path d="M 133.57 20.26
  Q 139.28 26.77 141.57 34.75
  Q 142.96 39.64 142.99 50.88
  Q 143.02 66.30 143.00 81.70" stroke="#453561"></path>
<path d="M 143.00 81.70
  L 143.03 100.08" stroke="#513b64"></path>
<path d="M 143.03 100.08
  C 142.99 103.90 143.23 108.10 142.65 111.63
  C 140.35 125.69 131.43 136.54 118.09 141.41
  C 111.04 143.98 103.43 143.24 96.30 143.26" stroke="#69486a"></path>
<path d="M 96.30 143.26
  L 41.32 143.27" stroke="#574b6e"></path>
<path d="M 114.78 0.56
  Q 113.04 1.89 113.10 3.58
  Q 113.12 4.05 112.83 4.42
  Q 111.49 6.14 111.92 8.50" stroke="#aa6cab"></path>
<path d="M 111.92 8.50
  C 109.85 8.29 107.76 8.00 105.68 8.00
  Q 74.66 7.99 42.90 8.01" stroke="#69486a"></path>
<path d="M 94.98 150.74
  Q 93.80 149.65 95.46 148.01
  Q 95.82 147.66 95.89 147.16
  L 96.38 143.98
  Q 96.38 143.94 96.38 143.93
  Q 96.28 143.87 96.12 143.87
  Q 96.07 143.88 96.09 143.83
  L 96.30 143.26" stroke="#af7db5"></path>
<path d="M 138.57 10.84
  Q 138.04 10.97 138.43 11.62
  A 0.50 0.28 4.9 0 0 138.68 11.79
  Q 138.77 11.82 138.82 11.87
  Q 139.01 12.05 138.75 12.00
  Q 138.38 11.93 138.37 11.75
  Q 138.33 11.44 138.03 11.52
  Q 136.87 11.85 136.86 13.07
  Q 136.86 13.54 136.48 13.81
  Q 134.71 15.06 134.86 17.24
  Q 134.89 17.80 134.52 18.23
  L 133.56 19.31
  Q 133.45 19.44 133.57 19.57
  Q 133.66 19.66 133.76 19.75
  Q 133.87 19.87 133.77 19.99
  Q 133.68 20.10 133.57 20.26" stroke="#8659a1"></path>
<path d="M 133.57 20.26
  Q 124.80 10.75 111.92 8.50" stroke="#513b64"></path>
<path d="M 150.47 100.13
  Q 149.25 99.04 146.59 99.38
  Q 146.11 99.44 145.66 99.25
  Q 144.10 98.58 143.03 100.08" stroke="#aa6cab"></path>
<path d="M 150.48 81.96
  L 150.34 81.20
  Q 150.23 80.58 149.71 80.93
  Q 149.15 81.32 149.02 80.57
  A 0.60 0.60 0.0 0 0 148.35 80.08
  Q 146.79 80.30 145.31 79.91
  Q 144.81 79.78 144.48 80.16
  Q 144.17 80.52 144.13 80.94
  Q 144.08 81.43 143.60 81.55
  L 143.00 81.70" stroke="#8659a1"></path>
<path d="M 48.34 102.80
  Q 48.00 102.65 48.00 103.02
  L 48.00 115.48
  Q 48.00 115.97 48.43 116.18
  Q 51.94 117.92 55.73 118.81
  C 70.35 122.24 94.91 122.54 101.69 104.85
  C 104.28 98.09 103.92 88.95 99.43 82.80
  C 94.08 75.48 83.65 71.83 75.45 68.33
  C 68.97 65.56 62.73 61.95 63.25 53.99
  C 63.71 47.00 71.33 43.82 77.50 44.23
  Q 87.59 44.88 96.70 48.92
  A 0.77 0.76 22.6 0 0 97.73 48.50
  L 101.83 38.00
  A 0.58 0.58 0.0 0 0 101.53 37.26
  C 88.07 31.26 64.03 27.94 53.57 41.30
  C 47.54 49.01 47.81 60.87 52.95 68.63
  Q 55.78 72.91 61.71 76.58
  C 68.97 81.08 79.24 83.47 84.93 88.31
  C 91.10 93.56 90.27 104.03 82.63 106.89
  C 72.18 110.80 59.02 107.26 48.34 102.80" stroke="#888b91"></path>
</g>
<path d="M 41.99 0.52
  Q 41.15 6.70 42.90 8.01
  Q 19.58 10.21 10.40 31.23
  C 8.94 34.57 7.74 39.70 7.74 43.00
  Q 7.73 72.71 7.76 102.44
  Q 7.77 111.55 9.13 116.43
  C 13.30 131.31 25.87 141.43 41.32 143.27
  Q 40.95 143.76 39.67 143.88
  Q 39.07 143.94 38.98 144.54
  Q 38.52 147.71 39.43 150.74
  C 21.62 151.46 6.01 139.56 1.61 122.82
  Q 0.20 117.47 0.22 106.56
  Q 0.28 74.73 0.24 42.90
  Q 0.23 33.76 1.56 28.73
  C 6.44 10.24 23.02 -0.35 41.99 0.52
  Z" fill="#af579d"></path>
<path d="M 41.99 0.52
  L 114.78 0.56
  Q 113.04 1.89 113.10 3.58
  Q 113.12 4.05 112.83 4.42
  Q 111.49 6.14 111.92 8.50
  C 109.85 8.29 107.76 8.00 105.68 8.00
  Q 74.66 7.99 42.90 8.01
  Q 41.15 6.70 41.99 0.52
  Z" fill="#c179b1"></path>
<path d="M 114.78 0.56
  Q 128.61 1.64 138.57 10.84
  Q 138.04 10.97 138.43 11.62
  A 0.50 0.28 4.9 0 0 138.68 11.79
  Q 138.77 11.82 138.82 11.87
  Q 139.01 12.05 138.75 12.00
  Q 138.38 11.93 138.37 11.75
  Q 138.33 11.44 138.03 11.52
  Q 136.87 11.85 136.86 13.07
  Q 136.86 13.54 136.48 13.81
  Q 134.71 15.06 134.86 17.24
  Q 134.89 17.80 134.52 18.23
  L 133.56 19.31
  Q 133.45 19.44 133.57 19.57
  Q 133.66 19.66 133.76 19.75
  Q 133.87 19.87 133.77 19.99
  Q 133.68 20.10 133.57 20.26
  Q 124.80 10.75 111.92 8.50
  Q 111.49 6.14 112.83 4.42
  Q 113.12 4.05 113.10 3.58
  Q 113.04 1.89 114.78 0.56
  Z" fill="#925fa4"></path>
<path d="M 42.90 8.01
  Q 74.66 7.99 105.68 8.00
  C 107.76 8.00 109.85 8.29 111.92 8.50
  Q 124.80 10.75 133.57 20.26
  Q 139.28 26.77 141.57 34.75
  Q 142.96 39.64 142.99 50.88
  Q 143.02 66.30 143.00 81.70
  L 143.03 100.08
  C 142.99 103.90 143.23 108.10 142.65 111.63
  C 140.35 125.69 131.43 136.54 118.09 141.41
  C 111.04 143.98 103.43 143.24 96.30 143.26
  L 41.32 143.27
  C 25.87 141.43 13.30 131.31 9.13 116.43
  Q 7.77 111.55 7.76 102.44
  Q 7.73 72.71 7.74 43.00
  C 7.74 39.70 8.94 34.57 10.40 31.23
  Q 19.58 10.21 42.90 8.01
  Z
  M 48.34 102.80
  Q 48.00 102.65 48.00 103.02
  L 48.00 115.48
  Q 48.00 115.97 48.43 116.18
  Q 51.94 117.92 55.73 118.81
  C 70.35 122.24 94.91 122.54 101.69 104.85
  C 104.28 98.09 103.92 88.95 99.43 82.80
  C 94.08 75.48 83.65 71.83 75.45 68.33
  C 68.97 65.56 62.73 61.95 63.25 53.99
  C 63.71 47.00 71.33 43.82 77.50 44.23
  Q 87.59 44.88 96.70 48.92
  A 0.77 0.76 22.6 0 0 97.73 48.50
  L 101.83 38.00
  A 0.58 0.58 0.0 0 0 101.53 37.26
  C 88.07 31.26 64.03 27.94 53.57 41.30
  C 47.54 49.01 47.81 60.87 52.95 68.63
  Q 55.78 72.91 61.71 76.58
  C 68.97 81.08 79.24 83.47 84.93 88.31
  C 91.10 93.56 90.27 104.03 82.63 106.89
  C 72.18 110.80 59.02 107.26 48.34 102.80
  Z" fill="#101623"></path>
<path d="M 138.57 10.84
  Q 146.16 18.17 148.96 27.77
  Q 150.50 33.06 150.50 45.87
  Q 150.51 63.91 150.48 81.96
  L 150.34 81.20
  Q 150.23 80.58 149.71 80.93
  Q 149.15 81.32 149.02 80.57
  A 0.60 0.60 0.0 0 0 148.35 80.08
  Q 146.79 80.30 145.31 79.91
  Q 144.81 79.78 144.48 80.16
  Q 144.17 80.52 144.13 80.94
  Q 144.08 81.43 143.60 81.55
  L 143.00 81.70
  Q 143.02 66.30 142.99 50.88
  Q 142.96 39.64 141.57 34.75
  Q 139.28 26.77 133.57 20.26
  Q 133.68 20.10 133.77 19.99
  Q 133.87 19.87 133.76 19.75
  Q 133.66 19.66 133.57 19.57
  Q 133.45 19.44 133.56 19.31
  L 134.52 18.23
  Q 134.89 17.80 134.86 17.24
  Q 134.71 15.06 136.48 13.81
  Q 136.86 13.54 136.86 13.07
  Q 136.87 11.85 138.03 11.52
  Q 138.33 11.44 138.37 11.75
  Q 138.38 11.93 138.75 12.00
  Q 139.01 12.05 138.82 11.87
  Q 138.77 11.82 138.68 11.79
  A 0.50 0.28 4.9 0 1 138.43 11.62
  Q 138.04 10.97 138.57 10.84
  Z" fill="#79539e"></path>
<path d="M 48.34 102.80
  C 59.02 107.26 72.18 110.80 82.63 106.89
  C 90.27 104.03 91.10 93.56 84.93 88.31
  C 79.24 83.47 68.97 81.08 61.71 76.58
  Q 55.78 72.91 52.95 68.63
  C 47.81 60.87 47.54 49.01 53.57 41.30
  C 64.03 27.94 88.07 31.26 101.53 37.26
  A 0.58 0.58 0.0 0 1 101.83 38.00
  L 97.73 48.50
  A 0.77 0.76 22.6 0 1 96.70 48.92
  Q 87.59 44.88 77.50 44.23
  C 71.33 43.82 63.71 47.00 63.25 53.99
  C 62.73 61.95 68.97 65.56 75.45 68.33
  C 83.65 71.83 94.08 75.48 99.43 82.80
  C 103.92 88.95 104.28 98.09 101.69 104.85
  C 94.91 122.54 70.35 122.24 55.73 118.81
  Q 51.94 117.92 48.43 116.18
  Q 48.00 115.97 48.00 115.48
  L 48.00 103.02
  Q 48.00 102.65 48.34 102.80
  Z" fill="#ffffff"></path>
<path d="M 150.48 81.96
  L 150.47 100.13
  Q 149.25 99.04 146.59 99.38
  Q 146.11 99.44 145.66 99.25
  Q 144.10 98.58 143.03 100.08
  L 143.00 81.70
  L 143.60 81.55
  Q 144.08 81.43 144.13 80.94
  Q 144.17 80.52 144.48 80.16
  Q 144.81 79.78 145.31 79.91
  Q 146.79 80.30 148.35 80.08
  A 0.60 0.60 0.0 0 1 149.02 80.57
  Q 149.15 81.32 149.71 80.93
  Q 150.23 80.58 150.34 81.20
  L 150.48 81.96
  Z" fill="#925fa4"></path>
<path d="M 150.47 100.13
  C 150.52 108.65 151.15 116.90 148.50 125.04
  C 144.59 137.05 134.64 146.18 122.55 149.46
  C 114.69 151.59 103.98 150.75 94.98 150.74
  Q 93.80 149.65 95.46 148.01
  Q 95.82 147.66 95.89 147.16
  L 96.38 143.98
  Q 96.38 143.94 96.38 143.93
  Q 96.28 143.87 96.12 143.87
  Q 96.07 143.88 96.09 143.83
  L 96.30 143.26
  C 103.43 143.24 111.04 143.98 118.09 141.41
  C 131.43 136.54 140.35 125.69 142.65 111.63
  C 143.23 108.10 142.99 103.90 143.03 100.08
  Q 144.10 98.58 145.66 99.25
  Q 146.11 99.44 146.59 99.38
  Q 149.25 99.04 150.47 100.13
  Z" fill="#c179b1"></path>
<path d="M 41.32 143.27
  L 96.30 143.26
  L 96.09 143.83
  Q 96.07 143.88 96.12 143.87
  Q 96.28 143.87 96.38 143.93
  Q 96.38 143.94 96.38 143.98
  L 95.89 147.16
  Q 95.82 147.66 95.46 148.01
  Q 93.80 149.65 94.98 150.74
  L 39.43 150.74
  Q 38.52 147.71 38.98 144.54
  Q 39.07 143.94 39.67 143.88
  Q 40.95 143.76 41.32 143.27
  Z" fill="#9d80b9"></path>
</svg>
