<svg viewBox="0.00 0.00 512.00 512.00" version="1.1" xmlns="http://www.w3.org/2000/svg">
<path d="M 399.02 339.08
  C 402.21 355.08 404.04 364.86 405.43 378.99
  C 407.99 405.10 407.04 441.93 387.40 462.14
  C 366.83 483.31 332.15 472.55 310.00 460.43
  C 290.48 449.75 273.22 436.41 256.86 421.39
  Q 256.46 421.02 256.05 421.39
  C 233.39 442.23 207.79 461.84 178.30 471.08
  C 137.97 483.70 113.37 461.39 108.09 422.49
  C 104.34 394.91 107.50 366.29 113.79 339.31
  A 0.75 0.75 0.0 0 0 113.27 338.41
  Q 92.03 332.07 71.75 322.49
  C 42.49 308.67 -3.21 277.91 14.79 238.53
  C 23.33 219.87 43.81 204.91 61.66 195.39
  Q 83.22 183.89 105.26 176.81
  Q 110.41 175.16 112.99 174.25
  A 0.61 0.61 0.0 0 0 113.39 173.54
  C 107.22 147.17 103.93 119.24 107.38 92.26
  C 111.15 62.83 126.14 36.04 160.26 38.56
  Q 173.08 39.50 186.40 44.87
  C 213.05 55.62 234.15 72.44 255.52 91.17
  Q 255.91 91.51 256.28 91.16
  C 282.64 66.49 334.96 26.17 373.26 41.28
  C 404.61 53.64 407.21 101.12 405.16 128.50
  Q 403.44 151.39 398.22 173.68
  A 0.41 0.41 0.0 0 0 398.51 174.16
  C 424.96 182.02 451.37 193.47 473.43 210.31
  Q 485.48 219.52 493.78 232.19
  C 511.95 259.93 494.55 286.29 472.20 303.22
  C 450.64 319.56 425.19 330.51 399.45 338.37
  Q 398.91 338.53 399.02 339.08
  Z
  M 376.89 167.72
  C 381.88 146.06 384.46 123.99 383.02 101.76
  C 382.16 88.54 377.71 66.36 364.50 61.74
  C 354.50 58.24 341.57 61.52 331.39 65.89
  C 309.35 75.37 289.53 90.47 272.05 106.87
  A 0.43 0.42 47.3 0 0 272.03 107.48
  Q 294.13 130.76 312.99 156.74
  A 1.21 1.17 74.1 0 0 313.84 157.23
  Q 345.54 160.54 376.53 167.95
  A 0.31 0.30 -76.7 0 0 376.89 167.72
  Z
  M 130.24 89.75
  C 125.97 115.29 128.98 142.38 134.99 167.71
  A 0.43 0.43 0.0 0 0 135.52 168.03
  Q 166.27 160.55 197.76 157.30
  Q 198.68 157.20 199.22 156.45
  Q 217.82 130.62 239.74 107.55
  A 0.36 0.35 43.3 0 0 239.72 107.04
  C 222.94 91.35 204.31 77.37 183.38 67.70
  C 172.68 62.76 155.46 57.03 144.31 63.52
  C 136.09 68.31 131.69 81.10 130.24 89.75
  Z
  M 229.57 154.88
  Q 256.29 153.59 283.02 154.95
  A 0.27 0.27 0.0 0 0 283.24 154.51
  Q 270.42 138.17 256.03 123.19
  A 0.36 0.35 -44.4 0 0 255.52 123.19
  C 248.94 129.93 242.88 137.12 236.65 144.20
  Q 232.45 148.96 229.33 154.50
  Q 229.11 154.90 229.57 154.88
  Z
  M 211.34 334.40
  C 241.04 336.95 270.98 336.94 300.72 334.37
  A 1.18 1.16 14.4 0 0 301.58 333.87
  Q 326.97 297.03 345.93 256.51
  Q 346.06 256.22 345.93 255.93
  Q 326.96 215.69 301.54 179.19
  A 1.77 1.75 -14.7 0 0 300.24 178.44
  Q 255.63 174.67 211.04 178.56
  A 0.49 0.46 -73.5 0 0 210.70 178.76
  Q 185.23 215.66 166.20 256.25
  Q 166.02 256.64 166.20 257.02
  Q 185.26 297.47 210.86 334.13
  A 0.64 0.62 -14.7 0 0 211.34 334.40
  Z
  M 181.27 181.86
  C 167.78 183.88 154.35 186.40 141.08 189.58
  Q 140.53 189.72 140.69 190.26
  Q 146.45 209.81 154.04 228.72
  Q 154.36 229.53 154.76 228.76
  Q 167.01 204.85 181.51 182.24
  A 0.25 0.24 -77.8 0 0 181.27 181.86
  Z
  M 370.61 189.51
  C 358.73 186.61 344.53 183.78 330.84 181.88
  Q 330.07 181.77 330.49 182.42
  Q 345.10 204.84 357.33 228.64
  A 0.29 0.29 0.0 0 0 357.86 228.61
  Q 365.33 209.71 371.01 190.20
  Q 371.17 189.65 370.61 189.51
  Z
  M 33.13 253.88
  C 31.05 271.40 55.26 288.18 68.56 295.67
  Q 92.58 309.18 119.11 317.00
  A 0.20 0.20 0.0 0 0 119.36 316.86
  Q 128.32 286.22 141.31 257.06
  Q 141.54 256.55 141.31 256.03
  Q 128.26 226.90 119.17 196.30
  Q 119.02 195.79 118.51 195.94
  Q 94.37 203.07 72.19 214.91
  C 59.18 221.85 35.04 237.76 33.13 253.88
  Z
  M 479.12 256.87
  C 479.19 238.27 451.51 220.76 437.08 213.36
  Q 415.85 202.47 392.94 195.72
  A 0.25 0.25 0.0 0 0 392.62 195.89
  Q 383.68 226.44 370.75 255.52
  A 1.54 1.52 45.5 0 0 370.75 256.79
  Q 383.77 285.90 392.86 316.48
  Q 393.02 317.01 393.55 316.84
  C 415.33 310.10 436.01 301.32 454.86 288.34
  C 464.09 281.98 479.08 269.23 479.12 256.87
  Z
  M 331.04 330.79
  Q 351.18 327.83 370.97 323.07
  Q 371.49 322.94 371.34 322.42
  Q 365.54 302.79 357.92 283.78
  A 0.36 0.36 0.0 0 0 357.27 283.75
  Q 345.14 307.64 330.65 330.18
  Q 330.18 330.92 331.04 330.79
  Z
  M 181.17 330.80
  Q 181.94 330.92 181.51 330.26
  Q 166.91 307.85 154.66 284.07
  A 0.30 0.30 0.0 0 0 154.12 284.10
  Q 146.68 303.01 140.95 322.51
  A 0.48 0.48 0.0 0 0 141.30 323.11
  Q 161.05 327.87 181.17 330.80
  Z
  M 376.52 344.64
  C 355.75 349.62 335.06 352.71 313.83 355.48
  Q 313.32 355.55 313.03 355.96
  Q 294.42 381.78 272.53 404.89
  Q 272.11 405.33 272.55 405.75
  C 290.49 422.56 312.95 439.43 337.18 448.36
  C 344.97 451.23 356.70 453.56 364.70 450.74
  C 382.70 444.42 384.51 408.73 383.88 393.24
  Q 382.90 369.06 377.12 345.00
  A 0.50 0.49 -13.3 0 0 376.52 344.64
  Z
  M 182.65 353.43
  Q 159.17 350.32 135.73 344.79
  Q 135.29 344.69 135.19 345.12
  C 129.68 368.89 126.90 393.37 129.94 417.72
  C 131.85 433.04 137.47 453.09 157.01 452.47
  Q 169.02 452.09 181.83 446.33
  C 203.55 436.57 222.32 422.25 239.89 406.00
  Q 240.39 405.54 239.92 405.04
  Q 217.97 381.90 199.22 356.10
  A 1.28 1.26 -13.6 0 0 198.39 355.60
  Q 190.50 354.47 182.65 353.43
  Z
  M 229.23 357.75
  Q 228.38 357.71 228.91 358.38
  Q 241.69 374.61 255.99 389.53
  A 0.35 0.35 0.0 0 0 256.50 389.53
  Q 270.89 374.48 283.60 358.00
  A 0.15 0.15 0.0 0 0 283.48 357.76
  Q 256.36 359.14 229.23 357.75
  Z" fill="#61dafb"></path>
<circle r="45.64" cy="256.35" cx="255.95" fill="#61dafb"></circle>
</svg>
