<svg viewBox="0.00 0.00 512.00 512.00" version="1.1" xmlns="http://www.w3.org/2000/svg">
<g stroke-linecap="butt" fill="none" stroke-width="2.00">
<path d="M 45.52 391.29
  A 1.68 1.68 0.0 0 1 46.88 392.71
  C 49.52 411.36 62.38 425.98 80.26 431.47
  Q 85.15 432.97 90.12 432.96
  A 2.50 2.49 88.5 0 1 92.61 435.33
  C 93.79 458.48 114.09 475.44 136.75 475.46
  Q 298.64 475.54 460.53 475.51
  Q 468.46 475.51 472.91 474.63
  C 488.83 471.48 502.71 461.28 507.52 445.16
  Q 508.72 441.13 508.72 434.21
  Q 508.74 311.53 508.79 188.83
  Q 508.79 179.98 507.43 175.31
  C 501.83 156.22 483.57 145.58 464.23 146.24
  A 1.13 1.12 85.1 0 1 463.09 145.27
  C 460.15 124.12 443.93 108.07 422.77 105.26
  Q 421.55 105.10 421.34 103.88
  Q 416.45 76.32 390.43 66.17
  Q 384.78 63.96 379.25 63.96
  Q 225.16 63.95 71.08 63.98
  C 51.60 63.98 32.38 75.70 20.43 90.43
  Q 11.26 101.74 7.09 115.72
  Q 5.75 120.23 5.75 124.00
  Q 5.74 238.13 5.82 352.25
  Q 5.82 357.37 7.17 360.76
  Q 15.24 381.06 35.21 388.84
  C 38.39 390.08 42.03 390.67 45.52 391.29" stroke="#101010"></path>
<path d="M 225.52 114.38
  Q 224.19 124.47 213.50 124.47
  Q 156.42 124.45 99.34 124.47
  Q 91.94 124.48 88.72 125.21
  C 79.05 127.40 70.78 134.79 67.71 144.07
  Q 66.16 148.79 66.17 161.09
  Q 66.27 271.95 66.18 382.81
  Q 66.18 389.55 66.87 392.64
  C 69.56 404.60 80.01 412.62 91.97 413.56
  A 0.43 0.42 -87.6 0 0 92.43 413.13
  Q 92.45 301.64 92.17 190.00
  Q 92.14 173.90 101.55 162.07
  Q 110.37 150.97 123.63 147.60
  Q 129.18 146.19 143.50 146.19
  Q 293.02 146.16 443.24 146.18
  A 0.20 0.20 0.0 0 0 443.43 145.93
  Q 439.09 130.28 425.00 125.88
  Q 420.43 124.45 410.86 124.45
  Q 353.67 124.47 296.50 124.46
  Q 285.73 124.46 284.58 114.32" stroke="#806c33"></path>
<path d="M 284.58 114.32
  Q 286.24 104.80 296.50 104.80
  Q 348.31 104.79 400.67 104.79
  A 0.63 0.63 0.0 0 0 401.24 104.43
  Q 401.44 104.02 401.27 103.49
  Q 396.16 86.99 379.82 83.48
  C 376.60 82.79 372.93 82.90 369.50 82.90
  Q 223.76 82.84 78.02 82.93
  C 47.36 82.95 23.97 106.51 24.06 137.00
  Q 24.29 219.09 24.03 342.50
  C 24.00 356.95 31.49 367.95 45.69 371.52
  A 0.61 0.60 -83.0 0 0 46.44 370.93
  Q 46.24 263.37 46.35 155.75
  Q 46.38 133.35 60.97 118.95
  C 69.38 110.64 82.02 104.79 93.75 104.79
  Q 153.50 104.79 213.25 104.79
  Q 223.72 104.79 225.52 114.38" stroke="#772739"></path>
<path d="M 284.58 114.32
  L 264.91 114.39" stroke="#f7936c"></path>
<path d="M 264.91 114.39
  C 263.50 101.77 247.45 101.44 245.08 114.35" stroke="#772739"></path>
<path d="M 245.08 114.35
  L 225.52 114.38" stroke="#f7936c"></path>
<path d="M 264.91 114.39
  C 264.41 127.87 245.61 127.56 245.08 114.35" stroke="#806c33"></path>
<path d="M 212.17 242.78
  C 226.43 236.19 240.82 240.70 251.40 251.60
  Q 302.25 304.02 352.95 356.51
  A 0.33 0.32 49.9 0 0 353.38 356.55
  Q 376.66 339.50 399.93 322.55
  Q 411.00 314.49 416.25 312.61
  Q 427.40 308.61 438.58 312.92
  Q 443.60 314.85 453.02 321.97
  Q 471.15 335.68 489.48 349.55
  A 0.32 0.32 0.0 0 0 490.00 349.30
  Q 490.03 270.97 489.99 192.46
  Q 489.99 185.17 489.13 182.13
  C 486.95 174.40 480.31 168.13 472.54 166.37
  Q 469.96 165.79 459.93 165.79
  Q 297.09 165.78 134.25 165.96
  C 123.72 165.97 114.81 173.22 112.53 183.23
  Q 111.93 185.89 111.93 197.31
  Q 111.93 262.97 111.91 328.52
  A 0.36 0.35 -20.9 0 0 112.50 328.78
  Q 154.70 291.50 196.65 254.42
  Q 207.24 245.06 212.17 242.78" stroke="#6b787e"></path>
<path d="M 389.11 394.10
  C 398.26 403.82 384.45 417.27 374.00 406.49
  Q 307.13 337.49 240.35 268.39
  Q 233.81 261.63 230.29 260.23
  Q 223.07 257.34 216.19 263.42
  Q 164.53 309.13 112.92 354.68
  A 2.67 2.67 0.0 0 0 112.01 356.62
  C 111.30 380.30 111.92 404.22 111.96 427.93
  Q 111.97 436.42 113.42 440.40
  C 117.17 450.72 126.36 455.06 137.00 455.06
  Q 300.75 455.00 464.50 455.03
  C 475.50 455.03 484.59 450.95 488.50 440.40
  Q 489.97 436.45 490.03 428.42
  Q 490.23 401.75 489.99 375.34
  A 1.59 1.57 18.4 0 0 489.36 374.10
  Q 464.30 355.25 439.27 336.31
  C 432.26 331.01 426.22 327.80 418.73 333.25
  Q 393.14 351.89 367.45 370.63
  A 0.53 0.53 0.0 0 0 367.38 371.43
  Q 378.28 382.59 389.11 394.10" stroke="#005c76"></path>
<path d="M 429.83 248.34
  A 42.09 42.09 0.0 0 0 387.74 206.25
  A 42.09 42.09 0.0 0 0 345.65 248.34
  A 42.09 42.09 0.0 0 0 387.74 290.43
  A 42.09 42.09 0.0 0 0 429.83 248.34" stroke="#6b787e"></path>
<path d="M 410.19 248.35
  A 22.45 22.45 0.0 0 0 387.74 225.90
  A 22.45 22.45 0.0 0 0 365.29 248.35
  A 22.45 22.45 0.0 0 0 387.74 270.80
  A 22.45 22.45 0.0 0 0 410.19 248.35" stroke="#806c33"></path>
</g>
<path d="M 0.00 0.00
  L 512.00 0.00
  L 512.00 512.00
  L 0.00 512.00
  L 0.00 0.00
  Z
  M 45.52 391.29
  A 1.68 1.68 0.0 0 1 46.88 392.71
  C 49.52 411.36 62.38 425.98 80.26 431.47
  Q 85.15 432.97 90.12 432.96
  A 2.50 2.49 88.5 0 1 92.61 435.33
  C 93.79 458.48 114.09 475.44 136.75 475.46
  Q 298.64 475.54 460.53 475.51
  Q 468.46 475.51 472.91 474.63
  C 488.83 471.48 502.71 461.28 507.52 445.16
  Q 508.72 441.13 508.72 434.21
  Q 508.74 311.53 508.79 188.83
  Q 508.79 179.98 507.43 175.31
  C 501.83 156.22 483.57 145.58 464.23 146.24
  A 1.13 1.12 85.1 0 1 463.09 145.27
  C 460.15 124.12 443.93 108.07 422.77 105.26
  Q 421.55 105.10 421.34 103.88
  Q 416.45 76.32 390.43 66.17
  Q 384.78 63.96 379.25 63.96
  Q 225.16 63.95 71.08 63.98
  C 51.60 63.98 32.38 75.70 20.43 90.43
  Q 11.26 101.74 7.09 115.72
  Q 5.75 120.23 5.75 124.00
  Q 5.74 238.13 5.82 352.25
  Q 5.82 357.37 7.17 360.76
  Q 15.24 381.06 35.21 388.84
  C 38.39 390.08 42.03 390.67 45.52 391.29
  Z" fill="#1f1f1f"></path>
<path d="M 45.52 391.29
  C 42.03 390.67 38.39 390.08 35.21 388.84
  Q 15.24 381.06 7.17 360.76
  Q 5.82 357.37 5.82 352.25
  Q 5.74 238.13 5.75 124.00
  Q 5.75 120.23 7.09 115.72
  Q 11.26 101.74 20.43 90.43
  C 32.38 75.70 51.60 63.98 71.08 63.98
  Q 225.16 63.95 379.25 63.96
  Q 384.78 63.96 390.43 66.17
  Q 416.45 76.32 421.34 103.88
  Q 421.55 105.10 422.77 105.26
  C 443.93 108.07 460.15 124.12 463.09 145.27
  A 1.13 1.12 85.1 0 0 464.23 146.24
  C 483.57 145.58 501.83 156.22 507.43 175.31
  Q 508.79 179.98 508.79 188.83
  Q 508.74 311.53 508.72 434.21
  Q 508.72 441.13 507.52 445.16
  C 502.71 461.28 488.83 471.48 472.91 474.63
  Q 468.46 475.51 460.53 475.51
  Q 298.64 475.54 136.75 475.46
  C 114.09 475.44 93.79 458.48 92.61 435.33
  A 2.50 2.49 88.5 0 0 90.12 432.96
  Q 85.15 432.97 80.26 431.47
  C 62.38 425.98 49.52 411.36 46.88 392.71
  A 1.68 1.68 0.0 0 0 45.52 391.29
  Z
  M 225.52 114.38
  Q 224.19 124.47 213.50 124.47
  Q 156.42 124.45 99.34 124.47
  Q 91.94 124.48 88.72 125.21
  C 79.05 127.40 70.78 134.79 67.71 144.07
  Q 66.16 148.79 66.17 161.09
  Q 66.27 271.95 66.18 382.81
  Q 66.18 389.55 66.87 392.64
  C 69.56 404.60 80.01 412.62 91.97 413.56
  A 0.43 0.42 -87.6 0 0 92.43 413.13
  Q 92.45 301.64 92.17 190.00
  Q 92.14 173.90 101.55 162.07
  Q 110.37 150.97 123.63 147.60
  Q 129.18 146.19 143.50 146.19
  Q 293.02 146.16 443.24 146.18
  A 0.20 0.20 0.0 0 0 443.43 145.93
  Q 439.09 130.28 425.00 125.88
  Q 420.43 124.45 410.86 124.45
  Q 353.67 124.47 296.50 124.46
  Q 285.73 124.46 284.58 114.32
  Q 286.24 104.80 296.50 104.80
  Q 348.31 104.79 400.67 104.79
  A 0.63 0.63 0.0 0 0 401.24 104.43
  Q 401.44 104.02 401.27 103.49
  Q 396.16 86.99 379.82 83.48
  C 376.60 82.79 372.93 82.90 369.50 82.90
  Q 223.76 82.84 78.02 82.93
  C 47.36 82.95 23.97 106.51 24.06 137.00
  Q 24.29 219.09 24.03 342.50
  C 24.00 356.95 31.49 367.95 45.69 371.52
  A 0.61 0.60 -83.0 0 0 46.44 370.93
  Q 46.24 263.37 46.35 155.75
  Q 46.38 133.35 60.97 118.95
  C 69.38 110.64 82.02 104.79 93.75 104.79
  Q 153.50 104.79 213.25 104.79
  Q 223.72 104.79 225.52 114.38
  Z
  M 212.17 242.78
  C 226.43 236.19 240.82 240.70 251.40 251.60
  Q 302.25 304.02 352.95 356.51
  A 0.33 0.32 49.9 0 0 353.38 356.55
  Q 376.66 339.50 399.93 322.55
  Q 411.00 314.49 416.25 312.61
  Q 427.40 308.61 438.58 312.92
  Q 443.60 314.85 453.02 321.97
  Q 471.15 335.68 489.48 349.55
  A 0.32 0.32 0.0 0 0 490.00 349.30
  Q 490.03 270.97 489.99 192.46
  Q 489.99 185.17 489.13 182.13
  C 486.95 174.40 480.31 168.13 472.54 166.37
  Q 469.96 165.79 459.93 165.79
  Q 297.09 165.78 134.25 165.96
  C 123.72 165.97 114.81 173.22 112.53 183.23
  Q 111.93 185.89 111.93 197.31
  Q 111.93 262.97 111.91 328.52
  A 0.36 0.35 -20.9 0 0 112.50 328.78
  Q 154.70 291.50 196.65 254.42
  Q 207.24 245.06 212.17 242.78
  Z
  M 389.11 394.10
  C 398.26 403.82 384.45 417.27 374.00 406.49
  Q 307.13 337.49 240.35 268.39
  Q 233.81 261.63 230.29 260.23
  Q 223.07 257.34 216.19 263.42
  Q 164.53 309.13 112.92 354.68
  A 2.67 2.67 0.0 0 0 112.01 356.62
  C 111.30 380.30 111.92 404.22 111.96 427.93
  Q 111.97 436.42 113.42 440.40
  C 117.17 450.72 126.36 455.06 137.00 455.06
  Q 300.75 455.00 464.50 455.03
  C 475.50 455.03 484.59 450.95 488.50 440.40
  Q 489.97 436.45 490.03 428.42
  Q 490.23 401.75 489.99 375.34
  A 1.59 1.57 18.4 0 0 489.36 374.10
  Q 464.30 355.25 439.27 336.31
  C 432.26 331.01 426.22 327.80 418.73 333.25
  Q 393.14 351.89 367.45 370.63
  A 0.53 0.53 0.0 0 0 367.38 371.43
  Q 378.28 382.59 389.11 394.10
  Z" fill="#000000"></path>
<path d="M 284.58 114.32
  L 264.91 114.39
  C 263.50 101.77 247.45 101.44 245.08 114.35
  L 225.52 114.38
  Q 223.72 104.79 213.25 104.79
  Q 153.50 104.79 93.75 104.79
  C 82.02 104.79 69.38 110.64 60.97 118.95
  Q 46.38 133.35 46.35 155.75
  Q 46.24 263.37 46.44 370.93
  A 0.61 0.60 -83.0 0 1 45.69 371.52
  C 31.49 367.95 24.00 356.95 24.03 342.50
  Q 24.29 219.09 24.06 137.00
  C 23.97 106.51 47.36 82.95 78.02 82.93
  Q 223.76 82.84 369.50 82.90
  C 372.93 82.90 376.60 82.79 379.82 83.48
  Q 396.16 86.99 401.27 103.49
  Q 401.44 104.02 401.24 104.43
  A 0.63 0.63 0.0 0 1 400.67 104.79
  Q 348.31 104.79 296.50 104.80
  Q 286.24 104.80 284.58 114.32
  Z" fill="#ee4e71"></path>
<path d="M 264.91 114.39
  C 264.41 127.87 245.61 127.56 245.08 114.35
  C 247.45 101.44 263.50 101.77 264.91 114.39
  Z" fill="#000000"></path>
<path d="M 225.52 114.38
  L 245.08 114.35
  C 245.61 127.56 264.41 127.87 264.91 114.39
  L 284.58 114.32
  Q 285.73 124.46 296.50 124.46
  Q 353.67 124.47 410.86 124.45
  Q 420.43 124.45 425.00 125.88
  Q 439.09 130.28 443.43 145.93
  A 0.20 0.20 0.0 0 1 443.24 146.18
  Q 293.02 146.16 143.50 146.19
  Q 129.18 146.19 123.63 147.60
  Q 110.37 150.97 101.55 162.07
  Q 92.14 173.90 92.17 190.00
  Q 92.45 301.64 92.43 413.13
  A 0.43 0.42 -87.6 0 1 91.97 413.56
  C 80.01 412.62 69.56 404.60 66.87 392.64
  Q 66.18 389.55 66.18 382.81
  Q 66.27 271.95 66.17 161.09
  Q 66.16 148.79 67.71 144.07
  C 70.78 134.79 79.05 127.40 88.72 125.21
  Q 91.94 124.48 99.34 124.47
  Q 156.42 124.45 213.50 124.47
  Q 224.19 124.47 225.52 114.38
  Z" fill="#ffd866"></path>
<path d="M 251.40 251.60
  C 240.82 240.70 226.43 236.19 212.17 242.78
  Q 207.24 245.06 196.65 254.42
  Q 154.70 291.50 112.50 328.78
  A 0.36 0.35 -20.9 0 1 111.91 328.52
  Q 111.93 262.97 111.93 197.31
  Q 111.93 185.89 112.53 183.23
  C 114.81 173.22 123.72 165.97 134.25 165.96
  Q 297.09 165.78 459.93 165.79
  Q 469.96 165.79 472.54 166.37
  C 480.31 168.13 486.95 174.40 489.13 182.13
  Q 489.99 185.17 489.99 192.46
  Q 490.03 270.97 490.00 349.30
  A 0.32 0.32 0.0 0 1 489.48 349.55
  Q 471.15 335.68 453.02 321.97
  Q 443.60 314.85 438.58 312.92
  Q 427.40 308.61 416.25 312.61
  Q 411.00 314.49 399.93 322.55
  Q 376.66 339.50 353.38 356.55
  A 0.33 0.32 49.9 0 1 352.95 356.51
  Q 302.25 304.02 251.40 251.60
  Z
  M 429.83 248.34
  A 42.09 42.09 0.0 0 0 387.74 206.25
  A 42.09 42.09 0.0 0 0 345.65 248.34
  A 42.09 42.09 0.0 0 0 387.74 290.43
  A 42.09 42.09 0.0 0 0 429.83 248.34
  Z" fill="#d6effb"></path>
<path d="M 429.83 248.34
  A 42.09 42.09 0.0 0 1 387.74 290.43
  A 42.09 42.09 0.0 0 1 345.65 248.34
  A 42.09 42.09 0.0 0 1 387.74 206.25
  A 42.09 42.09 0.0 0 1 429.83 248.34
  Z
  M 410.19 248.35
  A 22.45 22.45 0.0 0 0 387.74 225.90
  A 22.45 22.45 0.0 0 0 365.29 248.35
  A 22.45 22.45 0.0 0 0 387.74 270.80
  A 22.45 22.45 0.0 0 0 410.19 248.35
  Z" fill="#000000"></path>
<circle r="22.45" cy="248.35" cx="387.74" fill="#ffd866"></circle>
<path d="M 374.00 406.49
  C 384.45 417.27 398.26 403.82 389.11 394.10
  Q 378.28 382.59 367.38 371.43
  A 0.53 0.53 0.0 0 1 367.45 370.63
  Q 393.14 351.89 418.73 333.25
  C 426.22 327.80 432.26 331.01 439.27 336.31
  Q 464.30 355.25 489.36 374.10
  A 1.59 1.57 18.4 0 1 489.99 375.34
  Q 490.23 401.75 490.03 428.42
  Q 489.97 436.45 488.50 440.40
  C 484.59 450.95 475.50 455.03 464.50 455.03
  Q 300.75 455.00 137.00 455.06
  C 126.36 455.06 117.17 450.72 113.42 440.40
  Q 111.97 436.42 111.96 427.93
  C 111.92 404.22 111.30 380.30 112.01 356.62
  A 2.67 2.67 0.0 0 1 112.92 354.68
  Q 164.53 309.13 216.19 263.42
  Q 223.07 257.34 230.29 260.23
  Q 233.81 261.63 240.35 268.39
  Q 307.13 337.49 374.00 406.49
  Z" fill="#00b7ec"></path>
</svg>
