<svg viewBox="0.00 0.00 48.00 48.00" version="1.1" xmlns="http://www.w3.org/2000/svg">
<g stroke-linecap="butt" fill="none" stroke-width="2.00">
<path d="M 27.09 6.60
  L 27.04 12.21
  Q 27.04 12.85 27.67 12.85
  L 31.69 12.86
  A 1.24 1.23 -2.3 0 1 32.91 13.98
  L 32.95 14.48
  A 1.42 1.42 0.0 0 1 31.52 16.03
  L 27.65 15.97
  Q 27.02 15.97 27.02 16.60
  L 27.01 18.64
  Q 27.01 19.28 27.65 19.28
  L 31.78 19.28
  A 1.17 1.16 -87.9 0 1 32.94 20.53
  L 32.90 21.07
  Q 32.80 22.42 31.44 22.41
  L 27.45 22.38
  A 0.43 0.43 0.0 0 0 27.02 22.80
  L 27.00 24.97
  A 0.59 0.59 0.0 0 0 27.59 25.57
  L 31.42 25.51
  Q 32.71 25.49 32.88 26.77
  L 32.93 27.22
  Q 33.12 28.68 31.65 28.67
  L 27.68 28.64
  A 0.68 0.67 -90.0 0 0 27.01 29.32
  L 27.01 31.22
  Q 27.01 31.92 27.71 31.91
  L 31.44 31.86
  A 1.50 1.50 0.0 0 1 32.95 33.57
  L 32.89 34.01
  A 1.23 1.22 4.3 0 1 31.66 35.06
  L 27.69 35.02
  Q 27.07 35.01 27.07 35.63
  L 27.04 41.35" stroke="#8cb790"></path>
<path d="M 21.15 22.64
  Q 22.88 18.10 18.72 15.82
  Q 18.29 15.58 18.02 15.17
  C 16.97 13.58 15.88 13.41 13.93 13.67
  C 12.55 13.85 10.38 13.06 9.31 14.07
  C 6.90 16.37 3.52 18.11 5.27 22.30
  A 1.18 1.13 -45.4 0 1 5.26 23.21
  Q 4.10 25.84 6.42 27.37
  Q 6.78 27.61 6.74 28.03
  Q 6.66 29.04 6.90 29.99
  A 1.03 1.01 -86.7 0 0 7.50 30.68
  Q 8.96 31.28 10.04 32.43
  A 1.74 1.73 -33.4 0 0 12.01 32.83
  C 13.80 32.05 15.70 33.83 17.02 31.83
  Q 17.27 31.45 17.73 31.39
  Q 20.59 31.03 20.27 28.12
  Q 20.21 27.56 20.65 27.20
  Q 22.49 25.71 21.24 23.63
  Q 20.95 23.15 21.15 22.64" stroke="#84b484"></path>
<path d="M 41.9497 14.2749
  A 1.46 1.46 0.0 0 0 40.4872 12.8174
  L 37.5272 12.8226
  A 1.46 1.46 0.0 0 0 36.0697 14.2851
  L 36.0703 14.5851
  A 1.46 1.46 0.0 0 0 37.5328 16.0426
  L 40.4928 16.0374
  A 1.46 1.46 0.0 0 0 41.9503 14.5749
  L 41.9497 14.2749" stroke="#92c096"></path>
<path d="M 41.9404 20.6151
  A 1.36 1.36 0.0 0 0 40.5828 19.2528
  L 37.4228 19.2472
  A 1.36 1.36 0.0 0 0 36.0604 20.6049
  L 36.0596 21.0449
  A 1.36 1.36 0.0 0 0 37.4172 22.4072
  L 40.5772 22.4128
  A 1.36 1.36 0.0 0 0 41.9396 21.0551
  L 41.9404 20.6151" stroke="#92c096"></path>
<path d="M 41.93 26.81
  A 1.29 1.29 0.0 0 0 40.64 25.52
  L 37.38 25.52
  A 1.29 1.29 0.0 0 0 36.09 26.81
  L 36.09 27.39
  A 1.29 1.29 0.0 0 0 37.38 28.68
  L 40.64 28.68
  A 1.29 1.29 0.0 0 0 41.93 27.39
  L 41.93 26.81" stroke="#92c096"></path>
<path d="M 41.9470 33.2934
  A 1.50 1.50 0.0 0 0 40.4184 31.8225
  L 37.5190 31.8781
  A 1.50 1.50 0.0 0 0 36.0480 33.4067
  L 36.0530 33.6666
  A 1.50 1.50 0.0 0 0 37.5816 35.1375
  L 40.4810 35.0819
  A 1.50 1.50 0.0 0 0 41.9520 33.5533
  L 41.9470 33.2934" stroke="#92c096"></path>
<path d="M 10.70 24.66
  Q 11.32 24.48 11.97 24.51
  Q 12.73 24.56 12.80 23.80
  L 12.97 21.96
  A 0.66 0.66 0.0 0 0 12.24 21.24
  Q 11.39 21.34 10.76 20.68
  A 0.48 0.48 0.0 0 1 10.71 20.08
  Q 10.94 19.73 10.67 19.41
  A 0.50 0.50 0.0 0 0 9.96 19.36
  Q 9.20 20.05 8.13 19.66
  A 0.85 0.85 0.0 0 1 7.70 18.39
  L 8.18 17.65
  Q 8.68 16.87 9.43 17.42
  Q 10.36 18.11 11.53 18.30
  Q 11.93 18.37 11.87 18.77
  L 11.80 19.23
  Q 11.73 19.71 12.18 19.90
  Q 12.37 19.98 12.58 20.06
  Q 13.02 20.22 12.99 19.75
  L 12.76 15.48
  A 1.37 1.37 0.0 0 0 10.57 14.46
  C 8.25 16.21 4.76 18.28 6.03 21.68
  Q 6.18 22.08 6.61 22.20
  Q 7.84 22.55 8.73 21.85
  Q 9.08 21.58 9.46 21.80
  Q 9.89 22.05 10.17 22.43
  A 1.12 1.12 0.0 0 1 8.69 24.05
  L 7.59 23.38
  Q 7.07 23.06 6.55 23.36
  Q 5.74 23.83 5.79 24.84
  C 5.84 25.89 6.68 26.44 7.45 27.04
  A 0.78 0.77 31.4 0 1 7.68 27.98
  Q 7.38 28.64 7.55 29.39
  Q 7.66 29.86 8.11 30.02
  L 9.01 30.33
  Q 9.50 30.50 9.82 30.92
  Q 10.73 32.15 12.26 31.73
  Q 12.86 31.56 12.87 30.94
  L 12.92 25.98
  A 0.64 0.64 0.0 0 0 12.15 25.34
  L 11.09 25.56
  Q 10.58 25.67 10.82 26.13
  Q 12.38 29.10 10.54 29.50
  A 0.97 0.97 0.0 0 1 9.44 28.16
  Q 10.03 26.83 10.13 25.37
  Q 10.17 24.82 10.70 24.66" stroke="#84b484"></path>
<path d="M 18.42 17.16
  Q 19.16 18.08 18.89 19.29
  A 0.79 0.79 0.0 0 1 17.74 19.81
  Q 16.16 18.95 14.31 19.30
  Q 13.73 19.42 13.73 20.01
  L 13.70 27.46
  Q 13.70 27.96 14.21 27.93
  Q 15.20 27.87 15.94 27.23
  A 0.90 0.89 -33.5 0 1 17.32 27.51
  Q 17.94 28.76 16.91 29.46
  A 0.75 0.75 0.0 0 1 16.02 29.42
  Q 15.34 28.85 14.47 28.78
  Q 13.82 28.73 13.70 29.36
  Q 13.54 30.26 13.80 31.15
  Q 13.94 31.60 14.39 31.72
  Q 15.87 32.11 16.60 30.95
  Q 16.91 30.47 17.48 30.40
  Q 18.37 30.29 19.13 29.87
  A 0.79 0.79 0.0 0 0 19.50 28.99
  Q 19.18 27.80 19.27 26.59
  A 0.56 0.56 0.0 0 0 18.86 26.00
  Q 17.59 25.65 16.28 25.77
  Q 15.73 25.82 15.73 25.28
  Q 15.73 23.87 14.97 22.73
  A 0.88 0.87 48.2 0 1 15.02 21.68
  Q 15.66 20.91 16.58 21.36
  A 0.89 0.89 0.0 0 1 17.04 22.40
  L 16.55 24.16
  A 0.54 0.53 5.1 0 0 17.12 24.84
  Q 18.91 24.65 20.35 25.63
  Q 20.49 25.72 20.62 25.62
  Q 20.73 25.54 20.84 25.44
  A 0.27 0.26 54.1 0 0 20.89 25.08
  L 19.99 23.76
  Q 19.68 23.31 19.93 22.81
  C 20.84 20.98 20.79 17.05 18.22 16.57
  Q 17.68 16.47 17.41 15.99
  Q 16.70 14.74 15.23 14.47
  A 1.27 1.26 10.5 0 0 13.75 15.48
  Q 13.55 16.58 13.73 17.66
  Q 13.80 18.03 14.16 18.13
  Q 16.36 18.76 17.72 17.15
  Q 18.08 16.72 18.42 17.16" stroke="#84b484"></path>
</g>
<path d="M 25.14 0.00
  L 25.99 0.00
  C 27.56 1.15 26.98 4.69 27.09 6.60
  L 27.04 12.21
  Q 27.04 12.85 27.67 12.85
  L 31.69 12.86
  A 1.24 1.23 -2.3 0 1 32.91 13.98
  L 32.95 14.48
  A 1.42 1.42 0.0 0 1 31.52 16.03
  L 27.65 15.97
  Q 27.02 15.97 27.02 16.60
  L 27.01 18.64
  Q 27.01 19.28 27.65 19.28
  L 31.78 19.28
  A 1.17 1.16 -87.9 0 1 32.94 20.53
  L 32.90 21.07
  Q 32.80 22.42 31.44 22.41
  L 27.45 22.38
  A 0.43 0.43 0.0 0 0 27.02 22.80
  L 27.00 24.97
  A 0.59 0.59 0.0 0 0 27.59 25.57
  L 31.42 25.51
  Q 32.71 25.49 32.88 26.77
  L 32.93 27.22
  Q 33.12 28.68 31.65 28.67
  L 27.68 28.64
  A 0.68 0.67 -90.0 0 0 27.01 29.32
  L 27.01 31.22
  Q 27.01 31.92 27.71 31.91
  L 31.44 31.86
  A 1.50 1.50 0.0 0 1 32.95 33.57
  L 32.89 34.01
  A 1.23 1.22 4.3 0 1 31.66 35.06
  L 27.69 35.02
  Q 27.07 35.01 27.07 35.63
  L 27.04 41.35
  L 26.98 46.44
  A 1.39 1.39 0.0 0 1 25.31 47.79
  L 0.00 42.57
  L 0.00 5.25
  L 25.14 0.00
  Z
  M 21.15 22.64
  Q 22.88 18.10 18.72 15.82
  Q 18.29 15.58 18.02 15.17
  C 16.97 13.58 15.88 13.41 13.93 13.67
  C 12.55 13.85 10.38 13.06 9.31 14.07
  C 6.90 16.37 3.52 18.11 5.27 22.30
  A 1.18 1.13 -45.4 0 1 5.26 23.21
  Q 4.10 25.84 6.42 27.37
  Q 6.78 27.61 6.74 28.03
  Q 6.66 29.04 6.90 29.99
  A 1.03 1.01 -86.7 0 0 7.50 30.68
  Q 8.96 31.28 10.04 32.43
  A 1.74 1.73 -33.4 0 0 12.01 32.83
  C 13.80 32.05 15.70 33.83 17.02 31.83
  Q 17.27 31.45 17.73 31.39
  Q 20.59 31.03 20.27 28.12
  Q 20.21 27.56 20.65 27.20
  Q 22.49 25.71 21.24 23.63
  Q 20.95 23.15 21.15 22.64
  Z" fill="#2a7e2e"></path>
<path d="M 27.09 6.60
  Q 37.91 6.07 48.00 6.93
  L 48.00 41.07
  L 27.04 41.35
  L 27.07 35.63
  Q 27.07 35.01 27.69 35.02
  L 31.66 35.06
  A 1.23 1.22 4.3 0 0 32.89 34.01
  L 32.95 33.57
  A 1.50 1.50 0.0 0 0 31.44 31.86
  L 27.71 31.91
  Q 27.01 31.92 27.01 31.22
  L 27.01 29.32
  A 0.68 0.67 -90.0 0 1 27.68 28.64
  L 31.65 28.67
  Q 33.12 28.68 32.93 27.22
  L 32.88 26.77
  Q 32.71 25.49 31.42 25.51
  L 27.59 25.57
  A 0.59 0.59 0.0 0 1 27.00 24.97
  L 27.02 22.80
  A 0.43 0.43 0.0 0 1 27.45 22.38
  L 31.44 22.41
  Q 32.80 22.42 32.90 21.07
  L 32.94 20.53
  A 1.17 1.16 -87.9 0 0 31.78 19.28
  L 27.65 19.28
  Q 27.01 19.28 27.01 18.64
  L 27.02 16.60
  Q 27.02 15.97 27.65 15.97
  L 31.52 16.03
  A 1.42 1.42 0.0 0 0 32.95 14.48
  L 32.91 13.98
  A 1.24 1.23 -2.3 0 0 31.69 12.86
  L 27.67 12.85
  Q 27.04 12.85 27.04 12.21
  L 27.09 6.60
  Z
  M 41.9497 14.2749
  A 1.46 1.46 0.0 0 0 40.4872 12.8174
  L 37.5272 12.8226
  A 1.46 1.46 0.0 0 0 36.0697 14.2851
  L 36.0703 14.5851
  A 1.46 1.46 0.0 0 0 37.5328 16.0426
  L 40.4928 16.0374
  A 1.46 1.46 0.0 0 0 41.9503 14.5749
  L 41.9497 14.2749
  Z
  M 41.9404 20.6151
  A 1.36 1.36 0.0 0 0 40.5828 19.2528
  L 37.4228 19.2472
  A 1.36 1.36 0.0 0 0 36.0604 20.6049
  L 36.0596 21.0449
  A 1.36 1.36 0.0 0 0 37.4172 22.4072
  L 40.5772 22.4128
  A 1.36 1.36 0.0 0 0 41.9396 21.0551
  L 41.9404 20.6151
  Z
  M 41.93 26.81
  A 1.29 1.29 0.0 0 0 40.64 25.52
  L 37.38 25.52
  A 1.29 1.29 0.0 0 0 36.09 26.81
  L 36.09 27.39
  A 1.29 1.29 0.0 0 0 37.38 28.68
  L 40.64 28.68
  A 1.29 1.29 0.0 0 0 41.93 27.39
  L 41.93 26.81
  Z
  M 41.9470 33.2934
  A 1.50 1.50 0.0 0 0 40.4184 31.8225
  L 37.5190 31.8781
  A 1.50 1.50 0.0 0 0 36.0480 33.4067
  L 36.0530 33.6666
  A 1.50 1.50 0.0 0 0 37.5816 35.1375
  L 40.4810 35.0819
  A 1.50 1.50 0.0 0 0 41.9520 33.5533
  L 41.9470 33.2934
  Z" fill="#edf0f1"></path>
<rect rx="1.46" height="3.22" width="5.88" transform="translate(39.01,14.43) rotate(-0.1)" y="-1.61" x="-2.94" fill="#368f3a"></rect>
<path d="M 21.24 23.63
  Q 22.49 25.71 20.65 27.20
  Q 20.21 27.56 20.27 28.12
  Q 20.59 31.03 17.73 31.39
  Q 17.27 31.45 17.02 31.83
  C 15.70 33.83 13.80 32.05 12.01 32.83
  A 1.74 1.73 -33.4 0 1 10.04 32.43
  Q 8.96 31.28 7.50 30.68
  A 1.03 1.01 -86.7 0 1 6.90 29.99
  Q 6.66 29.04 6.74 28.03
  Q 6.78 27.61 6.42 27.37
  Q 4.10 25.84 5.26 23.21
  A 1.18 1.13 -45.4 0 0 5.27 22.30
  C 3.52 18.11 6.90 16.37 9.31 14.07
  C 10.38 13.06 12.55 13.85 13.93 13.67
  C 15.88 13.41 16.97 13.58 18.02 15.17
  Q 18.29 15.58 18.72 15.82
  Q 22.88 18.10 21.15 22.64
  Q 20.95 23.15 21.24 23.63
  Z
  M 10.70 24.66
  Q 11.32 24.48 11.97 24.51
  Q 12.73 24.56 12.80 23.80
  L 12.97 21.96
  A 0.66 0.66 0.0 0 0 12.24 21.24
  Q 11.39 21.34 10.76 20.68
  A 0.48 0.48 0.0 0 1 10.71 20.08
  Q 10.94 19.73 10.67 19.41
  A 0.50 0.50 0.0 0 0 9.96 19.36
  Q 9.20 20.05 8.13 19.66
  A 0.85 0.85 0.0 0 1 7.70 18.39
  L 8.18 17.65
  Q 8.68 16.87 9.43 17.42
  Q 10.36 18.11 11.53 18.30
  Q 11.93 18.37 11.87 18.77
  L 11.80 19.23
  Q 11.73 19.71 12.18 19.90
  Q 12.37 19.98 12.58 20.06
  Q 13.02 20.22 12.99 19.75
  L 12.76 15.48
  A 1.37 1.37 0.0 0 0 10.57 14.46
  C 8.25 16.21 4.76 18.28 6.03 21.68
  Q 6.18 22.08 6.61 22.20
  Q 7.84 22.55 8.73 21.85
  Q 9.08 21.58 9.46 21.80
  Q 9.89 22.05 10.17 22.43
  A 1.12 1.12 0.0 0 1 8.69 24.05
  L 7.59 23.38
  Q 7.07 23.06 6.55 23.36
  Q 5.74 23.83 5.79 24.84
  C 5.84 25.89 6.68 26.44 7.45 27.04
  A 0.78 0.77 31.4 0 1 7.68 27.98
  Q 7.38 28.64 7.55 29.39
  Q 7.66 29.86 8.11 30.02
  L 9.01 30.33
  Q 9.50 30.50 9.82 30.92
  Q 10.73 32.15 12.26 31.73
  Q 12.86 31.56 12.87 30.94
  L 12.92 25.98
  A 0.64 0.64 0.0 0 0 12.15 25.34
  L 11.09 25.56
  Q 10.58 25.67 10.82 26.13
  Q 12.38 29.10 10.54 29.50
  A 0.97 0.97 0.0 0 1 9.44 28.16
  Q 10.03 26.83 10.13 25.37
  Q 10.17 24.82 10.70 24.66
  Z
  M 18.42 17.16
  Q 19.16 18.08 18.89 19.29
  A 0.79 0.79 0.0 0 1 17.74 19.81
  Q 16.16 18.95 14.31 19.30
  Q 13.73 19.42 13.73 20.01
  L 13.70 27.46
  Q 13.70 27.96 14.21 27.93
  Q 15.20 27.87 15.94 27.23
  A 0.90 0.89 -33.5 0 1 17.32 27.51
  Q 17.94 28.76 16.91 29.46
  A 0.75 0.75 0.0 0 1 16.02 29.42
  Q 15.34 28.85 14.47 28.78
  Q 13.82 28.73 13.70 29.36
  Q 13.54 30.26 13.80 31.15
  Q 13.94 31.60 14.39 31.72
  Q 15.87 32.11 16.60 30.95
  Q 16.91 30.47 17.48 30.40
  Q 18.37 30.29 19.13 29.87
  A 0.79 0.79 0.0 0 0 19.50 28.99
  Q 19.18 27.80 19.27 26.59
  A 0.56 0.56 0.0 0 0 18.86 26.00
  Q 17.59 25.65 16.28 25.77
  Q 15.73 25.82 15.73 25.28
  Q 15.73 23.87 14.97 22.73
  A 0.88 0.87 48.2 0 1 15.02 21.68
  Q 15.66 20.91 16.58 21.36
  A 0.89 0.89 0.0 0 1 17.04 22.40
  L 16.55 24.16
  A 0.54 0.53 5.1 0 0 17.12 24.84
  Q 18.91 24.65 20.35 25.63
  Q 20.49 25.72 20.62 25.62
  Q 20.73 25.54 20.84 25.44
  A 0.27 0.26 54.1 0 0 20.89 25.08
  L 19.99 23.76
  Q 19.68 23.31 19.93 22.81
  C 20.84 20.98 20.79 17.05 18.22 16.57
  Q 17.68 16.47 17.41 15.99
  Q 16.70 14.74 15.23 14.47
  A 1.27 1.26 10.5 0 0 13.75 15.48
  Q 13.55 16.58 13.73 17.66
  Q 13.80 18.03 14.16 18.13
  Q 16.36 18.76 17.72 17.15
  Q 18.08 16.72 18.42 17.16
  Z" fill="#dee9d9"></path>
<path d="M 10.13 25.37
  Q 10.03 26.83 9.44 28.16
  A 0.97 0.97 0.0 0 0 10.54 29.50
  Q 12.38 29.10 10.82 26.13
  Q 10.58 25.67 11.09 25.56
  L 12.15 25.34
  A 0.64 0.64 0.0 0 1 12.92 25.98
  L 12.87 30.94
  Q 12.86 31.56 12.26 31.73
  Q 10.73 32.15 9.82 30.92
  Q 9.50 30.50 9.01 30.33
  L 8.11 30.02
  Q 7.66 29.86 7.55 29.39
  Q 7.38 28.64 7.68 27.98
  A 0.78 0.77 31.4 0 0 7.45 27.04
  C 6.68 26.44 5.84 25.89 5.79 24.84
  Q 5.74 23.83 6.55 23.36
  Q 7.07 23.06 7.59 23.38
  L 8.69 24.05
  A 1.12 1.12 0.0 0 0 10.17 22.43
  Q 9.89 22.05 9.46 21.80
  Q 9.08 21.58 8.73 21.85
  Q 7.84 22.55 6.61 22.20
  Q 6.18 22.08 6.03 21.68
  C 4.76 18.28 8.25 16.21 10.57 14.46
  A 1.37 1.37 0.0 0 1 12.76 15.48
  L 12.99 19.75
  Q 13.02 20.22 12.58 20.06
  Q 12.37 19.98 12.18 19.90
  Q 11.73 19.71 11.80 19.23
  L 11.87 18.77
  Q 11.93 18.37 11.53 18.30
  Q 10.36 18.11 9.43 17.42
  Q 8.68 16.87 8.18 17.65
  L 7.70 18.39
  A 0.85 0.85 0.0 0 0 8.13 19.66
  Q 9.20 20.05 9.96 19.36
  A 0.50 0.50 0.0 0 1 10.67 19.41
  Q 10.94 19.73 10.71 20.08
  A 0.48 0.48 0.0 0 0 10.76 20.68
  Q 11.39 21.34 12.24 21.24
  A 0.66 0.66 0.0 0 1 12.97 21.96
  L 12.80 23.80
  Q 12.73 24.56 11.97 24.51
  Q 11.32 24.48 10.70 24.66
  Q 10.17 24.82 10.13 25.37
  Z" fill="#2a7e2e"></path>
<path d="M 17.72 17.15
  Q 16.36 18.76 14.16 18.13
  Q 13.80 18.03 13.73 17.66
  Q 13.55 16.58 13.75 15.48
  A 1.27 1.26 10.5 0 1 15.23 14.47
  Q 16.70 14.74 17.41 15.99
  Q 17.68 16.47 18.22 16.57
  C 20.79 17.05 20.84 20.98 19.93 22.81
  Q 19.68 23.31 19.99 23.76
  L 20.89 25.08
  A 0.27 0.26 54.1 0 1 20.84 25.44
  Q 20.73 25.54 20.62 25.62
  Q 20.49 25.72 20.35 25.63
  Q 18.91 24.65 17.12 24.84
  A 0.54 0.53 5.1 0 1 16.55 24.16
  L 17.04 22.40
  A 0.89 0.89 0.0 0 0 16.58 21.36
  Q 15.66 20.91 15.02 21.68
  A 0.88 0.87 48.2 0 0 14.97 22.73
  Q 15.73 23.87 15.73 25.28
  Q 15.73 25.82 16.28 25.77
  Q 17.59 25.65 18.86 26.00
  A 0.56 0.56 0.0 0 1 19.27 26.59
  Q 19.18 27.80 19.50 28.99
  A 0.79 0.79 0.0 0 1 19.13 29.87
  Q 18.37 30.29 17.48 30.40
  Q 16.91 30.47 16.60 30.95
  Q 15.87 32.11 14.39 31.72
  Q 13.94 31.60 13.80 31.15
  Q 13.54 30.26 13.70 29.36
  Q 13.82 28.73 14.47 28.78
  Q 15.34 28.85 16.02 29.42
  A 0.75 0.75 0.0 0 0 16.91 29.46
  Q 17.94 28.76 17.32 27.51
  A 0.90 0.89 -33.5 0 0 15.94 27.23
  Q 15.20 27.87 14.21 27.93
  Q 13.70 27.96 13.70 27.46
  L 13.73 20.01
  Q 13.73 19.42 14.31 19.30
  Q 16.16 18.95 17.74 19.81
  A 0.79 0.79 0.0 0 0 18.89 19.29
  Q 19.16 18.08 18.42 17.16
  Q 18.08 16.72 17.72 17.15
  Z" fill="#2a7e2e"></path>
<rect rx="1.36" height="3.16" width="5.88" transform="translate(39.00,20.83) rotate(0.1)" y="-1.58" x="-2.94" fill="#368f3a"></rect>
<rect rx="1.29" height="3.16" width="5.84" y="25.52" x="36.09" fill="#368f3a"></rect>
<rect rx="1.50" height="3.26" width="5.90" transform="translate(39.00,33.48) rotate(-1.1)" y="-1.63" x="-2.95" fill="#368f3a"></rect>
</svg>
