<svg viewBox="0.00 0.00 48.00 48.00" version="1.1" xmlns="http://www.w3.org/2000/svg">
<path d="M 21.81 0.00
  L 26.34 0.00
  Q 44.92 3.14 48.00 21.82
  L 48.00 26.32
  Q 44.83 44.97 26.19 48.00
  L 21.65 48.00
  Q 3.09 44.86 0.00 26.19
  L 0.00 21.69
  Q 3.20 3.03 21.81 0.00
  Z
  M 26.69 7.37
  A 2.63 2.63 0.0 0 0 24.06 4.74
  L 23.94 4.74
  A 2.63 2.63 0.0 0 0 21.31 7.37
  L 21.31 40.63
  A 2.63 2.63 0.0 0 0 23.94 43.26
  L 24.06 43.26
  A 2.63 2.63 0.0 0 0 26.69 40.63
  L 26.69 7.37
  Z
  M 16.74 37.45
  L 16.74 11.52
  A 0.43 0.43 0.0 0 0 16.13 11.13
  Q 11.34 13.36 9.53 18.47
  Q 4.99 31.29 16.03 37.86
  A 0.47 0.47 0.0 0 0 16.74 37.45
  Z
  M 31.88 37.66
  C 35.76 36.18 38.52 32.28 39.36 28.27
  Q 41.79 16.61 31.90 11.13
  A 0.43 0.43 0.0 0 0 31.26 11.51
  L 31.25 37.22
  A 0.47 0.46 79.7 0 0 31.88 37.66
  Z" fill="#24292f"></path>
</svg>
