<svg viewBox="0.00 0.00 32.00 32.00" version="1.1" xmlns="http://www.w3.org/2000/svg">
<path d="M 24.88 23.04
  C 19.68 23.78 11.93 23.35 11.20 17.19
  C 10.20 8.72 19.29 8.11 25.04 8.96
  Q 25.83 9.08 25.87 8.29
  L 26.07 4.76
  Q 26.12 4.03 25.38 4.00
  Q 19.29 3.81 17.00 4.14
  C 8.12 5.43 2.79 14.77 8.08 22.47
  C 12.31 28.63 18.44 28.07 24.94 28.04
  Q 26.00 28.04 26.00 26.97
  L 26.00 24.02
  Q 26.00 22.88 24.88 23.04" stroke-linecap="butt" fill="none" stroke-width="2.00" stroke="#979796"></path>
<path d="M 0.00 0.00
  L 32.00 0.00
  L 32.00 32.00
  L 0.00 32.00
  L 0.00 0.00
  Z
  M 24.88 23.04
  C 19.68 23.78 11.93 23.35 11.20 17.19
  C 10.20 8.72 19.29 8.11 25.04 8.96
  Q 25.83 9.08 25.87 8.29
  L 26.07 4.76
  Q 26.12 4.03 25.38 4.00
  Q 19.29 3.81 17.00 4.14
  C 8.12 5.43 2.79 14.77 8.08 22.47
  C 12.31 28.63 18.44 28.07 24.94 28.04
  Q 26.00 28.04 26.00 26.97
  L 26.00 24.02
  Q 26.00 22.88 24.88 23.04
  Z" fill="#2e2e2e"></path>
<path d="M 11.20 17.19
  C 11.93 23.35 19.68 23.78 24.88 23.04
  Q 26.00 22.88 26.00 24.02
  L 26.00 26.97
  Q 26.00 28.04 24.94 28.04
  C 18.44 28.07 12.31 28.63 8.08 22.47
  C 2.79 14.77 8.12 5.43 17.00 4.14
  Q 19.29 3.81 25.38 4.00
  Q 26.12 4.03 26.07 4.76
  L 25.87 8.29
  Q 25.83 9.08 25.04 8.96
  C 19.29 8.11 10.20 8.72 11.20 17.19
  Z" fill="#fffffe"></path>
</svg>
