<svg viewBox="0.00 0.00 32.00 32.00" version="1.1" xmlns="http://www.w3.org/2000/svg">
<g stroke-linecap="butt" fill="none" stroke-width="2.00">
<path d="M 16.90 19.78
  Q 16.98 20.45 17.28 21.02
  Q 17.78 22.00 18.76 21.50
  L 19.06 21.35
  Q 19.93 20.90 19.58 19.99
  C 18.30 16.69 16.79 13.47 15.68 10.25
  Q 15.21 8.86 13.80 8.67
  A 2.02 2.01 -75.4 0 0 11.66 9.93
  L 7.62 20.13
  Q 7.23 21.11 8.23 21.44
  L 8.68 21.59
  A 1.09 1.09 0.0 0 0 10.09 20.78
  L 10.31 19.71
  Q 10.43 19.11 11.04 19.11
  L 16.15 19.12
  A 0.76 0.76 0.0 0 1 16.90 19.78" stroke="#919397"></path>
<path d="M 23.50 9.71
  A 1.00 1.00 0.0 0 0 22.50 8.71
  L 22.24 8.71
  A 1.00 1.00 0.0 0 0 21.24 9.71
  L 21.24 20.65
  A 1.00 1.00 0.0 0 0 22.24 21.65
  L 22.50 21.65
  A 1.00 1.00 0.0 0 0 23.50 20.65
  L 23.50 9.71" stroke="#919397"></path>
<path d="M 11.37 16.68
  A 0.31 0.31 0.0 0 0 11.66 17.11
  L 15.45 17.14
  A 0.31 0.31 0.0 0 0 15.74 16.72
  L 13.89 11.85
  A 0.31 0.31 0.0 0 0 13.31 11.84
  L 11.37 16.68" stroke="#919397"></path>
</g>
<path d="M 13.87 0.00
  L 18.46 0.00
  L 28.55 5.79
  A 4.89 4.89 0.0 0 1 31.00 10.03
  L 31.00 21.25
  A 4.69 4.69 0.0 0 1 28.81 25.22
  Q 23.55 28.54 17.67 31.44
  C 14.79 32.86 6.54 27.19 3.85 25.70
  A 5.52 5.51 14.3 0 1 1.01 20.93
  C 0.98 16.83 -0.46 8.19 3.88 5.66
  Q 8.83 2.77 13.87 0.00
  Z
  M 16.90 19.78
  Q 16.98 20.45 17.28 21.02
  Q 17.78 22.00 18.76 21.50
  L 19.06 21.35
  Q 19.93 20.90 19.58 19.99
  C 18.30 16.69 16.79 13.47 15.68 10.25
  Q 15.21 8.86 13.80 8.67
  A 2.02 2.01 -75.4 0 0 11.66 9.93
  L 7.62 20.13
  Q 7.23 21.11 8.23 21.44
  L 8.68 21.59
  A 1.09 1.09 0.0 0 0 10.09 20.78
  L 10.31 19.71
  Q 10.43 19.11 11.04 19.11
  L 16.15 19.12
  A 0.76 0.76 0.0 0 1 16.90 19.78
  Z
  M 23.50 9.71
  A 1.00 1.00 0.0 0 0 22.50 8.71
  L 22.24 8.71
  A 1.00 1.00 0.0 0 0 21.24 9.71
  L 21.24 20.65
  A 1.00 1.00 0.0 0 0 22.24 21.65
  L 22.50 21.65
  A 1.00 1.00 0.0 0 0 23.50 20.65
  L 23.50 9.71
  Z" fill="#23262f"></path>
<path d="M 16.15 19.12
  L 11.04 19.11
  Q 10.43 19.11 10.31 19.71
  L 10.09 20.78
  A 1.09 1.09 0.0 0 1 8.68 21.59
  L 8.23 21.44
  Q 7.23 21.11 7.62 20.13
  L 11.66 9.93
  A 2.02 2.01 -75.4 0 1 13.80 8.67
  Q 15.21 8.86 15.68 10.25
  C 16.79 13.47 18.30 16.69 19.58 19.99
  Q 19.93 20.90 19.06 21.35
  L 18.76 21.50
  Q 17.78 22.00 17.28 21.02
  Q 16.98 20.45 16.90 19.78
  A 0.76 0.76 0.0 0 0 16.15 19.12
  Z
  M 11.37 16.68
  A 0.31 0.31 0.0 0 0 11.66 17.11
  L 15.45 17.14
  A 0.31 0.31 0.0 0 0 15.74 16.72
  L 13.89 11.85
  A 0.31 0.31 0.0 0 0 13.31 11.84
  L 11.37 16.68
  Z" fill="#ffffff"></path>
<rect rx="1.00" height="12.94" width="2.26" y="8.71" x="21.24" fill="#ffffff"></rect>
<path d="M 11.37 16.68
  L 13.31 11.84
  A 0.31 0.31 0.0 0 1 13.89 11.85
  L 15.74 16.72
  A 0.31 0.31 0.0 0 1 15.45 17.14
  L 11.66 17.11
  A 0.31 0.31 0.0 0 1 11.37 16.68
  Z" fill="#23262f"></path>
</svg>
