<svg viewBox="0.00 0.00 192.00 192.00" version="1.1" xmlns="http://www.w3.org/2000/svg">
<g stroke-linecap="butt" fill="none" stroke-width="2.00">
<path d="M 81.23 81.55
  L 81.26 44.57
  A 0.27 0.26 0.0 0 0 80.99 44.31
  L 68.00 44.32
  A 0.39 0.39 0.0 0 0 67.61 44.72
  Q 67.69 73.51 67.59 102.04
  Q 67.54 114.45 68.99 119.83
  C 79.26 157.86 133.63 156.54 143.08 118.68
  C 148.92 95.26 131.95 70.86 106.78 71.25
  C 97.43 71.39 88.75 75.23 82.38 82.01
  Q 81.23 83.24 81.23 81.55" stroke="#929292"></path>
<path d="M 66.67 138.48
  A 9.35 9.35 0.0 0 0 57.32 129.13
  A 9.35 9.35 0.0 0 0 47.97 138.48
  A 9.35 9.35 0.0 0 0 57.32 147.83
  A 9.35 9.35 0.0 0 0 66.67 138.48" stroke="#8080ff"></path>
<path d="M 129.59 109.55
  A 23.73 23.73 0.0 0 0 105.86 85.82
  A 23.73 23.73 0.0 0 0 82.13 109.55
  A 23.73 23.73 0.0 0 0 105.86 133.28
  A 23.73 23.73 0.0 0 0 129.59 109.55" stroke="#929292"></path>
</g>
<path d="M 0.00 0.00
  L 192.00 0.00
  L 192.00 192.00
  L 0.00 192.00
  L 0.00 0.00
  Z
  M 81.23 81.55
  L 81.26 44.57
  A 0.27 0.26 0.0 0 0 80.99 44.31
  L 68.00 44.32
  A 0.39 0.39 0.0 0 0 67.61 44.72
  Q 67.69 73.51 67.59 102.04
  Q 67.54 114.45 68.99 119.83
  C 79.26 157.86 133.63 156.54 143.08 118.68
  C 148.92 95.26 131.95 70.86 106.78 71.25
  C 97.43 71.39 88.75 75.23 82.38 82.01
  Q 81.23 83.24 81.23 81.55
  Z
  M 66.67 138.48
  A 9.35 9.35 0.0 0 0 57.32 129.13
  A 9.35 9.35 0.0 0 0 47.97 138.48
  A 9.35 9.35 0.0 0 0 57.32 147.83
  A 9.35 9.35 0.0 0 0 66.67 138.48
  Z" fill="#ffffff"></path>
<path d="M 81.23 81.55
  Q 81.23 83.24 82.38 82.01
  C 88.75 75.23 97.43 71.39 106.78 71.25
  C 131.95 70.86 148.92 95.26 143.08 118.68
  C 133.63 156.54 79.26 157.86 68.99 119.83
  Q 67.54 114.45 67.59 102.04
  Q 67.69 73.51 67.61 44.72
  A 0.39 0.39 0.0 0 1 68.00 44.32
  L 80.99 44.31
  A 0.27 0.26 0.0 0 1 81.26 44.57
  L 81.23 81.55
  Z
  M 129.59 109.55
  A 23.73 23.73 0.0 0 0 105.86 85.82
  A 23.73 23.73 0.0 0 0 82.13 109.55
  A 23.73 23.73 0.0 0 0 105.86 133.28
  A 23.73 23.73 0.0 0 0 129.59 109.55
  Z" fill="#252525"></path>
<circle r="23.73" cy="109.55" cx="105.86" fill="#ffffff"></circle>
<circle r="9.35" cy="138.48" cx="57.32" fill="#0101ff"></circle>
</svg>
