<svg viewBox="0.00 0.00 192.00 192.00" version="1.1" xmlns="http://www.w3.org/2000/svg">
<g stroke-linecap="butt" fill="none" stroke-width="2.00">
<path d="M 121.81 61.24
  Q 119.24 66.00 118.51 71.13" stroke="#c5c5c7"></path>
<path d="M 118.51 71.13
  L 117.55 78.70" stroke="#b9babc"></path>
<path d="M 117.55 78.70
  L 117.06 89.26" stroke="#b3b3b5"></path>
<path d="M 117.06 89.26
  L 117.35 115.49" stroke="#a9a9ab"></path>
<path d="M 117.35 115.49
  L 119.62 126.65
  Q 119.75 127.26 120.37 127.26
  Q 145.47 127.26 170.75 127.26
  Q 171.16 127.26 172.55 126.67" stroke="#9e9e9f"></path>
<path d="M 172.55 126.67
  L 172.84 126.60
  Q 173.20 126.52 173.27 126.15
  C 173.97 122.09 175.16 118.02 175.35 114.10
  Q 175.51 110.78 175.44 107.46" stroke="#cecfd0"></path>
<path d="M 175.44 107.46
  L 175.58 99.79" stroke="#a9a9ab"></path>
<path d="M 175.58 99.79
  L 175.70 84.59" stroke="#b3b3b5"></path>
<path d="M 175.70 84.59
  L 175.07 73.49" stroke="#b9babc"></path>
<path d="M 175.07 73.49
  Q 174.43 68.08 172.26 63.21" stroke="#c5c5c7"></path>
<path d="M 172.26 63.21
  Q 167.49 53.86 156.92 52.02
  C 145.84 50.08 128.40 49.84 121.81 61.24" stroke="#cecfd0"></path>
<path d="M 172.26 63.21
  Q 169.86 62.44 169.05 60.29
  Q 168.89 59.86 168.46 59.71
  Q 167.64 59.42 166.92 59.77
  Q 166.44 60.00 165.92 59.88
  Q 161.65 58.95 157.34 59.40
  Q 155.47 59.60 153.69 59.43
  Q 151.86 59.26 150.00 59.30
  Q 139.84 59.52 129.68 59.81
  C 128.10 59.86 126.79 60.52 125.36 61.10
  Q 124.89 61.29 124.40 61.14
  Q 123.25 60.79 121.81 61.24" stroke="#949498"></path>
<path d="M 175.07 73.49
  Q 174.20 72.35 173.76 70.96
  A 1.08 1.06 -86.2 0 0 173.21 70.32
  C 170.72 69.07 168.43 70.26 166.57 70.28
  C 162.40 70.33 157.21 70.87 153.20 69.88
  Q 152.75 69.77 152.42 69.45
  Q 151.92 68.97 151.32 68.87
  Q 150.89 68.79 150.87 69.22
  Q 150.86 69.52 150.76 69.77" stroke="#7f7f84"></path>
<path d="M 150.76 69.77
  L 150.27 69.54" stroke="#c5c5c7"></path>
<path d="M 150.27 69.54
  L 149.84 69.12
  Q 149.49 68.77 148.99 68.71
  C 144.66 68.16 142.24 68.74 140.41 72.94" stroke="#949498"></path>
<path d="M 140.41 72.94
  L 141.29 70.32
  A 1.10 1.10 0.0 0 0 140.14 68.88
  L 136.90 69.19
  Q 136.50 69.23 136.30 69.58
  Q 135.87 70.32 135.25 70.30
  Q 131.56 70.21 127.90 70.63
  C 124.81 70.99 122.23 69.36 118.51 71.13" stroke="#7f7f84"></path>
<path d="M 140.41 72.94
  L 139.45 76.74" stroke="#88898d"></path>
<path d="M 139.45 76.74
  Q 139.41 76.48 139.30 76.26
  Q 139.03 75.71 138.74 76.26
  Q 138.54 76.65 138.44 77.07
  Q 138.31 77.60 138.10 77.81
  Q 137.59 78.29 137.06 77.98
  Q 136.65 77.74 136.17 77.75
  Q 130.72 77.96 125.24 78.05
  Q 123.38 78.08 122.14 77.76
  Q 121.64 77.64 121.15 77.78
  Q 120.47 77.99 119.71 77.82
  Q 119.24 77.71 118.79 77.87
  Q 118.05 78.13 117.55 78.70" stroke="#6d6e71"></path>
<path d="M 150.27 69.54
  C 142.05 67.20 141.35 75.32 140.95 82.00
  Q 139.84 100.73 140.69 119.96" stroke="#cecfd0"></path>
<path d="M 140.69 119.96
  Q 139.21 116.86 139.30 113.73" stroke="#6d6d70"></path>
<path d="M 139.30 113.73
  L 139.06 102.21" stroke="#78797c"></path>
<path d="M 139.06 102.21
  L 139.45 76.74" stroke="#828386"></path>
<path d="M 175.70 84.59
  Q 168.40 82.17 159.75 82.59
  Q 159.28 82.61 159.00 82.95
  Q 158.70 83.31 158.27 83.12
  Q 155.79 82.03 152.86 82.93" stroke="#6d6e71"></path>
<path d="M 152.86 82.93
  C 152.80 78.84 152.72 73.51 150.76 69.77" stroke="#b9babc"></path>
<path d="M 152.86 82.93
  L 152.89 96.02" stroke="#b3b3b5"></path>
<path d="M 152.89 96.02
  L 152.10 114.78" stroke="#a9a9ab"></path>
<path d="M 152.10 114.78
  C 151.77 117.57 151.31 120.54 148.62 122.01
  Q 143.82 124.65 140.69 119.96" stroke="#9e9e9f"></path>
<path d="M 139.06 102.21
  L 138.95 89.29
  Q 138.95 88.80 138.53 88.53
  Q 137.39 87.81 136.54 88.74
  A 1.15 1.14 -68.6 0 1 135.70 89.11
  L 117.06 89.26" stroke="#5d5d60"></path>
<path d="M 139.30 113.73
  Q 131.58 114.55 124.00 114.46
  Q 122.74 114.45 121.49 114.19
  Q 120.11 113.91 119.56 114.93
  Q 119.37 115.28 119.07 115.02
  Q 118.12 114.19 117.35 115.49" stroke="#48484a"></path>
<path d="M 175.58 99.79
  Q 173.73 98.26 171.58 98.87
  Q 171.09 99.01 170.59 98.90
  C 166.04 97.91 161.94 98.35 157.97 97.90
  Q 157.57 97.85 157.18 97.95
  Q 156.23 98.17 155.61 97.13
  Q 154.74 95.67 152.89 96.02" stroke="#5d5d60"></path>
<path d="M 175.44 107.46
  L 174.33 114.27" stroke="#78797c"></path>
<path d="M 174.33 114.27
  Q 174.68 112.13 173.07 111.38
  Q 172.62 111.17 172.13 111.30
  Q 170.75 111.67 167.50 111.82
  Q 161.21 112.09 154.93 112.12
  Q 154.43 112.12 154.05 111.80
  Q 153.80 111.57 153.48 111.64
  Q 152.97 111.75 152.93 112.27
  Q 152.82 113.73 152.10 114.78" stroke="#48484a"></path>
<path d="M 172.55 126.67
  L 174.33 114.27" stroke="#6d6d70"></path>
<path d="M 19.56 61.55
  Q 16.83 68.46 17.11 75.47" stroke="#c5c5c7"></path>
<path d="M 17.11 75.47
  Q 16.78 79.15 17.65 82.80" stroke="#b9babc"></path>
<path d="M 17.65 82.80
  Q 18.52 87.06 20.40 89.95" stroke="#b3b3b5"></path>
<path d="M 20.40 89.95
  C 25.98 98.04 34.17 101.87 41.56 107.52" stroke="#a9a9ab"></path>
<path d="M 41.56 107.52
  Q 46.06 113.08 44.12 120.25
  Q 42.79 125.19 38.86 122.04" stroke="#9e9e9f"></path>
<path d="M 38.86 122.04
  Q 38.80 116.51 38.51 111.51
  C 38.47 110.68 38.09 110.34 37.63 109.72" stroke="#cecfd0"></path>
<path d="M 37.63 109.72
  L 16.20 109.42
  Q 15.61 109.41 15.58 110.00
  Q 15.09 118.58 17.65 126.76
  Q 17.81 127.27 18.35 127.27
  L 65.52 127.22" stroke="#9e9e9f"></path>
<path d="M 65.52 127.22
  Q 67.34 127.08 67.39 125.75
  C 67.73 118.02 69.28 111.45 64.69 104.72" stroke="#cecfd0"></path>
<path d="M 64.69 104.72
  C 60.22 97.74 54.60 93.81 47.33 89.41" stroke="#a9a9ab"></path>
<path d="M 47.33 89.41
  Q 43.35 86.96 40.70 83.52" stroke="#b3b3b5"></path>
<path d="M 40.70 83.52
  Q 40.52 82.66 40.23 82.29" stroke="#b9babc"></path>
<path d="M 40.23 82.29
  Q 38.84 76.40 41.04 70.90
  Q 41.24 70.38 41.80 70.38
  L 44.31 70.38
  Q 44.91 70.38 44.98 70.97
  L 45.65 76.05" stroke="#c5c5c7"></path>
<path d="M 45.65 76.05
  L 45.78 82.31" stroke="#b9babc"></path>
<path d="M 45.78 82.31
  Q 57.24 83.84 67.91 83.27
  Q 68.89 83.22 68.91 82.25
  Q 69.18 71.81 64.84 63.74" stroke="#cecfd0"></path>
<path d="M 64.84 63.74
  Q 64.14 63.39 63.47 62.09" stroke="#c5c5c7"></path>
<path d="M 63.47 62.09
  C 56.04 50.92 41.46 50.40 29.78 53.63
  Q 22.57 55.62 19.56 61.55" stroke="#cecfd0"></path>
<path d="M 63.47 62.09
  Q 61.93 61.70 60.77 60.59
  Q 60.46 60.29 60.37 60.72
  Q 60.34 60.92 60.44 61.10
  Q 60.81 61.72 60.09 61.67
  Q 59.84 61.65 59.61 61.57
  Q 59.38 61.50 59.14 61.23
  Q 58.08 60.05 56.83 60.72
  Q 56.45 60.92 56.03 60.93
  L 19.56 61.55" stroke="#949498"></path>
<path d="M 64.84 63.74
  Q 64.87 66.34 66.02 68.80
  C 67.19 71.31 67.20 73.18 67.29 75.73" stroke="#949498"></path>
<path d="M 67.29 75.73
  Q 67.02 75.07 67.10 74.27
  Q 67.13 73.94 67.02 73.76
  Q 66.76 73.35 66.28 73.47
  Q 66.05 73.53 66.13 73.75
  Q 66.23 74.04 65.71 73.75
  Q 65.40 73.57 65.14 73.32
  L 64.74 72.91
  Q 64.53 72.70 64.27 72.84
  Q 63.84 73.05 62.99 73.07
  Q 53.91 73.28 50.08 73.10
  C 49.27 73.06 48.03 73.32 47.14 72.69
  A 0.97 0.96 17.3 0 0 45.61 73.49
  L 45.65 76.05" stroke="#7f7f84"></path>
<path d="M 40.23 82.29
  C 37.19 80.36 38.23 75.66 38.46 71.78
  A 0.40 0.40 0.0 0 1 38.66 71.45
  Q 39.11 71.19 38.85 70.48
  Q 38.70 70.08 38.28 70.07
  Q 37.17 70.05 36.45 71.00
  Q 36.11 71.44 35.57 71.32
  Q 34.00 70.95 32.48 71.26
  C 29.77 71.82 27.62 71.55 25.05 71.70
  Q 24.24 71.75 21.56 71.36
  Q 19.72 71.10 17.96 71.92
  Q 17.48 72.14 17.42 72.66
  L 17.11 75.47" stroke="#7f7f84"></path>
<path d="M 40.70 83.52
  L 38.94 81.83
  Q 38.33 81.25 38.10 82.06
  Q 37.90 82.76 37.03 83.13
  Q 36.65 83.29 36.35 83.01
  Q 36.13 82.80 36.07 82.50
  Q 35.96 81.95 35.40 81.87
  Q 34.59 81.76 34.13 82.36
  Q 33.80 82.78 33.27 82.76
  Q 27.93 82.52 22.58 82.64
  C 21.49 82.66 20.09 83.20 18.87 82.39
  Q 17.82 81.70 17.65 82.80" stroke="#6d6e71"></path>
<path d="M 45.78 82.31
  L 67.12 81.73
  Q 67.64 81.71 67.61 81.19
  L 67.29 75.73" stroke="#88898d"></path>
<path d="M 47.33 89.41
  Q 46.61 89.54 45.92 89.33
  Q 45.49 89.20 45.23 88.84
  Q 44.81 88.28 44.07 88.35
  Q 43.68 88.39 43.48 88.73
  Q 42.86 89.74 41.64 89.63
  A 1.21 1.18 -21.6 0 1 41.02 89.37
  Q 40.38 88.84 39.87 89.48
  Q 39.55 89.90 39.02 89.90
  L 20.40 89.95" stroke="#5d5d60"></path>
<path d="M 64.69 104.72
  Q 64.56 106.38 65.70 108.44" stroke="#78797c"></path>
<path d="M 65.70 108.44
  Q 57.28 107.89 49.25 108.13
  Q 47.23 108.20 46.81 109.39
  Q 46.42 110.49 46.24 109.75
  L 46.15 109.38
  Q 46.03 108.90 45.55 108.75
  L 41.56 107.52" stroke="#48484a"></path>
<path d="M 65.52 127.22
  Q 67.34 117.72 65.70 108.44" stroke="#6d6d70"></path>
<path d="M 37.63 109.72
  Q 36.53 116.82 38.86 122.04" stroke="#6d6d70"></path>
<path d="M 72.31 62.66
  L 72.29 76.15" stroke="#c5c5c7"></path>
<path d="M 72.29 76.15
  L 72.03 95.48" stroke="#b3b3b5"></path>
<path d="M 72.03 95.48
  L 71.87 107.48" stroke="#a9a9ab"></path>
<path d="M 71.87 107.48
  L 71.74 126.74
  Q 71.74 127.26 72.26 127.26
  Q 92.84 127.29 113.34 127.26
  Q 113.82 127.26 114.08 127.04
  Q 114.56 126.62 114.14 126.09" stroke="#9e9e9f"></path>
<path d="M 114.14 126.09
  Q 114.87 123.40 114.05 121.20" stroke="#cecfd0"></path>
<path d="M 114.05 121.20
  Q 113.70 119.65 112.76 119.67
  Q 102.80 119.90 92.86 119.59
  Q 92.35 119.57 92.36 119.06
  L 92.48 108.02" stroke="#9e9e9f"></path>
<path d="M 92.48 108.02
  L 92.34 103.04
  Q 92.33 102.54 92.83 102.56
  L 95.80 102.66" stroke="#a9a9ab"></path>
<path d="M 95.80 102.66
  L 107.69 103.57
  A 1.08 1.08 0.0 0 0 108.86 102.43
  Q 108.50 96.16 109.00 89.50
  Q 109.17 87.24 107.55 86.41" stroke="#cecfd0"></path>
<path d="M 107.55 86.41
  L 103.46 86.14" stroke="#b3b3b5"></path>
<path d="M 103.46 86.14
  L 94.16 86.02
  Q 93.63 86.01 93.63 85.48
  L 93.63 72.93
  A 1.41 1.41 0.0 0 1 95.07 71.52
  L 114.63 71.89
  Q 115.41 71.90 115.42 71.12
  L 115.77 56.28
  A 2.49 2.48 0.7 0 0 113.28 53.74
  L 73.16 53.77
  A 0.72 0.71 0.4 0 0 72.44 54.47
  L 72.31 62.66" stroke="#cecfd0"></path>
<path d="M 103.46 86.14
  Q 96.24 86.13 94.25 86.28
  Q 92.23 86.44 92.11 84.73" stroke="#828386"></path>
<path d="M 92.11 84.73
  L 92.33 72.32
  A 1.53 1.53 0.0 0 1 93.76 70.83
  Q 103.58 70.25 113.39 71.09
  Q 113.93 71.14 114.12 70.64
  Q 114.73 69.08 114.61 67.36
  Q 114.58 66.97 114.30 66.68
  Q 113.72 66.09 113.90 65.19
  A 0.61 0.47 -52.0 0 0 113.90 64.98
  L 113.29 61.57
  A 1.76 1.76 0.0 0 0 111.44 60.11
  Q 97.88 60.92 84.05 60.43
  C 81.57 60.34 79.42 61.19 76.83 61.17
  Q 76.38 61.16 76.00 60.92
  Q 74.32 59.85 72.31 62.66" stroke="#949498"></path>
<path d="M 107.55 86.41
  L 107.20 101.97" stroke="#828386"></path>
<path d="M 107.20 101.97
  Q 107.51 98.06 106.67 94.71
  A 0.69 0.68 -7.4 0 0 105.99 94.19
  Q 101.16 94.32 96.33 94.18
  C 93.07 94.09 88.77 94.68 84.89 94.12
  Q 84.39 94.05 83.92 94.22
  Q 82.96 94.56 82.13 94.23
  Q 80.45 93.57 78.89 93.98
  Q 78.43 94.10 78.00 93.89
  C 76.24 93.02 75.27 94.59 73.40 93.96
  Q 72.91 93.79 72.58 94.20
  Q 72.18 94.70 72.03 95.48" stroke="#5d5d60"></path>
<path d="M 92.11 84.73
  L 91.56 74.89
  Q 91.54 74.39 91.05 74.35
  Q 89.50 74.23 88.25 75.07
  A 1.53 1.49 -62.0 0 1 87.44 75.33
  C 84.63 75.37 80.61 74.89 77.98 75.53
  Q 77.35 75.68 76.99 75.20
  Q 76.74 74.86 76.31 74.85
  Q 73.12 74.78 72.29 76.15" stroke="#78797d"></path>
<path d="M 92.48 108.02
  L 71.87 107.48" stroke="#48484a"></path>
<path d="M 95.80 102.66
  L 107.20 101.97" stroke="#78797c"></path>
<path d="M 114.05 121.20
  Q 112.97 123.84 114.14 126.09" stroke="#6d6d70"></path>
<path d="M 27.13 138.00
  L 25.79 130.57
  Q 25.68 129.96 25.06 129.89
  L 23.96 129.78
  A 0.44 0.43 88.0 0 0 23.49 130.29
  L 25.51 141.63
  Q 25.62 142.20 26.20 142.21
  L 28.61 142.23
  Q 29.02 142.24 29.09 141.84
  L 31.17 130.69
  A 0.77 0.76 6.5 0 0 30.45 129.79
  L 29.94 129.76
  A 0.95 0.94 -84.5 0 0 28.98 130.56
  L 27.88 137.99
  Q 27.54 140.27 27.13 138.00" stroke="#b9babc"></path>
<path d="M 51.49 139.83
  Q 51.36 138.52 51.65 137.25
  A 0.61 0.60 6.1 0 1 52.23 136.79
  L 54.51 136.73
  A 0.49 0.48 -1.8 0 0 54.98 136.24
  L 54.98 135.72
  Q 54.97 135.22 54.48 135.20
  L 52.27 135.08
  A 0.81 0.81 0.0 0 1 51.50 134.27
  L 51.49 132.45
  Q 51.49 131.64 52.30 131.63
  L 54.85 131.59
  A 0.85 0.85 0.0 0 0 55.68 130.65
  L 55.65 130.30
  A 0.44 0.44 0.0 0 0 55.21 129.90
  L 49.97 129.83
  Q 49.27 129.82 49.27 130.52
  L 49.30 141.51
  Q 49.30 142.22 50.01 142.22
  L 54.94 142.18
  A 0.76 0.75 -1.8 0 0 55.69 141.39
  L 55.67 140.97
  A 0.46 0.46 0.0 0 0 55.22 140.54
  L 52.13 140.43
  Q 51.55 140.41 51.49 139.83" stroke="#b3b3b5"></path>
<path d="M 81.53 136.27
  L 79.85 130.53
  Q 79.69 129.97 79.12 129.86
  Q 78.20 129.68 77.28 129.82
  Q 76.70 129.91 76.71 130.50
  L 76.77 141.73
  A 0.50 0.50 0.0 0 0 77.23 142.23
  L 77.65 142.26
  A 0.97 0.95 3.7 0 0 78.70 141.35
  Q 78.85 137.80 78.58 134.25
  Q 78.56 134.11 78.62 134.07
  Q 78.72 133.98 78.81 133.90
  A 0.07 0.07 0.0 0 1 78.92 133.93
  Q 80.27 137.53 81.38 141.23
  Q 81.79 142.60 83.34 142.20
  Q 83.87 142.06 83.87 141.52
  L 83.98 130.69
  Q 83.99 129.63 82.94 129.73
  L 82.45 129.78
  A 0.52 0.51 87.6 0 0 81.98 130.30
  L 81.99 136.21
  A 0.24 0.23 37.1 0 1 81.53 136.27" stroke="#b3b3b5"></path>
<path d="M 140.25 132.39
  A 2.62 2.62 0.0 0 0 137.63 129.77
  L 136.11 129.77
  A 2.62 2.62 0.0 0 0 133.49 132.39
  L 133.49 139.61
  A 2.62 2.62 0.0 0 0 136.11 142.23
  L 137.63 142.23
  A 2.62 2.62 0.0 0 0 140.25 139.61
  L 140.25 132.39" stroke="#b3b3b5"></path>
<path d="M 165.46 137.28
  A 1.23 1.23 0.0 0 1 166.21 138.41
  Q 166.22 139.64 166.31 141.08
  Q 166.35 141.70 166.67 142.00
  Q 167.11 142.41 167.68 142.24
  Q 168.17 142.09 168.23 141.59
  Q 168.56 138.99 167.58 136.60
  Q 167.39 136.15 167.61 135.71
  Q 168.38 134.15 168.26 132.45
  Q 168.09 130.13 165.77 129.97
  L 163.73 129.82
  Q 161.64 129.67 161.65 131.77
  L 161.69 141.47
  A 0.78 0.78 0.0 0 0 162.47 142.25
  L 162.99 142.25
  Q 163.72 142.25 163.74 141.51
  L 163.81 137.81
  Q 163.84 136.57 164.97 137.06
  L 165.46 137.28" stroke="#b3b3b5"></path>
<path d="M 107.04 142.23
  L 110.53 142.00
  A 1.79 1.78 -1.9 0 0 112.20 140.22
  L 112.22 131.78
  A 1.73 1.72 1.2 0 0 110.56 130.06
  L 106.81 129.92
  Q 105.48 129.87 105.48 131.20
  L 105.50 140.78
  Q 105.50 142.33 107.04 142.23" stroke="#a9a9ab"></path>
<path d="M 138.1419 132.4010
  A 0.95 0.95 0.0 0 0 137.2002 131.4428
  L 136.6002 131.4376
  A 0.95 0.95 0.0 0 0 135.6420 132.3792
  L 135.5781 139.6990
  A 0.95 0.95 0.0 0 0 136.5198 140.6572
  L 137.1198 140.6624
  A 0.95 0.95 0.0 0 0 138.0780 139.7208
  L 138.1419 132.4010" stroke="#b3b3b5"></path>
<path d="M 166.1712 132.4693
  A 1.01 1.01 0.0 0 0 165.1525 131.4682
  L 164.7125 131.4720
  A 1.01 1.01 0.0 0 0 163.7113 132.4908
  L 163.7288 134.4907
  A 1.01 1.01 0.0 0 0 164.7475 135.4918
  L 165.1875 135.4880
  A 1.01 1.01 0.0 0 0 166.1887 134.4692
  L 166.1712 132.4693" stroke="#b3b3b5"></path>
<path d="M 110.2290 132.4072
  A 0.91 0.91 0.0 0 0 109.3238 131.4924
  L 108.4238 131.4877
  A 0.91 0.91 0.0 0 0 107.5091 132.3929
  L 107.4710 139.6728
  A 0.91 0.91 0.0 0 0 108.3762 140.5876
  L 109.2762 140.5923
  A 0.91 0.91 0.0 0 0 110.1909 139.6871
  L 110.2290 132.4072" stroke="#a9a9ab"></path>
</g>
<path d="M 0.00 0.00
  L 192.00 0.00
  L 192.00 192.00
  L 0.00 192.00
  L 0.00 0.00
  Z
  M 121.81 61.24
  Q 119.24 66.00 118.51 71.13
  L 117.55 78.70
  L 117.06 89.26
  L 117.35 115.49
  L 119.62 126.65
  Q 119.75 127.26 120.37 127.26
  Q 145.47 127.26 170.75 127.26
  Q 171.16 127.26 172.55 126.67
  L 172.84 126.60
  Q 173.20 126.52 173.27 126.15
  C 173.97 122.09 175.16 118.02 175.35 114.10
  Q 175.51 110.78 175.44 107.46
  L 175.58 99.79
  L 175.70 84.59
  L 175.07 73.49
  Q 174.43 68.08 172.26 63.21
  Q 167.49 53.86 156.92 52.02
  C 145.84 50.08 128.40 49.84 121.81 61.24
  Z
  M 19.56 61.55
  Q 16.83 68.46 17.11 75.47
  Q 16.78 79.15 17.65 82.80
  Q 18.52 87.06 20.40 89.95
  C 25.98 98.04 34.17 101.87 41.56 107.52
  Q 46.06 113.08 44.12 120.25
  Q 42.79 125.19 38.86 122.04
  Q 38.80 116.51 38.51 111.51
  C 38.47 110.68 38.09 110.34 37.63 109.72
  L 16.20 109.42
  Q 15.61 109.41 15.58 110.00
  Q 15.09 118.58 17.65 126.76
  Q 17.81 127.27 18.35 127.27
  L 65.52 127.22
  Q 67.34 127.08 67.39 125.75
  C 67.73 118.02 69.28 111.45 64.69 104.72
  C 60.22 97.74 54.60 93.81 47.33 89.41
  Q 43.35 86.96 40.70 83.52
  Q 40.52 82.66 40.23 82.29
  Q 38.84 76.40 41.04 70.90
  Q 41.24 70.38 41.80 70.38
  L 44.31 70.38
  Q 44.91 70.38 44.98 70.97
  L 45.65 76.05
  L 45.78 82.31
  Q 57.24 83.84 67.91 83.27
  Q 68.89 83.22 68.91 82.25
  Q 69.18 71.81 64.84 63.74
  Q 64.14 63.39 63.47 62.09
  C 56.04 50.92 41.46 50.40 29.78 53.63
  Q 22.57 55.62 19.56 61.55
  Z
  M 72.31 62.66
  L 72.29 76.15
  L 72.03 95.48
  L 71.87 107.48
  L 71.74 126.74
  Q 71.74 127.26 72.26 127.26
  Q 92.84 127.29 113.34 127.26
  Q 113.82 127.26 114.08 127.04
  Q 114.56 126.62 114.14 126.09
  Q 114.87 123.40 114.05 121.20
  Q 113.70 119.65 112.76 119.67
  Q 102.80 119.90 92.86 119.59
  Q 92.35 119.57 92.36 119.06
  L 92.48 108.02
  L 92.34 103.04
  Q 92.33 102.54 92.83 102.56
  L 95.80 102.66
  L 107.69 103.57
  A 1.08 1.08 0.0 0 0 108.86 102.43
  Q 108.50 96.16 109.00 89.50
  Q 109.17 87.24 107.55 86.41
  L 103.46 86.14
  L 94.16 86.02
  Q 93.63 86.01 93.63 85.48
  L 93.63 72.93
  A 1.41 1.41 0.0 0 1 95.07 71.52
  L 114.63 71.89
  Q 115.41 71.90 115.42 71.12
  L 115.77 56.28
  A 2.49 2.48 0.7 0 0 113.28 53.74
  L 73.16 53.77
  A 0.72 0.71 0.4 0 0 72.44 54.47
  L 72.31 62.66
  Z
  M 27.13 138.00
  L 25.79 130.57
  Q 25.68 129.96 25.06 129.89
  L 23.96 129.78
  A 0.44 0.43 88.0 0 0 23.49 130.29
  L 25.51 141.63
  Q 25.62 142.20 26.20 142.21
  L 28.61 142.23
  Q 29.02 142.24 29.09 141.84
  L 31.17 130.69
  A 0.77 0.76 6.5 0 0 30.45 129.79
  L 29.94 129.76
  A 0.95 0.94 -84.5 0 0 28.98 130.56
  L 27.88 137.99
  Q 27.54 140.27 27.13 138.00
  Z
  M 51.49 139.83
  Q 51.36 138.52 51.65 137.25
  A 0.61 0.60 6.1 0 1 52.23 136.79
  L 54.51 136.73
  A 0.49 0.48 -1.8 0 0 54.98 136.24
  L 54.98 135.72
  Q 54.97 135.22 54.48 135.20
  L 52.27 135.08
  A 0.81 0.81 0.0 0 1 51.50 134.27
  L 51.49 132.45
  Q 51.49 131.64 52.30 131.63
  L 54.85 131.59
  A 0.85 0.85 0.0 0 0 55.68 130.65
  L 55.65 130.30
  A 0.44 0.44 0.0 0 0 55.21 129.90
  L 49.97 129.83
  Q 49.27 129.82 49.27 130.52
  L 49.30 141.51
  Q 49.30 142.22 50.01 142.22
  L 54.94 142.18
  A 0.76 0.75 -1.8 0 0 55.69 141.39
  L 55.67 140.97
  A 0.46 0.46 0.0 0 0 55.22 140.54
  L 52.13 140.43
  Q 51.55 140.41 51.49 139.83
  Z
  M 81.53 136.27
  L 79.85 130.53
  Q 79.69 129.97 79.12 129.86
  Q 78.20 129.68 77.28 129.82
  Q 76.70 129.91 76.71 130.50
  L 76.77 141.73
  A 0.50 0.50 0.0 0 0 77.23 142.23
  L 77.65 142.26
  A 0.97 0.95 3.7 0 0 78.70 141.35
  Q 78.85 137.80 78.58 134.25
  Q 78.56 134.11 78.62 134.07
  Q 78.72 133.98 78.81 133.90
  A 0.07 0.07 0.0 0 1 78.92 133.93
  Q 80.27 137.53 81.38 141.23
  Q 81.79 142.60 83.34 142.20
  Q 83.87 142.06 83.87 141.52
  L 83.98 130.69
  Q 83.99 129.63 82.94 129.73
  L 82.45 129.78
  A 0.52 0.51 87.6 0 0 81.98 130.30
  L 81.99 136.21
  A 0.24 0.23 37.1 0 1 81.53 136.27
  Z
  M 140.25 132.39
  A 2.62 2.62 0.0 0 0 137.63 129.77
  L 136.11 129.77
  A 2.62 2.62 0.0 0 0 133.49 132.39
  L 133.49 139.61
  A 2.62 2.62 0.0 0 0 136.11 142.23
  L 137.63 142.23
  A 2.62 2.62 0.0 0 0 140.25 139.61
  L 140.25 132.39
  Z
  M 165.46 137.28
  A 1.23 1.23 0.0 0 1 166.21 138.41
  Q 166.22 139.64 166.31 141.08
  Q 166.35 141.70 166.67 142.00
  Q 167.11 142.41 167.68 142.24
  Q 168.17 142.09 168.23 141.59
  Q 168.56 138.99 167.58 136.60
  Q 167.39 136.15 167.61 135.71
  Q 168.38 134.15 168.26 132.45
  Q 168.09 130.13 165.77 129.97
  L 163.73 129.82
  Q 161.64 129.67 161.65 131.77
  L 161.69 141.47
  A 0.78 0.78 0.0 0 0 162.47 142.25
  L 162.99 142.25
  Q 163.72 142.25 163.74 141.51
  L 163.81 137.81
  Q 163.84 136.57 164.97 137.06
  L 165.46 137.28
  Z
  M 107.04 142.23
  L 110.53 142.00
  A 1.79 1.78 -1.9 0 0 112.20 140.22
  L 112.22 131.78
  A 1.73 1.72 1.2 0 0 110.56 130.06
  L 106.81 129.92
  Q 105.48 129.87 105.48 131.20
  L 105.50 140.78
  Q 105.50 142.33 107.04 142.23
  Z" fill="#ffffff"></path>
<path d="M 172.26 63.21
  Q 169.86 62.44 169.05 60.29
  Q 168.89 59.86 168.46 59.71
  Q 167.64 59.42 166.92 59.77
  Q 166.44 60.00 165.92 59.88
  Q 161.65 58.95 157.34 59.40
  Q 155.47 59.60 153.69 59.43
  Q 151.86 59.26 150.00 59.30
  Q 139.84 59.52 129.68 59.81
  C 128.10 59.86 126.79 60.52 125.36 61.10
  Q 124.89 61.29 124.40 61.14
  Q 123.25 60.79 121.81 61.24
  C 128.40 49.84 145.84 50.08 156.92 52.02
  Q 167.49 53.86 172.26 63.21
  Z" fill="#9d9ea1"></path>
<path d="M 63.47 62.09
  Q 61.93 61.70 60.77 60.59
  Q 60.46 60.29 60.37 60.72
  Q 60.34 60.92 60.44 61.10
  Q 60.81 61.72 60.09 61.67
  Q 59.84 61.65 59.61 61.57
  Q 59.38 61.50 59.14 61.23
  Q 58.08 60.05 56.83 60.72
  Q 56.45 60.92 56.03 60.93
  L 19.56 61.55
  Q 22.57 55.62 29.78 53.63
  C 41.46 50.40 56.04 50.92 63.47 62.09
  Z" fill="#9d9ea1"></path>
<path d="M 103.46 86.14
  Q 96.24 86.13 94.25 86.28
  Q 92.23 86.44 92.11 84.73
  L 92.33 72.32
  A 1.53 1.53 0.0 0 1 93.76 70.83
  Q 103.58 70.25 113.39 71.09
  Q 113.93 71.14 114.12 70.64
  Q 114.73 69.08 114.61 67.36
  Q 114.58 66.97 114.30 66.68
  Q 113.72 66.09 113.90 65.19
  A 0.61 0.47 -52.0 0 0 113.90 64.98
  L 113.29 61.57
  A 1.76 1.76 0.0 0 0 111.44 60.11
  Q 97.88 60.92 84.05 60.43
  C 81.57 60.34 79.42 61.19 76.83 61.17
  Q 76.38 61.16 76.00 60.92
  Q 74.32 59.85 72.31 62.66
  L 72.44 54.47
  A 0.72 0.71 0.4 0 1 73.16 53.77
  L 113.28 53.74
  A 2.49 2.48 0.7 0 1 115.77 56.28
  L 115.42 71.12
  Q 115.41 71.90 114.63 71.89
  L 95.07 71.52
  A 1.41 1.41 0.0 0 0 93.63 72.93
  L 93.63 85.48
  Q 93.63 86.01 94.16 86.02
  L 103.46 86.14
  Z" fill="#9d9ea1"></path>
<path d="M 172.26 63.21
  Q 174.43 68.08 175.07 73.49
  Q 174.20 72.35 173.76 70.96
  A 1.08 1.06 -86.2 0 0 173.21 70.32
  C 170.72 69.07 168.43 70.26 166.57 70.28
  C 162.40 70.33 157.21 70.87 153.20 69.88
  Q 152.75 69.77 152.42 69.45
  Q 151.92 68.97 151.32 68.87
  Q 150.89 68.79 150.87 69.22
  Q 150.86 69.52 150.76 69.77
  L 150.27 69.54
  L 149.84 69.12
  Q 149.49 68.77 148.99 68.71
  C 144.66 68.16 142.24 68.74 140.41 72.94
  L 141.29 70.32
  A 1.10 1.10 0.0 0 0 140.14 68.88
  L 136.90 69.19
  Q 136.50 69.23 136.30 69.58
  Q 135.87 70.32 135.25 70.30
  Q 131.56 70.21 127.90 70.63
  C 124.81 70.99 122.23 69.36 118.51 71.13
  Q 119.24 66.00 121.81 61.24
  Q 123.25 60.79 124.40 61.14
  Q 124.89 61.29 125.36 61.10
  C 126.79 60.52 128.10 59.86 129.68 59.81
  Q 139.84 59.52 150.00 59.30
  Q 151.86 59.26 153.69 59.43
  Q 155.47 59.60 157.34 59.40
  Q 161.65 58.95 165.92 59.88
  Q 166.44 60.00 166.92 59.77
  Q 167.64 59.42 168.46 59.71
  Q 168.89 59.86 169.05 60.29
  Q 169.86 62.44 172.26 63.21
  Z" fill="#8a8a8f"></path>
<path d="M 92.11 84.73
  L 91.56 74.89
  Q 91.54 74.39 91.05 74.35
  Q 89.50 74.23 88.25 75.07
  A 1.53 1.49 -62.0 0 1 87.44 75.33
  C 84.63 75.37 80.61 74.89 77.98 75.53
  Q 77.35 75.68 76.99 75.20
  Q 76.74 74.86 76.31 74.85
  Q 73.12 74.78 72.29 76.15
  L 72.31 62.66
  Q 74.32 59.85 76.00 60.92
  Q 76.38 61.16 76.83 61.17
  C 79.42 61.19 81.57 60.34 84.05 60.43
  Q 97.88 60.92 111.44 60.11
  A 1.76 1.76 0.0 0 1 113.29 61.57
  L 113.90 64.98
  A 0.61 0.47 -52.0 0 1 113.90 65.19
  Q 113.72 66.09 114.30 66.68
  Q 114.58 66.97 114.61 67.36
  Q 114.73 69.08 114.12 70.64
  Q 113.93 71.14 113.39 71.09
  Q 103.58 70.25 93.76 70.83
  A 1.53 1.53 0.0 0 0 92.33 72.32
  L 92.11 84.73
  Z" fill="#8a8a8f"></path>
<path d="M 63.47 62.09
  Q 64.14 63.39 64.84 63.74
  Q 64.87 66.34 66.02 68.80
  C 67.19 71.31 67.20 73.18 67.29 75.73
  Q 67.02 75.07 67.10 74.27
  Q 67.13 73.94 67.02 73.76
  Q 66.76 73.35 66.28 73.47
  Q 66.05 73.53 66.13 73.75
  Q 66.23 74.04 65.71 73.75
  Q 65.40 73.57 65.14 73.32
  L 64.74 72.91
  Q 64.53 72.70 64.27 72.84
  Q 63.84 73.05 62.99 73.07
  Q 53.91 73.28 50.08 73.10
  C 49.27 73.06 48.03 73.32 47.14 72.69
  A 0.97 0.96 17.3 0 0 45.61 73.49
  L 45.65 76.05
  L 44.98 70.97
  Q 44.91 70.38 44.31 70.38
  L 41.80 70.38
  Q 41.24 70.38 41.04 70.90
  Q 38.84 76.40 40.23 82.29
  C 37.19 80.36 38.23 75.66 38.46 71.78
  A 0.40 0.40 0.0 0 1 38.66 71.45
  Q 39.11 71.19 38.85 70.48
  Q 38.70 70.08 38.28 70.07
  Q 37.17 70.05 36.45 71.00
  Q 36.11 71.44 35.57 71.32
  Q 34.00 70.95 32.48 71.26
  C 29.77 71.82 27.62 71.55 25.05 71.70
  Q 24.24 71.75 21.56 71.36
  Q 19.72 71.10 17.96 71.92
  Q 17.48 72.14 17.42 72.66
  L 17.11 75.47
  Q 16.83 68.46 19.56 61.55
  L 56.03 60.93
  Q 56.45 60.92 56.83 60.72
  Q 58.08 60.05 59.14 61.23
  Q 59.38 61.50 59.61 61.57
  Q 59.84 61.65 60.09 61.67
  Q 60.81 61.72 60.44 61.10
  Q 60.34 60.92 60.37 60.72
  Q 60.46 60.29 60.77 60.59
  Q 61.93 61.70 63.47 62.09
  Z" fill="#8a8a8f"></path>
<path d="M 64.84 63.74
  Q 69.18 71.81 68.91 82.25
  Q 68.89 83.22 67.91 83.27
  Q 57.24 83.84 45.78 82.31
  L 67.12 81.73
  Q 67.64 81.71 67.61 81.19
  L 67.29 75.73
  C 67.20 73.18 67.19 71.31 66.02 68.80
  Q 64.87 66.34 64.84 63.74
  Z" fill="#9d9ea1"></path>
<path d="M 140.41 72.94
  L 139.45 76.74
  Q 139.41 76.48 139.30 76.26
  Q 139.03 75.71 138.74 76.26
  Q 138.54 76.65 138.44 77.07
  Q 138.31 77.60 138.10 77.81
  Q 137.59 78.29 137.06 77.98
  Q 136.65 77.74 136.17 77.75
  Q 130.72 77.96 125.24 78.05
  Q 123.38 78.08 122.14 77.76
  Q 121.64 77.64 121.15 77.78
  Q 120.47 77.99 119.71 77.82
  Q 119.24 77.71 118.79 77.87
  Q 118.05 78.13 117.55 78.70
  L 118.51 71.13
  C 122.23 69.36 124.81 70.99 127.90 70.63
  Q 131.56 70.21 135.25 70.30
  Q 135.87 70.32 136.30 69.58
  Q 136.50 69.23 136.90 69.19
  L 140.14 68.88
  A 1.10 1.10 0.0 0 1 141.29 70.32
  L 140.41 72.94
  Z" fill="#737478"></path>
<path d="M 150.27 69.54
  C 142.05 67.20 141.35 75.32 140.95 82.00
  Q 139.84 100.73 140.69 119.96
  Q 139.21 116.86 139.30 113.73
  L 139.06 102.21
  L 139.45 76.74
  L 140.41 72.94
  C 142.24 68.74 144.66 68.16 148.99 68.71
  Q 149.49 68.77 149.84 69.12
  L 150.27 69.54
  Z" fill="#9d9ea1"></path>
<path d="M 175.07 73.49
  L 175.70 84.59
  Q 168.40 82.17 159.75 82.59
  Q 159.28 82.61 159.00 82.95
  Q 158.70 83.31 158.27 83.12
  Q 155.79 82.03 152.86 82.93
  C 152.80 78.84 152.72 73.51 150.76 69.77
  Q 150.86 69.52 150.87 69.22
  Q 150.89 68.79 151.32 68.87
  Q 151.92 68.97 152.42 69.45
  Q 152.75 69.77 153.20 69.88
  C 157.21 70.87 162.40 70.33 166.57 70.28
  C 168.43 70.26 170.72 69.07 173.21 70.32
  A 1.08 1.06 -86.2 0 1 173.76 70.96
  Q 174.20 72.35 175.07 73.49
  Z" fill="#737478"></path>
<path d="M 150.27 69.54
  L 150.76 69.77
  C 152.72 73.51 152.80 78.84 152.86 82.93
  L 152.89 96.02
  L 152.10 114.78
  C 151.77 117.57 151.31 120.54 148.62 122.01
  Q 143.82 124.65 140.69 119.96
  Q 139.84 100.73 140.95 82.00
  C 141.35 75.32 142.05 67.20 150.27 69.54
  Z" fill="#ffffff"></path>
<path d="M 40.23 82.29
  Q 40.52 82.66 40.70 83.52
  L 38.94 81.83
  Q 38.33 81.25 38.10 82.06
  Q 37.90 82.76 37.03 83.13
  Q 36.65 83.29 36.35 83.01
  Q 36.13 82.80 36.07 82.50
  Q 35.96 81.95 35.40 81.87
  Q 34.59 81.76 34.13 82.36
  Q 33.80 82.78 33.27 82.76
  Q 27.93 82.52 22.58 82.64
  C 21.49 82.66 20.09 83.20 18.87 82.39
  Q 17.82 81.70 17.65 82.80
  Q 16.78 79.15 17.11 75.47
  L 17.42 72.66
  Q 17.48 72.14 17.96 71.92
  Q 19.72 71.10 21.56 71.36
  Q 24.24 71.75 25.05 71.70
  C 27.62 71.55 29.77 71.82 32.48 71.26
  Q 34.00 70.95 35.57 71.32
  Q 36.11 71.44 36.45 71.00
  Q 37.17 70.05 38.28 70.07
  Q 38.70 70.08 38.85 70.48
  Q 39.11 71.19 38.66 71.45
  A 0.40 0.40 0.0 0 0 38.46 71.78
  C 38.23 75.66 37.19 80.36 40.23 82.29
  Z" fill="#737478"></path>
<path d="M 67.29 75.73
  L 67.61 81.19
  Q 67.64 81.71 67.12 81.73
  L 45.78 82.31
  L 45.65 76.05
  L 45.61 73.49
  A 0.97 0.96 17.3 0 1 47.14 72.69
  C 48.03 73.32 49.27 73.06 50.08 73.10
  Q 53.91 73.28 62.99 73.07
  Q 63.84 73.05 64.27 72.84
  Q 64.53 72.70 64.74 72.91
  L 65.14 73.32
  Q 65.40 73.57 65.71 73.75
  Q 66.23 74.04 66.13 73.75
  Q 66.05 73.53 66.28 73.47
  Q 66.76 73.35 67.02 73.76
  Q 67.13 73.94 67.10 74.27
  Q 67.02 75.07 67.29 75.73
  Z" fill="#737478"></path>
<path d="M 92.11 84.73
  Q 92.23 86.44 94.25 86.28
  Q 96.24 86.13 103.46 86.14
  L 107.55 86.41
  L 107.20 101.97
  Q 107.51 98.06 106.67 94.71
  A 0.69 0.68 -7.4 0 0 105.99 94.19
  Q 101.16 94.32 96.33 94.18
  C 93.07 94.09 88.77 94.68 84.89 94.12
  Q 84.39 94.05 83.92 94.22
  Q 82.96 94.56 82.13 94.23
  Q 80.45 93.57 78.89 93.98
  Q 78.43 94.10 78.00 93.89
  C 76.24 93.02 75.27 94.59 73.40 93.96
  Q 72.91 93.79 72.58 94.20
  Q 72.18 94.70 72.03 95.48
  L 72.29 76.15
  Q 73.12 74.78 76.31 74.85
  Q 76.74 74.86 76.99 75.20
  Q 77.35 75.68 77.98 75.53
  C 80.61 74.89 84.63 75.37 87.44 75.33
  A 1.53 1.49 -62.0 0 0 88.25 75.07
  Q 89.50 74.23 91.05 74.35
  Q 91.54 74.39 91.56 74.89
  L 92.11 84.73
  Z" fill="#66676a"></path>
<path d="M 139.45 76.74
  L 139.06 102.21
  L 138.95 89.29
  Q 138.95 88.80 138.53 88.53
  Q 137.39 87.81 136.54 88.74
  A 1.15 1.14 -68.6 0 1 135.70 89.11
  L 117.06 89.26
  L 117.55 78.70
  Q 118.05 78.13 118.79 77.87
  Q 119.24 77.71 119.71 77.82
  Q 120.47 77.99 121.15 77.78
  Q 121.64 77.64 122.14 77.76
  Q 123.38 78.08 125.24 78.05
  Q 130.72 77.96 136.17 77.75
  Q 136.65 77.74 137.06 77.98
  Q 137.59 78.29 138.10 77.81
  Q 138.31 77.60 138.44 77.07
  Q 138.54 76.65 138.74 76.26
  Q 139.03 75.71 139.30 76.26
  Q 139.41 76.48 139.45 76.74
  Z" fill="#66676a"></path>
<path d="M 40.70 83.52
  Q 43.35 86.96 47.33 89.41
  Q 46.61 89.54 45.92 89.33
  Q 45.49 89.20 45.23 88.84
  Q 44.81 88.28 44.07 88.35
  Q 43.68 88.39 43.48 88.73
  Q 42.86 89.74 41.64 89.63
  A 1.21 1.18 -21.6 0 1 41.02 89.37
  Q 40.38 88.84 39.87 89.48
  Q 39.55 89.90 39.02 89.90
  L 20.40 89.95
  Q 18.52 87.06 17.65 82.80
  Q 17.82 81.70 18.87 82.39
  C 20.09 83.20 21.49 82.66 22.58 82.64
  Q 27.93 82.52 33.27 82.76
  Q 33.80 82.78 34.13 82.36
  Q 34.59 81.76 35.40 81.87
  Q 35.96 81.95 36.07 82.50
  Q 36.13 82.80 36.35 83.01
  Q 36.65 83.29 37.03 83.13
  Q 37.90 82.76 38.10 82.06
  Q 38.33 81.25 38.94 81.83
  L 40.70 83.52
  Z" fill="#66676a"></path>
<path d="M 175.70 84.59
  L 175.58 99.79
  Q 173.73 98.26 171.58 98.87
  Q 171.09 99.01 170.59 98.90
  C 166.04 97.91 161.94 98.35 157.97 97.90
  Q 157.57 97.85 157.18 97.95
  Q 156.23 98.17 155.61 97.13
  Q 154.74 95.67 152.89 96.02
  L 152.86 82.93
  Q 155.79 82.03 158.27 83.12
  Q 158.70 83.31 159.00 82.95
  Q 159.28 82.61 159.75 82.59
  Q 168.40 82.17 175.70 84.59
  Z" fill="#66676a"></path>
<path d="M 107.55 86.41
  Q 109.17 87.24 109.00 89.50
  Q 108.50 96.16 108.86 102.43
  A 1.08 1.08 0.0 0 1 107.69 103.57
  L 95.80 102.66
  L 107.20 101.97
  L 107.55 86.41
  Z" fill="#9d9ea1"></path>
<path d="M 139.06 102.21
  L 139.30 113.73
  Q 131.58 114.55 124.00 114.46
  Q 122.74 114.45 121.49 114.19
  Q 120.11 113.91 119.56 114.93
  Q 119.37 115.28 119.07 115.02
  Q 118.12 114.19 117.35 115.49
  L 117.06 89.26
  L 135.70 89.11
  A 1.15 1.14 -68.6 0 0 136.54 88.74
  Q 137.39 87.81 138.53 88.53
  Q 138.95 88.80 138.95 89.29
  L 139.06 102.21
  Z" fill="#535356"></path>
<path d="M 47.33 89.41
  C 54.60 93.81 60.22 97.74 64.69 104.72
  Q 64.56 106.38 65.70 108.44
  Q 57.28 107.89 49.25 108.13
  Q 47.23 108.20 46.81 109.39
  Q 46.42 110.49 46.24 109.75
  L 46.15 109.38
  Q 46.03 108.90 45.55 108.75
  L 41.56 107.52
  C 34.17 101.87 25.98 98.04 20.40 89.95
  L 39.02 89.90
  Q 39.55 89.90 39.87 89.48
  Q 40.38 88.84 41.02 89.37
  A 1.21 1.18 -21.6 0 0 41.64 89.63
  Q 42.86 89.74 43.48 88.73
  Q 43.68 88.39 44.07 88.35
  Q 44.81 88.28 45.23 88.84
  Q 45.49 89.20 45.92 89.33
  Q 46.61 89.54 47.33 89.41
  Z" fill="#535356"></path>
<path d="M 107.20 101.97
  L 95.80 102.66
  L 92.83 102.56
  Q 92.33 102.54 92.34 103.04
  L 92.48 108.02
  L 71.87 107.48
  L 72.03 95.48
  Q 72.18 94.70 72.58 94.20
  Q 72.91 93.79 73.40 93.96
  C 75.27 94.59 76.24 93.02 78.00 93.89
  Q 78.43 94.10 78.89 93.98
  Q 80.45 93.57 82.13 94.23
  Q 82.96 94.56 83.92 94.22
  Q 84.39 94.05 84.89 94.12
  C 88.77 94.68 93.07 94.09 96.33 94.18
  Q 101.16 94.32 105.99 94.19
  A 0.69 0.68 -7.4 0 1 106.67 94.71
  Q 107.51 98.06 107.20 101.97
  Z" fill="#535356"></path>
<path d="M 152.89 96.02
  Q 154.74 95.67 155.61 97.13
  Q 156.23 98.17 157.18 97.95
  Q 157.57 97.85 157.97 97.90
  C 161.94 98.35 166.04 97.91 170.59 98.90
  Q 171.09 99.01 171.58 98.87
  Q 173.73 98.26 175.58 99.79
  L 175.44 107.46
  L 174.33 114.27
  Q 174.68 112.13 173.07 111.38
  Q 172.62 111.17 172.13 111.30
  Q 170.75 111.67 167.50 111.82
  Q 161.21 112.09 154.93 112.12
  Q 154.43 112.12 154.05 111.80
  Q 153.80 111.57 153.48 111.64
  Q 152.97 111.75 152.93 112.27
  Q 152.82 113.73 152.10 114.78
  L 152.89 96.02
  Z" fill="#535356"></path>
<path d="M 64.69 104.72
  C 69.28 111.45 67.73 118.02 67.39 125.75
  Q 67.34 127.08 65.52 127.22
  Q 67.34 117.72 65.70 108.44
  Q 64.56 106.38 64.69 104.72
  Z" fill="#9d9ea1"></path>
<path d="M 65.70 108.44
  Q 67.34 117.72 65.52 127.22
  L 18.35 127.27
  Q 17.81 127.27 17.65 126.76
  Q 15.09 118.58 15.58 110.00
  Q 15.61 109.41 16.20 109.42
  L 37.63 109.72
  Q 36.53 116.82 38.86 122.04
  Q 42.79 125.19 44.12 120.25
  Q 46.06 113.08 41.56 107.52
  L 45.55 108.75
  Q 46.03 108.90 46.15 109.38
  L 46.24 109.75
  Q 46.42 110.49 46.81 109.39
  Q 47.23 108.20 49.25 108.13
  Q 57.28 107.89 65.70 108.44
  Z" fill="#3c3c3e"></path>
<path d="M 92.48 108.02
  L 92.36 119.06
  Q 92.35 119.57 92.86 119.59
  Q 102.80 119.90 112.76 119.67
  Q 113.70 119.65 114.05 121.20
  Q 112.97 123.84 114.14 126.09
  Q 114.56 126.62 114.08 127.04
  Q 113.82 127.26 113.34 127.26
  Q 92.84 127.29 72.26 127.26
  Q 71.74 127.26 71.74 126.74
  L 71.87 107.48
  L 92.48 108.02
  Z" fill="#3c3c3e"></path>
<path d="M 175.44 107.46
  Q 175.51 110.78 175.35 114.10
  C 175.16 118.02 173.97 122.09 173.27 126.15
  Q 173.20 126.52 172.84 126.60
  L 172.55 126.67
  L 174.33 114.27
  L 175.44 107.46
  Z" fill="#9d9ea1"></path>
<path d="M 37.63 109.72
  C 38.09 110.34 38.47 110.68 38.51 111.51
  Q 38.80 116.51 38.86 122.04
  Q 36.53 116.82 37.63 109.72
  Z" fill="#9d9ea1"></path>
<path d="M 174.33 114.27
  L 172.55 126.67
  Q 171.16 127.26 170.75 127.26
  Q 145.47 127.26 120.37 127.26
  Q 119.75 127.26 119.62 126.65
  L 117.35 115.49
  Q 118.12 114.19 119.07 115.02
  Q 119.37 115.28 119.56 114.93
  Q 120.11 113.91 121.49 114.19
  Q 122.74 114.45 124.00 114.46
  Q 131.58 114.55 139.30 113.73
  Q 139.21 116.86 140.69 119.96
  Q 143.82 124.65 148.62 122.01
  C 151.31 120.54 151.77 117.57 152.10 114.78
  Q 152.82 113.73 152.93 112.27
  Q 152.97 111.75 153.48 111.64
  Q 153.80 111.57 154.05 111.80
  Q 154.43 112.12 154.93 112.12
  Q 161.21 112.09 167.50 111.82
  Q 170.75 111.67 172.13 111.30
  Q 172.62 111.17 173.07 111.38
  Q 174.68 112.13 174.33 114.27
  Z" fill="#3c3c3e"></path>
<path d="M 114.05 121.20
  Q 114.87 123.40 114.14 126.09
  Q 112.97 123.84 114.05 121.20
  Z" fill="#9d9ea1"></path>
<path d="M 27.13 138.00
  Q 27.54 140.27 27.88 137.99
  L 28.98 130.56
  A 0.95 0.94 -84.5 0 1 29.94 129.76
  L 30.45 129.79
  A 0.77 0.76 6.5 0 1 31.17 130.69
  L 29.09 141.84
  Q 29.02 142.24 28.61 142.23
  L 26.20 142.21
  Q 25.62 142.20 25.51 141.63
  L 23.49 130.29
  A 0.44 0.43 88.0 0 1 23.96 129.78
  L 25.06 129.89
  Q 25.68 129.96 25.79 130.57
  L 27.13 138.00
  Z" fill="#737478"></path>
<path d="M 52.13 140.43
  L 55.22 140.54
  A 0.46 0.46 0.0 0 1 55.67 140.97
  L 55.69 141.39
  A 0.76 0.75 -1.8 0 1 54.94 142.18
  L 50.01 142.22
  Q 49.30 142.22 49.30 141.51
  L 49.27 130.52
  Q 49.27 129.82 49.97 129.83
  L 55.21 129.90
  A 0.44 0.44 0.0 0 1 55.65 130.30
  L 55.68 130.65
  A 0.85 0.85 0.0 0 1 54.85 131.59
  L 52.30 131.63
  Q 51.49 131.64 51.49 132.45
  L 51.50 134.27
  A 0.81 0.81 0.0 0 0 52.27 135.08
  L 54.48 135.20
  Q 54.97 135.22 54.98 135.72
  L 54.98 136.24
  A 0.49 0.48 -1.8 0 1 54.51 136.73
  L 52.23 136.79
  A 0.61 0.60 6.1 0 0 51.65 137.25
  Q 51.36 138.52 51.49 139.83
  Q 51.55 140.41 52.13 140.43
  Z" fill="#66676a"></path>
<path d="M 81.99 136.21
  L 81.98 130.30
  A 0.52 0.51 87.6 0 1 82.45 129.78
  L 82.94 129.73
  Q 83.99 129.63 83.98 130.69
  L 83.87 141.52
  Q 83.87 142.06 83.34 142.20
  Q 81.79 142.60 81.38 141.23
  Q 80.27 137.53 78.92 133.93
  A 0.07 0.07 0.0 0 0 78.81 133.90
  Q 78.72 133.98 78.62 134.07
  Q 78.56 134.11 78.58 134.25
  Q 78.85 137.80 78.70 141.35
  A 0.97 0.95 3.7 0 1 77.65 142.26
  L 77.23 142.23
  A 0.50 0.50 0.0 0 1 76.77 141.73
  L 76.71 130.50
  Q 76.70 129.91 77.28 129.82
  Q 78.20 129.68 79.12 129.86
  Q 79.69 129.97 79.85 130.53
  L 81.53 136.27
  A 0.24 0.23 37.1 0 0 81.99 136.21
  Z" fill="#66676a"></path>
<path d="M 140.25 139.61
  A 2.62 2.62 0.0 0 1 137.63 142.23
  L 136.11 142.23
  A 2.62 2.62 0.0 0 1 133.49 139.61
  L 133.49 132.39
  A 2.62 2.62 0.0 0 1 136.11 129.77
  L 137.63 129.77
  A 2.62 2.62 0.0 0 1 140.25 132.39
  L 140.25 139.61
  Z
  M 138.1419 132.4010
  A 0.95 0.95 0.0 0 0 137.2002 131.4428
  L 136.6002 131.4376
  A 0.95 0.95 0.0 0 0 135.6420 132.3792
  L 135.5781 139.6990
  A 0.95 0.95 0.0 0 0 136.5198 140.6572
  L 137.1198 140.6624
  A 0.95 0.95 0.0 0 0 138.0780 139.7208
  L 138.1419 132.4010
  Z" fill="#66676a"></path>
<path d="M 163.81 137.81
  L 163.74 141.51
  Q 163.72 142.25 162.99 142.25
  L 162.47 142.25
  A 0.78 0.78 0.0 0 1 161.69 141.47
  L 161.65 131.77
  Q 161.64 129.67 163.73 129.82
  L 165.77 129.97
  Q 168.09 130.13 168.26 132.45
  Q 168.38 134.15 167.61 135.71
  Q 167.39 136.15 167.58 136.60
  Q 168.56 138.99 168.23 141.59
  Q 168.17 142.09 167.68 142.24
  Q 167.11 142.41 166.67 142.00
  Q 166.35 141.70 166.31 141.08
  Q 166.22 139.64 166.21 138.41
  A 1.23 1.23 0.0 0 0 165.46 137.28
  L 164.97 137.06
  Q 163.84 136.57 163.81 137.81
  Z
  M 166.1712 132.4693
  A 1.01 1.01 0.0 0 0 165.1525 131.4682
  L 164.7125 131.4720
  A 1.01 1.01 0.0 0 0 163.7113 132.4908
  L 163.7288 134.4907
  A 1.01 1.01 0.0 0 0 164.7475 135.4918
  L 165.1875 135.4880
  A 1.01 1.01 0.0 0 0 166.1887 134.4692
  L 166.1712 132.4693
  Z" fill="#66676a"></path>
<path d="M 107.04 142.23
  Q 105.50 142.33 105.50 140.78
  L 105.48 131.20
  Q 105.48 129.87 106.81 129.92
  L 110.56 130.06
  A 1.73 1.72 1.2 0 1 112.22 131.78
  L 112.20 140.22
  A 1.79 1.78 -1.9 0 1 110.53 142.00
  L 107.04 142.23
  Z
  M 110.2290 132.4072
  A 0.91 0.91 0.0 0 0 109.3238 131.4924
  L 108.4238 131.4877
  A 0.91 0.91 0.0 0 0 107.5091 132.3929
  L 107.4710 139.6728
  A 0.91 0.91 0.0 0 0 108.3762 140.5876
  L 109.2762 140.5923
  A 0.91 0.91 0.0 0 0 110.1909 139.6871
  L 110.2290 132.4072
  Z" fill="#535356"></path>
<rect rx="0.91" height="9.10" width="2.72" transform="translate(108.85,136.04) rotate(0.3)" y="-4.55" x="-1.36" fill="#ffffff"></rect>
<rect rx="0.95" height="9.22" width="2.50" transform="translate(136.86,136.05) rotate(0.5)" y="-4.61" x="-1.25" fill="#ffffff"></rect>
<rect rx="1.01" height="4.02" width="2.46" transform="translate(164.95,133.48) rotate(-0.5)" y="-2.01" x="-1.23" fill="#ffffff"></rect>
</svg>
