<svg viewBox="0.00 0.00 57.00 57.00" version="1.1" xmlns="http://www.w3.org/2000/svg">
<g stroke-linecap="butt" fill="none" stroke-width="2.00">
<path d="M 17.00 27.23
  L 17.00 21.75
  Q 17.00 21.50 16.75 21.50
  L 13.25 21.50
  A 0.25 0.25 0.0 0 0 13.00 21.75
  L 13.00 34.68
  Q 13.00 35.37 13.68 35.37
  L 16.44 35.37
  Q 17.00 35.37 17.00 34.81
  L 17.01 32.31
  Q 17.01 31.80 17.43 31.49
  Q 17.64 31.34 17.88 31.36
  Q 18.52 31.39 18.52 30.75
  L 18.53 28.49
  A 0.48 0.48 0.0 0 0 18.04 28.00
  Q 17.75 28.01 17.48 27.91
  Q 17.00 27.74 17.00 27.23" stroke="#8c949c"></path>
<path d="M 26.10 26.53
  C 29.02 22.35 34.67 27.42 31.50 30.56
  Q 31.30 30.76 31.50 30.96
  L 33.59 33.15
  Q 33.80 33.36 33.99 33.14
  C 38.44 28.24 34.49 21.17 28.33 21.50
  C 22.36 21.81 20.32 28.74 23.92 33.26
  Q 24.07 33.46 24.25 33.28
  L 26.37 31.11
  Q 26.54 30.94 26.40 30.74
  Q 24.77 28.44 26.10 26.53" stroke="#8c949c"></path>
<path d="M 46.42 30.25
  A 0.33 0.33 0.0 0 1 46.75 30.58
  L 46.75 35.17
  A 0.33 0.33 0.0 0 0 47.08 35.50
  L 50.41 35.49
  A 0.33 0.33 0.0 0 0 50.74 35.16
  L 50.75 26.99
  A 0.33 0.33 0.0 0 0 50.42 26.66
  L 43.43 26.62
  A 0.33 0.33 0.0 0 1 43.10 26.29
  L 43.15 21.83
  A 0.33 0.33 0.0 0 0 42.82 21.50
  L 39.70 21.50
  A 0.33 0.33 0.0 0 0 39.37 21.83
  L 39.39 35.04
  A 0.33 0.33 0.0 0 0 39.72 35.37
  L 42.81 35.38
  A 0.33 0.33 0.0 0 0 43.14 35.05
  L 43.12 30.59
  A 0.33 0.33 0.0 0 1 43.45 30.26
  L 46.42 30.25" stroke="#8c949c"></path>
<path d="M 47.16 21.81
  L 50.31 24.69
  Q 50.77 25.11 50.76 24.49
  L 50.73 21.99
  Q 50.72 21.50 50.24 21.51
  L 47.27 21.51
  Q 46.83 21.51 47.16 21.81" stroke="#8c746d"></path>
<path d="M 9.63 26.36
  L 6.57 31.04
  Q 6.28 31.49 6.78 31.49
  L 9.58 31.50
  Q 10.17 31.51 10.17 30.92
  L 10.13 26.51
  Q 10.12 25.62 9.63 26.36" stroke="#454a99"></path>
<path d="M 31.47 35.38
  A 0.10 0.10 0.0 0 0 31.54 35.21
  L 29.44 33.06
  Q 29.00 32.60 28.56 33.06
  L 26.81 34.85
  Q 26.31 35.37 27.03 35.37
  L 31.47 35.38" stroke="#765a96"></path>
</g>
<path d="M 0.00 0.00
  L 57.00 0.00
  L 57.00 57.00
  L 0.00 57.00
  L 0.00 0.00
  Z
  M 17.00 27.23
  L 17.00 21.75
  Q 17.00 21.50 16.75 21.50
  L 13.25 21.50
  A 0.25 0.25 0.0 0 0 13.00 21.75
  L 13.00 34.68
  Q 13.00 35.37 13.68 35.37
  L 16.44 35.37
  Q 17.00 35.37 17.00 34.81
  L 17.01 32.31
  Q 17.01 31.80 17.43 31.49
  Q 17.64 31.34 17.88 31.36
  Q 18.52 31.39 18.52 30.75
  L 18.53 28.49
  A 0.48 0.48 0.0 0 0 18.04 28.00
  Q 17.75 28.01 17.48 27.91
  Q 17.00 27.74 17.00 27.23
  Z
  M 26.10 26.53
  C 29.02 22.35 34.67 27.42 31.50 30.56
  Q 31.30 30.76 31.50 30.96
  L 33.59 33.15
  Q 33.80 33.36 33.99 33.14
  C 38.44 28.24 34.49 21.17 28.33 21.50
  C 22.36 21.81 20.32 28.74 23.92 33.26
  Q 24.07 33.46 24.25 33.28
  L 26.37 31.11
  Q 26.54 30.94 26.40 30.74
  Q 24.77 28.44 26.10 26.53
  Z
  M 46.42 30.25
  A 0.33 0.33 0.0 0 1 46.75 30.58
  L 46.75 35.17
  A 0.33 0.33 0.0 0 0 47.08 35.50
  L 50.41 35.49
  A 0.33 0.33 0.0 0 0 50.74 35.16
  L 50.75 26.99
  A 0.33 0.33 0.0 0 0 50.42 26.66
  L 43.43 26.62
  A 0.33 0.33 0.0 0 1 43.10 26.29
  L 43.15 21.83
  A 0.33 0.33 0.0 0 0 42.82 21.50
  L 39.70 21.50
  A 0.33 0.33 0.0 0 0 39.37 21.83
  L 39.39 35.04
  A 0.33 0.33 0.0 0 0 39.72 35.37
  L 42.81 35.38
  A 0.33 0.33 0.0 0 0 43.14 35.05
  L 43.12 30.59
  A 0.33 0.33 0.0 0 1 43.45 30.26
  L 46.42 30.25
  Z
  M 47.16 21.81
  L 50.31 24.69
  Q 50.77 25.11 50.76 24.49
  L 50.73 21.99
  Q 50.72 21.50 50.24 21.51
  L 47.27 21.51
  Q 46.83 21.51 47.16 21.81
  Z
  M 9.63 26.36
  L 6.57 31.04
  Q 6.28 31.49 6.78 31.49
  L 9.58 31.50
  Q 10.17 31.51 10.17 30.92
  L 10.13 26.51
  Q 10.12 25.62 9.63 26.36
  Z
  M 31.47 35.38
  A 0.10 0.10 0.0 0 0 31.54 35.21
  L 29.44 33.06
  Q 29.00 32.60 28.56 33.06
  L 26.81 34.85
  Q 26.31 35.37 27.03 35.37
  L 31.47 35.38
  Z" fill="#192838"></path>
<path d="M 17.48 27.91
  Q 17.75 28.01 18.04 28.00
  A 0.48 0.48 0.0 0 1 18.53 28.49
  L 18.52 30.75
  Q 18.52 31.39 17.88 31.36
  Q 17.64 31.34 17.43 31.49
  Q 17.01 31.80 17.01 32.31
  L 17.00 34.81
  Q 17.00 35.37 16.44 35.37
  L 13.68 35.37
  Q 13.00 35.37 13.00 34.68
  L 13.00 21.75
  A 0.25 0.25 0.0 0 1 13.25 21.50
  L 16.75 21.50
  Q 17.00 21.50 17.00 21.75
  L 17.00 27.23
  Q 17.00 27.74 17.48 27.91
  Z" fill="#ffffff"></path>
<path d="M 26.10 26.53
  Q 24.77 28.44 26.40 30.74
  Q 26.54 30.94 26.37 31.11
  L 24.25 33.28
  Q 24.07 33.46 23.92 33.26
  C 20.32 28.74 22.36 21.81 28.33 21.50
  C 34.49 21.17 38.44 28.24 33.99 33.14
  Q 33.80 33.36 33.59 33.15
  L 31.50 30.96
  Q 31.30 30.76 31.50 30.56
  C 34.67 27.42 29.02 22.35 26.10 26.53
  Z" fill="#ffffff"></path>
<path d="M 46.42 30.25
  L 43.45 30.26
  A 0.33 0.33 0.0 0 0 43.12 30.59
  L 43.14 35.05
  A 0.33 0.33 0.0 0 1 42.81 35.38
  L 39.72 35.37
  A 0.33 0.33 0.0 0 1 39.39 35.04
  L 39.37 21.83
  A 0.33 0.33 0.0 0 1 39.70 21.50
  L 42.82 21.50
  A 0.33 0.33 0.0 0 1 43.15 21.83
  L 43.10 26.29
  A 0.33 0.33 0.0 0 0 43.43 26.62
  L 50.42 26.66
  A 0.33 0.33 0.0 0 1 50.75 26.99
  L 50.74 35.16
  A 0.33 0.33 0.0 0 1 50.41 35.49
  L 47.08 35.50
  A 0.33 0.33 0.0 0 1 46.75 35.17
  L 46.75 30.58
  A 0.33 0.33 0.0 0 0 46.42 30.25
  Z" fill="#ffffff"></path>
<path d="M 47.16 21.81
  Q 46.83 21.51 47.27 21.51
  L 50.24 21.51
  Q 50.72 21.50 50.73 21.99
  L 50.76 24.49
  Q 50.77 25.11 50.31 24.69
  L 47.16 21.81
  Z" fill="#febfa1"></path>
<path d="M 6.57 31.04
  L 9.63 26.36
  Q 10.12 25.62 10.13 26.51
  L 10.17 30.92
  Q 10.17 31.51 9.58 31.50
  L 6.78 31.49
  Q 6.28 31.49 6.57 31.04
  Z" fill="#716cf9"></path>
<path d="M 31.47 35.38
  L 27.03 35.37
  Q 26.31 35.37 26.81 34.85
  L 28.56 33.06
  Q 29.00 32.60 29.44 33.06
  L 31.54 35.21
  A 0.10 0.10 0.0 0 1 31.47 35.38
  Z" fill="#d38cf4"></path>
</svg>
