<svg viewBox="0.00 0.00 196.00 196.00" version="1.1" xmlns="http://www.w3.org/2000/svg">
<g stroke-linecap="butt" fill="none" stroke-width="2.00">
<path d="M 44.08 49.75
  C 42.43 59.44 48.55 67.74 58.69 67.74
  Q 88.76 67.75 118.81 67.75
  Q 122.94 67.75 124.91 69.01
  C 129.44 71.92 129.13 79.88 124.51 82.33
  Q 122.41 83.45 117.30 83.45
  Q 88.96 83.47 60.62 83.44
  Q 55.94 83.43 53.50 84.32
  C 40.99 88.86 40.52 105.77 51.96 112.03
  Q 54.05 113.18 57.02 113.19
  Q 88.66 113.31 120.30 113.23
  C 128.10 113.21 139.16 106.46 144.26 100.19
  C 161.61 78.89 152.35 47.93 126.53 39.41
  Q 122.95 38.23 117.83 38.24
  Q 88.38 38.26 58.91 38.26
  Q 54.45 38.26 51.81 39.51
  Q 45.29 42.61 44.08 49.75" stroke="#8f99ab"></path>
<path d="M 74.54 144.16
  A 14.76 14.76 0.0 0 0 59.78 129.40
  A 14.76 14.76 0.0 0 0 45.02 144.16
  A 14.76 14.76 0.0 0 0 59.78 158.92
  A 14.76 14.76 0.0 0 0 74.54 144.16" stroke="#8f312b"></path>
</g>
<path d="M 195.02 45.78
  L 195.02 151.02
  A 44.73 44.73 0.0 0 1 150.29 195.75
  L 46.67 195.75
  A 44.73 44.73 0.0 0 1 1.94 151.02
  L 1.93 45.77
  A 44.73 44.73 0.0 0 1 46.66 1.04
  L 150.29 1.05
  A 44.73 44.73 0.0 0 1 195.02 45.78
  Z
  M 44.08 49.75
  C 42.43 59.44 48.55 67.74 58.69 67.74
  Q 88.76 67.75 118.81 67.75
  Q 122.94 67.75 124.91 69.01
  C 129.44 71.92 129.13 79.88 124.51 82.33
  Q 122.41 83.45 117.30 83.45
  Q 88.96 83.47 60.62 83.44
  Q 55.94 83.43 53.50 84.32
  C 40.99 88.86 40.52 105.77 51.96 112.03
  Q 54.05 113.18 57.02 113.19
  Q 88.66 113.31 120.30 113.23
  C 128.10 113.21 139.16 106.46 144.26 100.19
  C 161.61 78.89 152.35 47.93 126.53 39.41
  Q 122.95 38.23 117.83 38.24
  Q 88.38 38.26 58.91 38.26
  Q 54.45 38.26 51.81 39.51
  Q 45.29 42.61 44.08 49.75
  Z
  M 74.54 144.16
  A 14.76 14.76 0.0 0 0 59.78 129.40
  A 14.76 14.76 0.0 0 0 45.02 144.16
  A 14.76 14.76 0.0 0 0 59.78 158.92
  A 14.76 14.76 0.0 0 0 74.54 144.16
  Z" fill="#1e3356"></path>
<path d="M 58.69 67.74
  C 48.55 67.74 42.43 59.44 44.08 49.75
  Q 45.29 42.61 51.81 39.51
  Q 54.45 38.26 58.91 38.26
  Q 88.38 38.26 117.83 38.24
  Q 122.95 38.23 126.53 39.41
  C 152.35 47.93 161.61 78.89 144.26 100.19
  C 139.16 106.46 128.10 113.21 120.30 113.23
  Q 88.66 113.31 57.02 113.19
  Q 54.05 113.18 51.96 112.03
  C 40.52 105.77 40.99 88.86 53.50 84.32
  Q 55.94 83.43 60.62 83.44
  Q 88.96 83.47 117.30 83.45
  Q 122.41 83.45 124.51 82.33
  C 129.13 79.88 129.44 71.92 124.91 69.01
  Q 122.94 67.75 118.81 67.75
  Q 88.76 67.75 58.69 67.74
  Z" fill="#ffffff"></path>
<circle r="14.76" cy="144.16" cx="59.78" fill="#ff2e00"></circle>
</svg>
