<svg viewBox="0.00 0.00 256.00 256.00" version="1.1" xmlns="http://www.w3.org/2000/svg">
<g stroke-linecap="butt" fill="none" stroke-width="2.00">
<path d="M 135.53 42.66
  C 115.51 42.94 97.92 56.62 93.20 75.81
  Q 91.81 81.43 91.86 93.78
  Q 91.90 104.92 91.86 116.03" stroke="#863440"></path>
<path d="M 91.86 116.03
  Q 91.96 126.15 96.52 135.05" stroke="#863c3a"></path>
<path d="M 96.52 135.05
  Q 98.91 139.95 102.58 144.05" stroke="#864236"></path>
<path d="M 102.58 144.05
  Q 109.44 151.86 118.94 155.80" stroke="#864a30"></path>
<path d="M 118.94 155.80
  Q 125.73 158.64 133.04 159.17" stroke="#86512a"></path>
<path d="M 133.04 159.17
  L 159.90 159.17" stroke="#865c22"></path>
<path d="M 159.90 159.17
  Q 188.99 161.11 204.21 137.18" stroke="#86621e"></path>
<path d="M 204.21 137.18
  Q 212.86 137.07 222.62 136.90
  Q 224.86 136.86 225.44 135.68
  C 227.37 131.78 224.95 129.73 221.14 129.75
  Q 214.35 129.77 207.52 129.72" stroke="#868788"></path>
<path d="M 207.52 129.72
  Q 209.52 123.81 209.68 120.25
  Q 210.13 110.53 209.80 89.56" stroke="#86621e"></path>
<path d="M 209.80 89.56
  L 209.81 75.19" stroke="#865c22"></path>
<path d="M 209.81 75.19
  Q 211.92 75.03 214.25 75.21
  C 218.25 75.51 220.55 70.84 217.12 68.42
  A 3.65 3.64 -27.1 0 0 215.00 67.74
  L 209.88 67.72" stroke="#868788"></path>
<path d="M 209.88 67.72
  L 209.87 43.38
  Q 209.87 42.62 209.12 42.62
  L 194.25 42.62" stroke="#86512a"></path>
<path d="M 194.25 42.62
  L 172.53 42.64" stroke="#864a30"></path>
<path d="M 172.53 42.64
  L 156.80 42.65" stroke="#864236"></path>
<path d="M 156.80 42.65
  L 135.53 42.66" stroke="#863c3a"></path>
<path d="M 156.80 42.65
  Q 157.22 44.76 154.59 46.80
  A 1.67 1.66 -12.7 0 0 153.98 47.76
  Q 153.62 49.34 152.15 50.13
  A 0.75 0.72 85.3 0 0 151.80 50.56
  Q 151.70 50.87 151.75 51.17
  Q 151.82 51.60 151.49 51.89
  Q 149.90 53.27 148.88 55.10
  Q 148.66 55.48 148.35 55.80
  Q 147.35 56.85 146.85 58.18
  Q 146.68 58.65 146.31 58.97
  Q 145.92 59.30 145.87 59.75
  Q 145.82 60.32 145.45 60.76
  L 144.15 62.33
  Q 143.89 62.64 143.89 63.05
  L 143.88 63.46
  Q 143.88 63.66 143.69 63.68
  Q 142.48 63.78 141.17 65.94
  A 0.73 0.70 65.4 0 0 141.08 66.20
  C 140.72 68.79 138.22 68.96 137.84 71.19
  Q 137.76 71.71 137.29 71.97
  Q 136.45 72.44 136.72 73.26
  Q 136.96 73.96 136.22 73.91
  Q 134.89 73.83 134.91 75.13
  Q 134.91 75.70 134.36 75.85
  Q 133.32 76.12 133.12 77.10
  Q 133.03 77.55 132.66 77.84
  Q 131.42 78.80 130.89 80.22
  Q 130.75 80.61 130.45 80.89
  Q 129.90 81.41 129.90 82.18
  Q 129.90 82.61 129.54 82.84
  Q 128.91 83.26 128.71 83.96
  Q 128.59 84.36 128.34 84.71
  L 123.99 90.83
  A 0.46 0.44 59.6 0 0 123.91 91.17
  Q 123.99 91.75 123.43 92.00
  A 0.79 0.78 -8.6 0 0 122.98 92.60
  Q 122.71 94.65 120.63 94.99
  A 0.74 0.73 1.1 0 0 120.02 95.57
  Q 119.95 95.93 119.68 96.13
  Q 119.41 96.34 119.26 96.65
  L 118.28 98.71" stroke="#ff6f5f"></path>
<path d="M 118.28 98.71
  Q 115.18 98.77 111.65 98.75
  C 105.18 98.72 105.08 105.74 110.14 106.03
  Q 111.97 106.13 113.24 106.19" stroke="#ffb4b1"></path>
<path d="M 113.24 106.19
  L 113.56 108.11
  Q 113.65 108.65 113.16 108.89
  Q 112.27 109.35 112.01 110.31
  Q 111.89 110.75 111.46 110.91
  Q 110.84 111.14 110.87 111.82
  Q 110.90 112.39 110.50 112.81
  L 107.66 115.76
  Q 107.56 115.86 107.63 115.99
  Q 107.72 116.18 107.83 116.36
  Q 107.91 116.49 107.80 116.60
  L 104.17 120.27
  Q 103.83 120.61 103.90 121.08
  Q 104.01 121.85 103.28 121.99
  A 0.57 0.57 0.0 0 0 102.85 122.73
  Q 103.16 123.67 102.41 123.94
  Q 101.96 124.10 101.84 124.56
  L 101.52 125.79
  A 0.12 0.12 0.0 0 1 101.30 125.82
  L 101.07 125.43
  Q 100.90 125.14 100.57 125.17
  Q 100.13 125.21 99.97 125.75
  Q 99.39 127.60 100.53 128.42
  Q 100.85 128.64 100.74 129.01
  C 100.19 130.83 98.00 131.32 97.86 133.03
  Q 97.82 133.47 97.54 133.80
  L 96.52 135.05" stroke="#ff6f5f"></path>
<path d="M 91.86 116.03
  L 91.96 112.18
  Q 91.98 111.57 92.57 111.43
  Q 92.80 111.37 92.31 111.04
  A 0.13 0.13 0.0 0 1 92.28 110.85
  Q 92.72 110.30 93.36 109.97
  Q 93.80 109.74 93.95 109.26
  Q 94.50 107.58 95.83 106.82
  Q 96.28 106.56 96.56 106.12
  Q 96.99 105.45 96.90 104.69
  Q 96.84 104.19 97.31 103.98
  Q 98.83 103.29 99.03 101.67
  Q 99.07 101.28 99.35 101.01
  L 103.89 96.48
  A 0.69 0.69 0.0 0 0 103.95 95.57
  L 103.26 94.68
  A 0.45 0.45 0.0 0 1 103.57 93.96
  L 104.55 93.86
  Q 105.26 93.79 105.24 93.07
  Q 105.21 91.91 106.19 91.33
  Q 106.63 91.07 106.81 90.58
  C 107.93 87.35 110.69 86.61 111.88 82.70
  Q 112.02 82.25 112.40 81.97
  C 113.83 80.91 114.39 79.09 115.13 78.15
  Q 116.03 77.02 117.07 76.02
  Q 117.41 75.69 117.60 75.25
  L 118.18 73.83
  Q 118.35 73.42 118.75 73.21
  C 120.24 72.44 120.61 70.92 121.37 69.95
  Q 122.71 68.25 123.99 66.48
  Q 124.07 66.37 124.01 66.25
  Q 123.94 66.12 123.89 65.98
  A 0.54 0.54 0.0 0 1 124.00 65.38
  L 126.34 63.01
  Q 126.74 62.60 126.83 62.03
  Q 126.95 61.22 127.56 60.90
  A 0.76 0.75 71.8 0 0 127.95 60.12
  Q 127.73 58.69 128.58 58.02
  Q 129.03 57.68 129.04 57.12
  Q 129.07 56.10 130.13 56.07
  Q 130.70 56.05 130.80 55.50
  L 131.08 53.93
  Q 131.17 53.42 131.54 53.06
  L 134.73 50.01
  A 1.03 1.02 67.3 0 0 135.05 49.22
  Q 135.01 48.51 135.59 48.13
  A 1.02 1.00 -16.6 0 0 136.03 47.34
  Q 136.06 46.14 137.10 45.94
  A 1.91 1.84 61.8 0 0 138.00 42.75
  Q 137.62 42.36 135.53 42.66" stroke="#ff6269"></path>
<path d="M 167.79 106.16
  L 152.47 106.15" stroke="#ffcaa1"></path>
<path d="M 152.47 106.15
  L 128.23 106.18" stroke="#ffc2a7"></path>
<path d="M 128.23 106.18
  L 113.24 106.19" stroke="#ffbaad"></path>
<path d="M 172.53 42.64
  Q 172.97 44.32 171.19 46.38
  Q 170.34 47.37 169.49 48.90
  Q 168.72 50.28 167.41 51.27
  Q 167.02 51.56 167.11 52.04
  Q 167.26 52.76 166.70 52.88
  Q 166.14 53.00 166.02 53.56
  Q 165.96 53.82 165.92 54.08
  Q 165.84 54.64 165.45 55.06
  L 162.33 58.42
  Q 161.97 58.81 161.86 59.31
  Q 161.59 60.48 160.55 61.08
  Q 160.15 61.31 160.14 61.77
  L 159.89 67.73" stroke="#ff7d54"></path>
<path d="M 159.89 67.73
  Q 153.04 67.79 146.00 67.87
  C 140.78 67.93 140.74 74.62 145.74 75.14" stroke="#ffbaad"></path>
<path d="M 145.74 75.14
  Q 146.31 76.00 145.62 77.14
  Q 145.34 77.59 144.88 77.83
  Q 144.14 78.21 144.09 79.06
  Q 144.06 79.55 143.71 79.88
  Q 141.72 81.76 140.50 84.21
  C 140.02 85.18 140.17 86.57 138.96 87.32
  Q 138.58 87.56 138.39 87.96
  Q 137.85 89.09 136.88 89.84
  A 0.12 0.11 68.3 0 0 136.84 89.95
  Q 136.88 90.15 137.04 90.28
  A 0.28 0.28 0.0 0 1 137.01 90.74
  Q 135.88 91.43 135.12 92.48
  Q 134.87 92.83 134.48 92.98
  Q 133.96 93.18 133.98 93.87
  A 1.38 1.36 -30.0 0 1 133.77 94.63
  L 131.05 98.72" stroke="#ff7d54"></path>
<path d="M 131.05 98.72
  L 118.28 98.71" stroke="#ffbaad"></path>
<path d="M 128.23 106.18
  L 126.03 110.70
  Q 125.86 111.05 125.50 111.18
  Q 125.02 111.36 125.09 111.84
  Q 125.17 112.32 124.84 112.69
  L 122.30 115.42
  Q 122.11 115.63 122.13 115.92
  Q 122.16 116.18 122.10 116.42
  Q 122.04 116.69 121.73 116.95
  Q 120.59 117.91 119.64 119.09
  Q 119.28 119.54 119.21 120.11
  Q 119.12 120.81 118.53 121.10
  Q 118.13 121.30 118.13 121.75
  C 118.12 123.03 116.43 123.59 116.07 124.92
  A 1.81 1.79 71.2 0 1 115.77 125.54
  L 106.52 138.30
  Q 106.29 138.62 106.18 139.00
  Q 105.69 140.68 104.05 141.48
  Q 104.00 141.50 103.97 141.47
  L 103.76 141.25
  Q 103.62 141.12 103.49 141.24
  Q 102.80 141.86 103.24 142.90
  Q 103.41 143.32 103.11 143.66
  Q 102.91 143.88 102.58 144.05" stroke="#ff7d54"></path>
<path d="M 174.58 75.16
  Q 173.01 75.92 172.31 77.35
  Q 172.29 77.38 172.07 78.23
  Q 171.92 78.80 171.28 78.89
  Q 170.87 78.95 170.96 79.35
  Q 171.22 80.67 170.03 81.13
  Q 167.80 81.99 168.13 84.25
  Q 168.23 84.94 167.67 85.04
  Q 167.24 85.12 166.96 85.45
  L 164.23 88.58
  Q 163.92 88.93 163.87 89.40
  Q 163.81 89.92 163.21 90.13
  Q 163.10 90.17 162.99 90.12
  Q 162.87 90.05 162.75 89.98
  Q 162.24 89.69 162.13 90.26
  Q 162.00 90.94 161.41 91.33
  A 0.76 0.76 0.0 0 0 161.09 92.16
  Q 161.38 93.34 160.53 93.95
  Q 160.12 94.26 160.12 94.77
  L 160.12 95.30
  Q 160.12 95.85 159.61 96.03
  Q 157.63 96.74 158.74 98.74" stroke="#ff9146"></path>
<path d="M 158.74 98.74
  L 131.05 98.72" stroke="#ffc2a7"></path>
<path d="M 206.47 75.14
  L 204.36 75.40
  Q 203.44 75.52 204.26 75.86
  Q 204.47 75.95 204.51 76.23
  Q 204.58 76.68 204.22 76.96
  Q 202.51 78.28 201.82 80.35
  A 1.32 1.31 83.4 0 1 201.27 81.05
  C 199.96 81.86 199.87 83.26 199.23 84.09
  Q 198.21 85.42 196.94 86.54
  A 0.09 0.09 0.0 0 0 196.94 86.68
  Q 197.05 86.78 197.15 86.91
  Q 197.30 87.10 197.21 87.34
  Q 196.88 88.22 195.80 88.45
  Q 195.49 88.52 195.51 88.83
  Q 195.53 89.07 195.68 89.29
  A 0.29 0.29 0.0 0 1 195.62 89.68
  Q 194.26 90.81 193.80 92.49
  Q 193.68 92.94 193.22 92.88
  Q 192.40 92.78 192.15 93.49
  Q 191.75 94.62 191.90 96.86
  Q 191.94 97.40 191.57 97.80
  L 188.12 101.49
  Q 188.12 101.50 188.16 101.60
  Q 188.19 101.64 188.21 101.68
  Q 188.32 101.87 188.22 102.00
  Q 187.27 103.21 186.13 104.25
  Q 185.84 104.51 185.88 105.17
  Q 185.90 105.60 185.60 105.90
  L 182.49 109.02
  Q 182.16 109.34 182.25 109.80
  Q 182.43 110.71 181.86 111.38
  Q 180.76 112.66 177.66 115.84
  Q 177.31 116.19 177.18 116.66
  Q 176.99 117.35 176.23 117.98
  Q 175.88 118.27 175.87 118.78
  Q 175.86 119.27 175.60 119.69
  L 174.15 122.06
  Q 173.88 122.51 173.46 122.82
  Q 172.81 123.32 172.64 124.11
  Q 172.55 124.57 172.12 124.77
  Q 170.48 125.50 169.81 127.19
  Q 169.65 127.59 169.29 127.80
  Q 167.45 128.86 168.64 129.71" stroke="#ffa338"></path>
<path d="M 168.64 129.71
  L 153.98 129.69" stroke="#ffce9e"></path>
<path d="M 153.98 129.69
  L 153.31 129.62
  Q 152.64 129.55 153.02 128.99
  Q 153.42 128.41 152.77 128.25
  A 0.13 0.13 0.0 0 1 152.74 128.01
  Q 152.88 127.94 153.02 127.87
  Q 153.29 127.73 153.41 127.45
  Q 153.93 126.26 155.07 125.62
  Q 155.55 125.34 155.73 124.81
  Q 155.92 124.24 156.43 124.04
  Q 156.95 123.83 156.87 123.28
  Q 156.75 122.41 157.50 121.89
  C 158.59 121.13 158.44 119.73 159.16 119.14
  Q 159.56 118.82 160.13 118.87
  Q 160.62 118.92 160.76 118.44
  Q 161.19 116.96 162.40 115.96
  Q 162.79 115.65 162.83 115.15
  Q 162.90 114.40 163.53 113.99
  Q 163.95 113.72 163.89 113.21
  Q 163.81 112.51 164.13 112.25
  Q 167.32 109.69 167.79 106.16" stroke="#ff9840"></path>
<path d="M 167.79 106.16
  L 180.37 105.97
  A 2.92 2.92 0.0 0 0 183.25 103.10
  L 183.26 102.37
  Q 183.33 98.82 179.77 98.81
  L 158.74 98.74" stroke="#ffce9e"></path>
<path d="M 152.47 106.15
  Q 152.74 106.49 152.23 106.94
  A 2.58 2.38 -9.0 0 0 151.71 107.60
  Q 151.56 107.87 151.67 108.10
  Q 151.90 108.61 151.51 109.00
  L 151.25 109.25
  A 2.27 2.15 -14.5 0 0 150.75 110.05
  Q 150.34 111.25 149.34 112.06
  Q 148.95 112.38 148.84 112.86
  Q 148.52 114.29 147.20 115.08
  Q 146.73 115.36 146.85 115.90
  Q 147.27 117.86 145.62 118.83
  Q 145.12 119.13 145.13 119.71
  Q 145.15 120.54 144.47 120.94
  Q 144.02 121.20 143.66 121.58
  Q 143.02 122.27 142.83 123.15
  Q 142.73 123.61 142.39 123.95
  Q 140.56 125.74 139.84 128.25
  Q 139.54 129.29 137.60 129.96
  Q 137.09 130.13 136.95 130.65
  Q 136.84 131.07 136.86 131.50
  Q 136.87 131.94 136.61 132.29
  L 130.49 140.13
  Q 130.18 140.53 130.11 141.02
  C 130.02 141.67 129.90 142.07 129.46 142.60
  Q 127.99 144.33 126.48 146.00
  C 125.21 147.40 124.30 149.37 122.67 150.81
  A 1.58 1.51 -15.4 0 0 122.19 151.61
  Q 121.58 154.14 118.94 155.80" stroke="#ff8d49"></path>
<path d="M 153.98 129.69
  Q 148.68 129.81 149.56 134.83" stroke="#ffcaa1"></path>
<path d="M 149.56 134.83
  L 142.53 144.22
  Q 142.27 144.57 142.13 145.00
  Q 141.76 146.20 140.67 146.99
  Q 140.23 147.31 140.06 147.82
  Q 139.39 149.92 137.42 151.14
  Q 137.06 151.36 137.13 151.78
  Q 137.23 152.35 136.95 152.79
  A 0.83 0.82 24.4 0 1 136.03 153.13
  Q 135.36 152.94 135.02 153.51
  Q 134.82 153.84 134.98 154.18
  Q 135.33 154.89 134.91 155.88
  Q 134.30 157.31 133.39 158.02
  A 0.05 0.05 0.0 0 0 133.42 158.11
  Q 133.63 158.11 133.80 158.31
  A 0.47 0.47 0.0 0 1 133.54 159.08
  L 133.04 159.17" stroke="#ff9f3b"></path>
<path d="M 209.81 75.19
  L 206.47 75.14" stroke="#ffd599"></path>
<path d="M 206.47 75.14
  L 174.58 75.16" stroke="#ffce9e"></path>
<path d="M 174.58 75.16
  L 145.74 75.14" stroke="#ffc2a7"></path>
<path d="M 194.25 42.62
  Q 196.53 44.83 193.56 46.09
  Q 193.09 46.29 193.10 46.80
  Q 193.12 47.28 192.88 47.63
  C 192.05 48.80 191.90 49.04 191.62 50.20
  Q 191.42 51.06 191.01 51.43
  Q 190.52 51.87 189.86 51.96
  Q 189.31 52.03 189.19 52.58
  Q 188.56 55.39 186.21 57.23
  Q 185.94 57.44 185.93 57.94
  Q 185.92 58.50 185.53 58.91
  L 183.00 61.58
  Q 182.91 61.68 182.91 61.81
  L 182.91 62.20
  Q 182.91 62.48 182.73 62.71
  L 178.74 67.72" stroke="#ff8d49"></path>
<path d="M 178.74 67.72
  L 159.89 67.73" stroke="#ffc2a7"></path>
<path d="M 204.21 137.18
  L 172.78 137.16" stroke="#ffda95"></path>
<path d="M 172.78 137.16
  Q 158.80 137.04 154.00 137.15
  Q 150.85 137.22 149.56 134.83" stroke="#ffd599"></path>
<path d="M 209.80 89.56
  Q 208.26 88.07 208.08 90.39
  Q 208.04 90.93 207.59 91.22
  Q 205.81 92.36 205.04 94.32
  Q 204.84 94.84 204.40 95.18
  Q 202.88 96.36 203.11 98.20
  Q 203.16 98.56 202.92 98.83
  Q 202.80 98.97 202.64 99.05
  Q 202.60 99.07 202.02 99.74
  Q 201.64 100.18 201.16 100.14
  Q 200.57 100.08 200.38 100.64
  Q 199.45 103.41 197.41 105.38
  Q 197.04 105.73 197.10 106.23
  Q 197.23 107.26 196.88 108.23
  A 0.88 0.86 -85.1 0 1 196.22 108.80
  Q 194.45 109.14 194.09 110.92
  Q 194.00 111.39 193.68 111.73
  L 191.18 114.44
  Q 191.11 114.51 191.12 114.61
  Q 191.12 114.77 191.12 114.92
  Q 191.11 115.14 190.96 115.32
  L 188.16 118.62
  Q 187.90 118.92 187.89 119.31
  Q 187.87 119.73 187.54 119.94
  Q 187.01 120.27 186.96 120.32
  Q 185.25 122.06 184.69 124.52
  Q 184.49 125.42 183.57 125.53
  Q 182.93 125.61 182.63 126.18
  Q 182.39 126.66 182.53 127.18
  Q 182.65 127.65 182.34 128.16
  Q 182.14 128.49 181.76 128.57
  Q 181.01 128.73 181.05 129.73" stroke="#ffb02e"></path>
<path d="M 181.05 129.73
  L 168.64 129.71" stroke="#ffd599"></path>
<path d="M 172.78 137.16
  Q 173.15 137.68 173.13 138.08
  Q 173.13 138.30 172.64 138.78
  Q 172.24 139.17 172.13 139.74
  Q 172.04 140.22 171.58 140.37
  Q 170.21 140.84 170.09 142.09
  Q 170.04 142.66 169.69 143.12
  Q 168.71 144.45 168.04 145.96
  A 3.94 0.59 -72.0 0 1 167.59 146.86
  Q 167.14 147.65 166.43 148.14
  Q 166.07 148.39 166.13 148.82
  Q 166.22 149.49 165.65 149.80
  Q 165.29 150.00 165.04 150.32
  L 163.33 152.49
  Q 162.99 152.92 162.86 153.46
  Q 162.62 154.46 161.66 155.02
  Q 161.20 155.29 161.11 155.82
  Q 160.98 156.55 160.43 157.06
  Q 160.11 157.37 160.13 157.82
  Q 160.15 158.54 159.90 159.17" stroke="#ffb02e"></path>
<path d="M 209.88 67.72
  L 178.74 67.72" stroke="#ffcaa1"></path>
<path d="M 207.52 129.72
  L 181.05 129.73" stroke="#ffda95"></path>
<path d="M 75.63 88.75
  Q 75.62 102.57 75.63 116.50
  Q 75.64 125.92 79.34 135.58
  C 87.11 155.85 104.22 170.32 125.58 174.36
  Q 131.94 175.57 145.50 175.53
  Q 169.37 175.46 193.46 175.50
  Q 197.06 175.51 197.15 171.91
  L 197.17 171.05
  A 2.83 2.82 -89.3 0 0 194.36 168.16
  Q 170.19 168.08 146.75 168.13
  Q 132.44 168.17 126.82 167.13
  C 106.61 163.42 89.58 147.71 84.59 127.50
  Q 83.05 121.27 83.01 107.86
  Q 82.97 94.55 83.01 81.28
  A 0.28 0.27 90.0 0 0 82.74 81.00
  L 33.77 81.00
  Q 30.19 81.00 30.03 84.57
  L 29.99 85.48
  A 2.77 2.76 1.2 0 0 32.76 88.36
  L 75.25 88.37
  A 0.38 0.38 0.0 0 1 75.63 88.75" stroke="#868788"></path>
<path d="M 149.40 196.13
  A 16.23 16.23 0.0 0 0 133.17 179.90
  A 16.23 16.23 0.0 0 0 116.94 196.13
  A 16.23 16.23 0.0 0 0 133.17 212.36
  A 16.23 16.23 0.0 0 0 149.40 196.13" stroke="#868788"></path>
<path d="M 198.10 196.15
  A 16.23 16.23 0.0 0 0 181.87 179.92
  A 16.23 16.23 0.0 0 0 165.64 196.15
  A 16.23 16.23 0.0 0 0 181.87 212.38
  A 16.23 16.23 0.0 0 0 198.10 196.15" stroke="#868788"></path>
<path d="M 142.04 196.14
  A 8.86 8.86 0.0 0 0 133.18 187.28
  A 8.86 8.86 0.0 0 0 124.32 196.14
  A 8.86 8.86 0.0 0 0 133.18 205.00
  A 8.86 8.86 0.0 0 0 142.04 196.14" stroke="#868788"></path>
<path d="M 190.72 196.15
  A 8.86 8.86 0.0 0 0 181.86 187.29
  A 8.86 8.86 0.0 0 0 173.00 196.15
  A 8.86 8.86 0.0 0 0 181.86 205.01
  A 8.86 8.86 0.0 0 0 190.72 196.15" stroke="#868788"></path>
</g>
<path d="M 0.00 0.00
  L 256.00 0.00
  L 256.00 256.00
  L 0.00 256.00
  L 0.00 0.00
  Z
  M 135.53 42.66
  C 115.51 42.94 97.92 56.62 93.20 75.81
  Q 91.81 81.43 91.86 93.78
  Q 91.90 104.92 91.86 116.03
  Q 91.96 126.15 96.52 135.05
  Q 98.91 139.95 102.58 144.05
  Q 109.44 151.86 118.94 155.80
  Q 125.73 158.64 133.04 159.17
  L 159.90 159.17
  Q 188.99 161.11 204.21 137.18
  Q 212.86 137.07 222.62 136.90
  Q 224.86 136.86 225.44 135.68
  C 227.37 131.78 224.95 129.73 221.14 129.75
  Q 214.35 129.77 207.52 129.72
  Q 209.52 123.81 209.68 120.25
  Q 210.13 110.53 209.80 89.56
  L 209.81 75.19
  Q 211.92 75.03 214.25 75.21
  C 218.25 75.51 220.55 70.84 217.12 68.42
  A 3.65 3.64 -27.1 0 0 215.00 67.74
  L 209.88 67.72
  L 209.87 43.38
  Q 209.87 42.62 209.12 42.62
  L 194.25 42.62
  L 172.53 42.64
  L 156.80 42.65
  L 135.53 42.66
  Z
  M 75.63 88.75
  Q 75.62 102.57 75.63 116.50
  Q 75.64 125.92 79.34 135.58
  C 87.11 155.85 104.22 170.32 125.58 174.36
  Q 131.94 175.57 145.50 175.53
  Q 169.37 175.46 193.46 175.50
  Q 197.06 175.51 197.15 171.91
  L 197.17 171.05
  A 2.83 2.82 -89.3 0 0 194.36 168.16
  Q 170.19 168.08 146.75 168.13
  Q 132.44 168.17 126.82 167.13
  C 106.61 163.42 89.58 147.71 84.59 127.50
  Q 83.05 121.27 83.01 107.86
  Q 82.97 94.55 83.01 81.28
  A 0.28 0.27 90.0 0 0 82.74 81.00
  L 33.77 81.00
  Q 30.19 81.00 30.03 84.57
  L 29.99 85.48
  A 2.77 2.76 1.2 0 0 32.76 88.36
  L 75.25 88.37
  A 0.38 0.38 0.0 0 1 75.63 88.75
  Z
  M 149.40 196.13
  A 16.23 16.23 0.0 0 0 133.17 179.90
  A 16.23 16.23 0.0 0 0 116.94 196.13
  A 16.23 16.23 0.0 0 0 133.17 212.36
  A 16.23 16.23 0.0 0 0 149.40 196.13
  Z
  M 198.10 196.15
  A 16.23 16.23 0.0 0 0 181.87 179.92
  A 16.23 16.23 0.0 0 0 165.64 196.15
  A 16.23 16.23 0.0 0 0 181.87 212.38
  A 16.23 16.23 0.0 0 0 198.10 196.15
  Z" fill="#0d0e11"></path>
<path d="M 156.80 42.65
  Q 157.22 44.76 154.59 46.80
  A 1.67 1.66 -12.7 0 0 153.98 47.76
  Q 153.62 49.34 152.15 50.13
  A 0.75 0.72 85.3 0 0 151.80 50.56
  Q 151.70 50.87 151.75 51.17
  Q 151.82 51.60 151.49 51.89
  Q 149.90 53.27 148.88 55.10
  Q 148.66 55.48 148.35 55.80
  Q 147.35 56.85 146.85 58.18
  Q 146.68 58.65 146.31 58.97
  Q 145.92 59.30 145.87 59.75
  Q 145.82 60.32 145.45 60.76
  L 144.15 62.33
  Q 143.89 62.64 143.89 63.05
  L 143.88 63.46
  Q 143.88 63.66 143.69 63.68
  Q 142.48 63.78 141.17 65.94
  A 0.73 0.70 65.4 0 0 141.08 66.20
  C 140.72 68.79 138.22 68.96 137.84 71.19
  Q 137.76 71.71 137.29 71.97
  Q 136.45 72.44 136.72 73.26
  Q 136.96 73.96 136.22 73.91
  Q 134.89 73.83 134.91 75.13
  Q 134.91 75.70 134.36 75.85
  Q 133.32 76.12 133.12 77.10
  Q 133.03 77.55 132.66 77.84
  Q 131.42 78.80 130.89 80.22
  Q 130.75 80.61 130.45 80.89
  Q 129.90 81.41 129.90 82.18
  Q 129.90 82.61 129.54 82.84
  Q 128.91 83.26 128.71 83.96
  Q 128.59 84.36 128.34 84.71
  L 123.99 90.83
  A 0.46 0.44 59.6 0 0 123.91 91.17
  Q 123.99 91.75 123.43 92.00
  A 0.79 0.78 -8.6 0 0 122.98 92.60
  Q 122.71 94.65 120.63 94.99
  A 0.74 0.73 1.1 0 0 120.02 95.57
  Q 119.95 95.93 119.68 96.13
  Q 119.41 96.34 119.26 96.65
  L 118.28 98.71
  Q 115.18 98.77 111.65 98.75
  C 105.18 98.72 105.08 105.74 110.14 106.03
  Q 111.97 106.13 113.24 106.19
  L 113.56 108.11
  Q 113.65 108.65 113.16 108.89
  Q 112.27 109.35 112.01 110.31
  Q 111.89 110.75 111.46 110.91
  Q 110.84 111.14 110.87 111.82
  Q 110.90 112.39 110.50 112.81
  L 107.66 115.76
  Q 107.56 115.86 107.63 115.99
  Q 107.72 116.18 107.83 116.36
  Q 107.91 116.49 107.80 116.60
  L 104.17 120.27
  Q 103.83 120.61 103.90 121.08
  Q 104.01 121.85 103.28 121.99
  A 0.57 0.57 0.0 0 0 102.85 122.73
  Q 103.16 123.67 102.41 123.94
  Q 101.96 124.10 101.84 124.56
  L 101.52 125.79
  A 0.12 0.12 0.0 0 1 101.30 125.82
  L 101.07 125.43
  Q 100.90 125.14 100.57 125.17
  Q 100.13 125.21 99.97 125.75
  Q 99.39 127.60 100.53 128.42
  Q 100.85 128.64 100.74 129.01
  C 100.19 130.83 98.00 131.32 97.86 133.03
  Q 97.82 133.47 97.54 133.80
  L 96.52 135.05
  Q 91.96 126.15 91.86 116.03
  L 91.96 112.18
  Q 91.98 111.57 92.57 111.43
  Q 92.80 111.37 92.31 111.04
  A 0.13 0.13 0.0 0 1 92.28 110.85
  Q 92.72 110.30 93.36 109.97
  Q 93.80 109.74 93.95 109.26
  Q 94.50 107.58 95.83 106.82
  Q 96.28 106.56 96.56 106.12
  Q 96.99 105.45 96.90 104.69
  Q 96.84 104.19 97.31 103.98
  Q 98.83 103.29 99.03 101.67
  Q 99.07 101.28 99.35 101.01
  L 103.89 96.48
  A 0.69 0.69 0.0 0 0 103.95 95.57
  L 103.26 94.68
  A 0.45 0.45 0.0 0 1 103.57 93.96
  L 104.55 93.86
  Q 105.26 93.79 105.24 93.07
  Q 105.21 91.91 106.19 91.33
  Q 106.63 91.07 106.81 90.58
  C 107.93 87.35 110.69 86.61 111.88 82.70
  Q 112.02 82.25 112.40 81.97
  C 113.83 80.91 114.39 79.09 115.13 78.15
  Q 116.03 77.02 117.07 76.02
  Q 117.41 75.69 117.60 75.25
  L 118.18 73.83
  Q 118.35 73.42 118.75 73.21
  C 120.24 72.44 120.61 70.92 121.37 69.95
  Q 122.71 68.25 123.99 66.48
  Q 124.07 66.37 124.01 66.25
  Q 123.94 66.12 123.89 65.98
  A 0.54 0.54 0.0 0 1 124.00 65.38
  L 126.34 63.01
  Q 126.74 62.60 126.83 62.03
  Q 126.95 61.22 127.56 60.90
  A 0.76 0.75 71.8 0 0 127.95 60.12
  Q 127.73 58.69 128.58 58.02
  Q 129.03 57.68 129.04 57.12
  Q 129.07 56.10 130.13 56.07
  Q 130.70 56.05 130.80 55.50
  L 131.08 53.93
  Q 131.17 53.42 131.54 53.06
  L 134.73 50.01
  A 1.03 1.02 67.3 0 0 135.05 49.22
  Q 135.01 48.51 135.59 48.13
  A 1.02 1.00 -16.6 0 0 136.03 47.34
  Q 136.06 46.14 137.10 45.94
  A 1.91 1.84 61.8 0 0 138.00 42.75
  Q 137.62 42.36 135.53 42.66
  L 156.80 42.65
  Z" fill="#ff6963"></path>
<path d="M 156.80 42.65
  L 172.53 42.64
  Q 172.97 44.32 171.19 46.38
  Q 170.34 47.37 169.49 48.90
  Q 168.72 50.28 167.41 51.27
  Q 167.02 51.56 167.11 52.04
  Q 167.26 52.76 166.70 52.88
  Q 166.14 53.00 166.02 53.56
  Q 165.96 53.82 165.92 54.08
  Q 165.84 54.64 165.45 55.06
  L 162.33 58.42
  Q 161.97 58.81 161.86 59.31
  Q 161.59 60.48 160.55 61.08
  Q 160.15 61.31 160.14 61.77
  L 159.89 67.73
  Q 153.04 67.79 146.00 67.87
  C 140.78 67.93 140.74 74.62 145.74 75.14
  Q 146.31 76.00 145.62 77.14
  Q 145.34 77.59 144.88 77.83
  Q 144.14 78.21 144.09 79.06
  Q 144.06 79.55 143.71 79.88
  Q 141.72 81.76 140.50 84.21
  C 140.02 85.18 140.17 86.57 138.96 87.32
  Q 138.58 87.56 138.39 87.96
  Q 137.85 89.09 136.88 89.84
  A 0.12 0.11 68.3 0 0 136.84 89.95
  Q 136.88 90.15 137.04 90.28
  A 0.28 0.28 0.0 0 1 137.01 90.74
  Q 135.88 91.43 135.12 92.48
  Q 134.87 92.83 134.48 92.98
  Q 133.96 93.18 133.98 93.87
  A 1.38 1.36 -30.0 0 1 133.77 94.63
  L 131.05 98.72
  L 118.28 98.71
  L 119.26 96.65
  Q 119.41 96.34 119.68 96.13
  Q 119.95 95.93 120.02 95.57
  A 0.74 0.73 1.1 0 1 120.63 94.99
  Q 122.71 94.65 122.98 92.60
  A 0.79 0.78 -8.6 0 1 123.43 92.00
  Q 123.99 91.75 123.91 91.17
  A 0.46 0.44 59.6 0 1 123.99 90.83
  L 128.34 84.71
  Q 128.59 84.36 128.71 83.96
  Q 128.91 83.26 129.54 82.84
  Q 129.90 82.61 129.90 82.18
  Q 129.90 81.41 130.45 80.89
  Q 130.75 80.61 130.89 80.22
  Q 131.42 78.80 132.66 77.84
  Q 133.03 77.55 133.12 77.10
  Q 133.32 76.12 134.36 75.85
  Q 134.91 75.70 134.91 75.13
  Q 134.89 73.83 136.22 73.91
  Q 136.96 73.96 136.72 73.26
  Q 136.45 72.44 137.29 71.97
  Q 137.76 71.71 137.84 71.19
  C 138.22 68.96 140.72 68.79 141.08 66.20
  A 0.73 0.70 65.4 0 1 141.17 65.94
  Q 142.48 63.78 143.69 63.68
  Q 143.88 63.66 143.88 63.46
  L 143.89 63.05
  Q 143.89 62.64 144.15 62.33
  L 145.45 60.76
  Q 145.82 60.32 145.87 59.75
  Q 145.92 59.30 146.31 58.97
  Q 146.68 58.65 146.85 58.18
  Q 147.35 56.85 148.35 55.80
  Q 148.66 55.48 148.88 55.10
  Q 149.90 53.27 151.49 51.89
  Q 151.82 51.60 151.75 51.17
  Q 151.70 50.87 151.80 50.56
  A 0.75 0.72 85.3 0 1 152.15 50.13
  Q 153.62 49.34 153.98 47.76
  A 1.67 1.66 -12.7 0 1 154.59 46.80
  Q 157.22 44.76 156.80 42.65
  Z" fill="#ff755a"></path>
<path d="M 172.53 42.64
  L 194.25 42.62
  Q 196.53 44.83 193.56 46.09
  Q 193.09 46.29 193.10 46.80
  Q 193.12 47.28 192.88 47.63
  C 192.05 48.80 191.90 49.04 191.62 50.20
  Q 191.42 51.06 191.01 51.43
  Q 190.52 51.87 189.86 51.96
  Q 189.31 52.03 189.19 52.58
  Q 188.56 55.39 186.21 57.23
  Q 185.94 57.44 185.93 57.94
  Q 185.92 58.50 185.53 58.91
  L 183.00 61.58
  Q 182.91 61.68 182.91 61.81
  L 182.91 62.20
  Q 182.91 62.48 182.73 62.71
  L 178.74 67.72
  L 159.89 67.73
  L 160.14 61.77
  Q 160.15 61.31 160.55 61.08
  Q 161.59 60.48 161.86 59.31
  Q 161.97 58.81 162.33 58.42
  L 165.45 55.06
  Q 165.84 54.64 165.92 54.08
  Q 165.96 53.82 166.02 53.56
  Q 166.14 53.00 166.70 52.88
  Q 167.26 52.76 167.11 52.04
  Q 167.02 51.56 167.41 51.27
  Q 168.72 50.28 169.49 48.90
  Q 170.34 47.37 171.19 46.38
  Q 172.97 44.32 172.53 42.64
  Z" fill="#ff854e"></path>
<path d="M 194.25 42.62
  L 209.12 42.62
  Q 209.87 42.62 209.87 43.38
  L 209.88 67.72
  L 178.74 67.72
  L 182.73 62.71
  Q 182.91 62.48 182.91 62.20
  L 182.91 61.81
  Q 182.91 61.68 183.00 61.58
  L 185.53 58.91
  Q 185.92 58.50 185.93 57.94
  Q 185.94 57.44 186.21 57.23
  Q 188.56 55.39 189.19 52.58
  Q 189.31 52.03 189.86 51.96
  Q 190.52 51.87 191.01 51.43
  Q 191.42 51.06 191.62 50.20
  C 191.90 49.04 192.05 48.80 192.88 47.63
  Q 193.12 47.28 193.10 46.80
  Q 193.09 46.29 193.56 46.09
  Q 196.53 44.83 194.25 42.62
  Z" fill="#ff9443"></path>
<path d="M 135.53 42.66
  Q 137.62 42.36 138.00 42.75
  A 1.91 1.84 61.8 0 1 137.10 45.94
  Q 136.06 46.14 136.03 47.34
  A 1.02 1.00 -16.6 0 1 135.59 48.13
  Q 135.01 48.51 135.05 49.22
  A 1.03 1.02 67.3 0 1 134.73 50.01
  L 131.54 53.06
  Q 131.17 53.42 131.08 53.93
  L 130.80 55.50
  Q 130.70 56.05 130.13 56.07
  Q 129.07 56.10 129.04 57.12
  Q 129.03 57.68 128.58 58.02
  Q 127.73 58.69 127.95 60.12
  A 0.76 0.75 71.8 0 1 127.56 60.90
  Q 126.95 61.22 126.83 62.03
  Q 126.74 62.60 126.34 63.01
  L 124.00 65.38
  A 0.54 0.54 0.0 0 0 123.89 65.98
  Q 123.94 66.12 124.01 66.25
  Q 124.07 66.37 123.99 66.48
  Q 122.71 68.25 121.37 69.95
  C 120.61 70.92 120.24 72.44 118.75 73.21
  Q 118.35 73.42 118.18 73.83
  L 117.60 75.25
  Q 117.41 75.69 117.07 76.02
  Q 116.03 77.02 115.13 78.15
  C 114.39 79.09 113.83 80.91 112.40 81.97
  Q 112.02 82.25 111.88 82.70
  C 110.69 86.61 107.93 87.35 106.81 90.58
  Q 106.63 91.07 106.19 91.33
  Q 105.21 91.91 105.24 93.07
  Q 105.26 93.79 104.55 93.86
  L 103.57 93.96
  A 0.45 0.45 0.0 0 0 103.26 94.68
  L 103.95 95.57
  A 0.69 0.69 0.0 0 1 103.89 96.48
  L 99.35 101.01
  Q 99.07 101.28 99.03 101.67
  Q 98.83 103.29 97.31 103.98
  Q 96.84 104.19 96.90 104.69
  Q 96.99 105.45 96.56 106.12
  Q 96.28 106.56 95.83 106.82
  Q 94.50 107.58 93.95 109.26
  Q 93.80 109.74 93.36 109.97
  Q 92.72 110.30 92.28 110.85
  A 0.13 0.13 0.0 0 0 92.31 111.04
  Q 92.80 111.37 92.57 111.43
  Q 91.98 111.57 91.96 112.18
  L 91.86 116.03
  Q 91.90 104.92 91.86 93.78
  Q 91.81 81.43 93.20 75.81
  C 97.92 56.62 115.51 42.94 135.53 42.66
  Z" fill="#ff5a6e"></path>
<path d="M 159.89 67.73
  L 178.74 67.72
  L 209.88 67.72
  L 215.00 67.74
  A 3.65 3.64 -27.1 0 1 217.12 68.42
  C 220.55 70.84 218.25 75.51 214.25 75.21
  Q 211.92 75.03 209.81 75.19
  L 206.47 75.14
  L 174.58 75.16
  L 145.74 75.14
  C 140.74 74.62 140.78 67.93 146.00 67.87
  Q 153.04 67.79 159.89 67.73
  Z" fill="#ffffff"></path>
<path d="M 145.74 75.14
  L 174.58 75.16
  Q 173.01 75.92 172.31 77.35
  Q 172.29 77.38 172.07 78.23
  Q 171.92 78.80 171.28 78.89
  Q 170.87 78.95 170.96 79.35
  Q 171.22 80.67 170.03 81.13
  Q 167.80 81.99 168.13 84.25
  Q 168.23 84.94 167.67 85.04
  Q 167.24 85.12 166.96 85.45
  L 164.23 88.58
  Q 163.92 88.93 163.87 89.40
  Q 163.81 89.92 163.21 90.13
  Q 163.10 90.17 162.99 90.12
  Q 162.87 90.05 162.75 89.98
  Q 162.24 89.69 162.13 90.26
  Q 162.00 90.94 161.41 91.33
  A 0.76 0.76 0.0 0 0 161.09 92.16
  Q 161.38 93.34 160.53 93.95
  Q 160.12 94.26 160.12 94.77
  L 160.12 95.30
  Q 160.12 95.85 159.61 96.03
  Q 157.63 96.74 158.74 98.74
  L 131.05 98.72
  L 133.77 94.63
  A 1.38 1.36 -30.0 0 0 133.98 93.87
  Q 133.96 93.18 134.48 92.98
  Q 134.87 92.83 135.12 92.48
  Q 135.88 91.43 137.01 90.74
  A 0.28 0.28 0.0 0 0 137.04 90.28
  Q 136.88 90.15 136.84 89.95
  A 0.12 0.11 68.3 0 1 136.88 89.84
  Q 137.85 89.09 138.39 87.96
  Q 138.58 87.56 138.96 87.32
  C 140.17 86.57 140.02 85.18 140.50 84.21
  Q 141.72 81.76 143.71 79.88
  Q 144.06 79.55 144.09 79.06
  Q 144.14 78.21 144.88 77.83
  Q 145.34 77.59 145.62 77.14
  Q 146.31 76.00 145.74 75.14
  Z" fill="#ff854e"></path>
<path d="M 206.47 75.14
  L 204.36 75.40
  Q 203.44 75.52 204.26 75.86
  Q 204.47 75.95 204.51 76.23
  Q 204.58 76.68 204.22 76.96
  Q 202.51 78.28 201.82 80.35
  A 1.32 1.31 83.4 0 1 201.27 81.05
  C 199.96 81.86 199.87 83.26 199.23 84.09
  Q 198.21 85.42 196.94 86.54
  A 0.09 0.09 0.0 0 0 196.94 86.68
  Q 197.05 86.78 197.15 86.91
  Q 197.30 87.10 197.21 87.34
  Q 196.88 88.22 195.80 88.45
  Q 195.49 88.52 195.51 88.83
  Q 195.53 89.07 195.68 89.29
  A 0.29 0.29 0.0 0 1 195.62 89.68
  Q 194.26 90.81 193.80 92.49
  Q 193.68 92.94 193.22 92.88
  Q 192.40 92.78 192.15 93.49
  Q 191.75 94.62 191.90 96.86
  Q 191.94 97.40 191.57 97.80
  L 188.12 101.49
  Q 188.12 101.50 188.16 101.60
  Q 188.19 101.64 188.21 101.68
  Q 188.32 101.87 188.22 102.00
  Q 187.27 103.21 186.13 104.25
  Q 185.84 104.51 185.88 105.17
  Q 185.90 105.60 185.60 105.90
  L 182.49 109.02
  Q 182.16 109.34 182.25 109.80
  Q 182.43 110.71 181.86 111.38
  Q 180.76 112.66 177.66 115.84
  Q 177.31 116.19 177.18 116.66
  Q 176.99 117.35 176.23 117.98
  Q 175.88 118.27 175.87 118.78
  Q 175.86 119.27 175.60 119.69
  L 174.15 122.06
  Q 173.88 122.51 173.46 122.82
  Q 172.81 123.32 172.64 124.11
  Q 172.55 124.57 172.12 124.77
  Q 170.48 125.50 169.81 127.19
  Q 169.65 127.59 169.29 127.80
  Q 167.45 128.86 168.64 129.71
  L 153.98 129.69
  L 153.31 129.62
  Q 152.64 129.55 153.02 128.99
  Q 153.42 128.41 152.77 128.25
  A 0.13 0.13 0.0 0 1 152.74 128.01
  Q 152.88 127.94 153.02 127.87
  Q 153.29 127.73 153.41 127.45
  Q 153.93 126.26 155.07 125.62
  Q 155.55 125.34 155.73 124.81
  Q 155.92 124.24 156.43 124.04
  Q 156.95 123.83 156.87 123.28
  Q 156.75 122.41 157.50 121.89
  C 158.59 121.13 158.44 119.73 159.16 119.14
  Q 159.56 118.82 160.13 118.87
  Q 160.62 118.92 160.76 118.44
  Q 161.19 116.96 162.40 115.96
  Q 162.79 115.65 162.83 115.15
  Q 162.90 114.40 163.53 113.99
  Q 163.95 113.72 163.89 113.21
  Q 163.81 112.51 164.13 112.25
  Q 167.32 109.69 167.79 106.16
  L 180.37 105.97
  A 2.92 2.92 0.0 0 0 183.25 103.10
  L 183.26 102.37
  Q 183.33 98.82 179.77 98.81
  L 158.74 98.74
  Q 157.63 96.74 159.61 96.03
  Q 160.12 95.85 160.12 95.30
  L 160.12 94.77
  Q 160.12 94.26 160.53 93.95
  Q 161.38 93.34 161.09 92.16
  A 0.76 0.76 0.0 0 1 161.41 91.33
  Q 162.00 90.94 162.13 90.26
  Q 162.24 89.69 162.75 89.98
  Q 162.87 90.05 162.99 90.12
  Q 163.10 90.17 163.21 90.13
  Q 163.81 89.92 163.87 89.40
  Q 163.92 88.93 164.23 88.58
  L 166.96 85.45
  Q 167.24 85.12 167.67 85.04
  Q 168.23 84.94 168.13 84.25
  Q 167.80 81.99 170.03 81.13
  Q 171.22 80.67 170.96 79.35
  Q 170.87 78.95 171.28 78.89
  Q 171.92 78.80 172.07 78.23
  Q 172.29 77.38 172.31 77.35
  Q 173.01 75.92 174.58 75.16
  L 206.47 75.14
  Z" fill="#ff9c3d"></path>
<path d="M 206.47 75.14
  L 209.81 75.19
  L 209.80 89.56
  Q 208.26 88.07 208.08 90.39
  Q 208.04 90.93 207.59 91.22
  Q 205.81 92.36 205.04 94.32
  Q 204.84 94.84 204.40 95.18
  Q 202.88 96.36 203.11 98.20
  Q 203.16 98.56 202.92 98.83
  Q 202.80 98.97 202.64 99.05
  Q 202.60 99.07 202.02 99.74
  Q 201.64 100.18 201.16 100.14
  Q 200.57 100.08 200.38 100.64
  Q 199.45 103.41 197.41 105.38
  Q 197.04 105.73 197.10 106.23
  Q 197.23 107.26 196.88 108.23
  A 0.88 0.86 -85.1 0 1 196.22 108.80
  Q 194.45 109.14 194.09 110.92
  Q 194.00 111.39 193.68 111.73
  L 191.18 114.44
  Q 191.11 114.51 191.12 114.61
  Q 191.12 114.77 191.12 114.92
  Q 191.11 115.14 190.96 115.32
  L 188.16 118.62
  Q 187.90 118.92 187.89 119.31
  Q 187.87 119.73 187.54 119.94
  Q 187.01 120.27 186.96 120.32
  Q 185.25 122.06 184.69 124.52
  Q 184.49 125.42 183.57 125.53
  Q 182.93 125.61 182.63 126.18
  Q 182.39 126.66 182.53 127.18
  Q 182.65 127.65 182.34 128.16
  Q 182.14 128.49 181.76 128.57
  Q 181.01 128.73 181.05 129.73
  L 168.64 129.71
  Q 167.45 128.86 169.29 127.80
  Q 169.65 127.59 169.81 127.19
  Q 170.48 125.50 172.12 124.77
  Q 172.55 124.57 172.64 124.11
  Q 172.81 123.32 173.46 122.82
  Q 173.88 122.51 174.15 122.06
  L 175.60 119.69
  Q 175.86 119.27 175.87 118.78
  Q 175.88 118.27 176.23 117.98
  Q 176.99 117.35 177.18 116.66
  Q 177.31 116.19 177.66 115.84
  Q 180.76 112.66 181.86 111.38
  Q 182.43 110.71 182.25 109.80
  Q 182.16 109.34 182.49 109.02
  L 185.60 105.90
  Q 185.90 105.60 185.88 105.17
  Q 185.84 104.51 186.13 104.25
  Q 187.27 103.21 188.22 102.00
  Q 188.32 101.87 188.21 101.68
  Q 188.19 101.64 188.16 101.60
  Q 188.12 101.50 188.12 101.49
  L 191.57 97.80
  Q 191.94 97.40 191.90 96.86
  Q 191.75 94.62 192.15 93.49
  Q 192.40 92.78 193.22 92.88
  Q 193.68 92.94 193.80 92.49
  Q 194.26 90.81 195.62 89.68
  A 0.29 0.29 0.0 0 0 195.68 89.29
  Q 195.53 89.07 195.51 88.83
  Q 195.49 88.52 195.80 88.45
  Q 196.88 88.22 197.21 87.34
  Q 197.30 87.10 197.15 86.91
  Q 197.05 86.78 196.94 86.68
  A 0.09 0.09 0.0 0 1 196.94 86.54
  Q 198.21 85.42 199.23 84.09
  C 199.87 83.26 199.96 81.86 201.27 81.05
  A 1.32 1.31 83.4 0 0 201.82 80.35
  Q 202.51 78.28 204.22 76.96
  Q 204.58 76.68 204.51 76.23
  Q 204.47 75.95 204.26 75.86
  Q 203.44 75.52 204.36 75.40
  L 206.47 75.14
  Z" fill="#ffaa32"></path>
<path d="M 75.63 88.75
  A 0.38 0.38 0.0 0 0 75.25 88.37
  L 32.76 88.36
  A 2.77 2.76 1.2 0 1 29.99 85.48
  L 30.03 84.57
  Q 30.19 81.00 33.77 81.00
  L 82.74 81.00
  A 0.28 0.27 90.0 0 1 83.01 81.28
  Q 82.97 94.55 83.01 107.86
  Q 83.05 121.27 84.59 127.50
  C 89.58 147.71 106.61 163.42 126.82 167.13
  Q 132.44 168.17 146.75 168.13
  Q 170.19 168.08 194.36 168.16
  A 2.83 2.82 -89.3 0 1 197.17 171.05
  L 197.15 171.91
  Q 197.06 175.51 193.46 175.50
  Q 169.37 175.46 145.50 175.53
  Q 131.94 175.57 125.58 174.36
  C 104.22 170.32 87.11 155.85 79.34 135.58
  Q 75.64 125.92 75.63 116.50
  Q 75.62 102.57 75.63 88.75
  Z" fill="#ffffff"></path>
<path d="M 209.80 89.56
  Q 210.13 110.53 209.68 120.25
  Q 209.52 123.81 207.52 129.72
  L 181.05 129.73
  Q 181.01 128.73 181.76 128.57
  Q 182.14 128.49 182.34 128.16
  Q 182.65 127.65 182.53 127.18
  Q 182.39 126.66 182.63 126.18
  Q 182.93 125.61 183.57 125.53
  Q 184.49 125.42 184.69 124.52
  Q 185.25 122.06 186.96 120.32
  Q 187.01 120.27 187.54 119.94
  Q 187.87 119.73 187.89 119.31
  Q 187.90 118.92 188.16 118.62
  L 190.96 115.32
  Q 191.11 115.14 191.12 114.92
  Q 191.12 114.77 191.12 114.61
  Q 191.11 114.51 191.18 114.44
  L 193.68 111.73
  Q 194.00 111.39 194.09 110.92
  Q 194.45 109.14 196.22 108.80
  A 0.88 0.86 -85.1 0 0 196.88 108.23
  Q 197.23 107.26 197.10 106.23
  Q 197.04 105.73 197.41 105.38
  Q 199.45 103.41 200.38 100.64
  Q 200.57 100.08 201.16 100.14
  Q 201.64 100.18 202.02 99.74
  Q 202.60 99.07 202.64 99.05
  Q 202.80 98.97 202.92 98.83
  Q 203.16 98.56 203.11 98.20
  Q 202.88 96.36 204.40 95.18
  Q 204.84 94.84 205.04 94.32
  Q 205.81 92.36 207.59 91.22
  Q 208.04 90.93 208.08 90.39
  Q 208.26 88.07 209.80 89.56
  Z" fill="#ffb52a"></path>
<path d="M 118.28 98.71
  L 131.05 98.72
  L 158.74 98.74
  L 179.77 98.81
  Q 183.33 98.82 183.26 102.37
  L 183.25 103.10
  A 2.92 2.92 0.0 0 1 180.37 105.97
  L 167.79 106.16
  L 152.47 106.15
  L 128.23 106.18
  L 113.24 106.19
  Q 111.97 106.13 110.14 106.03
  C 105.08 105.74 105.18 98.72 111.65 98.75
  Q 115.18 98.77 118.28 98.71
  Z" fill="#ffffff"></path>
<path d="M 128.23 106.18
  L 126.03 110.70
  Q 125.86 111.05 125.50 111.18
  Q 125.02 111.36 125.09 111.84
  Q 125.17 112.32 124.84 112.69
  L 122.30 115.42
  Q 122.11 115.63 122.13 115.92
  Q 122.16 116.18 122.10 116.42
  Q 122.04 116.69 121.73 116.95
  Q 120.59 117.91 119.64 119.09
  Q 119.28 119.54 119.21 120.11
  Q 119.12 120.81 118.53 121.10
  Q 118.13 121.30 118.13 121.75
  C 118.12 123.03 116.43 123.59 116.07 124.92
  A 1.81 1.79 71.2 0 1 115.77 125.54
  L 106.52 138.30
  Q 106.29 138.62 106.18 139.00
  Q 105.69 140.68 104.05 141.48
  Q 104.00 141.50 103.97 141.47
  L 103.76 141.25
  Q 103.62 141.12 103.49 141.24
  Q 102.80 141.86 103.24 142.90
  Q 103.41 143.32 103.11 143.66
  Q 102.91 143.88 102.58 144.05
  Q 98.91 139.95 96.52 135.05
  L 97.54 133.80
  Q 97.82 133.47 97.86 133.03
  C 98.00 131.32 100.19 130.83 100.74 129.01
  Q 100.85 128.64 100.53 128.42
  Q 99.39 127.60 99.97 125.75
  Q 100.13 125.21 100.57 125.17
  Q 100.90 125.14 101.07 125.43
  L 101.30 125.82
  A 0.12 0.12 0.0 0 0 101.52 125.79
  L 101.84 124.56
  Q 101.96 124.10 102.41 123.94
  Q 103.16 123.67 102.85 122.73
  A 0.57 0.57 0.0 0 1 103.28 121.99
  Q 104.01 121.85 103.90 121.08
  Q 103.83 120.61 104.17 120.27
  L 107.80 116.60
  Q 107.91 116.49 107.83 116.36
  Q 107.72 116.18 107.63 115.99
  Q 107.56 115.86 107.66 115.76
  L 110.50 112.81
  Q 110.90 112.39 110.87 111.82
  Q 110.84 111.14 111.46 110.91
  Q 111.89 110.75 112.01 110.31
  Q 112.27 109.35 113.16 108.89
  Q 113.65 108.65 113.56 108.11
  L 113.24 106.19
  L 128.23 106.18
  Z" fill="#ff755a"></path>
<path d="M 152.47 106.15
  Q 152.74 106.49 152.23 106.94
  A 2.58 2.38 -9.0 0 0 151.71 107.60
  Q 151.56 107.87 151.67 108.10
  Q 151.90 108.61 151.51 109.00
  L 151.25 109.25
  A 2.27 2.15 -14.5 0 0 150.75 110.05
  Q 150.34 111.25 149.34 112.06
  Q 148.95 112.38 148.84 112.86
  Q 148.52 114.29 147.20 115.08
  Q 146.73 115.36 146.85 115.90
  Q 147.27 117.86 145.62 118.83
  Q 145.12 119.13 145.13 119.71
  Q 145.15 120.54 144.47 120.94
  Q 144.02 121.20 143.66 121.58
  Q 143.02 122.27 142.83 123.15
  Q 142.73 123.61 142.39 123.95
  Q 140.56 125.74 139.84 128.25
  Q 139.54 129.29 137.60 129.96
  Q 137.09 130.13 136.95 130.65
  Q 136.84 131.07 136.86 131.50
  Q 136.87 131.94 136.61 132.29
  L 130.49 140.13
  Q 130.18 140.53 130.11 141.02
  C 130.02 141.67 129.90 142.07 129.46 142.60
  Q 127.99 144.33 126.48 146.00
  C 125.21 147.40 124.30 149.37 122.67 150.81
  A 1.58 1.51 -15.4 0 0 122.19 151.61
  Q 121.58 154.14 118.94 155.80
  Q 109.44 151.86 102.58 144.05
  Q 102.91 143.88 103.11 143.66
  Q 103.41 143.32 103.24 142.90
  Q 102.80 141.86 103.49 141.24
  Q 103.62 141.12 103.76 141.25
  L 103.97 141.47
  Q 104.00 141.50 104.05 141.48
  Q 105.69 140.68 106.18 139.00
  Q 106.29 138.62 106.52 138.30
  L 115.77 125.54
  A 1.81 1.79 71.2 0 0 116.07 124.92
  C 116.43 123.59 118.12 123.03 118.13 121.75
  Q 118.13 121.30 118.53 121.10
  Q 119.12 120.81 119.21 120.11
  Q 119.28 119.54 119.64 119.09
  Q 120.59 117.91 121.73 116.95
  Q 122.04 116.69 122.10 116.42
  Q 122.16 116.18 122.13 115.92
  Q 122.11 115.63 122.30 115.42
  L 124.84 112.69
  Q 125.17 112.32 125.09 111.84
  Q 125.02 111.36 125.50 111.18
  Q 125.86 111.05 126.03 110.70
  L 128.23 106.18
  L 152.47 106.15
  Z" fill="#ff854e"></path>
<path d="M 167.79 106.16
  Q 167.32 109.69 164.13 112.25
  Q 163.81 112.51 163.89 113.21
  Q 163.95 113.72 163.53 113.99
  Q 162.90 114.40 162.83 115.15
  Q 162.79 115.65 162.40 115.96
  Q 161.19 116.96 160.76 118.44
  Q 160.62 118.92 160.13 118.87
  Q 159.56 118.82 159.16 119.14
  C 158.44 119.73 158.59 121.13 157.50 121.89
  Q 156.75 122.41 156.87 123.28
  Q 156.95 123.83 156.43 124.04
  Q 155.92 124.24 155.73 124.81
  Q 155.55 125.34 155.07 125.62
  Q 153.93 126.26 153.41 127.45
  Q 153.29 127.73 153.02 127.87
  Q 152.88 127.94 152.74 128.01
  A 0.13 0.13 0.0 0 0 152.77 128.25
  Q 153.42 128.41 153.02 128.99
  Q 152.64 129.55 153.31 129.62
  L 153.98 129.69
  Q 148.68 129.81 149.56 134.83
  L 142.53 144.22
  Q 142.27 144.57 142.13 145.00
  Q 141.76 146.20 140.67 146.99
  Q 140.23 147.31 140.06 147.82
  Q 139.39 149.92 137.42 151.14
  Q 137.06 151.36 137.13 151.78
  Q 137.23 152.35 136.95 152.79
  A 0.83 0.82 24.4 0 1 136.03 153.13
  Q 135.36 152.94 135.02 153.51
  Q 134.82 153.84 134.98 154.18
  Q 135.33 154.89 134.91 155.88
  Q 134.30 157.31 133.39 158.02
  A 0.05 0.05 0.0 0 0 133.42 158.11
  Q 133.63 158.11 133.80 158.31
  A 0.47 0.47 0.0 0 1 133.54 159.08
  L 133.04 159.17
  Q 125.73 158.64 118.94 155.80
  Q 121.58 154.14 122.19 151.61
  A 1.58 1.51 -15.4 0 1 122.67 150.81
  C 124.30 149.37 125.21 147.40 126.48 146.00
  Q 127.99 144.33 129.46 142.60
  C 129.90 142.07 130.02 141.67 130.11 141.02
  Q 130.18 140.53 130.49 140.13
  L 136.61 132.29
  Q 136.87 131.94 136.86 131.50
  Q 136.84 131.07 136.95 130.65
  Q 137.09 130.13 137.60 129.96
  Q 139.54 129.29 139.84 128.25
  Q 140.56 125.74 142.39 123.95
  Q 142.73 123.61 142.83 123.15
  Q 143.02 122.27 143.66 121.58
  Q 144.02 121.20 144.47 120.94
  Q 145.15 120.54 145.13 119.71
  Q 145.12 119.13 145.62 118.83
  Q 147.27 117.86 146.85 115.90
  Q 146.73 115.36 147.20 115.08
  Q 148.52 114.29 148.84 112.86
  Q 148.95 112.38 149.34 112.06
  Q 150.34 111.25 150.75 110.05
  A 2.27 2.15 -14.5 0 1 151.25 109.25
  L 151.51 109.00
  Q 151.90 108.61 151.67 108.10
  Q 151.56 107.87 151.71 107.60
  A 2.58 2.38 -9.0 0 1 152.23 106.94
  Q 152.74 106.49 152.47 106.15
  L 167.79 106.16
  Z" fill="#ff9443"></path>
<path d="M 153.98 129.69
  L 168.64 129.71
  L 181.05 129.73
  L 207.52 129.72
  Q 214.35 129.77 221.14 129.75
  C 224.95 129.73 227.37 131.78 225.44 135.68
  Q 224.86 136.86 222.62 136.90
  Q 212.86 137.07 204.21 137.18
  L 172.78 137.16
  Q 158.80 137.04 154.00 137.15
  Q 150.85 137.22 149.56 134.83
  Q 148.68 129.81 153.98 129.69
  Z" fill="#ffffff"></path>
<path d="M 149.56 134.83
  Q 150.85 137.22 154.00 137.15
  Q 158.80 137.04 172.78 137.16
  Q 173.15 137.68 173.13 138.08
  Q 173.13 138.30 172.64 138.78
  Q 172.24 139.17 172.13 139.74
  Q 172.04 140.22 171.58 140.37
  Q 170.21 140.84 170.09 142.09
  Q 170.04 142.66 169.69 143.12
  Q 168.71 144.45 168.04 145.96
  A 3.94 0.59 -72.0 0 1 167.59 146.86
  Q 167.14 147.65 166.43 148.14
  Q 166.07 148.39 166.13 148.82
  Q 166.22 149.49 165.65 149.80
  Q 165.29 150.00 165.04 150.32
  L 163.33 152.49
  Q 162.99 152.92 162.86 153.46
  Q 162.62 154.46 161.66 155.02
  Q 161.20 155.29 161.11 155.82
  Q 160.98 156.55 160.43 157.06
  Q 160.11 157.37 160.13 157.82
  Q 160.15 158.54 159.90 159.17
  L 133.04 159.17
  L 133.54 159.08
  A 0.47 0.47 0.0 0 0 133.80 158.31
  Q 133.63 158.11 133.42 158.11
  A 0.05 0.05 0.0 0 1 133.39 158.02
  Q 134.30 157.31 134.91 155.88
  Q 135.33 154.89 134.98 154.18
  Q 134.82 153.84 135.02 153.51
  Q 135.36 152.94 136.03 153.13
  A 0.83 0.82 24.4 0 0 136.95 152.79
  Q 137.23 152.35 137.13 151.78
  Q 137.06 151.36 137.42 151.14
  Q 139.39 149.92 140.06 147.82
  Q 140.23 147.31 140.67 146.99
  Q 141.76 146.20 142.13 145.00
  Q 142.27 144.57 142.53 144.22
  L 149.56 134.83
  Z" fill="#ffaa32"></path>
<path d="M 204.21 137.18
  Q 188.99 161.11 159.90 159.17
  Q 160.15 158.54 160.13 157.82
  Q 160.11 157.37 160.43 157.06
  Q 160.98 156.55 161.11 155.82
  Q 161.20 155.29 161.66 155.02
  Q 162.62 154.46 162.86 153.46
  Q 162.99 152.92 163.33 152.49
  L 165.04 150.32
  Q 165.29 150.00 165.65 149.80
  Q 166.22 149.49 166.13 148.82
  Q 166.07 148.39 166.43 148.14
  Q 167.14 147.65 167.59 146.86
  A 3.94 0.59 -72.0 0 0 168.04 145.96
  Q 168.71 144.45 169.69 143.12
  Q 170.04 142.66 170.09 142.09
  Q 170.21 140.84 171.58 140.37
  Q 172.04 140.22 172.13 139.74
  Q 172.24 139.17 172.64 138.78
  Q 173.13 138.30 173.13 138.08
  Q 173.15 137.68 172.78 137.16
  L 204.21 137.18
  Z" fill="#ffb52a"></path>
<path d="M 149.40 196.13
  A 16.23 16.23 0.0 0 1 133.17 212.36
  A 16.23 16.23 0.0 0 1 116.94 196.13
  A 16.23 16.23 0.0 0 1 133.17 179.90
  A 16.23 16.23 0.0 0 1 149.40 196.13
  Z
  M 142.04 196.14
  A 8.86 8.86 0.0 0 0 133.18 187.28
  A 8.86 8.86 0.0 0 0 124.32 196.14
  A 8.86 8.86 0.0 0 0 133.18 205.00
  A 8.86 8.86 0.0 0 0 142.04 196.14
  Z" fill="#ffffff"></path>
<path d="M 198.10 196.15
  A 16.23 16.23 0.0 0 1 181.87 212.38
  A 16.23 16.23 0.0 0 1 165.64 196.15
  A 16.23 16.23 0.0 0 1 181.87 179.92
  A 16.23 16.23 0.0 0 1 198.10 196.15
  Z
  M 190.72 196.15
  A 8.86 8.86 0.0 0 0 181.86 187.29
  A 8.86 8.86 0.0 0 0 173.00 196.15
  A 8.86 8.86 0.0 0 0 181.86 205.01
  A 8.86 8.86 0.0 0 0 190.72 196.15
  Z" fill="#ffffff"></path>
<circle r="8.86" cy="196.14" cx="133.18" fill="#0d0e11"></circle>
<circle r="8.86" cy="196.15" cx="181.86" fill="#0d0e11"></circle>
</svg>
