<svg viewBox="0.00 0.00 256.00 256.00" version="1.1" xmlns="http://www.w3.org/2000/svg">
<path d="M 89.75 62.51
  A 0.26 0.26 0.0 0 0 89.49 62.25
  L 66.01 62.25
  A 0.26 0.26 0.0 0 0 65.75 62.51
  L 65.75 193.49
  A 0.26 0.26 0.0 0 0 66.01 193.75
  L 89.49 193.75
  A 0.26 0.26 0.0 0 0 89.75 193.49
  L 89.75 62.51" stroke-linecap="butt" fill="none" stroke-width="2.00" stroke="#fe929f"></path>
<path d="M 0.00 0.00
  L 256.00 0.00
  L 256.00 256.00
  L 0.00 256.00
  L 0.00 0.00
  Z
  M 89.75 62.51
  A 0.26 0.26 0.0 0 0 89.49 62.25
  L 66.01 62.25
  A 0.26 0.26 0.0 0 0 65.75 62.51
  L 65.75 193.49
  A 0.26 0.26 0.0 0 0 66.01 193.75
  L 89.49 193.75
  A 0.26 0.26 0.0 0 0 89.75 193.49
  L 89.75 62.51
  Z" fill="#fd243e"></path>
<rect rx="0.26" height="131.50" width="24.00" y="62.25" x="65.75" fill="#ffffff"></rect>
</svg>
