<svg viewBox="0.00 0.00 32.00 32.00" version="1.1" xmlns="http://www.w3.org/2000/svg">
<g stroke-linecap="butt" fill="none" stroke-width="2.00">
<path d="M 12.31 9.43
  C 13.76 6.83 18.28 5.42 19.22 8.61
  Q 19.89 10.86 20.25 8.54
  Q 20.31 8.17 19.40 7.32
  Q 14.93 3.13 11.49 8.47
  A 0.54 0.53 -46.2 0 0 11.50 9.06
  L 11.77 9.45
  A 0.32 0.32 0.0 0 0 12.31 9.43" stroke="#897476"></path>
<path d="M 9.1432 9.0967
  A 0.97 0.69 30.8 0 0 8.6633 8.0073
  A 0.97 0.69 30.8 0 0 7.4768 8.1033
  A 0.97 0.69 30.8 0 0 7.9567 9.1927
  A 0.97 0.69 30.8 0 0 9.1432 9.0967" stroke="#514e74"></path>
<path d="M 15.31 9.34
  L 16.94 9.13
  Q 18.07 8.98 17.04 8.48
  Q 16.20 8.07 15.27 8.34
  Q 14.98 8.43 14.88 8.72
  Q 14.79 9.04 14.95 9.22
  Q 15.10 9.37 15.31 9.34" stroke="#514e74"></path>
<path d="M 24.1849 12.8356
  A 1.27 1.10 111.0 0 0 25.6669 12.0442
  A 1.27 1.10 111.0 0 0 25.0951 10.4644
  A 1.27 1.10 111.0 0 0 23.6131 11.2558
  A 1.27 1.10 111.0 0 0 24.1849 12.8356" stroke="#897476"></path>
<path d="M 9.49 12.28
  A 0.68 0.68 0.0 0 0 8.74 11.31
  Q 7.80 11.51 7.31 12.34
  A 1.16 1.15 -56.1 0 0 7.60 13.85
  Q 8.64 14.63 8.29 15.91
  Q 8.07 16.72 8.14 17.05
  Q 8.29 17.77 8.89 18.08
  Q 9.47 18.37 9.22 17.77
  Q 8.09 15.00 9.49 12.28" stroke="#7c724d"></path>
<path d="M 11.95 15.05
  Q 13.12 16.09 12.46 17.96
  A 0.50 0.50 0.0 0 0 12.94 18.63
  Q 13.39 18.63 13.77 18.37
  A 1.02 1.00 70.6 0 0 14.20 17.45
  Q 14.02 15.63 15.64 14.65" stroke="#897476"></path>
<path d="M 15.64 14.65
  Q 15.69 13.48 15.95 13.40" stroke="#514e74"></path>
<path d="M 15.95 13.40
  Q 18.67 12.27 20.44 14.26
  Q 20.81 14.68 21.37 14.75
  Q 21.96 14.83 22.45 14.13
  A 0.80 0.80 0.0 0 0 21.96 12.89
  L 13.63 11.12
  A 1.81 1.80 -1.3 0 0 11.50 13.34
  L 11.95 15.05" stroke="#7c724d"></path>
<path d="M 15.95 13.40
  Q 14.93 13.39 14.16 12.40
  Q 13.80 11.94 13.38 12.34
  Q 12.96 12.73 13.08 13.80" stroke="#b4a296"></path>
<path d="M 13.08 13.80
  L 12.62 13.87
  Q 12.20 13.93 12.11 14.35
  L 11.95 15.05" stroke="#ecc899"></path>
<path d="M 15.64 14.65
  Q 15.65 14.44 15.63 14.29
  Q 15.60 13.86 15.17 13.85
  L 13.08 13.80" stroke="#c1a4c0"></path>
<path d="M 21.23 17.73
  Q 20.67 17.94 20.31 17.84
  Q 19.85 17.70 19.42 17.93
  Q 18.83 18.27 18.77 18.94
  Q 18.73 19.42 19.21 19.37
  L 23.53 18.86" stroke="#514e74"></path>
<path d="M 23.53 18.86
  Q 23.67 17.77 22.98 17.17
  Q 22.60 16.84 22.12 17.01
  Q 21.53 17.21 21.23 17.73" stroke="#68848d"></path>
<path d="M 23.53 18.86
  Q 19.89 19.18 21.23 17.73" stroke="#9fb5d6"></path>
<path d="M 27.74 21.01
  Q 27.85 20.88 27.88 20.72
  Q 27.92 20.51 27.76 20.31
  Q 27.04 19.45 26.19 20.30
  A 0.89 0.88 -40.7 0 0 26.10 21.45
  Q 27.14 22.85 27.57 21.33
  Q 27.62 21.15 27.74 21.01" stroke="#514e74"></path>
<path d="M 14.66 24.26
  Q 14.90 26.75 16.95 27.10
  Q 17.46 27.19 17.52 26.68
  Q 17.69 25.29 16.60 23.92" stroke="#68848d"></path>
<path d="M 16.60 23.92
  Q 18.00 22.15 20.96 21.72
  Q 21.31 21.67 21.47 21.49
  Q 21.80 21.12 21.78 20.52
  A 0.43 0.43 0.0 0 0 21.26 20.13
  Q 20.94 20.19 20.81 20.54
  A 0.42 0.40 -79.8 0 1 20.45 20.80
  L 13.97 20.98
  Q 13.64 20.99 13.80 21.28
  Q 14.59 22.71 14.66 24.26" stroke="#514e74"></path>
<path d="M 16.60 23.92
  Q 15.33 23.83 14.66 24.26" stroke="#9fb5d6"></path>
<path d="M 10.2680 23.3713
  A 1.64 0.94 121.3 0 0 11.9232 22.4583
  A 1.64 0.94 121.3 0 0 11.9720 20.5687
  A 1.64 0.94 121.3 0 0 10.3168 21.4817
  A 1.64 0.94 121.3 0 0 10.2680 23.3713" stroke="#7c724d"></path>
<path d="M 20.02 24.33
  L 19.62 25.96
  A 0.28 0.28 0.0 0 0 19.83 26.30
  L 20.33 26.42
  A 11.41 1.09 13.7 0 0 31.67 28.06
  L 31.68 28.01
  A 11.41 1.09 13.7 0 0 20.86 24.24
  L 20.36 24.12
  A 0.28 0.28 0.0 0 0 20.02 24.33" stroke="#68848d"></path>
<path d="M 12.4113 24.5530
  A 0.26 0.26 0.0 0 0 12.1008 24.3559
  L 0.3898 26.9737
  A 0.26 0.26 0.0 0 0 0.1928 27.2841
  L 0.5287 28.7870
  A 0.26 0.26 0.0 0 0 0.8392 28.9841
  L 12.5502 26.3663
  A 0.26 0.26 0.0 0 0 12.7472 26.0559
  L 12.4113 24.5530" stroke="#897476"></path>
</g>
<path d="M 0.00 0.00
  L 32.00 0.00
  L 32.00 32.00
  L 0.00 32.00
  L 0.00 0.00
  Z
  M 12.31 9.43
  C 13.76 6.83 18.28 5.42 19.22 8.61
  Q 19.89 10.86 20.25 8.54
  Q 20.31 8.17 19.40 7.32
  Q 14.93 3.13 11.49 8.47
  A 0.54 0.53 -46.2 0 0 11.50 9.06
  L 11.77 9.45
  A 0.32 0.32 0.0 0 0 12.31 9.43
  Z
  M 9.1432 9.0967
  A 0.97 0.69 30.8 0 0 8.6633 8.0073
  A 0.97 0.69 30.8 0 0 7.4768 8.1033
  A 0.97 0.69 30.8 0 0 7.9567 9.1927
  A 0.97 0.69 30.8 0 0 9.1432 9.0967
  Z
  M 15.31 9.34
  L 16.94 9.13
  Q 18.07 8.98 17.04 8.48
  Q 16.20 8.07 15.27 8.34
  Q 14.98 8.43 14.88 8.72
  Q 14.79 9.04 14.95 9.22
  Q 15.10 9.37 15.31 9.34
  Z
  M 24.1849 12.8356
  A 1.27 1.10 111.0 0 0 25.6669 12.0442
  A 1.27 1.10 111.0 0 0 25.0951 10.4644
  A 1.27 1.10 111.0 0 0 23.6131 11.2558
  A 1.27 1.10 111.0 0 0 24.1849 12.8356
  Z
  M 9.49 12.28
  A 0.68 0.68 0.0 0 0 8.74 11.31
  Q 7.80 11.51 7.31 12.34
  A 1.16 1.15 -56.1 0 0 7.60 13.85
  Q 8.64 14.63 8.29 15.91
  Q 8.07 16.72 8.14 17.05
  Q 8.29 17.77 8.89 18.08
  Q 9.47 18.37 9.22 17.77
  Q 8.09 15.00 9.49 12.28
  Z
  M 11.95 15.05
  Q 13.12 16.09 12.46 17.96
  A 0.50 0.50 0.0 0 0 12.94 18.63
  Q 13.39 18.63 13.77 18.37
  A 1.02 1.00 70.6 0 0 14.20 17.45
  Q 14.02 15.63 15.64 14.65
  Q 15.69 13.48 15.95 13.40
  Q 18.67 12.27 20.44 14.26
  Q 20.81 14.68 21.37 14.75
  Q 21.96 14.83 22.45 14.13
  A 0.80 0.80 0.0 0 0 21.96 12.89
  L 13.63 11.12
  A 1.81 1.80 -1.3 0 0 11.50 13.34
  L 11.95 15.05
  Z
  M 21.23 17.73
  Q 20.67 17.94 20.31 17.84
  Q 19.85 17.70 19.42 17.93
  Q 18.83 18.27 18.77 18.94
  Q 18.73 19.42 19.21 19.37
  L 23.53 18.86
  Q 23.67 17.77 22.98 17.17
  Q 22.60 16.84 22.12 17.01
  Q 21.53 17.21 21.23 17.73
  Z
  M 27.74 21.01
  Q 27.85 20.88 27.88 20.72
  Q 27.92 20.51 27.76 20.31
  Q 27.04 19.45 26.19 20.30
  A 0.89 0.88 -40.7 0 0 26.10 21.45
  Q 27.14 22.85 27.57 21.33
  Q 27.62 21.15 27.74 21.01
  Z
  M 14.66 24.26
  Q 14.90 26.75 16.95 27.10
  Q 17.46 27.19 17.52 26.68
  Q 17.69 25.29 16.60 23.92
  Q 18.00 22.15 20.96 21.72
  Q 21.31 21.67 21.47 21.49
  Q 21.80 21.12 21.78 20.52
  A 0.43 0.43 0.0 0 0 21.26 20.13
  Q 20.94 20.19 20.81 20.54
  A 0.42 0.40 -79.8 0 1 20.45 20.80
  L 13.97 20.98
  Q 13.64 20.99 13.80 21.28
  Q 14.59 22.71 14.66 24.26
  Z
  M 10.2680 23.3713
  A 1.64 0.94 121.3 0 0 11.9232 22.4583
  A 1.64 0.94 121.3 0 0 11.9720 20.5687
  A 1.64 0.94 121.3 0 0 10.3168 21.4817
  A 1.64 0.94 121.3 0 0 10.2680 23.3713
  Z
  M 20.02 24.33
  L 19.62 25.96
  A 0.28 0.28 0.0 0 0 19.83 26.30
  L 20.33 26.42
  A 11.41 1.09 13.7 0 0 31.67 28.06
  L 31.68 28.01
  A 11.41 1.09 13.7 0 0 20.86 24.24
  L 20.36 24.12
  A 0.28 0.28 0.0 0 0 20.02 24.33
  Z
  M 12.4113 24.5530
  A 0.26 0.26 0.0 0 0 12.1008 24.3559
  L 0.3898 26.9737
  A 0.26 0.26 0.0 0 0 0.1928 27.2841
  L 0.5287 28.7870
  A 0.26 0.26 0.0 0 0 0.8392 28.9841
  L 12.5502 26.3663
  A 0.26 0.26 0.0 0 0 12.7472 26.0559
  L 12.4113 24.5530
  Z" fill="#191d2a"></path>
<path d="M 19.22 8.61
  C 18.28 5.42 13.76 6.83 12.31 9.43
  A 0.32 0.32 0.0 0 1 11.77 9.45
  L 11.50 9.06
  A 0.54 0.53 -46.2 0 1 11.49 8.47
  Q 14.93 3.13 19.40 7.32
  Q 20.31 8.17 20.25 8.54
  Q 19.89 10.86 19.22 8.61
  Z" fill="#f9cac2"></path>
<ellipse ry="0.69" rx="0.97" transform="translate(8.31,8.60) rotate(30.8)" cy="0.00" cx="0.00" fill="#887ebd"></ellipse>
<path d="M 16.94 9.13
  L 15.31 9.34
  Q 15.10 9.37 14.95 9.22
  Q 14.79 9.04 14.88 8.72
  Q 14.98 8.43 15.27 8.34
  Q 16.20 8.07 17.04 8.48
  Q 18.07 8.98 16.94 9.13
  Z" fill="#887ebd"></path>
<ellipse ry="1.10" rx="1.27" transform="translate(24.64,11.65) rotate(111.0)" cy="0.00" cx="0.00" fill="#f9cac2"></ellipse>
<path d="M 9.49 12.28
  Q 8.09 15.00 9.22 17.77
  Q 9.47 18.37 8.89 18.08
  Q 8.29 17.77 8.14 17.05
  Q 8.07 16.72 8.29 15.91
  Q 8.64 14.63 7.60 13.85
  A 1.16 1.15 -56.1 0 1 7.31 12.34
  Q 7.80 11.51 8.74 11.31
  A 0.68 0.68 0.0 0 1 9.49 12.28
  Z" fill="#dfc66f"></path>
<path d="M 15.95 13.40
  Q 14.93 13.39 14.16 12.40
  Q 13.80 11.94 13.38 12.34
  Q 12.96 12.73 13.08 13.80
  L 12.62 13.87
  Q 12.20 13.93 12.11 14.35
  L 11.95 15.05
  L 11.50 13.34
  A 1.81 1.80 -1.3 0 1 13.63 11.12
  L 21.96 12.89
  A 0.80 0.80 0.0 0 1 22.45 14.13
  Q 21.96 14.83 21.37 14.75
  Q 20.81 14.68 20.44 14.26
  Q 18.67 12.27 15.95 13.40
  Z" fill="#dfc66f"></path>
<path d="M 15.95 13.40
  Q 15.69 13.48 15.64 14.65
  Q 15.65 14.44 15.63 14.29
  Q 15.60 13.86 15.17 13.85
  L 13.08 13.80
  Q 12.96 12.73 13.38 12.34
  Q 13.80 11.94 14.16 12.40
  Q 14.93 13.39 15.95 13.40
  Z" fill="#887ebd"></path>
<path d="M 13.08 13.80
  L 15.17 13.85
  Q 15.60 13.86 15.63 14.29
  Q 15.65 14.44 15.64 14.65
  Q 14.02 15.63 14.20 17.45
  A 1.02 1.00 70.6 0 1 13.77 18.37
  Q 13.39 18.63 12.94 18.63
  A 0.50 0.50 0.0 0 1 12.46 17.96
  Q 13.12 16.09 11.95 15.05
  L 12.11 14.35
  Q 12.20 13.93 12.62 13.87
  L 13.08 13.80
  Z" fill="#f9cac2"></path>
<path d="M 23.53 18.86
  Q 19.89 19.18 21.23 17.73
  Q 21.53 17.21 22.12 17.01
  Q 22.60 16.84 22.98 17.17
  Q 23.67 17.77 23.53 18.86
  Z" fill="#b6ebef"></path>
<path d="M 21.23 17.73
  Q 19.89 19.18 23.53 18.86
  L 19.21 19.37
  Q 18.73 19.42 18.77 18.94
  Q 18.83 18.27 19.42 17.93
  Q 19.85 17.70 20.31 17.84
  Q 20.67 17.94 21.23 17.73
  Z" fill="#887ebd"></path>
<path d="M 27.57 21.33
  Q 27.14 22.85 26.10 21.45
  A 0.89 0.88 -40.7 0 1 26.19 20.30
  Q 27.04 19.45 27.76 20.31
  Q 27.92 20.51 27.88 20.72
  Q 27.85 20.88 27.74 21.01
  Q 27.62 21.15 27.57 21.33
  Z" fill="#887ebd"></path>
<path d="M 16.60 23.92
  Q 15.33 23.83 14.66 24.26
  Q 14.59 22.71 13.80 21.28
  Q 13.64 20.99 13.97 20.98
  L 20.45 20.80
  A 0.42 0.40 -79.8 0 0 20.81 20.54
  Q 20.94 20.19 21.26 20.13
  A 0.43 0.43 0.0 0 1 21.78 20.52
  Q 21.80 21.12 21.47 21.49
  Q 21.31 21.67 20.96 21.72
  Q 18.00 22.15 16.60 23.92
  Z" fill="#887ebd"></path>
<ellipse ry="0.94" rx="1.64" transform="translate(11.12,21.97) rotate(121.3)" cy="0.00" cx="0.00" fill="#dfc66f"></ellipse>
<path d="M 16.60 23.92
  Q 17.69 25.29 17.52 26.68
  Q 17.46 27.19 16.95 27.10
  Q 14.90 26.75 14.66 24.26
  Q 15.33 23.83 16.60 23.92
  Z" fill="#b6ebef"></path>
<path d="M 20.02 24.33
  A 0.28 0.28 0.0 0 1 20.36 24.12
  L 20.86 24.24
  A 11.41 1.09 13.7 0 1 31.68 28.01
  L 31.67 28.06
  A 11.41 1.09 13.7 0 1 20.33 26.42
  L 19.83 26.30
  A 0.28 0.28 0.0 0 1 19.62 25.96
  L 20.02 24.33
  Z" fill="#b6ebef"></path>
<rect rx="0.26" height="2.06" width="12.52" transform="translate(6.47,26.67) rotate(-12.6)" y="-1.03" x="-6.26" fill="#f9cac2"></rect>
</svg>
