<svg viewBox="0.00 0.00 48.00 48.00" version="1.1" xmlns="http://www.w3.org/2000/svg">
<path d="M 34.44 34.02
  L 34.39 37.06
  Q 34.38 37.99 35.31 38.06
  L 35.93 38.11
  Q 37.60 38.25 37.60 36.57
  L 37.64 27.69
  A 0.45 0.44 0.0 0 0 37.19 27.25
  L 28.67 27.26
  A 1.53 1.53 0.0 0 0 27.14 28.83
  L 27.15 29.31
  A 1.18 1.18 0.0 0 0 28.31 30.47
  L 32.44 30.52
  A 0.20 0.20 0.0 0 1 32.58 30.85
  C 27.37 36.60 17.30 36.08 14.11 28.65
  C 8.78 16.20 25.80 6.74 33.26 18.24
  A 1.30 1.29 62.6 0 0 34.82 18.74
  L 35.25 18.57
  Q 36.94 17.91 35.93 16.40
  C 30.57 8.40 18.94 7.59 13.09 15.09
  C 2.07 29.22 21.22 46.07 34.06 33.85
  Q 34.44 33.49 34.44 34.02" stroke-linecap="butt" fill="none" stroke-width="2.00" stroke="#80c1ba"></path>
<path d="M 21.65 0.00
  L 26.51 0.00
  Q 44.68 3.19 48.00 21.37
  L 48.00 26.52
  Q 44.77 44.86 26.37 48.00
  L 21.47 48.00
  Q 3.23 44.77 0.00 26.37
  L 0.00 21.48
  Q 3.21 3.23 21.65 0.00
  Z
  M 34.44 34.02
  L 34.39 37.06
  Q 34.38 37.99 35.31 38.06
  L 35.93 38.11
  Q 37.60 38.25 37.60 36.57
  L 37.64 27.69
  A 0.45 0.44 0.0 0 0 37.19 27.25
  L 28.67 27.26
  A 1.53 1.53 0.0 0 0 27.14 28.83
  L 27.15 29.31
  A 1.18 1.18 0.0 0 0 28.31 30.47
  L 32.44 30.52
  A 0.20 0.20 0.0 0 1 32.58 30.85
  C 27.37 36.60 17.30 36.08 14.11 28.65
  C 8.78 16.20 25.80 6.74 33.26 18.24
  A 1.30 1.29 62.6 0 0 34.82 18.74
  L 35.25 18.57
  Q 36.94 17.91 35.93 16.40
  C 30.57 8.40 18.94 7.59 13.09 15.09
  C 2.07 29.22 21.22 46.07 34.06 33.85
  Q 34.44 33.49 34.44 34.02
  Z" fill="#018374"></path>
<path d="M 34.06 33.85
  C 21.22 46.07 2.07 29.22 13.09 15.09
  C 18.94 7.59 30.57 8.40 35.93 16.40
  Q 36.94 17.91 35.25 18.57
  L 34.82 18.74
  A 1.30 1.29 62.6 0 1 33.26 18.24
  C 25.80 6.74 8.78 16.20 14.11 28.65
  C 17.30 36.08 27.37 36.60 32.58 30.85
  A 0.20 0.20 0.0 0 0 32.44 30.52
  L 28.31 30.47
  A 1.18 1.18 0.0 0 1 27.15 29.31
  L 27.14 28.83
  A 1.53 1.53 0.0 0 1 28.67 27.26
  L 37.19 27.25
  A 0.45 0.44 0.0 0 1 37.64 27.69
  L 37.60 36.57
  Q 37.60 38.25 35.93 38.11
  L 35.31 38.06
  Q 34.38 37.99 34.39 37.06
  L 34.44 34.02
  Q 34.44 33.49 34.06 33.85
  Z" fill="#ffffff"></path>
</svg>
