<svg viewBox="0.00 0.00 512.00 512.00" version="1.1" xmlns="http://www.w3.org/2000/svg">
<path d="M 487.03 363.68
  C 509.50 217.55 419.93 62.34 257.50 64.11
  C 193.43 64.81 142.75 105.92 131.74 169.54
  C 124.45 211.60 133.81 253.91 154.71 290.85
  C 190.18 353.55 253.80 377.68 323.20 378.09
  C 334.97 378.16 346.56 376.88 358.27 375.07
  Q 359.21 374.92 359.31 375.87
  Q 359.33 376.14 358.73 376.73
  C 341.39 393.66 324.28 408.22 302.68 418.63
  C 224.20 456.48 144.65 409.26 98.81 346.17
  C 68.83 304.91 49.02 256.52 47.70 205.25
  C 46.15 145.27 71.52 92.49 116.18 52.93
  Q 133.20 37.85 150.10 28.52
  Q 184.22 9.67 222.49 3.09
  Q 229.08 1.96 237.08 1.94
  Q 259.31 1.88 281.53 1.95
  Q 289.63 1.97 296.40 3.11
  C 346.41 11.47 393.83 36.58 430.51 70.77
  C 511.41 146.20 533.34 263.71 487.96 363.96
  Q 486.49 367.22 487.03 363.68
  Z" fill="#2e4e77"></path>
<path d="M 267.13 512.00
  L 244.27 512.00
  Q 157.52 507.14 91.71 451.52
  Q 55.20 420.65 32.84 380.17
  Q 10.77 340.19 4.00 294.98
  Q 3.70 292.99 3.70 291.00
  Q 3.62 256.12 3.59 221.25
  Q 3.59 219.57 4.15 216.02
  Q 11.08 172.41 31.92 134.19
  Q 33.03 132.14 32.55 134.42
  Q 25.49 167.56 26.23 202.50
  C 28.71 318.83 114.03 456.41 245.24 452.27
  Q 261.67 451.75 277.63 447.94
  C 342.02 432.55 389.55 392.84 391.72 322.25
  C 393.92 250.58 359.80 183.72 293.46 152.82
  C 252.89 133.93 205.85 130.88 162.59 140.39
  Q 161.68 140.59 162.25 139.85
  C 190.76 103.08 226.97 81.73 274.75 85.82
  C 336.18 91.09 389.13 126.36 424.23 175.99
  C 451.12 214.00 468.84 260.40 471.92 307.01
  C 479.45 421.10 389.11 499.50 282.48 510.65
  Q 272.54 511.69 267.13 512.00
  Z" fill="#2e4e77"></path>
<circle r="71.24" cy="256.79" cx="255.98" fill="#fbb03b"></circle>
</svg>
