<svg viewBox="0.00 0.00 48.00 48.00" version="1.1" xmlns="http://www.w3.org/2000/svg">
<path d="M 18.68 35.93
  Q 19.09 35.47 20.07 35.36
  A 0.68 0.67 87.6 0 0 20.67 34.70
  L 20.97 14.79
  Q 20.98 14.30 20.52 14.13
  Q 19.46 13.76 18.88 13.79" stroke-linecap="butt" fill="none" stroke-width="2.00" stroke="#00b1cc"></path>
<path d="M 18.68 35.93
  Q 19.09 35.47 20.07 35.36
  A 0.68 0.67 87.6 0 0 20.67 34.70
  L 20.97 14.79
  Q 20.98 14.30 20.52 14.13
  Q 19.46 13.76 18.88 13.79
  Q 23.70 8.49 27.19 1.29
  Q 28.15 -0.67 28.28 1.50
  Q 28.60 6.79 28.98 13.00
  C 29.23 17.08 32.75 19.12 36.69 20.08
  Q 41.03 21.14 45.21 22.29
  Q 46.29 22.58 45.27 23.04
  C 39.10 25.77 29.79 27.56 30.50 36.49
  Q 30.94 41.97 31.20 46.49
  Q 31.31 48.36 30.16 46.88
  C 27.01 42.85 23.74 37.35 18.68 35.93
  Z" fill="#00a7cf"></path>
<path d="M 18.88 13.79
  Q 19.46 13.76 20.52 14.13
  Q 20.98 14.30 20.97 14.79
  L 20.67 34.70
  A 0.68 0.67 87.6 0 1 20.07 35.36
  Q 19.09 35.47 18.68 35.93
  C 14.43 35.78 8.81 39.00 5.20 40.63
  Q 3.24 41.52 4.39 39.70
  Q 6.58 36.22 8.77 32.53
  C 14.21 23.37 7.23 18.64 2.04 12.30
  Q 1.60 11.76 2.28 11.91
  C 7.71 13.14 13.34 15.36 18.88 13.79
  Z" fill="#00bbc9"></path>
</svg>
