<svg viewBox="0.00 0.00 192.00 192.00" version="1.1" xmlns="http://www.w3.org/2000/svg">
<g stroke-linecap="butt" fill="none" stroke-width="2.00">
<path d="M 146.45 14.51
  L 145.85 15.04
  Q 145.50 15.35 145.25 14.96
  Q 145.08 14.70 144.86 14.52
  Q 144.47 14.19 144.10 14.56
  L 143.81 14.85
  A 1.27 1.24 -66.6 0 1 142.90 15.22
  L 98.02 14.74" stroke="#22da1f"></path>
<path d="M 98.02 14.74
  L 91.26 14.74" stroke="#2b8c29"></path>
<path d="M 91.26 14.74
  Q 86.47 14.24 85.22 14.72
  Q 82.76 15.68 80.11 15.24
  Q 80.00 15.22 79.94 15.15
  Q 79.87 15.03 79.88 14.90
  Q 79.88 14.88 79.85 14.88
  C 78.51 15.18 77.62 15.39 76.10 15.23
  C 74.87 15.11 73.75 15.65 72.62 15.64
  Q 67.64 15.61 62.64 15.68
  Q 62.57 15.68 62.32 15.74
  Q 62.07 15.79 61.91 15.63
  Q 61.66 15.37 61.30 15.36
  C 56.65 15.22 52.13 16.07 47.50 15.84
  Q 46.09 15.77 44.00 16.75
  Q 42.68 17.37 42.53 16.16" stroke="#22da1f"></path>
<path d="M 164.01 28.64
  Q 161.71 30.20 159.78 28.85
  Q 159.37 28.57 158.87 28.56
  L 140.67 28.34" stroke="#21c31e"></path>
<path d="M 140.67 28.34
  Q 121.39 15.66 98.02 14.74" stroke="#2a8129"></path>
<path d="M 91.26 14.74
  C 86.80 15.39 82.08 15.61 77.97 16.63
  Q 64.99 19.88 53.51 26.62" stroke="#2a8129"></path>
<path d="M 53.51 26.62
  Q 52.09 25.99 51.75 27.07
  A 1.08 1.08 0.0 0 1 50.72 27.82
  Q 46.16 27.82 41.63 27.79
  C 38.37 27.77 33.92 28.53 29.87 27.95
  A 0.44 0.44 0.0 0 1 29.55 27.30
  L 30.27 25.97" stroke="#21c31e"></path>
<path d="M 140.67 28.34
  L 150.73 36.26" stroke="#2a7528"></path>
<path d="M 150.73 36.26
  L 152.37 38.01" stroke="#2b6b29"></path>
<path d="M 152.37 38.01
  Q 150.60 38.14 149.76 36.17
  A 0.36 0.36 0.0 0 0 149.08 36.25
  Q 148.97 36.90 148.40 37.10
  Q 147.89 37.29 148.08 37.79
  Q 148.57 39.08 149.60 40.00
  Q 149.90 40.26 149.96 40.66
  Q 150.02 41.11 149.84 41.49
  Q 149.62 41.95 149.23 41.62
  L 147.53 40.18
  Q 147.02 39.75 147.13 40.41
  Q 147.23 41.01 146.59 41.04
  A 0.65 0.64 89.1 0 0 145.97 41.69
  L 145.95 44.64
  A 0.37 0.37 0.0 0 1 145.38 44.95
  Q 145.10 44.78 145.04 44.54
  Q 144.87 43.85 144.28 44.23
  Q 142.93 45.09 142.80 46.53
  A 0.48 0.48 0.0 0 1 142.24 46.97
  Q 141.62 46.86 141.17 47.17
  Q 140.58 47.58 141.22 47.91
  Q 142.35 48.48 141.66 49.67
  A 0.29 0.28 56.4 0 1 141.13 49.56
  L 140.95 48.25
  Q 140.93 48.11 140.79 48.06
  Q 140.66 48.02 140.54 48.04
  C 140.10 48.12 139.72 49.08 138.76 49.25
  Q 138.31 49.32 138.25 49.77
  Q 138.18 50.29 137.92 50.72
  Q 137.58 51.31 137.02 51.11
  Q 136.60 50.97 136.35 51.33
  L 134.68 53.80
  Q 134.43 54.18 133.97 54.26
  Q 133.43 54.34 132.94 54.15
  Q 132.64 54.03 132.32 53.96
  Q 131.99 53.90 131.69 53.95
  A 0.32 0.31 51.8 0 0 131.62 54.55
  Q 132.00 54.72 132.42 54.74
  Q 132.96 54.77 133.15 55.28
  Q 133.30 55.67 133.07 56.01
  A 1.06 0.03 -85.2 0 0 132.96 57.00
  Q 132.95 57.22 132.89 57.38
  Q 132.57 58.29 132.12 57.44
  Q 131.47 56.22 130.42 55.27
  A 0.56 0.55 28.3 0 0 129.51 55.54
  Q 129.31 56.30 129.41 57.07
  Q 129.49 57.62 128.96 57.81
  Q 128.09 58.11 128.18 59.04
  Q 128.24 59.68 127.67 59.95
  Q 126.80 60.37 125.93 60.04
  A 0.56 0.56 0.0 0 0 125.17 60.57
  Q 125.17 61.03 124.76 61.30
  Q 124.27 61.64 124.19 62.24
  L 123.92 64.36
  A 0.66 0.65 -87.9 0 1 123.31 64.93
  L 121.20 65.05
  A 0.38 0.38 0.0 0 1 120.79 64.69
  L 120.78 64.32
  Q 120.76 63.88 120.33 63.89
  Q 120.15 63.89 119.98 63.89
  A 0.39 0.39 0.0 0 0 119.69 64.51
  L 120.88 66.09
  Q 121.28 66.61 120.66 66.84
  Q 119.74 67.18 119.92 68.30
  Q 120.03 69.01 119.72 69.70
  A 0.30 0.29 -41.4 0 1 119.17 69.67
  Q 118.69 68.02 119.39 66.57
  Q 119.55 66.23 119.19 66.32
  Q 116.86 66.88 116.93 69.17
  Q 116.95 69.67 116.52 69.92
  Q 115.73 70.40 115.95 71.38
  Q 116.04 71.79 115.64 71.91
  Q 114.82 72.16 114.95 72.94
  A 0.89 0.88 78.5 0 1 114.29 73.95
  Q 112.98 74.26 112.59 73.23
  A 0.19 0.19 0.0 0 0 112.22 73.26
  L 111.93 74.69
  A 0.46 0.45 -71.9 0 0 112.18 75.19
  Q 112.33 75.25 112.53 75.36
  Q 112.63 75.41 112.12 75.77
  Q 111.78 76.00 111.31 76.78
  A 0.20 0.20 0.0 0 0 111.40 77.06
  Q 112.42 77.50 112.15 78.04" stroke="#2f2f2f"></path>
<path d="M 112.15 78.04
  L 93.95 67.13" stroke="#619149"></path>
<path d="M 93.95 67.13
  L 70.03 52.70
  A 0.18 0.18 0.0 0 0 69.76 52.85
  L 69.75 74.01" stroke="#7b8a46"></path>
<path d="M 69.75 74.01
  L 69.67 102.00" stroke="#619149"></path>
<path d="M 69.67 102.00
  Q 68.95 100.57 69.01 98.61
  Q 69.01 98.44 68.85 98.38
  L 68.60 98.28
  Q 68.43 98.22 68.42 98.40
  L 67.71 116.66
  A 3.23 3.23 0.0 0 1 65.58 119.58
  L 62.65 120.65
  A 0.75 0.74 81.0 0 0 62.15 121.34
  L 62.14 124.50
  Q 62.14 124.93 61.71 124.89
  Q 60.61 124.77 59.63 125.26
  Q 59.23 125.47 59.22 125.92
  Q 59.21 126.84 58.73 127.66
  Q 58.57 127.92 58.27 127.91
  L 56.79 127.88
  A 0.53 0.53 0.0 0 0 56.24 128.45
  Q 56.37 130.59 54.20 130.18
  A 0.94 0.94 0.0 0 0 53.11 131.31
  Q 53.51 133.00 52.03 133.27
  Q 51.61 133.34 51.43 133.73
  L 50.82 135.08
  Q 50.63 135.50 50.94 135.83
  Q 51.30 136.22 51.16 136.70
  A 0.65 0.64 1.4 0 1 50.66 137.17
  Q 50.41 137.22 50.19 137.35
  A 0.18 0.18 0.0 0 0 50.21 137.67
  Q 50.35 137.73 50.49 137.78
  A 0.73 0.72 88.9 0 1 50.91 138.19
  Q 51.08 138.66 50.68 138.91
  Q 50.23 139.19 50.15 139.72
  Q 50.05 140.34 49.76 140.84
  A 0.43 0.41 10.4 0 1 49.46 141.04
  Q 49.20 141.08 49.03 140.98
  Q 48.39 140.63 47.87 141.14
  Q 46.63 142.37 45.48 143.63
  A 1.72 1.72 0.0 0 1 44.07 144.18
  Q 42.09 144.01 40.49 145.06
  Q 39.80 145.52 40.62 145.63
  Q 41.21 145.70 41.73 145.98
  A 0.30 0.30 0.0 0 1 41.89 146.23
  Q 41.89 146.36 41.89 146.50
  Q 41.89 146.77 41.62 146.80
  Q 39.05 147.08 39.40 149.48
  A 0.77 0.76 -8.5 0 1 38.75 150.35
  C 37.34 150.56 36.29 150.55 35.25 149.40
  Q 26.63 139.81 21.35 128.03" stroke="#2f2f2f"></path>
<path d="M 21.35 128.03
  Q 15.37 113.73 14.80 98.85" stroke="#283c28"></path>
<path d="M 14.80 98.85
  Q 14.44 87.27 17.00 76.48" stroke="#2b4b2b"></path>
<path d="M 17.00 76.48
  Q 19.78 65.55 25.02 56.21" stroke="#2b592a"></path>
<path d="M 25.02 56.21
  Q 32.55 42.98 43.99 33.54" stroke="#2b6b29"></path>
<path d="M 43.99 33.54
  L 53.51 26.62" stroke="#2a7528"></path>
<path d="M 43.99 33.54
  L 42.74 33.84
  Q 42.23 33.96 41.92 34.39
  Q 41.55 34.88 41.03 35.21
  Q 40.57 35.50 40.07 35.27
  C 38.45 34.53 37.37 35.10 35.87 34.97
  Q 35.49 34.93 35.11 35.03
  C 32.70 35.67 30.01 34.99 26.73 35.60
  C 25.62 35.80 24.81 35.66 23.70 35.61
  Q 23.22 35.58 23.05 35.12
  Q 22.79 34.39 23.12 33.39" stroke="#21ac1e"></path>
<path d="M 171.49 37.24
  Q 166.07 39.47 160.99 38.39
  Q 156.34 37.40 154.50 37.37
  Q 153.57 37.36 150.73 36.26" stroke="#21ac1e"></path>
<path d="M 25.02 56.21
  Q 16.99 57.11 8.36 56.60" stroke="#229120"></path>
<path d="M 152.37 38.01
  Q 159.74 44.93 165.03 53.76" stroke="#266725"></path>
<path d="M 165.03 53.76
  Q 169.74 61.52 172.54 69.91" stroke="#265525"></path>
<path d="M 172.54 69.91
  Q 175.92 79.92 176.53 90.29" stroke="#274726"></path>
<path d="M 176.53 90.29
  Q 177.95 111.07 169.24 129.98" stroke="#233823"></path>
<path d="M 169.24 129.98
  Q 163.92 140.46 156.30 149.51
  C 154.91 151.17 153.65 153.41 151.86 155.29
  A 0.51 0.51 0.0 0 0 152.14 156.14
  L 155.28 156.67
  Q 155.76 156.76 156.08 156.39
  Q 156.42 156.00 156.94 156.11
  Q 157.40 156.21 157.80 155.98
  L 159.73 154.90
  Q 160.17 154.65 160.66 154.81
  Q 161.61 155.10 162.22 155.84
  Q 162.56 156.25 162.92 155.85
  Q 163.08 155.67 163.12 155.41
  Q 163.14 155.24 163.05 155.11
  Q 162.91 154.90 162.70 154.86
  Q 162.36 154.79 162.54 154.51
  Q 162.84 154.03 163.48 154.41
  Q 165.23 155.46 166.27 154.37
  Q 166.56 154.05 166.98 153.97
  Q 168.26 153.72 168.93 152.80
  Q 169.26 152.35 169.82 152.38
  Q 170.78 152.43 171.25 152.13
  Q 171.99 151.65 172.57 152.00
  A 0.39 0.39 0.0 0 0 173.12 151.49
  Q 173.01 151.29 172.91 151.02
  Q 172.83 150.82 172.99 150.67
  Q 173.52 150.16 174.53 150.13" stroke="#242c24"></path>
<path d="M 6.48 130.52
  C 7.48 131.03 8.91 130.08 10.14 130.10
  Q 10.64 130.10 10.97 129.72
  Q 11.85 128.72 13.13 129.70
  A 1.26 1.24 -29.8 0 0 14.03 129.94
  Q 15.04 129.82 15.98 129.26
  Q 16.42 129.01 16.79 129.36
  Q 17.05 129.61 17.36 129.75
  Q 17.81 129.94 18.24 129.71
  L 21.35 128.03" stroke="#233823"></path>
<path d="M 69.67 102.00
  Q 69.72 102.16 69.77 102.32" stroke="#5c8d45"></path>
<path d="M 69.77 102.32
  L 69.76 138.46
  A 0.30 0.30 0.0 0 0 70.22 138.72
  L 140.96 96.08
  Q 141.49 95.76 140.96 95.44
  L 121.59 83.76" stroke="#489347"></path>
<path d="M 121.59 83.76
  L 112.15 78.04" stroke="#5c8d45"></path>
<path d="M 182.31 54.90
  L 167.16 55.37
  A 0.84 0.82 73.4 0 1 166.44 54.97
  Q 165.84 53.96 165.03 53.76" stroke="#229120"></path>
<path d="M 93.95 67.13
  Q 92.13 68.37 90.02 69.09
  Q 86.16 70.42 86.09 70.45
  Q 82.10 72.07 78.02 73.44
  C 76.27 74.02 73.49 75.46 70.87 75.81
  Q 70.33 75.88 70.22 75.35
  Q 70.07 74.53 69.75 74.01" stroke="#a8e85c"></path>
<path d="M 187.89 69.72
  Q 186.25 70.85 183.26 70.11
  Q 182.35 69.89 181.58 70.46
  A 1.84 1.83 22.0 0 1 180.75 70.81
  Q 178.29 71.20 176.01 70.43
  Q 175.50 70.25 175.05 70.55
  Q 173.86 71.33 172.54 69.91" stroke="#237121"></path>
<path d="M 17.00 76.48
  Q 16.41 76.47 16.03 77.23
  Q 15.78 77.70 15.25 77.65
  Q 14.23 77.54 13.26 77.80
  Q 13.19 77.82 13.16 77.75
  Q 13.11 77.64 13.10 77.49
  A 0.34 0.33 0.9 0 0 12.77 77.16
  L 1.83 77.06" stroke="#237121"></path>
<path d="M 121.59 83.76
  Q 121.57 84.68 120.65 84.63
  Q 120.54 84.62 120.33 84.64
  Q 120.09 84.67 119.89 84.57
  Q 119.54 84.39 119.17 84.52
  Q 117.13 85.21 114.99 85.13
  Q 114.44 85.11 114.13 85.56
  Q 113.11 87.02 111.24 87.07
  A 1.42 1.42 0.0 0 0 110.35 87.43
  Q 109.25 88.44 107.76 88.36
  Q 107.32 88.33 106.94 88.58
  Q 105.19 89.70 103.22 90.17
  Q 100.77 90.76 99.46 91.39
  Q 95.56 93.25 91.39 94.40
  Q 91.10 94.48 90.91 94.84
  Q 90.68 95.28 90.22 95.46
  Q 84.46 97.76 78.56 99.68
  Q 77.79 99.93 74.37 101.48
  Q 71.92 102.59 69.77 102.32" stroke="#7af561"></path>
<path d="M 191.30 89.53
  Q 190.93 89.50 190.72 89.25
  Q 190.62 89.13 190.50 89.24
  L 190.28 89.46
  Q 190.19 89.56 190.05 89.55
  L 184.00 89.40
  Q 183.54 89.39 183.34 89.80
  Q 183.28 89.92 183.19 90.02
  Q 182.91 90.33 182.56 90.11
  Q 181.67 89.56 180.34 90.24
  Q 178.92 90.97 176.53 90.29" stroke="#20541f"></path>
<path d="M 14.80 98.85
  L 3.07 99.72
  Q 3.00 99.72 2.97 99.66
  Q 2.96 99.63 2.94 99.60
  Q 2.90 99.52 2.75 99.52
  Q 2.00 99.56 1.50 99.00
  Q 1.16 98.63 0.65 98.68
  Q 0.29 98.72 0.00 98.64" stroke="#20541f"></path>
<path d="M 185.89 128.01
  Q 185.13 127.69 184.55 128.46
  Q 184.44 128.60 184.27 128.52
  Q 184.05 128.40 183.75 128.36
  Q 183.29 128.30 182.92 128.59
  L 181.77 129.47
  Q 181.45 129.72 181.12 129.47
  Q 180.09 128.70 179.01 129.24
  A 4.12 2.96 -31.9 0 1 174.67 128.95
  Q 174.32 128.58 173.01 129.23
  Q 172.97 129.25 172.94 129.30
  Q 172.88 129.47 172.87 129.64
  Q 172.86 129.82 172.68 129.88
  L 170.78 130.50
  Q 170.42 130.62 170.14 130.38
  Q 169.85 130.13 169.24 129.98" stroke="#1d391d"></path>
</g>
<path d="M 90.91 0.00
  L 100.46 0.00
  Q 125.52 1.58 146.45 14.51
  L 145.85 15.04
  Q 145.50 15.35 145.25 14.96
  Q 145.08 14.70 144.86 14.52
  Q 144.47 14.19 144.10 14.56
  L 143.81 14.85
  A 1.27 1.24 -66.6 0 1 142.90 15.22
  L 98.02 14.74
  L 91.26 14.74
  Q 86.47 14.24 85.22 14.72
  Q 82.76 15.68 80.11 15.24
  Q 80.00 15.22 79.94 15.15
  Q 79.87 15.03 79.88 14.90
  Q 79.88 14.88 79.85 14.88
  C 78.51 15.18 77.62 15.39 76.10 15.23
  C 74.87 15.11 73.75 15.65 72.62 15.64
  Q 67.64 15.61 62.64 15.68
  Q 62.57 15.68 62.32 15.74
  Q 62.07 15.79 61.91 15.63
  Q 61.66 15.37 61.30 15.36
  C 56.65 15.22 52.13 16.07 47.50 15.84
  Q 46.09 15.77 44.00 16.75
  Q 42.68 17.37 42.53 16.16
  Q 64.33 1.72 90.91 0.00
  Z" fill="#23e51f"></path>
<path d="M 146.45 14.51
  Q 156.12 20.60 164.01 28.64
  Q 161.71 30.20 159.78 28.85
  Q 159.37 28.57 158.87 28.56
  L 140.67 28.34
  Q 121.39 15.66 98.02 14.74
  L 142.90 15.22
  A 1.27 1.24 -66.6 0 0 143.81 14.85
  L 144.10 14.56
  Q 144.47 14.19 144.86 14.52
  Q 145.08 14.70 145.25 14.96
  Q 145.50 15.35 145.85 15.04
  L 146.45 14.51
  Z" fill="#21cf1e"></path>
<path d="M 91.26 14.74
  C 86.80 15.39 82.08 15.61 77.97 16.63
  Q 64.99 19.88 53.51 26.62
  Q 52.09 25.99 51.75 27.07
  A 1.08 1.08 0.0 0 1 50.72 27.82
  Q 46.16 27.82 41.63 27.79
  C 38.37 27.77 33.92 28.53 29.87 27.95
  A 0.44 0.44 0.0 0 1 29.55 27.30
  L 30.27 25.97
  L 42.53 16.16
  Q 42.68 17.37 44.00 16.75
  Q 46.09 15.77 47.50 15.84
  C 52.13 16.07 56.65 15.22 61.30 15.36
  Q 61.66 15.37 61.91 15.63
  Q 62.07 15.79 62.32 15.74
  Q 62.57 15.68 62.64 15.68
  Q 67.64 15.61 72.62 15.64
  C 73.75 15.65 74.87 15.11 76.10 15.23
  C 77.62 15.39 78.51 15.18 79.85 14.88
  Q 79.88 14.88 79.88 14.90
  Q 79.87 15.03 79.94 15.15
  Q 80.00 15.22 80.11 15.24
  Q 82.76 15.68 85.22 14.72
  Q 86.47 14.24 91.26 14.74
  Z" fill="#21cf1e"></path>
<path d="M 91.26 14.74
  L 98.02 14.74
  Q 121.39 15.66 140.67 28.34
  L 150.73 36.26
  L 152.37 38.01
  Q 150.60 38.14 149.76 36.17
  A 0.36 0.36 0.0 0 0 149.08 36.25
  Q 148.97 36.90 148.40 37.10
  Q 147.89 37.29 148.08 37.79
  Q 148.57 39.08 149.60 40.00
  Q 149.90 40.26 149.96 40.66
  Q 150.02 41.11 149.84 41.49
  Q 149.62 41.95 149.23 41.62
  L 147.53 40.18
  Q 147.02 39.75 147.13 40.41
  Q 147.23 41.01 146.59 41.04
  A 0.65 0.64 89.1 0 0 145.97 41.69
  L 145.95 44.64
  A 0.37 0.37 0.0 0 1 145.38 44.95
  Q 145.10 44.78 145.04 44.54
  Q 144.87 43.85 144.28 44.23
  Q 142.93 45.09 142.80 46.53
  A 0.48 0.48 0.0 0 1 142.24 46.97
  Q 141.62 46.86 141.17 47.17
  Q 140.58 47.58 141.22 47.91
  Q 142.35 48.48 141.66 49.67
  A 0.29 0.28 56.4 0 1 141.13 49.56
  L 140.95 48.25
  Q 140.93 48.11 140.79 48.06
  Q 140.66 48.02 140.54 48.04
  C 140.10 48.12 139.72 49.08 138.76 49.25
  Q 138.31 49.32 138.25 49.77
  Q 138.18 50.29 137.92 50.72
  Q 137.58 51.31 137.02 51.11
  Q 136.60 50.97 136.35 51.33
  L 134.68 53.80
  Q 134.43 54.18 133.97 54.26
  Q 133.43 54.34 132.94 54.15
  Q 132.64 54.03 132.32 53.96
  Q 131.99 53.90 131.69 53.95
  A 0.32 0.31 51.8 0 0 131.62 54.55
  Q 132.00 54.72 132.42 54.74
  Q 132.96 54.77 133.15 55.28
  Q 133.30 55.67 133.07 56.01
  A 1.06 0.03 -85.2 0 0 132.96 57.00
  Q 132.95 57.22 132.89 57.38
  Q 132.57 58.29 132.12 57.44
  Q 131.47 56.22 130.42 55.27
  A 0.56 0.55 28.3 0 0 129.51 55.54
  Q 129.31 56.30 129.41 57.07
  Q 129.49 57.62 128.96 57.81
  Q 128.09 58.11 128.18 59.04
  Q 128.24 59.68 127.67 59.95
  Q 126.80 60.37 125.93 60.04
  A 0.56 0.56 0.0 0 0 125.17 60.57
  Q 125.17 61.03 124.76 61.30
  Q 124.27 61.64 124.19 62.24
  L 123.92 64.36
  A 0.66 0.65 -87.9 0 1 123.31 64.93
  L 121.20 65.05
  A 0.38 0.38 0.0 0 1 120.79 64.69
  L 120.78 64.32
  Q 120.76 63.88 120.33 63.89
  Q 120.15 63.89 119.98 63.89
  A 0.39 0.39 0.0 0 0 119.69 64.51
  L 120.88 66.09
  Q 121.28 66.61 120.66 66.84
  Q 119.74 67.18 119.92 68.30
  Q 120.03 69.01 119.72 69.70
  A 0.30 0.29 -41.4 0 1 119.17 69.67
  Q 118.69 68.02 119.39 66.57
  Q 119.55 66.23 119.19 66.32
  Q 116.86 66.88 116.93 69.17
  Q 116.95 69.67 116.52 69.92
  Q 115.73 70.40 115.95 71.38
  Q 116.04 71.79 115.64 71.91
  Q 114.82 72.16 114.95 72.94
  A 0.89 0.88 78.5 0 1 114.29 73.95
  Q 112.98 74.26 112.59 73.23
  A 0.19 0.19 0.0 0 0 112.22 73.26
  L 111.93 74.69
  A 0.46 0.45 -71.9 0 0 112.18 75.19
  Q 112.33 75.25 112.53 75.36
  Q 112.63 75.41 112.12 75.77
  Q 111.78 76.00 111.31 76.78
  A 0.20 0.20 0.0 0 0 111.40 77.06
  Q 112.42 77.50 112.15 78.04
  L 93.95 67.13
  L 70.03 52.70
  A 0.18 0.18 0.0 0 0 69.76 52.85
  L 69.75 74.01
  L 69.67 102.00
  Q 68.95 100.57 69.01 98.61
  Q 69.01 98.44 68.85 98.38
  L 68.60 98.28
  Q 68.43 98.22 68.42 98.40
  L 67.71 116.66
  A 3.23 3.23 0.0 0 1 65.58 119.58
  L 62.65 120.65
  A 0.75 0.74 81.0 0 0 62.15 121.34
  L 62.14 124.50
  Q 62.14 124.93 61.71 124.89
  Q 60.61 124.77 59.63 125.26
  Q 59.23 125.47 59.22 125.92
  Q 59.21 126.84 58.73 127.66
  Q 58.57 127.92 58.27 127.91
  L 56.79 127.88
  A 0.53 0.53 0.0 0 0 56.24 128.45
  Q 56.37 130.59 54.20 130.18
  A 0.94 0.94 0.0 0 0 53.11 131.31
  Q 53.51 133.00 52.03 133.27
  Q 51.61 133.34 51.43 133.73
  L 50.82 135.08
  Q 50.63 135.50 50.94 135.83
  Q 51.30 136.22 51.16 136.70
  A 0.65 0.64 1.4 0 1 50.66 137.17
  Q 50.41 137.22 50.19 137.35
  A 0.18 0.18 0.0 0 0 50.21 137.67
  Q 50.35 137.73 50.49 137.78
  A 0.73 0.72 88.9 0 1 50.91 138.19
  Q 51.08 138.66 50.68 138.91
  Q 50.23 139.19 50.15 139.72
  Q 50.05 140.34 49.76 140.84
  A 0.43 0.41 10.4 0 1 49.46 141.04
  Q 49.20 141.08 49.03 140.98
  Q 48.39 140.63 47.87 141.14
  Q 46.63 142.37 45.48 143.63
  A 1.72 1.72 0.0 0 1 44.07 144.18
  Q 42.09 144.01 40.49 145.06
  Q 39.80 145.52 40.62 145.63
  Q 41.21 145.70 41.73 145.98
  A 0.30 0.30 0.0 0 1 41.89 146.23
  Q 41.89 146.36 41.89 146.50
  Q 41.89 146.77 41.62 146.80
  Q 39.05 147.08 39.40 149.48
  A 0.77 0.76 -8.5 0 1 38.75 150.35
  C 37.34 150.56 36.29 150.55 35.25 149.40
  Q 26.63 139.81 21.35 128.03
  Q 15.37 113.73 14.80 98.85
  Q 14.44 87.27 17.00 76.48
  Q 19.78 65.55 25.02 56.21
  Q 32.55 42.98 43.99 33.54
  L 53.51 26.62
  Q 64.99 19.88 77.97 16.63
  C 82.08 15.61 86.80 15.39 91.26 14.74
  Z" fill="#333333"></path>
<path d="M 30.27 25.97
  L 29.55 27.30
  A 0.44 0.44 0.0 0 0 29.87 27.95
  C 33.92 28.53 38.37 27.77 41.63 27.79
  Q 46.16 27.82 50.72 27.82
  A 1.08 1.08 0.0 0 0 51.75 27.07
  Q 52.09 25.99 53.51 26.62
  L 43.99 33.54
  L 42.74 33.84
  Q 42.23 33.96 41.92 34.39
  Q 41.55 34.88 41.03 35.21
  Q 40.57 35.50 40.07 35.27
  C 38.45 34.53 37.37 35.10 35.87 34.97
  Q 35.49 34.93 35.11 35.03
  C 32.70 35.67 30.01 34.99 26.73 35.60
  C 25.62 35.80 24.81 35.66 23.70 35.61
  Q 23.22 35.58 23.05 35.12
  Q 22.79 34.39 23.12 33.39
  L 30.27 25.97
  Z" fill="#20b61d"></path>
<path d="M 140.67 28.34
  L 158.87 28.56
  Q 159.37 28.57 159.78 28.85
  Q 161.71 30.20 164.01 28.64
  L 171.49 37.24
  Q 166.07 39.47 160.99 38.39
  Q 156.34 37.40 154.50 37.37
  Q 153.57 37.36 150.73 36.26
  L 140.67 28.34
  Z" fill="#20b61d"></path>
<path d="M 23.12 33.39
  Q 22.79 34.39 23.05 35.12
  Q 23.22 35.58 23.70 35.61
  C 24.81 35.66 25.62 35.80 26.73 35.60
  C 30.01 34.99 32.70 35.67 35.11 35.03
  Q 35.49 34.93 35.87 34.97
  C 37.37 35.10 38.45 34.53 40.07 35.27
  Q 40.57 35.50 41.03 35.21
  Q 41.55 34.88 41.92 34.39
  Q 42.23 33.96 42.74 33.84
  L 43.99 33.54
  Q 32.55 42.98 25.02 56.21
  Q 16.99 57.11 8.36 56.60
  Q 14.03 44.07 23.12 33.39
  Z" fill="#22a21f"></path>
<path d="M 152.37 38.01
  Q 159.74 44.93 165.03 53.76
  Q 169.74 61.52 172.54 69.91
  Q 175.92 79.92 176.53 90.29
  Q 177.95 111.07 169.24 129.98
  Q 163.92 140.46 156.30 149.51
  C 154.91 151.17 153.65 153.41 151.86 155.29
  A 0.51 0.51 0.0 0 0 152.14 156.14
  L 155.28 156.67
  Q 155.76 156.76 156.08 156.39
  Q 156.42 156.00 156.94 156.11
  Q 157.40 156.21 157.80 155.98
  L 159.73 154.90
  Q 160.17 154.65 160.66 154.81
  Q 161.61 155.10 162.22 155.84
  Q 162.56 156.25 162.92 155.85
  Q 163.08 155.67 163.12 155.41
  Q 163.14 155.24 163.05 155.11
  Q 162.91 154.90 162.70 154.86
  Q 162.36 154.79 162.54 154.51
  Q 162.84 154.03 163.48 154.41
  Q 165.23 155.46 166.27 154.37
  Q 166.56 154.05 166.98 153.97
  Q 168.26 153.72 168.93 152.80
  Q 169.26 152.35 169.82 152.38
  Q 170.78 152.43 171.25 152.13
  Q 171.99 151.65 172.57 152.00
  A 0.39 0.39 0.0 0 0 173.12 151.49
  Q 173.01 151.29 172.91 151.02
  Q 172.83 150.82 172.99 150.67
  Q 173.52 150.16 174.53 150.13
  C 130.59 213.31 34.56 201.71 6.48 130.52
  C 7.48 131.03 8.91 130.08 10.14 130.10
  Q 10.64 130.10 10.97 129.72
  Q 11.85 128.72 13.13 129.70
  A 1.26 1.24 -29.8 0 0 14.03 129.94
  Q 15.04 129.82 15.98 129.26
  Q 16.42 129.01 16.79 129.36
  Q 17.05 129.61 17.36 129.75
  Q 17.81 129.94 18.24 129.71
  L 21.35 128.03
  Q 26.63 139.81 35.25 149.40
  C 36.29 150.55 37.34 150.56 38.75 150.35
  A 0.77 0.76 -8.5 0 0 39.40 149.48
  Q 39.05 147.08 41.62 146.80
  Q 41.89 146.77 41.89 146.50
  Q 41.89 146.36 41.89 146.23
  A 0.30 0.30 0.0 0 0 41.73 145.98
  Q 41.21 145.70 40.62 145.63
  Q 39.80 145.52 40.49 145.06
  Q 42.09 144.01 44.07 144.18
  A 1.72 1.72 0.0 0 0 45.48 143.63
  Q 46.63 142.37 47.87 141.14
  Q 48.39 140.63 49.03 140.98
  Q 49.20 141.08 49.46 141.04
  A 0.43 0.41 10.4 0 0 49.76 140.84
  Q 50.05 140.34 50.15 139.72
  Q 50.23 139.19 50.68 138.91
  Q 51.08 138.66 50.91 138.19
  A 0.73 0.72 88.9 0 0 50.49 137.78
  Q 50.35 137.73 50.21 137.67
  A 0.18 0.18 0.0 0 1 50.19 137.35
  Q 50.41 137.22 50.66 137.17
  A 0.65 0.64 1.4 0 0 51.16 136.70
  Q 51.30 136.22 50.94 135.83
  Q 50.63 135.50 50.82 135.08
  L 51.43 133.73
  Q 51.61 133.34 52.03 133.27
  Q 53.51 133.00 53.11 131.31
  A 0.94 0.94 0.0 0 1 54.20 130.18
  Q 56.37 130.59 56.24 128.45
  A 0.53 0.53 0.0 0 1 56.79 127.88
  L 58.27 127.91
  Q 58.57 127.92 58.73 127.66
  Q 59.21 126.84 59.22 125.92
  Q 59.23 125.47 59.63 125.26
  Q 60.61 124.77 61.71 124.89
  Q 62.14 124.93 62.14 124.50
  L 62.15 121.34
  A 0.75 0.74 81.0 0 1 62.65 120.65
  L 65.58 119.58
  A 3.23 3.23 0.0 0 0 67.71 116.66
  L 68.42 98.40
  Q 68.43 98.22 68.60 98.28
  L 68.85 98.38
  Q 69.01 98.44 69.01 98.61
  Q 68.95 100.57 69.67 102.00
  Q 69.72 102.16 69.77 102.32
  L 69.76 138.46
  A 0.30 0.30 0.0 0 0 70.22 138.72
  L 140.96 96.08
  Q 141.49 95.76 140.96 95.44
  L 121.59 83.76
  L 112.15 78.04
  Q 112.42 77.50 111.40 77.06
  A 0.20 0.20 0.0 0 1 111.31 76.78
  Q 111.78 76.00 112.12 75.77
  Q 112.63 75.41 112.53 75.36
  Q 112.33 75.25 112.18 75.19
  A 0.46 0.45 -71.9 0 1 111.93 74.69
  L 112.22 73.26
  A 0.19 0.19 0.0 0 1 112.59 73.23
  Q 112.98 74.26 114.29 73.95
  A 0.89 0.88 78.5 0 0 114.95 72.94
  Q 114.82 72.16 115.64 71.91
  Q 116.04 71.79 115.95 71.38
  Q 115.73 70.40 116.52 69.92
  Q 116.95 69.67 116.93 69.17
  Q 116.86 66.88 119.19 66.32
  Q 119.55 66.23 119.39 66.57
  Q 118.69 68.02 119.17 69.67
  A 0.30 0.29 -41.4 0 0 119.72 69.70
  Q 120.03 69.01 119.92 68.30
  Q 119.74 67.18 120.66 66.84
  Q 121.28 66.61 120.88 66.09
  L 119.69 64.51
  A 0.39 0.39 0.0 0 1 119.98 63.89
  Q 120.15 63.89 120.33 63.89
  Q 120.76 63.88 120.78 64.32
  L 120.79 64.69
  A 0.38 0.38 0.0 0 0 121.20 65.05
  L 123.31 64.93
  A 0.66 0.65 -87.9 0 0 123.92 64.36
  L 124.19 62.24
  Q 124.27 61.64 124.76 61.30
  Q 125.17 61.03 125.17 60.57
  A 0.56 0.56 0.0 0 1 125.93 60.04
  Q 126.80 60.37 127.67 59.95
  Q 128.24 59.68 128.18 59.04
  Q 128.09 58.11 128.96 57.81
  Q 129.49 57.62 129.41 57.07
  Q 129.31 56.30 129.51 55.54
  A 0.56 0.55 28.3 0 1 130.42 55.27
  Q 131.47 56.22 132.12 57.44
  Q 132.57 58.29 132.89 57.38
  Q 132.95 57.22 132.96 57.00
  A 1.06 0.03 -85.2 0 1 133.07 56.01
  Q 133.30 55.67 133.15 55.28
  Q 132.96 54.77 132.42 54.74
  Q 132.00 54.72 131.62 54.55
  A 0.32 0.31 51.8 0 1 131.69 53.95
  Q 131.99 53.90 132.32 53.96
  Q 132.64 54.03 132.94 54.15
  Q 133.43 54.34 133.97 54.26
  Q 134.43 54.18 134.68 53.80
  L 136.35 51.33
  Q 136.60 50.97 137.02 51.11
  Q 137.58 51.31 137.92 50.72
  Q 138.18 50.29 138.25 49.77
  Q 138.31 49.32 138.76 49.25
  C 139.72 49.08 140.10 48.12 140.54 48.04
  Q 140.66 48.02 140.79 48.06
  Q 140.93 48.11 140.95 48.25
  L 141.13 49.56
  A 0.29 0.28 56.4 0 0 141.66 49.67
  Q 142.35 48.48 141.22 47.91
  Q 140.58 47.58 141.17 47.17
  Q 141.62 46.86 142.24 46.97
  A 0.48 0.48 0.0 0 0 142.80 46.53
  Q 142.93 45.09 144.28 44.23
  Q 144.87 43.85 145.04 44.54
  Q 145.10 44.78 145.38 44.95
  A 0.37 0.37 0.0 0 0 145.95 44.64
  L 145.97 41.69
  A 0.65 0.64 89.1 0 1 146.59 41.04
  Q 147.23 41.01 147.13 40.41
  Q 147.02 39.75 147.53 40.18
  L 149.23 41.62
  Q 149.62 41.95 149.84 41.49
  Q 150.02 41.11 149.96 40.66
  Q 149.90 40.26 149.60 40.00
  Q 148.57 39.08 148.08 37.79
  Q 147.89 37.29 148.40 37.10
  Q 148.97 36.90 149.08 36.25
  A 0.36 0.36 0.0 0 1 149.76 36.17
  Q 150.60 38.14 152.37 38.01
  Z" fill="#2a2b2a"></path>
<path d="M 150.73 36.26
  Q 153.57 37.36 154.50 37.37
  Q 156.34 37.40 160.99 38.39
  Q 166.07 39.47 171.49 37.24
  Q 177.67 45.05 182.31 54.90
  L 167.16 55.37
  A 0.84 0.82 73.4 0 1 166.44 54.97
  Q 165.84 53.96 165.03 53.76
  Q 159.74 44.93 152.37 38.01
  L 150.73 36.26
  Z" fill="#22a21f"></path>
<path d="M 93.95 67.13
  Q 92.13 68.37 90.02 69.09
  Q 86.16 70.42 86.09 70.45
  Q 82.10 72.07 78.02 73.44
  C 76.27 74.02 73.49 75.46 70.87 75.81
  Q 70.33 75.88 70.22 75.35
  Q 70.07 74.53 69.75 74.01
  L 69.76 52.85
  A 0.18 0.18 0.0 0 1 70.03 52.70
  L 93.95 67.13
  Z" fill="#c2e058"></path>
<path d="M 165.03 53.76
  Q 165.84 53.96 166.44 54.97
  A 0.84 0.82 73.4 0 0 167.16 55.37
  L 182.31 54.90
  Q 185.69 61.77 187.89 69.72
  Q 186.25 70.85 183.26 70.11
  Q 182.35 69.89 181.58 70.46
  A 1.84 1.83 22.0 0 1 180.75 70.81
  Q 178.29 71.20 176.01 70.43
  Q 175.50 70.25 175.05 70.55
  Q 173.86 71.33 172.54 69.91
  Q 169.74 61.52 165.03 53.76
  Z" fill="#227f20"></path>
<path d="M 25.02 56.21
  Q 19.78 65.55 17.00 76.48
  Q 16.41 76.47 16.03 77.23
  Q 15.78 77.70 15.25 77.65
  Q 14.23 77.54 13.26 77.80
  Q 13.19 77.82 13.16 77.75
  Q 13.11 77.64 13.10 77.49
  A 0.34 0.33 0.9 0 0 12.77 77.16
  L 1.83 77.06
  Q 3.96 66.18 8.36 56.60
  Q 16.99 57.11 25.02 56.21
  Z" fill="#227f20"></path>
<path d="M 93.95 67.13
  L 112.15 78.04
  L 121.59 83.76
  Q 121.57 84.68 120.65 84.63
  Q 120.54 84.62 120.33 84.64
  Q 120.09 84.67 119.89 84.57
  Q 119.54 84.39 119.17 84.52
  Q 117.13 85.21 114.99 85.13
  Q 114.44 85.11 114.13 85.56
  Q 113.11 87.02 111.24 87.07
  A 1.42 1.42 0.0 0 0 110.35 87.43
  Q 109.25 88.44 107.76 88.36
  Q 107.32 88.33 106.94 88.58
  Q 105.19 89.70 103.22 90.17
  Q 100.77 90.76 99.46 91.39
  Q 95.56 93.25 91.39 94.40
  Q 91.10 94.48 90.91 94.84
  Q 90.68 95.28 90.22 95.46
  Q 84.46 97.76 78.56 99.68
  Q 77.79 99.93 74.37 101.48
  Q 71.92 102.59 69.77 102.32
  Q 69.72 102.16 69.67 102.00
  L 69.75 74.01
  Q 70.07 74.53 70.22 75.35
  Q 70.33 75.88 70.87 75.81
  C 73.49 75.46 76.27 74.02 78.02 73.44
  Q 82.10 72.07 86.09 70.45
  Q 86.16 70.42 90.02 69.09
  Q 92.13 68.37 93.95 67.13
  Z" fill="#8eef5f"></path>
<path d="M 187.89 69.72
  Q 190.61 79.18 191.30 89.53
  Q 190.93 89.50 190.72 89.25
  Q 190.62 89.13 190.50 89.24
  L 190.28 89.46
  Q 190.19 89.56 190.05 89.55
  L 184.00 89.40
  Q 183.54 89.39 183.34 89.80
  Q 183.28 89.92 183.19 90.02
  Q 182.91 90.33 182.56 90.11
  Q 181.67 89.56 180.34 90.24
  Q 178.92 90.97 176.53 90.29
  Q 175.92 79.92 172.54 69.91
  Q 173.86 71.33 175.05 70.55
  Q 175.50 70.25 176.01 70.43
  Q 178.29 71.20 180.75 70.81
  A 1.84 1.83 22.0 0 0 181.58 70.46
  Q 182.35 69.89 183.26 70.11
  Q 186.25 70.85 187.89 69.72
  Z" fill="#236322"></path>
<path d="M 17.00 76.48
  Q 14.44 87.27 14.80 98.85
  L 3.07 99.72
  Q 3.00 99.72 2.97 99.66
  Q 2.96 99.63 2.94 99.60
  Q 2.90 99.52 2.75 99.52
  Q 2.00 99.56 1.50 99.00
  Q 1.16 98.63 0.65 98.68
  Q 0.29 98.72 0.00 98.64
  L 0.00 90.50
  L 1.83 77.06
  L 12.77 77.16
  A 0.34 0.33 0.9 0 1 13.10 77.49
  Q 13.11 77.64 13.16 77.75
  Q 13.19 77.82 13.26 77.80
  Q 14.23 77.54 15.25 77.65
  Q 15.78 77.70 16.03 77.23
  Q 16.41 76.47 17.00 76.48
  Z" fill="#236322"></path>
<path d="M 121.59 83.76
  L 140.96 95.44
  Q 141.49 95.76 140.96 96.08
  L 70.22 138.72
  A 0.30 0.30 0.0 0 1 69.76 138.46
  L 69.77 102.32
  Q 71.92 102.59 74.37 101.48
  Q 77.79 99.93 78.56 99.68
  Q 84.46 97.76 90.22 95.46
  Q 90.68 95.28 90.91 94.84
  Q 91.10 94.48 91.39 94.40
  Q 95.56 93.25 99.46 91.39
  Q 100.77 90.76 103.22 90.17
  Q 105.19 89.70 106.94 88.58
  Q 107.32 88.33 107.76 88.36
  Q 109.25 88.44 110.35 87.43
  A 1.42 1.42 0.0 0 1 111.24 87.07
  Q 113.11 87.02 114.13 85.56
  Q 114.44 85.11 114.99 85.13
  Q 117.13 85.21 119.17 84.52
  Q 119.54 84.39 119.89 84.57
  Q 120.09 84.67 120.33 84.64
  Q 120.54 84.62 120.65 84.63
  Q 121.57 84.68 121.59 83.76
  Z" fill="#66fa63"></path>
<path d="M 191.30 89.53
  Q 192.53 109.37 185.89 128.01
  Q 185.13 127.69 184.55 128.46
  Q 184.44 128.60 184.27 128.52
  Q 184.05 128.40 183.75 128.36
  Q 183.29 128.30 182.92 128.59
  L 181.77 129.47
  Q 181.45 129.72 181.12 129.47
  Q 180.09 128.70 179.01 129.24
  A 4.12 2.96 -31.9 0 1 174.67 128.95
  Q 174.32 128.58 173.01 129.23
  Q 172.97 129.25 172.94 129.30
  Q 172.88 129.47 172.87 129.64
  Q 172.86 129.82 172.68 129.88
  L 170.78 130.50
  Q 170.42 130.62 170.14 130.38
  Q 169.85 130.13 169.24 129.98
  Q 177.95 111.07 176.53 90.29
  Q 178.92 90.97 180.34 90.24
  Q 181.67 89.56 182.56 90.11
  Q 182.91 90.33 183.19 90.02
  Q 183.28 89.92 183.34 89.80
  Q 183.54 89.39 184.00 89.40
  L 190.05 89.55
  Q 190.19 89.56 190.28 89.46
  L 190.50 89.24
  Q 190.62 89.13 190.72 89.25
  Q 190.93 89.50 191.30 89.53
  Z" fill="#1c451c"></path>
<path d="M 14.80 98.85
  Q 15.37 113.73 21.35 128.03
  L 18.24 129.71
  Q 17.81 129.94 17.36 129.75
  Q 17.05 129.61 16.79 129.36
  Q 16.42 129.01 15.98 129.26
  Q 15.04 129.82 14.03 129.94
  A 1.26 1.24 -29.8 0 1 13.13 129.70
  Q 11.85 128.72 10.97 129.72
  Q 10.64 130.10 10.14 130.10
  C 8.91 130.08 7.48 131.03 6.48 130.52
  Q 1.05 116.37 0.00 100.85
  L 0.00 98.64
  Q 0.29 98.72 0.65 98.68
  Q 1.16 98.63 1.50 99.00
  Q 2.00 99.56 2.75 99.52
  Q 2.90 99.52 2.94 99.60
  Q 2.96 99.63 2.97 99.66
  Q 3.00 99.72 3.07 99.72
  L 14.80 98.85
  Z" fill="#1c451c"></path>
<path d="M 185.89 128.01
  Q 181.67 139.78 174.53 150.13
  Q 173.52 150.16 172.99 150.67
  Q 172.83 150.82 172.91 151.02
  Q 173.01 151.29 173.12 151.49
  A 0.39 0.39 0.0 0 1 172.57 152.00
  Q 171.99 151.65 171.25 152.13
  Q 170.78 152.43 169.82 152.38
  Q 169.26 152.35 168.93 152.80
  Q 168.26 153.72 166.98 153.97
  Q 166.56 154.05 166.27 154.37
  Q 165.23 155.46 163.48 154.41
  Q 162.84 154.03 162.54 154.51
  Q 162.36 154.79 162.70 154.86
  Q 162.91 154.90 163.05 155.11
  Q 163.14 155.24 163.12 155.41
  Q 163.08 155.67 162.92 155.85
  Q 162.56 156.25 162.22 155.84
  Q 161.61 155.10 160.66 154.81
  Q 160.17 154.65 159.73 154.90
  L 157.80 155.98
  Q 157.40 156.21 156.94 156.11
  Q 156.42 156.00 156.08 156.39
  Q 155.76 156.76 155.28 156.67
  L 152.14 156.14
  A 0.51 0.51 0.0 0 1 151.86 155.29
  C 153.65 153.41 154.91 151.17 156.30 149.51
  Q 163.92 140.46 169.24 129.98
  Q 169.85 130.13 170.14 130.38
  Q 170.42 130.62 170.78 130.50
  L 172.68 129.88
  Q 172.86 129.82 172.87 129.64
  Q 172.88 129.47 172.94 129.30
  Q 172.97 129.25 173.01 129.23
  Q 174.32 128.58 174.67 128.95
  A 4.12 2.96 -31.9 0 0 179.01 129.24
  Q 180.09 128.70 181.12 129.47
  Q 181.45 129.72 181.77 129.47
  L 182.92 128.59
  Q 183.29 128.30 183.75 128.36
  Q 184.05 128.40 184.27 128.52
  Q 184.44 128.60 184.55 128.46
  Q 185.13 127.69 185.89 128.01
  Z" fill="#1d2c1d"></path>
</svg>
