<svg viewBox="0.00 0.00 192.00 192.00" version="1.1" xmlns="http://www.w3.org/2000/svg">
<g stroke-linecap="butt" fill="none" stroke-width="2.00">
<path d="M 106.64 46.85
  Q 107.03 46.84 107.61 47.33
  A 0.49 0.48 19.9 0 0 108.41 46.96
  L 108.26 23.75
  A 1.00 1.00 0.0 0 0 107.25 22.75
  L 106.54 22.75
  Q 105.58 22.76 105.57 23.72
  Q 105.39 36.54 105.54 48.75
  Q 105.55 49.88 106.42 50.59
  Q 107.19 51.22 107.82 50.45
  Q 108.16 50.03 107.91 49.55
  Q 107.37 48.52 106.41 47.85
  Q 105.05 46.90 106.64 46.85" stroke="#956c8c"></path>
<path d="M 76.09 52.60
  Q 75.60 51.31 75.65 49.50
  Q 75.88 41.47 75.42 30.13
  Q 75.38 29.21 74.47 29.08
  L 74.01 29.01
  A 1.02 1.02 0.0 0 0 72.85 29.97
  Q 72.44 39.93 72.58 49.50
  C 72.63 53.65 74.26 54.69 77.07 57.28
  A 0.71 0.71 0.0 0 0 78.22 56.99
  Q 79.12 54.40 76.74 53.29
  A 1.23 1.23 0.0 0 1 76.09 52.60" stroke="#964a44"></path>
<path d="M 89.71 37.01
  L 89.64 62.88
  A 1.13 1.12 -89.5 0 0 90.74 64.01
  L 91.16 64.01
  A 1.43 1.43 0.0 0 0 92.62 62.58
  L 92.67 39.02" stroke="#967a3c"></path>
<path d="M 92.67 39.02
  Q 92.59 37.25 93.38 35.54
  C 97.97 25.55 81.14 29.21 89.71 37.01" stroke="#964a44"></path>
<path d="M 92.67 39.02
  L 92.45 37.07
  Q 92.39 36.52 91.84 36.43
  Q 89.93 36.12 89.71 37.01" stroke="#fc832a"></path>
<path d="M 84.90 30.76
  A 1.13 1.13 0.0 0 0 83.77 29.63
  L 83.39 29.63
  A 1.13 1.13 0.0 0 0 82.26 30.76
  L 82.26 51.30
  A 1.13 1.13 0.0 0 0 83.39 52.43
  L 83.77 52.43
  A 1.13 1.13 0.0 0 0 84.90 51.30
  L 84.90 30.76" stroke="#3d81a6"></path>
<path d="M 48.44 38.15
  A 2.82 2.82 0.0 0 0 45.62 35.33
  A 2.82 2.82 0.0 0 0 42.80 38.15
  A 2.82 2.82 0.0 0 0 45.62 40.97
  A 2.82 2.82 0.0 0 0 48.44 38.15" stroke="#979fa9"></path>
<path d="M 149.28 38.11
  A 2.77 2.77 0.0 0 0 146.51 35.34
  A 2.77 2.77 0.0 0 0 143.74 38.11
  A 2.77 2.77 0.0 0 0 146.51 40.88
  A 2.77 2.77 0.0 0 0 149.28 38.11" stroke="#979fa9"></path>
<path d="M 113.23 48.05
  L 109.00 52.43
  Q 108.67 52.78 108.20 52.91
  C 105.44 53.71 102.52 57.43 100.63 59.64
  Q 100.31 60.02 100.78 60.15
  C 103.73 61.00 105.76 58.59 107.84 56.31
  C 110.20 53.74 113.05 51.66 115.47 49.18
  A 3.88 3.85 -23.1 0 0 116.58 46.45
  L 116.52 37.26
  Q 116.52 36.50 115.76 36.48
  L 115.31 36.47
  A 0.99 0.98 -88.8 0 0 114.31 37.44
  L 114.19 45.71
  A 3.46 3.45 67.4 0 1 113.23 48.05" stroke="#3d81a6"></path>
<path d="M 45.98 49.26
  A 0.58 0.58 0.0 0 1 46.25 49.75
  L 46.24 63.67
  A 0.58 0.58 0.0 0 0 46.81 64.25
  L 48.66 64.27
  A 0.58 0.58 0.0 0 0 49.25 63.69
  L 49.27 48.12
  A 0.58 0.58 0.0 0 0 48.99 47.62
  L 34.78 38.96
  A 0.58 0.58 0.0 0 0 33.98 39.16
  L 33.22 40.40
  A 0.58 0.58 0.0 0 0 33.41 41.19
  L 45.98 49.26" stroke="#956c8c"></path>
<path d="M 145.24 64.33
  A 0.60 0.60 0.0 0 0 145.77 63.74
  L 145.90 49.77
  A 0.60 0.60 0.0 0 1 146.17 49.27
  L 158.66 41.22
  A 0.60 0.60 0.0 0 0 158.81 40.35
  L 157.89 39.17
  A 0.60 0.60 0.0 0 0 157.10 39.02
  L 143.31 47.48
  A 0.60 0.60 0.0 0 0 143.03 47.98
  L 142.91 63.92
  A 0.60 0.60 0.0 0 0 143.57 64.52
  L 145.24 64.33" stroke="#956c8c"></path>
<path d="M 63.6702 41.1650
  A 1.05 1.05 0.0 0 0 62.6166 40.1187
  L 61.8366 40.1214
  A 1.05 1.05 0.0 0 0 60.7903 41.1751
  L 60.8298 52.4950
  A 1.05 1.05 0.0 0 0 61.8834 53.5413
  L 62.6634 53.5386
  A 1.05 1.05 0.0 0 0 63.7097 52.4849
  L 63.6702 41.1650" stroke="#964a44"></path>
<path d="M 57.77 65.36
  A 0.63 0.63 0.0 0 1 57.18 64.73
  L 57.24 40.88
  A 0.63 0.63 0.0 0 0 56.60 40.24
  L 54.86 40.26
  A 0.63 0.63 0.0 0 0 54.23 40.89
  L 54.27 67.35
  A 0.63 0.63 0.0 0 0 54.86 67.98
  L 64.14 68.63
  A 0.63 0.63 0.0 0 0 64.81 67.93
  L 64.64 66.30
  A 0.63 0.63 0.0 0 0 64.05 65.74
  L 57.77 65.36" stroke="#956c8c"></path>
<path d="M 134.46 65.35
  Q 133.15 65.53 131.87 65.25
  Q 130.53 64.95 130.50 66.32
  L 130.48 67.14
  Q 130.45 68.34 131.65 68.31
  L 135.97 68.20
  A 2.09 2.08 -0.8 0 0 138.01 66.11
  L 137.89 41.01
  Q 137.89 40.34 137.23 40.34
  L 135.83 40.31
  Q 134.96 40.30 134.96 41.17
  L 134.96 64.78
  Q 134.96 65.28 134.46 65.35" stroke="#956c8c"></path>
<path d="M 96.79 45.32
  L 96.70 59.51
  Q 96.70 60.30 97.49 60.23
  L 98.79 60.11
  Q 99.47 60.05 99.48 59.37
  L 99.69 45.33" stroke="#956c8c"></path>
<path d="M 99.69 45.33
  Q 100.95 43.53 100.40 41.96
  A 2.27 2.27 0.0 0 0 97.76 40.49
  C 95.12 41.09 95.14 43.55 96.79 45.32" stroke="#979fa9"></path>
<path d="M 99.69 45.33
  Q 98.80 46.65 96.79 45.32" stroke="#fbcae0"></path>
<path d="M 130.48 40.59
  L 128.80 40.52
  A 0.49 0.49 0.0 0 0 128.29 40.99
  L 128.03 46.90
  A 6.97 1.16 -87.5 0 0 128.89 53.92
  L 129.23 53.93
  A 6.97 1.16 -87.5 0 0 130.69 47.02
  L 130.95 41.10
  A 0.49 0.49 0.0 0 0 130.48 40.59" stroke="#964a44"></path>
<path d="M 161.1545 46.6770
  A 1.17 1.17 0.0 0 0 159.5308 46.3585
  L 150.6995 52.2929
  A 1.17 1.17 0.0 0 0 150.3809 53.9166
  L 150.4255 53.9830
  A 1.17 1.17 0.0 0 0 152.0492 54.3015
  L 160.8805 48.3671
  A 1.17 1.17 0.0 0 0 161.1991 46.7434
  L 161.1545 46.6770" stroke="#3d81a6"></path>
<path d="M 41.7061 53.7457
  A 1.03 1.03 0.0 0 0 41.4206 52.3173
  L 32.5021 46.3694
  A 1.03 1.03 0.0 0 0 31.0737 46.6548
  L 30.8739 46.9543
  A 1.03 1.03 0.0 0 0 31.1594 48.3827
  L 40.0779 54.3306
  A 1.03 1.03 0.0 0 0 41.5063 54.0452
  L 41.7061 53.7457" stroke="#3d81a6"></path>
<path d="M 83.88 56.36
  L 81.53 53.76
  A 0.45 0.44 27.5 0 0 80.76 54.00
  L 80.68 54.59
  Q 80.57 55.44 81.04 56.16
  Q 82.27 58.07 84.04 59.49
  A 0.82 0.81 43.8 0 0 85.08 59.47
  Q 87.69 57.25 87.85 54.96
  Q 87.99 53.04 86.66 54.44
  L 84.83 56.37
  A 0.65 0.65 0.0 0 1 83.88 56.36" stroke="#967a3c"></path>
<path d="M 68.46 60.38
  C 65.96 58.79 64.26 56.98 61.04 57.26
  Q 59.15 57.43 60.77 58.41
  C 63.77 60.25 68.12 65.02 71.94 64.10
  Q 72.62 63.93 72.87 63.49
  Q 73.19 62.91 72.93 62.24
  A 0.90 0.89 84.5 0 0 72.26 61.68
  C 70.83 61.41 69.72 61.18 68.46 60.38" stroke="#964a44"></path>
<path d="M 127.82 58.30
  Q 127.15 57.39 125.75 57.36
  Q 116.59 57.16 111.62 57.27
  Q 110.51 57.29 110.19 58.36
  L 110.01 58.95
  Q 109.64 60.19 110.93 60.19
  Q 120.05 60.20 128.87 60.23
  Q 129.63 60.24 130.01 59.87
  Q 130.49 59.41 130.47 58.68
  Q 130.45 58.12 129.89 58.04
  Q 129.17 57.94 128.65 58.39
  Q 128.18 58.79 127.82 58.30" stroke="#964a44"></path>
<path d="M 99.00 76.76
  A 0.69 0.69 0.0 0 1 99.71 76.06
  C 102.83 76.15 107.56 76.66 110.02 74.93
  C 113.21 72.68 113.08 66.75 109.51 64.98
  C 106.55 63.51 99.50 64.05 95.93 64.07
  A 0.95 0.94 89.7 0 0 95.00 65.02
  L 94.98 82.99
  Q 94.98 84.00 95.99 84.00
  L 98.02 84.01
  Q 99.06 84.01 99.05 82.98
  L 99.00 76.76" stroke="#979fa9"></path>
<path d="M 123.49 68.73
  A 0.72 0.72 0.0 0 1 124.26 68.01
  L 127.72 68.25
  A 0.72 0.72 0.0 0 0 128.48 67.60
  L 128.72 64.87
  A 0.72 0.72 0.0 0 0 128.00 64.09
  L 114.83 64.09
  A 0.72 0.72 0.0 0 0 114.12 64.85
  L 114.28 67.52
  A 0.72 0.72 0.0 0 0 115.03 68.19
  L 118.74 67.99
  A 0.72 0.72 0.0 0 1 119.50 68.71
  L 119.50 83.15
  A 0.72 0.72 0.0 0 0 120.20 83.87
  L 122.77 83.94
  A 0.72 0.72 0.0 0 0 123.51 83.22
  L 123.49 68.73" stroke="#979fa9"></path>
<path d="M 35.52 68.82
  Q 39.97 70.88 45.04 70.47" stroke="#3d81a6"></path>
<path d="M 45.04 70.47
  C 47.10 72.15 50.52 75.39 53.25 75.50
  Q 55.40 75.59 63.22 75.47
  Q 64.51 75.45 64.99 74.26
  L 65.20 73.75
  Q 65.66 72.61 64.44 72.64
  C 60.50 72.76 53.95 73.39 51.95 71.81
  Q 48.64 69.19 45.56 67.90" stroke="#967a3c"></path>
<path d="M 45.56 67.90
  L 36.06 67.51" stroke="#3d81a6"></path>
<path d="M 36.06 67.51
  C 34.87 61.47 28.23 65.54 30.77 68.65
  Q 32.45 70.70 35.52 68.82" stroke="#979fa9"></path>
<path d="M 36.06 67.51
  Q 36.06 68.00 35.52 68.82" stroke="#a3dffa"></path>
<path d="M 45.56 67.90
  Q 44.77 69.36 45.04 70.47" stroke="#a3ba8d"></path>
<path d="M 82.79 76.87
  Q 86.17 77.21 83.41 79.19
  C 79.28 82.16 72.81 79.61 73.00 74.32
  C 73.18 69.03 78.38 66.78 82.98 68.92
  C 84.83 69.78 86.28 69.60 87.49 68.05
  Q 87.84 67.61 87.41 67.24
  C 82.63 63.18 75.88 63.07 71.46 67.56
  C 64.39 74.75 71.99 86.26 81.61 84.16
  Q 88.56 82.64 90.15 74.36
  A 0.92 0.92 0.0 0 0 89.25 73.27
  L 79.34 73.25
  Q 77.92 73.24 77.96 74.66
  L 78.00 75.77
  Q 78.05 77.24 79.51 77.08
  Q 82.09 76.80 82.79 76.87" stroke="#979fa9"></path>
<path d="M 156.41 67.14
  Q 151.97 68.33 146.54 68.03" stroke="#3d81a6"></path>
<path d="M 146.54 68.03
  L 139.89 72.27
  Q 139.41 72.58 138.83 72.59
  L 131.85 72.76
  Q 130.69 72.79 130.06 73.77
  L 129.45 74.75
  Q 128.82 75.75 130.00 75.73
  L 139.19 75.55
  A 4.33 4.29 25.6 0 0 141.70 74.68
  L 146.88 70.77" stroke="#967a3c"></path>
<path d="M 146.88 70.77
  L 157.18 69.17" stroke="#3d81a6"></path>
<path d="M 157.18 69.17
  Q 161.16 70.69 161.75 67.52
  C 162.41 64.08 157.25 62.85 156.41 67.14" stroke="#979fa9"></path>
<path d="M 157.18 69.17
  L 156.41 67.14" stroke="#a3dffa"></path>
<path d="M 146.88 70.77
  Q 147.35 69.20 146.54 68.03" stroke="#a3ba8d"></path>
<path d="M 24.76 78.43
  L 33.20 82.96
  A 4.20 4.09 -30.1 0 0 35.18 83.46
  Q 45.86 83.48 56.24 83.48
  C 59.40 83.48 62.81 85.44 65.36 81.45
  A 0.93 0.92 -77.2 0 0 64.47 80.03
  C 55.20 81.21 45.22 80.48 35.78 80.40
  A 5.43 5.43 0.0 0 1 33.03 79.63
  C 30.92 78.36 27.13 75.01 24.87 77.81" stroke="#956c8c"></path>
<path d="M 24.87 77.81
  C 22.64 71.31 16.04 77.85 20.39 80.18
  C 22.15 81.13 23.84 79.95 24.76 78.43" stroke="#979fa9"></path>
<path d="M 24.87 77.81
  Q 24.46 78.32 24.76 78.43" stroke="#fbcae0"></path>
<path d="M 167.39 76.93
  Q 164.22 76.09 160.79 78.44
  C 158.44 80.05 157.14 80.46 154.50 80.47
  Q 141.21 80.51 128.53 80.49
  A 2.01 1.98 13.8 0 0 126.74 81.56
  L 126.27 82.47
  Q 125.74 83.48 126.88 83.47
  Q 141.66 83.38 157.00 83.26
  C 160.39 83.23 164.45 79.89 167.36 78.22" stroke="#956c8c"></path>
<path d="M 167.36 78.22
  C 172.05 84.42 175.90 75.12 169.99 75.19
  Q 168.96 75.20 167.39 76.93" stroke="#979fa9"></path>
<path d="M 167.36 78.22
  L 167.39 76.93" stroke="#fbcae0"></path>
<path d="M 84.29 98.51
  Q 84.33 99.93 83.43 98.83
  Q 79.24 93.67 74.61 88.71
  C 73.39 87.40 72.21 87.19 70.54 87.54
  Q 70.01 87.65 70.01 88.19
  L 69.97 105.85
  Q 69.97 106.99 71.10 106.97
  L 73.04 106.93
  Q 74.12 106.91 74.10 105.83
  L 73.96 95.53
  Q 73.93 93.50 75.25 95.04
  Q 80.40 101.08 84.40 106.10
  Q 85.50 107.49 87.62 106.56
  Q 88.08 106.35 88.08 105.85
  L 88.12 88.24
  Q 88.12 87.36 87.24 87.38
  L 84.75 87.46
  Q 83.98 87.48 84.00 88.25
  L 84.29 98.51" stroke="#979fa9"></path>
<path d="M 172.38 87.49
  C 168.79 89.73 167.12 90.11 162.59 89.99
  Q 161.59 89.96 161.51 90.96
  L 161.49 91.21
  A 0.83 0.82 6.1 0 0 162.21 92.10
  C 166.11 92.61 172.22 92.46 173.94 88.96
  Q 174.52 87.79 173.22 87.38
  Q 172.77 87.24 172.38 87.49" stroke="#3d81a6"></path>
<path d="M 27.92 89.97
  C 23.74 90.39 22.38 89.42 19.52 87.51
  Q 18.65 86.93 17.99 87.97
  Q 17.78 88.31 18.00 88.64
  C 20.66 92.55 24.05 92.45 28.80 92.21
  A 0.73 0.72 80.0 0 0 29.45 91.27
  L 29.34 90.90
  A 1.35 1.34 -11.7 0 0 27.92 89.97" stroke="#3d81a6"></path>
<path d="M 95.91 94.15
  A 1.45 1.45 0.0 0 1 95.66 91.70
  C 97.23 90.49 99.80 91.78 101.38 92.54
  Q 101.89 92.79 102.29 92.39
  Q 102.97 91.70 103.25 90.77
  Q 103.41 90.25 103.03 89.86
  C 99.50 86.30 93.02 86.21 91.66 92.03
  C 90.45 97.24 95.74 98.35 99.19 99.79
  A 1.43 1.43 0.0 0 1 99.77 101.98
  C 98.44 103.71 95.68 102.87 93.95 101.69
  Q 92.82 100.92 92.02 102.03
  L 91.41 102.89
  A 1.23 1.23 0.0 0 0 91.69 104.60
  Q 96.28 107.92 100.25 106.51
  C 103.47 105.35 104.96 101.77 103.36 98.70
  C 102.09 96.26 98.17 95.24 95.91 94.15" stroke="#979fa9"></path>
<path d="M 141.02 103.63
  A 0.69 0.69 0.0 0 0 140.33 103.02
  L 132.73 103.03
  A 0.69 0.69 0.0 0 1 132.04 102.34
  L 132.05 88.19
  A 0.69 0.69 0.0 0 0 131.33 87.50
  L 128.67 87.61
  A 0.69 0.69 0.0 0 0 128.01 88.30
  L 128.05 105.99
  A 0.69 0.69 0.0 0 0 128.74 106.67
  L 140.61 106.58
  A 0.69 0.69 0.0 0 0 141.28 105.80
  L 141.02 103.63" stroke="#979fa9"></path>
<path d="M 46.29 89.35
  C 40.55 85.75 32.21 88.67 31.24 95.50
  C 29.93 104.70 38.38 108.21 46.13 105.91
  Q 46.89 105.68 46.47 105.01
  L 45.03 102.73
  Q 44.60 102.05 43.82 102.25
  C 31.44 105.53 33.38 87.80 44.27 92.50
  A 1.06 1.05 -61.7 0 0 45.58 92.10
  L 46.56 90.56
  A 0.87 0.87 0.0 0 0 46.29 89.35" stroke="#979fa9"></path>
<path d="M 67.20 97.31
  A 9.62 9.62 0.0 0 0 57.58 87.69
  A 9.62 9.62 0.0 0 0 47.96 97.31
  A 9.62 9.62 0.0 0 0 57.58 106.93
  A 9.62 9.62 0.0 0 0 67.20 97.31" stroke="#979fa9"></path>
<path d="M 125.51 97.27
  A 9.66 9.66 0.0 0 0 115.85 87.61
  A 9.66 9.66 0.0 0 0 106.19 97.27
  A 9.66 9.66 0.0 0 0 115.85 106.93
  A 9.66 9.66 0.0 0 0 125.51 97.27" stroke="#979fa9"></path>
<path d="M 147.83 92.13
  A 0.83 0.83 0.0 0 1 148.67 91.33
  L 157.38 91.49
  A 0.83 0.83 0.0 0 0 158.22 90.67
  L 158.26 88.67
  A 0.83 0.83 0.0 0 0 157.43 87.83
  L 144.81 87.77
  A 0.83 0.83 0.0 0 0 143.98 88.60
  L 143.99 105.75
  A 0.83 0.83 0.0 0 0 144.81 106.58
  L 157.20 106.72
  A 0.83 0.83 0.0 0 0 158.04 105.89
  L 158.04 103.87
  A 0.83 0.83 0.0 0 0 157.21 103.04
  L 148.55 103.00
  A 0.83 0.83 0.0 0 1 147.72 102.14
  L 147.81 100.06
  A 0.83 0.83 0.0 0 1 148.64 99.26
  L 157.30 99.31
  A 0.83 0.83 0.0 0 0 158.13 98.50
  L 158.19 96.48
  A 0.83 0.83 0.0 0 0 157.35 95.62
  L 148.56 95.67
  A 0.83 0.83 0.0 0 1 147.72 94.80
  L 147.83 92.13" stroke="#979fa9"></path>
<path d="M 18.28 101.22
  L 29.16 101.22
  A 0.14 0.14 0.0 0 0 29.30 101.08
  L 29.30 101.01
  A 2.57 2.01 0.0 0 0 26.73 99.00
  L 20.71 99.00
  A 2.57 2.01 -0.0 0 0 18.14 101.01
  L 18.14 101.08
  A 0.14 0.14 0.0 0 0 18.28 101.22" stroke="#3d81a6"></path>
<path d="M 161.49 101.06
  L 174.09 101.42
  A 0.15 0.15 0.0 0 0 174.24 101.27
  L 174.24 101.20
  A 2.68 2.00 1.6 0 0 171.62 99.13
  L 164.08 98.92
  A 2.68 2.00 1.6 0 0 161.35 100.84
  L 161.35 100.91
  A 0.15 0.15 0.0 0 0 161.49 101.06" stroke="#3d81a6"></path>
<path d="M 64.93 110.41
  Q 63.83 110.64 63.86 111.77
  C 64.02 117.00 65.95 127.59 57.37 127.29
  Q 56.84 127.27 56.42 127.58
  C 52.15 130.68 57.04 136.95 61.02 132.86
  A 1.37 1.35 -21.9 0 0 61.39 132.01
  C 61.54 128.78 63.89 127.52 65.93 125.79
  Q 66.77 125.08 66.77 123.98
  L 66.82 111.43
  Q 66.82 110.01 65.43 110.30
  L 64.93 110.41" stroke="#964a44"></path>
<path d="M 72.24 117.88
  Q 70.01 119.38 70.54 122.46
  Q 70.61 122.88 71.00 122.70
  Q 74.72 120.93 74.63 118.20" stroke="#967a3c"></path>
<path d="M 74.63 118.20
  L 74.56 111.13
  Q 74.55 110.29 73.71 110.27
  L 72.98 110.25
  Q 72.11 110.23 72.13 111.09
  L 72.24 117.88" stroke="#3d81a6"></path>
<path d="M 74.63 118.20
  L 72.24 117.88" stroke="#a3ba8d"></path>
<path d="M 81.75 141.26
  L 81.75 158.81
  Q 81.75 159.82 82.51 159.16
  L 83.75 158.09
  Q 84.54 157.40 84.54 156.35
  Q 84.49 147.50 84.49 138.25
  C 84.49 134.52 90.08 129.90 92.53 127.26
  A 1.05 1.05 0.0 0 0 92.81 126.43
  Q 92.58 124.10 92.32 121.79
  Q 92.06 119.64 92.28 116.69
  Q 92.47 114.01 92.30 111.47
  Q 92.24 110.69 91.47 110.51
  L 91.01 110.41
  Q 89.99 110.17 89.99 111.22
  Q 90.00 117.59 90.00 124.00
  Q 90.00 124.79 89.75 125.46
  Q 89.36 126.51 89.09 126.80
  Q 80.70 135.85 73.28 145.77
  Q 72.97 146.19 72.45 146.16
  L 68.95 146.00
  A 2.73 2.72 18.4 0 0 66.60 147.17
  L 66.13 147.85
  Q 65.34 148.99 66.73 148.99
  L 73.97 149.00
  Q 74.49 149.00 74.80 148.59
  L 80.66 140.89
  Q 81.75 139.46 81.75 141.26" stroke="#964a44"></path>
<path d="M 96.94 115.63
  Q 95.93 116.81 93.74 117.83
  A 0.69 0.69 0.0 0 0 93.44 118.81
  L 94.29 120.21
  Q 94.64 120.80 95.20 120.39
  C 96.60 119.35 98.82 117.66 99.02 115.69" stroke="#967a3c"></path>
<path d="M 99.02 115.69
  Q 99.52 113.42 99.26 110.91
  Q 99.19 110.24 98.52 110.30
  L 97.00 110.44
  A 0.55 0.55 0.0 0 0 96.50 110.93
  Q 96.27 113.29 96.94 115.63" stroke="#3d81a6"></path>
<path d="M 99.02 115.69
  Q 98.17 115.26 96.94 115.63" stroke="#a3ba8d"></path>
<path d="M 102.28 160.78
  C 101.58 164.45 105.12 167.21 107.25 169.43
  Q 108.14 170.36 108.59 169.16
  L 108.81 168.58
  Q 109.33 167.18 108.20 166.21
  Q 105.66 164.04 104.84 162.00" stroke="#967a3c"></path>
<path d="M 104.84 162.00
  L 105.10 142.26
  Q 105.13 139.96 106.46 141.83
  L 111.23 148.52
  Q 111.57 149.00 112.16 148.97
  L 120.39 148.54
  Q 121.28 148.50 121.43 147.62
  L 121.51 147.13
  A 0.66 0.66 0.0 0 0 120.89 146.36
  L 114.07 146.05
  A 1.23 1.22 -18.7 0 1 113.17 145.61
  L 106.11 137.36
  A 3.45 3.44 24.8 0 1 105.30 135.17
  L 105.27 111.03
  A 0.76 0.76 0.0 0 0 104.52 110.27
  L 103.52 110.26
  Q 102.54 110.24 102.54 111.22
  L 102.28 160.78" stroke="#964a44"></path>
<path d="M 104.84 162.00
  Q 103.78 160.77 102.28 160.78" stroke="#fc832a"></path>
<path d="M 115.99 136.87
  C 114.15 134.65 112.72 132.98 112.79 129.75
  Q 112.96 122.02 112.74 110.88
  Q 112.73 110.22 112.07 110.22
  L 110.56 110.24
  A 0.61 0.61 0.0 0 0 109.96 110.85
  Q 109.93 120.99 109.84 131.50
  C 109.81 134.05 113.97 140.60 116.75 140.60
  Q 126.66 140.62 136.87 140.68
  A 2.50 2.49 -76.3 0 0 139.11 139.31
  L 139.28 138.97
  Q 139.94 137.65 138.46 137.63
  L 117.24 137.46
  Q 116.48 137.45 115.99 136.87" stroke="#967a3c"></path>
<path d="M 124.41 119.38
  Q 123.79 117.90 122.91 116.64
  Q 122.61 116.21 122.62 115.68
  L 122.72 111.23
  A 0.93 0.93 0.0 0 0 121.78 110.28
  L 121.40 110.28
  Q 120.49 110.28 120.47 111.20
  C 120.42 114.49 120.06 117.89 122.95 120.33
  Q 125.84 122.77 124.41 119.38" stroke="#3d81a6"></path>
<path d="M 34.81 120.21
  Q 32.67 119.61 31.50 120.53
  C 27.73 123.50 33.85 128.11 35.61 123.10" stroke="#979fa9"></path>
<path d="M 35.61 123.10
  Q 42.99 122.97 50.41 123.05
  C 53.99 123.08 56.43 122.26 58.66 119.74
  A 1.51 1.46 66.8 0 0 59.04 118.74
  L 59.09 111.20
  A 0.64 0.63 89.6 0 0 58.45 110.56
  L 39.21 110.76
  A 1.80 1.79 -72.9 0 0 37.75 111.54
  L 36.98 112.66
  Q 36.39 113.51 37.42 113.51
  L 54.50 113.52
  Q 56.91 113.52 56.40 115.88
  L 56.05 117.49
  Q 55.51 119.97 52.98 120.00
  L 34.81 120.21" stroke="#956c8c"></path>
<path d="M 35.61 123.10
  Q 35.52 121.81 34.81 120.21" stroke="#fbcae0"></path>
<path d="M 82.77 112.38
  Q 80.74 114.29 82.83 115.58" stroke="#979fa9"></path>
<path d="M 82.83 115.58
  L 83.69 116.41
  Q 84.05 116.77 84.42 116.42
  C 86.01 114.93 85.56 112.85 85.25 111.13
  A 1.05 1.04 -28.1 0 0 83.47 110.59
  Q 82.41 111.69 82.77 112.38" stroke="#964a44"></path>
<path d="M 82.83 115.58
  Q 85.90 114.53 82.77 112.38" stroke="#fca898"></path>
<path d="M 119.31 127.00
  C 119.30 121.79 119.45 116.37 119.20 111.18
  A 0.72 0.72 0.0 0 0 118.47 110.49
  L 117.05 110.50
  Q 116.29 110.50 116.28 111.26
  Q 116.22 119.73 116.29 128.55
  C 116.31 131.31 117.68 132.93 119.49 134.67
  Q 120.27 135.44 121.21 134.87
  L 121.90 134.45
  Q 122.76 133.94 122.10 133.18
  Q 119.32 130.05 119.31 127.00" stroke="#967a3c"></path>
<path d="M 130.83 126.17
  C 128.17 123.72 128.91 116.63 129.03 111.59
  Q 129.06 110.39 127.86 110.44
  L 127.61 110.45
  Q 126.43 110.50 126.43 111.68
  L 126.40 124.50
  A 2.58 2.58 0.0 0 0 127.27 126.43
  C 129.22 128.17 130.56 129.09 130.90 131.94
  Q 130.95 132.44 131.30 132.81
  C 135.97 137.74 140.35 128.80 135.51 127.44
  C 133.92 127.00 132.48 127.70 130.83 126.17" stroke="#964a44"></path>
<path d="M 81.17 113.61
  Q 81.23 112.15 81.42 111.20
  Q 81.52 110.67 80.97 110.66
  L 78.72 110.64
  Q 78.04 110.63 78.03 111.31
  Q 77.90 119.59 78.22 128.25
  C 78.35 131.52 74.96 134.63 72.99 136.92
  A 2.01 2.00 -69.4 0 1 71.48 137.61
  L 53.69 137.66
  Q 52.51 137.67 53.17 138.64
  L 53.85 139.65
  A 2.31 2.28 -16.9 0 0 55.75 140.65
  L 72.76 140.58
  A 1.81 1.77 -68.8 0 0 74.10 139.97
  C 77.12 136.53 81.60 133.20 81.27 128.00
  Q 80.86 121.65 81.17 113.61" stroke="#967a3c"></path>
<path d="M 156.28 123.07
  C 159.98 128.30 163.28 122.56 160.55 120.57
  Q 160.18 120.30 159.71 120.27
  L 157.77 120.15" stroke="#979fa9"></path>
<path d="M 157.77 120.15
  L 138.87 119.94
  A 2.35 2.34 89.7 0 1 136.55 117.63
  L 136.52 115.37
  Q 136.49 113.49 138.38 113.49
  L 154.77 113.50
  Q 155.88 113.50 155.43 112.48
  L 155.15 111.86
  Q 154.64 110.73 153.41 110.73
  L 134.25 110.73
  Q 133.76 110.73 133.77 111.22
  Q 133.84 114.74 133.87 118.25
  C 133.89 121.54 138.62 123.07 141.25 123.05
  Q 148.78 122.97 156.28 123.07" stroke="#956c8c"></path>
<path d="M 157.77 120.15
  Q 156.43 121.92 156.28 123.07" stroke="#fbcae0"></path>
<path d="M 34.1308 111.8809
  A 0.89 0.89 0.0 0 0 33.2439 110.9878
  L 23.0240 110.9522
  A 0.89 0.89 0.0 0 0 22.1309 111.8391
  L 22.1292 112.3191
  A 0.89 0.89 0.0 0 0 23.0161 113.2122
  L 33.2360 113.2478
  A 0.89 0.89 0.0 0 0 34.1291 112.3609
  L 34.1308 111.8809" stroke="#3d81a6"></path>
<path d="M 170.2196 112.0870
  A 1.01 1.01 0.0 0 0 169.2025 111.0841
  L 158.9028 111.1560
  A 1.01 1.01 0.0 0 0 157.8999 112.1730
  L 157.9004 112.2530
  A 1.01 1.01 0.0 0 0 158.9175 113.2559
  L 169.2172 113.1840
  A 1.01 1.01 0.0 0 0 170.2201 112.1670
  L 170.2196 112.0870" stroke="#3d81a6"></path>
<path d="M 98.31 130.90
  L 99.55 131.87
  Q 99.90 132.14 100.10 131.75
  L 100.29 131.38
  A 0.79 0.77 37.4 0 0 100.16 130.48
  C 97.76 128.00 99.39 125.59 99.87 122.87
  Q 100.18 121.12 98.79 122.23
  Q 97.43 123.30 95.23 124.47
  Q 95.04 124.57 94.96 124.70
  Q 94.87 124.85 94.89 125.00
  Q 94.92 125.36 95.28 125.41
  L 96.01 125.50
  Q 96.56 125.58 96.60 126.14
  Q 96.79 128.76 94.77 130.31
  Q 94.32 130.66 94.66 131.11
  L 96.34 133.32
  A 0.64 0.63 61.7 0 0 97.05 133.54
  Q 97.38 133.43 97.55 133.15
  Q 97.69 132.91 97.60 132.33
  Q 97.49 131.69 97.67 131.11
  Q 97.84 130.53 98.31 130.90" stroke="#3d81a6"></path>
<path d="M 70.32 125.62
  A 0.51 0.51 0.0 0 0 70.16 125.94
  L 69.62 130.38
  A 0.51 0.51 0.0 0 0 70.50 130.79
  L 74.63 126.36
  A 0.51 0.51 0.0 0 0 74.70 125.75
  L 73.39 123.61
  A 0.51 0.51 0.0 0 0 72.60 123.50
  L 70.32 125.62" stroke="#3d81a6"></path>
<path d="M 89.78 141.76
  A 0.47 0.47 0.0 0 1 89.92 141.43
  L 94.66 136.69
  A 0.47 0.47 0.0 0 0 94.67 136.04
  L 93.69 134.98
  A 0.47 0.47 0.0 0 0 93.02 134.97
  L 87.67 140.17
  A 0.47 0.47 0.0 0 0 87.53 140.51
  L 87.45 155.95
  A 0.47 0.47 0.0 0 0 88.16 156.35
  L 89.49 155.58
  A 0.47 0.47 0.0 0 0 89.72 155.17
  L 89.78 141.76" stroke="#3d81a6"></path>
<path d="M 94.88 163.18
  L 91.35 166.78
  A 1.36 1.36 0.0 0 0 91.18 168.46
  L 91.33 168.70
  Q 91.86 169.54 92.57 168.85
  C 94.52 166.93 98.24 164.08 98.25 161.00
  Q 98.29 149.62 98.23 137.76
  A 0.90 0.90 0.0 0 0 97.29 136.86
  L 96.91 136.87
  Q 95.80 136.92 95.80 138.03
  L 95.75 161.05
  A 3.11 3.10 67.3 0 1 94.88 163.18" stroke="#3d81a6"></path>
<path d="M 125.6958 146.9916
  A 0.71 0.71 0.0 0 0 124.9415 146.3289
  L 122.9856 146.4554
  A 0.71 0.71 0.0 0 0 122.3229 147.2097
  L 122.3642 147.8484
  A 0.71 0.71 0.0 0 0 123.1185 148.5111
  L 125.0744 148.3846
  A 0.71 0.71 0.0 0 0 125.7371 147.6303
  L 125.6958 146.9916" stroke="#964a44"></path>
<path d="M 77.20 154.57
  A 2.83 2.83 0.0 0 0 74.37 151.74
  A 2.83 2.83 0.0 0 0 71.54 154.57
  A 2.83 2.83 0.0 0 0 74.37 157.40
  A 2.83 2.83 0.0 0 0 77.20 154.57" stroke="#979fa9"></path>
<path d="M 114.87 154.56
  A 2.79 2.79 0.0 0 0 112.08 151.77
  A 2.79 2.79 0.0 0 0 109.29 154.56
  A 2.79 2.79 0.0 0 0 112.08 157.35
  A 2.79 2.79 0.0 0 0 114.87 154.56" stroke="#979fa9"></path>
<path d="M 91.98 33.03
  A 1.11 1.11 0.0 0 0 90.87 31.92
  A 1.11 1.11 0.0 0 0 89.76 33.03
  A 1.11 1.11 0.0 0 0 90.87 34.14
  A 1.11 1.11 0.0 0 0 91.98 33.03" stroke="#fca898"></path>
<path d="M 98.97 68.84
  L 98.95 71.34
  A 0.88 0.88 0.0 0 0 99.83 72.22
  L 105.68 72.27
  A 2.37 1.86 0.4 0 0 108.06 70.42
  L 108.06 69.88
  A 2.37 1.86 0.4 0 0 105.70 68.01
  L 99.85 67.96
  A 0.88 0.88 0.0 0 0 98.97 68.84" stroke="#979fa9"></path>
<path d="M 63.24 97.29
  A 5.62 5.62 0.0 0 0 57.62 91.67
  A 5.62 5.62 0.0 0 0 52.00 97.29
  A 5.62 5.62 0.0 0 0 57.62 102.91
  A 5.62 5.62 0.0 0 0 63.24 97.29" stroke="#979fa9"></path>
<path d="M 121.56 97.28
  A 5.69 5.69 0.0 0 0 115.87 91.59
  A 5.69 5.69 0.0 0 0 110.18 97.28
  A 5.69 5.69 0.0 0 0 115.87 102.97
  A 5.69 5.69 0.0 0 0 121.56 97.28" stroke="#979fa9"></path>
<path d="M 58.9784 130.2134
  A 1.05 0.98 -30.1 0 0 57.5785 129.8922
  A 1.05 0.98 -30.1 0 0 57.1616 131.2666
  A 1.05 0.98 -30.1 0 0 58.5615 131.5878
  A 1.05 0.98 -30.1 0 0 58.9784 130.2134" stroke="#fca898"></path>
<path d="M 135.21 130.71
  A 1.11 1.11 0.0 0 0 134.10 129.60
  A 1.11 1.11 0.0 0 0 132.99 130.71
  A 1.11 1.11 0.0 0 0 134.10 131.82
  A 1.11 1.11 0.0 0 0 135.21 130.71" stroke="#fca898"></path>
</g>
<path d="M 0.00 0.00
  L 192.00 0.00
  L 192.00 192.00
  L 0.00 192.00
  L 0.00 0.00
  Z
  M 106.64 46.85
  Q 107.03 46.84 107.61 47.33
  A 0.49 0.48 19.9 0 0 108.41 46.96
  L 108.26 23.75
  A 1.00 1.00 0.0 0 0 107.25 22.75
  L 106.54 22.75
  Q 105.58 22.76 105.57 23.72
  Q 105.39 36.54 105.54 48.75
  Q 105.55 49.88 106.42 50.59
  Q 107.19 51.22 107.82 50.45
  Q 108.16 50.03 107.91 49.55
  Q 107.37 48.52 106.41 47.85
  Q 105.05 46.90 106.64 46.85
  Z
  M 76.09 52.60
  Q 75.60 51.31 75.65 49.50
  Q 75.88 41.47 75.42 30.13
  Q 75.38 29.21 74.47 29.08
  L 74.01 29.01
  A 1.02 1.02 0.0 0 0 72.85 29.97
  Q 72.44 39.93 72.58 49.50
  C 72.63 53.65 74.26 54.69 77.07 57.28
  A 0.71 0.71 0.0 0 0 78.22 56.99
  Q 79.12 54.40 76.74 53.29
  A 1.23 1.23 0.0 0 1 76.09 52.60
  Z
  M 89.71 37.01
  L 89.64 62.88
  A 1.13 1.12 -89.5 0 0 90.74 64.01
  L 91.16 64.01
  A 1.43 1.43 0.0 0 0 92.62 62.58
  L 92.67 39.02
  Q 92.59 37.25 93.38 35.54
  C 97.97 25.55 81.14 29.21 89.71 37.01
  Z
  M 84.90 30.76
  A 1.13 1.13 0.0 0 0 83.77 29.63
  L 83.39 29.63
  A 1.13 1.13 0.0 0 0 82.26 30.76
  L 82.26 51.30
  A 1.13 1.13 0.0 0 0 83.39 52.43
  L 83.77 52.43
  A 1.13 1.13 0.0 0 0 84.90 51.30
  L 84.90 30.76
  Z
  M 48.44 38.15
  A 2.82 2.82 0.0 0 0 45.62 35.33
  A 2.82 2.82 0.0 0 0 42.80 38.15
  A 2.82 2.82 0.0 0 0 45.62 40.97
  A 2.82 2.82 0.0 0 0 48.44 38.15
  Z
  M 149.28 38.11
  A 2.77 2.77 0.0 0 0 146.51 35.34
  A 2.77 2.77 0.0 0 0 143.74 38.11
  A 2.77 2.77 0.0 0 0 146.51 40.88
  A 2.77 2.77 0.0 0 0 149.28 38.11
  Z
  M 113.23 48.05
  L 109.00 52.43
  Q 108.67 52.78 108.20 52.91
  C 105.44 53.71 102.52 57.43 100.63 59.64
  Q 100.31 60.02 100.78 60.15
  C 103.73 61.00 105.76 58.59 107.84 56.31
  C 110.20 53.74 113.05 51.66 115.47 49.18
  A 3.88 3.85 -23.1 0 0 116.58 46.45
  L 116.52 37.26
  Q 116.52 36.50 115.76 36.48
  L 115.31 36.47
  A 0.99 0.98 -88.8 0 0 114.31 37.44
  L 114.19 45.71
  A 3.46 3.45 67.4 0 1 113.23 48.05
  Z
  M 45.98 49.26
  A 0.58 0.58 0.0 0 1 46.25 49.75
  L 46.24 63.67
  A 0.58 0.58 0.0 0 0 46.81 64.25
  L 48.66 64.27
  A 0.58 0.58 0.0 0 0 49.25 63.69
  L 49.27 48.12
  A 0.58 0.58 0.0 0 0 48.99 47.62
  L 34.78 38.96
  A 0.58 0.58 0.0 0 0 33.98 39.16
  L 33.22 40.40
  A 0.58 0.58 0.0 0 0 33.41 41.19
  L 45.98 49.26
  Z
  M 145.24 64.33
  A 0.60 0.60 0.0 0 0 145.77 63.74
  L 145.90 49.77
  A 0.60 0.60 0.0 0 1 146.17 49.27
  L 158.66 41.22
  A 0.60 0.60 0.0 0 0 158.81 40.35
  L 157.89 39.17
  A 0.60 0.60 0.0 0 0 157.10 39.02
  L 143.31 47.48
  A 0.60 0.60 0.0 0 0 143.03 47.98
  L 142.91 63.92
  A 0.60 0.60 0.0 0 0 143.57 64.52
  L 145.24 64.33
  Z
  M 63.6702 41.1650
  A 1.05 1.05 0.0 0 0 62.6166 40.1187
  L 61.8366 40.1214
  A 1.05 1.05 0.0 0 0 60.7903 41.1751
  L 60.8298 52.4950
  A 1.05 1.05 0.0 0 0 61.8834 53.5413
  L 62.6634 53.5386
  A 1.05 1.05 0.0 0 0 63.7097 52.4849
  L 63.6702 41.1650
  Z
  M 57.77 65.36
  A 0.63 0.63 0.0 0 1 57.18 64.73
  L 57.24 40.88
  A 0.63 0.63 0.0 0 0 56.60 40.24
  L 54.86 40.26
  A 0.63 0.63 0.0 0 0 54.23 40.89
  L 54.27 67.35
  A 0.63 0.63 0.0 0 0 54.86 67.98
  L 64.14 68.63
  A 0.63 0.63 0.0 0 0 64.81 67.93
  L 64.64 66.30
  A 0.63 0.63 0.0 0 0 64.05 65.74
  L 57.77 65.36
  Z
  M 134.46 65.35
  Q 133.15 65.53 131.87 65.25
  Q 130.53 64.95 130.50 66.32
  L 130.48 67.14
  Q 130.45 68.34 131.65 68.31
  L 135.97 68.20
  A 2.09 2.08 -0.8 0 0 138.01 66.11
  L 137.89 41.01
  Q 137.89 40.34 137.23 40.34
  L 135.83 40.31
  Q 134.96 40.30 134.96 41.17
  L 134.96 64.78
  Q 134.96 65.28 134.46 65.35
  Z
  M 96.79 45.32
  L 96.70 59.51
  Q 96.70 60.30 97.49 60.23
  L 98.79 60.11
  Q 99.47 60.05 99.48 59.37
  L 99.69 45.33
  Q 100.95 43.53 100.40 41.96
  A 2.27 2.27 0.0 0 0 97.76 40.49
  C 95.12 41.09 95.14 43.55 96.79 45.32
  Z
  M 130.48 40.59
  L 128.80 40.52
  A 0.49 0.49 0.0 0 0 128.29 40.99
  L 128.03 46.90
  A 6.97 1.16 -87.5 0 0 128.89 53.92
  L 129.23 53.93
  A 6.97 1.16 -87.5 0 0 130.69 47.02
  L 130.95 41.10
  A 0.49 0.49 0.0 0 0 130.48 40.59
  Z
  M 161.1545 46.6770
  A 1.17 1.17 0.0 0 0 159.5308 46.3585
  L 150.6995 52.2929
  A 1.17 1.17 0.0 0 0 150.3809 53.9166
  L 150.4255 53.9830
  A 1.17 1.17 0.0 0 0 152.0492 54.3015
  L 160.8805 48.3671
  A 1.17 1.17 0.0 0 0 161.1991 46.7434
  L 161.1545 46.6770
  Z
  M 41.7061 53.7457
  A 1.03 1.03 0.0 0 0 41.4206 52.3173
  L 32.5021 46.3694
  A 1.03 1.03 0.0 0 0 31.0737 46.6548
  L 30.8739 46.9543
  A 1.03 1.03 0.0 0 0 31.1594 48.3827
  L 40.0779 54.3306
  A 1.03 1.03 0.0 0 0 41.5063 54.0452
  L 41.7061 53.7457
  Z
  M 83.88 56.36
  L 81.53 53.76
  A 0.45 0.44 27.5 0 0 80.76 54.00
  L 80.68 54.59
  Q 80.57 55.44 81.04 56.16
  Q 82.27 58.07 84.04 59.49
  A 0.82 0.81 43.8 0 0 85.08 59.47
  Q 87.69 57.25 87.85 54.96
  Q 87.99 53.04 86.66 54.44
  L 84.83 56.37
  A 0.65 0.65 0.0 0 1 83.88 56.36
  Z
  M 68.46 60.38
  C 65.96 58.79 64.26 56.98 61.04 57.26
  Q 59.15 57.43 60.77 58.41
  C 63.77 60.25 68.12 65.02 71.94 64.10
  Q 72.62 63.93 72.87 63.49
  Q 73.19 62.91 72.93 62.24
  A 0.90 0.89 84.5 0 0 72.26 61.68
  C 70.83 61.41 69.72 61.18 68.46 60.38
  Z
  M 127.82 58.30
  Q 127.15 57.39 125.75 57.36
  Q 116.59 57.16 111.62 57.27
  Q 110.51 57.29 110.19 58.36
  L 110.01 58.95
  Q 109.64 60.19 110.93 60.19
  Q 120.05 60.20 128.87 60.23
  Q 129.63 60.24 130.01 59.87
  Q 130.49 59.41 130.47 58.68
  Q 130.45 58.12 129.89 58.04
  Q 129.17 57.94 128.65 58.39
  Q 128.18 58.79 127.82 58.30
  Z
  M 99.00 76.76
  A 0.69 0.69 0.0 0 1 99.71 76.06
  C 102.83 76.15 107.56 76.66 110.02 74.93
  C 113.21 72.68 113.08 66.75 109.51 64.98
  C 106.55 63.51 99.50 64.05 95.93 64.07
  A 0.95 0.94 89.7 0 0 95.00 65.02
  L 94.98 82.99
  Q 94.98 84.00 95.99 84.00
  L 98.02 84.01
  Q 99.06 84.01 99.05 82.98
  L 99.00 76.76
  Z
  M 123.49 68.73
  A 0.72 0.72 0.0 0 1 124.26 68.01
  L 127.72 68.25
  A 0.72 0.72 0.0 0 0 128.48 67.60
  L 128.72 64.87
  A 0.72 0.72 0.0 0 0 128.00 64.09
  L 114.83 64.09
  A 0.72 0.72 0.0 0 0 114.12 64.85
  L 114.28 67.52
  A 0.72 0.72 0.0 0 0 115.03 68.19
  L 118.74 67.99
  A 0.72 0.72 0.0 0 1 119.50 68.71
  L 119.50 83.15
  A 0.72 0.72 0.0 0 0 120.20 83.87
  L 122.77 83.94
  A 0.72 0.72 0.0 0 0 123.51 83.22
  L 123.49 68.73
  Z
  M 35.52 68.82
  Q 39.97 70.88 45.04 70.47
  C 47.10 72.15 50.52 75.39 53.25 75.50
  Q 55.40 75.59 63.22 75.47
  Q 64.51 75.45 64.99 74.26
  L 65.20 73.75
  Q 65.66 72.61 64.44 72.64
  C 60.50 72.76 53.95 73.39 51.95 71.81
  Q 48.64 69.19 45.56 67.90
  L 36.06 67.51
  C 34.87 61.47 28.23 65.54 30.77 68.65
  Q 32.45 70.70 35.52 68.82
  Z
  M 82.79 76.87
  Q 86.17 77.21 83.41 79.19
  C 79.28 82.16 72.81 79.61 73.00 74.32
  C 73.18 69.03 78.38 66.78 82.98 68.92
  C 84.83 69.78 86.28 69.60 87.49 68.05
  Q 87.84 67.61 87.41 67.24
  C 82.63 63.18 75.88 63.07 71.46 67.56
  C 64.39 74.75 71.99 86.26 81.61 84.16
  Q 88.56 82.64 90.15 74.36
  A 0.92 0.92 0.0 0 0 89.25 73.27
  L 79.34 73.25
  Q 77.92 73.24 77.96 74.66
  L 78.00 75.77
  Q 78.05 77.24 79.51 77.08
  Q 82.09 76.80 82.79 76.87
  Z
  M 156.41 67.14
  Q 151.97 68.33 146.54 68.03
  L 139.89 72.27
  Q 139.41 72.58 138.83 72.59
  L 131.85 72.76
  Q 130.69 72.79 130.06 73.77
  L 129.45 74.75
  Q 128.82 75.75 130.00 75.73
  L 139.19 75.55
  A 4.33 4.29 25.6 0 0 141.70 74.68
  L 146.88 70.77
  L 157.18 69.17
  Q 161.16 70.69 161.75 67.52
  C 162.41 64.08 157.25 62.85 156.41 67.14
  Z
  M 24.76 78.43
  L 33.20 82.96
  A 4.20 4.09 -30.1 0 0 35.18 83.46
  Q 45.86 83.48 56.24 83.48
  C 59.40 83.48 62.81 85.44 65.36 81.45
  A 0.93 0.92 -77.2 0 0 64.47 80.03
  C 55.20 81.21 45.22 80.48 35.78 80.40
  A 5.43 5.43 0.0 0 1 33.03 79.63
  C 30.92 78.36 27.13 75.01 24.87 77.81
  C 22.64 71.31 16.04 77.85 20.39 80.18
  C 22.15 81.13 23.84 79.95 24.76 78.43
  Z
  M 167.39 76.93
  Q 164.22 76.09 160.79 78.44
  C 158.44 80.05 157.14 80.46 154.50 80.47
  Q 141.21 80.51 128.53 80.49
  A 2.01 1.98 13.8 0 0 126.74 81.56
  L 126.27 82.47
  Q 125.74 83.48 126.88 83.47
  Q 141.66 83.38 157.00 83.26
  C 160.39 83.23 164.45 79.89 167.36 78.22
  C 172.05 84.42 175.90 75.12 169.99 75.19
  Q 168.96 75.20 167.39 76.93
  Z
  M 84.29 98.51
  Q 84.33 99.93 83.43 98.83
  Q 79.24 93.67 74.61 88.71
  C 73.39 87.40 72.21 87.19 70.54 87.54
  Q 70.01 87.65 70.01 88.19
  L 69.97 105.85
  Q 69.97 106.99 71.10 106.97
  L 73.04 106.93
  Q 74.12 106.91 74.10 105.83
  L 73.96 95.53
  Q 73.93 93.50 75.25 95.04
  Q 80.40 101.08 84.40 106.10
  Q 85.50 107.49 87.62 106.56
  Q 88.08 106.35 88.08 105.85
  L 88.12 88.24
  Q 88.12 87.36 87.24 87.38
  L 84.75 87.46
  Q 83.98 87.48 84.00 88.25
  L 84.29 98.51
  Z
  M 172.38 87.49
  C 168.79 89.73 167.12 90.11 162.59 89.99
  Q 161.59 89.96 161.51 90.96
  L 161.49 91.21
  A 0.83 0.82 6.1 0 0 162.21 92.10
  C 166.11 92.61 172.22 92.46 173.94 88.96
  Q 174.52 87.79 173.22 87.38
  Q 172.77 87.24 172.38 87.49
  Z
  M 27.92 89.97
  C 23.74 90.39 22.38 89.42 19.52 87.51
  Q 18.65 86.93 17.99 87.97
  Q 17.78 88.31 18.00 88.64
  C 20.66 92.55 24.05 92.45 28.80 92.21
  A 0.73 0.72 80.0 0 0 29.45 91.27
  L 29.34 90.90
  A 1.35 1.34 -11.7 0 0 27.92 89.97
  Z
  M 95.91 94.15
  A 1.45 1.45 0.0 0 1 95.66 91.70
  C 97.23 90.49 99.80 91.78 101.38 92.54
  Q 101.89 92.79 102.29 92.39
  Q 102.97 91.70 103.25 90.77
  Q 103.41 90.25 103.03 89.86
  C 99.50 86.30 93.02 86.21 91.66 92.03
  C 90.45 97.24 95.74 98.35 99.19 99.79
  A 1.43 1.43 0.0 0 1 99.77 101.98
  C 98.44 103.71 95.68 102.87 93.95 101.69
  Q 92.82 100.92 92.02 102.03
  L 91.41 102.89
  A 1.23 1.23 0.0 0 0 91.69 104.60
  Q 96.28 107.92 100.25 106.51
  C 103.47 105.35 104.96 101.77 103.36 98.70
  C 102.09 96.26 98.17 95.24 95.91 94.15
  Z
  M 141.02 103.63
  A 0.69 0.69 0.0 0 0 140.33 103.02
  L 132.73 103.03
  A 0.69 0.69 0.0 0 1 132.04 102.34
  L 132.05 88.19
  A 0.69 0.69 0.0 0 0 131.33 87.50
  L 128.67 87.61
  A 0.69 0.69 0.0 0 0 128.01 88.30
  L 128.05 105.99
  A 0.69 0.69 0.0 0 0 128.74 106.67
  L 140.61 106.58
  A 0.69 0.69 0.0 0 0 141.28 105.80
  L 141.02 103.63
  Z
  M 46.29 89.35
  C 40.55 85.75 32.21 88.67 31.24 95.50
  C 29.93 104.70 38.38 108.21 46.13 105.91
  Q 46.89 105.68 46.47 105.01
  L 45.03 102.73
  Q 44.60 102.05 43.82 102.25
  C 31.44 105.53 33.38 87.80 44.27 92.50
  A 1.06 1.05 -61.7 0 0 45.58 92.10
  L 46.56 90.56
  A 0.87 0.87 0.0 0 0 46.29 89.35
  Z
  M 67.20 97.31
  A 9.62 9.62 0.0 0 0 57.58 87.69
  A 9.62 9.62 0.0 0 0 47.96 97.31
  A 9.62 9.62 0.0 0 0 57.58 106.93
  A 9.62 9.62 0.0 0 0 67.20 97.31
  Z
  M 125.51 97.27
  A 9.66 9.66 0.0 0 0 115.85 87.61
  A 9.66 9.66 0.0 0 0 106.19 97.27
  A 9.66 9.66 0.0 0 0 115.85 106.93
  A 9.66 9.66 0.0 0 0 125.51 97.27
  Z
  M 147.83 92.13
  A 0.83 0.83 0.0 0 1 148.67 91.33
  L 157.38 91.49
  A 0.83 0.83 0.0 0 0 158.22 90.67
  L 158.26 88.67
  A 0.83 0.83 0.0 0 0 157.43 87.83
  L 144.81 87.77
  A 0.83 0.83 0.0 0 0 143.98 88.60
  L 143.99 105.75
  A 0.83 0.83 0.0 0 0 144.81 106.58
  L 157.20 106.72
  A 0.83 0.83 0.0 0 0 158.04 105.89
  L 158.04 103.87
  A 0.83 0.83 0.0 0 0 157.21 103.04
  L 148.55 103.00
  A 0.83 0.83 0.0 0 1 147.72 102.14
  L 147.81 100.06
  A 0.83 0.83 0.0 0 1 148.64 99.26
  L 157.30 99.31
  A 0.83 0.83 0.0 0 0 158.13 98.50
  L 158.19 96.48
  A 0.83 0.83 0.0 0 0 157.35 95.62
  L 148.56 95.67
  A 0.83 0.83 0.0 0 1 147.72 94.80
  L 147.83 92.13
  Z
  M 18.28 101.22
  L 29.16 101.22
  A 0.14 0.14 0.0 0 0 29.30 101.08
  L 29.30 101.01
  A 2.57 2.01 0.0 0 0 26.73 99.00
  L 20.71 99.00
  A 2.57 2.01 -0.0 0 0 18.14 101.01
  L 18.14 101.08
  A 0.14 0.14 0.0 0 0 18.28 101.22
  Z
  M 161.49 101.06
  L 174.09 101.42
  A 0.15 0.15 0.0 0 0 174.24 101.27
  L 174.24 101.20
  A 2.68 2.00 1.6 0 0 171.62 99.13
  L 164.08 98.92
  A 2.68 2.00 1.6 0 0 161.35 100.84
  L 161.35 100.91
  A 0.15 0.15 0.0 0 0 161.49 101.06
  Z
  M 64.93 110.41
  Q 63.83 110.64 63.86 111.77
  C 64.02 117.00 65.95 127.59 57.37 127.29
  Q 56.84 127.27 56.42 127.58
  C 52.15 130.68 57.04 136.95 61.02 132.86
  A 1.37 1.35 -21.9 0 0 61.39 132.01
  C 61.54 128.78 63.89 127.52 65.93 125.79
  Q 66.77 125.08 66.77 123.98
  L 66.82 111.43
  Q 66.82 110.01 65.43 110.30
  L 64.93 110.41
  Z
  M 72.24 117.88
  Q 70.01 119.38 70.54 122.46
  Q 70.61 122.88 71.00 122.70
  Q 74.72 120.93 74.63 118.20
  L 74.56 111.13
  Q 74.55 110.29 73.71 110.27
  L 72.98 110.25
  Q 72.11 110.23 72.13 111.09
  L 72.24 117.88
  Z
  M 81.75 141.26
  L 81.75 158.81
  Q 81.75 159.82 82.51 159.16
  L 83.75 158.09
  Q 84.54 157.40 84.54 156.35
  Q 84.49 147.50 84.49 138.25
  C 84.49 134.52 90.08 129.90 92.53 127.26
  A 1.05 1.05 0.0 0 0 92.81 126.43
  Q 92.58 124.10 92.32 121.79
  Q 92.06 119.64 92.28 116.69
  Q 92.47 114.01 92.30 111.47
  Q 92.24 110.69 91.47 110.51
  L 91.01 110.41
  Q 89.99 110.17 89.99 111.22
  Q 90.00 117.59 90.00 124.00
  Q 90.00 124.79 89.75 125.46
  Q 89.36 126.51 89.09 126.80
  Q 80.70 135.85 73.28 145.77
  Q 72.97 146.19 72.45 146.16
  L 68.95 146.00
  A 2.73 2.72 18.4 0 0 66.60 147.17
  L 66.13 147.85
  Q 65.34 148.99 66.73 148.99
  L 73.97 149.00
  Q 74.49 149.00 74.80 148.59
  L 80.66 140.89
  Q 81.75 139.46 81.75 141.26
  Z
  M 96.94 115.63
  Q 95.93 116.81 93.74 117.83
  A 0.69 0.69 0.0 0 0 93.44 118.81
  L 94.29 120.21
  Q 94.64 120.80 95.20 120.39
  C 96.60 119.35 98.82 117.66 99.02 115.69
  Q 99.52 113.42 99.26 110.91
  Q 99.19 110.24 98.52 110.30
  L 97.00 110.44
  A 0.55 0.55 0.0 0 0 96.50 110.93
  Q 96.27 113.29 96.94 115.63
  Z
  M 102.28 160.78
  C 101.58 164.45 105.12 167.21 107.25 169.43
  Q 108.14 170.36 108.59 169.16
  L 108.81 168.58
  Q 109.33 167.18 108.20 166.21
  Q 105.66 164.04 104.84 162.00
  L 105.10 142.26
  Q 105.13 139.96 106.46 141.83
  L 111.23 148.52
  Q 111.57 149.00 112.16 148.97
  L 120.39 148.54
  Q 121.28 148.50 121.43 147.62
  L 121.51 147.13
  A 0.66 0.66 0.0 0 0 120.89 146.36
  L 114.07 146.05
  A 1.23 1.22 -18.7 0 1 113.17 145.61
  L 106.11 137.36
  A 3.45 3.44 24.8 0 1 105.30 135.17
  L 105.27 111.03
  A 0.76 0.76 0.0 0 0 104.52 110.27
  L 103.52 110.26
  Q 102.54 110.24 102.54 111.22
  L 102.28 160.78
  Z
  M 115.99 136.87
  C 114.15 134.65 112.72 132.98 112.79 129.75
  Q 112.96 122.02 112.74 110.88
  Q 112.73 110.22 112.07 110.22
  L 110.56 110.24
  A 0.61 0.61 0.0 0 0 109.96 110.85
  Q 109.93 120.99 109.84 131.50
  C 109.81 134.05 113.97 140.60 116.75 140.60
  Q 126.66 140.62 136.87 140.68
  A 2.50 2.49 -76.3 0 0 139.11 139.31
  L 139.28 138.97
  Q 139.94 137.65 138.46 137.63
  L 117.24 137.46
  Q 116.48 137.45 115.99 136.87
  Z
  M 124.41 119.38
  Q 123.79 117.90 122.91 116.64
  Q 122.61 116.21 122.62 115.68
  L 122.72 111.23
  A 0.93 0.93 0.0 0 0 121.78 110.28
  L 121.40 110.28
  Q 120.49 110.28 120.47 111.20
  C 120.42 114.49 120.06 117.89 122.95 120.33
  Q 125.84 122.77 124.41 119.38
  Z
  M 34.81 120.21
  Q 32.67 119.61 31.50 120.53
  C 27.73 123.50 33.85 128.11 35.61 123.10
  Q 42.99 122.97 50.41 123.05
  C 53.99 123.08 56.43 122.26 58.66 119.74
  A 1.51 1.46 66.8 0 0 59.04 118.74
  L 59.09 111.20
  A 0.64 0.63 89.6 0 0 58.45 110.56
  L 39.21 110.76
  A 1.80 1.79 -72.9 0 0 37.75 111.54
  L 36.98 112.66
  Q 36.39 113.51 37.42 113.51
  L 54.50 113.52
  Q 56.91 113.52 56.40 115.88
  L 56.05 117.49
  Q 55.51 119.97 52.98 120.00
  L 34.81 120.21
  Z
  M 82.77 112.38
  Q 80.74 114.29 82.83 115.58
  L 83.69 116.41
  Q 84.05 116.77 84.42 116.42
  C 86.01 114.93 85.56 112.85 85.25 111.13
  A 1.05 1.04 -28.1 0 0 83.47 110.59
  Q 82.41 111.69 82.77 112.38
  Z
  M 119.31 127.00
  C 119.30 121.79 119.45 116.37 119.20 111.18
  A 0.72 0.72 0.0 0 0 118.47 110.49
  L 117.05 110.50
  Q 116.29 110.50 116.28 111.26
  Q 116.22 119.73 116.29 128.55
  C 116.31 131.31 117.68 132.93 119.49 134.67
  Q 120.27 135.44 121.21 134.87
  L 121.90 134.45
  Q 122.76 133.94 122.10 133.18
  Q 119.32 130.05 119.31 127.00
  Z
  M 130.83 126.17
  C 128.17 123.72 128.91 116.63 129.03 111.59
  Q 129.06 110.39 127.86 110.44
  L 127.61 110.45
  Q 126.43 110.50 126.43 111.68
  L 126.40 124.50
  A 2.58 2.58 0.0 0 0 127.27 126.43
  C 129.22 128.17 130.56 129.09 130.90 131.94
  Q 130.95 132.44 131.30 132.81
  C 135.97 137.74 140.35 128.80 135.51 127.44
  C 133.92 127.00 132.48 127.70 130.83 126.17
  Z
  M 81.17 113.61
  Q 81.23 112.15 81.42 111.20
  Q 81.52 110.67 80.97 110.66
  L 78.72 110.64
  Q 78.04 110.63 78.03 111.31
  Q 77.90 119.59 78.22 128.25
  C 78.35 131.52 74.96 134.63 72.99 136.92
  A 2.01 2.00 -69.4 0 1 71.48 137.61
  L 53.69 137.66
  Q 52.51 137.67 53.17 138.64
  L 53.85 139.65
  A 2.31 2.28 -16.9 0 0 55.75 140.65
  L 72.76 140.58
  A 1.81 1.77 -68.8 0 0 74.10 139.97
  C 77.12 136.53 81.60 133.20 81.27 128.00
  Q 80.86 121.65 81.17 113.61
  Z
  M 156.28 123.07
  C 159.98 128.30 163.28 122.56 160.55 120.57
  Q 160.18 120.30 159.71 120.27
  L 157.77 120.15
  L 138.87 119.94
  A 2.35 2.34 89.7 0 1 136.55 117.63
  L 136.52 115.37
  Q 136.49 113.49 138.38 113.49
  L 154.77 113.50
  Q 155.88 113.50 155.43 112.48
  L 155.15 111.86
  Q 154.64 110.73 153.41 110.73
  L 134.25 110.73
  Q 133.76 110.73 133.77 111.22
  Q 133.84 114.74 133.87 118.25
  C 133.89 121.54 138.62 123.07 141.25 123.05
  Q 148.78 122.97 156.28 123.07
  Z
  M 34.1308 111.8809
  A 0.89 0.89 0.0 0 0 33.2439 110.9878
  L 23.0240 110.9522
  A 0.89 0.89 0.0 0 0 22.1309 111.8391
  L 22.1292 112.3191
  A 0.89 0.89 0.0 0 0 23.0161 113.2122
  L 33.2360 113.2478
  A 0.89 0.89 0.0 0 0 34.1291 112.3609
  L 34.1308 111.8809
  Z
  M 170.2196 112.0870
  A 1.01 1.01 0.0 0 0 169.2025 111.0841
  L 158.9028 111.1560
  A 1.01 1.01 0.0 0 0 157.8999 112.1730
  L 157.9004 112.2530
  A 1.01 1.01 0.0 0 0 158.9175 113.2559
  L 169.2172 113.1840
  A 1.01 1.01 0.0 0 0 170.2201 112.1670
  L 170.2196 112.0870
  Z
  M 98.31 130.90
  L 99.55 131.87
  Q 99.90 132.14 100.10 131.75
  L 100.29 131.38
  A 0.79 0.77 37.4 0 0 100.16 130.48
  C 97.76 128.00 99.39 125.59 99.87 122.87
  Q 100.18 121.12 98.79 122.23
  Q 97.43 123.30 95.23 124.47
  Q 95.04 124.57 94.96 124.70
  Q 94.87 124.85 94.89 125.00
  Q 94.92 125.36 95.28 125.41
  L 96.01 125.50
  Q 96.56 125.58 96.60 126.14
  Q 96.79 128.76 94.77 130.31
  Q 94.32 130.66 94.66 131.11
  L 96.34 133.32
  A 0.64 0.63 61.7 0 0 97.05 133.54
  Q 97.38 133.43 97.55 133.15
  Q 97.69 132.91 97.60 132.33
  Q 97.49 131.69 97.67 131.11
  Q 97.84 130.53 98.31 130.90
  Z
  M 70.32 125.62
  A 0.51 0.51 0.0 0 0 70.16 125.94
  L 69.62 130.38
  A 0.51 0.51 0.0 0 0 70.50 130.79
  L 74.63 126.36
  A 0.51 0.51 0.0 0 0 74.70 125.75
  L 73.39 123.61
  A 0.51 0.51 0.0 0 0 72.60 123.50
  L 70.32 125.62
  Z
  M 89.78 141.76
  A 0.47 0.47 0.0 0 1 89.92 141.43
  L 94.66 136.69
  A 0.47 0.47 0.0 0 0 94.67 136.04
  L 93.69 134.98
  A 0.47 0.47 0.0 0 0 93.02 134.97
  L 87.67 140.17
  A 0.47 0.47 0.0 0 0 87.53 140.51
  L 87.45 155.95
  A 0.47 0.47 0.0 0 0 88.16 156.35
  L 89.49 155.58
  A 0.47 0.47 0.0 0 0 89.72 155.17
  L 89.78 141.76
  Z
  M 94.88 163.18
  L 91.35 166.78
  A 1.36 1.36 0.0 0 0 91.18 168.46
  L 91.33 168.70
  Q 91.86 169.54 92.57 168.85
  C 94.52 166.93 98.24 164.08 98.25 161.00
  Q 98.29 149.62 98.23 137.76
  A 0.90 0.90 0.0 0 0 97.29 136.86
  L 96.91 136.87
  Q 95.80 136.92 95.80 138.03
  L 95.75 161.05
  A 3.11 3.10 67.3 0 1 94.88 163.18
  Z
  M 125.6958 146.9916
  A 0.71 0.71 0.0 0 0 124.9415 146.3289
  L 122.9856 146.4554
  A 0.71 0.71 0.0 0 0 122.3229 147.2097
  L 122.3642 147.8484
  A 0.71 0.71 0.0 0 0 123.1185 148.5111
  L 125.0744 148.3846
  A 0.71 0.71 0.0 0 0 125.7371 147.6303
  L 125.6958 146.9916
  Z
  M 77.20 154.57
  A 2.83 2.83 0.0 0 0 74.37 151.74
  A 2.83 2.83 0.0 0 0 71.54 154.57
  A 2.83 2.83 0.0 0 0 74.37 157.40
  A 2.83 2.83 0.0 0 0 77.20 154.57
  Z
  M 114.87 154.56
  A 2.79 2.79 0.0 0 0 112.08 151.77
  A 2.79 2.79 0.0 0 0 109.29 154.56
  A 2.79 2.79 0.0 0 0 112.08 157.35
  A 2.79 2.79 0.0 0 0 114.87 154.56
  Z" fill="#304155"></path>
<path d="M 106.64 46.85
  Q 105.05 46.90 106.41 47.85
  Q 107.37 48.52 107.91 49.55
  Q 108.16 50.03 107.82 50.45
  Q 107.19 51.22 106.42 50.59
  Q 105.55 49.88 105.54 48.75
  Q 105.39 36.54 105.57 23.72
  Q 105.58 22.76 106.54 22.75
  L 107.25 22.75
  A 1.00 1.00 0.0 0 1 108.26 23.75
  L 108.41 46.96
  A 0.49 0.48 19.9 0 1 107.61 47.33
  Q 107.03 46.84 106.64 46.85
  Z" fill="#f996c3"></path>
<path d="M 76.74 53.29
  Q 79.12 54.40 78.22 56.99
  A 0.71 0.71 0.0 0 1 77.07 57.28
  C 74.26 54.69 72.63 53.65 72.58 49.50
  Q 72.44 39.93 72.85 29.97
  A 1.02 1.02 0.0 0 1 74.01 29.01
  L 74.47 29.08
  Q 75.38 29.21 75.42 30.13
  Q 75.88 41.47 75.65 49.50
  Q 75.60 51.31 76.09 52.60
  A 1.23 1.23 0.0 0 0 76.74 53.29
  Z" fill="#fb5332"></path>
<path d="M 92.67 39.02
  L 92.45 37.07
  Q 92.39 36.52 91.84 36.43
  Q 89.93 36.12 89.71 37.01
  C 81.14 29.21 97.97 25.55 93.38 35.54
  Q 92.59 37.25 92.67 39.02
  Z
  M 91.98 33.03
  A 1.11 1.11 0.0 0 0 90.87 31.92
  A 1.11 1.11 0.0 0 0 89.76 33.03
  A 1.11 1.11 0.0 0 0 90.87 34.14
  A 1.11 1.11 0.0 0 0 91.98 33.03
  Z" fill="#fb5332"></path>
<rect rx="1.13" height="22.80" width="2.64" y="29.63" x="82.26" fill="#49c1f7"></rect>
<circle r="1.11" cy="33.03" cx="90.87" fill="#fdfdfd"></circle>
<circle r="2.82" cy="38.15" cx="45.62" fill="#fdfdfd"></circle>
<circle r="2.77" cy="38.11" cx="146.51" fill="#fdfdfd"></circle>
<path d="M 92.67 39.02
  L 92.62 62.58
  A 1.43 1.43 0.0 0 1 91.16 64.01
  L 90.74 64.01
  A 1.13 1.12 -89.5 0 1 89.64 62.88
  L 89.71 37.01
  Q 89.93 36.12 91.84 36.43
  Q 92.39 36.52 92.45 37.07
  L 92.67 39.02
  Z" fill="#fcb222"></path>
<path d="M 113.23 48.05
  A 3.46 3.45 67.4 0 0 114.19 45.71
  L 114.31 37.44
  A 0.99 0.98 -88.8 0 1 115.31 36.47
  L 115.76 36.48
  Q 116.52 36.50 116.52 37.26
  L 116.58 46.45
  A 3.88 3.85 -23.1 0 1 115.47 49.18
  C 113.05 51.66 110.20 53.74 107.84 56.31
  C 105.76 58.59 103.73 61.00 100.78 60.15
  Q 100.31 60.02 100.63 59.64
  C 102.52 57.43 105.44 53.71 108.20 52.91
  Q 108.67 52.78 109.00 52.43
  L 113.23 48.05
  Z" fill="#49c1f7"></path>
<path d="M 45.98 49.26
  L 33.41 41.19
  A 0.58 0.58 0.0 0 1 33.22 40.40
  L 33.98 39.16
  A 0.58 0.58 0.0 0 1 34.78 38.96
  L 48.99 47.62
  A 0.58 0.58 0.0 0 1 49.27 48.12
  L 49.25 63.69
  A 0.58 0.58 0.0 0 1 48.66 64.27
  L 46.81 64.25
  A 0.58 0.58 0.0 0 1 46.24 63.67
  L 46.25 49.75
  A 0.58 0.58 0.0 0 0 45.98 49.26
  Z" fill="#f996c3"></path>
<path d="M 145.24 64.33
  L 143.57 64.52
  A 0.60 0.60 0.0 0 1 142.91 63.92
  L 143.03 47.98
  A 0.60 0.60 0.0 0 1 143.31 47.48
  L 157.10 39.02
  A 0.60 0.60 0.0 0 1 157.89 39.17
  L 158.81 40.35
  A 0.60 0.60 0.0 0 1 158.66 41.22
  L 146.17 49.27
  A 0.60 0.60 0.0 0 0 145.90 49.77
  L 145.77 63.74
  A 0.60 0.60 0.0 0 1 145.24 64.33
  Z" fill="#f996c3"></path>
<rect rx="1.05" height="13.42" width="2.88" transform="translate(62.25,46.83) rotate(-0.2)" y="-6.71" x="-1.44" fill="#fb5332"></rect>
<path d="M 57.77 65.36
  L 64.05 65.74
  A 0.63 0.63 0.0 0 1 64.64 66.30
  L 64.81 67.93
  A 0.63 0.63 0.0 0 1 64.14 68.63
  L 54.86 67.98
  A 0.63 0.63 0.0 0 1 54.27 67.35
  L 54.23 40.89
  A 0.63 0.63 0.0 0 1 54.86 40.26
  L 56.60 40.24
  A 0.63 0.63 0.0 0 1 57.24 40.88
  L 57.18 64.73
  A 0.63 0.63 0.0 0 0 57.77 65.36
  Z" fill="#f996c3"></path>
<path d="M 134.96 64.78
  L 134.96 41.17
  Q 134.96 40.30 135.83 40.31
  L 137.23 40.34
  Q 137.89 40.34 137.89 41.01
  L 138.01 66.11
  A 2.09 2.08 -0.8 0 1 135.97 68.20
  L 131.65 68.31
  Q 130.45 68.34 130.48 67.14
  L 130.50 66.32
  Q 130.53 64.95 131.87 65.25
  Q 133.15 65.53 134.46 65.35
  Q 134.96 65.28 134.96 64.78
  Z" fill="#f996c3"></path>
<path d="M 99.69 45.33
  Q 98.80 46.65 96.79 45.32
  C 95.14 43.55 95.12 41.09 97.76 40.49
  A 2.27 2.27 0.0 0 1 100.40 41.96
  Q 100.95 43.53 99.69 45.33
  Z" fill="#fdfdfd"></path>
<path d="M 130.48 40.59
  A 0.49 0.49 0.0 0 1 130.95 41.10
  L 130.69 47.02
  A 6.97 1.16 -87.5 0 1 129.23 53.93
  L 128.89 53.92
  A 6.97 1.16 -87.5 0 1 128.03 46.90
  L 128.29 40.99
  A 0.49 0.49 0.0 0 1 128.80 40.52
  L 130.48 40.59
  Z" fill="#fb5332"></path>
<path d="M 96.79 45.32
  Q 98.80 46.65 99.69 45.33
  L 99.48 59.37
  Q 99.47 60.05 98.79 60.11
  L 97.49 60.23
  Q 96.70 60.30 96.70 59.51
  L 96.79 45.32
  Z" fill="#f996c3"></path>
<rect rx="1.17" height="2.42" width="12.98" transform="translate(155.79,50.33) rotate(-33.9)" y="-1.21" x="-6.49" fill="#49c1f7"></rect>
<rect rx="1.03" height="2.42" width="12.78" transform="translate(36.29,50.35) rotate(33.7)" y="-1.21" x="-6.39" fill="#49c1f7"></rect>
<path d="M 84.83 56.37
  L 86.66 54.44
  Q 87.99 53.04 87.85 54.96
  Q 87.69 57.25 85.08 59.47
  A 0.82 0.81 43.8 0 1 84.04 59.49
  Q 82.27 58.07 81.04 56.16
  Q 80.57 55.44 80.68 54.59
  L 80.76 54.00
  A 0.45 0.44 27.5 0 1 81.53 53.76
  L 83.88 56.36
  A 0.65 0.65 0.0 0 0 84.83 56.37
  Z" fill="#fcb222"></path>
<path d="M 68.46 60.38
  C 69.72 61.18 70.83 61.41 72.26 61.68
  A 0.90 0.89 84.5 0 1 72.93 62.24
  Q 73.19 62.91 72.87 63.49
  Q 72.62 63.93 71.94 64.10
  C 68.12 65.02 63.77 60.25 60.77 58.41
  Q 59.15 57.43 61.04 57.26
  C 64.26 56.98 65.96 58.79 68.46 60.38
  Z" fill="#fb5332"></path>
<path d="M 128.65 58.39
  Q 129.17 57.94 129.89 58.04
  Q 130.45 58.12 130.47 58.68
  Q 130.49 59.41 130.01 59.87
  Q 129.63 60.24 128.87 60.23
  Q 120.05 60.20 110.93 60.19
  Q 109.64 60.19 110.01 58.95
  L 110.19 58.36
  Q 110.51 57.29 111.62 57.27
  Q 116.59 57.16 125.75 57.36
  Q 127.15 57.39 127.82 58.30
  Q 128.18 58.79 128.65 58.39
  Z" fill="#fb5332"></path>
<path d="M 99.00 76.76
  L 99.05 82.98
  Q 99.06 84.01 98.02 84.01
  L 95.99 84.00
  Q 94.98 84.00 94.98 82.99
  L 95.00 65.02
  A 0.95 0.94 89.7 0 1 95.93 64.07
  C 99.50 64.05 106.55 63.51 109.51 64.98
  C 113.08 66.75 113.21 72.68 110.02 74.93
  C 107.56 76.66 102.83 76.15 99.71 76.06
  A 0.69 0.69 0.0 0 0 99.00 76.76
  Z
  M 98.97 68.84
  L 98.95 71.34
  A 0.88 0.88 0.0 0 0 99.83 72.22
  L 105.68 72.27
  A 2.37 1.86 0.4 0 0 108.06 70.42
  L 108.06 69.88
  A 2.37 1.86 0.4 0 0 105.70 68.01
  L 99.85 67.96
  A 0.88 0.88 0.0 0 0 98.97 68.84
  Z" fill="#fdfdfd"></path>
<path d="M 123.49 68.73
  L 123.51 83.22
  A 0.72 0.72 0.0 0 1 122.77 83.94
  L 120.20 83.87
  A 0.72 0.72 0.0 0 1 119.50 83.15
  L 119.50 68.71
  A 0.72 0.72 0.0 0 0 118.74 67.99
  L 115.03 68.19
  A 0.72 0.72 0.0 0 1 114.28 67.52
  L 114.12 64.85
  A 0.72 0.72 0.0 0 1 114.83 64.09
  L 128.00 64.09
  A 0.72 0.72 0.0 0 1 128.72 64.87
  L 128.48 67.60
  A 0.72 0.72 0.0 0 1 127.72 68.25
  L 124.26 68.01
  A 0.72 0.72 0.0 0 0 123.49 68.73
  Z" fill="#fdfdfd"></path>
<path d="M 36.06 67.51
  Q 36.06 68.00 35.52 68.82
  Q 32.45 70.70 30.77 68.65
  C 28.23 65.54 34.87 61.47 36.06 67.51
  Z" fill="#fdfdfd"></path>
<path d="M 82.79 76.87
  Q 82.09 76.80 79.51 77.08
  Q 78.05 77.24 78.00 75.77
  L 77.96 74.66
  Q 77.92 73.24 79.34 73.25
  L 89.25 73.27
  A 0.92 0.92 0.0 0 1 90.15 74.36
  Q 88.56 82.64 81.61 84.16
  C 71.99 86.26 64.39 74.75 71.46 67.56
  C 75.88 63.07 82.63 63.18 87.41 67.24
  Q 87.84 67.61 87.49 68.05
  C 86.28 69.60 84.83 69.78 82.98 68.92
  C 78.38 66.78 73.18 69.03 73.00 74.32
  C 72.81 79.61 79.28 82.16 83.41 79.19
  Q 86.17 77.21 82.79 76.87
  Z" fill="#fdfdfd"></path>
<path d="M 157.18 69.17
  L 156.41 67.14
  C 157.25 62.85 162.41 64.08 161.75 67.52
  Q 161.16 70.69 157.18 69.17
  Z" fill="#fdfdfd"></path>
<path d="M 156.41 67.14
  L 157.18 69.17
  L 146.88 70.77
  Q 147.35 69.20 146.54 68.03
  Q 151.97 68.33 156.41 67.14
  Z" fill="#49c1f7"></path>
<path d="M 36.06 67.51
  L 45.56 67.90
  Q 44.77 69.36 45.04 70.47
  Q 39.97 70.88 35.52 68.82
  Q 36.06 68.00 36.06 67.51
  Z" fill="#49c1f7"></path>
<path d="M 45.56 67.90
  Q 48.64 69.19 51.95 71.81
  C 53.95 73.39 60.50 72.76 64.44 72.64
  Q 65.66 72.61 65.20 73.75
  L 64.99 74.26
  Q 64.51 75.45 63.22 75.47
  Q 55.40 75.59 53.25 75.50
  C 50.52 75.39 47.10 72.15 45.04 70.47
  Q 44.77 69.36 45.56 67.90
  Z" fill="#fcb222"></path>
<path d="M 98.97 68.84
  A 0.88 0.88 0.0 0 1 99.85 67.96
  L 105.70 68.01
  A 2.37 1.86 0.4 0 1 108.06 69.88
  L 108.06 70.42
  A 2.37 1.86 0.4 0 1 105.68 72.27
  L 99.83 72.22
  A 0.88 0.88 0.0 0 1 98.95 71.34
  L 98.97 68.84
  Z" fill="#304155"></path>
<path d="M 146.54 68.03
  Q 147.35 69.20 146.88 70.77
  L 141.70 74.68
  A 4.33 4.29 25.6 0 1 139.19 75.55
  L 130.00 75.73
  Q 128.82 75.75 129.45 74.75
  L 130.06 73.77
  Q 130.69 72.79 131.85 72.76
  L 138.83 72.59
  Q 139.41 72.58 139.89 72.27
  L 146.54 68.03
  Z" fill="#fcb222"></path>
<path d="M 24.87 77.81
  Q 24.46 78.32 24.76 78.43
  C 23.84 79.95 22.15 81.13 20.39 80.18
  C 16.04 77.85 22.64 71.31 24.87 77.81
  Z" fill="#fdfdfd"></path>
<path d="M 167.36 78.22
  L 167.39 76.93
  Q 168.96 75.20 169.99 75.19
  C 175.90 75.12 172.05 84.42 167.36 78.22
  Z" fill="#fdfdfd"></path>
<path d="M 24.76 78.43
  Q 24.46 78.32 24.87 77.81
  C 27.13 75.01 30.92 78.36 33.03 79.63
  A 5.43 5.43 0.0 0 0 35.78 80.40
  C 45.22 80.48 55.20 81.21 64.47 80.03
  A 0.93 0.92 -77.2 0 1 65.36 81.45
  C 62.81 85.44 59.40 83.48 56.24 83.48
  Q 45.86 83.48 35.18 83.46
  A 4.20 4.09 -30.1 0 1 33.20 82.96
  L 24.76 78.43
  Z" fill="#f996c3"></path>
<path d="M 167.39 76.93
  L 167.36 78.22
  C 164.45 79.89 160.39 83.23 157.00 83.26
  Q 141.66 83.38 126.88 83.47
  Q 125.74 83.48 126.27 82.47
  L 126.74 81.56
  A 2.01 1.98 13.8 0 1 128.53 80.49
  Q 141.21 80.51 154.50 80.47
  C 157.14 80.46 158.44 80.05 160.79 78.44
  Q 164.22 76.09 167.39 76.93
  Z" fill="#f996c3"></path>
<path d="M 84.29 98.51
  L 84.00 88.25
  Q 83.98 87.48 84.75 87.46
  L 87.24 87.38
  Q 88.12 87.36 88.12 88.24
  L 88.08 105.85
  Q 88.08 106.35 87.62 106.56
  Q 85.50 107.49 84.40 106.10
  Q 80.40 101.08 75.25 95.04
  Q 73.93 93.50 73.96 95.53
  L 74.10 105.83
  Q 74.12 106.91 73.04 106.93
  L 71.10 106.97
  Q 69.97 106.99 69.97 105.85
  L 70.01 88.19
  Q 70.01 87.65 70.54 87.54
  C 72.21 87.19 73.39 87.40 74.61 88.71
  Q 79.24 93.67 83.43 98.83
  Q 84.33 99.93 84.29 98.51
  Z" fill="#fdfdfd"></path>
<path d="M 162.59 89.99
  C 167.12 90.11 168.79 89.73 172.38 87.49
  Q 172.77 87.24 173.22 87.38
  Q 174.52 87.79 173.94 88.96
  C 172.22 92.46 166.11 92.61 162.21 92.10
  A 0.83 0.82 6.1 0 1 161.49 91.21
  L 161.51 90.96
  Q 161.59 89.96 162.59 89.99
  Z" fill="#49c1f7"></path>
<path d="M 19.52 87.51
  C 22.38 89.42 23.74 90.39 27.92 89.97
  A 1.35 1.34 -11.7 0 1 29.34 90.90
  L 29.45 91.27
  A 0.73 0.72 80.0 0 1 28.80 92.21
  C 24.05 92.45 20.66 92.55 18.00 88.64
  Q 17.78 88.31 17.99 87.97
  Q 18.65 86.93 19.52 87.51
  Z" fill="#49c1f7"></path>
<path d="M 95.91 94.15
  C 98.17 95.24 102.09 96.26 103.36 98.70
  C 104.96 101.77 103.47 105.35 100.25 106.51
  Q 96.28 107.92 91.69 104.60
  A 1.23 1.23 0.0 0 1 91.41 102.89
  L 92.02 102.03
  Q 92.82 100.92 93.95 101.69
  C 95.68 102.87 98.44 103.71 99.77 101.98
  A 1.43 1.43 0.0 0 0 99.19 99.79
  C 95.74 98.35 90.45 97.24 91.66 92.03
  C 93.02 86.21 99.50 86.30 103.03 89.86
  Q 103.41 90.25 103.25 90.77
  Q 102.97 91.70 102.29 92.39
  Q 101.89 92.79 101.38 92.54
  C 99.80 91.78 97.23 90.49 95.66 91.70
  A 1.45 1.45 0.0 0 0 95.91 94.15
  Z" fill="#fdfdfd"></path>
<path d="M 141.02 103.63
  L 141.28 105.80
  A 0.69 0.69 0.0 0 1 140.61 106.58
  L 128.74 106.67
  A 0.69 0.69 0.0 0 1 128.05 105.99
  L 128.01 88.30
  A 0.69 0.69 0.0 0 1 128.67 87.61
  L 131.33 87.50
  A 0.69 0.69 0.0 0 1 132.05 88.19
  L 132.04 102.34
  A 0.69 0.69 0.0 0 0 132.73 103.03
  L 140.33 103.02
  A 0.69 0.69 0.0 0 1 141.02 103.63
  Z" fill="#fdfdfd"></path>
<path d="M 31.24 95.50
  C 32.21 88.67 40.55 85.75 46.29 89.35
  A 0.87 0.87 0.0 0 1 46.56 90.56
  L 45.58 92.10
  A 1.06 1.05 -61.7 0 1 44.27 92.50
  C 33.38 87.80 31.44 105.53 43.82 102.25
  Q 44.60 102.05 45.03 102.73
  L 46.47 105.01
  Q 46.89 105.68 46.13 105.91
  C 38.38 108.21 29.93 104.70 31.24 95.50
  Z" fill="#fdfdfd"></path>
<path d="M 67.20 97.31
  A 9.62 9.62 0.0 0 1 57.58 106.93
  A 9.62 9.62 0.0 0 1 47.96 97.31
  A 9.62 9.62 0.0 0 1 57.58 87.69
  A 9.62 9.62 0.0 0 1 67.20 97.31
  Z
  M 63.24 97.29
  A 5.62 5.62 0.0 0 0 57.62 91.67
  A 5.62 5.62 0.0 0 0 52.00 97.29
  A 5.62 5.62 0.0 0 0 57.62 102.91
  A 5.62 5.62 0.0 0 0 63.24 97.29
  Z" fill="#fdfdfd"></path>
<path d="M 125.51 97.27
  A 9.66 9.66 0.0 0 1 115.85 106.93
  A 9.66 9.66 0.0 0 1 106.19 97.27
  A 9.66 9.66 0.0 0 1 115.85 87.61
  A 9.66 9.66 0.0 0 1 125.51 97.27
  Z
  M 121.56 97.28
  A 5.69 5.69 0.0 0 0 115.87 91.59
  A 5.69 5.69 0.0 0 0 110.18 97.28
  A 5.69 5.69 0.0 0 0 115.87 102.97
  A 5.69 5.69 0.0 0 0 121.56 97.28
  Z" fill="#fdfdfd"></path>
<path d="M 147.83 92.13
  L 147.72 94.80
  A 0.83 0.83 0.0 0 0 148.56 95.67
  L 157.35 95.62
  A 0.83 0.83 0.0 0 1 158.19 96.48
  L 158.13 98.50
  A 0.83 0.83 0.0 0 1 157.30 99.31
  L 148.64 99.26
  A 0.83 0.83 0.0 0 0 147.81 100.06
  L 147.72 102.14
  A 0.83 0.83 0.0 0 0 148.55 103.00
  L 157.21 103.04
  A 0.83 0.83 0.0 0 1 158.04 103.87
  L 158.04 105.89
  A 0.83 0.83 0.0 0 1 157.20 106.72
  L 144.81 106.58
  A 0.83 0.83 0.0 0 1 143.99 105.75
  L 143.98 88.60
  A 0.83 0.83 0.0 0 1 144.81 87.77
  L 157.43 87.83
  A 0.83 0.83 0.0 0 1 158.26 88.67
  L 158.22 90.67
  A 0.83 0.83 0.0 0 1 157.38 91.49
  L 148.67 91.33
  A 0.83 0.83 0.0 0 0 147.83 92.13
  Z" fill="#fdfdfd"></path>
<circle r="5.69" cy="97.28" cx="115.87" fill="#304155"></circle>
<circle r="5.62" cy="97.29" cx="57.62" fill="#304155"></circle>
<path d="M 18.28 101.22
  A 0.14 0.14 0.0 0 1 18.14 101.08
  L 18.14 101.01
  A 2.57 2.01 0.0 0 1 20.71 99.00
  L 26.73 99.00
  A 2.57 2.01 0.0 0 1 29.30 101.01
  L 29.30 101.08
  A 0.14 0.14 0.0 0 1 29.16 101.22
  L 18.28 101.22
  Z" fill="#49c1f7"></path>
<path d="M 161.49 101.06
  A 0.15 0.15 0.0 0 1 161.35 100.91
  L 161.35 100.84
  A 2.68 2.00 1.6 0 1 164.08 98.92
  L 171.62 99.13
  A 2.68 2.00 1.6 0 1 174.24 101.20
  L 174.24 101.27
  A 0.15 0.15 0.0 0 1 174.09 101.42
  L 161.49 101.06
  Z" fill="#49c1f7"></path>
<path d="M 64.93 110.41
  L 65.43 110.30
  Q 66.82 110.01 66.82 111.43
  L 66.77 123.98
  Q 66.77 125.08 65.93 125.79
  C 63.89 127.52 61.54 128.78 61.39 132.01
  A 1.37 1.35 -21.9 0 1 61.02 132.86
  C 57.04 136.95 52.15 130.68 56.42 127.58
  Q 56.84 127.27 57.37 127.29
  C 65.95 127.59 64.02 117.00 63.86 111.77
  Q 63.83 110.64 64.93 110.41
  Z
  M 58.9784 130.2134
  A 1.05 0.98 -30.1 0 0 57.5785 129.8922
  A 1.05 0.98 -30.1 0 0 57.1616 131.2666
  A 1.05 0.98 -30.1 0 0 58.5615 131.5878
  A 1.05 0.98 -30.1 0 0 58.9784 130.2134
  Z" fill="#fb5332"></path>
<path d="M 74.63 118.20
  L 72.24 117.88
  L 72.13 111.09
  Q 72.11 110.23 72.98 110.25
  L 73.71 110.27
  Q 74.55 110.29 74.56 111.13
  L 74.63 118.20
  Z" fill="#49c1f7"></path>
<path d="M 81.75 141.26
  Q 81.75 139.46 80.66 140.89
  L 74.80 148.59
  Q 74.49 149.00 73.97 149.00
  L 66.73 148.99
  Q 65.34 148.99 66.13 147.85
  L 66.60 147.17
  A 2.73 2.72 18.4 0 1 68.95 146.00
  L 72.45 146.16
  Q 72.97 146.19 73.28 145.77
  Q 80.70 135.85 89.09 126.80
  Q 89.36 126.51 89.75 125.46
  Q 90.00 124.79 90.00 124.00
  Q 90.00 117.59 89.99 111.22
  Q 89.99 110.17 91.01 110.41
  L 91.47 110.51
  Q 92.24 110.69 92.30 111.47
  Q 92.47 114.01 92.28 116.69
  Q 92.06 119.64 92.32 121.79
  Q 92.58 124.10 92.81 126.43
  A 1.05 1.05 0.0 0 1 92.53 127.26
  C 90.08 129.90 84.49 134.52 84.49 138.25
  Q 84.49 147.50 84.54 156.35
  Q 84.54 157.40 83.75 158.09
  L 82.51 159.16
  Q 81.75 159.82 81.75 158.81
  L 81.75 141.26
  Z" fill="#fb5332"></path>
<path d="M 99.02 115.69
  Q 98.17 115.26 96.94 115.63
  Q 96.27 113.29 96.50 110.93
  A 0.55 0.55 0.0 0 1 97.00 110.44
  L 98.52 110.30
  Q 99.19 110.24 99.26 110.91
  Q 99.52 113.42 99.02 115.69
  Z" fill="#49c1f7"></path>
<path d="M 104.84 162.00
  Q 103.78 160.77 102.28 160.78
  L 102.54 111.22
  Q 102.54 110.24 103.52 110.26
  L 104.52 110.27
  A 0.76 0.76 0.0 0 1 105.27 111.03
  L 105.30 135.17
  A 3.45 3.44 24.8 0 0 106.11 137.36
  L 113.17 145.61
  A 1.23 1.22 -18.7 0 0 114.07 146.05
  L 120.89 146.36
  A 0.66 0.66 0.0 0 1 121.51 147.13
  L 121.43 147.62
  Q 121.28 148.50 120.39 148.54
  L 112.16 148.97
  Q 111.57 149.00 111.23 148.52
  L 106.46 141.83
  Q 105.13 139.96 105.10 142.26
  L 104.84 162.00
  Z" fill="#fb5332"></path>
<path d="M 115.99 136.87
  Q 116.48 137.45 117.24 137.46
  L 138.46 137.63
  Q 139.94 137.65 139.28 138.97
  L 139.11 139.31
  A 2.50 2.49 -76.3 0 1 136.87 140.68
  Q 126.66 140.62 116.75 140.60
  C 113.97 140.60 109.81 134.05 109.84 131.50
  Q 109.93 120.99 109.96 110.85
  A 0.61 0.61 0.0 0 1 110.56 110.24
  L 112.07 110.22
  Q 112.73 110.22 112.74 110.88
  Q 112.96 122.02 112.79 129.75
  C 112.72 132.98 114.15 134.65 115.99 136.87
  Z" fill="#fcb222"></path>
<path d="M 124.41 119.38
  Q 125.84 122.77 122.95 120.33
  C 120.06 117.89 120.42 114.49 120.47 111.20
  Q 120.49 110.28 121.40 110.28
  L 121.78 110.28
  A 0.93 0.93 0.0 0 1 122.72 111.23
  L 122.62 115.68
  Q 122.61 116.21 122.91 116.64
  Q 123.79 117.90 124.41 119.38
  Z" fill="#49c1f7"></path>
<path d="M 35.61 123.10
  Q 35.52 121.81 34.81 120.21
  L 52.98 120.00
  Q 55.51 119.97 56.05 117.49
  L 56.40 115.88
  Q 56.91 113.52 54.50 113.52
  L 37.42 113.51
  Q 36.39 113.51 36.98 112.66
  L 37.75 111.54
  A 1.80 1.79 -72.9 0 1 39.21 110.76
  L 58.45 110.56
  A 0.64 0.63 89.6 0 1 59.09 111.20
  L 59.04 118.74
  A 1.51 1.46 66.8 0 1 58.66 119.74
  C 56.43 122.26 53.99 123.08 50.41 123.05
  Q 42.99 122.97 35.61 123.10
  Z" fill="#f996c3"></path>
<path d="M 82.83 115.58
  Q 85.90 114.53 82.77 112.38
  Q 82.41 111.69 83.47 110.59
  A 1.05 1.04 -28.1 0 1 85.25 111.13
  C 85.56 112.85 86.01 114.93 84.42 116.42
  Q 84.05 116.77 83.69 116.41
  L 82.83 115.58
  Z" fill="#fb5332"></path>
<path d="M 119.20 111.18
  C 119.45 116.37 119.30 121.79 119.31 127.00
  Q 119.32 130.05 122.10 133.18
  Q 122.76 133.94 121.90 134.45
  L 121.21 134.87
  Q 120.27 135.44 119.49 134.67
  C 117.68 132.93 116.31 131.31 116.29 128.55
  Q 116.22 119.73 116.28 111.26
  Q 116.29 110.50 117.05 110.50
  L 118.47 110.49
  A 0.72 0.72 0.0 0 1 119.20 111.18
  Z" fill="#fcb222"></path>
<path d="M 130.83 126.17
  C 132.48 127.70 133.92 127.00 135.51 127.44
  C 140.35 128.80 135.97 137.74 131.30 132.81
  Q 130.95 132.44 130.90 131.94
  C 130.56 129.09 129.22 128.17 127.27 126.43
  A 2.58 2.58 0.0 0 1 126.40 124.50
  L 126.43 111.68
  Q 126.43 110.50 127.61 110.45
  L 127.86 110.44
  Q 129.06 110.39 129.03 111.59
  C 128.91 116.63 128.17 123.72 130.83 126.17
  Z
  M 135.21 130.71
  A 1.11 1.11 0.0 0 0 134.10 129.60
  A 1.11 1.11 0.0 0 0 132.99 130.71
  A 1.11 1.11 0.0 0 0 134.10 131.82
  A 1.11 1.11 0.0 0 0 135.21 130.71
  Z" fill="#fb5332"></path>
<path d="M 81.17 113.61
  Q 80.86 121.65 81.27 128.00
  C 81.60 133.20 77.12 136.53 74.10 139.97
  A 1.81 1.77 -68.8 0 1 72.76 140.58
  L 55.75 140.65
  A 2.31 2.28 -16.9 0 1 53.85 139.65
  L 53.17 138.64
  Q 52.51 137.67 53.69 137.66
  L 71.48 137.61
  A 2.01 2.00 -69.4 0 0 72.99 136.92
  C 74.96 134.63 78.35 131.52 78.22 128.25
  Q 77.90 119.59 78.03 111.31
  Q 78.04 110.63 78.72 110.64
  L 80.97 110.66
  Q 81.52 110.67 81.42 111.20
  Q 81.23 112.15 81.17 113.61
  Z" fill="#fcb222"></path>
<path d="M 157.77 120.15
  Q 156.43 121.92 156.28 123.07
  Q 148.78 122.97 141.25 123.05
  C 138.62 123.07 133.89 121.54 133.87 118.25
  Q 133.84 114.74 133.77 111.22
  Q 133.76 110.73 134.25 110.73
  L 153.41 110.73
  Q 154.64 110.73 155.15 111.86
  L 155.43 112.48
  Q 155.88 113.50 154.77 113.50
  L 138.38 113.49
  Q 136.49 113.49 136.52 115.37
  L 136.55 117.63
  A 2.35 2.34 89.7 0 0 138.87 119.94
  L 157.77 120.15
  Z" fill="#f996c3"></path>
<rect rx="0.89" height="2.26" width="12.00" transform="translate(28.13,112.10) rotate(0.2)" y="-1.13" x="-6.00" fill="#49c1f7"></rect>
<rect rx="1.01" height="2.10" width="12.32" transform="translate(164.06,112.17) rotate(-0.4)" y="-1.05" x="-6.16" fill="#49c1f7"></rect>
<path d="M 82.77 112.38
  Q 85.90 114.53 82.83 115.58
  Q 80.74 114.29 82.77 112.38
  Z" fill="#fdfdfd"></path>
<path d="M 96.94 115.63
  Q 98.17 115.26 99.02 115.69
  C 98.82 117.66 96.60 119.35 95.20 120.39
  Q 94.64 120.80 94.29 120.21
  L 93.44 118.81
  A 0.69 0.69 0.0 0 1 93.74 117.83
  Q 95.93 116.81 96.94 115.63
  Z" fill="#fcb222"></path>
<path d="M 72.24 117.88
  L 74.63 118.20
  Q 74.72 120.93 71.00 122.70
  Q 70.61 122.88 70.54 122.46
  Q 70.01 119.38 72.24 117.88
  Z" fill="#fcb222"></path>
<path d="M 34.81 120.21
  Q 35.52 121.81 35.61 123.10
  C 33.85 128.11 27.73 123.50 31.50 120.53
  Q 32.67 119.61 34.81 120.21
  Z" fill="#fdfdfd"></path>
<path d="M 157.77 120.15
  L 159.71 120.27
  Q 160.18 120.30 160.55 120.57
  C 163.28 122.56 159.98 128.30 156.28 123.07
  Q 156.43 121.92 157.77 120.15
  Z" fill="#fdfdfd"></path>
<path d="M 97.67 131.11
  Q 97.49 131.69 97.60 132.33
  Q 97.69 132.91 97.55 133.15
  Q 97.38 133.43 97.05 133.54
  A 0.64 0.63 61.7 0 1 96.34 133.32
  L 94.66 131.11
  Q 94.32 130.66 94.77 130.31
  Q 96.79 128.76 96.60 126.14
  Q 96.56 125.58 96.01 125.50
  L 95.28 125.41
  Q 94.92 125.36 94.89 125.00
  Q 94.87 124.85 94.96 124.70
  Q 95.04 124.57 95.23 124.47
  Q 97.43 123.30 98.79 122.23
  Q 100.18 121.12 99.87 122.87
  C 99.39 125.59 97.76 128.00 100.16 130.48
  A 0.79 0.77 37.4 0 1 100.29 131.38
  L 100.10 131.75
  Q 99.90 132.14 99.55 131.87
  L 98.31 130.90
  Q 97.84 130.53 97.67 131.11
  Z" fill="#49c1f7"></path>
<path d="M 70.32 125.62
  L 72.60 123.50
  A 0.51 0.51 0.0 0 1 73.39 123.61
  L 74.70 125.75
  A 0.51 0.51 0.0 0 1 74.63 126.36
  L 70.50 130.79
  A 0.51 0.51 0.0 0 1 69.62 130.38
  L 70.16 125.94
  A 0.51 0.51 0.0 0 1 70.32 125.62
  Z" fill="#49c1f7"></path>
<circle r="1.11" cy="130.71" cx="134.10" fill="#fdfdfd"></circle>
<ellipse ry="0.98" rx="1.05" transform="translate(58.07,130.74) rotate(-30.1)" cy="0.00" cx="0.00" fill="#fdfdfd"></ellipse>
<path d="M 89.78 141.76
  L 89.72 155.17
  A 0.47 0.47 0.0 0 1 89.49 155.58
  L 88.16 156.35
  A 0.47 0.47 0.0 0 1 87.45 155.95
  L 87.53 140.51
  A 0.47 0.47 0.0 0 1 87.67 140.17
  L 93.02 134.97
  A 0.47 0.47 0.0 0 1 93.69 134.98
  L 94.67 136.04
  A 0.47 0.47 0.0 0 1 94.66 136.69
  L 89.92 141.43
  A 0.47 0.47 0.0 0 0 89.78 141.76
  Z" fill="#49c1f7"></path>
<path d="M 94.88 163.18
  A 3.11 3.10 67.3 0 0 95.75 161.05
  L 95.80 138.03
  Q 95.80 136.92 96.91 136.87
  L 97.29 136.86
  A 0.90 0.90 0.0 0 1 98.23 137.76
  Q 98.29 149.62 98.25 161.00
  C 98.24 164.08 94.52 166.93 92.57 168.85
  Q 91.86 169.54 91.33 168.70
  L 91.18 168.46
  A 1.36 1.36 0.0 0 1 91.35 166.78
  L 94.88 163.18
  Z" fill="#49c1f7"></path>
<rect rx="0.71" height="2.06" width="3.38" transform="translate(124.03,147.42) rotate(-3.7)" y="-1.03" x="-1.69" fill="#fb5332"></rect>
<circle r="2.83" cy="154.57" cx="74.37" fill="#fdfdfd"></circle>
<circle r="2.79" cy="154.56" cx="112.08" fill="#fdfdfd"></circle>
<path d="M 102.28 160.78
  Q 103.78 160.77 104.84 162.00
  Q 105.66 164.04 108.20 166.21
  Q 109.33 167.18 108.81 168.58
  L 108.59 169.16
  Q 108.14 170.36 107.25 169.43
  C 105.12 167.21 101.58 164.45 102.28 160.78
  Z" fill="#fcb222"></path>
</svg>
