<svg viewBox="0.00 0.00 1448.00 1448.00" version="1.1" xmlns="http://www.w3.org/2000/svg">
<g stroke-linecap="butt" fill="none" stroke-width="2.00">
<path d="M 395.81 0.00
  Q 365.87 0.24 324.00 1.27
  C 285.76 2.21 247.71 4.77 210.75 12.97
  C 136.73 29.38 73.03 83.68 36.56 148.77
  C 17.23 183.26 8.88 220.60 5.20 259.90
  Q 1.31 301.48 0.71 343.25
  Q 0.34 368.45 0.00 393.66" stroke="#808080"></path>
<path d="M 1052.08 0.00
  C 1082.67 0.39 1113.18 0.74 1143.75 2.04
  C 1170.27 3.16 1196.85 5.37 1223.01 9.97
  C 1244.21 13.70 1265.65 19.88 1285.09 29.20
  C 1349.46 60.07 1404.34 117.96 1428.10 185.69
  C 1431.97 196.72 1435.34 210.12 1437.50 221.50
  C 1446.98 271.60 1446.99 324.27 1448.00 375.53" stroke="#808080"></path>
<path d="M 1448.00 1072.60
  Q 1447.54 1107.32 1446.22 1142.00
  Q 1444.85 1177.92 1439.57 1213.48
  C 1435.16 1243.20 1427.40 1270.24 1413.41 1295.95
  Q 1376.66 1363.47 1311.68 1404.50
  Q 1282.84 1422.72 1249.97 1431.84
  C 1225.40 1438.66 1200.86 1442.17 1174.74 1444.16
  C 1140.49 1446.78 1106.27 1447.38 1071.94 1448.00" stroke="#808080"></path>
<path d="M 374.44 1448.00
  C 323.67 1446.90 272.93 1446.71 222.78 1437.55
  C 193.73 1432.25 167.63 1423.07 142.32 1407.97
  Q 80.50 1371.07 42.62 1309.85
  Q 29.90 1289.29 22.53 1269.70
  C 10.82 1238.57 5.85 1203.24 3.52 1169.49
  C 0.89 1131.32 0.52 1093.18 0.00 1054.94" stroke="#808080"></path>
<path d="M 1021.27 657.03
  C 1045.98 759.18 1012.60 865.35 933.72 934.73
  C 886.43 976.32 826.86 1000.79 763.99 1004.14
  Q 757.27 1004.50 744.00 1004.51
  Q 676.09 1004.56 608.17 1004.55
  C 607.38 1004.55 606.41 1004.84 605.50 1004.74" stroke="#037603"></path>
<path d="M 605.50 1004.74
  L 605.51 818.23
  Q 605.51 817.69 604.98 817.69
  L 419.39 817.66
  A 0.76 0.76 0.0 0 0 418.63 818.42
  L 418.57 1004.26
  Q 418.57 1004.74 419.05 1004.74
  L 605.50 1004.74" stroke="#037603"></path>
<path d="M 605.50 1004.74
  L 605.54 1190.93
  Q 605.54 1191.61 606.22 1191.61
  Q 677.89 1191.70 748.75 1191.72
  C 925.57 1191.77 1088.47 1090.71 1167.23 932.78
  C 1194.65 877.79 1211.56 817.23 1215.25 755.56" stroke="#037603"></path>
<path d="M 1215.25 755.56
  Q 1215.52 753.03 1215.66 750.50
  C 1219.46 680.51 1208.04 609.99 1180.99 545.47
  C 1117.04 392.95 977.92 283.64 813.35 260.86
  Q 782.11 256.54 756.00 256.52
  Q 680.85 256.46 605.77 256.48
  A 0.28 0.28 0.0 0 0 605.49 256.76
  L 605.52 442.78
  Q 605.52 443.38 606.12 443.38
  Q 678.40 443.45 750.47 443.44
  C 754.74 443.44 759.21 443.82 763.59 444.01
  C 886.96 449.50 991.37 538.25 1021.27 657.03" stroke="#537603"></path>
<path d="M 1215.25 755.56
  Q 1215.33 756.69 1214.14 756.98
  Q 1213.66 757.09 1213.65 756.61
  L 1213.59 754.80
  Q 1213.57 754.28 1213.07 754.41
  Q 1211.84 754.74 1211.34 753.62
  Q 1210.04 750.71 1207.27 750.26
  C 1206.05 750.07 1204.48 747.85 1202.68 747.36
  Q 1201.86 747.13 1201.03 746.90
  Q 1199.93 746.59 1198.83 745.66
  Q 1197.64 744.67 1196.21 743.98
  Q 1195.77 743.76 1195.48 743.36
  Q 1194.68 742.24 1193.00 741.60
  Q 1190.31 740.58 1187.38 738.55
  C 1185.50 737.24 1183.86 736.49 1181.92 735.55
  C 1181.12 735.17 1179.74 734.97 1178.82 734.09
  Q 1178.52 733.80 1178.10 733.84
  Q 1177.16 733.94 1176.35 733.39
  Q 1174.20 731.92 1172.04 730.45
  Q 1171.47 730.06 1170.77 730.03
  A 1.40 1.38 -22.7 0 1 1169.90 729.68
  Q 1168.30 728.24 1166.19 727.99
  Q 1166.12 727.98 1166.11 728.06
  Q 1166.11 728.20 1166.28 728.27
  A 0.15 0.14 45.4 0 1 1166.28 728.54
  Q 1165.66 728.77 1165.20 728.47
  A 0.11 0.10 -49.8 0 1 1165.19 728.31
  Q 1165.29 728.22 1165.38 728.12
  Q 1165.52 727.97 1165.36 727.84
  Q 1163.41 726.32 1161.01 725.77
  A 0.54 0.48 -74.8 0 1 1160.68 725.09
  Q 1160.71 725.00 1160.87 724.88
  Q 1160.98 724.80 1160.85 724.83
  L 1159.98 724.99
  Q 1159.56 725.07 1159.26 724.77
  Q 1155.07 720.49 1151.49 719.52
  Q 1148.80 718.79 1147.48 717.98
  Q 1147.07 717.74 1146.61 717.65
  Q 1145.26 717.37 1143.62 716.38
  Q 1139.78 714.04 1133.77 711.55
  C 1131.20 710.49 1129.64 707.75 1126.36 707.95
  Q 1125.59 708.00 1125.06 707.53
  C 1123.91 706.51 1122.73 705.87 1121.36 705.19
  C 1119.56 704.29 1118.00 702.67 1115.57 702.32
  Q 1115.07 702.25 1114.67 701.96
  Q 1112.52 700.38 1109.93 699.76
  Q 1109.42 699.63 1109.04 699.26
  C 1107.08 697.34 1105.15 697.33 1102.98 696.03
  C 1100.98 694.84 1098.83 694.72 1096.95 693.03
  C 1095.80 692.00 1094.61 691.62 1093.48 690.75
  Q 1092.06 689.65 1090.89 689.09
  C 1088.66 688.01 1086.92 686.36 1084.70 685.43
  Q 1081.79 684.22 1078.98 682.80
  Q 1078.55 682.58 1078.24 682.21
  Q 1077.26 681.03 1075.23 680.87
  Q 1072.38 680.64 1070.72 678.02
  Q 1070.45 677.59 1069.96 677.49
  Q 1067.62 677.04 1065.48 676.02
  C 1064.27 675.44 1063.51 675.64 1062.23 675.62
  Q 1061.63 675.60 1061.63 675.00
  L 1061.63 674.46
  Q 1061.63 673.92 1061.10 673.79
  Q 1058.07 673.04 1055.61 671.14
  Q 1054.58 670.35 1050.51 669.01
  Q 1050.09 668.87 1049.94 668.31
  Q 1049.81 667.87 1049.40 667.65
  L 1045.04 665.36
  Q 1044.63 665.14 1044.16 665.13
  Q 1042.89 665.11 1041.71 664.64
  Q 1041.38 664.51 1041.10 664.71
  L 1040.41 665.23
  Q 1040.19 665.40 1040.07 665.14
  Q 1039.98 664.95 1039.89 664.77
  Q 1039.75 664.48 1039.98 664.25
  Q 1040.69 663.56 1040.14 662.86
  A 0.65 0.63 -23.8 0 0 1039.50 662.62
  Q 1039.19 662.68 1038.95 662.45
  Q 1038.87 662.38 1038.87 662.48
  Q 1038.87 662.62 1038.87 662.75
  Q 1038.87 662.76 1038.13 662.87
  Q 1037.86 662.91 1037.66 662.64
  Q 1037.59 662.55 1037.65 662.45
  L 1037.80 662.22
  Q 1038.02 661.87 1037.62 661.87
  L 1036.88 661.87
  Q 1036.47 661.87 1036.14 661.62
  L 1031.04 657.73
  A 0.58 0.53 61.8 0 0 1030.76 657.63
  Q 1029.77 657.57 1028.97 657.00
  Q 1028.56 656.71 1028.06 656.69
  L 1024.87 656.50
  Q 1024.34 656.47 1023.90 656.17
  Q 1023.38 655.83 1022.75 655.88
  Q 1022.64 655.89 1022.72 655.97
  Q 1022.81 656.06 1022.85 656.19
  Q 1022.87 656.24 1022.85 656.28
  Q 1022.28 657.41 1021.27 657.03" stroke="#56ec06"></path>
<path d="M 419.09 443.39
  A 0.53 0.53 0.0 0 0 418.56 443.92
  L 418.58 630.01
  A 0.53 0.53 0.0 0 0 419.11 630.54
  L 605.02 630.54
  A 0.53 0.53 0.0 0 0 605.55 630.01
  L 605.54 443.88
  A 0.53 0.53 0.0 0 0 605.01 443.35
  L 419.09 443.39" stroke="#037603"></path>
<path d="M 418.72 630.72
  A 0.27 0.27 0.0 0 0 418.45 630.45
  L 232.03 630.45
  A 0.27 0.27 0.0 0 0 231.76 630.72
  L 231.76 817.20
  A 0.27 0.27 0.0 0 0 232.03 817.47
  L 418.45 817.47
  A 0.27 0.27 0.0 0 0 418.72 817.20
  L 418.72 630.72" stroke="#037603"></path>
</g>
<path d="M 0.00 0.00
  L 395.81 0.00
  Q 365.87 0.24 324.00 1.27
  C 285.76 2.21 247.71 4.77 210.75 12.97
  C 136.73 29.38 73.03 83.68 36.56 148.77
  C 17.23 183.26 8.88 220.60 5.20 259.90
  Q 1.31 301.48 0.71 343.25
  Q 0.34 368.45 0.00 393.66
  L 0.00 0.00
  Z" fill="#ffffff"></path>
<path d="M 395.81 0.00
  L 1052.08 0.00
  C 1082.67 0.39 1113.18 0.74 1143.75 2.04
  C 1170.27 3.16 1196.85 5.37 1223.01 9.97
  C 1244.21 13.70 1265.65 19.88 1285.09 29.20
  C 1349.46 60.07 1404.34 117.96 1428.10 185.69
  C 1431.97 196.72 1435.34 210.12 1437.50 221.50
  C 1446.98 271.60 1446.99 324.27 1448.00 375.53
  L 1448.00 1072.60
  Q 1447.54 1107.32 1446.22 1142.00
  Q 1444.85 1177.92 1439.57 1213.48
  C 1435.16 1243.20 1427.40 1270.24 1413.41 1295.95
  Q 1376.66 1363.47 1311.68 1404.50
  Q 1282.84 1422.72 1249.97 1431.84
  C 1225.40 1438.66 1200.86 1442.17 1174.74 1444.16
  C 1140.49 1446.78 1106.27 1447.38 1071.94 1448.00
  L 374.44 1448.00
  C 323.67 1446.90 272.93 1446.71 222.78 1437.55
  C 193.73 1432.25 167.63 1423.07 142.32 1407.97
  Q 80.50 1371.07 42.62 1309.85
  Q 29.90 1289.29 22.53 1269.70
  C 10.82 1238.57 5.85 1203.24 3.52 1169.49
  C 0.89 1131.32 0.52 1093.18 0.00 1054.94
  L 0.00 393.66
  Q 0.34 368.45 0.71 343.25
  Q 1.31 301.48 5.20 259.90
  C 8.88 220.60 17.23 183.26 36.56 148.77
  C 73.03 83.68 136.73 29.38 210.75 12.97
  C 247.71 4.77 285.76 2.21 324.00 1.27
  Q 365.87 0.24 395.81 0.00
  Z
  M 1021.27 657.03
  C 1045.98 759.18 1012.60 865.35 933.72 934.73
  C 886.43 976.32 826.86 1000.79 763.99 1004.14
  Q 757.27 1004.50 744.00 1004.51
  Q 676.09 1004.56 608.17 1004.55
  C 607.38 1004.55 606.41 1004.84 605.50 1004.74
  L 605.51 818.23
  Q 605.51 817.69 604.98 817.69
  L 419.39 817.66
  A 0.76 0.76 0.0 0 0 418.63 818.42
  L 418.57 1004.26
  Q 418.57 1004.74 419.05 1004.74
  L 605.50 1004.74
  L 605.54 1190.93
  Q 605.54 1191.61 606.22 1191.61
  Q 677.89 1191.70 748.75 1191.72
  C 925.57 1191.77 1088.47 1090.71 1167.23 932.78
  C 1194.65 877.79 1211.56 817.23 1215.25 755.56
  Q 1215.52 753.03 1215.66 750.50
  C 1219.46 680.51 1208.04 609.99 1180.99 545.47
  C 1117.04 392.95 977.92 283.64 813.35 260.86
  Q 782.11 256.54 756.00 256.52
  Q 680.85 256.46 605.77 256.48
  A 0.28 0.28 0.0 0 0 605.49 256.76
  L 605.52 442.78
  Q 605.52 443.38 606.12 443.38
  Q 678.40 443.45 750.47 443.44
  C 754.74 443.44 759.21 443.82 763.59 444.01
  C 886.96 449.50 991.37 538.25 1021.27 657.03
  Z
  M 419.09 443.39
  A 0.53 0.53 0.0 0 0 418.56 443.92
  L 418.58 630.01
  A 0.53 0.53 0.0 0 0 419.11 630.54
  L 605.02 630.54
  A 0.53 0.53 0.0 0 0 605.55 630.01
  L 605.54 443.88
  A 0.53 0.53 0.0 0 0 605.01 443.35
  L 419.09 443.39
  Z
  M 418.72 630.72
  A 0.27 0.27 0.0 0 0 418.45 630.45
  L 232.03 630.45
  A 0.27 0.27 0.0 0 0 231.76 630.72
  L 231.76 817.20
  A 0.27 0.27 0.0 0 0 232.03 817.47
  L 418.45 817.47
  A 0.27 0.27 0.0 0 0 418.72 817.20
  L 418.72 630.72
  Z" fill="#000000"></path>
<path d="M 1052.08 0.00
  L 1448.00 0.00
  L 1448.00 375.53
  C 1446.99 324.27 1446.98 271.60 1437.50 221.50
  C 1435.34 210.12 1431.97 196.72 1428.10 185.69
  C 1404.34 117.96 1349.46 60.07 1285.09 29.20
  C 1265.65 19.88 1244.21 13.70 1223.01 9.97
  C 1196.85 5.37 1170.27 3.16 1143.75 2.04
  C 1113.18 0.74 1082.67 0.39 1052.08 0.00
  Z" fill="#ffffff"></path>
<path d="M 1215.25 755.56
  Q 1215.33 756.69 1214.14 756.98
  Q 1213.66 757.09 1213.65 756.61
  L 1213.59 754.80
  Q 1213.57 754.28 1213.07 754.41
  Q 1211.84 754.74 1211.34 753.62
  Q 1210.04 750.71 1207.27 750.26
  C 1206.05 750.07 1204.48 747.85 1202.68 747.36
  Q 1201.86 747.13 1201.03 746.90
  Q 1199.93 746.59 1198.83 745.66
  Q 1197.64 744.67 1196.21 743.98
  Q 1195.77 743.76 1195.48 743.36
  Q 1194.68 742.24 1193.00 741.60
  Q 1190.31 740.58 1187.38 738.55
  C 1185.50 737.24 1183.86 736.49 1181.92 735.55
  C 1181.12 735.17 1179.74 734.97 1178.82 734.09
  Q 1178.52 733.80 1178.10 733.84
  Q 1177.16 733.94 1176.35 733.39
  Q 1174.20 731.92 1172.04 730.45
  Q 1171.47 730.06 1170.77 730.03
  A 1.40 1.38 -22.7 0 1 1169.90 729.68
  Q 1168.30 728.24 1166.19 727.99
  Q 1166.12 727.98 1166.11 728.06
  Q 1166.11 728.20 1166.28 728.27
  A 0.15 0.14 45.4 0 1 1166.28 728.54
  Q 1165.66 728.77 1165.20 728.47
  A 0.11 0.10 -49.8 0 1 1165.19 728.31
  Q 1165.29 728.22 1165.38 728.12
  Q 1165.52 727.97 1165.36 727.84
  Q 1163.41 726.32 1161.01 725.77
  A 0.54 0.48 -74.8 0 1 1160.68 725.09
  Q 1160.71 725.00 1160.87 724.88
  Q 1160.98 724.80 1160.85 724.83
  L 1159.98 724.99
  Q 1159.56 725.07 1159.26 724.77
  Q 1155.07 720.49 1151.49 719.52
  Q 1148.80 718.79 1147.48 717.98
  Q 1147.07 717.74 1146.61 717.65
  Q 1145.26 717.37 1143.62 716.38
  Q 1139.78 714.04 1133.77 711.55
  C 1131.20 710.49 1129.64 707.75 1126.36 707.95
  Q 1125.59 708.00 1125.06 707.53
  C 1123.91 706.51 1122.73 705.87 1121.36 705.19
  C 1119.56 704.29 1118.00 702.67 1115.57 702.32
  Q 1115.07 702.25 1114.67 701.96
  Q 1112.52 700.38 1109.93 699.76
  Q 1109.42 699.63 1109.04 699.26
  C 1107.08 697.34 1105.15 697.33 1102.98 696.03
  C 1100.98 694.84 1098.83 694.72 1096.95 693.03
  C 1095.80 692.00 1094.61 691.62 1093.48 690.75
  Q 1092.06 689.65 1090.89 689.09
  C 1088.66 688.01 1086.92 686.36 1084.70 685.43
  Q 1081.79 684.22 1078.98 682.80
  Q 1078.55 682.58 1078.24 682.21
  Q 1077.26 681.03 1075.23 680.87
  Q 1072.38 680.64 1070.72 678.02
  Q 1070.45 677.59 1069.96 677.49
  Q 1067.62 677.04 1065.48 676.02
  C 1064.27 675.44 1063.51 675.64 1062.23 675.62
  Q 1061.63 675.60 1061.63 675.00
  L 1061.63 674.46
  Q 1061.63 673.92 1061.10 673.79
  Q 1058.07 673.04 1055.61 671.14
  Q 1054.58 670.35 1050.51 669.01
  Q 1050.09 668.87 1049.94 668.31
  Q 1049.81 667.87 1049.40 667.65
  L 1045.04 665.36
  Q 1044.63 665.14 1044.16 665.13
  Q 1042.89 665.11 1041.71 664.64
  Q 1041.38 664.51 1041.10 664.71
  L 1040.41 665.23
  Q 1040.19 665.40 1040.07 665.14
  Q 1039.98 664.95 1039.89 664.77
  Q 1039.75 664.48 1039.98 664.25
  Q 1040.69 663.56 1040.14 662.86
  A 0.65 0.63 -23.8 0 0 1039.50 662.62
  Q 1039.19 662.68 1038.95 662.45
  Q 1038.87 662.38 1038.87 662.48
  Q 1038.87 662.62 1038.87 662.75
  Q 1038.87 662.76 1038.13 662.87
  Q 1037.86 662.91 1037.66 662.64
  Q 1037.59 662.55 1037.65 662.45
  L 1037.80 662.22
  Q 1038.02 661.87 1037.62 661.87
  L 1036.88 661.87
  Q 1036.47 661.87 1036.14 661.62
  L 1031.04 657.73
  A 0.58 0.53 61.8 0 0 1030.76 657.63
  Q 1029.77 657.57 1028.97 657.00
  Q 1028.56 656.71 1028.06 656.69
  L 1024.87 656.50
  Q 1024.34 656.47 1023.90 656.17
  Q 1023.38 655.83 1022.75 655.88
  Q 1022.64 655.89 1022.72 655.97
  Q 1022.81 656.06 1022.85 656.19
  Q 1022.87 656.24 1022.85 656.28
  Q 1022.28 657.41 1021.27 657.03
  C 991.37 538.25 886.96 449.50 763.59 444.01
  C 759.21 443.82 754.74 443.44 750.47 443.44
  Q 678.40 443.45 606.12 443.38
  Q 605.52 443.38 605.52 442.78
  L 605.49 256.76
  A 0.28 0.28 0.0 0 1 605.77 256.48
  Q 680.85 256.46 756.00 256.52
  Q 782.11 256.54 813.35 260.86
  C 977.92 283.64 1117.04 392.95 1180.99 545.47
  C 1208.04 609.99 1219.46 680.51 1215.66 750.50
  Q 1215.52 753.03 1215.25 755.56
  Z" fill="#a6ec05"></path>
<path d="M 419.09 443.39
  L 605.01 443.35
  A 0.53 0.53 0.0 0 1 605.54 443.88
  L 605.55 630.01
  A 0.53 0.53 0.0 0 1 605.02 630.54
  L 419.11 630.54
  A 0.53 0.53 0.0 0 1 418.58 630.01
  L 418.56 443.92
  A 0.53 0.53 0.0 0 1 419.09 443.39
  Z" fill="#05ec06"></path>
<rect rx="0.27" height="187.02" width="186.96" y="630.45" x="231.76" fill="#05ec06"></rect>
<path d="M 1215.25 755.56
  C 1211.56 817.23 1194.65 877.79 1167.23 932.78
  C 1088.47 1090.71 925.57 1191.77 748.75 1191.72
  Q 677.89 1191.70 606.22 1191.61
  Q 605.54 1191.61 605.54 1190.93
  L 605.50 1004.74
  C 606.41 1004.84 607.38 1004.55 608.17 1004.55
  Q 676.09 1004.56 744.00 1004.51
  Q 757.27 1004.50 763.99 1004.14
  C 826.86 1000.79 886.43 976.32 933.72 934.73
  C 1012.60 865.35 1045.98 759.18 1021.27 657.03
  Q 1022.28 657.41 1022.85 656.28
  Q 1022.87 656.24 1022.85 656.19
  Q 1022.81 656.06 1022.72 655.97
  Q 1022.64 655.89 1022.75 655.88
  Q 1023.38 655.83 1023.90 656.17
  Q 1024.34 656.47 1024.87 656.50
  L 1028.06 656.69
  Q 1028.56 656.71 1028.97 657.00
  Q 1029.77 657.57 1030.76 657.63
  A 0.58 0.53 61.8 0 1 1031.04 657.73
  L 1036.14 661.62
  Q 1036.47 661.87 1036.88 661.87
  L 1037.62 661.87
  Q 1038.02 661.87 1037.80 662.22
  L 1037.65 662.45
  Q 1037.59 662.55 1037.66 662.64
  Q 1037.86 662.91 1038.13 662.87
  Q 1038.87 662.76 1038.87 662.75
  Q 1038.87 662.62 1038.87 662.48
  Q 1038.87 662.38 1038.95 662.45
  Q 1039.19 662.68 1039.50 662.62
  A 0.65 0.63 -23.8 0 1 1040.14 662.86
  Q 1040.69 663.56 1039.98 664.25
  Q 1039.75 664.48 1039.89 664.77
  Q 1039.98 664.95 1040.07 665.14
  Q 1040.19 665.40 1040.41 665.23
  L 1041.10 664.71
  Q 1041.38 664.51 1041.71 664.64
  Q 1042.89 665.11 1044.16 665.13
  Q 1044.63 665.14 1045.04 665.36
  L 1049.40 667.65
  Q 1049.81 667.87 1049.94 668.31
  Q 1050.09 668.87 1050.51 669.01
  Q 1054.58 670.35 1055.61 671.14
  Q 1058.07 673.04 1061.10 673.79
  Q 1061.63 673.92 1061.63 674.46
  L 1061.63 675.00
  Q 1061.63 675.60 1062.23 675.62
  C 1063.51 675.64 1064.27 675.44 1065.48 676.02
  Q 1067.62 677.04 1069.96 677.49
  Q 1070.45 677.59 1070.72 678.02
  Q 1072.38 680.64 1075.23 680.87
  Q 1077.26 681.03 1078.24 682.21
  Q 1078.55 682.58 1078.98 682.80
  Q 1081.79 684.22 1084.70 685.43
  C 1086.92 686.36 1088.66 688.01 1090.89 689.09
  Q 1092.06 689.65 1093.48 690.75
  C 1094.61 691.62 1095.80 692.00 1096.95 693.03
  C 1098.83 694.72 1100.98 694.84 1102.98 696.03
  C 1105.15 697.33 1107.08 697.34 1109.04 699.26
  Q 1109.42 699.63 1109.93 699.76
  Q 1112.52 700.38 1114.67 701.96
  Q 1115.07 702.25 1115.57 702.32
  C 1118.00 702.67 1119.56 704.29 1121.36 705.19
  C 1122.73 705.87 1123.91 706.51 1125.06 707.53
  Q 1125.59 708.00 1126.36 707.95
  C 1129.64 707.75 1131.20 710.49 1133.77 711.55
  Q 1139.78 714.04 1143.62 716.38
  Q 1145.26 717.37 1146.61 717.65
  Q 1147.07 717.74 1147.48 717.98
  Q 1148.80 718.79 1151.49 719.52
  Q 1155.07 720.49 1159.26 724.77
  Q 1159.56 725.07 1159.98 724.99
  L 1160.85 724.83
  Q 1160.98 724.80 1160.87 724.88
  Q 1160.71 725.00 1160.68 725.09
  A 0.54 0.48 -74.8 0 0 1161.01 725.77
  Q 1163.41 726.32 1165.36 727.84
  Q 1165.52 727.97 1165.38 728.12
  Q 1165.29 728.22 1165.19 728.31
  A 0.11 0.10 -49.8 0 0 1165.20 728.47
  Q 1165.66 728.77 1166.28 728.54
  A 0.15 0.14 45.4 0 0 1166.28 728.27
  Q 1166.11 728.20 1166.11 728.06
  Q 1166.12 727.98 1166.19 727.99
  Q 1168.30 728.24 1169.90 729.68
  A 1.40 1.38 -22.7 0 0 1170.77 730.03
  Q 1171.47 730.06 1172.04 730.45
  Q 1174.20 731.92 1176.35 733.39
  Q 1177.16 733.94 1178.10 733.84
  Q 1178.52 733.80 1178.82 734.09
  C 1179.74 734.97 1181.12 735.17 1181.92 735.55
  C 1183.86 736.49 1185.50 737.24 1187.38 738.55
  Q 1190.31 740.58 1193.00 741.60
  Q 1194.68 742.24 1195.48 743.36
  Q 1195.77 743.76 1196.21 743.98
  Q 1197.64 744.67 1198.83 745.66
  Q 1199.93 746.59 1201.03 746.90
  Q 1201.86 747.13 1202.68 747.36
  C 1204.48 747.85 1206.05 750.07 1207.27 750.26
  Q 1210.04 750.71 1211.34 753.62
  Q 1211.84 754.74 1213.07 754.41
  Q 1213.57 754.28 1213.59 754.80
  L 1213.65 756.61
  Q 1213.66 757.09 1214.14 756.98
  Q 1215.33 756.69 1215.25 755.56
  Z" fill="#05ec06"></path>
<path d="M 605.50 1004.74
  L 419.05 1004.74
  Q 418.57 1004.74 418.57 1004.26
  L 418.63 818.42
  A 0.76 0.76 0.0 0 1 419.39 817.66
  L 604.98 817.69
  Q 605.51 817.69 605.51 818.23
  L 605.50 1004.74
  Z" fill="#05ec06"></path>
<path d="M 0.00 1054.94
  C 0.52 1093.18 0.89 1131.32 3.52 1169.49
  C 5.85 1203.24 10.82 1238.57 22.53 1269.70
  Q 29.90 1289.29 42.62 1309.85
  Q 80.50 1371.07 142.32 1407.97
  C 167.63 1423.07 193.73 1432.25 222.78 1437.55
  C 272.93 1446.71 323.67 1446.90 374.44 1448.00
  L 0.00 1448.00
  L 0.00 1054.94
  Z" fill="#ffffff"></path>
<path d="M 1448.00 1072.60
  L 1448.00 1448.00
  L 1071.94 1448.00
  C 1106.27 1447.38 1140.49 1446.78 1174.74 1444.16
  C 1200.86 1442.17 1225.40 1438.66 1249.97 1431.84
  Q 1282.84 1422.72 1311.68 1404.50
  Q 1376.66 1363.47 1413.41 1295.95
  C 1427.40 1270.24 1435.16 1243.20 1439.57 1213.48
  Q 1444.85 1177.92 1446.22 1142.00
  Q 1447.54 1107.32 1448.00 1072.60
  Z" fill="#ffffff"></path>
</svg>
