<svg viewBox="0 0 256 256" xmlns="http://www.w3.org/2000/svg"><g fill="none" stroke-width="2"><path d="m126.55 8.51-2.07 1.73q-.35.29.03.54.77.51.6 1.47a.55.55 0 0 0 .64.64q.54-.09 1.04.13.33.15.33.5v3.49a.37.37 0 0 0 .65.24q.68-.81 1.54.01a1.9.05 74.5 0 1 .53 1.72q.19.7-.24 1.16a.6.6 0 0 0 .13.92q2.42 1.44 2.62 4.26a.25.25 0 0 0 .43.16l.22-.23q.2-.19.68.27.26.24.43.65.19.47.59.78 1.76 1.41 1.41 3.64-.2 1.28 1.1 1.29l1.57.01a.37.36 9.9 0 1 .35.49q-.94 2.59-.23 2.72.22.45.23 1 .01.41.33.67c1.12.88.43 1.85.86 2.87q.52 1.22 1.84 1.32.49.04.69.49.41.9.27 1.91-.08.57.5.63 2.69.24 2.46 3.03-.04.55.4.89l1.66 1.24a.59.59 0 0 1 .16.76q-.15.25-.41.4-.48.26.06.32.23.02.46-.02a.12.11-80.8 0 1 .12.17l-.28.55q-.29.55.33.55h.56q.47 0 .69.42.17.33.26.7.1.45.43.78 1.07 1.07.59 2.73-.13.44.42.99a.21.21 0 0 0 .35-.15v-.36a.28.28 0 0 1 .42-.25q1.01.55.89 1.68a.43.42 89.5 0 0 .47.47q.55-.07.83.36.32.49-.12.86-.48.42-.14 1.13.18.37.48.66.55.53 1.03 1.13.36.46 1.28 1.2 1.45 1.17 1.08 3.31-.01.06.04.1l.21.22a.31.31 0 0 0 .52-.19q.03-.37.34-.64a.54.54 0 0 1 .9.45q-.14 1.97.46 3.86.15.46.6.63.22.09.42.27a.46.46 0 0 1-.04.7q-.64.47-.41 1.32.13.51.59.77.6.35.64.93.01.1.1.06.16-.08.31-.15.36-.16.32-.55-.11-.96.44-1.12" stroke="#9364b2"/><path d="M127.16 76.56q.15-.18-.28-.56a.13.12 70.2 0 1 .1-.22q.13.03.26.05.25.04.19-.21-.07-.34-.34-.4-.14-.03-.12-.17.09-.66.52-1.2.37-.48-.14-.81-.65-.41-.99-1.07-.14-.25-.3-.02-.23.31-.6.22a.56.55-51.4 0 1-.11-1.04q.79-.39.4-1.09-.19-.33-.55-.43-1.26-.33-1.37-1.51-.15-1.73-.96-2.68-.25-.29-.44-.62l-1.3-2.15q-.27-.45-.22-.97.1-.93-.25-1.78-.19-.44-.65-.56-.43-.11-.32-.69.12-.61-.44-.35-.2.09-.33.25-.41.46-.76-.05-.26-.38-.28-.8-.04-.65-.66-.44-1.32.46-1.69-1.01-.53-2.08-1.34-2.73-1.41-1.14-.96-2.76.12-.44-.25-.72-.6-.46-.34-1.19.17-.47-.33-.59-.61-.14-1.18.07-.54.19-.35-.35.29-.83.22-1.71-.04-.46-.38-.77-.83-.76-1.64-1.49-.5-.45-.28-1.04.17-.44-.21-.73-1.08-.82-.81-2.25a.47.47 0 0 0-.68-.5q-.46.24-.98.18-.26-.03-.2-.3.23-.93.01-1.81-.11-.46-.58-.47l-.63-.01a.72.71.4 0 1-.71-.71v-.62q0-.5-.46-.69-.17-.07-.31-.2-.37-.34-.02-.69l.54-.54a.27.27 0 0 0-.16-.46l-1.23-.16q-.88-.12-.25-.74l.38-.38q.46-.46-.16-.65-2.63-.8-1.51-3.28.2-.44-.14-.79l-2.12-2.15q-.39-.4-.41-.96c-.05-1.61-.53-2.05-1.71-2.94q-.63-.47-.39-1.33.14-.51-.33-.76-.39-.21-.62-.58a.14.14 0 0 1 .04-.2q.14-.09.29-.11.38-.07.17-.4-.14-.2-.33-.34-.11-.07-.18.03-.46.69-1.33.36-.74-.29-.38-.99.3-.59.26-1.29-.04-.65-.07-.69-.22-.42-.2-1.22" stroke="#9855a3"/><path d="M211.11 121.15q-1.71-2.21-2.33-4.86a.82.8.1 0 0-.63-.62q-.95-.2-.87-1.14a.34.27 66.6 0 0-.53-.28q-.12.26-.46.04a.37.37 0 0 1-.17-.31v-1.2q0-.52-.31-.92-1.91-2.43-3.4-5.1-.14-.25-.34-1.07-.13-.57-.64-.92a.73.71-65 0 1-.28-.79q.35-1.22-.89-1.84-.18-.08-.25.09-.08.2-.27.14-.09-.03-.01-.08.13-.09.17-.28.38-1.69-2.17-2.47a.25.25 0 0 1-.12-.4q.09-.1.19-.2.14-.13.05-.3c-.72-1.32-1.42-3.33-2.82-3.99q-.36-.17-.04-.41.41-.31.67-.8a.44.44 0 0 0-.54-.62q-.81.29-1.32-.43-.06-.08-.03-.19l.16-.42q.16-.45-.22-.75-.75-.58-1.29-1.39-.26-.4-.28-.88-.02-.58-.54-.87a.96.95-70.6 0 1-.48-1.02q.34-1.8-1.42-1.99a.44.44 0 0 1-.31-.68q.21-.32.24-.69a.58.58 0 0 0-.63-.63q-.8.08-1.38-.5-.38-.38-.26-.9.27-1.12-.71-1.8-.4-.28-.5-.76-.22-1-1.08-1.63a.09.09 0 0 1 .05-.17h.41a.4.4 0 0 0 .24-.72q-.72-.52-.97-1.41-.2-.72-.54 0-.13.26-.45.06-.31-.19-.41-.55-.49-1.83-2.03-2.99a.09.09 0 0 1-.01-.13q.1-.09.2-.19.09-.09 0-.18l-2.16-2.27q-.3-.32-.23-.75.11-.65-.03-1.31-.1-.44-.48-.7-.83-.55-1.45-1.39-.42-.57.27-.47.59.07 1.14-.07.58-.16.24-.65-.27-.41-.8-.22-.3.11-.37-.21l-.09-.46q-.11-.5-.47-.14l-.24.24q-.45.46-.66-.15-.13-.39-.41-.54-.54-.3-.68-.9-.16-.7.2-1.23a.41.41 0 0 0-.3-.64q-1.04-.09-.91-1.02.13-1-.38-.39-.18.22-.46.15-.34-.09-.2-.41.26-.64-.89-1.28" stroke="#8f6ebd"/><path d="m196.02 129.82-1.67-2.14q-.3-.38-.37-.86-.02-.14-.03-.27-.04-.48-.48-.7c-2.52-1.24-1.12-4.01-3.04-6.08q-.32-.35-.3-.83.03-.64-.45-1-.4-.29-.6-.74-.57-1.28-1.26-2.49-.05-.09-.15-.08-.3.03-.67-.08a.06.05 51.5 0 1 .01-.11q.61-.01.5-.46a1.7.23 36.4 0 0-1-.97q-.28-.22-.63-.12-.52.13-.51-.4v-.66q0-.32-.18-.58l-1.85-2.65q-.34-.48-.23-1.07.16-.9-.73-1.19-.31-.1-.31-.43.02-1.47-1.24-1.91-.51-.18-.7-.68-.87-2.23-2.53-3.92-.25-.25-.5 0l-.25.26q-.45.45-.49-.18-.03-.45.34-.69a.42.42 0 0 0-.17-.77q-1.32-.17-1.98-1.43-.14-.26.08-.47l.19-.19q.32-.32.1-.72-.12-.22-.34-.3-.48-.16-.49-.67-.05-2.51-1.88-.76" stroke="#9364b2"/><path d="M56.24 45.44q-.14.73-1.34-.31-.47-.41-.76.14c-.42.82-.44 1.74.18 2.5q.63.76 1.25 1.54.3.37.31.84.01.68.68 1.08.37.22.34.66-.12 1.37 1.06 2.01.49.26.9.65l1.81 1.69q.32.29.01.59l-.32.33q-.4.39.06.71l1.39.97q.44.3.72.75.85 1.31.86 2.79 0 .12.12.1l.32-.06q.11-.02.09.09-.17 1.07.14 2.07a.77.76-8.8 0 0 .73.53h.67q.42 0 .31.4-.12.45-.34.58-.52.3-.27.85.62 1.33 2.09 1.42.51.03.64.52.29 1.16 1.18 1.97.33.3.14.71-.68 1.43.29 2.59.17.21.39.06.27-.18.54-.04.2.1.31.47.48 1.59 1.95 2.57a.84.83 22.1 0 1 .35.81q-.28 1.74 1.17 2.22.48.16.45.66c-.07 1.35.44 1.89 1.63 2.3q.53.18.35.8a.82.81-61.8 0 0 .25.85q1.49 1.32 1.18 3.34-.08.56.45.76.92.33 1.94.09a.08.01-50.1 0 1-.05.08l-.19.23a.25.25 0 0 0 .05.37q.82.56.61 1.52-.07.31.16.53l.33.34q.35.34.49.81.71 2.38 2.44 4.15.32.32.47.76.54 1.54 1.95 2.43.14.09.27-.03.1-.1.13-.31.01-.02.01.01-.02.32.13.62" stroke="#a03f8d"/><path d="M54.53 119.47q-2.7-2.67-3.03-5.04-.07-.46-.53-.49-.63-.05-.89-.54c-1.05-1.91-3.46-3.85-4.03-5.87a1.04 1.02-77.1 0 0-.3-.49q-.82-.81-.65-1.94.06-.4-.21-.7l-3.35-3.69q-.29-.33.01-.65.59-.65.22-1.48a.77.75 87.5 0 0-.41-.39l-.81-.33q-.43-.17-.44-.62-.02-1.64-1.44-1.9-.56-.11-.48-.67.15-1.13-.7-1.83-.42-.35-.36-.9.07-.72-.59-1.07-.48-.25-.42-.79.13-1.2-1-1.2-.58 0-.74-.56-.36-1.3-.26-2.64.04-.54-.47-.74-.88-.35-.88-1.32a.48.48 0 0 0-.48-.48h-.52q-.43-.01-.4-.43.06-1.19-.84-1.81-.39-.26-.28-.72.31-1.26-.75-2.31-.84-.09-.63-.86-1.11-1.2-2.28-2.31-.35-.33-.46-.8-.33-1.38-1.45-2.28-.33-.28-.39-.71-.08-.66-.77-.94" stroke="#a62f7d"/><path d="M37.8 129.11q-.14-.35-.61-.18-.3.11-.31-.21 0-.14-.01-.28-.02-.28-.29-.27-2.6.03-2.7-2.62a.94.9 25.6 0 0-.2-.54q-.79-1.05-1.37-.39-.32.37-.34-.12l-.12-2.99q-.01-.26-.25-.35-.38-.14-.61-.44-.21-.25.02-.48l.31-.3q.58-.57-.23-.58h-.5a.23.23 0 0 0-.12.42q.47.28.39.72a.4.39-71.3 0 1-.56.28q-1.66-.85-1.15-2.52.07-.21.23-.38l.27-.26a.2.19-56.2 0 0-.06-.32q-1.01-.44-1.2-1.5-.07-.42-.48-.56-1.29-.41-1.67-2-.18-.73-1-1.33-.44-.32-.36-.87.13-.84-.33-1.54a.86.86 0 0 0-.85-.39q-.73.12-1.32-.27-.49-.31-.45-.89.06-.82-.71-1.2a.82.81 26.1 0 1-.37-1.07l.69-1.49q.27-.57-.3-.83-.4-.19-.85-.24-.44-.05-.64-.46-.48-1.03-1.42-1.67a.46.43 13.3 0 1-.2-.3q-.42-2.14-2.23-3.32-.41-.27-.47-.76-.17-1.39-1.39-1.9-.2-.08-.18-.29.02-.16.08-.29.11-.24-.15-.2-.17.03-.39.06" stroke="#aa2573"/><path d="m236 179.23-1.5-1.19q-.36-.28-.36-.74.01-1.24-1.14-1.43-.51-.09-.74-.55-1.04-2-1.39-4.23-.07-.47-.44-.76-.27-.22-.31-.59-.04-.35-.12-.47-.15-.24-.4-.34-.24-.09-.47-.68-.09-.25.35-.31.43-.05.05-.25l-.88-.47q-.44-.24-.56-.72-.11-.48-.63-.62a.53.53 0 0 1-.38-.66q.42-1.47-.58-2.4-.38-.35-.38-.87v-.88q0-.52-.37-.88-.35-.34-.79-.33-.47.01-.79-.32l-2.9-3.02q-.3-.31-.2-.73.16-.66-.62-.91-.48-.16-.39-.66.47-2.61-1.61-3.57-.45-.21-.21-.64.06-.12.14-.26.1-.15.01-.32l-3.36-6.08q-.26-.47-.8-.47h-.47q-.48 0-.55-.48-.26-1.84-2.03-2.72-.25-.12-.05-.31l.25-.26a.72.7 52.3 0 0 .1-.88q-.96-1.56-.39-3.32.18-.56-.33-.87-.4-.25-.88-.17-.45.06-.69-.31-.29-.44-.98-.91" stroke="#906bb9"/><path d="M212.3 212.65q-.16-.88-.49-1.32-.25-.33-.58-.08-.22.16-.48.1-.18-.04-.59-.61-.29-.41-.27-.9.01-.47.43-.69.36-.19.37-.59.01-.45-.43-.45h-.48q-.55 0-.79-.48-.23-.46-.68-.68-.42-.22-.66-.62-.73-1.24-.49-2.53.07-.39-.14-.73-.96-1.52-1.2-3.25-.07-.56-.49-.94l-1.68-1.52q-.33-.3-.78-.24-.2.03-.38-.03-.42-.13-.44-.56l-.11-2.22q-.02-.51-.53-.49-1.27.04-1.76-1.21-.04-.11.02-.21.07-.11.16-.21.04-.05-.03-.06-.8-.13-1.52.03a2.71 2.33-87.9 0 1-2.66-3.33q.28-1.2-1.54-2.55-.07-.05-.74-.36-.73-.34-.41-1.36.14-.44-.32-.46l-.53-.02q-.46-.03-.81-.32-.39-.33-.37-.86.02-.44-.32-.74-1.11-.99-.39-2.21.24-.42.05-.87-.34-.76-1.08-.67a1.02 1.02 0 0 1-.9-.34q-.49-.58-.34-1.34a.56.56 0 0 0-.43-.65q-.22-.05-.34-.22-.24-.31-.24-.61v-1.26q0-.55-.45-.86-.88-.61-1.51-1.47-.27-.38.1-.66l.29-.24q.53-.41-.13-.51-1.06-.16-1.95-.72-.23-.14-.13-.4.05-.13.16-.23.37-.37.02-.76-.53-.57-.42-1.31a.64.64 0 0 0-.62-.74l-.53-.01q-.83-.01-.83-.84v-1.27q-.01-.55-.48-.85-.69-.43-.51-1.13.04-.16-.12-.21-.13-.04-.31 0-.15.02-.17-.13-.18-1.49-1.21-2.56a.92.89 31.7 0 1-.22-.87q.28-.97-.57-1.22-.41-.12-.41-.55-.01-.91-.82-.79-.32.05-.2-.25.27-.63-.29-1.36-.52-.66-.19-1.07.65-.8-.12-.11-.3.26-.57.33-.39.08-.44-.31-.05-.3-.26-.5" stroke="#9855a3"/><path d="m83.8 157.03-.42.48q-.11.13-.15-.04l-.11-.41q-.06-.24-.26-.1-.73.5-1.34.13-1.67-1-1.65-3.12 0-.49-.39-.81-.87-.71-1.38-1.76-.17-.34-.19-.72-.02-.51-.53-.65-.59-.16-.51-.77.15-1.16-.47-2.15a1.32.13 56.6 0 1-.46-.87l-.33-1.36q-.08-.36-.37-.13-.3.25-.47-.01-1.14-1.77-2.64-2.82-.41-.29-.27-.76.51-1.75-.85-2.39-.53-.24-.12-.65l.24-.25q.44-.43-.14-.66-1.73-.67-2.2-2.44-.1-.4-.43-.65-.53-.38-.5-1.06.02-.39-.24-.69l-1.12-1.33q-.36-.43-.47-.98-.43-2.18-2.74-1.96-.48.05-.43-.43.06-.54.01-1.15 0-.04-.12-.27-.1-.21-.33-.1a.33.32-35 0 1-.37-.06q-.36-.36.12-1.2" stroke="#a62f7d"/><path d="m83.78 213.42-.33 7.69q0 .01-.07.02h-.03q-.04 0-.04-.04-.08-1.14-.24-2.26-.06-.44.17-.83.24-.41.09-.82-.24-.65-.79-.23-.36.28-.87.33a.51.5 2.1 0 1-.55-.59q.19-1.1-.62-1.81-.41-.37-.37-.92.11-1.47-.91-2.52-.35-.37-.29-.88.05-.43-.1-.85-.17-.45-.65-.56-1.21-.28-1.85-1.47-.16-.3-.03-.62.07-.18.19-.19a.5.44-32.6 0 0 .26-.88q-.56-.22-1.17-.07-.13.04-.23-.06l-.22-.22a.3.3 0 0 1 .22-.51q.43 0 .62-.44a.55.55 0 0 0 0-.38q-.12-.31-.4-.4-.53-.18-.38-.72.08-.31.02-.61-.21-1.06-.82-.18-.34.48-.95.49-.32 0-.32-.32v-.63q0-.43-.31-.74l-1.96-1.97q-.32-.31-.76-.37-.17-.02-.31-.1-.38-.2-.13-.55.69-.95.46-2.11-.12-.58-.53-1.01-.9-.92-.39-2.37a.6.59-77.2 0 0-.49-.78q-1.4-.18-1.58-1.72-.04-.33-.37-.34h-.38q-.03 0 0-.88.01-.22.21-.35.44-.27.02-.58-.37-.26-.79-.19-.7.11-.68-.6.02-.77-.55-1.22-.37-.3-.43-.77-.14-1.1-.6-2.01-.32-.63-.65-.01l-.13.23q-.07.13-.21.13-.23.01-.4-.07-.23-.11-.02-.24l.71-.42a.37.37 0 0 0-.07-.66l-1.22-.44q-.44-.16-.44-.63v-.49a.78.77 12.7 0 0-.45-.7q-.85-.41-.62-1.21.05-.16-.07-.28l-.36-.37q-.43-.43-.62.15-.1.33-.31.57-.16.19-.34.02l-.23-.23a.18.18 0 0 1 0-.26l.63-.62q.33-.33.08-.72l-2.1-3.32q-.28-.43-.75-.64-1.47-.66-1.89-2.24-.13-.48-.52-.79-1.18-.97-1.55-2.34-.13-.49-.55-.78-.75-.51-.27-1.34.34-.58-.33-.61-.97-.03-1.46-1-.16-.3.01-.6.18-.31.49-.52a.57.56 50.5 0 0 .08-.86l-.83-.82q-.31-.32-.16-.74c.42-1.12-.17-2.36-1.42-2.61q-.38-.08-.79-.22-.67-.23-.06-.58.55-.32.22-.91a.48.47-20.5 0 0-.51-.23q-.36.09-.67-.09-.47-.27-.13-.69.52-.61.19-1.39-.2-.45-.67-.59-.27-.08-.29-.38-.08-.91-.61-.47l-.42.34a.2.2 0 0 1-.29-.28q1.11-1.54.02-3.07-.3-.43-.82-.37-.41.05-.62-.26-.84-1.17-1.73-1.81-.43-.3-.06-.67l.24-.24q.4-.39-.04-.73-.36-.28-.8-.29a.6.59-2.2 0 1-.57-.52l-.24-1.73q-.06-.5-.4-.87l-1.95-2.13" stroke="#aa2573"/><path d="M140.49 186.15q-.65.92-.81 2.38c-.2 1.75.94 3.89 1.56 5.59q.16.46.62.61 1.33.43.99 2.24-.16.84.66 1.45.17.14.33-.02.1-.11.2-.2.14-.13.28 0 1.25 1.18 1.65 2.82.03.12.15.09.15-.03.26.03.28.16.37.64.33 1.91 1.71 3.31.36.37.42.88.13 1.22 1.32 1.28.21.02.23.22.02.18-.11.28-.34.26-.1.63.39.59 1.05.43.56-.13.58.44l.06 1.93a1.03 1.02-73.1 0 0 .41.78q.77.59 1.33 1.45.2.32.21.7.01.61.55 1.03.4.31.5.81.15.75.81 1.21.38.26.24.7-.15.45.23.85c1.5 1.58 1.67 3.35 3.49 4.9q.43.36.28.91-.18.63.06 1.17.23.51.72.25.3-.15.38-.46.08-.3.38-.37.25-.05.34.33.11.51-.41.45-.38-.04-.5.25-.19.45.24.69c1.73.93 1.47 2.3 2.41 3.45q.91 1.1 2.07 2.02.39.31.27.8-.45 1.75 1.06 2.23.4.12.18.48-.91 1.51.7 2.46.56.34 1.53 1.87" stroke="#a03f8d"/><path d="M127.01 247.51q-.09-.38.54-.84.48-.35 0-.71-.57-.41-.66-1.19-.02-.13.07-.03.09.1.2.16.64.37.31-.26-.19-.36-1-.74a.79.79 0 0 1-.42-.86q.6-2.87-1.67-4.43a.85.85 0 0 1-.34-.89q.7-2.87-1.97-2.99-.46-.01-.34-.46.07-.28.23-.49a.52.52 0 0 0-.41-.83q-1.86-.07-1.4-2.06a.75.75 0 0 0-.32-.81q-.61-.38-.75-1.05-.11-.56-.54-.93-1.92-1.63-2.52-4.01-.02-.09-.11-.12-.12-.02-.26-.05-.34-.05-.39-.39-.28-1.75-1.35-3.08-.16-.2-.37-.26-.24-.06-.48-.07-.39-.01-.44-.4-.11-.9-1.01-1.32-.38-.18-.46-.59-.3-1.49-1.83-1.87a.71.71 0 0 1-.49-.93q.44-1.14-.76-1.31-.19-.03-.18.16.01.17-.08.32-.24.4-.38-.04-.34-1.03-.32-2.1.02-.59-.47-.92-1.38-.97-.63-2.43a.37.37 0 0 0-.36-.54q-.75.08-.63-.78.02-.14-.1-.22l-.49-.32q-.22-.14-.33-.38-.19-.42-.62-.57a.56.56 0 0 1-.37-.65q.21-.94-.54-1.31-.36-.18-.47-.56-.35-1.16-.04-2.31a.22.22 0 0 0-.35-.22q-.63.5-.99 0-.96-1.32.26-2.16.15-.1.08-.27-.1-.2-.32-.33-.23-.13-.48-.05-.61.2-1.17-.51-.49-.63-2.59-2.61-.38-.37-.38-.9v-1.23q-.01-.49-.42-.75-1.21-.76-1.62-2.02-.17-.53.32-.9a.59.59 0 0 0 .12-.82q-.38-.51-.97-.4a.5.49 89.3 0 0-.4.42q-.22 1.75 0 3.5.01.08-.07.08h-.26a.22.22 0 0 1-.23-.22l-.19-6.88" stroke="#a62f7d"/></g><path d="m126.55 8.51-2.07 1.73q-.35.29.03.54.77.51.6 1.47a.55.55 0 0 0 .64.64q.54-.09 1.04.13.33.15.33.5v3.49a.37.37 0 0 0 .65.24q.68-.81 1.54.01a1.9.05 74.5 0 1 .53 1.72q.19.7-.24 1.16a.6.6 0 0 0 .13.92q2.42 1.44 2.62 4.26a.25.25 0 0 0 .43.16l.22-.23q.2-.19.68.27.26.24.43.65.19.47.59.78 1.76 1.41 1.41 3.64-.2 1.28 1.1 1.29l1.57.01a.37.36 9.9 0 1 .35.49q-.94 2.59-.23 2.72.22.45.23 1 .01.41.33.67c1.12.88.43 1.85.86 2.87q.52 1.22 1.84 1.32.49.04.69.49.41.9.27 1.91-.08.57.5.63 2.69.24 2.46 3.03-.04.55.4.89l1.66 1.24a.59.59 0 0 1 .16.76q-.15.25-.41.4-.48.26.06.32.23.02.46-.02a.12.11-80.8 0 1 .12.17l-.28.55q-.29.55.33.55h.56q.47 0 .69.42.17.33.26.7.1.45.43.78 1.07 1.07.59 2.73-.13.44.42.99a.21.21 0 0 0 .35-.15v-.36a.28.28 0 0 1 .42-.25q1.01.55.89 1.68a.43.42 89.5 0 0 .47.47q.55-.07.83.36.32.49-.12.86-.48.42-.14 1.13.18.37.48.66.55.53 1.03 1.13.36.46 1.28 1.2 1.45 1.17 1.08 3.31-.01.06.04.1l.21.22a.31.31 0 0 0 .52-.19q.03-.37.34-.64a.54.54 0 0 1 .9.45q-.14 1.97.46 3.86.15.46.6.63.22.09.42.27a.46.46 0 0 1-.04.7q-.64.47-.41 1.32.13.51.59.77.6.35.64.93.01.1.1.06.16-.08.31-.15.36-.16.32-.55-.11-.96.44-1.12l-.01 22.75q0 .6-.52.3l-35.85-20.69q.15-.18-.28-.56a.13.12 70.2 0 1 .1-.22q.13.03.26.05.25.04.19-.21-.07-.34-.34-.4-.14-.03-.12-.17.09-.66.52-1.2.37-.48-.14-.81-.65-.41-.99-1.07-.14-.25-.3-.02-.23.31-.6.22a.56.55-51.4 0 1-.11-1.04q.79-.39.4-1.09-.19-.33-.55-.43-1.26-.33-1.37-1.51-.15-1.73-.96-2.68-.25-.29-.44-.62l-1.3-2.15q-.27-.45-.22-.97.1-.93-.25-1.78-.19-.44-.65-.56-.43-.11-.32-.69.12-.61-.44-.35-.2.09-.33.25-.41.46-.76-.05-.26-.38-.28-.8-.04-.65-.66-.44-1.32.46-1.69-1.01-.53-2.08-1.34-2.73-1.41-1.14-.96-2.76.12-.44-.25-.72-.6-.46-.34-1.19.17-.47-.33-.59-.61-.14-1.18.07-.54.19-.35-.35.29-.83.22-1.71-.04-.46-.38-.77-.83-.76-1.64-1.49-.5-.45-.28-1.04.17-.44-.21-.73-1.08-.82-.81-2.25a.47.47 0 0 0-.68-.5q-.46.24-.98.18-.26-.03-.2-.3.23-.93.01-1.81-.11-.46-.58-.47l-.63-.01a.72.71.4 0 1-.71-.71v-.62q0-.5-.46-.69-.17-.07-.31-.2-.37-.34-.02-.69l.54-.54a.27.27 0 0 0-.16-.46l-1.23-.16q-.88-.12-.25-.74l.38-.38q.46-.46-.16-.65-2.63-.8-1.51-3.28.2-.44-.14-.79l-2.12-2.15q-.39-.4-.41-.96c-.05-1.61-.53-2.05-1.71-2.94q-.63-.47-.39-1.33.14-.51-.33-.76-.39-.21-.62-.58a.14.14 0 0 1 .04-.2q.14-.09.29-.11.38-.07.17-.4-.14-.2-.33-.34-.11-.07-.18.03-.46.69-1.33.36-.74-.29-.38-.99.3-.59.26-1.29-.04-.65-.07-.69-.22-.42-.2-1.22 16.29-4.96 33.27-5.09Z" fill="#9460ae"/><path d="M126.55 8.51q18.75-.4 36.51 5.26.51.16.51.69l-.03 59.74q-.55.16-.44 1.12.04.39-.32.55-.15.07-.31.15-.09.04-.1-.06-.04-.58-.64-.93-.46-.26-.59-.77-.23-.85.41-1.32a.46.46 0 0 0 .04-.7q-.2-.18-.42-.27-.45-.17-.6-.63-.6-1.89-.46-3.86a.54.54 0 0 0-.9-.45q-.31.27-.34.64a.31.31 0 0 1-.52.19l-.21-.22q-.05-.04-.04-.1.37-2.14-1.08-3.31-.92-.74-1.28-1.2-.48-.6-1.03-1.13-.3-.29-.48-.66-.34-.71.14-1.13.44-.37.12-.86-.28-.43-.83-.36a.43.42 89.5 0 1-.47-.47q.12-1.13-.89-1.68a.28.28 0 0 0-.42.25v.36a.21.21 0 0 1-.35.15q-.55-.55-.42-.99.48-1.66-.59-2.73-.33-.33-.43-.78-.09-.37-.26-.7-.22-.42-.69-.42h-.56q-.62 0-.33-.55l.28-.55a.12.11-80.8 0 0-.12-.17q-.23.04-.46.02-.54-.06-.06-.32.26-.15.41-.4a.59.59 0 0 0-.16-.76l-1.66-1.24q-.44-.34-.4-.89.23-2.79-2.46-3.03-.58-.06-.5-.63.14-1.01-.27-1.91-.2-.45-.69-.49-1.32-.1-1.84-1.32c-.43-1.02.26-1.99-.86-2.87q-.32-.26-.33-.67-.01-.55-.23-1-.71-.13.23-2.72a.37.36 9.9 0 0-.35-.49l-1.57-.01q-1.3-.01-1.1-1.29.35-2.23-1.41-3.64-.4-.31-.59-.78-.17-.41-.43-.65-.48-.46-.68-.27l-.22.23a.25.25 0 0 1-.43-.16q-.2-2.82-2.62-4.26a.6.6 0 0 1-.13-.92q.43-.46.24-1.16a1.9.05 74.5 0 0-.53-1.72q-.86-.82-1.54-.01a.37.37 0 0 1-.65-.24v-3.49q0-.35-.33-.5-.5-.22-1.04-.13a.55.55 0 0 1-.64-.64q.17-.96-.6-1.47-.38-.25-.03-.54l2.07-1.73Z" fill="#9167b6"/><path d="M93.28 13.6q-.02.8.2 1.22.03.04.07.69.04.7-.26 1.29-.36.7.38.99.87.33 1.33-.36.07-.1.18-.03.19.14.33.34.21.33-.17.4-.15.02-.29.11a.14.14 0 0 0-.04.2q.23.37.62.58.47.25.33.76-.24.86.39 1.33c1.18.89 1.66 1.33 1.71 2.94q.02.56.41.96l2.12 2.15q.34.35.14.79-1.12 2.48 1.51 3.28.62.19.16.65l-.38.38q-.63.62.25.74l1.23.16a.27.27 0 0 1 .16.46l-.54.54q-.35.35.02.69.14.13.31.2.46.19.46.69v.62a.72.71.4 0 0 .71.71l.63.01q.47.01.58.47.22.88-.01 1.81-.06.27.2.3.52.06.98-.18a.47.47 0 0 1 .68.5q-.27 1.43.81 2.25.38.29.21.73-.22.59.28 1.04.81.73 1.64 1.49.34.31.38.77.07.88-.22 1.71-.19.54.35.35.57-.21 1.18-.07.5.12.33.59-.26.73.34 1.19.37.28.25.72-.45 1.62.96 2.76.81.65 1.34 2.73.37 1.47 1.69 1.01.62-.21.66.44.02.42.28.8.35.51.76.05.13-.16.33-.25.56-.26.44.35-.11.58.32.69.46.12.65.56.35.85.25 1.78-.05.52.22.97l1.3 2.15q.19.33.44.62.81.95.96 2.68.11 1.18 1.37 1.51.36.1.55.43.39.7-.4 1.09a.56.55-51.4 0 0 .11 1.04q.37.09.6-.22.16-.23.3.02.34.66.99 1.07.51.33.14.81-.43.54-.52 1.2-.02.14.12.17.27.06.34.4.06.25-.19.21-.13-.02-.26-.05a.13.12 70.2 0 0-.1.22q.43.38.28.56l-72.7-41.97a.43.42-49.3 0 1-.05-.7Q71.86 20.16 93.28 13.6Z" fill="#9c4a98"/><path d="M211.11 121.15q-1.71-2.21-2.33-4.86a.82.8.1 0 0-.63-.62q-.95-.2-.87-1.14a.34.27 66.6 0 0-.53-.28q-.12.26-.46.04a.37.37 0 0 1-.17-.31v-1.2q0-.52-.31-.92-1.91-2.43-3.4-5.1-.14-.25-.34-1.07-.13-.57-.64-.92a.73.71-65 0 1-.28-.79q.35-1.22-.89-1.84-.18-.08-.25.09-.08.2-.27.14-.09-.03-.01-.08.13-.09.17-.28.38-1.69-2.17-2.47a.25.25 0 0 1-.12-.4q.09-.1.19-.2.14-.13.05-.3c-.72-1.32-1.42-3.33-2.82-3.99q-.36-.17-.04-.41.41-.31.67-.8a.44.44 0 0 0-.54-.62q-.81.29-1.32-.43-.06-.08-.03-.19l.16-.42q.16-.45-.22-.75-.75-.58-1.29-1.39-.26-.4-.28-.88-.02-.58-.54-.87a.96.95-70.6 0 1-.48-1.02q.34-1.8-1.42-1.99a.44.44 0 0 1-.31-.68q.21-.32.24-.69a.58.58 0 0 0-.63-.63q-.8.08-1.38-.5-.38-.38-.26-.9.27-1.12-.71-1.8-.4-.28-.5-.76-.22-1-1.08-1.63a.09.09 0 0 1 .05-.17h.41a.4.4 0 0 0 .24-.72q-.72-.52-.97-1.41-.2-.72-.54 0-.13.26-.45.06-.31-.19-.41-.55-.49-1.83-2.03-2.99a.09.09 0 0 1-.01-.13q.1-.09.2-.19.09-.09 0-.18l-2.16-2.27q-.3-.32-.23-.75.11-.65-.03-1.31-.1-.44-.48-.7-.83-.55-1.45-1.39-.42-.57.27-.47.59.07 1.14-.07.58-.16.24-.65-.27-.41-.8-.22-.3.11-.37-.21l-.09-.46q-.11-.5-.47-.14l-.24.24q-.45.46-.66-.15-.13-.39-.41-.54-.54-.3-.68-.9-.16-.7.2-1.23a.41.41 0 0 0-.3-.64q-1.04-.09-.91-1.02.13-1-.38-.39-.18.22-.46.15-.34-.09-.2-.41.26-.64-.89-1.28l.01-38.65a.46.45-78.5 0 1 .63-.42c36.45 15.17 62.4 45.72 71.76 84.09a.73.72 68.2 0 1-.34.8l-33.15 19.13Z" fill="#8c75c4"/><path d="M56.24 45.44q-.14.73-1.34-.31-.47-.41-.76.14c-.42.82-.44 1.74.18 2.5q.63.76 1.25 1.54.3.37.31.84.01.68.68 1.08.37.22.34.66-.12 1.37 1.06 2.01.49.26.9.65l1.81 1.69q.32.29.01.59l-.32.33q-.4.39.06.71l1.39.97q.44.3.72.75.85 1.31.86 2.79 0 .12.12.1l.32-.06q.11-.02.09.09-.17 1.07.14 2.07a.77.76-8.8 0 0 .73.53h.67q.42 0 .31.4-.12.45-.34.58-.52.3-.27.85.62 1.33 2.09 1.42.51.03.64.52.29 1.16 1.18 1.97.33.3.14.71-.68 1.43.29 2.59.17.21.39.06.27-.18.54-.04.2.1.31.47.48 1.59 1.95 2.57a.84.83 22.1 0 1 .35.81q-.28 1.74 1.17 2.22.48.16.45.66c-.07 1.35.44 1.89 1.63 2.3q.53.18.35.8a.82.81-61.8 0 0 .25.85q1.49 1.32 1.18 3.34-.08.56.45.76.92.33 1.94.09a.08.01-50.1 0 1-.05.08l-.19.23a.25.25 0 0 0 .05.37q.82.56.61 1.52-.07.31.16.53l.33.34q.35.34.49.81.71 2.38 2.44 4.15.32.32.47.76.54 1.54 1.95 2.43.14.09.27-.03.1-.1.13-.31.01-.02.01.01-.02.32.13.62l-32.73 18.92q-2.7-2.67-3.03-5.04-.07-.46-.53-.49-.63-.05-.89-.54c-1.05-1.91-3.46-3.85-4.03-5.87a1.04 1.02-77.1 0 0-.3-.49q-.82-.81-.65-1.94.06-.4-.21-.7l-3.35-3.69q-.29-.33.01-.65.59-.65.22-1.48a.77.75 87.5 0 0-.41-.39l-.81-.33q-.43-.17-.44-.62-.02-1.64-1.44-1.9-.56-.11-.48-.67.15-1.13-.7-1.83-.42-.35-.36-.9.07-.72-.59-1.07-.48-.25-.42-.79.13-1.2-1-1.2-.58 0-.74-.56-.36-1.3-.26-2.64.04-.54-.47-.74-.88-.35-.88-1.32a.48.48 0 0 0-.48-.48h-.52q-.43-.01-.4-.43.06-1.19-.84-1.81-.39-.26-.28-.72.31-1.26-.75-2.31-.84-.09-.63-.86-1.11-1.2-2.28-2.31-.35-.33-.46-.8-.33-1.38-1.45-2.28-.33-.28-.39-.71-.08-.66-.77-.94 9.21-16.58 23.11-29.45.4-.37.87-.1l8.74 5.02Z" fill="#a43381"/><path d="m56.24 45.44 62.72 36.21q.5.28 0 .57l-31.7 18.33q-.15-.3-.13-.62 0-.03-.01-.01-.03.21-.13.31-.13.12-.27.03-1.41-.89-1.95-2.43-.15-.44-.47-.76-1.73-1.77-2.44-4.15-.14-.47-.49-.81l-.33-.34q-.23-.22-.16-.53.21-.96-.61-1.52a.25.25 0 0 1-.05-.37l.19-.23a.08.01-50.1 0 0 .05-.08q-1.02.24-1.94-.09-.53-.2-.45-.76.31-2.02-1.18-3.34a.82.81-61.8 0 1-.25-.85q.18-.62-.35-.8c-1.19-.41-1.7-.95-1.63-2.3q.03-.5-.45-.66-1.45-.48-1.17-2.22a.84.83 22.1 0 0-.35-.81q-1.47-.98-1.95-2.57-.11-.37-.31-.47-.27-.14-.54.04-.22.15-.39-.06-.97-1.16-.29-2.59.19-.41-.14-.71-.89-.81-1.18-1.97-.13-.49-.64-.52-1.47-.09-2.09-1.42-.25-.55.27-.85.22-.13.34-.58.11-.4-.31-.4h-.67a.77.76-8.8 0 1-.73-.53q-.31-1-.14-2.07.02-.11-.09-.09l-.32.06q-.12.02-.12-.1-.01-1.48-.86-2.79-.28-.45-.72-.75l-1.39-.97q-.46-.32-.06-.71l.32-.33q.31-.3-.01-.59l-1.81-1.69q-.41-.39-.9-.65-1.18-.64-1.06-2.01.03-.44-.34-.66-.67-.4-.68-1.08-.01-.47-.31-.84-.62-.78-1.25-1.54c-.62-.76-.6-1.68-.18-2.5q.29-.55.76-.14 1.2 1.04 1.34.31Z" fill="#9c4a98"/><path d="M172.2 56.2q1.15.64.89 1.28-.14.32.2.41.28.07.46-.15.51-.61.38.39-.13.93.91 1.02a.41.41 0 0 1 .3.64q-.36.53-.2 1.23.14.6.68.9.28.15.41.54.21.61.66.15l.24-.24q.36-.36.47.14l.09.46q.07.32.37.21.53-.19.8.22.34.49-.24.65-.55.14-1.14.07-.69-.1-.27.47.62.84 1.45 1.39.38.26.48.7.14.66.03 1.31-.07.43.23.75l2.16 2.27q.09.09 0 .18-.1.1-.2.19a.09.09 0 0 0 .01.13q1.54 1.16 2.03 2.99.1.36.41.55.32.2.45-.06.34-.72.54 0 .25.89.97 1.41a.4.4 0 0 1-.24.72h-.41a.09.09 0 0 0-.05.17q.86.63 1.08 1.63.1.48.5.76.98.68.71 1.8-.12.52.26.9.58.58 1.38.5a.58.58 0 0 1 .63.63q-.03.37-.24.69a.44.44 0 0 0 .31.68q1.76.19 1.42 1.99a.96.95-70.6 0 0 .48 1.02q.52.29.54.87.02.48.28.88.54.81 1.29 1.39.38.3.22.75l-.16.42q-.03.11.03.19.51.72 1.32.43a.44.44 0 0 1 .54.62q-.26.49-.67.8-.32.24.04.41c1.4.66 2.1 2.67 2.82 3.99q.09.17-.05.3-.1.1-.19.2a.25.25 0 0 0 .12.4q2.55.78 2.17 2.47-.04.19-.17.28-.08.05.01.08.19.06.27-.14.07-.17.25-.09 1.24.62.89 1.84a.73.71-65 0 0 .28.79q.51.35.64.92.2.82.34 1.07 1.49 2.67 3.4 5.1.31.4.31.92v1.2a.37.37 0 0 0 .17.31q.34.22.46-.04a.34.27 66.6 0 1 .53.28q-.08.94.87 1.14a.82.8.1 0 1 .63.62q.62 2.65 2.33 4.86l-15.09 8.67-1.67-2.14q-.3-.38-.37-.86-.02-.14-.03-.27-.04-.48-.48-.7c-2.52-1.24-1.12-4.01-3.04-6.08q-.32-.35-.3-.83.03-.64-.45-1-.4-.29-.6-.74-.57-1.28-1.26-2.49-.05-.09-.15-.08-.3.03-.67-.08a.06.05 51.5 0 1 .01-.11q.61-.01.5-.46a1.7.23 36.4 0 0-1-.97q-.28-.22-.63-.12-.52.13-.51-.4v-.66q0-.32-.18-.58l-1.85-2.65q-.34-.48-.23-1.07.16-.9-.73-1.19-.31-.1-.31-.43.02-1.47-1.24-1.91-.51-.18-.7-.68-.87-2.23-2.53-3.92-.25-.25-.5 0l-.25.26q-.45.45-.49-.18-.03-.45.34-.69a.42.42 0 0 0-.17-.77q-1.32-.17-1.98-1.43-.14-.26.08-.47l.19-.19q.32-.32.1-.72-.12-.22-.34-.3-.48-.16-.49-.67-.05-2.51-1.88-.76l-.01-37.28Z" fill="#9167b6"/><path d="M23.52 69.97q.69.28.77.94.06.43.39.71 1.12.9 1.45 2.28.11.47.46.8 1.17 1.11 2.28 2.31-.21.77.63.86 1.06 1.05.75 2.31-.11.46.28.72.9.62.84 1.81-.03.42.4.43h.52a.48.48 0 0 1 .48.48q0 .97.88 1.32.51.2.47.74-.1 1.34.26 2.64.16.56.74.56 1.13 0 1 1.2-.06.54.42.79.66.35.59 1.07-.06.55.36.9.85.7.7 1.83-.08.56.48.67 1.42.26 1.44 1.9.01.45.44.62l.81.33a.77.75 87.5 0 1 .41.39q.37.83-.22 1.48-.3.32-.01.65l3.35 3.69q.27.3.21.7-.17 1.13.65 1.94a1.04 1.02-77.1 0 1 .3.49c.57 2.02 2.98 3.96 4.03 5.87q.26.49.89.54.46.03.53.49.33 2.37 3.03 5.04l-16.73 9.64q-.14-.35-.61-.18-.3.11-.31-.21 0-.14-.01-.28-.02-.28-.29-.27-2.6.03-2.7-2.62a.94.9 25.6 0 0-.2-.54q-.79-1.05-1.37-.39-.32.37-.34-.12l-.12-2.99q-.01-.26-.25-.35-.38-.14-.61-.44-.21-.25.02-.48l.31-.3q.58-.57-.23-.58h-.5a.23.23 0 0 0-.12.42q.47.28.39.72a.4.39-71.3 0 1-.56.28q-1.66-.85-1.15-2.52.07-.21.23-.38l.27-.26a.2.19-56.2 0 0-.06-.32q-1.01-.44-1.2-1.5-.07-.42-.48-.56-1.29-.41-1.67-2-.18-.73-1-1.33-.44-.32-.36-.87.13-.84-.33-1.54a.86.86 0 0 0-.85-.39q-.73.12-1.32-.27-.49-.31-.45-.89.06-.82-.71-1.2a.82.81 26.1 0 1-.37-1.07l.69-1.49q.27-.57-.3-.83-.4-.19-.85-.24-.44-.05-.64-.46-.48-1.03-1.42-1.67a.46.43 13.3 0 1-.2-.3q-.42-2.14-2.23-3.32-.41-.27-.47-.76-.17-1.39-1.39-1.9-.2-.08-.18-.29.02-.16.08-.29.11-.24-.15-.2-.17.03-.39.06 3.71-12.55 10.12-24.02Z" fill="#a82a78"/><path d="m196.02 129.82-23.27 13.44q-.52.3-.52-.3l-.02-49.48q1.83-1.75 1.88.76.01.51.49.67.22.08.34.3.22.4-.1.72l-.19.19q-.22.21-.08.47.66 1.26 1.98 1.43a.42.42 0 0 1 .17.77q-.37.24-.34.69.04.63.49.18l.25-.26q.25-.25.5 0 1.66 1.69 2.53 3.92.19.5.7.68 1.26.44 1.24 1.91 0 .33.31.43.89.29.73 1.19-.11.59.23 1.07l1.85 2.65q.18.26.18.58v.66q-.01.53.51.4.35-.1.63.12a1.7.23 36.4 0 1 1 .97q.11.45-.5.46a.06.05 51.5 0 0-.01.11q.37.11.67.08.1-.01.15.08.69 1.21 1.26 2.49.2.45.6.74.48.36.45 1-.02.48.3.83c1.92 2.07.52 4.84 3.04 6.08q.44.22.48.7.01.13.03.27.07.48.37.86l1.67 2.14Z" fill="#9460ae"/><path d="M37.8 129.11 10.27 145q-.51.3-.59-.28-3.72-25.77 3.72-50.73.22-.03.39-.06.26-.04.15.2-.06.13-.08.29-.02.21.18.29 1.22.51 1.39 1.9.06.49.47.76 1.81 1.18 2.23 3.32a.46.43 13.3 0 0 .2.3q.94.64 1.42 1.67.2.41.64.46.45.05.85.24.57.26.3.83l-.69 1.49a.82.81 26.1 0 0 .37 1.07q.77.38.71 1.2-.04.58.45.89.59.39 1.32.27a.86.86 0 0 1 .85.39q.46.7.33 1.54-.08.55.36.87.82.6 1 1.33.38 1.59 1.67 2 .41.14.48.56.19 1.06 1.2 1.5a.2.19-56.2 0 1 .06.32l-.27.26q-.16.17-.23.38-.51 1.67 1.15 2.52a.4.39-71.3 0 0 .56-.28q.08-.44-.39-.72a.23.23 0 0 1 .12-.42h.5q.81.01.23.58l-.31.3q-.23.23-.02.48.23.3.61.44.24.09.25.35l.12 2.99q.02.49.34.12.58-.66 1.37.39a.94.9 25.6 0 1 .2.54q.1 2.65 2.7 2.62.27-.01.29.27.01.14.01.28.01.32.31.21.47-.17.61.18Z" fill="#ac1f6d"/><path d="m236 179.23-1.5-1.19q-.36-.28-.36-.74.01-1.24-1.14-1.43-.51-.09-.74-.55-1.04-2-1.39-4.23-.07-.47-.44-.76-.27-.22-.31-.59-.04-.35-.12-.47-.15-.24-.4-.34-.24-.09-.47-.68-.09-.25.35-.31.43-.05.05-.25l-.88-.47q-.44-.24-.56-.72-.11-.48-.63-.62a.53.53 0 0 1-.38-.66q.42-1.47-.58-2.4-.38-.35-.38-.87v-.88q0-.52-.37-.88-.35-.34-.79-.33-.47.01-.79-.32l-2.9-3.02q-.3-.31-.2-.73.16-.66-.62-.91-.48-.16-.39-.66.47-2.61-1.61-3.57-.45-.21-.21-.64.06-.12.14-.26.1-.15.01-.32l-3.36-6.08q-.26-.47-.8-.47h-.47q-.48 0-.55-.48-.26-1.84-2.03-2.72-.25-.12-.05-.31l.25-.26a.72.7 52.3 0 0 .1-.88q-.96-1.56-.39-3.32.18-.56-.33-.87-.4-.25-.88-.17-.45.06-.69-.31-.29-.44-.98-.91l37.77-21.83a.25.25 0 0 1 .37.19q4.85 35.89-10.35 68.22Z" fill="#8c75c4"/><path d="m83.8 157.03-.42.48q-.11.13-.15-.04l-.11-.41q-.06-.24-.26-.1-.73.5-1.34.13-1.67-1-1.65-3.12 0-.49-.39-.81-.87-.71-1.38-1.76-.17-.34-.19-.72-.02-.51-.53-.65-.59-.16-.51-.77.15-1.16-.47-2.15a1.32.13 56.6 0 1-.46-.87l-.33-1.36q-.08-.36-.37-.13-.3.25-.47-.01-1.14-1.77-2.64-2.82-.41-.29-.27-.76.51-1.75-.85-2.39-.53-.24-.12-.65l.24-.25q.44-.43-.14-.66-1.73-.67-2.2-2.44-.1-.4-.43-.65-.53-.38-.5-1.06.02-.39-.24-.69l-1.12-1.33q-.36-.43-.47-.98-.43-2.18-2.74-1.96-.48.05-.43-.43.06-.54.01-1.15 0-.04-.12-.27-.1-.21-.33-.1a.33.32-35 0 1-.37-.06q-.36-.36.12-1.2l21.38-12.38q.27-.15.27.15l-.02 44.37Z" fill="#a43381"/><path d="M62.17 124.89q-.48.84-.12 1.2a.33.32-35 0 0 .37.06q.23-.11.33.1.12.23.12.27.05.61-.01 1.15-.05.48.43.43 2.31-.22 2.74 1.96.11.55.47.98l1.12 1.33q.26.3.24.69-.03.68.5 1.06.33.25.43.65.47 1.77 2.2 2.44.58.23.14.66l-.24.25q-.41.41.12.65 1.36.64.85 2.39-.14.47.27.76 1.5 1.05 2.64 2.82.17.26.47.01.29-.23.37.13l.33 1.36a1.32.13 56.6 0 0 .46.87q.62.99.47 2.15-.08.61.51.77.51.14.53.65.02.38.19.72.51 1.05 1.38 1.76.39.32.39.81-.02 2.12 1.65 3.12.61.37 1.34-.13.2-.14.26.1l.11.41q.04.17.15.04l.42-.48-.02 56.39-.33 7.69q0 .01-.07.02h-.03q-.04 0-.04-.04-.08-1.14-.24-2.26-.06-.44.17-.83.24-.41.09-.82-.24-.65-.79-.23-.36.28-.87.33a.51.5 2.1 0 1-.55-.59q.19-1.1-.62-1.81-.41-.37-.37-.92.11-1.47-.91-2.52-.35-.37-.29-.88.05-.43-.1-.85-.17-.45-.65-.56-1.21-.28-1.85-1.47-.16-.3-.03-.62.07-.18.19-.19a.5.44-32.6 0 0 .26-.88q-.56-.22-1.17-.07-.13.04-.23-.06l-.22-.22a.3.3 0 0 1 .22-.51q.43 0 .62-.44a.55.55 0 0 0 0-.38q-.12-.31-.4-.4-.53-.18-.38-.72.08-.31.02-.61-.21-1.06-.82-.18-.34.48-.95.49-.32 0-.32-.32v-.63q0-.43-.31-.74l-1.96-1.97q-.32-.31-.76-.37-.17-.02-.31-.1-.38-.2-.13-.55.69-.95.46-2.11-.12-.58-.53-1.01-.9-.92-.39-2.37a.6.59-77.2 0 0-.49-.78q-1.4-.18-1.58-1.72-.04-.33-.37-.34h-.38q-.03 0 0-.88.01-.22.21-.35.44-.27.02-.58-.37-.26-.79-.19-.7.11-.68-.6.02-.77-.55-1.22-.37-.3-.43-.77-.14-1.1-.6-2.01-.32-.63-.65-.01l-.13.23q-.07.13-.21.13-.23.01-.4-.07-.23-.11-.02-.24l.71-.42a.37.37 0 0 0-.07-.66l-1.22-.44q-.44-.16-.44-.63v-.49a.78.77 12.7 0 0-.45-.7q-.85-.41-.62-1.21.05-.16-.07-.28l-.36-.37q-.43-.43-.62.15-.1.33-.31.57-.16.19-.34.02l-.23-.23a.18.18 0 0 1 0-.26l.63-.62q.33-.33.08-.72l-2.1-3.32q-.28-.43-.75-.64-1.47-.66-1.89-2.24-.13-.48-.52-.79-1.18-.97-1.55-2.34-.13-.49-.55-.78-.75-.51-.27-1.34.34-.58-.33-.61-.97-.03-1.46-1-.16-.3.01-.6.18-.31.49-.52a.57.56 50.5 0 0 .08-.86l-.83-.82q-.31-.32-.16-.74c.42-1.12-.17-2.36-1.42-2.61q-.38-.08-.79-.22-.67-.23-.06-.58.55-.32.22-.91a.48.47-20.5 0 0-.51-.23q-.36.09-.67-.09-.47-.27-.13-.69.52-.61.19-1.39-.2-.45-.67-.59-.27-.08-.29-.38-.08-.91-.61-.47l-.42.34a.2.2 0 0 1-.29-.28q1.11-1.54.02-3.07-.3-.43-.82-.37-.41.05-.62-.26-.84-1.17-1.73-1.81-.43-.3-.06-.67l.24-.24q.4-.39-.04-.73-.36-.28-.8-.29a.6.59-2.2 0 1-.57-.52l-.24-1.73q-.06-.5-.4-.87l-1.95-2.13 25.59-14.75Z" fill="#a82a78"/><path d="M208.21 132.65q.69.47.98.91.24.37.69.31.48-.08.88.17.51.31.33.87-.57 1.76.39 3.32a.72.7 52.3 0 1-.1.88l-.25.26q-.2.19.05.31 1.77.88 2.03 2.72.07.48.55.48h.47q.54 0 .8.47l3.36 6.08q.09.17-.01.32-.08.14-.14.26-.24.43.21.64 2.08.96 1.61 3.57-.09.5.39.66.78.25.62.91-.1.42.2.73l2.9 3.02q.32.33.79.32.44-.01.79.33.37.36.37.88v.88q0 .52.38.87 1 .93.58 2.4a.53.53 0 0 0 .38.66q.52.14.63.62.12.48.56.72l.88.47q.38.2-.05.25-.44.06-.35.31.23.59.47.68.25.1.4.34.08.12.12.47.04.37.31.59.37.29.44.76.35 2.23 1.39 4.23.23.46.74.55 1.15.19 1.14 1.43 0 .46.36.74l1.5 1.19q-8.94 18.73-23.7 33.42-.16-.88-.49-1.32-.25-.33-.58-.08-.22.16-.48.1-.18-.04-.59-.61-.29-.41-.27-.9.01-.47.43-.69.36-.19.37-.59.01-.45-.43-.45h-.48q-.55 0-.79-.48-.23-.46-.68-.68-.42-.22-.66-.62-.73-1.24-.49-2.53.07-.39-.14-.73-.96-1.52-1.2-3.25-.07-.56-.49-.94l-1.68-1.52q-.33-.3-.78-.24-.2.03-.38-.03-.42-.13-.44-.56l-.11-2.22q-.02-.51-.53-.49-1.27.04-1.76-1.21-.04-.11.02-.21.07-.11.16-.21.04-.05-.03-.06-.8-.13-1.52.03a2.71 2.33-87.9 0 1-2.66-3.33q.28-1.2-1.54-2.55-.07-.05-.74-.36-.73-.34-.41-1.36.14-.44-.32-.46l-.53-.02q-.46-.03-.81-.32-.39-.33-.37-.86.02-.44-.32-.74-1.11-.99-.39-2.21.24-.42.05-.87-.34-.76-1.08-.67a1.02 1.02 0 0 1-.9-.34q-.49-.58-.34-1.34a.56.56 0 0 0-.43-.65q-.22-.05-.34-.22-.24-.31-.24-.61v-1.26q0-.55-.45-.86-.88-.61-1.51-1.47-.27-.38.1-.66l.29-.24q.53-.41-.13-.51-1.06-.16-1.95-.72-.23-.14-.13-.4.05-.13.16-.23.37-.37.02-.76-.53-.57-.42-1.31a.64.64 0 0 0-.62-.74l-.53-.01q-.83-.01-.83-.84v-1.27q-.01-.55-.48-.85-.69-.43-.51-1.13.04-.16-.12-.21-.13-.04-.31 0-.15.02-.17-.13-.18-1.49-1.21-2.56a.92.89 31.7 0 1-.22-.87q.28-.97-.57-1.22-.41-.12-.41-.55-.01-.91-.82-.79-.32.05-.2-.25.27-.63-.29-1.36-.52-.66-.19-1.07.65-.8-.12-.11-.3.26-.57.33-.39.08-.44-.31-.05-.3-.26-.5l34.19-19.74Z" fill="#9460ae"/><path d="m36.58 139.64 1.95 2.13q.34.37.4.87l.24 1.73a.6.59-2.2 0 0 .57.52q.44.01.8.29.44.34.04.73l-.24.24q-.37.37.06.67.89.64 1.73 1.81.21.31.62.26.52-.06.82.37 1.09 1.53-.02 3.07a.2.2 0 0 0 .29.28l.42-.34q.53-.44.61.47.02.3.29.38.47.14.67.59.33.78-.19 1.39-.34.42.13.69.31.18.67.09a.48.47-20.5 0 1 .51.23q.33.59-.22.91-.61.35.06.58.41.14.79.22c1.25.25 1.84 1.49 1.42 2.61q-.15.42.16.74l.83.82a.57.56 50.5 0 1-.08.86q-.31.21-.49.52-.17.3-.01.6.49.97 1.46 1 .67.03.33.61-.48.83.27 1.34.42.29.55.78.37 1.37 1.55 2.34.39.31.52.79.42 1.58 1.89 2.24.47.21.75.64l2.1 3.32q.25.39-.08.72l-.63.62a.18.18 0 0 0 0 .26l.23.23q.18.17.34-.02.21-.24.31-.57.19-.58.62-.15l.36.37q.12.12.07.28-.23.8.62 1.21a.78.77 12.7 0 1 .45.7v.49q0 .47.44.63l1.22.44a.37.37 0 0 1 .07.66l-.71.42q-.21.13.02.24.17.08.4.07.14 0 .21-.13l.13-.23q.33-.62.65.01.46.91.6 2.01.06.47.43.77.57.45.55 1.22-.02.71.68.6.42-.07.79.19.42.31-.02.58-.2.13-.21.35-.03.88 0 .88h.38q.33.01.37.34.18 1.54 1.58 1.72a.6.59-77.2 0 1 .49.78q-.51 1.45.39 2.37.41.43.53 1.01.23 1.16-.46 2.11-.25.35.13.55.14.08.31.1.44.06.76.37l1.96 1.97q.31.31.31.74v.63q0 .32.32.32.61-.01.95-.49.61-.88.82.18.06.3-.02.61-.15.54.38.72.28.09.4.4a.55.55 0 0 1 0 .38q-.19.44-.62.44a.3.3 0 0 0-.22.51l.22.22q.1.1.23.06.61-.15 1.17.07a.5.44-32.6 0 1-.26.88q-.12.01-.19.19-.13.32.03.62.64 1.19 1.85 1.47.48.11.65.56.15.42.1.85-.06.51.29.88 1.02 1.05.91 2.52-.04.55.37.92.81.71.62 1.81a.51.5 2.1 0 0 .55.59q.51-.05.87-.33.55-.42.79.23.15.41-.09.82-.23.39-.17.83.16 1.12.24 2.26 0 .04.04.04h.03q.07-.01.07-.02l.33-7.69.05 25.11a.4.4 0 0 1-.55.37C46.84 224 20.84 193.12 11.4 154.88q-.16-.62.39-.93l24.79-14.31Z" fill="#ac1f6d"/><path d="M174.02 152.39q.21.2.26.5.05.39.44.31.27-.07.57-.33.77-.69.12.11-.33.41.19 1.07.56.73.29 1.36-.12.3.2.25.81-.12.82.79 0 .43.41.55.85.25.57 1.22a.92.89 31.7 0 0 .22.87q1.03 1.07 1.21 2.56.02.15.17.13.18-.04.31 0 .16.05.12.21-.18.7.51 1.13.47.3.48.85v1.27q0 .83.83.84l.53.01a.64.64 0 0 1 .62.74q-.11.74.42 1.31.35.39-.02.76-.11.1-.16.23-.1.26.13.4.89.56 1.95.72.66.1.13.51l-.29.24q-.37.28-.1.66.63.86 1.51 1.47.45.31.45.86v1.26q0 .3.24.61.12.17.34.22a.56.56 0 0 1 .43.65q-.15.76.34 1.34a1.02 1.02 0 0 0 .9.34q.74-.09 1.08.67.19.45-.05.87-.72 1.22.39 2.21.34.3.32.74-.02.53.37.86.35.29.81.32l.53.02q.46.02.32.46-.32 1.02.41 1.36.67.31.74.36 1.82 1.35 1.54 2.55a2.71 2.33-87.9 0 0 2.66 3.33q.72-.16 1.52-.03.07.01.03.06-.09.1-.16.21-.06.1-.02.21.49 1.25 1.76 1.21.51-.02.53.49l.11 2.22q.02.43.44.56.18.06.38.03.45-.06.78.24l1.68 1.52q.42.38.49.94.24 1.73 1.2 3.25.21.34.14.73-.24 1.29.49 2.53.24.4.66.62.45.22.68.68.24.48.79.48h.48q.44 0 .43.45-.01.4-.37.59-.42.22-.43.69-.02.49.27.9.41.57.59.61.26.06.48-.1.33-.25.58.08.33.44.49 1.32l-2.96 2.84q-.4.39-.88.11l-71.39-41.23q-.55-.31 0-.63l36.95-21.35Z" fill="#9c4a98"/><path d="M140.49 186.15q-.65.92-.81 2.38c-.2 1.75.94 3.89 1.56 5.59q.16.46.62.61 1.33.43.99 2.24-.16.84.66 1.45.17.14.33-.02.1-.11.2-.2.14-.13.28 0 1.25 1.18 1.65 2.82.03.12.15.09.15-.03.26.03.28.16.37.64.33 1.91 1.71 3.31.36.37.42.88.13 1.22 1.32 1.28.21.02.23.22.02.18-.11.28-.34.26-.1.63.39.59 1.05.43.56-.13.58.44l.06 1.93a1.03 1.02-73.1 0 0 .41.78q.77.59 1.33 1.45.2.32.21.7.01.61.55 1.03.4.31.5.81.15.75.81 1.21.38.26.24.7-.15.45.23.85c1.5 1.58 1.67 3.35 3.49 4.9q.43.36.28.91-.18.63.06 1.17.23.51.72.25.3-.15.38-.46.08-.3.38-.37.25-.05.34.33.11.51-.41.45-.38-.04-.5.25-.19.45.24.69c1.73.93 1.47 2.3 2.41 3.45q.91 1.1 2.07 2.02.39.31.27.8-.45 1.75 1.06 2.23.4.12.18.48-.91 1.51.7 2.46.56.34 1.53 1.87c-13.47 5.1-27.99 7.5-42.38 7.37q-.09-.38.54-.84.48-.35 0-.71-.57-.41-.66-1.19-.02-.13.07-.03.09.1.2.16.64.37.31-.26-.19-.36-1-.74a.79.79 0 0 1-.42-.86q.6-2.87-1.67-4.43a.85.85 0 0 1-.34-.89q.7-2.87-1.97-2.99-.46-.01-.34-.46.07-.28.23-.49a.52.52 0 0 0-.41-.83q-1.86-.07-1.4-2.06a.75.75 0 0 0-.32-.81q-.61-.38-.75-1.05-.11-.56-.54-.93-1.92-1.63-2.52-4.01-.02-.09-.11-.12-.12-.02-.26-.05-.34-.05-.39-.39-.28-1.75-1.35-3.08-.16-.2-.37-.26-.24-.06-.48-.07-.39-.01-.44-.4-.11-.9-1.01-1.32-.38-.18-.46-.59-.3-1.49-1.83-1.87a.71.71 0 0 1-.49-.93q.44-1.14-.76-1.31-.19-.03-.18.16.01.17-.08.32-.24.4-.38-.04-.34-1.03-.32-2.1.02-.59-.47-.92-1.38-.97-.63-2.43a.37.37 0 0 0-.36-.54q-.75.08-.63-.78.02-.14-.1-.22l-.49-.32q-.22-.14-.33-.38-.19-.42-.62-.57a.56.56 0 0 1-.37-.65q.21-.94-.54-1.31-.36-.18-.47-.56-.35-1.16-.04-2.31a.22.22 0 0 0-.35-.22q-.63.5-.99 0-.96-1.32.26-2.16.15-.1.08-.27-.1-.2-.32-.33-.23-.13-.48-.05-.61.2-1.17-.51-.49-.63-2.59-2.61-.38-.37-.38-.9v-1.23q-.01-.49-.42-.75-1.21-.76-1.62-2.02-.17-.53.32-.9a.59.59 0 0 0 .12-.82q-.38-.51-.97-.4a.5.49 89.3 0 0-.4.42q-.22 1.75 0 3.5.01.08-.07.08h-.26a.22.22 0 0 1-.23-.22l-.19-6.88.05-25.71q0-.63.54-.31l47.5 27.39Z" fill="#a43381"/><path d="m92.4 184.78.19 6.88a.22.22 0 0 0 .23.22h.26q.08 0 .07-.08-.22-1.75 0-3.5a.5.49 89.3 0 1 .4-.42q.59-.11.97.4a.59.59 0 0 1-.12.82q-.49.37-.32.9.41 1.26 1.62 2.02.41.26.42.75V194q0 .53.38.9 2.1 1.98 2.59 2.61.56.71 1.17.51.25-.08.48.05.22.13.32.33.07.17-.08.27-1.22.84-.26 2.16.36.5.99 0a.22.22 0 0 1 .35.22q-.31 1.15.04 2.31.11.38.47.56.75.37.54 1.31a.56.56 0 0 0 .37.65q.43.15.62.57.11.24.33.38l.49.32q.12.08.1.22-.12.86.63.78a.37.37 0 0 1 .36.54q-.75 1.46.63 2.43.49.33.47.92-.02 1.07.32 2.1.14.44.38.04.09-.15.08-.32-.01-.19.18-.16 1.2.17.76 1.31a.71.71 0 0 0 .49.93q1.53.38 1.83 1.87.08.41.46.59.9.42 1.01 1.32.05.39.44.4.24.01.48.07.21.06.37.26 1.07 1.33 1.35 3.08.05.34.39.39.14.03.26.05.09.03.11.12.6 2.38 2.52 4.01.43.37.54.93.14.67.75 1.05a.75.75 0 0 1 .32.81q-.46 1.99 1.4 2.06a.52.52 0 0 1 .41.83q-.16.21-.23.49-.12.45.34.46 2.67.12 1.97 2.99a.85.85 0 0 0 .34.89q2.27 1.56 1.67 4.43a.79.79 0 0 0 .42.86q.81.38 1 .74.33.63-.31.26-.11-.06-.2-.16-.09-.1-.07.03.09.78.66 1.19.48.36 0 .71-.63.46-.54.84-17.25-.04-34.1-5.24a.7.7 0 0 1-.5-.67l-.01-56.82Z" fill="#a82a78"/><path d="m140.49 186.15 61.09 35.26a.41.41 0 0 1 .04.68q-14.74 11.57-32.23 18.05-.97-1.53-1.53-1.87-1.61-.95-.7-2.46.22-.36-.18-.48-1.51-.48-1.06-2.23.12-.49-.27-.8-1.16-.92-2.07-2.02c-.94-1.15-.68-2.52-2.41-3.45q-.43-.24-.24-.69.12-.29.5-.25.52.06.41-.45-.09-.38-.34-.33-.3.07-.38.37-.08.31-.38.46-.49.26-.72-.25-.24-.54-.06-1.17.15-.55-.28-.91c-1.82-1.55-1.99-3.32-3.49-4.9q-.38-.4-.23-.85.14-.44-.24-.7-.66-.46-.81-1.21-.1-.5-.5-.81-.54-.42-.55-1.03-.01-.38-.21-.7-.56-.86-1.33-1.45a1.03 1.02-73.1 0 1-.41-.78l-.06-1.93q-.02-.57-.58-.44-.66.16-1.05-.43-.24-.37.1-.63.13-.1.11-.28-.02-.2-.23-.22-1.19-.06-1.32-1.28-.06-.51-.42-.88-1.38-1.4-1.71-3.31-.09-.48-.37-.64-.11-.06-.26-.03-.12.03-.15-.09-.4-1.64-1.65-2.82-.14-.13-.28 0-.1.09-.2.2-.16.16-.33.02-.82-.61-.66-1.45.34-1.81-.99-2.24-.46-.15-.62-.61c-.62-1.7-1.76-3.84-1.56-5.59q.16-1.46.81-2.38Z" fill="#9c4a98"/></svg>