<svg viewBox="0.00 0.00 512.00 512.00" version="1.1" xmlns="http://www.w3.org/2000/svg">
<g stroke-linecap="butt" fill="none" stroke-width="2.00">
<path d="M 273.91 61.11   C 265.79 58.64 257.21 55.66 249.50 54.33   Q 235.24 51.86 222.73 53.69   C 183.47 59.44 162.40 99.04 157.62 134.88" stroke="#b3c0c9"></path>
<path d="M 155.06 134.98   Q 153.01 134.83 150.35 134.62   Q 147.91 134.42 145.67 134.01   Q 130.70 131.24 117.75 126.95   Q 107.43 123.54 93.54 118.04" stroke="#99a6ae"></path>
<path d="M 89.85 116.50   Q 91.00 108.07 94.12 100.15   Q 99.80 85.74 107.09 72.08   Q 110.39 65.90 118.85 51.42" stroke="#b3c0c9"></path>
<path d="M 147.87 160.37   L 113.55 145.00" stroke="#99a6ae"></path>
<path d="M 113.55 145.00   L 86.72 133.09" stroke="#80909a"></path>
<path d="M 113.55 145.00   Q 108.95 152.51 104.21 163.72   C 86.31 206.00 73.71 249.13 66.94 293.76   C 66.28 298.12 65.90 303.09 65.27 307.77   Q 64.44 313.85 64.21 318.28   C 63.49 331.71 62.31 345.02 63.08 358.50   Q 63.73 369.63 64.44 380.75   Q 64.90 388.08 68.44 406.99   C 71.68 424.30 77.30 443.26 85.80 459.67" stroke="#b3c0c9"></path>
<path d="M 85.80 459.67   Q 77.71 461.58 68.53 461.48" stroke="#80909a"></path>
<path d="M 142.93 366.28   Q 142.15 372.53 141.79 379.01   Q 141.53 383.62 137.44 398.46   C 130.12 425.00 114.77 452.63 85.80 459.67" stroke="#99a6ae"></path>
<path d="M 504.55 361.96   Q 496.75 366.02 489.06 370.01   C 460.72 384.74 431.17 397.24 400.64 406.63   C 374.87 414.57 352.29 420.17 330.24 423.75   Q 247.90 437.10 164.46 435.14   Q 163.91 435.12 163.72 434.61   Q 163.10 432.91 163.29 430.56" stroke="#b3c0c9"></path>
<path d="M 163.29 430.56   Q 162.40 413.68 161.21 404.50   Q 159.39 390.38 159.26 384.50   Q 159.22 382.38 159.62 375.10" stroke="#99a6ae"></path>
<path d="M 144.95 485.42   C 149.02 478.20 154.18 470.63 157.11 463.86   Q 160.50 456.00 161.48 448.98   C 161.93 445.78 162.70 442.91 162.73 439.96   Q 162.77 435.24 163.29 430.56" stroke="#80909a"></path>
</g>
<path d="M 273.91 61.11   C 265.79 58.64 257.21 55.66 249.50 54.33   Q 235.24 51.86 222.73 53.69   C 183.47 59.44 162.40 99.04 157.62 134.88   Q 157.06 135.13 155.06 134.98   Q 153.01 134.83 150.35 134.62   Q 147.91 134.42 145.67 134.01   Q 130.70 131.24 117.75 126.95   Q 107.43 123.54 93.54 118.04   L 89.85 116.50   Q 91.00 108.07 94.12 100.15   Q 99.80 85.74 107.09 72.08   Q 110.39 65.90 118.85 51.42   C 125.20 41.05 148.72 4.50 162.24 6.51   Q 164.51 6.84 171.23 9.04   C 200.05 18.45 228.97 30.46 255.06 45.98   C 261.81 50.00 269.07 54.82 273.91 61.11   Z" fill="#ccd6dd"></path>
<path d="M 118.85 51.42   Q 110.39 65.90 107.09 72.08   Q 99.80 85.74 94.12 100.15   Q 91.00 108.07 89.85 116.50   C 82.45 104.23 81.68 88.27 82.36 74.50   Q 83.68 47.55 88.12 27.33   Q 89.31 21.92 95.55 20.16   C 105.14 17.46 114.09 24.13 117.42 32.82   Q 120.44 40.67 118.85 51.42   Z" fill="#99aab5"></path>
<path d="M 273.91 61.11   C 284.70 75.89 271.87 108.69 264.05 122.82   C 260.28 129.64 251.80 143.55 242.77 143.14   C 237.01 142.89 232.74 136.49 231.63 131.26   Q 228.96 118.78 231.49 106.25   Q 231.81 104.70 231.37 102.24   C 229.85 93.59 219.49 99.57 215.58 102.34   Q 194.82 117.09 173.98 131.73   C 169.80 134.67 164.06 135.19 157.62 134.88   C 162.40 99.04 183.47 59.44 222.73 53.69   Q 235.24 51.86 249.50 54.33   C 257.21 55.66 265.79 58.64 273.91 61.11   Z" fill="#99aab5"></path>
<path d="M 93.54 118.04   Q 107.43 123.54 117.75 126.95   Q 130.70 131.24 145.67 134.01   Q 147.91 134.42 150.35 134.62   Q 153.01 134.83 155.06 134.98   Q 156.23 149.39 147.87 160.37   L 113.55 145.00   L 86.72 133.09   C 88.20 127.29 89.98 122.96 93.54 118.04   Z" fill="#66757f"></path>
<path d="M 86.72 133.09   L 113.55 145.00   Q 108.95 152.51 104.21 163.72   C 86.31 206.00 73.71 249.13 66.94 293.76   C 66.28 298.12 65.90 303.09 65.27 307.77   Q 64.44 313.85 64.21 318.28   C 63.49 331.71 62.31 345.02 63.08 358.50   Q 63.73 369.63 64.44 380.75   Q 64.90 388.08 68.44 406.99   C 71.68 424.30 77.30 443.26 85.80 459.67   Q 77.71 461.58 68.53 461.48   Q 68.38 461.43 67.60 461.36   Q 50.78 459.91 38.22 448.78   Q 36.10 446.90 30.77 438.24   C -4.26 381.38 2.80 313.38 22.99 252.98   C 33.06 222.86 45.55 193.14 61.68 165.74   Q 72.03 148.14 86.72 133.09   Z" fill="#99aab5"></path>
<path d="M 113.55 145.00   L 147.87 160.37   L 151.04 161.85   A 0.90 0.89 21.9 0 1 151.51 162.95   C 138.43 201.10 129.63 242.48 135.40 282.91   C 138.57 305.13 142.06 326.59 143.14 349.50   Q 143.57 358.56 142.93 366.28   Q 142.15 372.53 141.79 379.01   Q 141.53 383.62 137.44 398.46   C 130.12 425.00 114.77 452.63 85.80 459.67   C 77.30 443.26 71.68 424.30 68.44 406.99   Q 64.90 388.08 64.44 380.75   Q 63.73 369.63 63.08 358.50   C 62.31 345.02 63.49 331.71 64.21 318.28   Q 64.44 313.85 65.27 307.77   C 65.90 303.09 66.28 298.12 66.94 293.76   C 73.71 249.13 86.31 206.00 104.21 163.72   Q 108.95 152.51 113.55 145.00   Z" fill="#ccd6dd"></path>
<path d="M 504.55 361.96   Q 496.75 366.02 489.06 370.01   C 460.72 384.74 431.17 397.24 400.64 406.63   C 374.87 414.57 352.29 420.17 330.24 423.75   Q 247.90 437.10 164.46 435.14   Q 163.91 435.12 163.72 434.61   Q 163.10 432.91 163.29 430.56   Q 162.40 413.68 161.21 404.50   Q 159.39 390.38 159.26 384.50   Q 159.22 382.38 159.62 375.10   C 161.90 361.13 168.32 352.55 178.69 341.79   C 191.32 328.70 207.33 317.22 222.53 308.51   C 240.07 298.45 258.69 289.88 277.99 283.84   Q 344.00 263.18 411.74 277.94   Q 425.57 280.95 441.06 287.39   C 473.61 300.94 498.42 325.69 504.55 361.96   Z" fill="#ccd6dd"></path>
<path d="M 504.55 361.96   C 509.95 390.40 501.89 415.42 482.55 436.47   C 470.50 449.58 456.65 460.17 441.93 470.10   C 436.92 473.48 430.04 478.51 424.19 481.19   Q 421.44 482.45 411.19 485.87   C 377.97 496.98 344.69 501.01 308.50 504.04   Q 301.15 504.65 295.57 504.79   C 272.35 505.36 249.47 505.96 226.25 504.51   Q 197.41 502.70 169.25 496.25   Q 161.43 494.46 149.10 490.11   Q 145.42 488.81 144.95 485.42   C 149.02 478.20 154.18 470.63 157.11 463.86   Q 160.50 456.00 161.48 448.98   C 161.93 445.78 162.70 442.91 162.73 439.96   Q 162.77 435.24 163.29 430.56   Q 163.10 432.91 163.72 434.61   Q 163.91 435.12 164.46 435.14   Q 247.90 437.10 330.24 423.75   C 352.29 420.17 374.87 414.57 400.64 406.63   C 431.17 397.24 460.72 384.74 489.06 370.01   Q 496.75 366.02 504.55 361.96   Z" fill="#99aab5"></path>
<path d="M 142.93 366.28   Q 151.78 369.41 159.62 375.10   Q 159.22 382.38 159.26 384.50   Q 159.39 390.38 161.21 404.50   Q 162.40 413.68 163.29 430.56   Q 162.77 435.24 162.73 439.96   C 162.70 442.91 161.93 445.78 161.48 448.98   Q 160.50 456.00 157.11 463.86   C 154.18 470.63 149.02 478.20 144.95 485.42   C 116.78 496.83 85.68 486.36 68.53 461.48   Q 77.71 461.58 85.80 459.67   C 114.77 452.63 130.12 425.00 137.44 398.46   Q 141.53 383.62 141.79 379.01   Q 142.15 372.53 142.93 366.28   Z" fill="#66757f"></path>
</svg>