<svg viewBox="0.00 0.00 512.00 512.00" version="1.1" xmlns="http://www.w3.org/2000/svg">
<g stroke-linecap="butt" fill="none" stroke-width="2.00">
<path d="M 285.91 38.04
  C 285.07 42.26 286.96 44.30 288.07 47.55
  Q 291.96 58.94 296.06 70.22
  Q 296.60 71.69 297.65 72.82" stroke="#8baec5"></path>
<path d="M 297.10 439.28
  Q 294.00 444.37 292.27 450.24
  Q 289.36 460.13 285.66 469.74
  Q 285.05 471.32 285.31 474.16" stroke="#8baec5"></path>
<path d="M 223.96 474.24
  Q 220.50 461.00 215.67 448.16
  Q 214.00 443.74 211.83 439.65" stroke="#8baec5"></path>
<path d="M 211.66 72.73
  Q 216.42 61.54 219.26 51.99
  C 220.79 46.84 222.98 42.63 222.92 38.01" stroke="#8baec5"></path>
<path d="M 271.97 19.03
  A 18.67 18.67 0.0 0 0 236.70 19.03
  L 156.60 249.23
  A 18.67 18.67 0.0 0 0 156.60 261.51
  L 236.72 491.71
  A 18.67 18.67 0.0 0 0 271.99 491.71
  L 352.14 261.56
  A 18.67 18.67 0.0 0 0 352.14 249.28
  L 271.97 19.03" stroke="#87d7da"></path>
<path d="M 255.8551 308.8379
  A 54.42 54.23 90.5 0 0 310.5579 254.8932
  A 54.42 54.23 90.5 0 0 256.8049 200.0021
  A 54.42 54.23 90.5 0 0 202.1021 253.9468
  A 54.42 54.23 90.5 0 0 255.8551 308.8379" stroke="#87d7da"></path>
</g>
<path d="M 248.13 0.00
  L 260.48 0.00
  C 267.04 1.33 272.02 6.08 275.55 11.40
  Q 277.52 14.36 279.70 20.42
  Q 282.86 29.20 285.91 38.04
  C 285.07 42.26 286.96 44.30 288.07 47.55
  Q 291.96 58.94 296.06 70.22
  Q 296.60 71.69 297.65 72.82
  C 298.43 74.74 299.44 76.48 300.03 78.46
  C 301.33 82.81 303.45 88.21 304.52 91.27
  Q 331.11 167.73 357.79 244.15
  C 359.52 249.13 359.86 253.07 359.62 258.08
  Q 359.41 262.33 357.36 268.17
  Q 317.01 382.88 303.54 421.76
  Q 299.35 433.84 297.10 439.28
  Q 294.00 444.37 292.27 450.24
  Q 289.36 460.13 285.66 469.74
  Q 285.05 471.32 285.31 474.16
  C 284.11 478.10 282.40 481.80 281.24 485.77
  C 277.74 497.73 272.13 508.10 259.76 510.69
  Q 252.94 512.11 245.29 509.42
  C 237.06 506.52 234.43 501.23 230.81 494.50
  Q 228.69 490.57 223.96 474.24
  Q 220.50 461.00 215.67 448.16
  Q 214.00 443.74 211.83 439.65
  C 207.33 428.19 203.38 416.44 199.29 404.74
  Q 175.24 335.96 151.08 267.22
  C 148.10 258.72 148.37 251.81 151.45 242.99
  Q 180.56 159.69 209.62 76.37
  Q 210.23 74.61 211.66 72.73
  Q 216.42 61.54 219.26 51.99
  C 220.79 46.84 222.98 42.63 222.92 38.01
  Q 225.96 29.68 228.90 21.29
  Q 231.27 14.54 233.24 11.54
  C 236.67 6.31 241.80 1.44 248.13 0.00
  Z
  M 271.97 19.03
  A 18.67 18.67 0.0 0 0 236.70 19.03
  L 156.60 249.23
  A 18.67 18.67 0.0 0 0 156.60 261.51
  L 236.72 491.71
  A 18.67 18.67 0.0 0 0 271.99 491.71
  L 352.14 261.56
  A 18.67 18.67 0.0 0 0 352.14 249.28
  L 271.97 19.03
  Z" fill="#ffffff"></path>
<path d="M 271.97 19.03
  L 352.14 249.28
  A 18.67 18.67 0.0 0 1 352.14 261.56
  L 271.99 491.71
  A 18.67 18.67 0.0 0 1 236.72 491.71
  L 156.60 261.51
  A 18.67 18.67 0.0 0 1 156.60 249.23
  L 236.70 19.03
  A 18.67 18.67 0.0 0 1 271.97 19.03
  Z
  M 255.8551 308.8379
  A 54.42 54.23 90.5 0 0 310.5579 254.8932
  A 54.42 54.23 90.5 0 0 256.8049 200.0021
  A 54.42 54.23 90.5 0 0 202.1021 253.9468
  A 54.42 54.23 90.5 0 0 255.8551 308.8379
  Z" fill="#0eafb5"></path>
<path d="M 222.92 38.01
  C 222.98 42.63 220.79 46.84 219.26 51.99
  Q 216.42 61.54 211.66 72.73
  L 211.05 70.83
  A 0.51 0.51 0.0 0 0 210.30 70.55
  C 206.87 72.68 202.29 73.43 199.63 74.35
  C 191.98 76.99 184.23 79.09 177.10 82.73
  Q 168.47 87.14 159.95 91.79
  C 151.39 96.45 143.92 102.52 136.06 108.38
  C 127.34 114.88 120.32 122.53 112.86 130.27
  C 105.22 138.22 99.51 147.69 93.59 156.91
  C 87.95 165.69 84.01 175.17 79.77 184.72
  Q 76.77 191.50 74.80 198.62
  C 71.91 209.10 68.66 219.54 67.55 230.38
  C 66.47 240.91 64.77 251.98 65.78 262.57
  C 66.77 272.99 67.01 283.85 69.52 293.99
  Q 74.34 313.51 76.47 319.51
  Q 78.25 324.52 85.87 340.92
  Q 89.34 348.37 93.65 354.99
  Q 103.81 370.61 108.85 376.39
  Q 123.17 392.82 130.71 399.55
  Q 135.68 404.00 147.99 412.92
  C 157.19 419.59 167.31 424.29 177.47 429.26
  C 184.63 432.76 192.43 434.99 200.07 437.73
  C 202.93 438.76 207.46 439.44 210.94 441.85
  Q 211.34 442.12 211.52 441.67
  Q 211.85 440.82 211.83 439.65
  Q 214.00 443.74 215.67 448.16
  Q 220.50 461.00 223.96 474.24
  L 222.81 472.17
  Q 222.56 471.72 222.06 471.62
  Q 207.97 468.79 194.01 465.47
  C 183.83 463.05 173.76 458.03 164.05 454.09
  C 151.79 449.11 140.38 441.30 129.20 434.29
  Q 127.07 432.96 125.22 431.27
  C 115.71 422.67 105.10 415.33 96.68 405.57
  C 89.25 396.96 81.64 388.61 75.56 378.95
  Q 69.28 368.97 63.17 358.87
  C 61.65 356.36 60.18 353.23 59.28 350.96
  Q 55.16 340.54 50.90 330.17
  Q 48.41 324.11 46.99 318.04
  Q 43.70 304.08 40.68 290.05
  C 40.12 287.44 35.64 287.24 33.66 286.45
  C 24.92 282.96 12.54 280.10 6.32 272.67
  Q 1.13 266.48 0.00 258.40
  L 0.00 252.97
  Q 1.75 242.92 9.70 235.91
  Q 12.22 233.69 18.96 231.08
  Q 29.02 227.19 38.97 223.83
  A 2.59 2.58 -3.3 0 0 40.67 221.93
  Q 43.73 208.03 46.85 194.44
  Q 48.21 188.51 50.55 182.84
  C 55.08 171.88 59.19 160.80 65.03 150.59
  Q 74.26 134.46 79.54 127.03
  Q 87.51 115.82 100.88 102.65
  C 106.50 97.12 115.19 89.90 122.23 83.34
  Q 126.25 79.59 130.42 76.96
  C 141.52 69.95 152.58 62.64 164.79 57.52
  C 174.84 53.29 185.30 48.07 195.98 45.80
  C 204.59 43.98 212.16 42.05 220.32 40.53
  C 221.89 40.24 222.45 39.40 222.92 38.01
  Z" fill="#175c8b"></path>
<path d="M 285.91 38.04
  C 286.37 39.50 287.19 40.33 288.78 40.66
  Q 302.18 43.40 315.49 46.52
  C 325.67 48.91 335.89 54.06 345.52 58.15
  C 356.15 62.66 365.79 69.12 375.62 75.16
  Q 382.08 79.13 387.92 83.95
  C 394.48 89.38 401.13 94.59 407.44 100.32
  Q 408.42 101.21 409.36 102.38
  Q 417.10 112.07 425.03 121.60
  C 433.68 132.00 440.51 143.90 447.83 155.22
  Q 448.80 156.71 450.64 161.42
  C 454.98 172.49 460.43 183.80 463.04 195.39
  Q 466.12 209.08 469.15 222.65
  A 1.58 1.58 0.0 0 0 470.17 223.80
  Q 479.45 227.10 489.02 230.64
  Q 498.07 233.98 501.07 236.42
  Q 503.19 238.14 506.72 244.99
  C 512.14 255.53 509.41 264.48 502.81 273.42
  Q 501.32 275.44 498.99 276.71
  C 491.14 280.97 482.60 283.63 474.25 286.76
  Q 472.19 287.53 470.31 287.92
  A 1.35 1.34 0.3 0 0 469.28 288.93
  Q 466.03 303.28 462.81 317.61
  Q 461.98 321.26 460.65 324.75
  Q 455.59 337.95 450.32 351.07
  Q 448.28 356.14 445.26 360.91
  C 439.14 370.56 433.54 380.87 426.15 389.61
  C 417.79 399.50 410.08 410.25 399.85 418.36
  Q 391.64 424.87 383.58 431.58
  Q 381.92 432.96 380.08 434.09
  C 369.03 440.93 357.84 448.62 345.83 453.65
  Q 335.06 458.16 324.26 462.55
  Q 319.26 464.58 313.99 465.75
  C 305.04 467.73 296.27 469.91 287.20 471.31
  A 1.23 1.22 13.0 0 0 286.38 471.82
  Q 285.69 472.82 285.31 474.16
  Q 285.05 471.32 285.66 469.74
  Q 289.36 460.13 292.27 450.24
  Q 294.00 444.37 297.10 439.28
  Q 297.02 440.41 297.32 440.89
  Q 297.60 441.35 298.53 440.97
  Q 301.44 439.81 304.44 438.97
  C 310.36 437.30 316.25 435.48 322.13 433.66
  C 330.15 431.19 337.53 426.51 344.99 422.67
  Q 352.10 419.01 357.98 414.95
  Q 369.76 406.83 374.26 403.23
  Q 389.19 391.31 404.09 372.82
  Q 407.55 368.52 416.00 355.16
  C 421.55 346.40 425.52 336.85 429.89 327.36
  Q 432.62 321.45 434.32 315.33
  Q 437.26 304.77 440.08 294.16
  Q 441.47 288.96 441.84 283.56
  C 442.68 271.56 443.88 259.71 443.12 247.65
  C 442.50 237.86 442.58 227.29 440.07 217.79
  Q 437.19 206.92 434.16 196.10
  C 431.41 186.32 426.39 177.06 422.20 167.78
  C 418.10 158.69 411.70 150.59 406.23 142.27
  C 400.07 132.89 391.61 124.96 383.71 117.11
  C 376.63 110.09 368.51 104.31 360.46 98.33
  C 351.83 91.92 341.86 87.34 332.36 82.29
  Q 327.48 79.70 322.33 78.11
  C 316.53 76.32 310.70 74.48 304.82 73.00
  Q 301.73 72.22 298.79 70.64
  A 0.84 0.84 0.0 0 0 297.56 71.44
  L 297.65 72.82
  Q 296.60 71.69 296.06 70.22
  Q 291.96 58.94 288.07 47.55
  C 286.96 44.30 285.07 42.26 285.91 38.04
  Z" fill="#175c8b"></path>
<path d="M 255.8551 308.8379
  A 54.42 54.23 90.5 0 1 202.1021 253.9468
  A 54.42 54.23 90.5 0 1 256.8049 200.0021
  A 54.42 54.23 90.5 0 1 310.5579 254.8932
  A 54.42 54.23 90.5 0 1 255.8551 308.8379
  Z
  M 209.88 246.38
  Q 209.53 249.08 208.29 253.12
  C 207.63 255.24 208.88 257.65 209.24 259.33
  C 210.47 265.11 210.97 271.10 213.93 276.27
  C 216.61 280.95 220.26 286.32 224.74 289.96
  C 235.39 298.63 247.56 303.93 261.68 302.15
  C 279.10 299.95 294.47 287.60 300.87 271.62
  Q 302.32 268.00 303.41 259.64
  Q 304.10 254.38 303.40 249.37
  C 301.41 235.09 296.67 225.33 284.83 216.61
  C 276.73 210.64 268.93 207.25 258.94 206.46
  C 249.67 205.72 238.53 208.70 231.11 214.42
  Q 229.99 215.28 225.63 218.28
  C 216.73 224.40 211.18 236.12 209.88 246.38
  Z" fill="#ffffff"></path>
</svg>
