<svg viewBox="0.00 0.00 48.00 48.00" version="1.1" xmlns="http://www.w3.org/2000/svg">
<path d="M 16.81 18.54
  A 0.81 0.80 -79.3 0 1 17.56 18.02
  Q 23.17 18.00 28.83 18.00
  C 31.89 18.00 34.18 18.45 35.65 21.08
  C 38.81 26.73 30.96 32.96 28.68 28.57
  A 1.85 1.83 2.8 0 0 28.02 27.85
  C 21.80 23.95 18.87 36.32 27.26 34.67
  Q 28.58 34.41 29.29 32.53
  A 0.78 0.76 9.4 0 1 30.00 32.03
  C 39.48 31.99 41.53 19.32 33.20 16.52
  C 29.50 15.28 22.33 16.01 17.71 15.95
  Q 17.12 15.95 16.85 15.43
  L 16.34 14.46
  Q 16.08 13.95 15.56 13.72
  C 12.47 12.30 9.32 13.90 9.64 17.43
  C 9.99 21.24 15.44 22.11 16.81 18.54" stroke-linecap="butt" fill="none" stroke-width="2.00" stroke="#808080"></path>
<path d="M 0.00 0.00
  L 48.00 0.00
  L 48.00 48.00
  L 0.00 48.00
  L 0.00 0.00
  Z
  M 16.81 18.54
  A 0.81 0.80 -79.3 0 1 17.56 18.02
  Q 23.17 18.00 28.83 18.00
  C 31.89 18.00 34.18 18.45 35.65 21.08
  C 38.81 26.73 30.96 32.96 28.68 28.57
  A 1.85 1.83 2.8 0 0 28.02 27.85
  C 21.80 23.95 18.87 36.32 27.26 34.67
  Q 28.58 34.41 29.29 32.53
  A 0.78 0.76 9.4 0 1 30.00 32.03
  C 39.48 31.99 41.53 19.32 33.20 16.52
  C 29.50 15.28 22.33 16.01 17.71 15.95
  Q 17.12 15.95 16.85 15.43
  L 16.34 14.46
  Q 16.08 13.95 15.56 13.72
  C 12.47 12.30 9.32 13.90 9.64 17.43
  C 9.99 21.24 15.44 22.11 16.81 18.54
  Z" fill="#000000"></path>
<path d="M 16.81 18.54
  C 15.44 22.11 9.99 21.24 9.64 17.43
  C 9.32 13.90 12.47 12.30 15.56 13.72
  Q 16.08 13.95 16.34 14.46
  L 16.85 15.43
  Q 17.12 15.95 17.71 15.95
  C 22.33 16.01 29.50 15.28 33.20 16.52
  C 41.53 19.32 39.48 31.99 30.00 32.03
  A 0.78 0.76 9.4 0 0 29.29 32.53
  Q 28.58 34.41 27.26 34.67
  C 18.87 36.32 21.80 23.95 28.02 27.85
  A 1.85 1.83 2.8 0 1 28.68 28.57
  C 30.96 32.96 38.81 26.73 35.65 21.08
  C 34.18 18.45 31.89 18.00 28.83 18.00
  Q 23.17 18.00 17.56 18.02
  A 0.81 0.80 -79.3 0 0 16.81 18.54
  Z" fill="#ffffff"></path>
</svg>
