<svg viewBox="0.00 0.00 256.00 256.00" version="1.1" xmlns="http://www.w3.org/2000/svg">
<g stroke-linecap="butt" fill="none" stroke-width="2.00">
<path d="M 236.73 61.78
  Q 231.94 67.69 226.15 71.15
  Q 210.58 80.49 187.20 93.64" stroke="#a084ee"></path>
<path d="M 187.20 93.64
  Q 187.15 93.68 187.10 93.72" stroke="#b29cf2"></path>
<path d="M 187.10 93.72
  Q 184.82 89.82 181.56 87.90
  Q 172.45 82.52 139.69 63.73
  C 132.60 59.66 126.90 57.11 119.91 61.15
  Q 97.71 73.99 75.51 86.83
  Q 70.26 89.86 68.06 93.70" stroke="#c5b4f5"></path>
<path d="M 68.06 93.70
  Q 68.06 93.70 68.05 93.71" stroke="#b29cf2"></path>
<path d="M 68.05 93.71
  Q 49.09 82.90 30.26 71.93
  Q 23.40 67.93 18.42 61.75" stroke="#a084ee"></path>
<path d="M 187.10 93.72
  Q 166.92 105.36 146.80 116.84
  Q 138.23 121.73 133.53 122.72
  Q 122.49 125.06 111.99 119.01
  Q 90.14 106.41 68.06 93.70" stroke="#bda9f4"></path>
<path d="M 68.05 93.71
  Q 66.03 97.57 66.02 100.50
  Q 65.95 128.13 66.03 155.75
  Q 66.04 158.57 68.12 162.12" stroke="#9879ed"></path>
<path d="M 68.12 162.12
  Q 67.94 162.21 68.02 162.42" stroke="#8d6beb"></path>
<path d="M 68.02 162.42
  Q 67.39 162.44 67.05 162.71
  Q 66.71 162.98 66.66 163.01
  Q 38.63 179.00 29.59 184.33
  Q 23.46 187.93 18.37 194.11" stroke="#764de7"></path>
<path d="M 236.66 194.21
  Q 231.63 187.74 224.39 183.57
  Q 205.93 172.94 187.24 162.22" stroke="#764de7"></path>
<path d="M 187.24 162.22
  Q 187.21 162.20 187.17 162.18" stroke="#8d6beb"></path>
<path d="M 187.17 162.18
  Q 189.14 158.12 189.15 154.00
  Q 189.22 127.42 189.19 100.83
  Q 189.19 98.26 187.20 93.64" stroke="#9879ed"></path>
<path d="M 187.17 162.18
  Q 168.85 151.67 150.57 141.18
  Q 138.34 134.17 133.33 133.07
  Q 122.68 130.74 112.58 136.58
  Q 90.41 149.42 68.12 162.12" stroke="#9f83ee"></path>
<path d="M 187.24 162.22
  Q 184.65 166.32 181.43 168.18
  Q 158.77 181.29 136.11 194.39
  C 128.66 198.69 123.37 196.82 115.89 192.50
  Q 94.21 180.00 72.55 167.47
  Q 70.69 166.39 68.02 162.42" stroke="#7d57e8"></path>
</g>
<path d="M 124.63 0.00
  L 130.74 0.00
  Q 137.46 1.07 141.39 3.34
  Q 183.66 27.70 225.88 52.12
  Q 232.93 56.20 236.73 61.78
  Q 231.94 67.69 226.15 71.15
  Q 210.58 80.49 187.20 93.64
  Q 187.15 93.68 187.10 93.72
  Q 184.82 89.82 181.56 87.90
  Q 172.45 82.52 139.69 63.73
  C 132.60 59.66 126.90 57.11 119.91 61.15
  Q 97.71 73.99 75.51 86.83
  Q 70.26 89.86 68.06 93.70
  Q 68.06 93.70 68.05 93.71
  Q 49.09 82.90 30.26 71.93
  Q 23.40 67.93 18.42 61.75
  Q 22.18 56.24 27.14 53.37
  Q 69.60 28.85 112.04 4.30
  Q 117.88 0.93 124.63 0.00
  Z" fill="#baa6f3"></path>
<path d="M 187.10 93.72
  Q 166.92 105.36 146.80 116.84
  Q 138.23 121.73 133.53 122.72
  Q 122.49 125.06 111.99 119.01
  Q 90.14 106.41 68.06 93.70
  Q 70.26 89.86 75.51 86.83
  Q 97.71 73.99 119.91 61.15
  C 126.90 57.11 132.60 59.66 139.69 63.73
  Q 172.45 82.52 181.56 87.90
  Q 184.82 89.82 187.10 93.72
  Z" fill="#cfc1f7"></path>
<path d="M 18.42 61.75
  Q 23.40 67.93 30.26 71.93
  Q 49.09 82.90 68.05 93.71
  Q 66.03 97.57 66.02 100.50
  Q 65.95 128.13 66.03 155.75
  Q 66.04 158.57 68.12 162.12
  Q 67.94 162.21 68.02 162.42
  Q 67.39 162.44 67.05 162.71
  Q 66.71 162.98 66.66 163.01
  Q 38.63 179.00 29.59 184.33
  Q 23.46 187.93 18.37 194.11
  Q 13.02 186.21 13.01 177.25
  Q 12.98 127.75 13.01 78.25
  Q 13.02 69.72 18.42 61.75
  Z" fill="#8561e9"></path>
<path d="M 236.73 61.78
  Q 242.10 69.84 242.10 79.25
  Q 242.15 128.19 242.11 177.12
  Q 242.10 186.46 236.66 194.21
  Q 231.63 187.74 224.39 183.57
  Q 205.93 172.94 187.24 162.22
  Q 187.21 162.20 187.17 162.18
  Q 189.14 158.12 189.15 154.00
  Q 189.22 127.42 189.19 100.83
  Q 189.19 98.26 187.20 93.64
  Q 210.58 80.49 226.15 71.15
  Q 231.94 67.69 236.73 61.78
  Z" fill="#8561e9"></path>
<path d="M 68.05 93.71
  Q 68.06 93.70 68.06 93.70
  Q 90.14 106.41 111.99 119.01
  Q 122.49 125.06 133.53 122.72
  Q 138.23 121.73 146.80 116.84
  Q 166.92 105.36 187.10 93.72
  Q 187.15 93.68 187.20 93.64
  Q 189.19 98.26 189.19 100.83
  Q 189.22 127.42 189.15 154.00
  Q 189.14 158.12 187.17 162.18
  Q 168.85 151.67 150.57 141.18
  Q 138.34 134.17 133.33 133.07
  Q 122.68 130.74 112.58 136.58
  Q 90.41 149.42 68.12 162.12
  Q 66.04 158.57 66.03 155.75
  Q 65.95 128.13 66.02 100.50
  Q 66.03 97.57 68.05 93.71
  Z" fill="#aa91f0"></path>
<path d="M 187.17 162.18
  Q 187.21 162.20 187.24 162.22
  Q 184.65 166.32 181.43 168.18
  Q 158.77 181.29 136.11 194.39
  C 128.66 198.69 123.37 196.82 115.89 192.50
  Q 94.21 180.00 72.55 167.47
  Q 70.69 166.39 68.02 162.42
  Q 67.94 162.21 68.12 162.12
  Q 90.41 149.42 112.58 136.58
  Q 122.68 130.74 133.33 133.07
  Q 138.34 134.17 150.57 141.18
  Q 168.85 151.67 187.17 162.18
  Z" fill="#9475ec"></path>
<path d="M 187.24 162.22
  Q 205.93 172.94 224.39 183.57
  Q 231.63 187.74 236.66 194.21
  Q 232.80 199.73 227.23 202.96
  Q 184.77 227.55 142.26 252.07
  Q 136.68 255.29 129.36 256.00
  L 125.51 256.00
  Q 118.31 255.22 112.12 251.64
  Q 69.81 227.17 27.49 202.74
  Q 22.26 199.71 18.37 194.11
  Q 23.46 187.93 29.59 184.33
  Q 38.63 179.00 66.66 163.01
  Q 66.71 162.98 67.05 162.71
  Q 67.39 162.44 68.02 162.42
  Q 70.69 166.39 72.55 167.47
  Q 94.21 180.00 115.89 192.50
  C 123.37 196.82 128.66 198.69 136.11 194.39
  Q 158.77 181.29 181.43 168.18
  Q 184.65 166.32 187.24 162.22
  Z" fill="#6639e4"></path>
</svg>
