<svg viewBox="0.00 0.00 512.00 512.00" version="1.1" xmlns="http://www.w3.org/2000/svg">
<g stroke-linecap="butt" fill="none" stroke-width="2.00">
<path d="M 263.24 158.31
  L 263.31 158.91
  Q 263.37 159.41 263.68 159.81
  Q 275.74 175.50 286.94 191.82
  Q 287.18 192.17 288.08 192.15" stroke="#0273ec"></path>
<path d="M 381.06 340.78
  Q 379.18 341.52 378.94 343.25
  Q 378.59 345.74 377.79 348.17
  Q 377.63 348.65 377.25 348.98
  Q 376.83 349.34 376.86 349.86
  Q 376.88 350.39 376.52 350.79
  L 375.49 351.91
  Q 375.13 352.31 375.00 352.83
  Q 374.81 353.61 374.38 354.29
  Q 374.12 354.68 374.41 355.06
  Q 374.66 355.39 374.51 355.62
  Q 374.00 356.41 373.30 357.06
  Q 372.88 357.45 372.88 358.02
  L 372.88 359.25
  A 0.61 0.60 -17.1 0 1 372.61 359.75
  Q 371.33 360.65 370.87 362.01
  Q 370.69 362.53 370.31 362.93
  L 368.09 365.28
  Q 367.78 365.61 367.89 366.05
  Q 368.05 366.70 367.47 366.91
  Q 367.02 367.07 366.96 367.54
  Q 366.71 369.24 365.14 370.10
  A 0.70 0.70 0.0 0 0 364.81 370.95
  Q 365.32 372.42 364.30 373.04
  Q 363.88 373.30 363.88 373.78
  L 363.88 375.26
  Q 363.88 375.73 363.45 375.91
  Q 362.79 376.18 362.87 376.94
  Q 362.94 377.52 362.47 377.86
  Q 361.05 378.91 360.75 380.47
  Q 360.67 380.87 360.26 380.88
  Q 360.08 380.88 359.92 380.90
  Q 359.44 380.97 359.09 381.31
  L 350.13 390.19" stroke="#036ee7"></path>
<path d="M 255.75 246.50
  Q 255.98 245.82 255.81 245.54
  Q 243.73 225.73 230.30 206.54" stroke="#0273ec"></path>
<path d="M 67.30 242.05
  L 66.76 241.63
  Q 66.69 241.58 66.73 241.50
  Q 66.79 241.38 66.84 241.27
  A 0.12 0.12 0.0 0 0 66.76 241.10
  Q 65.30 240.81 64.49 240.87
  Q 63.86 240.92 63.87 241.50
  Q 63.88 241.88 63.50 241.88
  L 55.83 241.88
  Q 55.47 241.88 55.17 242.09
  Q 54.99 242.22 54.92 242.42
  Q 54.75 242.88 54.26 242.88
  L 51.74 242.88
  Q 51.25 242.88 51.09 242.43
  Q 51.02 242.25 50.87 242.13
  A 1.14 0.71 53.7 0 0 50.25 241.88
  L 45.74 241.88
  Q 45.25 241.88 45.09 241.42
  Q 45.02 241.25 44.87 241.13
  A 1.14 0.71 53.7 0 0 44.25 240.88
  L 38.75 240.88
  Q 38.25 240.88 38.09 240.42
  Q 38.02 240.25 37.87 240.13
  Q 37.51 239.86 37.14 240.13
  Q 37.01 240.22 36.95 240.35
  Q 36.80 240.64 36.50 240.77
  Q 35.39 241.23 35.07 240.44
  Q 34.84 239.88 34.25 239.88
  L 33.03 239.88
  Q 32.49 239.88 32.14 239.47
  Q 31.35 238.55 30.05 238.90
  Q 29.54 239.04 29.28 238.58
  Q 28.79 237.75 27.84 237.87
  Q 27.35 237.94 27.00 238.28
  C 25.93 239.29 23.00 238.89 21.56 238.88
  Q 21.50 238.88 21.25 238.75
  Q 21.07 238.67 21.12 238.48
  A 0.30 0.29 16.1 0 0 20.91 238.11
  Q 17.26 237.13 14.00 237.61
  Q 13.33 237.71 12.88 238.49
  Q 12.76 238.69 12.75 238.46
  Q 12.74 238.22 12.63 238.11
  Q 12.44 237.92 12.06 238.04" stroke="#036ee7"></path>
<path d="M 426.79 422.43
  Q 426.96 421.88 425.93 421.86
  Q 425.37 421.85 425.79 421.48
  Q 426.36 420.97 426.00 420.25
  A 0.40 0.01 43.6 0 0 425.75 420.00
  Q 425.58 419.85 425.37 419.88
  A 0.36 0.36 0.0 0 1 424.98 419.42
  Q 425.86 416.41 423.50 414.93
  Q 423.12 414.70 423.12 414.25
  L 423.12 412.74
  Q 423.12 412.27 423.51 411.99
  Q 423.88 411.73 423.87 411.27
  Q 423.87 410.86 423.45 410.89
  Q 423.32 410.90 423.23 410.75
  Q 423.01 410.38 423.35 410.13
  Q 424.44 409.34 424.09 407.97
  A 0.82 0.81 64.0 0 1 424.38 407.11
  Q 424.69 406.86 424.86 406.53
  Q 425.00 406.24 424.76 406.02
  Q 424.59 405.86 424.38 405.88
  A 0.31 0.31 0.0 0 1 424.14 405.35
  L 424.71 404.78
  Q 425.12 404.37 425.12 403.80
  L 425.12 399.74
  Q 425.12 399.25 425.58 399.09
  Q 425.77 399.02 425.89 398.84
  Q 426.14 398.47 425.86 398.12
  Q 425.66 397.87 425.39 397.87
  A 0.32 0.32 0.0 0 1 425.11 397.39
  Q 425.25 397.16 425.43 397.12
  Q 425.96 397.02 426.09 396.50
  Q 426.41 395.21 425.34 394.81
  A 0.33 0.33 0.0 0 1 425.22 394.27
  L 425.79 393.71
  A 1.18 1.15 -15.5 0 0 426.06 393.25
  Q 426.35 392.28 425.46 391.84
  Q 425.04 391.63 425.13 391.18
  Q 425.28 390.36 424.58 389.84
  Q 424.18 389.55 424.09 389.06
  Q 423.94 388.30 424.59 388.04
  Q 425.12 387.84 425.12 387.28
  L 425.12 380.74
  Q 425.12 380.25 425.58 380.09
  Q 425.74 380.03 425.85 379.90
  Q 426.16 379.53 425.87 379.13
  Q 425.74 378.95 425.52 378.90
  A 0.43 0.42 32.7 0 1 425.35 378.14
  Q 425.66 377.90 425.85 377.55
  Q 425.99 377.27 425.78 377.03
  Q 425.57 376.81 425.28 376.90
  A 0.24 0.24 0.0 0 1 425.08 376.46
  Q 426.45 375.66 426.14 374.20
  Q 426.03 373.69 426.38 373.30
  L 427.97 371.50
  A 0.92 0.91 -37.3 0 0 428.11 370.49
  Q 427.88 370.00 427.38 369.82
  A 0.36 0.36 0.0 0 1 427.40 369.14
  Q 428.90 368.70 428.57 367.78" stroke="#017af3"></path>
<path d="M 4.40 318.71
  Q 4.68 318.32 4.73 317.52
  Q 4.76 317.12 5.12 317.29
  Q 5.29 317.37 5.42 317.52
  Q 5.67 317.83 5.88 317.50
  Q 6.73 316.15 8.30 315.70
  Q 8.75 315.57 9.09 315.25
  Q 9.99 314.39 10.86 313.53
  C 11.88 312.53 13.42 312.54 14.32 313.59
  Q 14.58 313.89 14.98 313.85
  Q 15.81 313.76 16.13 314.53
  Q 16.31 314.98 16.79 314.89
  Q 17.61 314.73 17.98 315.36
  Q 18.20 315.75 18.64 315.85
  Q 20.75 316.34 22.32 315.13
  Q 22.64 314.88 23.06 314.88
  L 30.79 314.88
  Q 31.33 314.88 31.74 314.53
  Q 33.53 312.99 35.35 314.55
  Q 35.74 314.88 36.25 314.88
  L 38.26 314.88
  Q 38.75 314.88 38.91 314.43
  Q 38.97 314.25 39.13 314.13
  A 1.14 0.71 -53.7 0 1 39.75 313.88
  L 43.99 313.88
  A 1.04 1.01 -66.5 0 0 44.70 313.59
  Q 45.85 312.45 47.51 312.94
  A 1.03 1.02 36.4 0 0 48.35 312.82
  C 49.15 312.31 49.92 311.18 50.67 310.85
  Q 51.68 310.41 51.93 311.00
  A 1.75 1.75 0.0 0 0 54.80 311.57
  Q 55.97 310.39 57.53 311.51
  Q 57.60 311.56 57.63 311.49
  Q 57.70 311.36 57.76 311.23
  A 0.16 0.16 0.0 0 1 58.07 311.30
  Q 58.05 313.36 58.66 312.25" stroke="#017af3"></path>
</g>
<path d="M 263.24 158.31
  L 263.31 158.91
  Q 263.37 159.41 263.68 159.81
  Q 275.74 175.50 286.94 191.82
  Q 287.18 192.17 288.08 192.15
  Q 287.57 192.65 287.96 193.23
  Q 299.84 210.82 310.71 229.05
  C 333.25 266.85 355.80 304.72 381.06 340.78
  Q 379.18 341.52 378.94 343.25
  Q 378.59 345.74 377.79 348.17
  Q 377.63 348.65 377.25 348.98
  Q 376.83 349.34 376.86 349.86
  Q 376.88 350.39 376.52 350.79
  L 375.49 351.91
  Q 375.13 352.31 375.00 352.83
  Q 374.81 353.61 374.38 354.29
  Q 374.12 354.68 374.41 355.06
  Q 374.66 355.39 374.51 355.62
  Q 374.00 356.41 373.30 357.06
  Q 372.88 357.45 372.88 358.02
  L 372.88 359.25
  A 0.61 0.60 -17.1 0 1 372.61 359.75
  Q 371.33 360.65 370.87 362.01
  Q 370.69 362.53 370.31 362.93
  L 368.09 365.28
  Q 367.78 365.61 367.89 366.05
  Q 368.05 366.70 367.47 366.91
  Q 367.02 367.07 366.96 367.54
  Q 366.71 369.24 365.14 370.10
  A 0.70 0.70 0.0 0 0 364.81 370.95
  Q 365.32 372.42 364.30 373.04
  Q 363.88 373.30 363.88 373.78
  L 363.88 375.26
  Q 363.88 375.73 363.45 375.91
  Q 362.79 376.18 362.87 376.94
  Q 362.94 377.52 362.47 377.86
  Q 361.05 378.91 360.75 380.47
  Q 360.67 380.87 360.26 380.88
  Q 360.08 380.88 359.92 380.90
  Q 359.44 380.97 359.09 381.31
  L 350.13 390.19
  C 332.97 371.39 319.02 350.26 305.97 328.60
  Q 281.44 287.89 256.83 247.23
  Q 256.41 246.53 255.75 246.50
  Q 255.98 245.82 255.81 245.54
  Q 243.73 225.73 230.30 206.54
  Q 222.11 195.01 213.17 183.82
  C 204.44 172.87 194.51 162.34 182.99 154.28
  Q 167.95 143.75 149.49 143.13
  C 121.53 142.19 100.07 168.05 87.89 190.11
  Q 74.29 214.72 67.30 242.05
  L 66.76 241.63
  Q 66.69 241.58 66.73 241.50
  Q 66.79 241.38 66.84 241.27
  A 0.12 0.12 0.0 0 0 66.76 241.10
  Q 65.30 240.81 64.49 240.87
  Q 63.86 240.92 63.87 241.50
  Q 63.88 241.88 63.50 241.88
  L 55.83 241.88
  Q 55.47 241.88 55.17 242.09
  Q 54.99 242.22 54.92 242.42
  Q 54.75 242.88 54.26 242.88
  L 51.74 242.88
  Q 51.25 242.88 51.09 242.43
  Q 51.02 242.25 50.87 242.13
  A 1.14 0.71 53.7 0 0 50.25 241.88
  L 45.74 241.88
  Q 45.25 241.88 45.09 241.42
  Q 45.02 241.25 44.87 241.13
  A 1.14 0.71 53.7 0 0 44.25 240.88
  L 38.75 240.88
  Q 38.25 240.88 38.09 240.42
  Q 38.02 240.25 37.87 240.13
  Q 37.51 239.86 37.14 240.13
  Q 37.01 240.22 36.95 240.35
  Q 36.80 240.64 36.50 240.77
  Q 35.39 241.23 35.07 240.44
  Q 34.84 239.88 34.25 239.88
  L 33.03 239.88
  Q 32.49 239.88 32.14 239.47
  Q 31.35 238.55 30.05 238.90
  Q 29.54 239.04 29.28 238.58
  Q 28.79 237.75 27.84 237.87
  Q 27.35 237.94 27.00 238.28
  C 25.93 239.29 23.00 238.89 21.56 238.88
  Q 21.50 238.88 21.25 238.75
  Q 21.07 238.67 21.12 238.48
  A 0.30 0.29 16.1 0 0 20.91 238.11
  Q 17.26 237.13 14.00 237.61
  Q 13.33 237.71 12.88 238.49
  Q 12.76 238.69 12.75 238.46
  Q 12.74 238.22 12.63 238.11
  Q 12.44 237.92 12.06 238.04
  C 26.89 173.17 71.52 89.90 148.82 88.30
  C 197.39 87.29 234.53 121.69 262.04 157.71
  Q 262.62 158.46 263.24 158.31
  Z" fill="#0366e0"></path>
<path d="M 426.79 422.43
  Q 426.96 421.88 425.93 421.86
  Q 425.37 421.85 425.79 421.48
  Q 426.36 420.97 426.00 420.25
  A 0.40 0.01 43.6 0 0 425.75 420.00
  Q 425.58 419.85 425.37 419.88
  A 0.36 0.36 0.0 0 1 424.98 419.42
  Q 425.86 416.41 423.50 414.93
  Q 423.12 414.70 423.12 414.25
  L 423.12 412.74
  Q 423.12 412.27 423.51 411.99
  Q 423.88 411.73 423.87 411.27
  Q 423.87 410.86 423.45 410.89
  Q 423.32 410.90 423.23 410.75
  Q 423.01 410.38 423.35 410.13
  Q 424.44 409.34 424.09 407.97
  A 0.82 0.81 64.0 0 1 424.38 407.11
  Q 424.69 406.86 424.86 406.53
  Q 425.00 406.24 424.76 406.02
  Q 424.59 405.86 424.38 405.88
  A 0.31 0.31 0.0 0 1 424.14 405.35
  L 424.71 404.78
  Q 425.12 404.37 425.12 403.80
  L 425.12 399.74
  Q 425.12 399.25 425.58 399.09
  Q 425.77 399.02 425.89 398.84
  Q 426.14 398.47 425.86 398.12
  Q 425.66 397.87 425.39 397.87
  A 0.32 0.32 0.0 0 1 425.11 397.39
  Q 425.25 397.16 425.43 397.12
  Q 425.96 397.02 426.09 396.50
  Q 426.41 395.21 425.34 394.81
  A 0.33 0.33 0.0 0 1 425.22 394.27
  L 425.79 393.71
  A 1.18 1.15 -15.5 0 0 426.06 393.25
  Q 426.35 392.28 425.46 391.84
  Q 425.04 391.63 425.13 391.18
  Q 425.28 390.36 424.58 389.84
  Q 424.18 389.55 424.09 389.06
  Q 423.94 388.30 424.59 388.04
  Q 425.12 387.84 425.12 387.28
  L 425.12 380.74
  Q 425.12 380.25 425.58 380.09
  Q 425.74 380.03 425.85 379.90
  Q 426.16 379.53 425.87 379.13
  Q 425.74 378.95 425.52 378.90
  A 0.43 0.42 32.7 0 1 425.35 378.14
  Q 425.66 377.90 425.85 377.55
  Q 425.99 377.27 425.78 377.03
  Q 425.57 376.81 425.28 376.90
  A 0.24 0.24 0.0 0 1 425.08 376.46
  Q 426.45 375.66 426.14 374.20
  Q 426.03 373.69 426.38 373.30
  L 427.97 371.50
  A 0.92 0.91 -37.3 0 0 428.11 370.49
  Q 427.88 370.00 427.38 369.82
  A 0.36 0.36 0.0 0 1 427.40 369.14
  Q 428.90 368.70 428.57 367.78
  C 450.76 364.24 458.46 340.32 459.50 321.00
  C 461.62 281.77 455.29 239.03 440.21 202.00
  C 428.81 174.00 406.86 140.67 375.72 133.04
  C 346.50 125.89 324.35 143.85 307.34 165.34
  Q 296.22 179.40 288.08 192.15
  Q 287.18 192.17 286.94 191.82
  Q 275.74 175.50 263.68 159.81
  Q 263.37 159.41 263.31 158.91
  L 263.24 158.31
  C 286.26 126.95 318.85 90.52 361.00 88.46
  C 401.67 86.48 435.77 111.03 458.92 142.33
  C 496.55 193.21 511.32 262.02 507.23 324.00
  C 504.13 371.09 480.70 420.35 426.79 422.43
  Z" fill="#007ff8"></path>
<path d="M 230.30 206.54
  Q 243.73 225.73 255.81 245.54
  Q 255.98 245.82 255.75 246.50
  Q 234.15 285.05 212.06 323.30
  Q 195.53 351.92 176.11 377.08
  C 157.15 401.64 133.27 421.70 100.52 422.53
  C 93.63 422.71 85.90 422.51 79.20 421.43
  C 27.90 413.13 6.39 365.44 4.40 318.71
  Q 4.68 318.32 4.73 317.52
  Q 4.76 317.12 5.12 317.29
  Q 5.29 317.37 5.42 317.52
  Q 5.67 317.83 5.88 317.50
  Q 6.73 316.15 8.30 315.70
  Q 8.75 315.57 9.09 315.25
  Q 9.99 314.39 10.86 313.53
  C 11.88 312.53 13.42 312.54 14.32 313.59
  Q 14.58 313.89 14.98 313.85
  Q 15.81 313.76 16.13 314.53
  Q 16.31 314.98 16.79 314.89
  Q 17.61 314.73 17.98 315.36
  Q 18.20 315.75 18.64 315.85
  Q 20.75 316.34 22.32 315.13
  Q 22.64 314.88 23.06 314.88
  L 30.79 314.88
  Q 31.33 314.88 31.74 314.53
  Q 33.53 312.99 35.35 314.55
  Q 35.74 314.88 36.25 314.88
  L 38.26 314.88
  Q 38.75 314.88 38.91 314.43
  Q 38.97 314.25 39.13 314.13
  A 1.14 0.71 -53.7 0 1 39.75 313.88
  L 43.99 313.88
  A 1.04 1.01 -66.5 0 0 44.70 313.59
  Q 45.85 312.45 47.51 312.94
  A 1.03 1.02 36.4 0 0 48.35 312.82
  C 49.15 312.31 49.92 311.18 50.67 310.85
  Q 51.68 310.41 51.93 311.00
  A 1.75 1.75 0.0 0 0 54.80 311.57
  Q 55.97 310.39 57.53 311.51
  Q 57.60 311.56 57.63 311.49
  Q 57.70 311.36 57.76 311.23
  A 0.16 0.16 0.0 0 1 58.07 311.30
  Q 58.05 313.36 58.66 312.25
  C 58.91 333.88 65.61 363.66 91.67 367.75
  C 109.65 370.57 122.72 361.92 134.25 349.00
  C 151.21 330.01 165.38 307.73 178.99 286.27
  Q 204.16 246.59 230.30 206.54
  Z" fill="#007ff8"></path>
<path d="M 67.30 242.05
  Q 58.16 276.60 58.66 312.25
  Q 58.05 313.36 58.07 311.30
  A 0.16 0.16 0.0 0 0 57.76 311.23
  Q 57.70 311.36 57.63 311.49
  Q 57.60 311.56 57.53 311.51
  Q 55.97 310.39 54.80 311.57
  A 1.75 1.75 0.0 0 1 51.93 311.00
  Q 51.68 310.41 50.67 310.85
  C 49.92 311.18 49.15 312.31 48.35 312.82
  A 1.03 1.02 36.4 0 1 47.51 312.94
  Q 45.85 312.45 44.70 313.59
  A 1.04 1.01 -66.5 0 1 43.99 313.88
  L 39.75 313.88
  A 1.14 0.71 -53.7 0 0 39.13 314.13
  Q 38.97 314.25 38.91 314.43
  Q 38.75 314.88 38.26 314.88
  L 36.25 314.88
  Q 35.74 314.88 35.35 314.55
  Q 33.53 312.99 31.74 314.53
  Q 31.33 314.88 30.79 314.88
  L 23.06 314.88
  Q 22.64 314.88 22.32 315.13
  Q 20.75 316.34 18.64 315.85
  Q 18.20 315.75 17.98 315.36
  Q 17.61 314.73 16.79 314.89
  Q 16.31 314.98 16.13 314.53
  Q 15.81 313.76 14.98 313.85
  Q 14.58 313.89 14.32 313.59
  C 13.42 312.54 11.88 312.53 10.86 313.53
  Q 9.99 314.39 9.09 315.25
  Q 8.75 315.57 8.30 315.70
  Q 6.73 316.15 5.88 317.50
  Q 5.67 317.83 5.42 317.52
  Q 5.29 317.37 5.12 317.29
  Q 4.76 317.12 4.73 317.52
  Q 4.68 318.32 4.40 318.71
  Q 2.78 277.85 12.06 238.04
  Q 12.44 237.92 12.63 238.11
  Q 12.74 238.22 12.75 238.46
  Q 12.76 238.69 12.88 238.49
  Q 13.33 237.71 14.00 237.61
  Q 17.26 237.13 20.91 238.11
  A 0.30 0.29 16.1 0 1 21.12 238.48
  Q 21.07 238.67 21.25 238.75
  Q 21.50 238.88 21.56 238.88
  C 23.00 238.89 25.93 239.29 27.00 238.28
  Q 27.35 237.94 27.84 237.87
  Q 28.79 237.75 29.28 238.58
  Q 29.54 239.04 30.05 238.90
  Q 31.35 238.55 32.14 239.47
  Q 32.49 239.88 33.03 239.88
  L 34.25 239.88
  Q 34.84 239.88 35.07 240.44
  Q 35.39 241.23 36.50 240.77
  Q 36.80 240.64 36.95 240.35
  Q 37.01 240.22 37.14 240.13
  Q 37.51 239.86 37.87 240.13
  Q 38.02 240.25 38.09 240.42
  Q 38.25 240.88 38.75 240.88
  L 44.25 240.88
  A 1.14 0.71 53.7 0 1 44.87 241.13
  Q 45.02 241.25 45.09 241.42
  Q 45.25 241.88 45.74 241.88
  L 50.25 241.88
  A 1.14 0.71 53.7 0 1 50.87 242.13
  Q 51.02 242.25 51.09 242.43
  Q 51.25 242.88 51.74 242.88
  L 54.26 242.88
  Q 54.75 242.88 54.92 242.42
  Q 54.99 242.22 55.17 242.09
  Q 55.47 241.88 55.83 241.88
  L 63.50 241.88
  Q 63.88 241.88 63.87 241.50
  Q 63.86 240.92 64.49 240.87
  Q 65.30 240.81 66.76 241.10
  A 0.12 0.12 0.0 0 1 66.84 241.27
  Q 66.79 241.38 66.73 241.50
  Q 66.69 241.58 66.76 241.63
  L 67.30 242.05
  Z" fill="#0275ed"></path>
<path d="M 381.06 340.78
  C 393.12 356.88 406.05 371.16 428.57 367.78
  Q 428.90 368.70 427.40 369.14
  A 0.36 0.36 0.0 0 0 427.38 369.82
  Q 427.88 370.00 428.11 370.49
  A 0.92 0.91 -37.3 0 1 427.97 371.50
  L 426.38 373.30
  Q 426.03 373.69 426.14 374.20
  Q 426.45 375.66 425.08 376.46
  A 0.24 0.24 0.0 0 0 425.28 376.90
  Q 425.57 376.81 425.78 377.03
  Q 425.99 377.27 425.85 377.55
  Q 425.66 377.90 425.35 378.14
  A 0.43 0.42 32.7 0 0 425.52 378.90
  Q 425.74 378.95 425.87 379.13
  Q 426.16 379.53 425.85 379.90
  Q 425.74 380.03 425.58 380.09
  Q 425.12 380.25 425.12 380.74
  L 425.12 387.28
  Q 425.12 387.84 424.59 388.04
  Q 423.94 388.30 424.09 389.06
  Q 424.18 389.55 424.58 389.84
  Q 425.28 390.36 425.13 391.18
  Q 425.04 391.63 425.46 391.84
  Q 426.35 392.28 426.06 393.25
  A 1.18 1.15 -15.5 0 1 425.79 393.71
  L 425.22 394.27
  A 0.33 0.33 0.0 0 0 425.34 394.81
  Q 426.41 395.21 426.09 396.50
  Q 425.96 397.02 425.43 397.12
  Q 425.25 397.16 425.11 397.39
  A 0.32 0.32 0.0 0 0 425.39 397.87
  Q 425.66 397.87 425.86 398.12
  Q 426.14 398.47 425.89 398.84
  Q 425.77 399.02 425.58 399.09
  Q 425.12 399.25 425.12 399.74
  L 425.12 403.80
  Q 425.12 404.37 424.71 404.78
  L 424.14 405.35
  A 0.31 0.31 0.0 0 0 424.38 405.88
  Q 424.59 405.86 424.76 406.02
  Q 425.00 406.24 424.86 406.53
  Q 424.69 406.86 424.38 407.11
  A 0.82 0.81 64.0 0 0 424.09 407.97
  Q 424.44 409.34 423.35 410.13
  Q 423.01 410.38 423.23 410.75
  Q 423.32 410.90 423.45 410.89
  Q 423.87 410.86 423.87 411.27
  Q 423.88 411.73 423.51 411.99
  Q 423.12 412.27 423.12 412.74
  L 423.12 414.25
  Q 423.12 414.70 423.50 414.93
  Q 425.86 416.41 424.98 419.42
  A 0.36 0.36 0.0 0 0 425.37 419.88
  Q 425.58 419.85 425.75 420.00
  A 0.40 0.01 43.6 0 1 426.00 420.25
  Q 426.36 420.97 425.79 421.48
  Q 425.37 421.85 425.93 421.86
  Q 426.96 421.88 426.79 422.43
  C 407.43 423.10 390.11 420.44 373.80 410.19
  Q 361.10 402.20 350.13 390.19
  L 359.09 381.31
  Q 359.44 380.97 359.92 380.90
  Q 360.08 380.88 360.26 380.88
  Q 360.67 380.87 360.75 380.47
  Q 361.05 378.91 362.47 377.86
  Q 362.94 377.52 362.87 376.94
  Q 362.79 376.18 363.45 375.91
  Q 363.88 375.73 363.88 375.26
  L 363.88 373.78
  Q 363.88 373.30 364.30 373.04
  Q 365.32 372.42 364.81 370.95
  A 0.70 0.70 0.0 0 1 365.14 370.10
  Q 366.71 369.24 366.96 367.54
  Q 367.02 367.07 367.47 366.91
  Q 368.05 366.70 367.89 366.05
  Q 367.78 365.61 368.09 365.28
  L 370.31 362.93
  Q 370.69 362.53 370.87 362.01
  Q 371.33 360.65 372.61 359.75
  A 0.61 0.60 -17.1 0 0 372.88 359.25
  L 372.88 358.02
  Q 372.88 357.45 373.30 357.06
  Q 374.00 356.41 374.51 355.62
  Q 374.66 355.39 374.41 355.06
  Q 374.12 354.68 374.38 354.29
  Q 374.81 353.61 375.00 352.83
  Q 375.13 352.31 375.49 351.91
  L 376.52 350.79
  Q 376.88 350.39 376.86 349.86
  Q 376.83 349.34 377.25 348.98
  Q 377.63 348.65 377.79 348.17
  Q 378.59 345.74 378.94 343.25
  Q 379.18 341.52 381.06 340.78
  Z" fill="#0275ed"></path>
</svg>
