<svg viewBox="0.00 0.00 36.00 35.00" version="1.1" xmlns="http://www.w3.org/2000/svg">
<g stroke-linecap="butt" fill="none" stroke-width="2.00">
<path d="M 7.18 13.47
  L 10.77 19.34" stroke="#cfd5d0"></path>
<path d="M 10.77 19.34
  L 11.56 20.66" stroke="#e7cbb3"></path>
<path d="M 11.56 20.66
  L 6.19 23.72
  Q 5.66 24.02 6.19 24.32
  L 17.59 30.91
  A 1.55 1.53 -44.7 0 0 19.14 30.91
  L 30.52 24.30
  A 0.42 0.41 57.9 0 0 30.65 23.71
  L 27.94 19.66" stroke="#fbc39b"></path>
<path d="M 27.94 19.66
  L 24.87 14.69" stroke="#e7cbb3"></path>
<path d="M 24.87 14.69
  L 29.96 11.75
  A 0.55 0.55 0.0 0 0 29.96 10.80
  L 18.48 4.20
  A 1.02 1.01 44.5 0 0 17.47 4.20
  L 6.09 10.79
  Q 5.62 11.05 5.83 11.55
  Q 6.32 12.70 7.18 13.47" stroke="#b8dfec"></path>
<path d="M 24.87 14.69
  C 21.40 16.61 18.74 19.89 14.99 16.85" stroke="#a0ab9f"></path>
<path d="M 14.99 16.85
  Q 11.45 14.19 7.18 13.47" stroke="#88b5bc"></path>
<path d="M 14.99 16.85
  Q 14.72 17.68 14.27 18.25
  Q 13.96 18.65 13.45 18.64
  Q 11.98 18.61 10.77 19.34" stroke="#b6a183"></path>
<path d="M 27.94 19.66
  Q 26.65 21.20 25.49 21.56
  C 24.19 21.96 23.74 22.19 23.09 23.21
  Q 22.82 23.63 22.32 23.61
  Q 21.73 23.59 21.25 24.01
  Q 19.07 25.89 16.89 27.58
  A 0.74 0.74 0.0 0 1 15.82 27.39
  L 11.56 20.66" stroke="#e28f4e"></path>
</g>
<path d="M 0.00 0.00
  L 36.00 0.00
  L 36.00 35.00
  L 0.00 35.00
  L 0.00 0.00
  Z
  M 7.18 13.47
  L 10.77 19.34
  L 11.56 20.66
  L 6.19 23.72
  Q 5.66 24.02 6.19 24.32
  L 17.59 30.91
  A 1.55 1.53 -44.7 0 0 19.14 30.91
  L 30.52 24.30
  A 0.42 0.41 57.9 0 0 30.65 23.71
  L 27.94 19.66
  L 24.87 14.69
  L 29.96 11.75
  A 0.55 0.55 0.0 0 0 29.96 10.80
  L 18.48 4.20
  A 1.02 1.01 44.5 0 0 17.47 4.20
  L 6.09 10.79
  Q 5.62 11.05 5.83 11.55
  Q 6.32 12.70 7.18 13.47
  Z" fill="#ffffff"></path>
<path d="M 24.87 14.69
  C 21.40 16.61 18.74 19.89 14.99 16.85
  Q 11.45 14.19 7.18 13.47
  Q 6.32 12.70 5.83 11.55
  Q 5.62 11.05 6.09 10.79
  L 17.47 4.20
  A 1.02 1.01 44.5 0 1 18.48 4.20
  L 29.96 10.80
  A 0.55 0.55 0.0 0 1 29.96 11.75
  L 24.87 14.69
  Z" fill="#71bfd8"></path>
<path d="M 7.18 13.47
  Q 11.45 14.19 14.99 16.85
  Q 14.72 17.68 14.27 18.25
  Q 13.96 18.65 13.45 18.64
  Q 11.98 18.61 10.77 19.34
  L 7.18 13.47
  Z" fill="#9eaba0"></path>
<path d="M 24.87 14.69
  L 27.94 19.66
  Q 26.65 21.20 25.49 21.56
  C 24.19 21.96 23.74 22.19 23.09 23.21
  Q 22.82 23.63 22.32 23.61
  Q 21.73 23.59 21.25 24.01
  Q 19.07 25.89 16.89 27.58
  A 0.74 0.74 0.0 0 1 15.82 27.39
  L 11.56 20.66
  L 10.77 19.34
  Q 11.98 18.61 13.45 18.64
  Q 13.96 18.65 14.27 18.25
  Q 14.72 17.68 14.99 16.85
  C 18.74 19.89 21.40 16.61 24.87 14.69
  Z" fill="#ce9766"></path>
<path d="M 27.94 19.66
  L 30.65 23.71
  A 0.42 0.41 57.9 0 1 30.52 24.30
  L 19.14 30.91
  A 1.55 1.53 -44.7 0 1 17.59 30.91
  L 6.19 24.32
  Q 5.66 24.02 6.19 23.72
  L 11.56 20.66
  L 15.82 27.39
  A 0.74 0.74 0.0 0 0 16.89 27.58
  Q 19.07 25.89 21.25 24.01
  Q 21.73 23.59 22.32 23.61
  Q 22.82 23.63 23.09 23.21
  C 23.74 22.19 24.19 21.96 25.49 21.56
  Q 26.65 21.20 27.94 19.66
  Z" fill="#f68636"></path>
</svg>
