<svg viewBox="0.00 0.00 192.00 192.00" version="1.1" xmlns="http://www.w3.org/2000/svg">
<path d="M 107.75 33.86
  C 112.42 35.27 116.63 38.91 115.17 44.28
  C 112.20 55.23 97.50 58.54 87.73 58.53
  C 69.89 58.51 50.29 52.47 37.48 39.77
  C 32.18 34.51 28.48 26.36 32.14 18.99
  C 34.99 13.27 47.74 17.20 53.09 19.00
  C 64.90 22.97 74.87 25.79 88.82 28.89
  Q 98.38 31.01 107.75 33.86
  Z" fill="#ffcf6e"></path>
<path d="M 145.38 60.57
  C 154.75 56.18 164.19 49.81 171.88 46.88
  C 177.33 44.80 183.37 44.92 185.55 51.19
  C 187.41 56.51 187.84 61.46 186.20 67.03
  C 183.19 77.21 176.62 85.28 168.07 91.80
  Q 143.52 110.52 112.65 111.53
  C 99.55 111.96 84.80 108.42 75.73 98.76
  C 70.33 93.00 66.66 81.61 76.38 77.87
  Q 82.73 75.42 89.49 74.45
  Q 99.62 73.00 109.73 71.44
  Q 128.34 68.57 145.38 60.57
  Z" fill="#ffcf6e"></path>
<path d="M 63.46 113.24
  C 83.40 124.46 100.02 129.33 125.00 137.42
  C 133.40 140.14 145.71 145.18 143.37 156.49
  C 139.47 175.32 109.97 176.97 95.49 175.38
  C 66.38 172.18 38.48 157.89 18.92 136.09
  C 11.64 127.97 5.21 117.39 3.56 106.77
  Q 2.22 98.13 6.16 92.41
  C 10.91 85.54 19.34 88.43 25.48 91.53
  C 38.50 98.10 50.75 106.09 63.46 113.24
  Z" fill="#ffcf6e"></path>
</svg>
