<svg viewBox="0.00 0.00 180.00 180.00" version="1.1" xmlns="http://www.w3.org/2000/svg">
<g stroke-linecap="butt" fill="none" stroke-width="2.00">
<path d="M 83.74 133.38
  Q 77.71 135.70 72.76 135.99
  C 68.55 136.24 63.89 136.20 60.13 137.12
  C 45.96 140.60 36.38 152.94 36.00 167.50
  A 0.31 0.30 1.9 0 0 36.30 167.81
  Q 49.89 167.94 63.50 167.84
  Q 76.28 167.75 83.38 166.25
  C 107.71 161.11 128.89 144.28 138.69 121.20
  C 160.28 70.35 124.06 14.32 68.75 13.12
  Q 61.76 12.96 36.56 13.20
  Q 36.07 13.20 36.08 13.69
  C 36.25 28.33 46.51 40.81 60.59 43.94
  Q 61.61 44.17 70.99 44.89
  C 96.46 46.86 115.87 69.47 113.16 94.88
  C 111.30 112.33 100.18 127.04 83.74 133.38" stroke="#4b7955"></path>
<path d="M 41.64 93.33
  C 46.92 98.31 52.47 105.58 58.62 108.71
  C 68.24 113.60 81.08 109.67 85.90 99.55
  C 92.58 85.53 82.50 70.48 67.57 70.10
  Q 59.49 69.89 53.54 75.79
  Q 46.38 82.89 39.27 90.09
  A 0.57 0.57 0.0 0 0 39.25 90.87
  Q 40.45 92.21 41.64 93.33" stroke="#4b7955"></path>
</g>
<path d="M 0.00 0.00
  L 180.00 0.00
  L 180.00 180.00
  L 0.00 180.00
  L 0.00 0.00
  Z
  M 83.74 133.38
  Q 77.71 135.70 72.76 135.99
  C 68.55 136.24 63.89 136.20 60.13 137.12
  C 45.96 140.60 36.38 152.94 36.00 167.50
  A 0.31 0.30 1.9 0 0 36.30 167.81
  Q 49.89 167.94 63.50 167.84
  Q 76.28 167.75 83.38 166.25
  C 107.71 161.11 128.89 144.28 138.69 121.20
  C 160.28 70.35 124.06 14.32 68.75 13.12
  Q 61.76 12.96 36.56 13.20
  Q 36.07 13.20 36.08 13.69
  C 36.25 28.33 46.51 40.81 60.59 43.94
  Q 61.61 44.17 70.99 44.89
  C 96.46 46.86 115.87 69.47 113.16 94.88
  C 111.30 112.33 100.18 127.04 83.74 133.38
  Z
  M 41.64 93.33
  C 46.92 98.31 52.47 105.58 58.62 108.71
  C 68.24 113.60 81.08 109.67 85.90 99.55
  C 92.58 85.53 82.50 70.48 67.57 70.10
  Q 59.49 69.89 53.54 75.79
  Q 46.38 82.89 39.27 90.09
  A 0.57 0.57 0.0 0 0 39.25 90.87
  Q 40.45 92.21 41.64 93.33
  Z" fill="#333333"></path>
<path d="M 83.74 133.38
  C 100.18 127.04 111.30 112.33 113.16 94.88
  C 115.87 69.47 96.46 46.86 70.99 44.89
  Q 61.61 44.17 60.59 43.94
  C 46.51 40.81 36.25 28.33 36.08 13.69
  Q 36.07 13.20 36.56 13.20
  Q 61.76 12.96 68.75 13.12
  C 124.06 14.32 160.28 70.35 138.69 121.20
  C 128.89 144.28 107.71 161.11 83.38 166.25
  Q 76.28 167.75 63.50 167.84
  Q 49.89 167.94 36.30 167.81
  A 0.31 0.30 1.9 0 1 36.00 167.50
  C 36.38 152.94 45.96 140.60 60.13 137.12
  C 63.89 136.20 68.55 136.24 72.76 135.99
  Q 77.71 135.70 83.74 133.38
  Z" fill="#63bf76"></path>
<path d="M 41.64 93.33
  Q 40.45 92.21 39.25 90.87
  A 0.57 0.57 0.0 0 1 39.27 90.09
  Q 46.38 82.89 53.54 75.79
  Q 59.49 69.89 67.57 70.10
  C 82.50 70.48 92.58 85.53 85.90 99.55
  C 81.08 109.67 68.24 113.60 58.62 108.71
  C 52.47 105.58 46.92 98.31 41.64 93.33
  Z" fill="#63bf76"></path>
</svg>
