<svg viewBox="0.00 0.00 128.00 128.00" version="1.1" xmlns="http://www.w3.org/2000/svg">
<g stroke-linecap="butt" fill="none" stroke-width="2.00">
<path d="M 86.04 67.76
  L 42.22 67.53" stroke="#b288de"></path>
<path d="M 104.75 79.67
  Q 93.07 79.05 81.10 79.93" stroke="#7237af"></path>
<path d="M 81.10 79.93
  Q 76.35 72.28 67.25 71.05
  Q 54.35 69.30 46.94 79.79" stroke="#b288de"></path>
<path d="M 46.94 79.79
  L 23.26 79.61" stroke="#7237af"></path>
<path d="M 81.10 79.93
  Q 88.99 93.68 78.48 105.33" stroke="#9061c1"></path>
<path d="M 78.48 105.33
  Q 74.30 109.45 67.99 111.42" stroke="#b288de"></path>
<path d="M 59.59 111.40
  Q 57.86 111.26 57.40 110.77
  A 0.93 0.02 46.5 0 0 56.77 110.14
  Q 52.35 108.35 49.46 105.32" stroke="#b288de"></path>
<path d="M 49.46 105.32
  Q 38.98 93.56 46.94 79.79" stroke="#9061c1"></path>
<path d="M 104.76 105.49
  L 78.48 105.33" stroke="#7237af"></path>
<path d="M 49.46 105.32
  L 23.26 105.41" stroke="#7237af"></path>
<path d="M 74.11 55.43
  A 1.18 1.18 0.0 0 0 75.68 54.71
  C 77.18 50.24 80.00 46.70 83.06 43.04
  C 87.37 37.89 88.80 32.40 86.85 25.73
  C 84.68 18.32 76.60 31.35 75.71 33.02
  C 72.91 38.22 72.09 46.53 70.91 52.93
  Q 70.70 54.06 71.76 54.49
  L 74.11 55.43" stroke="#b288de"></path>
<path d="M 54.15 55.30
  L 56.87 54.28
  Q 57.50 54.05 57.41 53.39
  C 56.01 42.61 54.41 31.29 45.50 24.03
  C 44.06 22.87 42.30 23.71 41.72 25.43
  C 39.40 32.34 40.96 38.31 45.49 43.47
  C 49.05 47.54 50.98 50.19 52.67 54.64
  A 1.15 1.15 0.0 0 0 54.15 55.30" stroke="#b288de"></path>
<path d="M 74.9150 64.8800
  A 2.89 2.15 89.9 0 0 77.0600 61.9862
  A 2.89 2.15 89.9 0 0 74.9050 59.1000
  A 2.89 2.15 89.9 0 0 72.7600 61.9938
  A 2.89 2.15 89.9 0 0 74.9150 64.8800" stroke="#9061c1"></path>
<path d="M 54.5602 64.8799
  A 2.90 2.16 89.6 0 0 56.6999 61.9649
  A 2.90 2.16 89.6 0 0 54.5198 59.0801
  A 2.90 2.16 89.6 0 0 52.3801 61.9951
  A 2.90 2.16 89.6 0 0 54.5602 64.8799" stroke="#9061c1"></path>
<path d="M 37.7563 72.4001
  A 1.64 1.64 0.0 0 0 36.1249 70.7515
  L 27.9250 70.7086
  A 1.64 1.64 0.0 0 0 26.2765 72.3400
  L 26.2637 74.7799
  A 1.64 1.64 0.0 0 0 27.8951 76.4285
  L 36.0950 76.4714
  A 1.64 1.64 0.0 0 0 37.7435 74.8400
  L 37.7563 72.4001" stroke="#593181"></path>
<path d="M 81.42 91.07
  A 17.42 17.42 0.0 0 0 64.00 73.65
  A 17.42 17.42 0.0 0 0 46.58 91.07
  A 17.42 17.42 0.0 0 0 64.00 108.49
  A 17.42 17.42 0.0 0 0 81.42 91.07" stroke="#9061c1"></path>
<path d="M 75.18 91.41
  Q 76.54 90.38 75.58 89.13
  Q 75.27 88.72 75.16 88.21
  Q 73.96 82.31 68.36 80.21
  C 67.46 79.87 66.60 80.25 65.71 79.39
  Q 65.40 79.09 65.10 79.40
  L 64.87 79.64
  Q 64.40 80.13 64.01 79.57
  Q 63.49 78.82 62.94 79.62
  Q 62.69 79.98 62.28 79.81
  Q 62.11 79.73 62.01 79.58
  Q 61.76 79.18 61.33 79.38
  C 57.92 81.05 55.00 82.11 53.39 86.23
  C 53.07 87.06 53.05 88.08 52.54 89.01
  C 51.79 90.38 51.70 91.35 52.74 92.46
  Q 52.83 92.56 52.76 92.66
  Q 52.69 92.78 52.66 92.90
  A 0.84 0.01 -77.3 0 0 52.49 93.71
  Q 53.57 97.12 56.00 99.59
  C 57.37 100.97 59.40 101.65 61.18 102.59
  C 62.37 103.22 63.42 103.01 64.71 102.98
  Q 65.21 102.97 65.63 102.71
  C 66.90 101.93 68.26 101.94 69.40 101.38
  Q 73.25 99.48 74.77 95.41
  C 75.10 94.54 74.84 93.61 75.60 92.69
  Q 75.75 92.50 75.68 92.26
  Q 75.62 92.06 75.37 92.04
  A 0.35 0.35 0.0 0 1 75.18 91.41" stroke="#450e7b"></path>
</g>
<path d="M 86.04 67.76
  L 42.22 67.53
  Q 42.59 66.75 42.57 65.72
  Q 42.56 65.22 42.80 64.78
  Q 45.88 59.24 51.61 56.46
  Q 52.09 56.23 51.89 55.73
  C 50.00 51.06 46.93 47.57 43.67 43.83
  C 38.27 37.63 37.58 29.18 39.91 21.60
  C 40.59 19.40 41.96 17.87 44.20 19.80
  Q 50.32 25.06 53.78 31.78
  C 56.95 37.96 57.89 46.44 58.57 53.71
  Q 58.58 53.81 58.68 53.79
  Q 63.75 52.83 68.71 53.70
  A 0.84 0.84 0.0 0 0 69.69 52.94
  C 70.28 45.11 71.46 35.59 75.92 28.98
  Q 79.57 23.55 84.51 19.33
  A 1.95 1.94 -31.2 0 1 87.58 20.08
  Q 90.36 26.90 89.06 34.52
  C 87.55 43.40 79.06 47.14 76.27 55.84
  Q 76.11 56.37 76.60 56.60
  Q 84.05 60.15 86.04 67.76
  Z
  M 74.11 55.43
  A 1.18 1.18 0.0 0 0 75.68 54.71
  C 77.18 50.24 80.00 46.70 83.06 43.04
  C 87.37 37.89 88.80 32.40 86.85 25.73
  C 84.68 18.32 76.60 31.35 75.71 33.02
  C 72.91 38.22 72.09 46.53 70.91 52.93
  Q 70.70 54.06 71.76 54.49
  L 74.11 55.43
  Z
  M 54.15 55.30
  L 56.87 54.28
  Q 57.50 54.05 57.41 53.39
  C 56.01 42.61 54.41 31.29 45.50 24.03
  C 44.06 22.87 42.30 23.71 41.72 25.43
  C 39.40 32.34 40.96 38.31 45.49 43.47
  C 49.05 47.54 50.98 50.19 52.67 54.64
  A 1.15 1.15 0.0 0 0 54.15 55.30
  Z
  M 74.9150 64.8800
  A 2.89 2.15 89.9 0 0 77.0600 61.9862
  A 2.89 2.15 89.9 0 0 74.9050 59.1000
  A 2.89 2.15 89.9 0 0 72.7600 61.9938
  A 2.89 2.15 89.9 0 0 74.9150 64.8800
  Z
  M 54.5602 64.8799
  A 2.90 2.16 89.6 0 0 56.6999 61.9649
  A 2.90 2.16 89.6 0 0 54.5198 59.0801
  A 2.90 2.16 89.6 0 0 52.3801 61.9951
  A 2.90 2.16 89.6 0 0 54.5602 64.8799
  Z" fill="#d0b2f0"></path>
<path d="M 74.11 55.43
  L 71.76 54.49
  Q 70.70 54.06 70.91 52.93
  C 72.09 46.53 72.91 38.22 75.71 33.02
  C 76.60 31.35 84.68 18.32 86.85 25.73
  C 88.80 32.40 87.37 37.89 83.06 43.04
  C 80.00 46.70 77.18 50.24 75.68 54.71
  A 1.18 1.18 0.0 0 1 74.11 55.43
  Z" fill="#945dcc"></path>
<path d="M 54.15 55.30
  A 1.15 1.15 0.0 0 1 52.67 54.64
  C 50.98 50.19 49.05 47.54 45.49 43.47
  C 40.96 38.31 39.40 32.34 41.72 25.43
  C 42.30 23.71 44.06 22.87 45.50 24.03
  C 54.41 31.29 56.01 42.61 57.41 53.39
  Q 57.50 54.05 56.87 54.28
  L 54.15 55.30
  Z" fill="#945dcc"></path>
<ellipse ry="2.15" rx="2.89" transform="translate(74.91,61.99) rotate(89.9)" cy="0.00" cx="0.00" fill="#501091"></ellipse>
<ellipse ry="2.16" rx="2.90" transform="translate(54.54,61.98) rotate(89.6)" cy="0.00" cx="0.00" fill="#501091"></ellipse>
<path d="M 42.22 67.53
  L 86.04 67.76
  Q 95.07 67.86 98.76 67.78
  C 106.36 67.61 104.73 74.92 104.75 79.67
  Q 93.07 79.05 81.10 79.93
  Q 76.35 72.28 67.25 71.05
  Q 54.35 69.30 46.94 79.79
  L 23.26 79.61
  C 23.26 76.79 22.56 71.98 24.28 69.77
  C 26.70 66.65 37.77 67.77 41.62 67.83
  Q 41.93 67.83 42.22 67.53
  Z
  M 37.7563 72.4001
  A 1.64 1.64 0.0 0 0 36.1249 70.7515
  L 27.9250 70.7086
  A 1.64 1.64 0.0 0 0 26.2765 72.3400
  L 26.2637 74.7799
  A 1.64 1.64 0.0 0 0 27.8951 76.4285
  L 36.0950 76.4714
  A 1.64 1.64 0.0 0 0 37.7435 74.8400
  L 37.7563 72.4001
  Z" fill="#945dcc"></path>
<rect rx="1.64" height="5.72" width="11.48" transform="translate(32.01,73.59) rotate(0.3)" y="-2.86" x="-5.74" fill="#1e0536"></rect>
<path d="M 81.10 79.93
  Q 88.99 93.68 78.48 105.33
  Q 74.30 109.45 67.99 111.42
  L 59.59 111.40
  Q 57.86 111.26 57.40 110.77
  A 0.93 0.02 46.5 0 0 56.77 110.14
  Q 52.35 108.35 49.46 105.32
  Q 38.98 93.56 46.94 79.79
  Q 54.35 69.30 67.25 71.05
  Q 76.35 72.28 81.10 79.93
  Z
  M 81.42 91.07
  A 17.42 17.42 0.0 0 0 64.00 73.65
  A 17.42 17.42 0.0 0 0 46.58 91.07
  A 17.42 17.42 0.0 0 0 64.00 108.49
  A 17.42 17.42 0.0 0 0 81.42 91.07
  Z" fill="#d0b2f0"></path>
<path d="M 81.42 91.07
  A 17.42 17.42 0.0 0 1 64.00 108.49
  A 17.42 17.42 0.0 0 1 46.58 91.07
  A 17.42 17.42 0.0 0 1 64.00 73.65
  A 17.42 17.42 0.0 0 1 81.42 91.07
  Z
  M 75.18 91.41
  Q 76.54 90.38 75.58 89.13
  Q 75.27 88.72 75.16 88.21
  Q 73.96 82.31 68.36 80.21
  C 67.46 79.87 66.60 80.25 65.71 79.39
  Q 65.40 79.09 65.10 79.40
  L 64.87 79.64
  Q 64.40 80.13 64.01 79.57
  Q 63.49 78.82 62.94 79.62
  Q 62.69 79.98 62.28 79.81
  Q 62.11 79.73 62.01 79.58
  Q 61.76 79.18 61.33 79.38
  C 57.92 81.05 55.00 82.11 53.39 86.23
  C 53.07 87.06 53.05 88.08 52.54 89.01
  C 51.79 90.38 51.70 91.35 52.74 92.46
  Q 52.83 92.56 52.76 92.66
  Q 52.69 92.78 52.66 92.90
  A 0.84 0.01 -77.3 0 0 52.49 93.71
  Q 53.57 97.12 56.00 99.59
  C 57.37 100.97 59.40 101.65 61.18 102.59
  C 62.37 103.22 63.42 103.01 64.71 102.98
  Q 65.21 102.97 65.63 102.71
  C 66.90 101.93 68.26 101.94 69.40 101.38
  Q 73.25 99.48 74.77 95.41
  C 75.10 94.54 74.84 93.61 75.60 92.69
  Q 75.75 92.50 75.68 92.26
  Q 75.62 92.06 75.37 92.04
  A 0.35 0.35 0.0 0 1 75.18 91.41
  Z" fill="#501091"></path>
<path d="M 75.37 92.04
  Q 75.62 92.06 75.68 92.26
  Q 75.75 92.50 75.60 92.69
  C 74.84 93.61 75.10 94.54 74.77 95.41
  Q 73.25 99.48 69.40 101.38
  C 68.26 101.94 66.90 101.93 65.63 102.71
  Q 65.21 102.97 64.71 102.98
  C 63.42 103.01 62.37 103.22 61.18 102.59
  C 59.40 101.65 57.37 100.97 56.00 99.59
  Q 53.57 97.12 52.49 93.71
  A 0.84 0.01 -77.3 0 1 52.66 92.90
  Q 52.69 92.78 52.76 92.66
  Q 52.83 92.56 52.74 92.46
  C 51.70 91.35 51.79 90.38 52.54 89.01
  C 53.05 88.08 53.07 87.06 53.39 86.23
  C 55.00 82.11 57.92 81.05 61.33 79.38
  Q 61.76 79.18 62.01 79.58
  Q 62.11 79.73 62.28 79.81
  Q 62.69 79.98 62.94 79.62
  Q 63.49 78.82 64.01 79.57
  Q 64.40 80.13 64.87 79.64
  L 65.10 79.40
  Q 65.40 79.09 65.71 79.39
  C 66.60 80.25 67.46 79.87 68.36 80.21
  Q 73.96 82.31 75.16 88.21
  Q 75.27 88.72 75.58 89.13
  Q 76.54 90.38 75.18 91.41
  A 0.35 0.35 0.0 0 0 75.37 92.04
  Z" fill="#390c65"></path>
<path d="M 23.26 79.61
  L 46.94 79.79
  Q 38.98 93.56 49.46 105.32
  L 23.26 105.41
  L 23.26 79.61
  Z" fill="#501091"></path>
<path d="M 104.75 79.67
  L 104.76 105.49
  L 78.48 105.33
  Q 88.99 93.68 81.10 79.93
  Q 93.07 79.05 104.75 79.67
  Z" fill="#501091"></path>
<path d="M 49.46 105.32
  Q 52.35 108.35 56.77 110.14
  A 0.93 0.02 46.5 0 1 57.40 110.77
  Q 57.86 111.26 59.59 111.40
  L 27.27 111.44
  Q 26.71 111.44 26.43 110.96
  Q 26.12 110.45 25.48 110.47
  A 0.75 0.75 0.0 0 1 24.75 109.98
  Q 24.38 108.95 23.59 108.18
  A 1.07 1.04 -68.8 0 1 23.26 107.41
  L 23.26 105.41
  L 49.46 105.32
  Z" fill="#945dcc"></path>
<path d="M 78.48 105.33
  L 104.76 105.49
  Q 104.90 108.49 102.80 110.20
  Q 101.37 111.37 98.38 111.39
  Q 83.15 111.46 67.99 111.42
  Q 74.30 109.45 78.48 105.33
  Z" fill="#945dcc"></path>
</svg>
