<svg viewBox="0.00 0.00 26.00 25.00" version="1.1" xmlns="http://www.w3.org/2000/svg">
<g stroke-linecap="butt" fill="none" stroke-width="2.00">
<path d="M 16.86 3.91
  Q 17.59 5.44 16.74 5.90
  Q 15.80 6.40 16.04 7.39" stroke="#8a2dff"></path>
<path d="M 16.04 7.39
  C 4.30 4.43 -0.01 19.02 11.29 21.34" stroke="#db8dff"></path>
<path d="M 11.29 21.34
  L 11.96 25.00" stroke="#8a2dff"></path>
<path d="M 11.29 21.34
  Q 13.88 21.58 16.47 20.89
  Q 17.03 20.74 17.53 21.00
  L 18.19 21.35
  Q 18.79 21.67 18.85 20.99
  C 18.94 20.00 18.92 19.79 19.46 18.94
  Q 24.10 11.56 16.04 7.39" stroke="#ae9fff"></path>
<path d="M 10.78 13.72
  L 7.97 13.93
  A 0.28 0.28 0.0 0 0 7.71 14.23
  L 7.74 14.65
  A 1.62 1.51 85.6 0 0 9.37 16.15
  L 9.73 16.12
  A 1.62 1.51 85.6 0 0 11.11 14.39
  L 11.08 13.97
  A 0.28 0.28 0.0 0 0 10.78 13.72" stroke="#85889e"></path>
<path d="M 17.93 13.83
  L 14.95 13.87
  A 0.26 0.26 0.0 0 0 14.70 14.13
  L 14.70 14.39
  A 1.80 1.62 89.2 0 0 16.35 16.17
  L 16.61 16.17
  A 1.80 1.62 89.2 0 0 18.20 14.35
  L 18.20 14.09
  A 0.26 0.26 0.0 0 0 17.93 13.83" stroke="#85889e"></path>
</g>
<path d="M 8.05 0.00
  L 8.97 0.00
  L 9.71 0.87
  A 0.64 0.63 -43.9 0 1 9.69 1.70
  Q 9.00 2.46 8.98 3.48
  Q 8.98 3.98 9.47 3.88
  Q 13.16 3.09 16.86 3.91
  Q 17.59 5.44 16.74 5.90
  Q 15.80 6.40 16.04 7.39
  C 4.30 4.43 -0.01 19.02 11.29 21.34
  L 11.96 25.00
  L 11.08 25.00
  Q 5.15 23.47 0.00 16.61
  L 0.00 11.31
  L 7.70 4.39
  Q 8.01 4.11 7.95 3.70
  Q 7.80 2.68 7.27 1.77
  A 0.90 0.90 0.0 0 1 7.25 0.90
  Q 7.54 0.35 8.05 0.00
  Z" fill="#b71bff"></path>
<path d="M 17.06 0.00
  L 18.31 0.00
  Q 18.63 1.44 18.02 3.70
  A 0.89 0.89 0.0 0 0 18.46 4.71
  Q 21.74 6.42 23.57 9.62
  Q 23.81 10.04 24.25 10.21
  L 26.00 10.86
  L 26.00 16.73
  Q 20.43 23.78 14.63 25.00
  L 11.96 25.00
  L 11.29 21.34
  Q 13.88 21.58 16.47 20.89
  Q 17.03 20.74 17.53 21.00
  L 18.19 21.35
  Q 18.79 21.67 18.85 20.99
  C 18.94 20.00 18.92 19.79 19.46 18.94
  Q 24.10 11.56 16.04 7.39
  Q 15.80 6.40 16.74 5.90
  Q 17.59 5.44 16.86 3.91
  Q 16.81 2.68 16.26 1.73
  A 0.85 0.82 -48.0 0 1 16.23 0.92
  Q 16.51 0.34 17.06 0.00
  Z" fill="#5c3eff"></path>
<path d="M 16.04 7.39
  Q 24.10 11.56 19.46 18.94
  C 18.92 19.79 18.94 20.00 18.85 20.99
  Q 18.79 21.67 18.19 21.35
  L 17.53 21.00
  Q 17.03 20.74 16.47 20.89
  Q 13.88 21.58 11.29 21.34
  C -0.01 19.02 4.30 4.43 16.04 7.39
  Z
  M 10.78 13.72
  L 7.97 13.93
  A 0.28 0.28 0.0 0 0 7.71 14.23
  L 7.74 14.65
  A 1.62 1.51 85.6 0 0 9.37 16.15
  L 9.73 16.12
  A 1.62 1.51 85.6 0 0 11.11 14.39
  L 11.08 13.97
  A 0.28 0.28 0.0 0 0 10.78 13.72
  Z
  M 17.93 13.83
  L 14.95 13.87
  A 0.26 0.26 0.0 0 0 14.70 14.13
  L 14.70 14.39
  A 1.80 1.62 89.2 0 0 16.35 16.17
  L 16.61 16.17
  A 1.80 1.62 89.2 0 0 18.20 14.35
  L 18.20 14.09
  A 0.26 0.26 0.0 0 0 17.93 13.83
  Z" fill="#ffffff"></path>
<path d="M 10.78 13.72
  A 0.28 0.28 0.0 0 1 11.08 13.97
  L 11.11 14.39
  A 1.62 1.51 85.6 0 1 9.73 16.12
  L 9.37 16.15
  A 1.62 1.51 85.6 0 1 7.74 14.65
  L 7.71 14.23
  A 0.28 0.28 0.0 0 1 7.97 13.93
  L 10.78 13.72
  Z" fill="#0a113d"></path>
<path d="M 17.93 13.83
  A 0.26 0.26 0.0 0 1 18.20 14.09
  L 18.20 14.35
  A 1.80 1.62 89.2 0 1 16.61 16.17
  L 16.35 16.17
  A 1.80 1.62 89.2 0 1 14.70 14.39
  L 14.70 14.13
  A 0.26 0.26 0.0 0 1 14.95 13.87
  L 17.93 13.83
  Z" fill="#0a113d"></path>
</svg>
