<svg viewBox="0.00 0.00 128.00 128.00" version="1.1" xmlns="http://www.w3.org/2000/svg">
<g stroke-linecap="butt" fill="none" stroke-width="2.00">
<path d="M 128.00 37.60
  C 127.32 22.23 119.01 7.10 103.51 3.69
  Q 76.51 -2.23 48.91 2.56
  Q 43.22 3.55 37.03 6.05
  Q 27.25 10.01 17.58 14.31
  C 5.61 19.63 1.66 29.03 0.00 41.47" stroke="#95a4ef"></path>
<path d="M 128.00 61.85
  Q 127.67 64.55 127.41 67.24
  C 125.97 81.71 116.93 94.42 102.00 97.24
  Q 87.44 99.99 73.79 100.21
  Q 73.26 100.22 73.26 100.75
  L 73.25 127.00
  A 0.34 0.33 15.8 0 1 72.74 127.28
  Q 46.13 110.67 19.50 94.10
  Q 10.26 88.35 7.31 84.89
  C 2.33 79.01 0.97 72.50 0.00 64.87" stroke="#95a4ef"></path>
<path d="M 115.98 38.61
  C 115.75 29.32 110.80 20.61 101.24 18.49
  Q 73.11 12.24 45.03 18.65
  C 36.33 20.64 31.10 28.82 30.75 37.25
  Q 30.53 42.54 30.75 62.00
  C 30.84 69.76 35.41 79.50 43.23 81.56
  Q 65.94 87.54 92.02 83.86
  C 97.44 83.10 103.88 82.25 108.13 78.98
  Q 115.03 73.69 115.73 64.73
  Q 116.40 56.06 115.98 38.61" stroke="#95a4ef"></path>
<path d="M 60.05 39.88
  A 4.72 4.72 0.0 0 0 55.33 35.16
  L 54.99 35.16
  A 4.72 4.72 0.0 0 0 50.27 39.88
  L 50.27 60.38
  A 4.72 4.72 0.0 0 0 54.99 65.10
  L 55.33 65.10
  A 4.72 4.72 0.0 0 0 60.05 60.38
  L 60.05 39.88" stroke="#b6c9fb"></path>
<path d="M 96.23 39.84
  A 4.70 4.70 0.0 0 0 91.53 35.14
  L 91.21 35.14
  A 4.70 4.70 0.0 0 0 86.51 39.84
  L 86.51 60.40
  A 4.70 4.70 0.0 0 0 91.21 65.10
  L 91.53 65.10
  A 4.70 4.70 0.0 0 0 96.23 60.40
  L 96.23 39.84" stroke="#b6c9fb"></path>
</g>
<path d="M 0.00 0.00
  L 128.00 0.00
  L 128.00 37.60
  C 127.32 22.23 119.01 7.10 103.51 3.69
  Q 76.51 -2.23 48.91 2.56
  Q 43.22 3.55 37.03 6.05
  Q 27.25 10.01 17.58 14.31
  C 5.61 19.63 1.66 29.03 0.00 41.47
  L 0.00 0.00
  Z" fill="#ffffff"></path>
<path d="M 128.00 37.60
  L 128.00 61.85
  Q 127.67 64.55 127.41 67.24
  C 125.97 81.71 116.93 94.42 102.00 97.24
  Q 87.44 99.99 73.79 100.21
  Q 73.26 100.22 73.26 100.75
  L 73.25 127.00
  A 0.34 0.33 15.8 0 1 72.74 127.28
  Q 46.13 110.67 19.50 94.10
  Q 10.26 88.35 7.31 84.89
  C 2.33 79.01 0.97 72.50 0.00 64.87
  L 0.00 41.47
  C 1.66 29.03 5.61 19.63 17.58 14.31
  Q 27.25 10.01 37.03 6.05
  Q 43.22 3.55 48.91 2.56
  Q 76.51 -2.23 103.51 3.69
  C 119.01 7.10 127.32 22.23 128.00 37.60
  Z
  M 115.98 38.61
  C 115.75 29.32 110.80 20.61 101.24 18.49
  Q 73.11 12.24 45.03 18.65
  C 36.33 20.64 31.10 28.82 30.75 37.25
  Q 30.53 42.54 30.75 62.00
  C 30.84 69.76 35.41 79.50 43.23 81.56
  Q 65.94 87.54 92.02 83.86
  C 97.44 83.10 103.88 82.25 108.13 78.98
  Q 115.03 73.69 115.73 64.73
  Q 116.40 56.06 115.98 38.61
  Z" fill="#2a48df"></path>
<path d="M 101.24 18.49
  C 110.80 20.61 115.75 29.32 115.98 38.61
  Q 116.40 56.06 115.73 64.73
  Q 115.03 73.69 108.13 78.98
  C 103.88 82.25 97.44 83.10 92.02 83.86
  Q 65.94 87.54 43.23 81.56
  C 35.41 79.50 30.84 69.76 30.75 62.00
  Q 30.53 42.54 30.75 37.25
  C 31.10 28.82 36.33 20.64 45.03 18.65
  Q 73.11 12.24 101.24 18.49
  Z
  M 60.05 39.88
  A 4.72 4.72 0.0 0 0 55.33 35.16
  L 54.99 35.16
  A 4.72 4.72 0.0 0 0 50.27 39.88
  L 50.27 60.38
  A 4.72 4.72 0.0 0 0 54.99 65.10
  L 55.33 65.10
  A 4.72 4.72 0.0 0 0 60.05 60.38
  L 60.05 39.88
  Z
  M 96.23 39.84
  A 4.70 4.70 0.0 0 0 91.53 35.14
  L 91.21 35.14
  A 4.70 4.70 0.0 0 0 86.51 39.84
  L 86.51 60.40
  A 4.70 4.70 0.0 0 0 91.21 65.10
  L 91.53 65.10
  A 4.70 4.70 0.0 0 0 96.23 60.40
  L 96.23 39.84
  Z" fill="#ffffff"></path>
<rect rx="4.72" height="29.94" width="9.78" y="35.16" x="50.27" fill="#6d93f6"></rect>
<rect rx="4.70" height="29.96" width="9.72" y="35.14" x="86.51" fill="#6d93f6"></rect>
<path d="M 128.00 61.85
  L 128.00 128.00
  L 0.00 128.00
  L 0.00 64.87
  C 0.97 72.50 2.33 79.01 7.31 84.89
  Q 10.26 88.35 19.50 94.10
  Q 46.13 110.67 72.74 127.28
  A 0.34 0.33 15.8 0 0 73.25 127.00
  L 73.26 100.75
  Q 73.26 100.22 73.79 100.21
  Q 87.44 99.99 102.00 97.24
  C 116.93 94.42 125.97 81.71 127.41 67.24
  Q 127.67 64.55 128.00 61.85
  Z" fill="#ffffff"></path>
</svg>
